<?xml version="1.0" encoding="UTF-8" standalone="no"?>


<svg class="tikz-diagram" id="iran-action-ch4-tikz-2-ecc46b1f5f3a"
   version="1.1"
   id="svg1"
   width="572.97333"
   height="119.42667"
   viewBox="0 0 572.97333 119.42667"
   sodipodi:docname="iran-action-ch4-tikz-2-ecc46b1f5f3a.pdf"
   xmlns:inkscape="http://www.inkscape.org/namespaces/inkscape"
   xmlns:sodipodi="http://sodipodi.sourceforge.net/DTD/sodipodi-0.dtd"
   xmlns="http://www.w3.org/2000/svg"
   xmlns:svg="http://www.w3.org/2000/svg">
  <defs
     id="defs1" />
  <sodipodi:namedview
     id="namedview1"
     pagecolor="#ffffff"
     bordercolor="#000000"
     borderopacity="0.25"
     inkscape:showpageshadow="2"
     inkscape:pageopacity="0.0"
     inkscape:pagecheckerboard="0"
     inkscape:deskcolor="#d1d1d1">
    <inkscape:page
       x="0"
       y="0"
       inkscape:label="1"
       id="page1"
       width="572.97333"
       height="119.42667"
       margin="0"
       bleed="0" />
  </sodipodi:namedview>
  <g
     id="g1"
     inkscape:groupmode="layer"
     inkscape:label="1">
    <path
       id="path1"
       d="m 183.48358,28.3468 h -366.96716 c -8.25354,0 -14.94415,-6.69061 -14.94415,-14.94415 v -26.8053 c 0,-8.25354 6.69061,-14.94415 14.94415,-14.94415 h 366.96716 c 8.25354,0 14.94415,6.69061 14.94415,14.94415 v 26.8053 c 0,8.25354 -6.69061,14.94415 -14.94415,14.94415 z"
       style="fill:#e6f0fa;fill-opacity:1;fill-rule:nonzero;stroke:#0055a4;stroke-width:2.98883;stroke-linecap:butt;stroke-linejoin:miter;stroke-miterlimit:10;stroke-dasharray:none;stroke-opacity:1"
       transform="matrix(1.3333333,0,0,-1.3333333,286.48533,59.713333)" />
    <path
       style="font-weight:800;font-size:14.3462px;font-family:Vazirmatn"
       d="m 49.657637,3.5305102 q -1.506071,0 -2.486768,-0.5744084 -0.973692,-0.5744084 -1.443026,-1.5691157 -0.469334,-0.99470719 -0.469334,-2.24159372 0,-0.83359268 0.18213,-1.72322518 0.182129,-0.8966375 0.525373,-1.78627 l 1.702211,0.6514632 q -0.259185,0.7425279 -0.434309,1.4500309 -0.175125,0.707503 -0.175125,1.32394132 0,0.67247812 0.23817,1.23287656 0.238169,0.56039844 0.805572,0.89663752 0.567404,0.336239 1.555106,0.336239 1.064757,0 1.77226,-0.2451743 0.707503,-0.2381693 1.057752,-0.56740339 0.350249,-0.32923408 0.350249,-0.58141338 0,-0.20314443 -0.252179,-0.20314443 h -1.134807 q -0.357254,0 -0.749533,-0.07004981 -0.385274,-0.0700498 -0.721513,-0.30121416 -0.336239,-0.23116435 -0.546388,-0.69349303 -0.203145,-0.4623287 -0.203145,-1.2398816 0,-0.7285179 0.23817,-1.4009961 0.238169,-0.6794831 0.679483,-1.2118616 0.448318,-0.5323785 1.071762,-0.8476026 0.623443,-0.3152241 1.400996,-0.3152241 0.525373,0 1.029732,0.1611145 0.511363,0.1541096 0.938667,0.4623287 l -0.644458,1.78627 q -0.364259,-0.2031444 -0.700498,-0.2801992 -0.329234,-0.08406 -0.609433,-0.08406 -0.756538,0 -1.183842,0.4973537 -0.427304,0.4903486 -0.427304,1.2258715 0,0.1891345 0.119085,0.2381694 0.12609,0.049035 0.308219,0.049035 h 1.022727 q 0.805573,0 1.260897,0.2521793 0.462328,0.2521793 0.651463,0.7004981 0.196139,0.44131375 0.196139,1.00871717 0,1.00171221 -0.574408,1.83530493 -0.574409,0.8335926 -1.67419,1.3309462 -1.099782,0.4973537 -2.675903,0.4973537 z m -8.265879,-9.323629 q 0.882627,0 1.499065,0.5253735 0.616439,0.5253735 0.966688,1.3869861 0.350249,0.8546076 0.420298,1.8563198 h 0.525374 V 0 H 44.13771 Q 43.738426,1.5971355 42.568594,2.507783 41.398762,3.4254354 39.374323,3.8177144 L 38.68083,1.9473846 Q 39.563458,1.779265 40.312991,1.4990658 41.069528,1.2188666 41.587897,0.84059766 42.113271,0.46232871 42.288395,0 H 41.629927 Q 40.214921,0 39.472393,-0.58841836 38.729865,-1.1838417 38.729865,-2.507783 q 0,-0.5183686 0.161114,-1.085772 0.161115,-0.5744084 0.490349,-1.071762 0.329234,-0.5043586 0.826588,-0.8125777 0.504358,-0.3152241 1.183842,-0.3152241 z m 0.231164,3.7686794 h 0.896637 q -0.04203,-0.3922789 -0.168119,-0.8055727 -0.119085,-0.4132939 -0.357254,-0.6934931 -0.231165,-0.2801992 -0.616438,-0.2801992 -0.329235,0 -0.525374,0.2101494 -0.189134,0.2031445 -0.273194,0.4903487 -0.07706,0.2801992 -0.07706,0.5183685 0,0.371264 0.308219,0.4693337 0.315224,0.091065 0.812578,0.091065 z M 34.863115,0 h -1.50607 v -2.0244394 h 1.513075 q 0.532379,0 0.728518,-0.329234 0.203145,-0.3362391 0.203145,-0.8476027 0,-0.4763386 -0.119085,-1.0367371 -0.11208,-0.5674034 -0.231164,-1.1067869 l 1.835305,-0.4763387 q 0.133094,0.6584682 0.210149,1.3099314 0.08406,0.6444582 0.08406,1.2328765 0,0.9316624 -0.252179,1.6741904 -0.245175,0.7425279 -0.840598,1.17683669 Q 35.892848,0 34.863115,0 Z M 33.539174,0.8966375 34.730021,2.0734742 35.906857,0.8966375 37.104709,2.0874842 35.906857,3.2923408 34.730021,2.1014941 33.539174,3.2923408 32.348327,2.0874842 Z M 28.579647,3.8247193 27.865139,1.9473846 q 1.015722,-0.2171544 1.74424,-0.5814134 0.735523,-0.357254 1.134807,-0.95968233 0.399284,-0.60242832 0.399284,-1.55510567 0,-0.6374532 -0.203144,-1.429016 -0.203145,-0.7985678 -0.434309,-1.4850559 l 1.891345,-0.6094333 q 0.273194,0.7635429 0.413293,1.6461704 0.147105,0.8826276 0.147105,1.6952053 0,1.47104591 -0.546388,2.521793 -0.539384,1.057752 -1.527086,1.7092152 -0.980697,0.6584682 -2.304639,0.9246574 z M 25.203246,-9.8209826 h 1.891344 v 6.4025521 q 0,0.742528 0.217155,1.071762 0.217154,0.3222291 0.896637,0.3222291 h 0.175125 V 0 H 28.208382 Q 26.639267,0 25.917754,-0.81257773 25.203246,-1.6251555 25.203246,-3.2503109 Z m -3.971823,5.008561 1.751245,-0.2171544 0.1401,2.0034244 q 0.03503,0.5323786 0.294209,0.7705479 0.259184,0.2311643 0.826588,0.2311643 h 0.147104 V 0 H 24.229555 Q 23.529057,0 23.024698,-0.2521793 22.527345,-0.50435859 22.205116,-0.91064746 21.777812,-0.48334365 21.189393,-0.23816934 20.60798,0 19.949512,0 h -0.672478 v -2.0244394 h 0.672478 q 0.770548,0 1.057752,-0.2591842 0.294209,-0.2661893 0.294209,-0.9666873 0,-0.4132939 -0.02102,-0.7985678 -0.02101,-0.3922789 -0.04903,-0.7635429 z m 0.385274,-3.7126396 1.260897,1.2608965 -1.260897,1.2538915 -1.253891,-1.2538915 z M 12.671337,0 q -0.707503,0 -1.190846,-0.23816934 -0.476339,-0.24517431 -0.784558,-0.6444582 -0.385274,0.40628887 -0.9176526,0.6444582 Q 9.2459019,0 8.4333242,0 H 7.788866 v -2.0244394 h 0.6584681 q 0.7705479,0 1.092777,-0.1891344 0.3292341,-0.1891345 0.3292341,-0.9106475 0,-0.1120797 -0.01401,-0.371264 -0.01401,-0.2591842 -0.035025,-0.5674034 -0.021015,-0.3152241 -0.04203,-0.5674034 l 1.7582506,-0.2171544 0.147104,1.8913447 q 0.06304,0.9316624 1.001712,0.9316624 0.581414,0 0.777553,-0.2381693 0.19614,-0.2451743 0.19614,-0.8616126 0,-0.09807 -0.01401,-0.357254 -0.01401,-0.2661892 -0.03503,-0.5814134 -0.02101,-0.3152241 -0.04203,-0.5674034 l 1.75825,-0.2171544 0.147105,1.8913447 q 0.02802,0.4273039 0.210149,0.6794831 0.189134,0.2521793 0.637453,0.2521793 0.420299,0 0.574409,-0.329234 0.161114,-0.3362391 0.161114,-0.7985678 0,-0.3992839 -0.07706,-0.8195827 -0.07005,-0.4273038 -0.161114,-0.7705479 -0.08406,-0.350249 -0.12609,-0.5113635 l 1.81429,-0.4973537 q 0.1401,0.5533935 0.231164,1.1838417 0.09107,0.6234433 0.09107,1.2398816 0,0.8686176 -0.231164,1.6321604 -0.22416,0.75653792 -0.770548,1.22587161 Q 17.280614,0 16.334942,0 15.704494,0 15.270185,-0.25918428 14.842881,-0.51836855 14.548672,-0.8966375 14.191418,-0.51836855 13.736094,-0.25918428 13.287776,0 12.671337,0 Z M 8.012353,-5.365815 q 0,-0.5323786 0.3782689,-0.8826276 0.378269,-0.350249 0.9106475,-0.350249 0.5393835,0 0.9106476,0.350249 0.378269,0.350249 0.378269,0.8826276 0,0.5253735 -0.378269,0.8756225 -0.3782691,0.350249 -0.9106476,0.350249 -0.5463885,0 -0.9176524,-0.343244 -0.371264,-0.350249 -0.371264,-0.8826275 z m 0,4.1259335 q 0,-0.5253736 0.3782689,-0.8756226 0.378269,-0.357254 0.9106475,-0.357254 0.5393835,0 0.9106476,0.357254 0.378269,0.350249 0.378269,0.8756226 0,0.53237847 -0.378269,0.8826275 -0.3782691,0.35024902 -0.9106476,0.35024902 -0.5463885,0 -0.9176524,-0.35024902 Q 8.012353,-0.70750303 8.012353,-1.2398815 Z M 62.244913,0 h -1.919365 v -1.4150061 q 0,-1.6671853 -0.133094,-3.0051366 -0.12609,-1.3449562 -0.413294,-2.4587481 -0.287204,-1.1207969 -0.763543,-2.1084991 l 1.793275,-0.6514632 q 0.791563,1.7512451 1.113792,3.7546695 0.322229,2.0034244 0.322229,4.4901925 z m 214.742897,0.82658769 1.2609,1.26089651 -1.2609,1.2538915 -1.25389,-1.2538915 z M 278.13663,0 h -1.61815 q -1.21186,0 -2.23459,-0.14710459 -1.01572,-0.15410957 -1.77226,-0.53237851 -0.74953,-0.3782689 -1.16983,-1.0577521 -0.4133,-0.686488 -0.4133,-1.7512451 0,-0.6304482 0.1401,-1.2258716 0.1401,-0.6024283 0.35025,-1.1137918 l 1.6882,0.6304482 q -0.11908,0.3292341 -0.24517,0.7705478 -0.11909,0.4343088 -0.11909,0.8265877 0,0.7004981 0.51837,1.0367372 0.51837,0.336239 1.37298,0.4413137 0.86161,0.09807 1.88434,0.09807 h 1.63916 q 1.29593,0 2.01744,-0.2311643 0.72852,-0.2311644 0.72852,-0.9316624 0,-0.4623287 -0.11208,-1.0507471 -0.10508,-0.5884183 -0.23817,-1.1207969 l 1.84231,-0.4623287 q 0.1401,0.6584682 0.21715,1.3099314 0.0771,0.6444582 0.0771,1.2258716 0,1.050747 -0.35025,1.7022102 -0.35025,0.6514632 -0.9807,0.99470724 -0.62344,0.34324404 -1.45003,0.46933369 Q 279.0823,0 278.13663,0 Z m -12.07659,-2.3186485 q 1.21186,-0.5113636 1.21186,-2.6408777 v -4.8614564 h 1.87733 v 5.2327204 q 0,0.6234433 0.0631,1.2188666 0.07,0.5884184 0.30121,0.9666873 0.23817,0.3782689 0.72852,0.3782689 h 0.25919 V 0 h -0.2802 q -0.86862,0 -1.43602,-0.39928389 -0.5604,-0.40628886 -0.86162,-1.04374211 -0.69349,0.70750305 -1.80028,1.07876702 Q 265.0233,0 263.66433,0 q -0.37826,0 -0.74953,-0.02801992 -0.36426,-0.02801992 -0.74253,-0.05603985 V -2.0384493 q 0.43431,0.02802 0.86862,0.063045 0.44132,0.02802 0.76354,0.02802 0.12609,0 0.23117,0 0.11208,0 0.21015,-0.007 0,0 -0.0981,-0.4413138 -0.0911,-0.4413138 -0.2732,-1.1768367 -0.17512,-0.742528 -0.4343,-1.6531754 -0.25218,-0.9106475 -0.57441,-1.8633248 -0.32223,-0.9526774 -0.7005,-1.80028 l 1.72322,-0.7495329 q 0.38528,0.8966375 0.71451,1.9053547 0.32924,1.0017122 0.59543,1.9613945 0.27319,0.9596823 0.46232,1.7442401 0.19614,0.7775529 0.29421,1.2468866 z m -9.09247,-7.3622345 1.19085,1.1768367 1.17684,-1.1768367 1.19785,1.1908467 -1.19785,1.2048566 -1.17684,-1.1908467 -1.19085,1.1908467 -1.19085,-1.2048566 z m 3.99985,6.0242832 q 0,0.4553237 -0.11909,0.8476026 -0.11208,0.3922789 -0.38527,0.7775529 0.16111,0.007 0.29421,0.007 0.13309,0 0.24517,0 h 0.67248 V 0 h -0.95268 q -0.58141,0 -1.2609,-0.16811953 -0.67948,-0.17512451 -1.28891,-0.37826895 -0.63045,0.2171544 -1.33095,0.38527393 Q 256.14799,0 255.53155,0 h -1.27491 v -2.0244394 h 1.04375 q 0.16111,0 0.29421,0 0.1401,-0.007 0.33623,-0.01401 -0.26618,-0.3922789 -0.37826,-0.7845578 -0.11208,-0.3992839 -0.11208,-0.8476027 0,-0.5533934 0.22416,-1.064757 0.23116,-0.5183685 0.61643,-0.9246574 0.39228,-0.4132939 0.88263,-0.6514632 0.49035,-0.2381693 1.00872,-0.2381693 0.71451,0 1.35196,0.4132938 0.64446,0.4062889 1.04374,1.071762 0.39929,0.6584682 0.39929,1.4080011 z m -2.78098,-0.9456724 q -0.20315,0 -0.42731,0.1541096 -0.21715,0.1541096 -0.37126,0.378269 -0.15411,0.2171543 -0.15411,0.4273038 0,0.2591842 0.15411,0.5183685 0.16111,0.2521793 0.38527,0.4553237 0.23117,0.1961395 0.42731,0.3082192 0.32223,-0.1751245 0.64446,-0.5323785 0.32923,-0.357254 0.32923,-0.7635429 0,-0.2101494 -0.16812,-0.4273038 -0.16111,-0.2241594 -0.39228,-0.371264 -0.22416,-0.1471046 -0.4273,-0.1471046 z M 251.1044,0 h -1.11379 v -2.0244394 h 1.12079 q 0.53238,0 0.72852,-0.329234 0.20315,-0.3362391 0.20315,-0.8476027 0,-0.4763386 -0.11909,-1.0367371 -0.11208,-0.5674034 -0.23116,-1.1067869 l 1.8353,-0.4763387 q 0.1331,0.6584682 0.21015,1.3099314 0.0841,0.6444582 0.0841,1.2328765 0,0.9316624 -0.25218,1.6741904 -0.25218,0.7425279 -0.8476,1.17683669 Q 252.13413,0 251.1044,0 Z m 0.82659,-9.1344945 1.26089,1.2608965 -1.26089,1.2538915 -1.25389,-1.2538915 z m -2.75297,-0.6864881 v 9.81397762 h -1.89134 V -9.8209826 Z m -1.94104,1.6601804 1.26089,1.2608964 -1.26089,1.2538915 -1.2539,-1.2538915 z M 249.82882,0 q -0.63746,0 -1.05075,-0.24517432 -0.2802,1.61114552 -1.37998,2.66189262 -1.09278,1.050747 -2.92108,1.4009961 l -0.69349,-1.8703298 q 1.01572,-0.2171544 1.74424,-0.5814134 0.73552,-0.357254 1.13481,-0.95968233 0.39928,-0.60242832 0.39928,-1.55510567 0,-0.6374532 -0.20314,-1.429016 -0.20315,-0.7985678 -0.43431,-1.4850559 l 1.88434,-0.6094333 0.40629,1.5831256 q 0.11908,0.4483188 0.35025,0.7565379 0.23116,0.3082191 0.68648,0.3082191 h 0.2732 V 0 Z m -11.02584,-2.0244394 h 1.05775 q 0.77055,0 1.05776,-0.2591842 0.29421,-0.2661893 0.29421,-0.9666873 0,-0.4132939 -0.021,-0.7985678 -0.021,-0.3922789 -0.049,-0.7635429 l 1.75124,-0.2171544 0.1401,2.0034244 q 0.035,0.5323786 0.29421,0.7705479 0.25918,0.2311643 0.82659,0.2311643 h 0.1471 V 0 h -0.16111 q -0.7005,0 -1.20486,-0.2521793 -0.49735,-0.25217929 -0.81958,-0.65846816 -0.42731,0.42730381 -1.01572,0.67247812 Q 240.5192,0 239.86073,0 h -1.05775 z m 0.18213,2.9210769 1.19085,1.1768367 1.17684,-1.1768367 1.19785,1.1908467 -1.19785,1.2048566 -1.17684,-1.1908467 -1.19085,1.1908467 -1.19084,-1.2048566 z m -6.6057,-1.5060708 q -0.63045,0.21715439 -1.44303,0.41329385 Q 230.13081,0 229.36026,0 h -0.69349 v -2.0244394 h 0.60243 q 0.23116,0 0.43431,-0.007 0.21015,-0.007 0.4273,-0.021015 -0.21715,-0.2801992 -0.35025,-0.7425279 -0.13309,-0.4693337 -0.13309,-0.8686176 0,-0.5954233 0.29421,-1.1698317 0.29421,-0.5744084 0.88262,-0.9596823 0.58842,-0.385274 1.46404,-0.4132939 l 0.67248,-1.3309463 q 1.30293,0.6164383 2.31165,1.1278019 1.01572,0.5113635 1.70221,1.0087172 0.69349,0.4973536 1.05074,1.078767 0.35726,0.5744084 0.35726,1.3309462 0,1.4290161 -0.85461,2.17854897 -0.85461,0.74252793 -2.26261,0.74252793 -0.73552,0 -1.54109,-0.1821295 -0.80558,-0.18212949 -1.34496,-0.357254 z m -0.9877,-3.0681814 q 0,0.3852739 0.35025,0.7215129 0.35025,0.3292341 0.75653,0.4553238 0.18914,-0.04203 0.43431,-0.1891345 0.25218,-0.1541096 0.43431,-0.371264 0.18213,-0.2241593 0.18213,-0.4763386 0,-0.4202989 -0.30121,-0.7565379 -0.30122,-0.3362391 -0.73553,-0.3362391 -0.44831,0 -0.78455,0.2872042 -0.33624,0.2801992 -0.33624,0.6654732 z m 3.06818,1.6531753 q 0.32923,0.05604 0.63745,0.08406 0.30822,0.02802 0.44132,0.02802 0.41329,0 0.75653,-0.2101494 0.34325,-0.2171544 0.34325,-0.8125777 0,-0.1471046 -0.11208,-0.3362391 -0.10508,-0.1961394 -0.46233,-0.4763386 -0.35025,-0.2801993 -1.07877,-0.6864881 0.0981,0.3012141 0.0981,0.6234432 0,0.5463885 -0.17512,0.9947073 -0.16812,0.4413137 -0.44832,0.7915627 z M 227.64617,0 q -0.63745,0 -1.05075,-0.24517432 -0.2802,1.61114552 -1.37998,2.66189262 -1.09277,1.050747 -2.92107,1.4009961 l -0.6935,-1.8703298 q 1.01572,-0.2171544 1.74424,-0.5814134 0.73553,-0.357254 1.13481,-0.95968233 0.39928,-0.60242832 0.39928,-1.55510567 0,-0.6374532 -0.20314,-1.429016 -0.20315,-0.7985678 -0.43431,-1.4850559 l 1.88434,-0.6094333 0.40629,1.5831256 q 0.11908,0.4483188 0.35025,0.7565379 0.23116,0.3082191 0.68649,0.3082191 h 0.27319 V 0 Z m -8.95937,0 h -1.50607 v -2.0244394 h 1.51308 q 0.53237,0 0.72851,-0.329234 0.20315,-0.3362391 0.20315,-0.8476027 0,-0.4763386 -0.11909,-1.0367371 -0.11208,-0.5674034 -0.23116,-1.1067869 l 1.8353,-0.4763387 q 0.1331,0.6584682 0.21015,1.3099314 0.0841,0.6444582 0.0841,1.2328765 0,0.9316624 -0.25218,1.6741904 -0.24517,0.7425279 -0.84059,1.17683669 Q 219.71653,0 218.6868,0 Z m 1.05775,0.69349307 1.1278,1.12780183 -1.1278,1.1278019 -1.1278,-1.1278019 z m -2.44474,0 1.1208,1.12780183 -1.1208,1.1278019 -1.1278,-1.1278019 z m 1.21887,1.79327503 1.1278,1.1278018 -1.1278,1.1207969 -1.1278,-1.1207969 z m -16.37696,-10.1642267 1.19085,1.1768367 1.17683,-1.1768367 1.19786,1.1908467 -1.19786,1.2048566 -1.17683,-1.1908466 -1.19085,1.1908466 -1.19085,-1.2048566 z m 5.0576,2.865037 1.75124,-0.2171544 0.1401,2.0034244 q 0.035,0.5323786 0.2802,0.7705479 0.25218,0.2311643 0.82659,0.2311643 h 0.16111 V 0 h -0.16111 q -0.80558,0 -1.33795,-0.29420918 -0.53238,-0.30121416 -0.88263,-0.81257772 -0.63745,0.58841835 -1.55511,0.84760262 Q 205.51112,0 204.04707,0 h -1.16983 q -1.21186,0 -2.23459,-0.14710459 -1.01572,-0.15410957 -1.77226,-0.53237851 -0.74953,-0.3782689 -1.16983,-1.0577521 -0.41329,-0.686488 -0.41329,-1.7512451 0,-0.6304482 0.1401,-1.2258716 0.1401,-0.6024283 0.35025,-1.1137918 l 1.6882,0.6374532 q -0.11909,0.3292341 -0.24518,0.7635428 -0.11908,0.4343088 -0.11908,0.8265877 0,0.7004981 0.51837,1.0367372 0.51837,0.336239 1.37297,0.4413137 0.86162,0.09807 1.88434,0.09807 h 1.16983 q 1.01573,0 1.73724,-0.077055 0.72151,-0.08406 1.09978,-0.3432441 0.38528,-0.2661892 0.38528,-0.8195827 0,-0.357254 -0.021,-0.7845578 -0.021,-0.4273038 -0.049,-0.7635429 z M 193.4205,0 h -1.11379 v -2.0244394 h 1.1208 q 0.53237,0 0.72851,-0.329234 0.20315,-0.3362391 0.20315,-0.8476027 0,-0.4763386 -0.11909,-1.0367371 -0.11208,-0.5674034 -0.23116,-1.1067869 l 1.8353,-0.4763387 q 0.1331,0.6584682 0.21015,1.3099314 0.0841,0.6444582 0.0841,1.2328765 0,0.9316624 -0.25218,1.6741904 -0.25218,0.7425279 -0.8476,1.17683669 Q 194.45023,0 193.4205,0 Z m 0.82659,-9.1344945 1.26089,1.2608965 -1.26089,1.2538915 -1.25389,-1.2538915 z m -5.0716,3.3413757 q 0.88263,0 1.49907,0.5253735 0.61644,0.5253735 0.96669,1.3869861 0.35025,0.8546076 0.4203,1.8563198 h 0.52537 V 0 h -0.66547 q -0.39929,1.5971355 -1.56912,2.507783 -1.16983,0.9176524 -3.19427,1.3099314 l -0.69349,-1.8703298 q 0.88262,-0.1681196 1.63216,-0.4483188 0.75654,-0.2801992 1.2749,-0.65846814 Q 189.89701,0.46232871 190.07213,0 h -0.65847 q -1.415,0 -2.15753,-0.58841836 -0.74253,-0.59542334 -0.74253,-1.91936464 0,-0.5183686 0.16112,-1.085772 0.16111,-0.5744084 0.49035,-1.071762 0.32923,-0.5043586 0.82658,-0.8125777 0.50436,-0.3152241 1.18384,-0.3152241 z m 0.23117,3.7686794 h 0.89664 q -0.042,-0.3922789 -0.16812,-0.8055727 -0.11909,-0.4132939 -0.35726,-0.6934931 -0.23116,-0.2801992 -0.61644,-0.2801992 -0.32923,0 -0.52537,0.2101494 -0.18913,0.2031445 -0.27319,0.4903487 -0.0771,0.2801992 -0.0771,0.5183685 0,0.371264 0.30822,0.4693337 0.31523,0.091065 0.81258,0.091065 z m -9.33765,-7.9786726 1.12781,1.1207968 -1.12781,1.1278018 -1.1278,-1.1278018 z m 1.22587,1.7862699 1.12781,1.1278019 -1.12781,1.1278018 -1.1278,-1.1278018 z m -2.44473,0 1.12079,1.1278019 -1.12079,1.1278018 -1.12781,-1.1278018 z M 182.23355,0 q -0.62344,0 -1.05775,-0.25918428 -0.43431,-0.25918427 -0.72852,-0.63745322 -0.35725,0.37826895 -0.81258,0.63745322 Q 179.18639,0 178.56995,0 q -0.70751,0 -1.19085,-0.23816934 -0.47634,-0.24517431 -0.78456,-0.6444582 -0.38527,0.40628887 -0.91765,0.6444582 Q 175.14451,0 174.33193,0 h -0.64445 v -2.0244394 h 0.65846 q 0.77055,0 1.09278,-0.1891344 0.32924,-0.1891345 0.32924,-0.9106475 0,-0.1120797 -0.014,-0.371264 -0.014,-0.2591842 -0.035,-0.5674034 -0.021,-0.3152241 -0.042,-0.5674034 l 1.75825,-0.2171544 0.14711,1.8913447 q 0.063,0.9316624 1.00171,0.9316624 0.58141,0 0.77755,-0.2381693 0.19614,-0.2451743 0.19614,-0.8616126 0,-0.09807 -0.014,-0.357254 -0.014,-0.2661892 -0.035,-0.5814134 -0.021,-0.3152241 -0.042,-0.5674034 l 1.75826,-0.2171544 0.1471,1.8913447 q 0.028,0.4343088 0.21715,0.6864881 0.18914,0.2451743 0.63045,0.2451743 0.43431,0 0.58842,-0.2872042 0.16112,-0.2872042 0.16112,-0.8125777 0,-0.2521793 -0.028,-0.728518 -0.028,-0.4763386 -0.0631,-0.9106474 l 1.75825,-0.2171544 0.14711,2.0244393 q 0.035,0.5183686 0.2872,0.728518 0.25918,0.2031444 0.79857,0.2031444 h 0.21015 V 0 h -0.19614 q -0.64446,0 -1.14181,-0.22415937 -0.49035,-0.22415938 -0.77756,-0.60943331 -0.2872,0.35725401 -0.7075,0.59542334 Q 182.83598,0 182.23355,0 Z m -13.96794,-9.7929627 1.2609,1.2608965 -1.2609,1.2538915 -1.25389,-1.2538915 z m -4.3641,7.7685233 h 1.19085 q 0.90364,0 1.68119,-0.1681195 0.77756,-0.1751245 1.59714,-0.5183685 0.82659,-0.3432441 1.87733,-0.8546077 -1.07876,-0.3922789 -1.74424,-0.6584681 -0.66547,-0.2731943 -0.91064,-0.2731943 -0.37827,0 -0.68649,0.2381694 -0.30122,0.2311643 -0.49736,0.4903486 l -0.37126,0.4693337 -1.56912,-0.7705478 0.31523,-0.5043586 q 0.49735,-0.8125778 1.19085,-1.3449563 0.69349,-0.5393835 1.62515,-0.5393835 0.39228,0 0.91065,0.1821295 0.52537,0.1821295 1.1208,0.4553237 0.60242,0.2661893 1.23988,0.5393835 0.64445,0.2661893 1.2679,0.4553238 0.63045,0.1891344 1.20485,0.1961394 v 1.8563198 q -0.53237,0.07005 -0.9877,0.2381694 -0.45532,0.1611145 -0.94567,0.4132938 -0.49035,0.2521793 -1.14181,0.6024283 -0.89664,0.4763387 -1.69521,0.81958275 -0.79156,0.34324405 -1.63216,0.52537354 Q 166.10808,0 165.07134,0 h -1.16983 z m -4.39312,-5.6530192 1.19085,1.1768367 1.17683,-1.1768367 1.19785,1.1908467 -1.19785,1.2048566 -1.17683,-1.1908466 -1.19085,1.1908466 -1.19085,-1.2048566 z m 5.05759,2.865037 1.75125,-0.2171544 0.1401,2.0034244 q 0.035,0.5323786 0.2802,0.7705479 0.25218,0.2311643 0.82659,0.2311643 h 0.16111 V 0 h -0.16111 q -0.80558,0 -1.33796,-0.29420918 -0.53237,-0.30121416 -0.88262,-0.81257772 -0.63746,0.58841835 -1.55511,0.84760262 Q 162.87778,0 161.41374,0 h -1.16983 q -1.21186,0 -2.23459,-0.14710459 -1.01572,-0.15410957 -1.77226,-0.53237851 -0.74953,-0.3782689 -1.16983,-1.0577521 -0.41329,-0.686488 -0.41329,-1.7512451 0,-0.6304482 0.1401,-1.2258716 0.1401,-0.6024283 0.35025,-1.1137918 l 1.6882,0.6374532 q -0.11909,0.3292341 -0.24518,0.7635428 -0.11908,0.4343088 -0.11908,0.8265877 0,0.7004981 0.51837,1.0367372 0.51836,0.336239 1.37297,0.4413137 0.86161,0.09807 1.88434,0.09807 h 1.16983 q 1.01573,0 1.73724,-0.077055 0.72151,-0.08406 1.09978,-0.3432441 0.38527,-0.2661892 0.38527,-0.8195827 0,-0.357254 -0.021,-0.7845578 -0.021,-0.4273038 -0.049,-0.7635429 z m -13.52662,4.97353615 q -0.72852,0 -1.36597,-0.30821914 -0.63045,-0.31522412 -1.23288,-0.77755283 -0.38527,0.38527392 -0.80557,0.65846816 Q 147.22165,0 146.42308,0 h -0.30822 v -2.0244394 h 0.27319 q 0.34325,0 0.61644,-0.2661892 0.2802,-0.2661893 0.53238,-0.6864881 0.25918,-0.4273038 0.53938,-0.8966375 0.28721,-0.4763387 0.63746,-0.8966375 0.35725,-0.4273038 0.82658,-0.6934931 0.46934,-0.2661892 1.09979,-0.2661892 0.88262,0 1.52708,0.4202988 0.64446,0.4132939 0.99471,1.0997819 0.35025,0.6794831 0.35025,1.4850559 0,0.8265877 -0.2732,1.4780509 -0.27319,0.65146316 -0.82658,1.02973211 -0.54639,0.37826894 -1.37298,0.37826894 z m -0.33624,-3.96481895 q -0.2872,0 -0.51837,0.1961395 -0.23116,0.1891344 -0.40629,0.4623287 -0.17512,0.2731942 -0.2942,0.5183685 0.20314,0.1821295 0.38527,0.3152241 0.18213,0.1330947 0.35025,0.2311644 0.25218,0.1400996 0.46233,0.1961395 0.21015,0.05604 0.36426,0.05604 0.37126,0 0.53237,-0.2661893 0.16112,-0.2731942 0.16112,-0.6164382 0,-0.4413138 -0.2732,-0.7635429 -0.27319,-0.3292341 -0.76354,-0.3292341 z m -5.01555,2.2485987 q 0,1.63916547 -0.60943,2.7249374 -0.60243,1.085772 -1.70921,1.7232252 -1.10679,0.6374533 -2.61987,0.9246575 l -0.69349,-1.8703298 q 1.42902,-0.2731943 2.3887,-0.7775529 0.96669,-0.50435856 1.22587,-1.2398815 -0.17512,0.0350249 -0.36426,0.06304482 -0.18913,0.02101494 -0.34324,0.02101494 -1.33095,0 -2.09449,-0.58841836 -0.76354,-0.5884184 -0.76354,-1.9333746 0,-0.5603984 0.16812,-1.1418118 0.16811,-0.5884184 0.50435,-1.078767 0.33624,-0.4973536 0.8336,-0.7985678 0.49735,-0.3012141 1.15582,-0.3012141 0.75654,0 1.30292,0.3642589 0.5534,0.364259 0.91065,0.9736923 0.35726,0.6094333 0.53238,1.3729762 0.17512,0.7635429 0.17512,1.5621106 z m -2.75295,-0.4483187 q 0.30121,0 0.54639,-0.035025 0.25218,-0.035025 0.41329,-0.07005 -0.042,-0.357254 -0.16111,-0.7635429 -0.11909,-0.4062889 -0.35726,-0.6934931 -0.23116,-0.2942091 -0.62344,-0.2942091 -0.33624,0 -0.53238,0.2241593 -0.18913,0.2241594 -0.26619,0.5253736 -0.0771,0.3012141 -0.0771,0.5253735 0,0.378269 0.30121,0.4833437 0.30822,0.09807 0.75654,0.09807 z m -6.4446,-7.8175582 h 1.89134 v 6.4025521 q 0,0.742528 0.21715,1.071762 0.21716,0.3222291 0.89664,0.3222291 h 0.17513 V 0 h -0.17513 q -1.56911,0 -2.29063,-0.81257773 -0.7145,-0.81257777 -0.7145,-2.43773317 z m -5.51992,0.1400996 1.19085,1.1768367 1.17684,-1.1768367 1.19785,1.1908467 -1.19785,1.2048566 -1.17684,-1.1908467 -1.19085,1.1908467 -1.19084,-1.2048566 z m 3.99985,6.0242832 q 0,0.4553237 -0.11909,0.8476026 -0.11208,0.3922789 -0.38527,0.7775529 0.16111,0.007 0.29421,0.007 0.13309,0 0.24517,0 h 0.67248 V 0 h -0.95268 q -0.58141,0 -1.26089,-0.16811953 -0.67949,-0.17512451 -1.28892,-0.37826895 -0.63045,0.2171544 -1.33095,0.38527393 Q 130.15052,0 129.53408,0 h -1.2749 v -2.0244394 h 1.04374 q 0.16111,0 0.29421,0 0.1401,-0.007 0.33624,-0.01401 -0.26619,-0.3922789 -0.37827,-0.7845578 -0.11208,-0.3992839 -0.11208,-0.8476027 0,-0.5533934 0.22416,-1.064757 0.23116,-0.5183685 0.61644,-0.9246574 0.39228,-0.4132939 0.88262,-0.6514632 0.49035,-0.2381693 1.00872,-0.2381693 0.71451,0 1.35196,0.4132938 0.64446,0.4062889 1.04374,1.071762 0.39929,0.6584682 0.39929,1.4080011 z m -2.78098,-0.9456724 q -0.20314,0 -0.4273,0.1541096 -0.21716,0.1541096 -0.37127,0.378269 -0.15411,0.2171543 -0.15411,0.4273038 0,0.2591842 0.15411,0.5183685 0.16112,0.2521793 0.38528,0.4553237 0.23116,0.1961395 0.4273,0.3082192 0.32223,-0.1751245 0.64446,-0.5323785 0.32923,-0.357254 0.32923,-0.7635429 0,-0.2101494 -0.16812,-0.4273038 -0.16111,-0.2241594 -0.39228,-0.371264 -0.22415,-0.1471046 -0.4273,-0.1471046 z m -6.82985,4.76338675 q -0.72852,0 -1.36597,-0.30821914 -0.63045,-0.31522412 -1.23288,-0.77755283 -0.38528,0.38527392 -0.80557,0.65846816 Q 121.5414,0 120.74283,0 h -0.30821 v -2.0244394 h 0.27319 q 0.34324,0 0.61644,-0.2661892 0.2802,-0.2661893 0.53238,-0.6864881 0.25918,-0.4273038 0.53938,-0.8966375 0.2872,-0.4763387 0.63745,-0.8966375 0.35726,-0.4273038 0.82659,-0.6934931 0.46933,-0.2661892 1.09978,-0.2661892 0.88263,0 1.52709,0.4202988 0.64446,0.4132939 0.99471,1.0997819 0.35024,0.6794831 0.35024,1.4850559 0,0.8265877 -0.27319,1.4780509 -0.27319,0.65146316 -0.82659,1.02973211 -0.54639,0.37826894 -1.37297,0.37826894 z m -0.33624,-3.96481895 q -0.28721,0 -0.51837,0.1961395 -0.23117,0.1891344 -0.40629,0.4623287 -0.17512,0.2731942 -0.29421,0.5183685 0.20315,0.1821295 0.38527,0.3152241 0.18213,0.1330947 0.35025,0.2311644 0.25218,0.1400996 0.46233,0.1961395 0.21015,0.05604 0.36426,0.05604 0.37127,0 0.53238,-0.2661893 0.16111,-0.2731942 0.16111,-0.6164382 0,-0.4413138 -0.27319,-0.7635429 -0.27319,-0.3292341 -0.76354,-0.3292341 z m -6.82986,-0.343244 q 0,1.2258715 0.23116,2.4097132 0.23117,1.18384174 0.7005,2.13651909 0.47634,0.95267731 1.19085,1.48505581 l -0.4203,1.1137919 Q 118.81646,2.514788 118.0319,1.450031 q -0.77755,-1.06475707 -1.20485,-2.507783 -0.4203,-1.443026 -0.4203,-3.0541715 0,-1.2048567 0.23817,-2.3326585 0.24517,-1.1348069 0.69349,-2.1014942 0.45532,-0.9666873 1.09978,-1.6741898 0.65147,-0.714509 1.45704,-1.071763 l 0.4203,1.113792 q -0.71451,0.5253739 -1.19085,1.4850562 -0.46933,0.9526774 -0.7005,2.1365191 -0.23116,1.1838417 -0.23116,2.4097133 z m -1.83598,0 q 0,-1.2258716 -0.23117,-2.4097133 -0.23116,-1.1838417 -0.7005,-2.1365191 -0.46933,-0.9596823 -1.19084,-1.4850562 l 0.42029,-1.113792 q 1.07877,0.476339 1.85632,1.5551062 0.78456,1.0787669 1.20486,2.5287979 0.42731,1.450031 0.42731,3.0611765 0,1.6111455 -0.42731,3.0681814 -0.4203,1.45003096 -1.20486,2.521793 -0.77755,1.071762 -1.85632,1.5551056 l -0.42029,-1.1137919 q 0.72151,-0.5323785 1.19084,-1.48505581 0.46934,-0.95267735 0.7005,-2.13651909 0.23117,-1.1838417 0.23117,-2.4097132 z M 109.48516,3.60056 q -1.5411,0 -2.51479,-0.5954234 -0.96669,-0.5954233 -1.42901,-1.5971355 -0.45533,-0.99470725 -0.45533,-2.21357385 0,-0.69349305 0.1331,-1.45003095 0.1401,-0.7565379 0.4343,-1.5410957 l 1.70222,0.6164383 q -0.21015,0.6094333 -0.33624,1.2118616 -0.12609,0.6024283 -0.12609,1.13480682 0,0.67948311 0.23817,1.22587159 0.24517,0.55339345 0.81257,0.87562259 0.56741,0.329234 1.5411,0.329234 1.11379,0 1.78627,-0.2311643 0.67248,-0.2311644 0.97369,-0.51836856 0.30822,-0.2872042 0.30822,-0.44831875 0,-0.24517432 -0.23817,-0.3222291 Q 112.08401,0 111.57264,0 h -1.10678 q -0.28721,0 -0.36426,-0.14710459 -0.0771,-0.14710459 -0.14711,-0.39227891 l -0.30121,-1.085772 q -0.049,-0.1751245 -0.035,-0.2872042 0.021,-0.1120797 0.2732,-0.1120797 h 4.23101 V 0 h 0.056 q 0.063,0.24517432 0.063,0.39227891 0,0.85460759 -0.5674,1.58312559 -0.5604,0.7355229 -1.62516,1.1768367 Q 110.99123,3.60056 109.48516,3.60056 Z M 101.19826,0 h -1.11379 v -2.0244394 h 1.1208 q 0.53238,0 0.72852,-0.329234 0.20314,-0.3362391 0.20314,-0.8476027 0,-0.4763386 -0.11908,-1.0367371 -0.11208,-0.5674034 -0.23117,-1.1067869 l 1.83531,-0.4763387 q 0.13309,0.6584682 0.21015,1.3099314 0.0841,0.6444582 0.0841,1.2328765 0,0.9316624 -0.25218,1.6741904 -0.25218,0.7425279 -0.84761,1.17683669 Q 102.228,0 101.19826,0 Z m 0.82659,-9.1344945 1.2609,1.2608965 -1.2609,1.2538915 -1.25389,-1.2538915 z m -5.043586,6.1083429 q 0,-0.1751245 -0.07706,-0.4623287 -0.07706,-0.2872042 -0.161114,-0.4693337 l -1.386986,-3.0611764 1.667185,-0.8125778 1.74424,4.0208588 q 0.210149,0.4833437 0.371264,0.8896325 0.168119,0.4062889 0.378269,0.6514632 0.217154,0.2451743 0.553393,0.2451743 h 0.29421 V 0 h -0.29421 Q 99.285903,0 98.802559,-0.29420918 98.32622,-0.59542334 97.961961,-1.064757 q -0.532378,0.51136354 -1.267901,0.78455778 -0.735523,0.27319424 -1.779265,0.27319424 -0.616439,0 -1.043742,-0.04202988 -0.427304,-0.04202989 -0.882628,-0.15410957 V -2.2275838 q 0.434309,0.1050747 0.917653,0.1611146 0.490348,0.05604 0.903642,0.05604 0.518369,0 1.015722,-0.08406 0.497354,-0.091065 0.826588,-0.3152241 0.329234,-0.2241594 0.329234,-0.6164383 z m -7.607408,3.18726615 q -0.728518,0 -1.365971,-0.30821914 -0.630448,-0.31522412 -1.232876,-0.77755283 -0.385274,0.38527392 -0.805573,0.65846816 Q 85.556142,0 84.757574,0 h -0.308219 v -2.0244394 h 0.273194 q 0.343244,0 0.616439,-0.2661892 0.280199,-0.2661893 0.532378,-0.6864881 0.259184,-0.4273038 0.539384,-0.8966375 0.287204,-0.4763387 0.637453,-0.8966375 0.357254,-0.4273038 0.826587,-0.6934931 0.469334,-0.2661892 1.099782,-0.2661892 0.882628,0 1.527086,0.4202988 0.644458,0.4132939 0.994707,1.0997819 0.350249,0.6794831 0.350249,1.4850559 0,0.8265877 -0.273194,1.4780509 -0.273194,0.65146316 -0.826588,1.02973211 -0.546388,0.37826894 -1.372976,0.37826894 z M 89.037617,-3.8037044 q -0.287204,0 -0.518368,0.1961395 -0.231165,0.1891344 -0.406289,0.4623287 -0.175125,0.2731942 -0.294209,0.5183685 0.203144,0.1821295 0.385274,0.3152241 0.182129,0.1330947 0.350249,0.2311644 0.252179,0.1400996 0.462328,0.1961395 0.21015,0.05604 0.364259,0.05604 0.371264,0 0.532379,-0.2661893 0.161114,-0.2731942 0.161114,-0.6164382 0,-0.4413138 -0.273194,-0.7635429 -0.273194,-0.3292341 -0.763543,-0.3292341 z"
       id="text1"
       transform="matrix(1.3333333,0,0,1.3333333,101.99867,64.084)"
       aria-label="یﻮﯾرﺎﻨﺳ:۱بﻼﻘﻧاﺰﯿﻫﺮﭘ ﺖﻧﻮﺸﺧﺖﻣوﺎﻘﻣ)(ﯽﻧﺪﻣ" />
  </g>
</svg>
