<?xml version="1.0" encoding="UTF-8" standalone="no"?>


<svg class="tikz-diagram" id="iran-action-ch6-tikz-1-e3bc87df796f"
   version="1.1"
   id="svg1"
   width="533.84003"
   height="291.01334"
   viewBox="0 0 533.84003 291.01334"
   sodipodi:docname="iran-action-ch6-tikz-1-e3bc87df796f.pdf"
   xmlns:inkscape="http://www.inkscape.org/namespaces/inkscape"
   xmlns:sodipodi="http://sodipodi.sourceforge.net/DTD/sodipodi-0.dtd"
   xmlns="http://www.w3.org/2000/svg"
   xmlns:svg="http://www.w3.org/2000/svg">
  <defs
     id="defs1" />
  <sodipodi:namedview
     id="namedview1"
     pagecolor="#ffffff"
     bordercolor="#000000"
     borderopacity="0.25"
     inkscape:showpageshadow="2"
     inkscape:pageopacity="0.0"
     inkscape:pagecheckerboard="0"
     inkscape:deskcolor="#d1d1d1">
    <inkscape:page
       x="0"
       y="0"
       inkscape:label="1"
       id="page1"
       width="533.84003"
       height="291.01334"
       margin="0"
       bleed="0" />
  </sodipodi:namedview>
  <g
     id="g1"
     inkscape:groupmode="layer"
     inkscape:label="1">
    <path
       id="path1"
       d="m 178.58368,153.07172 v 51.02391"
       style="fill:none;stroke:#808080;stroke-width:2.98883;stroke-linecap:butt;stroke-linejoin:miter;stroke-miterlimit:10;stroke-dasharray:none;stroke-opacity:1"
       transform="matrix(1.3333333,0,0,-1.3333333,28.813333,298.85733)" />
    <path
       id="path2"
       d="M 127.55977,204.09563 H 229.60759"
       style="fill:none;stroke:#808080;stroke-width:1.99255;stroke-linecap:butt;stroke-linejoin:miter;stroke-miterlimit:10;stroke-dasharray:none;stroke-opacity:1"
       transform="matrix(1.3333333,0,0,-1.3333333,28.813333,298.85733)" />
    <path
       id="path3"
       d="m 183.68599,204.09563 c 0,2.81794 -2.28436,5.10229 -5.10231,5.10229 -2.81795,0 -5.1023,-2.28435 -5.1023,-5.10229 0,-2.81795 2.28435,-5.1023 5.1023,-5.1023 2.81795,0 5.10231,2.28435 5.10231,5.1023 z"
       style="fill:#808080;fill-opacity:1;fill-rule:nonzero;stroke:none"
       transform="matrix(1.3333333,0,0,-1.3333333,28.813333,298.85733)" />
    <path
       id="path4"
       d="m 51.0239,127.55977 76.53587,63.77988"
       style="fill:none;stroke:#be1e2d;stroke-width:1.99255;stroke-linecap:butt;stroke-linejoin:miter;stroke-miterlimit:10;stroke-dasharray:none;stroke-opacity:1"
       transform="matrix(1.3333333,0,0,-1.3333333,28.813333,298.85733)" />
    <path
       id="path5"
       d="M 97.75476,124.72534 H 4.29303 c -5.50233,0 -9.96275,-4.46042 -9.96275,-9.96277 V 63.82108 c 0,-5.50235 4.46042,-9.96278 9.96275,-9.96278 h 93.46173 c 5.50237,0 9.96277,4.46043 9.96277,9.96278 v 50.94149 c 0,5.50235 -4.4604,9.96277 -9.96277,9.96277 z"
       style="fill:#ffe6e6;fill-opacity:1;fill-rule:nonzero;stroke:#be1e2d;stroke-width:1.99255;stroke-linecap:butt;stroke-linejoin:miter;stroke-miterlimit:10;stroke-dasharray:none;stroke-opacity:1"
       transform="matrix(1.3333333,0,0,-1.3333333,28.813333,298.85733)" />
    <g
       id="text5"
       transform="matrix(1.3333333,0,0,1.3333333,76.034667,147.66533)"
       aria-label="ﺖﻣﻮﮑﺣحﻼﺳلﻮﭘنﺎﻣزﺎﺳﻪﻧﺎﺳر">
      <path
         style="font-weight:800;font-size:9.9626px;font-family:Vazirmatn"
         d="m 25.606996,-5.3315475 0.826974,0.8172445 0.817244,-0.8172445 0.831838,0.8269736 -0.831838,0.8367027 -0.817244,-0.8269736 -0.826974,0.8269736 -0.826973,-0.8367027 z m 3.512206,1.9896012 1.216137,-0.1508011 0.09729,1.3912615 q 0.02432,0.3697059 0.194582,0.5351006 0.175124,0.1605302 0.574017,0.1605302 h 0.111885 V 0 H 31.201229 Q 30.641806,0 30.2721,-0.20431113 29.902394,-0.41348681 29.659167,-0.768599 29.216493,-0.35997675 28.579237,-0.17998837 27.946845,0 26.930154,0 h -0.81238 q -0.841567,0 -1.551792,-0.10215556 -0.70536,-0.10702012 -1.230731,-0.36970585 -0.520507,-0.26268574 -0.81238,-0.73454719 -0.287008,-0.4767259 -0.287008,-1.2161376 0,-0.4378096 0.09729,-0.8512964 0.09729,-0.4183514 0.243227,-0.7734636 l 1.172357,0.4426742 q -0.0827,0.2286338 -0.170259,0.530236 -0.0827,0.3016021 -0.0827,0.574017 0,0.486455 0.359977,0.7199535 0.359977,0.2334984 0.953452,0.3064666 0.59834,0.068104 1.308564,0.068104 h 0.81238 q 0.70536,0 1.206408,-0.05351 0.501049,-0.058375 0.763735,-0.238363 0.26755,-0.1848529 0.26755,-0.5691524 0,-0.2480921 -0.01459,-0.5448297 -0.01459,-0.2967376 -0.03405,-0.530236 z m -9.393449,3.45383097 q -0.505913,0 -0.948587,-0.21404023 -0.43781,-0.21890478 -0.856161,-0.53996513 -0.26755,0.26755029 -0.559424,0.45726776 Q 17.074573,0 16.520014,0 h -0.21404 v -1.4058551 h 0.189717 q 0.238363,0 0.428081,-0.184853 0.194582,-0.1848529 0.369706,-0.4767259 0.179988,-0.2967376 0.37457,-0.6226625 0.199447,-0.3307895 0.442674,-0.6226625 0.248092,-0.2967376 0.574017,-0.4815905 0.325925,-0.1848529 0.763735,-0.1848529 0.612933,0 1.060472,0.291873 0.447538,0.2870085 0.690766,0.7637345 0.243227,0.4718614 0.243227,1.0312847 0,0.574017 -0.189717,1.02642018 -0.189717,0.45240321 -0.574017,0.71508895 -0.379435,0.26268574 -0.953452,0.26268574 z M 19.492255,-2.641451 q -0.199447,0 -0.359977,0.1362074 -0.16053,0.1313429 -0.282144,0.3210604 -0.121614,0.1897174 -0.204311,0.3599767 0.141072,0.1264783 0.26755,0.2189048 0.126478,0.092426 0.243228,0.1605302 0.175123,0.097291 0.32106,0.1362074 0.145937,0.038916 0.252957,0.038916 0.257821,0 0.369706,-0.1848529 0.111884,-0.1897175 0.111884,-0.4280805 0,-0.3064667 -0.189717,-0.530236 Q 19.832773,-2.641451 19.492255,-2.641451 Z M 14.13152,-4.0229834 q 0.612933,0 1.041013,0.3648413 0.428081,0.3648413 0.671308,0.963181 0.243228,0.5934752 0.291873,1.289106 h 0.364842 V 0 h -0.462133 q -0.277279,1.1091176 -1.089659,1.7415091 -0.81238,0.6372562 -2.218235,0.909671 L 12.248938,1.3523451 Q 12.861872,1.2355959 13.382379,1.0410138 13.90775,0.84643182 14.267727,0.58374608 14.632568,0.32106034 14.754182,0 h -0.457268 q -0.982639,0 -1.498281,-0.40862226 -0.515643,-0.4134868 -0.515643,-1.33288684 0,-0.3599768 0.111885,-0.7540054 0.111885,-0.3988931 0.340518,-0.7442762 0.228634,-0.3502477 0.574017,-0.5642879 0.350248,-0.2189048 0.82211,-0.2189048 z m 0.16053,2.6171283 h 0.622662 q -0.02919,-0.2724149 -0.116749,-0.5594234 -0.0827,-0.2870085 -0.248092,-0.4815905 -0.16053,-0.194582 -0.428081,-0.194582 -0.228633,0 -0.364841,0.1459365 -0.131343,0.141072 -0.189717,0.3405186 -0.05351,0.194582 -0.05351,0.3599767 0,0.2578212 0.21404,0.3259249 0.218905,0.063239 0.564288,0.063239 z M 8.4594536,-4.4948448 q 0.6518498,0.3842995 1.0702012,0.6907662 0.4183513,0.3064667 0.6810372,0.6372561 0.26755,0.3307895 0.457268,0.7929218 0.145936,0.3502476 0.277279,0.5642879 0.136207,0.2140402 0.340519,0.3113312 0.204311,0.092427 0.559423,0.092427 h 0.136207 V 0 H 11.845181 Q 11.25657,0 10.857677,-0.17025927 10.463649,-0.3453831 10.186369,-0.7491408 9.9334125,-0.46699686 9.6318104,-0.30160214 9.3350728,-0.14107197 8.9167214,-0.06810371 8.5032346,0 7.8854367,0 H 6.6984863 v -1.4058551 h 1.1820858 q 0.7783281,0 1.1674922,-0.1070202 0.389164,-0.1118846 0.389164,-0.4524032 0,-0.1605301 -0.238363,-0.3697058 Q 8.9605024,-2.5490245 8.6005256,-2.782523 8.2454134,-3.020886 7.870843,-3.2495198 7.5011372,-3.4830183 7.2287223,-3.6776003 7.0244112,-3.8284014 6.9173911,-4.0716289 6.810371,-4.319721 6.810371,-4.5824067 q 0,-0.2772794 0.1264783,-0.5010487 0.1313429,-0.2286339 0.3988931,-0.335654 l 3.7554336,-1.5323335 v 1.3912615 z m -8.55674409,3.0889897 h 0.82697361 q 0.62752708,0 1.16749218,-0.1167493 0.5399651,-0.1216137 1.1091175,-0.3599767 0.574017,-0.238363 1.3036996,-0.5934752 Q 3.5608516,-2.7484711 3.0987193,-2.933324 2.636587,-3.1230415 2.4663277,-3.1230415 q -0.2626857,0 -0.476726,0.1653947 -0.2091756,0.1605302 -0.3453831,0.3405185 L 1.3863975,-2.2912034 0.29673811,-2.8263039 0.51564289,-3.1765516 q 0.3453831,-0.5642879 0.82697361,-0.9339937 0.4815905,-0.3745704 1.1285758,-0.3745704 0.2724148,0 0.6323915,0.1264783 0.3648413,0.1264783 0.7783282,0.3161958 0.4183513,0.1848529 0.8610254,0.3745704 0.4475387,0.1848529 0.8804837,0.3161958 0.4378095,0.1313429 0.8367027,0.1362074 v 1.2891059 Q 6.090418,-1.8777166 5.7742222,-1.7609673 5.4580264,-1.6490827 5.1175078,-1.4739589 4.7769893,-1.298835 4.3245861,-1.0556075 3.7019236,-0.72481805 3.1473648,-0.48645507 2.5976706,-0.24809208 2.0139245,-0.12161377 1.435043,0 0.71508947,0 h -0.81237996 z"
         id="path16" />
      <path
         style="font-size:8.9664px;font-family:Vazirmatn"
         d="m 24.313556,14.261966 v 0.753037 q -1.265278,0.100697 -2.232843,0.464082 -0.967566,0.363384 -1.514832,0.923784 -0.542887,0.5604 -0.542887,1.2609 0,1.536722 2.2416,1.536722 0.494728,0 1.011347,-0.100697 0.520997,-0.09632 0.971944,-0.306469 l 0.197015,0.731147 q -0.459703,0.214528 -1.05075,0.323981 -0.586669,0.113832 -1.195228,0.113832 -0.8406,0 -1.501697,-0.240797 -0.656719,-0.236419 -1.037615,-0.739903 -0.376519,-0.499107 -0.376519,-1.278413 0,-0.72239 0.363384,-1.348462 0.367763,-0.63045 1.103288,-1.09891 0.739903,-0.472837 1.851947,-0.718012 -0.359007,-0.148857 -0.709257,-0.288957 -0.345872,-0.1401 -0.608559,-0.23204 -0.258309,-0.09632 -0.363384,-0.09632 -0.267066,0 -0.477216,0.1401 -0.21015,0.135722 -0.411544,0.389653 l -0.118209,0.148856 -0.669853,-0.328359 0.06567,-0.105075 q 0.315225,-0.507862 0.704878,-0.77055 0.394031,-0.262687 0.91065,-0.262687 0.271443,0 0.665475,0.166368 0.398409,0.166369 0.86249,0.385275 0.464082,0.218907 0.941297,0.394032 0.481594,0.170746 0.919406,0.183881 z m -8.322814,1.768762 q 0.328359,-0.09194 0.586668,-0.2802 0.25831,-0.192637 0.407166,-0.556022 0.148856,-0.367762 0.148856,-0.989456 v -3.296728 h 0.739903 v 3.528769 q 0,0.836222 0.201394,1.269656 0.201394,0.433435 0.7005,0.433435 h 0.157613 V 16.937 h -0.170747 q -0.586669,0 -0.901894,-0.2802 -0.315225,-0.284578 -0.459703,-0.788062 -0.367763,0.542887 -1.081397,0.805575 Q 15.609845,16.937 14.66417,16.937 q -0.179504,0 -0.367763,-0.0088 -0.188259,-0.0088 -0.380897,-0.02627 v -0.753037 q 0.271444,0.01751 0.459703,0.03065 0.18826,0.0088 0.376519,0.0088 0.179503,0 0.310847,0 0.135722,-0.0044 0.223284,-0.02189 0,0 -0.06567,-0.394031 -0.06567,-0.398409 -0.218907,-1.072641 -0.153234,-0.678609 -0.4203,-1.527965 -0.262687,-0.849357 -0.661097,-1.75125 l 0.67861,-0.315225 q 0.394031,0.93254 0.661097,1.812543 0.271443,0.880004 0.429056,1.584882 0.161991,0.7005 0.232041,1.116422 z M 9.3359909,16.937 q -0.5034843,0 -0.7793062,-0.170747 Q 8.2852409,16.591128 8.1232503,16.267147 7.9174784,16.591128 7.5978753,16.766253 7.2782722,16.937 6.6872253,16.937 H 6.2844378 v -0.796818 h 0.4115437 q 0.5604,0 0.8187094,-0.205772 0.2583094,-0.21015 0.2583094,-0.761794 0,-0.113831 -0.013134,-0.267066 -0.00876,-0.157612 -0.030647,-0.437812 l 0.7311469,-0.09194 0.07005,0.915028 q 0.026269,0.367763 0.2232844,0.60856 0.2013938,0.240797 0.5910469,0.240797 0.4640812,0 0.63045,-0.249554 0.1663688,-0.249553 0.1663688,-0.718012 0,-0.113831 -0.01313,-0.271444 -0.0088,-0.157612 -0.03065,-0.433434 l 0.731147,-0.09194 0.07005,0.915028 q 0.02189,0.354628 0.188259,0.604182 0.166369,0.245175 0.538509,0.245175 0.363385,0 0.499107,-0.271444 0.135721,-0.271444 0.135721,-0.634828 0,-0.32836 -0.06567,-0.661097 -0.06129,-0.332738 -0.109454,-0.53851 l 0.74866,-0.201393 q 0.07881,0.293334 0.126965,0.626071 0.04816,0.32836 0.04816,0.656719 0,0.472838 -0.131344,0.88876 -0.131344,0.415922 -0.433434,0.674231 -0.297713,0.253931 -0.814332,0.258309 -0.4203,0 -0.678609,-0.175125 -0.258309,-0.175125 -0.4203,-0.494728 -0.245175,0.354628 -0.5472656,0.512241 Q 9.6862409,16.937 9.3359909,16.937 Z"
         id="path17" />
      <path
         style="font-size:8.9664px;font-family:Vazirmatn"
         d="m 20.960584,28.384138 q 0,1.383487 -0.591046,2.03145 -0.591047,0.647962 -1.724982,0.647962 -0.814331,0 -1.326572,-0.293334 -0.51224,-0.288956 -0.753037,-0.809953 -0.240797,-0.520997 -0.240797,-1.208363 0,-0.464081 0.09632,-0.950053 0.09632,-0.49035 0.262687,-0.954431 l 0.696122,0.2802 q -0.126966,0.402787 -0.214528,0.827465 -0.08756,0.424679 -0.08756,0.823088 0,0.709256 0.359007,1.103287 0.363384,0.394032 1.208362,0.394032 0.783685,0 1.177716,-0.429057 0.398409,-0.429056 0.398409,-1.383487 v -5.599622 h 0.739903 z m -7.149477,-2.692547 q 0.682987,0 1.151447,0.612937 0.468459,0.60856 0.485971,1.790653 h 0.529754 V 28.892 h -0.599804 q -0.09632,0.503485 -0.385275,0.971944 -0.284578,0.472837 -0.849356,0.831844 -0.564778,0.363384 -1.497319,0.542887 L 12.388216,30.542553 Q 14.371507,30.161656 14.686732,28.892 h -0.691744 q -1.65931,0 -1.65931,-1.344084 0,-0.429056 0.170747,-0.858113 0.175125,-0.429056 0.503485,-0.713634 0.332737,-0.284578 0.801197,-0.284578 z m 0.1401,2.40359 h 0.774928 q -0.05254,-0.844978 -0.2802,-1.230253 -0.223285,-0.385275 -0.647963,-0.385275 -0.2802,0 -0.44219,0.179503 -0.157613,0.179504 -0.223285,0.424679 -0.06129,0.240796 -0.06129,0.437812 0,0.306469 0.205772,0.442191 0.21015,0.131343 0.674232,0.131343 z m -4.9385257,0 h 0.9500531 q 0.4378126,0 0.5910466,-0.253931 0.157613,-0.253931 0.157613,-0.643584 0,-0.284578 -0.05254,-0.60856 -0.05254,-0.323981 -0.113831,-0.65234 l 0.761794,-0.192638 q 0.07443,0.35025 0.118209,0.687366 0.04378,0.337116 0.04378,0.643584 0,0.525375 -0.144478,0.936919 -0.144478,0.411544 -0.472837,0.647963 Q 10.523134,28.892 9.9714907,28.892 H 9.0126813 Z m 1.5848817,1.348463 0.591046,0.591047 -0.591046,0.591047 -0.591047,-0.591047 z m -1.4973192,0 0.5910469,0.591047 -0.5910469,0.591047 -0.5910469,-0.591047 z M 9.8489032,30.55131 10.43995,31.142356 9.8489032,31.733403 9.2578563,31.142356 Z"
         id="path18" />
      <path
         style="font-size:8.9664px;font-family:Vazirmatn"
         d="M 24.995612,37.129972 25.63044,37.7648 24.995612,38.399628 24.360784,37.7648 Z m 0.05254,4.864097 q 0.731147,0 1.129556,-0.240797 0.402787,-0.236419 0.5604,-0.626072 0.161991,-0.385275 0.161991,-0.827466 0,-0.520996 -0.1401,-1.028859 -0.1401,-0.507862 -0.262688,-0.831844 l 0.748659,-0.30209 q 0.205772,0.564778 0.310847,1.098909 0.109453,0.529753 0.109453,1.011347 0,0.739903 -0.275821,1.313438 -0.271444,0.573534 -0.849357,0.897515 -0.577912,0.323981 -1.49294,0.323981 -0.945675,0 -1.514832,-0.345871 -0.564778,-0.345872 -0.818709,-0.923785 -0.249553,-0.573534 -0.249553,-1.2609 0,-0.464081 0.09632,-0.950053 0.09632,-0.49035 0.262687,-0.954431 l 0.696122,0.2802 q -0.126966,0.402787 -0.214528,0.827465 -0.08756,0.424678 -0.08756,0.823088 0,0.472837 0.166369,0.862491 0.170747,0.389653 0.569156,0.621693 0.39841,0.232041 1.094532,0.232041 z m -4.693351,-7.175747 h 0.739903 v 4.185487 q 0,0.617316 0.227662,0.831844 0.227663,0.214528 0.687366,0.214528 h 0.109453 V 40.847 H 22.00973 q -0.836222,0 -1.247766,-0.442191 -0.407165,-0.446568 -0.407165,-1.405378 z m -2.482397,6.129375 q -0.437813,0 -0.809953,-0.188259 Q 16.694686,40.5668 16.296277,40.181525 16.011699,40.501128 15.749011,40.676253 15.486324,40.847 15.009108,40.847 h -0.192637 v -0.796819 h 0.170747 q 0.293334,0 0.494728,-0.166368 0.201393,-0.170747 0.359006,-0.437813 0.157612,-0.267066 0.310847,-0.564778 0.157612,-0.302091 0.35025,-0.569156 0.192637,-0.267066 0.464081,-0.433435 0.275822,-0.170747 0.678609,-0.170747 0.485972,0 0.844979,0.236419 0.363384,0.232041 0.5604,0.626072 0.201393,0.394031 0.201393,0.880003 0,0.713635 -0.363384,1.107666 -0.359006,0.389653 -1.015725,0.389653 z m -0.21015,-2.464884 q -0.218906,0 -0.398409,0.148856 -0.179504,0.144478 -0.323982,0.376519 -0.144478,0.23204 -0.258309,0.481593 0.262687,0.275822 0.542887,0.450947 0.359007,0.232041 0.639207,0.232041 0.647962,0 0.647962,-0.652341 0,-0.455325 -0.227662,-0.744281 -0.223285,-0.293334 -0.621694,-0.293334 z m -4.718498,-2.140904 0.634828,0.634829 -0.634828,0.634828 -0.634828,-0.634828 z M 11.34136,43.202431 11.083051,42.50631 q 1.068262,-0.232041 1.506075,-0.814332 0.437812,-0.577912 0.437812,-1.370353 0,-0.372141 -0.08318,-0.779306 -0.07881,-0.411544 -0.223285,-0.836222 l 0.726769,-0.245175 q 0.315225,0.897516 0.315225,1.729359 0,0.731147 -0.258309,1.352841 -0.253931,0.626072 -0.792441,1.059506 -0.534131,0.437813 -1.370353,0.599803 z M 9.4587673,34.818322 H 10.19867 v 4.185487 q 0,0.617316 0.227663,0.831844 0.227662,0.214528 0.687366,0.214528 h 0.109453 V 40.847 h -0.109453 q -0.836222,0 -1.247766,-0.442191 Q 9.4587673,39.958241 9.4587673,38.999431 Z M 4.6822328,40.847 q -0.5034843,0 -0.7793062,-0.170747 Q 3.6314828,40.501128 3.4694922,40.177147 3.2637203,40.501128 2.9441172,40.676253 2.6245141,40.847 2.0334672,40.847 H 1.6306797 v -0.796819 h 0.4115437 q 0.5604,0 0.8187094,-0.205772 0.2583094,-0.21015 0.2583094,-0.761793 0,-0.113832 -0.013134,-0.267066 -0.00876,-0.157612 -0.030647,-0.437812 l 0.7311469,-0.09194 0.07005,0.915028 q 0.026269,0.367763 0.2232844,0.608559 0.2013938,0.240797 0.5910469,0.240797 0.4640812,0 0.63045,-0.249553 0.1663688,-0.249553 0.1663688,-0.718012 0,-0.113832 -0.013134,-0.271444 -0.00876,-0.157613 -0.030647,-0.433434 l 0.7311469,-0.09194 0.07005,0.915028 q 0.021891,0.354628 0.1882594,0.604181 0.1663687,0.245175 0.5385094,0.245175 0.3633843,0 0.4991062,-0.271443 0.1357219,-0.271444 0.1357219,-0.634829 0,-0.328359 -0.065672,-0.661096 -0.061294,-0.332738 -0.1094531,-0.53851 l 0.7486594,-0.201394 q 0.078806,0.293335 0.1269656,0.626072 0.048159,0.32836 0.048159,0.656719 0,0.472838 -0.1313438,0.888759 -0.1313437,0.415922 -0.4334344,0.674232 -0.2977125,0.253931 -0.8143312,0.258309 -0.4203,0 -0.6786094,-0.175125 Q 6.0394516,40.49675 5.877461,40.177147 5.632286,40.531775 5.3301954,40.689388 5.0324828,40.847 4.6822328,40.847 Z"
         id="path19" />
      <path
         style="font-size:8.9664px;font-family:Vazirmatn"
         d="m 25.039756,52.801998 q -0.643585,0 -1.002591,-0.30209 -0.354628,-0.302091 -0.459703,-0.831844 -0.253931,0.253931 -0.551644,0.389653 -0.293334,0.135722 -0.661097,0.135722 -0.626072,0 -1.05075,-0.337116 -0.424678,-0.337116 -0.424678,-0.932541 0,-0.674231 0.551644,-1.164581 0.551644,-0.494728 1.733737,-0.858112 l -0.03065,-0.21015 0.7005,-0.1401 0.380896,2.688168 q 0.05254,0.385275 0.249554,0.577913 0.201393,0.188259 0.58229,0.188259 h 0.135722 v 0.796819 z m -1.637419,-2.202197 q 0,-0.135722 -0.01751,-0.258309 l -0.109453,-0.731147 q -0.849356,0.306469 -1.239009,0.604181 -0.385275,0.297713 -0.385275,0.652341 0,0.288956 0.197015,0.437812 0.197016,0.148857 0.534132,0.148857 0.258309,0 0.49035,-0.100697 0.236419,-0.100697 0.380897,-0.293335 0.148856,-0.192637 0.148856,-0.459703 z m -4.877231,2.202197 h -0.713634 v -0.796819 h 0.704878 q 0.437812,0 0.591047,-0.253931 0.157612,-0.253931 0.157612,-0.643584 0,-0.284578 -0.05254,-0.60856 -0.05254,-0.323981 -0.113832,-0.65234 l 0.761794,-0.192638 q 0.07443,0.35025 0.118209,0.687366 0.04378,0.337115 0.04378,0.643584 0,0.525375 -0.144478,0.936919 -0.144479,0.411544 -0.472838,0.647963 -0.328359,0.23204 -0.880003,0.23204 z m 0.534131,-5.166187 0.634828,0.634828 -0.634828,0.634828 -0.634828,-0.634828 z M 16.222211,46.77332 h 0.739903 v 4.185487 q 0,0.617316 0.227663,0.831844 0.227662,0.214528 0.687366,0.214528 h 0.109453 v 0.796819 h -0.109453 q -0.836222,0 -1.247766,-0.44219 -0.407166,-0.446569 -0.407166,-1.405379 z m -4.776534,6.028678 q -0.503485,0 -0.779306,-0.170747 -0.271444,-0.175125 -0.433435,-0.499106 -0.205772,0.323981 -0.5253749,0.499106 -0.3196031,0.170747 -0.91065,0.170747 H 8.3941236 v -0.796819 h 0.4115438 q 0.5604,0 0.8187094,-0.205772 0.2583093,-0.21015 0.2583093,-0.761793 0,-0.113832 -0.013134,-0.267066 -0.00876,-0.157612 -0.030647,-0.437812 l 0.7311471,-0.09194 0.07005,0.915028 q 0.02627,0.367763 0.223284,0.608559 0.201394,0.240797 0.591047,0.240797 0.464081,0 0.63045,-0.249553 0.166369,-0.249553 0.166369,-0.718012 0,-0.113832 -0.01313,-0.271444 -0.0088,-0.157613 -0.03065,-0.433434 l 0.731146,-0.09194 0.07005,0.915028 q 0.02189,0.354628 0.18826,0.604181 0.166369,0.245175 0.538509,0.245175 0.363385,0 0.499106,-0.271443 0.135722,-0.271444 0.135722,-0.634829 0,-0.328359 -0.06567,-0.661096 -0.06129,-0.332738 -0.109453,-0.53851 l 0.74866,-0.201394 q 0.07881,0.293335 0.126965,0.626072 0.04816,0.32836 0.04816,0.656719 0,0.472838 -0.131344,0.888759 -0.131344,0.415922 -0.433434,0.674232 -0.297713,0.253931 -0.814332,0.258309 -0.4203,0 -0.678609,-0.175125 -0.258309,-0.175125 -0.4203,-0.494728 -0.245175,0.354628 -0.547266,0.512241 -0.297712,0.157612 -0.647962,0.157612 z M 4.9190132,55.157429 4.6607038,54.461308 q 1.0682626,-0.232041 1.5060751,-0.814332 0.4378125,-0.577912 0.4378125,-1.370353 0,-0.372141 -0.083184,-0.779306 -0.078806,-0.411544 -0.2232844,-0.836222 L 7.0248914,50.41592 q 0.315225,0.897516 0.315225,1.729359 0,0.731147 -0.2583094,1.352841 -0.2539313,0.626072 -0.7924406,1.059506 -0.5341313,0.437813 -1.3703532,0.599803 z"
         id="path20" />
    </g>
    <path
       id="path9"
       d="m 306.14345,165.82768 -76.53586,25.51197"
       style="fill:none;stroke:#0055a4;stroke-width:1.99255;stroke-linecap:butt;stroke-linejoin:miter;stroke-miterlimit:10;stroke-dasharray:none;stroke-opacity:1"
       transform="matrix(1.3333333,0,0,-1.3333333,28.813333,298.85733)" />
    <path
       id="path10"
       d="m 352.87431,162.99329 h -93.46173 c -5.50235,0 -9.96277,-4.46042 -9.96277,-9.96277 v -50.9415 c 0,-5.50237 4.46042,-9.96277 9.96277,-9.96277 h 93.46173 c 5.50237,0 9.96277,4.4604 9.96277,9.96277 v 50.9415 c 0,5.50235 -4.4604,9.96277 -9.96277,9.96277 z"
       style="fill:#e6f0fa;fill-opacity:1;fill-rule:nonzero;stroke:#0055a4;stroke-width:1.99255;stroke-linecap:butt;stroke-linejoin:miter;stroke-miterlimit:10;stroke-dasharray:none;stroke-opacity:1"
       transform="matrix(1.3333333,0,0,-1.3333333,28.813333,298.85733)" />
    <g
       id="text10"
       transform="matrix(1.3333333,0,0,1.3333333,393.48933,96.404)"
       aria-label="نﻮﯿﺴﯾزﻮﭘا/مدﺮﻣداﺪﻌﺗ(۸۵٪)ﺖﯿﻧﺎﻘﺣﻢﺸﺧ:ﺎﻣاهﺪﻨﮐاﺮﭘ">
      <path
         style="font-weight:800;font-size:9.9626px;font-family:Vazirmatn"
         d="m 59.523887,-4.5921358 0.87562,0.8756191 -0.87562,0.8707546 -0.870754,-0.8707546 z m 0.06324,5.3510057 q 0.705359,0 1.109117,-0.22376933 0.403758,-0.22376933 0.574017,-0.60806883 0.175124,-0.38916405 0.175124,-0.87561912 0,-0.52050692 -0.170259,-1.07506572 -0.165395,-0.5594233 -0.374571,-1.0702011 l 1.298835,-0.4864551 q 0.272415,0.7345472 0.3843,1.3474805 0.116749,0.6129334 0.116749,1.25018957 0,1.44963609 -0.797786,2.29120333 -0.792922,0.8415673 -2.315526,0.8415673 -1.045879,0 -1.726916,-0.3988932 -0.676172,-0.3988931 -1.002097,-1.08965931 -0.325925,-0.69076619 -0.325925,-1.56152076 0,-0.57888153 0.126478,-1.19667943 0.126478,-0.617798 0.364841,-1.2355959 l 1.182086,0.4524032 q -0.179988,0.5156424 -0.301602,1.006962 -0.121614,0.4913196 -0.121614,0.91940007 0,0.46699686 0.165395,0.85616092 0.165395,0.38916405 0.559423,0.62266248 0.394029,0.23349843 1.079931,0.23349843 z m -5.740172,-4.7818533 q 0.612934,0 1.041014,0.3648413 0.428081,0.3648413 0.671308,0.963181 0.243228,0.5934752 0.291873,1.289106 h 0.364842 V 0 H 55.753859 Q 55.47658,1.1091176 54.6642,1.7415091 53.85182,2.3787653 52.445965,2.6511801 L 51.964374,1.3523451 Q 52.577308,1.2355959 53.097815,1.0410138 53.623186,0.84643182 53.983163,0.58374608 54.348004,0.32106034 54.469618,0 H 54.01235 q -0.982639,0 -1.498281,-0.40862226 -0.515643,-0.4134868 -0.515643,-1.33288684 0,-0.3599768 0.111885,-0.7540054 0.111885,-0.3988931 0.340518,-0.7442762 0.228634,-0.3502477 0.574017,-0.5642879 0.350248,-0.2189048 0.822109,-0.2189048 z m 0.160531,2.6171283 h 0.622662 q -0.02919,-0.2724149 -0.116749,-0.5594234 -0.0827,-0.2870085 -0.248092,-0.4815905 -0.16053,-0.194582 -0.428081,-0.194582 -0.228633,0 -0.364841,0.1459365 -0.131343,0.141072 -0.189717,0.3405186 -0.05351,0.194582 -0.05351,0.3599767 0,0.2578212 0.21404,0.3259249 0.218905,0.063239 0.564288,0.063239 z m -6.129334,0 h 0.734547 q 0.535101,0 0.734547,-0.1799884 0.204312,-0.1848529 0.204312,-0.671308 0,-0.2870085 -0.01459,-0.5545588 -0.01459,-0.2724148 -0.03405,-0.530236 l 1.216138,-0.1508011 0.09729,1.3912615 q 0.02432,0.3697059 0.204311,0.5351006 0.179988,0.1605302 0.574017,0.1605302 h 0.102155 V 0 H 51.58494 Q 51.098485,0 50.748237,-0.17512382 50.402854,-0.35024765 50.179085,-0.63239159 49.882347,-0.335654 49.473725,-0.16539472 49.069967,0 48.612699,0 H 47.878152 Z M 48.00463,0.62266248 48.831604,1.439907 49.648849,0.62266248 50.480687,1.4496361 49.648849,2.2863388 48.831604,1.4593652 48.00463,2.2863388 47.177657,1.4496361 Z M 45.411825,0 Q 44.978879,0 44.677277,-0.17998837 44.375675,-0.35997675 44.171364,-0.62266248 43.923272,-0.35997675 43.607076,-0.17998837 43.295745,0 42.867665,0 42.376345,0 42.040691,-0.16539472 41.709901,-0.335654 41.495861,-0.61293338 41.228311,-0.33078944 40.858605,-0.16539472 40.488899,0 39.924611,0 h -0.447538 v -1.4058551 h 0.457267 q 0.535101,0 0.75887,-0.1313429 0.228634,-0.1313429 0.228634,-0.6323916 0,-0.077833 -0.0097,-0.2578212 -0.0097,-0.1799884 -0.02432,-0.3940286 -0.01459,-0.2189048 -0.02919,-0.3940286 l 1.221002,-0.1508011 0.102156,1.3134287 q 0.04378,0.6469853 0.695631,0.6469853 0.403757,0 0.539965,-0.1653948 0.136207,-0.1702592 0.136207,-0.5983397 0,-0.068104 -0.0097,-0.2480921 -0.0097,-0.1848529 -0.02432,-0.4037577 -0.01459,-0.2189048 -0.02919,-0.3940286 l 1.221002,-0.1508011 0.102156,1.3134287 q 0.01946,0.3016022 0.150801,0.476726 0.131343,0.1702593 0.437809,0.1702593 0.301603,0 0.408623,-0.1994466 0.111884,-0.1994466 0.111884,-0.5642879 0,-0.1751238 -0.01946,-0.5059133 -0.01946,-0.3307894 -0.04378,-0.6323915 l 1.221002,-0.1508011 0.102156,1.4058551 q 0.02432,0.3599768 0.199447,0.5059133 0.179988,0.141072 0.554558,0.141072 h 0.145937 V 0 h -0.136208 q -0.447538,0 -0.792921,-0.15566562 -0.340519,-0.15566562 -0.539965,-0.42321591 -0.199447,0.24809209 -0.49132,0.41348681 Q 45.830176,0 45.411825,0 Z m -8.1238,0 h -1.045878 v -1.4058551 h 1.050743 q 0.369706,0 0.505913,-0.2286339 0.141072,-0.2334985 0.141072,-0.5886107 0,-0.3307894 -0.0827,-0.7199535 -0.07783,-0.3940286 -0.160531,-0.768599 l 1.274513,-0.3307894 q 0.09243,0.4572678 0.145936,0.909671 0.05838,0.4475386 0.05838,0.8561609 0,0.6469852 -0.175124,1.1626276 -0.170259,0.51564237 -0.583746,0.81724451 Q 38.003114,0 37.288025,0 Z M 36.368625,0.62266248 37.195599,1.439907 38.012843,0.62266248 38.844681,1.4496361 38.012843,2.2863388 37.195599,1.4593652 36.368625,2.2863388 35.541651,1.4496361 Z m -1.542062,-6.28986398 0.875619,0.8756191 -0.875619,0.8707546 -0.870755,-0.8707546 z m -1.90204,8.3232462 -0.496184,-1.3036996 q 0.70536,-0.1508011 1.211273,-0.40375772 0.510778,-0.24809208 0.788057,-0.66644344 0.27728,-0.41835136 0.27728,-1.07993025 0,-0.44267409 -0.141072,-0.99236829 -0.141072,-0.5545588 -0.301602,-1.0312848 l 1.313428,-0.4232159 q 0.189718,0.530236 0.287009,1.1431694 0.102155,0.6129334 0.102155,1.17722127 0,1.02155564 -0.379435,1.75123824 Q 35.210862,1.5615208 34.52496,2.013924 33.843923,2.4711917 32.924523,2.6560447 Z M 30.41928,-4.0229834 q 0.612934,0 1.041014,0.3648413 0.428081,0.3648413 0.671308,0.963181 0.243228,0.5934752 0.291873,1.289106 h 0.364841 V 0 h -0.462132 q -0.277279,1.1091176 -1.089659,1.7415091 -0.81238,0.6372562 -2.218235,0.909671 L 28.536699,1.3523451 Q 29.149633,1.2355959 29.670139,1.0410138 30.195511,0.84643182 30.555488,0.58374608 30.920329,0.32106034 31.041943,0 h -0.457268 q -0.982639,0 -1.498282,-0.40862226 -0.515642,-0.4134868 -0.515642,-1.33288684 0,-0.3599768 0.111885,-0.7540054 0.111884,-0.3988931 0.340518,-0.7442762 0.228634,-0.3502477 0.574017,-0.5642879 0.350248,-0.2189048 0.822109,-0.2189048 z m 0.16053,2.6171283 h 0.622663 q -0.02919,-0.2724149 -0.116749,-0.5594234 -0.0827,-0.2870085 -0.248092,-0.4815905 -0.160531,-0.194582 -0.428081,-0.194582 -0.228634,0 -0.364841,0.1459365 -0.131343,0.141072 -0.189718,0.3405186 -0.05351,0.194582 -0.05351,0.3599767 0,0.2578212 0.214041,0.3259249 0.218904,0.063239 0.564287,0.063239 z M 25.885519,0 h -1.045878 v -1.4058551 h 1.050743 q 0.369706,0 0.505913,-0.2286339 0.141072,-0.2334985 0.141072,-0.5886107 0,-0.3307894 -0.0827,-0.7199535 -0.07783,-0.3940286 -0.16053,-0.768599 l 1.274512,-0.3307894 q 0.09243,0.4572678 0.145936,0.909671 0.05837,0.4475386 0.05837,0.8561609 0,0.6469852 -0.175124,1.1626276 -0.170259,0.51564237 -0.583746,0.81724451 Q 26.600608,0 25.885519,0 Z m 0.734547,0.48159052 0.783193,0.78319268 -0.783193,0.7831926 -0.783192,-0.7831926 z m -1.697728,0 0.778328,0.78319268 -0.778328,0.7831926 -0.783192,-0.7831926 z M 25.76877,1.7269155 26.551963,2.5101081 25.76877,3.2884362 24.985577,2.5101081 Z M 24.285082,-6.8201 v 6.81523545 H 22.971654 V -6.8201 Z m -4.577541,7.42816883 h -1.099388 l 2.500379,-7.69085463 h 1.104253 z m -3.10845,-0.49618416 q -0.505913,0 -0.948588,-0.21404023 -0.437809,-0.21890478 -0.85616,-0.53996513 -0.267551,0.26755029 -0.559424,0.45726776 Q 13.947911,0 13.393352,0 h -0.21404 v -1.4058551 h 0.189717 q 0.238363,0 0.428081,-0.184853 0.194582,-0.1848529 0.369706,-0.4767259 0.179988,-0.2967376 0.37457,-0.6226625 0.199446,-0.3307895 0.442674,-0.6226625 0.248092,-0.2967376 0.574017,-0.4815905 0.325925,-0.1848529 0.763734,-0.1848529 0.612934,0 1.060473,0.291873 0.447538,0.2870085 0.690766,0.7637345 0.243227,0.4718614 0.243227,1.0312847 0,0.574017 -0.189717,1.02642018 -0.189718,0.45240321 -0.574017,0.71508895 -0.379435,0.26268574 -0.953452,0.26268574 z M 16.365592,-2.641451 q -0.199446,0 -0.359976,0.1362074 -0.160531,0.1313429 -0.282144,0.3210604 -0.121614,0.1897174 -0.204311,0.3599767 0.141072,0.1264783 0.26755,0.2189048 0.126478,0.092426 0.243227,0.1605302 0.175124,0.097291 0.321061,0.1362074 0.145936,0.038916 0.252956,0.038916 0.257822,0 0.369706,-0.1848529 0.111885,-0.1897175 0.111885,-0.4280805 0,-0.3064667 -0.189718,-0.530236 -0.189717,-0.2286339 -0.530236,-0.2286339 z m -5.341275,0.5399651 q 0,-0.1216138 -0.05351,-0.3210603 -0.05351,-0.1994466 -0.111885,-0.3259249 l -0.9631811,-2.1258087 1.1577631,-0.5642878 1.211273,2.792252 q 0.145937,0.335654 0.257821,0.617798 0.11675,0.2821439 0.262686,0.4524032 0.150801,0.1702593 0.3843,0.1702593 h 0.204311 V 0 h -0.204311 q -0.54483,0 -0.880484,-0.20431113 -0.33079,-0.20917568 -0.583746,-0.53510057 -0.369706,0.3551122 -0.880484,0.54482967 -0.510778,0.18971748 -1.2355958,0.18971748 -0.4280804,0 -0.724818,-0.0291873 Q 8.5677186,-0.06323916 8.2515228,-0.14107197 V -1.5469271 q 0.3016022,0.072968 0.6372562,0.1118847 0.3405185,0.038916 0.627527,0.038916 0.3599767,0 0.70536,-0.058375 0.345383,-0.063239 0.574017,-0.2189048 0.228634,-0.1556656 0.228634,-0.4280805 z M 7.0366304,0 Q 6.5939563,0 6.3069478,-0.17025927 6.1123658,0.94858738 5.3486313,1.67827 4.5897614,2.4079526 3.3201137,2.6511801 L 2.8385232,1.3523451 Q 3.543883,1.201544 4.0497963,0.94858738 4.5605741,0.7004953 4.8378535,0.28214394 q 0.2772794,-0.41835136 0.2772794,-1.07993025 0,-0.44267409 -0.141072,-0.99236829 Q 4.832989,-2.3447134 4.6724588,-2.8214394 l 1.3085641,-0.4232159 0.282144,1.0993885 q 0.082697,0.3113312 0.2432275,0.5253714 0.1605302,0.2140403 0.476726,0.2140403 H 7.1728378 V 0 Z M 1.7683223,0.11188467 q -0.5059133,0 -0.94858742,-0.21404023 Q 0.38192532,-0.32106034 -0.03642603,-0.64212069 -0.30397632,-0.3745704 -0.59584936,-0.18485293 -0.88285785,0 -1.4374166,0 h -0.2140403 v -1.4058551 h 0.1897175 q 0.238363,0 0.4280805,-0.184853 0.19458201,-0.1848529 0.36970583,-0.4767259 0.17998838,-0.2967376 0.3745704,-0.6226625 0.19944658,-0.3307895 0.44267411,-0.6226625 0.24809209,-0.2967376 0.57401698,-0.4815905 0.32592488,-0.1848529 0.76373448,-0.1848529 0.6129334,0 1.060472,0.291873 0.4475387,0.2870085 0.6907662,0.7637345 0.2432275,0.4718614 0.2432275,1.0312847 0,0.574017 -0.1897174,1.02642018 -0.1897175,0.45240321 -0.574017,0.71508895 -0.379435,0.26268574 -0.9534519,0.26268574 z M 1.5348238,-2.641451 q -0.1994465,0 -0.3599767,0.1362074 -0.1605302,0.1313429 -0.28214396,0.3210604 -0.12161376,0.1897174 -0.20431113,0.3599767 0.14107197,0.1264783 0.26755029,0.2189048 0.1264783,0.092426 0.2432275,0.1605302 0.1751239,0.097291 0.3210604,0.1362074 0.1459365,0.038916 0.2529566,0.038916 0.2578212,0 0.3697059,-0.1848529 0.1118846,-0.1897175 0.1118846,-0.4280805 0,-0.3064667 -0.1897174,-0.530236 Q 1.8753424,-2.641451 1.5348238,-2.641451 Z"
         id="path21" />
      <path
         style="font-size:8.9664px;font-family:Vazirmatn"
         d="m 32.994964,16.148938 q 1.6812,0 1.6812,-0.871247 0,-0.411544 -0.4203,-0.871247 -0.4203,-0.459703 -1.392243,-0.989456 l 0.345872,-0.691744 q 1.125178,0.573534 1.668065,1.212741 0.547266,0.634828 0.547266,1.326571 0,0.823088 -0.569156,1.243388 -0.564779,0.4203 -1.795032,0.4203 -0.586668,0 -1.059506,-0.105075 v -0.792441 q 0.573534,0.11821 0.993834,0.11821 z m -2.097121,-5.240616 v 6.0243 H 30.15794 v -6.0243 z m -3.222302,4.435041 q 0,-0.113832 -0.05254,-0.293335 -0.04816,-0.183881 -0.118209,-0.341493 l -0.774928,-1.755629 0.682987,-0.319603 0.993835,2.337919 q 0.201393,0.472838 0.35025,0.726769 0.153234,0.253931 0.297712,0.35025 0.148856,0.09194 0.337116,0.09194 h 0.183881 V 16.937 h -0.183881 q -0.345872,0 -0.564778,-0.08318 -0.214528,-0.08318 -0.372141,-0.249553 -0.157612,-0.166369 -0.319603,-0.4203 -0.306469,0.385275 -0.783684,0.569156 -0.472838,0.179503 -1.182094,0.179503 -0.306469,0 -0.551644,-0.02627 -0.245175,-0.03065 -0.464081,-0.08318 v -0.792441 q 0.503484,0.11821 0.950053,0.11821 1.571747,0 1.571747,-0.805575 z m -5.363202,-1.830057 q 0.337115,0 0.696121,0.05692 0.359007,0.05254 0.665475,0.153234 0.310847,0.100697 0.503485,0.245175 0.192637,0.144479 0.192637,0.323982 0,0.126965 -0.135722,0.35025 -0.131343,0.223284 -0.341493,0.481593 -0.205772,0.25831 -0.433435,0.499107 -0.227662,0.236419 -0.415922,0.402787 0.306469,0.07881 0.582291,0.09632 0.275822,0.01751 0.499106,0.01751 H 24.80787 V 16.937 h -0.67861 q -0.459703,0 -0.919406,-0.109453 -0.455325,-0.109453 -0.897515,-0.363384 -0.288957,0.166369 -0.669854,0.271444 -0.376518,0.105075 -0.761793,0.153234 -0.380897,0.04816 -0.687366,0.04816 h -0.691744 v -0.796818 h 0.696122 q 0.148856,0 0.398409,-0.0044 0.253932,-0.0088 0.520997,-0.03065 0.271444,-0.02627 0.472838,-0.07881 -0.18826,-0.166368 -0.415922,-0.402787 -0.227663,-0.240797 -0.437813,-0.499107 -0.205771,-0.258309 -0.341493,-0.481593 -0.135722,-0.223285 -0.135722,-0.35025 0,-0.179503 0.188259,-0.323982 0.18826,-0.144478 0.494728,-0.245175 0.310847,-0.100696 0.669853,-0.153234 0.359007,-0.05692 0.700501,-0.05692 z m 0,0.753038 q -0.197016,0 -0.564779,0.03065 -0.363384,0.03065 -0.687365,0.1401 0.284578,0.359006 0.573534,0.643584 0.288956,0.284578 0.481594,0.455325 0.197016,0.166369 0.197016,0.166369 0,0 0.197015,-0.166369 0.197016,-0.170747 0.49035,-0.455325 0.293335,-0.284578 0.573535,-0.643584 -0.323982,-0.109453 -0.691744,-0.1401 -0.367763,-0.03065 -0.569156,-0.03065 z m -3.633844,-2.469263 0.612937,0.60856 -0.612937,0.617315 -0.60856,-0.617315 z m -1.453538,0 0.612938,0.60856 -0.612938,0.617315 -0.608559,-0.617315 z m -0.472837,4.343101 h 0.897515 q 0.437813,0 0.591047,-0.253932 0.157613,-0.253931 0.157613,-0.643584 0,-0.284578 -0.05254,-0.60856 -0.05254,-0.323981 -0.113831,-0.65234 l 0.761794,-0.192638 q 0.07443,0.35025 0.118209,0.687366 0.04378,0.337116 0.04378,0.643584 0,0.525375 -0.144478,0.936919 -0.144478,0.411544 -0.472837,0.647963 -0.32836,0.23204 -0.880004,0.23204 H 16.75212 Z m 1.124582,-1.790654 q 0,-0.823087 -0.175125,-1.61115 -0.170747,-0.79244 -0.512241,-1.436025 -0.341493,-0.643584 -0.8406,-1.024481 l 0.166369,-0.5341312 q 0.485972,0.2626872 0.880003,0.7311472 0.394032,0.468459 0.674232,1.085775 0.284578,0.612937 0.437812,1.326572 0.153234,0.713634 0.153234,1.462293 0,0.74866 -0.153234,1.462294 -0.153234,0.713635 -0.437812,1.326572 -0.2802,0.617316 -0.674232,1.085775 -0.394031,0.468459 -0.880003,0.731147 l -0.166369,-0.534131 q 0.499107,-0.380897 0.8406,-1.024482 0.341494,-0.643584 0.512241,-1.431646 0.175125,-0.792441 0.175125,-1.615529 z M 40.524744,11.26295 h 0.753038 q 0.179503,1.19085 0.507862,2.250356 0.328359,1.055129 0.704878,1.886972 0.380897,0.827466 0.696122,1.339707 l -0.687366,0.37214 q -0.197015,-0.354628 -0.429056,-0.844978 -0.23204,-0.494728 -0.459703,-1.072641 -0.227662,-0.58229 -0.415922,-1.195228 -0.188259,-0.617315 -0.293334,-1.21274 -0.109453,0.595425 -0.297713,1.21274 -0.188259,0.612938 -0.415922,1.195228 -0.227662,0.577913 -0.459703,1.072641 -0.227662,0.49035 -0.424678,0.844978 l -0.687366,-0.37214 q 0.319604,-0.512241 0.696122,-1.339707 0.376519,-0.831843 0.704879,-1.886972 0.332737,-1.059506 0.507862,-2.250356 z m 5.660917,4.977928 q -0.109453,0.380897 -0.363385,0.53851 -0.253931,0.157612 -0.591047,0.157612 -0.573534,0 -0.901893,-0.363384 -0.32836,-0.367763 -0.32836,-1.112044 0,-0.796819 0.446569,-1.685578 0.450947,-0.893138 1.147069,-1.843191 l -0.262688,-0.258309 0.464082,-0.634828 q 0.963187,0.893137 1.523587,1.672444 0.564778,0.774928 0.805575,1.457915 0.245175,0.67861 0.245175,1.291547 0,0.735525 -0.315225,1.107666 -0.315225,0.367762 -0.897516,0.367762 -0.293334,0 -0.577912,-0.157612 -0.2802,-0.157613 -0.394031,-0.53851 z M 44.727745,15.46595 q 0,0.323982 0.135722,0.520997 0.135722,0.197016 0.363384,0.197016 0.148857,0 0.271444,-0.06129 0.122588,-0.06567 0.223284,-0.2802 0.105075,-0.214528 0.18826,-0.665475 h 0.542887 q 0.07443,0.450947 0.179503,0.665475 0.109454,0.214528 0.240797,0.2802 0.135722,0.06129 0.284578,0.06129 0.249554,0 0.363385,-0.192638 0.118209,-0.192637 0.118209,-0.525375 0,-0.726769 -0.389653,-1.49294 -0.389653,-0.766172 -1.094531,-1.506075 -0.739903,0.976321 -1.085775,1.711846 -0.341494,0.735525 -0.341494,1.287169 z m 10.371778,-4.351856 0.586669,0.267066 -2.583094,5.621512 -0.586669,-0.267065 z m -2.539313,0.809953 q 0,-0.245175 0.175125,-0.415922 Q 52.91046,11.333 53.151257,11.333 q 0.245175,0 0.415922,0.175125 0.170747,0.170747 0.170747,0.415922 0,0.240797 -0.170747,0.415922 -0.170747,0.175125 -0.415922,0.175125 -0.245175,0 -0.4203,-0.166369 -0.170747,-0.170747 -0.170747,-0.424678 z m 1.943888,4.198622 q 0,-0.245175 0.170747,-0.415922 0.175125,-0.175125 0.415922,-0.175125 0.245175,0 0.415922,0.175125 0.175125,0.170747 0.175125,0.415922 0,0.240797 -0.175125,0.415922 -0.170747,0.175125 -0.415922,0.175125 -0.245175,0 -0.415922,-0.166369 -0.170747,-0.170747 -0.170747,-0.424678 z m -4.308073,-1.773141 q 0,0.823088 0.175125,1.615529 0.175125,0.788062 0.51224,1.431646 0.341494,0.643585 0.8406,1.024482 l -0.166369,0.534131 q -0.485971,-0.262688 -0.880003,-0.731147 -0.394031,-0.468459 -0.678609,-1.085775 -0.2802,-0.612937 -0.433434,-1.326572 -0.153235,-0.713634 -0.153235,-1.462294 0,-0.748659 0.153235,-1.462293 0.153234,-0.713635 0.433434,-1.326572 0.284578,-0.617316 0.678609,-1.085775 0.394032,-0.46846 0.880003,-0.7311472 l 0.166369,0.5341312 q -0.499106,0.380897 -0.8406,1.024481 -0.337115,0.643585 -0.51224,1.436025 -0.175125,0.788063 -0.175125,1.61115 z"
         id="path22" />
      <path
         style="font-size:8.9664px;font-family:Vazirmatn"
         d="m 42.493408,24.59706 0.612937,0.608559 -0.612937,0.617316 -0.60856,-0.617316 z m -1.453538,0 0.612938,0.608559 -0.612938,0.617316 -0.608559,-0.617316 z m 3.375535,1.707468 0.731146,-0.08756 0.07443,1.024481 q 0.02627,0.415922 0.236418,0.634828 0.214528,0.218906 0.639207,0.218906 H 46.20168 V 28.892 h -0.105075 q -0.494729,0 -0.814332,-0.183881 -0.315225,-0.188259 -0.520997,-0.599803 -0.363384,0.4203 -0.93254,0.604181 Q 43.263958,28.892 42.256989,28.892 h -0.731147 q -1.650553,0 -2.482397,-0.446569 -0.827466,-0.446568 -0.827466,-1.545478 0,-0.30209 0.06567,-0.591047 0.07005,-0.288956 0.179503,-0.556021 l 0.67861,0.253931 q -0.07005,0.192637 -0.11821,0.411544 -0.04378,0.218906 -0.04378,0.415921 0.0044,0.512241 0.288956,0.788063 0.284579,0.271444 0.849357,0.372141 0.564778,0.100696 1.409756,0.100696 h 0.731147 q 1.046372,0 1.619906,-0.218906 0.577913,-0.218906 0.577913,-0.796819 0,-0.179503 -0.01313,-0.385275 -0.0088,-0.205771 -0.02627,-0.389653 z m -9.982126,1.790653 h 0.661097 q 0.556022,0 0.792441,-0.249553 0.240797,-0.249553 0.240797,-0.766172 0,-0.21015 -0.01313,-0.398409 -0.0088,-0.188259 -0.02627,-0.376519 l 0.731147,-0.08756 0.07005,1.024481 q 0.05254,0.853734 0.888759,0.853734 h 0.09194 V 28.892 h -0.100697 q -0.485972,0 -0.779306,-0.175125 -0.288957,-0.175125 -0.46846,-0.494728 -0.236419,0.345872 -0.621694,0.507863 -0.385275,0.16199 -0.805575,0.16199 h -0.661097 z m 1.580504,1.492941 0.612937,0.608559 -0.612937,0.617316 -0.60856,-0.617316 z m -1.453538,0 0.612938,0.608559 -0.612938,0.617316 -0.608559,-0.617316 z M 32.598845,28.892 h -0.713634 v -0.796819 h 0.704878 q 0.437813,0 0.591047,-0.253931 0.157613,-0.253931 0.157613,-0.643584 0,-0.284578 -0.05254,-0.60856 -0.05254,-0.323981 -0.113831,-0.65234 l 0.761794,-0.192638 q 0.07443,0.35025 0.118209,0.687366 0.04378,0.337116 0.04378,0.643584 0,0.525375 -0.144478,0.936919 -0.144478,0.411544 -0.472837,0.647963 -0.32836,0.23204 -0.880004,0.23204 z m 0.534132,-5.166187 0.634828,0.634828 -0.634828,0.634828 -0.634828,-0.634828 z m -2.837025,-0.862491 h 0.739903 v 4.185488 q 0,0.617315 0.227662,0.831843 0.227663,0.214528 0.687366,0.214528 h 0.109453 V 28.892 h -0.109453 q -0.836222,0 -1.247766,-0.44219 -0.407165,-0.446569 -0.407165,-1.405379 z m -2.057719,0.485972 0.612938,0.608559 -0.612938,0.617316 -0.608559,-0.617316 z m -1.453538,0 0.612938,0.608559 -0.612938,0.617316 -0.608559,-0.617316 z m 2.294138,3.480609 q 0,0.345872 -0.153234,0.643585 -0.153235,0.293334 -0.4203,0.604181 0.249553,0.01313 0.44219,0.01751 0.192638,0 0.341494,0 h 0.424678 V 28.892 h -0.411544 q -0.166368,0 -0.459703,-0.02627 -0.288956,-0.03065 -0.639206,-0.100696 -0.345872,-0.07005 -0.682988,-0.18826 -0.337115,0.122588 -0.691743,0.192638 -0.354628,0.06567 -0.656719,0.09632 -0.302091,0.02627 -0.481594,0.02627 h -0.612937 v -0.796819 h 0.612937 q 0.183881,0 0.380897,0 0.201394,-0.0044 0.485972,-0.02189 -0.262688,-0.306469 -0.411544,-0.60856 -0.148856,-0.30209 -0.148856,-0.643584 0,-0.271444 0.126966,-0.547266 0.126965,-0.275821 0.341493,-0.51224 0.214528,-0.236419 0.49035,-0.376519 0.275822,-0.144478 0.569157,-0.144478 0.306468,0 0.586668,0.144478 0.2802,0.1401 0.494729,0.376519 0.218906,0.23204 0.345871,0.51224 0.126966,0.2802 0.126966,0.556022 z m -1.554234,-0.814331 q -0.166369,0 -0.35025,0.126966 -0.179504,0.122587 -0.306469,0.310847 -0.122588,0.188259 -0.122588,0.385275 0,0.201393 0.11821,0.411543 0.118209,0.21015 0.297712,0.385275 0.183881,0.175125 0.372141,0.271444 0.332737,-0.1401 0.564778,-0.450947 0.236419,-0.315225 0.236419,-0.626072 0,-0.183881 -0.131344,-0.37214 -0.126966,-0.18826 -0.315225,-0.315225 -0.188259,-0.126966 -0.363384,-0.126966 z m -8.45416,2.079609 h 0.744281 q 0.512241,0 0.941297,-0.09194 0.429057,-0.09194 0.836222,-0.253931 0.411544,-0.161991 0.858113,-0.380897 0.450947,-0.223285 1.006968,-0.477216 -0.310846,-0.113831 -0.643584,-0.245175 -0.332737,-0.135722 -0.634828,-0.253931 -0.297713,-0.11821 -0.520997,-0.192638 -0.223284,-0.07881 -0.315225,-0.07881 -0.267066,0 -0.472837,0.157613 -0.201394,0.153234 -0.372141,0.37214 l -0.11821,0.148856 -0.669853,-0.328359 0.06567,-0.105075 q 0.288956,-0.468459 0.669853,-0.748659 0.385275,-0.284578 0.901894,-0.284578 0.214528,0 0.516619,0.109453 0.306469,0.109453 0.665475,0.275822 0.359006,0.16199 0.744281,0.332737 0.385275,0.166369 0.77055,0.284578 0.385275,0.113831 0.735525,0.126966 v 0.757415 q -0.2802,0.03065 -0.718012,0.205772 -0.433435,0.170747 -1.129557,0.53851 -0.5604,0.297712 -1.041993,0.507862 -0.477216,0.205772 -0.976322,0.315225 Q 20.418902,28.892 19.801586,28.892 h -0.731147 z"
         id="path23" />
      <path
         style="font-size:8.9664px;font-family:Vazirmatn"
         d="m 41.452042,39.170178 q 0.05254,0.376519 0.271443,0.63045 0.223285,0.249553 0.512241,0.249553 h 0.11821 V 40.847 h -0.11821 q -0.267065,0 -0.529753,-0.113831 -0.258309,-0.113831 -0.429056,-0.385275 -0.148857,0.2802 -0.424678,0.424678 -0.275822,0.144478 -0.704879,0.144478 -0.258309,0 -0.525375,-0.08318 -0.262687,-0.08319 -0.507862,-0.18826 -0.240797,-0.109453 -0.442191,-0.192637 -0.201393,-0.08319 -0.337115,-0.08319 -0.245175,0 -0.372141,0.161991 -0.122587,0.157613 -0.166369,0.53851 -0.0394,0.380896 -0.0394,1.055128 0,0.297712 0.0044,0.529753 0.0088,0.236419 0.02189,0.464081 0.01751,0.227663 0.03503,0.516619 H 37.06516 q -0.02189,-0.402788 -0.03502,-0.757416 -0.01313,-0.35025 -0.01313,-0.709256 0,-0.49035 0.02627,-0.932541 0.03065,-0.44219 0.135722,-0.796819 0.109453,-0.359006 0.337115,-0.591046 0.227663,-0.236419 0.626072,-0.310847 0.245175,-0.853735 0.639206,-1.339707 0.39841,-0.49035 1.085775,-0.49035 0.402788,0 0.739904,0.192638 0.337115,0.188259 0.5604,0.520997 0.227662,0.328359 0.284578,0.748659 z m -0.709257,0.372141 q 0,-0.450947 -0.240796,-0.753038 -0.240797,-0.306468 -0.617316,-0.306468 -0.271444,0 -0.459703,0.170746 -0.18826,0.166369 -0.315225,0.442191 -0.126966,0.271444 -0.223285,0.582291 0.477216,0.21015 0.792441,0.332737 0.319603,0.11821 0.477216,0.11821 0.288956,0 0.437812,-0.157613 0.148856,-0.161991 0.148856,-0.429056 z m -7.828088,-4.452553 0.591047,0.591047 -0.591047,0.591046 -0.591047,-0.591046 z m 0.748659,1.107665 0.591047,0.591047 -0.591047,0.591047 -0.591047,-0.591047 z m -1.497319,0 0.591047,0.591047 -0.591047,0.591047 -0.591047,-0.591047 z M 34.271915,40.847 q -0.4203,0 -0.678609,-0.175125 -0.258309,-0.175125 -0.4203,-0.494728 -0.245175,0.354628 -0.547266,0.512241 -0.297712,0.157612 -0.647962,0.157612 -0.503484,0 -0.779306,-0.170747 -0.271444,-0.175125 -0.433435,-0.499106 -0.205772,0.323981 -0.525375,0.499106 Q 29.920059,40.847 29.329012,40.847 h -0.402787 v -0.796819 h 0.411544 q 0.5604,0 0.818709,-0.205772 0.258309,-0.21015 0.258309,-0.761793 0,-0.113832 -0.01313,-0.267066 -0.0088,-0.157612 -0.03065,-0.437812 l 0.731147,-0.09194 0.07005,0.915028 q 0.02627,0.367763 0.223284,0.608559 0.201394,0.240797 0.591047,0.240797 0.464081,0 0.63045,-0.249553 0.166369,-0.249553 0.166369,-0.718012 0,-0.113832 -0.01313,-0.271444 -0.0088,-0.157613 -0.03065,-0.433434 l 0.731147,-0.09194 0.07005,0.915028 q 0.02189,0.354628 0.188259,0.604181 0.166369,0.245175 0.538509,0.245175 0.647963,0 0.647963,-0.967565 0,-0.157613 -0.01313,-0.32836 -0.0088,-0.170747 -0.03065,-0.450947 l 0.731147,-0.08756 0.07005,0.985078 q 0.05254,0.849356 0.866868,0.849356 h 0.131344 V 40.847 h -0.122587 q -0.459704,0 -0.766172,-0.166369 Q 35.4759,40.509884 35.362069,40.172769 35.178187,40.49675 34.93739,40.671875 34.700972,40.847 34.271915,40.847 Z m -8.624906,-5.560219 0.634828,0.634828 -0.634828,0.634829 -0.634828,-0.634829 z m -2.727572,4.7634 h 0.744281 q 0.512241,0 0.941297,-0.09194 0.429057,-0.09194 0.836222,-0.253932 0.411544,-0.16199 0.858113,-0.380896 0.450947,-0.223285 1.006968,-0.477216 -0.310846,-0.113831 -0.643584,-0.245175 -0.332737,-0.135722 -0.634828,-0.253931 -0.297713,-0.11821 -0.520997,-0.192638 -0.223284,-0.07881 -0.315225,-0.07881 -0.267066,0 -0.472837,0.157612 -0.201394,0.153235 -0.372141,0.372141 l -0.118209,0.148856 -0.669854,-0.328359 0.06567,-0.105075 q 0.288957,-0.468459 0.669853,-0.748659 0.385275,-0.284579 0.901894,-0.284579 0.214528,0 0.516619,0.109454 0.306469,0.109453 0.665475,0.275821 0.359006,0.161991 0.744281,0.332738 0.385275,0.166369 0.77055,0.284578 0.385275,0.113831 0.735525,0.126966 v 0.757415 q -0.2802,0.03065 -0.718012,0.205772 -0.433435,0.170747 -1.129557,0.53851 -0.5604,0.297712 -1.041993,0.507862 -0.477216,0.205772 -0.976322,0.315225 Q 24.2679,40.847 23.650584,40.847 h -0.731147 z"
         id="path24" />
      <path
         style="font-size:8.9664px;font-family:Vazirmatn"
         d="m 49.946363,49.640992 q 0,-0.240797 0.170747,-0.411544 0.170747,-0.175125 0.411544,-0.175125 0.240797,0 0.411543,0.175125 0.170747,0.170747 0.170747,0.411544 0,0.240797 -0.170747,0.411544 -0.170746,0.170746 -0.411543,0.170746 -0.240797,0 -0.411544,-0.166368 -0.170747,-0.166369 -0.170747,-0.415922 z m 0,2.574337 q 0,-0.240797 0.170747,-0.411543 0.170747,-0.175125 0.411544,-0.175125 0.240797,0 0.411543,0.175125 0.170747,0.170746 0.170747,0.411543 0,0.240797 -0.170747,0.411544 -0.170746,0.170747 -0.411543,0.170747 -0.240797,0 -0.411544,-0.166369 -0.170747,-0.166368 -0.170747,-0.415922 z M 47.634712,46.77332 h 0.739903 v 4.185487 q 0,0.617316 0.227663,0.831844 0.227662,0.214528 0.687365,0.214528 h 0.109454 v 0.796819 h -0.109454 q -0.836221,0 -1.247765,-0.44219 -0.407166,-0.446569 -0.407166,-1.405379 z m -2.482397,6.129375 q -0.437812,0 -0.809953,-0.188259 -0.367762,-0.192638 -0.766172,-0.577913 -0.284578,0.319603 -0.547265,0.494728 -0.262688,0.170747 -0.739903,0.170747 h -0.192638 v -0.796819 h 0.170747 q 0.293334,0 0.494728,-0.166368 0.201394,-0.170747 0.359006,-0.437813 0.157613,-0.267066 0.310847,-0.564778 0.157613,-0.302091 0.35025,-0.569156 0.192638,-0.267066 0.464082,-0.433435 0.275821,-0.170747 0.678609,-0.170747 0.485972,0 0.844978,0.236419 0.363384,0.232041 0.5604,0.626072 0.201394,0.394031 0.201394,0.880003 0,0.713635 -0.363385,1.107666 -0.359006,0.389653 -1.015725,0.389653 z m -0.21015,-2.464884 q -0.218906,0 -0.398409,0.148856 -0.179503,0.144478 -0.323981,0.376519 -0.144478,0.23204 -0.25831,0.481593 0.262688,0.275822 0.542888,0.450947 0.359006,0.232041 0.639206,0.232041 0.647963,0 0.647963,-0.652341 0,-0.455325 -0.227663,-0.744281 -0.223284,-0.293334 -0.621694,-0.293334 z M 41.514094,46.77332 v 6.0243 h -0.739903 v -6.0243 z m -0.883576,2.788866 -0.170747,-0.153235 0.464081,-0.599803 q 0.577913,0.477216 1.015725,0.893138 0.442191,0.411543 0.691744,0.809953 0.249553,0.394031 0.249553,0.818709 0,0.665475 -0.455325,1.059506 -0.455325,0.394032 -1.199606,0.394032 -0.761794,0 -1.208363,-0.372141 -0.446569,-0.376519 -0.446569,-0.954431 0,-0.507863 0.271444,-0.945675 0.271444,-0.442191 0.788063,-0.950053 z m 1.506075,1.733737 q 0,-0.201394 -0.148857,-0.411544 -0.144478,-0.214528 -0.367762,-0.424678 -0.218906,-0.214528 -0.446569,-0.411544 -0.402787,0.385275 -0.63045,0.691744 -0.227662,0.302091 -0.227662,0.634828 0,0.253932 0.214528,0.442191 0.214528,0.188259 0.691744,0.188259 0.481593,0 0.696121,-0.175125 0.218907,-0.175125 0.218907,-0.534131 z m -4.81156,-0.08756 q 0,-0.113832 -0.05254,-0.293335 -0.04816,-0.183881 -0.11821,-0.341494 l -0.774928,-1.755628 0.682988,-0.319603 0.993834,2.337919 q 0.201394,0.472837 0.35025,0.726769 0.153234,0.253931 0.297712,0.35025 0.148857,0.09194 0.337116,0.09194 h 0.183881 v 0.796819 h -0.183881 q -0.345872,0 -0.564778,-0.08318 -0.214528,-0.08319 -0.372141,-0.249553 -0.157612,-0.166369 -0.319603,-0.4203 -0.306469,0.385275 -0.783684,0.569156 -0.472838,0.179503 -1.182094,0.179503 -0.306469,0 -0.551644,-0.02627 -0.245175,-0.03065 -0.464081,-0.08318 v -0.792441 q 0.503484,0.11821 0.950053,0.11821 1.571747,0 1.571747,-0.805575 z m -4.649569,-0.993835 0.731147,-0.08756 0.07005,1.024481 q 0.05254,0.853734 0.888759,0.853734 h 0.09194 v 0.796819 h -0.100697 q -0.485972,0 -0.779306,-0.175125 -0.288956,-0.175125 -0.46846,-0.494728 -0.236418,0.345872 -0.621693,0.507863 -0.385275,0.16199 -0.805575,0.16199 h -0.4203 v -0.796819 h 0.4203 q 0.556022,0 0.79244,-0.249553 0.240797,-0.249553 0.240797,-0.766172 0,-0.21015 -0.01313,-0.398409 -0.0088,-0.188259 -0.02627,-0.376519 z m 0.08318,-2.180306 0.634829,0.634828 -0.634829,0.634828 -0.634828,-0.634828 z m -4.426284,0.520997 q 0.380897,0.267065 0.792441,0.564778 0.411544,0.293334 0.766172,0.63045 0.359006,0.332737 0.577912,0.713634 0.223285,0.376519 0.223285,0.805575 -0.0044,0.814332 -0.564778,1.173338 -0.556022,0.359006 -1.777519,0.359006 h -1.068263 v -0.796819 h 1.063885 q 0.849356,0 1.217119,-0.148856 0.367762,-0.153234 0.367762,-0.604181 0,-0.288956 -0.205772,-0.564778 -0.201394,-0.275822 -0.525375,-0.542888 -0.319603,-0.271444 -0.687365,-0.529753 -0.367763,-0.262687 -0.691744,-0.516619 -0.1401,-0.113831 -0.214528,-0.267065 -0.07443,-0.153235 -0.07443,-0.306469 0,-0.179503 0.09632,-0.337116 0.100697,-0.16199 0.310847,-0.245175 l 3.147872,-1.278412 v 0.774928 z m -1.63304,-1.781897 v 6.0243 h -0.739903 v -6.0243 z m -2.050119,6.028678 q -0.30209,0 -0.507862,-0.07881 -0.201394,-0.08318 -0.315225,-0.175125 -0.06567,0.573534 -0.319603,1.107666 -0.249553,0.538509 -0.753038,0.936918 -0.503484,0.39841 -1.33095,0.5604 l -0.258309,-0.691743 q 1.068262,-0.232041 1.506075,-0.814332 0.437812,-0.577912 0.437812,-1.370353 0,-0.372141 -0.08318,-0.779306 -0.07881,-0.411544 -0.223284,-0.836222 l 0.726768,-0.245175 0.236419,0.915028 q 0.09632,0.367763 0.306469,0.520997 0.21015,0.153234 0.529753,0.153234 h 0.166369 v 0.796819 z m -6.322012,-0.796819 h 0.950053 q 0.437813,0 0.591047,-0.253931 0.157613,-0.253931 0.157613,-0.643584 0,-0.284578 -0.05254,-0.60856 -0.05254,-0.323981 -0.113831,-0.65234 l 0.761794,-0.192638 q 0.07443,0.35025 0.118209,0.687366 0.04378,0.337115 0.04378,0.643584 0,0.525375 -0.144478,0.936919 -0.144478,0.411544 -0.472837,0.647963 -0.32836,0.23204 -0.880003,0.23204 h -0.95881 z m 1.584882,1.348463 0.591046,0.591047 -0.591046,0.591047 -0.591047,-0.591047 z m -1.497319,0 0.591047,0.591047 -0.591047,0.591047 -0.591047,-0.591047 z m 0.748659,1.107666 0.591047,0.591046 -0.591047,0.591047 -0.591047,-0.591047 z"
         id="path25" />
    </g>
    <path
       id="path14"
       d="m 178.58368,51.0239 h 48.03508"
       style="fill:none;stroke:#006633;stroke-width:2.98883;stroke-linecap:butt;stroke-linejoin:miter;stroke-miterlimit:10;stroke-dasharray:none;stroke-opacity:1"
       transform="matrix(1.3333333,0,0,-1.3333333,28.813333,298.85733)" />
    <path
       id="path15"
       d="M -5.18063,7.07033 C -4.23416,2.82808 -2.12502,0.82486 0,0 -2.12502,-0.82486 -4.23416,-2.82808 -5.18063,-7.07033"
       style="fill:none;stroke:#006633;stroke-width:2.98883;stroke-linecap:round;stroke-linejoin:round;stroke-miterlimit:10;stroke-dasharray:none;stroke-opacity:1"
       transform="matrix(1.3333333,0,0,-1.3333333,332.96423,230.82547)" />
    <path
       style="font-weight:800;font-size:9.9626px;font-family:Vazirmatn;fill:#006633"
       d="m 0.62266248,-3.7262458 q 0,-0.3697059 0.26268574,-0.6129334 0.26268578,-0.2432275 0.63239158,-0.2432275 0.3745704,0 0.6323916,0.2432275 0.2626857,0.2432275 0.2626857,0.6129334 0,0.3648413 -0.2626857,0.6080688 -0.2626857,0.2432276 -0.6323916,0.2432276 -0.3794349,0 -0.63725613,-0.238363 Q 0.62266248,-3.35654 0.62266248,-3.7262458 Z m 0,2.86522033 q 0,-0.36484133 0.26268574,-0.60806883 0.26268578,-0.2480921 0.63239158,-0.2480921 0.3745704,0 0.6323916,0.2480921 0.2626857,0.2432275 0.2626857,0.60806883 0,0.36970585 -0.2626857,0.61293339 -0.2626857,0.24322753 -0.6323916,0.24322753 -0.3794349,0 -0.63725613,-0.24322753 Q 0.62266248,-0.49131962 0.62266248,-0.86102547 Z M 64.350218,-7.9438112 l 0.87562,0.8756191 -0.87562,0.8707546 -0.870754,-0.8707546 z m 0.895078,6.0028555 q -0.355112,0.068104 -0.754006,0.068104 -0.861025,0 -1.362074,-0.379435 -0.501048,-0.3794349 -0.501048,-1.1869503 0,-0.5253715 0.223769,-1.0264202 0.228634,-0.5010487 0.642121,-0.8269736 0.413486,-0.3307895 0.968045,-0.3307895 0.54483,0 0.929129,0.2675503 0.3843,0.2675503 0.627527,0.7199535 0.243228,0.4524032 0.355113,1.0118266 0.116749,0.5545587 0.116749,1.1334403 0,1.0118265 -0.272415,1.55179162 -0.272415,0.53510058 -0.846432,0.7394117 Q 64.802622,0 63.90268,0 h -1.619896 q -0.841567,0 -1.551791,-0.10215556 -0.710225,-0.10702012 -1.235596,-0.36970585 -0.520507,-0.26268574 -0.807516,-0.73454719 -0.287008,-0.4767259 -0.287008,-1.2161376 0,-0.4378096 0.09729,-0.8512964 0.09729,-0.4183514 0.243228,-0.7734636 l 1.172356,0.4426742 q -0.0827,0.2286338 -0.170259,0.530236 -0.0827,0.3016021 -0.0827,0.574017 0,0.486455 0.359976,0.7199535 0.359977,0.2334984 0.958317,0.3064666 0.59834,0.068104 1.303699,0.068104 h 1.717187 q 0.627527,0 0.933994,-0.077833 0.306466,-0.077833 0.311331,-0.4572677 z m -0.778328,-1.1626276 q 0.37457,0 0.744276,-0.082697 -0.03405,-0.2334984 -0.131343,-0.4815905 -0.09243,-0.2529566 -0.248092,-0.4280805 -0.150801,-0.1751238 -0.379435,-0.1751238 -0.301602,0 -0.466997,0.2480921 -0.16053,0.2432275 -0.16053,0.5253715 0,0.2578212 0.184853,0.3259249 0.189717,0.068104 0.457268,0.068104 z m -8.71727,1.0020974 q 0,-0.1216138 -0.05351,-0.3210603 -0.05351,-0.1994466 -0.111885,-0.3259249 l -0.963181,-2.1258087 1.157763,-0.5642878 1.211273,2.792252 q 0.145937,0.335654 0.257821,0.617798 0.116749,0.2821439 0.262686,0.4524032 0.150801,0.1702593 0.384299,0.1702593 h 0.204312 V 0 h -0.204312 q -0.544829,0 -0.880483,-0.20431113 -0.33079,-0.20917568 -0.583746,-0.53510057 -0.369706,0.3551122 -0.880484,0.54482967 -0.510778,0.18971748 -1.235596,0.18971748 -0.42808,0 -0.724818,-0.0291873 Q 53.2931,-0.06323916 52.976904,-0.14107197 V -1.5469271 q 0.301602,0.072968 0.637256,0.1118847 0.340518,0.038916 0.627527,0.038916 0.359977,0 0.70536,-0.058375 0.345383,-0.063239 0.574017,-0.2189048 0.228634,-0.1556656 0.228634,-0.4280805 z m -7.739499,1.67826999 q -0.43781,0.15080107 -1.002098,0.28700849 Q 46.448678,0 45.913577,0 h -0.48159 v -1.4058551 h 0.418351 q 0.16053,0 0.301602,-0.00486 0.145937,-0.00486 0.296738,-0.014594 -0.150801,-0.1945821 -0.243228,-0.5156424 -0.09243,-0.3259249 -0.09243,-0.6032043 0,-0.4134868 0.204311,-0.81238 0.204311,-0.3988931 0.612933,-0.6664434 0.408623,-0.2675503 1.016691,-0.2870085 l 0.466997,-0.9242646 q 0.904807,0.4280804 1.605302,0.7831926 0.70536,0.3551122 1.182086,0.7004953 0.48159,0.3453831 0.729682,0.7491408 0.248093,0.3988932 0.248093,0.9242647 0,0.9923683 -0.593476,1.51287522 -0.593475,0.51564237 -1.571249,0.51564237 -0.510778,0 -1.070202,-0.12647831 -0.559423,-0.12647832 -0.933993,-0.24809209 z M 47.324297,-2.5538891 q 0,0.2675503 0.243228,0.5010487 0.243227,0.2286339 0.525371,0.3161958 0.131343,-0.029187 0.301602,-0.1313429 0.175124,-0.1070201 0.301602,-0.2578211 0.126479,-0.1556657 0.126479,-0.3307895 0,-0.291873 -0.209176,-0.5253715 -0.209176,-0.2334984 -0.510778,-0.2334984 -0.311331,0 -0.54483,0.1994466 -0.233498,0.194582 -0.233498,0.4621323 z m 2.130673,1.148034 q 0.228634,0.038916 0.442674,0.058375 0.214041,0.019458 0.306467,0.019458 0.287008,0 0.525371,-0.1459366 0.238363,-0.150801 0.238363,-0.5642878 0,-0.1021556 -0.07783,-0.2334985 -0.07297,-0.1362074 -0.321061,-0.3307894 -0.243227,-0.194582 -0.749141,-0.476726 0.0681,0.2091757 0.0681,0.432945 0,0.379435 -0.121614,0.6907662 -0.116749,0.3064667 -0.311331,0.5496943 z M 48.778016,0 Q 48.335342,0 48.048333,-0.17025927 47.853751,0.94858738 47.090017,1.67827 46.331147,2.4079526 45.061499,2.6511801 l -0.481591,-1.298835 q 0.70536,-0.1508011 1.211274,-0.40375772 0.510777,-0.24809208 0.788057,-0.66644344 0.277279,-0.41835136 0.277279,-1.07993025 0,-0.44267409 -0.141072,-0.99236829 -0.141072,-0.5545588 -0.301602,-1.0312848 l 1.308564,-0.4232159 0.282144,1.0993885 q 0.0827,0.3113312 0.243228,0.5253714 0.16053,0.2140403 0.476726,0.2140403 h 0.189717 V 0 Z m -7.987593,-1.4058551 h 1.070202 q 0.5351,0 0.734547,-0.1799884 0.204311,-0.1848529 0.204311,-0.671308 0,-0.2870085 -0.01459,-0.5545588 -0.01459,-0.2724148 -0.03405,-0.530236 l 1.216138,-0.1508011 0.09729,1.3912615 q 0.02432,0.3697059 0.204311,0.5351006 0.179988,0.1605302 0.574017,0.1605302 H 44.94475 V 0 H 44.832865 Q 44.34641,0 43.996162,-0.17512382 43.650779,-0.35024765 43.42701,-0.63239159 43.130272,-0.335654 42.72165,-0.16539472 42.317892,0 41.860625,0 H 40.790423 Z M 41.247691,0.62266248 42.074665,1.439907 42.891909,0.62266248 43.723747,1.4496361 42.891909,2.2863388 42.074665,1.4593652 41.247691,2.2863388 40.420718,1.4496361 Z M 37.166333,-1.4058551 h 0.734548 q 0.5351,0 0.734547,-0.1799884 0.204311,-0.1848529 0.204311,-0.671308 0,-0.2870085 -0.01459,-0.5545588 -0.01459,-0.2724148 -0.03405,-0.530236 l 1.216138,-0.1508011 0.09729,1.3912615 q 0.02432,0.3697059 0.204311,0.5351006 0.179989,0.1605302 0.574017,0.1605302 h 0.102156 V 0 H 40.873121 Q 40.386666,0 40.036418,-0.17512382 39.691035,-0.35024765 39.467266,-0.63239159 39.170528,-0.335654 38.761906,-0.16539472 38.358148,0 37.900881,0 H 37.166333 Z M 37.292812,0.62266248 38.119785,1.439907 38.93703,0.62266248 39.768868,1.4496361 38.93703,2.2863388 38.119785,1.4593652 37.292812,2.2863388 36.465838,1.4496361 Z m -2.709555,-7.32114878 0.875619,0.8756192 -0.875619,0.8707545 -0.870755,-0.8707545 z m 0.01459,2.4128172 q 0.3843,0 0.817245,0.058375 0.432945,0.05351 0.81238,0.1799883 0.379435,0.1216138 0.617798,0.3210604 0.243227,0.194582 0.243227,0.4718614 0,0.1605302 -0.126478,0.3940286 -0.121614,0.2334984 -0.316196,0.4913196 -0.189717,0.2529567 -0.398893,0.4864551 -0.204311,0.2286339 -0.364841,0.389164 0.199446,0.058375 0.384299,0.072968 0.184853,0.014594 0.345383,0.014594 h 0.75887 V 0 H 36.616639 Q 36.047486,0 35.541573,-0.13134287 35.040524,-0.26755029 34.59785,-0.49131962 34.130853,-0.25782119 33.474139,-0.12647832 32.822289,0 32.243408,0 h -0.768599 v -1.4058551 h 0.773463 q 0.111885,0 0.301602,-0.00486 0.194582,-0.00486 0.403758,-0.024323 0.209176,-0.019458 0.359977,-0.063239 -0.16053,-0.1605302 -0.364841,-0.3891641 -0.204312,-0.2334984 -0.394029,-0.486455 -0.189718,-0.2578212 -0.316196,-0.4864551 -0.126478,-0.2334984 -0.126478,-0.3940286 0,-0.2772794 0.238363,-0.4718614 0.238363,-0.1994466 0.617798,-0.3210604 0.379435,-0.1264783 0.81238,-0.1799883 0.432945,-0.058375 0.817244,-0.058375 z m 0.0049,1.2745122 q -0.238363,0 -0.505914,0.024323 -0.262685,0.024323 -0.549694,0.082697 0.204311,0.2189047 0.447539,0.4572677 0.248092,0.2334984 0.423216,0.3988932 0.179988,0.1653947 0.179988,0.1653947 0,0 0.179989,-0.1653947 0.179988,-0.1653948 0.42808,-0.3988932 0.252957,-0.238363 0.452403,-0.4572677 -0.282144,-0.058375 -0.549694,-0.082697 -0.262686,-0.024323 -0.505913,-0.024323 z m -5.793678,-3.2835717 0.826973,0.8172446 0.817245,-0.8172446 0.831838,0.8269737 -0.831838,0.8367027 -0.817245,-0.8269736 -0.826973,0.8269736 -0.826974,-0.8367027 z M 29.285763,0 h -0.987504 v -1.4058551 h 0.992368 q 0.369706,0 0.505913,-0.2286339 0.141072,-0.2334985 0.141072,-0.5886107 0,-0.3307894 -0.0827,-0.7199535 -0.07783,-0.3940286 -0.16053,-0.768599 l 1.274512,-0.3307894 q 0.09243,0.4572678 0.145937,0.909671 0.05837,0.4475386 0.05837,0.8561609 0,0.6469852 -0.175124,1.1626276 -0.175123,0.51564237 -0.58861,0.81724451 Q 30.000851,0 29.285763,0 Z m -0.705826,0 h -0.773463 v -1.4058551 h 0.778328 q 0.369706,0 0.505913,-0.2286339 0.141072,-0.2334985 0.141072,-0.5886107 0,-0.3307894 -0.0827,-0.7199535 -0.07783,-0.3940286 -0.16053,-0.768599 l 1.274512,-0.3307894 q 0.09243,0.4572678 0.145936,0.909671 0.05838,0.4475386 0.05838,0.8561609 0,0.6469852 -0.175124,1.1626276 -0.175124,0.51564237 -0.588611,0.81724451 Q 29.295026,0 28.579937,0 Z m 0.574017,-6.3433741 0.875619,0.8756192 -0.875619,0.8707545 -0.870754,-0.8707545 z m -3.367944,0.6761726 0.87562,0.8756191 -0.87562,0.8707546 -0.870754,-0.8707546 z M 27.585894,0 Q 27.14322,0 26.856212,-0.17025927 26.66163,0.94858738 25.897895,1.67827 25.139025,2.4079526 23.869377,2.6511801 l -0.48159,-1.298835 q 0.70536,-0.1508011 1.211273,-0.40375772 0.510778,-0.24809208 0.788057,-0.66644344 0.27728,-0.41835136 0.27728,-1.07993025 0,-0.44267409 -0.141072,-0.99236829 -0.141072,-0.5545588 -0.301602,-1.0312848 l 1.308564,-0.4232159 0.282144,1.0993885 q 0.0827,0.3113312 0.243227,0.5253714 0.16053,0.2140403 0.476726,0.2140403 h 0.189718 V 0 Z m -3.915962,-6.8201 v 6.81523545 H 22.356503 V -6.8201 Z m -4.251617,2.7971166 q 0.612934,0 1.041014,0.3648413 0.42808,0.3648413 0.671308,0.963181 0.243227,0.5934752 0.291873,1.289106 h 0.364841 V 0 H 21.325219 Q 21.04794,1.1091176 20.23556,1.7415091 19.42318,2.3787653 18.017325,2.6511801 L 17.535734,1.3523451 Q 18.148667,1.2355959 18.669174,1.0410138 19.194546,0.84643182 19.554523,0.58374608 19.919364,0.32106034 20.040978,0 H 19.58371 q -0.982639,0 -1.498282,-0.40862226 -0.515642,-0.4134868 -0.515642,-1.33288684 0,-0.3599768 0.111885,-0.7540054 0.111884,-0.3988931 0.340518,-0.7442762 0.228634,-0.3502477 0.574017,-0.5642879 0.350248,-0.2189048 0.822109,-0.2189048 z m 0.16053,2.6171283 h 0.622663 q -0.02919,-0.2724149 -0.116749,-0.5594234 -0.0827,-0.2870085 -0.248093,-0.4815905 -0.16053,-0.194582 -0.42808,-0.194582 -0.228634,0 -0.364841,0.1459365 -0.131343,0.141072 -0.189718,0.3405186 -0.05351,0.194582 -0.05351,0.3599767 0,0.2578212 0.21404,0.3259249 0.218905,0.063239 0.564288,0.063239 z m -5.171019,-4.8888735 0.826973,0.8172446 0.817245,-0.8172446 0.831838,0.8269737 -0.831838,0.8367027 -0.817245,-0.8269736 -0.826973,0.8269736 -0.826974,-0.8367027 z M 14.884552,0 h -0.987504 v -1.4058551 h 0.992368 q 0.369706,0 0.505914,-0.2286339 0.141072,-0.2334985 0.141072,-0.5886107 0,-0.3307894 -0.0827,-0.7199535 -0.07783,-0.3940286 -0.16053,-0.768599 l 1.274512,-0.3307894 q 0.09243,0.4572678 0.145937,0.909671 0.05837,0.4475386 0.05837,0.8561609 0,0.6469852 -0.175123,1.1626276 -0.175124,0.51564237 -0.588611,0.81724451 Q 15.599641,0 14.884552,0 Z"
       id="text15"
       transform="matrix(1.3333333,0,0,1.3333333,253.20533,263.11867)"
       aria-label=":فﺪﻫﺮﯿﯿﻐﺗنزاﻮﺗ" />
  </g>
</svg>
