<?xml version="1.0" encoding="UTF-8" standalone="no"?>


<svg class="tikz-diagram" id="iran-action-ch6-tikz-2-dcc08d0608fb"
   version="1.1"
   id="svg1"
   width="610.76001"
   height="157.22667"
   viewBox="0 0 610.76001 157.22667"
   sodipodi:docname="iran-action-ch6-tikz-2-dcc08d0608fb.pdf"
   xmlns:inkscape="http://www.inkscape.org/namespaces/inkscape"
   xmlns:sodipodi="http://sodipodi.sourceforge.net/DTD/sodipodi-0.dtd"
   xmlns="http://www.w3.org/2000/svg"
   xmlns:svg="http://www.w3.org/2000/svg">
  <defs
     id="defs1" />
  <sodipodi:namedview
     id="namedview1"
     pagecolor="#ffffff"
     bordercolor="#000000"
     borderopacity="0.25"
     inkscape:showpageshadow="2"
     inkscape:pageopacity="0.0"
     inkscape:pagecheckerboard="0"
     inkscape:deskcolor="#d1d1d1">
    <inkscape:page
       x="0"
       y="0"
       inkscape:label="1"
       id="page1"
       width="610.76001"
       height="157.22667"
       margin="0"
       bleed="0" />
  </sodipodi:namedview>
  <g
     id="g1"
     inkscape:groupmode="layer"
     inkscape:label="1">
    <path
       id="path1"
       d="M 70.0963,42.52022 H -70.0963 c -8.25354,0 -14.94415,-6.69063 -14.94415,-14.94415 v -55.15214 c 0,-8.25352 6.69061,-14.94415 14.94415,-14.94415 H 70.0963 c 8.25354,0 14.94415,6.69063 14.94415,14.94415 v 55.15214 c 0,8.25352 -6.69061,14.94415 -14.94415,14.94415 z"
       style="fill:#d9e8e0;fill-opacity:1;fill-rule:nonzero;stroke:#006633;stroke-width:2.98883;stroke-linecap:butt;stroke-linejoin:miter;stroke-miterlimit:10;stroke-dasharray:none;stroke-opacity:1"
       transform="matrix(1.3333333,0,0,-1.3333333,135.304,78.616)" />
    <g
       id="text1"
       transform="matrix(1.3333333,0,0,1.3333333,102.412,61.761333)"
       aria-label="ﺎﻣﺮﺗ یﻮﻗ،فﻼﺘﺋا،نﺎﻣزﺎﺳﻊﺑﺎﻨﻣ،طﺎﺒﺗرا،ﺖﯾاورﯽﮔدﺎﻣآ">
      <path
         style="font-weight:800;font-size:14.3462px;font-family:Vazirmatn"
         d="m 45.315219,-9.8209826 h 1.891344 v 6.4025521 q 0,0.742528 0.217155,1.071762 0.217154,0.3222291 0.896637,0.3222291 H 48.49548 V 0 H 48.320355 Q 46.75124,0 46.029727,-0.81257773 45.315219,-1.6251555 45.315219,-3.2503109 Z m -3.992838,9.98209715 q -0.728518,0 -1.365971,-0.30821914 Q 39.325961,-0.46232871 38.723533,-0.92465742 38.338259,-0.5393835 37.91796,-0.26618926 37.504666,0 36.706099,0 H 36.39788 v -2.0244394 h 0.273194 q 0.343244,0 0.616438,-0.2661892 0.280199,-0.2661893 0.532379,-0.6864881 0.259184,-0.4273038 0.539383,-0.8966375 0.287204,-0.4763387 0.637453,-0.8966375 0.357254,-0.4273038 0.826588,-0.6934931 0.469334,-0.2661892 1.099782,-0.2661892 0.882627,0 1.527086,0.4202988 0.644458,0.4132939 0.994707,1.0997819 0.350249,0.6794831 0.350249,1.4850559 0,0.8265877 -0.273194,1.4780509 -0.273195,0.65146316 -0.826588,1.02973211 -0.546389,0.37826894 -1.372976,0.37826894 z M 40.986142,-3.8037044 q -0.287204,0 -0.518369,0.1961395 -0.231164,0.1891344 -0.406289,0.4623287 -0.175124,0.2731942 -0.294209,0.5183685 0.203145,0.1821295 0.385274,0.3152241 0.18213,0.1330947 0.350249,0.2311644 0.252179,0.1400996 0.462329,0.1961395 0.210149,0.05604 0.364259,0.05604 0.371264,0 0.532378,-0.2661893 0.161115,-0.2731942 0.161115,-0.6164382 0,-0.4413138 -0.273194,-0.7635429 -0.273195,-0.3292341 -0.763543,-0.3292341 z M 40.039798,0 q -0.637454,0 -1.050747,-0.24517432 -0.2802,1.61114552 -1.379982,2.66189262 -1.092777,1.050747 -2.921076,1.4009961 L 33.994499,1.9473846 q 1.015723,-0.2171544 1.744241,-0.5814134 0.735523,-0.357254 1.134806,-0.95968233 0.399284,-0.60242832 0.399284,-1.55510567 0,-0.6374532 -0.203144,-1.429016 -0.203145,-0.7985678 -0.434309,-1.4850559 l 1.88434,-0.6094333 0.406289,1.5831256 q 0.119084,0.4483188 0.350249,0.7565379 0.231164,0.3082191 0.686488,0.3082191 h 0.273194 V 0 Z m -8.665162,-9.0644447 1.190847,1.1768367 1.176837,-1.1768367 1.197851,1.1908467 -1.197851,1.2048566 -1.176837,-1.1908467 -1.190847,1.1908467 L 30.18379,-7.873598 Z M 32.061124,0 h -1.422011 v -2.0244394 h 1.429016 q 0.532379,0 0.728518,-0.329234 0.203145,-0.3362391 0.203145,-0.8476027 0,-0.4763386 -0.119085,-1.0367371 -0.11208,-0.5674034 -0.231164,-1.1067869 l 1.835305,-0.4763387 q 0.133094,0.6584682 0.210149,1.3099314 0.08406,0.6444582 0.08406,1.2328765 0,0.9316624 -0.25218,1.6741904 -0.252179,0.7425279 -0.847602,1.17683669 Q 33.090857,0 32.061124,0 Z M 18.24097,3.5305102 q -1.506071,0 -2.486768,-0.5744084 -0.973692,-0.5744084 -1.443026,-1.5691157 -0.469334,-0.99470719 -0.469334,-2.24159372 0,-0.83359268 0.18213,-1.72322518 0.182129,-0.8966375 0.525373,-1.78627 l 1.702211,0.6514632 q -0.259185,0.7425279 -0.434309,1.4500309 -0.175125,0.707503 -0.175125,1.32394132 0,0.67247812 0.23817,1.23287656 0.238169,0.56039844 0.805572,0.89663752 0.567404,0.336239 1.555106,0.336239 1.064757,0 1.77226,-0.2451743 0.707503,-0.2381693 1.057752,-0.56740339 0.350249,-0.32923408 0.350249,-0.58141338 0,-0.20314443 -0.252179,-0.20314443 h -1.134807 q -0.357254,0 -0.749533,-0.07004981 -0.385274,-0.0700498 -0.721513,-0.30121416 -0.336239,-0.23116435 -0.546388,-0.69349303 -0.203145,-0.4623287 -0.203145,-1.2398816 0,-0.7285179 0.23817,-1.4009961 0.238169,-0.6794831 0.679483,-1.2118616 0.448318,-0.5323785 1.071762,-0.8476026 0.623443,-0.3152241 1.400996,-0.3152241 0.525373,0 1.029732,0.1611145 0.511363,0.1541096 0.938667,0.4623287 l -0.644458,1.78627 q -0.364259,-0.2031444 -0.700498,-0.2801992 -0.329234,-0.08406 -0.609433,-0.08406 -0.756538,0 -1.183842,0.4973537 -0.427304,0.4903486 -0.427304,1.2258715 0,0.1891345 0.119085,0.2381694 0.12609,0.049035 0.308219,0.049035 h 1.022727 q 0.805573,0 1.260897,0.2521793 0.462328,0.2521793 0.651463,0.7004981 0.196139,0.44131375 0.196139,1.00871717 0,1.00171221 -0.574408,1.83530493 -0.574409,0.8335926 -1.67419,1.3309462 -1.099782,0.4973537 -2.675903,0.4973537 z m -8.265878,-9.323629 q 0.882628,0 1.499066,0.5253735 0.616438,0.5253735 0.966687,1.3869861 0.350249,0.8546076 0.420299,1.8563198 h 0.525373 V 0 H 12.721044 Q 12.32176,1.5971355 11.151929,2.507783 9.9820969,3.4254354 7.9576576,3.8177144 L 7.2641645,1.9473846 Q 8.1467921,1.779265 8.896325,1.4990658 9.6528629,1.2188666 10.171231,0.84059766 10.696605,0.46232871 10.871729,0 H 10.213261 Q 8.7982552,0 8.0557273,-0.58841836 7.3131994,-1.1838417 7.3131994,-2.507783 q 0,-0.5183686 0.1611145,-1.085772 0.1611146,-0.5744084 0.4903487,-1.071762 0.3292341,-0.5043586 0.8265877,-0.8125777 0.5043586,-0.3152241 1.1838417,-0.3152241 z m 0.231164,3.7686794 h 0.896638 q -0.04203,-0.3922789 -0.16812,-0.8055727 -0.119084,-0.4132939 -0.357254,-0.6934931 -0.231164,-0.2801992 -0.616438,-0.2801992 -0.3292341,0 -0.5253735,0.2101494 -0.1891345,0.2031445 -0.2731943,0.4903487 -0.077055,0.2801992 -0.077055,0.5183685 0,0.371264 0.3082192,0.4693337 0.3152241,0.091065 0.8125774,0.091065 z m -8.328921,-9.1835296 1.1908467,1.176837 1.1768367,-1.176837 1.1978517,1.190847 L 4.2450184,-8.8122654 3.0681817,-10.003112 1.877335,-8.8122654 0.68648835,-10.017122 Z m 0.6444582,9.1835296 q 0.8966375,0 1.3659712,-0.1400996 0.4763387,-0.1400996 0.4833437,-0.693493 -0.5113636,0.09807 -1.085772,0.09807 -1.2398815,0 -1.9613945,-0.5113636 -0.72151302,-0.5183685 -0.72151302,-1.6811953 0,-0.5674034 0.18212949,-1.1207969 0.18913447,-0.5603984 0.53237853,-1.0157221 0.350249,-0.4623287 0.8335927,-0.735523 0.4903486,-0.2801992 1.0927769,-0.2801992 0.7775528,0 1.3309463,0.3922789 0.5603984,0.3852739 0.9106475,1.0367371 0.350249,0.6514632 0.5113635,1.457036 0.1681196,0.7985677 0.1681196,1.6321604 0,1.4570359 -0.3992839,2.2345888 -0.3922789,0.77054782 -1.2188666,1.064757 Q 3.7266499,0 2.4377335,0 h -2.57783285 v -2.0244394 z m 0.735523,-2.4517431 q 0.2661892,0 0.5323785,-0.02802 0.2731942,-0.02802 0.5323785,-0.08406 -0.049035,-0.3362391 -0.1821295,-0.6934931 -0.1330946,-0.364259 -0.357254,-0.6164383 -0.2241594,-0.2521792 -0.5533934,-0.2521792 -0.4343088,0 -0.6724782,0.357254 -0.2311643,0.350249 -0.2311643,0.7565378 0,0.371264 0.2731942,0.4693337 0.2731942,0.091065 0.6584682,0.091065 z"
         id="path9" />
      <path
         style="font-size:9.9626px;font-family:Vazirmatn"
         d="m 65.087457,19.305736 q -0.340518,0.311331 -0.539965,0.617797 -0.194582,0.306467 -0.194582,0.749141 0.345383,0 0.476726,0.150801 0.136207,0.150801 0.136207,0.452404 0,0.296737 -0.150801,0.471861 -0.150801,0.170259 -0.452403,0.170259 -0.384299,0 -0.554559,-0.21404 -0.165394,-0.21404 -0.165394,-0.574017 0,-0.661579 0.311331,-1.172357 0.311331,-0.515642 0.81238,-0.904806 z m -4.519165,-4.747802 0.70536,0.70536 -0.70536,0.70536 -0.70536,-0.70536 z m 1.148034,5.462891 q -0.238363,0.07297 -0.486455,0.111884 -0.243228,0.03892 -0.525372,0.03892 -1.653947,0 -1.653947,-1.362075 0,-0.345383 0.10702,-0.700495 0.10702,-0.359977 0.311332,-0.656714 0.209175,-0.301602 0.510777,-0.481591 0.301603,-0.184853 0.695631,-0.184853 0.476726,0 0.817245,0.243228 0.345383,0.243227 0.564288,0.656714 0.223769,0.408622 0.330789,0.929129 0.10702,0.515643 0.10702,1.065337 0,0.724818 -0.126478,1.172357 -0.121614,0.442674 -0.398893,0.676172 -0.27728,0.228634 -0.734548,0.311331 -0.457267,0.07783 -1.123711,0.07783 h -1.610166 q -1.863123,0 -2.772794,-0.496184 -0.904806,-0.496184 -0.904806,-1.717186 0,-0.335654 0.07297,-0.656715 0.07783,-0.32106 0.199447,-0.617798 l 0.754005,0.282144 q -0.07783,0.214041 -0.131343,0.457268 -0.04865,0.243228 -0.04865,0.462132 0,0.569153 0.325924,0.87562 0.325925,0.301602 0.958317,0.413486 0.632391,0.111885 1.546927,0.111885 h 1.668541 q 0.574017,0 0.909671,-0.06324 0.340518,-0.06324 0.486455,-0.277279 0.150801,-0.218905 0.150801,-0.671308 z m -0.948587,-0.685902 q 0.228633,0 0.447538,-0.03892 0.218905,-0.04378 0.447539,-0.10702 -0.03892,-0.345383 -0.145937,-0.700495 -0.102155,-0.355112 -0.306466,-0.593475 -0.204311,-0.243228 -0.54483,-0.243228 -0.301602,0 -0.486455,0.189718 -0.179988,0.189717 -0.262686,0.452403 -0.07783,0.262686 -0.07783,0.486455 0,0.33079 0.238363,0.442674 0.243228,0.111885 0.690767,0.111885 z m -9.597757,1.576114 q 0.364842,-0.102155 0.65185,-0.311331 0.287009,-0.21404 0.452403,-0.617798 0.165395,-0.408622 0.165395,-1.099388 v -3.663007 h 0.822109 v 3.920828 q 0,0.929129 0.223769,1.41072 0.22377,0.48159 0.778328,0.48159 h 0.175124 v 0.885348 h -0.189717 q -0.65185,0 -1.002098,-0.311331 -0.350247,-0.316196 -0.510777,-0.875619 -0.408623,0.603204 -1.201544,0.895077 -0.788058,0.291873 -1.838801,0.291873 -0.199446,0 -0.408622,-0.0097 -0.209176,-0.0097 -0.423216,-0.02919 V 21.04238 q 0.301602,0.01946 0.510778,0.03405 0.209176,0.0097 0.418351,0.0097 0.199447,0 0.345384,0 0.150801,-0.0049 0.248092,-0.02432 0,0 -0.07297,-0.437809 -0.07297,-0.442674 -0.243227,-1.191815 -0.170259,-0.754005 -0.466997,-1.697728 -0.291873,-0.943723 -0.734547,-1.945821 l 0.754005,-0.350247 q 0.43781,1.036149 0.734547,2.013924 0.301602,0.977774 0.476726,1.760967 0.179989,0.778328 0.257821,1.240461 z m -4.358644,-4.256482 0.681037,0.676173 -0.681037,0.685902 -0.676173,-0.685902 z m -1.615031,0 0.681037,0.676173 -0.681037,0.685902 -0.676172,-0.685902 z m -0.525371,4.378096 h 0.681037 q 0.617798,0 0.880483,-0.277279 0.267551,-0.27728 0.267551,-0.851297 0,-0.233498 -0.01459,-0.442674 -0.0097,-0.209175 -0.02919,-0.418351 l 0.81238,-0.09729 0.07783,1.138305 q 0.05837,0.948587 0.987504,0.948587 h 0.102156 v 0.885348 h -0.111885 q -0.539965,0 -0.86589,-0.194582 -0.32106,-0.194582 -0.520507,-0.549694 -0.262686,0.3843 -0.690766,0.564288 -0.42808,0.179988 -0.895077,0.179988 h -0.681037 z m -1.877715,-3.711652 q -0.165394,-0.126478 -0.282144,-0.291873 -0.116749,-0.165395 -0.116749,-0.452403 0,-0.418352 0.287009,-0.685902 0.291873,-0.26755 0.661579,-0.26755 0.32106,0 0.58861,0.155665 l 0.0049,0.481591 q -0.150801,-0.07783 -0.282144,-0.09729 -0.131343,-0.01946 -0.243228,-0.01946 -0.209175,0 -0.389164,0.126478 -0.175124,0.126478 -0.175124,0.369706 0.0049,0.150801 0.150802,0.296737 0.150801,0.141072 0.423215,0.102156 0.0097,0 0.01946,-0.0049 0.01459,-0.0049 0.02919,-0.0097 l 0.642121,-0.233498 0.0681,0.48159 -1.853393,0.734548 -0.0681,-0.476726 z m -1.18695,3.711652 h 1.006962 q 0.486455,0 0.656714,-0.282144 0.175124,-0.282144 0.175124,-0.715089 0,-0.316196 -0.05837,-0.676172 -0.05837,-0.359977 -0.126479,-0.724818 l 0.846432,-0.214041 q 0.0827,0.389164 0.131343,0.763735 0.04865,0.37457 0.04865,0.715089 0,0.583746 -0.16053,1.041014 -0.16053,0.457267 -0.525371,0.719953 -0.364841,0.257821 -0.977775,0.257821 h -1.016691 z m -0.637256,-5.813138 v 6.693622 h -0.822109 v -6.693622 z m 0.510116,4.086223 q -0.340518,0.311331 -0.539965,0.617797 -0.194582,0.306467 -0.194582,0.749141 0.345383,0 0.476726,0.150801 0.136207,0.150801 0.136207,0.452404 0,0.296737 -0.150801,0.471861 -0.150801,0.170259 -0.452403,0.170259 -0.384299,0 -0.554559,-0.21404 -0.165394,-0.21404 -0.165394,-0.574017 0,-0.661579 0.311331,-1.172357 0.311331,-0.515642 0.81238,-0.904806 z m -5.560182,-1.51774 0.70536,0.70536 -0.70536,0.705359 -0.70536,-0.705359 z m 0.05838,5.404516 q 0.81238,0 1.255054,-0.267551 0.447539,-0.262685 0.622662,-0.69563 0.179989,-0.428081 0.179989,-0.919401 0,-0.578881 -0.155666,-1.143169 -0.155665,-0.564288 -0.291873,-0.924265 l 0.831838,-0.335654 q 0.228634,0.627527 0.345383,1.221003 0.121614,0.58861 0.121614,1.123711 0,0.822109 -0.306466,1.459365 -0.301603,0.637256 -0.943723,0.997233 -0.642121,0.359977 -1.658812,0.359977 -1.050743,0 -1.683135,-0.3843 -0.627527,-0.384299 -0.909671,-1.02642 -0.277279,-0.637256 -0.277279,-1.400991 0,-0.515642 0.10702,-1.055607 0.10702,-0.54483 0.291873,-1.060472 l 0.773464,0.311331 q -0.141072,0.447539 -0.238363,0.9194 -0.09729,0.471862 -0.09729,0.914536 0,0.525371 0.184853,0.958316 0.189717,0.432945 0.632391,0.690766 0.442674,0.257822 1.216138,0.257822 z m -5.214798,-7.972999 h 0.822109 v 4.65051 q 0,0.685902 0.252956,0.924265 0.252957,0.238363 0.763735,0.238363 h 0.121614 v 0.885348 h -0.121614 q -0.929129,0 -1.386397,-0.491319 -0.452403,-0.496185 -0.452403,-1.561521 z m -2.758199,6.810371 q -0.486455,0 -0.899942,-0.209176 -0.408622,-0.21404 -0.851296,-0.64212 -0.316196,0.355112 -0.608069,0.549694 -0.291873,0.189717 -0.822109,0.189717 H 24.60887 v -0.885348 h 0.189718 q 0.325925,0 0.549694,-0.184853 0.22377,-0.189717 0.398893,-0.486455 0.175124,-0.296738 0.345383,-0.627527 0.175124,-0.335654 0.389164,-0.632392 0.214041,-0.296737 0.515643,-0.48159 0.306467,-0.189718 0.754005,-0.189718 0.539965,0 0.938858,0.262686 0.403758,0.257821 0.622663,0.695631 0.223769,0.437809 0.223769,0.977775 0,0.792921 -0.403757,1.230731 -0.398894,0.432945 -1.128576,0.432945 z m -0.233499,-2.738742 q -0.243227,0 -0.442674,0.165395 -0.199446,0.16053 -0.359976,0.418351 -0.160531,0.257821 -0.287009,0.535101 0.291873,0.306466 0.603204,0.501048 0.398894,0.257821 0.710225,0.257821 0.719953,0 0.719953,-0.724818 0,-0.505913 -0.252956,-0.826973 -0.248092,-0.325925 -0.690767,-0.325925 z m -5.232777,-2.378765 0.70536,0.705359 -0.70536,0.70536 -0.70536,-0.70536 z m -1.780425,7.622751 -0.287009,-0.773464 q 1.18695,-0.257821 1.673406,-0.904806 0.486455,-0.642121 0.486455,-1.522605 0,-0.413487 -0.09243,-0.86589 -0.08756,-0.457268 -0.248092,-0.929129 l 0.807515,-0.272415 q 0.350248,0.997233 0.350248,1.921498 0,0.81238 -0.287008,1.503146 -0.282144,0.695631 -0.880484,1.177221 -0.593475,0.486455 -1.522604,0.666444 z m -2.091757,-9.315615 h 0.822109 v 4.65051 q 0,0.685902 0.252957,0.924265 0.252956,0.238363 0.763734,0.238363 h 0.121614 v 0.885348 h -0.121614 q -0.929129,0 -1.386397,-0.491319 -0.452403,-0.496185 -0.452403,-1.561521 z m -5.307224,6.698486 q -0.559424,0 -0.86589,-0.189717 -0.301603,-0.194582 -0.481591,-0.554559 -0.228634,0.359977 -0.583746,0.554559 -0.355112,0.189717 -1.011826,0.189717 H 9.9680528 v -0.885348 h 0.4572682 q 0.622662,0 0.909671,-0.228634 0.287008,-0.233498 0.287008,-0.846432 0,-0.126478 -0.01459,-0.296737 -0.0097,-0.175124 -0.03405,-0.486455 l 0.81238,-0.102156 0.07783,1.016691 q 0.02919,0.408622 0.248092,0.676173 0.22377,0.26755 0.656715,0.26755 0.515642,0 0.700495,-0.277279 0.184853,-0.27728 0.184853,-0.797787 0,-0.126478 -0.01459,-0.301602 -0.0097,-0.175124 -0.03405,-0.48159 l 0.81238,-0.102156 0.07783,1.016691 q 0.02432,0.394029 0.209176,0.671308 0.184853,0.272415 0.59834,0.272415 0.403757,0 0.554558,-0.301602 0.150801,-0.301602 0.150801,-0.70536 0,-0.364841 -0.07297,-0.734547 -0.0681,-0.369706 -0.121614,-0.59834 l 0.831839,-0.223769 q 0.08756,0.325925 0.141072,0.695631 0.05351,0.364841 0.05351,0.729682 0,0.525372 -0.145937,0.987504 -0.145936,0.462132 -0.48159,0.749141 -0.33079,0.282144 -0.904807,0.287008 -0.466997,0 -0.754005,-0.194582 -0.287009,-0.194582 -0.466997,-0.549694 -0.272415,0.394029 -0.608069,0.569152 -0.330789,0.175124 -0.719953,0.175124 z M 9.0720784,20.565654 Q 8.8629027,20.380801 8.600217,20.108386 8.3423958,19.831107 8.0991683,19.534369 7.8559407,19.237632 7.6954105,18.984675 7.5397449,18.726854 7.5397449,18.585782 q 0,-0.199447 0.2091757,-0.359977 0.2091757,-0.16053 0.5496942,-0.272415 0.3453831,-0.111884 0.7442763,-0.170259 0.3988931,-0.06324 0.7783281,-0.06324 0.3745708,0 0.7734638,0.06324 0.398893,0.05837 0.739411,0.170259 0.345384,0.111885 0.559424,0.272415 0.21404,0.16053 0.21404,0.359977 0,0.141072 -0.165395,0.408622 -0.16053,0.262686 -0.413487,0.574017 -0.252956,0.306467 -0.530236,0.588611 -0.272414,0.282144 -0.501048,0.466997 0.408622,0.252956 0.890212,0.330789 0.481591,0.07783 1.14317,0.07783 h 0.291873 v 0.885348 h -0.291873 q -0.49132,0 -0.933994,-0.05837 -0.442674,-0.06324 -0.890213,-0.238363 -0.442674,-0.179989 -0.948587,-0.530236 -0.7783281,0.437809 -1.2453249,0.890212 -0.4621324,0.452404 -0.4621324,0.963181 0,0.681038 0.5253715,1.084795 0.5253715,0.403758 1.5809788,0.403758 0.423216,0 0.870755,-0.07297 0.447538,-0.0681 0.885348,-0.214041 l 0.189717,0.81238 q -0.413486,0.150802 -0.9194,0.233499 -0.501048,0.08756 -1.050743,0.08756 -0.8707541,0 -1.5274685,-0.257821 -0.6567143,-0.257822 -1.0215556,-0.778329 -0.3599768,-0.520506 -0.3599768,-1.298835 0,-0.447538 0.1799884,-0.807515 0.1848529,-0.359977 0.4669969,-0.646985 0.2870085,-0.287009 0.6032043,-0.515643 0.3210603,-0.228633 0.5983397,-0.408622 z m 0.7491408,-2.009059 q -0.2189048,0 -0.627527,0.03892 -0.4037578,0.03405 -0.7637345,0.155666 0.3161958,0.394028 0.6372561,0.715089 0.3210604,0.316196 0.5351006,0.505913 0.2189048,0.184853 0.2189048,0.184853 0,0 0.2189048,-0.184853 0.218905,-0.189717 0.54483,-0.505913 0.325925,-0.321061 0.637256,-0.715089 -0.359977,-0.121614 -0.768599,-0.155666 -0.408622,-0.03892 -0.6323918,-0.03892 z M 4.5966918,21.917999 H 3.7016145 v -0.885348 h 0.8853482 q 0.4864551,0 0.6567144,-0.282144 0.1751238,-0.282144 0.1751238,-0.715089 0,-0.316196 -0.058375,-0.676172 -0.058375,-0.359977 -0.1264783,-0.724818 l 0.8464318,-0.214041 q 0.082697,0.389164 0.1313428,0.763735 0.048646,0.37457 0.048646,0.715089 0,0.583746 -0.1605301,1.041014 -0.1605302,0.457267 -0.5253715,0.719953 -0.3648413,0.257821 -0.9777747,0.257821 z m 0.1070201,0.744277 0.7053599,0.705359 -0.7053599,0.70536 -0.7053598,-0.70536 z M 1.9406473,15.219513 h 0.8221091 v 4.65051 q 0,0.685902 0.2529566,0.924265 0.2529567,0.238363 0.7637345,0.238363 h 0.1216137 v 0.885348 H 3.7794475 q -0.9291292,0 -1.386397,-0.491319 -0.4524032,-0.496185 -0.4524032,-1.561521 z m -2.6268571,3.823537 0.81237996,-0.09729 0.0778328,1.138305 q 0.0583746,0.948587 0.98750383,0.948587 h 0.1021555 v 0.885348 H 1.1817777 q -0.53996517,0 -0.86589006,-0.194582 -0.32106034,-0.194582 -0.52050692,-0.549694 -0.26268574,0.3843 -0.6907662,0.564288 -0.42808042,0.179988 -0.89507732,0.179988 h -0.4669969 v -0.885348 h 0.4669969 q 0.6177979,0 0.88048367,-0.277279 0.26755029,-0.27728 0.26755029,-0.851297 0,-0.233498 -0.0145937,-0.442674 -0.009729,-0.209175 -0.0291873,-0.418351 z m 0.0924265,-2.422546 0.70535984,0.705359 -0.70535984,0.70536 -0.70535987,-0.70536 z m -3.58030987,5.40938 q -0.4864551,0 -0.8999419,-0.209176 -0.4086222,-0.21404 -0.8512964,-0.64212 -0.3161958,0.355112 -0.6080688,0.549694 -0.291873,0.189717 -0.8221091,0.189717 h -0.2140402 v -0.885348 h 0.1897175 q 0.3259249,0 0.5496942,-0.184853 0.2237693,-0.189717 0.3988932,-0.486455 0.1751238,-0.296738 0.3453831,-0.627527 0.1751238,-0.335654 0.389164,-0.632392 0.2140403,-0.296737 0.5156424,-0.48159 0.3064667,-0.189718 0.7540053,-0.189718 0.5399652,0 0.9388583,0.262686 0.4037577,0.257821 0.6226625,0.695631 0.2237693,0.437809 0.2237693,0.977775 0,0.792921 -0.4037577,1.230731 -0.3988931,0.432945 -1.1285757,0.432945 z m -0.2334985,-2.738742 q -0.2432275,0 -0.4426741,0.165395 -0.1994465,0.16053 -0.3599767,0.418351 -0.1605302,0.257821 -0.2870085,0.535101 0.291873,0.306466 0.6032043,0.501048 0.3988931,0.257821 0.7102244,0.257821 0.7199535,0 0.7199535,-0.724818 0,-0.505913 -0.2529567,-0.826973 -0.248092,-0.325925 -0.6907662,-0.325925 z"
         id="path10" />
      <path
         style="font-size:9.9626px;font-family:Vazirmatn"
         d="m 63.495506,31.260737 q -0.340519,0.311332 -0.539965,0.617798 -0.194582,0.306467 -0.194582,0.749141 0.345383,0 0.476725,0.150801 0.136208,0.150801 0.136208,0.452403 0,0.296738 -0.150801,0.471862 -0.150801,0.170259 -0.452403,0.170259 -0.3843,0 -0.554559,-0.21404 -0.165395,-0.21404 -0.165395,-0.574017 0,-0.661579 0.311331,-1.172357 0.311332,-0.515642 0.81238,-0.904806 z M 55.6198,32.987653 q 0.09243,-0.155666 0.194582,-0.306467 0.102156,-0.155665 0.194582,-0.306467 v -5.200204 h 0.826974 v 4.042441 q 1.045878,-1.259918 2.154996,-1.259918 0.574017,0 1.002097,0.233498 0.432945,0.233499 0.671308,0.646985 0.238363,0.408623 0.238363,0.943723 -0.0049,1.065337 -0.899942,1.580979 -0.890212,0.510778 -2.690096,0.510778 h -2.821439 v -0.885348 z m 3.419779,-2.150132 q -1.172356,0 -2.529566,2.145267 l 0.783193,0.0049 q 1.386397,0 2.067434,-0.27728 0.685901,-0.277279 0.685901,-0.880483 0,-0.428081 -0.277279,-0.710225 -0.277279,-0.282144 -0.729683,-0.282144 z m -6.893075,-3.663006 h 0.822109 v 4.65051 q 0,0.685902 0.252956,0.924265 0.252957,0.238363 0.763735,0.238363 h 0.121614 v 0.885348 h -0.121614 q -0.929129,0 -1.386397,-0.49132 -0.452403,-0.496184 -0.452403,-1.56152 z m -4.300263,5.813138 h 0.569153 q 0.617797,0 0.880483,-0.27728 0.267551,-0.277279 0.267551,-0.851296 0,-0.233498 -0.01459,-0.442674 -0.0097,-0.209176 -0.02919,-0.418351 l 0.81238,-0.09729 0.07783,1.138304 q 0.05838,0.948588 0.987504,0.948588 h 0.102156 v 0.885348 h -0.111885 q -0.539965,0 -0.86589,-0.194582 -0.32106,-0.194582 -0.520507,-0.549694 -0.262686,0.384299 -0.690766,0.564288 -0.428081,0.179988 -0.895077,0.179988 h -0.569153 z m 1.002098,1.629624 0.705359,0.70536 -0.705359,0.70536 -0.70536,-0.70536 z m -1.911766,-6.455258 0.681037,0.676172 -0.681037,0.685902 -0.676173,-0.685902 z m -1.615031,0 0.681037,0.676172 -0.681037,0.685902 -0.676173,-0.685902 z m -0.525372,4.825634 h 0.997233 q 0.486455,0 0.656714,-0.282144 0.175124,-0.282144 0.175124,-0.715089 0,-0.316196 -0.05837,-0.676173 -0.05838,-0.359976 -0.126479,-0.724818 l 0.846432,-0.21404 q 0.0827,0.389164 0.131343,0.763735 0.04865,0.37457 0.04865,0.715089 0,0.583746 -0.160531,1.041013 -0.16053,0.457268 -0.525371,0.719954 -0.364841,0.257821 -0.977775,0.257821 H 44.79617 Z m -3.76158,3.502476 -0.287009,-0.773463 q 1.186951,-0.257821 1.673406,-0.904807 0.486455,-0.64212 0.486455,-1.522604 0,-0.413487 -0.09243,-0.86589 -0.08756,-0.457268 -0.248092,-0.929129 l 0.807516,-0.272415 q 0.350247,0.997233 0.350247,1.921497 0,0.81238 -0.287008,1.503147 -0.282144,0.69563 -0.880484,1.177221 -0.593475,0.486455 -1.522604,0.666443 z m -0.291872,-9.315614 v 6.693622 h -0.822109 v -6.693622 z m 0.510116,4.086222 q -0.340519,0.311332 -0.539965,0.617798 -0.194582,0.306467 -0.194582,0.749141 0.345383,0 0.476726,0.150801 0.136207,0.150801 0.136207,0.452403 0,0.296738 -0.150801,0.471862 -0.150801,0.170259 -0.452403,0.170259 -0.3843,0 -0.554559,-0.21404 -0.165395,-0.21404 -0.165395,-0.574017 0,-0.661579 0.311331,-1.172357 0.311332,-0.515642 0.81238,-0.904806 z m -6.134199,-2.15986 0.681037,0.676172 -0.681037,0.685902 -0.676173,-0.685902 z m -1.615031,0 0.681037,0.676172 -0.681037,0.685902 -0.676172,-0.685902 z m 3.750569,1.897175 0.81238,-0.09729 0.0827,1.138304 q 0.02919,0.462133 0.262686,0.70536 0.238363,0.243228 0.710224,0.243228 h 0.116749 v 0.885348 H 39.12216 q -0.549694,0 -0.904806,-0.204311 -0.350248,-0.209176 -0.578882,-0.666443 -0.403758,0.466996 -1.036149,0.671308 -0.627527,0.199446 -1.746374,0.199446 h -0.81238 q -1.833935,0 -2.7582,-0.496184 -0.9194,-0.496184 -0.9194,-1.717186 0,-0.335654 0.07297,-0.656715 0.07783,-0.32106 0.199447,-0.617798 l 0.754005,0.282144 q -0.07783,0.21404 -0.131343,0.457268 -0.04865,0.243228 -0.04865,0.462132 0.0049,0.569153 0.32106,0.875619 0.316196,0.301603 0.943723,0.413487 0.627527,0.111885 1.566385,0.111885 h 0.81238 q 1.162628,0 1.799884,-0.243228 0.642121,-0.243227 0.642121,-0.885348 0,-0.199446 -0.01459,-0.42808 -0.0097,-0.228634 -0.02919,-0.432945 z m -10.580399,1.989601 h 1.055608 q 0.486455,0 0.656714,-0.282144 0.175124,-0.282144 0.175124,-0.715089 0,-0.316196 -0.05837,-0.676173 -0.05838,-0.359976 -0.126478,-0.724818 l 0.846432,-0.21404 q 0.0827,0.389164 0.131342,0.763735 0.04865,0.37457 0.04865,0.715089 0,0.583746 -0.16053,1.041013 -0.16053,0.457268 -0.525372,0.719954 -0.364841,0.257821 -0.977774,0.257821 h -1.065337 z m 1.756103,1.658812 0.681037,0.676172 -0.681037,0.685902 -0.676173,-0.685902 z m -1.615031,0 0.681037,0.676172 -0.681037,0.685902 -0.676173,-0.685902 z m -0.778328,-7.47195 v 6.693622 h -0.822109 v -6.693622 z m -2.047977,5.866648 q 0,2.840898 -3.118177,3.439237 l -0.287009,-0.773463 q 1.118847,-0.214041 1.78529,-0.715089 0.666444,-0.496184 0.788058,-1.25019 -0.184853,0.05837 -0.428081,0.102156 -0.243227,0.04378 -0.42808,0.04378 -1.775561,0 -1.775561,-1.508011 0,-0.359977 0.10702,-0.719953 0.111885,-0.364842 0.32106,-0.666444 0.21404,-0.306467 0.520507,-0.49132 0.306467,-0.184852 0.695631,-0.184852 0.462132,0 0.802651,0.228633 0.345383,0.228634 0.569152,0.617798 0.22377,0.389164 0.335654,0.875619 0.111885,0.486456 0.111885,1.002098 z m -1.663676,-0.03405 q 0.42808,0 0.851296,-0.126478 -0.04865,-0.817245 -0.301602,-1.25019 -0.252957,-0.437809 -0.715089,-0.437809 -0.321061,0 -0.501049,0.199446 -0.175124,0.199447 -0.248092,0.471862 -0.0681,0.26755 -0.0681,0.486455 0,0.355112 0.243228,0.505913 0.243227,0.150801 0.739412,0.150801 z m -5.602367,3.483018 -0.287009,-0.773463 q 1.186951,-0.257821 1.673406,-0.904807 0.486455,-0.64212 0.486455,-1.522604 0,-0.413487 -0.09243,-0.86589 -0.08756,-0.457268 -0.248092,-0.929129 l 0.807516,-0.272415 q 0.350247,0.997233 0.350247,1.921497 0,0.81238 -0.287008,1.503147 -0.282144,0.69563 -0.880484,1.177221 -0.593475,0.486455 -1.522604,0.666443 z m -0.671972,-0.111884 q -1.050743,0 -1.683134,-0.3843 -0.627528,-0.384299 -0.909671,-1.02642 -0.27728,-0.637256 -0.27728,-1.400991 0,-0.330789 0.04865,-0.763734 0.05351,-0.432945 0.238363,-0.987504 l 0.773463,0.287009 q -0.141072,0.486455 -0.184853,0.861025 -0.03892,0.374571 -0.03892,0.632392 0,0.525371 0.184853,0.958316 0.184853,0.432945 0.627527,0.690766 0.447538,0.257822 1.221002,0.257822 0.729683,0 1.25019,-0.179989 0.525371,-0.179988 0.80265,-0.42808 0.282144,-0.248092 0.282144,-0.452403 0,-0.233499 -0.204311,-0.398894 -0.199446,-0.165394 -0.65185,-0.165394 h -0.719953 q -0.09729,0 -0.141072,-0.0827 -0.04378,-0.08756 -0.0827,-0.223769 l -0.131343,-0.466997 q -0.0049,-0.03892 0.01946,-0.07297 0.02432,-0.03892 0.08756,-0.03892 h 2.699825 v 0.885349 h -0.199446 q 0.07297,0.145936 0.09243,0.277279 0.02432,0.131343 0.02432,0.272415 0,0.32106 -0.189717,0.661579 -0.184853,0.345383 -0.574017,0.637256 -0.3843,0.291873 -0.97291,0.471861 -0.588611,0.179989 -1.391262,0.179989 z M 8.7877539,27.98203 v -0.5351 l 3.6970581,-1.498282 v 0.535101 z m 0.6713079,1.172357 q 0.423216,0.296738 0.8804842,0.627527 0.457267,0.325925 0.851296,0.700495 0.398893,0.369706 0.642121,0.792922 0.248092,0.418351 0.248092,0.895077 -0.0049,0.904807 -0.627527,1.3037 -0.617798,0.398893 -1.9750079,0.398893 H 8.2915697 v -0.885348 h 1.1820858 q 0.9437225,0 1.3523455,-0.165395 0.408622,-0.170259 0.408622,-0.671308 0,-0.32106 -0.228634,-0.627527 -0.223769,-0.306467 -0.583746,-0.603204 -0.355112,-0.301602 -0.7637346,-0.588611 -0.4086222,-0.291873 -0.768599,-0.574017 -0.1556656,-0.126478 -0.238363,-0.296737 -0.082697,-0.17026 -0.082697,-0.340519 0,-0.199446 0.1070201,-0.37457 0.1118847,-0.179989 0.3453831,-0.272415 l 3.4976117,-1.420449 v 0.861026 z M 5.097856,32.997382 q 1.8679875,0 1.8679875,-0.968046 0,-0.457267 -0.4669969,-0.968045 Q 6.0318497,30.550513 4.9519195,29.961902 L 5.336219,29.193303 q 1.2501895,0.637256 1.8533938,1.347481 0.6080688,0.70536 0.6080688,1.473959 0,0.914535 -0.6323916,1.381532 -0.627527,0.466997 -1.9944657,0.466997 -0.6518498,0 -1.1772213,-0.116749 v -0.880484 q 0.6372561,0.131343 1.104253,0.131343 z M 1.6488897,27.174515 h 0.8221091 v 4.65051 q 0,0.685902 0.2529566,0.924265 0.2529567,0.238363 0.7637345,0.238363 h 0.1216138 v 0.885348 H 3.4876899 q -0.9291292,0 -1.3863969,-0.49132 -0.4524033,-0.496184 -0.4524033,-1.56152 z m -2.7581998,6.810371 q -0.4864551,0 -0.8999419,-0.209176 -0.4086223,-0.21404 -0.8512964,-0.642121 -0.3161958,0.355113 -0.6080688,0.549695 -0.291873,0.189717 -0.8221091,0.189717 h -0.2140402 v -0.885348 h 0.1897175 q 0.3259249,0 0.5496942,-0.184853 0.2237693,-0.189718 0.3988932,-0.486455 0.1751238,-0.296738 0.3453831,-0.627527 0.1751238,-0.335654 0.389164,-0.632392 0.2140402,-0.296737 0.5156424,-0.48159 0.3064667,-0.189718 0.7540053,-0.189718 0.53996517,0 0.93885832,0.262686 0.4037577,0.257821 0.62266248,0.695631 0.22376934,0.437809 0.22376934,0.977774 0,0.792922 -0.40375771,1.230732 -0.39889315,0.432945 -1.12857573,0.432945 z m -0.2334985,-2.738742 q -0.2432275,0 -0.4426741,0.165394 -0.1994465,0.160531 -0.3599767,0.418352 -0.1605302,0.257821 -0.2870085,0.5351 0.291873,0.306467 0.6032043,0.501049 0.3988931,0.257821 0.7102244,0.257821 0.71995347,0 0.71995347,-0.724818 0,-0.505913 -0.25295663,-0.826973 -0.24809208,-0.325925 -0.69076624,-0.325925 z m -3.7359746,-4.679698 q 0.068104,0.03405 0.141072,0.03405 0.1362074,0 0.486455,-0.316196 l 0.2480921,-0.223769 0.4426741,0.398893 -0.2724148,0.257821 q -0.2578212,0.243228 -0.4524032,0.359977 -0.1897175,0.111884 -0.3842995,0.111884 -0.184853,0 -0.4378096,-0.111884 l -0.627527,-0.287009 q -0.068104,-0.02919 -0.1264783,-0.04865 -0.058375,-0.01946 -0.1118847,-0.01946 -0.1070201,0 -0.2432275,0.08756 -0.1362075,0.08756 -0.3648413,0.316195 l -0.2772794,0.27728 -0.4426741,-0.398893 0.2821439,-0.291873 q 0.3161958,-0.325925 0.5351006,-0.457268 0.2237693,-0.136208 0.4232159,-0.136208 0.1313428,0 0.2626857,0.04378 0.1362074,0.04378 0.2918731,0.11675 z m -0.072968,1.24046 v 6.061231 h -0.822109 v -6.061231 z"
         id="path11" />
    </g>
    <path
       id="path3"
       d="M 325.21759,42.52022 H 185.02498 c -8.25354,0 -14.94415,-6.69063 -14.94415,-14.94415 v -55.15214 c 0,-8.25352 6.69061,-14.94415 14.94415,-14.94415 h 140.19261 c 8.25353,0 14.94415,6.69063 14.94415,14.94415 v 55.15214 c 0,8.25352 -6.69062,14.94415 -14.94415,14.94415 z"
       style="fill:#f5dddf;fill-opacity:1;fill-rule:nonzero;stroke:#be1e2d;stroke-width:2.98883;stroke-linecap:butt;stroke-linejoin:miter;stroke-miterlimit:10;stroke-dasharray:none;stroke-opacity:1"
       transform="matrix(1.3333333,0,0,-1.3333333,135.304,78.616)" />
    <g
       id="text3"
       transform="matrix(1.3333333,0,0,1.3333333,410.192,60.962667)"
       aria-label="ﺖﻣﻮﮑﺣﺮﺗ ﻒﯿﻌﺿ،فﺎﮑﺷ،ﺶﯾﺎﺳﺮﻓاوﺰﻧا،ﯽﻧﺎﻣﺮﻓﺎﻧ،بﺎﺼﺘﻋارﺎﺸﻓ">
      <path
         style="font-weight:800;font-size:14.3462px;font-family:Vazirmatn"
         d="m 88.851177,-7.6774586 1.190847,1.1768367 1.176837,-1.1768367 1.197851,1.1908467 -1.197851,1.2048566 -1.176837,-1.1908466 -1.190847,1.1908466 -1.190846,-1.2048566 z m 5.057596,2.865037 1.751245,-0.2171544 0.1401,2.0034244 q 0.03503,0.5323786 0.280199,0.7705479 0.252179,0.2311643 0.826588,0.2311643 h 0.161114 V 0 H 96.906905 Q 96.101332,0 95.568954,-0.29420918 95.036575,-0.59542334 94.686326,-1.1067869 94.048873,-0.51836855 93.13122,-0.25918428 92.220573,0 90.756532,0 H 89.5867 Q 88.374839,0 87.352112,-0.14710459 86.336389,-0.30121416 85.579851,-0.6794831 84.830319,-1.057752 84.41002,-1.7372352 q -0.413294,-0.686488 -0.413294,-1.7512451 0,-0.6304482 0.1401,-1.2258716 0.140099,-0.6024283 0.350249,-1.1137918 l 1.6882,0.6374532 q -0.119085,0.3292341 -0.245174,0.7635428 -0.119085,0.4343088 -0.119085,0.8265877 0,0.7004981 0.518368,1.0367372 0.518369,0.336239 1.372977,0.4413137 0.861612,0.09807 1.884339,0.09807 h 1.169832 q 1.015722,0 1.737235,-0.077055 0.721513,-0.08406 1.099782,-0.3432441 0.385274,-0.2661892 0.385274,-0.8195827 0,-0.357254 -0.02102,-0.7845578 -0.02102,-0.4273038 -0.04904,-0.7635429 z M 80.382149,0.16111455 q -0.728518,0 -1.365971,-0.30821914 Q 78.38573,-0.46232871 77.783302,-0.92465742 77.398028,-0.5393835 76.977729,-0.26618926 76.564435,0 75.765867,0 h -0.308219 v -2.0244394 h 0.273194 q 0.343244,0 0.616439,-0.2661892 0.280199,-0.2661893 0.532378,-0.6864881 0.259185,-0.4273038 0.539384,-0.8966375 0.287204,-0.4763387 0.637453,-0.8966375 0.357254,-0.4273038 0.826588,-0.6934931 0.469333,-0.2661892 1.099782,-0.2661892 0.882627,0 1.527085,0.4202988 0.644459,0.4132939 0.994708,1.0997819 0.350249,0.6794831 0.350249,1.4850559 0,0.8265877 -0.273195,1.4780509 -0.273194,0.65146316 -0.826587,1.02973211 -0.546389,0.37826894 -1.372977,0.37826894 z M 80.04591,-3.8037044 q -0.287204,0 -0.518368,0.1961395 -0.231165,0.1891344 -0.406289,0.4623287 -0.175125,0.2731942 -0.294209,0.5183685 0.203144,0.1821295 0.385274,0.3152241 0.182129,0.1330947 0.350249,0.2311644 0.252179,0.1400996 0.462328,0.1961395 0.21015,0.05604 0.364259,0.05604 0.371264,0 0.532379,-0.2661893 0.161115,-0.2731942 0.161115,-0.6164382 0,-0.4413138 -0.273195,-0.7635429 -0.273194,-0.3292341 -0.763543,-0.3292341 z m -7.719491,-1.9894144 q 0.882628,0 1.499066,0.5253735 0.616438,0.5253735 0.966688,1.3869861 0.350249,0.8546076 0.420298,1.8563198 h 0.525374 V 0 H 75.072372 Q 74.673088,1.5971355 73.503256,2.507783 72.333424,3.4254354 70.308985,3.8177144 L 69.615492,1.9473846 Q 70.498119,1.779265 71.247652,1.4990658 72.00419,1.2188666 72.522559,0.84059766 73.047932,0.46232871 73.223057,0 H 72.564589 Q 71.149583,0 70.407055,-0.58841836 69.664527,-1.1838417 69.664527,-2.507783 q 0,-0.5183686 0.161114,-1.085772 0.161115,-0.5744084 0.490349,-1.071762 0.329234,-0.5043586 0.826588,-0.8125777 0.504358,-0.3152241 1.183841,-0.3152241 z m 0.231165,3.7686794 h 0.896637 q -0.04203,-0.3922789 -0.168119,-0.8055727 -0.119085,-0.4132939 -0.357254,-0.6934931 -0.231165,-0.2801992 -0.616439,-0.2801992 -0.329234,0 -0.525373,0.2101494 -0.189135,0.2031445 -0.273194,0.4903487 -0.07706,0.2801992 -0.07706,0.5183685 0,0.371264 0.308219,0.4693337 0.315224,0.091065 0.812578,0.091065 z M 64.15862,-6.4726019 q 0.938667,0.5533934 1.541096,0.9947072 0.602428,0.4413137 0.980697,0.9176524 0.385274,0.4763387 0.658468,1.1418118 0.210149,0.5043586 0.399284,0.8125778 0.196139,0.3082191 0.490349,0.4483187 0.294209,0.1330946 0.805572,0.1330946 h 0.19614 V 0 h -0.19614 Q 68.186484,0 67.612075,-0.24517432 67.044672,-0.49735361 66.645388,-1.078767 66.281129,-0.67247812 65.84682,-0.43430879 65.419516,-0.20314443 64.817088,-0.09806973 64.221665,0 63.332032,0 h -1.709215 v -2.0244394 h 1.70221 q 1.120797,0 1.681196,-0.1541095 0.560398,-0.1611146 0.560398,-0.6514632 0,-0.2311644 -0.343244,-0.5323785 -0.343244,-0.3082192 -0.861613,-0.6444582 -0.511363,-0.3432441 -1.050747,-0.6724781 -0.532378,-0.3362391 -0.924657,-0.6164383 -0.294209,-0.2171544 -0.448319,-0.5674034 -0.154109,-0.3572541 -0.154109,-0.735523 0,-0.3992839 0.182129,-0.721513 0.189134,-0.3292341 0.574408,-0.4833436 l 5.407845,-2.2065688 v 2.0034243 z m -12.321764,4.4481625 h 1.190846 q 0.903643,0 1.681196,-0.1681195 0.777553,-0.1751245 1.597135,-0.5183685 0.826588,-0.3432441 1.877335,-0.8546077 -1.078767,-0.3922789 -1.74424,-0.6584681 -0.665473,-0.2731943 -0.910647,-0.2731943 -0.378269,0 -0.686489,0.2381694 -0.301214,0.2311643 -0.497353,0.4903486 l -0.371264,0.4693337 -1.569116,-0.7705478 0.315224,-0.5043586 q 0.497354,-0.8125778 1.190847,-1.3449563 0.693493,-0.5393835 1.625155,-0.5393835 0.392279,0 0.910648,0.1821295 0.525373,0.1821295 1.120797,0.4553237 0.602428,0.2661893 1.239881,0.5393835 0.644459,0.2661893 1.267902,0.4553238 0.630448,0.1891344 1.204856,0.1961394 v 1.8563198 q -0.532378,0.07005 -0.987702,0.2381694 -0.455324,0.1611145 -0.945672,0.4132938 -0.490349,0.2521793 -1.141812,0.6024283 -0.896637,0.4763387 -1.695205,0.81958275 Q 55.717615,-0.357254 54.877017,-0.17512451 54.043425,0 53.006688,0 H 51.836856 Z M 55.478774,0 Q 54.841321,0 54.428027,-0.24517432 54.147828,1.3659712 53.048046,2.4167183 51.955269,3.4674653 50.126969,3.8177144 L 49.433476,1.9473846 q 1.015722,-0.2171544 1.74424,-0.5814134 0.735523,-0.357254 1.134807,-0.95968233 0.399284,-0.60242832 0.399284,-1.55510567 0,-0.6374532 -0.203145,-1.429016 -0.203144,-0.7985678 -0.434309,-1.4850559 l 1.88434,-0.6094333 0.406289,1.5831256 q 0.119085,0.4483188 0.350249,0.7565379 0.231164,0.3082191 0.686488,0.3082191 h 0.273194 V 0 Z m -8.665161,-9.0644447 1.190846,1.1768367 1.176837,-1.1768367 1.197852,1.1908467 -1.197852,1.2048566 -1.176837,-1.1908467 -1.190846,1.1908467 -1.190847,-1.2048566 z M 47.500101,0 H 46.07809 v -2.0244394 h 1.429016 q 0.532378,0 0.728518,-0.329234 0.203144,-0.3362391 0.203144,-0.8476027 0,-0.4763386 -0.119085,-1.0367371 -0.112079,-0.5674034 -0.231164,-1.1067869 l 1.835305,-0.4763387 q 0.133095,0.6584682 0.210149,1.3099314 0.08406,0.6444582 0.08406,1.2328765 0,0.9316624 -0.252179,1.6741904 -0.25218,0.7425279 -0.847603,1.17683669 Q 48.529833,0 47.500101,0 Z m -11.781703,-9.8630125 1.260896,1.2608965 -1.260896,1.2538915 -1.253892,-1.2538915 z m -3.957814,7.8385731 h 0.560398 q 0.259184,0 0.574409,0 0.315224,-0.007 0.602428,-0.01401 -0.259184,-0.3922789 -0.378269,-0.7845578 -0.11208,-0.3992839 -0.11208,-0.8476027 0,-0.5533934 0.22416,-1.064757 0.231164,-0.5183685 0.616438,-0.9246574 0.392279,-0.4132939 0.882627,-0.6514632 0.490349,-0.2381693 1.008718,-0.2381693 0.714508,0 1.351961,0.4132938 0.644458,0.4062889 1.043742,1.071762 0.399284,0.6584682 0.399284,1.4080011 0,0.4553237 -0.119085,0.8476026 -0.112079,0.3922789 -0.385274,0.7775529 0.161115,0.007 0.294209,0.007 0.133095,0 0.245175,0 h 0.672478 V 0 h -0.952677 q -0.581414,0 -1.260897,-0.16811953 -0.679483,-0.17512451 -1.288916,-0.37826895 -0.420299,0.14710459 -1.015723,0.27319424 -0.588418,0.11908467 -1.183841,0.19613945 Q 32.95143,0 32.538137,0 h -0.777553 q -1.211862,0 -2.234589,-0.14710459 -1.015722,-0.15410957 -1.77226,-0.53237851 -0.749533,-0.3782689 -1.169832,-1.0577521 -0.413294,-0.686488 -0.413294,-1.7512451 0,-0.6304482 0.1401,-1.2258716 0.1401,-0.6024283 0.350249,-1.1137918 l 1.6882,0.6374532 q -0.119084,0.3292341 -0.245174,0.7635428 -0.119085,0.4343088 -0.119085,0.8265877 0,0.7004981 0.518369,1.0367372 0.518368,0.336239 1.372976,0.4413137 0.861613,0.09807 1.88434,0.09807 z m 3.992839,-2.5778328 q -0.203145,0 -0.427304,0.1541096 -0.217155,0.1541096 -0.371264,0.378269 -0.15411,0.2171543 -0.15411,0.4273038 0,0.2591842 0.15411,0.5183685 0.161114,0.2521793 0.385274,0.4553237 0.231164,0.1961395 0.427304,0.3082192 0.329234,-0.1751245 0.651463,-0.5323785 0.322229,-0.357254 0.322229,-0.7635429 0,-0.2101494 -0.16812,-0.4273038 -0.161114,-0.2241594 -0.392279,-0.371264 -0.224159,-0.1471046 -0.427303,-0.1471046 z m -15.516034,2.5778328 h 1.057752 q 0.770548,0 1.057752,-0.2591842 0.294209,-0.2661893 0.294209,-0.9666873 0,-0.4132939 -0.02102,-0.7985678 -0.02101,-0.3922789 -0.04903,-0.7635429 l 1.751246,-0.2171544 0.140099,2.0034244 q 0.03503,0.5323786 0.294209,0.7705479 0.259185,0.2311643 0.826588,0.2311643 h 0.147105 V 0 H 25.575184 Q 24.874686,0 24.370327,-0.2521793 23.872974,-0.50435859 23.550745,-0.91064746 23.123441,-0.48334365 22.535023,-0.23816934 21.953609,0 21.295141,0 h -1.057752 z m 0.182129,2.9210769 1.190847,1.1768367 1.176837,-1.1768367 1.197852,1.1908467 -1.197852,1.2048566 -1.176837,-1.1908467 -1.190847,1.1908467 -1.190846,-1.2048566 z m -3.880759,-7.0680253 q 0.553394,0 1.176837,0.08406 0.623443,0.077055 1.169832,0.2591843 0.546388,0.1751245 0.889632,0.4623287 0.350249,0.2801992 0.350249,0.6794831 0,0.2311643 -0.182129,0.5674034 -0.175125,0.336239 -0.455324,0.707503 -0.273194,0.364259 -0.574408,0.7004981 -0.294209,0.329234 -0.525374,0.5603984 0.287204,0.08406 0.553394,0.1050747 0.266189,0.021015 0.497353,0.021015 h 1.092777 V 0 h -1.085772 q -0.819582,0 -1.5481,-0.18913447 -0.721513,-0.19613946 -1.358967,-0.51836856 -0.672478,0.33623907 -1.61815,0.52537354 Q 13.981942,0 13.148349,0 h -1.106787 v -2.0244394 h 1.113792 q 0.161114,0 0.434309,-0.007 0.280199,-0.007 0.581413,-0.035025 0.301214,-0.02802 0.518369,-0.091065 -0.231165,-0.2311643 -0.525374,-0.5603984 -0.294209,-0.3362391 -0.567403,-0.7004981 -0.273195,-0.3712639 -0.455324,-0.700498 -0.18213,-0.3362391 -0.18213,-0.5674034 0,-0.3992839 0.343244,-0.6794831 0.343245,-0.2872042 0.889633,-0.4623287 0.546388,-0.1821295 1.169832,-0.2591843 0.623443,-0.08406 1.176836,-0.08406 z m 0.007,1.8353049 q -0.343244,0 -0.728518,0.035025 -0.378268,0.035025 -0.791562,0.1190847 0.294209,0.3152241 0.644458,0.6584681 0.357254,0.3362391 0.609433,0.5744084 0.259184,0.2381694 0.259184,0.2381694 0,0 0.259185,-0.2381694 0.259184,-0.2381693 0.616438,-0.5744084 0.364259,-0.343244 0.651463,-0.6584681 -0.406289,-0.08406 -0.791563,-0.1190847 -0.378269,-0.035025 -0.728518,-0.035025 z M 8.2868934,-9.8419976 9.5477899,-8.5811011 8.2868934,-7.3272096 7.0330019,-8.5811011 Z m -4.5882622,7.544364 q 0.4763387,-0.7845578 1.0087172,-1.5130758 0.5323785,-0.7285179 1.1348068,-1.3029263 0.6024284,-0.5744084 1.2819115,-0.9036425 0.6794831,-0.3362391 1.4500309,-0.3362391 0.8896325,0 1.5691154,0.378269 0.686488,0.3782689 1.071762,1.0367371 0.392279,0.6584681 0.392279,1.5060708 0,0.9877022 -0.420299,1.6531754 -0.420298,0.6584681 -1.169831,1.05074703 Q 9.2675907,-0.33623906 8.2728835,-0.16811953 7.2851812,0 6.1433694,0 H 5.7721054 Q 4.6092787,0 3.768681,-0.20314443 2.9280834,-0.41329385 2.4097148,-0.91064746 2.0174359,-0.48334365 1.4780524,-0.23816934 0.93866892,0 0.14710612,0 h -0.2872042 l 0.007005,-2.0244394 h 0.28019922 q 0.83359268,0 1.10678688,-0.2591842 0.2801993,-0.2661893 0.2801993,-0.9736923 0,-0.3992839 -0.02802,-0.7845578 -0.021015,-0.3922789 -0.049035,-0.7635429 l 1.7512451,-0.2171544 0.1330946,1.9964194 q 0.02802,0.2801993 0.1120797,0.4903487 0.091065,0.2031444 0.2451743,0.2381693 z m 4.9245013,-2.0664692 q -0.5393835,0 -1.085772,0.343244 -0.5463885,0.3362391 -1.0437421,0.8756226 -0.4973536,0.5323785 -0.9036425,1.1207968 h 0.6374533 q 0.9456723,0 1.7512451,-0.091065 0.8125777,-0.09807 1.3029263,-0.371264 0.4903487,-0.2731942 0.4903487,-0.8125777 0,-0.4833437 -0.3292341,-0.7705478 -0.3222291,-0.2942092 -0.8195827,-0.2942092 z"
         id="path12" />
      <path
         style="font-size:9.9626px;font-family:Vazirmatn"
         d="m 89.02977,19.305736 q -0.340518,0.311331 -0.539965,0.617797 -0.194582,0.306467 -0.194582,0.749141 0.345383,0 0.476726,0.150801 0.136207,0.150801 0.136207,0.452404 0,0.296737 -0.150801,0.471861 -0.150801,0.170259 -0.452403,0.170259 -0.384299,0 -0.554559,-0.21404 -0.165394,-0.21404 -0.165394,-0.574017 0,-0.661579 0.311331,-1.172357 0.311331,-0.515642 0.81238,-0.904806 z m -4.519165,-4.747802 0.70536,0.70536 -0.70536,0.70536 -0.70536,-0.70536 z m 1.148034,5.462891 q -0.238363,0.07297 -0.486455,0.111884 -0.243227,0.03892 -0.525371,0.03892 -1.653948,0 -1.653948,-1.362075 0,-0.345383 0.107021,-0.700495 0.10702,-0.359977 0.311331,-0.656714 0.209175,-0.301602 0.510778,-0.481591 0.301602,-0.184853 0.69563,-0.184853 0.476726,0 0.817245,0.243228 0.345383,0.243227 0.564288,0.656714 0.223769,0.408622 0.330789,0.929129 0.10702,0.515643 0.10702,1.065337 0,0.724818 -0.126478,1.172357 -0.121614,0.442674 -0.398893,0.676172 -0.27728,0.228634 -0.734547,0.311331 -0.457268,0.07783 -1.123712,0.07783 h -1.610166 q -1.863123,0 -2.772794,-0.496184 -0.904806,-0.496184 -0.904806,-1.717186 0,-0.335654 0.07297,-0.656715 0.07783,-0.32106 0.199447,-0.617798 l 0.754005,0.282144 q -0.07783,0.214041 -0.131343,0.457268 -0.04864,0.243228 -0.04864,0.462132 0,0.569153 0.325925,0.87562 0.325924,0.301602 0.958316,0.413486 0.632392,0.111885 1.546927,0.111885 h 1.668541 q 0.574017,0 0.909671,-0.06324 0.340519,-0.06324 0.486455,-0.277279 0.150801,-0.218905 0.150801,-0.671308 z m -0.948587,-0.685902 q 0.228634,0 0.447538,-0.03892 0.218905,-0.04378 0.447539,-0.10702 -0.03892,-0.345383 -0.145936,-0.700495 -0.102156,-0.355112 -0.306467,-0.593475 -0.204311,-0.243228 -0.54483,-0.243228 -0.301602,0 -0.486455,0.189718 -0.179988,0.189717 -0.262686,0.452403 -0.07783,0.262686 -0.07783,0.486455 0,0.33079 0.238363,0.442674 0.243227,0.111885 0.690766,0.111885 z m -8.289194,-4.11541 h 0.822109 v 4.65051 q 0,0.685902 0.252956,0.924265 0.252957,0.238363 0.763735,0.238363 h 0.121614 v 0.885348 h -0.121614 q -0.929129,0 -1.386397,-0.491319 -0.452403,-0.496185 -0.452403,-1.561521 z m -4.762397,1.979872 q 0.554559,0.389164 1.060472,0.773464 0.510778,0.379435 0.9194,0.826973 0.408622,0.442674 0.646985,1.031285 0.257821,0.627527 0.54483,0.914536 0.287008,0.287008 0.807515,0.287008 h 0.136208 v 0.885348 h -0.136208 q -0.539965,0 -0.9194,-0.209175 -0.37457,-0.209176 -0.671308,-0.666444 -0.194582,0.287009 -0.476726,0.481591 -0.277279,0.194582 -0.729682,0.296737 -0.447539,0.09729 -1.162628,0.09729 h -1.18695 v -0.885348 h 1.182085 q 0.943723,0 1.352346,-0.165395 0.408622,-0.170259 0.408622,-0.671308 0,-0.32106 -0.228634,-0.627527 -0.223769,-0.306466 -0.583746,-0.603204 -0.355112,-0.301602 -0.763735,-0.588611 -0.408622,-0.291873 -0.768599,-0.574017 -0.155665,-0.126478 -0.238363,-0.296737 -0.0827,-0.170259 -0.0827,-0.345383 0,-0.199447 0.10702,-0.374571 0.111885,-0.175124 0.345383,-0.26755 l 3.497612,-1.420449 v 0.861026 z m -4.592137,-1.67827 0.656714,0.656714 -0.656714,0.656715 -0.656715,-0.656715 z m 0.831838,1.230731 0.656714,0.656715 -0.656714,0.656714 -0.656715,-0.656714 z m -1.663677,0 0.656715,0.656715 -0.656715,0.656714 -0.656714,-0.656714 z m -0.209175,5.166153 q -0.559424,0 -0.86589,-0.189717 -0.301602,-0.194582 -0.481591,-0.554559 -0.228634,0.359977 -0.583746,0.554559 -0.355112,0.189717 -1.011826,0.189717 h -0.447539 v -0.885348 h 0.457268 q 0.622662,0 0.909671,-0.228634 0.287008,-0.233498 0.287008,-0.846432 0,-0.126478 -0.01459,-0.296737 -0.0097,-0.175124 -0.03405,-0.486455 l 0.81238,-0.102156 0.07783,1.016691 q 0.02919,0.408622 0.248092,0.676173 0.22377,0.26755 0.656715,0.26755 0.515642,0 0.700495,-0.277279 0.184853,-0.27728 0.184853,-0.797787 0,-0.126478 -0.01459,-0.301602 -0.0097,-0.175124 -0.03405,-0.48159 l 0.81238,-0.102156 0.07783,1.016691 q 0.02432,0.394029 0.209176,0.671308 0.184853,0.272415 0.59834,0.272415 0.403757,0 0.554559,-0.301602 0.150801,-0.301602 0.150801,-0.70536 0,-0.364841 -0.07297,-0.734547 -0.0681,-0.369706 -0.121613,-0.59834 l 0.831838,-0.223769 q 0.08756,0.325925 0.141072,0.695631 0.05351,0.364841 0.05351,0.729682 0,0.525372 -0.145937,0.987504 -0.145936,0.462132 -0.48159,0.749141 -0.33079,0.282144 -0.904807,0.287008 -0.466997,0 -0.754005,-0.194582 -0.287009,-0.194582 -0.466997,-0.549694 -0.272415,0.394029 -0.608069,0.569152 -0.330789,0.175124 -0.719953,0.175124 z m -1.216796,-2.612263 q -0.340519,0.311331 -0.539965,0.617797 -0.194582,0.306467 -0.194582,0.749141 0.345383,0 0.476726,0.150801 0.136207,0.150801 0.136207,0.452404 0,0.296737 -0.150801,0.471861 -0.150801,0.170259 -0.452403,0.170259 -0.3843,0 -0.554559,-0.21404 -0.165395,-0.21404 -0.165395,-0.574017 0,-0.661579 0.311332,-1.172357 0.311331,-0.515642 0.81238,-0.904806 z m -6.182844,-3.784621 0.656714,0.656714 -0.656714,0.656715 -0.656714,-0.656715 z m 0.831838,1.230731 0.656714,0.656715 -0.656714,0.656714 -0.656714,-0.656714 z m -1.663676,0 0.656714,0.656715 -0.656714,0.656714 -0.656715,-0.656714 z m -4.066765,6.795778 q 0.81238,0 1.255054,-0.267551 0.447539,-0.262685 0.622663,-0.69563 0.179988,-0.428081 0.179988,-0.9194 0,-0.578882 -0.155665,-1.14317 -0.155666,-0.564288 -0.291873,-0.924264 l 0.831838,-0.335654 0.291873,0.9194 q 0.136207,0.423216 0.408622,0.637256 0.272415,0.21404 0.719954,0.21404 0.515642,0 0.700495,-0.277279 0.184853,-0.27728 0.184853,-0.797787 0,-0.126478 -0.01459,-0.301602 -0.0097,-0.175124 -0.03405,-0.48159 l 0.81238,-0.102156 0.07783,1.016691 q 0.02432,0.394029 0.209176,0.671308 0.184853,0.272415 0.598339,0.272415 0.719954,0 0.719954,-1.075066 0,-0.175123 -0.01459,-0.364841 -0.0097,-0.189717 -0.03405,-0.501049 l 0.81238,-0.09729 0.07783,1.094524 q 0.05838,0.943723 0.963181,0.943723 h 0.145937 v 0.885348 h -0.136208 q -0.510777,0 -0.851296,-0.184853 -0.340519,-0.189717 -0.466997,-0.564288 -0.204311,0.359977 -0.471861,0.554559 -0.262686,0.194582 -0.739412,0.194582 -0.466997,0 -0.754005,-0.194582 -0.287009,-0.194582 -0.466997,-0.549694 -0.272415,0.394029 -0.608069,0.569152 -0.330789,0.175124 -0.719954,0.175124 -0.32106,0 -0.554558,-0.07783 -0.233499,-0.0827 -0.389164,-0.199446 -0.0049,0.81238 -0.311332,1.439907 -0.306466,0.632391 -0.948587,0.987504 -0.637256,0.355112 -1.649083,0.355112 -1.050743,0 -1.683134,-0.3843 -0.627527,-0.384299 -0.909671,-1.02642 -0.27728,-0.637256 -0.27728,-1.40099 0,-0.515643 0.107021,-1.055608 0.10702,-0.54483 0.291873,-1.060472 l 0.773463,0.311331 q -0.141072,0.447539 -0.238363,0.9194 -0.09729,0.471862 -0.09729,0.914536 0,0.525371 0.184853,0.958316 0.189718,0.432945 0.632392,0.690767 0.442674,0.257821 1.216137,0.257821 z m -6.562279,-2.514973 h 1.055607 q 0.486455,0 0.656714,-0.282144 0.175124,-0.282144 0.175124,-0.715089 0,-0.316196 -0.05837,-0.676172 -0.05837,-0.359977 -0.126479,-0.724818 l 0.846432,-0.214041 q 0.0827,0.389164 0.131343,0.763735 0.04865,0.37457 0.04865,0.715089 0,0.583746 -0.16053,1.041014 -0.16053,0.457267 -0.525371,0.719953 -0.364841,0.257821 -0.977775,0.257821 h -1.065336 z m 1.756102,1.658812 0.681037,0.676172 -0.681037,0.685902 -0.676172,-0.685902 z m -1.61503,0 0.681037,0.676172 -0.681037,0.685902 -0.676173,-0.685902 z m -1.897175,-7.47195 h 0.822109 v 4.65051 q 0,0.685902 0.252957,0.924265 0.252956,0.238363 0.763734,0.238363 h 0.121614 v 0.885348 h -0.121614 q -0.929129,0 -1.386397,-0.491319 -0.452403,-0.496185 -0.452403,-1.561521 z m -5.307224,6.698486 q -0.559424,0 -0.86589,-0.189717 -0.301603,-0.194582 -0.481591,-0.554559 -0.228634,0.359977 -0.583746,0.554559 -0.355112,0.189717 -1.011827,0.189717 h -0.447538 v -0.885348 h 0.457268 q 0.622662,0 0.909671,-0.228634 0.287008,-0.233498 0.287008,-0.846432 0,-0.126478 -0.01459,-0.296737 -0.0097,-0.175124 -0.03405,-0.486455 l 0.812379,-0.102156 0.07783,1.016691 q 0.02919,0.408622 0.248092,0.676173 0.22377,0.26755 0.656715,0.26755 0.515642,0 0.700495,-0.277279 0.184853,-0.27728 0.184853,-0.797787 0,-0.126478 -0.01459,-0.301602 -0.0097,-0.175124 -0.03405,-0.48159 l 0.81238,-0.102156 0.07783,1.016691 q 0.02432,0.394029 0.209176,0.671308 0.184853,0.272415 0.59834,0.272415 0.403757,0 0.554558,-0.301602 0.150801,-0.301602 0.150801,-0.70536 0,-0.364841 -0.07297,-0.734547 -0.0681,-0.369706 -0.121614,-0.59834 l 0.831839,-0.223769 q 0.08756,0.325925 0.141072,0.695631 0.05351,0.364841 0.05351,0.729682 0,0.525372 -0.145937,0.987504 -0.145936,0.462132 -0.48159,0.749141 -0.33079,0.282144 -0.904807,0.287008 -0.466997,0 -0.754005,-0.194582 -0.287009,-0.194582 -0.466997,-0.549694 -0.272415,0.394029 -0.608069,0.569152 -0.330789,0.175124 -0.719953,0.175124 z m -4.094474,0 q -0.335654,0 -0.564288,-0.08756 -0.223769,-0.09243 -0.350248,-0.194582 -0.07297,0.637256 -0.355112,1.230732 -0.277279,0.598339 -0.836703,1.041013 -0.559423,0.442675 -1.478823,0.622663 l -0.287008,-0.768599 q 1.18695,-0.257821 1.673405,-0.904806 0.486455,-0.642121 0.486455,-1.522605 0,-0.413487 -0.09243,-0.86589 -0.08756,-0.457268 -0.248093,-0.929129 l 0.807516,-0.272415 0.262686,1.016691 q 0.10702,0.408623 0.340518,0.578882 0.233499,0.170259 0.588611,0.170259 h 0.184853 v 0.885348 z m -5.565047,-7.311419 0.70536,0.705359 -0.70536,0.70536 -0.705359,-0.70536 z m -0.369705,6.426071 q 0.549694,0 0.885348,-0.06324 0.340518,-0.06324 0.496184,-0.277279 0.16053,-0.218905 0.16053,-0.676173 -0.238363,0.07297 -0.486455,0.111885 -0.243228,0.03892 -0.525371,0.03892 -1.653948,0 -1.653948,-1.35721 0,-0.466996 0.184853,-0.933993 0.189718,-0.466997 0.554559,-0.778328 0.364841,-0.316196 0.885348,-0.316196 0.476726,0 0.817245,0.243227 0.345383,0.243228 0.564288,0.656715 0.223769,0.408622 0.330789,0.929129 0.10702,0.515642 0.10702,1.065336 0,0.724818 -0.131343,1.172357 -0.126478,0.442674 -0.408622,0.676173 -0.282144,0.228634 -0.734547,0.311331 -0.452403,0.0827 -1.104253,0.0827 h -1.790155 v -0.885348 z m 0.598339,-1.702593 q 0.22377,0 0.442674,-0.03892 0.22377,-0.04378 0.447539,-0.10702 -0.03892,-0.345383 -0.145936,-0.700495 -0.102156,-0.355113 -0.306467,-0.593476 -0.204311,-0.243227 -0.54483,-0.243227 -0.301602,0 -0.486455,0.189717 -0.179988,0.189718 -0.262686,0.452403 -0.07783,0.262686 -0.07783,0.486456 0,0.335654 0.238363,0.447538 0.243227,0.10702 0.69563,0.10702 z m -0.433839,-4.110545 v 6.693622 h -0.822109 v -6.693622 z m -2.047975,5.866648 q 0,2.840898 -3.118177,3.439237 l -0.287008,-0.773463 q 1.118846,-0.21404 1.78529,-0.715089 0.666443,-0.496184 0.788057,-1.25019 -0.184853,0.05837 -0.428081,0.102156 -0.243227,0.04378 -0.42808,0.04378 -1.775561,0 -1.775561,-1.508011 0,-0.359977 0.10702,-0.719953 0.111885,-0.364842 0.32106,-0.666444 0.214041,-0.306466 0.520507,-0.491319 0.306467,-0.184853 0.695631,-0.184853 0.462132,0 0.802651,0.228634 0.345383,0.228633 0.569152,0.617798 0.22377,0.389164 0.335654,0.875619 0.111885,0.486455 0.111885,1.002097 z m -1.663676,-0.03405 q 0.42808,0 0.851296,-0.126478 -0.04865,-0.817245 -0.301602,-1.25019 -0.252957,-0.437809 -0.715089,-0.437809 -0.32106,0 -0.501049,0.199446 -0.175124,0.199447 -0.248092,0.471862 -0.0681,0.26755 -0.0681,0.486455 0,0.355112 0.243228,0.505913 0.243228,0.150801 0.739412,0.150801 z m -4.249789,-4.139732 0.70536,0.705359 -0.70536,0.70536 -0.70536,-0.70536 z m 1.804748,5.005622 q -0.335654,0 -0.564288,-0.08756 -0.223769,-0.09243 -0.350247,-0.194582 -0.07297,0.637256 -0.355113,1.230732 -0.277279,0.598339 -0.836702,1.041013 -0.559424,0.442675 -1.478824,0.622663 l -0.287008,-0.768599 q 1.18695,-0.257821 1.673405,-0.904806 0.486455,-0.642121 0.486455,-1.522605 0,-0.413487 -0.09243,-0.86589 -0.08756,-0.457268 -0.248092,-0.929129 l 0.807515,-0.272415 0.262686,1.016691 q 0.10702,0.408623 0.340518,0.578882 0.233499,0.170259 0.588611,0.170259 h 0.184853 v 0.885348 z m -5.278038,0 h -0.792921 v -0.885348 h 0.783192 q 0.486455,0 0.656715,-0.282144 0.175124,-0.282144 0.175124,-0.715089 0,-0.316196 -0.05837,-0.676172 -0.05838,-0.359977 -0.126478,-0.724818 l 0.846431,-0.214041 q 0.0827,0.389164 0.131343,0.763735 0.04865,0.37457 0.04865,0.715089 0,0.583746 -0.16053,1.041014 -0.160531,0.457267 -0.525372,0.719953 -0.364841,0.257821 -0.977775,0.257821 z m 0.593476,-5.74017 0.70536,0.70536 -0.70536,0.70536 -0.70536,-0.70536 z m -2.033382,-0.958316 v 6.693622 H 16.53999 v -6.693622 z"
         id="path13" />
      <path
         style="font-size:9.9626px;font-family:Vazirmatn"
         d="m 93.179793,31.260737 q -0.340519,0.311332 -0.539965,0.617798 -0.194582,0.306467 -0.194582,0.749141 0.345383,0 0.476726,0.150801 0.136207,0.150801 0.136207,0.452403 0,0.296738 -0.150801,0.471862 -0.150801,0.170259 -0.452403,0.170259 -0.3843,0 -0.554559,-0.21404 -0.165395,-0.21404 -0.165395,-0.574017 0,-0.661579 0.311331,-1.172357 0.311332,-0.515642 0.81238,-0.904806 z m -5.224529,5.117508 q -1.050742,0 -1.683134,-0.3843 -0.627527,-0.384299 -0.909671,-1.02642 -0.277279,-0.637256 -0.277279,-1.400991 0,-0.330789 0.04865,-0.763734 0.05351,-0.432945 0.238363,-0.987504 l 0.773464,0.287009 q -0.141072,0.486455 -0.184853,0.861025 -0.03892,0.374571 -0.03892,0.632392 0,0.525371 0.184853,0.958316 0.184853,0.432945 0.627527,0.690766 0.447539,0.257822 1.221002,0.257822 0.729683,0 1.25019,-0.179989 0.525371,-0.179988 0.802651,-0.42808 0.282144,-0.248092 0.282144,-0.452403 0,-0.233499 -0.204311,-0.398894 -0.199447,-0.165394 -0.65185,-0.165394 h -0.719954 q -0.09729,0 -0.141072,-0.0827 -0.04378,-0.08756 -0.0827,-0.223769 l -0.131343,-0.466997 q -0.0049,-0.03892 0.01946,-0.07297 0.02432,-0.03892 0.08756,-0.03892 h 2.699826 v 0.885349 h -0.199447 q 0.07297,0.145936 0.09243,0.277279 0.02432,0.131343 0.02432,0.272415 0,0.32106 -0.189718,0.661579 -0.184853,0.345383 -0.574017,0.637256 -0.384299,0.291873 -0.97291,0.471861 -0.588611,0.179989 -1.391262,0.179989 z m -5.496941,-2.505244 h -0.792922 v -0.885348 h 0.783193 q 0.486455,0 0.656714,-0.282144 0.175124,-0.282144 0.175124,-0.715089 0,-0.316196 -0.05837,-0.676173 -0.05837,-0.359976 -0.126479,-0.724818 l 0.846432,-0.21404 q 0.0827,0.389164 0.131343,0.763735 0.04865,0.37457 0.04865,0.715089 0,0.583746 -0.160531,1.041013 -0.16053,0.457268 -0.525371,0.719954 -0.364841,0.257821 -0.977775,0.257821 z m 0.593475,-5.74017 0.70536,0.70536 -0.70536,0.70536 -0.705359,-0.70536 z M 79.89957,27.174515 h 0.822109 v 4.65051 q 0,0.685902 0.252956,0.924265 0.252957,0.238363 0.763735,0.238363 h 0.121614 v 0.885348 H 81.73837 q -0.929129,0 -1.386397,-0.49132 -0.452403,-0.496184 -0.452403,-1.56152 z m -2.758199,6.810371 q -0.486455,0 -0.899942,-0.209176 -0.408622,-0.21404 -0.851296,-0.642121 -0.316196,0.355113 -0.608069,0.549695 -0.291873,0.189717 -0.822109,0.189717 h -0.214041 v -0.885348 h 0.189718 q 0.325925,0 0.549694,-0.184853 0.223769,-0.189718 0.398893,-0.486455 0.175124,-0.296738 0.345383,-0.627527 0.175124,-0.335654 0.389164,-0.632392 0.214041,-0.296737 0.515643,-0.48159 0.306467,-0.189718 0.754005,-0.189718 0.539965,0 0.938858,0.262686 0.403758,0.257821 0.622663,0.695631 0.223769,0.437809 0.223769,0.977774 0,0.792922 -0.403757,1.230732 -0.398894,0.432945 -1.128576,0.432945 z m -0.233499,-2.738742 q -0.243227,0 -0.442674,0.165394 -0.199446,0.160531 -0.359976,0.418352 -0.160531,0.257821 -0.287009,0.5351 0.291873,0.306467 0.603204,0.501049 0.398893,0.257821 0.710225,0.257821 0.719953,0 0.719953,-0.724818 0,-0.505913 -0.252956,-0.826973 -0.248093,-0.325925 -0.690767,-0.325925 z m -3.875805,2.626857 q -0.335654,0 -0.564288,-0.08756 -0.22377,-0.09243 -0.350248,-0.194582 -0.07297,0.637256 -0.355112,1.230731 -0.27728,0.59834 -0.836703,1.041014 -0.559423,0.442674 -1.478823,0.622663 l -0.287009,-0.768599 q 1.186951,-0.257821 1.673406,-0.904807 0.486455,-0.64212 0.486455,-1.522604 0,-0.413487 -0.09243,-0.86589 -0.08756,-0.457268 -0.248092,-0.929129 l 0.807516,-0.272415 0.262685,1.016691 q 0.10702,0.408622 0.340519,0.578882 0.233498,0.170259 0.588611,0.170259 h 0.184852 v 0.885348 z m -5.565045,-7.31142 0.70536,0.70536 -0.70536,0.70536 -0.70536,-0.70536 z m -0.369706,6.426072 q 0.549694,0 0.885348,-0.06324 0.340519,-0.06324 0.496185,-0.27728 0.16053,-0.218904 0.16053,-0.676172 -0.238363,0.07297 -0.486455,0.111884 -0.243228,0.03892 -0.525372,0.03892 -1.653947,0 -1.653947,-1.35721 0,-0.466997 0.184853,-0.933994 0.189717,-0.466996 0.554559,-0.778328 0.364841,-0.316195 0.885348,-0.316195 0.476726,0 0.817244,0.243227 0.345383,0.243228 0.564288,0.656714 0.22377,0.408623 0.33079,0.92913 0.10702,0.515642 0.10702,1.065336 0,0.724818 -0.131343,1.172357 -0.126478,0.442674 -0.408622,0.676172 -0.282144,0.228634 -0.734547,0.311332 -0.452404,0.0827 -1.104253,0.0827 h -1.790155 v -0.885348 z m 0.59834,-1.702593 q 0.223769,0 0.442674,-0.03892 0.223769,-0.04378 0.447539,-0.10702 -0.03892,-0.345383 -0.145937,-0.700496 -0.102155,-0.355112 -0.306467,-0.593475 -0.204311,-0.243227 -0.544829,-0.243227 -0.301602,0 -0.486455,0.189717 -0.179989,0.189718 -0.262686,0.452403 -0.07783,0.262686 -0.07783,0.486455 0,0.335654 0.238363,0.447539 0.243228,0.10702 0.695631,0.10702 z m -4.212701,-4.110545 h 0.822109 v 4.65051 q 0,0.685902 0.252957,0.924265 0.252957,0.238363 0.763734,0.238363 h 0.121614 v 0.885348 h -0.121614 q -0.929129,0 -1.386397,-0.49132 -0.452403,-0.496184 -0.452403,-1.56152 z m -2.889542,6.698486 h -0.792922 v -0.885348 h 0.783193 q 0.486455,0 0.656714,-0.282144 0.175124,-0.282144 0.175124,-0.715089 0,-0.316196 -0.05837,-0.676173 -0.05838,-0.359976 -0.126479,-0.724818 l 0.846432,-0.21404 q 0.0827,0.389164 0.131343,0.763735 0.04865,0.37457 0.04865,0.715089 0,0.583746 -0.16053,1.041013 -0.16053,0.457268 -0.525371,0.719954 -0.364842,0.257821 -0.977775,0.257821 z m 0.593475,-5.74017 0.70536,0.70536 -0.70536,0.70536 -0.70536,-0.70536 z m 0.787396,3.127906 q -0.340519,0.311332 -0.539966,0.617798 -0.194582,0.306467 -0.194582,0.749141 0.345384,0 0.476726,0.150801 0.136208,0.150801 0.136208,0.452403 0,0.296738 -0.150801,0.471862 -0.150801,0.170259 -0.452403,0.170259 -0.3843,0 -0.554559,-0.21404 -0.165395,-0.21404 -0.165395,-0.574017 0,-0.661579 0.311331,-1.172357 0.311332,-0.515642 0.81238,-0.904806 z m -6.309322,3.35654 0.705359,0.70536 -0.705359,0.70536 -0.70536,-0.70536 z m 0.778328,-0.744276 h -1.133441 q -1.833935,0 -2.7582,-0.496184 -0.9194,-0.496184 -0.9194,-1.717186 0,-0.335654 0.07297,-0.656715 0.07783,-0.32106 0.199447,-0.617798 l 0.754005,0.282144 q -0.07783,0.21404 -0.131343,0.457268 -0.04865,0.243228 -0.04865,0.462132 0.0049,0.569153 0.32106,0.875619 0.316196,0.301603 0.943723,0.413487 0.627527,0.111885 1.566385,0.111885 h 1.138305 q 0.33079,0 0.690766,-0.01946 0.364842,-0.01946 0.681038,-0.10702 0.316195,-0.08756 0.515642,-0.291873 0.199447,-0.209176 0.199447,-0.583747 0,-0.272414 -0.05351,-0.646985 -0.05351,-0.379435 -0.126478,-0.749141 l 0.846432,-0.21404 q 0.08756,0.379435 0.131343,0.788057 0.04865,0.403758 0.04865,0.70536 0,0.661579 -0.223769,1.060472 -0.223769,0.398893 -0.627527,0.603205 -0.398893,0.204311 -0.933994,0.272414 -0.530236,0.0681 -1.152898,0.0681 z m -7.155754,-6.698486 h 0.822109 v 4.65051 q 0,0.685902 0.252957,0.924265 0.252956,0.238363 0.763734,0.238363 h 0.121614 v 0.885348 h -0.121614 q -0.929129,0 -1.386397,-0.49132 -0.452403,-0.496184 -0.452403,-1.56152 z m -5.04454,6.698486 h -0.257822 q -1.031284,0 -1.571249,-0.194582 -0.539966,-0.194582 -0.763735,-0.54483 -0.282144,0.3843 -0.637256,0.564288 -0.350248,0.175124 -0.933994,0.175124 h -0.199446 l 0.0049,-0.885348 h 0.194582 q 0.681037,0 0.914536,-0.287009 0.238363,-0.291873 0.238363,-0.841567 0,-0.233498 -0.01946,-0.432945 -0.01459,-0.199446 -0.02432,-0.42808 l 0.81238,-0.09729 0.07297,1.138304 q 0.02432,0.325925 0.136207,0.564288 0.111885,0.233499 0.345384,0.233499 0.870754,-1.478824 1.702592,-2.179319 0.836703,-0.70536 1.673406,-0.70536 0.554558,0 0.982639,0.243228 0.432945,0.238363 0.676172,0.65185 0.243228,0.413486 0.243228,0.933993 -0.0049,0.627527 -0.37457,1.113982 0.141072,0.03405 0.364841,0.06324 0.228634,0.02919 0.671308,0.02919 h 0.145936 v 0.885348 h -0.141072 q -0.617797,0 -1.021555,-0.126478 -0.398893,-0.126479 -0.671308,-0.350248 -0.398893,0.223769 -1.050743,0.350248 -0.65185,0.126478 -1.512875,0.126478 z m 1.726915,-3.03548 q -1.172357,0 -2.534431,2.150132 h 0.788057 q 1.386397,0 2.067434,-0.27728 0.681038,-0.277279 0.681038,-0.880483 0,-0.428081 -0.27728,-0.710225 -0.272415,-0.282144 -0.724818,-0.282144 z m -7.520595,-2.227964 0.681038,0.676173 -0.681038,0.685901 -0.676172,-0.685901 z m -1.61503,0 0.681037,0.676173 -0.681037,0.685901 -0.676173,-0.685901 z m -0.525372,4.378096 h 0.681037 q 0.617798,0 0.880484,-0.27728 0.26755,-0.277279 0.26755,-0.851296 0,-0.233498 -0.01459,-0.442674 -0.0097,-0.209176 -0.02919,-0.418351 l 0.81238,-0.09729 0.07783,1.138304 q 0.05837,0.948588 0.987504,0.948588 h 0.102155 v 0.885348 h -0.111884 q -0.539965,0 -0.86589,-0.194582 -0.321061,-0.194582 -0.520507,-0.549694 -0.262686,0.384299 -0.690766,0.564288 -0.428081,0.179988 -0.895078,0.179988 h -0.681037 z m -3.701922,0 q -0.218905,-0.272415 -0.37457,-0.666444 -0.150801,-0.398893 -0.150801,-0.797786 0,-0.520507 0.272414,-0.943723 0.272415,-0.423216 0.715089,-0.671308 0.442674,-0.248092 0.953452,-0.248092 0.773464,0 1.658812,0.603205 l -0.325925,0.724818 q -0.75887,-0.447539 -1.279377,-0.447539 -0.447538,0 -0.792921,0.277279 -0.345384,0.27728 -0.345384,0.739412 0,0.359977 0.160531,0.637256 0.165394,0.27728 0.350247,0.432945 0.184853,0.150801 0.248092,0.150801 0.08756,0 0.17026,-0.02432 l 2.057705,-0.491319 v 0.885348 q -1.211274,0.369706 -2.242558,0.549694 -1.02642,0.175124 -2.038247,0.175124 H 31.113575 V 32.987653 Z M 30.46659,27.174515 v 6.693622 h -0.822109 v -6.693622 z m -2.067862,9.315614 -0.287008,-0.773463 q 1.18695,-0.257821 1.673405,-0.904807 0.486455,-0.64212 0.486455,-1.522604 0,-0.413487 -0.09243,-0.86589 -0.08756,-0.457268 -0.248092,-0.929129 l 0.807515,-0.272415 q 0.350248,0.997233 0.350248,1.921497 0,0.81238 -0.287009,1.503147 -0.282144,0.69563 -0.880483,1.177221 -0.593475,0.486455 -1.522605,0.666443 z M 26.30697,27.174515 h 0.822109 v 4.65051 q 0,0.685902 0.252957,0.924265 0.252956,0.238363 0.763734,0.238363 h 0.121614 v 0.885348 H 28.14577 q -0.929129,0 -1.386397,-0.49132 -0.452403,-0.496184 -0.452403,-1.56152 z m -4.82077,0.301602 0.656714,0.656714 -0.656714,0.656715 -0.656715,-0.656715 z m 0.831838,1.230731 0.656714,0.656715 -0.656714,0.656714 -0.656715,-0.656714 z m -1.663676,0 0.656714,0.656715 -0.656714,0.656714 -0.656715,-0.656714 z m 2.339848,5.166153 q -0.466996,0 -0.754005,-0.194582 -0.287008,-0.194582 -0.466997,-0.549694 -0.272415,0.394028 -0.608069,0.569152 -0.330789,0.175124 -0.719953,0.175124 -0.559423,0 -0.86589,-0.189717 -0.301602,-0.194582 -0.481591,-0.554559 -0.228634,0.359977 -0.583746,0.554559 -0.355112,0.189717 -1.011826,0.189717 h -0.447539 v -0.885348 h 0.457268 q 0.622662,0 0.909671,-0.228634 0.287008,-0.233498 0.287008,-0.846432 0,-0.126478 -0.01459,-0.296737 -0.0097,-0.175124 -0.03405,-0.486455 l 0.81238,-0.102156 0.07783,1.016691 q 0.02919,0.408622 0.248092,0.676173 0.223769,0.26755 0.656714,0.26755 0.515642,0 0.700495,-0.27728 0.184853,-0.277279 0.184853,-0.797786 0,-0.126478 -0.01459,-0.301602 -0.0097,-0.175124 -0.03405,-0.48159 l 0.81238,-0.102156 0.07783,1.016691 q 0.02432,0.394029 0.209176,0.671308 0.184853,0.272415 0.59834,0.272415 0.719953,0 0.719953,-1.075066 0,-0.175124 -0.01459,-0.364841 -0.0097,-0.189718 -0.03405,-0.501049 l 0.81238,-0.09729 0.07783,1.094524 q 0.05837,0.943723 0.963181,0.943723 h 0.145936 v 0.885348 h -0.136207 q -0.510778,0 -0.851297,-0.184853 -0.340518,-0.189717 -0.466997,-0.564288 -0.204311,0.359977 -0.471861,0.554559 -0.262686,0.194582 -0.739412,0.194582 z m -8.274601,-7.31142 0.70536,0.70536 -0.70536,0.70536 -0.70536,-0.70536 z m -0.369706,6.426072 q 0.549695,0 0.885349,-0.06324 0.340518,-0.06324 0.496184,-0.27728 0.16053,-0.218904 0.16053,-0.676172 -0.238363,0.07297 -0.486455,0.111884 -0.243228,0.03892 -0.525372,0.03892 -1.653947,0 -1.653947,-1.35721 0,-0.466997 0.184853,-0.933994 0.189718,-0.466996 0.554559,-0.778328 0.364841,-0.316195 0.885348,-0.316195 0.476726,0 0.817245,0.243227 0.345383,0.243228 0.564288,0.656714 0.223769,0.408623 0.330789,0.92913 0.10702,0.515642 0.10702,1.065336 0,0.724818 -0.131343,1.172357 -0.126478,0.442674 -0.408622,0.676172 -0.282144,0.228634 -0.734547,0.311332 -0.452403,0.0827 -1.104253,0.0827 h -1.790155 v -0.885348 z m 0.59834,-1.702593 q 0.22377,0 0.442674,-0.03892 0.22377,-0.04378 0.447539,-0.10702 -0.03892,-0.345383 -0.145937,-0.700496 -0.102155,-0.355112 -0.306466,-0.593475 -0.204311,-0.243227 -0.54483,-0.243227 -0.301602,0 -0.486455,0.189717 -0.179988,0.189718 -0.262686,0.452403 -0.07783,0.262686 -0.07783,0.486455 0,0.335654 0.238363,0.447539 0.243228,0.10702 0.695631,0.10702 z"
         id="path14" />
    </g>
    <path
       id="path6"
       d="m 88.52742,0 h 78.06644"
       style="fill:none;stroke:#b8860b;stroke-width:1.99255;stroke-linecap:butt;stroke-linejoin:miter;stroke-miterlimit:10;stroke-dasharray:none;stroke-opacity:1"
       transform="matrix(1.3333333,0,0,-1.3333333,135.304,78.616)" />
    <path
       id="path7"
       d="M -3.9851,5.27061 C -3.25705,2.1082 -1.63463,0.6149 0,0 -1.63463,-0.6149 -3.25705,-2.1082 -3.9851,-5.27061"
       style="fill:none;stroke:#b8860b;stroke-width:1.99255;stroke-linecap:round;stroke-linejoin:round;stroke-miterlimit:10;stroke-dasharray:none;stroke-opacity:1"
       transform="matrix(-1.3333333,0,0,1.3333333,252.01219,78.616)" />
    <path
       id="path8"
       d="M -3.9851,5.27061 C -3.25705,2.1082 -1.63463,0.6149 0,0 -1.63463,-0.6149 -3.25705,-2.1082 -3.9851,-5.27061"
       style="fill:none;stroke:#b8860b;stroke-width:1.99255;stroke-linecap:round;stroke-linejoin:round;stroke-miterlimit:10;stroke-dasharray:none;stroke-opacity:1"
       transform="matrix(1.3333333,0,0,-1.3333333,358.75751,78.616)" />
    <path
       style="font-size:8.9664px;font-family:Vazirmatn;fill:#b8860b"
       d="m 45.041555,-4.2949407 0.612937,0.6085594 -0.612937,0.6173156 -0.60856,-0.6173156 z m -1.453538,0 0.612938,0.6085594 -0.612938,0.6173156 -0.608559,-0.6173156 z m 3.375535,1.7074688 0.731147,-0.087562 0.07443,1.0244812 q 0.02627,0.4159219 0.236419,0.6348282 0.214528,0.21890624 0.639206,0.21890624 h 0.105075 V 0 H 48.644752 Q 48.150024,0 47.830421,-0.18388125 47.515196,-0.37214063 47.309424,-0.78368439 46.946039,-0.36338438 46.376883,-0.17950313 45.812105,0 44.805136,0 h -0.731147 q -1.650553,0 -2.482397,-0.44656876 -0.827465,-0.44656875 -0.827465,-1.54547814 0,-0.3020906 0.06567,-0.5910469 0.07005,-0.2889562 0.179503,-0.5560219 l 0.678609,0.2539313 q -0.07005,0.1926375 -0.118209,0.4115437 -0.04378,0.2189063 -0.04378,0.4159219 0.0044,0.5122406 0.288957,0.7880625 0.284578,0.27144378 0.849356,0.37214066 0.564778,0.10069688 1.409756,0.10069688 h 0.731147 q 1.046372,0 1.619906,-0.21890624 0.577913,-0.2189063 0.577913,-0.7968188 0,-0.1795031 -0.01313,-0.385275 -0.0088,-0.2057719 -0.02627,-0.3896531 z m -9.999638,1.79065314 h 1.427269 q 0.437812,0 0.591047,-0.25393124 0.157612,-0.2539313 0.157612,-0.6435844 0,-0.2845781 -0.05254,-0.6085594 -0.05254,-0.3239812 -0.113831,-0.6523406 l 0.761793,-0.1926375 q 0.07443,0.35025 0.11821,0.6873656 0.04378,0.3371156 0.04378,0.6435844 0,0.525375 -0.144478,0.93691876 -0.144478,0.41154376 -0.472838,0.64796251 Q 38.951583,0 38.399939,0 H 36.963914 Z M 39.021633,0.69612189 39.63457,1.3046813 39.021633,1.9219969 38.413074,1.3046813 Z m -1.453538,0 0.612938,0.60855941 -0.612938,0.6173156 -0.608559,-0.6173156 z m -2.59185,-3.89653129 q 0.682988,0 1.151447,0.6129375 0.46846,0.6085594 0.485972,1.79065314 h 0.529753 V 0 H 36.543614 Q 36.447295,0.50348438 36.158339,0.97194377 35.873761,1.4447813 35.308983,1.8037875 34.744205,2.1671719 33.811664,2.346675 L 33.553355,1.6505532 Q 35.536645,1.2696563 35.85187,0 h -0.691743 q -1.65931,0 -1.65931,-1.3440844 0,-0.4290563 0.170747,-0.8581125 0.175125,-0.4290563 0.503484,-0.7136344 0.332738,-0.2845781 0.801197,-0.2845781 z m 0.1401,2.40359064 h 0.774928 q -0.05254,-0.84497814 -0.2802,-1.23025314 -0.223284,-0.385275 -0.647962,-0.385275 -0.2802,0 -0.442191,0.1795031 -0.157612,0.1795031 -0.223284,0.4246781 -0.06129,0.2407969 -0.06129,0.4378126 0,0.3064687 0.205772,0.44219058 0.21015,0.13134376 0.674231,0.13134376 z m -3.436828,-4.74588754 0.612938,0.6085593 -0.612938,0.6173157 -0.608559,-0.6173157 z m -1.453537,0 0.612937,0.6085593 -0.612937,0.6173157 -0.60856,-0.6173157 z m 2.294137,3.4806094 q 0,0.3458719 -0.153234,0.6435844 -0.153235,0.2933344 -0.4203,0.60418124 0.249553,0.0131344 0.44219,0.0175125 0.192638,0 0.341494,0 h 0.424678 V 0 h -0.411543 q -0.166369,0 -0.459704,-0.02626875 -0.288956,-0.03064688 -0.639206,-0.10069688 -0.345872,-0.07005 -0.682987,-0.18825938 -0.337116,0.12258751 -0.691744,0.19263751 -0.354628,0.06567187 -0.656719,0.09631875 Q 29.310952,0 29.131448,0 h -0.612937 v -0.79681876 h 0.612937 q 0.183882,0 0.380897,0 0.201394,-0.004378 0.485972,-0.0218906 -0.262687,-0.30646871 -0.411544,-0.60855941 -0.148856,-0.3020906 -0.148856,-0.6435844 0,-0.2714437 0.126966,-0.5472656 0.126965,-0.2758219 0.341494,-0.5122406 0.214528,-0.2364188 0.49035,-0.3765188 0.275821,-0.1444781 0.569156,-0.1444781 0.306469,0 0.586669,0.1444781 0.2802,0.1401 0.494728,0.3765188 0.218906,0.2320406 0.345872,0.5122406 0.126965,0.2802 0.126965,0.5560219 z m -1.554234,-0.8143313 q -0.166369,0 -0.35025,0.1269657 -0.179503,0.1225875 -0.306469,0.3108468 -0.122587,0.1882594 -0.122587,0.385275 0,0.2013938 0.118209,0.4115438 0.118209,0.21015 0.297712,0.385275 0.183882,0.175125 0.372141,0.27144376 0.332738,-0.14009996 0.564778,-0.45094686 0.236419,-0.315225 0.236419,-0.6260719 0,-0.1838813 -0.131344,-0.3721406 -0.126965,-0.1882594 -0.315225,-0.315225 -0.188259,-0.1269657 -0.363384,-0.1269657 z m -3.270459,-2.2634906 0.612937,0.6085594 -0.612937,0.6173156 -0.60856,-0.6173156 z m -1.453538,0 0.612938,0.6085594 -0.612938,0.6173156 -0.608559,-0.6173156 z m -0.472837,4.34310004 h 0.897515 q 0.437813,0 0.591047,-0.25393124 0.157613,-0.2539313 0.157613,-0.6435844 0,-0.2845781 -0.05254,-0.6085594 -0.05254,-0.3239812 -0.113831,-0.6523406 l 0.761794,-0.1926375 q 0.07443,0.35025 0.118209,0.6873656 0.04378,0.3371156 0.04378,0.6435844 0,0.525375 -0.144478,0.93691876 -0.144478,0.41154376 -0.472837,0.64796251 Q 27.226964,0 26.675321,0 H 25.769049 Z M 25.00666,2.17155 q -0.814332,0 -1.326572,-0.2933343 Q 23.167847,1.5892594 22.92705,1.0682625 22.686253,0.54726563 22.686253,-0.1401 q 0,-0.46408126 0.09632,-0.9500531 0.09632,-0.4903501 0.262688,-0.9544313 l 0.696122,0.2802 q -0.126966,0.4027875 -0.214529,0.82746563 -0.08756,0.42467814 -0.08756,0.82308752 0,0.70925626 0.359006,1.10328752 0.363385,0.39403123 1.208363,0.39403123 0.783684,0 1.177715,-0.42905623 0.39841,-0.42905626 0.39841,-1.38348753 V -6.0286782 h 0.739903 v 4.238025 q 0,0.4903501 0.179503,0.7442813 0.183881,0.24955314 0.713634,0.24955314 h 0.131344 V 0 h -0.122587 q -0.385275,0 -0.551644,-0.07442813 -0.166369,-0.07880625 -0.354628,-0.25830938 0,1.25214378 -0.591047,1.87821571 Q 26.136216,2.17155 25.00666,2.17155 Z M 20.322065,0 H 19.51649 v -0.79681876 h 0.796819 q 0.437813,0 0.591047,-0.25393124 0.157612,-0.2539313 0.157612,-0.6435844 0,-0.2845781 -0.05254,-0.6085594 -0.05254,-0.3239812 -0.113831,-0.6523406 l 0.761793,-0.1926375 q 0.07443,0.35025 0.11821,0.6873656 0.04378,0.3371156 0.04378,0.6435844 0,0.525375 -0.144478,0.93691876 -0.144478,0.41154376 -0.472838,0.64796251 Q 20.873709,0 20.322065,0 Z m 0.09632,0.66985314 0.634828,0.63482816 -0.634828,0.6348281 -0.634828,-0.6348281 z M 17.931608,-6.0286782 h 0.739903 v 4.1854875 q 0,0.6173157 0.227663,0.8318438 0.227662,0.21452814 0.687365,0.21452814 h 0.109454 V 0 H 19.586539 Q 18.750318,0 18.338774,-0.44219063 17.931608,-0.88875939 17.931608,-1.8475688 Z m -2.057717,0.4859719 0.612938,0.6085593 -0.612938,0.6173157 -0.608559,-0.6173157 z m -1.453537,0 0.612937,0.6085593 -0.612937,0.6173157 -0.60856,-0.6173157 z m 2.294137,3.4806094 q 0,0.3458719 -0.153234,0.6435844 -0.153234,0.2933344 -0.4203,0.60418124 0.249553,0.0131344 0.442191,0.0175125 0.192637,0 0.341493,0 h 0.424678 V 0 h -0.411543 q -0.166369,0 -0.459703,-0.02626875 -0.288957,-0.03064688 -0.639207,-0.10069688 -0.345872,-0.07005 -0.682987,-0.18825938 -0.337116,0.12258751 -0.691744,0.19263751 -0.354628,0.06567187 -0.656719,0.09631875 Q 13.505326,0 13.325822,0 h -0.612937 v -0.79681876 h 0.612937 q 0.183882,0 0.380897,0 0.201394,-0.004378 0.485972,-0.0218906 -0.262687,-0.30646871 -0.411544,-0.60855941 -0.148856,-0.3020906 -0.148856,-0.6435844 0,-0.2714437 0.126966,-0.5472656 0.126965,-0.2758219 0.341494,-0.5122406 0.214528,-0.2364188 0.49035,-0.3765188 0.275821,-0.1444781 0.569156,-0.1444781 0.306469,0 0.586669,0.1444781 0.2802,0.1401 0.494728,0.3765188 0.218906,0.2320406 0.345872,0.5122406 0.126965,0.2802 0.126965,0.5560219 z m -1.554234,-0.8143313 q -0.166369,0 -0.35025,0.1269657 -0.179503,0.1225875 -0.306469,0.3108468 -0.122587,0.1882594 -0.122587,0.385275 0,0.2013938 0.118209,0.4115438 0.118209,0.21015 0.297712,0.385275 0.183882,0.175125 0.372141,0.27144376 0.332738,-0.14009996 0.564778,-0.45094686 0.236419,-0.315225 0.236419,-0.6260719 0,-0.1838813 -0.131344,-0.3721406 -0.126965,-0.1882594 -0.315225,-0.315225 -0.188259,-0.1269657 -0.363384,-0.1269657 z m -3.734541,-1.8607031 0.612938,0.6085594 -0.612938,0.6173156 -0.608559,-0.6173156 z m -1.4535374,0 0.6129374,0.6085594 -0.6129374,0.6173156 -0.6085594,-0.6173156 z m -0.4728375,3.94031254 h 0.6129379 q 0.556021,0 0.79244,-0.24955314 0.240797,-0.2495531 0.240797,-0.7661719 0,-0.21015 -0.01313,-0.3984094 -0.0088,-0.1882593 -0.02627,-0.3765187 l 0.731147,-0.087562 0.07005,1.0244812 q 0.05254,0.85373444 0.888759,0.85373444 h 0.09194 V 0 H 12.787313 Q 12.301341,0 12.008007,-0.175125 11.71905,-0.35025001 11.539547,-0.66985314 11.303129,-0.32398126 10.917854,-0.16199063 10.532579,0 10.112279,0 H 9.4993411 Z M 7.77436,0.10069688 q -0.4378125,0 -0.8099532,-0.18825938 Q 6.5966443,-0.2802 6.1982349,-0.66547501 5.9136568,-0.34587188 5.6509693,-0.17074688 5.3882818,0 4.9110662,0 H 4.7184287 v -0.79681876 h 0.1707468 q 0.2933344,0 0.4947282,-0.16636876 Q 5.5852974,-1.1339344 5.7429099,-1.401 5.9005224,-1.6680657 6.0537568,-1.9657782 6.2113693,-2.2678688 6.4040068,-2.5349344 6.5966443,-2.802 6.8680881,-2.9683688 7.14391,-3.1391157 7.5466975,-3.1391157 q 0.4859719,0 0.8449781,0.2364188 0.3633844,0.2320406 0.5604,0.6260719 0.2013938,0.3940312 0.2013938,0.8800031 0,0.71363439 -0.3633844,1.10766565 Q 8.4310787,0.10069688 7.77436,0.10069688 Z M 7.56421,-2.3641875 q -0.2189063,0 -0.3984094,0.1488562 -0.1795031,0.1444781 -0.3239813,0.3765188 -0.1444781,0.2320406 -0.2583093,0.4815937 0.2626875,0.2758219 0.5428875,0.45094691 0.3590062,0.23204063 0.6392062,0.23204063 0.6479625,0 0.6479625,-0.65234064 0,-0.455325 -0.2276625,-0.7442813 Q 7.9626193,-2.3641875 7.56421,-2.3641875 Z"
       id="text8"
       transform="matrix(1.3333333,0,0,1.3333333,272.96933,51.896)"
       aria-label="ﺖﯾﻮﻘﺗﻞﺑﺎﻘﺘﻣ" />
  </g>
</svg>
