<?xml version="1.0" encoding="UTF-8" standalone="no"?>


<svg class="tikz-diagram" id="iran-action-ch8-tikz-7-ebf04b329e93"
   version="1.1"
   id="svg1"
   width="571.64001"
   height="99.199997"
   viewBox="0 0 571.64001 99.199997"
   sodipodi:docname="iran-action-ch8-tikz-7-ebf04b329e93.pdf"
   xmlns:inkscape="http://www.inkscape.org/namespaces/inkscape"
   xmlns:sodipodi="http://sodipodi.sourceforge.net/DTD/sodipodi-0.dtd"
   xmlns="http://www.w3.org/2000/svg"
   xmlns:svg="http://www.w3.org/2000/svg">
  <defs
     id="defs1" />
  <sodipodi:namedview
     id="namedview1"
     pagecolor="#ffffff"
     bordercolor="#000000"
     borderopacity="0.25"
     inkscape:showpageshadow="2"
     inkscape:pageopacity="0.0"
     inkscape:pagecheckerboard="0"
     inkscape:deskcolor="#d1d1d1">
    <inkscape:page
       x="0"
       y="0"
       inkscape:label="1"
       id="page1"
       width="571.64001"
       height="99.199997"
       margin="0"
       bleed="0" />
  </sodipodi:namedview>
  <g
     id="g1"
     inkscape:groupmode="layer"
     inkscape:label="1">
    <path
       id="path1"
       d="m 188.46497,21.2601 h -376.92994 c -5.50236,0 -9.96276,-4.46042 -9.96276,-9.96277 v -22.59466 c 0,-5.50235 4.4604,-9.96277 9.96276,-9.96277 h 376.92994 c 5.50236,0 9.96276,4.46042 9.96276,9.96277 v 22.59466 c 0,5.50235 -4.4604,9.96277 -9.96276,9.96277 z"
       style="fill:#f5ebff;fill-opacity:1;fill-rule:nonzero;stroke:#663399;stroke-width:1.99255;stroke-linecap:butt;stroke-linejoin:miter;stroke-miterlimit:10;stroke-dasharray:none;stroke-opacity:1"
       transform="matrix(1.3333333,0,0,-1.3333333,285.82,49.6)" />
    <path
       style="font-weight:800;font-size:11.9552px;font-family:Vazirmatn"
       d="M 31.574478,0 H 30.09759 Q 29.09354,0 28.241265,-0.1225875 27.38899,-0.2510125 26.75854,-0.56623751 26.133928,-0.88146251 25.783678,-1.4477 q -0.344413,-0.572075 -0.344413,-1.459375 0,-0.5253751 0.11675,-1.0274001 0.11675,-0.502025 0.291875,-0.9281625 l 1.406838,0.5312125 q -0.09924,0.2743625 -0.204313,0.642125 -0.09924,0.361925 -0.09924,0.6888251 0,0.58375 0.431975,0.86395 0.431975,0.2802 1.14415,0.3677625 0.718012,0.081725 1.570287,0.081725 h 1.47105 q 0.934,0 1.401,-0.128425 0.467001,-0.1342625 0.467001,-0.5428875 0,-0.1926375 -0.286038,-0.44365 -0.286038,-0.25685 -0.718013,-0.5370501 -0.426137,-0.2860375 -0.875625,-0.5604 -0.44365,-0.2802 -0.77055,-0.5137 -0.245175,-0.1809625 -0.3736,-0.4728375 -0.128425,-0.2977125 -0.128425,-0.6071 0,-0.338575 0.151775,-0.6071 0.157613,-0.2743625 0.478675,-0.4027875 l 4.506551,-1.8388125 v 1.669525 l -3.152251,1.2784125 q 0.776388,0.467 1.278413,0.8347625 0.502025,0.3677625 0.81725,0.7647125 0.321063,0.3911125 0.548725,0.9456751 0.175125,0.4203 0.332738,0.67715 0.16345,0.25685 0.408625,0.3736 0.245175,0.1109125 0.671312,0.1109125 h 0.157613 V 0 h -0.157613 q -0.706337,0 -1.185012,-0.2043125 -0.472838,-0.21015001 -0.805575,-0.69466251 -0.30355,0.338575 -0.665475,0.53705 Q 33.314053,-0.1692875 32.812028,-0.081725 32.31584,0 31.574478,0 Z m -9.701925,0 q -0.519538,0 -0.881463,-0.2159875 -0.361925,-0.21598751 -0.6071,-0.53121251 -0.297712,0.315225 -0.67715,0.53121251 Q 19.33324,0 18.81954,0 q -0.589587,0 -0.992375,-0.198475 -0.39695,-0.20431251 -0.6538,-0.53705001 -0.321062,0.338575 -0.764712,0.53705001 Q 15.965003,0 15.287853,0 h -0.53705 v -1.6870375 h 0.548725 q 0.642125,0 0.91065,-0.1576125 0.274362,-0.1576125 0.274362,-0.758875 0,-0.0934 -0.01168,-0.3093875 -0.01168,-0.2159876 -0.02919,-0.4728376 -0.01751,-0.2626875 -0.03502,-0.4728375 l 1.465212,-0.1809625 0.122588,1.5761251 q 0.05254,0.7763875 0.834762,0.7763875 0.484513,0 0.647963,-0.198475 0.16345,-0.2043125 0.16345,-0.7180125 0,-0.081725 -0.01167,-0.2977125 -0.01168,-0.2218251 -0.02919,-0.4845126 -0.01751,-0.2626875 -0.03503,-0.4728375 l 1.465213,-0.1809625 0.122587,1.5761251 q 0.02335,0.361925 0.180963,0.572075 0.157612,0.2043125 0.525375,0.2043125 0.361925,0 0.49035,-0.2393375 0.134262,-0.2393375 0.134262,-0.67715 0,-0.21015 -0.02335,-0.6071001 -0.02335,-0.39695 -0.05254,-0.758875 l 1.465212,-0.1809625 0.122588,1.6870376 q 0.02919,0.431975 0.239337,0.6071 0.215988,0.1692875 0.665475,0.1692875 H 25.07734 V 0 H 24.91389 Q 24.37684,0 23.962378,-0.1868 23.553753,-0.37360001 23.314415,-0.69466251 23.075078,-0.39695001 22.724828,-0.198475 22.374578,0 21.872553,0 Z m -9.748625,0 h -1.255062 v -1.6870375 h 1.2609 q 0.44365,0 0.6071,-0.2743625 0.169287,-0.2802 0.169287,-0.7063375 0,-0.3969501 -0.09924,-0.8639501 -0.0934,-0.4728375 -0.192638,-0.922325 l 1.529425,-0.39695 q 0.110913,0.548725 0.175125,1.0916125 0.07005,0.53705 0.07005,1.0274001 0,0.7763875 -0.21015,1.3951625 -0.204312,0.61877499 -0.7005,0.98069999 Q 12.982041,0 12.123928,0 Z M 11.020641,0.74720001 12.013016,1.7279 12.993716,0.74720001 13.991928,1.739575 12.993716,2.743625 12.013016,1.75125 11.020641,2.743625 10.028266,1.739575 Z M 6.8876896,3.1872751 6.2922646,1.622825 Q 7.1387021,1.4418625 7.7458021,1.1383125 8.3587396,0.84060001 8.6914771,0.33857501 9.0242146,-0.16345 9.0242146,-0.95735002 9.0242146,-1.4885625 8.8549271,-2.1482 8.6856396,-2.813675 8.4930021,-3.3857501 l 1.5761249,-0.5078625 q 0.227663,0.6362875 0.344413,1.3718126 0.122587,0.735525 0.122587,1.412675 0,1.225875 -0.455325,2.10150002 Q 9.6313146,1.8738375 8.8082271,2.416725 7.9909771,2.96545 6.8876896,3.1872751 Z M 6.6769791,-4.4715251 q 0,-0.44365 0.315225,-0.735525 0.315225,-0.291875 0.758875,-0.291875 0.4494875,0 0.758875,0.291875 0.315225,0.291875 0.315225,0.735525 0,0.4378125 -0.315225,0.7296875 -0.315225,0.291875 -0.758875,0.291875 -0.455325,0 -0.7647125,-0.2860375 -0.3093875,-0.291875 -0.3093875,-0.735525 z m 0,3.4382876 q 0,-0.4378125 0.315225,-0.7296875 0.315225,-0.2977125 0.758875,-0.2977125 0.4494875,0 0.758875,0.2977125 0.315225,0.291875 0.315225,0.7296875 0,0.44364999 -0.315225,0.735525 -0.315225,0.291875 -0.758875,0.291875 -0.455325,0 -0.7647125,-0.291875 -0.3093875,-0.29187501 -0.3093875,-0.735525 z M 41.666955,-3.1405751 q -0.77055,-0.21015 -1.295925,-0.6829875 -0.519538,-0.478675 -0.519538,-1.3367875 0,-0.77055 0.3269,-1.3951625 0.3269,-0.63045 0.916488,-0.9982125 0.595425,-0.3736 1.383488,-0.3736 0.5604,0 0.9807,0.175125 0.426137,0.175125 0.788062,0.4494875 l -0.519537,1.365975 q -0.251013,-0.1459375 -0.554563,-0.2743625 -0.30355,-0.1342625 -0.63045,-0.1342625 -0.286037,0 -0.5604,0.1342625 -0.268525,0.128425 -0.449488,0.3560875 -0.180962,0.221825 -0.180962,0.5078625 0,0.175125 0.169287,0.3269 0.169288,0.151775 0.4203,0.268525 0.251013,0.11675 0.513701,0.1868 0.262687,0.07005 0.449487,0.081725 0.01167,0 0.05254,-0.02335 0.0467,-0.029187 0.05254,-0.035025 0.431975,-0.268525 0.823088,-0.5428875 0.391112,-0.2743625 0.869787,-0.5137 l 0.431975,1.5586125 q -0.729687,0.4494875 -1.365975,1.0332376 -0.63045,0.58375 -1.249225,1.389325 -0.612938,0.79973749 -1.295925,1.9205375 l -1.418513,-0.61293751 q 0.367763,-0.70633749 0.846438,-1.41267499 0.484512,-0.712175 1.015725,-1.4185126 z M 153.99825,0 q -0.81725,0 -1.34263,-0.30938751 -0.52537,-0.315225 -0.75887,-1.02739999 -0.67131,0.52537499 -1.46521,0.52537499 -0.96903,0 -1.61699,-0.52537499 -0.64796,-0.5312125 -0.64796,-1.56445 0,-0.7588751 0.43781,-1.2959251 0.43781,-0.5428875 1.12664,-0.91065 0.69466,-0.3677625 1.4477,-0.595425 l -0.0409,-0.2802 1.41268,-0.2860375 0.55456,3.7476751 q 0.0525,0.3560875 0.27436,0.595425 0.22767,0.2393375 0.64213,0.2393375 h 0.18096 V 0 Z m -2.42256,-3.1347376 q 0,-0.081725 -0.0175,-0.1809625 -0.0117,-0.105075 -0.0292,-0.2159875 l -0.0992,-0.6129375 q -0.41446,0.1401 -0.81725,0.3269 -0.39695,0.1809625 -0.65964,0.4027875 -0.25685,0.2159875 -0.25685,0.4670001 0,0.2393375 0.19264,0.3911125 0.19847,0.1459375 0.5137,0.1459375 0.26852,0 0.53705,-0.075888 0.27436,-0.081725 0.45532,-0.2393375 0.18097,-0.16345 0.18097,-0.4086251 z m -6.41542,0.3444126 v -5.3938501 h 1.57029 v 5.3938501 q 0,0.548725 0.17512,0.828925 0.18097,0.2743625 0.71218,0.2743625 h 0.1868 V 0 h -0.17513 q -0.61877,0 -1.00988,-0.1868 -0.38528,-0.19263751 -0.67715,-0.56623751 -0.30939,0.3560875 -0.72385,0.55456251 Q 144.81002,0 144.12703,0 h -0.35608 v -1.6870375 h 0.31522 q 0.58959,0 0.82893,-0.2626875 0.24517,-0.268525 0.24517,-0.8406 z m -5.90755,-5.3705001 1.05075,1.05075 -1.05075,1.0449125 -1.04491,-1.0449125 z m -3.63676,6.4737876 h 0.99238 q 0.75303,0 1.401,-0.1401 0.64796,-0.1459375 1.33095,-0.431975 0.68882,-0.2860375 1.56445,-0.712175 -0.89898,-0.3269001 -1.45354,-0.5487251 -0.55456,-0.2276625 -0.75888,-0.2276625 -0.31522,0 -0.57207,0.198475 -0.25101,0.1926375 -0.41446,0.408625 l -0.30939,0.3911126 -1.3076,-0.6421251 0.26269,-0.4203 q 0.41446,-0.67715 0.99237,-1.1208 0.57791,-0.4494875 1.3543,-0.4494875 0.3269,0 0.75888,0.151775 0.43781,0.151775 0.934,0.3794375 0.50202,0.221825 1.03323,0.4494875 0.53705,0.221825 1.05659,0.3794375 0.52538,0.1576125 1.00405,0.16345 V -2.31165 q -0.44365,0.058375 -0.82309,0.198475 -0.37943,0.1342625 -0.78806,0.3444125 -0.40862,0.21015 -0.95151,0.502025 -0.7472,0.39694999 -1.41268,0.68298749 -0.65963,0.28603751 -1.36013,0.43781251 Q 137.45477,0 136.59082,0 h -0.97486 z m -0.67715,-6.4971376 v 8.1783376 h -1.57613 V -8.1841751 Z M 129.86018,-2.5218 q 0,-0.1459375 -0.0642,-0.385275 -0.0642,-0.2393376 -0.13426,-0.3911126 l -1.15583,-2.5509875 1.38933,-0.67715 1.45353,3.350725 q 0.17513,0.4027876 0.30939,0.7413626 0.1401,0.338575 0.31523,0.5428875 0.18096,0.2043125 0.46116,0.2043125 h 0.24517 V 0 h -0.24517 q -0.6538,0 -1.05659,-0.245175 -0.39695,-0.25101251 -0.7005,-0.64212501 -0.44365,0.4261375 -1.05659,0.65380001 -0.61293,0.2276625 -1.48272,0.2276625 -0.5137,0 -0.86979,-0.035025 -0.35609,-0.035025 -0.73552,-0.128425 V -1.856325 q 0.36192,0.087562 0.76471,0.1342625 0.40862,0.0467 0.75304,0.0467 0.43197,0 0.84643,-0.07005 0.41447,-0.075887 0.68883,-0.2626875 0.27436,-0.1868 0.27436,-0.5137 z m -6.33951,2.6560625 q -0.6071,0 -1.13832,-0.25685 -0.52537,-0.26268751 -1.0274,-0.64796251 -0.32106,0.3210625 -0.67131,0.54872501 Q 120.33923,0 119.67375,0 h -0.25685 v -1.6870375 h 0.22767 q 0.28603,0 0.5137,-0.221825 0.2335,-0.221825 0.44365,-0.572075 0.21598,-0.3560875 0.44948,-0.7472001 0.23934,-0.39695 0.53122,-0.7472 0.29771,-0.3560875 0.68882,-0.5779125 0.39111,-0.221825 0.91649,-0.221825 0.73552,0 1.27257,0.35025 0.53705,0.3444125 0.82893,0.9164875 0.29187,0.5662376 0.29187,1.2375501 0,0.688825 -0.22766,1.2317125 -0.22766,0.54288749 -0.68882,0.8581125 -0.45533,0.315225 -1.14415,0.315225 z m -0.2802,-3.3040251 q -0.23934,0 -0.43198,0.1634501 -0.19264,0.1576125 -0.33857,0.385275 -0.14594,0.2276625 -0.24518,0.431975 0.16929,0.151775 0.32106,0.2626875 0.15178,0.1109125 0.29188,0.1926375 0.21015,0.11675 0.38527,0.16345 0.17513,0.0467 0.30355,0.0467 0.30939,0 0.44365,-0.221825 0.13427,-0.2276625 0.13427,-0.5137 0,-0.3677625 -0.22767,-0.6362875 -0.22766,-0.2743626 -0.63628,-0.2743626 z M 118.7567,3.000475 q -1.28425,0 -2.09567,-0.4961875 -0.80557,-0.4961875 -1.19085,-1.33095 -0.37943,-0.82892499 -0.37943,-1.84465001 0,-0.57791249 0.11091,-1.20836249 0.11675,-0.63045 0.36192,-1.2842501 l 1.41852,0.5137001 q -0.17513,0.5078625 -0.2802,1.0098875 -0.10508,0.502025 -0.10508,0.94567499 0,0.56623751 0.19848,1.02156252 0.20431,0.4611625 0.67715,0.72968749 0.47283,0.2743625 1.28425,0.2743625 0.92816,0 1.48856,-0.1926375 0.5604,-0.19263748 0.81141,-0.43197499 0.25685,-0.2393375 0.25685,-0.3736 0,-0.20431251 -0.19847,-0.26852501 Q 120.92241,0 120.49627,0 h -0.92232 q -0.23934,0 -0.30355,-0.1225875 -0.0642,-0.1225875 -0.12259,-0.32690001 L 118.8968,-1.3543 q -0.0409,-0.1459375 -0.0292,-0.2393375 0.0175,-0.0934 0.22766,-0.0934 h 3.52585 V 0 h 0.0467 q 0.0525,0.2043125 0.0525,0.32690001 0,0.71217499 -0.47284,1.31927499 -0.467,0.6129375 -1.3543,0.9807 -0.88146,0.3736 -2.13652,0.3736 z M 110.32735,0.68882501 111.3781,1.739575 110.32735,2.7844875 109.28244,1.739575 Z m -4.00452,-2.37586251 h 0.99237 q 0.75304,0 1.401,-0.1401 0.64796,-0.1459375 1.33095,-0.431975 0.68883,-0.2860375 1.56445,-0.712175 -0.89897,-0.3269001 -1.45354,-0.5487251 -0.55456,-0.2276625 -0.75887,-0.2276625 -0.31523,0 -0.57208,0.198475 -0.25101,0.1926375 -0.41446,0.408625 l -0.30939,0.3911126 -1.3076,-0.6421251 0.26269,-0.4203 q 0.41446,-0.67715 0.99238,-1.1208 0.57791,-0.4494875 1.3543,-0.4494875 0.3269,0 0.75887,0.151775 0.43781,0.151775 0.934,0.3794375 0.50203,0.221825 1.03324,0.4494875 0.53705,0.221825 1.05659,0.3794375 0.52537,0.1576125 1.00405,0.16345 V -2.31165 q -0.44365,0.058375 -0.82309,0.198475 -0.37944,0.1342625 -0.78806,0.3444125 -0.40863,0.21015 -0.95152,0.502025 -0.7472,0.39694999 -1.41267,0.68298749 Q 109.5568,-0.2977125 108.8563,-0.1459375 108.16164,0 107.29769,0 h -0.97486 z M 101.40943,3.1872751 100.814,1.622825 q 0.84644,-0.1809625 1.45354,-0.4845125 0.61294,-0.29771249 0.94567,-0.79973749 0.33274,-0.50202501 0.33274,-1.29592503 0,-0.53121248 -0.16929,-1.19084998 -0.16928,-0.665475 -0.36192,-1.2375501 l 1.57612,-0.5078625 q 0.22767,0.6362875 0.34442,1.3718126 0.12258,0.735525 0.12258,1.412675 0,1.225875 -0.45532,2.10150002 -0.44949,0.88146248 -1.27258,1.42434998 -0.81725,0.548725 -1.92053,0.7705501 z M 98.595749,-8.1841751 h 1.576121 V -2.8487 q 0,0.618775 0.18097,0.8931375 0.18096,0.268525 0.7472,0.268525 h 0.14593 V 0 h -0.14593 Q 99.792437,0 99.191174,-0.67715001 98.595749,-1.3543 98.595749,-2.7086 Z m -5.428878,0.02335 1.05075,1.05075 -1.05075,1.0449125 -1.044913,-1.0449125 z m -3.636763,6.4737876 h 0.992375 q 0.753038,0 1.401,-0.1401 0.647963,-0.1459375 1.33095,-0.431975 0.688825,-0.2860375 1.56445,-0.712175 -0.898975,-0.3269001 -1.453537,-0.5487251 -0.554563,-0.2276625 -0.758875,-0.2276625 -0.315225,0 -0.572075,0.198475 -0.251013,0.1926375 -0.414463,0.408625 l -0.309387,0.3911126 -1.3076,-0.6421251 0.262687,-0.4203 q 0.414463,-0.67715 0.992375,-1.1208 0.577913,-0.4494875 1.3543,-0.4494875 0.3269,0 0.758875,0.151775 0.437813,0.151775 0.934,0.3794375 0.502025,0.221825 1.033238,0.4494875 0.53705,0.221825 1.056587,0.3794375 0.525375,0.1576125 1.00405,0.16345 V -2.31165 q -0.44365,0.058375 -0.823087,0.198475 -0.379438,0.1342625 -0.788063,0.3444125 -0.408625,0.21015 -0.951512,0.502025 -0.7472,0.39694999 -1.412675,0.68298749 Q 92.764083,-0.2977125 92.063583,-0.1459375 91.368921,0 90.504971,0 H 89.530108 Z M 87.375235,0.68882501 88.425985,1.739575 87.375235,2.7844875 86.330322,1.739575 Z M 88.332585,0 H 86.984122 Q 85.974235,0 85.12196,-0.1225875 84.275522,-0.2510125 83.645072,-0.56623751 83.02046,-0.88146251 82.67021,-1.4477 q -0.344413,-0.572075 -0.344413,-1.459375 0,-0.5253751 0.11675,-1.0215626 0.11675,-0.502025 0.291875,-0.9281625 l 1.406838,0.525375 q -0.09924,0.2743625 -0.204313,0.642125 -0.09924,0.361925 -0.09924,0.6888251 0,0.58375 0.431975,0.86395 0.431975,0.2802 1.14415,0.3677625 0.718012,0.081725 1.570287,0.081725 h 1.365975 q 1.079938,0 1.6812,-0.1926375 0.6071,-0.1926375 0.6071,-0.7763875 0,-0.385275 -0.0934,-0.8756251 -0.08756,-0.49035 -0.198475,-0.934 l 1.535263,-0.385275 q 0.11675,0.548725 0.180962,1.0916125 0.06421,0.53705 0.06421,1.0215626 0,0.875625 -0.291875,1.4185125 -0.291875,0.54288749 -0.81725,0.82892499 Q 90.498297,-0.2043125 89.809472,-0.0992375 89.120647,0 88.332585,0 Z m -7.452714,0 q -0.531213,0 -0.875625,-0.2043125 -0.2335,1.342625 -1.149988,2.21825 -0.91065,0.875625 -2.434237,1.1675001 L 75.842108,1.622825 q 0.846438,-0.1809625 1.453538,-0.4845125 0.612937,-0.29771249 0.945675,-0.79973749 0.332737,-0.50202501 0.332737,-1.29592503 0,-0.53121248 -0.169287,-1.19084998 -0.169288,-0.665475 -0.361925,-1.2375501 l 1.570287,-0.5078625 0.338575,1.3192751 q 0.09924,0.3736 0.291875,0.63045 0.192638,0.25685 0.572075,0.25685 h 0.227663 V 0 Z m -9.351672,-8.1608251 1.05075,1.05075 -1.05075,1.0449125 -1.044913,-1.0449125 z m 4.232187,4.3022375 V -2.335 q -0.338575,0.035025 -0.688825,0.1576125 -0.344412,0.11675 -0.601262,0.2335 0.110912,0.16345 0.53705,0.21015 0.431975,0.0467 0.945675,0.0467 h 0.321062 V 0 h -0.344412 q -1.068263,0 -1.722063,-0.2802 -0.647962,-0.28603751 -0.8873,-1.062425 -1.079937,0.57791249 -2.159875,0.96318749 Q 70.086336,0 68.866299,0 h -0.974863 v -1.6870375 h 0.992375 q 0.753038,0 1.395163,-0.1401 0.647962,-0.1459375 1.336787,-0.431975 0.688825,-0.2860375 1.56445,-0.712175 -0.898975,-0.3327376 -1.453537,-0.5545626 -0.554563,-0.221825 -0.758875,-0.221825 -0.315225,0 -0.572075,0.198475 -0.251013,0.1926375 -0.414463,0.408625 l -0.309387,0.3911126 -1.3076,-0.6421251 0.262687,-0.4203 q 0.414463,-0.67715 0.992375,-1.1208 0.577913,-0.4494875 1.3543,-0.4494875 0.3269,0 0.758875,0.151775 0.437813,0.151775 0.934,0.3794375 0.502025,0.221825 1.033238,0.4494875 0.53705,0.221825 1.056587,0.3794375 0.525375,0.1576125 1.00405,0.16345 z M 65.47471,0.1342625 q -0.6071,0 -1.138312,-0.25685 -0.525375,-0.26268751 -1.0274,-0.64796251 -0.321063,0.3210625 -0.671313,0.54872501 Q 62.293273,0 61.627798,0 h -0.25685 v -1.6870375 h 0.227662 q 0.286038,0 0.5137,-0.221825 0.2335,-0.221825 0.44365,-0.572075 0.215988,-0.3560875 0.449488,-0.7472001 0.239337,-0.39695 0.531212,-0.7472 0.297713,-0.3560875 0.688825,-0.5779125 0.391113,-0.221825 0.916488,-0.221825 0.735525,0 1.272575,0.35025 0.53705,0.3444125 0.828925,0.9164875 0.291875,0.5662376 0.291875,1.2375501 0,0.688825 -0.227663,1.2317125 -0.227662,0.54288749 -0.688825,0.8581125 -0.455325,0.315225 -1.14415,0.315225 z m -0.2802,-3.3040251 q -0.239337,0 -0.431975,0.1634501 -0.192637,0.1576125 -0.338575,0.385275 -0.145937,0.2276625 -0.245175,0.431975 0.169288,0.151775 0.321063,0.2626875 0.151775,0.1109125 0.291875,0.1926375 0.21015,0.11675 0.385275,0.16345 0.175125,0.0467 0.30355,0.0467 0.309387,0 0.44365,-0.221825 0.134262,-0.2276625 0.134262,-0.5137 0,-0.3677625 -0.227662,-0.6362875 -0.227663,-0.2743626 -0.636288,-0.2743626 z"
       id="text1"
       transform="matrix(1.3333333,0,0,1.3333333,187.70533,53.036)"
       aria-label="ﮏﺴﯾر:۶ﻪﻠﺧاﺪﻣﯽﺟرﺎﺧبﺮﺨﻣ" />
  </g>
</svg>
