<?xml version="1.0" encoding="UTF-8" standalone="no"?>


<svg class="tikz-diagram" id="iran-action-ch9-tikz-9-3f0542f04f0c"
   version="1.1"
   id="svg1"
   width="569.52002"
   height="184"
   viewBox="0 0 569.52002 184"
   sodipodi:docname="iran-action-ch9-tikz-9-3f0542f04f0c.pdf"
   xmlns:inkscape="http://www.inkscape.org/namespaces/inkscape"
   xmlns:sodipodi="http://sodipodi.sourceforge.net/DTD/sodipodi-0.dtd"
   xmlns="http://www.w3.org/2000/svg"
   xmlns:svg="http://www.w3.org/2000/svg">
  <defs
     id="defs1" />
  <sodipodi:namedview
     id="namedview1"
     pagecolor="#ffffff"
     bordercolor="#000000"
     borderopacity="0.25"
     inkscape:showpageshadow="2"
     inkscape:pageopacity="0.0"
     inkscape:pagecheckerboard="0"
     inkscape:deskcolor="#d1d1d1">
    <inkscape:page
       x="0"
       y="0"
       inkscape:label="1"
       id="page1"
       width="569.52002"
       height="184"
       margin="0"
       bleed="0" />
  </sodipodi:namedview>
  <g
     id="g1"
     inkscape:groupmode="layer"
     inkscape:label="1">
    <path
       id="path1"
       d="m 48.72342,82.20578 h -97.44684 c -4.40187,0 -7.97021,-3.56833 -7.97021,-7.97021 V 39.15166 c 0,-4.40189 3.56834,-7.97022 7.97021,-7.97022 h 97.44684 c 4.40187,0 7.97021,3.56833 7.97021,7.97022 v 35.08391 c 0,4.40188 -3.56834,7.97021 -7.97021,7.97021 z"
       style="fill:#ffe6e6;fill-opacity:1;fill-rule:nonzero;stroke:#be1e2d;stroke-width:0.3985;stroke-linecap:butt;stroke-linejoin:miter;stroke-miterlimit:10;stroke-dasharray:none;stroke-opacity:1"
       transform="matrix(1.3333333,0,0,-1.3333333,95.781333,129.79333)" />
    <g
       id="text1"
       transform="matrix(1.3333333,0,0,1.3333333,69.225333,49.716)"
       aria-label="تﻮﻓیﺮﺒﻫرناﺮﺤﺑﯽﻨﯿﺸﻧﺎﺟ">
      <path
         style="font-size:8.9664px;font-family:Vazirmatn"
         d="M 36.759473,0 H 35.73937 q -1.650553,0 -2.482397,-0.44656876 -0.827466,-0.44656875 -0.827466,-1.54547814 0,-0.3020906 0.06567,-0.5910469 0.07005,-0.2889562 0.179503,-0.5560219 l 0.67861,0.2539313 q -0.07005,0.1926375 -0.11821,0.4115437 -0.04378,0.2189063 -0.04378,0.4159219 0.0044,0.5122406 0.288956,0.7880625 0.284578,0.27144378 0.849356,0.37214066 0.564779,0.10069688 1.409757,0.10069688 h 1.024481 q 0.297712,0 0.621694,-0.0175125 0.328359,-0.0175125 0.612937,-0.0963188 0.284578,-0.0788063 0.464081,-0.26268749 0.179504,-0.1882594 0.179504,-0.525375 0,-0.245175 -0.04816,-0.5822907 -0.04816,-0.3414937 -0.113831,-0.6742312 l 0.761794,-0.1926375 q 0.07881,0.3414937 0.118209,0.7092562 0.04378,0.3633844 0.04378,0.6348282 0,0.595425 -0.201393,0.95443124 -0.201394,0.35900625 -0.564778,0.5428875 -0.359007,0.18388126 -0.840601,0.24517501 Q 37.319873,0 36.759473,0 Z m -0.08319,-4.2949407 0.612938,0.6085594 -0.612938,0.6173156 -0.608559,-0.6173156 z m -1.453537,0 0.612937,0.6085594 -0.612937,0.6173156 -0.608559,-0.6173156 z m -5.306288,1.0945313 q 0.682988,0 1.151447,0.6129375 0.46846,0.6085594 0.485972,1.79065314 h 0.529753 V 0 H 31.483832 Q 31.387513,0.50348438 31.098557,0.97194377 30.813979,1.4447813 30.249201,1.8037875 29.684423,2.1671719 28.751882,2.346675 L 28.493573,1.6505532 Q 30.476863,1.2696563 30.792088,0 h -0.691743 q -1.65931,0 -1.65931,-1.3440844 0,-0.4290563 0.170747,-0.8581125 0.175125,-0.4290563 0.503484,-0.7136344 0.332738,-0.2845781 0.801197,-0.2845781 z m 0.1401,2.40359064 h 0.774928 q -0.05254,-0.84497814 -0.2802,-1.23025314 -0.223284,-0.385275 -0.647962,-0.385275 -0.2802,0 -0.442191,0.1795031 -0.157612,0.1795031 -0.223284,0.4246781 -0.06129,0.2407969 -0.06129,0.4378126 0,0.3064687 0.205772,0.44219058 0.21015,0.13134376 0.674231,0.13134376 z m -4.238025,-5.78350324 0.634828,0.6348282 -0.634828,0.6348281 -0.634828,-0.6348281 z m -0.332737,5.78350324 q 0.494728,0 0.796818,-0.0569156 0.306469,-0.0569156 0.446569,-0.24955311 0.144478,-0.1970156 0.144478,-0.6085594 -0.214528,0.065672 -0.437812,0.1006969 -0.218906,0.035025 -0.472838,0.035025 -1.488562,0 -1.488562,-1.2214969 0,-0.4203 0.166368,-0.8406 0.170747,-0.4203 0.499107,-0.7005 0.328359,-0.2845782 0.796819,-0.2845782 0.429056,0 0.735525,0.2189063 0.310846,0.2189062 0.507862,0.5910469 0.201394,0.3677625 0.297713,0.8362219 0.09632,0.4640812 0.09632,0.9588093 0,0.6523407 -0.118209,1.05512818 -0.113831,0.39840939 -0.367763,0.60855939 -0.253931,0.20577188 -0.661096,0.2802 Q 26.019932,0 25.433263,0 h -1.61115 V -0.79681876 Z M 26.02431,-2.3291625 q 0.201394,0 0.398409,-0.035025 0.201394,-0.039403 0.402788,-0.096319 -0.03503,-0.3108469 -0.131344,-0.63045 -0.09194,-0.3196031 -0.275822,-0.5341313 -0.183881,-0.2189062 -0.49035,-0.2189062 -0.271443,0 -0.437812,0.1707469 -0.161991,0.1707468 -0.236419,0.4071656 -0.07005,0.2364188 -0.07005,0.4378125 0,0.3020906 0.214528,0.4027875 0.218906,0.096319 0.626072,0.096319 z m -3.021501,4.5401157 q -0.945675,0 -1.514832,-0.3458719 -0.564778,-0.3458719 -0.818709,-0.92378441 -0.249553,-0.57353438 -0.249553,-1.26090002 0,-0.46408126 0.09632,-0.95005317 0.09632,-0.49035 0.262687,-0.9544312 l 0.696122,0.2802 q -0.126966,0.4027875 -0.214528,0.8274656 -0.08756,0.42467814 -0.08756,0.82308752 0,0.47283751 0.166369,0.86249064 0.170747,0.38965313 0.569156,0.62169374 0.39841,0.2320406 1.094532,0.2320406 0.621693,0 1.112043,-0.1576125 0.49035,-0.1532343 0.774929,-0.40278746 0.284578,-0.245175 0.284578,-0.52099688 0,-0.14010001 -0.08319,-0.26268751 -0.08318,-0.1225875 -0.30209,-0.1225875 h -0.709257 q -0.647962,0 -0.91065,-0.31084688 -0.258309,-0.31522501 -0.258309,-0.87124687 0,-0.5779125 0.236419,-1.0595063 0.236418,-0.4859719 0.674231,-0.7749281 0.437813,-0.2889563 1.037616,-0.2889563 0.227662,0 0.477215,0.061294 0.253932,0.061294 0.507863,0.2320406 l -0.249553,0.665475 q -0.345872,-0.175125 -0.735525,-0.175125 -0.556022,0 -0.871247,0.3896531 -0.310847,0.3896532 -0.310847,0.9500532 0,0.2057719 0.08318,0.30209061 0.08319,0.0919406 0.337116,0.0919406 h 0.735525 q 0.604181,0 0.823087,0.32835938 0.223285,0.32398125 0.223285,0.82746564 0,0.48597188 -0.332738,0.91502814 -0.332737,0.4334344 -0.976322,0.7005 -0.639206,0.2714438 -1.567368,0.2714438 z M 19.955634,0 q -0.302091,0 -0.507863,-0.07880625 -0.201393,-0.08318438 -0.315225,-0.175125 -0.06567,0.57353438 -0.319603,1.10766564 -0.249553,0.53850941 -0.753037,0.93691881 -0.503485,0.3984093 -1.33095,0.5604 l -0.25831,-0.6917438 q 1.068263,-0.2320406 1.506075,-0.81433126 0.437813,-0.57791251 0.437813,-1.37035315 0,-0.37214063 -0.08319,-0.77930629 -0.07881,-0.4115437 -0.223284,-0.8362219 l 0.726769,-0.245175 0.236419,0.9150282 q 0.09632,0.3677625 0.306468,0.52099686 0.21015,0.15323438 0.529754,0.15323438 h 0.166368 V 0 Z m -6.63286,-0.79681876 h 0.512241 q 0.556022,0 0.79244,-0.24955314 0.240797,-0.2495531 0.240797,-0.7661719 0,-0.21015 -0.01313,-0.3984094 -0.0088,-0.1882593 -0.02627,-0.3765187 l 0.731147,-0.087562 0.07005,1.0244812 q 0.05254,0.85373444 0.888759,0.85373444 h 0.09194 V 0 H 16.510049 Q 16.024077,0 15.730743,-0.175125 15.441787,-0.35025001 15.262284,-0.66985314 15.025865,-0.32398126 14.64059,-0.16199063 14.255315,0 13.835015,0 H 13.322774 Z M 14.224668,0.66985314 14.859496,1.3046813 14.224668,1.9395094 13.58984,1.3046813 Z M 9.5269397,-3.5550376 9.8728116,-4.2030001 q 1.5717464,0.7661719 2.3422964,1.3703532 0.770551,0.5998031 0.770551,1.225875 0,0.77492814 -0.481594,1.16895939 -0.477216,0.39403126 -1.282791,0.39403126 -0.302091,0 -0.643584,-0.04815938 Q 10.236196,-0.1401 9.9297272,-0.21015 9.6232585,-0.28457813 9.4131085,-0.35462813 9.0322116,-0.21452813 8.5199709,-0.105075 8.0077303,0 7.5305147,0 H 7.0970803 V -0.79681876 H 7.473599 q 0.2889563,0 0.5078626,-0.0131344 0.2232843,-0.0131344 0.4859718,-0.0437812 Q 8.1653428,-1.0989094 8.0296209,-1.3878656 7.8982772,-1.6812 7.8982772,-1.9920469 q 0,-0.455325 0.2145281,-0.7836844 0.2145281,-0.3283594 0.5691563,-0.5034844 0.3546281,-0.1795031 0.7749281,-0.1795031 0.1882594,0 0.3765188,0.048159 -0.1488563,-0.07005 -0.3064688,-0.1444782 z m 0.7924403,2.71881571 q 0.192638,0.0218906 0.4203,0.0437812 0.227663,0.0175125 0.402788,0.0175125 0.529753,0 0.805575,-0.19701563 0.2802,-0.20139373 0.2802,-0.62169373 0,-0.2145282 -0.245175,-0.4640813 -0.245175,-0.2539312 -0.656719,-0.5209969 -0.407166,-0.2714437 -0.901894,-0.5341312 0.240797,0.1926375 0.385275,0.4640812 0.148857,0.2714438 0.148857,0.5735344 0,0.4115438 -0.166369,0.7048782 -0.161991,0.2889562 -0.472838,0.53413121 z M 8.6513147,-2.0008032 q 0,0.2583094 0.2145281,0.5166188 0.2189063,0.2539313 0.63045,0.4115438 0.7880622,-0.3196032 0.7880622,-0.9194063 0,-0.3808969 -0.23204,-0.5779125 -0.2276628,-0.2013938 -0.551644,-0.2013938 -0.3765188,0 -0.6129376,0.21015 -0.2364187,0.21015 -0.2364187,0.5604 z M 3.6309366,2.3554313 3.3726272,1.6593094 q 1.0682625,-0.2320406 1.506075,-0.81433126 0.4378125,-0.57791251 0.4378125,-1.37035315 0,-0.37214063 -0.083184,-0.77930629 Q 5.1545241,-1.716225 5.010046,-2.1409032 l 0.7267687,-0.245175 q 0.315225,0.8975157 0.315225,1.72935944 0,0.73114689 -0.2583093,1.35284065 Q 5.5397991,1.3221938 5.0012897,1.7556282 4.4671585,2.1934407 3.6309366,2.3554313 Z"
         id="path10" />
      <path
         style="font-size:8.9664px;font-family:Vazirmatn"
         d="m 41.106823,10.959 h -0.713634 v -0.796819 h 0.704878 q 0.437812,0 0.591047,-0.2539314 0.157612,-0.2539312 0.157612,-0.6435844 0,-0.2845781 -0.05254,-0.6085594 -0.05254,-0.3239812 -0.113832,-0.6523406 l 0.761794,-0.1926375 q 0.07443,0.35025 0.118209,0.6873656 0.04378,0.3371157 0.04378,0.6435844 0,0.525375 -0.144478,0.9369183 -0.144479,0.411544 -0.472838,0.647963 Q 41.658467,10.959 41.106823,10.959 Z m 0.534131,-5.166188 0.634828,0.6348282 -0.634828,0.6348281 -0.634828,-0.6348281 z m -2.83703,-0.8624906 h 0.739904 V 9.115809 q 0,0.6173156 0.227662,0.8318437 0.227663,0.2145283 0.687366,0.2145283 h 0.109453 V 10.959 h -0.109453 q -0.836222,0 -1.247766,-0.442191 Q 38.803924,10.07024 38.803924,9.1114309 Z M 37.493714,10.959 q -0.302091,0 -0.507862,-0.07881 -0.201394,-0.08318 -0.315225,-0.175125 -0.06567,0.573535 -0.319604,1.107666 -0.249553,0.538509 -0.753037,0.936919 -0.503484,0.398409 -1.33095,0.5604 l -0.258309,-0.691744 q 1.068262,-0.232041 1.506075,-0.814331 0.437812,-0.577913 0.437812,-1.370353 0,-0.372141 -0.08318,-0.7793066 -0.07881,-0.4115438 -0.223285,-0.8362219 l 0.726769,-0.245175 0.236419,0.9150281 q 0.09632,0.3677625 0.306469,0.5209964 0.21015,0.153235 0.529753,0.153235 h 0.166368 V 10.959 Z M 33.570911,8.5291402 v 0.7574157 q -0.18826,0.017513 -0.442191,0.096319 -0.253931,0.074428 -0.538509,0.21015 0.0088,0.3633844 0.35025,0.4684594 0.341493,0.100697 0.967565,0.100697 h 0.240797 V 10.959 h -0.258309 q -0.893138,0 -1.339707,-0.236419 -0.44219,-0.236419 -0.529753,-0.8493564 -0.866868,0.4728374 -1.6812,0.7793064 Q 29.529901,10.959 28.592982,10.959 h -0.731146 v -0.796819 h 0.744281 q 0.51224,0 0.941297,-0.09194 0.429056,-0.09194 0.836222,-0.253931 Q 30.795179,9.6543184 31.241748,9.4354121 31.692695,9.2121277 32.248717,8.9581965 31.93787,8.8443652 31.605132,8.7130215 31.272395,8.5772996 30.970304,8.4590902 30.672592,8.3408808 30.449307,8.2664527 q -0.223284,-0.078806 -0.315225,-0.078806 -0.267065,0 -0.472837,0.1576125 -0.201394,0.1532343 -0.372141,0.3721406 l -0.118209,0.1488562 -0.669853,-0.3283593 0.06567,-0.105075 Q 28.85567,7.9643621 29.236567,7.6841621 29.621842,7.399584 30.138461,7.399584 q 0.214528,0 0.516618,0.1094531 0.306469,0.1094531 0.665475,0.2758219 0.359007,0.1619906 0.744282,0.3327375 0.385275,0.1663687 0.77055,0.2845781 0.385275,0.1138312 0.735525,0.1269656 z M 26.018644,10.959 h -0.805575 v -0.796819 h 0.796819 q 0.437812,0 0.591047,-0.2539314 0.157612,-0.2539312 0.157612,-0.6435844 0,-0.2845781 -0.05254,-0.6085594 -0.05254,-0.3239812 -0.113831,-0.6523406 l 0.761793,-0.1926375 q 0.07443,0.35025 0.11821,0.6873656 0.04378,0.3371157 0.04378,0.6435844 0,0.525375 -0.144478,0.9369183 -0.144478,0.411544 -0.472838,0.647963 Q 26.570288,10.959 26.018644,10.959 Z m 0.09632,0.669853 0.634828,0.634828 -0.634828,0.634828 -0.634828,-0.634828 z m -1.208956,1.584881 q -0.945675,0 -1.514831,-0.345872 -0.564779,-0.345872 -0.81871,-0.923784 -0.249553,-0.573535 -0.249553,-1.2609 0,-0.297713 0.04378,-0.6873659 0.04816,-0.3896531 0.214528,-0.8887594 l 0.696122,0.2583094 q -0.126965,0.4378125 -0.166368,0.7749279 -0.03503,0.337116 -0.03503,0.569157 0,0.472837 0.166368,0.86249 0.166369,0.389653 0.564778,0.621694 0.402788,0.232041 1.09891,0.232041 0.656719,0 1.125178,-0.161991 0.472838,-0.161991 0.722391,-0.385275 0.253931,-0.223284 0.253931,-0.407166 0,-0.21015 -0.183881,-0.359006 -0.179503,-0.148856 -0.586669,-0.148856 h -0.647963 q -0.08756,0 -0.126965,-0.07443 -0.0394,-0.07881 -0.07443,-0.201394 l -0.11821,-0.4203 q -0.0044,-0.03502 0.01751,-0.06567 0.02189,-0.03503 0.07881,-0.03503 h 2.429859 v 0.796819 h -0.179503 q 0.06567,0.131344 0.08319,0.249553 0.02189,0.118209 0.02189,0.245175 0,0.288956 -0.170747,0.595425 -0.166368,0.310847 -0.516618,0.573534 -0.345872,0.262688 -0.875625,0.424678 -0.529754,0.161991 -1.252144,0.161991 z m -4.710863,-4.8422063 0.731147,-0.087562 0.07005,1.0244813 q 0.05254,0.8537345 0.888759,0.8537345 h 0.09194 V 10.959 h -0.100697 q -0.485972,0 -0.779306,-0.175125 Q 20.808082,10.60875 20.628579,10.289146 20.39216,10.635018 20.006885,10.797009 19.62161,10.959 19.20131,10.959 h -0.4203 v -0.796819 h 0.4203 q 0.556022,0 0.79244,-0.2495533 0.240797,-0.2495531 0.240797,-0.7661718 0,-0.21015 -0.01313,-0.3984094 -0.0088,-0.1882594 -0.02627,-0.3765188 z M 20.278329,6.1912214 20.913157,6.8260496 20.278329,7.4608777 19.6435,6.8260496 Z m -4.759022,3.9709596 h 0.661097 q 0.556021,0 0.79244,-0.2495533 0.240797,-0.2495531 0.240797,-0.7661718 0,-0.21015 -0.01313,-0.3984094 -0.0088,-0.1882594 -0.02627,-0.3765188 l 0.731147,-0.087562 0.07005,1.0244813 q 0.05254,0.8537345 0.888759,0.8537345 h 0.09194 V 10.959 h -0.100697 q -0.485972,0 -0.779306,-0.175125 -0.288957,-0.175125 -0.46846,-0.494729 -0.236418,0.345872 -0.621693,0.507863 Q 16.600704,10.959 16.180404,10.959 h -0.661097 z m 1.580503,1.492941 0.612937,0.608559 -0.612937,0.617316 -0.60856,-0.617316 z m -1.453538,0 0.612938,0.608559 -0.612938,0.617316 -0.608559,-0.617316 z M 11.946756,5.2017652 12.537803,5.792812 11.946756,6.3838589 11.355709,5.792812 Z m 0.74866,1.1076656 0.591047,0.5910469 -0.591047,0.5910469 -0.591047,-0.5910469 z m -1.497319,0 0.591047,0.5910469 L 11.198097,7.4915246 10.60705,6.9004777 Z M 13.303975,10.959 q -0.4203,0 -0.678609,-0.175125 -0.25831,-0.175125 -0.4203,-0.494729 -0.245175,0.354629 -0.547266,0.512241 -0.297712,0.157613 -0.647962,0.157613 -0.503485,0 -0.779307,-0.170747 Q 9.9590876,10.613128 9.797097,10.289146 9.5913251,10.613128 9.271722,10.788253 8.9521188,10.959 8.3610719,10.959 H 7.9582844 v -0.796819 h 0.4115438 q 0.5604,0 0.8187094,-0.205772 0.2583094,-0.21015 0.2583094,-0.7617938 0,-0.1138312 -0.013134,-0.2670656 -0.00876,-0.1576125 -0.030647,-0.4378125 l 0.7311473,-0.091941 0.07005,0.9150281 q 0.02627,0.3677625 0.223284,0.6085594 0.201394,0.240797 0.591047,0.240797 0.464081,0 0.63045,-0.2495533 0.166369,-0.2495531 0.166369,-0.7180125 0,-0.1138312 -0.01314,-0.2714437 -0.0088,-0.1576125 -0.03065,-0.4334344 l 0.731147,-0.091941 0.07005,0.9150281 q 0.02189,0.3546281 0.18826,0.6041813 0.166368,0.2451751 0.538509,0.2451751 0.647963,0 0.647963,-0.9675658 0,-0.1576125 -0.01314,-0.3283594 -0.0088,-0.1707468 -0.03065,-0.4509468 l 0.731147,-0.087563 0.07005,0.9850781 q 0.05254,0.8493564 0.866869,0.8493564 h 0.131344 V 10.959 H 15.5806 q -0.459703,0 -0.766172,-0.166369 -0.306468,-0.170747 -0.4203,-0.507863 Q 14.210247,10.60875 13.96945,10.783875 13.733031,10.959 13.303975,10.959 Z m -7.1888809,0 H 5.4014598 v -0.796819 h 0.7048781 q 0.4378125,0 0.5910469,-0.2539314 0.1576125,-0.2539312 0.1576125,-0.6435844 0,-0.2845781 -0.052537,-0.6085594 Q 6.7499223,8.3321246 6.6886285,8.0037652 L 7.4504223,7.8111277 q 0.074428,0.35025 0.1182094,0.6873656 0.043781,0.3371157 0.043781,0.6435844 0,0.525375 -0.1444781,0.9369183 Q 7.3234567,10.49054 6.9950973,10.726959 6.6667379,10.959 6.1150941,10.959 Z M 6.6492254,5.792812 7.2840535,6.4276402 6.6492254,7.0624683 6.0143973,6.4276402 Z M 3.8122005,4.9303214 H 4.5521036 V 9.115809 q 0,0.6173156 0.2276625,0.8318437 0.2276625,0.2145283 0.6873656,0.2145283 H 5.5765849 V 10.959 H 5.4671317 q -0.8362218,0 -1.2477656,-0.442191 Q 3.8122005,10.07024 3.8122005,9.1114309 Z M 0.05139109,11.628853 0.68621923,12.263681 0.05139109,12.898509 -0.58343704,12.263681 Z M -2.9520027,10.162181 h 0.7442813 q 0.5122406,0 0.9412968,-0.09194 0.42905631,-0.09194 0.83622194,-0.253931 Q -0.01865891,9.6543184 0.42790985,9.4354121 0.87885673,9.2121277 1.4348786,8.9581965 1.1240317,8.8443652 0.79129423,8.7130215 0.45855673,8.5772996 0.1564661,8.4590902 -0.14124641,8.3408808 -0.36453079,8.2664527 q -0.22328438,-0.078806 -0.315225,-0.078806 -0.26706563,0 -0.47283751,0.1576125 -0.2013938,0.1532343 -0.3721406,0.3721406 l -0.1182094,0.1488562 -0.6698531,-0.3283593 0.065672,-0.105075 q 0.2889563,-0.4684594 0.6698532,-0.7486594 0.385275,-0.2845781 0.90189373,-0.2845781 0.21452813,0 0.51661876,0.1094531 0.30646876,0.1094531 0.66547501,0.2758219 0.35900626,0.1619906 0.7442813,0.3327375 0.385275,0.1663687 0.77055,0.2845781 0.385275,0.1138312 0.735525,0.1269656 V 9.2865559 Q 2.4768724,9.3172027 2.0390599,9.4923277 1.6056255,9.6630746 0.90950361,10.030837 0.3491036,10.32855 -0.13249016,10.5387 -0.60970579,10.744472 -1.108812,10.853925 -1.6035402,10.959 -2.2208558,10.959 h -0.7311469 z"
         id="path11" />
    </g>
    <path
       id="path2"
       d="M 190.45746,82.20578 H 93.01062 c -4.40189,0 -7.97022,-3.56833 -7.97022,-7.97021 V 39.15166 c 0,-4.40189 3.56833,-7.97022 7.97022,-7.97022 h 97.44684 c 4.40188,0 7.97021,3.56833 7.97021,7.97022 v 35.08391 c 0,4.40188 -3.56833,7.97021 -7.97021,7.97021 z"
       style="fill:#ffe6e6;fill-opacity:1;fill-rule:nonzero;stroke:#be1e2d;stroke-width:0.3985;stroke-linecap:butt;stroke-linejoin:miter;stroke-miterlimit:10;stroke-dasharray:none;stroke-opacity:1"
       transform="matrix(1.3333333,0,0,-1.3333333,95.781333,129.79333)" />
    <g
       id="text2"
       transform="matrix(1.3333333,0,0,1.3333333,239.90667,49.368)"
       aria-label="ناﺮﺤﺑیدﺎﺼﺘﻗادﺎﺣ،مرﻮﺗﺮﺑا)(ﯽﻄﺤﻗ">
      <path
         style="font-size:8.9664px;font-family:Vazirmatn"
         d="m 59.04105,0 h -0.713634 v -0.79681876 h 0.704878 q 0.437812,0 0.591047,-0.25393124 0.157612,-0.2539313 0.157612,-0.6435844 0,-0.2845781 -0.05254,-0.6085594 -0.05254,-0.3239812 -0.113832,-0.6523406 l 0.761794,-0.1926375 q 0.07443,0.35025 0.118209,0.6873656 0.04378,0.3371156 0.04378,0.6435844 0,0.525375 -0.144478,0.93691876 -0.144479,0.41154376 -0.472838,0.64796251 Q 59.592694,0 59.04105,0 Z m 0.534131,-5.1661876 0.634828,0.6348282 -0.634828,0.6348281 -0.634828,-0.6348281 z m -2.83703,-0.8624906 h 0.739904 v 4.1854875 q 0,0.6173157 0.227662,0.8318438 0.227663,0.21452814 0.687366,0.21452814 h 0.109453 V 0 H 58.393083 Q 57.556861,0 57.145317,-0.44219063 56.738151,-0.88875939 56.738151,-1.8475688 Z M 55.427937,0 q -0.30209,0 -0.507862,-0.07880625 -0.201394,-0.08318438 -0.315225,-0.175125 -0.06567,0.57353438 -0.319603,1.10766564 -0.249554,0.53850941 -0.753038,0.93691881 -0.503484,0.3984093 -1.33095,0.5604 L 51.94295,1.6593094 q 1.068262,-0.2320406 1.506075,-0.81433126 0.437812,-0.57791251 0.437812,-1.37035315 0,-0.37214063 -0.08318,-0.77930629 -0.07881,-0.4115437 -0.223285,-0.8362219 l 0.726769,-0.245175 0.236419,0.9150282 q 0.09632,0.3677625 0.306469,0.52099686 0.21015,0.15323438 0.529753,0.15323438 h 0.166369 V 0 Z m -3.922799,-2.4298594 v 0.7574156 q -0.18826,0.017512 -0.442191,0.096319 -0.253931,0.074428 -0.538509,0.21015 0.0088,0.3633844 0.35025,0.46845936 0.341493,0.10069688 0.967565,0.10069688 H 52.08305 V 0 h -0.258309 q -0.893138,0 -1.339707,-0.23641875 -0.44219,-0.23641876 -0.529753,-0.84935625 -0.866868,0.47283749 -1.6812,0.77930624 Q 47.464128,0 46.527209,0 h -0.731146 v -0.79681876 h 0.744281 q 0.51224,0 0.941297,-0.0919406 0.429056,-0.0919406 0.836222,-0.25393121 0.411543,-0.1619907 0.858112,-0.3808969 0.450947,-0.2232844 1.006969,-0.4772157 -0.310847,-0.1138312 -0.643585,-0.245175 -0.332737,-0.1357218 -0.634828,-0.2539312 -0.297712,-0.1182094 -0.520997,-0.1926375 -0.223284,-0.078806 -0.315225,-0.078806 -0.267065,0 -0.472837,0.1576125 -0.201394,0.1532344 -0.372141,0.3721407 l -0.118209,0.1488562 -0.669853,-0.3283594 0.06567,-0.105075 q 0.288956,-0.4684593 0.669853,-0.7486594 0.385275,-0.2845781 0.901894,-0.2845781 0.214528,0 0.516618,0.1094531 0.306469,0.1094532 0.665475,0.2758219 0.359007,0.1619907 0.744282,0.3327375 0.385275,0.1663688 0.77055,0.2845782 0.385275,0.1138312 0.735525,0.1269656 z M 43.952873,0 h -0.805575 v -0.79681876 h 0.796819 q 0.437812,0 0.591047,-0.25393124 0.157612,-0.2539313 0.157612,-0.6435844 0,-0.2845781 -0.05254,-0.6085594 -0.05254,-0.3239812 -0.113831,-0.6523406 l 0.761793,-0.1926375 q 0.07443,0.35025 0.11821,0.6873656 0.04378,0.3371156 0.04378,0.6435844 0,0.525375 -0.144478,0.93691876 -0.144478,0.41154376 -0.472838,0.64796251 Q 44.504517,0 43.952873,0 Z m 0.09632,0.66985314 0.634828,0.63482816 -0.634828,0.6348281 -0.634828,-0.6348281 z m -1.296519,-1.4666719 h 0.950053 q 0.437812,0 0.591047,-0.25393124 0.157612,-0.2539313 0.157612,-0.6435844 0,-0.2845781 -0.05254,-0.6085594 -0.05254,-0.3239812 -0.113832,-0.6523406 l 0.761794,-0.1926375 q 0.07443,0.35025 0.11821,0.6873656 0.04378,0.3371156 0.04378,0.6435844 0,0.525375 -0.144478,0.93691876 -0.144478,0.41154376 -0.472838,0.64796251 Q 44.263126,0 43.711482,0 h -0.958809 z m 1.580503,1.49294065 0.612937,0.60855941 -0.612937,0.6173156 -0.60856,-0.6173156 z m -1.453538,0 0.612938,0.60855941 -0.612938,0.6173156 -0.608559,-0.6173156 z M 41.036449,-1.5936375 q 0,-0.1138313 -0.05254,-0.2933344 -0.04816,-0.1838813 -0.11821,-0.3414938 l -0.774928,-1.7556281 0.682988,-0.3196031 0.993834,2.3379187 q 0.201394,0.4728376 0.35025,0.7267688 0.153235,0.25393126 0.297713,0.35025001 0.148856,0.0919406 0.337115,0.0919406 h 0.183882 V 0 h -0.183882 q -0.345872,0 -0.564778,-0.08318438 -0.214528,-0.08318437 -0.37214,-0.24955313 -0.157613,-0.16636875 -0.319604,-0.4203 -0.306468,0.385275 -0.783684,0.56915626 -0.472837,0.17950312 -1.182094,0.17950312 -0.306468,0 -0.551643,-0.02626875 -0.245175,-0.03064687 -0.464082,-0.08318437 v -0.79244064 q 0.503485,0.11820938 0.950053,0.11820938 1.571747,0 1.571747,-0.80557499 z m -4.632061,-4.4350407 h 0.739903 v 4.1854875 q 0,0.6173157 0.227663,0.8318438 0.227662,0.21452814 0.687366,0.21452814 h 0.109453 V 0 H 38.05932 Q 37.223098,0 36.811554,-0.44219063 36.404388,-0.88875939 36.404388,-1.8475688 Z M 31.864272,0 H 31.632231 Q 30.704069,0 30.218097,-0.175125 29.732125,-0.35025001 29.530731,-0.66547501 29.2768,-0.31960313 28.957197,-0.1576125 28.641972,0 28.116597,0 h -0.179503 l 0.0044,-0.79681876 h 0.175125 q 0.612937,0 0.823087,-0.25830934 0.214529,-0.2626875 0.214529,-0.7574157 0,-0.21015 -0.01751,-0.3896531 -0.01313,-0.1795031 -0.02189,-0.385275 l 0.731147,-0.087562 0.06567,1.0244812 q 0.02189,0.2933344 0.122588,0.5078626 0.100697,0.21014996 0.310847,0.21014996 0.783684,-1.33095006 1.532343,-1.96140006 0.753038,-0.6348281 1.506075,-0.6348281 0.499107,0 0.884382,0.2189062 0.389653,0.2145282 0.608559,0.5866688 0.218906,0.3721406 0.218906,0.8406 -0.0044,0.5647782 -0.337115,1.00259066 0.126965,0.0306469 0.328359,0.0569156 0.205772,0.0262688 0.604181,0.0262688 h 0.131344 V 0 H 35.695131 Q 35.13911,0 34.775725,-0.11383125 34.416719,-0.2276625 34.171544,-0.42905626 33.812538,-0.2276625 33.225869,-0.11383125 32.6392,0 31.864272,0 Z m 1.554234,-2.73195 q -1.055128,0 -2.281003,1.93513124 h 0.709256 q 1.247766,0 1.860704,-0.24955314 0.612937,-0.2495531 0.612937,-0.7924406 0,-0.385275 -0.249553,-0.6392063 Q 33.825672,-2.73195 33.418506,-2.73195 Z m -6.768578,-2.0051813 0.612937,0.6085594 -0.612937,0.6173156 -0.60856,-0.6173156 z m -1.453538,0 0.612938,0.6085594 -0.612938,0.6173156 -0.608559,-0.6173156 z m -0.472837,3.94031254 h 0.612937 q 0.556022,0 0.792441,-0.24955314 0.240797,-0.2495531 0.240797,-0.7661719 0,-0.21015 -0.01313,-0.3984094 -0.0088,-0.1882593 -0.02627,-0.3765187 l 0.731147,-0.087562 0.07005,1.0244812 q 0.05254,0.85373444 0.888759,0.85373444 h 0.09194 V 0 H 28.011525 Q 27.525553,0 27.232218,-0.175125 26.943262,-0.35025001 26.763759,-0.66985314 26.52734,-0.32398126 26.142065,-0.16199063 25.75679,0 25.33649,0 h -0.612937 z m -1.370355,-5.70031884 0.612937,0.6085594 -0.612937,0.6173156 -0.60856,-0.6173156 z m -1.453538,0 0.612938,0.6085594 -0.612938,0.6173156 -0.608559,-0.6173156 z m 0.389653,5.70031884 q 0.494728,0 0.796819,-0.0569156 0.306469,-0.0569156 0.446569,-0.24955311 0.144478,-0.1970156 0.144478,-0.6085594 -0.214528,0.065672 -0.437813,0.1006969 -0.218906,0.035025 -0.472837,0.035025 -1.488563,0 -1.488563,-1.2214969 0,-0.4203 0.166369,-0.8406 0.170747,-0.4203 0.499106,-0.7005 0.32836,-0.2845782 0.796819,-0.2845782 0.429056,0 0.735525,0.2189063 0.310847,0.2189062 0.507863,0.5910469 0.201393,0.3677625 0.297712,0.8362219 0.09632,0.4640812 0.09632,0.9588093 0,0.6523407 -0.11821,1.05512818 -0.113831,0.39840939 -0.367762,0.60855939 -0.253931,0.20577188 -0.661097,0.2802 Q 22.823444,0 22.236776,0 h -1.61115 v -0.79681876 z m 0.53851,-1.53234374 q 0.201393,0 0.398409,-0.035025 0.201394,-0.039403 0.402787,-0.096319 -0.03503,-0.3108469 -0.131343,-0.63045 -0.09194,-0.3196031 -0.275822,-0.5341313 -0.183881,-0.2189062 -0.49035,-0.2189062 -0.271444,0 -0.437813,0.1707469 -0.16199,0.1707468 -0.236418,0.4071656 -0.07005,0.2364188 -0.07005,0.4378125 0,0.3020906 0.214528,0.4027875 0.218906,0.096319 0.626072,0.096319 z m -2.784487,-3.6995157 v 6.02430007 H 19.303432 V -6.0286782 Z m -1.870054,5.24061569 q 1.6812,0 1.6812,-0.87124689 0,-0.4115438 -0.4203,-0.8712469 -0.4203,-0.4597031 -1.392243,-0.9894563 l 0.345872,-0.6917437 q 1.125178,0.5735344 1.668065,1.2127406 0.547266,0.6348282 0.547266,1.3265719 0,0.82308754 -0.569156,1.24338754 -0.564779,0.42030001 -1.795032,0.42030001 -0.586668,0 -1.059506,-0.105075 v -0.79244064 q 0.573534,0.11820938 0.993834,0.11820938 z M 15.06919,-6.0286782 h 0.739903 v 4.1854875 q 0,0.6173157 0.227663,0.8318438 0.227662,0.21452814 0.687365,0.21452814 h 0.109453 V 0 H 16.724121 Q 15.887899,0 15.476356,-0.44219063 15.06919,-0.88875939 15.06919,-1.8475688 Z m -6.764203,5.23185944 h 0.7442813 q 0.5122406,0 0.9412969,-0.0919406 0.4290558,-0.0919406 0.8362218,-0.25393121 0.411544,-0.1619907 0.858113,-0.3808969 0.450946,-0.2232844 1.006968,-0.4772157 -0.310847,-0.1138312 -0.643584,-0.245175 -0.332738,-0.1357218 -0.634828,-0.2539312 -0.297713,-0.1182094 -0.520997,-0.1926375 -0.223284,-0.078806 -0.315225,-0.078806 -0.267066,0 -0.472838,0.1576125 Q 9.9030027,-2.4605063 9.7322558,-2.2416 l -0.1182094,0.1488562 -0.6698531,-0.3283594 0.065672,-0.105075 q 0.2889563,-0.4684593 0.6698532,-0.7486594 0.3852747,-0.2845781 0.9018937,-0.2845781 0.214528,0 0.516619,0.1094531 0.306469,0.1094532 0.665475,0.2758219 0.359006,0.1619907 0.744281,0.3327375 0.385275,0.1663688 0.77055,0.2845782 0.385275,0.1138312 0.735525,0.1269656 v 0.7574156 q -0.2802,0.030647 -0.718012,0.2057719 -0.433435,0.1707469 -1.129557,0.53850938 -0.5604,0.29771251 -1.041993,0.50786251 Q 10.647284,-0.21452813 10.148178,-0.105075 9.6534495,0 9.0361339,0 H 8.304987 Z"
         id="path12" />
      <path
         style="font-size:8.9664px;font-family:Vazirmatn"
         d="m 60.260399,8.6079465 q -0.306469,0.2802 -0.485972,0.5560219 -0.175125,0.2758218 -0.175125,0.6742312 0.310847,0 0.429056,0.1357219 0.122588,0.1357215 0.122588,0.4071655 0,0.267066 -0.135722,0.424678 -0.135722,0.153235 -0.407166,0.153235 -0.345872,0 -0.499106,-0.192638 -0.148856,-0.192637 -0.148856,-0.516619 0,-0.5954246 0.2802,-1.0551278 0.2802,-0.4640812 0.731146,-0.8143312 z m -3.712652,2.4517505 q -0.437813,0 -0.809953,-0.18826 Q 55.370031,10.6788 54.971622,10.293525 54.687044,10.613128 54.424356,10.788253 54.161669,10.959 53.684453,10.959 h -0.192637 v -0.796819 h 0.170747 q 0.293334,0 0.494728,-0.1663689 0.201393,-0.1707469 0.359006,-0.4378125 0.157612,-0.2670656 0.310847,-0.5647781 0.157612,-0.3020907 0.35025,-0.5691563 0.192637,-0.2670656 0.464081,-0.4334344 0.275822,-0.1707468 0.678609,-0.1707468 0.485972,0 0.844979,0.2364187 0.363384,0.2320406 0.5604,0.6260719 0.201393,0.3940313 0.201393,0.8800031 0,0.7136343 -0.363384,1.1076653 -0.359006,0.389654 -1.015725,0.389654 z m -0.21015,-2.4648849 q -0.218906,0 -0.398409,0.1488562 -0.179504,0.1444782 -0.323982,0.3765188 -0.144478,0.2320406 -0.258309,0.4815938 0.262687,0.2758218 0.542887,0.4509471 0.359007,0.23204 0.639207,0.23204 0.647962,0 0.647962,-0.6523403 0,-0.455325 -0.227662,-0.7442812 Q 56.736006,8.5948121 56.337597,8.5948121 Z M 52.849353,10.959 q -0.302091,0 -0.507863,-0.07881 -0.201394,-0.08318 -0.315225,-0.175125 -0.06567,0.573535 -0.319603,1.107666 -0.249553,0.538509 -0.753038,0.936919 -0.503484,0.398409 -1.33095,0.5604 l -0.258309,-0.691744 q 1.068263,-0.232041 1.506075,-0.814331 0.437813,-0.577913 0.437813,-1.370353 0,-0.372141 -0.08319,-0.7793066 -0.07881,-0.4115438 -0.223284,-0.8362219 l 0.726769,-0.245175 0.236418,0.9150281 q 0.09632,0.3677625 0.306469,0.5209964 0.21015,0.153235 0.529753,0.153235 h 0.166369 V 10.959 Z m -5.51206,-3.2004098 q 0.682988,0 1.151447,0.6129375 0.468459,0.6085594 0.485972,1.7906533 h 0.529753 V 10.959 h -0.599803 q -0.09632,0.503484 -0.385275,0.971943 -0.284578,0.472838 -0.849356,0.831844 -0.564779,0.363385 -1.497319,0.542888 l -0.25831,-0.696122 Q 47.897693,12.228656 48.212918,10.959 h -0.691744 q -1.659309,0 -1.659309,-1.3440848 0,-0.4290562 0.170747,-0.8581125 0.175125,-0.4290562 0.503484,-0.7136344 0.332738,-0.2845781 0.801197,-0.2845781 z m 0.1401,2.4035908 h 0.774928 q -0.05254,-0.8449783 -0.2802,-1.2302533 -0.223284,-0.385275 -0.647962,-0.385275 -0.2802,0 -0.442191,0.1795031 -0.157612,0.1795032 -0.223284,0.4246782 -0.06129,0.2407969 -0.06129,0.4378125 0,0.3064687 0.205772,0.4421905 0.21015,0.131344 0.674231,0.131344 z M 44.517781,5.8190808 45.130718,6.4276402 44.517781,7.0449558 43.909222,6.4276402 Z m -1.453538,0 0.612938,0.6085594 -0.612938,0.6173156 -0.608559,-0.6173156 z m -0.472837,4.3431002 h 0.897516 q 0.437812,0 0.591046,-0.2539314 0.157613,-0.2539312 0.157613,-0.6435844 0,-0.2845781 -0.05254,-0.6085594 -0.05254,-0.3239812 -0.113831,-0.6523406 l 0.761794,-0.1926375 q 0.07443,0.35025 0.118209,0.6873656 0.04378,0.3371157 0.04378,0.6435844 0,0.525375 -0.144479,0.9369183 Q 44.70604,10.49054 44.377681,10.726959 44.049322,10.959 43.497678,10.959 H 42.591406 Z M 42.038607,10.959 q -0.30209,0 -0.507862,-0.07881 -0.201394,-0.08318 -0.315225,-0.175125 -0.06567,0.573535 -0.319603,1.107666 -0.249553,0.538509 -0.753038,0.936919 -0.503484,0.398409 -1.33095,0.5604 L 38.55362,12.618309 q 1.068262,-0.232041 1.506075,-0.814331 0.437812,-0.577913 0.437812,-1.370353 0,-0.372141 -0.08318,-0.7793066 -0.07881,-0.4115438 -0.223284,-0.8362219 l 0.726768,-0.245175 0.236419,0.9150281 q 0.09632,0.3677625 0.306469,0.5209964 0.21015,0.153235 0.529753,0.153235 h 0.166369 V 10.959 Z m -5.144297,0 h -0.805575 v -0.796819 h 0.796819 q 0.437812,0 0.591047,-0.2539314 0.157612,-0.2539312 0.157612,-0.6435844 0,-0.2845781 -0.05254,-0.6085594 -0.05254,-0.3239812 -0.113832,-0.6523406 l 0.761794,-0.1926375 q 0.07443,0.35025 0.118209,0.6873656 0.04378,0.3371157 0.04378,0.6435844 0,0.525375 -0.144478,0.9369183 -0.144479,0.411544 -0.472838,0.647963 Q 37.445954,10.959 36.89431,10.959 Z m 0.09632,0.669853 0.634828,0.634828 -0.634828,0.634828 -0.634828,-0.634828 z M 35.510823,4.9303214 V 10.954622 H 34.77092 V 4.9303214 Z m -3.108469,3.4412063 q 0,0.8230875 0.175125,1.6155282 0.175125,0.7880621 0.512241,1.4316471 0.341493,0.643584 0.8406,1.024481 l -0.166369,0.534131 q -0.485972,-0.262687 -0.880003,-0.731147 -0.394032,-0.468459 -0.67861,-1.085775 -0.2802,-0.612937 -0.433434,-1.3265715 -0.153235,-0.7136344 -0.153235,-1.4622938 0,-0.7486594 0.153235,-1.4622938 0.153234,-0.7136343 0.433434,-1.3265719 0.284578,-0.6173156 0.67861,-1.085775 0.394031,-0.4684594 0.880003,-0.7311469 l 0.166369,0.5341313 q -0.499107,0.3808969 -0.8406,1.0244813 -0.337116,0.6435844 -0.512241,1.436025 -0.175125,0.7880625 -0.175125,1.61115 z m -0.328956,0 q 0,-0.8230875 -0.175125,-1.61115 -0.170747,-0.7924406 -0.512241,-1.436025 -0.341494,-0.6435844 -0.8406,-1.0244813 l 0.166369,-0.5341313 q 0.485972,0.2626875 0.880003,0.7311469 0.394031,0.4684594 0.674231,1.085775 0.284578,0.6129376 0.437813,1.3265719 0.153234,0.7136344 0.153234,1.4622938 0,0.7486594 -0.153234,1.4622938 -0.153235,0.7136345 -0.437813,1.3265715 -0.2802,0.617316 -0.674231,1.085775 -0.394031,0.46846 -0.880003,0.731147 l -0.166369,-0.534131 q 0.499106,-0.380897 0.8406,-1.024481 0.341494,-0.643585 0.512241,-1.4316471 0.175125,-0.7924407 0.175125,-1.6155282 z m -4.500712,4.8422063 q -0.945675,0 -1.514831,-0.345872 -0.564778,-0.345872 -0.818709,-0.923784 -0.249554,-0.573535 -0.249554,-1.2609 0,-0.297713 0.04378,-0.6873659 0.04816,-0.3896531 0.214528,-0.8887594 l 0.696122,0.2583094 q -0.126966,0.4378125 -0.166369,0.7749279 -0.03503,0.337116 -0.03503,0.569157 0,0.472837 0.166369,0.86249 0.166368,0.389653 0.564778,0.621694 0.402787,0.232041 1.098909,0.232041 0.656719,0 1.125178,-0.161991 0.472838,-0.161991 0.722391,-0.385275 0.253931,-0.223284 0.253931,-0.407166 0,-0.21015 -0.183881,-0.359006 -0.179503,-0.148856 -0.586669,-0.148856 h -0.647962 q -0.08756,0 -0.126966,-0.07443 -0.0394,-0.07881 -0.07443,-0.201394 l -0.118209,-0.4203 q -0.0044,-0.03502 0.01751,-0.06567 0.02189,-0.03503 0.07881,-0.03503 h 2.42986 v 0.796819 h -0.179503 q 0.06567,0.131344 0.08318,0.249553 0.02189,0.118209 0.02189,0.245175 0,0.288956 -0.170747,0.595425 -0.166369,0.310847 -0.516619,0.573534 -0.345872,0.262688 -0.875625,0.424678 -0.529753,0.161991 -1.252144,0.161991 z M 22.21824,7.4302308 q 0.494728,0 0.875625,0.2189063 0.385275,0.2145281 0.604181,0.5866687 0.218906,0.3721407 0.218906,0.8406001 -0.0044,0.5604 -0.341494,1.0025901 0.122588,0.03065 0.32836,0.05692 0.21015,0.02627 0.608559,0.02627 h 0.131344 V 10.959 h -0.126966 q -0.556022,0 -0.919406,-0.113832 -0.359006,-0.113831 -0.604181,-0.315225 -0.359007,0.201394 -0.945675,0.315225 Q 21.460824,10.959 20.685896,10.959 h -2.267869 v -0.796819 h 0.744281 q 0.08319,-0.1401 0.175125,-0.275822 0.09194,-0.1401 0.175125,-0.2758219 V 4.9303214 h 0.739903 V 8.5685433 Q 20.725299,7.9993871 21.202515,7.714809 21.684108,7.4302308 22.21824,7.4302308 Z m 0.01751,0.7968188 q -1.05075,0 -2.276625,1.9351314 h 0.709256 q 1.247766,0 1.860703,-0.2495533 0.612938,-0.2495531 0.612938,-0.7924406 0,-0.385275 -0.249553,-0.6392063 -0.249553,-0.2539312 -0.656719,-0.2539312 z m -4.220513,0.3020906 v 0.7574157 q -0.188259,0.017513 -0.44219,0.096319 -0.253931,0.074428 -0.53851,0.21015 0.0088,0.3633844 0.35025,0.4684594 0.341494,0.100697 0.967566,0.100697 h 0.240797 V 10.959 h -0.258309 q -0.893138,0 -1.339707,-0.236419 -0.44219,-0.236419 -0.529753,-0.8493564 -0.866869,0.4728374 -1.6812,0.7793064 Q 13.97423,10.959 13.037311,10.959 h -0.731147 v -0.796819 h 0.744282 q 0.51224,0 0.941296,-0.09194 0.429057,-0.09194 0.836222,-0.253931 Q 15.239508,9.6543184 15.686077,9.4354121 16.137024,9.2121277 16.693046,8.9581965 16.382199,8.8443652 16.049461,8.7130215 15.716724,8.5772996 15.414633,8.4590902 15.116921,8.3408808 14.893636,8.2664527 q -0.223284,-0.078806 -0.315225,-0.078806 -0.267065,0 -0.472837,0.1576125 -0.201394,0.1532343 -0.372141,0.3721406 l -0.118209,0.1488562 -0.669853,-0.3283593 0.06567,-0.105075 q 0.288957,-0.4684594 0.669854,-0.7486594 0.385275,-0.2845781 0.901893,-0.2845781 0.214528,0 0.516619,0.1094531 0.306469,0.1094531 0.665475,0.2758219 0.359006,0.1619906 0.744281,0.3327375 0.385275,0.1663687 0.77055,0.2845781 0.385275,0.1138312 0.735525,0.1269656 z M 10.935811,4.461862 11.548748,5.0704214 10.935811,5.687737 10.327251,5.0704214 Z m -1.4535379,0 L 10.095211,5.0704214 9.4822731,5.687737 8.8737137,5.0704214 Z m 0.3896531,5.700319 q 0.4947278,0 0.7968188,-0.05692 0.306469,-0.05692 0.446569,-0.2495529 0.144478,-0.1970156 0.144478,-0.6085594 -0.214528,0.065672 -0.437813,0.1006969 -0.218906,0.035025 -0.472837,0.035025 -1.4885627,0 -1.4885627,-1.2214969 0,-0.4203 0.1663687,-0.8406 0.1707469,-0.4203 0.4991063,-0.7005 0.3283594,-0.2845781 0.7968187,-0.2845781 0.429056,0 0.735525,0.2189062 0.310847,0.2189063 0.507863,0.5910469 0.201393,0.3677625 0.297712,0.8362219 0.09632,0.4640812 0.09632,0.9588094 0,0.6523406 -0.11821,1.0551281 -0.113831,0.3984089 -0.367762,0.6085599 -0.253931,0.205771 -0.661097,0.2802 Q 10.406057,10.959 9.8193887,10.959 h -1.61115 V 10.162181 Z M 10.410436,8.6298371 q 0.201393,0 0.398409,-0.035025 0.201394,-0.039403 0.402787,-0.096319 -0.03502,-0.3108468 -0.131343,-0.63045 -0.09194,-0.3196031 -0.275822,-0.5341312 -0.183881,-0.2189063 -0.49035,-0.2189063 -0.271444,0 -0.4378127,0.1707469 -0.1619906,0.1707469 -0.2364187,0.4071656 -0.07005,0.2364188 -0.07005,0.4378125 0,0.3020907 0.2145281,0.4027875 0.2189063,0.096319 0.6260723,0.096319 z"
         id="path13" />
    </g>
    <path
       id="path4"
       d="m 332.19151,82.20578 h -97.44684 c -4.40188,0 -7.97021,-3.56833 -7.97021,-7.97021 V 39.15166 c 0,-4.40189 3.56833,-7.97022 7.97021,-7.97022 h 97.44684 c 4.40189,0 7.97022,3.56833 7.97022,7.97022 v 35.08391 c 0,4.40188 -3.56833,7.97021 -7.97022,7.97021 z"
       style="fill:#ffe6e6;fill-opacity:1;fill-rule:nonzero;stroke:#be1e2d;stroke-width:0.3985;stroke-linecap:butt;stroke-linejoin:miter;stroke-miterlimit:10;stroke-dasharray:none;stroke-opacity:1"
       transform="matrix(1.3333333,0,0,-1.3333333,95.781333,129.79333)" />
    <g
       id="text4"
       transform="matrix(1.3333333,0,0,1.3333333,441.224,49.417333)"
       aria-label="داﺪﯾوربﻮﮐﺮﺳرﺎﺘﺸﮐ)(ﺪﯾﺪﺟ">
      <path
         style="font-size:8.9664px;font-family:Vazirmatn"
         d="m 45.216297,-0.78806251 q 1.6812,0 1.6812,-0.87124689 0,-0.4115438 -0.4203,-0.8712469 -0.4203,-0.4597031 -1.392244,-0.9894563 l 0.345872,-0.6917437 q 1.125178,0.5735344 1.668066,1.2127406 0.547265,0.6348282 0.547265,1.3265719 0,0.82308754 -0.569156,1.24338754 -0.564778,0.42030001 -1.795031,0.42030001 -0.586669,0 -1.059506,-0.105075 v -0.79244064 q 0.573534,0.11820938 0.993834,0.11820938 z M 43.119176,-6.0286782 v 6.02430007 H 42.379272 V -6.0286782 Z m -3.222303,4.4350407 q 0,-0.1138313 -0.05254,-0.2933344 -0.04816,-0.1838813 -0.11821,-0.3414938 l -0.774928,-1.7556281 0.682988,-0.3196031 0.993834,2.3379187 q 0.201394,0.4728376 0.35025,0.7267688 0.153235,0.25393126 0.297713,0.35025001 0.148856,0.0919406 0.337115,0.0919406 H 41.79698 V 0 h -0.183882 q -0.345871,0 -0.564778,-0.08318438 -0.214528,-0.08318437 -0.37214,-0.24955313 -0.157613,-0.16636875 -0.319603,-0.4203 -0.306469,0.385275 -0.783685,0.56915626 -0.472837,0.17950312 -1.182094,0.17950312 -0.306468,0 -0.551643,-0.02626875 -0.245175,-0.03064687 -0.464082,-0.08318437 v -0.79244064 q 0.503485,0.11820938 0.950053,0.11820938 1.571747,0 1.571747,-0.80557499 z m -5.844796,0.79681874 h 0.950053 q 0.437812,0 0.591047,-0.25393124 0.157612,-0.2539313 0.157612,-0.6435844 0,-0.2845781 -0.05254,-0.6085594 -0.05254,-0.3239812 -0.113831,-0.6523406 l 0.761793,-0.1926375 q 0.07443,0.35025 0.11821,0.6873656 0.04378,0.3371156 0.04378,0.6435844 0,0.525375 -0.144478,0.93691876 -0.144478,0.41154376 -0.472838,0.64796251 Q 35.56253,0 35.010886,0 H 34.052077 Z M 35.63258,0.69612189 36.245517,1.3046813 35.63258,1.9219969 35.024021,1.3046813 Z m -1.453538,0 L 34.79198,1.3046813 34.179042,1.9219969 33.570483,1.3046813 Z M 33.71496,-0.74865939 q 0,2.55682509 -2.806378,3.09533439 L 30.650273,1.6505532 q 1.006969,-0.1926376 1.606772,-0.6435844 0.599803,-0.44656879 0.709256,-1.12517818 -0.166369,0.0525375 -0.385275,0.09194063 -0.218906,0.03940313 -0.385275,0.03940313 -1.598016,0 -1.598016,-1.35721878 0,-0.3239813 0.09632,-0.6479625 0.100697,-0.3283594 0.288956,-0.5998031 0.192638,-0.2758219 0.46846,-0.4421907 0.275822,-0.1663687 0.626072,-0.1663687 0.415921,0 0.72239,0.2057719 0.310847,0.2057718 0.512241,0.5560218 0.201394,0.35025 0.30209,0.7880625 0.100697,0.4378126 0.100697,0.90189381 z m -1.497318,-0.0306469 q 0.385275,0 0.766171,-0.11383125 -0.04378,-0.73552499 -0.271443,-1.12517819 -0.227663,-0.3940312 -0.643585,-0.3940312 -0.288956,0 -0.450947,0.1795031 -0.157612,0.1795031 -0.223284,0.4246781 -0.06129,0.2407969 -0.06129,0.4378126 0,0.3196031 0.218907,0.45532496 0.218906,0.13572188 0.665475,0.13572188 z M 27.175477,2.3554313 26.917168,1.6593094 q 1.068263,-0.2320406 1.506075,-0.81433126 0.437813,-0.57791251 0.437813,-1.37035315 0,-0.37214063 -0.08319,-0.77930629 -0.07881,-0.4115437 -0.223284,-0.8362219 l 0.726769,-0.245175 q 0.315225,0.8975157 0.315225,1.72935944 0,0.73114689 -0.25831,1.35284065 Q 29.08434,1.3221938 28.545831,1.7556282 28.011699,2.1934407 27.175477,2.3554313 Z M 25.585413,0.66985314 26.220241,1.3046813 25.585413,1.9395094 24.950584,1.3046813 Z M 26.285913,0 h -1.020104 q -1.650553,0 -2.482397,-0.44656876 -0.827465,-0.44656875 -0.827465,-1.54547814 0,-0.3020906 0.06567,-0.5910469 0.07005,-0.2889562 0.179503,-0.5560219 l 0.678609,0.2539313 q -0.07005,0.1926375 -0.118209,0.4115437 -0.04378,0.2189063 -0.04378,0.4159219 0.0044,0.5122406 0.288956,0.7880625 0.284578,0.27144378 0.849356,0.37214066 0.564778,0.10069688 1.409756,0.10069688 h 1.024482 q 0.297712,0 0.621693,-0.0175125 0.32836,-0.0175125 0.612938,-0.0963188 0.284578,-0.0788063 0.464081,-0.26268749 0.179503,-0.1882594 0.179503,-0.525375 0,-0.245175 -0.04816,-0.5822907 -0.04816,-0.3414937 -0.113831,-0.6742312 l 0.761793,-0.1926375 q 0.07881,0.3414937 0.11821,0.7092562 0.04378,0.3633844 0.04378,0.6348282 0,0.595425 -0.201394,0.95443124 -0.201393,0.35900625 -0.564778,0.5428875 -0.359006,0.18388126 -0.8406,0.24517501 Q 26.846313,0 26.285913,0 Z m -6.84301,-3.2004094 q 0.682987,0 1.151447,0.6129375 0.468459,0.6085594 0.485972,1.79065314 h 0.529753 V 0 H 21.010272 Q 20.913953,0.50348438 20.624997,0.97194377 20.340419,1.4447813 19.77564,1.8037875 19.210862,2.1671719 18.278322,2.346675 L 18.020012,1.6505532 Q 20.003303,1.2696563 20.318528,0 h -0.691744 q -1.659309,0 -1.659309,-1.3440844 0,-0.4290563 0.170747,-0.8581125 0.175125,-0.4290563 0.503484,-0.7136344 0.332738,-0.2845781 0.801197,-0.2845781 z m 0.1401,2.40359064 h 0.774928 q -0.05254,-0.84497814 -0.2802,-1.23025314 -0.223284,-0.385275 -0.647962,-0.385275 -0.2802,0 -0.442191,0.1795031 -0.157613,0.1795031 -0.223284,0.4246781 -0.06129,0.2407969 -0.06129,0.4378126 0,0.3064687 0.205772,0.44219058 0.21015,0.13134376 0.674231,0.13134376 z m -5.06549,-3.44996254 q 0.380897,0.2670656 0.79244,0.5647781 0.411544,0.2933344 0.766172,0.63045 0.359006,0.3327375 0.577913,0.7136344 0.223284,0.3765188 0.223284,0.805575 -0.0044,0.81433129 -0.564778,1.17333754 Q 15.756522,0 14.535025,0 h -1.068262 v -0.79681876 h 1.063884 q 0.849356,0 1.217119,-0.14885626 0.367762,-0.15323438 0.367762,-0.60418128 0,-0.2889562 -0.205772,-0.5647781 -0.201393,-0.2758219 -0.525375,-0.5428875 -0.319603,-0.2714438 -0.687365,-0.5297532 -0.367763,-0.2626875 -0.691744,-0.5166187 -0.1401,-0.1138313 -0.214528,-0.2670656 -0.07443,-0.1532344 -0.07443,-0.3064688 0,-0.1795031 0.09632,-0.3371156 0.100697,-0.1619907 0.310847,-0.245175 l 3.147872,-1.2784126 v 0.7749282 z M 12.707736,0 q -0.302091,0 -0.507863,-0.07880625 -0.201393,-0.08318438 -0.315225,-0.175125 -0.06567,0.57353438 -0.319603,1.10766564 -0.249553,0.53850941 -0.753037,0.93691881 -0.503485,0.3984093 -1.3309504,0.5604 L 9.2227482,1.6593094 q 1.0682628,-0.2320406 1.5060748,-0.81433126 0.437813,-0.57791251 0.437813,-1.37035315 0,-0.37214063 -0.08319,-0.77930629 -0.07881,-0.4115437 -0.223284,-0.8362219 l 0.726769,-0.245175 0.236419,0.9150282 q 0.09632,0.3677625 0.306468,0.52099686 0.21015,0.15323438 0.529753,0.15323438 h 0.166369 V 0 Z M 5.8691044,0 Q 5.36562,0 5.0897981,-0.17074688 4.8183544,-0.34587188 4.6563637,-0.66985314 4.4505918,-0.34587188 4.1309887,-0.17074688 3.8113856,0 3.2203387,0 H 2.8175512 V -0.79681876 H 3.229095 q 0.5604,0 0.8187093,-0.20577184 0.2583094,-0.21015 0.2583094,-0.7617938 0,-0.1138313 -0.013134,-0.2670656 -0.00876,-0.1576125 -0.030647,-0.4378125 l 0.7311469,-0.091941 0.07005,0.9150282 q 0.026269,0.3677625 0.2232843,0.6085594 0.2013938,0.24079684 0.5910469,0.24079684 0.4640813,0 0.63045,-0.24955314 0.1663688,-0.2495531 0.1663688,-0.7180125 0,-0.1138313 -0.013134,-0.2714438 -0.00876,-0.1576125 -0.030647,-0.4334343 l 0.7311469,-0.091941 0.07005,0.9150282 q 0.021891,0.3546281 0.1882594,0.6041812 0.1663688,0.24517504 0.5385094,0.24517504 0.3633844,0 0.4991062,-0.27144374 0.1357219,-0.2714438 0.1357219,-0.6348282 0,-0.3283593 -0.065672,-0.6610968 -0.061294,-0.3327375 -0.1094531,-0.5385094 l 0.7486594,-0.2013938 q 0.078806,0.2933344 0.1269656,0.6260719 0.048159,0.3283594 0.048159,0.6567188 0,0.4728375 -0.1313437,0.88875936 Q 9.2796638,-0.51661876 8.9775732,-0.25830938 8.6798607,-0.00437813 8.1632419,0 7.7429419,0 7.4846325,-0.175125 7.2263231,-0.35025001 7.0643325,-0.66985314 6.8191575,-0.31522501 6.5170669,-0.1576125 6.2193544,0 5.8691044,0 Z"
         id="path14" />
      <path
         style="font-size:8.9664px;font-family:Vazirmatn"
         d="m 44.934444,13.314431 -0.258309,-0.696122 q 1.068263,-0.232041 1.506075,-0.814331 0.437813,-0.577913 0.437813,-1.370353 0,-0.372141 -0.08319,-0.7793066 -0.07881,-0.4115438 -0.223284,-0.8362219 l 0.726769,-0.245175 q 0.315225,0.8975156 0.315225,1.7293595 0,0.731147 -0.25831,1.352841 -0.253931,0.626071 -0.79244,1.059506 -0.534132,0.437812 -1.370354,0.599803 z M 43.05185,4.9303214 h 0.739903 V 9.115809 q 0,0.6173156 0.227662,0.8318437 0.227663,0.2145283 0.687366,0.2145283 h 0.109453 V 10.959 h -0.109453 q -0.836222,0 -1.247766,-0.442191 Q 43.05185,10.07024 43.05185,9.1114309 Z m -2.044584,1.2915469 0.612938,0.6085594 -0.612938,0.6173156 -0.608559,-0.6173156 z m -1.453537,0 0.612937,0.6085594 -0.612937,0.6173156 -0.60856,-0.6173156 z m -0.472838,3.9403127 h 0.612938 q 0.556022,0 0.79244,-0.2495533 0.240797,-0.2495531 0.240797,-0.7661718 0,-0.21015 -0.01313,-0.3984094 -0.0088,-0.1882594 -0.02627,-0.3765188 l 0.731147,-0.087562 0.07005,1.0244813 q 0.05254,0.8537345 0.888759,0.8537345 h 0.09194 V 10.959 h -0.100697 q -0.485972,0 -0.779306,-0.175125 -0.288956,-0.175125 -0.468459,-0.494729 -0.236419,0.345872 -0.621694,0.507863 Q 40.114129,10.959 39.693829,10.959 H 39.080891 Z M 35.499585,5.2017652 36.090632,5.792812 35.499585,6.3838589 34.908538,5.792812 Z m 0.748659,1.1076656 0.591047,0.5910469 -0.591047,0.5910469 -0.591047,-0.5910469 z m -1.497319,0 0.591047,0.5910469 -0.591047,0.5910469 -0.591047,-0.5910469 z M 36.856804,10.959 q -0.4203,0 -0.67861,-0.175125 -0.258309,-0.175125 -0.4203,-0.494729 -0.245175,0.354629 -0.547266,0.512241 -0.297712,0.157613 -0.647962,0.157613 -0.503484,0 -0.779306,-0.170747 -0.271444,-0.175125 -0.433435,-0.499107 -0.205772,0.323982 -0.525375,0.499107 Q 32.504947,10.959 31.9139,10.959 h -0.402787 v -0.796819 h 0.411544 q 0.5604,0 0.818709,-0.205772 0.258309,-0.21015 0.258309,-0.7617938 0,-0.1138312 -0.01313,-0.2670656 -0.0088,-0.1576125 -0.03065,-0.4378125 l 0.731147,-0.091941 0.07005,0.9150281 q 0.02627,0.3677625 0.223284,0.6085594 0.201394,0.240797 0.591047,0.240797 0.464081,0 0.63045,-0.2495533 0.166369,-0.2495531 0.166369,-0.7180125 0,-0.1138312 -0.01313,-0.2714437 -0.0088,-0.1576125 -0.03065,-0.4334344 l 0.731147,-0.091941 0.07005,0.9150281 q 0.02189,0.3546281 0.188259,0.6041813 0.166369,0.2451751 0.538509,0.2451751 0.647963,0 0.647963,-0.9675658 0,-0.1576125 -0.01313,-0.3283594 -0.0088,-0.1707468 -0.03065,-0.4509468 l 0.731147,-0.087563 0.07005,0.9850781 q 0.05254,0.8493564 0.866868,0.8493564 h 0.131344 V 10.959 h -0.122587 q -0.459704,0 -0.766172,-0.166369 -0.306469,-0.170747 -0.4203,-0.507863 -0.183882,0.323982 -0.424678,0.499107 Q 37.28586,10.959 36.856804,10.959 Z M 28.582146,6.7122183 q 0.380896,0.2670656 0.79244,0.5647781 0.411544,0.2933344 0.766172,0.6304501 0.359006,0.3327375 0.577913,0.7136343 0.223284,0.3765188 0.223284,0.8055751 -0.0044,0.8143311 -0.564778,1.1733371 Q 29.821155,10.959 28.599658,10.959 h -1.068262 v -0.796819 h 1.063884 q 0.849356,0 1.217119,-0.148856 0.367762,-0.1532348 0.367762,-0.6041816 0,-0.2889563 -0.205772,-0.5647782 Q 29.772996,8.5685433 29.449014,8.3014777 29.129411,8.030034 28.761649,7.7717246 28.393886,7.5090371 28.069905,7.2551058 q -0.1401,-0.1138312 -0.214528,-0.2670656 -0.07443,-0.1532344 -0.07443,-0.3064688 0,-0.1795031 0.09632,-0.3371156 0.100697,-0.1619906 0.310847,-0.245175 l 3.147872,-1.2784125 v 0.7749281 z m -2.661901,1.6593094 q 0,0.8230875 0.175125,1.6155282 0.175125,0.7880621 0.512241,1.4316471 0.341494,0.643584 0.8406,1.024481 l -0.166369,0.534131 Q 26.79587,12.714628 26.401839,12.246168 26.007808,11.777709 25.72323,11.160393 25.44303,10.547456 25.289795,9.8338215 25.136561,9.1201871 25.136561,8.3715277 q 0,-0.7486594 0.153234,-1.4622938 Q 25.44303,6.1955996 25.72323,5.582662 26.007808,4.9653464 26.401839,4.496887 26.79587,4.0284276 27.281842,3.7657401 l 0.166369,0.5341313 q -0.499106,0.3808969 -0.8406,1.0244813 -0.337116,0.6435844 -0.512241,1.436025 -0.175125,0.7880625 -0.175125,1.61115 z m -0.328954,0 q 0,-0.8230875 -0.175125,-1.61115 -0.170747,-0.7924406 -0.51224,-1.436025 -0.341494,-0.6435844 -0.8406,-1.0244813 l 0.166368,-0.5341313 q 0.485972,0.2626875 0.880003,0.7311469 0.394032,0.4684594 0.674232,1.085775 0.284578,0.6129376 0.437812,1.3265719 0.153235,0.7136344 0.153235,1.4622938 0,0.7486594 -0.153235,1.4622938 -0.153234,0.7136345 -0.437812,1.3265715 -0.2802,0.617316 -0.674232,1.085775 -0.394031,0.46846 -0.880003,0.731147 l -0.166368,-0.534131 q 0.499106,-0.380897 0.8406,-1.024481 0.341493,-0.643585 0.51224,-1.4316471 0.175125,-0.7924407 0.175125,-1.6155282 z m -3.511256,0.9938344 q 0,-0.1138312 -0.05254,-0.2933344 Q 21.979338,8.8881465 21.909288,8.730534 L 21.13436,6.9749058 21.817347,6.6553027 22.811182,8.9932215 q 0.201393,0.4728375 0.35025,0.7267687 0.153234,0.2539313 0.297712,0.3502498 0.148856,0.09194 0.337116,0.09194 h 0.183881 V 10.959 H 23.79626 q -0.345872,0 -0.564778,-0.08319 -0.214529,-0.08318 -0.372141,-0.249553 -0.157613,-0.166369 -0.319603,-0.4203 -0.306469,0.385275 -0.783685,0.569156 -0.472837,0.179504 -1.182093,0.179504 -0.306469,0 -0.551644,-0.02627 -0.245175,-0.03065 -0.464081,-0.08319 v -0.79244 q 0.503484,0.118209 0.950053,0.118209 1.571747,0 1.571747,-0.8055749 z m -5.844797,0.7968189 h 0.950053 q 0.437813,0 0.591047,-0.2539314 0.157613,-0.2539312 0.157613,-0.6435844 0,-0.2845781 -0.05254,-0.6085594 -0.05254,-0.3239812 -0.113831,-0.6523406 l 0.761794,-0.1926375 q 0.07443,0.35025 0.118209,0.6873656 0.04378,0.3371157 0.04378,0.6435844 0,0.525375 -0.144478,0.9369183 Q 18.40241,10.49054 18.074051,10.726959 17.745691,10.959 17.194047,10.959 h -0.958809 z m 1.580503,1.492941 0.612938,0.608559 -0.612938,0.617316 -0.608559,-0.617316 z m -1.453537,0 0.612937,0.608559 -0.612937,0.617316 -0.60856,-0.617316 z M 14.519012,9.3653621 q 0,-0.1138312 -0.05254,-0.2933344 -0.04816,-0.1838812 -0.118209,-0.3414937 l -0.774928,-1.7556282 0.682987,-0.3196031 0.993835,2.3379188 q 0.201394,0.4728375 0.35025,0.7267687 0.153234,0.2539313 0.297712,0.3502498 0.148857,0.09194 0.337116,0.09194 h 0.183881 V 10.959 h -0.183881 q -0.345872,0 -0.564778,-0.08319 -0.214528,-0.08318 -0.372141,-0.249553 -0.157612,-0.166369 -0.319603,-0.4203 -0.306469,0.385275 -0.783684,0.569156 -0.472838,0.179504 -1.182094,0.179504 -0.306469,0 -0.551644,-0.02627 -0.245175,-0.03065 -0.464081,-0.08319 v -0.79244 q 0.503484,0.118209 0.950053,0.118209 1.571747,0 1.571747,-0.8055749 z M 8.472821,11.628853 9.1076492,12.263681 8.472821,12.898509 7.8379929,12.263681 Z M 5.4694272,10.162181 h 0.7442813 q 0.5122406,0 0.9412969,-0.09194 Q 7.5840616,9.9782996 7.9912273,9.816309 8.402771,9.6543184 8.8493398,9.4354121 9.3002867,9.2121277 9.8563085,8.9581965 9.5454617,8.8443652 9.2127242,8.7130215 8.8799867,8.5772996 8.577896,8.4590902 8.2801835,8.3408808 8.0568991,8.2664527 7.8336148,8.1876465 7.7416741,8.1876465 q -0.2670656,0 -0.4728375,0.1576125 Q 7.0674429,8.4984933 6.896696,8.7173996 L 6.7784866,8.8662558 6.1086335,8.5378965 6.1743054,8.4328215 Q 6.4632616,7.9643621 6.8441585,7.6841621 7.2294335,7.399584 7.7460523,7.399584 q 0.2145281,0 0.5166187,0.1094531 0.3064688,0.1094531 0.665475,0.2758219 0.3590063,0.1619906 0.7442813,0.3327375 0.3852747,0.1663687 0.7705497,0.2845781 0.385275,0.1138312 0.735525,0.1269656 V 9.2865559 Q 10.898302,9.3172027 10.46049,9.4923277 10.027055,9.6630746 9.3309335,10.030837 8.7705335,10.32855 8.2889398,10.5387 7.8117241,10.744472 7.3126179,10.853925 6.8178898,10.959 6.2005741,10.959 H 5.4694272 Z"
         id="path15" />
    </g>
    <path
       id="path6"
       d="M 119.59042,25.51216 H 22.14359 c -4.40189,0 -7.97022,-3.56833 -7.97022,-7.97021 v -35.0839 c 0,-4.40188 3.56833,-7.97021 7.97022,-7.97021 h 97.44683 c 4.40189,0 7.97022,3.56833 7.97022,7.97021 v 35.0839 c 0,4.40188 -3.56833,7.97021 -7.97022,7.97021 z"
       style="fill:#ffe6e6;fill-opacity:1;fill-rule:nonzero;stroke:#be1e2d;stroke-width:0.3985;stroke-linecap:butt;stroke-linejoin:miter;stroke-miterlimit:10;stroke-dasharray:none;stroke-opacity:1"
       transform="matrix(1.3333333,0,0,-1.3333333,95.781333,129.79333)" />
    <g
       id="text6"
       transform="matrix(1.3333333,0,0,1.3333333,156.784,125.33867)"
       aria-label="فﺎﮑﺷردمﺎﻈﻧ،ﺎﺗدﻮﮐ)(قﺎﻘﺸﻧا">
      <path
         style="font-size:8.9664px;font-family:Vazirmatn"
         d="m 47.361576,-6.6241032 0.634828,0.6348281 -0.634828,0.6348281 -0.634828,-0.6348281 z m 1.033238,4.9166344 q -0.214529,0.065672 -0.437813,0.1006969 -0.218906,0.035025 -0.472837,0.035025 -1.488563,0 -1.488563,-1.225875 0,-0.3108469 0.09632,-0.63045 0.09632,-0.3239813 0.2802,-0.5910469 0.188259,-0.2714438 0.459703,-0.4334344 0.271444,-0.1663688 0.626072,-0.1663688 0.429056,0 0.735525,0.2189063 0.310847,0.2189063 0.507862,0.5910469 0.201394,0.3677625 0.297713,0.8362219 0.09632,0.4640812 0.09632,0.9588094 0,0.6523406 -0.113832,1.05512811 -0.109453,0.39840938 -0.359006,0.60855938 Q 48.372923,-0.14447813 47.961379,-0.07005 47.549835,0 46.950032,0 H 45.500873 Q 43.824051,0 43.005342,-0.44656876 42.19101,-0.89313751 42.19101,-1.9920469 q 0,-0.3020906 0.06567,-0.5910469 0.07005,-0.2889562 0.179503,-0.5560219 l 0.67861,0.2539313 q -0.07005,0.1926375 -0.11821,0.4115437 -0.04378,0.2189063 -0.04378,0.4159219 0,0.5122406 0.293335,0.7880625 0.293334,0.27144378 0.86249,0.37214066 0.569156,0.10069688 1.392244,0.10069688 h 1.501697 q 0.516619,0 0.818709,-0.0569156 0.306469,-0.0569156 0.437813,-0.24955311 0.135722,-0.1970156 0.135722,-0.6041813 z m -0.853735,-0.6173156 q 0.205772,0 0.402788,-0.035025 0.197015,-0.039403 0.402787,-0.096319 -0.03502,-0.3108468 -0.131344,-0.63045 -0.09194,-0.3196031 -0.275821,-0.5341312 -0.183882,-0.2189063 -0.49035,-0.2189063 -0.271444,0 -0.437813,0.1707469 -0.161991,0.1707469 -0.236419,0.4071656 -0.07005,0.2364188 -0.07005,0.4378125 0,0.2977125 0.214528,0.3984094 0.218907,0.1006969 0.621694,0.1006969 z m -7.460326,-3.7038938 h 0.739903 v 4.1854875 q 0,0.6173157 0.227663,0.8318438 0.227662,0.21452814 0.687366,0.21452814 h 0.109453 V 0 H 41.735685 Q 40.899463,0 40.487919,-0.44219063 40.080753,-0.88875939 40.080753,-1.8475688 Z m -4.286183,1.7818969 q 0.499107,0.35025 0.954432,0.6961219 0.459703,0.3414937 0.827465,0.7442812 0.367763,0.3984094 0.582291,0.9281625 0.23204,0.5647782 0.49035,0.8230876 0.258309,0.25830934 0.726769,0.25830934 h 0.122587 V 0 h -0.122587 q -0.485972,0 -0.827466,-0.18825938 -0.337116,-0.18825938 -0.604181,-0.59980313 -0.175125,0.25830938 -0.429057,0.43343438 -0.249553,0.175125 -0.656718,0.26706563 Q 36.455667,0 35.812083,0 H 34.74382 v -0.79681876 h 1.063885 q 0.849356,0 1.217118,-0.14885626 0.367763,-0.15323438 0.367763,-0.60418128 0,-0.2889562 -0.205772,-0.5647781 -0.201394,-0.2758219 -0.525375,-0.5428875 -0.319603,-0.2714438 -0.687366,-0.5297532 -0.367762,-0.2626875 -0.691743,-0.5166187 -0.1401,-0.1138313 -0.214528,-0.2670656 -0.07443,-0.1532344 -0.07443,-0.3108469 0,-0.1795031 0.09632,-0.3371157 0.100697,-0.1576125 0.310847,-0.2407968 l 3.147872,-1.2784126 v 0.7749282 z m -4.132949,-1.5104532 0.591047,0.5910469 -0.591047,0.5910469 -0.591047,-0.5910469 z m 0.748659,1.1076657 0.591047,0.5910469 -0.591047,0.5910468 -0.591046,-0.5910468 z m -1.497318,0 0.591047,0.5910469 -0.591047,0.5910468 -0.591047,-0.5910468 z M 30.724702,0 q -0.503484,0 -0.779306,-0.17074688 -0.271444,-0.175125 -0.433434,-0.49910626 -0.205772,0.32398126 -0.525375,0.49910626 Q 28.666984,0 28.075937,0 h -0.402788 v -0.79681876 h 0.411544 q 0.5604,0 0.818709,-0.20577184 0.25831,-0.21015 0.25831,-0.7617938 0,-0.1138313 -0.01314,-0.2670656 -0.0088,-0.1576125 -0.03065,-0.4378125 l 0.731147,-0.091941 0.07005,0.9150282 q 0.02627,0.3677625 0.223285,0.6085594 0.201393,0.24079684 0.591047,0.24079684 0.464081,0 0.63045,-0.24955314 0.166368,-0.2495531 0.166368,-0.7180125 0,-0.1138313 -0.01313,-0.2714438 -0.0088,-0.1576125 -0.03065,-0.4334343 l 0.731147,-0.091941 0.07005,0.9150282 q 0.02189,0.3546281 0.188259,0.6041812 0.166369,0.24517504 0.53851,0.24517504 0.363384,0 0.499106,-0.27144374 0.135722,-0.2714438 0.135722,-0.6348282 0,-0.3283593 -0.06567,-0.6610968 -0.06129,-0.3327375 -0.109453,-0.5385094 l 0.748659,-0.2013938 q 0.07881,0.2933344 0.126966,0.6260719 0.04816,0.3283594 0.04816,0.6567188 0,0.4728375 -0.131343,0.88875936 -0.131344,0.41592188 -0.433435,0.67423126 Q 33.535459,-0.00437813 33.01884,0 32.59854,0 32.34023,-0.175125 32.081921,-0.35025001 31.91993,-0.66985314 31.674755,-0.31522501 31.372665,-0.1576125 31.074952,0 30.724702,0 Z m -3.424289,2.3554313 -0.25831,-0.6961219 q 1.068263,-0.2320406 1.506075,-0.81433126 0.437813,-0.57791251 0.437813,-1.37035315 0,-0.37214063 -0.08318,-0.77930629 Q 28.824,-1.716225 28.679522,-2.1409032 l 0.726769,-0.245175 q 0.315225,0.8975157 0.315225,1.72935944 0,0.73114689 -0.25831,1.35284065 -0.253931,0.62607191 -0.79244,1.05950631 -0.534132,0.4378125 -1.370353,0.5998031 z m -2.368568,-3.14349381 q 1.6812,0 1.6812,-0.87124689 0,-0.4115438 -0.4203,-0.8712469 -0.4203,-0.4597031 -1.392244,-0.9894563 l 0.345872,-0.6917437 q 1.125178,0.5735344 1.668065,1.2127406 0.547266,0.6348282 0.547266,1.3265719 0,0.82308754 -0.569156,1.24338754 -0.564778,0.42030001 -1.795032,0.42030001 -0.586668,0 -1.059506,-0.105075 v -0.79244064 q 0.573534,0.11820938 0.993835,0.11820938 z m -2.78925,-0.52099689 q 0.245175,-0.8537344 0.639206,-1.3397063 0.39841,-0.49035 1.085775,-0.49035 0.464082,0 0.827466,0.2364188 0.363384,0.2364187 0.573534,0.6523406 0.214528,0.4115438 0.214528,0.9500532 0,0.59104684 -0.328359,0.98069997 Q 24.830764,0.07005 24.147776,0.07005 q -0.258309,0 -0.525375,-0.08318438 -0.262687,-0.08318437 -0.507862,-0.18825937 -0.240797,-0.10945313 -0.442191,-0.19263751 -0.201394,-0.0831844 -0.337116,-0.0831844 -0.245175,0 -0.37214,0.16199062 -0.122588,0.15761251 -0.166369,0.53850939 -0.0394,0.38089688 -0.0394,1.05512812 0,0.2977125 0.0044,0.5297532 0.0088,0.2364187 0.02189,0.4640812 0.01751,0.2276625 0.03503,0.5166188 H 21.065576 Q 21.043686,2.3860782 21.030551,2.03145 21.017417,1.6812 21.017417,1.3221938 q 0,-0.49035004 0.02627,-0.93254067 0.03065,-0.44219063 0.135721,-0.79681876 0.109454,-0.35900626 0.337116,-0.59104689 0.227663,-0.23641878 0.626072,-0.31084688 z m 2.600606,0.00438 q 0,-0.4509469 -0.240797,-0.7530375 -0.240796,-0.3064687 -0.617315,-0.3064687 -0.271444,0 -0.459703,0.1707468 -0.18826,0.1663688 -0.315225,0.4421907 -0.126966,0.2714437 -0.223285,0.5822906 0.477216,0.21015001 0.792441,0.33273751 0.319603,0.11820938 0.477216,0.11820938 0.293334,0 0.437812,-0.1576125 0.148856,-0.16199059 0.148856,-0.42905629 z M 18.90716,-6.0286782 h 0.739903 v 4.1854875 q 0,0.6173157 0.227662,0.8318438 0.227663,0.21452814 0.687366,0.21452814 h 0.109453 V 0 H 20.562091 Q 19.725869,0 19.314325,-0.44219063 18.90716,-0.88875939 18.90716,-1.8475688 Z m -3.069066,0.3677625 0.634828,0.6348281 -0.634828,0.6348282 -0.634828,-0.6348282 z m 0.06129,2.1321469 q 0.494728,0 0.875625,0.2189062 0.385275,0.2145282 0.604181,0.5866688 0.218907,0.3721406 0.218907,0.8406 -0.0044,0.5604 -0.341494,1.00259066 0.122587,0.0306469 0.328359,0.0569156 0.21015,0.0262688 0.60856,0.0262688 h 0.131343 V 0 H 18.197904 Q 17.641882,0 17.278497,-0.11383125 16.919491,-0.2276625 16.674316,-0.42905626 16.31531,-0.2276625 15.728641,-0.11383125 15.141972,0 14.367044,0 h -2.267868 v -0.79681876 h 0.744281 q 0.08318,-0.14010001 0.175125,-0.27582184 0.09194,-0.1401 0.175125,-0.2758219 v -4.6802157 h 0.739903 v 3.6382219 q 0.472837,-0.5691562 0.950053,-0.8537344 0.481594,-0.2845781 1.015725,-0.2845781 z m 0.01751,0.7968188 q -1.05075,0 -2.276625,1.93513124 h 0.709256 q 1.247765,0 1.860703,-0.24955314 0.612937,-0.2495531 0.612937,-0.7924406 0,-0.385275 -0.249553,-0.6392063 Q 16.324066,-2.73195 15.916901,-2.73195 Z M 10.255985,0 H 9.5423508 v -0.79681876 h 0.7048782 q 0.437812,0 0.591047,-0.25393124 0.157612,-0.2539313 0.157612,-0.6435844 0,-0.2845781 -0.05254,-0.6085594 -0.05254,-0.3239812 -0.113831,-0.6523406 l 0.761793,-0.1926375 q 0.07443,0.35025 0.11821,0.6873656 0.04378,0.3371156 0.04378,0.6435844 0,0.525375 -0.144478,0.93691876 -0.144478,0.41154376 -0.472838,0.64796251 Q 10.807629,0 10.255985,0 Z m 0.534131,-5.1661876 0.634829,0.6348282 -0.634829,0.6348281 -0.634828,-0.6348281 z"
         id="path16" />
      <path
         style="font-size:8.9664px;font-family:Vazirmatn"
         d="m 51.240741,8.6079465 q -0.306469,0.2802 -0.485972,0.5560219 -0.175125,0.2758218 -0.175125,0.6742312 0.310847,0 0.429056,0.1357219 0.122588,0.1357215 0.122588,0.4071655 0,0.267066 -0.135722,0.424678 Q 50.859844,10.959 50.5884,10.959 q -0.345872,0 -0.499106,-0.192638 -0.148857,-0.192637 -0.148857,-0.516619 0,-0.5954246 0.2802,-1.0551278 0.2802,-0.4640812 0.731147,-0.8143312 z M 47.663815,4.9303214 h 0.739904 V 9.115809 q 0,0.6173156 0.227662,0.8318437 0.227663,0.2145283 0.687366,0.2145283 H 49.4282 V 10.959 h -0.109453 q -0.836222,0 -1.247766,-0.442191 -0.407166,-0.446569 -0.407166,-1.4053781 z m -1.580502,0.8887594 0.612937,0.6085594 -0.612937,0.6173156 -0.60856,-0.6173156 z m -1.453538,0 0.612938,0.6085594 -0.612938,0.6173156 -0.608559,-0.6173156 z m -0.472837,4.3431002 h 0.897515 q 0.437813,0 0.591047,-0.2539314 0.157613,-0.2539312 0.157613,-0.6435844 0,-0.2845781 -0.05254,-0.6085594 -0.05254,-0.3239812 -0.113831,-0.6523406 l 0.761794,-0.1926375 q 0.07443,0.35025 0.118209,0.6873656 0.04378,0.3371157 0.04378,0.6435844 0,0.525375 -0.144478,0.9369183 -0.144478,0.411544 -0.472837,0.647963 Q 45.614853,10.959 45.06321,10.959 h -0.906272 z m -2.775731,0.0088 q 1.6812,0 1.6812,-0.8712468 0,-0.4115437 -0.4203,-0.8712469 -0.4203,-0.4597031 -1.392243,-0.9894562 l 0.345871,-0.6917438 q 1.125179,0.5735344 1.668066,1.2127407 0.547266,0.6348281 0.547266,1.3265719 0,0.8230871 -0.569157,1.2433871 -0.564778,0.4203 -1.795031,0.4203 -0.586669,0 -1.059506,-0.105075 v -0.79244 q 0.573534,0.118209 0.993834,0.118209 z M 37.874325,7.7585902 q 0.682988,0 1.151447,0.6129375 0.468459,0.6085594 0.485972,1.7906533 h 0.529753 V 10.959 h -0.599803 q -0.09632,0.503484 -0.385275,0.971943 -0.284578,0.472838 -0.849356,0.831844 -0.564778,0.363385 -1.497319,0.542888 L 36.451435,12.609553 Q 38.434725,12.228656 38.74995,10.959 h -0.691744 q -1.659309,0 -1.659309,-1.3440848 0,-0.4290562 0.170747,-0.8581125 0.175125,-0.4290562 0.503484,-0.7136344 0.332738,-0.2845781 0.801197,-0.2845781 z m 0.1401,2.4035908 h 0.774928 q -0.05254,-0.8449783 -0.2802,-1.2302533 -0.223284,-0.385275 -0.647962,-0.385275 -0.2802,0 -0.442191,0.1795031 -0.157612,0.1795032 -0.223284,0.4246782 -0.06129,0.2407969 -0.06129,0.4378125 0,0.3064687 0.205772,0.4421905 0.21015,0.131344 0.674231,0.131344 z M 32.948933,6.7122183 q 0.380897,0.2670656 0.792441,0.5647781 0.411543,0.2933344 0.766171,0.6304501 0.359007,0.3327375 0.577913,0.7136343 0.223284,0.3765188 0.223284,0.8055751 -0.0044,0.8143311 -0.564778,1.1733371 Q 34.187942,10.959 32.966445,10.959 h -1.068262 v -0.796819 h 1.063884 q 0.849357,0 1.217119,-0.148856 0.367763,-0.1532348 0.367763,-0.6041816 0,-0.2889563 -0.205772,-0.5647782 Q 34.139783,8.5685433 33.815802,8.3014777 33.496199,8.030034 33.128436,7.7717246 32.760674,7.5090371 32.436692,7.2551058 q -0.1401,-0.1138312 -0.214528,-0.2670656 -0.07443,-0.1532344 -0.07443,-0.3064688 0,-0.1795031 0.09632,-0.3371156 0.100697,-0.1619906 0.310847,-0.245175 l 3.147872,-1.2784125 v 0.7749281 z m -2.661896,1.6593094 q 0,0.8230875 0.175125,1.6155282 0.175125,0.7880621 0.51224,1.4316471 0.341494,0.643584 0.8406,1.024481 l -0.166369,0.534131 q -0.485971,-0.262687 -0.880003,-0.731147 -0.394031,-0.468459 -0.678609,-1.085775 -0.2802,-0.612937 -0.433434,-1.3265715 -0.153235,-0.7136344 -0.153235,-1.4622938 0,-0.7486594 0.153235,-1.4622938 0.153234,-0.7136343 0.433434,-1.3265719 0.284578,-0.6173156 0.678609,-1.085775 0.394032,-0.4684594 0.880003,-0.7311469 l 0.166369,0.5341313 q -0.499106,0.3808969 -0.8406,1.0244813 -0.337115,0.6435844 -0.51224,1.436025 -0.175125,0.7880625 -0.175125,1.61115 z m -0.328957,0 q 0,-0.8230875 -0.175125,-1.61115 -0.170746,-0.7924406 -0.51224,-1.436025 -0.341494,-0.6435844 -0.8406,-1.0244813 l 0.166369,-0.5341313 q 0.485971,0.2626875 0.880003,0.7311469 0.394031,0.4684594 0.674231,1.085775 0.284578,0.6129376 0.437812,1.3265719 0.153235,0.7136344 0.153235,1.4622938 0,0.7486594 -0.153235,1.4622938 -0.153234,0.7136345 -0.437812,1.3265715 -0.2802,0.617316 -0.674231,1.085775 -0.394032,0.46846 -0.880003,0.731147 l -0.166369,-0.534131 q 0.499106,-0.380897 0.8406,-1.024481 0.341494,-0.643585 0.51224,-1.4316471 Q 29.95808,9.1946152 29.95808,8.3715277 Z M 26.81021,5.6658464 27.423148,6.2744058 26.81021,6.8917214 26.201651,6.2744058 Z m -1.453537,0 0.612937,0.6085594 -0.612937,0.6173156 -0.608559,-0.6173156 z m -0.288956,7.2282846 q -0.945675,0 -1.514832,-0.345872 -0.564778,-0.345872 -0.818709,-0.923784 -0.249553,-0.573535 -0.249553,-1.2609 0,-0.4640816 0.09632,-0.9500535 0.09632,-0.49035 0.262687,-0.9544313 l 0.696122,0.2802 q -0.126966,0.4027875 -0.214528,0.8274657 -0.08756,0.4246781 -0.08756,0.8230871 0,0.472838 0.166369,0.862491 0.170747,0.389653 0.569156,0.621694 0.39841,0.23204 1.094532,0.23204 1.116422,0 1.576125,-0.437812 0.464081,-0.433434 0.464081,-1.217119 -0.227663,0.06567 -0.437813,0.105075 -0.205771,0.0394 -0.477215,0.0394 -1.501697,0 -1.501697,-1.2258748 0,-0.4203 0.166369,-0.8406 0.170747,-0.4246781 0.499106,-0.7048781 0.328359,-0.2802 0.796819,-0.2802 0.459703,0 0.779306,0.2320406 0.319603,0.2276625 0.516619,0.6216938 0.197015,0.3896531 0.284578,0.8712469 0.09194,0.4815937 0.09194,0.9894566 0,1.295925 -0.691743,1.965778 -0.691744,0.669853 -2.066475,0.669853 z m 1.155825,-3.0515533 q 0.205772,0 0.411543,-0.035025 0.205772,-0.039403 0.407166,-0.096319 -0.03503,-0.3108469 -0.131344,-0.63045 -0.09194,-0.3239813 -0.275822,-0.5385094 -0.183881,-0.2189063 -0.49035,-0.2189063 -0.267065,0 -0.433434,0.1707469 -0.166369,0.1707469 -0.240797,0.4115438 -0.07443,0.2364187 -0.07443,0.4334344 0,0.2977125 0.214528,0.4027875 0.214528,0.1006968 0.612938,0.1006968 z M 20.374366,4.9303214 h 0.739903 V 9.115809 q 0,0.6173156 0.227662,0.8318437 0.227663,0.2145283 0.687366,0.2145283 H 22.13875 V 10.959 h -0.109453 q -0.836222,0 -1.247766,-0.442191 -0.407165,-0.446569 -0.407165,-1.4053781 z m -2.057719,0.4859719 0.612937,0.6085594 -0.612937,0.6173156 -0.608559,-0.6173156 z m -1.453538,0 0.612938,0.6085594 -0.612938,0.6173156 -0.608559,-0.6173156 z m 2.294138,3.4806094 q 0,0.3458719 -0.153234,0.6435844 -0.153235,0.2933344 -0.4203,0.6041809 0.249553,0.01314 0.44219,0.01751 0.192638,0 0.341494,0 h 0.424678 V 10.959 h -0.411544 q -0.166368,0 -0.459703,-0.02627 -0.288956,-0.03065 -0.639206,-0.100697 -0.345872,-0.07005 -0.682988,-0.188259 -0.337115,0.122587 -0.691743,0.192637 -0.354628,0.06567 -0.656719,0.09632 -0.302091,0.02627 -0.481594,0.02627 h -0.612937 v -0.796819 h 0.612937 q 0.183881,0 0.380897,0 0.201394,-0.0044 0.485972,-0.02189 -0.262688,-0.3064685 -0.411544,-0.6085591 -0.148856,-0.3020907 -0.148856,-0.6435844 0,-0.2714438 0.126966,-0.5472657 0.126965,-0.2758218 0.341493,-0.5122406 0.214528,-0.2364187 0.49035,-0.3765187 0.275822,-0.1444782 0.569157,-0.1444782 0.306468,0 0.586668,0.1444782 0.2802,0.1401 0.494728,0.3765187 0.218907,0.2320406 0.345872,0.5122406 0.126966,0.2802 0.126966,0.5560219 z M 17.603013,8.0825715 q -0.166369,0 -0.35025,0.1269656 -0.179504,0.1225875 -0.306469,0.3108469 -0.122588,0.1882593 -0.122588,0.385275 0,0.2013937 0.11821,0.4115437 0.118209,0.21015 0.297712,0.385275 0.183881,0.175125 0.372141,0.2714438 0.332737,-0.1401 0.564778,-0.4509469 0.236419,-0.315225 0.236419,-0.6260719 0,-0.1838812 -0.131344,-0.3721406 Q 18.154656,8.3365027 17.966397,8.2095371 17.778138,8.0825715 17.603013,8.0825715 Z M 11.574334,5.2017652 12.165381,5.792812 11.574334,6.3838589 10.983287,5.792812 Z m 0.74866,1.1076656 0.591046,0.5910469 -0.591046,0.5910469 -0.591047,-0.5910469 z m -1.497319,0 0.591047,0.5910469 -0.591047,0.5910469 -0.591047,-0.5910469 z M 12.931553,10.959 q -0.4203,0 -0.678609,-0.175125 -0.25831,-0.175125 -0.4203,-0.494729 -0.245175,0.354629 -0.547266,0.512241 Q 10.987665,10.959 10.637415,10.959 10.133931,10.959 9.8581091,10.788253 9.5866654,10.613128 9.4246747,10.289146 9.2189029,10.613128 8.8992997,10.788253 8.5796966,10.959 7.9886497,10.959 H 7.5858622 V 10.162181 H 7.997406 q 0.5604,0 0.8187094,-0.205772 0.2583093,-0.21015 0.2583093,-0.7617938 0,-0.1138312 -0.013134,-0.2670656 -0.00876,-0.1576125 -0.030647,-0.4378125 l 0.7311469,-0.091941 0.07005,0.9150281 q 0.026269,0.3677625 0.2232846,0.6085594 0.201394,0.240797 0.591047,0.240797 0.464081,0 0.63045,-0.2495533 0.166368,-0.2495531 0.166368,-0.7180125 0,-0.1138312 -0.01313,-0.2714437 -0.0088,-0.1576125 -0.03065,-0.4334344 l 0.731147,-0.091941 0.07005,0.9150281 q 0.02189,0.3546281 0.188259,0.6041813 0.166369,0.2451751 0.53851,0.2451751 0.647962,0 0.647962,-0.9675658 0,-0.1576125 -0.01313,-0.3283594 -0.0088,-0.1707468 -0.03065,-0.4509468 l 0.731147,-0.087563 0.07005,0.9850781 q 0.05254,0.8493564 0.866869,0.8493564 h 0.131343 V 10.959 h -0.122587 q -0.459703,0 -0.766172,-0.166369 -0.306469,-0.170747 -0.4203,-0.507863 -0.183881,0.323982 -0.424678,0.499107 Q 13.360609,10.959 12.931553,10.959 Z m -7.1888816,0 H 5.0290371 v -0.796819 h 0.7048781 q 0.4378125,0 0.5910469,-0.2539314 0.1576125,-0.2539312 0.1576125,-0.6435844 0,-0.2845781 -0.052538,-0.6085594 Q 6.3774996,8.3321246 6.3162058,8.0037652 L 7.0779996,7.8111277 q 0.074428,0.35025 0.1182094,0.6873656 0.043781,0.3371157 0.043781,0.6435844 0,0.525375 -0.1444781,0.9369183 Q 6.951034,10.49054 6.6226746,10.726959 6.2943152,10.959 5.7426714,10.959 Z M 6.2768027,5.792812 6.9116308,6.4276402 6.2768027,7.0624683 5.6419746,6.4276402 Z M 4.4467464,4.9303214 V 10.954622 H 3.7068433 V 4.9303214 Z"
         id="path17" />
    </g>
    <path
       id="path8"
       d="m 261.32448,25.51216 h -97.44684 c -4.40189,0 -7.97022,-3.56833 -7.97022,-7.97021 v -35.0839 c 0,-4.40188 3.56833,-7.97021 7.97022,-7.97021 h 97.44684 c 4.40188,0 7.97022,3.56833 7.97022,7.97021 v 35.0839 c 0,4.40188 -3.56834,7.97021 -7.97022,7.97021 z"
       style="fill:#ffe6e6;fill-opacity:1;fill-rule:nonzero;stroke:#be1e2d;stroke-width:0.3985;stroke-linecap:butt;stroke-linejoin:miter;stroke-miterlimit:10;stroke-dasharray:none;stroke-opacity:1"
       transform="matrix(1.3333333,0,0,-1.3333333,95.781333,129.79333)" />
    <g
       id="text8"
       transform="matrix(1.3333333,0,0,1.3333333,343.59333,125.30933)"
       aria-label="رﺎﺸﻓﯽﻠﻠﻤﻟا ﻦﯿﺑﺪﯾﺪﻬﺗ)(ﯽﻣﺎﻈﻧ">
      <path
         style="font-size:8.9664px;font-family:Vazirmatn"
         d="M 50.32238,2.3554313 50.06407,1.6593094 q 1.068263,-0.2320406 1.506075,-0.81433126 0.437813,-0.57791251 0.437813,-1.37035315 0,-0.37214063 -0.08319,-0.77930629 -0.07881,-0.4115437 -0.223284,-0.8362219 l 0.726769,-0.245175 q 0.315225,0.8975157 0.315225,1.72935944 0,0.73114689 -0.25831,1.35284065 -0.253931,0.62607191 -0.79244,1.05950631 -0.534132,0.4378125 -1.370353,0.5998031 z m -1.882595,-8.3841095 h 0.739903 v 4.1854875 q 0,0.6173157 0.227663,0.8318438 0.227662,0.21452814 0.687365,0.21452814 h 0.109453 V 0 H 50.094716 Q 49.258494,0 48.846951,-0.44219063 48.439785,-0.88875939 48.439785,-1.8475688 Z m -4.338722,0.2714437 0.591047,0.5910469 -0.591047,0.5910469 -0.591047,-0.5910469 z m 0.748659,1.1076657 0.591047,0.5910469 -0.591047,0.5910468 -0.591047,-0.5910468 z m -1.497319,0 0.591047,0.5910469 -0.591047,0.5910468 -0.591046,-0.5910468 z M 45.458282,0 q -0.4203,0 -0.67861,-0.175125 -0.258309,-0.17512501 -0.4203,-0.49472814 -0.245175,0.35462813 -0.547265,0.51224064 Q 43.514394,0 43.164144,0 42.66066,0 42.384838,-0.17074688 42.113394,-0.34587188 41.951403,-0.66985314 41.745632,-0.34587188 41.426028,-0.17074688 41.106425,0 40.515378,0 h -0.402787 v -0.79681876 h 0.411544 q 0.5604,0 0.818709,-0.20577184 0.258309,-0.21015 0.258309,-0.7617938 0,-0.1138313 -0.01313,-0.2670656 -0.0088,-0.1576125 -0.03065,-0.4378125 l 0.731147,-0.091941 0.07005,0.9150282 q 0.02627,0.3677625 0.223284,0.6085594 0.201394,0.24079684 0.591047,0.24079684 0.464082,0 0.63045,-0.24955314 0.166369,-0.2495531 0.166369,-0.7180125 0,-0.1138313 -0.01313,-0.2714438 -0.0088,-0.1576125 -0.03065,-0.4334343 l 0.731147,-0.091941 0.07005,0.9150282 q 0.02189,0.3546281 0.188259,0.6041812 0.166369,0.24517504 0.538509,0.24517504 0.647963,0 0.647963,-0.96756564 0,-0.1576125 -0.01313,-0.3283594 -0.0088,-0.1707469 -0.03065,-0.4509469 l 0.731147,-0.087563 0.07005,0.9850782 q 0.05254,0.84935624 0.866868,0.84935624 h 0.131344 V 0 H 47.734907 Q 47.275203,0 46.968735,-0.16636875 46.662266,-0.33711563 46.548435,-0.67423126 46.364553,-0.35025001 46.123757,-0.175125 45.887338,0 45.458282,0 Z m -7.447189,-6.580322 0.634828,0.6348282 -0.634828,0.6348281 -0.634829,-0.6348281 z m -0.332738,5.78350324 q 0.494728,0 0.796819,-0.0569156 0.306469,-0.0569156 0.446569,-0.24955311 0.144478,-0.1970156 0.144478,-0.6085594 -0.214528,0.065672 -0.437813,0.1006969 -0.218906,0.035025 -0.472837,0.035025 -1.488563,0 -1.488563,-1.2214969 0,-0.4203 0.166369,-0.8406 0.170747,-0.4203 0.499106,-0.7005 0.32836,-0.2845782 0.796819,-0.2845782 0.429056,0 0.735525,0.2189063 0.310847,0.2189062 0.507863,0.5910469 0.201393,0.3677625 0.297712,0.8362219 0.09632,0.4640812 0.09632,0.9588093 0,0.6523407 -0.11821,1.05512818 -0.113831,0.39840939 -0.367762,0.60855939 -0.253931,0.20577188 -0.661097,0.2802 Q 38.212486,0 37.625818,0 h -1.61115 v -0.79681876 z m 0.538509,-1.53234374 q 0.201394,0 0.39841,-0.035025 0.201394,-0.039403 0.402787,-0.096319 -0.03503,-0.3108469 -0.131343,-0.63045 -0.09194,-0.3196031 -0.275822,-0.5341313 -0.183882,-0.2189062 -0.49035,-0.2189062 -0.271444,0 -0.437813,0.1707469 -0.16199,0.1707468 -0.236419,0.4071656 -0.07005,0.2364188 -0.07005,0.4378125 0,0.3020906 0.214529,0.4027875 0.218906,0.096319 0.626071,0.096319 z m -2.513637,4.5838969 q -0.945675,0 -1.514831,-0.3458719 -0.564778,-0.3458718 -0.81871,-0.92378436 -0.249553,-0.57353438 -0.249553,-1.26090002 0,-0.2977125 0.04378,-0.68736564 0.04816,-0.38965308 0.214528,-0.88875938 l 0.696122,0.2583094 q -0.126966,0.4378125 -0.166369,0.77492811 -0.03502,0.33711563 -0.03502,0.56915626 0,0.47283751 0.166369,0.86249064 0.166368,0.38965309 0.564778,0.62169379 0.402787,0.2320406 1.098909,0.2320406 0.656719,0 1.125178,-0.1619906 0.472838,-0.1619907 0.722391,-0.38527503 0.253931,-0.22328438 0.253931,-0.40716564 0,-0.21015 -0.183881,-0.35900625 -0.179503,-0.14885625 -0.586669,-0.14885625 h -0.647962 q -0.08756,0 -0.126966,-0.07442813 -0.0394,-0.07880625 -0.07443,-0.20139375 l -0.11821,-0.42030001 q -0.0044,-0.035025 0.01751,-0.0656719 0.02189,-0.035025 0.07881,-0.035025 h 2.42986 v 0.79681877 h -0.179503 q 0.06567,0.13134375 0.08318,0.24955312 0.02189,0.11820938 0.02189,0.24517501 0,0.28895625 -0.170747,0.59542504 -0.166369,0.3108468 -0.516619,0.5735344 -0.345872,0.2626875 -0.875625,0.4246781 -0.529753,0.1619906 -1.252144,0.1619906 z m -4.693353,-4.1723532 v -4.1110594 h 0.739903 v 4.1241938 q 0,0.4815938 0.188259,0.7968188 0.192638,0.31084684 0.696122,0.31084684 h 0.1401 V 0 h -0.131343 q -0.49035,0 -0.779307,-0.17074688 -0.288956,-0.17074688 -0.459703,-0.49472813 -0.144478,0.21452813 -0.293334,0.36338438 -0.144478,0.14885625 -0.372141,0.2276625 Q 30.515146,0 30.125493,0 h -0.376519 v -0.79681876 h 0.367762 q 0.367763,0 0.556022,-0.14447813 0.192638,-0.14885621 0.262688,-0.40278751 0.07443,-0.2539313 0.07443,-0.5735344 z m -2.850159,0 v -4.1110594 h 0.739903 v 4.1241938 q 0,0.4815938 0.18826,0.7968188 0.192637,0.31084684 0.696122,0.31084684 h 0.1401 V 0 h -0.131344 q -0.49035,0 -0.779306,-0.17074688 -0.288957,-0.17074688 -0.459704,-0.49472813 -0.144478,0.21452813 -0.293334,0.36338438 -0.144478,0.14885625 -0.372141,0.2276625 Q 27.664987,0 27.275334,0 h -0.376519 v -0.79681876 h 0.367763 q 0.367762,0 0.556022,-0.14447813 0.192637,-0.14885621 0.262687,-0.40278751 0.07443,-0.2539313 0.07443,-0.5735344 z M 21.951533,0 h -0.192637 v -0.79681876 h 0.170747 q 0.293334,0 0.494728,-0.16636876 0.201394,-0.17074688 0.359006,-0.43781248 0.157613,-0.2670657 0.310847,-0.5647782 0.157613,-0.3020906 0.35025,-0.5691562 0.192638,-0.2670656 0.464081,-0.4334344 0.275822,-0.1707469 0.67861,-0.1707469 0.687365,0 1.068262,0.4203 0.380897,0.4159219 0.512241,1.0376157 0.08756,0.4290562 0.297712,0.6567187 0.214529,0.22766254 0.494729,0.22766254 H 27.07394 V 0 h -0.11821 q -0.2802,0 -0.547265,-0.11383125 -0.267066,-0.11820938 -0.433435,-0.37214063 -0.183881,0.26706563 -0.455325,0.42905625 -0.271443,0.15761251 -0.704878,0.15761251 -0.437812,0 -0.809953,-0.18825938 Q 23.637112,-0.2802 23.238702,-0.66547501 22.954124,-0.34587188 22.691437,-0.17074688 22.428749,0 21.951533,0 Z m 2.653144,-2.3641875 q -0.218906,0 -0.398409,0.1488562 -0.179503,0.1444781 -0.323981,0.3765188 -0.144479,0.2320406 -0.25831,0.4815937 0.144478,0.1488563 0.288956,0.2670657 0.144479,0.11820933 0.2802,0.20139371 0.35025,0.21452813 0.612938,0.21452813 0.647962,0 0.647962,-0.65234064 0,-0.455325 -0.227662,-0.7442813 -0.223284,-0.2933343 -0.621694,-0.2933343 z m -5.428875,1.56736874 h 0.367763 q 0.525375,0 0.709256,-0.29771254 0.183881,-0.2977125 0.183881,-0.7442812 v -4.1898657 h 0.739903 v 4.1854875 q 0,0.91065006 -0.394031,1.37910944 Q 20.388543,0 19.539187,0 h -0.363385 z m -0.58229,-5.23185944 v 6.02430007 H 17.853609 V -6.0286782 Z m -9.7098762,2.6443875 0.6348281,0.6348282 -0.6348281,0.6348281 -0.6348281,-0.6348281 z m 0.048159,4.8509626 q 0.7311469,0 1.1295558,-0.2407969 0.402788,-0.23641873 0.5604,-0.62607187 0.161991,-0.385275 0.161991,-0.82746563 0,-0.52099689 -0.1401,-1.0288594 -0.1401,-0.5078625 -0.262687,-0.8318438 l 0.748659,-0.3020906 0.323981,1.0244813 q 0.08756,0.2802 0.284578,0.42467811 0.201394,0.14447813 0.5604,0.14447813 H 12.46932 V 0 h -0.153234 q -0.306469,0 -0.46846,-0.05691563 -0.157612,-0.05691562 -0.297712,-0.1926375 -0.0044,0.73114689 -0.2802,1.29592503 -0.275822,0.5691563 -0.853734,0.8887594 -0.5735348,0.3196031 -1.4841848,0.3196031 -0.9456751,0 -1.5148313,-0.3458719 Q 6.8521858,1.5629907 6.5982545,0.98507814 6.3487014,0.41154376 6.3487014,-0.27582188 q 0,-0.46408126 0.096319,-0.95005312 0.096319,-0.49035 0.2626875,-0.9544313 l 0.6961219,0.2802 q -0.1269656,0.4027875 -0.2145281,0.8274657 -0.087562,0.42467809 -0.087562,0.82308747 0,0.47283751 0.1663687,0.86249064 Q 7.4388545,1.0025906 7.8372639,1.2346313 8.2356733,1.4666719 8.9317952,1.4666719 Z M 2.5660014,-0.79681876 h 0.6610969 q 0.5560219,0 0.7924406,-0.24955314 0.2407969,-0.2495531 0.2407969,-0.7661719 0,-0.21015 -0.013134,-0.3984094 -0.00876,-0.1882593 -0.026269,-0.3765187 l 0.7311468,-0.087562 0.07005,1.0244812 q 0.052537,0.85373444 0.8887593,0.85373444 h 0.091941 V 0 H 5.9021327 Q 5.4161608,0 5.1228264,-0.175125 4.8338702,-0.35025001 4.654367,-0.66985314 4.4179483,-0.32398126 4.0326733,-0.16199063 3.6473983,0 3.2270983,0 H 2.5660014 Z M 4.1465045,0.69612189 4.759442,1.3046813 4.1465045,1.9219969 3.5379452,1.3046813 Z m -1.4535375,0 L 3.3059045,1.3046813 2.692967,1.9219969 2.0844076,1.3046813 Z M 0.73156674,0 h -0.80557501 v -0.79681876 h 0.79681876 q 0.43781251,0 0.59104691,-0.25393124 0.1576125,-0.2539313 0.1576125,-0.6435844 0,-0.2845781 -0.052537,-0.6085594 -0.052538,-0.3239812 -0.1138313,-0.6523406 l 0.7617938,-0.1926375 q 0.074428,0.35025 0.1182094,0.6873656 0.043781,0.3371156 0.043781,0.6435844 0,0.525375 -0.1444781,0.93691876 Q 1.9399293,-0.46845938 1.6115699,-0.23204063 1.2832105,0 0.73156674,0 Z M 0.82788549,0.66985314 1.4627136,1.3046813 0.82788549,1.9395094 0.19305736,1.3046813 Z"
         id="path18" />
      <path
         style="font-size:8.9664px;font-family:Vazirmatn"
         d="m 49.654287,9.3653621 q 0,-0.1138312 -0.05254,-0.2933344 Q 49.55359,8.8881465 49.48354,8.730534 L 48.708612,6.9749058 49.3916,6.6553027 50.385434,8.9932215 q 0.201394,0.4728375 0.35025,0.7267687 0.153235,0.2539313 0.297713,0.3502498 0.148856,0.09194 0.337115,0.09194 h 0.183882 V 10.959 h -0.183882 q -0.345871,0 -0.564778,-0.08319 -0.214528,-0.08318 -0.37214,-0.249553 -0.157613,-0.166369 -0.319604,-0.4203 -0.306468,0.385275 -0.783684,0.569156 -0.472837,0.179504 -1.182094,0.179504 -0.306468,0 -0.551643,-0.02627 -0.245175,-0.03065 -0.464082,-0.08319 v -0.79244 q 0.503485,0.118209 0.950053,0.118209 1.571747,0 1.571747,-0.8055749 z m -5.844796,0.7968189 h 0.950053 q 0.437812,0 0.591047,-0.2539314 0.157612,-0.2539312 0.157612,-0.6435844 0,-0.2845781 -0.05254,-0.6085594 -0.05254,-0.3239812 -0.113831,-0.6523406 l 0.761793,-0.1926375 q 0.07443,0.35025 0.11821,0.6873656 0.04378,0.3371157 0.04378,0.6435844 0,0.525375 -0.144478,0.9369183 -0.144478,0.411544 -0.472838,0.647963 Q 45.319944,10.959 44.7683,10.959 h -0.958809 z m 1.580503,1.492941 0.612937,0.608559 -0.612937,0.617316 -0.608559,-0.617316 z m -1.453538,0 0.612938,0.608559 -0.612938,0.617316 -0.608559,-0.617316 z M 42.093267,9.3653621 q 0,-0.1138312 -0.05254,-0.2933344 Q 41.992571,8.8881465 41.922521,8.730534 L 41.147592,6.9749058 41.83058,6.6553027 42.824414,8.9932215 q 0.201394,0.4728375 0.35025,0.7267687 0.153235,0.2539313 0.297713,0.3502498 0.148856,0.09194 0.337115,0.09194 h 0.183882 V 10.959 h -0.183882 q -0.345871,0 -0.564778,-0.08319 -0.214528,-0.08318 -0.37214,-0.249553 -0.157613,-0.166369 -0.319603,-0.4203 -0.306469,0.385275 -0.783685,0.569156 -0.472837,0.179504 -1.182094,0.179504 -0.306468,0 -0.551643,-0.02627 -0.245175,-0.03065 -0.464082,-0.08319 v -0.79244 q 0.503485,0.118209 0.950054,0.118209 1.571746,0 1.571746,-0.8055749 z M 34.58478,10.959 v -0.796819 h 0.906272 v -0.07881 q 0,-0.4684598 0.08318,-0.9500535 0.08756,-0.4859719 0.271444,-0.8931375 0.183881,-0.4115438 0.481594,-0.6610969 0.30209,-0.2495532 0.731147,-0.2495532 0.556021,0 0.871246,0.3896532 0.315225,0.3896531 0.315225,1.015725 0,0.4071656 -0.16199,0.8011969 -0.161991,0.3940312 -0.442191,0.718012 -0.2802,0.323982 -0.639206,0.516619 -0.359006,0.192638 -0.753038,0.192638 0.08756,0.367762 0.345872,0.748659 0.25831,0.380897 0.643585,0.63045 0,-2.180306 1.84319,-2.180306 h 0.144478 V 10.959 h -0.153234 q -0.586669,0 -0.884381,0.319603 -0.293335,0.319603 -0.293335,1.081397 0,0.09632 0.0044,0.201393 0.0044,0.109454 0.01313,0.214529 l -0.542888,0.529753 Q 36.624986,12.929156 36.160905,12.31184 35.696824,11.698903 35.552346,10.959 Z m 2.464884,-2.858916 q -0.262687,0 -0.450947,0.2626875 -0.188259,0.2626875 -0.288956,0.7136344 -0.09632,0.4465687 -0.09632,1.0025901 v 0.08756 q 0.367763,0 0.669854,-0.1970156 0.30209,-0.1970157 0.481593,-0.5209969 0.179503,-0.3283594 0.179503,-0.7136344 0,-0.3108469 -0.1401,-0.4728375 Q 37.268571,8.100084 37.049664,8.100084 Z M 33.761693,5.8190808 34.37463,6.4276402 33.761693,7.0449558 33.153133,6.4276402 Z m -1.453538,0 0.612938,0.6085594 -0.612938,0.6173156 -0.608559,-0.6173156 z m -0.472837,4.3431002 h 0.897515 q 0.437813,0 0.591047,-0.2539314 0.157613,-0.2539312 0.157613,-0.6435844 0,-0.2845781 -0.05254,-0.6085594 -0.05254,-0.3239812 -0.113831,-0.6523406 l 0.761794,-0.1926375 q 0.07443,0.35025 0.118209,0.6873656 0.04378,0.3371157 0.04378,0.6435844 0,0.525375 -0.144478,0.9369183 -0.144478,0.411544 -0.472837,0.647963 Q 33.293233,10.959 32.74159,10.959 H 31.835318 Z M 30.224166,8.3715277 q 0,0.8230875 0.175125,1.6155282 0.175125,0.7880621 0.51224,1.4316471 0.341494,0.643584 0.8406,1.024481 l -0.166368,0.534131 Q 31.099791,12.714628 30.705759,12.246168 30.311728,11.777709 30.02715,11.160393 29.74695,10.547456 29.593716,9.8338215 29.440481,9.1201871 29.440481,8.3715277 q 0,-0.7486594 0.153235,-1.4622938 Q 29.74695,6.1955996 30.02715,5.582662 30.311728,4.9653464 30.705759,4.496887 31.099791,4.0284276 31.585763,3.7657401 l 0.166368,0.5341313 q -0.499106,0.3808969 -0.8406,1.0244813 -0.337115,0.6435844 -0.51224,1.436025 -0.175125,0.7880625 -0.175125,1.61115 z m -0.328954,0 q 0,-0.8230875 -0.175125,-1.61115 -0.170747,-0.7924406 -0.512241,-1.436025 -0.341494,-0.6435844 -0.8406,-1.0244813 l 0.166369,-0.5341313 q 0.485972,0.2626875 0.880003,0.7311469 0.394031,0.4684594 0.674231,1.085775 0.284578,0.6129376 0.437813,1.3265719 0.153234,0.7136344 0.153234,1.4622938 0,0.7486594 -0.153234,1.4622938 -0.153235,0.7136345 -0.437813,1.3265715 -0.2802,0.617316 -0.674231,1.085775 -0.394031,0.46846 -0.880003,0.731147 l -0.166369,-0.534131 q 0.499106,-0.380897 0.8406,-1.024481 0.341494,-0.643585 0.512241,-1.4316471 0.175125,-0.7924407 0.175125,-1.6155282 z m -4.500714,4.8422063 q -0.945675,0 -1.514831,-0.345872 -0.564778,-0.345872 -0.81871,-0.923784 -0.249553,-0.573535 -0.249553,-1.2609 0,-0.297713 0.04378,-0.6873659 0.04816,-0.3896531 0.214529,-0.8887594 l 0.696122,0.2583094 q -0.126966,0.4378125 -0.166369,0.7749279 -0.03503,0.337116 -0.03503,0.569157 0,0.472837 0.166369,0.86249 0.166368,0.389653 0.564778,0.621694 0.402787,0.232041 1.098909,0.232041 0.656719,0 1.125178,-0.161991 0.472838,-0.161991 0.722391,-0.385275 0.253931,-0.223284 0.253931,-0.407166 0,-0.21015 -0.183881,-0.359006 -0.179503,-0.148856 -0.586669,-0.148856 h -0.647962 q -0.08756,0 -0.126966,-0.07443 -0.0394,-0.07881 -0.07443,-0.201394 l -0.11821,-0.4203 q -0.0044,-0.03502 0.01751,-0.06567 0.02189,-0.03503 0.07881,-0.03503 h 2.42986 v 0.796819 h -0.179504 q 0.06567,0.131344 0.08319,0.249553 0.02189,0.118209 0.02189,0.245175 0,0.288956 -0.170746,0.595425 -0.166369,0.310847 -0.516619,0.573534 -0.345872,0.262688 -0.875625,0.424678 -0.529753,0.161991 -1.252144,0.161991 z m -4.82907,-2.154037 q -0.437812,0 -0.809953,-0.18826 Q 19.387713,10.6788 18.989303,10.293525 18.704725,10.613128 18.442038,10.788253 18.17935,10.959 17.702134,10.959 h -0.192637 v -0.796819 h 0.170747 q 0.293334,0 0.494728,-0.1663689 0.201394,-0.1707469 0.359006,-0.4378125 0.157613,-0.2670656 0.310847,-0.5647781 0.157613,-0.3020907 0.35025,-0.5691563 0.192638,-0.2670656 0.464081,-0.4334344 0.275822,-0.1707468 0.67861,-0.1707468 0.485972,0 0.844978,0.2364187 0.363384,0.2320406 0.5604,0.6260719 0.201394,0.3940313 0.201394,0.8800031 0,0.7136343 -0.363385,1.1076653 -0.359006,0.389654 -1.015725,0.389654 z m -0.21015,-2.4648849 q -0.218906,0 -0.398409,0.1488562 -0.179503,0.1444782 -0.323981,0.3765188 -0.144479,0.2320406 -0.25831,0.4815938 0.262688,0.2758218 0.542888,0.4509471 0.359006,0.23204 0.639206,0.23204 0.647962,0 0.647962,-0.6523403 0,-0.455325 -0.227662,-0.7442812 Q 20.753688,8.5948121 20.355278,8.5948121 Z M 15.920237,4.9303214 H 16.66014 V 9.115809 q 0,0.6173156 0.227662,0.8318437 0.227663,0.2145283 0.687366,0.2145283 h 0.109453 V 10.959 h -0.109453 q -0.836222,0 -1.247766,-0.442191 -0.407165,-0.446569 -0.407165,-1.4053781 z m -3.069066,0.3677625 0.634828,0.6348282 -0.634828,0.6348281 -0.634828,-0.6348281 z m 0.06129,2.1321469 q 0.494729,0 0.875626,0.2189063 0.385275,0.2145281 0.604181,0.5866687 0.218906,0.3721407 0.218906,0.8406001 -0.0044,0.5604 -0.341494,1.0025901 0.122588,0.03065 0.32836,0.05692 0.21015,0.02627 0.608559,0.02627 h 0.131344 V 10.959 H 15.21098 q -0.556022,0 -0.919406,-0.113832 -0.359006,-0.113831 -0.604181,-0.315225 -0.359007,0.201394 -0.945675,0.315225 Q 12.155049,10.959 11.380121,10.959 H 9.1122519 v -0.796819 h 0.7442813 q 0.083184,-0.1401 0.1751248,-0.275822 0.09194,-0.1401 0.175125,-0.2758219 V 4.9303214 h 0.739903 V 8.5685433 Q 11.419524,7.9993871 11.896739,7.714809 12.378333,7.4302308 12.912464,7.4302308 Z m 0.01751,0.7968188 q -1.05075,0 -2.276625,1.9351314 h 0.709256 q 1.247766,0 1.860703,-0.2495533 0.612938,-0.2495531 0.612938,-0.7924406 0,-0.385275 -0.249553,-0.6392063 Q 13.337143,8.2270496 12.929977,8.2270496 Z M 7.2690616,10.959 H 6.5554273 v -0.796819 h 0.7048781 q 0.4378125,0 0.5910469,-0.2539314 0.1576125,-0.2539312 0.1576125,-0.6435844 0,-0.2845781 -0.052537,-0.6085594 Q 7.9038898,8.3321246 7.842596,8.0037652 L 8.6043898,7.8111277 q 0.074428,0.35025 0.1182094,0.6873656 0.043781,0.3371157 0.043781,0.6435844 0,0.525375 -0.1444781,0.9369183 Q 8.4774242,10.49054 8.1490648,10.726959 7.8207054,10.959 7.2690616,10.959 Z M 7.8031929,5.792812 8.438021,6.4276402 7.8031929,7.0624683 7.1683648,6.4276402 Z"
         id="path19" />
    </g>
  </g>
</svg>
