<?xml version="1.0" encoding="UTF-8" standalone="no"?>


<svg class="tikz-diagram" id="iran-action-ch5-tikz-4-9325ca553b5a"
   version="1.1"
   id="svg1"
   width="544.09332"
   height="311.97333"
   viewBox="0 0 544.09332 311.97333"
   sodipodi:docname="iran-action-ch5-tikz-4-9325ca553b5a.pdf"
   xmlns:inkscape="http://www.inkscape.org/namespaces/inkscape"
   xmlns:sodipodi="http://sodipodi.sourceforge.net/DTD/sodipodi-0.dtd"
   xmlns="http://www.w3.org/2000/svg"
   xmlns:svg="http://www.w3.org/2000/svg">
  <defs
     id="defs1" />
  <sodipodi:namedview
     id="namedview1"
     pagecolor="#ffffff"
     bordercolor="#000000"
     borderopacity="0.25"
     inkscape:showpageshadow="2"
     inkscape:pageopacity="0.0"
     inkscape:pagecheckerboard="0"
     inkscape:deskcolor="#d1d1d1">
    <inkscape:page
       x="0"
       y="0"
       inkscape:label="1"
       id="page1"
       width="544.09332"
       height="311.97333"
       margin="0"
       bleed="0" />
  </sodipodi:namedview>
  <g
     id="g1"
     inkscape:groupmode="layer"
     inkscape:label="1">
    <path
       id="path1"
       d="M 102.0478,0 C 102.0478,56.36015 56.36015,102.0478 0,102.0478 -56.36015,102.0478 -102.0478,56.36015 -102.0478,0 c 0,-56.36015 45.68765,-102.0478 102.0478,-102.0478 56.36015,0 102.0478,45.68765 102.0478,102.0478 z"
       style="fill:#ffe6e6;fill-opacity:1;fill-rule:nonzero;stroke:none"
       transform="matrix(1.3333333,0,0,-1.3333333,155.98667,155.98533)" />
    <path
       id="path2"
       d="M 71.43353,0 C 71.43353,39.45215 39.45215,71.43353 0,71.43353 -39.45215,71.43353 -71.43353,39.45215 -71.43353,0 c 0,-39.45215 31.98138,-71.43353 71.43353,-71.43353 39.45215,0 71.43353,31.98138 71.43353,71.43353 z"
       style="fill:#fff8dc;fill-opacity:1;fill-rule:nonzero;stroke:none"
       transform="matrix(1.3333333,0,0,-1.3333333,155.98667,155.98533)" />
    <path
       id="path3"
       d="M 38.26791,0 C 38.26791,21.13504 21.13504,38.26791 0,38.26791 -21.13504,38.26791 -38.26791,21.13504 -38.26791,0 c 0,-21.13504 17.13287,-38.26791 38.26791,-38.26791 21.13504,0 38.26791,17.13287 38.26791,38.26791 z"
       style="fill:#e6fae6;fill-opacity:1;fill-rule:nonzero;stroke:none"
       transform="matrix(1.3333333,0,0,-1.3333333,155.98667,155.98533)" />
    <g
       id="text3"
       transform="matrix(1.3333333,0,0,1.3333333,143.23733,142.95867)"
       aria-label="ناﺮﯾانوﺪﺑحﻼﺳیا ﻪﺘﺴﻫ">
      <path
         style="font-weight:800;font-size:9.9626px;font-family:Vazirmatn"
         d="m 12.612496,0 h -0.773464 v -1.4058551 h 0.778328 q 0.369706,0 0.505914,-0.2286339 0.141071,-0.2334985 0.141071,-0.5886107 0,-0.3307894 -0.0827,-0.7199535 -0.07783,-0.3940286 -0.16053,-0.768599 l 1.274512,-0.3307894 q 0.09243,0.4572678 0.145937,0.909671 0.05837,0.4475386 0.05837,0.8561609 0,0.6469852 -0.175123,1.1626276 -0.175124,0.51564237 -0.588611,0.81724451 Q 13.327585,0 12.612496,0 Z m 0.574017,-6.3433741 0.875619,0.8756192 -0.875619,0.8707545 -0.870755,-0.8707545 z M 9.8251083,-6.8201 h 1.3134287 v 4.4461993 q 0,0.5156423 0.150801,0.7442762 0.150801,0.2237694 0.622663,0.2237694 h 0.121613 V 0 H 11.912001 Q 10.822341,0 10.321292,-0.56428788 9.8251083,-1.1285758 9.8251083,-2.2571515 Z M 8.447156,0 Q 8.0044819,0 7.7174734,-0.17025927 7.5228913,0.94858738 6.7591569,1.67827 6.000287,2.4079526 4.7306393,2.6511801 L 4.2490487,1.3523451 Q 4.9544086,1.201544 5.4603219,0.94858738 5.9710997,0.7004953 6.2483791,0.28214394 q 0.2772794,-0.41835136 0.2772794,-1.07993025 0,-0.44267409 -0.141072,-0.99236829 -0.141072,-0.5545588 -0.3016022,-1.0312848 l 1.3085642,-0.4232159 0.2821439,1.0993885 q 0.082697,0.3113312 0.2432275,0.5253714 0.1605302,0.2140403 0.476726,0.2140403 H 8.5833634 V 0 Z M 2.2253962,0 H 1.1795178 v -1.4058551 h 1.0507429 q 0.3697059,0 0.5059133,-0.2286339 0.141072,-0.2334985 0.141072,-0.5886107 0,-0.3307894 -0.082697,-0.7199535 -0.077833,-0.3940286 -0.1605302,-0.768599 l 1.2745123,-0.3307894 q 0.092427,0.4572678 0.1459365,0.909671 0.058375,0.4475386 0.058375,0.8561609 0,0.6469852 -0.1751238,1.1626276 Q 3.7674587,-0.59833973 3.3539719,-0.29673759 2.9404851,0 2.2253962,0 Z M 1.3059961,0.62266248 2.1329697,1.439907 2.9502142,0.62266248 3.7820524,1.4496361 2.9502142,2.2863388 2.1329697,1.4593652 1.3059961,2.2863388 0.47902248,1.4496361 Z M 0.62495877,-6.8201 v 6.81523545 H -0.68846991 V -6.8201 Z"
         id="path12" />
      <path
         style="font-weight:800;font-size:9.9626px;font-family:Vazirmatn"
         d="m 24.915698,11.955 h -0.773463 v -1.405855 h 0.778328 q 0.369706,0 0.505913,-0.228634 0.141072,-0.233499 0.141072,-0.5886107 0,-0.3307895 -0.0827,-0.7199535 -0.07783,-0.3940286 -0.16053,-0.768599 l 1.274512,-0.3307895 q 0.09243,0.4572678 0.145936,0.909671 0.05837,0.4475387 0.05837,0.8561609 0,0.6469848 -0.175124,1.1626278 -0.175124,0.515642 -0.58861,0.817244 Q 25.630787,11.955 24.915698,11.955 Z M 25.489715,5.6116259 26.365334,6.487245 25.489715,7.3579995 24.618961,6.487245 Z m -3.52193,2.3203906 q 0.612933,0 1.041014,0.3648413 0.42808,0.3648413 0.671308,0.9631811 0.243227,0.5934751 0.291873,1.2891061 h 0.364841 V 11.955 h -0.462132 q -0.277279,1.109117 -1.089659,1.741509 -0.81238,0.637256 -2.218236,0.909671 l -0.48159,-1.298835 q 0.612933,-0.116749 1.13344,-0.311331 0.525372,-0.194582 0.885348,-0.457268 Q 22.468834,12.27606 22.590448,11.955 H 22.13318 q -0.982639,0 -1.498282,-0.408622 -0.515642,-0.413487 -0.515642,-1.332887 0,-0.359977 0.111884,-0.7540056 0.111885,-0.3988931 0.340519,-0.7442762 0.228634,-0.3502477 0.574017,-0.5642879 0.350248,-0.2189048 0.822109,-0.2189048 z m 0.16053,2.6171285 h 0.622663 Q 22.72179,10.27673 22.634229,9.9897215 22.551531,9.702713 22.386136,9.5081309 q -0.16053,-0.194582 -0.42808,-0.194582 -0.228634,0 -0.364841,0.1459365 -0.131343,0.141072 -0.189718,0.3405186 -0.05351,0.194582 -0.05351,0.359977 0,0.257821 0.21404,0.325925 0.218905,0.06324 0.564288,0.06324 z m -4.66024,-0.695631 q 0,-0.1216137 -0.05351,-0.3210603 -0.05351,-0.1994466 -0.111885,-0.3259249 l -0.963181,-2.1258086 1.157763,-0.5642879 1.211273,2.7922521 q 0.145937,0.335654 0.257821,0.6177979 0.11675,0.2821437 0.262686,0.4524037 0.150801,0.170259 0.3843,0.170259 h 0.204311 V 11.955 h -0.204311 q -0.54483,0 -0.880484,-0.204311 -0.33079,-0.209176 -0.583746,-0.535101 -0.369706,0.355112 -0.880484,0.54483 -0.510778,0.189717 -1.235596,0.189717 -0.42808,0 -0.724818,-0.02919 -0.296737,-0.02919 -0.612933,-0.10702 v -1.405855 q 0.301602,0.07297 0.637256,0.111884 0.340519,0.03892 0.627527,0.03892 0.359977,0 0.70536,-0.05837 0.345383,-0.06324 0.574017,-0.218905 0.228634,-0.155665 0.228634,-0.42808 z M 12.010046,11.955 h -0.875619 v -1.405855 h 0.880484 q 0.369706,0 0.505913,-0.228634 0.141072,-0.233499 0.141072,-0.5886107 0,-0.3307895 -0.0827,-0.7199535 -0.07783,-0.3940286 -0.16053,-0.768599 l 1.274512,-0.3307895 q 0.09243,0.4572678 0.145936,0.909671 0.05837,0.4475387 0.05837,0.8561609 0,0.6469848 -0.175124,1.1626278 -0.175124,0.515642 -0.58861,0.817244 Q 12.725135,11.955 12.010046,11.955 Z m 0.126479,0.574017 0.875619,0.875619 -0.875619,0.870755 -0.870755,-0.870755 z m 1.079464,-4.027848 -0.0049,1.2599186 q -0.617798,0.05351 -1.284241,0.194582 -0.661579,0.1362074 -1.284242,0.3648414 -0.622662,0.223769 -1.1237109,0.54483 -0.4961842,0.316195 -0.7929218,0.729682 -0.291873,0.408622 -0.291873,0.914536 0,0.471861 0.2772793,0.792921 0.282144,0.321061 0.7588699,0.481591 0.4815906,0.165395 1.0847945,0.165395 0.685902,0 1.308564,-0.131343 0.622663,-0.126478 1.118847,-0.321061 l 0.394029,1.318294 q -0.656715,0.262685 -1.366939,0.379435 -0.710224,0.121613 -1.400991,0.121613 -0.9437224,0 -1.717186,-0.282144 -0.7734635,-0.277279 -1.2355958,-0.890212 -0.4572678,-0.612934 -0.4572678,-1.605302 0,-0.700495 0.2626857,-1.269648 Q 7.7239109,10.699946 8.1811786,10.267001 8.6384464,9.8291913 9.227057,9.51786 9.8156676,9.2065288 10.462653,9.0265404 10.005385,8.8319584 9.6843248,8.7103446 9.3632644,8.5887309 9.2319216,8.5887309 q -0.2675503,0 -0.4815905,0.1653947 Q 8.5411554,8.9146558 8.4000834,9.0995087 L 8.1422622,9.420569 7.0526029,8.890333 7.2715076,8.5352208 Q 7.6168907,7.9709329 8.1033458,7.6012271 8.5898009,7.2315212 9.2367861,7.2315212 q 0.2675503,0 0.6275271,0.1264783 0.3648408,0.1264784 0.7783278,0.3161958 0.418352,0.184853 0.861026,0.3745704 0.442674,0.184853 0.880483,0.3161958 0.43781,0.1313429 0.831839,0.1362075 z M 3.8128117,10.344834 Q 4.6543789,9.9897215 4.6543789,8.5108981 V 5.1348999 h 1.3036996 v 3.6338193 q 0,0.432945 0.043781,0.8464319 0.048646,0.4086219 0.2091756,0.6713079 0.1653948,0.262686 0.5059133,0.262686 H 6.8969368 V 11.955 H 6.7023547 q -0.6032042,0 -0.9972328,-0.277279 Q 5.3159578,11.395577 5.1067821,10.952902 4.6251916,11.444222 3.8565926,11.702043 3.0928582,11.955 2.1491353,11.955 q -0.2626857,0 -0.5205069,-0.01946 -0.2529566,-0.01946 -0.5156424,-0.03892 v -1.357209 q 0.3016022,0.01946 0.6032043,0.04378 0.3064667,0.01946 0.530236,0.01946 0.087562,0 0.1605302,0 0.077833,0 0.1459365,-0.0049 0,0 -0.068104,-0.306466 Q 2.4215502,9.9848569 2.2950718,9.4740791 2.1734581,8.9584367 1.9934697,8.3260451 1.8183459,7.6936535 1.5945766,7.0320747 1.3708072,6.3704958 1.1081215,5.7818851 L 2.3048009,5.2613782 Q 2.5723512,5.8840407 2.8009851,6.584536 3.029619,7.2801667 3.2144719,7.9466102 3.4041894,8.6130536 3.5355323,9.1578833 3.6717397,9.6978484 3.7398434,10.023773 Z M -4.0142496,11.955 q -0.4913196,0 -0.8269736,-0.165395 -0.3307895,-0.170259 -0.5448297,-0.447538 -0.2675503,0.282143 -0.6372562,0.447538 Q -6.3930149,11.955 -6.9573028,11.955 h -0.4475386 v -1.405855 h 0.4572677 q 0.5351006,0 0.7588699,-0.131343 0.2286339,-0.131343 0.2286339,-0.6323917 0,-0.077833 -0.00973,-0.2578212 -0.00973,-0.1799883 -0.024323,-0.3940286 -0.014594,-0.2189047 -0.029187,-0.3940286 l 1.2210023,-0.150801 0.1021555,1.3134286 q 0.043781,0.6469855 0.6956308,0.6469855 0.4037577,0 0.5399651,-0.165395 0.1362074,-0.170259 0.1362074,-0.5983397 0,-0.068104 -0.00973,-0.2480921 -0.00973,-0.1848529 -0.024323,-0.4037577 -0.014594,-0.2189047 -0.029187,-0.3940286 l 1.2210022,-0.150801 0.1021555,1.3134286 q 0.019458,0.2967375 0.1459366,0.4718615 0.1313428,0.175124 0.4426741,0.175124 0.291873,0 0.3988931,-0.228634 0.11188468,-0.233499 0.11188468,-0.5545589 0,-0.2772794 -0.0535101,-0.5691524 -0.048646,-0.2967376 -0.1118846,-0.5351006 -0.058375,-0.2432275 -0.087562,-0.3551122 L 0.03792107,7.9612038 q 0.09729101,0.3842995 0.16053017,0.8221091 0.0632392,0.432945 0.0632392,0.8610255 0,0.6032046 -0.16053017,1.1334406 -0.15566562,0.525371 -0.53510058,0.851296 Q -0.8133753,11.955 -1.4700896,11.955 q -0.4378096,0 -0.7394117,-0.179988 -0.2967376,-0.179989 -0.5010488,-0.442675 -0.248092,0.262686 -0.5642878,0.442675 Q -3.5861692,11.955 -4.0142496,11.955 Z"
         id="path13" />
      <path
         style="font-weight:800;font-size:9.9626px;font-family:Vazirmatn"
         d="m 20.39779,23.91 h -1.045879 v -1.405855 h 1.050743 q 0.369706,0 0.505914,-0.228634 0.141072,-0.233499 0.141072,-0.588611 0,-0.330789 -0.0827,-0.719953 -0.07783,-0.394029 -0.16053,-0.768599 l 1.274512,-0.33079 q 0.09243,0.457268 0.145937,0.909671 0.05837,0.447539 0.05837,0.856161 0,0.646985 -0.175123,1.162628 -0.17026,0.515642 -0.583747,0.817244 Q 21.112879,23.91 20.39779,23.91 Z m -0.9194,0.622662 0.826973,0.817245 0.817245,-0.817245 0.831838,0.826974 -0.831838,0.836703 -0.817245,-0.826974 -0.826973,0.826974 -0.826974,-0.836703 z M 17.347714,17.0899 h 1.313428 v 4.446199 q 0,0.515642 0.150801,0.744276 0.150802,0.22377 0.622663,0.22377 H 19.55622 V 23.91 h -0.121614 q -1.089659,0 -1.590708,-0.564288 -0.496184,-0.564288 -0.496184,-1.692864 z M 11.671251,23.91 q -0.681037,0 -1.118847,-0.257821 -0.437809,-0.262686 -0.6323914,-0.856161 -0.5594233,0.437809 -1.2210022,0.437809 -0.8075154,0 -1.3474806,-0.437809 -0.5399651,-0.442674 -0.5399651,-1.3037 0,-0.632391 0.3648413,-1.07993 0.3648413,-0.452403 0.9388583,-0.75887 0.5788815,-0.306467 1.2064086,-0.496184 l -0.034052,-0.233499 1.177221,-0.238363 0.462133,3.123042 q 0.04378,0.296738 0.228633,0.496184 0.189718,0.199447 0.535101,0.199447 H 11.84151 V 23.91 Z M 9.6524623,21.297736 q 0,-0.0681 -0.014594,-0.150801 -0.00973,-0.08756 -0.024323,-0.179988 L 9.5308485,20.456169 Q 9.1854654,20.572918 8.8498114,20.728584 8.519022,20.879385 8.3001172,21.064238 8.086077,21.244226 8.086077,21.453402 q 0,0.199446 0.1605302,0.325925 0.1653947,0.121613 0.4280804,0.121613 0.2237694,0 0.4475387,-0.06324 0.2286339,-0.0681 0.3794349,-0.199446 0.1508011,-0.136208 0.1508011,-0.340519 z M 3.2555788,18.043352 4.0825525,18.860596 4.899797,18.043352 5.7316351,18.870325 4.899797,19.707028 4.0825525,18.880054 3.2555788,19.707028 2.4286052,18.870325 Z M 2.744801,22.504145 h 0.6810371 q 0.5351006,0 0.7345472,-0.179989 0.2043111,-0.184853 0.2043111,-0.671308 0,-0.287008 -0.014594,-0.554558 -0.014594,-0.272415 -0.034052,-0.530236 l 1.2161377,-0.150802 0.097291,1.391262 q 0.024323,0.369706 0.2043111,0.535101 0.1799884,0.16053 0.574017,0.16053 H 6.5099632 V 23.91 H 6.3980786 Q 5.9116235,23.91 5.5613759,23.734876 5.2159928,23.559752 4.9922234,23.277608 4.6954858,23.574346 4.2868636,23.744605 3.8831059,23.91 3.4258381,23.91 H 2.744801 Z M 0.26874474,23.91 q -0.432945,0 -0.73454715,-0.179989 Q -0.76740455,23.550023 -0.97171567,23.287337 -1.2198078,23.550023 -1.5360036,23.730011 -1.8473348,23.91 -2.2754153,23.91 q -0.4913196,0 -0.8269736,-0.165395 -0.3307894,-0.170259 -0.5448296,-0.447539 -0.2675503,0.282144 -0.6372562,0.447539 Q -4.6541805,23.91 -5.2184684,23.91 h -0.4475387 v -1.405855 h 0.4572678 q 0.5351006,0 0.7588699,-0.131343 0.2286339,-0.131343 0.2286339,-0.632392 0,-0.07783 -0.00973,-0.257821 -0.00973,-0.179988 -0.024323,-0.394029 -0.014594,-0.218904 -0.029187,-0.394028 l 1.2210022,-0.150801 0.1021556,1.313428 q 0.043781,0.646986 0.6956307,0.646986 0.4037578,0 0.5399652,-0.165395 0.1362074,-0.170259 0.1362074,-0.59834 0,-0.0681 -0.00973,-0.248092 -0.00973,-0.184853 -0.024323,-0.403758 -0.014594,-0.218904 -0.029187,-0.394028 l 1.22100225,-0.150801 0.10215556,1.313428 q 0.0194582,0.301603 0.15080107,0.476726 0.13134287,0.17026 0.43780956,0.17026 0.30160214,0 0.40862226,-0.199447 0.11188466,-0.199446 0.11188466,-0.564288 0,-0.175124 -0.0194582,-0.505913 -0.0194582,-0.330789 -0.043781,-0.632392 l 1.22100219,-0.150801 0.1021556,1.405855 q 0.024323,0.359977 0.1994466,0.505914 0.1799883,0.141072 0.5545587,0.141072 H 2.9393831 V 23.91 H 2.8031756 Q 2.355637,23.91 2.0102539,23.754334 1.6697353,23.598669 1.4702888,23.331118 1.2708422,23.57921 0.97896914,23.744605 0.6870961,23.91 0.26874474,23.91 Z M -10.136529,23.486784 q -0.43781,0.150801 -1.002098,0.287008 Q -11.69805,23.91 -12.233151,23.91 h -0.48159 v -1.405855 h 0.418351 q 0.16053,0 0.301602,-0.0049 0.145937,-0.0049 0.296738,-0.01459 -0.150801,-0.194583 -0.243228,-0.515643 -0.09243,-0.325925 -0.09243,-0.603204 0,-0.413487 0.204311,-0.81238 0.204311,-0.398893 0.612933,-0.666444 0.408623,-0.26755 1.016691,-0.287008 l 0.4669973,-0.924265 q 0.9048064,0.428081 1.6053017,0.783193 0.7053599,0.355112 1.1820858,0.700495 0.4815905,0.345383 0.7296826,0.749141 0.2480921,0.398893 0.2480921,0.924265 0,0.992368 -0.5934752,1.512875 -0.5934751,0.515642 -1.5712498,0.515642 -0.5107778,0 -1.0702012,-0.126478 -0.5594233,-0.126478 -0.9339933,-0.248092 z m -0.685902,-2.130673 q 0,0.26755 0.243227,0.501048 0.243228,0.228634 0.525372,0.316196 0.1313428,-0.02919 0.3016021,-0.131343 0.1751238,-0.10702 0.3016021,-0.257821 0.1264784,-0.155665 0.1264784,-0.330789 0,-0.291873 -0.2091757,-0.525372 -0.2091757,-0.233498 -0.5107779,-0.233498 -0.311331,0 -0.54483,0.199446 -0.233498,0.194582 -0.233498,0.462133 z m 2.1306731,1.148034 q 0.2286339,0.03892 0.4426742,0.05837 0.2140402,0.01946 0.3064666,0.01946 0.2870085,0 0.5253715,-0.145937 0.238363,-0.150801 0.238363,-0.564288 0,-0.102155 -0.077833,-0.233498 -0.072968,-0.136208 -0.3210604,-0.33079 -0.2432275,-0.194582 -0.7491408,-0.476726 0.068104,0.209176 0.068104,0.432945 0,0.379435 -0.1216138,0.690766 -0.1167492,0.306467 -0.3113313,0.549695 z"
         id="path14" />
    </g>
    <g
       id="text5"
       transform="matrix(1.3333333,0,0,1.3333333,137.87067,77.753333)"
       aria-label="ﻒﯿﻌﻀﺗیﺎﻫوﺮﯿﻧﯽﺘﺑﺎﯿﻧ">
      <path
         style="font-size:8.9664px;font-family:Vazirmatn"
         d="m 25.077901,-5.6040001 0.634828,0.6348281 -0.634828,0.6348282 -0.634828,-0.6348282 z m -2.491154,4.80718134 h 0.385275 q 0.0394,0 0.245175,0 0.205772,0 0.459704,-0.004378 0.253931,-0.008756 0.433434,-0.0175125 -0.262687,-0.30646871 -0.411544,-0.60855941 -0.148856,-0.3020906 -0.148856,-0.6435844 0,-0.2714437 0.126966,-0.5472656 0.126965,-0.2758219 0.341493,-0.5122406 0.214529,-0.2364188 0.49035,-0.3765188 0.275822,-0.1444781 0.569157,-0.1444781 0.306468,0 0.586668,0.1444781 0.2802,0.1401 0.494729,0.3765188 0.218906,0.2320406 0.345871,0.5122406 0.126966,0.2802 0.126966,0.5560219 0,0.3458719 -0.153234,0.6435844 -0.153235,0.2933344 -0.4203,0.60418124 0.245175,0.0131344 0.437812,0.0175125 0.192638,0 0.341494,0 h 0.424678 V 0 h -0.415922 q -0.166369,0 -0.455325,-0.02626875 -0.288956,-0.03064688 -0.634828,-0.10069688 -0.345872,-0.07005 -0.682987,-0.18825938 -0.337116,0.12258751 -0.761794,0.19263751 -0.424678,0.06567187 -0.796819,0.09631875 Q 23.142769,0 22.963266,0 h -0.376519 q -1.650553,0 -2.482396,-0.44656876 -0.827466,-0.44656875 -0.827466,-1.54547814 0,-0.3020906 0.06567,-0.5910469 0.07005,-0.2889562 0.179503,-0.5560219 l 0.678609,0.2539313 q -0.07005,0.1926375 -0.118209,0.4115437 -0.04378,0.2189063 -0.04378,0.4159219 0.0044,0.5122406 0.288956,0.7880625 0.284578,0.27144378 0.849356,0.37214066 0.564778,0.10069688 1.409756,0.10069688 z m 2.491154,-2.07960944 q -0.166369,0 -0.35025,0.1269657 -0.179503,0.1225875 -0.306469,0.3108468 -0.122588,0.1882594 -0.122588,0.385275 0,0.2013938 0.11821,0.4115438 0.118209,0.21015 0.297712,0.385275 0.183882,0.175125 0.372141,0.27144376 0.332737,-0.14009996 0.564778,-0.45094686 0.236419,-0.315225 0.236419,-0.6260719 0,-0.1838813 -0.131344,-0.3721406 -0.126966,-0.1882594 -0.315225,-0.315225 -0.188259,-0.1269657 -0.363384,-0.1269657 z m -9.583716,2.07960944 h 0.661097 q 0.556022,0 0.79244,-0.24955314 0.240797,-0.2495531 0.240797,-0.7661719 0,-0.21015 -0.01313,-0.3984094 -0.0088,-0.1882593 -0.02627,-0.3765187 l 0.731147,-0.087562 0.07005,1.0244812 q 0.05254,0.85373444 0.888759,0.85373444 h 0.09194 V 0 H 18.830316 Q 18.344344,0 18.05101,-0.175125 17.762054,-0.35025001 17.582551,-0.66985314 17.346132,-0.32398126 16.960857,-0.16199063 16.575582,0 16.155282,0 h -0.661097 z m 1.580503,1.49294065 0.612938,0.60855941 -0.612938,0.6173156 -0.608559,-0.6173156 z m -1.453537,0 0.612937,0.60855941 -0.612937,0.6173156 -0.60856,-0.6173156 z M 13.182535,-3.4236938 q 0.337115,0 0.696122,0.056916 0.359006,0.052538 0.665475,0.1532344 0.310847,0.1006969 0.503484,0.245175 0.192638,0.1444781 0.192638,0.3239813 0,0.1269656 -0.135722,0.35025 -0.131344,0.2232843 -0.341494,0.4815937 -0.205772,0.2583094 -0.433434,0.4991063 -0.227663,0.2364187 -0.415922,0.40278749 0.306468,0.0788062 0.58229,0.0963188 0.275822,0.0175125 0.499107,0.0175125 h 0.682987 V 0 h -0.678609 q -0.459703,0 -0.919407,-0.10945313 -0.455325,-0.10945312 -0.897515,-0.36338438 -0.288956,0.16636875 -0.669853,0.27144376 -0.376519,0.105075 -0.761794,0.15323437 Q 11.369991,0 11.063522,0 H 10.371779 V -0.79681876 H 11.0679 q 0.148857,0 0.39841,-0.004378 0.253931,-0.008756 0.520997,-0.0306469 0.271443,-0.0262687 0.472837,-0.0788062 -0.188259,-0.16636879 -0.415922,-0.40278749 -0.227662,-0.2407969 -0.437812,-0.4991063 -0.205772,-0.2583094 -0.341494,-0.4815937 -0.135722,-0.2232844 -0.135722,-0.35025 0,-0.1795032 0.18826,-0.3239813 0.188259,-0.1444781 0.494728,-0.245175 0.310847,-0.1006969 0.669853,-0.1532344 0.359006,-0.056916 0.7005,-0.056916 z m 0,0.7530375 q -0.197016,0 -0.564778,0.030647 -0.363385,0.030647 -0.687366,0.1401 0.284578,0.3590062 0.573534,0.6435844 0.288957,0.2845781 0.481594,0.455325 0.197016,0.1663687 0.197016,0.1663687 0,0 0.197015,-0.1663687 0.197016,-0.1707469 0.49035,-0.455325 0.293335,-0.2845782 0.573535,-0.6435844 -0.323981,-0.1094531 -0.691744,-0.1401 -0.367762,-0.030647 -0.569156,-0.030647 z M 7.9287848,-5.6609157 8.5636129,-5.0260876 7.9287848,-4.3912594 7.2939567,-5.0260876 Z M 6.5890785,0 H 6.3570379 Q 5.4288754,0 4.9429035,-0.175125 4.4569316,-0.35025001 4.2555379,-0.66547501 4.0016066,-0.31960313 3.6820035,-0.1576125 3.3667785,0 2.8414035,0 H 2.6619003 l 0.00438,-0.79681876 h 0.175125 q 0.6129375,0 0.8230875,-0.25830934 0.2145281,-0.2626875 0.2145281,-0.7574157 0,-0.21015 -0.017513,-0.3896531 Q 3.8483722,-2.3817 3.839616,-2.5874719 l 0.7311469,-0.087562 0.065672,1.0244812 q 0.021891,0.2933344 0.1225876,0.5078626 0.1006968,0.21014996 0.3108468,0.21014996 0.7836844,-1.33095006 1.5323438,-1.96140006 0.7530375,-0.6348281 1.506075,-0.6348281 0.4991063,0 0.8843813,0.2189062 0.3896531,0.2145282 0.6085594,0.5866688 0.2189062,0.3721406 0.2189062,0.8406 -0.00438,0.5647782 -0.3371156,1.00259066 0.1269656,0.0306469 0.3283594,0.0569156 0.2057714,0.0262688 0.6041814,0.0262688 h 0.131344 V 0 H 10.419938 Q 9.8639161,0 9.5005317,-0.11383125 9.1415254,-0.2276625 8.8963504,-0.42905626 8.5373442,-0.2276625 7.9506754,-0.11383125 7.3640067,0 6.5890785,0 Z m 1.5542344,-2.73195 q -1.0551281,0 -2.2810031,1.93513124 H 6.571566 q 1.2477657,0 1.8607032,-0.24955314 0.6129375,-0.2495531 0.6129375,-0.7924406 0,-0.385275 -0.2495531,-0.6392063 Q 8.5504786,-2.73195 8.1433129,-2.73195 Z M 1.8388128,-5.1399188 2.4517503,-4.5313594 1.8388128,-3.9140438 1.2302534,-4.5313594 Z m -1.4535375,0 0.61293751,0.6085594 -0.61293751,0.6173156 -0.60855938,-0.6173156 z m -0.4728375,4.34310004 h 0.89751564 q 0.43781246,0 0.59104686,-0.25393124 0.1576125,-0.2539313 0.1576125,-0.6435844 0,-0.2845781 -0.052537,-0.6085594 -0.052537,-0.3239812 -0.1138312,-0.6523406 l 0.7617937,-0.1926375 q 0.074428,0.35025 0.1182094,0.6873656 0.043781,0.3371156 0.043781,0.6435844 0,0.525375 -0.1444782,0.93691876 Q 2.0270722,-0.46845938 1.6987128,-0.23204063 1.3703534,0 0.81870969,0 H -0.0875622 Z"
         id="path15" />
      <path
         style="font-size:8.9664px;font-family:Vazirmatn"
         d="m 35.250644,13.168953 q -0.945675,0 -1.514831,-0.345872 -0.564779,-0.345871 -0.81871,-0.923784 -0.249553,-0.573534 -0.249553,-1.2609 0,-0.464081 0.09632,-0.9500531 0.09632,-0.49035 0.262687,-0.9544313 l 0.696122,0.2802001 q -0.126966,0.4027875 -0.214528,0.8274656 -0.08756,0.4246777 -0.08756,0.8230877 0,0.472837 0.166369,0.86249 0.170747,0.389654 0.569157,0.621694 0.398409,0.232041 1.094531,0.232041 0.621694,0 1.112044,-0.157613 0.49035,-0.153234 0.774928,-0.402787 0.284578,-0.245175 0.284578,-0.520997 0,-0.1401 -0.08319,-0.262688 -0.08318,-0.122587 -0.30209,-0.122587 h -0.709256 q -0.647963,0 -0.91065,-0.310847 -0.25831,-0.315225 -0.25831,-0.8712468 0,-0.5779125 0.236419,-1.0595063 0.236419,-0.4859719 0.674231,-0.7749281 0.437813,-0.2889563 1.037616,-0.2889563 0.227662,0 0.477215,0.061294 0.253932,0.061294 0.507863,0.2320406 l -0.249553,0.665475 q -0.345872,-0.175125 -0.735525,-0.175125 -0.556022,0 -0.871247,0.3896531 -0.310847,0.3896532 -0.310847,0.9500532 0,0.2057718 0.08318,0.3020908 0.08319,0.09194 0.337116,0.09194 H 37.0807 q 0.604181,0 0.823088,0.32836 0.223284,0.323981 0.223284,0.827465 0,0.485972 -0.332738,0.915029 -0.332737,0.433434 -0.976321,0.7005 -0.639207,0.271443 -1.567369,0.271443 z M 30.557293,4.929322 h 0.739903 v 4.1854875 q 0,0.6173157 0.227663,0.8318438 0.227662,0.2145277 0.687365,0.2145277 h 0.109453 V 10.958 h -0.109453 q -0.836222,0 -1.247766,-0.44219 -0.407165,-0.446569 -0.407165,-1.4053786 z m -4.557628,2.4736406 0.345872,-0.6479625 q 1.571746,0.7661719 2.342296,1.3703532 0.77055,0.5998031 0.77055,1.225875 0,0.7749277 -0.481593,1.1689597 -0.477216,0.394031 -1.282791,0.394031 -0.302091,0 -0.643584,-0.04816 -0.341494,-0.04816 -0.647963,-0.11821 -0.306469,-0.07443 -0.516619,-0.144478 -0.380897,0.1401 -0.893137,0.249553 Q 24.480455,10.958 24.00324,10.958 h -0.433435 v -0.796819 h 0.376519 q 0.288956,0 0.507862,-0.01313 0.223285,-0.01313 0.485972,-0.04378 -0.30209,-0.2451752 -0.437812,-0.5341315 -0.131344,-0.2933343 -0.131344,-0.6041812 0,-0.455325 0.214528,-0.7836844 0.214528,-0.3283594 0.569156,-0.5034844 0.354629,-0.1795031 0.774929,-0.1795031 0.188259,0 0.376518,0.048159 -0.148856,-0.07005 -0.306468,-0.1444782 z m 0.79244,2.7188154 q 0.192638,0.02189 0.4203,0.04378 0.227663,0.01751 0.402788,0.01751 0.529753,0 0.805575,-0.1970156 0.2802,-0.2013937 0.2802,-0.6216937 0,-0.2145282 -0.245175,-0.4640813 Q 28.210618,8.6463501 27.799074,8.3792845 27.391908,8.1078408 26.89718,7.8451533 q 0.240797,0.1926375 0.385275,0.4640812 0.148857,0.2714438 0.148857,0.5735344 0,0.4115438 -0.166369,0.7048781 -0.161991,0.2889563 -0.472838,0.534131 z M 25.12404,8.957197 q 0,0.2583094 0.214528,0.5166188 0.218906,0.2539312 0.63045,0.4115437 0.788062,-0.3196031 0.788062,-0.9194062 0,-0.3808969 -0.23204,-0.5779125 -0.227663,-0.2013938 -0.551644,-0.2013938 -0.376519,0 -0.612938,0.21015 -0.236418,0.21015 -0.236418,0.5604 z m -1.900107,1.252144 q 0,2.556825 -2.806379,3.095334 l -0.258309,-0.696122 q 1.006969,-0.192637 1.606772,-0.643584 0.599803,-0.446569 0.709256,-1.125178 -0.166369,0.05254 -0.385275,0.09194 -0.218906,0.0394 -0.385275,0.0394 -1.598016,0 -1.598016,-1.3572192 0,-0.3239813 0.09632,-0.6479625 0.100697,-0.3283594 0.288956,-0.5998032 0.192638,-0.2758218 0.46846,-0.4421906 0.275822,-0.1663687 0.626072,-0.1663687 0.415922,0 0.72239,0.2057718 0.310847,0.2057719 0.512241,0.5560219 0.201394,0.35025 0.302091,0.7880625 0.100697,0.4378125 0.100697,0.901894 z m -1.497319,-0.03065 q 0.385275,0 0.766172,-0.113831 -0.04378,-0.7355253 -0.271444,-1.1251785 -0.227663,-0.3940312 -0.643585,-0.3940312 -0.288956,0 -0.450946,0.1795031 -0.157613,0.1795031 -0.223285,0.4246781 -0.06129,0.2407969 -0.06129,0.4378125 0,0.3196032 0.218907,0.455325 0.218906,0.135722 0.665475,0.135722 z M 19.517098,10.958 q -0.30209,0 -0.507862,-0.07881 -0.201394,-0.08318 -0.315225,-0.175125 -0.06567,0.573534 -0.319603,1.107666 -0.249554,0.538509 -0.753038,0.936918 -0.503484,0.39841 -1.33095,0.5604 L 16.032111,12.61731 q 1.068262,-0.232041 1.506075,-0.814332 0.437812,-0.577912 0.437812,-1.370353 0,-0.37214 -0.08318,-0.7793061 -0.07881,-0.4115437 -0.223285,-0.8362219 l 0.726769,-0.245175 0.236419,0.9150282 q 0.09632,0.3677625 0.306469,0.5209968 0.21015,0.153234 0.529753,0.153234 h 0.166369 V 10.958 Z m -6.781715,-0.796819 h 0.661096 q 0.556022,0 0.792441,-0.2495527 0.240797,-0.2495531 0.240797,-0.7661719 0,-0.21015 -0.01313,-0.3984094 -0.0088,-0.1882594 -0.02627,-0.3765187 l 0.731147,-0.087563 0.07005,1.0244812 q 0.05254,0.853734 0.888759,0.853734 h 0.09194 V 10.958 h -0.100697 q -0.485972,0 -0.779306,-0.175125 -0.288957,-0.175125 -0.46846,-0.494728 -0.236419,0.345872 -0.621694,0.507863 -0.385275,0.16199 -0.805575,0.16199 h -0.661096 z m 1.580503,1.492941 0.612937,0.608559 -0.612937,0.617316 -0.60856,-0.617316 z m -1.453538,0 0.612938,0.608559 -0.612938,0.617316 -0.608559,-0.617316 z M 10.900948,10.958 h -0.713635 v -0.796819 h 0.704878 q 0.437813,0 0.591047,-0.2539308 0.157613,-0.2539313 0.157613,-0.6435844 0,-0.2845781 -0.05254,-0.6085594 -0.05254,-0.3239813 -0.113831,-0.6523406 l 0.761794,-0.1926375 q 0.07443,0.35025 0.118209,0.6873656 0.04378,0.3371156 0.04378,0.6435844 0,0.525375 -0.144478,0.9369187 -0.144478,0.411544 -0.472837,0.647963 -0.32836,0.23204 -0.880003,0.23204 z M 11.435079,5.7918126 12.069907,6.4266407 11.435079,7.0614689 10.800251,6.4266407 Z M 9.8669043,13.212735 q -0.945675,0 -1.5148313,-0.345872 -0.5647781,-0.345872 -0.8187094,-0.923785 -0.2495531,-0.573534 -0.2495531,-1.2609 0,-0.297712 0.043781,-0.6873653 0.048159,-0.3896532 0.2145281,-0.8887594 L 8.2382418,9.3643627 Q 8.1112761,9.8021752 8.071873,10.139291 q -0.035025,0.337115 -0.035025,0.569156 0,0.472838 0.1663688,0.862491 0.1663687,0.389653 0.5647781,0.621693 0.4027875,0.232041 1.0989094,0.232041 0.6567187,0 1.1251777,-0.161991 0.472838,-0.16199 0.722391,-0.385275 0.253931,-0.223284 0.253931,-0.407165 0,-0.21015 -0.183881,-0.359006 -0.179503,-0.148857 -0.586669,-0.148857 h -0.647962 q -0.08756,0 -0.126966,-0.07443 -0.0394,-0.07881 -0.07443,-0.201394 l -0.118209,-0.4203 q -0.0044,-0.03503 0.01751,-0.06567 0.02189,-0.03503 0.07881,-0.03503 h 2.42986 v 0.796818 h -0.179503 q 0.06567,0.131344 0.08318,0.249553 0.02189,0.11821 0.02189,0.245175 0,0.288957 -0.170747,0.595425 -0.166369,0.310847 -0.516619,0.573535 -0.345872,0.262687 -0.875625,0.424678 -0.529753,0.161991 -1.2521437,0.161991 z M 5.4756448,6.2208689 6.0885823,6.8294282 5.4756448,7.4467439 4.8670854,6.8294282 Z m -1.4535376,0 L 4.6350448,6.8294282 4.0221072,7.4467439 3.4135479,6.8294282 Z M 3.5492697,10.161181 h 0.6129375 q 0.5560219,0 0.7924407,-0.2495527 0.2407969,-0.2495531 0.2407969,-0.7661719 0,-0.21015 -0.013134,-0.3984094 -0.00876,-0.1882594 -0.026269,-0.3765187 l 0.7311469,-0.087563 0.07005,1.0244812 q 0.052537,0.853734 0.8887594,0.853734 h 0.091941 V 10.958 H 6.8372417 q -0.4859719,0 -0.7793063,-0.175125 Q 5.7689791,10.60775 5.589476,10.288147 5.3530573,10.634019 4.9677823,10.79601 4.5825073,10.958 4.1622072,10.958 H 3.5492697 Z M 1.7060803,10.958 H 0.90050532 V 10.161181 H 1.6973241 q 0.4378125,0 0.5910469,-0.2539308 0.1576125,-0.2539313 0.1576125,-0.6435844 0,-0.2845781 -0.052538,-0.6085594 Q 2.3409085,8.3311251 2.2796147,8.0027658 L 3.0414085,7.8101283 q 0.074428,0.35025 0.1182094,0.6873656 0.043781,0.3371156 0.043781,0.6435844 0,0.525375 -0.1444781,0.9369187 Q 2.9144429,10.489541 2.5860835,10.72596 2.2577241,10.958 1.7060803,10.958 Z m 0.096319,0.669853 0.6348281,0.634828 L 1.8023991,12.89751 1.1675709,12.262681 Z M -0.68437679,4.929322 h 0.73990314 v 4.1854875 q 0,0.6173157 0.2276625,0.8318438 0.2276625,0.2145277 0.68736564,0.2145277 H 1.0800076 V 10.958 H 0.97055449 q -0.83622189,0 -1.24776565,-0.44219 -0.40716563,-0.446569 -0.40716563,-1.4053786 z m -4.01911871,5.231859 h 0.6610969 q 0.5560218,0 0.7924406,-0.2495527 0.2407969,-0.2495531 0.2407969,-0.7661719 0,-0.21015 -0.013134,-0.3984094 -0.00876,-0.1882594 -0.026269,-0.3765187 l 0.7311469,-0.087563 0.07005,1.0244812 q 0.052538,0.853734 0.8887594,0.853734 h 0.091941 V 10.958 h -0.1006968 q -0.4859719,0 -0.7793063,-0.175125 -0.2889562,-0.175125 -0.4684594,-0.494728 -0.2364187,0.345872 -0.6216937,0.507863 -0.385275,0.16199 -0.805575,0.16199 h -0.6610969 z m 1.5805031,1.492941 0.6129375,0.608559 -0.6129375,0.617316 -0.6085594,-0.617316 z m -1.4535375,0 0.6129375,0.608559 -0.6129375,0.617316 -0.6085594,-0.617316 z M -6.5379296,10.958 H -7.251564 v -0.796819 h 0.7048782 q 0.4378125,0 0.5910469,-0.2539308 0.1576125,-0.2539313 0.1576125,-0.6435844 0,-0.2845781 -0.052537,-0.6085594 -0.052537,-0.3239813 -0.1138313,-0.6523406 l 0.7617938,-0.1926375 q 0.074428,0.35025 0.1182093,0.6873656 0.043781,0.3371156 0.043781,0.6435844 0,0.525375 -0.1444781,0.9369187 -0.1444782,0.411544 -0.4728375,0.647963 -0.3283594,0.23204 -0.8800032,0.23204 z m 0.5341313,-5.1661874 0.6348281,0.6348281 -0.6348281,0.6348282 -0.6348282,-0.6348282 z"
         id="path16" />
    </g>
    <path
       style="font-size:8.9664px;font-family:Vazirmatn"
       d="m 34.981221,0 q -0.302091,0 -0.507863,-0.07880625 -0.201393,-0.08318438 -0.315225,-0.175125 -0.06567,0.57353438 -0.319603,1.10766564 -0.249553,0.53850941 -0.753037,0.93691881 -0.503485,0.3984093 -1.33095,0.5604 l -0.25831,-0.6917438 q 1.068263,-0.2320406 1.506075,-0.81433126 0.437813,-0.57791251 0.437813,-1.37035315 0,-0.37214063 -0.08318,-0.77930629 -0.07881,-0.4115437 -0.223285,-0.8362219 l 0.726769,-0.245175 0.236419,0.9150282 q 0.09632,0.3677625 0.306468,0.52099686 0.21015,0.15323438 0.529754,0.15323438 H 35.09943 V 0 Z m -7.07943,-0.79681876 h 0.963187 q 0.556022,0 0.792441,-0.24955314 0.240797,-0.2495531 0.240797,-0.7661719 0,-0.21015 -0.01314,-0.3984094 -0.0088,-0.1882593 -0.02627,-0.3765187 l 0.731146,-0.087562 0.07005,1.0244812 q 0.05254,0.85373444 0.88876,0.85373444 h 0.09194 V 0 H 31.540013 Q 31.054041,0 30.760706,-0.175125 30.47175,-0.35025001 30.292247,-0.66985314 30.055828,-0.32398126 29.670553,-0.16199063 29.285278,0 28.864978,0 h -0.963187 z m 1.878215,1.49294065 0.612938,0.60855941 -0.612938,0.6173156 -0.608559,-0.6173156 z m -1.453537,0 0.612937,0.60855941 -0.612937,0.6173156 -0.60856,-0.6173156 z m -3.686381,-1.49294065 h 0.661096 q 0.556022,0 0.792441,-0.24955314 0.240797,-0.2495531 0.240797,-0.7661719 0,-0.21015 -0.01313,-0.3984094 -0.0088,-0.1882593 -0.02627,-0.3765187 l 0.731147,-0.087562 0.07005,1.0244812 q 0.05254,0.85373444 0.888759,0.85373444 h 0.09194 V 0 h -0.100697 q -0.485972,0 -0.779306,-0.175125 -0.288957,-0.17512501 -0.46846,-0.49472814 -0.236419,0.34587188 -0.621694,0.50786251 Q 25.721484,0 25.301184,0 h -0.661096 z m 1.580503,1.49294065 0.612937,0.60855941 -0.612937,0.6173156 -0.60856,-0.6173156 z m -1.453538,0 0.612938,0.60855941 -0.612938,0.6173156 -0.608559,-0.6173156 z m -2.45175,-6.19942509 0.634828,0.6348281 -0.634828,0.6348282 -0.634828,-0.6348282 z m 0.01313,2.0796094 q 0.337116,0 0.696122,0.056916 0.359007,0.052538 0.665475,0.1532344 0.310847,0.1006969 0.503485,0.245175 0.192637,0.1444781 0.192637,0.3239813 0,0.1269656 -0.135722,0.35025 -0.131343,0.2232843 -0.341493,0.4815937 -0.205772,0.2583094 -0.433435,0.4991063 -0.227662,0.2364187 -0.415922,0.40278749 0.306469,0.0788062 0.582291,0.0963188 0.275822,0.0175125 0.499106,0.0175125 h 0.682988 V 0 h -0.67861 q -0.459703,0 -0.919406,-0.10945313 -0.455325,-0.10945312 -0.897516,-0.36338438 -0.288956,0.16636875 -0.669853,0.27144376 -0.376518,0.105075 -0.761793,0.15323437 Q 20.515894,0 20.209425,0 h -0.691744 v -0.79681876 h 0.696122 q 0.148856,0 0.398409,-0.004378 0.253932,-0.008756 0.520997,-0.0306469 0.271444,-0.0262687 0.472838,-0.0788062 -0.18826,-0.16636879 -0.415922,-0.40278749 -0.227663,-0.2407969 -0.437813,-0.4991063 -0.205771,-0.2583094 -0.341493,-0.4815937 -0.135722,-0.2232844 -0.135722,-0.35025 0,-0.1795032 0.188259,-0.3239813 0.18826,-0.1444781 0.494728,-0.245175 0.310847,-0.1006969 0.669853,-0.1532344 0.359007,-0.056916 0.7005,-0.056916 z m 0,0.7530375 q -0.197015,0 -0.564778,0.030647 -0.363384,0.030647 -0.687365,0.1401 0.284578,0.3590062 0.573534,0.6435844 0.288956,0.2845781 0.481594,0.455325 0.197015,0.1663687 0.197015,0.1663687 0,0 0.197016,-0.1663687 0.197016,-0.1707469 0.49035,-0.455325 0.293334,-0.2845782 0.573534,-0.6435844 -0.323981,-0.1094531 -0.691743,-0.1401 -0.367763,-0.030647 -0.569157,-0.030647 z m -3.633843,-2.4692625 0.612938,0.6085594 -0.612938,0.6173156 -0.608559,-0.6173156 z m -1.453537,0 0.612937,0.6085594 -0.612937,0.6173156 -0.60856,-0.6173156 z m -0.472838,4.34310004 h 0.897516 q 0.437812,0 0.591047,-0.25393124 0.157612,-0.2539313 0.157612,-0.6435844 0,-0.2845781 -0.05254,-0.6085594 -0.05254,-0.3239812 -0.113832,-0.6523406 l 0.761794,-0.1926375 q 0.07443,0.35025 0.118209,0.6873656 0.04378,0.3371156 0.04378,0.6435844 0,0.525375 -0.144478,0.93691876 -0.144479,0.41154376 -0.472838,0.64796251 Q 18.226135,0 17.674491,0 h -0.906272 z m 1.676226,-0.88000314 q 0.05254,0.3765188 0.271444,0.63045 0.223284,0.24955314 0.51224,0.24955314 h 0.11821 V 0 h -0.11821 Q 18.961064,0 18.698376,-0.11383125 18.440067,-0.2276625 18.26932,-0.49910626 18.120464,-0.21890625 17.844642,-0.07442813 17.56882,0.07005 17.139764,0.07005 q -0.25831,0 -0.525376,-0.08318438 -0.262687,-0.08318437 -0.507862,-0.18825937 -0.240797,-0.10945313 -0.442191,-0.19263751 -0.201393,-0.0831844 -0.337115,-0.0831844 -0.245175,0 -0.372141,0.16199062 -0.122587,0.15761251 -0.166369,0.53850939 -0.0394,0.38089688 -0.0394,1.05512812 0,0.2977125 0.0044,0.5297532 0.0088,0.2364187 0.02189,0.4640812 0.01751,0.2276625 0.03503,0.5166188 H 14.057563 Q 14.035673,2.3860782 14.022538,2.03145 14.009404,1.6812 14.009404,1.3221938 q 0,-0.49035004 0.02627,-0.93254067 0.03065,-0.44219063 0.135722,-0.79681876 0.109453,-0.35900626 0.337115,-0.59104689 0.227663,-0.23641878 0.626072,-0.31084688 0.245175,-0.8537344 0.639206,-1.3397063 0.39841,-0.49035 1.085775,-0.49035 0.402788,0 0.739904,0.1926375 0.337115,0.1882594 0.5604,0.5209969 0.227662,0.3283594 0.284578,0.7486594 z m -0.709256,0.3721406 q 0,-0.4509469 -0.240797,-0.7530375 -0.240797,-0.3064687 -0.617316,-0.3064687 -0.271444,0 -0.459703,0.1707468 -0.18826,0.1663688 -0.315225,0.4421907 -0.126966,0.2714437 -0.223285,0.5822906 0.477216,0.21015001 0.792441,0.33273751 0.319603,0.11820938 0.477216,0.11820938 0.288956,0 0.437812,-0.1576125 0.148857,-0.16199059 0.148857,-0.42905629 z m -7.048781,0.50786254 h 0.950053 q 0.437812,0 0.591047,-0.25393124 0.157612,-0.2539313 0.157612,-0.6435844 0,-0.2845781 -0.05254,-0.6085594 -0.05254,-0.3239812 -0.113832,-0.6523406 l 0.761794,-0.1926375 q 0.07443,0.35025 0.118209,0.6873656 0.04378,0.3371156 0.04378,0.6435844 0,0.525375 -0.144478,0.93691876 -0.144479,0.41154376 -0.472838,0.64796251 Q 12.196861,0 11.645217,0 h -0.958809 z m 1.580503,1.49294065 0.612937,0.60855941 -0.612937,0.6173156 -0.60856,-0.6173156 z m -1.453538,0 0.612938,0.60855941 -0.612938,0.6173156 -0.608559,-0.6173156 z M 9.4167514,-5.3456907 10.007798,-4.7546438 9.4167514,-4.1635969 8.8257045,-4.7546438 Z m 0.7486596,1.1076656 0.591047,0.5910469 -0.591047,0.5910469 -0.5910471,-0.5910469 z m -1.497319,0 0.5910469,0.5910469 L 8.668092,-3.0559313 8.0770451,-3.6469782 Z M 7.9194326,2.3554313 7.6611232,1.6593094 q 1.0682625,-0.2320406 1.506075,-0.81433126 0.4378125,-0.57791251 0.4378125,-1.37035315 0,-0.37214063 -0.083184,-0.77930629 Q 9.4430201,-1.716225 9.298542,-2.1409032 l 0.726769,-0.245175 q 0.315225,0.8975157 0.315225,1.72935944 0,0.73114689 -0.25831,1.35284065 Q 9.8282951,1.3221938 9.2897857,1.7556282 8.7556545,2.1934407 7.9194326,2.3554313 Z m -3.2304606,0 -0.2583094,-0.6961219 q 1.0682625,-0.2320406 1.506075,-0.81433126 0.4378125,-0.57791251 0.4378125,-1.37035315 0,-0.37214063 -0.083184,-0.77930629 -0.078806,-0.4115437 -0.2232844,-0.8362219 l 0.7267688,-0.245175 q 0.315225,0.8975157 0.315225,1.72935944 0,0.73114689 -0.2583094,1.35284065 Q 6.5978345,1.3221938 6.0593251,1.7556282 5.5251938,2.1934407 4.688972,2.3554313 Z"
       id="text7"
       transform="matrix(1.3333333,0,0,1.3333333,132.44667,42.141333)"
       aria-label="ﺮﯿﯿﻐﺗﻢﯾژر" />
    <g
       id="text8"
       transform="matrix(1.3333333,0,0,1.3333333,411.24667,63.202667)"
       aria-label="یﺎﻫ ﺖﯾﻮﻟوا:ﻞﯿﺋاﺮﺳا.۱یﺮﯿﮔﻮﻠﺟزاﺐﻤﺑ(ﺰﻣﺮﻗ).۲ﻒﯿﻌﻀﺗرﻮﺤﻣ(ﯽﺠﻧرﺎﻧ).۳ﺮﯿﯿﻐﺗمﺎﻈﻧﺰﺒﺳ)-(لآ هﺪﯾا">
      <path
         style="font-weight:800;font-size:9.9626px;font-family:Vazirmatn"
         d="m 77.019534,2.4517335 q -1.045878,0 -1.726916,-0.3988931 -0.676172,-0.3988932 -1.002097,-1.08965937 -0.325925,-0.69076619 -0.325925,-1.55665621 0,-0.57888152 0.126478,-1.19667942 0.126479,-0.6226625 0.364842,-1.2404605 l 1.182086,0.4524032 q -0.179989,0.5156424 -0.301603,1.006962 -0.121613,0.4913197 -0.121613,0.91940011 0,0.46699686 0.165394,0.85616092 0.165395,0.38916405 0.559424,0.62266248 0.394028,0.23349839 1.07993,0.23349839 0.739412,0 1.230731,-0.17025923 0.49132,-0.16539472 0.734547,-0.3940286 0.243228,-0.22863388 0.243228,-0.40375771 0,-0.14107197 -0.175124,-0.14107197 h -0.788057 q -0.248092,0 -0.520507,-0.0486455 -0.26755,-0.04864551 -0.501049,-0.20917568 -0.233498,-0.16053017 -0.379435,-0.48159052 -0.141072,-0.32106039 -0.141072,-0.86102549 0,-0.5059132 0.165395,-0.9729101 0.165395,-0.4718614 0.471861,-0.8415673 0.311332,-0.3697058 0.744277,-0.5886106 0.432945,-0.2189048 0.97291,-0.2189048 0.364841,0 0.715089,0.1118847 0.355112,0.1070201 0.65185,0.3210603 l -0.447539,1.2404604 q -0.252957,-0.1410719 -0.486455,-0.194582 -0.228634,-0.058375 -0.423216,-0.058375 -0.525372,0 -0.822109,0.3453831 -0.296738,0.3405186 -0.296738,0.8512964 0,0.1313428 0.0827,0.1653947 0.08756,0.034052 0.21404,0.034052 h 0.710224 q 0.559424,0 0.875619,0.1751238 0.321061,0.1751238 0.452404,0.48645504 0.136207,0.30646669 0.136207,0.7004953 0,0.69563074 -0.398893,1.27451226 -0.398893,0.5788815 -1.162628,0.9242646 -0.763734,0.3453831 -1.858258,0.3453831 z M 71.439892,-6.8201 h 1.313428 v 4.4461993 q 0,0.5156423 0.150801,0.7442762 0.150801,0.2237694 0.622663,0.2237694 h 0.121614 V 0 H 73.526784 Q 72.437124,0 71.936076,-0.56428788 71.439892,-1.1285758 71.439892,-2.2571515 Z m -5.229384,6.39688409 Q 65.772699,-0.27241484 65.208411,-0.13620742 64.648988,0 64.113887,0 h -0.48159 v -1.4058551 h 0.418351 q 0.16053,0 0.301602,-0.00486 0.145937,-0.00486 0.296738,-0.014594 -0.150801,-0.1945821 -0.243228,-0.5156424 -0.09243,-0.3259249 -0.09243,-0.6032043 0,-0.4134868 0.204311,-0.81238 0.204311,-0.3988931 0.612933,-0.6664434 0.408622,-0.2675503 1.016691,-0.2870085 l 0.466997,-0.9242646 q 0.904807,0.4280804 1.605302,0.7831926 0.70536,0.3551122 1.182086,0.7004953 0.48159,0.3453831 0.729682,0.7491408 0.248092,0.3988932 0.248092,0.9242647 0,0.9923683 -0.593475,1.51287522 -0.593475,0.51564237 -1.57125,0.51564237 -0.510778,0 -1.070201,-0.12647831 -0.559423,-0.12647832 -0.933994,-0.24809209 z M 65.524607,-2.5538891 q 0,0.2675503 0.243227,0.5010487 0.243228,0.2286339 0.525372,0.3161958 0.131343,-0.029187 0.301602,-0.1313429 0.175124,-0.1070201 0.301602,-0.2578211 0.126478,-0.1556657 0.126478,-0.3307895 0,-0.291873 -0.209175,-0.5253715 -0.209176,-0.2334984 -0.510778,-0.2334984 -0.311331,0 -0.54483,0.1994466 -0.233498,0.194582 -0.233498,0.4621323 z m 2.130673,1.148034 q 0.228634,0.038916 0.442674,0.058375 0.21404,0.019458 0.306467,0.019458 0.287008,0 0.525371,-0.1459366 0.238363,-0.150801 0.238363,-0.5642878 0,-0.1021556 -0.07783,-0.2334985 -0.07297,-0.1362074 -0.32106,-0.3307894 -0.243227,-0.194582 -0.749141,-0.476726 0.0681,0.2091757 0.0681,0.432945 0,0.379435 -0.121614,0.6907662 -0.116749,0.3064667 -0.311331,0.5496943 z m -14.47644,-3.9256924 0.826974,0.8172445 0.817244,-0.8172445 0.831839,0.8269736 -0.831839,0.8367027 -0.817244,-0.8269736 -0.826974,0.8269736 -0.826973,-0.8367027 z m 3.512206,1.9896012 1.216137,-0.1508011 0.09729,1.3912615 q 0.02432,0.3697059 0.194583,0.5351006 0.175123,0.1605302 0.574016,0.1605302 h 0.111885 V 0 H 58.773073 Q 58.21365,0 57.843944,-0.20431113 57.474238,-0.41348681 57.231011,-0.768599 56.788337,-0.35997675 56.151081,-0.17998837 55.518689,0 54.501998,0 h -0.81238 q -0.841567,0 -1.551792,-0.10215556 -0.705359,-0.10702012 -1.230731,-0.36970585 -0.520507,-0.26268574 -0.81238,-0.73454719 -0.287008,-0.4767259 -0.287008,-1.2161376 0,-0.4378096 0.09729,-0.8512964 0.09729,-0.4183514 0.243227,-0.7734636 l 1.172357,0.4426742 q -0.0827,0.2286338 -0.170259,0.530236 -0.0827,0.3016021 -0.0827,0.574017 0,0.486455 0.359977,0.7199535 0.359977,0.2334984 0.953452,0.3064666 0.59834,0.068104 1.308564,0.068104 h 0.81238 q 0.70536,0 1.206409,-0.05351 0.501048,-0.058375 0.763734,-0.238363 0.26755,-0.1848529 0.26755,-0.5691524 0,-0.2480921 -0.01459,-0.5448297 -0.01459,-0.2967376 -0.03405,-0.530236 z m -11.144684,1.9360912 h 1.580979 q 0.369706,0 0.505913,-0.2286339 0.141072,-0.2334985 0.141072,-0.5886107 0,-0.3307894 -0.0827,-0.7199535 -0.07783,-0.3940286 -0.16053,-0.768599 l 1.274512,-0.3307894 q 0.09243,0.4572678 0.145937,0.909671 0.05837,0.4475386 0.05837,0.8561609 0,0.6469852 -0.175124,1.1626276 -0.170259,0.51564237 -0.583746,0.81724451 Q 47.837565,0 47.122476,0 H 45.546362 Z M 46.203076,0.62266248 47.03005,1.439907 47.847295,0.62266248 48.679133,1.4496361 47.847295,2.2863388 47.03005,1.4593652 46.203076,2.2863388 45.376103,1.4496361 Z M 43.376767,-4.0229834 q 0.612934,0 1.041014,0.3648413 0.428081,0.3648413 0.671308,0.963181 0.243228,0.5934752 0.291873,1.289106 h 0.364842 V 0 h -0.462133 q -0.277279,1.1091176 -1.089659,1.7415091 -0.81238,0.6372562 -2.218235,0.909671 L 41.494186,1.3523451 Q 42.10712,1.2355959 42.627627,1.0410138 43.152998,0.84643182 43.512975,0.58374608 43.877816,0.32106034 43.99943,0 h -0.457268 q -0.982639,0 -1.498282,-0.40862226 -0.515642,-0.4134868 -0.515642,-1.33288684 0,-0.3599768 0.111885,-0.7540054 0.111884,-0.3988931 0.340518,-0.7442762 0.228634,-0.3502477 0.574017,-0.5642879 0.350248,-0.2189048 0.822109,-0.2189048 z m 0.160531,2.6171283 h 0.622662 q -0.02919,-0.2724149 -0.116749,-0.5594234 -0.0827,-0.2870085 -0.248092,-0.4815905 -0.16053,-0.194582 -0.428081,-0.194582 -0.228634,0 -0.364841,0.1459365 -0.131343,0.141072 -0.189718,0.3405186 -0.05351,0.194582 -0.05351,0.3599767 0,0.2578212 0.214041,0.3259249 0.218904,0.063239 0.564288,0.063239 z m -5.540721,0 h 0.369706 q 0.505913,0 0.646985,-0.238363 0.141072,-0.238363 0.141072,-0.7248181 V -6.8201 h 1.308564 v 4.567813 q 0,1.1139821 -0.496184,1.68313457 Q 39.475401,0 38.361419,0 h -0.364842 z m -0.296736,0.3259249 q 0,1.13830481 -0.423216,1.89231016 -0.418352,0.75400534 -1.186951,1.19667944 -0.768599,0.4426741 -1.819342,0.6421207 l -0.48159,-1.298835 q 0.992368,-0.1897175 1.658812,-0.53996514 0.671308,-0.35024765 0.851296,-0.86102547 -0.121614,0.02432276 -0.252957,0.04378096 -0.131342,0.01459365 -0.238363,0.01459365 -0.924264,0 -1.4545,-0.40862225 -0.530236,-0.40862226 -0.530236,-1.34261595 0,-0.3891641 0.116749,-0.7929218 0.116749,-0.4086223 0.350248,-0.7491408 0.233498,-0.3453831 0.578881,-0.5545588 0.345383,-0.2091757 0.802651,-0.2091757 0.525371,0 0.904806,0.2529567 0.3843,0.2529566 0.632392,0.6761725 0.248092,0.4232159 0.369706,0.953452 0.121614,0.530236 0.121614,1.0847948 z m -1.911769,-0.3113313 q 0.209176,0 0.379435,-0.024323 0.175124,-0.024323 0.287009,-0.048645 -0.02919,-0.2480921 -0.111885,-0.5302361 -0.0827,-0.2821439 -0.248092,-0.4815905 -0.16053,-0.2043111 -0.432945,-0.2043111 -0.233499,0 -0.369706,0.1556656 -0.131343,0.1556656 -0.184853,0.3648413 -0.05351,0.2091757 -0.05351,0.3648413 0,0.2626857 0.209176,0.335654 0.21404,0.068104 0.525371,0.068104 z M 32.762322,-6.8201 v 6.81523545 H 31.448893 V -6.8201 Z m -1.075145,3.0938542 q 0,-0.3697059 0.262685,-0.6129334 0.262686,-0.2432275 0.632392,-0.2432275 0.37457,0 0.632392,0.2432275 0.262685,0.2432275 0.262685,0.6129334 0,0.3648413 -0.262685,0.6080688 -0.262686,0.2432276 -0.632392,0.2432276 -0.379435,0 -0.637256,-0.238363 -0.257821,-0.2432276 -0.257821,-0.6129334 z m 0,2.86522033 q 0,-0.36484133 0.262685,-0.60806883 0.262686,-0.2480921 0.632392,-0.2480921 0.37457,0 0.632392,0.2480921 0.262685,0.2432275 0.262685,0.60806883 0,0.36970585 -0.262685,0.61293339 -0.262686,0.24322753 -0.632392,0.24322753 -0.379435,0 -0.637256,-0.24322753 -0.257821,-0.24322754 -0.257821,-0.61293339 z M 27.532852,2.4128171 q -1.430178,0 -2.150131,-0.7637344 -0.719954,-0.75886993 -0.719954,-2.13553777 0,-0.56428783 0.131343,-1.17235673 0.136207,-0.6080688 0.359977,-1.1674921 l 1.182086,0.4524032 q -0.165395,0.4378095 -0.296738,0.9485874 -0.131343,0.51077778 -0.131343,0.94372278 0,0.7296826 0.398893,1.11398211 0.403758,0.38916401 1.225867,0.38916401 0.554559,0 0.861026,-0.21404019 0.311331,-0.20917568 0.432945,-0.60320428 0.126478,-0.38916406 0.126478,-0.92426463 V -6.8201 h 1.308564 v 4.3391792 q 0,0.4718614 0.141072,0.7734635 0.145937,0.3016022 0.608069,0.3016022 h 0.150801 V 0 h -0.141072 q -0.26755,0 -0.452403,-0.05837461 -0.179989,-0.06323916 -0.340519,-0.17512382 -0.09243,1.23073132 -0.724818,1.93609113 -0.627527,0.7102244 -1.970143,0.7102244 z m -6.990359,-3.8186722 h 0.734547 q 0.535101,0 0.734547,-0.1799884 0.204312,-0.1848529 0.204312,-0.671308 0,-0.2870085 -0.01459,-0.5545588 -0.01459,-0.2724148 -0.03405,-0.530236 l 1.216138,-0.1508011 0.09729,1.3912615 q 0.02432,0.3697059 0.204311,0.5351006 0.179988,0.1605302 0.574017,0.1605302 h 0.102155 V 0 H 24.249281 Q 23.762826,0 23.412578,-0.17512382 23.067195,-0.35024765 22.843426,-0.63239159 22.546688,-0.335654 22.138066,-0.16539472 21.734308,0 21.27704,0 H 20.542493 Z M 20.668971,0.62266248 21.495945,1.439907 22.31319,0.62266248 23.145028,1.4496361 22.31319,2.2863388 21.495945,1.4593652 20.668971,2.2863388 19.841998,1.4496361 Z M 18.450734,-4.9569771 q -0.165395,-0.1313429 -0.252956,-0.2918731 -0.0827,-0.1605301 -0.0827,-0.4183513 0,-0.432945 0.301602,-0.7102244 0.301602,-0.282144 0.685902,-0.282144 0.209176,0 0.345383,0.043781 0.141072,0.043781 0.282144,0.1264783 l 0.0049,0.574017 q -0.287009,-0.1459365 -0.564288,-0.1459365 -0.194582,0 -0.359977,0.1167492 -0.165395,0.1167492 -0.165395,0.3405185 0.0049,0.1313429 0.126479,0.2432276 0.121613,0.1118846 0.379434,0.077833 0,0 0.03892,-0.00973 l 0.700495,-0.2529567 0.0827,0.5594234 -1.945821,0.768599 -0.07783,-0.5448297 z M 18.363172,0 h -0.997233 v -1.4058551 h 1.002098 q 0.369706,0 0.505913,-0.2286339 0.141072,-0.2334985 0.141072,-0.5886107 0,-0.3307894 -0.0827,-0.7199535 -0.07783,-0.3940286 -0.16053,-0.768599 l 1.274512,-0.3307894 q 0.09243,0.4572678 0.145936,0.909671 0.05837,0.4475386 0.05837,0.8561609 0,0.6469852 -0.175124,1.1626276 -0.175124,0.51564237 -0.588611,0.81724451 Q 19.078261,0 18.363172,0 Z m -1.551789,-6.8201 v 6.81523545 H 15.497954 V -6.8201 Z M 14.115137,0 Q 13.672463,0 13.385454,-0.17025927 13.190872,0.94858738 12.427138,1.67827 11.668268,2.4079526 10.39862,2.6511801 L 9.9170294,1.3523451 Q 10.622389,1.201544 11.128303,0.94858738 11.63908,0.7004953 11.91636,0.28214394 q 0.277279,-0.41835136 0.277279,-1.07993025 0,-0.44267409 -0.141072,-0.99236829 -0.141072,-0.5545588 -0.301602,-1.0312848 l 1.308564,-0.4232159 0.282144,1.0993885 q 0.0827,0.3113312 0.243228,0.5253714 0.16053,0.2140403 0.476726,0.2140403 h 0.189717 V 0 Z M 6.2734811,0 Q 5.7821614,0 5.4465074,-0.16539472 5.115718,-0.335654 4.9016778,-0.61293338 4.6341275,-0.33078944 4.2644216,-0.16539472 3.8947158,0 3.3304279,0 H 2.8828893 V -1.4058551 H 3.340157 q 0.5351006,0 0.7588699,-0.1313429 0.2286339,-0.1313429 0.2286339,-0.6323916 0,-0.077833 -0.00973,-0.2578212 -0.00973,-0.1799884 -0.024323,-0.3940286 -0.014594,-0.2189048 -0.029187,-0.3940286 l 1.2210023,-0.1508011 0.1021555,1.3134287 q 0.043781,0.6469853 0.6956308,0.6469853 0.4037577,0 0.5399651,-0.1653948 0.1362074,-0.1702592 0.1362074,-0.5983397 0,-0.068104 -0.00973,-0.2480921 -0.00973,-0.1848529 -0.024323,-0.4037577 -0.014594,-0.2189048 -0.029187,-0.3940286 l 1.2210023,-0.1508011 0.1021555,1.3134287 q 0.019458,0.2967376 0.1459365,0.4718614 0.1313429,0.1751239 0.4426742,0.1751239 0.291873,0 0.3988931,-0.2286339 0.1118847,-0.2334985 0.1118847,-0.5545588 0,-0.2772794 -0.05351,-0.5691524 -0.048645,-0.2967376 -0.1118846,-0.5351006 -0.058375,-0.2432275 -0.087562,-0.3551122 l 1.2599189,-0.3453831 q 0.09729,0.3842995 0.16053,0.8221091 0.06324,0.432945 0.06324,0.8610254 0,0.6032043 -0.16053,1.1334403 -0.155666,0.52537151 -0.5351007,0.85129641 Q 9.4743554,0 8.8176411,0 8.3798315,0 8.0782294,-0.17998837 7.7814918,-0.35997675 7.5771806,-0.62266248 7.3290886,-0.35997675 7.0128928,-0.17998837 6.7015615,0 6.2734811,0 Z m -3.95488,-6.8201 v 6.81523545 H 1.0051725 V -6.8201 Z"
         id="path17" />
      <path
         style="font-size:9.9626px;font-family:Vazirmatn"
         d="m -19.58564,16.290015 q 0,-0.26755 0.189717,-0.457268 0.189717,-0.194582 0.457268,-0.194582 0.26755,0 0.457268,0.194582 0.189717,0.189718 0.189717,0.457268 0,0.26755 -0.189717,0.457268 -0.189718,0.189717 -0.457268,0.189717 -0.267551,0 -0.457268,-0.184853 -0.189717,-0.184853 -0.189717,-0.462132 z m 4.125138,0.646985 h -0.836702 v -1.104253 q 0,-1.629624 -0.170259,-2.884678 -0.165395,-1.255054 -0.642121,-2.237694 l 0.768599,-0.277279 q 0.515642,1.143169 0.695631,2.471192 0.184852,1.323158 0.184852,2.943053 z m 95.652288,2.456598 q -1.050743,0 -1.683134,-0.384299 -0.627527,-0.3843 -0.909671,-1.02642 -0.27728,-0.637256 -0.27728,-1.400991 0,-0.515642 0.10702,-1.055607 0.107021,-0.54483 0.291873,-1.060472 l 0.773464,0.311331 q -0.141072,0.447538 -0.238363,0.9194 -0.09729,0.471861 -0.09729,0.914535 0,0.525372 0.184853,0.958317 0.189717,0.432945 0.632392,0.690766 0.442674,0.257821 1.216137,0.257821 0.690766,0 1.235596,-0.175124 0.54483,-0.170259 0.861026,-0.447538 0.316195,-0.272415 0.316195,-0.578882 0,-0.155665 -0.09243,-0.291873 -0.09243,-0.136207 -0.335654,-0.136207 h -0.788057 q -0.719954,0 -1.011827,-0.345383 -0.287008,-0.350248 -0.287008,-0.968046 0,-0.642121 0.262685,-1.177221 0.262686,-0.539965 0.749141,-0.861026 0.486455,-0.32106 1.152899,-0.32106 0.252956,0 0.530236,0.0681 0.282144,0.0681 0.564288,0.257821 l -0.27728,0.739412 q -0.384299,-0.194582 -0.817244,-0.194582 -0.617798,0 -0.968046,0.432945 -0.345383,0.432945 -0.345383,1.055607 0,0.228634 0.09243,0.335654 0.09243,0.102156 0.374571,0.102156 h 0.817244 q 0.671308,0 0.914536,0.364841 0.248092,0.359977 0.248092,0.9194 0,0.539965 -0.369706,1.016691 -0.369706,0.481591 -1.084795,0.778328 -0.710224,0.301602 -1.741509,0.301602 z M 76.806049,16.937 q -0.335654,0 -0.564288,-0.08756 -0.22377,-0.09243 -0.350248,-0.194582 -0.07297,0.637256 -0.355112,1.230732 -0.277279,0.598339 -0.836703,1.041013 -0.559423,0.442675 -1.478823,0.622663 l -0.287009,-0.768599 q 1.186951,-0.257821 1.673406,-0.904806 0.486455,-0.642121 0.486455,-1.522605 0,-0.413487 -0.09243,-0.86589 -0.08756,-0.457268 -0.248092,-0.929129 l 0.807516,-0.272415 0.262685,1.016691 q 0.107021,0.408623 0.340519,0.578882 0.233498,0.170259 0.588611,0.170259 h 0.184852 V 16.937 Z m -7.535185,-0.885348 h 0.734547 q 0.617798,0 0.880484,-0.277279 0.26755,-0.27728 0.26755,-0.851297 0,-0.233498 -0.01459,-0.442674 -0.0097,-0.209175 -0.02919,-0.418351 l 0.81238,-0.09729 0.07783,1.138305 q 0.05837,0.948587 0.987504,0.948587 h 0.102155 V 16.937 h -0.111885 q -0.539965,0 -0.86589,-0.194582 -0.32106,-0.194582 -0.520507,-0.549694 -0.262685,0.3843 -0.690766,0.564288 Q 70.472408,16.937 70.005411,16.937 h -0.734547 z m 1.756103,1.658812 0.681037,0.676172 -0.681037,0.685902 -0.676173,-0.685902 z m -1.615031,0 0.681037,0.676172 -0.681037,0.685902 -0.676173,-0.685902 z m -4.057034,-6.664435 v -0.5351 l 3.697059,-1.4982818 v 0.5351006 z m 0.671308,1.172357 q 0.423216,0.296738 0.880484,0.627527 0.457267,0.325925 0.851296,0.700495 0.398893,0.369706 0.642121,0.792922 0.248092,0.418352 0.248092,0.895078 -0.0049,0.904806 -0.627527,1.303699 Q 67.402878,16.937 66.045668,16.937 h -1.18695 v -0.885348 h 1.182086 q 0.943723,0 1.352345,-0.165395 0.408622,-0.170259 0.408622,-0.671308 0,-0.32106 -0.228634,-0.627527 -0.223769,-0.306466 -0.583746,-0.603204 -0.355112,-0.301602 -0.763734,-0.588611 -0.408623,-0.291873 -0.768599,-0.574017 -0.155666,-0.126478 -0.238363,-0.296737 -0.0827,-0.170259 -0.0827,-0.340519 0,-0.199446 0.10702,-0.37457 0.111885,-0.179988 0.345383,-0.272415 L 69.086012,10.1169 v 0.861026 z m -3.380859,1.162628 q 0.758869,0 1.279376,0.681037 0.520507,0.676172 0.539965,1.989601 h 0.588611 V 16.937 H 64.38686 q -0.10702,0.559424 -0.428081,1.079931 -0.316196,0.525371 -0.943723,0.924264 -0.627527,0.403758 -1.663676,0.603204 L 61.064372,18.770936 Q 63.268013,18.34772 63.618261,16.937 h -0.768599 q -1.843665,0 -1.843665,-1.493417 0,-0.476726 0.189717,-0.953452 0.194582,-0.476726 0.559424,-0.792921 0.369706,-0.316196 0.890213,-0.316196 z m 0.155665,2.670638 h 0.861026 q -0.05837,-0.938858 -0.311332,-1.366939 -0.248092,-0.42808 -0.719953,-0.42808 -0.311331,0 -0.49132,0.199446 -0.175124,0.199447 -0.248092,0.471862 -0.0681,0.26755 -0.0681,0.486455 0,0.340518 0.228634,0.49132 0.233499,0.145936 0.749141,0.145936 z m -4.139734,-1.245325 v -4.567813 h 0.822109 v 4.582407 q 0,0.5351 0.209175,0.885348 0.214041,0.345383 0.773464,0.345383 h 0.155666 V 16.937 h -0.145937 q -0.54483,0 -0.86589,-0.189717 -0.32106,-0.189718 -0.510778,-0.549694 -0.16053,0.238363 -0.325925,0.403757 -0.16053,0.165395 -0.413486,0.252957 -0.248093,0.0827 -0.681038,0.0827 h -0.418351 v -0.885348 h 0.408622 q 0.408623,0 0.617798,-0.16053 0.21404,-0.165395 0.291873,-0.447539 0.0827,-0.282144 0.0827,-0.637256 z m -4.738073,2.87495 0.70536,0.705359 -0.70536,0.70536 -0.70536,-0.70536 z m -3.337082,-1.629625 h 0.826974 q 0.569152,0 1.045878,-0.102156 0.476726,-0.102155 0.929129,-0.282143 0.457268,-0.179989 0.953452,-0.423216 0.501049,-0.248092 1.118847,-0.530236 -0.345383,-0.126479 -0.715089,-0.272415 -0.369706,-0.150801 -0.70536,-0.282144 -0.330789,-0.131343 -0.578881,-0.21404 -0.248092,-0.08756 -0.350248,-0.08756 -0.296738,0 -0.525371,0.175124 -0.22377,0.170259 -0.413487,0.413486 l -0.131343,0.165395 -0.744276,-0.364841 0.07297,-0.116749 q 0.32106,-0.520507 0.744276,-0.831839 0.428081,-0.316195 1.002098,-0.316195 0.238363,0 0.574017,0.121613 0.340518,0.121614 0.739411,0.306467 0.398893,0.179988 0.826974,0.369706 0.42808,0.184853 0.856161,0.316196 0.42808,0.126478 0.817244,0.141072 v 0.841567 q -0.311331,0.03405 -0.797786,0.228634 -0.481591,0.189717 -1.255054,0.59834 -0.622663,0.330789 -1.157763,0.564287 -0.530236,0.228634 -1.084795,0.350248 Q 52.084409,16.937 51.398507,16.937 h -0.81238 z m 2.013844,-4.120274 0.70536,0.705359 -0.70536,0.70536 -0.70536,-0.70536 z m -1.780425,7.622751 -0.287009,-0.773464 q 1.186951,-0.257821 1.673406,-0.904806 0.486455,-0.642121 0.486455,-1.522605 0,-0.413487 -0.09243,-0.86589 -0.08756,-0.457268 -0.248092,-0.929129 l 0.807516,-0.272415 q 0.350247,0.997233 0.350247,1.921498 0,0.81238 -0.287008,1.503146 -0.282144,0.695631 -0.880484,1.177221 -0.593475,0.486455 -1.522604,0.666444 z m -0.291872,-9.315615 v 6.693622 h -0.822109 v -6.693622 z m -2.99178,7.442763 0.70536,0.705359 -0.70536,0.70536 -0.70536,-0.70536 z m 2.855491,-3.619226 0.81238,-0.09729 0.0827,1.138305 q 0.02919,0.462132 0.262685,0.70536 0.238363,0.243227 0.710225,0.243227 h 0.116749 V 16.937 h -0.116749 q -0.549694,0 -0.904807,-0.204311 -0.350247,-0.209176 -0.578881,-0.666443 -0.403758,0.466997 -1.036149,0.671308 Q 49.112009,16.937 47.993162,16.937 h -0.81238 q -1.833936,0 -2.7582,-0.496184 -0.9194,-0.496184 -0.9194,-1.717186 0,-0.335654 0.07297,-0.656715 0.07783,-0.32106 0.199447,-0.617798 l 0.754005,0.282144 q -0.07783,0.214041 -0.131343,0.457268 -0.04865,0.243228 -0.04865,0.462132 0.0049,0.569153 0.32106,0.87562 0.316196,0.301602 0.943723,0.413486 0.627527,0.111885 1.566385,0.111885 h 0.81238 q 1.162628,0 1.799884,-0.243227 0.64212,-0.243228 0.64212,-0.885349 0,-0.199446 -0.01459,-0.42808 -0.0097,-0.228634 -0.02919,-0.432945 z M 37.427361,16.937 h -0.21404 v -0.885348 h 0.189717 q 0.325925,0 0.549694,-0.184853 0.22377,-0.189717 0.398894,-0.486455 0.175123,-0.296738 0.345383,-0.627527 0.175123,-0.335654 0.389164,-0.632392 0.21404,-0.296737 0.515642,-0.48159 0.306467,-0.189718 0.754005,-0.189718 0.763735,0 1.186951,0.466997 0.423216,0.462133 0.569152,1.152899 0.09729,0.476726 0.33079,0.729682 0.238363,0.252957 0.549694,0.252957 h 0.126478 V 16.937 h -0.131343 q -0.311331,0 -0.608068,-0.126478 -0.296738,-0.131343 -0.481591,-0.413487 -0.204311,0.296738 -0.505913,0.476726 -0.301602,0.175124 -0.783193,0.175124 -0.486455,0 -0.899942,-0.209176 -0.408622,-0.21404 -0.851296,-0.64212 -0.316196,0.355112 -0.608069,0.549694 Q 37.957597,16.937 37.427361,16.937 Z m 2.947918,-2.626857 q -0.243228,0 -0.442674,0.165395 -0.199447,0.16053 -0.359977,0.418351 -0.16053,0.257821 -0.287009,0.535101 0.16053,0.165394 0.321061,0.296737 0.16053,0.131343 0.311331,0.223769 0.389164,0.238363 0.681037,0.238363 0.719953,0 0.719953,-0.724818 0,-0.505913 -0.252956,-0.826973 -0.248092,-0.325925 -0.690766,-0.325925 z M 35.165343,16.937 h -0.895077 v -0.885348 h 0.885348 q 0.486455,0 0.656714,-0.282144 0.175124,-0.282144 0.175124,-0.715089 0,-0.316196 -0.05837,-0.676172 -0.05837,-0.359977 -0.126478,-0.724818 l 0.846432,-0.214041 q 0.0827,0.389164 0.131343,0.763735 0.04865,0.37457 0.04865,0.715089 0,0.583746 -0.16053,1.041014 -0.16053,0.457267 -0.525371,0.719953 Q 35.778276,16.937 35.165343,16.937 Z m 0.10702,0.744277 0.70536,0.705359 -0.70536,0.70536 -0.70536,-0.70536 z m 0.899865,-3.619226 q 0,-0.914536 -0.194582,-1.790155 Q 35.787929,11.391413 35.408494,10.676324 35.029059,9.9612346 34.4745,9.5380187 l 0.184853,-0.5934752 q 0.539965,0.2918731 0.977774,0.81238 0.43781,0.5205065 0.749141,1.2064085 0.316196,0.681037 0.486455,1.473959 0.17026,0.792922 0.17026,1.62476 0,0.831838 -0.17026,1.62476 -0.170259,0.792922 -0.486455,1.473959 -0.311331,0.685901 -0.749141,1.206408 -0.437809,0.520507 -0.977774,0.81238 L 34.4745,18.586083 q 0.554559,-0.423216 0.933994,-1.138305 0.379435,-0.715089 0.569152,-1.590708 0.194582,-0.880484 0.194582,-1.795019 z m -3.337702,-2.130673 0.705359,0.705359 -0.705359,0.70536 -0.70536,-0.70536 z M 34.639274,16.937 q -0.335654,0 -0.564288,-0.08756 -0.223769,-0.09243 -0.350248,-0.194582 -0.07297,0.637256 -0.355112,1.230732 -0.277279,0.598339 -0.836703,1.041013 -0.559423,0.442675 -1.478823,0.622663 l -0.287008,-0.768599 q 1.18695,-0.257821 1.673405,-0.904806 0.486455,-0.642121 0.486455,-1.522605 0,-0.413487 -0.09243,-0.86589 -0.08756,-0.457268 -0.248093,-0.929129 l 0.807516,-0.272415 0.262686,1.016691 q 0.10702,0.408623 0.340518,0.578882 0.233499,0.170259 0.588611,0.170259 h 0.184853 V 16.937 Z m -5.049403,0.111885 q -0.486455,0 -0.899941,-0.209176 -0.408623,-0.21404 -0.851297,-0.64212 -0.316196,0.355112 -0.608069,0.549694 Q 26.938691,16.937 26.408455,16.937 h -0.21404 v -0.885348 h 0.189718 q 0.325924,0 0.549694,-0.184853 0.223769,-0.189717 0.398893,-0.486455 0.175124,-0.296738 0.345383,-0.627527 0.175124,-0.335654 0.389164,-0.632392 0.21404,-0.296737 0.515642,-0.48159 0.306467,-0.189718 0.754006,-0.189718 0.539965,0 0.938858,0.262686 0.403758,0.257821 0.622663,0.695631 0.223769,0.437809 0.223769,0.977775 0,0.792921 -0.403758,1.230731 -0.398893,0.432945 -1.128576,0.432945 z m -0.233498,-2.738742 q -0.243228,0 -0.442674,0.165395 -0.199447,0.16053 -0.359977,0.418351 -0.16053,0.257821 -0.287008,0.535101 0.291873,0.306466 0.603204,0.501048 0.398893,0.257821 0.710224,0.257821 0.719954,0 0.719954,-0.724818 0,-0.505913 -0.252957,-0.826973 -0.248092,-0.325925 -0.690766,-0.325925 z M 25.490535,16.937 q -0.335654,0 -0.564288,-0.08756 -0.223769,-0.09243 -0.350248,-0.194582 -0.07297,0.637256 -0.355112,1.230732 -0.277279,0.598339 -0.836702,1.041013 -0.559424,0.442675 -1.478824,0.622663 l -0.287008,-0.768599 q 1.18695,-0.257821 1.673405,-0.904806 0.486455,-0.642121 0.486455,-1.522605 0,-0.413487 -0.09243,-0.86589 -0.08756,-0.457268 -0.248092,-0.929129 l 0.807515,-0.272415 0.262686,1.016691 q 0.10702,0.408623 0.340518,0.578882 0.233499,0.170259 0.588611,0.170259 h 0.184853 V 16.937 Z M 20.737867,9.7180071 21.418904,10.39418 20.737867,11.080081 20.061694,10.39418 Z m -1.615031,0 0.681037,0.6761729 -0.681037,0.685901 -0.676173,-0.685901 z m 0.432945,6.3336449 q 0.549694,0 0.885348,-0.06324 0.340519,-0.06324 0.496184,-0.277279 0.16053,-0.218905 0.16053,-0.676173 -0.238363,0.07297 -0.486455,0.111885 -0.243227,0.03892 -0.525371,0.03892 -1.653947,0 -1.653947,-1.35721 0,-0.466996 0.184853,-0.933993 0.189717,-0.466997 0.554558,-0.778328 0.364842,-0.316196 0.885348,-0.316196 0.476726,0 0.817245,0.243227 0.345383,0.243228 0.564288,0.656715 0.223769,0.408622 0.330789,0.929129 0.10702,0.515642 0.10702,1.065336 0,0.724818 -0.131342,1.172357 -0.126479,0.442674 -0.408623,0.676173 -0.282144,0.228634 -0.734547,0.311331 -0.452403,0.0827 -1.104253,0.0827 h -1.790154 v -0.885348 z m 0.59834,-1.702593 q 0.223769,0 0.442674,-0.03892 0.223769,-0.04378 0.447538,-0.10702 -0.03892,-0.345383 -0.145936,-0.700495 -0.102156,-0.355113 -0.306467,-0.593476 -0.204311,-0.243227 -0.54483,-0.243227 -0.301602,0 -0.486455,0.189717 -0.179988,0.189718 -0.262685,0.452403 -0.07783,0.262686 -0.07783,0.486456 0,0.335654 0.238363,0.447538 0.243227,0.10702 0.695631,0.10702 z m -4.237024,-0.287008 q 0,0.914535 0.194582,1.795019 0.194582,0.875619 0.569152,1.590708 0.379435,0.715089 0.933994,1.138305 l -0.184853,0.593475 q -0.539965,-0.291873 -0.977775,-0.81238 -0.437809,-0.520507 -0.754005,-1.206408 -0.311331,-0.681037 -0.481591,-1.473959 -0.170259,-0.792922 -0.170259,-1.62476 0,-0.831838 0.170259,-1.62476 0.17026,-0.792922 0.481591,-1.473959 0.316196,-0.685902 0.754005,-1.2064085 0.43781,-0.5205069 0.977775,-0.81238 l 0.184853,0.5934752 q -0.554559,0.4232159 -0.933994,1.1383053 -0.37457,0.715089 -0.569152,1.595572 -0.194582,0.875619 -0.194582,1.790155 z"
         id="path18" />
      <path
         style="font-size:9.9626px;font-family:Vazirmatn"
         d="m -18.692641,28.245015 q 0,-0.26755 0.189718,-0.457268 0.189717,-0.194582 0.457267,-0.194582 0.267551,0 0.457268,0.194582 0.189718,0.189718 0.189718,0.457268 0,0.26755 -0.189718,0.457268 -0.189717,0.189717 -0.457268,0.189717 -0.26755,0 -0.457267,-0.184853 -0.189718,-0.184853 -0.189718,-0.462132 z m 6.698486,-5.788815 q 0.01459,0.175123 0.02432,0.345383 0.0097,0.170259 0.0097,0.335654 0,0.617798 -0.155665,1.109117 -0.155666,0.49132 -0.535101,0.778328 -0.37457,0.282144 -1.041014,0.282144 -0.189717,0 -0.457268,-0.02432 -0.262685,-0.02919 -0.554558,-0.11675 0.102155,0.729683 0.116749,1.376668 0.01946,0.646985 0.01946,1.259919 V 28.892 h -0.836703 v -1.104253 q 0,-1.629624 -0.170259,-2.884678 -0.165395,-1.255054 -0.642121,-2.237694 l 0.763735,-0.272414 q 0.111885,0.301602 0.204311,0.530236 0.09729,0.223769 0.204311,0.525371 0.21404,0.593475 0.505913,0.802651 0.296738,0.204311 0.836703,0.204311 0.3843,0 0.588611,-0.165395 0.204311,-0.170259 0.282144,-0.432945 0.07783,-0.262685 0.07783,-0.554559 0,-0.21404 -0.02432,-0.408622 -0.02432,-0.194582 -0.05351,-0.364841 z m 96.020162,0.209175 0.705359,0.70536 -0.705359,0.70536 -0.70536,-0.70536 z m -2.76793,5.341277 h 0.428081 q 0.04378,0 0.272415,0 0.228633,0 0.510777,-0.0049 0.282144,-0.0097 0.481591,-0.01946 -0.291873,-0.340518 -0.457268,-0.676172 -0.165395,-0.335654 -0.165395,-0.715089 0,-0.301602 0.141072,-0.608069 0.141072,-0.306467 0.379435,-0.569153 0.238363,-0.262685 0.54483,-0.418351 0.306467,-0.16053 0.632392,-0.16053 0.340518,0 0.651849,0.16053 0.311332,0.155666 0.549695,0.418351 0.243227,0.257822 0.384299,0.569153 0.141072,0.311331 0.141072,0.617798 0,0.384299 -0.170259,0.715089 -0.170259,0.325925 -0.466997,0.671308 0.272415,0.01459 0.486455,0.01946 0.21404,0 0.379435,0 h 0.471861 V 28.892 h -0.462132 q -0.184853,0 -0.505913,-0.02919 -0.321061,-0.03405 -0.70536,-0.111885 -0.3843,-0.07783 -0.75887,-0.209175 -0.37457,0.136207 -0.846432,0.21404 -0.471861,0.07297 -0.885348,0.10702 -0.413487,0.02919 -0.612933,0.02919 h -0.418352 q -1.833935,0 -2.7582,-0.496184 -0.9194,-0.496184 -0.9194,-1.717186 0,-0.335654 0.07297,-0.656715 0.07783,-0.32106 0.199447,-0.617798 l 0.754005,0.282144 q -0.07783,0.214041 -0.131343,0.457268 -0.04865,0.243228 -0.04865,0.462132 0.0049,0.569153 0.32106,0.87562 0.316196,0.301602 0.943723,0.413486 0.627527,0.111885 1.566385,0.111885 z m 2.76793,-2.310662 q -0.184853,0 -0.389164,0.141072 -0.199447,0.136208 -0.340519,0.345383 -0.136207,0.209176 -0.136207,0.428081 0,0.223769 0.131342,0.457268 0.131343,0.233498 0.33079,0.42808 0.204311,0.194582 0.413487,0.301602 0.369706,-0.155665 0.627527,-0.501048 0.262686,-0.350248 0.262686,-0.695631 0,-0.204311 -0.145937,-0.413487 Q 84.63894,25.978134 84.429764,25.837062 84.220589,25.69599 84.026007,25.69599 Z m -10.648505,2.310662 h 0.734547 q 0.617798,0 0.880484,-0.277279 0.26755,-0.27728 0.26755,-0.851297 0,-0.233498 -0.01459,-0.442674 -0.0097,-0.209176 -0.02919,-0.418351 l 0.81238,-0.09729 0.07783,1.138305 q 0.05837,0.948587 0.987503,0.948587 h 0.102156 V 28.892 h -0.111885 q -0.539965,0 -0.86589,-0.194582 -0.32106,-0.194582 -0.520507,-0.549694 -0.262685,0.384299 -0.690766,0.564288 Q 74.579046,28.892 74.112049,28.892 h -0.734547 z m 1.756103,1.658812 0.681037,0.676172 -0.681037,0.685902 -0.676173,-0.685902 z m -1.615031,0 0.681037,0.676172 -0.681037,0.685902 -0.676173,-0.685902 z m -2.709557,-4.577542 q 0.37457,0 0.773463,0.06324 0.398893,0.05837 0.739412,0.170259 0.345383,0.111885 0.559423,0.272415 0.21404,0.16053 0.21404,0.359977 0,0.141072 -0.150801,0.389164 -0.145936,0.248092 -0.379435,0.5351 -0.228634,0.287009 -0.48159,0.554559 -0.252957,0.262686 -0.462132,0.447539 0.340518,0.08756 0.646985,0.10702 0.306466,0.01946 0.554559,0.01946 H 73.58181 V 28.892 h -0.754005 q -0.510778,0 -1.021556,-0.121614 -0.505913,-0.121613 -0.997232,-0.403757 -0.321061,0.184853 -0.744277,0.301602 -0.418351,0.116749 -0.846431,0.170259 -0.423216,0.05351 -0.763735,0.05351 h -0.768599 v -0.885348 h 0.773464 q 0.165394,0 0.442674,-0.0049 0.282144,-0.0097 0.578881,-0.03405 0.301602,-0.02919 0.525372,-0.08756 -0.209176,-0.184853 -0.462133,-0.447539 -0.252956,-0.26755 -0.486455,-0.554559 -0.228634,-0.287008 -0.379435,-0.5351 -0.150801,-0.248092 -0.150801,-0.389164 0,-0.199447 0.209176,-0.359977 0.209176,-0.16053 0.549694,-0.272415 0.345383,-0.111885 0.744276,-0.170259 0.398894,-0.06324 0.778329,-0.06324 z m 0,0.836702 q -0.218905,0 -0.627527,0.03405 -0.403758,0.03405 -0.763735,0.155666 0.316196,0.398893 0.637256,0.715089 0.321061,0.316196 0.535101,0.505913 0.218905,0.184853 0.218905,0.184853 0,0 0.218904,-0.184853 0.218905,-0.189717 0.54483,-0.505913 0.325925,-0.316196 0.637256,-0.715089 -0.359977,-0.121614 -0.768599,-0.155666 -0.408622,-0.03405 -0.632391,-0.03405 z m -5.837455,-3.322488 0.70536,0.70536 -0.70536,0.70536 -0.70536,-0.70536 z M 63.48301,28.892 h -0.257821 q -1.031285,0 -1.57125,-0.194582 -0.539965,-0.194582 -0.763735,-0.54483 -0.282144,0.3843 -0.637256,0.564288 Q 59.9027,28.892 59.318954,28.892 h -0.199446 l 0.0049,-0.885348 h 0.194582 q 0.681037,0 0.914536,-0.287009 0.238363,-0.291873 0.238363,-0.841567 0,-0.233498 -0.01946,-0.432945 -0.01459,-0.199446 -0.02432,-0.42808 l 0.81238,-0.09729 0.07297,1.138305 q 0.02432,0.325924 0.136208,0.564287 0.111884,0.233499 0.345383,0.233499 0.870754,-1.478823 1.702592,-2.179319 0.836703,-0.70536 1.673406,-0.70536 0.554559,0 0.982639,0.243228 0.432945,0.238363 0.676173,0.65185 0.243227,0.413486 0.243227,0.933993 -0.0049,0.627527 -0.37457,1.113983 0.141072,0.03405 0.364841,0.06324 0.228634,0.02919 0.671308,0.02919 h 0.145937 V 28.892 h -0.141072 q -0.617798,0 -1.021556,-0.126478 -0.398893,-0.126478 -0.671308,-0.350248 -0.398893,0.22377 -1.050743,0.350248 Q 64.344035,28.892 63.48301,28.892 Z m 1.726915,-3.035479 q -1.172357,0 -2.534431,2.150131 h 0.788058 q 1.386396,0 2.067434,-0.277279 0.681037,-0.27728 0.681037,-0.880484 0,-0.428081 -0.27728,-0.710224 -0.272415,-0.282144 -0.724818,-0.282144 z m -7.004954,-2.675503 0.681037,0.676172 -0.681037,0.685902 -0.676173,-0.685902 z m -1.615031,0 0.681037,0.676172 -0.681037,0.685902 -0.676173,-0.685902 z m -0.525372,4.825634 h 0.997233 q 0.486455,0 0.656715,-0.282144 0.175124,-0.282144 0.175124,-0.715089 0,-0.316196 -0.05837,-0.676172 -0.05837,-0.359977 -0.126478,-0.724818 l 0.846431,-0.214041 q 0.0827,0.389164 0.131343,0.763735 0.04865,0.37457 0.04865,0.715089 0,0.583746 -0.16053,1.041014 -0.160531,0.457267 -0.525372,0.719953 Q 57.684464,28.892 57.07153,28.892 h -1.006962 z m 0.233419,3.502476 -0.287009,-0.773463 q 1.186951,-0.257821 1.673406,-0.904807 0.486455,-0.64212 0.486455,-1.522604 0,-0.413487 -0.09243,-0.86589 -0.08756,-0.457268 -0.248093,-0.929129 l 0.807516,-0.272415 q 0.350248,0.997233 0.350248,1.921498 0,0.81238 -0.287009,1.503146 -0.282144,0.69563 -0.880484,1.177221 -0.593475,0.486455 -1.522604,0.666443 z m -2.539292,-6.173114 q 0.75887,0 1.279377,0.681037 0.520506,0.676172 0.539965,1.989601 h 0.58861 V 28.892 h -0.666443 q -0.10702,0.559424 -0.428081,1.07993 -0.316195,0.525372 -0.943722,0.924265 -0.627527,0.403758 -1.663677,0.603204 L 52.177716,30.725936 Q 54.381357,30.30272 54.731605,28.892 h -0.768599 q -1.843665,0 -1.843665,-1.493417 0,-0.476726 0.189718,-0.953452 0.194582,-0.476726 0.559423,-0.792922 0.369706,-0.316195 0.890213,-0.316195 z m 0.155665,2.670638 h 0.861026 q -0.05837,-0.938858 -0.311331,-1.366939 -0.248093,-0.42808 -0.719954,-0.42808 -0.311331,0 -0.49132,0.199446 -0.175123,0.199447 -0.248092,0.471862 -0.0681,0.26755 -0.0681,0.486455 0,0.340518 0.228634,0.491319 0.233498,0.145937 0.74914,0.145937 z m -2.821443,-1.814477 v 0.841567 q -0.209175,0.01946 -0.491319,0.10702 -0.282144,0.0827 -0.59834,0.233498 0.0097,0.403758 0.389164,0.520507 0.379435,0.111885 1.075066,0.111885 h 0.26755 V 28.892 h -0.287009 q -0.992368,0 -1.488552,-0.262686 -0.49132,-0.262685 -0.588611,-0.943722 -0.963181,0.525371 -1.867987,0.86589 Q 46.602937,28.892 45.561923,28.892 h -0.81238 v -0.885348 h 0.826974 q 0.569152,0 1.045878,-0.102156 0.476726,-0.102155 0.929129,-0.282144 0.457268,-0.179988 0.953452,-0.423215 0.501049,-0.248093 1.118847,-0.530236 -0.345383,-0.126479 -0.715089,-0.272415 -0.369706,-0.150801 -0.70536,-0.282144 -0.330789,-0.131343 -0.578881,-0.21404 -0.248092,-0.08756 -0.350248,-0.08756 -0.296738,0 -0.525372,0.175123 -0.223769,0.17026 -0.413486,0.413487 l -0.131343,0.165395 -0.744276,-0.364841 0.07297,-0.11675 q 0.32106,-0.520506 0.744276,-0.831838 0.428081,-0.316195 1.002098,-0.316195 0.238362,0 0.574016,0.121613 0.340519,0.121614 0.739412,0.306467 0.398893,0.179988 0.826974,0.369706 0.42808,0.184853 0.856161,0.316196 0.42808,0.126478 0.817244,0.141072 z m -8.260005,2.81171 q -0.486456,0 -0.899942,-0.209176 -0.408623,-0.21404 -0.851297,-0.642121 -0.316196,0.355113 -0.608069,0.549695 Q 40.181731,28.892 39.651495,28.892 h -0.21404 v -0.885348 h 0.189718 q 0.325925,0 0.549694,-0.184853 0.223769,-0.189717 0.398893,-0.486455 0.175124,-0.296738 0.345383,-0.627527 0.175124,-0.335654 0.389164,-0.632392 0.21404,-0.296737 0.515643,-0.48159 0.306466,-0.189718 0.754005,-0.189718 0.539965,0 0.938858,0.262686 0.403758,0.257821 0.622663,0.695631 0.223769,0.437809 0.223769,0.977775 0,0.792921 -0.403758,1.230731 -0.398893,0.432945 -1.128575,0.432945 z m -0.233499,-2.738742 q -0.243227,0 -0.442674,0.165395 -0.199447,0.16053 -0.359977,0.418351 -0.16053,0.257821 -0.287008,0.5351 0.291873,0.306467 0.603204,0.501049 0.398893,0.257821 0.710224,0.257821 0.719954,0 0.719954,-0.724818 0,-0.505913 -0.252957,-0.826973 -0.248092,-0.325925 -0.690766,-0.325925 z m -1.26486,-0.248092 q 0,-0.914536 -0.194582,-1.790155 -0.189718,-0.880484 -0.569152,-1.595573 -0.379435,-0.715088 -0.933994,-1.138304 l 0.184853,-0.593476 q 0.539965,0.291874 0.977774,0.81238 0.43781,0.520507 0.749141,1.206409 0.316196,0.681037 0.486455,1.473959 0.17026,0.792922 0.17026,1.62476 0,0.831838 -0.17026,1.62476 -0.170259,0.792921 -0.486455,1.473959 -0.311331,0.685901 -0.749141,1.206408 -0.437809,0.520507 -0.977774,0.81238 l -0.184853,-0.593475 q 0.554559,-0.423216 0.933994,-1.138305 0.379434,-0.715089 0.569152,-1.590708 0.194582,-0.880484 0.194582,-1.795019 z m -5.000759,5.380193 q -1.050743,0 -1.683135,-0.3843 -0.627527,-0.384299 -0.90967,-1.02642 -0.27728,-0.637256 -0.27728,-1.40099 0,-0.33079 0.04865,-0.763735 0.05351,-0.432945 0.238363,-0.987504 l 0.773463,0.287009 q -0.141072,0.486455 -0.184853,0.861025 -0.03892,0.374571 -0.03892,0.632392 0,0.525371 0.184853,0.958316 0.184853,0.432945 0.627527,0.690766 0.447538,0.257822 1.221002,0.257822 0.729683,0 1.25019,-0.179989 0.525371,-0.179988 0.80265,-0.42808 0.282144,-0.248092 0.282144,-0.452403 0,-0.233499 -0.204311,-0.398894 -0.199446,-0.165394 -0.65185,-0.165394 h -0.719953 q -0.09729,0 -0.141072,-0.0827 -0.04378,-0.08756 -0.0827,-0.223769 l -0.131343,-0.466997 q -0.0049,-0.03892 0.01946,-0.07297 0.02432,-0.03892 0.08756,-0.03892 h 2.699825 v 0.885348 h -0.199446 q 0.07297,0.145936 0.09243,0.277279 0.02432,0.131343 0.02432,0.272415 0,0.32106 -0.189717,0.661579 -0.184853,0.345383 -0.574017,0.637256 -0.3843,0.291873 -0.97291,0.471861 -0.588611,0.179989 -1.391262,0.179989 z m -6.902797,-1.760968 0.70536,0.70536 -0.70536,0.70536 -0.70536,-0.70536 z m 3.006292,-3.444101 v 0.841567 q -0.209176,0.01946 -0.49132,0.10702 -0.282144,0.0827 -0.598339,0.233498 0.0097,0.403758 0.389164,0.520507 0.379435,0.111885 1.075065,0.111885 H 33.07941 V 28.892 h -0.287009 q -0.992368,0 -1.488552,-0.262686 -0.49132,-0.262685 -0.588611,-0.943722 -0.963181,0.525371 -1.867987,0.86589 Q 27.947309,28.892 26.906295,28.892 h -0.81238 v -0.885348 h 0.826974 q 0.569152,0 1.045878,-0.102156 0.476726,-0.102155 0.929129,-0.282144 0.457268,-0.179988 0.953452,-0.423215 0.501049,-0.248093 1.118847,-0.530236 -0.345383,-0.126479 -0.715089,-0.272415 -0.369706,-0.150801 -0.70536,-0.282144 -0.33079,-0.131343 -0.578882,-0.21404 -0.248092,-0.08756 -0.350247,-0.08756 -0.296738,0 -0.525372,0.175123 -0.223769,0.17026 -0.413487,0.413487 l -0.131342,0.165395 -0.744277,-0.364841 0.07297,-0.11675 q 0.32106,-0.520506 0.744276,-0.831838 0.42808,-0.316195 1.002097,-0.316195 0.238363,0 0.574017,0.121613 0.340519,0.121614 0.739412,0.306467 0.398893,0.179988 0.826974,0.369706 0.42808,0.184853 0.856161,0.316196 0.42808,0.126478 0.817244,0.141072 z M 24.04594,28.892 h -0.792922 v -0.885348 h 0.783193 q 0.486455,0 0.656714,-0.282144 0.175124,-0.282144 0.175124,-0.715089 0,-0.316196 -0.05837,-0.676172 -0.05837,-0.359977 -0.126479,-0.724818 l 0.846432,-0.214041 q 0.0827,0.389164 0.131343,0.763735 0.04865,0.37457 0.04865,0.715089 0,0.583746 -0.16053,1.041014 -0.16053,0.457267 -0.525371,0.719953 Q 24.658873,28.892 24.04594,28.892 Z m 0.593475,-5.74017 0.70536,0.70536 -0.70536,0.70536 -0.70536,-0.70536 z m -5.138017,8.357298 -0.287008,-0.773463 q 1.18695,-0.257821 1.673405,-0.904807 0.486455,-0.64212 0.486455,-1.522604 0,-0.413487 -0.09243,-0.86589 -0.08756,-0.457268 -0.248092,-0.929129 l 0.807515,-0.272415 q 0.350248,0.997233 0.350248,1.921498 0,0.81238 -0.287009,1.503146 -0.282144,0.69563 -0.880484,1.177221 -0.593475,0.486455 -1.522604,0.666443 z m -2.091757,-9.315614 h 0.82211 v 4.65051 q 0,0.685902 0.252956,0.924265 0.252957,0.238363 0.763735,0.238363 h 0.121613 V 28.892 h -0.121613 q -0.92913,0 -1.386397,-0.491319 -0.452404,-0.496185 -0.452404,-1.561521 z M 14.520099,28.892 h -0.792921 v -0.885348 h 0.783192 q 0.486455,0 0.656715,-0.282144 0.175123,-0.282144 0.175123,-0.715089 0,-0.316196 -0.05837,-0.676172 -0.05837,-0.359977 -0.126479,-0.724818 l 0.846432,-0.214041 q 0.0827,0.389164 0.131343,0.763735 0.04865,0.37457 0.04865,0.715089 0,0.583746 -0.16053,1.041014 -0.160531,0.457267 -0.525372,0.719953 Q 15.133033,28.892 14.520099,28.892 Z m 0.593476,-5.74017 0.705359,0.70536 -0.705359,0.70536 -0.70536,-0.70536 z m -3.176552,2.865221 q 0,0.914535 0.194582,1.795019 0.194582,0.875619 0.569152,1.590708 0.379435,0.715089 0.933994,1.138305 l -0.184853,0.593475 q -0.539965,-0.291873 -0.977775,-0.81238 -0.437809,-0.520507 -0.754005,-1.206408 -0.311331,-0.681038 -0.481591,-1.473959 -0.170259,-0.792922 -0.170259,-1.62476 0,-0.831838 0.170259,-1.62476 0.17026,-0.792922 0.481591,-1.473959 0.316196,-0.685902 0.754005,-1.206409 0.43781,-0.520506 0.977775,-0.81238 l 0.184853,0.593476 q -0.554559,0.423216 -0.933994,1.138304 -0.37457,0.715089 -0.569152,1.595573 -0.194582,0.875619 -0.194582,1.790155 z"
         id="path19" />
      <path
         style="font-size:9.9626px;font-family:Vazirmatn"
         d="m -35.383641,40.200015 q 0,-0.26755 0.189718,-0.457268 0.189717,-0.194582 0.457267,-0.194582 0.267551,0 0.457268,0.194582 0.189718,0.189718 0.189718,0.457268 0,0.26755 -0.189718,0.457268 -0.189717,0.189717 -0.457268,0.189717 -0.26755,0 -0.457267,-0.184853 -0.189718,-0.184853 -0.189718,-0.462132 z m 6.693622,-2.938189 q -0.325925,0 -0.622663,-0.131343 -0.296737,-0.136207 -0.466996,-0.447538 -0.165395,0.306466 -0.466997,0.442674 -0.301602,0.136207 -0.530236,0.136207 -0.165395,0 -0.296738,-0.0097 -0.126478,-0.01459 -0.311331,-0.07783 0.05351,0.559424 0.07783,0.977775 0.02919,0.418351 0.03892,0.797786 0.0097,0.374571 0.0097,0.807516 V 40.847 h -0.836703 v -1.104253 q 0,-1.629624 -0.170259,-2.884678 -0.165395,-1.255054 -0.642121,-2.237694 l 0.763735,-0.272415 q 0.150801,0.3843 0.252957,0.661579 0.102155,0.272415 0.243227,0.617798 0.126478,0.311332 0.291873,0.54483 0.165395,0.233498 0.520507,0.238363 0.350248,0 0.510778,-0.21404 0.165395,-0.214041 0.170259,-0.885349 l 0.0049,-0.622662 0.778328,-0.03405 0.01946,0.569153 q 0.02432,0.69563 0.175124,0.943722 0.150801,0.243228 0.476726,0.243228 0.238363,0 0.364841,-0.16053 0.131343,-0.165395 0.184853,-0.423216 0.05351,-0.257821 0.05351,-0.539965 0,-0.214041 -0.02432,-0.423216 -0.01946,-0.21404 -0.04865,-0.379435 l 0.836703,-0.07297 q 0.02919,0.32106 0.02919,0.637256 0,0.583746 -0.126478,1.089659 -0.121614,0.505913 -0.423216,0.817245 -0.301603,0.306466 -0.836703,0.306466 z M 82.763099,40.847 q -0.335654,0 -0.564288,-0.08756 -0.223769,-0.09243 -0.350248,-0.194582 -0.07297,0.637256 -0.355112,1.230732 -0.277279,0.598339 -0.836702,1.041013 -0.559424,0.442674 -1.478824,0.622663 l -0.287008,-0.768599 q 1.18695,-0.257821 1.673405,-0.904807 0.486455,-0.64212 0.486455,-1.522604 0,-0.413487 -0.09243,-0.86589 -0.08756,-0.457268 -0.248092,-0.929129 l 0.807515,-0.272415 0.262686,1.016691 q 0.10702,0.408622 0.340518,0.578882 0.233499,0.170259 0.588611,0.170259 h 0.184853 V 40.847 Z M 74.89712,39.961652 h 1.070202 q 0.617798,0 0.880483,-0.277279 0.267551,-0.27728 0.267551,-0.851297 0,-0.233498 -0.01459,-0.442674 -0.0097,-0.209176 -0.02919,-0.418351 l 0.81238,-0.09729 0.07783,1.138305 q 0.05837,0.948587 0.987504,0.948587 h 0.102156 V 40.847 h -0.111885 q -0.539965,0 -0.86589,-0.194582 -0.32106,-0.194582 -0.520507,-0.549694 -0.262686,0.384299 -0.690766,0.564288 Q 76.434318,40.847 75.967322,40.847 H 74.89712 Z m 2.086893,1.658812 0.681037,0.676172 -0.681037,0.685902 -0.676173,-0.685902 z m -1.615031,0 0.681037,0.676172 -0.681037,0.685902 -0.676173,-0.685902 z m -4.095955,-1.658812 h 0.734547 q 0.617798,0 0.880484,-0.277279 0.26755,-0.27728 0.26755,-0.851297 0,-0.233498 -0.01459,-0.442674 -0.0097,-0.209176 -0.02919,-0.418351 l 0.81238,-0.09729 0.07783,1.138305 q 0.05837,0.948587 0.987503,0.948587 h 0.102156 V 40.847 h -0.111885 q -0.539965,0 -0.86589,-0.194582 -0.32106,-0.194582 -0.520507,-0.549694 -0.262685,0.384299 -0.690766,0.564288 Q 72.474571,40.847 72.007574,40.847 h -0.734547 z m 1.756103,1.658812 0.681037,0.676172 -0.681037,0.685902 -0.676173,-0.685902 z m -1.615031,0 0.681037,0.676172 -0.681037,0.685902 -0.676173,-0.685902 z m -2.724143,-6.888204 0.705359,0.70536 -0.705359,0.70536 -0.70536,-0.70536 z m 0.01459,2.310662 q 0.374571,0 0.773464,0.06324 0.398893,0.05837 0.739411,0.170259 0.345384,0.111885 0.559424,0.272415 0.21404,0.16053 0.21404,0.359977 0,0.141071 -0.150801,0.389164 -0.145937,0.248092 -0.379435,0.5351 -0.228634,0.287009 -0.481591,0.554559 -0.252956,0.262686 -0.462132,0.447539 0.340519,0.08756 0.646985,0.10702 0.306467,0.01946 0.554559,0.01946 h 0.75887 V 40.847 h -0.754005 q -0.510778,0 -1.021556,-0.121614 -0.505913,-0.121613 -0.997233,-0.403757 -0.32106,0.184853 -0.744276,0.301602 -0.418351,0.116749 -0.846432,0.170259 -0.423216,0.05351 -0.763734,0.05351 h -0.768599 v -0.885348 h 0.773463 q 0.165395,0 0.442674,-0.0049 0.282144,-0.0097 0.578882,-0.03405 0.301602,-0.02919 0.525371,-0.08756 -0.209175,-0.184853 -0.462132,-0.447539 -0.252957,-0.26755 -0.486455,-0.554559 -0.228634,-0.287008 -0.379435,-0.5351 -0.150801,-0.248093 -0.150801,-0.389164 0,-0.199447 0.209176,-0.359977 0.209175,-0.16053 0.549694,-0.272415 0.345383,-0.111885 0.744276,-0.170259 0.398893,-0.06324 0.778328,-0.06324 z m 0,0.836702 q -0.218905,0 -0.627527,0.03405 -0.403758,0.03405 -0.763734,0.155666 0.316195,0.398893 0.637256,0.715089 0.32106,0.316195 0.5351,0.505913 0.218905,0.184853 0.218905,0.184853 0,0 0.218905,-0.184853 0.218905,-0.189718 0.54483,-0.505913 0.325925,-0.316196 0.637256,-0.715089 -0.359977,-0.121614 -0.768599,-0.155666 -0.408622,-0.03405 -0.632392,-0.03405 z m -4.037578,-2.743606 0.681037,0.676172 -0.681037,0.685902 -0.676173,-0.685902 z m -1.615031,0 0.681037,0.676172 -0.681037,0.685902 -0.676173,-0.685902 z m -0.525372,4.825634 h 0.997233 q 0.486455,0 0.656715,-0.282144 0.175123,-0.282144 0.175123,-0.715089 0,-0.316196 -0.05837,-0.676173 -0.05837,-0.359976 -0.126478,-0.724818 l 0.846431,-0.21404 q 0.0827,0.389164 0.131343,0.763735 0.04865,0.37457 0.04865,0.715089 0,0.583746 -0.16053,1.041013 -0.160531,0.457268 -0.525372,0.719954 Q 64.146464,40.847 63.53353,40.847 h -1.006962 z m -0.76844,-0.569153 q 0.272415,-0.948587 0.710225,-1.488552 0.442674,-0.54483 1.206408,-0.54483 0.515642,0 0.9194,0.262686 0.403758,0.262686 0.637256,0.724818 0.238363,0.457268 0.238363,1.055608 0,0.656714 -0.364841,1.089659 -0.359977,0.432945 -1.118847,0.432945 -0.287008,0 -0.583746,-0.09243 -0.291873,-0.09243 -0.564288,-0.209175 -0.26755,-0.121614 -0.491319,-0.21404 -0.22377,-0.09243 -0.374571,-0.09243 -0.272414,0 -0.413486,0.179988 -0.136208,0.175124 -0.184853,0.59834 -0.04378,0.423216 -0.04378,1.172357 0,0.330789 0.0049,0.588611 0.0097,0.262685 0.02432,0.515642 0.01946,0.252957 0.03892,0.574017 h -0.836702 q -0.02432,-0.447539 -0.03892,-0.841567 -0.01459,-0.389164 -0.01459,-0.788058 0,-0.544829 0.02919,-1.036149 0.03405,-0.491319 0.150801,-0.885348 0.121614,-0.398893 0.37457,-0.656714 0.252957,-0.262686 0.695631,-0.345384 z m 2.889543,0.0049 q 0,-0.501049 -0.26755,-0.836703 -0.26755,-0.340518 -0.685902,-0.340518 -0.301602,0 -0.510778,0.189717 -0.209175,0.184853 -0.350247,0.49132 -0.141072,0.301602 -0.248092,0.646985 0.530236,0.233499 0.880483,0.369706 0.355113,0.131343 0.530236,0.131343 0.325925,0 0.486456,-0.175124 0.165394,-0.179988 0.165394,-0.476726 z m -6.484446,-5.24885 h 0.822109 v 4.65051 q 0,0.685902 0.252957,0.924265 0.252957,0.238363 0.763735,0.238363 h 0.121613 V 40.847 h -0.121613 q -0.92913,0 -1.386397,-0.491319 -0.452404,-0.496185 -0.452404,-1.561521 z m -3.410049,0.408622 0.705359,0.70536 -0.705359,0.70536 -0.70536,-0.70536 z m 0.0681,2.369036 q 0.549694,0 0.97291,0.243228 0.428081,0.238363 0.671308,0.65185 0.243228,0.413486 0.243228,0.933993 -0.0049,0.622663 -0.379435,1.113982 0.136207,0.03405 0.364841,0.06324 0.233499,0.02919 0.676173,0.02919 H 57.51624 V 40.847 h -0.141072 q -0.617798,0 -1.021555,-0.126478 -0.398893,-0.126479 -0.671308,-0.350248 -0.398893,0.223769 -1.050743,0.350248 Q 53.979712,40.847 53.118687,40.847 h -2.519838 v -0.885348 h 0.826974 q 0.09243,-0.155666 0.194582,-0.306467 0.102155,-0.155665 0.194582,-0.306466 v -5.200205 h 0.822109 v 4.042441 q 0.525371,-0.632391 1.055607,-0.948587 0.535101,-0.316196 1.128576,-0.316196 z m 0.01946,0.885349 q -1.167492,0 -2.529566,2.150131 h 0.788057 q 1.386397,0 2.067434,-0.277279 0.681037,-0.27728 0.681037,-0.880484 0,-0.428081 -0.277279,-0.710225 -0.277279,-0.282143 -0.729683,-0.282143 z M 48.550874,40.847 h -0.792921 v -0.885348 h 0.783192 q 0.486455,0 0.656715,-0.282144 0.175123,-0.282144 0.175123,-0.715089 0,-0.316196 -0.05837,-0.676173 -0.05837,-0.359976 -0.126478,-0.724818 l 0.846431,-0.21404 q 0.0827,0.389164 0.131343,0.763735 0.04865,0.37457 0.04865,0.715089 0,0.583746 -0.16053,1.041013 -0.160531,0.457268 -0.525372,0.719954 Q 49.163808,40.847 48.550874,40.847 Z m 0.593476,-5.74017 0.705359,0.70536 -0.705359,0.70536 -0.70536,-0.70536 z m 0.189634,0.734547 0.70536,0.70536 -0.70536,0.70536 -0.70536,-0.70536 z M 51.138732,40.847 q -0.335654,0 -0.564288,-0.08756 -0.223769,-0.09243 -0.350247,-0.194582 -0.07297,0.637256 -0.355113,1.230732 -0.277279,0.598339 -0.836702,1.041013 -0.559424,0.442674 -1.478824,0.622663 L 47.26655,42.690665 q 1.18695,-0.257821 1.673405,-0.904807 0.486455,-0.64212 0.486455,-1.522604 0,-0.413487 -0.09243,-0.86589 -0.08756,-0.457268 -0.248092,-0.929129 l 0.807515,-0.272415 0.262686,1.016691 q 0.10702,0.408622 0.340519,0.578882 0.233498,0.170259 0.58861,0.170259 h 0.184853 V 40.847 Z m -7.36979,-0.885348 h 0.569152 q 0.617798,0 0.880484,-0.277279 0.26755,-0.27728 0.26755,-0.851297 0,-0.233498 -0.01459,-0.442674 -0.0097,-0.209176 -0.02919,-0.418351 l 0.81238,-0.09729 0.07783,1.138305 q 0.05837,0.948587 0.987504,0.948587 H 47.42222 V 40.847 h -0.111885 q -0.539965,0 -0.86589,-0.194582 -0.32106,-0.194582 -0.520507,-0.549694 -0.262686,0.384299 -0.690766,0.564288 Q 44.805091,40.847 44.338094,40.847 h -0.569152 z m 1.002097,1.629624 0.70536,0.70536 -0.70536,0.70536 -0.705359,-0.70536 z M 39.308151,40.847 q -0.559423,0 -0.86589,-0.189717 -0.301602,-0.194582 -0.48159,-0.554559 -0.228634,0.359977 -0.583746,0.554559 Q 37.021813,40.847 36.365098,40.847 H 35.91756 v -0.885348 h 0.457267 q 0.622663,0 0.909671,-0.228634 0.287009,-0.233498 0.287009,-0.846432 0,-0.126478 -0.01459,-0.296737 -0.0097,-0.175124 -0.03405,-0.486455 l 0.81238,-0.102156 0.07783,1.016691 q 0.02919,0.408622 0.248092,0.676173 0.22377,0.26755 0.656715,0.26755 0.515642,0 0.700495,-0.277279 0.184853,-0.27728 0.184853,-0.797787 0,-0.126478 -0.01459,-0.301602 -0.0097,-0.175124 -0.03405,-0.48159 l 0.81238,-0.102156 0.07783,1.016691 q 0.02432,0.394029 0.209176,0.671308 0.184853,0.272415 0.598339,0.272415 0.403758,0 0.554559,-0.301602 0.150801,-0.301602 0.150801,-0.70536 0,-0.364841 -0.07297,-0.734547 -0.0681,-0.369706 -0.121614,-0.59834 l 0.831838,-0.223769 q 0.08756,0.325925 0.141072,0.69563 0.05351,0.364842 0.05351,0.729683 0,0.525372 -0.145936,0.987504 -0.145937,0.462132 -0.481591,0.749141 -0.330789,0.282144 -0.904806,0.287008 -0.466997,0 -0.754005,-0.194582 -0.287009,-0.194582 -0.466997,-0.549694 -0.272415,0.394028 -0.608069,0.569152 Q 39.697315,40.847 39.308151,40.847 Z m -5.180742,-2.874949 q 0,0.914535 0.194582,1.795019 0.194582,0.875619 0.569152,1.590708 0.379435,0.715089 0.933994,1.138305 l -0.184853,0.593475 q -0.539965,-0.291873 -0.977775,-0.81238 -0.437809,-0.520507 -0.754005,-1.206409 -0.311331,-0.681037 -0.481591,-1.473958 -0.170259,-0.792922 -0.170259,-1.62476 0,-0.831838 0.170259,-1.62476 0.17026,-0.792922 0.481591,-1.473959 0.316196,-0.685902 0.754005,-1.206409 0.43781,-0.520507 0.977775,-0.81238 l 0.184853,0.593476 q -0.554559,0.423215 -0.933994,1.138304 -0.37457,0.715089 -0.569152,1.595573 -0.194582,0.875619 -0.194582,1.790155 z m 1.118766,0.719953 h -3.283571 v -0.734547 h 3.283571 z m -2.154838,-0.719953 q 0,-0.914536 -0.194582,-1.790155 -0.189717,-0.880484 -0.569152,-1.595573 -0.379435,-0.715089 -0.933994,-1.138304 l 0.184853,-0.593476 q 0.539965,0.291873 0.977775,0.81238 0.437809,0.520507 0.749141,1.206409 0.316195,0.681037 0.486455,1.473959 0.170259,0.792922 0.170259,1.62476 0,0.831838 -0.170259,1.62476 -0.17026,0.792921 -0.486455,1.473958 -0.311332,0.685902 -0.749141,1.206409 -0.43781,0.520507 -0.977775,0.81238 l -0.184853,-0.593475 q 0.554559,-0.423216 0.933994,-1.138305 0.379435,-0.715089 0.569152,-1.590708 0.194582,-0.880484 0.194582,-1.795019 z m -4.854831,1.989601 h 0.408623 q 0.583746,0 0.788057,-0.33079 0.204311,-0.330789 0.204311,-0.826973 v -4.655375 h 0.822109 v 4.65051 q 0,1.011827 -0.437809,1.532334 Q 29.583987,40.847 28.640264,40.847 h -0.403758 z m -0.816192,-6.231489 q -0.09243,0 -0.252956,0.116749 -0.16053,0.111884 -0.316196,0.252956 -0.155666,0.141072 -0.238363,0.228634 l -0.359977,-0.32106 q 0.136208,-0.150801 0.340519,-0.335654 0.204311,-0.189718 0.423216,-0.325925 0.218904,-0.141072 0.384299,-0.141072 0.111885,0 0.306467,0.10702 0.199446,0.10702 0.408622,0.218905 0.209176,0.10702 0.355112,0.10702 0.08756,0 0.218905,-0.0827 0.131343,-0.08756 0.262686,-0.199447 0.131343,-0.116749 0.21404,-0.199446 l 0.355112,0.32106 q -0.131343,0.131343 -0.316196,0.291873 -0.179988,0.16053 -0.369705,0.277279 -0.189718,0.11675 -0.345383,0.11675 -0.111885,0 -0.321061,-0.107021 -0.204311,-0.111884 -0.418351,-0.218904 -0.209176,-0.10702 -0.33079,-0.10702 z m -0.282144,1.050742 h 0.82211 v 4.018119 q 0,0.685902 0.252956,0.924265 0.252957,0.238363 0.763735,0.238363 h 0.121613 V 40.847 h -0.121613 q -0.92913,0 -1.386397,-0.491319 -0.452404,-0.49132 -0.452404,-1.556657 z m -9.071723,2.466328 -0.189718,-0.17026 0.515642,-0.666443 q 0.642121,0.530236 1.128576,0.992368 0.49132,0.457268 0.768599,0.899942 0.27728,0.43781 0.27728,0.909671 0,0.739412 -0.505914,1.177221 -0.505913,0.43781 -1.332887,0.43781 -0.846431,0 -1.342616,-0.413487 -0.496184,-0.418351 -0.496184,-1.060472 0,-0.564288 0.301602,-1.050743 0.301603,-0.491319 0.87562,-1.055607 z m 1.673405,1.926362 q 0,-0.22377 -0.165395,-0.457268 -0.16053,-0.238363 -0.408622,-0.471861 -0.243228,-0.238363 -0.496184,-0.457268 -0.447539,0.42808 -0.700496,0.768599 -0.252956,0.335654 -0.252956,0.70536 0,0.282144 0.238363,0.491319 0.238363,0.209176 0.768599,0.209176 0.5351,0 0.773463,-0.194582 0.243228,-0.194582 0.243228,-0.593475 z m -5.346142,-0.09729 q 0,-0.126479 -0.05837,-0.325925 -0.05351,-0.204311 -0.131343,-0.379435 l -0.861025,-1.950685 0.75887,-0.355112 1.104253,2.59767 q 0.223769,0.525371 0.389164,0.807515 0.170259,0.282144 0.330789,0.389164 0.165395,0.102156 0.37457,0.102156 h 0.204312 V 40.847 h -0.204312 q -0.384299,0 -0.627527,-0.09243 -0.238363,-0.09243 -0.413486,-0.27728 -0.175124,-0.184853 -0.355113,-0.466997 -0.340518,0.428081 -0.870754,0.632392 -0.525372,0.199447 -1.313429,0.199447 -0.340518,0 -0.612933,-0.02919 -0.272415,-0.03405 -0.515643,-0.09243 v -0.880484 q 0.559424,0.131343 1.055608,0.131343 1.746374,0 1.746374,-0.895077 z M 7.8995335,39.961652 H 8.955141 q 0.4864551,0 0.6567144,-0.282144 0.1751238,-0.282144 0.1751238,-0.715089 0,-0.316196 -0.058375,-0.676173 Q 9.67023,37.92827 9.6021263,37.563428 l 0.8464317,-0.21404 q 0.0827,0.389164 0.131343,0.763735 0.04865,0.37457 0.04865,0.715089 0,0.583746 -0.16053,1.041013 -0.16053,0.457268 -0.5253712,0.719954 Q 9.5778035,40.847 8.9648701,40.847 H 7.8995335 Z m 1.7561028,1.658812 0.6810367,0.676172 -0.6810367,0.685902 -0.6761725,-0.685902 z m -1.6150308,0 0.6810371,0.676172 -0.6810371,0.685902 -0.6761725,-0.685902 z m -0.778324,-7.47195 v 6.693622 H 6.4401724 v -6.693622 z"
         id="path20" />
    </g>
  </g>
</svg>
