<?xml version="1.0" encoding="UTF-8" standalone="no"?>


<svg class="tikz-diagram" id="iran-action-ch9-tikz-7-fa562db6d23b"
   version="1.1"
   id="svg1"
   width="656.8667"
   height="284.67999"
   viewBox="0 0 656.8667 284.67999"
   sodipodi:docname="iran-action-ch9-tikz-7-fa562db6d23b.pdf"
   xmlns:inkscape="http://www.inkscape.org/namespaces/inkscape"
   xmlns:sodipodi="http://sodipodi.sourceforge.net/DTD/sodipodi-0.dtd"
   xmlns="http://www.w3.org/2000/svg"
   xmlns:svg="http://www.w3.org/2000/svg">
  <defs
     id="defs1" />
  <sodipodi:namedview
     id="namedview1"
     pagecolor="#ffffff"
     bordercolor="#000000"
     borderopacity="0.25"
     inkscape:showpageshadow="2"
     inkscape:pageopacity="0.0"
     inkscape:pagecheckerboard="0"
     inkscape:deskcolor="#d1d1d1">
    <inkscape:page
       x="0"
       y="0"
       inkscape:label="1"
       id="page1"
       width="656.8667"
       height="284.67999"
       margin="0"
       bleed="0" />
  </sodipodi:namedview>
  <g
     id="g1"
     inkscape:groupmode="layer"
     inkscape:label="1">
    <path
       id="path1"
       d="M 0,0 H 382.68192 M 0,21.2601 H 382.68192 M 0,42.5202 H 382.68192 M 0,63.7803 H 382.68192 M 0,85.04042 H 382.68192 M 0,106.30052 H 382.68192 M 0,127.56062 H 382.68192 M 0,148.82074 H 382.68192 M 0,170.07338 H 382.68192 M 0,0 V 170.08086 M 21.2601,0 V 170.08086 M 42.5202,0 V 170.08086 M 63.7803,0 V 170.08086 M 85.04042,0 V 170.08086 M 106.30052,0 V 170.08086 M 127.56062,0 V 170.08086 M 148.82074,0 V 170.08086 M 170.08086,0 V 170.08086 M 191.34096,0 V 170.08086 M 212.60106,0 V 170.08086 M 233.86116,0 V 170.08086 M 255.12128,0 V 170.08086 M 276.38138,0 V 170.08086 M 297.6415,0 V 170.08086 M 318.9016,0 V 170.08086 M 340.16171,0 V 170.08086 M 361.42181,0 V 170.08086 M 382.67445,0 v 170.08086"
       style="fill:none;stroke:#808080;stroke-width:0.99628;stroke-linecap:butt;stroke-linejoin:miter;stroke-miterlimit:10;stroke-dasharray:none;stroke-opacity:1"
       transform="matrix(1.3333333,0,0,-1.3333333,107.892,264.09067)" />
    <path
       style="font-size:8.9664px;font-family:Vazirmatn"
       d="M 8.6205289,-3.2398126 8.449782,-3.3930469 8.9138633,-3.9928501 q 0.5779125,0.4772157 1.015725,0.8931375 0.4421907,0.4115438 0.6917437,0.8099532 0.249553,0.3940312 0.249553,0.8187094 0,0.66547499 -0.455325,1.05950624 -0.4553248,0.39403126 -1.1996061,0.39403126 -0.7617937,0 -1.2083625,-0.37214063 -0.4465687,-0.37651876 -0.4465687,-0.95443127 0,-0.5078625 0.2714437,-0.945675 0.2714438,-0.4421906 0.7880625,-0.9500532 z m 1.5060751,1.7337376 q 0,-0.2013938 -0.1488563,-0.4115438 Q 9.8332696,-2.1321469 9.6099852,-2.3422969 9.3910789,-2.556825 9.1634164,-2.7538407 q -0.4027875,0.385275 -0.63045,0.6917438 -0.2276625,0.3020906 -0.2276625,0.6348281 0,0.2539313 0.2145281,0.44219066 0.2145282,0.18825938 0.6917438,0.18825938 0.4815938,0 0.6961219,-0.17512501 Q 10.126604,-1.1470688 10.126604,-1.506075 Z M 5.450766,-6.0286782 h 0.7399031 v 4.1854875 q 0,0.6173157 0.2276626,0.8318438 0.2276625,0.21452814 0.6873656,0.21452814 H 7.2151504 V 0 H 7.1056973 Q 6.2694754,0 5.8579316,-0.44219063 5.450766,-0.88875939 5.450766,-1.8475688 Z M 2.9683691,0.10069688 q -0.4378125,0 -0.8099531,-0.18825938 Q 1.7906535,-0.2802 1.3922441,-0.66547501 1.1076659,-0.34587188 0.84497844,-0.17074688 0.58229093,0 0.1050753,0 h -0.1926375 v -0.79681876 h 0.17074687 q 0.29333438,0 0.49472814,-0.16636876 Q 0.77930656,-1.1339344 0.93691906,-1.401 1.0945316,-1.6680657 1.2477659,-1.9657782 1.4053784,-2.2678688 1.5980159,-2.5349344 1.7906535,-2.802 2.0620972,-2.9683688 q 0.2758219,-0.1707469 0.6786094,-0.1707469 0.4859719,0 0.8449781,0.2364188 0.3633844,0.2320406 0.5604,0.6260719 0.2013938,0.3940312 0.2013938,0.8800031 0,0.71363439 -0.3633844,1.10766565 -0.3590062,0.38965313 -1.015725,0.38965313 z m -0.21015,-2.46488438 q -0.2189063,0 -0.3984094,0.1488562 -0.1795031,0.1444781 -0.3239812,0.3765188 -0.1444782,0.2320406 -0.2583094,0.4815937 0.2626875,0.2758219 0.5428875,0.45094691 0.3590062,0.23204063 0.6392062,0.23204063 0.6479626,0 0.6479626,-0.65234064 0,-0.455325 -0.2276625,-0.7442813 Q 3.1566285,-2.3641875 2.7582191,-2.3641875 Z M 15.620555,0 h -0.753037 v -0.99383439 q 0,-1.46667191 -0.153235,-2.59622821 -0.148856,-1.1295562 -0.577912,-2.0139375 l 0.691744,-0.2495531 q 0.464081,1.0288594 0.626071,2.2240875 0.166369,1.19085 0.166369,2.64876568 z"
       id="text1"
       transform="matrix(1.3333333,0,0,1.3333333,125.372,32.489333)"
       aria-label="هﺎﻣ۱" />
    <path
       style="font-size:8.9664px;font-family:Vazirmatn"
       d="M 8.6205289,-3.2398126 8.449782,-3.3930469 8.9138633,-3.9928501 q 0.5779125,0.4772157 1.015725,0.8931375 0.4421907,0.4115438 0.6917437,0.8099532 0.249553,0.3940312 0.249553,0.8187094 0,0.66547499 -0.455325,1.05950624 -0.4553248,0.39403126 -1.1996061,0.39403126 -0.7617937,0 -1.2083625,-0.37214063 -0.4465687,-0.37651876 -0.4465687,-0.95443127 0,-0.5078625 0.2714437,-0.945675 0.2714438,-0.4421906 0.7880625,-0.9500532 z m 1.5060751,1.7337376 q 0,-0.2013938 -0.1488563,-0.4115438 Q 9.8332696,-2.1321469 9.6099852,-2.3422969 9.3910789,-2.556825 9.1634164,-2.7538407 q -0.4027875,0.385275 -0.63045,0.6917438 -0.2276625,0.3020906 -0.2276625,0.6348281 0,0.2539313 0.2145281,0.44219066 0.2145282,0.18825938 0.6917438,0.18825938 0.4815938,0 0.6961219,-0.17512501 Q 10.126604,-1.1470688 10.126604,-1.506075 Z M 5.450766,-6.0286782 h 0.7399031 v 4.1854875 q 0,0.6173157 0.2276626,0.8318438 0.2276625,0.21452814 0.6873656,0.21452814 H 7.2151504 V 0 H 7.1056973 Q 6.2694754,0 5.8579316,-0.44219063 5.450766,-0.88875939 5.450766,-1.8475688 Z M 2.9683691,0.10069688 q -0.4378125,0 -0.8099531,-0.18825938 Q 1.7906535,-0.2802 1.3922441,-0.66547501 1.1076659,-0.34587188 0.84497844,-0.17074688 0.58229093,0 0.1050753,0 h -0.1926375 v -0.79681876 h 0.17074687 q 0.29333438,0 0.49472814,-0.16636876 Q 0.77930656,-1.1339344 0.93691906,-1.401 1.0945316,-1.6680657 1.2477659,-1.9657782 1.4053784,-2.2678688 1.5980159,-2.5349344 1.7906535,-2.802 2.0620972,-2.9683688 q 0.2758219,-0.1707469 0.6786094,-0.1707469 0.4859719,0 0.8449781,0.2364188 0.3633844,0.2320406 0.5604,0.6260719 0.2013938,0.3940312 0.2013938,0.8800031 0,0.71363439 -0.3633844,1.10766565 -0.3590062,0.38965313 -1.015725,0.38965313 z m -0.21015,-2.46488438 q -0.2189063,0 -0.3984094,0.1488562 -0.1795031,0.1444781 -0.3239812,0.3765188 -0.1444782,0.2320406 -0.2583094,0.4815937 0.2626875,0.2758219 0.5428875,0.45094691 0.3590062,0.23204063 0.6392062,0.23204063 0.6479626,0 0.6479626,-0.65234064 0,-0.455325 -0.2276625,-0.7442813 Q 3.1566285,-2.3641875 2.7582191,-2.3641875 Z M 17.932205,-3.2266782 q -0.293334,0 -0.5604,-0.1182094 -0.267065,-0.1225875 -0.4203,-0.4027875 -0.148856,0.2758219 -0.4203,0.3984094 -0.271444,0.1225875 -0.477215,0.1225875 -0.148857,0 -0.267066,-0.00876 -0.113831,-0.013134 -0.2802,-0.07005 0.04816,0.5034844 0.07005,0.8800031 0.02627,0.3765188 0.03502,0.7180125 0.0088,0.3371157 0.0088,0.72676878 V 0 h -0.753037 v -0.99383439 q 0,-1.46667191 -0.153235,-2.59622821 -0.148856,-1.1295562 -0.577912,-2.0139375 l 0.687365,-0.245175 q 0.135722,0.3458719 0.227663,0.595425 0.09194,0.245175 0.218906,0.5560219 0.113831,0.2802 0.262688,0.49035 0.148856,0.21015 0.468459,0.2145281 0.315225,0 0.459703,-0.1926375 0.148856,-0.1926375 0.153235,-0.7968187 l 0.0044,-0.5604 0.7005,-0.030647 0.01751,0.5122406 q 0.02189,0.6260719 0.157613,0.8493563 0.135722,0.2189062 0.429056,0.2189062 0.214528,0 0.328359,-0.1444781 0.11821,-0.1488562 0.166369,-0.3808969 0.04816,-0.2320406 0.04816,-0.4859719 0,-0.1926375 -0.02189,-0.3808968 -0.01751,-0.1926375 -0.04378,-0.3414938 l 0.753037,-0.065672 q 0.02627,0.2889563 0.02627,0.5735344 0,0.525375 -0.113831,0.9807 -0.109454,0.455325 -0.380897,0.735525 -0.271444,0.2758219 -0.753038,0.2758219 z"
       id="text2"
       transform="matrix(1.3333333,0,0,1.3333333,179.85333,32.489333)"
       aria-label="هﺎﻣ۳" />
    <path
       style="font-size:8.9664px;font-family:Vazirmatn"
       d="M 8.6205289,-3.2398126 8.449782,-3.3930469 8.9138633,-3.9928501 q 0.5779125,0.4772157 1.015725,0.8931375 0.4421907,0.4115438 0.6917437,0.8099532 0.249553,0.3940312 0.249553,0.8187094 0,0.66547499 -0.455325,1.05950624 -0.4553248,0.39403126 -1.1996061,0.39403126 -0.7617937,0 -1.2083625,-0.37214063 -0.4465687,-0.37651876 -0.4465687,-0.95443127 0,-0.5078625 0.2714437,-0.945675 0.2714438,-0.4421906 0.7880625,-0.9500532 z m 1.5060751,1.7337376 q 0,-0.2013938 -0.1488563,-0.4115438 Q 9.8332696,-2.1321469 9.6099852,-2.3422969 9.3910789,-2.556825 9.1634164,-2.7538407 q -0.4027875,0.385275 -0.63045,0.6917438 -0.2276625,0.3020906 -0.2276625,0.6348281 0,0.2539313 0.2145281,0.44219066 0.2145282,0.18825938 0.6917438,0.18825938 0.4815938,0 0.6961219,-0.17512501 Q 10.126604,-1.1470688 10.126604,-1.506075 Z M 5.450766,-6.0286782 h 0.7399031 v 4.1854875 q 0,0.6173157 0.2276626,0.8318438 0.2276625,0.21452814 0.6873656,0.21452814 H 7.2151504 V 0 H 7.1056973 Q 6.2694754,0 5.8579316,-0.44219063 5.450766,-0.88875939 5.450766,-1.8475688 Z M 2.9683691,0.10069688 q -0.4378125,0 -0.8099531,-0.18825938 Q 1.7906535,-0.2802 1.3922441,-0.66547501 1.1076659,-0.34587188 0.84497844,-0.17074688 0.58229093,0 0.1050753,0 h -0.1926375 v -0.79681876 h 0.17074687 q 0.29333438,0 0.49472814,-0.16636876 Q 0.77930656,-1.1339344 0.93691906,-1.401 1.0945316,-1.6680657 1.2477659,-1.9657782 1.4053784,-2.2678688 1.5980159,-2.5349344 1.7906535,-2.802 2.0620972,-2.9683688 q 0.2758219,-0.1707469 0.6786094,-0.1707469 0.4859719,0 0.8449781,0.2364188 0.3633844,0.2320406 0.5604,0.6260719 0.2013938,0.3940312 0.2013938,0.8800031 0,0.71363439 -0.3633844,1.10766565 -0.3590062,0.38965313 -1.015725,0.38965313 z m -0.21015,-2.46488438 q -0.2189063,0 -0.3984094,0.1488562 -0.1795031,0.1444781 -0.3239812,0.3765188 -0.1444782,0.2320406 -0.2583094,0.4815937 0.2626875,0.2758219 0.5428875,0.45094691 0.3590062,0.23204063 0.6392062,0.23204063 0.6479626,0 0.6479626,-0.65234064 0,-0.455325 -0.2276625,-0.7442813 Q 3.1566285,-2.3641875 2.7582191,-2.3641875 Z M 15.79568,-2.5787157 q -0.801197,-0.1357218 -1.199606,-0.5034844 -0.394031,-0.3677625 -0.394031,-0.8843812 0,-0.4684594 0.214528,-0.8887594 0.214528,-0.4203 0.612937,-0.6873656 0.402788,-0.2670657 0.954432,-0.2670657 0.319603,0 0.573534,0.091941 0.258309,0.091941 0.485972,0.2670656 l -0.240797,0.6917437 q -0.166369,-0.1006968 -0.345872,-0.1882593 -0.179503,-0.087562 -0.424678,-0.087562 -0.293334,0 -0.534131,0.1576125 -0.240797,0.1532343 -0.385275,0.3940312 -0.1401,0.2364188 -0.1401,0.4859719 0,0.2670656 0.323981,0.4640813 0.328359,0.1926375 1.147069,0.2626875 0.02189,0 0.03502,-0.00876 0.21015,-0.1313437 0.359006,-0.2232844 0.153234,-0.091941 0.306469,-0.175125 0.157612,-0.087562 0.37214,-0.1970156 l 0.197016,0.7092563 Q 16.785136,-2.6619 16.07588,-1.8125438 15.371002,-0.96318752 14.902543,0.09631875 l -0.682988,-0.26706563 q 0.354628,-0.80995314 0.774928,-1.40100002 0.4203,-0.595425 0.801197,-1.0069688 z"
       id="text3"
       transform="matrix(1.3333333,0,0,1.3333333,265.92133,32.489333)"
       aria-label="هﺎﻣ۶" />
    <path
       style="font-size:8.9664px;font-family:Vazirmatn"
       d="M 8.6205289,-3.2398126 8.449782,-3.3930469 8.9138633,-3.9928501 q 0.5779125,0.4772157 1.015725,0.8931375 0.4421907,0.4115438 0.6917437,0.8099532 0.249553,0.3940312 0.249553,0.8187094 0,0.66547499 -0.455325,1.05950624 -0.4553248,0.39403126 -1.1996061,0.39403126 -0.7617937,0 -1.2083625,-0.37214063 -0.4465687,-0.37651876 -0.4465687,-0.95443127 0,-0.5078625 0.2714437,-0.945675 0.2714438,-0.4421906 0.7880625,-0.9500532 z m 1.5060751,1.7337376 q 0,-0.2013938 -0.1488563,-0.4115438 Q 9.8332696,-2.1321469 9.6099852,-2.3422969 9.3910789,-2.556825 9.1634164,-2.7538407 q -0.4027875,0.385275 -0.63045,0.6917438 -0.2276625,0.3020906 -0.2276625,0.6348281 0,0.2539313 0.2145281,0.44219066 0.2145282,0.18825938 0.6917438,0.18825938 0.4815938,0 0.6961219,-0.17512501 Q 10.126604,-1.1470688 10.126604,-1.506075 Z M 5.450766,-6.0286782 h 0.7399031 v 4.1854875 q 0,0.6173157 0.2276626,0.8318438 0.2276625,0.21452814 0.6873656,0.21452814 H 7.2151504 V 0 H 7.1056973 Q 6.2694754,0 5.8579316,-0.44219063 5.450766,-0.88875939 5.450766,-1.8475688 Z M 2.9683691,0.10069688 q -0.4378125,0 -0.8099531,-0.18825938 Q 1.7906535,-0.2802 1.3922441,-0.66547501 1.1076659,-0.34587188 0.84497844,-0.17074688 0.58229093,0 0.1050753,0 h -0.1926375 v -0.79681876 h 0.17074687 q 0.29333438,0 0.49472814,-0.16636876 Q 0.77930656,-1.1339344 0.93691906,-1.401 1.0945316,-1.6680657 1.2477659,-1.9657782 1.4053784,-2.2678688 1.5980159,-2.5349344 1.7906535,-2.802 2.0620972,-2.9683688 q 0.2758219,-0.1707469 0.6786094,-0.1707469 0.4859719,0 0.8449781,0.2364188 0.3633844,0.2320406 0.5604,0.6260719 0.2013938,0.3940312 0.2013938,0.8800031 0,0.71363439 -0.3633844,1.10766565 -0.3590062,0.38965313 -1.015725,0.38965313 z m -0.21015,-2.46488438 q -0.2189063,0 -0.3984094,0.1488562 -0.1795031,0.1444781 -0.3239812,0.3765188 -0.1444782,0.2320406 -0.2583094,0.4815937 0.2626875,0.2758219 0.5428875,0.45094691 0.3590062,0.23204063 0.6392062,0.23204063 0.6479626,0 0.6479626,-0.65234064 0,-0.455325 -0.2276625,-0.7442813 Q 3.1566285,-2.3641875 2.7582191,-2.3641875 Z M 15.765033,-2.6925469 q -0.814331,0 -1.234631,-0.2889563 -0.415922,-0.2933344 -0.415922,-1.0463719 0,-0.3020906 0.09632,-0.6173156 0.09632,-0.315225 0.284578,-0.5866688 0.188259,-0.2714437 0.464081,-0.4378125 0.2802,-0.1663687 0.643585,-0.1663687 0.604181,0 0.954431,0.3239812 0.35025,0.3196032 0.507862,0.9325407 0.157613,0.6085594 0.175125,1.4798062 0.0088,0.3020907 0.01314,0.6961219 0.0088,0.3940313 0.01751,0.8230875 0.01313,0.4290563 0.02627,0.84060006 Q 17.310511,-0.32835938 17.323646,0 h -0.753038 q -0.0088,-0.33711563 -0.01751,-0.74865939 -0.0088,-0.41154371 -0.01751,-0.81870941 -0.0044,-0.4071656 -0.0088,-0.735525 -0.0044,-0.3283594 -0.0088,-0.49035 -0.131344,0.039403 -0.354628,0.07005 -0.223285,0.030647 -0.39841,0.030647 z m -0.02189,-0.7574157 q 0.218906,0 0.429056,-0.030647 0.214528,-0.035025 0.319603,-0.074428 -0.01751,-0.4115437 -0.105075,-0.7574156 -0.08756,-0.3458719 -0.2802,-0.5560219 -0.188259,-0.21015 -0.512241,-0.21015 -0.2802,0 -0.446568,0.1882594 -0.161991,0.1838812 -0.236419,0.4334344 -0.07005,0.245175 -0.07005,0.4290562 0,0.3196032 0.205772,0.4509469 0.205772,0.1269656 0.696122,0.1269656 z"
       id="text4"
       transform="matrix(1.3333333,0,0,1.3333333,350.99067,32.489333)"
       aria-label="هﺎﻣ۹" />
    <path
       style="font-size:8.9664px;font-family:Vazirmatn"
       d="M 8.6205289,-3.2398126 8.449782,-3.3930469 8.9138633,-3.9928501 q 0.5779125,0.4772157 1.015725,0.8931375 0.4421907,0.4115438 0.6917437,0.8099532 0.249553,0.3940312 0.249553,0.8187094 0,0.66547499 -0.455325,1.05950624 -0.4553248,0.39403126 -1.1996061,0.39403126 -0.7617937,0 -1.2083625,-0.37214063 -0.4465687,-0.37651876 -0.4465687,-0.95443127 0,-0.5078625 0.2714437,-0.945675 0.2714438,-0.4421906 0.7880625,-0.9500532 z m 1.5060751,1.7337376 q 0,-0.2013938 -0.1488563,-0.4115438 Q 9.8332696,-2.1321469 9.6099852,-2.3422969 9.3910789,-2.556825 9.1634164,-2.7538407 q -0.4027875,0.385275 -0.63045,0.6917438 -0.2276625,0.3020906 -0.2276625,0.6348281 0,0.2539313 0.2145281,0.44219066 0.2145282,0.18825938 0.6917438,0.18825938 0.4815938,0 0.6961219,-0.17512501 Q 10.126604,-1.1470688 10.126604,-1.506075 Z M 5.450766,-6.0286782 h 0.7399031 v 4.1854875 q 0,0.6173157 0.2276626,0.8318438 0.2276625,0.21452814 0.6873656,0.21452814 H 7.2151504 V 0 H 7.1056973 Q 6.2694754,0 5.8579316,-0.44219063 5.450766,-0.88875939 5.450766,-1.8475688 Z M 2.9683691,0.10069688 q -0.4378125,0 -0.8099531,-0.18825938 Q 1.7906535,-0.2802 1.3922441,-0.66547501 1.1076659,-0.34587188 0.84497844,-0.17074688 0.58229093,0 0.1050753,0 h -0.1926375 v -0.79681876 h 0.17074687 q 0.29333438,0 0.49472814,-0.16636876 Q 0.77930656,-1.1339344 0.93691906,-1.401 1.0945316,-1.6680657 1.2477659,-1.9657782 1.4053784,-2.2678688 1.5980159,-2.5349344 1.7906535,-2.802 2.0620972,-2.9683688 q 0.2758219,-0.1707469 0.6786094,-0.1707469 0.4859719,0 0.8449781,0.2364188 0.3633844,0.2320406 0.5604,0.6260719 0.2013938,0.3940312 0.2013938,0.8800031 0,0.71363439 -0.3633844,1.10766565 -0.3590062,0.38965313 -1.015725,0.38965313 z m -0.21015,-2.46488438 q -0.2189063,0 -0.3984094,0.1488562 -0.1795031,0.1444781 -0.3239812,0.3765188 -0.1444782,0.2320406 -0.2583094,0.4815937 0.2626875,0.2758219 0.5428875,0.45094691 0.3590062,0.23204063 0.6392062,0.23204063 0.6479626,0 0.6479626,-0.65234064 0,-0.455325 -0.2276625,-0.7442813 Q 3.1566285,-2.3641875 2.7582191,-2.3641875 Z M 15.620555,0 h -0.753037 v -0.99383439 q 0,-1.46667191 -0.153235,-2.59622821 -0.148856,-1.1295562 -0.577912,-2.0139375 l 0.691744,-0.2495531 q 0.464081,1.0288594 0.626071,2.2240875 0.166369,1.19085 0.166369,2.64876568 z m 4.9035,-5.7922595 q 0.01313,0.1576125 0.02189,0.3108469 0.0088,0.1532344 0.0088,0.3020906 0,0.5560219 -0.1401,0.9982126 -0.1401,0.4421906 -0.481594,0.7005 -0.337115,0.2539312 -0.936918,0.2539312 -0.170747,0 -0.411544,-0.021891 -0.236419,-0.026269 -0.499106,-0.105075 0.09194,0.6567188 0.105075,1.2390094 0.01751,0.5822906 0.01751,1.13393438 V 0 H 17.45499 v -0.99383439 q 0,-1.46667191 -0.153235,-2.59622821 -0.148856,-1.1295562 -0.577912,-2.0139375 l 0.687365,-0.245175 q 0.100697,0.2714438 0.183882,0.4772156 0.08756,0.2013938 0.183881,0.4728375 0.192637,0.5341313 0.455325,0.7223907 0.267065,0.1838812 0.753037,0.1838812 0.345872,0 0.529754,-0.1488562 0.183881,-0.1532344 0.253931,-0.3896531 0.07005,-0.2364188 0.07005,-0.4991063 0,-0.1926375 -0.02189,-0.3677625 -0.02189,-0.175125 -0.04816,-0.3283594 z"
       id="text5"
       transform="matrix(1.3333333,0,0,1.3333333,434.05867,32.489333)"
       aria-label="هﺎﻣ۱۲" />
    <path
       style="font-size:8.9664px;font-family:Vazirmatn"
       d="M 8.6205289,-3.2398126 8.449782,-3.3930469 8.9138633,-3.9928501 q 0.5779125,0.4772157 1.015725,0.8931375 0.4421907,0.4115438 0.6917437,0.8099532 0.249553,0.3940312 0.249553,0.8187094 0,0.66547499 -0.455325,1.05950624 -0.4553248,0.39403126 -1.1996061,0.39403126 -0.7617937,0 -1.2083625,-0.37214063 -0.4465687,-0.37651876 -0.4465687,-0.95443127 0,-0.5078625 0.2714437,-0.945675 0.2714438,-0.4421906 0.7880625,-0.9500532 z m 1.5060751,1.7337376 q 0,-0.2013938 -0.1488563,-0.4115438 Q 9.8332696,-2.1321469 9.6099852,-2.3422969 9.3910789,-2.556825 9.1634164,-2.7538407 q -0.4027875,0.385275 -0.63045,0.6917438 -0.2276625,0.3020906 -0.2276625,0.6348281 0,0.2539313 0.2145281,0.44219066 0.2145282,0.18825938 0.6917438,0.18825938 0.4815938,0 0.6961219,-0.17512501 Q 10.126604,-1.1470688 10.126604,-1.506075 Z M 5.450766,-6.0286782 h 0.7399031 v 4.1854875 q 0,0.6173157 0.2276626,0.8318438 0.2276625,0.21452814 0.6873656,0.21452814 H 7.2151504 V 0 H 7.1056973 Q 6.2694754,0 5.8579316,-0.44219063 5.450766,-0.88875939 5.450766,-1.8475688 Z M 2.9683691,0.10069688 q -0.4378125,0 -0.8099531,-0.18825938 Q 1.7906535,-0.2802 1.3922441,-0.66547501 1.1076659,-0.34587188 0.84497844,-0.17074688 0.58229093,0 0.1050753,0 h -0.1926375 v -0.79681876 h 0.17074687 q 0.29333438,0 0.49472814,-0.16636876 Q 0.77930656,-1.1339344 0.93691906,-1.401 1.0945316,-1.6680657 1.2477659,-1.9657782 1.4053784,-2.2678688 1.5980159,-2.5349344 1.7906535,-2.802 2.0620972,-2.9683688 q 0.2758219,-0.1707469 0.6786094,-0.1707469 0.4859719,0 0.8449781,0.2364188 0.3633844,0.2320406 0.5604,0.6260719 0.2013938,0.3940312 0.2013938,0.8800031 0,0.71363439 -0.3633844,1.10766565 -0.3590062,0.38965313 -1.015725,0.38965313 z m -0.21015,-2.46488438 q -0.2189063,0 -0.3984094,0.1488562 -0.1795031,0.1444781 -0.3239812,0.3765188 -0.1444782,0.2320406 -0.2583094,0.4815937 0.2626875,0.2758219 0.5428875,0.45094691 0.3590062,0.23204063 0.6392062,0.23204063 0.6479626,0 0.6479626,-0.65234064 0,-0.455325 -0.2276625,-0.7442813 Q 3.1566285,-2.3641875 2.7582191,-2.3641875 Z M 15.620555,0 h -0.753037 v -0.99383439 q 0,-1.46667191 -0.153235,-2.59622821 -0.148856,-1.1295562 -0.577912,-2.0139375 l 0.691744,-0.2495531 q 0.464081,1.0288594 0.626071,2.2240875 0.166369,1.19085 0.166369,2.64876568 z m 3.318619,-0.69612189 Q 18.829721,-0.31522501 18.57579,-0.1576125 18.321858,0 17.984743,0 17.411208,0 17.082849,-0.36338438 16.75449,-0.73114689 16.75449,-1.4754281 q 0,-0.7968188 0.446568,-1.6855782 0.450947,-0.8931375 1.147069,-1.8431907 l -0.262687,-0.2583093 0.464081,-0.6348282 q 0.963187,0.8931375 1.523587,1.6724438 0.564779,0.7749281 0.805575,1.4579157 0.245175,0.6786093 0.245175,1.2915469 0,0.73552496 -0.315225,1.10766559 Q 20.493408,0 19.911118,0 19.617783,0 19.333205,-0.1576125 19.053005,-0.31522501 18.939174,-0.69612189 Z M 17.481258,-1.47105 q 0,0.3239812 0.135722,0.52099686 0.135722,0.19701563 0.363385,0.19701563 0.148856,0 0.271443,-0.0612938 0.122588,-0.0656719 0.223285,-0.28020004 0.105075,-0.2145281 0.188259,-0.665475 h 0.542888 q 0.07443,0.4509469 0.179503,0.665475 0.109453,0.21452816 0.240797,0.28020004 0.135722,0.0612938 0.284578,0.0612938 0.249553,0 0.363384,-0.19263751 0.11821,-0.19263748 0.11821,-0.52537498 0,-0.7267688 -0.389654,-1.4929407 -0.389653,-0.7661719 -1.094531,-1.506075 -0.739903,0.9763219 -1.085775,1.7118469 -0.341494,0.735525 -0.341494,1.2871688 z"
       id="text6"
       transform="matrix(1.3333333,0,0,1.3333333,518.70133,32.489333)"
       aria-label="هﺎﻣ۱۵" />
    <path
       style="font-size:8.9664px;font-family:Vazirmatn"
       d="M 8.6205289,-3.2398126 8.449782,-3.3930469 8.9138633,-3.9928501 q 0.5779125,0.4772157 1.015725,0.8931375 0.4421907,0.4115438 0.6917437,0.8099532 0.249553,0.3940312 0.249553,0.8187094 0,0.66547499 -0.455325,1.05950624 -0.4553248,0.39403126 -1.1996061,0.39403126 -0.7617937,0 -1.2083625,-0.37214063 -0.4465687,-0.37651876 -0.4465687,-0.95443127 0,-0.5078625 0.2714437,-0.945675 0.2714438,-0.4421906 0.7880625,-0.9500532 z m 1.5060751,1.7337376 q 0,-0.2013938 -0.1488563,-0.4115438 Q 9.8332696,-2.1321469 9.6099852,-2.3422969 9.3910789,-2.556825 9.1634164,-2.7538407 q -0.4027875,0.385275 -0.63045,0.6917438 -0.2276625,0.3020906 -0.2276625,0.6348281 0,0.2539313 0.2145281,0.44219066 0.2145282,0.18825938 0.6917438,0.18825938 0.4815938,0 0.6961219,-0.17512501 Q 10.126604,-1.1470688 10.126604,-1.506075 Z M 5.450766,-6.0286782 h 0.7399031 v 4.1854875 q 0,0.6173157 0.2276626,0.8318438 0.2276625,0.21452814 0.6873656,0.21452814 H 7.2151504 V 0 H 7.1056973 Q 6.2694754,0 5.8579316,-0.44219063 5.450766,-0.88875939 5.450766,-1.8475688 Z M 2.9683691,0.10069688 q -0.4378125,0 -0.8099531,-0.18825938 Q 1.7906535,-0.2802 1.3922441,-0.66547501 1.1076659,-0.34587188 0.84497844,-0.17074688 0.58229093,0 0.1050753,0 h -0.1926375 v -0.79681876 h 0.17074687 q 0.29333438,0 0.49472814,-0.16636876 Q 0.77930656,-1.1339344 0.93691906,-1.401 1.0945316,-1.6680657 1.2477659,-1.9657782 1.4053784,-2.2678688 1.5980159,-2.5349344 1.7906535,-2.802 2.0620972,-2.9683688 q 0.2758219,-0.1707469 0.6786094,-0.1707469 0.4859719,0 0.8449781,0.2364188 0.3633844,0.2320406 0.5604,0.6260719 0.2013938,0.3940312 0.2013938,0.8800031 0,0.71363439 -0.3633844,1.10766565 -0.3590062,0.38965313 -1.015725,0.38965313 z m -0.21015,-2.46488438 q -0.2189063,0 -0.3984094,0.1488562 -0.1795031,0.1444781 -0.3239812,0.3765188 -0.1444782,0.2320406 -0.2583094,0.4815937 0.2626875,0.2758219 0.5428875,0.45094691 0.3590062,0.23204063 0.6392062,0.23204063 0.6479626,0 0.6479626,-0.65234064 0,-0.455325 -0.2276625,-0.7442813 Q 3.1566285,-2.3641875 2.7582191,-2.3641875 Z M 15.620555,0 h -0.753037 v -0.99383439 q 0,-1.46667191 -0.153235,-2.59622821 -0.148856,-1.1295562 -0.577912,-2.0139375 l 0.691744,-0.2495531 q 0.464081,1.0288594 0.626071,2.2240875 0.166369,1.19085 0.166369,2.64876568 z m 2.937722,-5.6740501 h 0.753038 q 0.179503,1.19085 0.507862,2.2503563 0.32836,1.0551281 0.704878,1.8869719 0.380897,0.82746564 0.696122,1.33970627 L 20.532812,0.175125 Q 20.335796,-0.17950313 20.103755,-0.66985314 19.871715,-1.1645813 19.644052,-1.7424938 19.41639,-2.3247844 19.22813,-2.9377219 q -0.188259,-0.6173157 -0.293334,-1.2127407 -0.109453,0.595425 -0.297713,1.2127407 -0.188259,0.6129375 -0.415922,1.1952281 -0.227662,0.5779125 -0.459703,1.07264066 -0.227662,0.49035001 -0.424678,0.84497814 l -0.687365,-0.37214063 q 0.319603,-0.51224063 0.696121,-1.33970627 0.376519,-0.8318438 0.704879,-1.8869719 0.332737,-1.0595063 0.507862,-2.2503563 z"
       id="text7"
       transform="matrix(1.3333333,0,0,1.3333333,603.748,32.389333)"
       aria-label="هﺎﻣ۱۸" />
    <path
       style="font-size:8.9664px;font-family:Vazirmatn"
       d="m 48.759178,0 q -0.643584,0 -1.00259,-0.30209063 -0.354628,-0.30209063 -0.459703,-0.83184377 -0.253932,0.25393126 -0.551644,0.38965314 -0.293334,0.13572188 -0.661097,0.13572188 -0.626072,0 -1.05075,-0.33711564 -0.424678,-0.33711558 -0.424678,-0.93254068 0,-0.6742312 0.551644,-1.1645812 0.551643,-0.4947282 1.733737,-0.8581125 l -0.03065,-0.21015 0.7005,-0.1401 0.380897,2.6881687 q 0.05254,0.3852751 0.249553,0.57791256 0.201394,0.18825938 0.582291,0.18825938 h 0.135722 V 0 Z M 47.12176,-2.2021969 q 0,-0.1357219 -0.01751,-0.2583094 l -0.109453,-0.7311469 q -0.849356,0.3064688 -1.239009,0.6041813 -0.385275,0.2977125 -0.385275,0.6523406 0,0.2889563 0.197015,0.4378125 0.197016,0.1488563 0.534132,0.1488563 0.258309,0 0.49035,-0.1006969 0.236418,-0.1006969 0.380896,-0.2933344 0.148857,-0.1926375 0.148857,-0.4597031 z m -6.146886,1.40537814 h 0.51224 q 0.556022,0 0.792441,-0.24955314 0.240797,-0.2495531 0.240797,-0.7661719 0,-0.21015 -0.01313,-0.3984094 -0.0088,-0.1882593 -0.02627,-0.3765187 l 0.731147,-0.087562 0.07005,1.0244812 q 0.05254,0.85373444 0.888759,0.85373444 h 0.09194 V 0 h -0.100697 q -0.485972,0 -0.779306,-0.175125 -0.288957,-0.17512501 -0.46846,-0.49472814 -0.236419,0.34587188 -0.621694,0.50786251 Q 41.907414,0 41.487114,0 h -0.51224 z m 0.901894,1.4666719 0.634828,0.63482816 -0.634828,0.6348281 -0.634829,-0.6348281 z m -2.504286,-3.25732504 0.731147,-0.087562 0.07005,1.0244812 q 0.05254,0.85373444 0.888759,0.85373444 h 0.09194 V 0 H 41.053682 Q 40.56771,0 40.274376,-0.175125 39.985419,-0.35025001 39.805916,-0.66985314 39.569497,-0.32398126 39.184222,-0.16199063 38.798947,0 38.378647,0 h -0.4203 v -0.79681876 h 0.4203 q 0.556022,0 0.792441,-0.24955314 0.240797,-0.2495531 0.240797,-0.7661719 0,-0.21015 -0.01313,-0.3984094 -0.0088,-0.1882593 -0.02627,-0.3765187 z m 0.08318,-2.1803063 0.634828,0.6348281 -0.634828,0.6348282 -0.634828,-0.6348282 z m -4.579522,-0.9894563 0.591047,0.5910469 -0.591047,0.5910469 -0.591046,-0.5910469 z m 0.74866,1.1076657 0.591047,0.5910469 -0.591047,0.5910468 -0.591047,-0.5910468 z m -1.497319,0 0.591047,0.5910469 -0.591047,0.5910468 -0.591047,-0.5910468 z M 33.939226,0 q -0.503485,0 -0.779307,-0.17074688 -0.271443,-0.175125 -0.433434,-0.49910626 -0.205772,0.32398126 -0.525375,0.49910626 Q 31.881507,0 31.29046,0 h -0.402788 v -0.79681876 h 0.411544 q 0.5604,0 0.81871,-0.20577184 0.258309,-0.21015 0.258309,-0.7617938 0,-0.1138313 -0.01313,-0.2670656 -0.0088,-0.1576125 -0.03065,-0.4378125 l 0.731147,-0.091941 0.07005,0.9150282 q 0.02627,0.3677625 0.223284,0.6085594 0.201394,0.24079684 0.591047,0.24079684 0.464081,0 0.63045,-0.24955314 0.166369,-0.2495531 0.166369,-0.7180125 0,-0.1138313 -0.01314,-0.2714438 -0.0088,-0.1576125 -0.03065,-0.4334343 l 0.731147,-0.091941 0.07005,0.9150282 q 0.02189,0.3546281 0.18826,0.6041812 0.166368,0.24517504 0.538509,0.24517504 0.363384,0 0.499106,-0.27144374 0.135722,-0.2714438 0.135722,-0.6348282 0,-0.3283593 -0.06567,-0.6610968 -0.06129,-0.3327375 -0.109453,-0.5385094 l 0.74866,-0.2013938 q 0.07881,0.2933344 0.126965,0.6260719 0.04816,0.3283594 0.04816,0.6567188 0,0.4728375 -0.131344,0.88875936 -0.131344,0.41592188 -0.433435,0.67423126 Q 36.749982,-0.00437813 36.233363,0 q -0.4203,0 -0.678609,-0.175125 -0.25831,-0.17512501 -0.4203,-0.49472814 -0.245175,0.35462813 -0.547266,0.51224064 Q 34.289476,0 33.939226,0 Z m -7.840627,0 q -0.643585,0 -1.002591,-0.30209063 -0.354628,-0.30209063 -0.459703,-0.83184377 -0.253931,0.25393126 -0.551644,0.38965314 -0.293334,0.13572188 -0.661097,0.13572188 -0.626072,0 -1.05075,-0.33711564 -0.424678,-0.33711558 -0.424678,-0.93254068 0,-0.6742312 0.551644,-1.1645812 0.551644,-0.4947282 1.733738,-0.8581125 l -0.03065,-0.21015 0.7005,-0.1401 0.380897,2.6881687 q 0.05254,0.3852751 0.249553,0.57791256 0.201393,0.18825938 0.58229,0.18825938 h 0.135722 V 0 Z M 24.46118,-2.2021969 q 0,-0.1357219 -0.01751,-0.2583094 l -0.109454,-0.7311469 q -0.849356,0.3064688 -1.239009,0.6041813 -0.385275,0.2977125 -0.385275,0.6523406 0,0.2889563 0.197016,0.4378125 0.197015,0.1488563 0.534131,0.1488563 0.258309,0 0.49035,-0.1006969 0.236419,-0.1006969 0.380897,-0.2933344 0.148856,-0.1926375 0.148856,-0.4597031 z M 17.40802,0 Q 16.904536,0 16.628714,-0.17074688 16.35727,-0.34587188 16.19528,-0.66985314 15.989508,-0.34587188 15.669905,-0.17074688 15.350302,0 14.759255,0 h -0.402788 v -0.79681876 h 0.411544 q 0.5604,0 0.818709,-0.20577184 0.25831,-0.21015 0.25831,-0.7617938 0,-0.1138313 -0.01314,-0.2670656 -0.0088,-0.1576125 -0.03065,-0.4378125 l 0.731146,-0.091941 0.07005,0.9150282 q 0.02627,0.3677625 0.223285,0.6085594 0.201394,0.24079684 0.591047,0.24079684 0.464081,0 0.63045,-0.24955314 0.166368,-0.2495531 0.166368,-0.7180125 0,-0.1138313 -0.01313,-0.2714438 -0.0088,-0.1576125 -0.03065,-0.4334343 l 0.731147,-0.091941 0.07005,0.9150282 q 0.02189,0.3546281 0.18826,0.6041812 0.166368,0.24517504 0.538509,0.24517504 0.363384,0 0.499106,-0.27144374 0.135722,-0.2714438 0.135722,-0.6348282 0,-0.3283593 -0.06567,-0.6610968 -0.06129,-0.3327375 -0.109453,-0.5385094 l 0.748659,-0.2013938 q 0.07881,0.2933344 0.126966,0.6260719 0.04816,0.3283594 0.04816,0.6567188 0,0.4728375 -0.131343,0.88875936 -0.131344,0.41592188 -0.433435,0.67423126 Q 20.218777,-0.00437813 19.702158,0 q -0.4203,0 -0.678609,-0.175125 -0.25831,-0.17512501 -0.4203,-0.49472814 -0.245175,0.35462813 -0.547266,0.51224064 Q 17.75827,0 17.40802,0 Z m -3.244786,-3.2398126 -0.170746,-0.1532343 0.464081,-0.5998032 q 0.577912,0.4772157 1.015725,0.8931375 0.44219,0.4115438 0.691744,0.8099532 0.249553,0.3940312 0.249553,0.8187094 0,0.66547499 -0.455325,1.05950624 -0.455325,0.39403126 -1.199607,0.39403126 -0.761793,0 -1.208362,-0.37214063 -0.446569,-0.37651876 -0.446569,-0.95443127 0,-0.5078625 0.271444,-0.945675 0.271444,-0.4421906 0.788062,-0.9500532 z m 1.506075,1.7337376 q 0,-0.2013938 -0.148856,-0.4115438 -0.144478,-0.2145281 -0.367762,-0.4246781 -0.218907,-0.2145281 -0.446569,-0.4115438 -0.402788,0.385275 -0.63045,0.6917438 -0.227663,0.3020906 -0.227663,0.6348281 0,0.2539313 0.214529,0.44219066 0.214528,0.18825938 0.691743,0.18825938 0.481594,0 0.696122,-0.17512501 0.218906,-0.17512503 0.218906,-0.53413123 z m -4.675837,-4.5226032 h 0.739903 v 4.1854875 q 0,0.6173157 0.227663,0.8318438 0.227662,0.21452814 0.687365,0.21452814 h 0.109453 V 0 H 12.648403 Q 11.812181,0 11.400638,-0.44219063 10.993472,-0.88875939 10.993472,-1.8475688 Z m -4.0191187,5.23185944 h 0.6610969 q 0.5560219,0 0.7924406,-0.24955314 0.2407969,-0.2495531 0.2407969,-0.7661719 0,-0.21015 -0.013134,-0.3984094 -0.00876,-0.1882593 -0.026269,-0.3765187 l 0.7311468,-0.087562 0.07005,1.0244812 q 0.052537,0.85373444 0.8887596,0.85373444 h 0.09194 V 0 H 10.310485 Q 9.8245127,0 9.5311783,-0.175125 9.2422221,-0.35025001 9.0627189,-0.66985314 8.8263002,-0.32398126 8.4410252,-0.16199063 8.0557502,0 7.6354502,0 H 6.9743533 Z M 8.5548564,0.69612189 9.1677939,1.3046813 8.5548564,1.9219969 7.946297,1.3046813 Z m -1.4535375,0 L 7.7142564,1.3046813 7.1013189,1.9219969 6.4927595,1.3046813 Z M 2.9639907,0 Q 2.4605063,0 2.1846845,-0.17074688 1.9132407,-0.34587188 1.7512501,-0.66985314 1.5454782,-0.34587188 1.2258751,-0.17074688 0.90627193,0 0.31522505,0 H -0.08756246 V -0.79681876 H 0.3239813 q 0.56040001,0 0.8187094,-0.20577184 0.2583094,-0.21015 0.2583094,-0.7617938 0,-0.1138313 -0.013134,-0.2670656 -0.00876,-0.1576125 -0.030647,-0.4378125 l 0.7311469,-0.091941 0.07005,0.9150282 q 0.026269,0.3677625 0.2232844,0.6085594 0.2013937,0.24079684 0.5910469,0.24079684 0.4640812,0 0.63045,-0.24955314 0.1663687,-0.2495531 0.1663687,-0.7180125 0,-0.1138313 -0.013134,-0.2714438 -0.00876,-0.1576125 -0.030647,-0.4334343 l 0.7311469,-0.091941 0.07005,0.9150282 q 0.021891,0.3546281 0.1882593,0.6041812 0.1663688,0.24517504 0.5385094,0.24517504 0.3633844,0 0.4991063,-0.27144374 0.1357219,-0.2714438 0.1357219,-0.6348282 0,-0.3283593 -0.065672,-0.6610968 -0.061294,-0.3327375 -0.1094531,-0.5385094 l 0.7486594,-0.2013938 q 0.078806,0.2933344 0.1269656,0.6260719 0.048159,0.3283594 0.048159,0.6567188 0,0.4728375 -0.1313438,0.88875936 Q 6.3745501,-0.51661876 6.0724595,-0.25830938 5.774747,-0.00437813 5.2581283,0 4.8378282,0 4.5795189,-0.175125 4.3212095,-0.35025001 4.1592189,-0.66985314 3.9140439,-0.31522501 3.6119532,-0.1576125 3.3142407,0 2.9639907,0 Z"
       id="text8"
       transform="matrix(1.3333333,0,0,1.3333333,38.098667,54.216)"
       aria-label="ﻪﺒﻨﺷ ﻪﺳهﺎﯿﺳ" />
    <path
       style="font-size:8.9664px;font-family:Vazirmatn"
       d="m 23.148864,-1.3090594 q 0.245175,-0.8537344 0.639207,-1.3397063 0.398409,-0.49035 1.085775,-0.49035 0.464081,0 0.827465,0.2364188 0.363385,0.2364187 0.573535,0.6523406 0.214528,0.4115438 0.214528,0.9500532 0,0.59104684 -0.32836,0.98069997 Q 25.837033,0.07005 25.154046,0.07005 q -0.25831,0 -0.525375,-0.08318438 -0.262688,-0.08318437 -0.507863,-0.18825937 -0.240797,-0.10945313 -0.44219,-0.19263751 -0.201394,-0.0831844 -0.337116,-0.0831844 -0.245175,0 -0.372141,0.16199062 -0.122587,0.15761251 -0.166368,0.53850939 -0.0394,0.38089688 -0.0394,1.05512812 0,0.2977125 0.0044,0.5297532 0.0088,0.2364187 0.02189,0.4640812 0.01751,0.2276625 0.03503,0.5166188 H 22.071846 Q 22.049955,2.3860782 22.036821,2.03145 22.023686,1.6812 22.023686,1.3221938 q 0,-0.49035004 0.02627,-0.93254067 0.03065,-0.44219063 0.135722,-0.79681876 0.109453,-0.35900626 0.337116,-0.59104689 0.227662,-0.23641878 0.626071,-0.31084688 z m 2.600607,0.00438 q 0,-0.4509469 -0.240797,-0.7530375 -0.240797,-0.3064687 -0.617316,-0.3064687 -0.271444,0 -0.459703,0.1707468 -0.188259,0.1663688 -0.315225,0.4421907 -0.126966,0.2714437 -0.223284,0.5822906 0.477215,0.21015001 0.79244,0.33273751 0.319603,0.11820938 0.477216,0.11820938 0.293334,0 0.437812,-0.1576125 0.148857,-0.16199059 0.148857,-0.42905629 z M 20.860224,0 q -0.30209,0 -0.507862,-0.07880625 -0.201394,-0.08318438 -0.315225,-0.175125 -0.06567,0.57353438 -0.319603,1.10766564 -0.249553,0.53850941 -0.753038,0.93691881 -0.503484,0.3984093 -1.33095,0.5604 L 17.375237,1.6593094 q 1.068262,-0.2320406 1.506075,-0.81433126 0.437812,-0.57791251 0.437812,-1.37035315 0,-0.37214063 -0.08318,-0.77930629 -0.07881,-0.4115437 -0.223284,-0.8362219 l 0.726768,-0.245175 0.236419,0.9150282 q 0.09632,0.3677625 0.306469,0.52099686 0.21015,0.15323438 0.529753,0.15323438 h 0.166369 V 0 Z m -6.098728,-5.5602188 0.634828,0.6348281 -0.634828,0.6348281 -0.634828,-0.6348281 z m -2.727572,4.76340004 h 0.744281 q 0.512241,0 0.941297,-0.0919406 0.429057,-0.0919406 0.836222,-0.25393121 0.411544,-0.1619907 0.858113,-0.3808969 0.450947,-0.2232844 1.006968,-0.4772157 -0.310846,-0.1138312 -0.643584,-0.245175 -0.332737,-0.1357218 -0.634828,-0.2539312 -0.297713,-0.1182094 -0.520997,-0.1926375 -0.223284,-0.078806 -0.315225,-0.078806 -0.267066,0 -0.472837,0.1576125 -0.201394,0.1532344 -0.372141,0.3721407 l -0.118209,0.1488562 -0.669854,-0.3283594 0.06567,-0.105075 q 0.288957,-0.4684593 0.669853,-0.7486594 0.385275,-0.2845781 0.901894,-0.2845781 0.214528,0 0.516619,0.1094531 0.306469,0.1094532 0.665475,0.2758219 0.359006,0.1619907 0.744281,0.3327375 0.385275,0.1663688 0.77055,0.2845782 0.385275,0.1138312 0.735525,0.1269656 v 0.7574156 q -0.2802,0.030647 -0.718012,0.2057719 -0.433435,0.1707469 -1.129557,0.53850938 -0.5604,0.29771251 -1.041993,0.50786251 Q 14.376221,-0.21452813 13.877115,-0.105075 13.382387,0 12.765071,0 H 12.033924 Z M 4.5085235,2.2547344 q -0.945675,0 -1.5148313,-0.3458719 Q 2.4289141,1.5629907 2.1749828,0.98507814 1.9254297,0.41154376 1.9254297,-0.27582188 q 0,-0.2977125 0.043781,-0.68736564 0.048159,-0.38965308 0.2145281,-0.88875938 l 0.6961219,0.2583094 q -0.1269656,0.4378125 -0.1663688,0.77492811 -0.035025,0.33711563 -0.035025,0.56915626 0,0.47283751 0.1663688,0.86249064 0.1663687,0.38965309 0.5647781,0.62169379 0.4027875,0.2320406 1.0989094,0.2320406 0.6567188,0 1.1251782,-0.1619906 0.4728375,-0.1619907 0.7223906,-0.38527503 0.2539312,-0.22328438 0.2539312,-0.40716564 0,-0.21015 -0.1838812,-0.35900625 Q 6.2466392,0.00437813 5.8394735,0.00437813 H 5.191511 q -0.087562,0 -0.1269656,-0.07442813 -0.039403,-0.07880625 -0.074428,-0.20139375 L 4.8719079,-0.69174376 q -0.00438,-0.035025 0.017512,-0.0656719 0.021891,-0.035025 0.078806,-0.035025 H 7.3980861 V 0.00437813 H 7.2185829 q 0.065672,0.13134375 0.083184,0.24955312 0.021891,0.11820938 0.021891,0.24517501 0,0.28895625 -0.1707468,0.59542504 Q 6.9865423,1.4053781 6.6362923,1.6680657 6.2904204,1.9307532 5.7606673,2.0927438 5.2309141,2.2547344 4.5085235,2.2547344 Z M -3.5428485,0 H -3.735486 v -0.79681876 h 0.1707469 q 0.2933344,0 0.4947281,-0.16636876 0.2013938,-0.17074688 0.3590063,-0.43781248 0.1576125,-0.2670657 0.3108469,-0.5647782 0.1576125,-0.3020906 0.35025,-0.5691562 0.1926375,-0.2670656 0.4640812,-0.4334344 0.2758219,-0.1707469 0.67860943,-0.1707469 0.68736563,0 1.06826251,0.4203 0.38089688,0.4159219 0.51224064,1.0376157 0.0875625,0.4290562 0.2977125,0.6567187 0.21452812,0.22766254 0.49472812,0.22766254 H 1.5795579 V 0 H 1.4613485 q -0.2802,0 -0.54726565,-0.11383125 -0.26706562,-0.11820938 -0.43343438,-0.37214063 -0.18388125,0.26706563 -0.455325,0.42905625 -0.27144376,0.15761251 -0.70487814,0.15761251 -0.43781253,0 -0.80995313,-0.18825938 Q -1.8572703,-0.2802 -2.2556797,-0.66547501 -2.5402578,-0.34587188 -2.8029453,-0.17074688 -3.0656328,0 -3.5428485,0 Z m 2.65314383,-2.3641875 q -0.21890623,0 -0.39840943,0.1488562 -0.1795031,0.1444781 -0.3239812,0.3765188 -0.1444781,0.2320406 -0.2583094,0.4815937 0.1444781,0.1488563 0.2889563,0.2670657 0.1444781,0.11820933 0.2802,0.20139371 0.35024997,0.21452813 0.61293748,0.21452813 0.64796251,0 0.64796251,-0.65234064 0,-0.455325 -0.2276625,-0.7442813 -0.22328438,-0.2933343 -0.62169376,-0.2933343 z M -5.5786767,0 h -0.7136344 v -0.79681876 h 0.7048781 q 0.4378125,0 0.5910469,-0.25393124 0.1576125,-0.2539313 0.1576125,-0.6435844 0,-0.2845781 -0.052538,-0.6085594 -0.052537,-0.3239812 -0.1138313,-0.6523406 l 0.7617938,-0.1926375 q 0.074428,0.35025 0.1182094,0.6873656 0.043781,0.3371156 0.043781,0.6435844 0,0.525375 -0.1444781,0.93691876 -0.1444781,0.41154376 -0.4728375,0.64796251 Q -5.027033,0 -5.5786767,0 Z m 0.5341312,-5.1661876 0.6348281,0.6348282 -0.6348281,0.6348281 -0.6348281,-0.6348281 z"
       id="text9"
       transform="matrix(1.3333333,0,0,1.3333333,66.2,81.684)"
       aria-label="مﺮﺧ ﯽﻤﻧ" />
    <path
       style="font-size:8.9664px;font-family:Vazirmatn"
       d="m 51.836405,-1.6768219 q 0.05254,0.3765188 0.271444,0.63045 0.223284,0.24955314 0.51224,0.24955314 h 0.11821 V 0 h -0.11821 Q 52.353024,0 52.090336,-0.11383125 51.832027,-0.2276625 51.66128,-0.49910626 51.512424,-0.21890625 51.236602,-0.07442813 50.96078,0.07005 50.531724,0.07005 q -0.25831,0 -0.525375,-0.08318438 -0.262688,-0.08318437 -0.507863,-0.18825937 -0.240797,-0.10945313 -0.442191,-0.19263751 -0.201393,-0.0831844 -0.337115,-0.0831844 -0.245175,0 -0.372141,0.16199062 -0.122587,0.15761251 -0.166369,0.53850939 -0.0394,0.38089688 -0.0394,1.05512812 0,0.2977125 0.0044,0.5297532 0.0088,0.2364187 0.02189,0.4640812 0.01751,0.2276625 0.03503,0.5166188 H 47.449524 Q 47.427633,2.3860782 47.414499,2.03145 47.401364,1.6812 47.401364,1.3221938 q 0,-0.49035004 0.02627,-0.93254067 0.03065,-0.44219063 0.135722,-0.79681876 0.109453,-0.35900626 0.337115,-0.59104689 0.227663,-0.23641878 0.626072,-0.31084688 0.245175,-0.8537344 0.639207,-1.3397063 0.398409,-0.49035 1.085775,-0.49035 0.402787,0 0.739903,0.1926375 0.337115,0.1882594 0.5604,0.5209969 0.227662,0.3283594 0.284578,0.7486594 z m -0.709256,0.3721406 q 0,-0.4509469 -0.240797,-0.7530375 -0.240797,-0.3064687 -0.617316,-0.3064687 -0.271444,0 -0.459703,0.1707468 -0.188259,0.1663688 -0.315225,0.4421907 -0.126966,0.2714437 -0.223284,0.5822906 0.477215,0.21015001 0.79244,0.33273751 0.319603,0.11820938 0.477216,0.11820938 0.288956,0 0.437812,-0.1576125 0.148857,-0.16199059 0.148857,-0.42905629 z m -7.346494,0.50786254 h 1.247766 q 0.437812,0 0.591046,-0.25393124 0.157613,-0.2539313 0.157613,-0.6435844 0,-0.2845781 -0.05254,-0.6085594 -0.05254,-0.3239812 -0.113831,-0.6523406 l 0.761794,-0.1926375 q 0.07443,0.35025 0.118209,0.6873656 0.04378,0.3371156 0.04378,0.6435844 0,0.525375 -0.144478,0.93691876 -0.144479,0.41154376 -0.472838,0.64796251 Q 45.588821,0 45.037177,0 h -1.256522 z m 1.878216,1.49294065 0.612937,0.60855941 -0.612937,0.6173156 -0.60856,-0.6173156 z m -1.453538,0 0.612938,0.60855941 -0.612938,0.6173156 -0.608559,-0.6173156 z M 43.837571,0 q -0.302091,0 -0.507863,-0.07880625 -0.201393,-0.08318438 -0.315225,-0.175125 -0.06567,0.57353438 -0.319603,1.10766564 -0.249553,0.53850941 -0.753037,0.93691881 -0.503485,0.3984093 -1.33095,0.5604 l -0.25831,-0.6917438 q 1.068263,-0.2320406 1.506075,-0.81433126 0.437813,-0.57791251 0.437813,-1.37035315 0,-0.37214063 -0.08318,-0.77930629 -0.07881,-0.4115437 -0.223285,-0.8362219 l 0.726769,-0.245175 0.236419,0.9150282 q 0.09632,0.3677625 0.306468,0.52099686 0.21015,0.15323438 0.529754,0.15323438 H 43.95578 V 0 Z m -3.9228,-2.4298594 v 0.7574156 q -0.188259,0.017512 -0.44219,0.096319 -0.253932,0.074428 -0.53851,0.21015 0.0088,0.3633844 0.35025,0.46845936 0.341494,0.10069688 0.967566,0.10069688 h 0.240797 V 0 h -0.25831 Q 39.341237,0 38.894668,-0.23641875 38.452477,-0.47283751 38.364915,-1.085775 37.498046,-0.61293751 36.683715,-0.30646876 35.873762,0 34.936843,0 h -0.731147 v -0.79681876 h 0.744281 q 0.512241,0 0.941297,-0.0919406 0.429057,-0.0919406 0.836222,-0.25393121 0.411544,-0.1619907 0.858113,-0.3808969 0.450947,-0.2232844 1.006968,-0.4772157 -0.310846,-0.1138312 -0.643584,-0.245175 -0.332737,-0.1357218 -0.634828,-0.2539312 -0.297713,-0.1182094 -0.520997,-0.1926375 -0.223284,-0.078806 -0.315225,-0.078806 -0.267066,0 -0.472837,0.1576125 -0.201394,0.1532344 -0.372141,0.3721407 l -0.118209,0.1488562 -0.669854,-0.3283594 0.06567,-0.105075 q 0.288957,-0.4684593 0.669853,-0.7486594 0.385275,-0.2845781 0.901894,-0.2845781 0.214528,0 0.516619,0.1094531 0.306469,0.1094532 0.665475,0.2758219 0.359006,0.1619907 0.744281,0.3327375 0.385275,0.1663688 0.77055,0.2845782 0.385275,0.1138312 0.735525,0.1269656 z m -6.532162,-2.7100594 0.612938,0.6085594 -0.612938,0.6173156 -0.608559,-0.6173156 z m -1.453537,0 0.612937,0.6085594 -0.612937,0.6173156 -0.60856,-0.6173156 z m -0.472838,4.34310004 h 0.897516 q 0.437812,0 0.591047,-0.25393124 0.157612,-0.2539313 0.157612,-0.6435844 0,-0.2845781 -0.05254,-0.6085594 -0.05254,-0.3239812 -0.113832,-0.6523406 l 0.761794,-0.1926375 q 0.07443,0.35025 0.118209,0.6873656 0.04378,0.3371156 0.04378,0.6435844 0,0.525375 -0.144478,0.93691876 -0.144479,0.41154376 -0.472838,0.64796251 Q 32.91415,0 32.362506,0 H 31.456234 Z M 30.868966,0 H 29.848863 Q 28.19831,0 27.366466,-0.44656876 26.539,-0.89313751 26.539,-1.9920469 q 0,-0.3020906 0.06567,-0.5910469 0.07005,-0.2889562 0.179503,-0.5560219 l 0.67861,0.2539313 q -0.07005,0.1926375 -0.11821,0.4115437 -0.04378,0.2189063 -0.04378,0.4159219 0.0044,0.5122406 0.288956,0.7880625 0.284579,0.27144378 0.849357,0.37214066 0.564778,0.10069688 1.409756,0.10069688 h 1.024481 q 0.297713,0 0.621694,-0.0175125 0.328359,-0.0175125 0.612937,-0.0963188 0.284579,-0.0788063 0.464082,-0.26268749 0.179503,-0.1882594 0.179503,-0.525375 0,-0.245175 -0.04816,-0.5822907 -0.04816,-0.3414937 -0.113832,-0.6742312 l 0.761794,-0.1926375 q 0.07881,0.3414937 0.118209,0.7092562 0.04378,0.3633844 0.04378,0.6348282 0,0.595425 -0.201394,0.95443124 -0.201394,0.35900625 -0.564778,0.5428875 -0.359006,0.18388126 -0.8406,0.24517501 Q 31.429366,0 30.868966,0 Z m -0.08318,-4.2949407 0.612937,0.6085594 -0.612937,0.6173156 -0.60856,-0.6173156 z m -1.453538,0 0.612938,0.6085594 -0.612938,0.6173156 -0.608559,-0.6173156 z m -4.903499,-1.7337375 h 0.739903 v 4.1854875 q 0,0.6173157 0.227663,0.8318438 0.227662,0.21452814 0.687365,0.21452814 H 26.19313 V 0 H 26.083676 Q 25.247455,0 24.835911,-0.44219063 24.428745,-0.88875939 24.428745,-1.8475688 Z M 21.82814,0 h -0.805575 v -0.79681876 h 0.796819 q 0.437812,0 0.591047,-0.25393124 0.157612,-0.2539313 0.157612,-0.6435844 0,-0.2845781 -0.05254,-0.6085594 -0.05254,-0.3239812 -0.113831,-0.6523406 l 0.761793,-0.1926375 q 0.07443,0.35025 0.11821,0.6873656 0.04378,0.3371156 0.04378,0.6435844 0,0.525375 -0.144478,0.93691876 -0.144478,0.41154376 -0.472838,0.64796251 Q 22.379784,0 21.82814,0 Z m 0.09632,0.66985314 0.634828,0.63482816 -0.634828,0.6348281 -0.634828,-0.6348281 z M 19.437683,-6.0286782 h 0.739903 v 4.1854875 q 0,0.6173157 0.227663,0.8318438 0.227662,0.21452814 0.687365,0.21452814 h 0.109453 V 0 H 21.092614 Q 20.256392,0 19.844849,-0.44219063 19.437683,-0.88875939 19.437683,-1.8475688 Z m -4.141704,0.4684594 0.634828,0.6348281 -0.634828,0.6348281 -0.634828,-0.6348281 z m 2.981503,3.1303594 v 0.7574156 q -0.188259,0.017512 -0.44219,0.096319 -0.253932,0.074428 -0.53851,0.21015 0.0088,0.3633844 0.35025,0.46845936 0.341494,0.10069688 0.967566,0.10069688 h 0.240797 V 0 h -0.25831 Q 17.703948,0 17.257379,-0.23641875 16.815188,-0.47283751 16.727626,-1.085775 15.860757,-0.61293751 15.046426,-0.30646876 14.236473,0 13.299554,0 h -0.731147 v -0.79681876 h 0.744281 q 0.512241,0 0.941297,-0.0919406 0.429057,-0.0919406 0.836222,-0.25393121 0.411544,-0.1619907 0.858113,-0.3808969 0.450947,-0.2232844 1.006968,-0.4772157 -0.310846,-0.1138312 -0.643584,-0.245175 -0.332737,-0.1357218 -0.634828,-0.2539312 -0.297713,-0.1182094 -0.520997,-0.1926375 -0.223284,-0.078806 -0.315225,-0.078806 -0.267066,0 -0.472837,0.1576125 -0.201394,0.1532344 -0.372141,0.3721407 l -0.118209,0.1488562 -0.669854,-0.3283594 0.06567,-0.105075 q 0.288957,-0.4684593 0.669853,-0.7486594 0.385275,-0.2845781 0.901894,-0.2845781 0.214528,0 0.516619,0.1094531 0.306469,0.1094532 0.665475,0.2758219 0.359006,0.1619907 0.744281,0.3327375 0.385275,0.1663688 0.77055,0.2845782 0.385275,0.1138312 0.735525,0.1269656 z m -6.996245,-2.3072719 0.612938,0.6085594 -0.612938,0.6173156 -0.608559,-0.6173156 z m -1.4535372,0 0.6129372,0.6085594 -0.6129372,0.6173156 -0.6085594,-0.6173156 z m -0.4728375,3.94031254 h 0.6129375 q 0.5560222,0 0.7924402,-0.24955314 0.240797,-0.2495531 0.240797,-0.7661719 0,-0.21015 -0.01313,-0.3984094 -0.0088,-0.1882593 -0.02627,-0.3765187 l 0.731147,-0.087562 0.07005,1.0244812 q 0.05254,0.85373444 0.888759,0.85373444 h 0.09194 V 0 H 12.642834 Q 12.156862,0 11.863528,-0.175125 11.574572,-0.35025001 11.395069,-0.66985314 11.15865,-0.32398126 10.773375,-0.16199063 10.3881,0 9.9677998,0 H 9.3548623 Z M 7.5116715,0 H 6.7980371 v -0.79681876 h 0.7048781 q 0.4378126,0 0.5910469,-0.25393124 0.1576125,-0.2539313 0.1576125,-0.6435844 0,-0.2845781 -0.052537,-0.6085594 -0.052537,-0.3239812 -0.1138312,-0.6523406 l 0.7617937,-0.1926375 q 0.074428,0.35025 0.1182094,0.6873656 0.043781,0.3371156 0.043781,0.6435844 0,0.525375 -0.1444782,0.93691876 Q 8.720034,-0.46845938 8.3916746,-0.23204063 8.0633153,0 7.5116715,0 Z M 8.0458028,-5.1661876 8.6806309,-4.5313594 8.0458028,-3.8965313 7.4109746,-4.5313594 Z M 6.2157465,-6.0286782 v 6.02430007 H 5.4758434 V -6.0286782 Z"
       id="text10"
       transform="matrix(1.3333333,0,0,1.3333333,33.398667,110.34267)"
       aria-label="ﻢﯾﺮﺤﺗتﺎﺑﺎﺨﺘﻧا" />
    <path
       style="font-size:8.9664px;font-family:Vazirmatn"
       d="m 21.371695,-0.79681876 h 1.247765 q 0.437813,0 0.591047,-0.25393124 0.157613,-0.2539313 0.157613,-0.6435844 0,-0.2845781 -0.05254,-0.6085594 -0.05254,-0.3239812 -0.113831,-0.6523406 l 0.761794,-0.1926375 q 0.07443,0.35025 0.118209,0.6873656 0.04378,0.3371156 0.04378,0.6435844 0,0.525375 -0.144478,0.93691876 -0.144478,0.41154376 -0.472837,0.64796251 Q 23.17986,0 22.628217,0 H 21.371695 Z M 23.24991,0.69612189 23.862848,1.3046813 23.24991,1.9219969 22.641351,1.3046813 Z m -1.453537,0 0.612937,0.60855941 -0.612937,0.6173156 -0.60856,-0.6173156 z M 21.428611,0 q -0.302091,0 -0.507863,-0.07880625 -0.201394,-0.08318438 -0.315225,-0.175125 -0.06567,0.57353438 -0.319603,1.10766564 -0.249553,0.53850941 -0.753038,0.93691881 -0.503484,0.3984093 -1.33095,0.5604 L 17.943623,1.6593094 q 1.068263,-0.2320406 1.506075,-0.81433126 0.437813,-0.57791251 0.437813,-1.37035315 0,-0.37214063 -0.08319,-0.77930629 -0.07881,-0.4115437 -0.223284,-0.8362219 l 0.726769,-0.245175 0.236418,0.9150282 q 0.09632,0.3677625 0.306469,0.52099686 0.21015,0.15323438 0.529753,0.15323438 H 21.54682 V 0 Z m -5.109272,-6.0286782 h 0.739903 v 4.1854875 q 0,0.6173157 0.227662,0.8318438 0.227663,0.21452814 0.687366,0.21452814 h 0.109453 V 0 H 17.97427 Q 17.138048,0 16.726504,-0.44219063 16.319339,-0.88875939 16.319339,-1.8475688 Z m -3.686381,1.7818969 q 0.380897,0.2670656 0.79244,0.5647781 0.411544,0.2933344 0.766172,0.63045 0.359007,0.3327375 0.577913,0.7136344 0.223284,0.3765188 0.223284,0.805575 -0.0044,0.81433129 -0.564778,1.17333754 Q 13.871967,0 12.65047,0 h -1.068262 v -0.79681876 h 1.063884 q 0.849356,0 1.217119,-0.14885626 0.367762,-0.15323438 0.367762,-0.60418128 0,-0.2889562 -0.205771,-0.5647781 -0.201394,-0.2758219 -0.525375,-0.5428875 -0.319604,-0.2714438 -0.687366,-0.5297532 -0.367763,-0.2626875 -0.691744,-0.5166187 -0.1401,-0.1138313 -0.214528,-0.2670656 -0.07443,-0.1532344 -0.07443,-0.3064688 0,-0.1795031 0.09632,-0.3371156 0.100696,-0.1619907 0.310847,-0.245175 l 3.147871,-1.2784126 v 0.7749282 z m -2.8743626,2.6531438 q 0,-0.1138313 -0.052538,-0.2933344 -0.048159,-0.1838813 -0.1182094,-0.3414938 l -0.7749282,-1.7556281 0.6829876,-0.3196031 0.9938341,2.3379187 q 0.201394,0.4728376 0.35025,0.7267688 0.153235,0.25393126 0.297713,0.35025001 0.148856,0.0919406 0.337115,0.0919406 h 0.183882 V 0 H 11.47482 q -0.345871,0 -0.564778,-0.08318438 -0.214528,-0.08318437 -0.37214,-0.24955313 -0.157613,-0.16636875 -0.319604,-0.4203 -0.3064683,0.385275 -0.7836839,0.56915626 -0.4728375,0.17950312 -1.1820938,0.17950312 -0.3064687,0 -0.5516437,-0.02626875 -0.245175,-0.03064687 -0.4640813,-0.08318437 v -0.79244064 q 0.5034844,0.11820938 0.9500532,0.11820938 1.5717469,0 1.5717469,-0.80557499 z m -4.6495683,-0.9938344 0.7311469,-0.087562 0.07005,1.0244812 q 0.052537,0.85373444 0.8887594,0.85373444 H 6.890924 V 0 H 6.7902271 Q 6.3042552,0 6.0109209,-0.175125 5.7219646,-0.35025001 5.5424615,-0.66985314 5.3060427,-0.32398126 4.9207677,-0.16199063 4.5354927,0 4.1151927,0 h -0.4203 v -0.79681876 h 0.4203 q 0.5560219,0 0.7924406,-0.24955314 0.2407969,-0.2495531 0.2407969,-0.7661719 0,-0.21015 -0.013134,-0.3984094 -0.00876,-0.1882593 -0.026269,-0.3765187 z m 0.083184,-2.1803063 0.6348281,0.6348281 -0.6348281,0.6348282 -0.6348282,-0.6348282 z m -4.42628471,0.5209969 q 0.38089691,0.2670656 0.79244061,0.5647781 0.4115438,0.2933344 0.7661719,0.63045 0.3590063,0.3327375 0.5779125,0.7136344 0.2232844,0.3765188 0.2232844,0.805575 -0.00438,0.81433129 -0.5647781,1.17333754 Q 2.0049362,0 0.78343929,0 h -1.06826251 v -0.79681876 h 1.06388439 q 0.84935623,0 1.21711873,-0.14885626 0.3677625,-0.15323438 0.3677625,-0.60418128 0,-0.2889562 -0.2057718,-0.5647781 -0.2013938,-0.2758219 -0.525375,-0.5428875 -0.3196032,-0.2714438 -0.68736568,-0.5297532 -0.3677625,-0.2626875 -0.69174376,-0.5166187 -0.1401,-0.1138313 -0.21452813,-0.2670656 -0.07442812,-0.1532344 -0.07442812,-0.3064688 0,-0.1795031 0.09631875,-0.3371156 0.10069687,-0.1619907 0.31084688,-0.245175 L 3.5197675,-6.1381314 v 0.7749282 z"
       id="text11"
       transform="matrix(1.3333333,0,0,1.3333333,66.678667,139.052)"
       aria-label="یرﺎﮐﺪﻨﮐ" />
    <path
       style="font-size:8.9664px;font-family:Vazirmatn"
       d="m 49.463073,-1.3090594 q 0.245175,-0.8537344 0.639207,-1.3397063 0.398409,-0.49035 1.085775,-0.49035 0.464081,0 0.827465,0.2364188 0.363385,0.2364187 0.573535,0.6523406 0.214528,0.4115438 0.214528,0.9500532 0,0.59104684 -0.32836,0.98069997 Q 52.151242,0.07005 51.468255,0.07005 q -0.25831,0 -0.525375,-0.08318438 -0.262688,-0.08318437 -0.507863,-0.18825937 -0.240797,-0.10945313 -0.44219,-0.19263751 -0.201394,-0.0831844 -0.337116,-0.0831844 -0.245175,0 -0.372141,0.16199062 -0.122587,0.15761251 -0.166368,0.53850939 -0.0394,0.38089688 -0.0394,1.05512812 0,0.2977125 0.0044,0.5297532 0.0088,0.2364187 0.02189,0.4640812 0.01751,0.2276625 0.03502,0.5166188 H 48.386055 Q 48.364164,2.3860782 48.35103,2.03145 48.337895,1.6812 48.337895,1.3221938 q 0,-0.49035004 0.02627,-0.93254067 0.03065,-0.44219063 0.135722,-0.79681876 0.109453,-0.35900626 0.337116,-0.59104689 0.227662,-0.23641878 0.626071,-0.31084688 z m 2.600607,0.00438 q 0,-0.4509469 -0.240797,-0.7530375 -0.240797,-0.3064687 -0.617316,-0.3064687 -0.271444,0 -0.459703,0.1707468 -0.188259,0.1663688 -0.315225,0.4421907 -0.126966,0.2714437 -0.223284,0.5822906 0.477215,0.21015001 0.79244,0.33273751 0.319603,0.11820938 0.477216,0.11820938 0.293334,0 0.437812,-0.1576125 0.148857,-0.16199059 0.148857,-0.42905629 z m -5.836038,-4.7239969 h 0.739903 v 4.1854875 q 0,0.6173157 0.227663,0.8318438 0.227662,0.21452814 0.687365,0.21452814 h 0.109453 V 0 H 47.882573 Q 47.046351,0 46.634808,-0.44219063 46.227642,-0.88875939 46.227642,-1.8475688 Z m -4.019121,5.23185944 h 0.661097 q 0.556022,0 0.792441,-0.24955314 0.240797,-0.2495531 0.240797,-0.7661719 0,-0.21015 -0.01313,-0.3984094 -0.0088,-0.1882593 -0.02627,-0.3765187 l 0.731147,-0.087562 0.07005,1.0244812 q 0.05254,0.85373444 0.888759,0.85373444 h 0.09194 V 0 H 45.544653 Q 45.058681,0 44.765346,-0.175125 44.47639,-0.35025001 44.296887,-0.66985314 44.060468,-0.32398126 43.675193,-0.16199063 43.289918,0 42.869618,0 h -0.661097 z m 1.580503,1.49294065 0.612938,0.60855941 -0.612938,0.6173156 -0.608559,-0.6173156 z m -1.453537,0 0.612937,0.60855941 -0.612937,0.6173156 -0.608559,-0.6173156 z m -2.920209,-1.49294065 h 0.950053 q 0.437813,0 0.591047,-0.25393124 0.157612,-0.2539313 0.157612,-0.6435844 0,-0.2845781 -0.05254,-0.6085594 -0.05254,-0.3239812 -0.113831,-0.6523406 l 0.761793,-0.1926375 q 0.07443,0.35025 0.11821,0.6873656 0.04378,0.3371156 0.04378,0.6435844 0,0.525375 -0.144478,0.93691876 Q 41.58245,-0.46845938 41.25409,-0.23204063 40.925731,0 40.374087,0 h -0.958809 z m 1.584881,1.34846252 0.591047,0.59104684 -0.591047,0.5910469 -0.591047,-0.5910469 z m -1.497319,0 L 40.093887,1.1426906 39.50284,1.7337375 38.911794,1.1426906 Z M 40.2515,1.6593094 40.842547,2.2503563 40.2515,2.8414032 39.660453,2.2503563 Z M 41.848919,0 q -0.643584,0 -1.00259,-0.30209063 -0.354629,-0.30209063 -0.459704,-0.83184377 -0.253931,0.25393126 -0.551643,0.38965314 -0.293335,0.13572188 -0.661097,0.13572188 -0.626072,0 -1.05075,-0.33711564 -0.424678,-0.33711558 -0.424678,-0.93254068 0,-0.6742312 0.551643,-1.1645812 0.551644,-0.4947282 1.733738,-0.8581125 l -0.03065,-0.21015 0.7005,-0.1401 0.380897,2.6881687 q 0.05254,0.3852751 0.249553,0.57791256 0.201394,0.18825938 0.582291,0.18825938 h 0.135722 V 0 Z M 40.2115,-2.2021969 q 0,-0.1357219 -0.01751,-0.2583094 l -0.109453,-0.7311469 q -0.849356,0.3064688 -1.23901,0.6041813 -0.385275,0.2977125 -0.385275,0.6523406 0,0.2889563 0.197016,0.4378125 0.197016,0.1488563 0.534131,0.1488563 0.25831,0 0.49035,-0.1006969 0.236419,-0.1006969 0.380897,-0.2933344 Q 40.2115,-1.9351313 40.2115,-2.2021969 Z M 35.33427,0 h -0.805575 v -0.79681876 h 0.796819 q 0.437813,0 0.591047,-0.25393124 0.157613,-0.2539313 0.157613,-0.6435844 0,-0.2845781 -0.05254,-0.6085594 -0.05254,-0.3239812 -0.113831,-0.6523406 l 0.761794,-0.1926375 q 0.07443,0.35025 0.118209,0.6873656 0.04378,0.3371156 0.04378,0.6435844 0,0.525375 -0.144478,0.93691876 -0.144478,0.41154376 -0.472837,0.64796251 Q 35.885914,0 35.33427,0 Z m 0.09632,0.66985314 0.634828,0.63482816 -0.634828,0.6348281 -0.634828,-0.6348281 z m -1.502083,-4.38688134 0.634828,0.6348281 -0.634828,0.6348282 -0.634828,-0.6348282 z m 0.05254,4.864097 q 0.731147,0 1.129556,-0.24079691 Q 35.513388,0.66985314 35.671,0.2802 q 0.161991,-0.385275 0.161991,-0.82746563 0,-0.52099687 -0.1401,-1.02885937 -0.1401,-0.5078625 -0.262688,-0.8318438 l 0.74866,-0.3020906 q 0.205772,0.5647781 0.310847,1.0989094 0.109453,0.5297531 0.109453,1.01134687 0,0.73990313 -0.275822,1.31343752 -0.271444,0.57353441 -0.849356,0.89751561 -0.577913,0.3239813 -1.492941,0.3239813 -0.945675,0 -1.514831,-0.3458719 -0.564779,-0.3458719 -0.81871,-0.92378439 -0.249553,-0.57353438 -0.249553,-1.26090002 0,-0.46408129 0.09632,-0.95005319 0.09632,-0.49035 0.262687,-0.9544312 l 0.696122,0.2802 q -0.126965,0.4027875 -0.214528,0.8274656 -0.08756,0.42467816 -0.08756,0.82308754 0,0.47283751 0.166368,0.86249064 0.170747,0.38965313 0.569157,0.62169376 0.398409,0.23204066 1.094531,0.23204066 z m -4.693349,-7.175747 h 0.739903 v 4.1854875 q 0,0.6173157 0.227662,0.8318438 0.227663,0.21452814 0.687366,0.21452814 h 0.109453 V 0 H 30.942626 Q 30.106404,0 29.69486,-0.44219063 29.287695,-0.88875939 29.287695,-1.8475688 Z m -4.019119,5.23185944 h 0.661097 q 0.556022,0 0.792441,-0.24955314 0.240797,-0.2495531 0.240797,-0.7661719 0,-0.21015 -0.01313,-0.3984094 -0.0088,-0.1882593 -0.02627,-0.3765187 l 0.731147,-0.087562 0.07005,1.0244812 q 0.05254,0.85373444 0.88876,0.85373444 h 0.09194 V 0 H 28.604707 Q 28.118736,0 27.825401,-0.175125 27.536445,-0.35025001 27.356942,-0.66985314 27.120523,-0.32398126 26.735248,-0.16199063 26.349973,0 25.929673,0 H 25.268576 Z M 26.849079,0.69612189 27.462017,1.3046813 26.849079,1.9219969 26.24052,1.3046813 Z m -1.453537,0 0.612937,0.60855941 -0.612937,0.6173156 -0.60856,-0.6173156 z M 23.552351,0.10069688 q -0.437812,0 -0.809953,-0.18825938 Q 22.374636,-0.2802 21.976226,-0.66547501 21.691648,-0.34587188 21.428961,-0.17074688 21.166273,0 20.689057,0 H 20.49642 v -0.79681876 h 0.170747 q 0.293334,0 0.494728,-0.16636876 0.201394,-0.17074688 0.359006,-0.43781248 0.157613,-0.2670657 0.310847,-0.5647782 0.157613,-0.3020906 0.35025,-0.5691562 0.192638,-0.2670656 0.464081,-0.4334344 0.275822,-0.1707469 0.67861,-0.1707469 0.485972,0 0.844978,0.2364188 0.363384,0.2320406 0.5604,0.6260719 0.201394,0.3940312 0.201394,0.8800031 0,0.71363439 -0.363385,1.10766565 -0.359006,0.38965313 -1.015725,0.38965313 z m -0.21015,-2.46488438 q -0.218906,0 -0.398409,0.1488562 -0.179503,0.1444781 -0.323981,0.3765188 -0.144479,0.2320406 -0.25831,0.4815937 0.262688,0.2758219 0.542888,0.45094691 0.359006,0.23204063 0.639206,0.23204063 0.647963,0 0.647963,-0.65234064 0,-0.455325 -0.227663,-0.7442813 -0.223284,-0.2933343 -0.621694,-0.2933343 z M 18.90716,-6.0286782 h 0.739903 v 4.1854875 q 0,0.6173157 0.227662,0.8318438 0.227663,0.21452814 0.687366,0.21452814 h 0.109453 V 0 H 20.562091 Q 19.725869,0 19.314325,-0.44219063 18.90716,-0.88875939 18.90716,-1.8475688 Z m -3.069064,0.3677625 0.634828,0.6348281 -0.634828,0.6348282 -0.634828,-0.6348282 z m 0.06129,2.1321469 q 0.494728,0 0.875625,0.2189062 0.385275,0.2145282 0.604181,0.5866688 0.218907,0.3721406 0.218907,0.8406 -0.0044,0.5604 -0.341494,1.00259066 0.122587,0.0306469 0.328359,0.0569156 0.21015,0.0262688 0.60856,0.0262688 h 0.131343 V 0 H 18.197906 Q 17.641884,0 17.278499,-0.11383125 16.919493,-0.2276625 16.674318,-0.42905626 16.315312,-0.2276625 15.728643,-0.11383125 15.141974,0 14.367046,0 h -2.267869 v -0.79681876 h 0.744282 q 0.08318,-0.14010001 0.175125,-0.27582184 0.09194,-0.1401 0.175125,-0.2758219 v -4.6802157 h 0.739903 v 3.6382219 q 0.472837,-0.5691562 0.950053,-0.8537344 0.481594,-0.2845781 1.015725,-0.2845781 z m 0.01751,0.7968188 q -1.05075,0 -2.276625,1.93513124 h 0.709257 q 1.247765,0 1.860703,-0.24955314 0.612937,-0.2495531 0.612937,-0.7924406 0,-0.385275 -0.249553,-0.6392063 Q 16.324068,-2.73195 15.916902,-2.73195 Z M 10.255986,0 H 9.5423518 V -0.79681876 H 10.24723 q 0.437812,0 0.591047,-0.25393124 0.157612,-0.2539313 0.157612,-0.6435844 0,-0.2845781 -0.05254,-0.6085594 -0.05254,-0.3239812 -0.113831,-0.6523406 l 0.761793,-0.1926375 q 0.07443,0.35025 0.11821,0.6873656 0.04378,0.3371156 0.04378,0.6435844 0,0.525375 -0.144478,0.93691876 -0.144478,0.41154376 -0.472838,0.64796251 Q 10.80763,0 10.255986,0 Z m 0.534131,-5.1661876 0.634829,0.6348282 -0.634829,0.6348281 -0.634828,-0.6348281 z"
       id="text12"
       transform="matrix(1.3333333,0,0,1.3333333,31.805333,167.00133)"
       aria-label="مﺎﯿﭘﻪﺑنﺎﯿﻣﺎﻈﻧ" />
    <path
       style="font-size:8.9664px;font-family:Vazirmatn"
       d="M 47.291912,0.66985314 47.92674,1.3046813 47.291912,1.9395094 46.657083,1.3046813 Z M 47.992412,0 h -1.020104 q -1.650553,0 -2.482396,-0.44656876 -0.827466,-0.44656875 -0.827466,-1.54547814 0,-0.3020906 0.06567,-0.5910469 0.07005,-0.2889562 0.179503,-0.5560219 l 0.678609,0.2539313 q -0.07005,0.1926375 -0.118209,0.4115437 -0.04378,0.2189063 -0.04378,0.4159219 0.0044,0.5122406 0.288956,0.7880625 0.284578,0.27144378 0.849356,0.37214066 0.564778,0.10069688 1.409756,0.10069688 h 1.024482 q 0.297712,0 0.621693,-0.0175125 0.32836,-0.0175125 0.612938,-0.0963188 0.284578,-0.0788063 0.464081,-0.26268749 0.179503,-0.1882594 0.179503,-0.525375 0,-0.245175 -0.04816,-0.5822907 -0.04816,-0.3414937 -0.113831,-0.6742312 l 0.761794,-0.1926375 q 0.07881,0.3414937 0.118209,0.7092562 0.04378,0.3633844 0.04378,0.6348282 0,0.595425 -0.201394,0.95443124 -0.201393,0.35900625 -0.564778,0.5428875 -0.359006,0.18388126 -0.8406,0.24517501 Q 48.552812,0 47.992412,0 Z m -6.440223,-6.0286782 h 0.739903 v 4.1854875 q 0,0.6173157 0.227662,0.8318438 0.227663,0.21452814 0.687366,0.21452814 h 0.109453 V 0 H 43.20712 Q 42.370898,0 41.959354,-0.44219063 41.552189,-0.88875939 41.552189,-1.8475688 Z M 37.012074,0 h -0.23204 Q 35.851871,0 35.365899,-0.175125 34.879927,-0.35025001 34.678534,-0.66547501 34.424602,-0.31960313 34.104999,-0.1576125 33.789774,0 33.264399,0 h -0.179503 l 0.0044,-0.79681876 h 0.175125 q 0.612938,0 0.823088,-0.25830934 0.214528,-0.2626875 0.214528,-0.7574157 0,-0.21015 -0.01751,-0.3896531 -0.01313,-0.1795031 -0.02189,-0.385275 l 0.731147,-0.087562 0.06567,1.0244812 q 0.02189,0.2933344 0.122587,0.5078626 0.100697,0.21014996 0.310847,0.21014996 0.783684,-1.33095006 1.532344,-1.96140006 0.753037,-0.6348281 1.506075,-0.6348281 0.499106,0 0.884381,0.2189062 0.389653,0.2145282 0.608559,0.5866688 0.218907,0.3721406 0.218907,0.8406 -0.0044,0.5647782 -0.337116,1.00259066 0.126966,0.0306469 0.328359,0.0569156 0.205772,0.0262688 0.604182,0.0262688 h 0.131343 V 0 H 40.842934 Q 40.286912,0 39.923528,-0.11383125 39.564521,-0.2276625 39.319346,-0.42905626 38.96034,-0.2276625 38.373671,-0.11383125 37.787002,0 37.012074,0 Z m 1.554235,-2.73195 q -1.055128,0 -2.281003,1.93513124 h 0.709256 q 1.247765,0 1.860703,-0.24955314 0.612938,-0.2495531 0.612938,-0.7924406 0,-0.385275 -0.249554,-0.6392063 Q 38.973474,-2.73195 38.566309,-2.73195 Z m -6.768581,-2.0051813 0.612938,0.6085594 -0.612938,0.6173156 -0.608559,-0.6173156 z m -1.453537,0 0.612937,0.6085594 -0.612937,0.6173156 -0.60856,-0.6173156 z m -0.472838,3.94031254 h 0.612938 q 0.556022,0 0.79244,-0.24955314 0.240797,-0.2495531 0.240797,-0.7661719 0,-0.21015 -0.01313,-0.3984094 -0.0088,-0.1882593 -0.02627,-0.3765187 l 0.731147,-0.087562 0.07005,1.0244812 q 0.05254,0.85373444 0.888759,0.85373444 h 0.09194 V 0 h -0.100697 q -0.485972,0 -0.779306,-0.175125 -0.288956,-0.17512501 -0.46846,-0.49472814 -0.236418,0.34587188 -0.621693,0.50786251 Q 30.904591,0 30.484291,0 h -0.612938 z m -3.331756,0 Q 26.342582,-1.0419938 26.202482,-1.3966219 26.06676,-1.7556282 26.06676,-2.1146344 q 0,-0.4684594 0.245175,-0.8493563 0.245175,-0.3808969 0.643584,-0.6041812 0.398409,-0.2232844 0.858113,-0.2232844 0.696122,0 1.49294,0.5428875 l -0.293334,0.6523406 q -0.682988,-0.4027875 -1.151447,-0.4027875 -0.402788,0 -0.713634,0.2495532 -0.310847,0.2495531 -0.310847,0.665475 0,0.3239812 0.144478,0.5735344 0.148856,0.2495531 0.315225,0.3896531 0.166369,0.13572186 0.223284,0.13572186 0.07881,0 0.153235,-0.0218907 l 1.851947,-0.4421906 v 0.79681876 Q 28.435325,-0.31960313 27.507163,-0.1576125 26.583378,0 25.672728,0 H 25.195513 V -0.79681876 Z M 24.613225,-6.0286782 v 6.02430007 H 23.873321 V -6.0286782 Z m -1.808763,8.2834126 q -0.945675,0 -1.514832,-0.3458719 -0.564778,-0.3458718 -0.818709,-0.92378436 -0.249553,-0.57353438 -0.249553,-1.26090002 0,-0.2977125 0.04378,-0.68736564 0.04816,-0.38965308 0.214528,-0.88875938 l 0.696122,0.2583094 q -0.126966,0.4378125 -0.166369,0.77492811 -0.03502,0.33711563 -0.03502,0.56915626 0,0.47283751 0.166369,0.86249064 0.166369,0.38965309 0.564778,0.62169379 0.402788,0.2320406 1.09891,0.2320406 0.656718,0 1.125178,-0.1619906 0.472837,-0.1619907 0.72239,-0.38527503 0.253932,-0.22328438 0.253932,-0.40716564 0,-0.21015 -0.183882,-0.35900625 -0.179503,-0.14885625 -0.586668,-0.14885625 h -0.647963 q -0.08756,0 -0.126966,-0.07442813 -0.0394,-0.07880625 -0.07443,-0.20139375 l -0.118209,-0.42030001 q -0.0044,-0.035025 0.01751,-0.0656719 0.02189,-0.035025 0.07881,-0.035025 h 2.429859 v 0.79681877 h -0.179503 q 0.06567,0.13134375 0.08318,0.24955312 0.02189,0.11820938 0.02189,0.24517501 0,0.28895625 -0.170747,0.59542504 -0.166369,0.3108468 -0.516619,0.5735344 -0.345872,0.2626875 -0.875625,0.4246781 -0.529753,0.1619906 -1.252143,0.1619906 z m -5.148674,-7.8587345 0.634828,0.6348281 -0.634828,0.6348282 -0.634828,-0.6348282 z m 1.584882,3.5419032 q 0,0.3458719 -0.153235,0.6435844 -0.153234,0.2933344 -0.4203,0.60418124 0.249553,0.0131344 0.442191,0.0175125 0.192637,0 0.341494,0 h 0.424678 V 0 h -0.411544 q -0.166369,0 -0.459703,-0.02626875 -0.288956,-0.03064688 -0.639206,-0.10069688 -0.345872,-0.07005 -0.682988,-0.18825938 -0.337116,0.12258751 -0.691744,0.19263751 -0.354628,0.06567187 -0.656718,0.09631875 Q 16.031504,0 15.852001,0 h -0.612938 v -0.79681876 h 0.612938 q 0.183881,0 0.380897,0 0.201393,-0.004378 0.485972,-0.0218906 -0.262688,-0.30646871 -0.411544,-0.60855941 -0.148856,-0.3020906 -0.148856,-0.6435844 0,-0.2714437 0.126965,-0.5472656 0.126966,-0.2758219 0.341494,-0.5122406 0.214528,-0.2364188 0.49035,-0.3765188 0.275822,-0.1444781 0.569156,-0.1444781 0.306469,0 0.586669,0.1444781 0.2802,0.1401 0.494728,0.3765188 0.218906,0.2320406 0.345872,0.5122406 0.126966,0.2802 0.126966,0.5560219 z m -1.554235,-0.8143313 q -0.166369,0 -0.35025,0.1269657 -0.179503,0.1225875 -0.306469,0.3108468 -0.122587,0.1882594 -0.122587,0.385275 0,0.2013938 0.118209,0.4115438 0.11821,0.21015 0.297713,0.385275 0.183881,0.175125 0.37214,0.27144376 0.332738,-0.14009996 0.564779,-0.45094686 0.236418,-0.315225 0.236418,-0.6260719 0,-0.1838813 -0.131343,-0.3721406 -0.126966,-0.1882594 -0.315225,-0.315225 -0.18826,-0.1269657 -0.363385,-0.1269657 z m -4.054145,0.2889563 0.731147,-0.087562 0.07005,1.0244812 q 0.05254,0.85373444 0.88876,0.85373444 h 0.09194 V 0 H 15.31349 Q 14.827518,0 14.534184,-0.175125 14.245228,-0.35025001 14.065725,-0.66985314 13.829306,-0.32398126 13.444031,-0.16199063 13.058756,0 12.638456,0 h -0.4203 v -0.79681876 h 0.4203 q 0.556022,0 0.792441,-0.24955314 0.240796,-0.2495531 0.240796,-0.7661719 0,-0.21015 -0.01313,-0.3984094 -0.0088,-0.1882593 -0.02627,-0.3765187 z m 0.08319,-2.1803063 0.634828,0.6348281 -0.634828,0.6348282 -0.634828,-0.6348282 z m -6.5890785,3.83523756 q 0.7793063,-1.33095006 1.5323438,-1.96140006 0.7530375,-0.6348281 1.5060747,-0.6348281 0.499107,0 0.884382,0.2189062 0.389653,0.2145282 0.608559,0.5866688 0.218906,0.3721406 0.218906,0.8406 -0.0044,0.95880941 -0.805575,1.42289067 Q 10.26989,0 8.6456059,0 H 8.4135653 Q 7.4854028,0 6.9994309,-0.175125 6.513459,-0.35025001 6.3120652,-0.66547501 6.058134,-0.31960313 5.7385309,-0.1576125 5.4233059,0 4.8979308,0 H 4.7184277 l 0.00438,-0.79681876 h 0.175125 q 0.6129376,0 0.8230876,-0.25830934 0.2145281,-0.2626875 0.2145281,-0.7574157 0,-0.21015 -0.017513,-0.3896531 -0.013134,-0.1795031 -0.021891,-0.385275 l 0.7311468,-0.087562 0.065672,1.0244812 q 0.021891,0.2933344 0.1225875,0.5078626 0.1006969,0.21014996 0.3108469,0.21014996 z M 10.19984,-2.73195 q -1.0551278,0 -2.2810029,1.93513124 h 0.7092563 q 1.2477657,0 1.8607036,-0.24955314 0.612937,-0.2495531 0.612937,-0.7924406 0,-0.385275 -0.249553,-0.6392063 Q 10.607006,-2.73195 10.19984,-2.73195 Z"
       id="text13"
       transform="matrix(1.3333333,0,0,1.3333333,35.097333,195.74)"
       aria-label="بﺎﺼﺘﻋاﯽﻔﻨﺻ" />
    <path
       style="font-size:8.9664px;font-family:Vazirmatn"
       d="M 38.486557,0.66985314 39.121385,1.3046813 38.486557,1.9395094 37.851728,1.3046813 Z M 39.187057,0 H 38.166953 Q 36.5164,0 35.684556,-0.44656876 34.857091,-0.89313751 34.857091,-1.9920469 q 0,-0.3020906 0.06567,-0.5910469 0.07005,-0.2889562 0.179503,-0.5560219 l 0.678609,0.2539313 q -0.07005,0.1926375 -0.118209,0.4115437 -0.04378,0.2189063 -0.04378,0.4159219 0.0044,0.5122406 0.288956,0.7880625 0.284578,0.27144378 0.849356,0.37214066 0.564778,0.10069688 1.409756,0.10069688 h 1.024482 q 0.297712,0 0.621693,-0.0175125 0.32836,-0.0175125 0.612938,-0.0963188 0.284578,-0.0788063 0.464081,-0.26268749 0.179503,-0.1882594 0.179503,-0.525375 0,-0.245175 -0.04816,-0.5822907 -0.04816,-0.3414937 -0.113831,-0.6742312 l 0.761793,-0.1926375 q 0.07881,0.3414937 0.11821,0.7092562 0.04378,0.3633844 0.04378,0.6348282 0,0.595425 -0.201394,0.95443124 -0.201393,0.35900625 -0.564778,0.5428875 -0.359006,0.18388126 -0.8406,0.24517501 Q 39.747457,0 39.187057,0 Z m -6.440223,-6.0286782 h 0.739903 v 4.1854875 q 0,0.6173157 0.227662,0.8318438 0.227663,0.21452814 0.687366,0.21452814 h 0.109453 V 0 H 34.401765 Q 33.565543,0 33.153999,-0.44219063 32.746834,-0.88875939 32.746834,-1.8475688 Z M 28.206717,0 h -0.23204 Q 27.046514,0 26.560542,-0.175125 26.07457,-0.35025001 25.873177,-0.66547501 25.619245,-0.31960313 25.299642,-0.1576125 24.984417,0 24.459042,0 h -0.179503 l 0.0044,-0.79681876 h 0.175125 q 0.612938,0 0.823088,-0.25830934 0.214528,-0.2626875 0.214528,-0.7574157 0,-0.21015 -0.01751,-0.3896531 -0.01313,-0.1795031 -0.02189,-0.385275 l 0.731147,-0.087562 0.06567,1.0244812 q 0.02189,0.2933344 0.122587,0.5078626 0.100697,0.21014996 0.310847,0.21014996 0.783684,-1.33095006 1.532344,-1.96140006 0.753037,-0.6348281 1.506075,-0.6348281 0.499106,0 0.884381,0.2189062 0.389653,0.2145282 0.608559,0.5866688 0.218907,0.3721406 0.218907,0.8406 -0.0044,0.5647782 -0.337116,1.00259066 0.126966,0.0306469 0.328359,0.0569156 0.205772,0.0262688 0.604182,0.0262688 h 0.131343 V 0 H 32.037577 Q 31.481555,0 31.118171,-0.11383125 30.759164,-0.2276625 30.513989,-0.42905626 30.154983,-0.2276625 29.568314,-0.11383125 28.981645,0 28.206717,0 Z m 1.554235,-2.73195 q -1.055128,0 -2.281003,1.93513124 h 0.709256 q 1.247766,0 1.860703,-0.24955314 0.612938,-0.2495531 0.612938,-0.7924406 0,-0.385275 -0.249554,-0.6392063 Q 30.168117,-2.73195 29.760952,-2.73195 Z m -6.768579,-2.0051813 0.612938,0.6085594 -0.612938,0.6173156 -0.608559,-0.6173156 z m -1.453537,0 0.612937,0.6085594 -0.612937,0.6173156 -0.60856,-0.6173156 z m -0.472838,3.94031254 h 0.612938 q 0.556022,0 0.79244,-0.24955314 0.240797,-0.2495531 0.240797,-0.7661719 0,-0.21015 -0.01313,-0.3984094 -0.0088,-0.1882593 -0.02627,-0.3765187 l 0.731147,-0.087562 0.07005,1.0244812 q 0.05254,0.85373444 0.888759,0.85373444 h 0.09194 V 0 H 24.35397 q -0.485972,0 -0.779306,-0.175125 -0.288956,-0.17512501 -0.46846,-0.49472814 -0.236418,0.34587188 -0.621693,0.50786251 Q 22.099236,0 21.678936,0 h -0.612938 z m -3.331756,0 q -0.197015,-0.24517504 -0.337115,-0.59980314 -0.135722,-0.3590063 -0.135722,-0.7180125 0,-0.4684594 0.245175,-0.8493563 0.245175,-0.3808969 0.643584,-0.6041812 0.398409,-0.2232844 0.858113,-0.2232844 0.696121,0 1.49294,0.5428875 l -0.293334,0.6523406 q -0.682988,-0.4027875 -1.151447,-0.4027875 -0.402788,0 -0.713634,0.2495532 -0.310847,0.2495531 -0.310847,0.665475 0,0.3239812 0.144478,0.5735344 0.148856,0.2495531 0.315225,0.3896531 0.166369,0.13572186 0.223284,0.13572186 0.07881,0 0.153235,-0.0218907 l 1.851946,-0.4421906 v 0.79681876 Q 19.62997,-0.31960313 18.701808,-0.1576125 17.778023,0 16.867373,0 H 16.390158 V -0.79681876 Z M 15.807869,-6.0286782 v 6.02430007 H 15.067965 V -6.0286782 Z M 13.937813,2.3554313 13.679504,1.6593094 q 1.068262,-0.2320406 1.506075,-0.81433126 0.437812,-0.57791251 0.437812,-1.37035315 0,-0.37214063 -0.08318,-0.77930629 -0.07881,-0.4115437 -0.223284,-0.8362219 l 0.726768,-0.245175 q 0.315225,0.8975157 0.315225,1.72935944 0,0.73114689 -0.258309,1.35284065 -0.253931,0.62607191 -0.792441,1.05950631 -0.534131,0.4378125 -1.370353,0.5998031 z m -0.262687,-8.3841095 v 6.02430007 H 12.935223 V -6.0286782 Z m -3.271405,1.5235875 0.634828,0.6348281 -0.634828,0.6348282 -0.6348282,-0.6348282 z M 8.8013272,2.3554313 8.5430178,1.6593094 q 1.0682625,-0.2320406 1.5060752,-0.81433126 0.437812,-0.57791251 0.437812,-1.37035315 0,-0.37214063 -0.08318,-0.77930629 -0.07881,-0.4115437 -0.223284,-0.8362219 l 0.726768,-0.245175 q 0.315225,0.8975157 0.315225,1.72935944 0,0.73114689 -0.258309,1.35284065 Q 10.71019,1.3221938 10.17168,1.7556282 9.6375491,2.1934407 8.8013272,2.3554313 Z M 6.9187335,-6.0286782 h 0.7399032 v 4.1854875 q 0,0.6173157 0.2276625,0.8318438 0.2276625,0.21452814 0.6873656,0.21452814 H 8.6831179 V 0 H 8.5736648 Q 7.7374429,0 7.3258992,-0.44219063 6.9187335,-0.88875939 6.9187335,-1.8475688 Z M 4.3181273,0 H 3.5125523 V -0.79681876 H 4.309371 q 0.4378125,0 0.5910469,-0.25393124 0.1576125,-0.2539313 0.1576125,-0.6435844 0,-0.2845781 -0.052537,-0.6085594 -0.052538,-0.3239812 -0.1138312,-0.6523406 l 0.7617937,-0.1926375 q 0.074428,0.35025 0.1182094,0.6873656 0.043781,0.3371156 0.043781,0.6435844 0,0.525375 -0.1444782,0.93691876 Q 5.5264898,-0.46845938 5.1981304,-0.23204063 4.869771,0 4.3181273,0 Z M 4.414446,0.66985314 5.0492742,1.3046813 4.414446,1.9395094 3.7796179,1.3046813 Z"
       id="text14"
       transform="matrix(1.3333333,0,0,1.3333333,46.037333,224.02)"
       aria-label="بﺎﺼﺘﻋارازﺎﺑ" />
    <path
       style="font-size:8.9664px;font-family:Vazirmatn"
       d="M 53.96323,0.66985314 54.598058,1.3046813 53.96323,1.9395094 53.328402,1.3046813 Z M 54.66373,0 h -1.020103 q -1.650554,0 -2.482397,-0.44656876 -0.827466,-0.44656875 -0.827466,-1.54547814 0,-0.3020906 0.06567,-0.5910469 0.07005,-0.2889562 0.179503,-0.5560219 l 0.678609,0.2539313 q -0.07005,0.1926375 -0.118209,0.4115437 -0.04378,0.2189063 -0.04378,0.4159219 0.0044,0.5122406 0.288956,0.7880625 0.284578,0.27144378 0.849356,0.37214066 0.564778,0.10069688 1.409757,0.10069688 h 1.024481 q 0.297712,0 0.621694,-0.0175125 0.328359,-0.0175125 0.612937,-0.0963188 0.284578,-0.0788063 0.464081,-0.26268749 0.179503,-0.1882594 0.179503,-0.525375 0,-0.245175 -0.04816,-0.5822907 -0.04816,-0.3414937 -0.113831,-0.6742312 l 0.761794,-0.1926375 q 0.07881,0.3414937 0.118209,0.7092562 0.04378,0.3633844 0.04378,0.6348282 0,0.595425 -0.201394,0.95443124 -0.201393,0.35900625 -0.564778,0.5428875 -0.359006,0.18388126 -0.8406,0.24517501 Q 55.22413,0 54.66373,0 Z m -6.440223,-6.0286782 h 0.739903 v 4.1854875 q 0,0.6173157 0.227662,0.8318438 0.227663,0.21452814 0.687366,0.21452814 h 0.109453 V 0 H 49.878438 Q 49.042216,0 48.630672,-0.44219063 48.223507,-0.88875939 48.223507,-1.8475688 Z M 43.683392,0 h -0.23204 Q 42.523189,0 42.037217,-0.175125 41.551245,-0.35025001 41.349852,-0.66547501 41.09592,-0.31960313 40.776317,-0.1576125 40.461092,0 39.935717,0 h -0.179503 l 0.0044,-0.79681876 h 0.175125 q 0.612938,0 0.823088,-0.25830934 0.214528,-0.2626875 0.214528,-0.7574157 0,-0.21015 -0.01751,-0.3896531 -0.01313,-0.1795031 -0.02189,-0.385275 l 0.731147,-0.087562 0.06567,1.0244812 q 0.02189,0.2933344 0.122587,0.5078626 0.100697,0.21014996 0.310847,0.21014996 0.783684,-1.33095006 1.532344,-1.96140006 0.753037,-0.6348281 1.506075,-0.6348281 0.499106,0 0.884381,0.2189062 0.389653,0.2145282 0.608559,0.5866688 0.218907,0.3721406 0.218907,0.8406 -0.0044,0.5647782 -0.337116,1.00259066 0.126966,0.0306469 0.328359,0.0569156 0.205772,0.0262688 0.604182,0.0262688 h 0.131343 V 0 H 47.514252 Q 46.95823,0 46.594846,-0.11383125 46.235839,-0.2276625 45.990664,-0.42905626 45.631658,-0.2276625 45.044989,-0.11383125 44.458321,0 43.683392,0 Z m 1.554235,-2.73195 q -1.055128,0 -2.281003,1.93513124 h 0.709256 q 1.247766,0 1.860703,-0.24955314 0.612938,-0.2495531 0.612938,-0.7924406 0,-0.385275 -0.249554,-0.6392063 Q 45.644792,-2.73195 45.237627,-2.73195 Z m -6.768581,-2.0051813 0.612938,0.6085594 -0.612938,0.6173156 -0.608559,-0.6173156 z m -1.453537,0 0.612937,0.6085594 -0.612937,0.6173156 -0.60856,-0.6173156 z m -0.472838,3.94031254 h 0.612938 q 0.556022,0 0.79244,-0.24955314 0.240797,-0.2495531 0.240797,-0.7661719 0,-0.21015 -0.01313,-0.3984094 -0.0088,-0.1882593 -0.02627,-0.3765187 l 0.731147,-0.087562 0.07005,1.0244812 q 0.05254,0.85373444 0.888759,0.85373444 h 0.09194 V 0 H 39.830643 Q 39.344671,0 39.051337,-0.175125 38.762381,-0.35025001 38.582878,-0.66985314 38.346459,-0.32398126 37.961184,-0.16199063 37.575909,0 37.155609,0 h -0.612938 z m -3.331758,0 q -0.197015,-0.24517504 -0.337115,-0.59980314 -0.135722,-0.3590063 -0.135722,-0.7180125 0,-0.4684594 0.245175,-0.8493563 0.245175,-0.3808969 0.643584,-0.6041812 0.39841,-0.2232844 0.858113,-0.2232844 0.696122,0 1.49294,0.5428875 l -0.293334,0.6523406 q -0.682987,-0.4027875 -1.151447,-0.4027875 -0.402787,0 -0.713634,0.2495532 -0.310847,0.2495531 -0.310847,0.665475 0,0.3239812 0.144478,0.5735344 0.148856,0.2495531 0.315225,0.3896531 0.166369,0.13572186 0.223284,0.13572186 0.07881,0 0.153235,-0.0218907 l 1.851947,-0.4421906 v 0.79681876 Q 35.106642,-0.31960313 34.178479,-0.1576125 33.254695,0 32.344045,0 H 31.866829 V -0.79681876 Z M 31.284541,-6.0286782 v 6.02430007 H 30.544638 V -6.0286782 Z m -2.316625,8.2396314 q -0.945675,0 -1.514832,-0.3458719 -0.564778,-0.3458719 -0.818709,-0.92378441 -0.249553,-0.57353438 -0.249553,-1.26090002 0,-0.46408126 0.09632,-0.95005317 0.09632,-0.49035 0.262687,-0.9544312 l 0.696122,0.2802 q -0.126966,0.4027875 -0.214528,0.8274656 -0.08756,0.42467814 -0.08756,0.82308752 0,0.47283751 0.166369,0.86249064 0.170747,0.38965313 0.569156,0.62169374 0.39841,0.2320406 1.094532,0.2320406 0.621693,0 1.112043,-0.1576125 0.49035,-0.1532343 0.774928,-0.40278746 0.284579,-0.245175 0.284579,-0.52099688 0,-0.14010001 -0.08319,-0.26268751 -0.08318,-0.1225875 -0.30209,-0.1225875 h -0.709257 q -0.647962,0 -0.91065,-0.31084688 -0.258309,-0.31522501 -0.258309,-0.87124687 0,-0.5779125 0.236419,-1.0595063 0.236418,-0.4859719 0.674231,-0.7749281 0.437812,-0.2889563 1.037616,-0.2889563 0.227662,0 0.477215,0.061294 0.253931,0.061294 0.507863,0.2320406 l -0.249553,0.665475 q -0.345872,-0.175125 -0.735525,-0.175125 -0.556022,0 -0.871247,0.3896531 -0.310847,0.3896532 -0.310847,0.9500532 0,0.2057719 0.08318,0.30209061 0.08319,0.0919406 0.337116,0.0919406 h 0.735525 q 0.604181,0 0.823087,0.32835938 0.223285,0.32398125 0.223285,0.82746564 0,0.48597188 -0.332738,0.91502814 -0.332737,0.4334344 -0.976322,0.7005 -0.639206,0.2714438 -1.567368,0.2714438 z M 25.920743,0 q -0.302091,0 -0.507863,-0.07880625 -0.201394,-0.08318438 -0.315225,-0.175125 -0.06567,0.57353438 -0.319603,1.10766564 -0.249553,0.53850941 -0.753037,0.93691881 -0.503485,0.3984093 -1.33095,0.5604 l -0.25831,-0.6917438 q 1.068263,-0.2320406 1.506075,-0.81433126 0.437813,-0.57791251 0.437813,-1.37035315 0,-0.37214063 -0.08319,-0.77930629 -0.07881,-0.4115437 -0.223284,-0.8362219 l 0.726769,-0.245175 0.236418,0.9150282 q 0.09632,0.3677625 0.306469,0.52099686 0.21015,0.15323438 0.529753,0.15323438 h 0.166369 V 0 Z m -6.838632,0 q -0.503485,0 -0.779306,-0.17074688 -0.271444,-0.175125 -0.433435,-0.49910626 -0.205772,0.32398126 -0.525375,0.49910626 Q 17.024392,0 16.433345,0 h -0.402787 v -0.79681876 h 0.411543 q 0.5604,0 0.81871,-0.20577184 0.258309,-0.21015 0.258309,-0.7617938 0,-0.1138313 -0.01313,-0.2670656 -0.0088,-0.1576125 -0.03065,-0.4378125 l 0.731147,-0.091941 0.07005,0.9150282 q 0.02627,0.3677625 0.223284,0.6085594 0.201394,0.24079684 0.591047,0.24079684 0.464081,0 0.63045,-0.24955314 0.166369,-0.2495531 0.166369,-0.7180125 0,-0.1138313 -0.01313,-0.2714438 -0.0088,-0.1576125 -0.03065,-0.4334343 l 0.731147,-0.091941 0.07005,0.9150282 q 0.02189,0.3546281 0.188259,0.6041812 0.166369,0.24517504 0.538509,0.24517504 0.363385,0 0.499107,-0.27144374 0.135721,-0.2714438 0.135721,-0.6348282 0,-0.3283593 -0.06567,-0.6610968 -0.06129,-0.3327375 -0.109454,-0.5385094 l 0.74866,-0.2013938 q 0.07881,0.2933344 0.126965,0.6260719 0.04816,0.3283594 0.04816,0.6567188 0,0.4728375 -0.131344,0.88875936 Q 22.49267,-0.51661876 22.19058,-0.25830938 21.892867,-0.00437813 21.376248,0 20.955948,0 20.697639,-0.175125 20.43933,-0.35025001 20.277339,-0.66985314 20.032164,-0.31522501 19.730073,-0.1576125 19.432361,0 19.082111,0 Z m -3.633844,-6.0286782 v 6.02430007 H 14.708363 V -6.0286782 Z M 13.407115,0 q -0.302091,0 -0.507863,-0.07880625 -0.201394,-0.08318438 -0.315225,-0.175125 -0.06567,0.57353438 -0.319603,1.10766564 -0.249553,0.53850941 -0.753037,0.93691881 -0.503485,0.3984093 -1.33095,0.5604 L 9.9221272,1.6593094 Q 10.99039,1.4272688 11.428202,0.84497814 q 0.437813,-0.57791251 0.437813,-1.37035315 0,-0.37214063 -0.08319,-0.77930629 -0.07881,-0.4115437 -0.223284,-0.8362219 l 0.726769,-0.245175 0.236418,0.9150282 q 0.09632,0.3677625 0.306469,0.52099686 0.21015,0.15323438 0.529753,0.15323438 h 0.166369 V 0 Z M 6.5684833,0 Q 6.064999,0 5.7891771,-0.17074688 5.5177333,-0.34587188 5.3557427,-0.66985314 5.1499708,-0.34587188 4.8303677,-0.17074688 4.5107646,0 3.9197177,0 H 3.5169302 v -0.79681876 h 0.4115437 q 0.5604,0 0.8187094,-0.20577184 0.2583094,-0.21015 0.2583094,-0.7617938 0,-0.1138313 -0.013134,-0.2670656 -0.00876,-0.1576125 -0.030647,-0.4378125 l 0.7311469,-0.091941 0.07005,0.9150282 q 0.026269,0.3677625 0.2232844,0.6085594 0.2013938,0.24079684 0.5910469,0.24079684 0.4640812,0 0.63045,-0.24955314 0.1663688,-0.2495531 0.1663688,-0.7180125 0,-0.1138313 -0.013134,-0.2714438 -0.00876,-0.1576125 -0.030647,-0.4334343 l 0.7311469,-0.091941 0.07005,0.9150282 q 0.021891,0.3546281 0.1882594,0.6041812 0.1663687,0.24517504 0.5385094,0.24517504 0.3633843,0 0.4991062,-0.27144374 0.1357219,-0.2714438 0.1357219,-0.6348282 0,-0.3283593 -0.065672,-0.6610968 -0.061294,-0.3327375 -0.1094531,-0.5385094 l 0.7486591,-0.2013938 q 0.07881,0.2933344 0.126966,0.6260719 0.04816,0.3283594 0.04816,0.6567188 0,0.4728375 -0.131343,0.88875936 Q 9.9790428,-0.51661876 9.6769521,-0.25830938 9.3792396,-0.00437813 8.8626209,0 8.4423209,0 8.1840115,-0.175125 7.9257021,-0.35025001 7.7637115,-0.66985314 7.5185365,-0.31522501 7.2164458,-0.1576125 6.9187333,0 6.5684833,0 Z"
       id="text15"
       transform="matrix(1.3333333,0,0,1.3333333,24.350667,252.36933)"
       aria-label="بﺎﺼﺘﻋایﺮﺳاﺮﺳ" />
    <path
       id="path15"
       d="m 0,148.82074 v 21.26012 h 382.68192 v -21.26012 z"
       style="fill:#6699c8;fill-opacity:1;fill-rule:nonzero;stroke:none"
       transform="matrix(1.3333333,0,0,-1.3333333,107.892,264.09067)" />
    <path
       id="path16"
       d="m 63.7803,127.56062 v 21.26012 h 255.1213 v -21.26012 z"
       style="fill:#66a385;fill-opacity:1;fill-rule:nonzero;stroke:none"
       transform="matrix(1.3333333,0,0,-1.3333333,107.892,264.09067)" />
    <path
       id="path17"
       d="m 127.56062,106.30052 v 21.2601 h 63.78034 v -21.2601 z"
       style="fill:#a385c2;fill-opacity:1;fill-rule:nonzero;stroke:none"
       transform="matrix(1.3333333,0,0,-1.3333333,107.892,264.09067)" />
    <path
       id="path18"
       d="m 127.56062,85.04042 v 21.2601 h 255.1213 v -21.2601 z"
       style="fill:#85c1e9;fill-opacity:1;fill-rule:nonzero;stroke:none"
       transform="matrix(1.3333333,0,0,-1.3333333,107.892,264.09067)" />
    <path
       id="path19"
       d="M 191.34096,63.7803 V 85.04042 H 382.68192 V 63.7803 Z"
       style="fill:#d4b66d;fill-opacity:1;fill-rule:nonzero;stroke:none"
       transform="matrix(1.3333333,0,0,-1.3333333,107.892,264.09067)" />
    <path
       id="path20"
       d="M 255.12128,42.5202 V 63.7803 H 382.68192 V 42.5202 Z"
       style="fill:#f7dc6f;fill-opacity:1;fill-rule:nonzero;stroke:none"
       transform="matrix(1.3333333,0,0,-1.3333333,107.892,264.09067)" />
    <path
       id="path21"
       d="M 255.12128,21.2601 V 42.5202 H 382.68192 V 21.2601 Z"
       style="fill:#f0b17a;fill-opacity:1;fill-rule:nonzero;stroke:none"
       transform="matrix(1.3333333,0,0,-1.3333333,107.892,264.09067)" />
    <path
       id="path22"
       d="m 318.9016,0 v 21.2601 h 63.78032 V 0 Z"
       style="fill:#d87881;fill-opacity:1;fill-rule:nonzero;stroke:none"
       transform="matrix(1.3333333,0,0,-1.3333333,107.892,264.09067)" />
  </g>
</svg>
