<?xml version="1.0" encoding="UTF-8" standalone="no"?>


<svg class="tikz-diagram" id="iran-action-ch4-tikz-7-220c753a5851"
   version="1.1"
   id="svg1"
   width="572.97333"
   height="119.42667"
   viewBox="0 0 572.97333 119.42667"
   sodipodi:docname="iran-action-ch4-tikz-7-220c753a5851.pdf"
   xmlns:inkscape="http://www.inkscape.org/namespaces/inkscape"
   xmlns:sodipodi="http://sodipodi.sourceforge.net/DTD/sodipodi-0.dtd"
   xmlns="http://www.w3.org/2000/svg"
   xmlns:svg="http://www.w3.org/2000/svg">
  <defs
     id="defs1" />
  <sodipodi:namedview
     id="namedview1"
     pagecolor="#ffffff"
     bordercolor="#000000"
     borderopacity="0.25"
     inkscape:showpageshadow="2"
     inkscape:pageopacity="0.0"
     inkscape:pagecheckerboard="0"
     inkscape:deskcolor="#d1d1d1">
    <inkscape:page
       x="0"
       y="0"
       inkscape:label="1"
       id="page1"
       width="572.97333"
       height="119.42667"
       margin="0"
       bleed="0" />
  </sodipodi:namedview>
  <g
     id="g1"
     inkscape:groupmode="layer"
     inkscape:label="1">
    <path
       id="path1"
       d="m 183.48358,28.3468 h -366.96716 c -8.25354,0 -14.94415,-6.69061 -14.94415,-14.94415 v -26.8053 c 0,-8.25354 6.69061,-14.94415 14.94415,-14.94415 h 366.96716 c 8.25354,0 14.94415,6.69061 14.94415,14.94415 v 26.8053 c 0,8.25354 -6.69061,14.94415 -14.94415,14.94415 z"
       style="fill:#f5ebff;fill-opacity:1;fill-rule:nonzero;stroke:#663399;stroke-width:2.98883;stroke-linecap:butt;stroke-linejoin:miter;stroke-miterlimit:10;stroke-dasharray:none;stroke-opacity:1"
       transform="matrix(1.3333333,0,0,-1.3333333,286.48533,59.713333)" />
    <path
       style="font-weight:800;font-size:14.3462px;font-family:Vazirmatn"
       d="m 49.657637,3.5305102 q -1.506071,0 -2.486768,-0.5744084 -0.973692,-0.5744084 -1.443026,-1.5691157 -0.469334,-0.99470719 -0.469334,-2.24159372 0,-0.83359268 0.18213,-1.72322518 0.182129,-0.8966375 0.525373,-1.78627 l 1.702211,0.6514632 q -0.259185,0.7425279 -0.434309,1.4500309 -0.175125,0.707503 -0.175125,1.32394132 0,0.67247812 0.23817,1.23287656 0.238169,0.56039844 0.805572,0.89663752 0.567404,0.336239 1.555106,0.336239 1.064757,0 1.77226,-0.2451743 0.707503,-0.2381693 1.057752,-0.56740339 0.350249,-0.32923408 0.350249,-0.58141338 0,-0.20314443 -0.252179,-0.20314443 h -1.134807 q -0.357254,0 -0.749533,-0.07004981 -0.385274,-0.0700498 -0.721513,-0.30121416 -0.336239,-0.23116435 -0.546388,-0.69349303 -0.203145,-0.4623287 -0.203145,-1.2398816 0,-0.7285179 0.23817,-1.4009961 0.238169,-0.6794831 0.679483,-1.2118616 0.448318,-0.5323785 1.071762,-0.8476026 0.623443,-0.3152241 1.400996,-0.3152241 0.525373,0 1.029732,0.1611145 0.511363,0.1541096 0.938667,0.4623287 l -0.644458,1.78627 q -0.364259,-0.2031444 -0.700498,-0.2801992 -0.329234,-0.08406 -0.609433,-0.08406 -0.756538,0 -1.183842,0.4973537 -0.427304,0.4903486 -0.427304,1.2258715 0,0.1891345 0.119085,0.2381694 0.12609,0.049035 0.308219,0.049035 h 1.022727 q 0.805573,0 1.260897,0.2521793 0.462328,0.2521793 0.651463,0.7004981 0.196139,0.44131375 0.196139,1.00871717 0,1.00171221 -0.574408,1.83530493 -0.574409,0.8335926 -1.67419,1.3309462 -1.099782,0.4973537 -2.675903,0.4973537 z m -8.265879,-9.323629 q 0.882627,0 1.499065,0.5253735 0.616439,0.5253735 0.966688,1.3869861 0.350249,0.8546076 0.420298,1.8563198 h 0.525374 V 0 H 44.13771 Q 43.738426,1.5971355 42.568594,2.507783 41.398762,3.4254354 39.374323,3.8177144 L 38.68083,1.9473846 Q 39.563458,1.779265 40.312991,1.4990658 41.069528,1.2188666 41.587897,0.84059766 42.113271,0.46232871 42.288395,0 H 41.629927 Q 40.214921,0 39.472393,-0.58841836 38.729865,-1.1838417 38.729865,-2.507783 q 0,-0.5183686 0.161114,-1.085772 0.161115,-0.5744084 0.490349,-1.071762 0.329234,-0.5043586 0.826588,-0.8125777 0.504358,-0.3152241 1.183842,-0.3152241 z m 0.231164,3.7686794 h 0.896637 q -0.04203,-0.3922789 -0.168119,-0.8055727 -0.119085,-0.4132939 -0.357254,-0.6934931 -0.231165,-0.2801992 -0.616438,-0.2801992 -0.329235,0 -0.525374,0.2101494 -0.189134,0.2031445 -0.273194,0.4903487 -0.07706,0.2801992 -0.07706,0.5183685 0,0.371264 0.308219,0.4693337 0.315224,0.091065 0.812578,0.091065 z M 34.863115,0 h -1.50607 v -2.0244394 h 1.513075 q 0.532379,0 0.728518,-0.329234 0.203145,-0.3362391 0.203145,-0.8476027 0,-0.4763386 -0.119085,-1.0367371 -0.11208,-0.5674034 -0.231164,-1.1067869 l 1.835305,-0.4763387 q 0.133094,0.6584682 0.210149,1.3099314 0.08406,0.6444582 0.08406,1.2328765 0,0.9316624 -0.252179,1.6741904 -0.245175,0.7425279 -0.840598,1.17683669 Q 35.892848,0 34.863115,0 Z M 33.539174,0.8966375 34.730021,2.0734742 35.906857,0.8966375 37.104709,2.0874842 35.906857,3.2923408 34.730021,2.1014941 33.539174,3.2923408 32.348327,2.0874842 Z M 28.579647,3.8247193 27.865139,1.9473846 q 1.015722,-0.2171544 1.74424,-0.5814134 0.735523,-0.357254 1.134807,-0.95968233 0.399284,-0.60242832 0.399284,-1.55510567 0,-0.6374532 -0.203144,-1.429016 -0.203145,-0.7985678 -0.434309,-1.4850559 l 1.891345,-0.6094333 q 0.273194,0.7635429 0.413293,1.6461704 0.147105,0.8826276 0.147105,1.6952053 0,1.47104591 -0.546388,2.521793 -0.539384,1.057752 -1.527086,1.7092152 -0.980697,0.6584682 -2.304639,0.9246574 z M 25.203246,-9.8209826 h 1.891344 v 6.4025521 q 0,0.742528 0.217155,1.071762 0.217154,0.3222291 0.896637,0.3222291 h 0.175125 V 0 H 28.208382 Q 26.639267,0 25.917754,-0.81257773 25.203246,-1.6251555 25.203246,-3.2503109 Z m -3.971823,5.008561 1.751245,-0.2171544 0.1401,2.0034244 q 0.03503,0.5323786 0.294209,0.7705479 0.259184,0.2311643 0.826588,0.2311643 h 0.147104 V 0 H 24.229555 Q 23.529057,0 23.024698,-0.2521793 22.527345,-0.50435859 22.205116,-0.91064746 21.777812,-0.48334365 21.189393,-0.23816934 20.60798,0 19.949512,0 h -0.672478 v -2.0244394 h 0.672478 q 0.770548,0 1.057752,-0.2591842 0.294209,-0.2661893 0.294209,-0.9666873 0,-0.4132939 -0.02102,-0.7985678 -0.02101,-0.3922789 -0.04903,-0.7635429 z m 0.385274,-3.7126396 1.260897,1.2608965 -1.260897,1.2538915 -1.253891,-1.2538915 z M 12.671337,0 q -0.707503,0 -1.190846,-0.23816934 -0.476339,-0.24517431 -0.784558,-0.6444582 -0.385274,0.40628887 -0.9176526,0.6444582 Q 9.2459019,0 8.4333242,0 H 7.788866 v -2.0244394 h 0.6584681 q 0.7705479,0 1.092777,-0.1891344 0.3292341,-0.1891345 0.3292341,-0.9106475 0,-0.1120797 -0.01401,-0.371264 -0.01401,-0.2591842 -0.035025,-0.5674034 -0.021015,-0.3152241 -0.04203,-0.5674034 l 1.7582506,-0.2171544 0.147104,1.8913447 q 0.06304,0.9316624 1.001712,0.9316624 0.581414,0 0.777553,-0.2381693 0.19614,-0.2451743 0.19614,-0.8616126 0,-0.09807 -0.01401,-0.357254 -0.01401,-0.2661892 -0.03503,-0.5814134 -0.02101,-0.3152241 -0.04203,-0.5674034 l 1.75825,-0.2171544 0.147105,1.8913447 q 0.02802,0.4273039 0.210149,0.6794831 0.189134,0.2521793 0.637453,0.2521793 0.420299,0 0.574409,-0.329234 0.161114,-0.3362391 0.161114,-0.7985678 0,-0.3992839 -0.07706,-0.8195827 -0.07005,-0.4273038 -0.161114,-0.7705479 -0.08406,-0.350249 -0.12609,-0.5113635 l 1.81429,-0.4973537 q 0.1401,0.5533935 0.231164,1.1838417 0.09107,0.6234433 0.09107,1.2398816 0,0.8686176 -0.231164,1.6321604 -0.22416,0.75653792 -0.770548,1.22587161 Q 17.280614,0 16.334942,0 15.704494,0 15.270185,-0.25918428 14.842881,-0.51836855 14.548672,-0.8966375 14.191418,-0.51836855 13.736094,-0.25918428 13.287776,0 12.671337,0 Z M 8.012353,-5.365815 q 0,-0.5323786 0.3782689,-0.8826276 0.378269,-0.350249 0.9106475,-0.350249 0.5393835,0 0.9106476,0.350249 0.378269,0.350249 0.378269,0.8826276 0,0.5253735 -0.378269,0.8756225 -0.3782691,0.350249 -0.9106476,0.350249 -0.5463885,0 -0.9176524,-0.343244 -0.371264,-0.350249 -0.371264,-0.8826275 z m 0,4.1259335 q 0,-0.5253736 0.3782689,-0.8756226 0.378269,-0.357254 0.9106475,-0.357254 0.5393835,0 0.9106476,0.357254 0.378269,0.350249 0.378269,0.8756226 0,0.53237847 -0.378269,0.8826275 -0.3782691,0.35024902 -0.9106476,0.35024902 -0.5463885,0 -0.9176524,-0.35024902 -0.371264,-0.35024903 -0.371264,-0.8826275 z m 57.559926,-3.4534554 q -0.462329,0 -0.917653,-0.1611146 -0.448318,-0.1681195 -0.693493,-0.4483187 -0.245174,0.2591843 -0.637453,0.4343088 -0.385274,0.1751245 -0.749533,0.1751245 -0.09807,0 -0.245174,0 -0.147105,-0.007 -0.245174,-0.02802 0.09807,0.9106474 0.126089,1.7022102 0.02802,0.7915628 0.02802,1.6251555 V 0 h -1.919365 v -1.4150061 q 0,-1.6671853 -0.126089,-3.0051366 -0.12609,-1.3449562 -0.413294,-2.4587481 -0.287204,-1.1207969 -0.763543,-2.1084991 l 1.793275,-0.6444582 q 0.252179,0.6024283 0.413294,1.078767 0.161115,0.4763386 0.420299,1.0927769 0.126089,0.3012142 0.308219,0.5113636 0.189134,0.2101494 0.553393,0.2101494 0.413294,0 0.532379,-0.3082191 0.119085,-0.3152242 0.12609,-0.9246575 l 0.01401,-1.057752 1.5481,-0.08406 0.04203,1.0017122 q 0.03503,0.8476027 0.203145,1.1137919 0.175124,0.2591843 0.532378,0.2591843 0.266189,0 0.399284,-0.1891345 0.133095,-0.1891345 0.175124,-0.4763386 0.04203,-0.2872042 0.04203,-0.5884184 0,-0.350249 -0.05604,-0.707503 -0.04903,-0.357254 -0.08406,-0.6024284 l 1.807285,-0.1681195 q 0.03502,0.350249 0.05604,0.721513 0.02802,0.364259 0.02802,0.721513 0,0.8756225 -0.217154,1.6391654 -0.210149,0.7565379 -0.714508,1.2258716 -0.497354,0.4693337 -1.365971,0.4693337 z M 230.604,3.5305102 q -1.50607,0 -2.48677,-0.5744084 -0.97369,-0.5744084 -1.44302,-1.5691157 -0.46934,-0.99470719 -0.46934,-2.24159372 0,-0.83359268 0.18213,-1.72322518 0.18213,-0.8966375 0.52538,-1.78627 l 1.70221,0.6514632 q -0.25919,0.7425279 -0.43431,1.4500309 -0.17513,0.707503 -0.17513,1.32394132 0,0.67247812 0.23817,1.23287656 0.23817,0.56039844 0.80558,0.89663752 0.5674,0.336239 1.5551,0.336239 1.06476,0 1.77226,-0.2451743 0.70751,-0.2381693 1.05775,-0.56740339 0.35025,-0.32923408 0.35025,-0.58141338 0,-0.20314443 -0.25218,-0.20314443 h -1.1348 q -0.35726,0 -0.74954,-0.07004981 -0.38527,-0.0700498 -0.72151,-0.30121416 -0.33624,-0.23116435 -0.54639,-0.69349303 -0.20314,-0.4623287 -0.20314,-1.2398816 0,-0.7285179 0.23817,-1.4009961 0.23817,-0.6794831 0.67948,-1.2118616 0.44832,-0.5323785 1.07176,-0.8476026 0.62345,-0.3152241 1.401,-0.3152241 0.52537,0 1.02973,0.1611145 0.51136,0.1541096 0.93867,0.4623287 l -0.64446,1.78627 q -0.36426,-0.2031444 -0.7005,-0.2801992 -0.32923,-0.08406 -0.60943,-0.08406 -0.75654,0 -1.18384,0.4973537 -0.42731,0.4903486 -0.42731,1.2258715 0,0.1891345 0.11909,0.2381694 0.12609,0.049035 0.30822,0.049035 H 233.42 q 0.80558,0 1.2609,0.2521793 0.46233,0.2521793 0.65146,0.7004981 0.19614,0.44131375 0.19614,1.00871717 0,1.00171221 -0.5744,1.83530493 -0.57441,0.8335926 -1.6742,1.3309462 -1.09978,0.4973537 -2.6759,0.4973537 z m -8.0347,-13.3514928 h 1.89134 v 6.4025521 q 0,0.742528 0.21716,1.071762 0.21715,0.3222291 0.89664,0.3222291 h 0.17512 V 0 h -0.17512 q -1.56912,0 -2.29063,-0.81257773 -0.71451,-0.81257777 -0.71451,-2.43773317 z m -4.9315,0.7565379 1.19084,1.1768367 1.17684,-1.1768367 1.19785,1.1908467 -1.19785,1.2048566 -1.17684,-1.1908467 -1.19084,1.1908467 -1.19085,-1.2048566 z M 218.32429,0 h -1.42202 v -2.0244394 h 1.42902 q 0.53238,0 0.72852,-0.329234 0.20314,-0.3362391 0.20314,-0.8476027 0,-0.4763386 -0.11908,-1.0367371 -0.11208,-0.5674034 -0.23117,-1.1067869 l 1.83531,-0.4763387 q 0.13309,0.6584682 0.21015,1.3099314 0.0841,0.6444582 0.0841,1.2328765 0,0.9316624 -0.25218,1.6741904 -0.25218,0.7425279 -0.8476,1.17683669 Q 219.35402,0 218.32429,0 Z m -6.0383,-2.0034244 q 0.57441,0 1.1208,-0.077055 0.55339,-0.08406 0.91064,-0.3082191 0.36426,-0.2241594 0.36426,-0.6514632 0,-0.4413138 -0.4273,-0.9386674 -0.4203,-0.5043586 -1.1208,-0.9877022 -0.69349,-0.4833437 -1.51308,-0.8686176 l 0.86162,-1.8212949 q 0.74253,0.3642589 1.45003,0.8195827 0.71451,0.4483187 1.28191,1.0017122 0.57441,0.5533934 0.91065,1.2258716 0.34324,0.6724781 0.34324,1.4850558 0,1.1207969 -0.51136,1.807285 -0.50436,0.68648806 -1.42201,0.9947072 -0.91766,0.30821914 -2.14353,0.30821914 -0.5604,0 -1.04374,-0.0350249 -0.48334,-0.04202989 -0.94567,-0.14710459 V -2.2135738 q 0.45532,0.091065 0.97369,0.1541095 0.52537,0.05604 0.91065,0.05604 z m -5.73008,-3.7896944 q 0.88263,0 1.49907,0.5253735 0.61644,0.5253735 0.96668,1.3869861 0.35025,0.8546076 0.4203,1.8563198 h 0.52538 V 0 h -0.66548 q -0.39928,1.5971355 -1.56911,2.507783 -1.16983,0.9176524 -3.19427,1.3099314 l -0.6935,-1.8703298 q 0.88263,-0.1681196 1.63216,-0.4483188 0.75654,-0.2801992 1.27491,-0.65846814 Q 207.27742,0.46232871 207.45255,0 h -0.65847 q -1.41501,0 -2.15753,-0.58841836 -0.74253,-0.59542334 -0.74253,-1.91936464 0,-0.5183686 0.16111,-1.085772 0.16112,-0.5744084 0.49035,-1.071762 0.32924,-0.5043586 0.82659,-0.8125777 0.50436,-0.3152241 1.18384,-0.3152241 z m 0.23117,3.7686794 h 0.89663 q -0.042,-0.3922789 -0.16812,-0.8055727 -0.11908,-0.4132939 -0.35725,-0.6934931 -0.23116,-0.2801992 -0.61644,-0.2801992 -0.32923,0 -0.52537,0.2101494 -0.18914,0.2031445 -0.2732,0.4903487 -0.077,0.2801992 -0.077,0.5183685 0,0.371264 0.30822,0.4693337 0.31522,0.091065 0.81258,0.091065 z m -7.61441,-4.4481625 q 0.93866,0.5603984 1.66018,1.0997819 0.72851,0.5323785 1.14181,1.1488168 0.41329,0.6164383 0.41329,1.422011 0,1.0997819 -0.50436,1.7092152 -0.50436,0.60943335 -1.415,0.85460766 Q 199.55794,0 198.34608,0 h -1.70922 v -2.0244394 h 1.70221 q 1.1208,0 1.6812,-0.1541095 0.5604,-0.1611146 0.5604,-0.6514632 0,-0.2311644 -0.34325,-0.5323785 -0.34324,-0.3082192 -0.86161,-0.6444582 -0.51136,-0.3432441 -1.05075,-0.6724781 -0.53238,-0.3362391 -0.92465,-0.6164383 -0.29421,-0.2101494 -0.44832,-0.5603985 -0.14711,-0.350249 -0.14711,-0.714508 0,-0.3922789 0.18213,-0.7355229 0.18213,-0.3432441 0.56741,-0.4973536 l 5.40784,-2.2065688 v 2.0034243 z M 195.84463,3.60056 q -1.54109,0 -2.51478,-0.5954234 -0.96669,-0.5954233 -1.42902,-1.5971355 -0.45532,-0.99470725 -0.45532,-2.21357385 0,-0.69349305 0.13309,-1.45003095 0.1401,-0.7565379 0.43431,-1.5410957 l 1.70221,0.6164383 q -0.21015,0.6094333 -0.33624,1.2118616 -0.12609,0.6024283 -0.12609,1.13480682 0,0.67948311 0.23817,1.22587159 0.24517,0.55339345 0.81258,0.87562259 0.5674,0.329234 1.54109,0.329234 1.1138,0 1.78627,-0.2311643 0.67248,-0.2311644 0.9737,-0.51836856 0.30821,-0.2872042 0.30821,-0.44831875 0,-0.24517432 -0.23816,-0.3222291 Q 198.44348,0 197.93212,0 h -1.10679 q -0.2872,0 -0.36426,-0.14710459 -0.0771,-0.14710459 -0.1471,-0.39227891 l -0.30122,-1.085772 q -0.049,-0.1751245 -0.035,-0.2872042 0.021,-0.1120797 0.27319,-0.1120797 h 4.23101 V 0 h 0.056 q 0.0631,0.24517432 0.0631,0.39227891 0,0.85460759 -0.56741,1.58312559 -0.5604,0.7355229 -1.62515,1.1768367 Q 197.3507,3.60056 195.84463,3.60056 Z m -8.03472,-3.43944545 q -0.72851,0 -1.36597,-0.30821914 -0.63045,-0.31522412 -1.23287,-0.77755283 -0.38528,0.38527392 -0.80558,0.65846816 Q 183.9922,0 183.19363,0 h -0.30822 v -2.0244394 h 0.2732 q 0.34324,0 0.61644,-0.2661892 0.28019,-0.2661893 0.53237,-0.6864881 0.25919,-0.4273038 0.53939,-0.8966375 0.2872,-0.4763387 0.63745,-0.8966375 0.35725,-0.4273038 0.82659,-0.6934931 0.46933,-0.2661892 1.09978,-0.2661892 0.88263,0 1.52709,0.4202988 0.64445,0.4132939 0.9947,1.0997819 0.35025,0.6794831 0.35025,1.4850559 0,0.8265877 -0.27319,1.4780509 -0.2732,0.65146316 -0.82659,1.02973211 -0.54639,0.37826894 -1.37298,0.37826894 z m -0.33623,-3.96481895 q -0.28721,0 -0.51837,0.1961395 -0.23117,0.1891344 -0.40629,0.4623287 -0.17513,0.2731942 -0.29421,0.5183685 0.20314,0.1821295 0.38527,0.3152241 0.18213,0.1330947 0.35025,0.2311644 0.25218,0.1400996 0.46233,0.1961395 0.21015,0.05604 0.36426,0.05604 0.37126,0 0.53238,-0.2661893 0.16111,-0.2731942 0.16111,-0.6164382 0,-0.4413138 -0.27319,-0.7635429 -0.2732,-0.3292341 -0.76354,-0.3292341 z m -7.48833,-6.0172782 h 1.89134 v 6.4025521 q 0,0.742528 0.21716,1.071762 0.21715,0.3222291 0.89663,0.3222291 h 0.17513 V 0 h -0.17513 q -1.56911,0 -2.29063,-0.81257773 -0.7145,-0.81257777 -0.7145,-2.43773317 z m -4.7914,-0.021015 1.26089,1.2608965 -1.26089,1.2538915 -1.2539,-1.2538915 z m 0.077,3.4884803 q 0.88963,0 1.56912,0.378269 0.68648,0.3782689 1.07176,1.0367371 0.39228,0.6584681 0.39228,1.5060708 0,0.3082191 -0.0701,0.707503 -0.063,0.3992839 -0.21716,0.6514632 0.16112,0.021015 0.39228,0.035025 0.23117,0.01401 0.55339,0.01401 h 0.21015 V 0 h -0.20314 q -0.83359,0 -1.42902,-0.21715439 -0.59542,-0.22415938 -1.04374,-0.52537354 -0.72852,0.3222291 -1.66718,0.53237852 Q 173.89802,0 172.84027,0 h -3.62858 v -2.0244394 h 0.99471 q 0.0981,-0.1611145 0.19614,-0.3012141 0.10507,-0.1471046 0.21015,-0.2942092 v -7.2011199 h 1.88434 v 4.8264315 q 0.64446,-0.6234432 1.30993,-0.9877022 0.66547,-0.364259 1.46404,-0.371264 z m 0.049,1.9894145 q -0.53938,0 -1.08577,0.343244 -0.54639,0.3362391 -1.04374,0.8756226 -0.49735,0.5323785 -0.90364,1.1207968 h 0.63745 q 0.94567,0 1.75125,-0.091065 0.81257,-0.09807 1.30292,-0.371264 0.49035,-0.2731942 0.49035,-0.8125777 0,-0.4833437 -0.32923,-0.7705478 -0.32223,-0.2942092 -0.81959,-0.2942092 z M 166.05945,0 h -1.1138 v -2.0244394 h 1.1208 q 0.53238,0 0.72852,-0.329234 0.20314,-0.3362391 0.20314,-0.8476027 0,-0.4763386 -0.11908,-1.0367371 -0.11208,-0.5674034 -0.23116,-1.1067869 l 1.8353,-0.4763387 q 0.13309,0.6584682 0.21015,1.3099314 0.0841,0.6444582 0.0841,1.2328765 0,0.9316624 -0.25218,1.6741904 -0.25218,0.7425279 -0.8476,1.17683669 Q 167.08918,0 166.05945,0 Z m 0.82658,-9.1344945 1.2609,1.2608965 -1.2609,1.2538915 -1.25389,-1.2538915 z m -1.98307,10.01011706 h -1.58313 l 3.60056,-11.07487456 h 1.59013 z m -1.52776,-12.31475556 1.2609,1.260896 -1.2609,1.2538919 -1.25389,-1.2538919 z m 1.28892,8.6441458 q -0.51136,0.09807 -1.08577,0.09807 -1.23988,0 -1.9614,-0.5463885 -0.72151,-0.5463884 -0.72151,-1.7092152 0,-0.7565379 0.32223,-1.4780509 0.32923,-0.721513 0.92466,-1.1908466 0.59542,-0.4763387 1.39399,-0.4763387 0.78456,0 1.33795,0.3852739 0.55339,0.3852739 0.90364,1.0367371 0.35025,0.6514632 0.51136,1.457036 0.16812,0.7985677 0.16812,1.6321604 0,1.4570359 -0.39227,2.2345888 -0.39228,0.77054782 -1.21887,1.064757 Q 164.02667,0 162.73074,0 h -2.33265 q -1.21187,0 -2.23459,-0.14710459 -1.02273,-0.15410957 -1.77927,-0.53237851 -0.74953,-0.3782689 -1.16282,-1.0577521 -0.4133,-0.686488 -0.4133,-1.7512451 0,-0.6304482 0.1401,-1.2258716 0.1401,-0.6024283 0.35025,-1.1137918 l 1.6882,0.6374532 q -0.11908,0.3292341 -0.24517,0.7635428 -0.11909,0.4343088 -0.11909,0.8265877 0,0.7004981 0.51837,1.0367372 0.51837,0.336239 1.37998,0.4413137 0.86161,0.09807 1.87734,0.09807 h 2.47275 q 0.90365,0 1.34496,-0.1120796 0.44131,-0.1120797 0.44832,-0.6584682 z m -1.1208,-1.6741903 q 0.53939,0 1.07176,-0.1190847 -0.049,-0.3362391 -0.18913,-0.6934931 -0.13309,-0.364259 -0.35725,-0.6164383 -0.21716,-0.2521792 -0.54639,-0.2521792 -0.43431,0 -0.67248,0.357254 -0.23116,0.350249 -0.23116,0.7565378 0,0.371264 0.26618,0.4693337 0.2732,0.09807 0.65847,0.09807 z m -12.34978,-5.3518051 h 1.89134 v 6.4025521 q 0,0.742528 0.21716,1.071762 0.21715,0.3222291 0.89663,0.3222291 h 0.17513 V 0 h -0.17513 q -1.56911,0 -2.29062,-0.81257773 -0.71451,-0.81257777 -0.71451,-2.43773317 z m -5.88419,3.3483807 q 0.93867,0.5533934 1.5411,0.9947072 0.60243,0.4413137 0.9807,0.9176524 0.38527,0.4763387 0.65846,1.1418118 0.21015,0.5043586 0.39929,0.8125778 0.19614,0.3082191 0.49035,0.4483187 0.29421,0.1330946 0.80557,0.1330946 h 0.19614 V 0 h -0.19614 q -0.8476,0 -1.42201,-0.24517432 -0.5674,-0.25217929 -0.96669,-0.83359268 -0.36426,0.40628888 -0.79857,0.64445821 -0.4273,0.23116436 -1.02973,0.33623906 Q 145.3724,0 144.48277,0 h -1.70922 v -2.0244394 h 1.70221 q 1.1208,0 1.6812,-0.1541095 0.56039,-0.1611146 0.56039,-0.6514632 0,-0.2311644 -0.34324,-0.5323785 -0.34324,-0.3082192 -0.86161,-0.6444582 -0.51137,-0.3432441 -1.05075,-0.6724781 -0.53238,-0.3362391 -0.92466,-0.6164383 -0.29421,-0.2171544 -0.44831,-0.5674034 -0.15411,-0.3572541 -0.15411,-0.735523 0,-0.3992839 0.18212,-0.721513 0.18914,-0.3292341 0.57441,-0.4833436 l 5.40785,-2.2065688 v 2.0034243 z m -7.64244,-3.5305101 1.12781,1.1207968 -1.12781,1.1278018 -1.1278,-1.1278018 z m 1.22588,1.7862699 1.1278,1.1278019 -1.1278,1.1278018 -1.12781,-1.1278018 z m -2.44474,0 1.12079,1.1278019 -1.12079,1.1278018 -1.1278,-1.1278018 z M 136.16785,0 q -0.70751,0 -1.19085,-0.23816934 -0.47634,-0.24517431 -0.78456,-0.6444582 -0.38527,0.40628887 -0.91765,0.6444582 Q 132.74241,0 131.92983,0 h -0.64445 v -2.0244394 h 0.65846 q 0.77055,0 1.09278,-0.1891344 0.32924,-0.1891345 0.32924,-0.9106475 0,-0.1120797 -0.014,-0.371264 -0.014,-0.2591842 -0.035,-0.5674034 -0.021,-0.3152241 -0.042,-0.5674034 l 1.75825,-0.2171544 0.14711,1.8913447 q 0.063,0.9316624 1.00171,0.9316624 0.58141,0 0.77755,-0.2381693 0.19614,-0.2451743 0.19614,-0.8616126 0,-0.09807 -0.014,-0.357254 -0.014,-0.2661892 -0.035,-0.5814134 -0.021,-0.3152241 -0.042,-0.5674034 l 1.75825,-0.2171544 0.1471,1.8913447 q 0.028,0.4273039 0.21015,0.6794831 0.18913,0.2521793 0.63745,0.2521793 0.4203,0 0.57441,-0.329234 0.16112,-0.3362391 0.16112,-0.7985678 0,-0.3992839 -0.0771,-0.8195827 -0.0701,-0.4273038 -0.16111,-0.7705479 -0.0841,-0.350249 -0.12609,-0.5113635 L 142.003,-5.751089 q 0.1401,0.5533935 0.23116,1.1838417 0.0911,0.6234433 0.0911,1.2398816 0,0.8686176 -0.23117,1.6321604 -0.22416,0.75653792 -0.77055,1.22587161 Q 140.77712,0 139.83145,0 139.201,0 138.7667,-0.25918428 138.33939,-0.51836855 138.04518,-0.8966375 137.68793,-0.51836855 137.2326,-0.25918428 136.78429,0 136.16785,0 Z m -3.37707,-8.1608022 1.26089,1.2608964 -1.26089,1.2538915 -1.25389,-1.2538915 z m -2.73895,11.9855215 -0.71451,-1.8773347 q 1.01572,-0.2171544 1.74424,-0.5814134 0.73553,-0.357254 1.13481,-0.95968233 0.39928,-0.60242832 0.39928,-1.55510567 0,-0.6374532 -0.20314,-1.429016 -0.20315,-0.7985678 -0.43431,-1.4850559 l 1.89134,-0.6094333 q 0.2732,0.7635429 0.4133,1.6461704 0.1471,0.8826276 0.1471,1.6952053 0,1.47104591 -0.54639,2.521793 -0.53938,1.057752 -1.52708,1.7092152 -0.9807,0.6584682 -2.30464,0.9246574 z m -0.30822,-13.6457019 v 9.81397762 h -1.89134 V -9.8209826 Z M 124.01286,0 q -0.37827,0 -0.74953,-0.02801992 -0.36426,-0.02801992 -0.74253,-0.05603985 V -2.0384493 q 0.43431,0.04203 0.86862,0.07005 0.44131,0.021015 0.76354,0.021015 0.12609,0 0.23817,0 0.11208,-0.007 0.20314,-0.007 0,0 -0.0981,-0.4413138 -0.0911,-0.4413138 -0.27319,-1.1768367 -0.17512,-0.742528 -0.43431,-1.6531754 -0.25218,-0.9106475 -0.57441,-1.8633248 -0.32223,-0.9526774 -0.7005,-1.80028 l 1.72323,-0.7495329 q 0.38527,0.8966375 0.71451,1.9053547 0.32923,1.0017122 0.59542,1.9613945 0.2732,0.9596823 0.46233,1.7442401 0.19614,0.7775529 0.29421,1.2468866 0.10507,0.4623287 0.10507,0.4623287 1.21187,-0.5253736 1.21187,-2.6408777 v -4.8614564 h 1.87733 v 4.9455162 q 0,1.2398815 -0.31522,2.1014941 -0.31523,0.8546077 -0.86162,1.4009961 -0.54638,0.54638851 -1.24688,0.84760267 -0.7005,0.30121416 -1.49206,0.41329384 Q 124.79742,0 124.01286,0 Z m -5.16966,-9.8209826 h 1.89134 v 6.4025521 q 0,0.742528 0.21715,1.071762 0.21716,0.3222291 0.89664,0.3222291 h 0.17513 V 0 h -0.17513 q -1.56911,0 -2.29063,-0.81257773 -0.7145,-0.81257777 -0.7145,-2.43773317 z M 114.59817,0 h -1.2609 v -2.0244394 h 1.2679 q 0.53238,0 0.72852,-0.329234 0.20314,-0.3362391 0.20314,-0.8476027 0,-0.4763386 -0.11908,-1.0367371 -0.11208,-0.5674034 -0.23116,-1.1067869 l 1.8353,-0.4763387 q 0.13309,0.6584682 0.21015,1.3099314 0.0841,0.6444582 0.0841,1.2328765 0,0.9316624 -0.25218,1.6741904 -0.25218,0.7425279 -0.8476,1.17683669 Q 115.6279,0 114.59817,0 Z m 0.18213,0.82658769 1.26089,1.26089651 -1.26089,1.2538915 -1.2539,-1.2538915 z"
       id="text1"
       transform="matrix(1.3333333,0,0,1.3333333,133.064,64.789333)"
       aria-label="یﻮﯾرﺎﻨﺳ:۳یﺎﺗدﻮﮐﯽﻣﺎﻈﻧ/فﺎﮑﺷزاﻻﺎﺑ" />
  </g>
</svg>
