<?xml version="1.0" encoding="UTF-8" standalone="no"?>


<svg class="tikz-diagram" id="iran-action-ch6-tikz-11-2596e92437c6"
   version="1.1"
   id="svg1"
   width="572.97333"
   height="119.42667"
   viewBox="0 0 572.97333 119.42667"
   sodipodi:docname="iran-action-ch6-tikz-11-2596e92437c6.pdf"
   xmlns:inkscape="http://www.inkscape.org/namespaces/inkscape"
   xmlns:sodipodi="http://sodipodi.sourceforge.net/DTD/sodipodi-0.dtd"
   xmlns="http://www.w3.org/2000/svg"
   xmlns:svg="http://www.w3.org/2000/svg">
  <defs
     id="defs1" />
  <sodipodi:namedview
     id="namedview1"
     pagecolor="#ffffff"
     bordercolor="#000000"
     borderopacity="0.25"
     inkscape:showpageshadow="2"
     inkscape:pageopacity="0.0"
     inkscape:pagecheckerboard="0"
     inkscape:deskcolor="#d1d1d1">
    <inkscape:page
       x="0"
       y="0"
       inkscape:label="1"
       id="page1"
       width="572.97333"
       height="119.42667"
       margin="0"
       bleed="0" />
  </sodipodi:namedview>
  <g
     id="g1"
     inkscape:groupmode="layer"
     inkscape:label="1">
    <path
       id="path1"
       d="m 183.48358,28.3468 h -366.96716 c -8.25354,0 -14.94415,-6.69061 -14.94415,-14.94415 v -26.8053 c 0,-8.25354 6.69061,-14.94415 14.94415,-14.94415 h 366.96716 c 8.25354,0 14.94415,6.69061 14.94415,14.94415 v 26.8053 c 0,8.25354 -6.69061,14.94415 -14.94415,14.94415 z"
       style="fill:#ffe6e6;fill-opacity:1;fill-rule:nonzero;stroke:#be1e2d;stroke-width:2.98883;stroke-linecap:butt;stroke-linejoin:miter;stroke-miterlimit:10;stroke-dasharray:none;stroke-opacity:1"
       transform="matrix(1.3333333,0,0,-1.3333333,286.48533,59.713333)" />
    <path
       style="font-weight:800;font-size:14.3462px;font-family:Vazirmatn"
       d="m 223.25438,-10.003112 1.1278,1.1207968 -1.1278,1.1278018 -1.1278,-1.1278018 z m 1.22587,1.7862699 1.1278,1.1278019 -1.1278,1.1278018 -1.1278,-1.1278018 z m -2.44474,0 1.1208,1.1278019 -1.1208,1.1278018 -1.1278,-1.1278018 z m -5.84215,9.8139776 q 1.00872,0 1.59013,-0.3222291 0.58842,-0.32222906 0.83359,-0.87562251 0.25218,-0.55339346 0.25218,-1.25389151 0,-0.75653788 -0.24517,-1.55510568 -0.23817,-0.8055727 -0.53939,-1.5340907 l 1.87033,-0.700498 0.46934,1.4430259 q 0.16111,0.4903487 0.46933,0.8335927 0.30822,0.3362391 0.87562,0.343244 0.58142,0 0.77756,-0.2381693 0.19613,-0.2451743 0.19613,-0.8616126 0,-0.09807 -0.014,-0.357254 -0.014,-0.2661892 -0.035,-0.5814134 -0.021,-0.3152241 -0.042,-0.5674034 l 1.76525,-0.2171544 0.1401,1.8913447 q 0.028,0.4343088 0.21716,0.6864881 0.18913,0.2451743 0.63045,0.2451743 0.4203,0 0.58141,-0.2801992 0.16812,-0.2872042 0.16812,-0.8195827 0,-0.2521793 -0.028,-0.728518 -0.028,-0.4763386 -0.063,-0.9106474 l 1.76525,-0.2171544 0.1401,2.0244393 q 0.035,0.5183686 0.2872,0.728518 0.25218,0.2031444 0.79157,0.2031444 h 0.21015 V 0 h -0.19614 q -0.64446,0 -1.13481,-0.22415937 -0.49035,-0.22415938 -0.77755,-0.60943331 -0.28721,0.35725401 -0.71451,0.59542334 Q 226.01434,0 225.41191,0 q -0.62344,0 -1.05775,-0.25918428 -0.4273,-0.25918427 -0.72151,-0.63745322 -0.35726,0.37826895 -0.81258,0.63745322 Q 222.37175,0 221.75531,0 q -0.31522,0 -0.58141,-0.09106475 -0.26619,-0.09106474 -0.48334,-0.24517431 -0.19614,1.81428996 -1.34496,2.87204196 -1.14181,1.0647571 -3.15224,1.0647571 -1.50607,0 -2.48677,-0.5744084 -0.97369,-0.5744084 -1.44303,-1.5691157 -0.46933,-0.99470719 -0.46933,-2.24159371 0,-0.83359269 0.18213,-1.72322519 0.18213,-0.8966375 0.52537,-1.78627 l 1.70221,0.6514632 q -0.25918,0.7425279 -0.43431,1.4500309 -0.17512,0.707503 -0.17512,1.32394132 0,0.67247813 0.23817,1.23287656 0.23817,0.56039844 0.80557,0.89663752 0.56741,0.336239 1.55511,0.336239 z m -10.54948,-11.3900982 1.2609,1.2608965 -1.2609,1.2538915 -1.25389,-1.2538915 z m 5.07861,5.1626706 v 1.8282999 q -0.40629,0.04203 -0.82659,0.1891345 -0.41329,0.1400996 -0.72151,0.2801992 0.13309,0.1961395 0.64446,0.2521793 0.51837,0.05604 1.1348,0.05604 h 0.38528 V 0 h -0.4133 q -1.28191,0 -2.06646,-0.33623906 -0.77756,-0.34324404 -1.06476,-1.27490644 -1.29592,0.69349306 -2.59184,1.15582177 Q 203.91365,0 202.44961,0 h -1.16983 v -2.0244394 h 1.19084 q 0.90365,0 1.67419,-0.1681195 0.77756,-0.1751245 1.60414,-0.5183685 0.82659,-0.3432441 1.87734,-0.8546077 -1.07877,-0.3992838 -1.74424,-0.6654731 -0.66547,-0.2661893 -0.91065,-0.2661893 -0.37827,0 -0.68649,0.2381694 -0.30121,0.2311643 -0.49735,0.4903486 l -0.37126,0.4693337 -1.56912,-0.7705478 0.31522,-0.5043586 q 0.49736,-0.8125778 1.19085,-1.3449563 0.69349,-0.5393835 1.62516,-0.5393835 0.39228,0 0.91064,0.1821295 0.52538,0.1821295 1.1208,0.4553237 0.60243,0.2661893 1.23988,0.5393835 0.64446,0.2661893 1.2679,0.4553238 0.63045,0.1891344 1.20486,0.1961394 z M 198.12752,0 h -1.26089 v -2.0244394 h 1.2679 q 0.53238,0 0.72852,-0.329234 0.20314,-0.3362391 0.20314,-0.8476027 0,-0.4763386 -0.11908,-1.0367371 -0.11208,-0.5674034 -0.23117,-1.1067869 l 1.83531,-0.4763387 q 0.13309,0.6584682 0.21015,1.3099314 0.0841,0.6444582 0.0841,1.2328765 0,0.9316624 -0.25218,1.6741904 -0.25218,0.7425279 -0.8476,1.17683669 Q 199.15726,0 198.12752,0 Z m 0.18213,0.82658769 1.2609,1.26089651 -1.2609,1.2538915 -1.25389,-1.2538915 z M 197.09712,-5.365815 q 0,-0.5323786 0.37827,-0.8826276 0.37827,-0.350249 0.91065,-0.350249 0.53938,0 0.91065,0.350249 0.37827,0.350249 0.37827,0.8826276 0,0.5253735 -0.37827,0.8756225 -0.37827,0.350249 -0.91065,0.350249 -0.54639,0 -0.91765,-0.343244 -0.37127,-0.350249 -0.37127,-0.8826275 z m 0,4.1259335 q 0,-0.5253736 0.37827,-0.8756226 0.37827,-0.357254 0.91065,-0.357254 0.53938,0 0.91065,0.357254 0.37827,0.350249 0.37827,0.8756226 0,0.53237847 -0.37827,0.8826275 -0.37827,0.35024902 -0.91065,0.35024902 -0.54639,0 -0.91765,-0.35024902 -0.37127,-0.35024903 -0.37127,-0.8826275 z m -3.9368,1.40099605 q -0.72852,0 -1.36597,-0.30821914 -0.63045,-0.31522412 -1.23288,-0.77755283 -0.38527,0.38527392 -0.80557,0.65846816 Q 189.3426,0 188.54404,0 h -0.30822 v -2.0244394 h 0.27319 q 0.34324,0 0.61644,-0.2661892 0.2802,-0.2661893 0.53238,-0.6864881 0.25918,-0.4273038 0.53938,-0.8966375 0.2872,-0.4763387 0.63745,-0.8966375 0.35726,-0.4273038 0.82659,-0.6934931 0.46934,-0.2661892 1.09978,-0.2661892 0.88263,0 1.52709,0.4202988 0.64446,0.4132939 0.99471,1.0997819 0.35025,0.6794831 0.35025,1.4850559 0,0.8265877 -0.2732,1.4780509 -0.27319,0.65146316 -0.82659,1.02973211 -0.54639,0.37826894 -1.37297,0.37826894 z m -0.33624,-3.96481895 q -0.28721,0 -0.51837,0.1961395 -0.23116,0.1891344 -0.40629,0.4623287 -0.17512,0.2731942 -0.29421,0.5183685 0.20315,0.1821295 0.38528,0.3152241 0.18212,0.1330947 0.35024,0.2311644 0.25218,0.1400996 0.46233,0.1961395 0.21015,0.05604 0.36426,0.05604 0.37127,0 0.53238,-0.2661893 0.16112,-0.2731942 0.16112,-0.6164382 0,-0.4413138 -0.2732,-0.7635429 -0.27319,-0.3292341 -0.76354,-0.3292341 z m -7.71949,-1.9894144 q 0.88262,0 1.49906,0.5253735 0.61644,0.5253735 0.96669,1.3869861 0.35025,0.8546076 0.4203,1.8563198 h 0.52537 V 0 h -0.66547 q -0.39928,1.5971355 -1.56912,2.507783 -1.16983,0.9176524 -3.19427,1.3099314 l -0.69349,-1.8703298 q 0.88263,-0.1681196 1.63216,-0.4483188 0.75654,-0.2801992 1.27491,-0.65846814 Q 185.8261,0.46232871 186.00122,0 h -0.65846 q -1.41501,0 -2.15754,-0.58841836 -0.74253,-0.59542334 -0.74253,-1.91936464 0,-0.5183686 0.16112,-1.085772 0.16111,-0.5744084 0.49035,-1.071762 0.32923,-0.5043586 0.82659,-0.8125777 0.50435,-0.3152241 1.18384,-0.3152241 z m 0.23116,3.7686794 h 0.89664 q -0.042,-0.3922789 -0.16812,-0.8055727 -0.11909,-0.4132939 -0.35725,-0.6934931 -0.23117,-0.2801992 -0.61644,-0.2801992 -0.32924,0 -0.52538,0.2101494 -0.18913,0.2031445 -0.27319,0.4903487 -0.0771,0.2801992 -0.0771,0.5183685 0,0.371264 0.30822,0.4693337 0.31523,0.091065 0.81258,0.091065 z m -8.22385,0.021015 q 0.57441,0 1.1208,-0.077055 0.55339,-0.08406 0.91064,-0.3082191 0.36426,-0.2241594 0.36426,-0.6514632 0,-0.4413138 -0.4273,-0.9386674 -0.4203,-0.5043586 -1.1208,-0.9877022 -0.69349,-0.4833437 -1.51307,-0.8686176 l 0.86161,-1.8212949 q 0.74253,0.3642589 1.45003,0.8195827 0.71451,0.4483187 1.28191,1.0017122 0.57441,0.5533934 0.91065,1.2258716 0.34324,0.6724781 0.34324,1.4850558 0,1.1207969 -0.51136,1.807285 -0.50436,0.68648806 -1.42201,0.9947072 -0.91765,0.30821914 -2.14352,0.30821914 -0.5604,0 -1.04375,-0.0350249 -0.48334,-0.04202989 -0.94567,-0.14710459 V -2.2135738 q 0.45532,0.091065 0.97369,0.1541095 0.52538,0.05604 0.91065,0.05604 z m -1.1079,-7.8595881 1.2609,1.2608965 -1.2609,1.2538915 -1.25389,-1.2538915 z m -3.95781,7.8385731 h 0.5604 q 0.25918,0 0.57441,0 0.31522,-0.007 0.60242,-0.01401 -0.25918,-0.3922789 -0.37827,-0.7845578 -0.11208,-0.3992839 -0.11208,-0.8476027 0,-0.5533934 0.22416,-1.064757 0.23117,-0.5183685 0.61644,-0.9246574 0.39228,-0.4132939 0.88263,-0.6514632 0.49035,-0.2381693 1.00872,-0.2381693 0.71451,0 1.35196,0.4132938 0.64446,0.4062889 1.04374,1.071762 0.39928,0.6584682 0.39928,1.4080011 0,0.4553237 -0.11908,0.8476026 -0.11208,0.3922789 -0.38527,0.7775529 0.16111,0.007 0.2942,0.007 0.1331,0 0.24518,0 h 0.67248 V 0 h -0.95268 q -0.58141,0 -1.2609,-0.16811953 -0.67948,-0.17512451 -1.28891,-0.37826895 -0.4203,0.14710459 -1.01573,0.27319424 -0.58841,0.11908467 -1.18384,0.19613945 Q 173.23703,0 172.82374,0 h -0.77755 q -1.21186,0 -2.23459,-0.14710459 -1.01572,-0.15410957 -1.77226,-0.53237851 -0.74953,-0.3782689 -1.16983,-1.0577521 -0.4133,-0.686488 -0.4133,-1.7512451 0,-0.6304482 0.1401,-1.2258716 0.1401,-0.6024283 0.35025,-1.1137918 l 1.6882,0.6374532 q -0.11908,0.3292341 -0.24517,0.7635428 -0.11909,0.4343088 -0.11909,0.8265877 0,0.7004981 0.51837,1.0367372 0.51837,0.336239 1.37298,0.4413137 0.86161,0.09807 1.88434,0.09807 z m 3.99284,-2.5778328 q -0.20315,0 -0.42731,0.1541096 -0.21715,0.1541096 -0.37126,0.378269 -0.15411,0.2171543 -0.15411,0.4273038 0,0.2591842 0.15411,0.5183685 0.16111,0.2521793 0.38527,0.4553237 0.23117,0.1961395 0.42731,0.3082192 0.32923,-0.1751245 0.65146,-0.5323785 0.32223,-0.357254 0.32223,-0.7635429 0,-0.2101494 -0.16812,-0.4273038 -0.16111,-0.2241594 -0.39228,-0.371264 -0.22416,-0.1471046 -0.4273,-0.1471046 z M 160.523,-2.0244394 h 1.05775 q 0.77055,0 1.05775,-0.2591842 0.29421,-0.2661893 0.29421,-0.9666873 0,-0.4132939 -0.021,-0.7985678 -0.021,-0.3922789 -0.049,-0.7635429 l 1.75125,-0.2171544 0.1401,2.0034244 q 0.035,0.5323786 0.29421,0.7705479 0.25918,0.2311643 0.82658,0.2311643 h 0.14711 V 0 h -0.16112 q -0.70049,0 -1.20485,-0.2521793 -0.49736,-0.25217929 -0.81959,-0.65846816 -0.4273,0.42730381 -1.01572,0.67247812 Q 162.23922,0 161.58075,0 H 160.523 Z m 0.18213,2.9210769 1.19085,1.1768367 1.17683,-1.1768367 1.19785,1.1908467 -1.19785,1.2048566 -1.17683,-1.1908467 -1.19085,1.1908467 -1.19085,-1.2048566 z m -3.88076,-7.0680253 q 0.55339,0 1.17683,0.08406 0.62345,0.077055 1.16984,0.2591843 0.54638,0.1751245 0.88963,0.4623287 0.35025,0.2801992 0.35025,0.6794831 0,0.2311643 -0.18213,0.5674034 -0.17513,0.336239 -0.45533,0.707503 -0.27319,0.364259 -0.5744,0.7004981 -0.29421,0.329234 -0.52538,0.5603984 0.28721,0.08406 0.5534,0.1050747 0.26619,0.021015 0.49735,0.021015 h 1.09278 V 0 h -1.08578 q -0.81958,0 -1.5481,-0.18913447 -0.72151,-0.19613946 -1.35896,-0.51836856 -0.67248,0.33623907 -1.61815,0.52537354 Q 154.26755,0 153.43396,0 h -1.10679 v -2.0244394 h 1.11379 q 0.16112,0 0.43431,-0.007 0.2802,-0.007 0.58141,-0.035025 0.30122,-0.02802 0.51837,-0.091065 -0.23116,-0.2311643 -0.52537,-0.5603984 -0.29421,-0.3362391 -0.5674,-0.7004981 -0.2732,-0.3712639 -0.45533,-0.700498 -0.18213,-0.3362391 -0.18213,-0.5674034 0,-0.3992839 0.34325,-0.6794831 0.34324,-0.2872042 0.88963,-0.4623287 0.54639,-0.1821295 1.16983,-0.2591843 0.62344,-0.08406 1.17684,-0.08406 z m 0.007,1.8353049 q -0.34324,0 -0.72852,0.035025 -0.37826,0.035025 -0.79156,0.1190847 0.29421,0.3152241 0.64446,0.6584681 0.35725,0.3362391 0.60943,0.5744084 0.25919,0.2381694 0.25919,0.2381694 0,0 0.25918,-0.2381694 0.25919,-0.2381693 0.61644,-0.5744084 0.36426,-0.343244 0.65146,-0.6584681 -0.40629,-0.08406 -0.79156,-0.1190847 -0.37827,-0.035025 -0.72852,-0.035025 z m -8.41298,-5.5059147 1.2609,1.2608965 -1.2609,1.2538915 -1.25389,-1.2538915 z M 146.27487,0 h -0.37127 q -1.16282,0 -2.00342,-0.20314443 -0.8406,-0.21014942 -1.35897,-0.70750303 -0.39228,0.42730381 -0.93166,0.67247812 Q 141.07017,0 140.2786,0 h -0.2872 l 0.007,-2.0244394 h 0.28019 q 0.8336,0 1.10679,-0.2591842 0.2802,-0.2661893 0.2802,-0.9736923 0,-0.3992839 -0.028,-0.7845578 -0.021,-0.3922789 -0.049,-0.7635429 l 1.75124,-0.2171544 0.1331,1.9964194 q 0.028,0.2801993 0.11208,0.4903487 0.0911,0.2031444 0.24517,0.2381693 0.47634,-0.7845578 1.00872,-1.5130758 0.53238,-0.7285179 1.1278,-1.3029263 0.60243,-0.5744084 1.28191,-0.9036425 0.68649,-0.3362391 1.45704,-0.3362391 0.88963,0 1.56911,0.378269 0.68649,0.3782689 1.07176,1.0367371 0.39228,0.6584681 0.39228,1.5060708 0,0.3082191 -0.0701,0.707503 -0.063,0.3992839 -0.21715,0.6514632 0.16111,0.021015 0.39228,0.035025 0.23116,0.01401 0.55339,0.01401 h 0.21015 V 0 h -0.20314 q -0.8336,0 -1.401,-0.21715439 -0.5674,-0.22415938 -1.01572,-0.52537354 -0.72852,0.3222291 -1.69521,0.53237852 Q 147.33262,0 146.27487,0 Z m 2.47976,-4.3641028 q -0.53938,0 -1.08577,0.343244 -0.54639,0.3362391 -1.04374,0.8756226 -0.49736,0.5323785 -0.90365,1.1207968 h 0.63746 q 0.94567,0 1.75124,-0.091065 0.81258,-0.09807 1.30293,-0.371264 0.49035,-0.2731942 0.49035,-0.8125777 0,-0.4833437 -0.32924,-0.7705478 -0.32223,-0.2942092 -0.81958,-0.2942092 z m -12.60196,-4.7003419 1.19085,1.1768367 1.17684,-1.1768367 1.19785,1.1908467 -1.19785,1.2048566 -1.17684,-1.1908467 -1.19085,1.1908467 -1.19084,-1.2048566 z M 136.83916,0 h -1.42201 v -2.0244394 h 1.42902 q 0.53238,0 0.72852,-0.329234 0.20314,-0.3362391 0.20314,-0.8476027 0,-0.4763386 -0.11908,-1.0367371 -0.11208,-0.5674034 -0.23117,-1.1067869 l 1.83531,-0.4763387 q 0.13309,0.6584682 0.21015,1.3099314 0.084,0.6444582 0.084,1.2328765 0,0.9316624 -0.25217,1.6741904 -0.25218,0.7425279 -0.84761,1.17683669 Q 137.86889,0 136.83916,0 Z m -3.14592,3.5305102 q -1.50608,0 -2.48677,-0.5744084 -0.97369,-0.5744084 -1.44303,-1.5691157 -0.46933,-0.99470719 -0.46933,-2.24159372 0,-0.83359268 0.18213,-1.72322518 0.18213,-0.8966375 0.52537,-1.78627 l 1.70221,0.6514632 q -0.25918,0.7425279 -0.43431,1.4500309 -0.17512,0.707503 -0.17512,1.32394132 0,0.67247812 0.23817,1.23287656 0.23817,0.56039844 0.80557,0.89663752 0.5674,0.336239 1.55511,0.336239 1.06475,0 1.77226,-0.2451743 0.7075,-0.2381693 1.05775,-0.56740339 0.35025,-0.32923408 0.35025,-0.58141338 0,-0.20314443 -0.25218,-0.20314443 h -1.13481 q -0.35725,0 -0.74953,-0.07004981 -0.38528,-0.0700498 -0.72152,-0.30121416 -0.33623,-0.23116435 -0.54638,-0.69349303 -0.20315,-0.4623287 -0.20315,-1.2398816 0,-0.7285179 0.23817,-1.4009961 0.23817,-0.6794831 0.67948,-1.2118616 0.44832,-0.5323785 1.07177,-0.8476026 0.62344,-0.3152241 1.40099,-0.3152241 0.52538,0 1.02973,0.1611145 0.51137,0.1541096 0.93867,0.4623287 l -0.64446,1.78627 q -0.36426,-0.2031444 -0.70049,-0.2801992 -0.32924,-0.08406 -0.60944,-0.08406 -0.75654,0 -1.18384,0.4973537 -0.4273,0.4903486 -0.4273,1.2258715 0,0.1891345 0.11908,0.2381694 0.12609,0.049035 0.30822,0.049035 h 1.02273 q 0.80557,0 1.26089,0.2521793 0.46233,0.2521793 0.65147,0.7004981 0.19614,0.44131375 0.19614,1.00871717 0,1.00171221 -0.57441,1.83530493 -0.57441,0.8335926 -1.67419,1.3309462 -1.09978,0.4973537 -2.6759,0.4973537 z m -8.0347,-13.3514928 h 1.89135 v 6.4025521 q 0,0.742528 0.21715,1.071762 0.21715,0.3222291 0.89664,0.3222291 h 0.17512 V 0 h -0.17512 q -1.56912,0 -2.29063,-0.81257773 -0.71451,-0.81257777 -0.71451,-2.43773317 z m -7.53036,9.2115493 q -0.63045,0.21715439 -1.44302,0.41329385 Q 115.87958,0 115.10903,0 h -0.69349 v -2.0244394 h 0.60243 q 0.23116,0 0.43431,-0.007 0.21015,-0.007 0.4273,-0.021015 -0.21715,-0.2801992 -0.35025,-0.7425279 -0.13309,-0.4693337 -0.13309,-0.8686176 0,-0.5954233 0.29421,-1.1698317 0.29421,-0.5744084 0.88263,-0.9596823 0.58841,-0.385274 1.46404,-0.4132939 l 0.67247,-1.3309463 q 1.30293,0.6164383 2.31165,1.1278019 1.01572,0.5113635 1.70221,1.0087172 0.69349,0.4973536 1.05075,1.078767 0.35725,0.5744084 0.35725,1.3309462 0,1.4290161 -0.85461,2.17854897 -0.85461,0.74252793 -2.26261,0.74252793 -0.73552,0 -1.54109,-0.1821295 -0.80558,-0.18212949 -1.34496,-0.357254 z m -0.9877,-3.0681814 q 0,0.3852739 0.35025,0.7215129 0.35025,0.3292341 0.75654,0.4553238 0.18913,-0.04203 0.4343,-0.1891345 0.25218,-0.1541096 0.43431,-0.371264 0.18213,-0.2241593 0.18213,-0.4763386 0,-0.4202989 -0.30121,-0.7565379 -0.30122,-0.3362391 -0.73552,-0.3362391 -0.44832,0 -0.78456,0.2872042 -0.33624,0.2801992 -0.33624,0.6654732 z m 3.06818,1.6531753 q 0.32923,0.05604 0.63745,0.08406 0.30822,0.02802 0.44132,0.02802 0.41329,0 0.75654,-0.2101494 0.34324,-0.2171544 0.34324,-0.8125777 0,-0.1471046 -0.11208,-0.3362391 -0.10508,-0.1961394 -0.46233,-0.4763386 -0.35025,-0.2801993 -1.07877,-0.6864881 0.0981,0.3012141 0.0981,0.6234432 0,0.5463885 -0.17512,0.9947073 -0.16812,0.4413137 -0.44832,0.7915627 z m -17.90372,-4.5882622 1.26089,1.2608965 -1.26089,1.2538915 -1.25389,-1.2538915 z m 0.0911,7.7054786 q 1.01572,0 1.59714,-0.32222915 0.58141,-0.3222291 0.82659,-0.87562256 0.25217,-0.56039843 0.25217,-1.26089649 0,-0.7495329 -0.24517,-1.5481007 -0.23817,-0.8055727 -0.53938,-1.5410957 l 1.87033,-0.700498 q 0.39228,1.057752 0.55339,1.9403796 0.16812,0.8826275 0.16812,1.8002799 0,2.08748422 -1.14882,3.2993458 -1.14181,1.2118617 -3.33437,1.2118617 -1.50607,0 -2.486766,-0.5744084 -0.973692,-0.5744084 -1.443026,-1.56911566 -0.469334,-0.99470722 -0.469334,-2.24859874 0,-0.8335927 0.18213,-1.7232252 0.182129,-0.8896325 0.525373,-1.779265 l 1.702213,0.6514632 q -0.25919,0.7425279 -0.434311,1.4500309 -0.175125,0.707503 -0.175125,1.3239413 0,0.67247815 0.238166,1.23287659 0.23817,0.56039844 0.80558,0.8966375 0.5674,0.33623911 1.5551,0.33623911 z m -8.265877,-6.8858958 q 0.882627,0 1.499066,0.5253735 0.616438,0.5253735 0.966687,1.3869861 0.350249,0.8546076 0.420299,1.8563198 h 0.525373 V 0 H 96.876075 Q 96.476791,1.5971355 95.306959,2.507783 94.137128,3.4254354 92.112688,3.8177144 L 91.419195,1.9473846 Q 92.301823,1.779265 93.051356,1.4990658 93.807894,1.2188666 94.326262,0.84059766 94.851636,0.46232871 95.02676,0 H 94.368292 Q 92.953286,0 92.210758,-0.58841836 91.46823,-1.1838417 91.46823,-2.507783 q 0,-0.5183686 0.161115,-1.085772 0.161114,-0.5744084 0.490348,-1.071762 0.329234,-0.5043586 0.826588,-0.8125777 0.504359,-0.3152241 1.183842,-0.3152241 z m 0.231164,3.7686794 h 0.896638 q -0.04203,-0.3922789 -0.16812,-0.8055727 -0.119085,-0.4132939 -0.357254,-0.6934931 -0.231164,-0.2801992 -0.616438,-0.2801992 -0.329234,0 -0.525374,0.2101494 -0.189134,0.2031445 -0.273194,0.4903487 -0.07706,0.2801992 -0.07706,0.5183685 0,0.371264 0.308219,0.4693337 0.315224,0.091065 0.812578,0.091065 z m -8.013697,-6.423567 1.190847,1.1768367 1.176836,-1.1768367 1.197852,1.1908466 -1.197852,1.2048567 -1.176836,-1.1908467 -1.190847,1.1908467 -1.190847,-1.2048567 z m -0.735523,6.423567 h 0.980697 q 0.770548,0 1.057752,-0.2591842 0.29421,-0.2661893 0.29421,-0.9666873 0,-0.4132939 -0.02102,-0.7985678 -0.02101,-0.3922789 -0.04904,-0.7635429 l 1.751245,-0.2171544 0.1401,2.0034244 q 0.03502,0.5323786 0.294209,0.7705479 0.259184,0.2311643 0.826587,0.2311643 h 0.147105 V 0 H 90.872807 Q 90.172309,0 89.667951,-0.2521793 89.170597,-0.50435859 88.848368,-0.91064746 88.421064,-0.48334365 87.832646,-0.23816934 87.251233,0 86.592764,0 H 85.612067 Z M 79.006372,0 q -0.707503,0 -1.190847,-0.23816934 -0.476339,-0.24517431 -0.784558,-0.6444582 -0.385274,0.40628887 -0.917652,0.6444582 Q 75.580936,0 74.768359,0 H 74.1239 v -2.0244394 h 0.658468 q 0.770548,0 1.092777,-0.1891344 0.329235,-0.1891345 0.329235,-0.9106475 0,-0.1120797 -0.01401,-0.371264 -0.01401,-0.2591842 -0.03503,-0.5674034 -0.02101,-0.3152241 -0.04203,-0.5674034 l 1.75825,-0.2171544 0.147104,1.8913447 q 0.06305,0.9316624 1.001713,0.9316624 0.581413,0 0.777553,-0.2381693 0.196139,-0.2451743 0.196139,-0.8616126 0,-0.09807 -0.01401,-0.357254 -0.01401,-0.2661892 -0.03503,-0.5814134 -0.02101,-0.3152241 -0.04203,-0.5674034 l 1.75825,-0.2171544 0.147105,1.8913447 q 0.02802,0.4273039 0.210149,0.6794831 0.189135,0.2521793 0.637454,0.2521793 0.420298,0 0.574408,-0.329234 0.161114,-0.3362391 0.161114,-0.7985678 0,-0.3992839 -0.07705,-0.8195827 -0.07005,-0.4273038 -0.161115,-0.7705479 -0.08406,-0.350249 -0.12609,-0.5113635 l 1.81429,-0.4973537 q 0.1401,0.5533935 0.231165,1.1838417 0.09106,0.6234433 0.09106,1.2398816 0,0.8686176 -0.231165,1.6321604 -0.224159,0.75653792 -0.770548,1.22587161 Q 83.615649,0 82.669976,0 82.039528,0 81.605219,-0.25918428 81.177916,-0.51836855 80.883706,-0.8966375 80.526452,-0.51836855 80.071129,-0.25918428 79.62281,0 79.006372,0 Z m -5.177688,-9.0644447 1.190847,1.1768367 1.176837,-1.1768367 1.197852,1.1908467 -1.197852,1.2048566 -1.176837,-1.1908467 -1.190847,1.1908467 -1.190846,-1.2048566 z M 74.515173,0 h -1.422012 v -2.0244394 h 1.429017 q 0.532378,0 0.728517,-0.329234 0.203145,-0.3362391 0.203145,-0.8476027 0,-0.4763386 -0.119085,-1.0367371 -0.112079,-0.5674034 -0.231164,-1.1067869 l 1.835305,-0.4763387 q 0.133094,0.6584682 0.210149,1.3099314 0.08406,0.6444582 0.08406,1.2328765 0,0.9316624 -0.252179,1.6741904 -0.25218,0.7425279 -0.847603,1.17683669 Q 75.544905,0 74.515173,0 Z M 72.072562,0 Q 71.435109,0 71.021815,-0.24517432 70.741616,1.3659712 69.641834,2.4167183 68.549057,3.4674653 66.720757,3.8177144 L 66.027264,1.9473846 q 1.015722,-0.2171544 1.74424,-0.5814134 0.735523,-0.357254 1.134807,-0.95968233 0.399284,-0.60242832 0.399284,-1.55510567 0,-0.6374532 -0.203145,-1.429016 -0.203144,-0.7985678 -0.434308,-1.4850559 l 1.884339,-0.6094333 0.406289,1.5831256 q 0.119085,0.4483188 0.350249,0.7565379 0.231165,0.3082191 0.686488,0.3082191 h 0.273194 V 0 Z m -8.910336,-3.0261516 q 0,-0.1751245 -0.07705,-0.4623287 -0.07706,-0.2872042 -0.161115,-0.4693337 l -1.386986,-3.0611764 1.667185,-0.8125778 1.744241,4.0208588 q 0.210149,0.4833437 0.371264,0.8896325 0.168119,0.4062889 0.378269,0.6514632 0.217154,0.2451743 0.553393,0.2451743 h 0.294209 V 0 h -0.294209 q -0.784558,0 -1.267901,-0.29420918 -0.476339,-0.30121416 -0.840598,-0.77054782 -0.532379,0.51136354 -1.267902,0.78455778 -0.735523,0.27319424 -1.779265,0.27319424 -0.616438,0 -1.043742,-0.04202988 -0.427304,-0.04202989 -0.882627,-0.15410957 V -2.2275838 q 0.434309,0.1050747 0.917652,0.1611146 0.490349,0.05604 0.903643,0.05604 0.518368,0 1.015722,-0.08406 0.497353,-0.091065 0.826588,-0.3152241 0.329234,-0.2241594 0.329234,-0.6164383 z m -9.428702,-8.1818174 1.190847,1.176837 1.176837,-1.176837 1.197852,1.190847 -1.197852,1.2048566 -1.176837,-1.1908466 -1.190847,1.1908466 -1.190846,-1.2048566 z m 0.644459,9.1835296 q 0.896637,0 1.365971,-0.1400996 0.476339,-0.1400996 0.483344,-0.693493 -0.511364,0.09807 -1.085772,0.09807 -1.239882,0 -1.961395,-0.5113636 -0.721513,-0.5183685 -0.721513,-1.6811953 0,-0.5674034 0.18213,-1.1207969 0.189134,-0.5603984 0.532378,-1.0157221 0.350249,-0.4623287 0.833593,-0.735523 0.490348,-0.2801992 1.092777,-0.2801992 0.777553,0 1.330946,0.3922789 0.560398,0.3852739 0.910647,1.0367371 0.350249,0.6514632 0.511364,1.457036 0.16812,0.7985677 0.16812,1.6321604 0,1.4570359 -0.399284,2.2345888 -0.392279,0.77054782 -1.218867,1.064757 Q 55.582839,0 54.293923,0 H 51.71609 v -2.0244394 z m 0.735523,-2.4517431 q 0.266189,0 0.532378,-0.02802 0.273194,-0.02802 0.532379,-0.08406 -0.04904,-0.3362391 -0.18213,-0.6934931 -0.133094,-0.364259 -0.357254,-0.6164383 -0.224159,-0.2521792 -0.553393,-0.2521792 -0.434309,0 -0.672478,0.357254 -0.231165,0.350249 -0.231165,0.7565378 0,0.371264 0.273194,0.4693337 0.273195,0.091065 0.658469,0.091065 z m -6.123361,1.7302302 q 0.245175,-0.7775529 0.651464,-1.457036 0.413294,-0.6864881 0.987702,-1.1067869 0.581413,-0.4202988 1.316936,-0.4202988 0.861613,0 1.506071,0.3852739 0.651463,0.378269 1.008717,1.064757 0.364259,0.6864881 0.364259,1.6111455 0,0.7565379 -0.273194,1.3869862 -0.273194,0.63044822 -0.819583,1.01572214 -0.539383,0.37826895 -1.337951,0.37826895 -0.378269,0 -0.805573,-0.13309463 -0.427304,-0.13309463 -0.847602,-0.30121416 -0.413294,-0.17512451 -0.756538,-0.30821914 -0.336239,-0.13309463 -0.539384,-0.13309463 -0.315224,0 -0.420299,0.68648808 -0.105074,0.68648809 -0.105074,1.70221029 0,0.5954233 0.02101,1.1698317 0.02802,0.5744084 0.05604,1.0157222 0.03503,0.4413137 0.05604,0.6514632 h -1.926369 q -0.03502,-0.7565379 -0.07005,-1.4710459 -0.02802,-0.7075031 -0.02802,-1.3659712 0,-1.23287659 0.12609,-2.15753402 0.133094,-0.92465738 0.546388,-1.49206088 0.420299,-0.5674034 1.288916,-0.7215129 z m 4.055884,0.063045 q 0,-0.4273038 -0.294209,-0.7635429 -0.287204,-0.3362391 -0.777553,-0.3362391 -0.308219,0 -0.546388,0.2101495 -0.23817,0.2101494 -0.406289,0.5183685 -0.161115,0.3082192 -0.266189,0.6094333 0.469333,0.2101494 0.917652,0.3922789 0.455324,0.1751245 0.756538,0.1751245 0.343244,0 0.476339,-0.2451743 0.140099,-0.2451743 0.140099,-0.5603984 z m -9.568804,-7.1380751 h 1.891345 v 6.4025521 q 0,0.742528 0.217154,1.071762 0.217154,0.3222291 0.896638,0.3222291 h 0.175124 V 0 H 46.482362 Q 44.913246,0 44.191733,-0.81257773 43.477225,-1.6251555 43.477225,-3.2503109 Z m -4.791405,-0.021015 1.260896,1.2608965 -1.260896,1.2538915 -1.253892,-1.2538915 z m 0.07706,3.4884803 q 0.889632,0 1.569115,0.378269 0.686488,0.3782689 1.071762,1.0367371 0.392279,0.6584681 0.392279,1.5060708 0,0.3082191 -0.07005,0.707503 -0.06304,0.3992839 -0.217154,0.6514632 0.161114,0.021015 0.392279,0.035025 0.231164,0.01401 0.553393,0.01401 h 0.21015 V 0 h -0.203145 q -0.833592,0 -1.429016,-0.21715439 -0.595423,-0.22415938 -1.043742,-0.52537354 -0.728518,0.3222291 -1.667185,0.53237852 Q 37.389898,0 36.332146,0 h -3.62858 v -2.0244394 h 0.994708 q 0.09807,-0.1611145 0.196139,-0.3012141 0.105075,-0.1471046 0.21015,-0.2942092 v -7.2011199 h 1.884339 v 4.8264315 q 0.644459,-0.6234432 1.309932,-0.9877022 0.665473,-0.364259 1.464041,-0.371264 z m 0.04903,1.9894145 q -0.539383,0 -1.085772,0.343244 -0.546388,0.3362391 -1.043742,0.8756226 -0.497353,0.5323785 -0.903642,1.1207968 h 0.637453 q 0.945672,0 1.751245,-0.091065 0.812578,-0.09807 1.302927,-0.371264 0.490348,-0.2731942 0.490348,-0.8125777 0,-0.4833437 -0.329234,-0.7705478 -0.322229,-0.2942092 -0.819583,-0.2942092 z M 29.551325,0 h -1.113792 v -2.0244394 h 1.120797 q 0.532379,0 0.728518,-0.329234 0.203145,-0.3362391 0.203145,-0.8476027 0,-0.4763386 -0.119085,-1.0367371 -0.11208,-0.5674034 -0.231164,-1.1067869 l 1.835304,-0.4763387 q 0.133095,0.6584682 0.21015,1.3099314 0.08406,0.6444582 0.08406,1.2328765 0,0.9316624 -0.25218,1.6741904 -0.252179,0.7425279 -0.847602,1.17683669 Q 30.581057,0 29.551325,0 Z m 0.826588,-9.1344945 1.260896,1.2608965 -1.260896,1.2538915 -1.253892,-1.2538915 z"
       id="text1"
       transform="matrix(1.3333333,0,0,1.3333333,127.632,64.210667)"
       aria-label="ﺶﺨﺑ:مودﻒﯿﻌﻀﺗیﺎﻫ نﻮﺘﺳترﺪﻗمﺎﻈﻧ" />
  </g>
</svg>
