<?xml version="1.0" encoding="UTF-8" standalone="no"?>


<svg class="tikz-diagram" id="iran-action-ch3-tikz-6-6240d7503e8f"
   version="1.1"
   id="svg1"
   width="608.37335"
   height="210.98666"
   viewBox="0 0 608.37335 210.98666"
   sodipodi:docname="iran-action-ch3-tikz-6-6240d7503e8f.pdf"
   xmlns:inkscape="http://www.inkscape.org/namespaces/inkscape"
   xmlns:sodipodi="http://sodipodi.sourceforge.net/DTD/sodipodi-0.dtd"
   xmlns="http://www.w3.org/2000/svg"
   xmlns:svg="http://www.w3.org/2000/svg">
  <defs
     id="defs1" />
  <sodipodi:namedview
     id="namedview1"
     pagecolor="#ffffff"
     bordercolor="#000000"
     borderopacity="0.25"
     inkscape:showpageshadow="2"
     inkscape:pageopacity="0.0"
     inkscape:pagecheckerboard="0"
     inkscape:deskcolor="#d1d1d1">
    <inkscape:page
       x="0"
       y="0"
       inkscape:label="1"
       id="page1"
       width="608.37335"
       height="210.98666"
       margin="0"
       bleed="0" />
  </sodipodi:namedview>
  <g
     id="g1"
     inkscape:groupmode="layer"
     inkscape:label="1">
    <path
       id="path1"
       d="M 80.05907,14.17339 H -80.05907 c -2.75117,0 -4.98138,-2.23021 -4.98138,-4.98139 V -9.192 c 0,-2.75118 2.23021,-4.98139 4.98138,-4.98139 H 80.05907 c 2.75117,0 4.98138,2.23021 4.98138,4.98139 V 9.192 c 0,2.75118 -2.23021,4.98139 -4.98138,4.98139 z"
       style="fill:#b8860b;fill-opacity:1;fill-rule:nonzero;stroke:#b8860b;stroke-width:0.3985;stroke-linecap:butt;stroke-linejoin:miter;stroke-miterlimit:10;stroke-dasharray:none;stroke-opacity:1"
       transform="matrix(1.3333333,0,0,-1.3333333,304.18667,39.082667)" />
    <path
       style="font-weight:800;font-size:9.9626px;font-family:Vazirmatn;fill:#ffffff"
       d="m 112.4054,-6.8201 h 1.31343 v 4.4461993 q 0,0.5156423 0.1508,0.7442762 0.1508,0.2237694 0.62266,0.2237694 h 0.12162 V 0 h -0.12162 q -1.08966,0 -1.59071,-0.56428788 -0.49618,-0.56428792 -0.49618,-1.69286362 z m -5.22939,6.39688409 q -0.43781,0.15080107 -1.0021,0.28700849 Q 105.61449,0 105.07939,0 h -0.48159 v -1.4058551 h 0.41835 q 0.16053,0 0.3016,-0.00486 0.14594,-0.00486 0.29674,-0.014594 -0.1508,-0.1945821 -0.24323,-0.5156424 -0.0924,-0.3259249 -0.0924,-0.6032043 0,-0.4134868 0.20431,-0.81238 0.20431,-0.3988931 0.61293,-0.6664434 0.40862,-0.2675503 1.01669,-0.2870085 l 0.467,-0.9242646 q 0.90481,0.4280804 1.6053,0.7831926 0.70536,0.3551122 1.18209,0.7004953 0.48159,0.3453831 0.72968,0.7491408 0.24809,0.3988932 0.24809,0.9242647 0,0.9923683 -0.59347,1.51287522 -0.59348,0.51564237 -1.57125,0.51564237 -0.51078,0 -1.0702,-0.12647831 -0.55943,-0.12647832 -0.934,-0.24809209 z m -0.6859,-2.13067319 q 0,0.2675503 0.24323,0.5010487 0.24323,0.2286339 0.52537,0.3161958 0.13134,-0.029187 0.3016,-0.1313429 0.17513,-0.1070201 0.3016,-0.2578211 0.12648,-0.1556657 0.12648,-0.3307895 0,-0.291873 -0.20917,-0.5253715 -0.20918,-0.2334984 -0.51078,-0.2334984 -0.31133,0 -0.54483,0.1994466 -0.2335,0.194582 -0.2335,0.4621323 z m 2.13067,1.148034 q 0.22864,0.038916 0.44268,0.058375 0.21404,0.019458 0.30646,0.019458 0.28701,0 0.52538,-0.1459366 0.23836,-0.150801 0.23836,-0.5642878 0,-0.1021556 -0.0778,-0.2334985 -0.073,-0.1362074 -0.32106,-0.3307894 -0.24323,-0.194582 -0.74915,-0.476726 0.0681,0.2091757 0.0681,0.432945 0,0.379435 -0.12162,0.6907662 -0.11674,0.3064667 -0.31133,0.5496943 z M 96.634997,2.500379 q -1.070201,0 -1.746373,-0.4134868 -0.671308,-0.4134868 -0.992369,-1.10911752 -0.316196,-0.69076619 -0.316196,-1.53719801 0,-0.48159047 0.09243,-1.00696197 0.09729,-0.5253715 0.301602,-1.0702012 l 1.182086,0.4280805 q -0.145937,0.4232159 -0.233499,0.8415673 -0.08756,0.41835132 -0.08756,0.78805717 0,0.47186142 0.165395,0.85129637 0.170259,0.3842995 0.564288,0.60806883 0.394029,0.22863393 1.070201,0.22863393 0.773464,0 1.240461,-0.16053022 0.466996,-0.16053017 0.676172,-0.35997675 0.21404,-0.19944658 0.21404,-0.31133124 0,-0.17025928 -0.165394,-0.22376933 Q 98.439745,0 98.084633,0 h -0.768599 q -0.199446,0 -0.252956,-0.10215556 -0.05351,-0.10215557 -0.102156,-0.27241484 l -0.209176,-0.7540054 q -0.03405,-0.1216137 -0.02432,-0.1994465 0.01459,-0.077833 0.189717,-0.077833 H 99.85533 V 0 h 0.03892 q 0.04378,0.17025927 0.04378,0.27241484 0,0.59347518 -0.394029,1.09938846 -0.389164,0.5107778 -1.128575,0.8172445 -0.734547,0.3113312 -1.780426,0.3113312 z m -7.024415,-3.9062341 h 0.569153 q 0.5351,0 0.734547,-0.1799884 0.204311,-0.1848529 0.204311,-0.671308 0,-0.2870085 -0.01459,-0.5545588 -0.01459,-0.2724148 -0.03405,-0.530236 l 1.216137,-0.1508011 0.09729,1.3912615 q 0.02432,0.3697059 0.204311,0.5351006 0.179989,0.1605302 0.574017,0.1605302 H 93.26386 V 0 H 93.151975 Q 92.66552,0 92.315273,-0.17512382 91.96989,-0.35024765 91.74612,-0.63239159 91.449383,-0.335654 91.04076,-0.16539472 90.637003,0 90.179735,0 H 89.610582 Z M 90.61268,0.57401698 91.488299,1.4496361 90.61268,2.3203907 89.741925,1.4496361 Z M 85.14493,-0.42321591 Q 84.70712,-0.27241484 84.142832,-0.13620742 83.583409,0 83.048309,0 h -0.481591 v -1.4058551 h 0.418351 q 0.160531,0 0.301603,-0.00486 0.145936,-0.00486 0.296737,-0.014594 -0.150801,-0.1945821 -0.243227,-0.5156424 -0.09243,-0.3259249 -0.09243,-0.6032043 0,-0.4134868 0.204311,-0.81238 0.204311,-0.3988931 0.612934,-0.6664434 0.408622,-0.2675503 1.016691,-0.2870085 l 0.466997,-0.9242646 q 0.904806,0.4280804 1.605301,0.7831926 0.70536,0.3551122 1.182086,0.7004953 0.481591,0.3453831 0.729683,0.7491408 0.248092,0.3988932 0.248092,0.9242647 0,0.9923683 -0.593475,1.51287522 -0.593476,0.51564237 -1.57125,0.51564237 -0.510778,0 -1.070201,-0.12647831 Q 85.5195,-0.30160214 85.14493,-0.42321591 Z M 84.459028,-2.5538891 q 0,0.2675503 0.243228,0.5010487 0.243227,0.2286339 0.525371,0.3161958 0.131343,-0.029187 0.301602,-0.1313429 0.175124,-0.1070201 0.301603,-0.2578211 0.126478,-0.1556657 0.126478,-0.3307895 0,-0.291873 -0.209176,-0.5253715 -0.209175,-0.2334984 -0.510778,-0.2334984 -0.311331,0 -0.544829,0.1994466 -0.233499,0.194582 -0.233499,0.4621323 z m 2.130673,1.148034 q 0.228634,0.038916 0.442675,0.058375 0.21404,0.019458 0.306466,0.019458 0.287009,0 0.525372,-0.1459366 0.238363,-0.150801 0.238363,-0.5642878 0,-0.1021556 -0.07783,-0.2334985 -0.07297,-0.1362074 -0.32106,-0.3307894 -0.243228,-0.194582 -0.749141,-0.476726 0.0681,0.2091757 0.0681,0.432945 0,0.379435 -0.121613,0.6907662 -0.116749,0.3064667 -0.311332,0.5496943 z m -6.771453,-6.2120312 0.875619,0.8756191 -0.875619,0.8707546 -0.870755,-0.8707546 z m 0.593475,5.5164004 q 0,-0.1216138 -0.05351,-0.3210603 -0.05351,-0.1994466 -0.111885,-0.3259249 l -0.963181,-2.1258087 1.157763,-0.5642878 1.211273,2.792252 q 0.145937,0.335654 0.257822,0.617798 0.116749,0.2821439 0.262685,0.4524032 0.150801,0.1702593 0.3843,0.1702593 h 0.204311 V 0 H 82.55699 q -0.54483,0 -0.880484,-0.20431113 -0.330789,-0.20917568 -0.583746,-0.53510057 -0.369706,0.3551122 -0.880484,0.54482967 -0.510777,0.18971748 -1.235595,0.18971748 -0.428081,0 -0.724818,-0.0291873 -0.296738,-0.02918731 -0.612934,-0.10702012 V -1.5469271 q 0.301602,0.072968 0.637256,0.1118847 0.340519,0.038916 0.627527,0.038916 0.359977,0 0.70536,-0.058375 0.345383,-0.063239 0.574017,-0.2189048 0.228634,-0.1556656 0.228634,-0.4280805 z m -5.282899,2.21337057 q -0.505914,0 -0.948588,-0.21404023 -0.437809,-0.21890478 -0.856161,-0.53996513 -0.26755,0.26755029 -0.559423,0.45726776 Q 72.477643,0 71.923085,0 h -0.214041 v -1.4058551 h 0.189718 q 0.238363,0 0.42808,-0.184853 0.194582,-0.1848529 0.369706,-0.4767259 0.179989,-0.2967376 0.374571,-0.6226625 0.199446,-0.3307895 0.442674,-0.6226625 0.248092,-0.2967376 0.574017,-0.4815905 0.325925,-0.1848529 0.763734,-0.1848529 0.612934,0 1.060472,0.291873 0.447539,0.2870085 0.690766,0.7637345 0.243228,0.4718614 0.243228,1.0312847 0,0.574017 -0.189718,1.02642018 -0.189717,0.45240321 -0.574017,0.71508895 -0.379434,0.26268574 -0.953451,0.26268574 z M 74.895325,-2.641451 q -0.199446,0 -0.359977,0.1362074 -0.16053,0.1313429 -0.282144,0.3210604 -0.121613,0.1897174 -0.204311,0.3599767 0.141072,0.1264783 0.267551,0.2189048 0.126478,0.092426 0.243227,0.1605302 0.175124,0.097291 0.32106,0.1362074 0.145937,0.038916 0.252957,0.038916 0.257821,0 0.369706,-0.1848529 0.111885,-0.1897175 0.111885,-0.4280805 0,-0.3064667 -0.189718,-0.530236 Q 75.235844,-2.641451 74.895325,-2.641451 Z M 71.24691,-1.9506848 H 67.554716 V -3.0938542 H 71.24691 Z M 63.877116,2.500379 q -1.070201,0 -1.746374,-0.4134868 -0.671308,-0.4134868 -0.992368,-1.10911752 -0.316196,-0.69076619 -0.316196,-1.53719801 0,-0.48159047 0.09243,-1.00696197 0.09729,-0.5253715 0.301602,-1.0702012 l 1.182086,0.4280805 q -0.145937,0.4232159 -0.233499,0.8415673 -0.08756,0.41835132 -0.08756,0.78805717 0,0.47186142 0.165395,0.85129637 0.170259,0.3842995 0.564288,0.60806883 0.394028,0.22863393 1.070201,0.22863393 0.773464,0 1.24046,-0.16053022 0.466997,-0.16053017 0.676173,-0.35997675 0.21404,-0.19944658 0.21404,-0.31133124 0,-0.17025928 -0.165395,-0.22376933 Q 65.681864,0 65.326752,0 h -0.768599 q -0.199446,0 -0.252957,-0.10215556 -0.05351,-0.10215557 -0.102155,-0.27241484 l -0.209176,-0.7540054 q -0.03405,-0.1216137 -0.02432,-0.1994465 0.01459,-0.077833 0.189718,-0.077833 h 2.938189 V 0 h 0.03892 q 0.04378,0.17025927 0.04378,0.27241484 0,0.59347518 -0.394029,1.09938846 Q 66.396953,1.8825811 65.657542,2.1890478 64.922994,2.500379 63.877116,2.500379 Z M 58.302339,-2.3252552 V -6.8201 h 1.308564 v 4.4948448 q 0,0.4572677 0.145937,0.6907662 0.150801,0.2286339 0.593475,0.2286339 h 0.155666 V 0 h -0.145937 q -0.515642,0 -0.841567,-0.15566562 -0.321061,-0.16053017 -0.564288,-0.47186142 -0.257821,0.2967376 -0.603204,0.46213232 Q 58.010466,0 57.441314,0 h -0.296738 v -1.4058551 h 0.262686 q 0.491319,0 0.690766,-0.2189048 0.204311,-0.2237694 0.204311,-0.7004953 z m -3.171688,2.43713987 q -0.505913,0 -0.948588,-0.21404023 -0.437809,-0.21890478 -0.856161,-0.53996513 -0.26755,0.26755029 -0.559423,0.45726776 Q 52.479471,0 51.924912,0 h -0.21404 v -1.4058551 h 0.189717 q 0.238363,0 0.428081,-0.184853 0.194582,-0.1848529 0.369705,-0.4767259 0.179989,-0.2967376 0.374571,-0.6226625 0.199446,-0.3307895 0.442674,-0.6226625 0.248092,-0.2967376 0.574017,-0.4815905 0.325925,-0.1848529 0.763734,-0.1848529 0.612934,0 1.060472,0.291873 0.447539,0.2870085 0.690767,0.7637345 0.243227,0.4718614 0.243227,1.0312847 0,0.574017 -0.189717,1.02642018 -0.189718,0.45240321 -0.574017,0.71508895 -0.379435,0.26268574 -0.953452,0.26268574 z M 54.897152,-2.641451 q -0.199446,0 -0.359976,0.1362074 -0.160531,0.1313429 -0.282144,0.3210604 -0.121614,0.1897174 -0.204311,0.3599767 0.141072,0.1264783 0.26755,0.2189048 0.126478,0.092426 0.243227,0.1605302 0.175124,0.097291 0.321061,0.1362074 0.145936,0.038916 0.252956,0.038916 0.257822,0 0.369706,-0.1848529 0.111885,-0.1897175 0.111885,-0.4280805 0,-0.3064667 -0.189718,-0.530236 -0.189717,-0.2286339 -0.530236,-0.2286339 z m -1.012291,1.5615208 q 0,1.13830481 -0.423216,1.89231016 -0.418351,0.75400534 -1.18695,1.19667944 -0.768599,0.4426741 -1.819342,0.6421207 l -0.481591,-1.298835 q 0.992369,-0.1897175 1.658812,-0.53996514 0.671308,-0.35024765 0.851296,-0.86102547 -0.121613,0.02432276 -0.252956,0.04378096 -0.131343,0.01459365 -0.238363,0.01459365 -0.924265,0 -1.454501,-0.40862225 -0.530236,-0.40862226 -0.530236,-1.34261595 0,-0.3891641 0.116749,-0.7929218 0.11675,-0.4086223 0.350248,-0.7491408 0.233499,-0.3453831 0.578882,-0.5545588 0.345383,-0.2091757 0.80265,-0.2091757 0.525372,0 0.904807,0.2529567 0.384299,0.2529566 0.632391,0.6761725 0.248093,0.4232159 0.369706,0.953452 0.121614,0.530236 0.121614,1.0847948 z m -1.911768,-0.3113313 q 0.209175,0 0.379435,-0.024323 0.175123,-0.024323 0.287008,-0.048645 -0.02919,-0.2480921 -0.111885,-0.5302361 -0.0827,-0.2821439 -0.248092,-0.4815905 -0.16053,-0.2043111 -0.432945,-0.2043111 -0.233498,0 -0.369705,0.1556656 -0.131343,0.1556656 -0.184853,0.3648413 -0.05351,0.2091757 -0.05351,0.3648413 0,0.2626857 0.209175,0.335654 0.21404,0.068104 0.525372,0.068104 z m -3.468889,-3.2008743 0.875619,0.8756191 -0.875619,0.8707546 -0.870755,-0.8707546 z m 0.06324,5.3510057 q 0.70536,0 1.109117,-0.22376933 0.403758,-0.22376933 0.574017,-0.60806883 0.175124,-0.38916405 0.175124,-0.87561912 0,-0.52050692 -0.170259,-1.07506572 -0.165395,-0.5594233 -0.374571,-1.0702011 l 1.298835,-0.4864551 q 0.272415,0.7345472 0.3843,1.3474805 0.116749,0.6129334 0.116749,1.25018957 0,1.44963609 -0.797786,2.29120333 -0.792922,0.8415673 -2.315526,0.8415673 -1.045879,0 -1.726916,-0.3988932 -0.676172,-0.3988931 -1.002097,-1.08965931 -0.325925,-0.69076619 -0.325925,-1.56152076 0,-0.57888153 0.126478,-1.19667943 0.126479,-0.617798 0.364842,-1.2355959 l 1.182085,0.4524032 q -0.179988,0.5156424 -0.301602,1.006962 -0.121614,0.4913196 -0.121614,0.91940007 0,0.46699686 0.165395,0.85616092 0.165395,0.38916405 0.559423,0.62266248 0.394029,0.23349843 1.079931,0.23349843 z M 42.987804,-6.8201 h 1.313429 v 4.4461993 q 0,0.5156423 0.150801,0.7442762 0.150801,0.2237694 0.622662,0.2237694 H 45.19631 V 0 H 45.074696 Q 43.985037,0 43.483988,-0.56428788 42.987804,-1.1285758 42.987804,-2.2571515 Z m -4.217569,5.4142449 h 0.569153 q 0.5351,0 0.734547,-0.1799884 0.204311,-0.1848529 0.204311,-0.671308 0,-0.2870085 -0.01459,-0.5545588 -0.01459,-0.2724148 -0.03405,-0.530236 l 1.216138,-0.1508011 0.09729,1.3912615 q 0.02432,0.3697059 0.204311,0.5351006 0.179989,0.1605302 0.574017,0.1605302 h 0.102156 V 0 H 42.311628 Q 41.825173,0 41.474925,-0.17512382 41.129542,-0.35024765 40.905773,-0.63239159 40.609035,-0.335654 40.200413,-0.16539472 39.796655,0 39.339388,0 H 38.770235 Z M 39.772333,0.57401698 40.647952,1.4496361 39.772333,2.3203907 38.901578,1.4496361 Z M 36.766038,-2.3252552 V -6.8201 h 1.308565 v 4.4948448 q 0,0.4572677 0.145936,0.6907662 0.150801,0.2286339 0.593475,0.2286339 H 38.96968 V 0 h -0.145937 q -0.515642,0 -0.841567,-0.15566562 -0.32106,-0.16053017 -0.564288,-0.47186142 -0.257821,0.2967376 -0.603204,0.46213232 Q 36.474165,0 35.905013,0 h -0.296738 v -1.4058551 h 0.262686 q 0.49132,0 0.690766,-0.2189048 0.204311,-0.2237694 0.204311,-0.7004953 z m -7.082782,0.9194001 q 0.0681,-0.1118847 0.136207,-0.2091757 0.07297,-0.1021556 0.145937,-0.2043111 V -6.8201 h 1.308564 v 3.3516754 q 0.447539,-0.432945 0.909671,-0.6859017 0.466997,-0.2529566 1.016691,-0.2529566 0.617798,0 1.089659,0.2626857 0.476726,0.2578212 0.744277,0.715089 0.272415,0.4524032 0.272415,1.0458784 0,0.6859016 -0.291873,1.1480339 -0.291874,0.45726779 -0.81238,0.72968263 -0.520507,0.27241484 -1.211274,0.38916405 Q 32.305249,0 31.512327,0 H 28.99249 v -1.4058551 z m 3.551122,-1.62476 q -0.37457,0 -0.754005,0.238363 -0.379435,0.2334985 -0.724818,0.6080689 -0.345384,0.3697058 -0.627527,0.7783281 h 0.442674 q 0.656714,0 1.216137,-0.063239 0.564288,-0.068104 0.904807,-0.2578212 0.340518,-0.1897175 0.340518,-0.5642879 0,-0.335654 -0.228634,-0.5351005 -0.223769,-0.2043112 -0.569152,-0.2043112 z m -9.567873,-0.4232159 -0.0049,1.2599187 q -0.617798,0.05351 -1.284242,0.194582 -0.661579,0.1362074 -1.284241,0.3648413 -0.622663,0.2237693 -1.123711,0.5448297 -0.496184,0.31619574 -0.792922,0.72968255 -0.291873,0.40862226 -0.291873,0.91453553 0,0.47186142 0.277279,0.79292172 0.282144,0.3210604 0.75887,0.4815905 0.481591,0.1653948 1.084795,0.1653948 0.685902,0 1.308564,-0.1313429 0.622663,-0.1264783 1.118847,-0.3210603 l 0.394028,1.3182932 q -0.656714,0.2626857 -1.366938,0.3794349 -0.710225,0.1216138 -1.400991,0.1216138 -0.943723,0 -1.717186,-0.2821439 -0.773464,-0.2772794 -1.235596,-0.8902128 -0.457268,-0.6129334 -0.457268,-1.60530172 0,-0.7004953 0.262686,-1.26964772 0.262686,-0.56915246 0.719953,-1.00209746 0.457268,-0.4378095 1.045879,-0.7491408 0.58861,-0.3113312 1.235596,-0.4913196 -0.457268,-0.194582 -0.778329,-0.3161958 -0.32106,-0.1216138 -0.452403,-0.1216138 -0.26755,0 -0.48159,0.1653948 -0.209176,0.1605301 -0.350248,0.3453831 l -0.257821,0.3210603 -1.089659,-0.530236 0.218904,-0.3551122 q 0.345383,-0.5642879 0.831839,-0.9339937 0.486455,-0.3697059 1.13344,-0.3697059 0.26755,0 0.627527,0.1264783 0.364841,0.1264783 0.778328,0.3161958 0.418351,0.1848529 0.861025,0.3745704 0.442675,0.1848529 0.880484,0.3161958 0.43781,0.1313429 0.831838,0.1362074 z m -9.403175,1.8436647 q 0.841568,-0.3551122 0.841568,-1.8339356 V -6.8201 h 1.303699 v 3.6338193 q 0,0.432945 0.04378,0.8464318 0.04865,0.4086223 0.209176,0.671308 0.165394,0.2626858 0.505913,0.2626858 h 0.179988 V 0 H 17.152873 Q 16.549669,0 16.15564,-0.27727939 15.766476,-0.55942333 15.557301,-1.0020974 15.07571,-0.51077782 14.307111,-0.25295663 13.543377,0 12.599654,0 12.336968,0 12.079147,-0.0194582 11.82619,-0.03891641 11.563505,-0.05837461 V -1.4155842 q 0.301602,0.019458 0.603204,0.043781 0.306467,0.019458 0.530236,0.019458 0.08756,0 0.16053,0 0.07783,0 0.145937,-0.00486 0,0 -0.0681,-0.3064667 -0.06324,-0.3064667 -0.189718,-0.8172445 -0.121613,-0.5156424 -0.301602,-1.148034 -0.175124,-0.6323916 -0.398893,-1.2939705 -0.223769,-0.6615789 -0.486455,-1.2501895 l 1.19668,-0.5205069 q 0.26755,0.6226625 0.496184,1.3231578 0.228634,0.6956307 0.413487,1.3620742 0.189717,0.6664434 0.32106,1.2112731 0.136207,0.5399651 0.204311,0.86589 z m -9.0334703,0.014594 q 0.3307894,-0.5448297 0.7004953,-1.050743 0.3697058,-0.5059132 0.7880572,-0.9048064 0.4183514,-0.3988931 0.8902128,-0.627527 0.4718614,-0.2334984 1.006962,-0.2334984 0.6177979,0 1.0896593,0.2626857 0.4767257,0.2626857 0.7442767,0.7199535 0.272414,0.4572677 0.272414,1.0458784 0,0.6859016 -0.291873,1.1480339 -0.291873,0.45726779 -0.8123796,0.72968263 Q 9.0971775,-0.23349843 8.4064113,-0.11674922 7.7205096,0 6.9275879,0 H 6.6697667 Q 5.8622513,0 5.2785052,-0.14107197 4.6947591,-0.28700849 4.3347824,-0.63239159 4.0623675,-0.335654 3.6877971,-0.16539472 3.3132267,0 2.7635325,0 H 2.5640859 l 0.00486,-1.4058551 h 0.194582 q 0.5788815,0 0.768599,-0.1799884 0.194582,-0.1848529 0.194582,-0.6761726 0,-0.2772793 -0.019458,-0.5448296 -0.014594,-0.2724149 -0.034052,-0.5302361 l 1.2161377,-0.150801 0.092426,1.3863969 q 0.019458,0.194582 0.077833,0.3405186 0.063239,0.1410719 0.1702593,0.1653947 z m 3.4197791,-1.4350425 q -0.3745704,0 -0.7540053,0.238363 -0.379435,0.2334985 -0.7248181,0.6080689 -0.3453831,0.3697058 -0.627527,0.7783281 h 0.4426741 q 0.6567143,0 1.2161377,-0.063239 0.5642878,-0.068104 0.9048064,-0.2578212 0.3405185,-0.1897175 0.3405185,-0.5642879 0,-0.335654 -0.2286339,-0.5351005 Q 8.9950219,-3.0306151 8.6496388,-3.0306151 Z M 1.9997981,-6.8201 v 6.81523545 H 0.68636939 V -6.8201 Z"
       id="text1"
       transform="matrix(1.3333333,0,0,1.3333333,227.232,41.92)"
       aria-label="ﺎﻫ ﯽﺒﻫﺬﻣ-ﯽﻠﻣونﺎﺒﻠﻃ حﻼﺻا" />
    <path
       id="path2"
       d="m -104.59373,-42.9187 h -103.4245 c -2.75119,0 -4.98139,-2.23021 -4.98139,-4.98139 v -18.38403 c 0,-2.75118 2.2302,-4.98138 4.98139,-4.98138 h 103.4245 c 2.75117,0 4.98138,2.2302 4.98138,4.98138 v 18.38403 c 0,2.75118 -2.23021,4.98139 -4.98138,4.98139 z"
       style="fill:#fff8dc;fill-opacity:1;fill-rule:nonzero;stroke:#b8860b;stroke-width:0.3985;stroke-linecap:butt;stroke-linejoin:miter;stroke-miterlimit:10;stroke-dasharray:none;stroke-opacity:1"
       transform="matrix(1.3333333,0,0,-1.3333333,304.18667,39.082667)" />
    <g
       id="text2"
       transform="matrix(1.3333333,0,0,1.3333333,67.309333,110.936)"
       aria-label="ﺖﻀﻬﻧیدازآ(لﺎﻌﻓ ﻢﮐ)">
      <path
         style="font-size:8.9664px;font-family:Vazirmatn"
         d="m 35.421871,-4.2949407 0.612937,0.6085594 -0.612937,0.6173156 -0.60856,-0.6173156 z m -1.453538,0 0.612938,0.6085594 -0.612938,0.6173156 -0.608559,-0.6173156 z m 3.375535,1.7074688 0.731146,-0.087562 0.07443,1.0244812 q 0.02627,0.4159219 0.236418,0.6348282 0.214528,0.21890624 0.639207,0.21890624 h 0.105075 V 0 h -0.105075 q -0.494729,0 -0.814332,-0.18388125 -0.315225,-0.18825938 -0.520997,-0.59980314 -0.363384,0.42030001 -0.93254,0.60418126 Q 36.192421,0 35.185452,0 h -0.731147 q -1.650553,0 -2.482397,-0.44656876 -0.827466,-0.44656875 -0.827466,-1.54547814 0,-0.3020906 0.06567,-0.5910469 0.07005,-0.2889562 0.179503,-0.5560219 l 0.67861,0.2539313 q -0.07005,0.1926375 -0.11821,0.4115437 -0.04378,0.2189063 -0.04378,0.4159219 0.0044,0.5122406 0.288956,0.7880625 0.284579,0.27144378 0.849357,0.37214066 0.564778,0.10069688 1.409756,0.10069688 h 0.731147 q 1.046372,0 1.619906,-0.21890624 0.577913,-0.2189063 0.577913,-0.7968188 0,-0.1795031 -0.01313,-0.385275 -0.0088,-0.2057719 -0.02627,-0.3896531 z m -9.163419,-3.0734438 0.634828,0.6348281 -0.634828,0.6348282 -0.634828,-0.6348282 z M 26.840743,0 H 26.608702 Q 25.68054,0 25.194568,-0.175125 24.708596,-0.35025001 24.507202,-0.66547501 24.253271,-0.31960313 23.933668,-0.1576125 23.618443,0 23.093068,0 h -0.179503 l 0.0044,-0.79681876 h 0.175125 q 0.612937,0 0.823087,-0.25830934 0.214529,-0.2626875 0.214529,-0.7574157 0,-0.21015 -0.01751,-0.3896531 -0.01313,-0.1795031 -0.02189,-0.385275 l 0.731147,-0.087562 0.06567,1.0244812 q 0.02189,0.2933344 0.122588,0.5078626 0.100697,0.21014996 0.310847,0.21014996 0.783684,-1.33095006 1.532343,-1.96140006 0.753038,-0.6348281 1.506075,-0.6348281 0.499107,0 0.884382,0.2189062 0.389653,0.2145282 0.608559,0.5866688 0.218906,0.3721406 0.218906,0.8406 -0.0044,0.5647782 -0.337115,1.00259066 0.126965,0.0306469 0.328359,0.0569156 0.205772,0.0262688 0.604181,0.0262688 h 0.131344 V 0 H 30.671602 Q 30.11558,0 29.752196,-0.11383125 29.39319,-0.2276625 29.148015,-0.42905626 28.789009,-0.2276625 28.20234,-0.11383125 27.615671,0 26.840743,0 Z m 1.554234,-2.73195 q -1.055128,0 -2.281003,1.93513124 h 0.709256 q 1.247766,0 1.860704,-0.24955314 0.612937,-0.2495531 0.612937,-0.7924406 0,-0.385275 -0.249553,-0.6392063 Q 28.802143,-2.73195 28.394977,-2.73195 Z M 18.447878,0 v -0.79681876 h 0.906272 v -0.0788063 q 0,-0.46845939 0.08318,-0.95005319 0.08756,-0.4859718 0.271444,-0.8931375 0.183881,-0.4115437 0.481594,-0.6610969 0.30209,-0.2495531 0.731147,-0.2495531 0.556021,0 0.871246,0.3896531 0.315226,0.3896532 0.315226,1.0157251 0,0.4071656 -0.161991,0.8011969 -0.161991,0.3940312 -0.442191,0.71801246 -0.2802,0.32398126 -0.639206,0.51661876 -0.359006,0.19263751 -0.753038,0.19263751 0.08756,0.3677625 0.345872,0.74865938 0.25831,0.38089689 0.643585,0.63044999 0,-2.18030626 1.84319,-2.18030626 h 0.144479 V 0 H 22.935456 Q 22.348787,0 22.051075,0.31960313 21.75774,0.63920626 21.75774,1.401 q 0,0.096319 0.0044,0.2013938 0.0044,0.1094531 0.01313,0.2145281 L 21.232365,2.346675 Q 20.488084,1.9701563 20.024003,1.3528406 19.559922,0.73990314 19.415444,0 Z m 2.464884,-2.8589157 q -0.262687,0 -0.450947,0.2626875 -0.188259,0.2626875 -0.288956,0.7136344 -0.09632,0.4465688 -0.09632,1.00259066 v 0.0875625 q 0.367763,0 0.669854,-0.19701563 0.30209,-0.19701563 0.481593,-0.52099683 0.179503,-0.3283594 0.179503,-0.7136344 0,-0.3108469 -0.1401,-0.4728375 -0.135721,-0.1619907 -0.354628,-0.1619907 z M 16.604688,0 h -0.713635 v -0.79681876 h 0.704878 q 0.437813,0 0.591047,-0.25393124 0.157613,-0.2539313 0.157613,-0.6435844 0,-0.2845781 -0.05254,-0.6085594 -0.05254,-0.3239812 -0.113831,-0.6523406 l 0.761794,-0.1926375 q 0.07443,0.35025 0.118209,0.6873656 0.04378,0.3371156 0.04378,0.6435844 0,0.525375 -0.144478,0.93691876 -0.144478,0.41154376 -0.472837,0.64796251 Q 17.156331,0 16.604688,0 Z m 0.534131,-5.1661876 0.634828,0.6348282 -0.634828,0.6348281 -0.634828,-0.6348281 z m -1.64677,4.36936884 h 0.950053 q 0.437812,0 0.591047,-0.25393124 0.157612,-0.2539313 0.157612,-0.6435844 0,-0.2845781 -0.05254,-0.6085594 -0.05254,-0.3239812 -0.113832,-0.6523406 l 0.761794,-0.1926375 q 0.07443,0.35025 0.11821,0.6873656 0.04378,0.3371156 0.04378,0.6435844 0,0.525375 -0.144478,0.93691876 -0.144478,0.41154376 -0.472838,0.64796251 Q 17.002502,0 16.450858,0 h -0.958809 z m 1.580503,1.49294065 0.612937,0.60855941 -0.612937,0.6173156 -0.60856,-0.6173156 z m -1.453538,0 0.612938,0.60855941 -0.612938,0.6173156 -0.608559,-0.6173156 z M 13.775823,-1.5936375 q 0,-0.1138313 -0.05254,-0.2933344 -0.04816,-0.1838813 -0.118209,-0.3414938 l -0.774928,-1.7556281 0.682987,-0.3196031 0.993834,2.3379187 q 0.201394,0.4728376 0.35025,0.7267688 0.153235,0.25393126 0.297713,0.35025001 0.148856,0.0919406 0.337116,0.0919406 h 0.183881 V 0 h -0.183881 q -0.345872,0 -0.564779,-0.08318438 -0.214528,-0.08318437 -0.37214,-0.24955313 -0.157613,-0.16636875 -0.319603,-0.4203 -0.306469,0.385275 -0.783685,0.56915626 -0.472837,0.17950312 -1.182093,0.17950312 -0.306469,0 -0.551644,-0.02626875 -0.245175,-0.03064687 -0.464082,-0.08318437 v -0.79244064 q 0.503485,0.11820938 0.950054,0.11820938 1.571747,0 1.571747,-0.80557499 z m -3.625088,-4.4350407 v 6.02430007 H 9.4108314 V -6.0286782 Z M 6.8793303,-4.5050907 7.5141584,-3.8702626 6.8793303,-3.2354344 6.2445021,-3.8702626 Z M 5.2769365,2.3554313 5.0186271,1.6593094 q 1.0682625,-0.2320406 1.506075,-0.81433126 0.4378125,-0.57791251 0.4378125,-1.37035315 0,-0.37214063 -0.083184,-0.77930629 Q 6.800524,-1.716225 6.6560459,-2.1409032 l 0.7267687,-0.245175 q 0.3152251,0.8975157 0.3152251,1.72935944 0,0.73114689 -0.2583094,1.35284065 Q 7.185799,1.3221938 6.6472896,1.7556282 6.1131584,2.1934407 5.2769365,2.3554313 Z M 5.0799203,-6.5759439 q 0.061294,0.030647 0.1269657,0.030647 0.1225875,0 0.4378125,-0.2845781 l 0.2232843,-0.2013938 0.3984094,0.3590063 -0.245175,0.2320406 q -0.2320406,0.2189063 -0.4071656,0.3239813 -0.1707469,0.1006969 -0.3458719,0.1006969 -0.1663687,0 -0.3940312,-0.1006969 L 4.3093703,-6.3745501 q -0.061294,-0.026269 -0.1138312,-0.043781 -0.052538,-0.017513 -0.1006969,-0.017513 -0.096319,0 -0.2189063,0.078806 -0.1225875,0.078806 -0.3283593,0.2845781 L 3.2980234,-5.8229063 2.8996141,-6.1819126 3.1535453,-6.4446001 q 0.2845781,-0.2933344 0.4815938,-0.4115438 0.2013937,-0.1225875 0.3808968,-0.1225875 0.1182094,0 0.2364188,0.039403 0.1225875,0.039403 0.2626875,0.105075 z m -0.065672,1.1164219 v 5.45514387 H 4.2743453 V -5.459522 Z"
         id="path8" />
      <path
         style="font-size:7.9701px;font-family:Vazirmatn"
         d="m 34.854994,8.6580348 q 0,-0.7316302 -0.155666,-1.4321273 Q 34.547554,6.5215188 34.244005,5.9494462 33.940457,5.3773736 33.496808,5.0388 l 0.147883,-0.4747813 q 0.431973,0.233499 0.782222,0.6499056 0.350248,0.4164065 0.599314,0.9651292 0.252957,0.5448311 0.389165,1.1791701 0.136208,0.634339 0.136208,1.2998112 0,0.6654722 -0.136208,1.2998112 -0.136208,0.634339 -0.389165,1.17917 -0.249066,0.548723 -0.599314,0.965129 -0.350249,0.416407 -0.782222,0.649906 L 33.496808,12.27727 q 0.443649,-0.338574 0.747197,-0.910647 0.303549,-0.572072 0.455323,-1.272569 0.155666,-0.7043889 0.155666,-1.4360192 z m -2.101491,1.8485342 q 0,1.229761 -0.525373,1.805726 -0.525373,0.575964 -1.53331,0.575964 -0.723847,0 -1.17917,-0.260741 -0.455323,-0.256849 -0.669364,-0.719955 -0.214041,-0.463107 -0.214041,-1.074096 0,-0.412515 0.08562,-0.8444878 0.08562,-0.4358648 0.233499,-0.8483797 l 0.618773,0.2490656 q -0.112858,0.3580318 -0.190691,0.7355219 -0.07783,0.37749 -0.07783,0.73163 0,0.630448 0.319115,0.980696 0.323007,0.350249 1.074096,0.350249 0.696605,0 1.046854,-0.381382 0.35414,-0.381382 0.35414,-1.229762 V 5.5991976 h 0.657689 z M 26.75647,5.5991976 h 0.657689 v 3.7204178 q 0,0.5487227 0.202366,0.7394136 0.202366,0.190691 0.610989,0.190691 h 0.09729 V 10.958 h -0.09729 q -0.743305,0 -1.109121,-0.393057 Q 26.75647,10.167995 26.75647,9.3157237 Z m -2.73583,2.315532 q 0.299657,0 0.618772,0.050591 0.319116,0.0467 0.591531,0.1362077 0.276307,0.089508 0.44754,0.2179324 0.171232,0.1284245 0.171232,0.2879822 0,0.1128578 -0.120641,0.311332 -0.116749,0.1984742 -0.303548,0.4280815 -0.182908,0.2296074 -0.385274,0.4436482 -0.202366,0.2101489 -0.369707,0.3580319 0.272416,0.07005 0.51759,0.08562 0.245174,0.01557 0.443648,0.01557 h 0.607098 V 10.958 h -0.603206 q -0.408624,0 -0.817247,-0.09729 -0.404732,-0.09729 -0.797788,-0.323007 -0.256849,0.147883 -0.595423,0.241282 -0.334682,0.0934 -0.677147,0.136208 Q 22.409497,10.958 22.137081,10.958 H 21.5222 v -0.70828 h 0.618773 q 0.132316,0 0.35414,-0.0039 0.225716,-0.0078 0.463106,-0.02724 0.241283,-0.02335 0.420298,-0.07005 Q 23.211177,10.000654 23.008811,9.7905051 22.806445,9.5764643 22.619646,9.3468569 22.436738,9.1172496 22.316097,8.9187754 22.195456,8.7203012 22.195456,8.6074434 q 0,-0.1595577 0.167341,-0.2879822 0.167341,-0.1284244 0.439756,-0.2179324 0.276307,-0.089508 0.595423,-0.1362077 0.319115,-0.050591 0.622664,-0.050591 z m 0,0.6693639 q -0.175124,0 -0.502023,0.027242 -0.323007,0.027242 -0.610989,0.1245328 0.252957,0.3191154 0.509806,0.5720726 0.256849,0.2529573 0.428082,0.4047317 0.175124,0.1478827 0.175124,0.1478827 0,0 0.175124,-0.1478827 0.175124,-0.1517744 0.435865,-0.4047317 0.26074,-0.2529572 0.509806,-0.5720726 Q 24.853453,8.6385766 24.526554,8.611335 24.199656,8.5840935 24.02064,8.5840935 Z M 19.654208,5.1088497 20.218497,5.673139 19.654208,6.2374283 19.089919,5.673139 Z M 19.358443,10.24972 q 0.439756,0 0.70828,-0.05059 0.272415,-0.05059 0.396948,-0.2218237 0.128425,-0.1751243 0.128425,-0.5409394 -0.190691,0.058375 -0.389165,0.089508 -0.194583,0.031133 -0.420299,0.031133 -1.323161,0 -1.323161,-1.0857705 0,-0.3735984 0.147883,-0.7471969 0.151774,-0.3735984 0.443648,-0.622664 0.291874,-0.2529573 0.708281,-0.2529573 0.381381,0 0.653797,0.1945825 0.276307,0.1945825 0.451431,0.5253728 0.179016,0.3268987 0.264633,0.7433052 0.08562,0.412515 0.08562,0.8522715 0,0.5798559 -0.105075,0.9378876 -0.101183,0.35414 -0.326898,0.54094 -0.225716,0.182907 -0.58764,0.249065 -0.361923,0.06616 -0.883404,0.06616 h -1.432128 v -0.70828 z m 0.478673,-1.3620778 q 0.179016,0 0.35414,-0.031133 0.179016,-0.035025 0.358032,-0.085616 -0.03113,-0.2763072 -0.11675,-0.5603977 -0.08173,-0.2840904 -0.245174,-0.4747813 -0.163449,-0.1945825 -0.435865,-0.1945825 -0.241282,0 -0.389165,0.1517743 -0.143991,0.1517744 -0.210149,0.3619235 -0.06227,0.2101491 -0.06227,0.3891651 0,0.2685238 0.190691,0.3580318 0.194582,0.085616 0.556506,0.085616 z m -6.879909,0.5798559 q 0.0467,0.3346819 0.241282,0.5603979 0.198474,0.221824 0.455323,0.221824 h 0.105075 V 10.958 h -0.105075 q -0.237391,0 -0.47089,-0.101183 -0.229607,-0.101183 -0.381381,-0.342465 -0.132316,0.249066 -0.37749,0.37749 -0.245174,0.128425 -0.626556,0.128425 -0.229608,0 -0.466998,-0.07394 -0.233499,-0.07394 -0.451432,-0.167341 -0.21404,-0.09729 -0.393056,-0.171232 -0.179016,-0.07394 -0.299657,-0.07394 -0.2179328,0 -0.3307907,0.143991 -0.1089662,0.1401 -0.1478827,0.478673 -0.035025,0.338574 -0.035025,0.937888 0,0.264632 0.00389,0.47089 0.00778,0.210149 0.019458,0.412515 0.015567,0.202366 0.031133,0.459214 H 9.057773 q -0.019458,-0.358031 -0.031133,-0.673255 -0.011675,-0.311332 -0.011675,-0.630447 0,-0.435865 0.02335,-0.828922 0.027242,-0.393057 0.1206411,-0.70828 0.097291,-0.319116 0.2996571,-0.525373 0.2023658,-0.2101492 0.556506,-0.2763073 0.217932,-0.7588718 0.568181,-1.190845 0.35414,-0.4358648 0.965129,-0.4358648 0.358032,0 0.657689,0.1712326 0.299657,0.167341 0.498131,0.4631064 0.202366,0.2918738 0.252958,0.6654722 z m -0.630448,0.3307903 q 0,-0.40084 -0.21404,-0.6693639 -0.214041,-0.2724155 -0.548723,-0.2724155 -0.241282,0 -0.408623,0.1517744 -0.167341,0.1478827 -0.280199,0.3930566 -0.112858,0.2412824 -0.198474,0.5175895 0.424189,0.1867995 0.704388,0.2957655 0.284091,0.105075 0.42419,0.105075 0.256849,0 0.389165,-0.1401 0.132316,-0.143991 0.132316,-0.3813816 z M 5.9483445,7.1830993 Q 6.2869181,7.42049 6.6527332,7.6851222 7.0185484,7.9458628 7.333772,8.2455199 7.6528874,8.5412853 7.8474699,8.8798589 8.0459441,9.2145408 8.0459441,9.5959226 8.0420524,10.31977 7.5439212,10.638885 7.0496816,10.958 5.9639111,10.958 H 5.0143484 v -0.70828 h 0.9456711 q 0.7549801,0 1.0818788,-0.132316 0.3268986,-0.1362081 0.3268986,-0.537048 0,-0.256849 -0.1829076,-0.5020229 Q 7.0068734,8.8331591 6.7188913,8.5957684 6.4348008,8.3544861 6.1079022,8.1248787 5.7810036,7.8913797 5.4930214,7.665664 5.3684886,7.5644811 5.3023306,7.4282733 5.2361725,7.2920655 5.2361725,7.1558578 q 0,-0.1595577 0.085616,-0.2996571 Q 5.4112968,6.7122096 5.598096,6.6382683 L 8.3961926,5.5019064 V 6.1907285 Z M 3.5822212,8.6580348 q 0,0.7316303 0.155666,1.4360192 0.155666,0.700497 0.4553231,1.272569 0.3035487,0.572073 0.7471968,0.910647 L 4.7925244,12.752051 Q 4.3605512,12.518552 4.0103027,12.102145 3.6600542,11.685739 3.4070969,11.137016 3.1580313,10.592185 3.0218235,9.957846 2.8856158,9.323507 2.8856158,8.6580348 q 0,-0.6654722 0.1362077,-1.2998112 Q 3.1580313,6.7238846 3.4070969,6.1790535 3.6600542,5.6303308 4.0103027,5.2139243 4.3605512,4.7975177 4.7925244,4.5640187 L 4.9404071,5.0388 Q 4.496759,5.3773736 4.1932103,5.9494462 3.8935532,6.5215188 3.7378872,7.2259075 3.5822212,7.9264046 3.5822212,8.6580348 Z"
         id="path9" />
    </g>
    <path
       id="path3"
       d="m 51.71225,-42.9187 h -103.4245 c -2.75117,0 -4.98138,-2.23021 -4.98138,-4.98139 v -18.38403 c 0,-2.75118 2.23021,-4.98138 4.98138,-4.98138 h 103.4245 c 2.75117,0 4.98138,2.2302 4.98138,4.98138 v 18.38403 c 0,2.75118 -2.23021,4.98139 -4.98138,4.98139 z"
       style="fill:#fff8dc;fill-opacity:1;fill-rule:nonzero;stroke:#b8860b;stroke-width:0.3985;stroke-linecap:butt;stroke-linejoin:miter;stroke-miterlimit:10;stroke-dasharray:none;stroke-opacity:1"
       transform="matrix(1.3333333,0,0,-1.3333333,304.18667,39.082667)" />
    <path
       style="font-size:8.9664px;font-family:Vazirmatn"
       d="m 49.241367,-6.0286782 h 0.739903 v 4.1854875 q 0,0.6173157 0.227663,0.8318438 0.227662,0.21452814 0.687366,0.21452814 h 0.109453 V 0 H 50.896299 Q 50.060077,0 49.648533,-0.44219063 49.241367,-0.88875939 49.241367,-1.8475688 Z m -4.557628,2.4736406 0.345872,-0.6479625 q 1.571747,0.7661719 2.342297,1.3703532 0.77055,0.5998031 0.77055,1.225875 0,0.77492814 -0.481594,1.16895939 -0.477216,0.39403126 -1.282791,0.39403126 -0.30209,0 -0.643584,-0.04815938 Q 45.392995,-0.1401 45.086527,-0.21015 44.780058,-0.28457813 44.569908,-0.35462813 44.189011,-0.21452813 43.67677,-0.105075 43.16453,0 42.687314,0 H 42.25388 v -0.79681876 h 0.376518 q 0.288957,0 0.507863,-0.0131344 0.223284,-0.0131344 0.485972,-0.0437812 Q 43.322142,-1.0989094 43.18642,-1.3878656 43.055076,-1.6812 43.055076,-1.9920469 q 0,-0.455325 0.214529,-0.7836844 0.214528,-0.3283594 0.569156,-0.5034844 0.354628,-0.1795031 0.774928,-0.1795031 0.188259,0 0.376519,0.048159 -0.148856,-0.07005 -0.306469,-0.1444782 z m 0.792441,2.71881571 q 0.192637,0.0218906 0.4203,0.0437812 0.227662,0.0175125 0.402787,0.0175125 0.529753,0 0.805575,-0.19701563 0.2802,-0.20139373 0.2802,-0.62169373 0,-0.2145282 -0.245175,-0.4640813 -0.245175,-0.2539312 -0.656719,-0.5209969 -0.407165,-0.2714437 -0.901893,-0.5341312 0.240797,0.1926375 0.385275,0.4640812 0.148856,0.2714438 0.148856,0.5735344 0,0.4115438 -0.166369,0.7048782 -0.16199,0.2889562 -0.472837,0.53413121 z M 43.808114,-2.0008032 q 0,0.2583094 0.214528,0.5166188 0.218906,0.2539313 0.63045,0.4115438 0.788063,-0.3196032 0.788063,-0.9194063 0,-0.3808969 -0.232041,-0.5779125 -0.227662,-0.2013938 -0.551644,-0.2013938 -0.376518,0 -0.612937,0.21015 -0.236419,0.21015 -0.236419,0.5604 z m -9.079636,4.2555376 q -0.945675,0 -1.514831,-0.3458719 -0.564778,-0.3458718 -0.818709,-0.92378436 -0.249553,-0.57353438 -0.249553,-1.26090002 0,-0.2977125 0.04378,-0.68736564 0.04816,-0.38965308 0.214528,-0.88875938 l 0.696122,0.2583094 q -0.126966,0.4378125 -0.166369,0.77492811 -0.03503,0.33711563 -0.03503,0.56915626 0,0.47283751 0.166369,0.86249064 0.166369,0.38965309 0.564778,0.62169379 0.402788,0.2320406 1.098909,0.2320406 0.656719,0 1.125179,-0.1619906 0.472837,-0.1619907 0.72239,-0.38527503 0.253932,-0.22328438 0.253932,-0.40716564 0,-0.21015 -0.183882,-0.35900625 -0.179503,-0.14885625 -0.586669,-0.14885625 h -0.647962 q -0.08756,0 -0.126966,-0.07442813 -0.0394,-0.07880625 -0.07443,-0.20139375 l -0.118209,-0.42030001 q -0.0044,-0.035025 0.01751,-0.0656719 0.02189,-0.035025 0.07881,-0.035025 h 2.429859 v 0.79681877 h -0.179503 q 0.06567,0.13134375 0.08318,0.24955312 0.02189,0.11820938 0.02189,0.24517501 0,0.28895625 -0.170747,0.59542504 -0.166369,0.3108468 -0.516619,0.5735344 -0.345872,0.2626875 -0.875625,0.4246781 -0.529753,0.1619906 -1.252144,0.1619906 z m -6.216937,-3.05155316 h 0.51224 q 0.556022,0 0.792441,-0.24955314 0.240797,-0.2495531 0.240797,-0.7661719 0,-0.21015 -0.01314,-0.3984094 -0.0088,-0.1882593 -0.02627,-0.3765187 l 0.731147,-0.087562 0.07005,1.0244812 q 0.05254,0.85373444 0.888759,0.85373444 h 0.09194 V 0 H 31.698816 Q 31.212844,0 30.919509,-0.175125 30.630553,-0.35025001 30.45105,-0.66985314 30.214631,-0.32398126 29.829356,-0.16199063 29.444081,0 29.023781,0 h -0.51224 z m 0.901893,1.4666719 0.634829,0.63482816 -0.634829,0.6348281 -0.634828,-0.6348281 z M 24.715708,-3.5550376 25.06158,-4.2030001 q 1.571747,0.7661719 2.342297,1.3703532 0.77055,0.5998031 0.77055,1.225875 0,0.77492814 -0.481594,1.16895939 -0.477215,0.39403126 -1.282791,0.39403126 -0.30209,0 -0.643584,-0.04815938 Q 25.424964,-0.1401 25.118496,-0.21015 24.812027,-0.28457813 24.601877,-0.35462813 24.22098,-0.21452813 23.708739,-0.105075 23.196499,0 22.719283,0 h -0.433434 v -0.79681876 h 0.376518 q 0.288957,0 0.507863,-0.0131344 0.223284,-0.0131344 0.485972,-0.0437812 Q 23.354111,-1.0989094 23.218389,-1.3878656 23.087046,-1.6812 23.087046,-1.9920469 q 0,-0.455325 0.214528,-0.7836844 0.214528,-0.3283594 0.569156,-0.5034844 0.354628,-0.1795031 0.774928,-0.1795031 0.188259,0 0.376519,0.048159 -0.148856,-0.07005 -0.306469,-0.1444782 z m 0.792441,2.71881571 q 0.192637,0.0218906 0.4203,0.0437812 0.227662,0.0175125 0.402787,0.0175125 0.529753,0 0.805575,-0.19701563 0.2802,-0.20139373 0.2802,-0.62169373 0,-0.2145282 -0.245175,-0.4640813 -0.245175,-0.2539312 -0.656719,-0.5209969 -0.407165,-0.2714437 -0.901893,-0.5341312 0.240797,0.1926375 0.385275,0.4640812 0.148856,0.2714438 0.148856,0.5735344 0,0.4115438 -0.166369,0.7048782 -0.16199,0.2889562 -0.472837,0.53413121 z M 23.840083,-2.0008032 q 0,0.2583094 0.214528,0.5166188 0.218906,0.2539313 0.63045,0.4115438 0.788063,-0.3196032 0.788063,-0.9194063 0,-0.3808969 -0.232041,-0.5779125 -0.227662,-0.2013938 -0.551644,-0.2013938 -0.376518,0 -0.612937,0.21015 -0.236419,0.21015 -0.236419,0.5604 z m -4.023497,-4.2161344 0.634828,0.6348281 -0.634828,0.6348282 -0.634828,-0.6348282 z m 0.744281,4.6233001 q 0,-0.1138313 -0.05254,-0.2933344 -0.04816,-0.1838813 -0.11821,-0.3414938 l -0.774928,-1.7556281 0.682988,-0.3196031 0.993834,2.3379187 q 0.201394,0.4728376 0.35025,0.7267688 0.153234,0.25393126 0.297713,0.35025001 0.148856,0.0919406 0.337115,0.0919406 h 0.183881 V 0 h -0.183881 q -0.345872,0 -0.564778,-0.08318438 -0.214528,-0.08318437 -0.372141,-0.24955313 -0.157612,-0.16636875 -0.319603,-0.4203 -0.306468,0.385275 -0.783684,0.56915626 -0.472838,0.17950312 -1.182094,0.17950312 -0.306469,0 -0.551644,-0.02626875 -0.245175,-0.03064687 -0.464081,-0.08318437 v -0.79244064 q 0.503485,0.11820938 0.950053,0.11820938 1.571747,0 1.571747,-0.80557499 z m -4.767778,1.69433438 q -0.437812,0 -0.809953,-0.18825938 Q 14.615374,-0.2802 14.216964,-0.66547501 13.932386,-0.34587188 13.669699,-0.17074688 13.407011,0 12.929795,0 h -0.192637 v -0.79681876 h 0.170747 q 0.293334,0 0.494728,-0.16636876 0.201394,-0.17074688 0.359006,-0.43781248 0.157613,-0.2670657 0.310847,-0.5647782 0.157613,-0.3020906 0.35025,-0.5691562 0.192638,-0.2670656 0.464081,-0.4334344 0.275822,-0.1707469 0.67861,-0.1707469 0.485972,0 0.844978,0.2364188 0.363384,0.2320406 0.5604,0.6260719 0.201394,0.3940312 0.201394,0.8800031 0,0.71363439 -0.363385,1.10766565 -0.359006,0.38965313 -1.015725,0.38965313 z m -0.21015,-2.46488438 q -0.218906,0 -0.398409,0.1488562 -0.179503,0.1444781 -0.323981,0.3765188 -0.144479,0.2320406 -0.25831,0.4815937 0.262688,0.2758219 0.542888,0.45094691 0.359006,0.23204063 0.639206,0.23204063 0.647962,0 0.647962,-0.65234064 0,-0.455325 -0.227662,-0.7442813 -0.223284,-0.2933343 -0.621694,-0.2933343 z m -3.371157,0.4246781 H 9.2565475 V -2.6006063 H 12.211782 Z M 5.84161,2.2547344 q -0.945675,0 -1.5148313,-0.3458719 Q 3.7620006,1.5629907 3.5080693,0.98507814 3.2585162,0.41154376 3.2585162,-0.27582188 q 0,-0.2977125 0.043781,-0.68736564 0.048159,-0.38965308 0.2145281,-0.88875938 l 0.6961219,0.2583094 q -0.1269657,0.4378125 -0.1663688,0.77492811 -0.035025,0.33711563 -0.035025,0.56915626 0,0.47283751 0.1663688,0.86249064 0.1663687,0.38965309 0.5647781,0.62169379 0.4027875,0.2320406 1.0989094,0.2320406 0.6567188,0 1.1251781,-0.1619906 Q 7.4396257,1.1426906 7.6891788,0.91940627 7.94311,0.69612189 7.94311,0.51224063 q 0,-0.21015 -0.1838812,-0.35900625 Q 7.5797257,0.00437813 7.17256,0.00437813 H 6.5245975 q -0.087562,0 -0.1269656,-0.07442813 -0.039403,-0.07880625 -0.074428,-0.20139375 L 6.2049944,-0.69174376 q -0.00438,-0.035025 0.017512,-0.0656719 0.021891,-0.035025 0.078806,-0.035025 H 8.7311725 V 0.00437813 H 8.5516694 q 0.065672,0.13134375 0.083184,0.24955312 0.021891,0.11820938 0.021891,0.24517501 0,0.28895625 -0.1707469,0.59542504 Q 8.3196288,1.4053781 7.9693788,1.6680657 7.6235069,1.9307532 7.0937538,2.0927438 6.5640006,2.2547344 5.84161,2.2547344 Z M 1.1482602,-1.9176188 v -4.1110594 h 0.7399031 v 4.1241938 q 0,0.4815938 0.1882594,0.7968188 0.1926375,0.31084684 0.6961219,0.31084684 h 0.1401 V 0 H 2.7813008 Q 2.2909508,0 2.0019946,-0.17074688 1.7130383,-0.34149376 1.5422914,-0.66547501 1.3978133,-0.45094688 1.248957,-0.30209063 1.1044789,-0.15323438 0.87681641,-0.07442813 0.65353203,0 0.2638789,0 h -0.37651876 v -0.79681876 h 0.36776251 q 0.3677625,0 0.55602188,-0.14447813 Q 1.003782,-1.0901531 1.073832,-1.3440844 q 0.074428,-0.2539313 0.074428,-0.5735344 z m -2.9858816,2.01831568 q -0.4378125,0 -0.8099532,-0.18825938 Q -3.0153371,-0.2802 -3.4137464,-0.66547501 -3.6983246,-0.34587188 -3.9610121,-0.17074688 -4.2236996,0 -4.7009152,0 h -0.1926375 v -0.79681876 h 0.1707469 q 0.2933343,0 0.4947281,-0.16636876 Q -4.026684,-1.1339344 -3.8690715,-1.401 q 0.1576125,-0.2670657 0.3108469,-0.5647782 0.1576125,-0.3020906 0.35025,-0.5691562 0.1926375,-0.2670656 0.4640813,-0.4334344 0.2758219,-0.1707469 0.6786094,-0.1707469 0.4859719,0 0.8449781,0.2364188 0.3633844,0.2320406 0.56040002,0.6260719 0.20139376,0.3940312 0.20139376,0.8800031 0,0.71363439 -0.36338438,1.10766565 -0.3590063,0.38965313 -1.015725,0.38965313 z m -0.21015,-2.46488438 q -0.2189063,0 -0.3984094,0.1488562 -0.1795031,0.1444781 -0.3239813,0.3765188 -0.1444781,0.2320406 -0.2583093,0.4815937 0.2626875,0.2758219 0.5428875,0.45094691 0.3590062,0.23204063 0.6392062,0.23204063 0.6479625,0 0.6479625,-0.65234064 0,-0.455325 -0.2276625,-0.7442813 -0.2232843,-0.2933343 -0.6216937,-0.2933343 z"
       id="text3"
       transform="matrix(1.3333333,0,0,1.3333333,269.68933,112.04533)"
       aria-label="ﺎﻫ ﯽﺒﻫﺬﻣ-ﯽﻠﻣ" />
    <path
       id="path4"
       d="m 208.01823,-42.9187 h -103.4245 c -2.75117,0 -4.98138,-2.23021 -4.98138,-4.98139 v -18.38403 c 0,-2.75118 2.23021,-4.98138 4.98138,-4.98138 h 103.4245 c 2.75119,0 4.98139,2.2302 4.98139,4.98138 v 18.38403 c 0,2.75118 -2.2302,4.98139 -4.98139,4.98139 z"
       style="fill:#fff8dc;fill-opacity:1;fill-rule:nonzero;stroke:#b8860b;stroke-width:0.3985;stroke-linecap:butt;stroke-linejoin:miter;stroke-miterlimit:10;stroke-dasharray:none;stroke-opacity:1"
       transform="matrix(1.3333333,0,0,-1.3333333,304.18667,39.082667)" />
    <g
       id="text4"
       transform="matrix(1.3333333,0,0,1.3333333,458.47733,110.52667)"
       aria-label="نﺎﺒﻠﻃ حﻼﺻاﻦﯿﺸﻧ جرﺎﺧنﺎﯾاﺮﮔ ﯽﻤﺗﺎﺧ)(ﻖﺑﺎﺳ">
      <path
         style="font-size:8.9664px;font-family:Vazirmatn"
         d="m 78.172014,-3.7170282 0.634828,0.6348281 -0.634828,0.6348282 -0.634828,-0.6348282 z m 0.05254,4.864097 q 0.731147,0 1.129557,-0.24079691 0.402787,-0.23641875 0.5604,-0.62607189 0.16199,-0.385275 0.16199,-0.82746563 0,-0.52099687 -0.1401,-1.02885937 -0.1401,-0.5078625 -0.262687,-0.8318438 l 0.748659,-0.3020906 q 0.205772,0.5647781 0.310847,1.0989094 0.109453,0.5297531 0.109453,1.01134687 0,0.73990313 -0.275822,1.31343752 -0.271444,0.57353441 -0.849356,0.89751561 -0.577913,0.3239813 -1.492941,0.3239813 -0.945675,0 -1.514831,-0.3458719 -0.564778,-0.3458719 -0.818709,-0.92378439 -0.249554,-0.57353438 -0.249554,-1.26090002 0,-0.46408129 0.09632,-0.95005319 0.09632,-0.49035 0.262688,-0.9544312 l 0.696122,0.2802 q -0.126966,0.4027875 -0.214529,0.8274656 -0.08756,0.42467816 -0.08756,0.82308754 0,0.47283751 0.166369,0.86249064 0.170747,0.38965313 0.569156,0.62169376 0.398409,0.23204066 1.094531,0.23204066 z m -4.693339,-7.175747 h 0.739903 v 4.1854875 q 0,0.6173157 0.227662,0.8318438 0.227663,0.21452814 0.687366,0.21452814 h 0.109453 V 0 H 75.186143 Q 74.349921,0 73.938377,-0.44219063 73.531212,-0.88875939 73.531212,-1.8475688 Z m -3.870269,5.23185944 h 0.512241 q 0.556022,0 0.792441,-0.24955314 0.240796,-0.2495531 0.240796,-0.7661719 0,-0.21015 -0.01313,-0.3984094 -0.0088,-0.1882593 -0.02627,-0.3765187 l 0.731147,-0.087562 0.07005,1.0244812 q 0.05254,0.85373444 0.88876,0.85373444 h 0.09194 V 0 H 72.848218 Q 72.362246,0 72.068912,-0.175125 71.779956,-0.35025001 71.600453,-0.66985314 71.364034,-0.32398126 70.978759,-0.16199063 70.593484,0 70.173184,0 h -0.512241 z m 0.901894,1.4666719 0.634828,0.63482816 -0.634828,0.6348281 -0.634828,-0.6348281 z M 68.076063,-1.9176188 v -4.1110594 h 0.739903 v 4.1241938 q 0,0.4815938 0.188259,0.7968188 0.192638,0.31084684 0.696122,0.31084684 h 0.1401 V 0 h -0.131344 q -0.49035,0 -0.779306,-0.17074688 -0.288956,-0.17074688 -0.459703,-0.49472813 -0.144478,0.21452813 -0.293334,0.36338438 -0.144479,0.14885625 -0.372141,0.2276625 Q 67.581335,0 67.191681,0 h -0.376518 v -0.79681876 h 0.367762 q 0.367763,0 0.556022,-0.14447813 0.192638,-0.14885621 0.262688,-0.40278751 0.07443,-0.2539313 0.07443,-0.5735344 z m -6.357039,1.12080004 q 0.08319,-0.14010001 0.175125,-0.27582184 0.09194,-0.1401 0.175125,-0.2758219 v -4.6802157 h 0.739903 v 3.6382219 q 0.941297,-1.1339344 1.93951,-1.1339344 0.516619,0 0.901894,0.21015 0.389653,0.21015 0.604181,0.5822907 0.218906,0.3677625 0.218906,0.8493562 -0.0044,0.95880941 -0.809953,1.42289067 Q 64.862518,0 63.242612,0 H 60.974743 V -0.79681876 Z M 64.792468,-2.73195 q -1.05075,0 -2.276625,1.93513124 h 0.709256 q 1.247766,0 1.860703,-0.24955314 0.612938,-0.2495531 0.612938,-0.7924406 0,-0.385275 -0.249553,-0.6392063 Q 65.199634,-2.73195 64.792468,-2.73195 Z m -9.070879,0.056916 v 0.7530375 q -1.265278,0.1006969 -2.232843,0.4640813 -0.967566,0.3633843 -1.514832,0.92378434 -0.542887,0.56040001 -0.542887,1.26090002 0,1.53672194 2.2416,1.53672194 0.494728,0 1.011347,-0.1006969 0.520997,-0.096319 0.971943,-0.3064688 l 0.197016,0.7311469 Q 55.39323,2.802 54.802183,2.9114532 q -0.586669,0.1138312 -1.195228,0.1138312 -0.8406,0 -1.501697,-0.2407969 -0.656719,-0.2364187 -1.037616,-0.7399031 -0.376518,-0.4991062 -0.376518,-1.27841251 0,-0.72239064 0.363384,-1.34846252 0.367763,-0.63044997 1.103288,-1.09890937 0.739903,-0.4728375 1.851946,-0.7180125 -0.359006,-0.1488563 -0.709256,-0.2889563 -0.345872,-0.1401 -0.608559,-0.2320406 -0.25831,-0.096319 -0.363385,-0.096319 -0.267065,0 -0.477215,0.1401 -0.21015,0.1357219 -0.411544,0.3896532 l -0.118209,0.1488562 -0.669853,-0.3283594 0.06567,-0.105075 q 0.315225,-0.5078625 0.704879,-0.77055 0.394031,-0.2626875 0.91065,-0.2626875 0.271443,0 0.665475,0.1663688 0.398409,0.1663687 0.86249,0.385275 0.464081,0.2189062 0.941297,0.3940312 0.481594,0.1707469 0.919406,0.1838813 z m -8.322816,1.76876251 q 0.328359,-0.0919406 0.586669,-0.28020001 0.258309,-0.1926375 0.407165,-0.5560219 0.148857,-0.3677625 0.148857,-0.9894562 v -3.2967282 h 0.739903 v 3.5287688 q 0,0.8362219 0.201394,1.2696563 0.201393,0.43343434 0.7005,0.43343434 h 0.157612 V 0 h -0.170747 q -0.586669,0 -0.901894,-0.2802 -0.315225,-0.28457813 -0.459703,-0.7880625 -0.367762,0.54288749 -1.081397,0.805575 Q 47.017876,0 46.072201,0 45.892698,0 45.704439,-0.00875625 45.516179,-0.0175125 45.323542,-0.035025 v -0.75303751 q 0.271443,0.0175125 0.459703,0.0306469 0.188259,0.008756 0.376519,0.008756 0.179503,0 0.310846,0 0.135722,-0.004378 0.223285,-0.0218906 0,0 -0.06567,-0.39403129 -0.06567,-0.3984094 -0.218906,-1.0726406 -0.153235,-0.6786094 -0.4203,-1.5279657 -0.262688,-0.8493562 -0.661097,-1.75125 l 0.678609,-0.315225 q 0.394031,0.9325406 0.661097,1.8125438 0.271444,0.8800031 0.429056,1.5848813 0.161991,0.7005 0.232041,1.1164219 z m -7.727392,-0.0262688 q 0.779307,-1.33095006 1.532344,-1.96140006 0.753038,-0.6348281 1.506075,-0.6348281 0.499106,0 0.884381,0.2189062 0.389654,0.2145282 0.60856,0.5866688 0.218906,0.3721406 0.218906,0.8406 -0.0044,0.95880941 -0.805575,1.42289067 Q 42.814875,0 41.190591,0 H 40.95855 Q 40.030388,0 39.544416,-0.175125 39.058444,-0.35025001 38.85705,-0.66547501 38.603119,-0.31960313 38.283516,-0.1576125 37.968291,0 37.442916,0 h -0.179503 l 0.0044,-0.79681876 h 0.175125 q 0.612937,0 0.823087,-0.25830934 0.214528,-0.2626875 0.214528,-0.7574157 0,-0.21015 -0.01751,-0.3896531 -0.01314,-0.1795031 -0.02189,-0.385275 l 0.731147,-0.087562 0.06567,1.0244812 q 0.02189,0.2933344 0.122587,0.5078626 0.100697,0.21014996 0.310847,0.21014996 z M 42.744825,-2.73195 q -1.055128,0 -2.281003,1.93513124 h 0.709256 q 1.247766,0 1.860703,-0.24955314 0.612938,-0.2495531 0.612938,-0.7924406 0,-0.385275 -0.249553,-0.6392063 Q 43.151991,-2.73195 42.744825,-2.73195 Z m -6.063703,-3.2967282 v 6.02430007 H 35.941219 V -6.0286782 Z m -2.504881,2.6443875 0.634828,0.6348282 -0.634828,0.6348281 -0.634828,-0.6348281 z m 0.04816,4.8509626 q 0.731146,0 1.129556,-0.2407969 0.402787,-0.23641873 0.5604,-0.62607187 0.16199,-0.385275 0.16199,-0.82746563 0,-0.52099689 -0.1401,-1.0288594 -0.1401,-0.5078625 -0.262687,-0.8318438 l 0.748659,-0.3020906 0.323982,1.0244813 q 0.08756,0.2802 0.284578,0.42467811 0.201393,0.14447813 0.5604,0.14447813 h 0.170747 V 0 h -0.153235 q -0.306469,0 -0.468459,-0.05691563 -0.157613,-0.05691562 -0.297713,-0.1926375 -0.0044,0.73114689 -0.2802,1.29592503 -0.275822,0.5691563 -0.853734,0.8887594 -0.573534,0.3196031 -1.484184,0.3196031 -0.945675,0 -1.514832,-0.3458719 -0.564778,-0.3458718 -0.818709,-0.92378436 -0.249553,-0.57353438 -0.249553,-1.26090002 0,-0.46408126 0.09632,-0.95005312 0.09632,-0.49035 0.262687,-0.9544313 l 0.696122,0.2802 q -0.126966,0.4027875 -0.214528,0.8274657 -0.08756,0.42467809 -0.08756,0.82308747 0,0.47283751 0.166369,0.86249064 0.170747,0.38965309 0.569156,0.62169379 0.39841,0.2320406 1.094532,0.2320406 z m -6.365796,-2.26349066 h 0.661097 q 0.556022,0 0.79244,-0.24955314 0.240797,-0.2495531 0.240797,-0.7661719 0,-0.21015 -0.01313,-0.3984094 -0.0088,-0.1882593 -0.02627,-0.3765187 l 0.731147,-0.087562 0.07005,1.0244812 q 0.05254,0.85373444 0.888759,0.85373444 h 0.09194 V 0 H 31.194736 Q 30.708764,0 30.41543,-0.175125 30.126474,-0.35025001 29.946971,-0.66985314 29.710552,-0.32398126 29.325277,-0.16199063 28.940002,0 28.519702,0 h -0.661097 z m 1.580503,1.49294065 0.612938,0.60855941 -0.612938,0.6173156 -0.608559,-0.6173156 z m -1.453537,0 0.612937,0.60855941 -0.612937,0.6173156 -0.60856,-0.6173156 z m -3.699516,-6.45335639 0.591047,0.5910469 -0.591047,0.5910469 -0.591047,-0.5910469 z m 0.748659,1.1076657 0.591047,0.5910469 -0.591047,0.5910468 -0.591047,-0.5910468 z m -1.497319,0 0.591047,0.5910469 -0.591047,0.5910468 -0.591047,-0.5910468 z M 25.643273,0 q -0.4203,0 -0.678609,-0.175125 -0.258309,-0.17512501 -0.4203,-0.49472814 -0.245175,0.35462813 -0.547266,0.51224064 Q 23.699386,0 23.349136,0 22.845651,0 22.56983,-0.17074688 22.298386,-0.34587188 22.136395,-0.66985314 21.930623,-0.34587188 21.61102,-0.17074688 21.291417,0 20.70037,0 h -0.402787 v -0.79681876 h 0.411543 q 0.5604,0 0.81871,-0.20577184 0.258309,-0.21015 0.258309,-0.7617938 0,-0.1138313 -0.01313,-0.2670656 -0.0088,-0.1576125 -0.03065,-0.4378125 l 0.731147,-0.091941 0.07005,0.9150282 q 0.02627,0.3677625 0.223284,0.6085594 0.201394,0.24079684 0.591047,0.24079684 0.464081,0 0.63045,-0.24955314 0.166369,-0.2495531 0.166369,-0.7180125 0,-0.1138313 -0.01313,-0.2714438 -0.0088,-0.1576125 -0.03065,-0.4334343 l 0.731147,-0.091941 0.07005,0.9150282 q 0.02189,0.3546281 0.188259,0.6041812 0.166369,0.24517504 0.538509,0.24517504 0.647963,0 0.647963,-0.96756564 0,-0.1576125 -0.01313,-0.3283594 -0.0088,-0.1707469 -0.03065,-0.4509469 l 0.731146,-0.087563 0.07005,0.9850782 q 0.05254,0.84935624 0.866869,0.84935624 h 0.131344 V 0 H 27.919898 Q 27.460195,0 27.153727,-0.16636875 26.847258,-0.33711563 26.733427,-0.67423126 26.549545,-0.35025001 26.308748,-0.175125 26.07233,0 25.643273,0 Z m -7.188882,0 h -0.713634 v -0.79681876 h 0.704878 q 0.437813,0 0.591047,-0.25393124 0.157613,-0.2539313 0.157613,-0.6435844 0,-0.2845781 -0.05254,-0.6085594 -0.05254,-0.3239812 -0.113831,-0.6523406 l 0.761794,-0.1926375 q 0.07443,0.35025 0.118209,0.6873656 0.04378,0.3371156 0.04378,0.6435844 0,0.525375 -0.144478,0.93691876 -0.144478,0.41154376 -0.472837,0.64796251 Q 19.006035,0 18.454391,0 Z m 0.534132,-5.1661876 0.634828,0.6348282 -0.634828,0.6348281 -0.634828,-0.6348281 z M 9.9264004,0.66985314 10.561229,1.3046813 9.9264004,1.9395094 9.2915723,1.3046813 Z m -3.0033938,-1.4666719 h 0.7442813 q 0.5122406,0 0.9412968,-0.0919406 0.4290563,-0.0919406 0.8362219,-0.25393121 0.4115438,-0.1619907 0.8581124,-0.3808969 0.450947,-0.2232844 1.006969,-0.4772157 -0.310847,-0.1138312 -0.643584,-0.245175 Q 10.333566,-2.3817 10.031475,-2.4999094 9.7337629,-2.6181188 9.5104785,-2.6925469 q -0.2232844,-0.078806 -0.315225,-0.078806 -0.2670656,0 -0.4728375,0.1576125 Q 8.5210222,-2.4605063 8.3502754,-2.2416 l -0.1182094,0.1488562 -0.6698531,-0.3283594 0.065672,-0.105075 q 0.2889563,-0.4684593 0.6698532,-0.7486594 0.385275,-0.2845781 0.9018937,-0.2845781 0.2145282,0 0.5166188,0.1094531 0.3064686,0.1094532 0.6654746,0.2758219 0.359007,0.1619907 0.744282,0.3327375 0.385275,0.1663688 0.77055,0.2845782 0.385275,0.1138312 0.735525,0.1269656 v 0.7574156 q -0.2802,0.030647 -0.718013,0.2057719 -0.433434,0.1707469 -1.129556,0.53850938 -0.5604,0.29771251 -1.0419939,0.50786251 Q 9.2653035,-0.21452813 8.7661972,-0.105075 8.2714691,0 7.6541535,0 H 6.9230066 Z M 6.9799223,0 Q 6.6778317,0 6.4720598,-0.07880625 6.270666,-0.16199063 6.1568348,-0.25393125 6.0911629,0.31960313 5.8372317,0.85373439 5.5876785,1.3922438 5.0841941,1.7906532 q -0.5034843,0.3984093 -1.33095,0.5604 L 3.4949347,1.6593094 Q 4.5631973,1.4272688 5.0010098,0.84497814 5.4388223,0.26706563 5.4388223,-0.52537501 q 0,-0.37214063 -0.083184,-0.77930629 Q 5.2768316,-1.716225 5.1323535,-2.1409032 L 5.8591223,-2.3860782 6.095541,-1.47105 q 0.096319,0.3677625 0.3064688,0.52099686 0.21015,0.15323438 0.5297531,0.15323438 H 7.0981317 V 0 Z M 1.8706506,-6.0286782 h 0.7399031 v 4.1854875 q 0,0.6173157 0.2276625,0.8318438 0.2276625,0.21452814 0.6873657,0.21452814 H 3.635035 V 0 H 3.5255819 Q 2.68936,0 2.2778162,-0.44219063 1.8706506,-0.88875939 1.8706506,-1.8475688 Z m -4.0366314,0.4684594 0.6348281,0.6348281 -0.6348281,0.6348281 -0.6348281,-0.6348281 z m -2.7275719,4.76340004 h 0.7442812 q 0.5122407,0 0.9412969,-0.0919406 0.4290563,-0.0919406 0.8362219,-0.25393121 0.4115438,-0.1619907 0.8581125,-0.3808969 0.4509469,-0.2232844 1.0069688,-0.4772157 -0.31084688,-0.1138312 -0.6435844,-0.245175 -0.3327375,-0.1357218 -0.6348281,-0.2539312 -0.2977125,-0.1182094 -0.5209969,-0.1926375 -0.2232844,-0.078806 -0.315225,-0.078806 -0.2670656,0 -0.4728375,0.1576125 -0.2013938,0.1532344 -0.3721406,0.3721407 l -0.1182094,0.1488562 -0.6698532,-0.3283594 0.065672,-0.105075 q 0.2889563,-0.4684593 0.6698532,-0.7486594 0.385275,-0.2845781 0.9018937,-0.2845781 0.2145281,0 0.5166188,0.1094531 0.3064687,0.1094532 0.665475,0.2758219 0.3590062,0.1619907 0.74428125,0.3327375 0.385275,0.1663688 0.77055001,0.2845782 0.38527501,0.1138312 0.73552501,0.1269656 v 0.7574156 q -0.2802,0.030647 -0.71801251,0.2057719 -0.43343438,0.1707469 -1.12955626,0.53850938 -0.5604,0.29771251 -1.0419938,0.50786251 Q -2.5512558,-0.21452813 -3.0503621,-0.105075 -3.5450902,0 -4.1624058,0 h -0.7311469 z"
         id="path10" />
      <path
         style="font-size:7.9701px;font-family:Vazirmatn"
         d="m 67.741923,7.653989 0.56429,0.5642893 -0.56429,0.5642893 -0.564289,-0.5642893 z m 0.0467,4.323624 q 0.649906,0 1.004046,-0.214041 0.358032,-0.210149 0.498131,-0.556506 0.143991,-0.342465 0.143991,-0.735522 0,-0.463107 -0.124533,-0.9145379 -0.124532,-0.4514315 -0.233499,-0.7394136 l 0.665473,-0.2685239 q 0.182907,0.5020229 0.276307,0.9768043 0.09729,0.4708896 0.09729,0.8989711 0,0.657689 -0.245174,1.167495 -0.241282,0.509806 -0.75498,0.797789 -0.513698,0.287982 -1.327053,0.287982 -0.840596,0 -1.346511,-0.307441 -0.502023,-0.30744 -0.727739,-0.821138 -0.221824,-0.509806 -0.221824,-1.120795 0,-0.412515 0.08562,-0.8444884 0.08562,-0.4358648 0.233499,-0.8483798 l 0.618772,0.2490657 q -0.112858,0.3580318 -0.190691,0.7355219 -0.07783,0.3774896 -0.07783,0.7316306 0,0.420298 0.147883,0.766655 0.151774,0.346357 0.505914,0.552614 0.354141,0.206258 0.972913,0.206258 z M 63.616769,5.5991976 h 0.657689 v 3.7204178 q 0,0.5487227 0.202365,0.7394136 0.202366,0.190691 0.610989,0.190691 h 0.09729 V 10.958 h -0.09729 q -0.743305,0 -1.10912,-0.393057 -0.361923,-0.396948 -0.361923,-1.2492193 z M 60.452862,10.24972 h 0.844488 q 0.389165,0 0.525373,-0.225716 0.140099,-0.2257156 0.140099,-0.5720725 0,-0.2529573 -0.0467,-0.5409394 -0.0467,-0.2879821 -0.101183,-0.5798559 l 0.677147,-0.1712326 q 0.06616,0.311332 0.105075,0.6109891 0.03892,0.2996571 0.03892,0.5720726 0,0.466998 -0.128424,0.8328127 -0.128424,0.365816 -0.420298,0.575965 Q 61.795481,10.958 61.305133,10.958 h -0.852271 z m 1.404885,1.327053 0.544831,0.540939 -0.544831,0.548723 -0.540939,-0.548723 z m -1.292028,0 0.544831,0.540939 -0.544831,0.548723 -0.540939,-0.548723 z M 59.943056,5.5991976 V 10.954109 H 59.285367 V 5.5991976 Z M 58.120732,10.958 q -0.268524,0 -0.451431,-0.07005 -0.179016,-0.07394 -0.280199,-0.155666 -0.05837,0.509807 -0.284091,0.984588 -0.221824,0.478673 -0.669363,0.832813 -0.44754,0.35414 -1.183062,0.498131 l -0.229607,-0.61488 q 0.949562,-0.206258 1.338727,-0.723847 0.389165,-0.513698 0.389165,-1.218087 0,-0.33079 -0.07394,-0.6927136 -0.07005,-0.3658152 -0.198474,-0.7433052 l 0.646014,-0.2179325 0.210149,0.813355 q 0.08562,0.3268986 0.272415,0.4631063 0.1868,0.136208 0.47089,0.136208 h 0.147883 V 10.958 Z M 52.590702,6.2452116 V 5.8171301 l 2.957654,-1.1986283 v 0.4280815 z m 0.537047,0.9378877 q 0.338574,0.2373907 0.704389,0.5020229 0.365815,0.2607406 0.681039,0.5603977 0.319115,0.2957654 0.513698,0.634339 0.198474,0.3346819 0.198474,0.7160637 -0.0039,0.7238474 -0.502023,1.0429624 Q 54.229087,10.958 53.143316,10.958 h -0.949563 v -0.70828 h 0.945671 q 0.754981,0 1.081879,-0.132316 0.326899,-0.1362081 0.326899,-0.537048 0,-0.256849 -0.182908,-0.5020229 Q 54.186278,8.8331591 53.898296,8.5957684 53.614206,8.3544861 53.287307,8.1248787 52.960409,7.8913797 52.672426,7.665664 52.547894,7.5644811 52.481736,7.4282733 q -0.06616,-0.1362078 -0.06616,-0.2724155 0,-0.1595577 0.08562,-0.2996571 0.08951,-0.1439911 0.276307,-0.2179324 L 55.575598,5.5019064 V 6.1907285 Z M 45.408889,12.9622 q -0.840596,0 -1.346511,-0.30744 -0.502023,-0.307441 -0.727739,-0.821138 -0.221824,-0.509807 -0.221824,-1.120796 0,-0.264632 0.03892,-0.610989 0.04281,-0.3463568 0.190691,-0.7900049 l 0.618772,0.2296074 q -0.112858,0.389165 -0.147883,0.6888225 -0.03113,0.299657 -0.03113,0.505914 0,0.420298 0.147883,0.766655 0.147883,0.346357 0.502023,0.552615 0.358032,0.206257 0.976804,0.206257 0.583748,0 1.000154,-0.143991 0.420298,-0.143991 0.642122,-0.342465 0.225716,-0.198474 0.225716,-0.361924 0,-0.186799 -0.163449,-0.319115 -0.159558,-0.132316 -0.521481,-0.132316 h -0.575965 q -0.07783,0 -0.112857,-0.06616 -0.03502,-0.07005 -0.06616,-0.179016 l -0.105075,-0.373599 q -0.0039,-0.03113 0.01557,-0.05837 0.01946,-0.03113 0.07005,-0.03113 h 2.159866 v 0.708281 h -0.159557 q 0.05837,0.116749 0.07394,0.221824 0.01946,0.105074 0.01946,0.217932 0,0.256849 -0.151774,0.529265 -0.147883,0.276307 -0.459215,0.509806 -0.30744,0.233499 -0.77833,0.37749 -0.47089,0.143991 -1.113012,0.143991 z M 38.252147,10.958 h -0.171232 v -0.70828 h 0.151774 q 0.260741,0 0.439757,-0.147883 0.179015,-0.1517743 0.319115,-0.3891649 0.140099,-0.2373907 0.276307,-0.5020229 0.140099,-0.2685239 0.311332,-0.5059146 0.171233,-0.2373906 0.412515,-0.3852734 0.245174,-0.1517743 0.603206,-0.1517743 0.610989,0 0.949562,0.3735984 0.338574,0.3697068 0.455324,0.9223211 0.07783,0.3813818 0.264632,0.5837476 0.190691,0.202366 0.439756,0.202366 h 0.101183 V 10.958 h -0.105074 q -0.249066,0 -0.486457,-0.101183 -0.23739,-0.105074 -0.385273,-0.33079 -0.163449,0.237391 -0.404732,0.381382 -0.241282,0.140099 -0.626555,0.140099 -0.389165,0 -0.719956,-0.167341 -0.326898,-0.171232 -0.681039,-0.513698 -0.252957,0.284091 -0.486456,0.439757 Q 38.676337,10.958 38.252147,10.958 Z m 2.35834,-2.101491 q -0.194582,0 -0.35414,0.1323161 -0.159557,0.1284245 -0.287982,0.3346819 -0.128424,0.2062575 -0.229607,0.4280816 0.128424,0.1323161 0.256849,0.2373906 0.128424,0.1050748 0.249065,0.1790158 0.311332,0.190691 0.544831,0.190691 0.575965,0 0.575965,-0.5798559 0,-0.4047316 -0.202366,-0.6615805 Q 40.964628,8.856509 40.610487,8.856509 Z M 37.349285,6.3892027 37.894116,6.9301421 37.349285,7.4788648 36.808346,6.9301421 Z m -1.292028,0 0.544831,0.5409394 -0.544831,0.5487227 -0.540939,-0.5487227 z M 35.442376,10.24972 h 0.992371 q 0.389165,0 0.525373,-0.225716 0.140099,-0.2257156 0.140099,-0.5720725 0,-0.2529573 -0.0467,-0.5409394 Q 37.00682,8.62301 36.952337,8.3311362 l 0.677147,-0.1712326 q 0.06616,0.311332 0.105074,0.6109891 0.03892,0.2996571 0.03892,0.5720726 0,0.466998 -0.128425,0.8328127 -0.128424,0.365816 -0.420298,0.575965 Q 36.932878,10.958 36.44253,10.958 h -1.000154 z m -1.41267,-4.6505224 h 0.657689 v 3.7204178 q 0,0.5487227 0.202365,0.7394136 0.202366,0.190691 0.61099,0.190691 h 0.09729 V 10.958 h -0.09729 q -0.743306,0 -1.109121,-0.393057 -0.361923,-0.396948 -0.361923,-1.2492193 z m -3.588102,0.4164066 0.56429,0.5642893 -0.56429,0.5642893 -0.564289,-0.5642893 z M 28.017106,10.24972 h 0.661581 q 0.455323,0 0.836705,-0.08173 0.381381,-0.08172 0.743305,-0.2257156 Q 30.624512,9.7982884 31.02146,9.6037059 31.4223,9.4052317 31.91654,9.179516 31.640233,9.0783331 31.344467,8.9615836 31.048702,8.8409424 30.780178,8.7358678 30.515546,8.6307933 30.317072,8.5646352 q -0.198475,-0.07005 -0.280199,-0.07005 -0.237391,0 -0.420298,0.1400994 -0.179016,0.1362078 -0.330791,0.3307903 l -0.105074,0.1323161 -0.595423,-0.2918738 0.05837,-0.0934 q 0.256849,-0.4164066 0.595422,-0.6654722 0.342466,-0.2529573 0.80168,-0.2529573 0.190691,0 0.459215,0.097291 0.272416,0.097291 0.591531,0.245174 0.319115,0.143991 0.661581,0.2957654 0.342465,0.1478827 0.68493,0.2529573 0.342465,0.1011829 0.653797,0.1128578 v 0.6732555 q -0.249065,0.027242 -0.63823,0.1829076 -0.385274,0.1517744 -1.004046,0.4786727 -0.498131,0.264633 -0.926213,0.451432 -0.42419,0.182907 -0.867838,0.280199 -0.439756,0.0934 -0.988479,0.0934 H 28.017106 Z M 26.584979,8.6580348 q 0,0.7316303 0.155666,1.4360192 0.155666,0.700497 0.455323,1.272569 0.303549,0.572073 0.747197,0.910647 l -0.147883,0.474781 Q 27.363309,12.518552 27.01306,12.102145 26.662812,11.685739 26.409854,11.137016 26.160789,10.592185 26.024581,9.957846 25.888373,9.323507 25.888373,8.6580348 q 0,-0.6654722 0.136208,-1.2998112 0.136208,-0.634339 0.385273,-1.1791701 0.252958,-0.5487227 0.603206,-0.9651292 0.350249,-0.4164066 0.782222,-0.6499056 L 27.943165,5.0388 q -0.443648,0.3385736 -0.747197,0.9106462 -0.299657,0.5720726 -0.455323,1.2764613 -0.155666,0.7004971 -0.155666,1.4321273 z m -0.292404,0 q 0,-0.7316302 -0.155666,-1.4321273 Q 25.985135,6.5215188 25.681586,5.9494462 25.378037,5.3773736 24.934389,5.0388 l 0.147883,-0.4747813 q 0.431973,0.233499 0.782222,0.6499056 0.350248,0.4164065 0.599314,0.9651292 0.252957,0.5448311 0.389165,1.1791701 0.136207,0.634339 0.136207,1.2998112 0,0.6654722 -0.136207,1.2998112 -0.136208,0.634339 -0.389165,1.17917 -0.249066,0.548723 -0.599314,0.965129 -0.350249,0.416407 -0.782222,0.649906 L 24.934389,12.27727 q 0.443648,-0.338574 0.747197,-0.910647 0.303549,-0.572072 0.455323,-1.272569 0.155666,-0.7043889 0.155666,-1.4360192 z M 21.980627,12.9622 q -0.840596,0 -1.346511,-0.30744 -0.502023,-0.307441 -0.727738,-0.821138 -0.221824,-0.509807 -0.221824,-1.120796 0,-0.412515 0.08562,-0.8444879 0.08562,-0.4358649 0.233499,-0.8483798 l 0.618772,0.2490656 q -0.112858,0.3580319 -0.190691,0.7355221 -0.07783,0.37749 -0.07783,0.73163 0,0.420298 0.147883,0.766655 0.151774,0.346357 0.505915,0.552615 0.35414,0.206257 0.972912,0.206257 0.910646,0 1.354295,-0.334682 Q 23.77857,11.592339 23.77857,10.958 h -0.661581 q -1.474935,0 -1.474935,-1.1947365 0,-0.3813817 0.151774,-0.7627634 0.155666,-0.3813818 0.44754,-0.6343391 0.295765,-0.2529572 0.712172,-0.2529572 0.607097,0 1.023504,0.544831 0.416406,0.5409394 0.431973,1.5916852 h 0.451432 V 10.958 h -0.459215 q 0,0.945671 -0.646014,1.474936 -0.642122,0.529264 -1.774593,0.529264 z m 1.097446,-2.71248 h 0.688822 q -0.0467,-0.7510887 -0.249066,-1.0935539 -0.198474,-0.3424653 -0.575964,-0.3424653 -0.249066,0 -0.393057,0.1595577 -0.140099,0.1595577 -0.198474,0.3774901 -0.05448,0.2140408 -0.05448,0.389165 0,0.2724154 0.182908,0.3930564 0.186799,0.11675 0.599314,0.11675 z m 0.459214,-3.8021426 0.544831,0.5409394 -0.544831,0.5487227 -0.540939,-0.5487227 z m -1.292028,0 0.544832,0.5409394 L 22.245259,7.5372395 21.70432,6.9885168 Z M 17.583062,10.958 h -0.716063 v -0.70828 h 0.70828 q 0.389165,0 0.525373,-0.225716 0.140099,-0.2257156 0.140099,-0.5720725 0,-0.2529573 -0.0467,-0.5409394 -0.0467,-0.2879821 -0.101182,-0.5798559 l 0.677147,-0.1712326 q 0.06616,0.311332 0.105074,0.6109891 0.03892,0.2996571 0.03892,0.5720726 0,0.466998 -0.128425,0.8328127 -0.128424,0.365816 -0.420298,0.575965 Q 18.07341,10.958 17.583062,10.958 Z m 0.08562,0.595423 0.564289,0.564289 -0.564289,0.564289 -0.56429,-0.564289 z M 15.458221,5.5991976 h 0.657689 v 3.7204178 q 0,0.5487227 0.202366,0.7394136 0.202366,0.190691 0.610989,0.190691 h 0.09729 V 10.958 h -0.09729 q -0.743305,0 -1.10912,-0.393057 -0.361924,-0.396948 -0.361924,-1.2492193 z M 11.212431,10.958 q -0.44754,0 -0.692714,-0.151774 Q 10.278435,10.65056 10.134443,10.362578 9.9515359,10.65056 9.6674454,10.806226 9.383355,10.958 8.8579822,10.958 H 8.4999503 v -0.70828 h 0.3658152 q 0.4981312,0 0.7277386,-0.182908 0.2296074,-0.186799 0.2296074,-0.6771469 0,-0.1011829 -0.011675,-0.2373907 -0.00778,-0.1400994 -0.027241,-0.389165 l 0.649906,-0.081725 0.06227,0.8133549 q 0.02335,0.3268987 0.198474,0.5409394 0.179016,0.214041 0.525373,0.214041 0.412515,0 0.560398,-0.221824 0.147882,-0.2218243 0.147882,-0.6382309 0,-0.1011829 -0.01168,-0.2412823 -0.0078,-0.1400994 -0.02724,-0.3852734 l 0.649905,-0.081725 0.06227,0.8133549 q 0.01946,0.3152237 0.167341,0.5370474 0.147882,0.217933 0.478673,0.217933 0.323007,0 0.443648,-0.241283 0.120641,-0.2412818 0.120641,-0.5642888 0,-0.2918738 -0.05837,-0.5876392 -0.05448,-0.2957654 -0.09729,-0.478673 l 0.665472,-0.1790159 q 0.07005,0.2607406 0.112858,0.556506 0.04281,0.2918738 0.04281,0.5837475 0,0.4202983 -0.116749,0.7900054 -0.11675,0.369706 -0.385274,0.599314 -0.264632,0.225716 -0.723847,0.229607 -0.373598,0 -0.603205,-0.155666 -0.229608,-0.155666 -0.373599,-0.439756 -0.217932,0.315223 -0.486456,0.455323 Q 11.523763,10.958 11.212431,10.958 Z"
         id="path11" />
    </g>
    <path
       id="path6"
       d="m 51.71225,-85.43893 h -103.4245 c -2.75117,0 -4.98138,-2.23021 -4.98138,-4.98139 v -18.38403 c 0,-2.75118 2.23021,-4.98139 4.98138,-4.98139 h 103.4245 c 2.75117,0 4.98138,2.23021 4.98138,4.98139 v 18.38403 c 0,2.75118 -2.23021,4.98139 -4.98138,4.98139 z"
       style="fill:#f5f5f5;fill-opacity:1;fill-rule:nonzero;stroke:#808080;stroke-width:0.3985;stroke-linecap:butt;stroke-linejoin:miter;stroke-miterlimit:10;stroke-dasharray:none;stroke-opacity:1"
       transform="matrix(1.3333333,0,0,-1.3333333,304.18667,39.082667)" />
    <g
       id="text6"
       transform="matrix(1.3333333,0,0,1.3333333,261.12933,166.82133)"
       aria-label="ناﺪﻘﺘﻨﻣمﺎﻈﻧ نوردﻊﺿﻮﻣ)(ﻢﻬﺒﻣ">
      <path
         style="font-size:8.9664px;font-family:Vazirmatn"
         d="M 55.209595,0 H 54.49596 v -0.79681876 h 0.704878 q 0.437813,0 0.591047,-0.25393124 0.157613,-0.2539313 0.157613,-0.6435844 0,-0.2845781 -0.05254,-0.6085594 -0.05254,-0.3239812 -0.113831,-0.6523406 l 0.761794,-0.1926375 q 0.07443,0.35025 0.118209,0.6873656 0.04378,0.3371156 0.04378,0.6435844 0,0.525375 -0.144478,0.93691876 -0.144478,0.41154376 -0.472837,0.64796251 Q 55.761238,0 55.209595,0 Z m 0.534131,-5.1661876 0.634828,0.6348282 -0.634828,0.6348281 -0.634828,-0.6348281 z M 52.9067,-6.0286782 h 0.739903 v 4.1854875 q 0,0.6173157 0.227663,0.8318438 0.227662,0.21452814 0.687365,0.21452814 h 0.109453 V 0 H 54.561631 Q 53.725409,0 53.313866,-0.44219063 52.9067,-0.88875939 52.9067,-1.8475688 Z m -2.482395,4.4350407 q 0,-0.1138313 -0.05254,-0.2933344 -0.04816,-0.1838813 -0.118209,-0.3414938 l -0.774928,-1.7556281 0.682987,-0.3196031 0.993835,2.3379187 q 0.201393,0.4728376 0.35025,0.7267688 0.153234,0.25393126 0.297712,0.35025001 0.148857,0.0919406 0.337116,0.0919406 h 0.183881 V 0 H 52.14053 q -0.345872,0 -0.564778,-0.08318438 -0.214528,-0.08318437 -0.372141,-0.24955313 -0.157612,-0.16636875 -0.319603,-0.4203 -0.306469,0.385275 -0.783684,0.56915626 -0.472838,0.17950312 -1.182094,0.17950312 -0.306469,0 -0.551644,-0.02626875 -0.245175,-0.03064687 -0.464081,-0.08318437 v -0.79244064 q 0.503484,0.11820938 0.950053,0.11820938 1.571747,0 1.571747,-0.80557499 z m -4.343106,-3.9490688 0.612938,0.6085593 -0.612938,0.6173157 -0.608559,-0.6173157 z m -1.453537,0 0.612937,0.6085593 -0.612937,0.6173157 -0.60856,-0.6173157 z m 2.294137,3.4806094 q 0,0.3458719 -0.153234,0.6435844 -0.153235,0.2933344 -0.4203,0.60418124 0.249553,0.0131344 0.44219,0.0175125 0.192638,0 0.341494,0 h 0.424678 V 0 h -0.411544 q -0.166368,0 -0.459703,-0.02626875 -0.288956,-0.03064688 -0.639206,-0.10069688 -0.345872,-0.07005 -0.682987,-0.18825938 -0.337116,0.12258751 -0.691744,0.19263751 -0.354628,0.06567187 -0.656719,0.09631875 Q 43.712633,0 43.53313,0 h -0.612937 v -0.79681876 h 0.612937 q 0.183882,0 0.380897,0 0.201394,-0.004378 0.485972,-0.0218906 -0.262687,-0.30646871 -0.411544,-0.60855941 -0.148856,-0.3020906 -0.148856,-0.6435844 0,-0.2714437 0.126966,-0.5472656 0.126965,-0.2758219 0.341493,-0.5122406 0.214529,-0.2364188 0.49035,-0.3765188 0.275822,-0.1444781 0.569157,-0.1444781 0.306468,0 0.586668,0.1444781 0.2802,0.1401 0.494729,0.3765188 0.218906,0.2320406 0.345871,0.5122406 0.126966,0.2802 0.126966,0.5560219 z m -1.554234,-0.8143313 q -0.166369,0 -0.35025,0.1269657 -0.179503,0.1225875 -0.306469,0.3108468 -0.122588,0.1882594 -0.122588,0.385275 0,0.2013938 0.11821,0.4115438 0.118209,0.21015 0.297712,0.385275 0.183882,0.175125 0.372141,0.27144376 0.332737,-0.14009996 0.564778,-0.45094686 0.236419,-0.315225 0.236419,-0.6260719 0,-0.1838813 -0.131344,-0.3721406 -0.126966,-0.1882594 -0.315225,-0.315225 -0.188259,-0.1269657 -0.363384,-0.1269657 z m -3.734536,-1.8607031 0.612937,0.6085594 -0.612937,0.6173156 -0.60856,-0.6173156 z m -1.453538,0 0.612938,0.6085594 -0.612938,0.6173156 -0.608559,-0.6173156 z m -0.691744,3.94031254 h 0.831844 q 0.556022,0 0.792441,-0.24955314 0.240797,-0.2495531 0.240797,-0.7661719 0,-0.21015 -0.01313,-0.3984094 -0.0088,-0.1882593 -0.02627,-0.3765187 l 0.731147,-0.087562 0.07005,1.0244812 q 0.05254,0.85373444 0.88876,0.85373444 h 0.09194 V 0 H 42.994625 Q 42.508654,0 42.215319,-0.175125 41.926363,-0.35025001 41.74686,-0.66985314 41.510441,-0.32398126 41.125166,-0.16199063 40.739891,0 40.319591,0 h -0.831844 z m -1.60677,-1.79065314 0.731147,-0.087562 0.07005,1.0244812 q 0.05254,0.85373444 0.888759,0.85373444 h 0.09194 V 0 h -0.100697 q -0.485972,0 -0.779306,-0.175125 -0.288956,-0.17512501 -0.46846,-0.49472814 -0.236418,0.34587188 -0.621693,0.50786251 Q 37.307443,0 36.887143,0 h -0.4203 v -0.79681876 h 0.4203 q 0.556022,0 0.79244,-0.24955314 0.240797,-0.2495531 0.240797,-0.7661719 0,-0.21015 -0.01313,-0.3984094 -0.0088,-0.1882593 -0.02627,-0.3765187 z m 0.08318,-2.1803063 0.634829,0.6348281 -0.634829,0.6348282 -0.634828,-0.6348282 z m -3.222303,4.86847508 q -0.437813,0 -0.809953,-0.18825938 Q 33.564142,-0.2802 33.165733,-0.66547501 32.881155,-0.34587188 32.618467,-0.17074688 32.35578,0 31.878564,0 h -0.192638 v -0.79681876 h 0.170747 q 0.293335,0 0.494729,-0.16636876 0.201393,-0.17074688 0.359006,-0.43781248 0.157612,-0.2670657 0.310847,-0.5647782 0.157612,-0.3020906 0.35025,-0.5691562 0.192637,-0.2670656 0.464081,-0.4334344 0.275822,-0.1707469 0.678609,-0.1707469 0.485972,0 0.844978,0.2364188 0.363385,0.2320406 0.5604,0.6260719 0.201394,0.3940312 0.201394,0.8800031 0,0.71363439 -0.363384,1.10766565 -0.359006,0.38965313 -1.015725,0.38965313 z m -0.21015,-2.46488438 q -0.218906,0 -0.39841,0.1488562 -0.179503,0.1444781 -0.323981,0.3765188 -0.144478,0.2320406 -0.258309,0.4815937 0.262687,0.2758219 0.542887,0.45094691 0.359007,0.23204063 0.639207,0.23204063 0.647962,0 0.647962,-0.65234064 0,-0.455325 -0.227662,-0.7442813 -0.223285,-0.2933343 -0.621694,-0.2933343 z m -4.129168,1.0551281 q 0.245175,-0.8537344 0.639206,-1.3397063 0.39841,-0.49035 1.085775,-0.49035 0.464081,0 0.827466,0.2364188 0.363384,0.2364187 0.573534,0.6523406 0.214528,0.4115438 0.214528,0.9500532 0,0.59104684 -0.328359,0.98069997 Q 33.090709,0.07005 32.407721,0.07005 q -0.258309,0 -0.525375,-0.08318438 -0.262687,-0.08318437 -0.507862,-0.18825937 -0.240797,-0.10945313 -0.442191,-0.19263751 -0.201394,-0.0831844 -0.337116,-0.0831844 -0.245175,0 -0.37214,0.16199062 -0.122588,0.15761251 -0.166369,0.53850939 -0.0394,0.38089688 -0.0394,1.05512812 0,0.2977125 0.0044,0.5297532 0.0088,0.2364187 0.02189,0.4640812 0.01751,0.2276625 0.03502,0.5166188 H 29.325521 Q 29.303631,2.3860782 29.290496,2.03145 29.277362,1.6812 29.277362,1.3221938 q 0,-0.49035004 0.02627,-0.93254067 0.03065,-0.44219063 0.135721,-0.79681876 0.109454,-0.35900626 0.337116,-0.59104689 0.227663,-0.23641878 0.626072,-0.31084688 z m 2.600606,0.00438 q 0,-0.4509469 -0.240797,-0.7530375 -0.240797,-0.3064687 -0.617315,-0.3064687 -0.271444,0 -0.459703,0.1707468 -0.18826,0.1663688 -0.315225,0.4421907 -0.126966,0.2714437 -0.223285,0.5822906 0.477216,0.21015001 0.792441,0.33273751 0.319603,0.11820938 0.477215,0.11820938 0.293335,0 0.437813,-0.1576125 0.148856,-0.16199059 0.148856,-0.42905629 z m -5.836039,-4.7239969 h 0.739903 v 4.1854875 q 0,0.6173157 0.227662,0.8318438 0.227663,0.21452814 0.687366,0.21452814 h 0.109453 V 0 H 28.822038 Q 27.985816,0 27.574272,-0.44219063 27.167107,-0.88875939 27.167107,-1.8475688 Z m -3.069067,0.3677625 0.634828,0.6348281 -0.634828,0.6348282 -0.634828,-0.6348282 z m 0.06129,2.1321469 q 0.494728,0 0.875625,0.2189062 0.385275,0.2145282 0.604181,0.5866688 0.218906,0.3721406 0.218906,0.8406 -0.0044,0.5604 -0.341493,1.00259066 0.122587,0.0306469 0.328359,0.0569156 0.21015,0.0262688 0.608559,0.0262688 h 0.131344 V 0 H 26.45785 Q 25.901828,0 25.538443,-0.11383125 25.179437,-0.2276625 24.934262,-0.42905626 24.575256,-0.2276625 23.988587,-0.11383125 23.401918,0 22.62699,0 h -2.267869 v -0.79681876 h 0.744282 q 0.08318,-0.14010001 0.175125,-0.27582184 0.09194,-0.1401 0.175125,-0.2758219 v -4.6802157 h 0.739903 v 3.6382219 q 0.472837,-0.5691562 0.950053,-0.8537344 0.481594,-0.2845781 1.015725,-0.2845781 z m 0.01751,0.7968188 q -1.05075,0 -2.276625,1.93513124 h 0.709257 q 1.247765,0 1.860703,-0.24955314 0.612937,-0.2495531 0.612937,-0.7924406 0,-0.385275 -0.249553,-0.6392063 Q 24.584012,-2.73195 24.176846,-2.73195 Z M 18.51593,0 h -0.713634 v -0.79681876 h 0.704878 q 0.437812,0 0.591047,-0.25393124 0.157612,-0.2539313 0.157612,-0.6435844 0,-0.2845781 -0.05254,-0.6085594 -0.05254,-0.3239812 -0.113831,-0.6523406 l 0.761793,-0.1926375 q 0.07443,0.35025 0.11821,0.6873656 0.04378,0.3371156 0.04378,0.6435844 0,0.525375 -0.144478,0.93691876 -0.144478,0.41154376 -0.472838,0.64796251 Q 19.067574,0 18.51593,0 Z m 0.534131,-5.1661876 0.634829,0.6348282 -0.634829,0.6348281 -0.634828,-0.6348281 z M 11.157109,0 h -0.713634 v -0.79681876 h 0.704878 q 0.437812,0 0.591047,-0.25393124 0.157612,-0.2539313 0.157612,-0.6435844 0,-0.2845781 -0.05254,-0.6085594 -0.05254,-0.3239812 -0.113831,-0.6523406 l 0.761793,-0.1926375 q 0.07443,0.35025 0.11821,0.6873656 0.04378,0.3371156 0.04378,0.6435844 0,0.525375 -0.144478,0.93691876 -0.144478,0.41154376 -0.472838,0.64796251 Q 11.708753,0 11.157109,0 Z m 0.534131,-5.1661876 0.634829,0.6348282 -0.634829,0.6348281 -0.634828,-0.6348281 z m -3.2398131,1.9657782 q 0.6829875,0 1.1514469,0.6129375 0.4684592,0.6085594 0.4859722,1.79065314 h 0.529753 V 0 H 10.018796 Q 9.9224769,0.50348438 9.6335207,0.97194377 9.3489426,1.4447813 8.7841644,1.8037875 8.2193863,2.1671719 7.2868457,2.346675 L 7.0285363,1.6505532 Q 9.0118269,1.2696563 9.3270519,0 H 8.6353082 q -1.6593094,0 -1.6593094,-1.3440844 0,-0.4290563 0.1707469,-0.8581125 0.175125,-0.4290563 0.5034843,-0.7136344 0.3327375,-0.2845781 0.8011969,-0.2845781 z m 0.1401,2.40359064 h 0.7749282 q -0.052537,-0.84497814 -0.2802,-1.23025314 -0.2232844,-0.385275 -0.6479626,-0.385275 -0.2802,0 -0.4421906,0.1795031 -0.1576125,0.1795031 -0.2232844,0.4246781 -0.061294,0.2407969 -0.061294,0.4378126 0,0.3064687 0.2057719,0.44219058 0.21015,0.13134376 0.6742312,0.13134376 z M 3.544775,2.3554313 3.2864656,1.6593094 q 1.0682625,-0.2320406 1.506075,-0.81433126 0.4378125,-0.57791251 0.4378125,-1.37035315 0,-0.37214063 -0.083184,-0.77930629 -0.078806,-0.4115437 -0.2232843,-0.8362219 l 0.7267687,-0.245175 q 0.315225,0.8975157 0.315225,1.72935944 0,0.73114689 -0.2583094,1.35284065 Q 5.4536375,1.3221938 4.9151281,1.7556282 4.3809969,2.1934407 3.544775,2.3554313 Z M 1.1762091,-0.78806251 q 1.6812,0 1.6812,-0.87124689 0,-0.4115438 -0.4203,-0.8712469 -0.4203,-0.4597031 -1.3922438,-0.9894563 l 0.3458719,-0.6917437 q 1.1251781,0.5735344 1.6680656,1.2127406 0.5472657,0.6348282 0.5472657,1.3265719 0,0.82308754 -0.5691563,1.24338754 -0.5647781,0.42030001 -1.7950313,0.42030001 -0.58666872,0 -1.05950623,-0.105075 v -0.79244064 q 0.57353439,0.11820938 0.99383443,0.11820938 z"
         id="path12" />
      <path
         style="font-size:7.9701px;font-family:Vazirmatn"
         d="M 50.80137,9.8761214 Q 50.634029,9.7282387 50.42388,9.5103063 50.217622,9.2884822 50.02304,9.0510915 49.828457,8.8137008 49.700033,8.611335 49.5755,8.4050776 49.5755,8.2922197 q 0,-0.1595577 0.167341,-0.2879821 0.167341,-0.1284245 0.439756,-0.2179325 0.276307,-0.089508 0.595423,-0.1362077 0.319115,-0.050592 0.622664,-0.050592 0.299657,0 0.618772,0.050592 0.319116,0.0467 0.591531,0.1362077 0.276307,0.089508 0.44754,0.2179325 0.171233,0.1284244 0.171233,0.2879821 0,0.1128579 -0.132317,0.3268986 -0.128424,0.2101491 -0.33079,0.4592148 -0.202366,0.2451739 -0.42419,0.4708897 -0.217932,0.2257157 -0.40084,0.3735984 0.326899,0.2023658 0.712172,0.2646318 0.385274,0.06227 0.914538,0.06227 h 0.233499 V 10.958 h -0.233499 q -0.393057,0 -0.747197,-0.0467 -0.35414,-0.05059 -0.712172,-0.19069 -0.35414,-0.143992 -0.758872,-0.42419 -0.622664,0.350248 -0.996262,0.712172 -0.369707,0.361923 -0.369707,0.770546 0,0.544831 0.420298,0.867838 0.420299,0.323007 1.264787,0.323007 0.338573,0 0.696605,-0.05837 0.358032,-0.05448 0.708281,-0.171233 l 0.151774,0.649906 q -0.33079,0.120641 -0.735522,0.186799 -0.40084,0.07005 -0.840596,0.07005 -0.696606,0 -1.221979,-0.206258 -0.525373,-0.206257 -0.817246,-0.622664 -0.287982,-0.416407 -0.287982,-1.039071 0,-0.358031 0.143991,-0.646014 0.147882,-0.287982 0.373598,-0.517589 0.229607,-0.229607 0.482565,-0.412515 0.256849,-0.182908 0.478673,-0.3268986 z m 0.599314,-1.6072516 q -0.175124,0 -0.502023,0.031133 -0.323007,0.027242 -0.610989,0.1245328 0.252957,0.3152237 0.509806,0.5720726 0.256849,0.2529573 0.428082,0.4047316 0.175124,0.1478828 0.175124,0.1478828 0,0 0.175124,-0.1478828 Q 51.750932,9.2495657 52.011673,8.9966084 52.272414,8.7397595 52.521479,8.4245358 52.233497,8.3272445 51.906598,8.300003 51.5797,8.2688698 51.400684,8.2688698 Z m -4.52599,-2.3427735 0.56429,0.5642893 -0.56429,0.5642893 -0.564289,-0.5642893 z M 44.333447,10.129079 Q 45.026161,8.9460169 45.695524,8.3856193 46.364888,7.82133 47.034252,7.82133 q 0.443648,0 0.786114,0.1945825 0.346356,0.1906909 0.540939,0.5214812 0.194582,0.3307902 0.194582,0.7471968 -0.0039,0.8522715 -0.716063,1.2647865 Q 47.127652,10.958 45.683849,10.958 h -0.206257 q -0.82503,0 -1.257003,-0.155666 Q 43.788616,10.646668 43.6096,10.366469 43.383884,10.67391 43.099794,10.817901 42.819595,10.958 42.352597,10.958 h -0.159558 l 0.0039,-0.70828 h 0.155666 q 0.544831,0 0.73163,-0.229608 0.190691,-0.2334986 0.190691,-0.6732551 0,-0.1867992 -0.01557,-0.3463568 -0.01168,-0.1595577 -0.01946,-0.3424653 l 0.649906,-0.077833 0.05837,0.9106462 q 0.01946,0.2607406 0.108967,0.4514314 0.08951,0.1867996 0.276307,0.1867996 z m 2.731938,-1.5994686 q -0.937887,0 -2.027549,1.7201096 h 0.630447 q 1.10912,0 1.653951,-0.221824 0.544831,-0.2218243 0.544831,-0.704389 0,-0.3424652 -0.221824,-0.5681809 Q 47.427309,8.5296104 47.065385,8.5296104 Z M 40.422338,8.1132038 q 0.607097,0 1.023504,0.544831 0.416406,0.5409394 0.431973,1.5916852 h 0.47089 V 10.958 h -0.533156 q -0.08562,0.44754 -0.342466,0.863947 -0.252957,0.420298 -0.75498,0.739413 -0.502023,0.323007 -1.330944,0.482565 L 39.157551,12.425152 Q 40.920469,12.086579 41.200668,10.958 h -0.614881 q -1.474935,0 -1.474935,-1.1947365 0,-0.3813817 0.151774,-0.7627634 0.155666,-0.3813818 0.44754,-0.6343391 0.295765,-0.2529572 0.712172,-0.2529572 z m 0.124533,2.1365162 h 0.688822 q -0.0467,-0.7510887 -0.249066,-1.0935539 -0.198474,-0.3424653 -0.575964,-0.3424653 -0.249066,0 -0.393057,0.1595577 -0.140099,0.1595577 -0.198474,0.3774901 -0.05448,0.2140408 -0.05448,0.389165 0,0.2724154 0.182908,0.3930564 0.186799,0.11675 0.599314,0.11675 z m -3.432435,0.797788 q -0.389165,0 -0.719956,-0.167341 -0.326898,-0.171232 -0.681038,-0.513698 -0.252958,0.284091 -0.486457,0.439757 Q 34.993486,10.958 34.569296,10.958 h -0.171232 v -0.70828 h 0.151774 q 0.260741,0 0.439757,-0.147883 0.179016,-0.1517743 0.319115,-0.3891649 0.140099,-0.2373907 0.276307,-0.5020229 0.1401,-0.2685239 0.311332,-0.5059146 0.171233,-0.2373906 0.412515,-0.3852734 0.245174,-0.1517743 0.603206,-0.1517743 0.431973,0 0.751088,0.2101491 0.323007,0.2062575 0.498132,0.556506 0.179016,0.3502485 0.179016,0.7822217 0,0.6343393 -0.323007,0.9845873 -0.319116,0.346357 -0.902863,0.346357 z M 36.927637,8.856509 q -0.194583,0 -0.354141,0.1323161 -0.159557,0.1284245 -0.287982,0.3346819 -0.128424,0.2062575 -0.229607,0.4280816 0.233499,0.2451739 0.482565,0.4008404 0.319115,0.206257 0.56818,0.206257 0.575965,0 0.575965,-0.5798559 0,-0.4047316 -0.202366,-0.6615805 Q 37.281777,8.856509 36.927637,8.856509 Z M 32.965936,8.6580348 q 0,0.7316303 0.155666,1.4360192 0.155666,0.700497 0.455323,1.272569 0.303549,0.572073 0.747197,0.910647 l -0.147882,0.474781 q -0.431974,-0.233499 -0.782222,-0.649906 -0.350249,-0.416406 -0.603206,-0.965129 -0.249066,-0.544831 -0.385273,-1.17917 -0.136208,-0.634339 -0.136208,-1.2998112 0,-0.6654722 0.136208,-1.2998112 0.136207,-0.634339 0.385273,-1.1791701 0.252957,-0.5487227 0.603206,-0.9651292 0.350248,-0.4164066 0.782222,-0.6499056 L 34.324122,5.0388 q -0.443648,0.3385736 -0.747197,0.9106462 -0.299657,0.5720726 -0.455323,1.2764613 -0.155666,0.7004971 -0.155666,1.4321273 z m -0.292403,0 q 0,-0.7316302 -0.155666,-1.4321273 Q 32.366092,6.5215188 32.062544,5.9494462 31.758995,5.3773736 31.315347,5.0388 l 0.147882,-0.4747813 q 0.431974,0.233499 0.782222,0.6499056 0.350249,0.4164065 0.599314,0.9651292 0.252958,0.5448311 0.389165,1.1791701 0.136208,0.634339 0.136208,1.2998112 0,0.6654722 -0.136208,1.2998112 -0.136207,0.634339 -0.389165,1.17917 -0.249065,0.548723 -0.599314,0.965129 -0.350248,0.416407 -0.782222,0.649906 L 31.315347,12.27727 q 0.443648,-0.338574 0.747197,-0.910647 0.303548,-0.572072 0.455323,-1.272569 0.155666,-0.7043889 0.155666,-1.4360192 z m -2.233808,0.8094633 q 0.0467,0.3346819 0.241283,0.5603979 0.198474,0.221824 0.455323,0.221824 h 0.105074 V 10.958 h -0.105074 q -0.237391,0 -0.47089,-0.101183 -0.229607,-0.101183 -0.381382,-0.342465 -0.132316,0.249066 -0.37749,0.37749 -0.245174,0.128425 -0.626555,0.128425 -0.229608,0 -0.466998,-0.07394 -0.233499,-0.07394 -0.451432,-0.167341 -0.214041,-0.09729 -0.393057,-0.171232 -0.179015,-0.07394 -0.299657,-0.07394 -0.217932,0 -0.33079,0.143991 -0.108966,0.1401 -0.147883,0.478673 -0.03502,0.338574 -0.03502,0.937888 0,0.264632 0.0039,0.47089 0.0078,0.210149 0.01946,0.412515 0.01557,0.202366 0.03113,0.459214 h -0.669364 q -0.01946,-0.358031 -0.03113,-0.673255 -0.01168,-0.311332 -0.01168,-0.630447 0,-0.435865 0.02335,-0.828922 0.02724,-0.393057 0.120641,-0.70828 0.09729,-0.319116 0.299657,-0.525373 0.202366,-0.2101492 0.556506,-0.2763073 0.217932,-0.7588718 0.568181,-1.190845 0.35414,-0.4358648 0.965129,-0.4358648 0.358032,0 0.657689,0.1712326 0.299657,0.167341 0.498131,0.4631064 0.202366,0.2918738 0.252957,0.6654722 z m -0.630447,0.3307903 q 0,-0.40084 -0.214041,-0.6693639 -0.21404,-0.2724155 -0.548722,-0.2724155 -0.241283,0 -0.408624,0.1517744 -0.167341,0.1478827 -0.280198,0.3930566 -0.112858,0.2412824 -0.198475,0.5175895 0.42419,0.1867995 0.704389,0.2957655 0.284091,0.105075 0.42419,0.105075 0.256849,0 0.389165,-0.1401 0.132316,-0.143991 0.132316,-0.3813816 z M 22.064895,10.958 v -0.70828 h 0.805571 v -0.07005 q 0,-0.4164065 0.07394,-0.844488 0.07783,-0.4319732 0.241282,-0.7938967 0.163449,-0.3658151 0.428082,-0.5876392 0.268524,-0.2218241 0.649905,-0.2218241 0.49424,0 0.774439,0.3463569 0.280199,0.3463569 0.280199,0.9028629 0,0.3619235 -0.143992,0.712172 -0.143991,0.3502482 -0.393056,0.6382302 -0.249066,0.287983 -0.568181,0.459215 -0.319115,0.171233 -0.669364,0.171233 0.07783,0.326898 0.30744,0.665472 0.229608,0.338574 0.572073,0.560398 0,-1.938042 1.638385,-1.938042 h 0.128424 V 10.958 h -0.136208 q -0.521481,0 -0.786113,0.284091 -0.26074,0.28409 -0.26074,0.961237 0,0.08562 0.0039,0.179016 0.0039,0.09729 0.01168,0.190691 l -0.482565,0.47089 Q 23.878404,12.709243 23.465889,12.16052 23.053374,11.615689 22.92495,10.958 Z m 2.190999,-2.5412475 q -0.233499,0 -0.40084,0.233499 -0.167341,0.233499 -0.256849,0.634339 -0.08562,0.3969484 -0.08562,0.8911875 v 0.07783 q 0.326898,0 0.595422,-0.175124 0.268524,-0.1751241 0.428082,-0.4631062 0.159557,-0.2918738 0.159557,-0.634339 0,-0.2763072 -0.124532,-0.4202982 Q 24.450477,8.4167525 24.255894,8.4167525 Z M 19.297931,10.24972 h 0.455323 q 0.49424,0 0.704389,-0.221824 0.214041,-0.2218243 0.214041,-0.6810391 0,-0.1867992 -0.01168,-0.3541401 -0.0078,-0.167341 -0.02335,-0.334682 l 0.649906,-0.077833 0.06227,0.9106462 q 0.0467,0.758872 0.790005,0.758872 h 0.08172 V 10.958 h -0.08951 q -0.431974,0 -0.692714,-0.155666 -0.256849,-0.155666 -0.416407,-0.439756 -0.210149,0.30744 -0.552614,0.451431 Q 20.126853,10.958 19.753254,10.958 h -0.455323 z m 0.80168,1.303703 0.564289,0.564289 -0.564289,0.564289 -0.564289,-0.564289 z m -2.331098,-0.505915 q -0.389165,0 -0.719955,-0.167341 -0.326899,-0.171232 -0.681039,-0.513698 -0.252958,0.284091 -0.486457,0.439757 Q 15.647563,10.958 15.223373,10.958 h -0.171232 v -0.70828 h 0.151774 q 0.260741,0 0.439757,-0.147883 0.179016,-0.1517743 0.319115,-0.3891649 0.140099,-0.2373907 0.276307,-0.5020229 0.1401,-0.2685239 0.311332,-0.5059146 0.171233,-0.2373906 0.412515,-0.3852734 0.245174,-0.1517743 0.603206,-0.1517743 0.431973,0 0.751089,0.2101491 0.323007,0.2062575 0.498131,0.556506 0.179016,0.3502485 0.179016,0.7822217 0,0.6343393 -0.323007,0.9845873 -0.319116,0.346357 -0.902863,0.346357 z M 17.581714,8.856509 q -0.194583,0 -0.354141,0.1323161 -0.159557,0.1284245 -0.287982,0.3346819 -0.128424,0.2062575 -0.229607,0.4280816 0.233499,0.2451739 0.482565,0.4008404 0.319115,0.206257 0.568181,0.206257 0.575964,0 0.575964,-0.5798559 0,-0.4047316 -0.202366,-0.6615805 Q 17.935854,8.856509 17.581714,8.856509 Z"
         id="path13" />
    </g>
  </g>
</svg>
