<?xml version="1.0" encoding="UTF-8" standalone="no"?>


<svg class="tikz-diagram" id="iran-action-ch2-tikz-6-d394601179c4"
   version="1.1"
   id="svg1"
   width="478.16"
   height="269.17334"
   viewBox="0 0 478.16 269.17334"
   sodipodi:docname="iran-action-ch2-tikz-6-d394601179c4.pdf"
   xmlns:inkscape="http://www.inkscape.org/namespaces/inkscape"
   xmlns:sodipodi="http://sodipodi.sourceforge.net/DTD/sodipodi-0.dtd"
   xmlns="http://www.w3.org/2000/svg"
   xmlns:svg="http://www.w3.org/2000/svg">
  <defs
     id="defs1" />
  <sodipodi:namedview
     id="namedview1"
     pagecolor="#ffffff"
     bordercolor="#000000"
     borderopacity="0.25"
     inkscape:showpageshadow="2"
     inkscape:pageopacity="0.0"
     inkscape:pagecheckerboard="0"
     inkscape:deskcolor="#d1d1d1">
    <inkscape:page
       x="0"
       y="0"
       inkscape:label="1"
       id="page1"
       width="478.16"
       height="269.17334"
       margin="0"
       bleed="0" />
  </sodipodi:namedview>
  <g
     id="g1"
     inkscape:groupmode="layer"
     inkscape:label="1">
    <path
       id="path1"
       d="m 238.11409,68.0326 c 0,25.04922 -25.38229,45.35505 -56.69382,45.35505 -31.31154,0 -56.69381,-20.30583 -56.69381,-45.35505 0,-25.04925 25.38227,-45.35506 56.69381,-45.35506 31.31153,0 56.69382,20.30581 56.69382,45.35506 z"
       style="fill:#ebbbc0;fill-opacity:1;fill-rule:nonzero;stroke:none"
       transform="matrix(1.3333333,0,0,-1.3333333,27.749333,231.31467)" />
    <path
       style="font-weight:800;font-size:9.9626px;font-family:Vazirmatn"
       d="m 12.612496,0 h -0.773464 v -1.4058551 h 0.778328 q 0.369706,0 0.505914,-0.2286339 0.141071,-0.2334985 0.141071,-0.5886107 0,-0.3307894 -0.0827,-0.7199535 -0.07783,-0.3940286 -0.16053,-0.768599 l 1.274512,-0.3307894 q 0.09243,0.4572678 0.145937,0.909671 0.05837,0.4475386 0.05837,0.8561609 0,0.6469852 -0.175123,1.1626276 -0.175124,0.51564237 -0.588611,0.81724451 Q 13.327585,0 12.612496,0 Z m 0.574017,-6.3433741 0.875619,0.8756192 -0.875619,0.8707545 -0.870755,-0.8707545 z M 9.8251083,-6.8201 h 1.3134287 v 4.4461993 q 0,0.5156423 0.150801,0.7442762 0.150801,0.2237694 0.622663,0.2237694 h 0.121613 V 0 H 11.912001 Q 10.822341,0 10.321292,-0.56428788 9.8251083,-1.1285758 9.8251083,-2.2571515 Z M 8.447156,0 Q 8.0044819,0 7.7174734,-0.17025927 7.5228913,0.94858738 6.7591569,1.67827 6.000287,2.4079526 4.7306393,2.6511801 L 4.2490487,1.3523451 Q 4.9544086,1.201544 5.4603219,0.94858738 5.9710997,0.7004953 6.2483791,0.28214394 q 0.2772794,-0.41835136 0.2772794,-1.07993025 0,-0.44267409 -0.141072,-0.99236829 -0.141072,-0.5545588 -0.3016022,-1.0312848 l 1.3085642,-0.4232159 0.2821439,1.0993885 q 0.082697,0.3113312 0.2432275,0.5253714 0.1605302,0.2140403 0.476726,0.2140403 H 8.5833634 V 0 Z M 2.2253962,0 H 1.1795178 v -1.4058551 h 1.0507429 q 0.3697059,0 0.5059133,-0.2286339 0.141072,-0.2334985 0.141072,-0.5886107 0,-0.3307894 -0.082697,-0.7199535 -0.077833,-0.3940286 -0.1605302,-0.768599 l 1.2745123,-0.3307894 q 0.092427,0.4572678 0.1459365,0.909671 0.058375,0.4475386 0.058375,0.8561609 0,0.6469852 -0.1751238,1.1626276 Q 3.7674587,-0.59833973 3.3539719,-0.29673759 2.9404851,0 2.2253962,0 Z M 1.3059961,0.62266248 2.1329697,1.439907 2.9502142,0.62266248 3.7820524,1.4496361 2.9502142,2.2863388 2.1329697,1.4593652 1.3059961,2.2863388 0.47902248,1.4496361 Z M 0.62495877,-6.8201 v 6.81523545 H -0.68846991 V -6.8201 Z"
       id="text1"
       transform="matrix(1.3333333,0,0,1.3333333,256.89467,143.384)"
       aria-label="ناﺮﯾا" />
    <path
       id="path2"
       d="M 68.72047,127.39995 H 21.98962 c -2.75117,0 -4.98138,-2.23021 -4.98138,-4.98139 v -18.06181 c 0,-2.75117 2.23021,-4.98138 4.98138,-4.98138 h 46.73085 c 2.75118,0 4.98139,2.23021 4.98139,4.98138 v 18.06181 c 0,2.75118 -2.23021,4.98139 -4.98139,4.98139 z"
       style="fill:#e6fae6;fill-opacity:1;fill-rule:nonzero;stroke:#006633;stroke-width:0.3985;stroke-linecap:butt;stroke-linejoin:miter;stroke-miterlimit:10;stroke-dasharray:none;stroke-opacity:1"
       transform="matrix(1.3333333,0,0,-1.3333333,27.749333,231.31467)" />
    <g
       id="text2"
       transform="matrix(1.3333333,0,0,1.3333333,68.936,77.189333)"
       aria-label="ﷲ بﺰﺣنﺎﻨﺒﻟ">
      <path
         style="font-weight:800;font-size:8.9664px;font-family:Vazirmatn"
         d="m 22.089181,-7.1144532 v -1.3703532 h 0.459703 v 1.3703532 z m 0.446569,0.35025 q 0.0088,0.1707468 0.02627,0.3633843 0.01751,0.1882594 0.08318,0.3239813 0.07005,0.1313438 0.218906,0.1313438 0.126966,0 0.170747,-0.1006969 0.04816,-0.1006969 0.04816,-0.2495532 0,-0.1532343 -0.03065,-0.3108468 -0.03065,-0.1576125 -0.05692,-0.2845782 l 0.464081,-0.091941 q 0.09194,0.2933344 0.09194,0.6173156 0,0.3940313 -0.153235,0.6479626 -0.153234,0.2495531 -0.503484,0.2495531 -0.126966,0 -0.262687,-0.035025 -0.135722,-0.035025 -0.245175,-0.1663688 -0.08756,0.2364188 -0.284579,0.3196032 -0.197015,0.078806 -0.389653,0.078806 -0.345872,0 -0.499106,-0.2407969 -0.153234,-0.245175 -0.153234,-0.5822906 0,-0.2276625 0.07005,-0.4859719 l 0.429056,0.065672 q -0.01751,0.083184 -0.03503,0.1838812 -0.01751,0.096319 -0.01751,0.1882594 0,0.1488563 0.05254,0.2583094 0.05692,0.105075 0.205772,0.105075 0.258309,0 0.30209,-0.1795031 0.04378,-0.1795032 0.04378,-0.595425 l -0.0044,-0.1663688 z m 5.104894,0.6260718 v 6.13375327 H 26.45855 V -6.1381314 Z M 21.090969,0 Q 20.478031,0 20.084,-0.23204063 19.689969,-0.46845938 19.514844,-1.0025906 q -0.503485,0.39403122 -1.09891,0.39403122 -0.726769,0 -1.212741,-0.39403122 -0.485971,-0.3984094 -0.485971,-1.1733376 0,-0.5691562 0.328359,-0.9719437 0.328359,-0.4071657 0.844978,-0.6829875 0.520997,-0.2758219 1.085775,-0.4465688 l -0.03065,-0.21015 1.059507,-0.2145281 0.415921,2.8107563 q 0.0394,0.2670656 0.205772,0.4465687 0.170747,0.1795032 0.481594,0.1795032 h 0.214528 q 0.227663,0 0.323981,-0.1269657 0.100697,-0.1269656 0.122588,-0.35025 0.02189,-0.2276625 0.02189,-0.5122406 v -2.6487657 h 1.173337 v 2.6487657 q 0,0.2583094 0.02189,0.4859719 0.02627,0.2276625 0.122587,0.3677625 0.100697,0.1357219 0.323981,0.1357219 h 0.205772 q 0.363385,0 0.446569,-0.2495532 0.08756,-0.2539312 0.08756,-0.6173156 v -3.4718532 h 1.177715 V -2.03145 q 0,0.9500531 -0.380897,1.49294062 Q 24.58909,0 23.634659,0 H 23.4464 Q 23.078637,0 22.81595,-0.13134375 22.553262,-0.26706563 22.373759,-0.48159376 22.1855,-0.2626875 21.944703,-0.13134375 21.703906,0 21.314253,0 Z m -1.816922,-2.3510532 q 0,-0.061294 -0.01313,-0.1357218 -0.0088,-0.078806 -0.02189,-0.1619907 l -0.07443,-0.4597031 q -0.310847,0.105075 -0.612938,0.245175 -0.297713,0.1357219 -0.494728,0.3020906 -0.192638,0.1619907 -0.192638,0.35025 0,0.1795032 0.144478,0.2933344 0.148857,0.1094531 0.385275,0.1094531 0.201394,0 0.402788,-0.056916 0.205772,-0.061294 0.341494,-0.1795031 0.135722,-0.1225875 0.135722,-0.3064688 z M 8.001007,0.51661876 8.7890695,1.3046813 8.001007,2.0883657 7.2173226,1.3046813 Z M 8.7190195,0 H 7.7076726 Q 6.950257,0 6.3110507,-0.09194063 5.6762226,-0.18825938 5.2033851,-0.42467813 4.7349257,-0.66109689 4.4722382,-1.085775 4.2139288,-1.5148313 4.2139288,-2.1803063 q 0,-0.3940312 0.087563,-0.7661719 0.087562,-0.3765187 0.2189062,-0.6961219 l 1.0551282,0.3940313 q -0.074428,0.2057719 -0.1532344,0.4815938 -0.074428,0.2714437 -0.074428,0.5166187 0,0.4378125 0.3239812,0.6479625 0.3239813,0.21015 0.8581126,0.2758219 0.5385093,0.061294 1.1777156,0.061294 h 1.0244813 q 0.8099531,0 1.2609,-0.1444782 0.4553251,-0.1444781 0.4553251,-0.5822906 0,-0.2889563 -0.07005,-0.6567188 -0.06567,-0.3677625 -0.148856,-0.7005 l 1.151447,-0.2889562 q 0.08756,0.4115437 0.135721,0.8187094 0.04816,0.4027875 0.04816,0.7661718 0,0.6567188 -0.218906,1.06388443 -0.218907,0.40716564 -0.612938,0.62169376 -0.389653,0.21452813 -0.9062719,0.29333438 Q 9.3100664,0 8.7190195,0 Z M 1.4916451,-5.1005157 2.2797076,-4.3124532 1.4916451,-3.5287688 0.70796072,-4.3124532 Z M 3.1115514,0 Q 2.713142,0 2.4548326,-0.15323438 2.2797076,0.85373439 1.592342,1.5104531 0.90935448,2.1671719 -0.23333617,2.3860782 L -0.66677055,1.2171188 Q -0.03194241,1.0813969 0.4233826,0.85373439 0.88308573,0.63045001 1.1326389,0.25393125 1.382192,-0.1225875 1.382192,-0.71801251 1.382192,-1.1164219 1.2552264,-1.61115 1.1282607,-2.1102563 0.9837826,-2.5393125 l 1.1777156,-0.3808969 0.2539313,0.9894562 q 0.074428,0.2802 0.2189063,0.4728376 0.1444781,0.1926375 0.4290562,0.1926375 H 3.2341389 V 0 Z m -9.0452066,-1.2652781 h 0.7442813 q 0.5647781,0 1.05075,-0.105075 0.4859719,-0.1094532 0.9982125,-0.3239813 0.5166188,-0.2145281 1.1733375,-0.5341313 -0.6742312,-0.245175 -1.0901531,-0.4115437 -0.4159219,-0.1707469 -0.5691563,-0.1707469 -0.2364187,0 -0.4290562,0.1488563 -0.1882594,0.1444781 -0.3108469,0.3064687 l -0.2320407,0.2933344 -0.9807,-0.4815938 0.1970157,-0.315225 q 0.3108468,-0.5078625 0.7442812,-0.8406 0.4334344,-0.3371156 1.015725,-0.3371156 0.245175,0 0.5691563,0.1138312 0.3283594,0.1138313 0.7005,0.2845782 0.3765188,0.1663687 0.7749281,0.3371156 0.4027876,0.1663687 0.79244068,0.2845781 0.39403126,0.1182094 0.75303751,0.1225875 v 1.1602032 q -0.3327375,0.043781 -0.61731563,0.1488562 -0.28457813,0.1006969 -0.59104686,0.2583094 -0.3064688,0.1576125 -0.7136344,0.37651876 -0.5604,0.2977125 -1.0595063,0.51224063 -0.4947281,0.21452813 -1.0201031,0.32835938 Q -4.5545458,0 -5.2025083,0 h -0.7311469 z"
         id="path23" />
      <path
         style="font-size:8.9664px;font-family:Vazirmatn"
         d="m 19.925136,7.2419714 0.634828,0.6348282 -0.634828,0.6348281 -0.634829,-0.6348281 z m 0.05254,4.8640966 q 0.731147,0 1.129556,-0.240796 0.402788,-0.236419 0.5604,-0.626072 0.161991,-0.385275 0.161991,-0.827466 0,-0.5209969 -0.1401,-1.0288594 -0.1401,-0.5078625 -0.262688,-0.8318438 l 0.74866,-0.3020906 q 0.205772,0.5647781 0.310847,1.0989094 0.109453,0.5297531 0.109453,1.0113464 0,0.739904 -0.275822,1.313438 -0.271444,0.573534 -0.849356,0.897516 -0.577913,0.323981 -1.492941,0.323981 -0.945675,0 -1.514831,-0.345872 -0.564778,-0.345872 -0.81871,-0.923784 -0.249553,-0.573535 -0.249553,-1.2609 0,-0.4640816 0.09632,-0.9500535 0.09632,-0.49035 0.262688,-0.9544313 l 0.696121,0.2802 q -0.126965,0.4027875 -0.214528,0.8274657 -0.08756,0.4246781 -0.08756,0.8230871 0,0.472838 0.166369,0.862491 0.170746,0.389653 0.569156,0.621694 0.398409,0.23204 1.094531,0.23204 z M 15.284322,4.9303214 h 0.739903 V 9.115809 q 0,0.6173156 0.227663,0.8318437 0.227662,0.2145283 0.687365,0.2145283 h 0.109454 V 10.959 h -0.109454 q -0.836221,0 -1.247765,-0.442191 -0.407166,-0.446569 -0.407166,-1.4053781 z m -2.364188,3.4412063 0.731147,-0.087562 0.07005,1.0244813 q 0.05254,0.8537345 0.88876,0.8537345 h 0.09194 V 10.959 h -0.100696 q -0.485972,0 -0.779307,-0.175125 Q 13.533072,10.60875 13.353569,10.289146 13.11715,10.635018 12.731875,10.797009 12.3466,10.959 11.9263,10.959 H 11.506 v -0.796819 h 0.4203 q 0.556022,0 0.792441,-0.2495533 0.240797,-0.2495531 0.240797,-0.7661718 0,-0.21015 -0.01314,-0.3984094 -0.0088,-0.1882594 -0.02627,-0.3765188 z m 0.08319,-2.1803063 0.634828,0.6348282 -0.634828,0.6348281 -0.634828,-0.6348281 z M 8.3931532,10.162181 h 0.5122406 q 0.5560219,0 0.7924407,-0.2495533 0.2407969,-0.2495531 0.2407969,-0.7661718 0,-0.21015 -0.013134,-0.3984094 -0.00876,-0.1882594 -0.026269,-0.3765188 l 0.7311468,-0.087562 0.07005,1.0244813 q 0.05254,0.8537345 0.88876,0.8537345 h 0.09194 V 10.959 h -0.100697 q -0.485972,0 -0.779306,-0.175125 Q 10.512166,10.60875 10.332663,10.289146 10.096244,10.635018 9.7109689,10.797009 9.3256938,10.959 8.9053938,10.959 H 8.3931532 Z M 9.295047,11.628853 9.9298751,12.263681 9.295047,12.898509 8.6602188,12.263681 Z M 5.8144378,10.162181 h 0.3677625 q 0.525375,0 0.7092562,-0.2977126 Q 7.0753378,9.5667559 7.0753378,9.1201871 V 4.9303214 H 7.8152409 V 9.115809 q 0,0.91065 -0.3940312,1.379109 Q 7.0271784,10.959 6.1778222,10.959 H 5.8144378 Z"
         id="path24" />
    </g>
    <path
       id="path3"
       d="M 46.04294,58.39977 H -0.6879 c -2.75117,0 -4.98138,-2.23021 -4.98138,-4.98139 V 37.29172 c 0,-2.75118 2.23021,-4.98139 4.98138,-4.98139 h 46.73084 c 2.75117,0 4.98138,2.23021 4.98138,4.98139 v 16.12666 c 0,2.75118 -2.23021,4.98139 -4.98138,4.98139 z"
       style="fill:#e6fae6;fill-opacity:1;fill-rule:nonzero;stroke:#006633;stroke-width:0.3985;stroke-linecap:butt;stroke-linejoin:miter;stroke-miterlimit:10;stroke-dasharray:none;stroke-opacity:1"
       transform="matrix(1.3333333,0,0,-1.3333333,27.749333,231.31467)" />
    <g
       id="text3"
       transform="matrix(1.3333333,0,0,1.3333333,41.609333,166.06)"
       aria-label="سﺎﻤﺣهﺰﻏ">
      <path
         style="font-weight:800;font-size:8.9664px;font-family:Vazirmatn"
         d="M 20.353904,0 Q 20.152511,0 19.986142,-0.06129375 19.824151,-0.12696563 19.684051,-0.21015 q -0.122587,1.12955627 -0.8406,1.7950313 -0.713634,0.665475 -1.970156,0.665475 -0.941297,0 -1.554234,-0.3590063 -0.60856,-0.3590062 -0.901894,-0.98069999 -0.293335,-0.62169376 -0.293335,-1.40100002 0,-0.52099689 0.113832,-1.07701879 0.113831,-0.5604 0.328359,-1.1164219 l 1.063884,0.4071657 q -0.16199,0.4640812 -0.271443,0.9062719 -0.109453,0.44219058 -0.109453,0.82746559 0,0.42030001 0.148856,0.77055001 0.148856,0.35025001 0.503484,0.56040001 0.354628,0.21015001 0.971944,0.21015001 0.63045,0 0.993834,-0.20139376 0.367763,-0.20139375 0.520997,-0.54726563 0.157613,-0.34587188 0.157613,-0.78368439 0,-0.47283754 -0.153235,-0.97194374 -0.148856,-0.5034844 -0.337115,-0.9588094 l 1.168959,-0.4378125 0.293335,0.9018937 q 0.100696,0.3064688 0.293334,0.5209969 0.197016,0.21015 0.551644,0.2145282 0.363384,0 0.481593,-0.1663688 0.122588,-0.1707469 0.122588,-0.5560219 0,-0.061294 -0.0088,-0.2145281 -0.0088,-0.1576125 -0.02189,-0.3458719 -0.01313,-0.1882594 -0.02627,-0.3458719 l 1.103288,-0.1357218 0.09194,1.1820937 q 0.02189,0.2670656 0.135722,0.4246782 0.113832,0.1576125 0.394032,0.1576125 0.262687,0 0.359006,-0.2057719 0.100697,-0.21015 0.100697,-0.4991063 0,-0.2495531 -0.04816,-0.5122406 -0.04378,-0.2670656 -0.100697,-0.4815938 -0.05254,-0.2189062 -0.07881,-0.3196031 l 1.133935,-0.3108469 q 0.08756,0.3458719 0.144478,0.7399032 0.05692,0.3896531 0.05692,0.7749281 0,0.5428875 -0.144478,1.0201031 -0.1401,0.47283754 -0.481594,0.76617192 Q 23.234711,0 22.643664,0 22.245254,0 21.978189,-0.16199063 21.711123,-0.32398126 21.527242,-0.56040001 21.303958,-0.32398126 21.019379,-0.16199063 20.739179,0 20.353904,0 Z m -8.502319,-6.1381314 h 1.182094 v 4.0016064 q 0,0.4640812 0.135721,0.6698531 0.135722,0.2013938 0.5604,0.2013938 h 0.109454 V 0 H 13.7298 Q 12.7491,0 12.298154,-0.50786251 11.851585,-1.015725 11.851585,-2.03145 Z M 6.221316,0 H 6.0286785 l 0.00438,-1.2652781 h 0.1663688 q 0.2145281,0 0.385275,-0.1663688 0.175125,-0.1663688 0.3327375,-0.4290563 0.1619906,-0.2670656 0.3371156,-0.5604 0.1795031,-0.2977125 0.3984094,-0.5604 0.2232844,-0.2670656 0.5166187,-0.4334344 0.2933344,-0.1663687 0.6873657,-0.1663687 0.4947281,0 0.8624906,0.2057719 0.3721411,0.2057718 0.5998031,0.5560219 0.227663,0.35025 0.302091,0.7836843 0.07443,0.4378125 0.245175,0.6041813 0.170747,0.1663688 0.363384,0.1663688 h 0.113831 V 0 h -0.118209 q -0.2802,0 -0.551644,-0.12696563 -0.271444,-0.13134375 -0.437812,-0.30646875 -0.218907,0.27582188 -0.4859722,0.40716563 -0.2670656,0.12696563 -0.6435844,0.12696563 -0.455325,0 -0.8537344,-0.19263751 Q 7.8587348,-0.28895625 7.482216,-0.57791251 7.2414191,-0.33711563 6.9787316,-0.16636875 6.7204222,0 6.221316,0 Z m 2.6750344,-2.3773219 q -0.1795031,0 -0.3239813,0.1225875 -0.1444781,0.1182094 -0.2539312,0.2889562 -0.1094531,0.1707469 -0.1838813,0.3239813 0.1357219,0.1225875 0.2583094,0.21015 0.1225875,0.087562 0.2320406,0.1488563 0.1488563,0.074428 0.2714438,0.1094531 0.1225875,0.030647 0.2145281,0.030647 0.2320407,0 0.3327375,-0.1663688 0.1006969,-0.1707469 0.1006969,-0.385275 0,-0.2758219 -0.1707469,-0.4772156 -0.1707468,-0.2057719 -0.4772156,-0.2057719 z m -8.98391265,1.1120438 h 0.74428126 q 0.56477809,0 1.05074999,-0.105075 0.4859719,-0.1094532 0.9982125,-0.3239813 0.5166188,-0.2145281 1.1733376,-0.5341313 -0.6742313,-0.245175 -1.0901532,-0.4115437 -0.4159219,-0.1707469 -0.5691562,-0.1707469 -0.2364188,0 -0.4290563,0.1488563 -0.1882594,0.1444781 -0.3108469,0.3064687 l -0.2320406,0.2933344 -0.98070002,-0.4815938 0.19701563,-0.315225 q 0.31084688,-0.5078625 0.74428129,-0.8406 0.4334344,-0.3371156 1.015725,-0.3371156 0.245175,0 0.5691562,0.1138312 0.3283594,0.1138313 0.7005001,0.2845782 0.3765187,0.1663687 0.7749281,0.3371156 0.4027875,0.1663687 0.7924406,0.2845781 0.3940313,0.1182094 0.7530375,0.1225875 v 1.1602032 q -0.3327375,0.043781 -0.6173156,0.1488562 -0.2845781,0.1006969 -0.5910469,0.2583094 -0.3064687,0.1576125 -0.7136344,0.37651876 -0.5604,0.2977125 -1.0595062,0.51224063 Q 2.337919,-0.22328438 1.812544,-0.10945313 1.2915471,0 0.64358464,0 h -0.73114689 z"
         id="path25" />
      <path
         style="font-size:8.9664px;font-family:Vazirmatn"
         d="M 14.707996,7.7191871 14.537249,7.5659527 15.00133,6.9661496 q 0.577913,0.4772156 1.015726,0.8931375 0.44219,0.4115437 0.691743,0.8099531 0.249553,0.3940313 0.249553,0.8187094 0,0.6654754 -0.455325,1.0595064 -0.455325,0.394031 -1.199606,0.394031 -0.761794,0 -1.208362,-0.37214 -0.446569,-0.376519 -0.446569,-0.9544318 0,-0.5078625 0.271444,-0.945675 0.271443,-0.4421906 0.788062,-0.9500531 z m 1.506075,1.7337375 q 0,-0.2013937 -0.148856,-0.4115437 Q 15.920737,8.8268527 15.697452,8.6167027 15.478546,8.4021746 15.250884,8.205159 q -0.402788,0.385275 -0.63045,0.6917437 -0.227663,0.3020907 -0.227663,0.6348282 0,0.2539312 0.214528,0.4421906 0.214528,0.1882595 0.691744,0.1882595 0.481594,0 0.696122,-0.1751251 0.218906,-0.175125 0.218906,-0.5341313 z M 10.860745,6.4539089 11.495573,7.0887371 10.860745,7.7235652 10.225917,7.0887371 Z M 12.485029,10.959 q -0.30209,0 -0.507862,-0.07881 -0.201394,-0.08318 -0.315225,-0.175125 -0.06567,0.573535 -0.319603,1.107666 -0.249554,0.538509 -0.753038,0.936919 -0.503484,0.398409 -1.33095,0.5604 L 9.0000417,12.618309 q 1.0682623,-0.232041 1.5060753,-0.814331 0.437812,-0.577913 0.437812,-1.370353 0,-0.372141 -0.08318,-0.7793066 -0.07881,-0.4115438 -0.223285,-0.8362219 l 0.726769,-0.245175 0.236419,0.9150281 q 0.09632,0.3677625 0.306469,0.5209964 0.21015,0.153235 0.529753,0.153235 h 0.166369 V 10.959 Z M 7.5289917,5.1317152 8.1638198,5.7665433 7.5289917,6.4013714 6.8941636,5.7665433 Z M 6.3337636,10.162181 Q 6.1367479,9.9170059 5.9966479,9.5623777 5.860926,9.2033715 5.860926,8.8443652 q 0,-0.4684594 0.2451751,-0.8493562 0.245175,-0.3808969 0.6435843,-0.6041813 0.3984094,-0.2232844 0.8581126,-0.2232844 0.6961218,0 1.4929406,0.5428875 L 8.8074042,8.3627715 Q 8.1244167,7.959984 7.6559573,7.959984 q -0.4027875,0 -0.7136344,0.2495531 -0.3108468,0.2495531 -0.3108468,0.665475 0,0.3239813 0.1444781,0.5735344 0.1488562,0.2495531 0.315225,0.3896531 0.1663687,0.1357219 0.2232844,0.1357219 0.078806,0 0.1532343,-0.021891 L 9.3196449,9.5098402 V 10.306659 Q 8.2294917,10.639397 7.3013292,10.801387 6.3775448,10.959 5.4668948,10.959 H 4.9896792 v -0.796819 z"
         id="path26" />
    </g>
    <path
       id="path5"
       d="M 136.75308,149.16682 H 90.02223 c -2.75117,0 -4.98138,-2.23021 -4.98138,-4.98138 v -16.24049 c 0,-2.75118 2.23021,-4.98139 4.98138,-4.98139 h 46.73085 c 2.75118,0 4.98139,2.23021 4.98139,4.98139 v 16.24049 c 0,2.75117 -2.23021,4.98138 -4.98139,4.98138 z"
       style="fill:#e6fae6;fill-opacity:1;fill-rule:nonzero;stroke:#006633;stroke-width:0.3985;stroke-linecap:butt;stroke-linejoin:miter;stroke-miterlimit:10;stroke-dasharray:none;stroke-opacity:1"
       transform="matrix(1.3333333,0,0,-1.3333333,27.749333,231.31467)" />
    <g
       id="text5"
       transform="matrix(1.3333333,0,0,1.3333333,148.10133,45.189333)"
       aria-label="ﯽﺒﻌﺸﻟاﺪﺸﺣقاﺮﻋ">
      <path
         style="font-weight:800;font-size:8.9664px;font-family:Vazirmatn"
         d="m 42.607912,2.2503563 q -0.963187,0 -1.571747,-0.3721406 Q 40.431984,1.506075 40.143028,0.88000314 39.85845,0.25830938 39.85845,-0.50348438 q 0,-0.43343439 0.08318,-0.90627192 0.08756,-0.4728375 0.271444,-0.9631875 l 1.063884,0.385275 q -0.131344,0.3808969 -0.21015,0.7574157 -0.07881,0.37651871 -0.07881,0.70925622 0,0.42467813 0.148856,0.76617188 0.153235,0.34587188 0.507863,0.54726564 0.354628,0.20577188 0.963187,0.20577188 0.696122,0 1.116422,-0.14447813 0.4203,-0.14447813 0.60856,-0.32398126 0.192637,-0.17950312 0.192637,-0.2802 0,-0.15323438 -0.148856,-0.20139375 Q 44.232197,0 43.912593,0 H 43.22085 q -0.179503,0 -0.227663,-0.09194063 -0.04816,-0.09194062 -0.09194,-0.245175 L 42.712987,-1.015725 q -0.03065,-0.1094531 -0.02189,-0.1795031 0.01313,-0.07005 0.170746,-0.07005 h 2.644388 V 0 h 0.03502 q 0.0394,0.15323438 0.0394,0.245175 0,0.53413126 -0.354628,0.9894563 -0.35025,0.4597031 -1.015725,0.735525 -0.661097,0.2802 -1.602394,0.2802 z m -6.322011,-3.5156344 h 0.512241 q 0.481594,0 0.661097,-0.1619907 0.183881,-0.1663687 0.183881,-0.6041812 0,-0.2583094 -0.01313,-0.4991063 -0.01314,-0.245175 -0.03065,-0.4772156 l 1.094531,-0.1357219 0.08756,1.2521438 q 0.02189,0.3327375 0.183881,0.4815937 0.16199,0.1444782 0.516619,0.1444782 h 0.09194 V 0 H 39.473176 Q 39.035364,0 38.720139,-0.1576125 38.409292,-0.31522501 38.207898,-0.56915626 37.940833,-0.30209063 37.57307,-0.14885625 37.209686,0 36.798142,0 H 36.285901 Z M 37.187795,0.51661876 37.975858,1.3046813 37.187795,2.0883657 36.404111,1.3046813 Z M 33.969873,-3.8571282 q 0.345872,0 0.735525,0.052538 0.389653,0.048159 0.731147,0.1619906 0.341494,0.1094532 0.556022,0.2889563 0.218906,0.175125 0.218906,0.4246781 0,0.1444782 -0.113831,0.3546282 -0.109453,0.21015 -0.284578,0.4421906 -0.170747,0.2276625 -0.359007,0.4378125 -0.183881,0.2057719 -0.328359,0.35025 0.179503,0.052538 0.345872,0.065672 0.166369,0.013134 0.310847,0.013134 h 0.682987 V 0 h -0.678609 q -0.512241,0 -0.967566,-0.11820938 -0.450947,-0.1225875 -0.849356,-0.32398125 -0.4203,0.21015 -1.011347,0.32835938 Q 32.371857,0 31.850861,0 h -0.691744 v -1.2652781 h 0.696122 q 0.100697,0 0.271443,-0.00438 0.175125,-0.00438 0.363385,-0.021891 0.188259,-0.017513 0.323981,-0.056916 -0.144478,-0.1444781 -0.328359,-0.35025 -0.183882,-0.21015 -0.354628,-0.4378125 -0.170747,-0.2320407 -0.284579,-0.4378125 -0.113831,-0.21015 -0.113831,-0.3546282 0,-0.2495531 0.214528,-0.4246781 0.214528,-0.1795031 0.556022,-0.2889563 0.341494,-0.1138312 0.731147,-0.1619906 0.389653,-0.052538 0.735525,-0.052538 z m 0.0044,1.1470688 q -0.214528,0 -0.455325,0.021891 -0.236419,0.021891 -0.494728,0.074428 0.183881,0.1970157 0.402788,0.4115438 0.223284,0.21015 0.380896,0.3590062 0.161991,0.1488563 0.161991,0.1488563 0,0 0.161991,-0.1488563 0.16199,-0.1488562 0.385275,-0.3590062 0.227662,-0.2145281 0.407165,-0.4115438 -0.253931,-0.052537 -0.494728,-0.074428 -0.236419,-0.021891 -0.455325,-0.021891 z m -6.396441,-3.5419032 0.704878,0.7005 -0.704878,0.7048781 -0.704878,-0.7048781 z m 0.766172,1.1164219 0.704878,0.7048781 -0.704878,0.7048782 -0.704878,-0.7048782 z m -1.527965,0 0.7005,0.7048781 -0.7005,0.7048782 -0.704879,-0.7048782 z M 28.930651,0 Q 28.540998,0 28.269554,-0.16199063 27.99811,-0.32398126 27.814229,-0.56040001 27.590945,-0.32398126 27.306367,-0.16199063 27.026167,0 26.640892,0 26.198701,0 25.89661,-0.14885625 25.598898,-0.30209063 25.40626,-0.55164376 25.165463,-0.2977125 24.832726,-0.14885625 24.499988,0 23.992126,0 h -0.402788 v -1.2652781 h 0.411544 q 0.481594,0 0.682988,-0.1182094 0.205772,-0.1182094 0.205772,-0.5691563 0,-0.07005 -0.0088,-0.2320406 -0.0088,-0.1619906 -0.02189,-0.3546281 -0.01314,-0.1970157 -0.02627,-0.3546282 l 1.098909,-0.1357218 0.09194,1.1820937 q 0.0394,0.5822907 0.626072,0.5822907 0.363384,0 0.485972,-0.1488563 0.122587,-0.1532344 0.122587,-0.5385094 0,-0.061294 -0.0088,-0.2232844 -0.0088,-0.1663687 -0.02189,-0.3633843 -0.01313,-0.1970157 -0.02627,-0.3546282 l 1.098909,-0.1357218 0.09194,1.1820937 q 0.01751,0.2714438 0.135721,0.4290563 0.11821,0.1532344 0.394032,0.1532344 0.271443,0 0.367762,-0.1795032 0.100697,-0.1795031 0.100697,-0.5078625 0,-0.1576125 -0.01751,-0.455325 -0.01751,-0.2977125 -0.0394,-0.5691562 l 1.09891,-0.1357219 0.09194,1.2652781 q 0.02189,0.3239813 0.179504,0.455325 0.16199,0.1269657 0.499106,0.1269657 h 0.131344 V 0 H 31.211654 Q 30.808867,0 30.49802,-0.1401 30.191551,-0.2802 30.012048,-0.52099688 29.832545,-0.2977125 29.569857,-0.14885625 29.30717,0 28.930651,0 Z m -8.073263,-1.2652781 h 0.332737 q 0.455325,0 0.582291,-0.2145282 0.126965,-0.2145281 0.126965,-0.6523406 v -4.0059845 h 1.177716 v 4.1110595 q 0,1.0025906 -0.446569,1.51483127 Q 22.188338,0 21.185747,0 h -0.328359 z m -0.507862,-4.8728533 v 6.13375327 H 19.167432 V -6.1381314 Z m -3.80897,4.2467814 q 0,-0.1094532 -0.04816,-0.2889563 -0.04816,-0.1795031 -0.100697,-0.2933344 l -0.866869,-1.9132406 1.041994,-0.5078625 1.090153,2.5130438 q 0.131344,0.3020906 0.232041,0.5560218 0.105075,0.2539313 0.236419,0.4071657 0.135722,0.1532344 0.345872,0.1532344 h 0.183881 V 0 H 18.47131 q -0.49035,0 -0.792441,-0.18388125 -0.297712,-0.18825938 -0.525375,-0.48159376 -0.332738,0.31960313 -0.792441,0.49035001 -0.459703,0.17074687 -1.112043,0.17074687 -0.385275,0 -0.652341,-0.02626875 -0.267066,-0.02626875 -0.551644,-0.09631875 V -1.3922438 q 0.271444,0.065672 0.573535,0.1006969 0.306468,0.035025 0.564778,0.035025 0.323981,0 0.634828,-0.052537 0.310847,-0.056916 0.516619,-0.1970156 0.205771,-0.1401 0.205771,-0.385275 z m -6.523406,-4.3606126 0.704878,0.7005 -0.704878,0.7048781 -0.7048782,-0.7048781 z m 0.766172,1.1164219 0.704878,0.7048781 -0.704878,0.7048782 -0.704878,-0.7048782 z m -1.5279658,0 0.7005,0.7048781 -0.7005,0.7048782 L 8.550478,-4.4306626 Z M 11.369991,0 Q 10.980337,0 10.708894,-0.16199063 10.43745,-0.32398126 10.253569,-0.56040001 10.030284,-0.32398126 9.7457062,-0.16199063 9.4655062,0 9.0802312,0 8.6380405,0 8.3359499,-0.14885625 8.0382374,-0.30209063 7.8455999,-0.55164376 7.604803,-0.2977125 7.2720655,-0.14885625 6.939328,0 6.4314655,0 H 6.028678 v -1.2652781 h 0.4115438 q 0.4815937,0 0.6829875,-0.1182094 0.2057718,-0.1182094 0.2057718,-0.5691563 0,-0.07005 -0.00876,-0.2320406 -0.00876,-0.1619906 -0.021891,-0.3546281 -0.013134,-0.1970157 -0.026269,-0.3546282 l 1.0989094,-0.1357218 0.091941,1.1820937 q 0.039403,0.5822907 0.6260719,0.5822907 0.3633844,0 0.4859719,-0.1488563 0.1225875,-0.1532344 0.1225875,-0.5385094 0,-0.061294 -0.00876,-0.2232844 -0.00876,-0.1663687 -0.021891,-0.3633843 -0.013134,-0.1970157 -0.026269,-0.3546282 l 1.0989098,-0.1357218 0.09194,1.1820937 q 0.01751,0.2714438 0.135722,0.4290563 0.118209,0.1532344 0.394031,0.1532344 0.271444,0 0.367763,-0.1795032 0.100697,-0.1795031 0.100697,-0.5078625 0,-0.1576125 -0.01751,-0.455325 -0.01751,-0.2977125 -0.0394,-0.5691562 l 1.098909,-0.1357219 0.09194,1.2652781 q 0.02189,0.3239813 0.179503,0.455325 0.161991,0.1269657 0.499106,0.1269657 h 0.131344 V 0 H 13.650994 Q 13.248206,0 12.937359,-0.1401 12.630891,-0.2802 12.451387,-0.52099688 12.271884,-0.2977125 12.009197,-0.14885625 11.746509,0 11.369991,0 Z M -0.0875632,-1.2652781 h 0.74428126 q 0.56477814,0 1.05075004,-0.105075 Q 2.19344,-1.4798063 2.7056806,-1.6943344 3.2222994,-1.9088625 3.8790181,-2.2284657 3.2047869,-2.4736407 2.788865,-2.6400094 2.3729431,-2.8107563 2.2197087,-2.8107563 q -0.2364187,0 -0.4290562,0.1488563 -0.1882594,0.1444781 -0.3108469,0.3064687 l -0.2320407,0.2933344 -0.98069997,-0.4815938 0.19701563,-0.315225 q 0.31084688,-0.5078625 0.74428124,-0.8406 0.4334344,-0.3371156 1.015725,-0.3371156 0.245175,0 0.5691563,0.1138312 0.3283594,0.1138313 0.7005,0.2845782 0.3765188,0.1663687 0.7749281,0.3371156 0.4027876,0.1663687 0.7924407,0.2845781 0.3940312,0.1182094 0.7530375,0.1225875 v 1.1602032 q -0.3327375,0.043781 -0.6173156,0.1488562 -0.2845782,0.1006969 -0.5910469,0.2583094 -0.3064688,0.1576125 -0.7136344,0.37651876 -0.5604,0.2977125 -1.0595063,0.51224063 Q 2.3379181,-0.22328438 1.8125431,-0.10945313 1.2915462,0 0.64358369,0 H -0.0875632 Z"
         id="path27" />
      <path
         style="font-size:8.9664px;font-family:Vazirmatn"
         d="M 27.032403,4.461862 27.645341,5.0704214 27.032403,5.687737 26.423844,5.0704214 Z m -1.453537,0 0.612937,0.6085594 -0.612937,0.6173156 -0.608559,-0.6173156 z m 0.389653,5.700319 q 0.494728,0 0.796819,-0.05692 0.306469,-0.05692 0.446569,-0.2495529 0.144478,-0.1970156 0.144478,-0.6085594 -0.214528,0.065672 -0.437813,0.1006969 -0.218906,0.035025 -0.472837,0.035025 -1.488563,0 -1.488563,-1.2214969 0,-0.4203 0.166369,-0.8406 0.170747,-0.4203 0.499106,-0.7005 0.32836,-0.2845781 0.796819,-0.2845781 0.429056,0 0.735525,0.2189062 0.310847,0.2189063 0.507862,0.5910469 0.201394,0.3677625 0.297713,0.8362219 0.09632,0.4640812 0.09632,0.9588094 0,0.6523406 -0.11821,1.0551281 -0.113831,0.3984089 -0.367762,0.6085599 -0.253931,0.205771 -0.661097,0.2802 Q 26.50265,10.959 25.915982,10.959 h -1.61115 v -0.796819 z m 0.538509,-1.5323439 q 0.201394,0 0.39841,-0.035025 0.201394,-0.039403 0.402787,-0.096319 Q 27.2732,8.1876465 27.176882,7.8680433 27.084941,7.5484402 26.90106,7.3339121 26.717178,7.1150058 26.41071,7.1150058 q -0.271444,0 -0.437813,0.1707469 -0.16199,0.1707469 -0.236419,0.4071656 -0.07005,0.2364188 -0.07005,0.4378125 0,0.3020907 0.214529,0.4027875 0.218906,0.096319 0.626071,0.096319 z M 22.715572,4.9303214 h 0.739903 V 9.115809 q 0,0.6173156 0.227663,0.8318437 0.227662,0.2145283 0.687366,0.2145283 h 0.109453 V 10.959 h -0.109453 q -0.836222,0 -1.247766,-0.442191 Q 22.715572,10.07024 22.715572,9.1114309 Z M 21.405357,10.959 q -0.30209,0 -0.507862,-0.07881 -0.201394,-0.08318 -0.315225,-0.175125 -0.06567,0.573535 -0.319603,1.107666 -0.249553,0.538509 -0.753038,0.936919 -0.503484,0.398409 -1.33095,0.5604 L 17.92037,12.618309 q 1.068262,-0.232041 1.506075,-0.814331 0.437812,-0.577913 0.437812,-1.370353 0,-0.372141 -0.08318,-0.7793066 -0.07881,-0.4115438 -0.223284,-0.8362219 l 0.726768,-0.245175 0.236419,0.9150281 q 0.09632,0.3677625 0.306469,0.5209964 0.21015,0.153235 0.529753,0.153235 h 0.166369 V 10.959 Z M 15.254092,10.162181 Q 15.057076,9.9170059 14.916976,9.5623777 14.781254,9.2033715 14.781254,8.8443652 q 0,-0.4684594 0.245175,-0.8493562 0.245175,-0.3808969 0.643585,-0.6041813 0.398409,-0.2232844 0.858112,-0.2232844 0.696122,0 1.492941,0.5428875 L 17.727732,8.3627715 Q 17.044745,7.959984 16.576285,7.959984 q -0.402787,0 -0.713634,0.2495531 -0.310847,0.2495531 -0.310847,0.665475 0,0.3239813 0.144478,0.5735344 0.148857,0.2495531 0.315225,0.3896531 0.166369,0.1357219 0.223285,0.1357219 0.07881,0 0.153234,-0.021891 L 18.239973,9.5098402 V 10.306659 Q 17.14982,10.639397 16.221657,10.801387 15.297873,10.959 14.387223,10.959 h -0.477216 v -0.796819 z"
         id="path28" />
    </g>
    <path
       id="path7"
       d="M 114.07555,13.25047 H 67.3447 c -2.75118,0 -4.98139,-2.23019 -4.98139,-4.98138 V -8.26909 c 0,-2.75119 2.23021,-4.98138 4.98139,-4.98138 h 46.73085 c 2.75117,0 4.98138,2.23019 4.98138,4.98138 V 8.26909 c 0,2.75119 -2.23021,4.98138 -4.98138,4.98138 z"
       style="fill:#e6fae6;fill-opacity:1;fill-rule:nonzero;stroke:#006633;stroke-width:0.3985;stroke-linecap:butt;stroke-linejoin:miter;stroke-miterlimit:10;stroke-dasharray:none;stroke-opacity:1"
       transform="matrix(1.3333333,0,0,-1.3333333,27.749333,231.31467)" />
    <g
       id="text7"
       transform="matrix(1.3333333,0,0,1.3333333,130.156,226.936)"
       aria-label="ﺎﻫ ﯽﺛﻮﺣﻦﻤﯾ">
      <path
         style="font-weight:800;font-size:8.9664px;font-family:Vazirmatn"
         d="m 25.910164,-6.1381314 h 1.182094 v 4.0016064 q 0,0.4640812 0.135722,0.6698531 0.135722,0.2013938 0.5604,0.2013938 h 0.109453 V 0 H 27.78838 Q 26.80768,0 26.356733,-0.50786251 25.910164,-1.015725 25.910164,-2.03145 Z M 21.20368,-0.38089688 Q 20.809649,-0.245175 20.301787,-0.1225875 19.798302,0 19.316709,0 h -0.433435 v -1.2652781 h 0.376519 q 0.144478,0 0.271444,-0.00438 0.131343,-0.00438 0.267065,-0.013134 -0.135722,-0.175125 -0.218906,-0.4640813 -0.08318,-0.2933344 -0.08318,-0.5428875 0,-0.3721406 0.183881,-0.7311469 0.183881,-0.3590063 0.551644,-0.5998031 0.367762,-0.2407969 0.915028,-0.2583094 l 0.4203,-0.8318438 q 0.814331,0.385275 1.444781,0.7048782 0.634828,0.3196031 1.063884,0.63045 0.433435,0.3108468 0.656719,0.6742312 0.223285,0.3590063 0.223285,0.8318438 0,0.89313751 -0.534132,1.36159689 -0.534131,0.46408126 -1.414134,0.46408126 -0.459703,0 -0.963188,-0.11383125 -0.503484,-0.11383125 -0.8406,-0.22328438 z M 20.586365,-2.2985157 q 0,0.2407969 0.218906,0.4509469 0.218906,0.2057719 0.472838,0.2845781 0.118209,-0.026269 0.271443,-0.1182093 0.157613,-0.096319 0.271444,-0.2320407 0.113831,-0.1401 0.113831,-0.2977125 0,-0.2626875 -0.188259,-0.4728375 -0.188259,-0.21015 -0.459703,-0.21015 -0.2802,0 -0.49035,0.1795032 -0.21015,0.175125 -0.21015,0.4159218 z m 1.917619,1.0332376 q 0.205771,0.035025 0.398409,0.052537 0.192637,0.017513 0.275822,0.017513 0.258309,0 0.472837,-0.1313438 0.214528,-0.1357219 0.214528,-0.5078625 0,-0.091941 -0.07005,-0.21015 -0.06567,-0.1225875 -0.288956,-0.2977125 -0.218906,-0.175125 -0.674231,-0.4290563 0.06129,0.1882594 0.06129,0.3896532 0,0.3414937 -0.109453,0.6216937 -0.105075,0.2758219 -0.2802,0.4947282 z M 11.72567,2.2503563 q -0.963187,0 -1.571747,-0.3721406 Q 9.5497419,1.506075 9.2607856,0.88000314 8.9762075,0.25830938 8.9762075,-0.50348438 q 0,-0.43343439 0.083184,-0.90627192 0.087563,-0.4728375 0.2714437,-0.9631875 l 1.0638844,0.385275 q -0.131344,0.3808969 -0.21015,0.7574157 -0.07881,0.37651871 -0.07881,0.70925622 0,0.42467813 0.148856,0.76617188 0.153234,0.34587188 0.507863,0.54726564 0.354628,0.20577188 0.963187,0.20577188 0.696122,0 1.116422,-0.14447813 0.4203,-0.14447813 0.608559,-0.32398126 0.192638,-0.17950312 0.192638,-0.2802 0,-0.15323438 -0.148856,-0.20139375 Q 13.349954,0 13.030351,0 h -0.691743 q -0.179504,0 -0.227663,-0.09194063 -0.04816,-0.09194062 -0.09194,-0.245175 L 11.830745,-1.015725 q -0.03065,-0.1094531 -0.02189,-0.1795031 0.01314,-0.07005 0.170747,-0.07005 h 2.644388 V 0 h 0.03503 q 0.0394,0.15323438 0.0394,0.245175 0,0.53413126 -0.354628,0.9894563 -0.35025,0.4597031 -1.015725,0.735525 -0.661097,0.2802 -1.602394,0.2802 z M 6.8482284,-6.6459939 7.5531065,-5.9454938 6.8482284,-5.2406157 6.1433502,-5.9454938 Z m 0.7661719,1.1164219 0.7048781,0.7048782 -0.7048781,0.7048781 -0.7048782,-0.7048781 z m -1.5279657,0 0.7005,0.7048782 -0.7005,0.7048781 -0.7048781,-0.7048781 z M 6.5373815,0 H 5.6398658 v -1.2652781 h 0.9018938 q 0.3327375,0 0.455325,-0.2057719 0.1269656,-0.21015 0.1269656,-0.5297532 0,-0.2977125 -0.074428,-0.6479625 -0.07005,-0.3546281 -0.1444781,-0.6917437 l 1.1470688,-0.2977125 q 0.083184,0.4115437 0.1313437,0.8187094 0.052537,0.4027875 0.052537,0.77055 0,0.5822906 -0.1576125,1.0463719 Q 7.920869,-0.53850938 7.5487284,-0.26706563 7.1809659,0 6.5373815,0 Z M 3.6916007,-3.6207094 q 0.5516438,0 0.9369188,0.3283593 0.385275,0.3283594 0.6041812,0.8668688 0.2189063,0.5341313 0.2626875,1.1602032 H 5.8237476 V 0 H 5.4078257 Q 5.1582726,0.99821252 4.4271257,1.5673688 3.6959788,2.1409032 2.4307007,2.3860782 L 1.9972663,1.2171188 Q 2.5489101,1.1120438 3.0173694,0.93691877 3.490207,0.76179376 3.8141882,0.52537501 4.1425476,0.28895625 4.2520007,0 H 3.840457 Q 2.9560757,0 2.4919944,-0.36776251 2.0279132,-0.73990314 2.0279132,-1.5673688 q 0,-0.3239812 0.1006969,-0.6786094 0.1006968,-0.3590062 0.3064687,-0.6698531 0.2057719,-0.315225 0.5166188,-0.5078625 0.315225,-0.1970156 0.7399031,-0.1970156 z m 0.1444781,2.3554313 h 0.5604 q -0.026269,-0.245175 -0.105075,-0.5034844 -0.074428,-0.2583094 -0.2232843,-0.4334344 -0.1444782,-0.175125 -0.385275,-0.175125 -0.2057719,0 -0.3283594,0.1313437 -0.1182094,0.1269657 -0.1707469,0.3064688 -0.048159,0.175125 -0.048159,0.3239812 0,0.2320407 0.1926375,0.2933344 0.1970157,0.056916 0.5078625,0.056916 z m -8.3709756,0 h 0.7442813 q 0.5647781,0 1.05075,-0.105075 0.4859719,-0.1094532 0.9982125,-0.3239813 0.5166188,-0.2145281 1.17333752,-0.5341313 -0.67423122,-0.245175 -1.09015312,-0.4115437 -0.4159219,-0.1707469 -0.5691563,-0.1707469 -0.2364187,0 -0.4290562,0.1488563 -0.1882594,0.1444781 -0.3108469,0.3064687 l -0.2320406,0.2933344 -0.9807001,-0.4815938 0.1970157,-0.315225 q 0.3108468,-0.5078625 0.7442812,-0.8406 0.4334344,-0.3371156 1.015725,-0.3371156 0.2451751,0 0.5691563,0.1138312 0.3283594,0.1138313 0.70050002,0.2845782 0.37651875,0.1663687 0.77492814,0.3371156 0.4027875,0.1663687 0.79244063,0.2845781 0.39403121,0.1182094 0.75303751,0.1225875 v 1.1602032 q -0.3327375,0.043781 -0.61731563,0.1488562 -0.28457813,0.1006969 -0.59104688,0.2583094 -0.30646876,0.1576125 -0.71363439,0.37651876 -0.5604,0.2977125 -1.0595063,0.51224063 -0.4947281,0.21452813 -1.0201031,0.32835938 Q -3.1557874,0 -3.8037499,0 h -0.7311469 z"
         id="path29" />
      <path
         style="font-size:8.9664px;font-family:Vazirmatn"
         d="m 17.607531,7.574709 0.634828,0.6348281 -0.634828,0.6348281 -0.634828,-0.6348281 z m 0.04816,4.850963 q 0.731147,0 1.129556,-0.240797 0.402787,-0.236419 0.5604,-0.626072 0.161991,-0.385275 0.161991,-0.827466 0,-0.520997 -0.1401,-1.0288593 -0.1401,-0.5078625 -0.262688,-0.8318437 l 0.74866,-0.3020907 0.323981,1.0244813 q 0.08756,0.2802 0.284578,0.4246784 0.201394,0.144478 0.5604,0.144478 h 0.170747 V 10.959 h -0.153235 q -0.306468,0 -0.468459,-0.05692 -0.157612,-0.05692 -0.297712,-0.192637 -0.0044,0.731146 -0.2802,1.295925 -0.275822,0.569156 -0.853735,0.888759 -0.573534,0.319603 -1.484184,0.319603 -0.945675,0 -1.514832,-0.345872 -0.564778,-0.345872 -0.818709,-0.923784 -0.249553,-0.573535 -0.249553,-1.2609 0,-0.464082 0.09632,-0.9500534 0.09632,-0.49035 0.262687,-0.9544313 l 0.696122,0.2802001 q -0.126966,0.4027875 -0.214528,0.8274656 -0.08756,0.424678 -0.08756,0.823088 0,0.472837 0.166369,0.86249 0.170747,0.389653 0.569156,0.621694 0.39841,0.232041 1.094532,0.232041 z M 9.6043187,10.959 H 9.4116812 v -0.796819 h 0.1707469 q 0.2933344,0 0.4947279,-0.1663689 0.201394,-0.1707469 0.359007,-0.4378125 0.157612,-0.2670656 0.310846,-0.5647781 0.157613,-0.3020907 0.35025,-0.5691563 0.192638,-0.2670656 0.464082,-0.4334344 0.275822,-0.1707468 0.678609,-0.1707468 0.687366,0 1.068263,0.4203 0.380896,0.4159218 0.51224,1.0376156 0.08756,0.4290563 0.297713,0.6567188 0.214528,0.2276626 0.494728,0.2276626 h 0.113831 V 10.959 h -0.118209 q -0.2802,0 -0.547266,-0.113832 -0.267066,-0.118209 -0.433434,-0.37214 -0.183882,0.267065 -0.455325,0.429056 -0.271444,0.157613 -0.704878,0.157613 -0.437813,0 -0.809954,-0.18826 Q 11.289897,10.6788 10.891488,10.293525 10.606909,10.613128 10.344222,10.788253 10.081534,10.959 9.6043187,10.959 Z M 12.257463,8.5948121 q -0.218907,0 -0.39841,0.1488562 -0.179503,0.1444782 -0.323981,0.3765188 -0.144478,0.2320406 -0.258309,0.4815938 0.144478,0.1488562 0.288956,0.2670656 0.144478,0.1182094 0.2802,0.2013935 0.35025,0.214528 0.612937,0.214528 0.647963,0 0.647963,-0.6523403 0,-0.455325 -0.227663,-0.7442812 Q 12.655872,8.5948121 12.257463,8.5948121 Z M 6.6096812,10.162181 h 0.9500531 q 0.4378125,0 0.5910469,-0.2539314 0.1576125,-0.2539312 0.1576125,-0.6435844 0,-0.2845781 -0.052537,-0.6085594 Q 8.2033187,8.3321246 8.142025,8.0037652 L 8.9038187,7.8111277 q 0.074428,0.35025 0.1182094,0.6873656 0.043781,0.3371157 0.043781,0.6435844 0,0.525375 -0.1444782,0.9369183 Q 8.7768531,10.49054 8.4484937,10.726959 8.1201343,10.959 7.5684906,10.959 H 6.6096812 Z m 1.5805031,1.492941 0.6129375,0.608559 -0.6129375,0.617316 -0.6085593,-0.617316 z m -1.4535375,0 0.6129375,0.608559 -0.6129375,0.617316 -0.6085594,-0.617316 z"
         id="path30" />
    </g>
    <path
       id="path9"
       d="M 91.39801,91.69585 H 44.66716 c -2.75117,0 -4.98138,-2.23021 -4.98138,-4.98139 V 72.02823 c 0,-2.75118 2.23021,-4.98139 4.98138,-4.98139 h 46.73085 c 2.75118,0 4.98139,2.23021 4.98139,4.98139 v 14.68623 c 0,2.75118 -2.23021,4.98139 -4.98139,4.98139 z"
       style="fill:#f5f5f5;fill-opacity:1;fill-rule:nonzero;stroke:#808080;stroke-width:0.3985;stroke-linecap:butt;stroke-linejoin:miter;stroke-miterlimit:10;stroke-dasharray:none;stroke-opacity:1"
       transform="matrix(1.3333333,0,0,-1.3333333,27.749333,231.31467)" />
    <g
       id="text9"
       transform="matrix(1.3333333,0,0,1.3333333,103.63333,119.75067)"
       aria-label="ﻪﯾرﻮﺳطﻮﻘﺳ)(ﺪﺳا">
      <path
         style="font-weight:800;font-size:8.9664px;font-family:Vazirmatn"
         d="m 22.175203,0 q -0.612938,0 -1.006969,-0.23204063 -0.394031,-0.23641875 -0.569156,-0.77054997 -0.503485,0.39403122 -1.09891,0.39403122 -0.726768,0 -1.21274,-0.39403122 -0.485972,-0.3984094 -0.485972,-1.1733376 0,-0.5691562 0.328359,-0.9719437 0.32836,-0.4071657 0.844978,-0.6829875 0.520997,-0.2758219 1.085775,-0.4465688 l -0.03065,-0.21015 1.059507,-0.2145281 0.415922,2.8107563 q 0.0394,0.2670656 0.205772,0.4465687 0.170746,0.1795032 0.481593,0.1795032 h 0.135722 V 0 Z m -1.816922,-2.3510532 q 0,-0.061294 -0.01314,-0.1357218 -0.0088,-0.078806 -0.02189,-0.1619907 l -0.07443,-0.4597031 q -0.310847,0.105075 -0.612938,0.245175 -0.297712,0.1357219 -0.494728,0.3020906 -0.192637,0.1619907 -0.192637,0.35025 0,0.1795032 0.144478,0.2933344 0.148856,0.1094531 0.385275,0.1094531 0.201393,0 0.402787,-0.056916 0.205772,-0.061294 0.341494,-0.1795031 0.135722,-0.1225875 0.135722,-0.3064688 z M 15.384731,0 h -0.941297 v -1.2652781 h 0.945675 q 0.332738,0 0.455325,-0.2057719 0.126966,-0.21015 0.126966,-0.5297532 0,-0.2977125 -0.07443,-0.6479625 -0.07005,-0.3546281 -0.144478,-0.6917437 l 1.147068,-0.2977125 q 0.08319,0.4115437 0.131344,0.8187094 0.05254,0.4027875 0.05254,0.77055 0,0.5822906 -0.157613,1.0463719 -0.153234,0.46408122 -0.525375,0.73552497 Q 16.028315,0 15.384731,0 Z M 14.557265,0.56040001 15.301547,1.295925 16.037072,0.56040001 16.785731,1.3046813 16.037072,2.0577188 15.301547,1.3134375 14.557265,2.0577188 13.812984,1.3046813 Z M 11.457553,2.3904563 11.010984,1.2171188 q 0.634829,-0.1357219 1.090154,-0.36338441 0.459703,-0.22328438 0.709256,-0.59980314 0.249553,-0.37651875 0.249553,-0.97194376 0,-0.39840939 -0.126966,-0.89313749 -0.126965,-0.4991063 -0.271443,-0.9281625 l 1.182093,-0.3808969 q 0.170747,0.4772156 0.25831,1.0288594 0.09194,0.5516437 0.09194,1.05950624 0,0.91940626 -0.341493,1.57612502 Q 13.515272,1.4053781 12.897956,1.8125438 12.285019,2.2240875 11.457553,2.3904563 Z M 9.2028185,-3.6207094 q 0.5516438,0 0.9369185,0.3283593 0.385275,0.3283594 0.604182,0.8668688 0.218906,0.5341313 0.262687,1.1602032 h 0.328359 V 0 H 10.919044 Q 10.66949,0.99821252 9.9383436,1.5673688 9.2071967,2.1409032 7.9419185,2.3860782 L 7.5084841,1.2171188 Q 8.0601279,1.1120438 8.5285873,0.93691877 9.0014248,0.76179376 9.325406,0.52537501 9.6537654,0.28895625 9.7632186,0 H 9.3516748 Q 8.4672935,0 8.0032123,-0.36776251 7.539131,-0.73990314 7.539131,-1.5673688 q 0,-0.3239812 0.1006969,-0.6786094 0.1006969,-0.3590062 0.3064687,-0.6698531 0.2057719,-0.315225 0.5166188,-0.5078625 0.315225,-0.1970156 0.7399031,-0.1970156 z m 0.1444782,2.3554313 h 0.5604 q -0.026269,-0.245175 -0.105075,-0.5034844 -0.074428,-0.2583094 -0.2232844,-0.4334344 -0.1444781,-0.175125 -0.385275,-0.175125 -0.2057719,0 -0.3283594,0.1313437 -0.1182094,0.1269657 -0.1707469,0.3064688 -0.048159,0.175125 -0.048159,0.3239812 0,0.2320407 0.1926375,0.2933344 0.1970156,0.056916 0.5078625,0.056916 z M 2.9639903,0 Q 2.5217997,0 2.2197091,-0.14885625 1.9219965,-0.30209063 1.729359,-0.55164376 1.4885622,-0.2977125 1.1558247,-0.14885625 0.82308716,0 0.31522465,0 H -0.08756286 V -1.2652781 H 0.3239809 q 0.48159376,0 0.6829875,-0.1182094 0.2057719,-0.1182094 0.2057719,-0.5691563 0,-0.07005 -0.00876,-0.2320406 -0.00876,-0.1619906 -0.021891,-0.3546281 -0.013134,-0.1970157 -0.026269,-0.3546282 l 1.0989094,-0.1357218 0.091941,1.1820937 q 0.039403,0.5822907 0.6260719,0.5822907 0.3633843,0 0.4859718,-0.1488563 0.1225876,-0.1532344 0.1225876,-0.5385094 0,-0.061294 -0.00876,-0.2232844 -0.00876,-0.1663687 -0.021891,-0.3633843 -0.013134,-0.1970157 -0.026269,-0.3546282 l 1.0989094,-0.1357218 0.091941,1.1820937 q 0.017513,0.2670656 0.1313438,0.4246782 0.1182094,0.1576125 0.3984094,0.1576125 0.2626875,0 0.3590062,-0.2057719 0.1006969,-0.21015 0.1006969,-0.4991063 0,-0.2495531 -0.048159,-0.5122406 -0.043781,-0.2670656 -0.1006968,-0.4815938 -0.052537,-0.2189062 -0.078806,-0.3196031 l 1.1339344,-0.3108469 q 0.087562,0.3458719 0.1444781,0.7399032 0.056916,0.3896531 0.056916,0.7749281 0,0.5428875 -0.1444782,1.0201031 -0.1401,0.47283754 -0.4815937,0.76617192 Q 5.8447966,0 5.2537497,0 4.8597185,0 4.5882747,-0.16199063 4.3212091,-0.32398126 4.1373278,-0.56040001 3.9140435,-0.32398126 3.6294653,-0.16199063 3.3492653,0 2.9639903,0 Z"
         id="path31" />
      <path
         style="font-size:8.9664px;font-family:Vazirmatn"
         d="m 28.233042,10.162181 q 0.08318,-0.1401 0.175125,-0.275822 0.09194,-0.1401 0.175125,-0.2758219 V 4.9303214 h 0.744281 V 8.5685433 Q 30.26887,7.434609 31.267082,7.434609 q 0.516619,0 0.901894,0.21015 0.389653,0.21015 0.604181,0.5822906 0.214528,0.3677625 0.214528,0.8493563 -0.0044,0.9588091 -0.809953,1.4228911 Q 31.376535,10.959 29.756629,10.959 h -2.539312 v -0.796819 z m 3.077821,-1.9351314 q -1.055128,0 -2.276625,1.9307534 l 0.704879,0.0044 q 1.247765,0 1.860703,-0.2495533 0.617315,-0.2495531 0.617315,-0.7924406 0,-0.385275 -0.249553,-0.6392063 -0.249553,-0.2539312 -0.656719,-0.2539312 z m -6.60659,-0.4684594 q 0.682987,0 1.151447,0.6129375 0.468459,0.6085594 0.485971,1.7906533 h 0.529754 V 10.959 h -0.599804 q -0.09632,0.503484 -0.385275,0.971943 -0.284578,0.472838 -0.849356,0.831844 -0.564778,0.363385 -1.497319,0.542888 L 23.281382,12.609553 Q 25.264673,12.228656 25.579898,10.959 h -0.691744 q -1.659309,0 -1.659309,-1.3440848 0,-0.4290562 0.170746,-0.8581125 0.175125,-0.4290562 0.503485,-0.7136344 0.332737,-0.2845781 0.801197,-0.2845781 z m 0.1401,2.4035908 h 0.774928 q -0.05254,-0.8449783 -0.2802,-1.2302533 -0.223285,-0.385275 -0.647963,-0.385275 -0.2802,0 -0.44219,0.1795031 -0.157613,0.1795032 -0.223285,0.4246782 -0.06129,0.2407969 -0.06129,0.4378125 0,0.3064687 0.205771,0.4421905 0.21015,0.131344 0.674232,0.131344 z m -3.436828,-4.7458877 0.612937,0.6085594 -0.612937,0.6173156 -0.60856,-0.6173156 z m -1.453538,0 0.612938,0.6085594 -0.612938,0.6173156 -0.608559,-0.6173156 z m 2.294138,3.4806094 q 0,0.3458719 -0.153235,0.6435844 -0.153234,0.2933344 -0.4203,0.6041809 0.249553,0.01314 0.442191,0.01751 0.192637,0 0.341494,0 h 0.424678 V 10.959 h -0.411544 q -0.166369,0 -0.459703,-0.02627 -0.288956,-0.03065 -0.639206,-0.100697 -0.345872,-0.07005 -0.682988,-0.188259 -0.337116,0.122587 -0.691744,0.192637 -0.354628,0.06567 -0.656719,0.09632 -0.30209,0.02627 -0.481593,0.02627 h -0.612938 v -0.796819 h 0.612938 q 0.183881,0 0.380897,0 0.201393,-0.0044 0.485971,-0.02189 -0.262687,-0.3064685 -0.411543,-0.6085591 -0.148857,-0.3020907 -0.148857,-0.6435844 0,-0.2714438 0.126966,-0.5472657 0.126966,-0.2758218 0.341494,-0.5122406 0.214528,-0.2364187 0.49035,-0.3765187 0.275822,-0.1444782 0.569156,-0.1444782 0.306469,0 0.586669,0.1444782 0.2802,0.1401 0.494728,0.3765187 0.218906,0.2320406 0.345872,0.5122406 0.126966,0.2802 0.126966,0.5560219 z M 20.69391,8.0825715 q -0.166369,0 -0.35025,0.1269656 -0.179503,0.1225875 -0.306469,0.3108469 -0.122587,0.1882593 -0.122587,0.385275 0,0.2013937 0.118209,0.4115437 0.11821,0.21015 0.297713,0.385275 0.183881,0.175125 0.37214,0.2714438 0.332738,-0.1401 0.564779,-0.4509469 0.236418,-0.315225 0.236418,-0.6260719 0,-0.1838812 -0.131343,-0.3721406 Q 21.245554,8.3365027 21.057295,8.2095371 20.869035,8.0825715 20.69391,8.0825715 Z M 14.22742,10.959 q -0.503484,0 -0.779306,-0.170747 Q 13.17667,10.613128 13.01468,10.289146 12.808908,10.613128 12.489305,10.788253 12.169702,10.959 11.578655,10.959 h -0.402788 v -0.796819 h 0.411544 q 0.5604,0 0.818709,-0.205772 0.25831,-0.21015 0.25831,-0.7617938 0,-0.1138312 -0.01314,-0.2670656 -0.0088,-0.1576125 -0.03065,-0.4378125 l 0.731147,-0.091941 0.07005,0.9150281 q 0.02627,0.3677625 0.223285,0.6085594 0.201393,0.240797 0.591047,0.240797 0.464081,0 0.63045,-0.2495533 0.166368,-0.2495531 0.166368,-0.7180125 0,-0.1138312 -0.01313,-0.2714437 -0.0088,-0.1576125 -0.03065,-0.4334344 l 0.731147,-0.091941 0.07005,0.9150281 q 0.02189,0.3546281 0.188259,0.6041813 0.166369,0.2451751 0.53851,0.2451751 0.363384,0 0.499106,-0.2714439 0.135722,-0.2714437 0.135722,-0.6348281 0,-0.3283594 -0.06567,-0.6610969 -0.06129,-0.3327375 -0.109453,-0.5385094 L 17.725542,7.854909 q 0.07881,0.2933343 0.126966,0.6260718 0.04816,0.3283594 0.04816,0.6567188 0,0.4728375 -0.131344,0.8887594 -0.131343,0.415922 -0.433434,0.674231 -0.297712,0.253932 -0.814331,0.25831 -0.4203,0 -0.67861,-0.175125 -0.258309,-0.175125 -0.4203,-0.494729 -0.245175,0.354629 -0.547265,0.512241 Q 14.57767,10.959 14.22742,10.959 Z M 9.5647169,8.3715277 q 0,0.8230875 0.175125,1.6155282 0.175125,0.7880621 0.5122411,1.4316471 0.341493,0.643584 0.8406,1.024481 l -0.166369,0.534131 Q 10.440342,12.714628 10.046311,12.246168 9.6522794,11.777709 9.3677013,11.160393 9.0875013,10.547456 8.9342669,9.8338215 8.7810325,9.1201871 8.7810325,8.3715277 q 0,-0.7486594 0.1532344,-1.4622938 Q 9.0875013,6.1955996 9.3677013,5.582662 9.6522794,4.9653464 10.046311,4.496887 10.440342,4.0284276 10.926314,3.7657401 l 0.166369,0.5341313 q -0.499107,0.3808969 -0.8406,1.0244813 -0.3371161,0.6435844 -0.5122411,1.436025 -0.175125,0.7880625 -0.175125,1.61115 z m -0.3289541,0 q 0,-0.8230875 -0.175125,-1.61115 Q 8.8898909,5.9679371 8.5483971,5.3243527 8.2069034,4.6807683 7.7077971,4.2998714 L 7.8741659,3.7657401 q 0.4859719,0.2626875 0.8800031,0.7311469 0.3940313,0.4684594 0.6742313,1.085775 0.2845781,0.6129376 0.4378125,1.3265719 0.1532342,0.7136344 0.1532342,1.4622938 0,0.7486594 -0.1532342,1.4622938 -0.1532344,0.7136345 -0.4378125,1.3265715 -0.2802,0.617316 -0.6742313,1.085775 -0.3940312,0.46846 -0.8800031,0.731147 L 7.7077971,12.443184 q 0.4991063,-0.380897 0.8406,-1.024481 0.3414938,-0.643585 0.5122407,-1.4316471 0.175125,-0.7924407 0.175125,-1.6155282 z M 5.7245063,9.3653621 q 0,-0.1138312 -0.052537,-0.2933344 Q 5.6238094,8.8881465 5.5537594,8.730534 L 4.7788313,6.9749058 5.4618188,6.6553027 6.4556532,8.9932215 q 0.2013937,0.4728375 0.35025,0.7267687 0.1532343,0.2539313 0.2977125,0.3502498 0.1488562,0.09194 0.3371156,0.09194 H 7.6246126 V 10.959 H 7.4407313 q -0.3458719,0 -0.5647781,-0.08319 Q 6.661425,10.792631 6.5038125,10.626262 6.3462,10.459893 6.1842094,10.205962 5.8777407,10.591237 5.400525,10.775118 q -0.4728375,0.179504 -1.1820938,0.179504 -0.3064687,0 -0.5516437,-0.02627 -0.245175,-0.03065 -0.4640813,-0.08319 v -0.79244 q 0.5034844,0.118209 0.9500532,0.118209 1.5717469,0 1.5717469,-0.8055749 z M -1.3374105,10.959 q -0.5034843,0 -0.7793062,-0.170747 -0.2714438,-0.175125 -0.4334344,-0.499107 -0.2057719,0.323982 -0.525375,0.499107 -0.3196031,0.170747 -0.91065,0.170747 h -0.4027875 v -0.796819 h 0.4115437 q 0.5604,0 0.8187094,-0.205772 0.2583094,-0.21015 0.2583094,-0.7617938 0,-0.1138312 -0.013134,-0.2670656 -0.00876,-0.1576125 -0.030647,-0.4378125 l 0.7311469,-0.091941 0.07005,0.9150281 q 0.026269,0.3677625 0.2232844,0.6085594 0.2013938,0.240797 0.5910469,0.240797 0.46408124,0 0.63045,-0.2495533 0.16636875,-0.2495531 0.16636875,-0.7180125 0,-0.1138312 -0.0131344,-0.2714437 -0.008756,-0.1576125 -0.0306469,-0.4334344 l 0.73114688,-0.091941 0.07005,0.9150281 q 0.0218906,0.3546281 0.18825937,0.6041813 0.16636876,0.2451751 0.53850939,0.2451751 0.36338435,0 0.49910625,-0.2714439 0.1357219,-0.2714437 0.1357219,-0.6348281 0,-0.3283594 -0.065672,-0.6610969 Q 1.4602115,8.2620746 1.4120521,8.0563027 L 2.1607115,7.854909 q 0.078806,0.2933343 0.1269656,0.6260718 0.048159,0.3283594 0.048159,0.6567188 0,0.4728375 -0.1313438,0.8887594 -0.1313437,0.415922 -0.4334344,0.674231 -0.2977125,0.253932 -0.81433123,0.25831 -0.4203,0 -0.67860938,-0.175125 -0.25830938,-0.175125 -0.42030001,-0.494729 -0.245175,0.354629 -0.54726563,0.512241 Q -0.98716046,10.959 -1.3374105,10.959 Z M -4.9712538,4.9303214 V 10.954622 H -5.7111569 V 4.9303214 Z"
         id="path32" />
    </g>
    <path
       id="path11"
       d="M 181.42027,102.04889 75.89055,110.85352"
       style="fill:none;stroke:#be1e2d;stroke-width:1.99255;stroke-linecap:butt;stroke-linejoin:miter;stroke-miterlimit:10;stroke-dasharray:none;stroke-opacity:1"
       transform="matrix(1.3333333,0,0,-1.3333333,27.749333,231.31467)" />
    <path
       id="path12"
       d="M -3.9851,5.27061 C -3.25705,2.1082 -1.63463,0.6149 0,0 -1.63463,-0.6149 -3.25705,-2.1082 -3.9851,-5.27061"
       style="fill:none;stroke:#be1e2d;stroke-width:1.99255;stroke-linecap:round;stroke-linejoin:round;stroke-miterlimit:10;stroke-dasharray:none;stroke-opacity:1"
       transform="matrix(-1.3286533,-0.11084,-0.11084,1.3286533,127.61303,83.399547)" />
    <path
       id="path13"
       d="M 136.0652,68.0326 53.18,51.44945"
       style="fill:none;stroke:#be1e2d;stroke-width:1.99255;stroke-linecap:butt;stroke-linejoin:miter;stroke-miterlimit:10;stroke-dasharray:none;stroke-opacity:1"
       transform="matrix(1.3333333,0,0,-1.3333333,27.749333,231.31467)" />
    <path
       id="path14"
       d="M -3.9851,5.27061 C -3.25705,2.1082 -1.63463,0.6149 0,0 -1.63463,-0.6149 -3.25705,-2.1082 -3.9851,-5.27061"
       style="fill:none;stroke:#be1e2d;stroke-width:1.99255;stroke-linecap:round;stroke-linejoin:round;stroke-miterlimit:10;stroke-dasharray:none;stroke-opacity:1"
       transform="matrix(-1.3073467,0.26156,0.26156,1.3073467,97.353507,162.97599)" />
    <path
       id="path15"
       d="m 158.74274,108.8522 -21.47435,12.89293"
       style="fill:none;stroke:#be1e2d;stroke-width:1.99255;stroke-linecap:butt;stroke-linejoin:miter;stroke-miterlimit:10;stroke-dasharray:none;stroke-opacity:1"
       transform="matrix(1.3333333,0,0,-1.3333333,27.749333,231.31467)" />
    <path
       id="path16"
       d="M -3.9851,5.27061 C -3.25705,2.1082 -1.63463,0.6149 0,0 -1.63463,-0.6149 -3.25705,-2.1082 -3.9851,-5.27061"
       style="fill:none;stroke:#be1e2d;stroke-width:1.99255;stroke-linecap:round;stroke-linejoin:round;stroke-miterlimit:10;stroke-dasharray:none;stroke-opacity:1"
       transform="matrix(-1.1430933,-0.68632,-0.68632,1.1430933,209.63501,68.304067)" />
    <path
       id="path17"
       d="M 158.74274,34.01628 119.39171,14.34145"
       style="fill:none;stroke:#be1e2d;stroke-width:1.99255;stroke-linecap:butt;stroke-linejoin:miter;stroke-miterlimit:10;stroke-dasharray:none;stroke-opacity:1"
       transform="matrix(1.3333333,0,0,-1.3333333,27.749333,231.31467)" />
    <path
       id="path18"
       d="M -3.9851,5.27061 C -3.25705,2.1082 -1.63463,0.6149 0,0 -1.63463,-0.6149 -3.25705,-2.1082 -3.9851,-5.27061"
       style="fill:none;stroke:#be1e2d;stroke-width:1.99255;stroke-linecap:round;stroke-linejoin:round;stroke-miterlimit:10;stroke-dasharray:none;stroke-opacity:1"
       transform="matrix(-1.1925067,0.59622667,0.59622667,1.1925067,185.75021,212.78675)" />
    <path
       id="path19"
       d="m 136.0652,79.37135 -38.48523,0.0041"
       style="fill:none;stroke:#808080;stroke-width:0.99628;stroke-linecap:butt;stroke-linejoin:miter;stroke-miterlimit:10;stroke-dasharray:2.98883, 2.98883;stroke-dashoffset:0;stroke-opacity:1"
       transform="matrix(1.3333333,0,0,-1.3333333,27.749333,231.31467)" />
    <path
       id="path20"
       d="M -2.78957,3.47087 C -2.27992,1.38832 -1.14423,0.40492 0,0 -1.14423,-0.40492 -2.27992,-1.38832 -2.78957,-3.47087"
       style="fill:none;stroke:#808080;stroke-width:0.99628;stroke-linecap:round;stroke-linejoin:round;stroke-miterlimit:10;stroke-dasharray:none;stroke-opacity:1"
       transform="matrix(-1.3333067,-1.2e-4,-1.2e-4,1.3333067,157.1918,125.48071)" />
    <path
       style="font-weight:800;font-size:9.9626px;font-family:Vazirmatn"
       d="m 53.689579,-5.3315475 0.826973,0.8172445 0.817245,-0.8172445 0.831838,0.8269736 -0.831838,0.8367027 -0.817245,-0.8269736 -0.826973,0.8269736 -0.826974,-0.8367027 z m 3.512205,1.9896012 1.216138,-0.1508011 0.09729,1.3912615 q 0.02432,0.3697059 0.194582,0.5351006 0.175124,0.1605302 0.574017,0.1605302 h 0.111885 V 0 H 59.283812 Q 58.724389,0 58.354683,-0.20431113 57.984977,-0.41348681 57.741749,-0.768599 57.299075,-0.35997675 56.661819,-0.17998837 56.029427,0 55.012736,0 h -0.81238 q -0.841567,0 -1.551791,-0.10215556 -0.70536,-0.10702012 -1.230732,-0.36970585 -0.520506,-0.26268574 -0.81238,-0.73454719 -0.287008,-0.4767259 -0.287008,-1.2161376 0,-0.4378096 0.09729,-0.8512964 0.09729,-0.4183514 0.243228,-0.7734636 l 1.172356,0.4426742 q -0.0827,0.2286338 -0.170259,0.530236 -0.0827,0.3016021 -0.0827,0.574017 0,0.486455 0.359976,0.7199535 0.359977,0.2334984 0.953452,0.3064666 0.59834,0.068104 1.308564,0.068104 h 0.81238 q 0.70536,0 1.206409,-0.05351 0.501049,-0.058375 0.763734,-0.238363 0.267551,-0.1848529 0.267551,-0.5691524 0,-0.2480921 -0.01459,-0.5448297 -0.01459,-0.2967376 -0.03405,-0.530236 z m -11.003613,1.9360912 h 0.734547 q 0.535101,0 0.734547,-0.1799884 0.204311,-0.1848529 0.204311,-0.671308 0,-0.2870085 -0.01459,-0.5545588 -0.01459,-0.2724148 -0.03405,-0.530236 l 1.216138,-0.1508011 0.09729,1.3912615 q 0.02432,0.3697059 0.204311,0.5351006 0.179988,0.1605302 0.574017,0.1605302 h 0.102155 V 0 H 49.904959 Q 49.418503,0 49.068256,-0.17512382 48.722873,-0.35024765 48.499103,-0.63239159 48.202366,-0.335654 47.793744,-0.16539472 47.389986,0 46.932718,0 H 46.198171 Z M 46.324649,0.62266248 47.151623,1.439907 47.968867,0.62266248 48.800706,1.4496361 47.968867,2.2863388 47.151623,1.4593652 46.324649,2.2863388 45.497676,1.4496361 Z M 43.62969,-4.2856691 q 0.384299,0 0.817244,0.058375 0.432945,0.05351 0.81238,0.1799883 0.379435,0.1216138 0.617798,0.3210604 0.243228,0.194582 0.243228,0.4718614 0,0.1605302 -0.126479,0.3940286 -0.121614,0.2334984 -0.316196,0.4913196 -0.189717,0.2529567 -0.398893,0.4864551 -0.204311,0.2286339 -0.364841,0.389164 0.199447,0.058375 0.384299,0.072968 0.184853,0.014594 0.345384,0.014594 h 0.758869 V 0 H 45.648478 Q 45.079326,0 44.573412,-0.13134287 44.072364,-0.26755029 43.62969,-0.49131962 43.162693,-0.25782119 42.505978,-0.12647832 41.854129,0 41.275247,0 h -0.768599 v -1.4058551 h 0.773464 q 0.111884,0 0.301602,-0.00486 0.194582,-0.00486 0.403757,-0.024323 0.209176,-0.019458 0.359977,-0.063239 -0.16053,-0.1605302 -0.364841,-0.3891641 -0.204311,-0.2334984 -0.394029,-0.486455 -0.189717,-0.2578212 -0.316196,-0.4864551 -0.126478,-0.2334984 -0.126478,-0.3940286 0,-0.2772794 0.238363,-0.4718614 0.238363,-0.1994466 0.617798,-0.3210604 0.379435,-0.1264783 0.81238,-0.1799883 0.432945,-0.058375 0.817245,-0.058375 z m 0.0049,1.2745122 q -0.238363,0 -0.505913,0.024323 -0.262686,0.024323 -0.549694,0.082697 0.204311,0.2189047 0.447538,0.4572677 0.248092,0.2334984 0.423216,0.3988932 0.179989,0.1653947 0.179989,0.1653947 0,0 0.179988,-0.1653947 0.179988,-0.1653948 0.42808,-0.3988932 0.252957,-0.238363 0.452404,-0.4572677 -0.282144,-0.058375 -0.549695,-0.082697 -0.262685,-0.024323 -0.505913,-0.024323 z m -5.735305,-3.8235368 0.875619,0.8756191 -0.875619,0.8707546 -0.870755,-0.8707546 z m -3.186281,5.2391211 q 0.33079,-0.5448297 0.700496,-1.050743 0.369705,-0.5059132 0.788057,-0.9048064 0.418351,-0.3988931 0.890212,-0.627527 0.471862,-0.2334984 1.006962,-0.2334984 0.617798,0 1.08966,0.2626857 0.476726,0.2626857 0.744276,0.7199535 0.272415,0.4572677 0.272415,1.0458784 0,0.6859016 -0.291873,1.1480339 -0.291873,0.45726779 -0.81238,0.72968263 -0.520507,0.27241484 -1.211273,0.38916405 Q 37.203618,0 36.410696,0 H 36.152875 Q 35.34536,0 34.761614,-0.14107197 34.177868,-0.28700849 33.817891,-0.63239159 33.545476,-0.335654 33.170906,-0.16539472 32.796335,0 32.246641,0 h -0.199447 l 0.0049,-1.4058551 h 0.194582 q 0.578882,0 0.768599,-0.1799884 0.194582,-0.1848529 0.194582,-0.6761726 0,-0.2772793 -0.01946,-0.5448296 -0.01459,-0.2724149 -0.03405,-0.5302361 l 1.216138,-0.150801 0.09243,1.3863969 q 0.01946,0.194582 0.07783,0.3405186 0.06324,0.1410719 0.170259,0.1653947 z m 3.419779,-1.4350425 q -0.37457,0 -0.754005,0.238363 -0.379435,0.2334985 -0.724818,0.6080689 -0.345383,0.3697058 -0.627527,0.7783281 h 0.442674 q 0.656714,0 1.216138,-0.063239 0.564288,-0.068104 0.904806,-0.2578212 0.340519,-0.1897175 0.340519,-0.5642879 0,-0.335654 -0.228634,-0.5351005 -0.22377,-0.2043112 -0.569153,-0.2043112 z m -6.382291,1.9506849 q 0,1.13830481 -0.423216,1.89231016 -0.418351,0.75400534 -1.18695,1.19667944 -0.768599,0.4426741 -1.819342,0.6421207 l -0.481591,-1.298835 q 0.992369,-0.1897175 1.658812,-0.53996514 0.671308,-0.35024765 0.851296,-0.86102547 -0.121613,0.02432276 -0.252956,0.04378096 -0.131343,0.01459365 -0.238363,0.01459365 -0.924265,0 -1.454501,-0.40862225 -0.530236,-0.40862226 -0.530236,-1.34261595 0,-0.3891641 0.116749,-0.7929218 0.11675,-0.4086223 0.350248,-0.7491408 0.233498,-0.3453831 0.578881,-0.5545588 0.345384,-0.2091757 0.802651,-0.2091757 0.525372,0 0.904807,0.2529567 0.384299,0.2529566 0.632391,0.6761725 0.248092,0.4232159 0.369706,0.953452 0.121614,0.530236 0.121614,1.0847948 z m -1.911768,-0.3113313 q 0.209175,0 0.379434,-0.024323 0.175124,-0.024323 0.287009,-0.048645 -0.02919,-0.2480921 -0.111885,-0.5302361 -0.0827,-0.2821439 -0.248092,-0.4815905 -0.16053,-0.2043111 -0.432945,-0.2043111 -0.233498,0 -0.369706,0.1556656 -0.131342,0.1556656 -0.184853,0.3648413 -0.05351,0.2091757 -0.05351,0.3648413 0,0.2626857 0.209176,0.335654 0.21404,0.068104 0.525372,0.068104 z m -2.306266,-2.3349843 q 0,-0.3697059 0.262686,-0.6129334 0.262685,-0.2432275 0.632391,-0.2432275 0.374571,0 0.632392,0.2432275 0.262686,0.2432275 0.262686,0.6129334 0,0.3648413 -0.262686,0.6080688 -0.262686,0.2432276 -0.632392,0.2432276 -0.379435,0 -0.637256,-0.238363 -0.257821,-0.2432276 -0.257821,-0.6129334 z m 0,2.86522033 q 0,-0.36484133 0.262686,-0.60806883 0.262685,-0.2480921 0.632391,-0.2480921 0.374571,0 0.632392,0.2480921 0.262686,0.2432275 0.262686,0.60806883 0,0.36970585 -0.262686,0.61293339 -0.262686,0.24322753 -0.632392,0.24322753 -0.379435,0 -0.637256,-0.24322753 -0.257821,-0.24322754 -0.257821,-0.61293339 z M 23.791583,2.500379 q -1.070201,0 -1.746374,-0.4134868 -0.671308,-0.4134868 -0.992368,-1.10911752 -0.316196,-0.69076619 -0.316196,-1.53719801 0,-0.48159047 0.09243,-1.00696197 0.09729,-0.5253715 0.301602,-1.0702012 l 1.182085,0.4280805 q -0.145936,0.4232159 -0.233498,0.8415673 -0.08756,0.41835132 -0.08756,0.78805717 0,0.47186142 0.165395,0.85129637 0.170259,0.3842995 0.564288,0.60806883 0.394028,0.22863393 1.070201,0.22863393 0.773463,0 1.24046,-0.16053022 0.466997,-0.16053017 0.676173,-0.35997675 0.21404,-0.19944658 0.21404,-0.31133124 0,-0.17025928 -0.165395,-0.22376933 Q 25.596331,0 25.241219,0 H 24.47262 q -0.199447,0 -0.252957,-0.10215556 -0.05351,-0.10215557 -0.102155,-0.27241484 l -0.209176,-0.7540054 q -0.03405,-0.1216137 -0.02432,-0.1994465 0.01459,-0.077833 0.189718,-0.077833 h 2.938188 V 0 h 0.03892 q 0.04378,0.17025927 0.04378,0.27241484 0,0.59347518 -0.394029,1.09938846 Q 26.31142,1.8825811 25.572008,2.1890478 24.837461,2.500379 23.791583,2.500379 Z M 18.03682,0 h -0.773464 v -1.4058551 h 0.778328 q 0.369706,0 0.505914,-0.2286339 0.141072,-0.2334985 0.141072,-0.5886107 0,-0.3307894 -0.0827,-0.7199535 -0.07783,-0.3940286 -0.16053,-0.768599 l 1.274512,-0.3307894 q 0.09243,0.4572678 0.145937,0.909671 0.05837,0.4475386 0.05837,0.8561609 0,0.6469852 -0.175123,1.1626276 -0.175124,0.51564237 -0.588611,0.81724451 Q 18.751909,0 18.03682,0 Z m 0.574017,-6.3433741 0.875619,0.8756192 -0.875619,0.8707545 -0.870755,-0.8707545 z m -3.521935,2.3203907 q 0.612933,0 1.041014,0.3648413 0.42808,0.3648413 0.671308,0.963181 0.243227,0.5934752 0.291873,1.289106 h 0.364841 V 0 h -0.462132 q -0.27728,1.1091176 -1.08966,1.7415091 -0.81238,0.6372562 -2.218235,0.909671 l -0.48159,-1.298835 Q 13.819254,1.2355959 14.339761,1.0410138 14.865132,0.84643182 15.225109,0.58374608 15.58995,0.32106034 15.711564,0 h -0.457268 q -0.982639,0 -1.498281,-0.40862226 -0.515643,-0.4134868 -0.515643,-1.33288684 0,-0.3599768 0.111885,-0.7540054 0.111885,-0.3988931 0.340519,-0.7442762 0.228634,-0.3502477 0.574017,-0.5642879 0.350247,-0.2189048 0.822109,-0.2189048 z m 0.16053,2.6171283 h 0.622662 q -0.02919,-0.2724149 -0.116749,-0.5594234 -0.0827,-0.2870085 -0.248092,-0.4815905 -0.16053,-0.194582 -0.42808,-0.194582 -0.228634,0 -0.364842,0.1459365 -0.131343,0.141072 -0.189717,0.3405186 -0.05351,0.194582 -0.05351,0.3599767 0,0.2578212 0.21404,0.3259249 0.218905,0.063239 0.564288,0.063239 z m -4.504573,-1.9360912 1.216138,-0.1508011 0.09729,1.3912615 q 0.02432,0.3697059 0.204311,0.5351006 0.179988,0.1605302 0.574017,0.1605302 h 0.102155 V 0 H 12.826887 Q 12.340432,0 11.990184,-0.17512382 11.644801,-0.35024765 11.421032,-0.63239159 11.124294,-0.335654 10.715672,-0.16539472 10.311914,0 9.8546464,0 H 9.3876495 v -1.4058551 h 0.4669969 q 0.5351006,0 0.7345476,-0.1799884 0.204311,-0.1848529 0.204311,-0.671308 0,-0.2870085 -0.01459,-0.5545588 -0.01459,-0.2724148 -0.03405,-0.530236 z m 0.26755,-2.5782119 0.87562,0.8756192 -0.87562,0.8707545 -0.870754,-0.8707545 z m -4.4072835,1.4253134 q 0.6518498,0.389164 1.1528985,0.7637344 0.5059133,0.3697059 0.7929218,0.7977864 0.2870084,0.4280804 0.2870084,0.9875037 0,0.7637345 -0.3502476,1.1869504 Q 8.1374589,-0.335654 7.5050674,-0.16539472 6.8726758,0 6.0311085,0 H 4.8441582 V -1.4058551 H 6.026244 q 0.7783281,0 1.1674921,-0.1070202 0.3891641,-0.1118846 0.3891641,-0.4524032 0,-0.1605301 -0.238363,-0.3697058 Q 7.1061742,-2.5490245 6.7461975,-2.782523 6.3910853,-3.020886 6.0165149,-3.2495198 5.646809,-3.4830183 5.3743942,-3.6776003 5.170083,-3.8235368 5.0630629,-4.0667644 4.9609074,-4.3099919 4.9609074,-4.5629485 q 0,-0.2724149 0.1264783,-0.5107778 0.1264783,-0.238363 0.3940286,-0.3453831 l 3.7554331,-1.5323335 v 1.3912615 z"
       id="text20"
       transform="matrix(1.3333333,0,0,1.3333333,374.75067,33.62)"
       aria-label="ﺖﯿﻌﺿو:ﯽﻧﻮﻨﮐ" />
    <path
       id="path21"
       d="m 4.4176719,-2.4971484 c 0,-1.0546875 -0.8789063,-1.921875 -1.921875,-1.921875 -1.078125,0 -1.94531253,0.8789062 -1.94531253,1.921875 0,1.0664062 0.86718753,1.93359371 1.94531253,1.93359371 1.0429687,0 1.921875,-0.86718751 1.921875,-1.93359371 z m 0,0"
       style="fill:#be1e2d;fill-opacity:1;fill-rule:nonzero;stroke:none"
       aria-label="•"
       transform="matrix(1.3333333,0,0,1.3333333,417.96133,49.56)" />
    <path
       style="font-size:9.9626px;font-family:Vazirmatn"
       d="m 18.495022,-0.56428788 q 0,1.53719801 -0.656714,2.25715148 -0.656714,0.7199535 -1.916633,0.7199535 -0.904806,0 -1.473959,-0.3259249 -0.569152,-0.3210603 -0.836703,-0.8999418 -0.26755,-0.57888157 -0.26755,-1.34261602 0,-0.51564237 0.10702,-1.05560748 0.10702,-0.5448297 0.291873,-1.0604721 l 0.773464,0.3113313 q -0.141072,0.4475386 -0.238363,0.9194001 -0.09729,0.47186137 -0.09729,0.91453548 0,0.78805721 0.398893,1.22586672 0.403758,0.4378096 1.342616,0.4378096 0.870755,0 1.308564,-0.476726 0.442674,-0.47672592 0.442674,-1.53719796 V -6.6984863 h 0.822109 z M 10.998749,-6.6984863 h 0.822109 v 4.6505105 q 0,0.6859016 0.252957,0.9242646 0.252956,0.23836298 0.763734,0.23836298 h 0.121614 V 0 H 12.837549 Q 11.90842,0 11.451152,-0.49131962 10.998749,-0.98750378 10.998749,-2.0528404 Z m -3.4197792,2.8944077 q 0.3745704,0 0.7734636,0.063239 0.3988931,0.058375 0.7394117,0.1702593 0.3453831,0.1118847 0.5594233,0.2724149 0.2140402,0.1605301 0.2140402,0.3599767 0,0.141072 -0.150801,0.3891641 -0.1459365,0.248092 -0.379435,0.5351005 -0.2286339,0.2870085 -0.4815905,0.5545588 -0.2529566,0.2626857 -0.4621323,0.4475387 0.3405185,0.0875619 0.6469852,0.10702008 0.3064667,0.0194582 0.5545588,0.0194582 H 10.351764 V 0 H 9.5977584 Q 9.0869805,0 8.5762027,-0.12161377 8.0702894,-0.24322753 7.5789698,-0.52537147 7.2579095,-0.34051855 6.8346936,-0.22376933 6.4163422,-0.10702011 5.9882618,-0.05351006 5.5650459,0 5.2245273,0 h -0.768599 v -0.88534822 h 0.7734636 q 0.1653947,0 0.4426741,-0.004865 0.2821439,-0.009729 0.5788815,-0.0340519 Q 6.5525496,-0.95345193 6.776319,-1.0118265 6.5671433,-1.1966795 6.3141867,-1.4593652 6.06123,-1.7269155 5.8277316,-2.013924 5.5990977,-2.3009325 5.4482966,-2.5490245 q -0.150801,-0.2480921 -0.150801,-0.3891641 0,-0.1994466 0.2091756,-0.3599767 0.2091757,-0.1605302 0.5496943,-0.2724149 0.3453831,-0.1118847 0.7442762,-0.1702593 0.3988932,-0.063239 0.7783281,-0.063239 z m 0,0.8367027 q -0.2189048,0 -0.627527,0.034052 -0.4037577,0.034052 -0.7637345,0.1556656 0.3161958,0.3988931 0.6372562,0.7150889 0.3210603,0.3161958 0.5351005,0.5059133 0.2189048,0.1848529 0.2189048,0.1848529 0,0 0.2189048,-0.1848529 Q 8.0167794,-1.7463737 8.3427043,-2.0625695 8.6686292,-2.3787653 8.9799604,-2.7776584 8.6199837,-2.8992722 8.2113614,-2.933324 7.8027392,-2.9673759 7.5789698,-2.9673759 Z M 2.120944,-7.3114196 2.8263038,-6.6060598 2.120944,-5.9007 1.4155841,-6.6060598 Z m -0.3697059,6.42607138 q 0.5496943,0 0.8853483,-0.0632392 0.3405185,-0.0632391 0.4961841,-0.27727942 0.1605302,-0.2189047 0.1605302,-0.6761725 -0.238363,0.072968 -0.4864551,0.1118847 -0.2432275,0.038916 -0.5253714,0.038916 -1.65394727,0 -1.65394727,-1.3572097 0,-0.4669968 0.18485293,-0.9339937 0.18971744,-0.4669969 0.55455874,-0.7783281 0.3648413,-0.3161958 0.8853483,-0.3161958 0.4767259,0 0.8172445,0.2432275 0.3453831,0.2432276 0.5642878,0.6567144 0.2237694,0.4086222 0.3307895,0.9291292 0.1070201,0.5156423 0.1070201,1.0653365 0,0.7248181 -0.1313429,1.1723568 -0.1264783,0.44267406 -0.4086222,0.6761725 -0.282144,0.22863388 -0.7345472,0.31133124 Q 2.3447133,0 1.6928635,0 H -0.09729111 V -0.88534822 Z M 2.3495779,-2.587941 q 0.2237693,0 0.4426741,-0.038916 0.2237693,-0.043781 0.4475386,-0.1070201 Q 3.2008742,-3.0792606 3.0938541,-3.4343728 2.9916986,-3.789485 2.7873874,-4.0278479 2.5830763,-4.2710755 2.2425578,-4.2710755 q -0.3016022,0 -0.4864551,0.1897175 -0.1799884,0.1897175 -0.2626857,0.4524032 -0.077833,0.2626857 -0.077833,0.4864551 0,0.335654 0.238363,0.4475386 0.2432276,0.1070201 0.6956308,0.1070201 z"
       id="text21"
       transform="matrix(1.3333333,0,0,1.3333333,428.16933,49.56)"
       aria-label="لﺎﻌﻓ" />
    <path
       id="path22"
       d="m 4.418125,-2.4960938 c 0,-1.0546875 -0.8789062,-1.921875 -1.921875,-1.921875 -1.078125,0 -1.9453125,0.8789063 -1.9453125,1.921875 0,1.0664063 0.8671875,1.9335938 1.9453125,1.9335938 1.0429688,0 1.921875,-0.8671875 1.921875,-1.9335938 z m 0,0"
       style="fill:#808080;fill-opacity:1;fill-rule:nonzero;stroke:none"
       aria-label="•"
       transform="matrix(1.3333333,0,0,1.3333333,365.04667,65.5)" />
    <path
       style="font-size:9.9626px;font-family:Vazirmatn"
       d="m 53.154943,-0.88534822 q 0.09243,-0.15566558 0.194582,-0.30646668 0.102156,-0.1556656 0.194582,-0.3064667 v -5.2002047 h 0.826974 v 4.0424416 q 1.045878,-1.2599186 2.154996,-1.2599186 0.574017,0 1.002097,0.2334984 0.432945,0.2334985 0.671308,0.6469853 0.238363,0.4086222 0.238363,0.9437228 -0.0049,1.0653366 -0.899942,1.58097898 Q 56.647691,0 54.847807,0 h -2.82144 v -0.88534822 z m 3.419779,-2.15013138 q -1.172356,0 -2.529566,2.14526683 l 0.783193,0.004865 q 1.386397,0 2.067434,-0.27727938 0.685901,-0.2772794 0.685901,-0.8804837 0,-0.4280804 -0.277279,-0.7102244 -0.277279,-0.2821439 -0.729683,-0.2821439 z m -7.340603,-0.5205069 q 0.758869,0 1.279376,0.6810371 0.520507,0.6761725 0.539965,1.98960118 h 0.588611 V 0 h -0.666443 q -0.10702,0.55942333 -0.428081,1.0799302 -0.316196,0.5253715 -0.943723,0.9242647 -0.627527,0.4037577 -1.663676,0.6032043 L 47.65314,1.8339356 Q 49.856781,1.4107197 50.207029,0 H 49.43843 q -1.843665,0 -1.843665,-1.4934171 0,-0.4767259 0.189717,-0.9534519 0.194582,-0.4767259 0.559424,-0.7929217 0.369706,-0.3161958 0.890213,-0.3161958 z m 0.155665,2.67063828 h 0.861026 q -0.05837,-0.93885828 -0.311332,-1.36693878 -0.248092,-0.4280804 -0.719953,-0.4280804 -0.311331,0 -0.49132,0.1994466 -0.175124,0.1994465 -0.248092,0.4718614 -0.0681,0.2675503 -0.0681,0.486455 0,0.3405186 0.228634,0.4913197 0.233499,0.14593648 0.749141,0.14593648 z m -3.818673,-5.27317288 0.681037,0.6761725 -0.681037,0.6859016 -0.676172,-0.6859016 z m -1.615031,0 0.681037,0.6761725 -0.681037,0.6859016 -0.676172,-0.6859016 z m 2.549025,3.8673177 q 0,0.3842995 -0.170259,0.715089 -0.17026,0.3259249 -0.466997,0.67130798 0.277279,0.0145937 0.491319,0.0194582 0.214041,0 0.379435,0 h 0.471862 V 0 h -0.457268 q -0.184853,0 -0.510778,-0.0291873 -0.32106,-0.03405186 -0.710224,-0.11188467 -0.3843,-0.0778328 -0.75887,-0.20917568 -0.374571,0.13620742 -0.768599,0.21404023 -0.394029,0.07296826 -0.729683,0.10702012 Q 42.939389,0 42.739943,0 h -0.681037 v -0.88534822 h 0.681037 q 0.204311,0 0.423216,0 0.223769,-0.004865 0.539965,-0.0243227 -0.291873,-0.34051853 -0.457268,-0.67617253 -0.165395,-0.335654 -0.165395,-0.715089 0,-0.3016021 0.141072,-0.6080688 0.141072,-0.3064667 0.379435,-0.5691524 0.238363,-0.2626858 0.54483,-0.4183514 0.306467,-0.1605302 0.632391,-0.1605302 0.340519,0 0.65185,0.1605302 0.311331,0.1556656 0.549694,0.4183514 0.243228,0.2578212 0.3843,0.5691524 0.141072,0.3113312 0.141072,0.6177979 z m -1.726916,-0.9048064 q -0.184853,0 -0.389164,0.141072 -0.199446,0.1362074 -0.340518,0.3453831 -0.136208,0.2091757 -0.136208,0.4280804 0,0.2237694 0.131343,0.4572678 0.131343,0.2334984 0.33079,0.4280805 0.204311,0.194582 0.413487,0.3016021 0.369705,-0.1556656 0.627527,-0.5010487 0.262685,-0.3502477 0.262685,-0.6956308 0,-0.2043111 -0.145936,-0.4134868 -0.141072,-0.2091756 -0.350248,-0.3502476 -0.209176,-0.141072 -0.403758,-0.141072 z M 37.593247,0 Q 37.033823,0 36.727357,-0.18971748 36.425754,-0.3842995 36.245766,-0.74427625 36.017132,-0.3842995 35.66202,-0.18971748 35.306908,0 34.650193,0 h -0.447538 v -0.88534822 h 0.457268 q 0.622662,0 0.909671,-0.22863388 0.287008,-0.2334984 0.287008,-0.8464318 0,-0.1264783 -0.01459,-0.2967376 -0.0097,-0.1751238 -0.03405,-0.4864551 l 0.812379,-0.1021555 0.07783,1.0166911 q 0.02919,0.4086222 0.248092,0.6761725 0.22377,0.26755028 0.656715,0.26755028 0.515642,0 0.700495,-0.27727938 0.184853,-0.2772794 0.184853,-0.7977863 0,-0.1264783 -0.01459,-0.3016022 -0.0097,-0.1751238 -0.03405,-0.4815905 l 0.81238,-0.1021555 0.07783,1.0166911 q 0.02432,0.3940286 0.209176,0.6713079 0.184853,0.27241488 0.59834,0.27241488 0.403757,0 0.554558,-0.30160218 0.150801,-0.3016021 0.150801,-0.7053598 0,-0.3648413 -0.07297,-0.7345472 -0.0681,-0.3697058 -0.121614,-0.5983397 l 0.831839,-0.2237693 q 0.08756,0.3259249 0.141072,0.6956307 0.05351,0.3648413 0.05351,0.7296826 0,0.5253715 -0.145937,0.9875038 -0.145936,0.46213232 -0.48159,0.74914081 Q 40.716288,-0.00486455 40.142271,0 39.675274,0 39.388266,-0.19458203 39.101257,-0.38916405 38.921269,-0.74427625 38.648854,-0.35024765 38.3132,-0.17512382 37.982411,0 37.593247,0 Z m -6.537956,0.60806883 h -0.773464 l 2.957647,-7.69085463 h 0.768599 z m -3.191146,-6.83469363 0.70536,0.7053598 -0.70536,0.7053598 -0.70536,-0.7053598 z m -2.767929,5.34127658 h 0.42808 q 0.04378,0 0.272415,0 0.228634,0 0.510778,-0.004865 0.282144,-0.009729 0.481591,-0.0194582 -0.291874,-0.34051853 -0.457268,-0.67617253 -0.165395,-0.335654 -0.165395,-0.715089 0,-0.3016021 0.141072,-0.6080688 0.141072,-0.3064667 0.379435,-0.5691524 0.238363,-0.2626858 0.54483,-0.4183514 0.306466,-0.1605302 0.632391,-0.1605302 0.340519,0 0.65185,0.1605302 0.311331,0.1556656 0.549694,0.4183514 0.243228,0.2578212 0.3843,0.5691524 0.141072,0.3113312 0.141072,0.6177979 0,0.3842995 -0.17026,0.715089 -0.170259,0.3259249 -0.466996,0.67130798 0.272414,0.0145937 0.486455,0.0194582 0.21404,0 0.379435,0 h 0.471861 V 0 h -0.462132 q -0.184853,0 -0.505914,-0.0291873 -0.32106,-0.03405186 -0.705359,-0.11188467 -0.3843,-0.0778328 -0.75887,-0.20917568 -0.374571,0.13620742 -0.846432,0.21404023 -0.471862,0.07296826 -0.885348,0.10702012 Q 25.714014,0 25.514567,0 h -0.418351 q -1.833936,0 -2.7582,-0.49618417 -0.9194,-0.49618416 -0.9194,-1.71718643 0,-0.3356539 0.07297,-0.6567143 0.07783,-0.3210603 0.199446,-0.6177979 l 0.754006,0.2821439 q -0.07783,0.2140402 -0.131343,0.4572678 -0.04865,0.2432275 -0.04865,0.4621323 0.0049,0.5691524 0.321061,0.8756191 0.316196,0.3016021 0.943723,0.41348681 0.627527,0.11188467 1.566385,0.11188467 z m 2.767929,-2.31066158 q -0.184853,0 -0.389164,0.141072 -0.199446,0.1362074 -0.340518,0.3453831 -0.136208,0.2091757 -0.136208,0.4280804 0,0.2237694 0.131343,0.4572678 0.131343,0.2334984 0.33079,0.4280805 0.204311,0.194582 0.413486,0.3016021 0.369706,-0.1556656 0.627527,-0.5010487 0.262686,-0.3502477 0.262686,-0.6956308 0,-0.2043111 -0.145936,-0.4134868 -0.141072,-0.2091756 -0.350248,-0.3502476 -0.209176,-0.141072 -0.403758,-0.141072 z m -10.648501,2.31066158 h 0.734547 q 0.617798,0 0.880484,-0.27727938 0.26755,-0.2772794 0.26755,-0.8512964 0,-0.2334984 -0.01459,-0.4426741 -0.0097,-0.2091757 -0.02919,-0.4183513 l 0.81238,-0.097291 0.07783,1.1383049 q 0.05838,0.94858738 0.987504,0.94858738 h 0.102155 V 0 h -0.111884 q -0.539965,0 -0.86589,-0.19458203 -0.321061,-0.19458202 -0.520507,-0.54969422 -0.262686,0.3842995 -0.690766,0.56428788 Q 18.417188,0 17.950191,0 h -0.734547 z m 1.756103,1.65881178 0.681037,0.67617254 -0.681037,0.6859016 -0.676173,-0.6859016 z m -1.615031,0 0.681037,0.67617254 -0.681037,0.6859016 -0.676172,-0.6859016 z M 14.647162,-3.8040786 q 0.37457,0 0.773463,0.063239 0.398894,0.058375 0.739412,0.1702593 0.345383,0.1118847 0.559423,0.2724149 0.214041,0.1605301 0.214041,0.3599767 0,0.141072 -0.150801,0.3891641 -0.145937,0.248092 -0.379435,0.5351005 -0.228634,0.2870085 -0.481591,0.5545588 -0.252957,0.2626857 -0.462132,0.4475387 0.340518,0.0875619 0.646985,0.10702008 0.306467,0.0194582 0.554559,0.0194582 h 0.75887 V 0 H 16.66595 q -0.510777,0 -1.021555,-0.12161377 -0.505914,-0.12161376 -0.997233,-0.4037577 -0.321061,0.18485292 -0.744276,0.30160214 -0.418352,0.11674922 -0.846432,0.17025927 Q 12.633238,0 12.292719,0 H 11.52412 v -0.88534822 h 0.773464 q 0.165395,0 0.442674,-0.004865 0.282144,-0.009729 0.578882,-0.0340519 0.301602,-0.0291873 0.525371,-0.0875619 -0.209176,-0.184853 -0.462132,-0.4475387 -0.252957,-0.2675503 -0.486455,-0.5545588 -0.228634,-0.2870085 -0.379435,-0.5351005 -0.150801,-0.2480921 -0.150801,-0.3891641 0,-0.1994466 0.209175,-0.3599767 0.209176,-0.1605302 0.549694,-0.2724149 0.345384,-0.1118847 0.744277,-0.1702593 0.398893,-0.063239 0.778328,-0.063239 z m 0,0.8367027 q -0.218905,0 -0.627527,0.034052 -0.403758,0.034052 -0.763735,0.1556656 0.316196,0.3988931 0.637256,0.7150889 0.321061,0.3161958 0.535101,0.5059133 0.218905,0.1848529 0.218905,0.1848529 0,0 0.218905,-0.1848529 0.218904,-0.1897175 0.544829,-0.5059133 0.325925,-0.3161958 0.637256,-0.7150889 -0.359976,-0.1216138 -0.768599,-0.1556656 -0.408622,-0.034052 -0.632391,-0.034052 z M 8.809701,-6.289864 9.5150609,-5.5845042 8.809701,-4.8791443 8.1043412,-5.5845042 Z M 7.3211485,0 H 7.0633273 Q 6.0320426,0 5.4920775,-0.19458203 4.9521124,-0.38916405 4.728343,-0.7394117 4.4461991,-0.3551122 4.0910869,-0.17512382 3.7408392,0 3.1570932,0 H 2.9576466 l 0.00486,-0.88534822 h 0.1945821 q 0.6810371,0 0.9145355,-0.28700848 0.238363,-0.291873 0.238363,-0.8415673 0,-0.2334984 -0.019458,-0.432945 -0.014594,-0.1994466 -0.024323,-0.4280804 l 0.81238,-0.097291 0.072968,1.1383049 q 0.024323,0.3259249 0.1362075,0.5642879 0.1118846,0.2334984 0.3453831,0.2334984 0.8707545,-1.4788234 1.7025927,-2.1793187 0.8367027,-0.7053598 1.6734054,-0.7053598 0.5545588,0 0.9826392,0.2432275 0.4329452,0.238363 0.6761722,0.6518498 0.243228,0.4134868 0.243228,0.9339937 -0.0049,0.6275271 -0.37457,1.11398212 0.141071,0.0340518 0.364841,0.0632392 0.228634,0.0291873 0.671308,0.0291873 h 0.145936 V 0 H 11.57763 Q 10.959832,0 10.556075,-0.12647832 10.157182,-0.25295663 9.8847667,-0.47672596 9.4858736,-0.25295663 8.8340238,-0.12647832 8.182174,0 7.3211485,0 Z M 9.048064,-3.0354796 q -1.1723567,0 -2.5344309,2.15013138 h 0.7880572 q 1.386397,0 2.0674341,-0.27727938 0.6810366,-0.2772794 0.6810366,-0.8804837 0,-0.4280804 -0.2772789,-0.7102244 Q 9.5004672,-3.0354796 9.048064,-3.0354796 Z M 2.0431108,-5.7109825 2.7241479,-5.0348099 2.0431108,-4.3489083 1.3669383,-5.0348099 Z m -1.61503079,0 0.68103709,0.6761726 -0.68103709,0.6859016 -0.67617255,-0.6859016 z m -0.52537148,4.82563428 h 0.99723289 q 0.48645508,0 0.65671438,-0.28214398 0.1751238,-0.2821439 0.1751238,-0.7150889 0,-0.3161958 -0.058375,-0.6761725 -0.058375,-0.3599768 -0.1264783,-0.7248181 l 0.8464318,-0.2140402 q 0.082697,0.389164 0.1313428,0.7637344 0.048646,0.3745704 0.048646,0.715089 0,0.5837461 -0.1605301,1.04101382 Q 2.2522865,-0.52050692 1.8874452,-0.25782119 1.5226039,0 0.90967052,0 h -1.00696199 z"
       id="text22"
       transform="matrix(1.3333333,0,0,1.3333333,375.256,65.5)"
       aria-label="طﻮﻘﺳ/ﻒﯿﻌﻀﺗ" />
  </g>
</svg>
