<?xml version="1.0" encoding="UTF-8" standalone="no"?>


<svg class="tikz-diagram" id="iran-action-ch4-tikz-15-c1f961d6b524"
   version="1.1"
   id="svg1"
   width="574.29333"
   height="139.65334"
   viewBox="0 0 574.29333 139.65334"
   sodipodi:docname="iran-action-ch4-tikz-15-c1f961d6b524.pdf"
   xmlns:inkscape="http://www.inkscape.org/namespaces/inkscape"
   xmlns:sodipodi="http://sodipodi.sourceforge.net/DTD/sodipodi-0.dtd"
   xmlns="http://www.w3.org/2000/svg"
   xmlns:svg="http://www.w3.org/2000/svg">
  <defs
     id="defs1" />
  <sodipodi:namedview
     id="namedview1"
     pagecolor="#ffffff"
     bordercolor="#000000"
     borderopacity="0.25"
     inkscape:showpageshadow="2"
     inkscape:pageopacity="0.0"
     inkscape:pagecheckerboard="0"
     inkscape:deskcolor="#d1d1d1">
    <inkscape:page
       x="0"
       y="0"
       inkscape:label="1"
       id="page1"
       width="574.29333"
       height="139.65334"
       margin="0"
       bleed="0" />
  </sodipodi:namedview>
  <g
     id="g1"
     inkscape:groupmode="layer"
     inkscape:label="1">
    <path
       id="path1"
       d="m 183.48358,35.4335 h -366.96716 c -8.25354,0 -14.94415,-6.69061 -14.94415,-14.94415 v -40.9787 c 0,-8.25354 6.69061,-14.94415 14.94415,-14.94415 h 366.96716 c 8.25354,0 14.94415,6.69061 14.94415,14.94415 v 40.9787 c 0,8.25354 -6.69061,14.94415 -14.94415,14.94415 z"
       style="fill:#e1f0fa;fill-opacity:1;fill-rule:nonzero;stroke:#3498db;stroke-width:3.9851;stroke-linecap:butt;stroke-linejoin:miter;stroke-miterlimit:10;stroke-dasharray:none;stroke-opacity:1"
       transform="matrix(1.3333333,0,0,-1.3333333,287.14933,69.828)" />
    <path
       style="font-weight:800;font-size:17.2154px;font-family:Vazirmatn"
       d="m 271.15211,4.2366025 q -1.80728,0 -2.98412,-0.6892885 -1.16842,-0.6892885 -1.73162,-1.8829344 -0.5632,-1.19364599 -0.5632,-2.6899064 0,-1.0003089 0.21855,-2.0678655 0.21856,-1.0759626 0.63045,-2.1435191 l 2.04265,0.781754 q -0.31102,0.8910315 -0.52117,1.7400332 -0.21015,0.8490017 -0.21015,1.5887259 0,0.80697192 0.2858,1.47944851 0.2858,0.67247659 0.96669,1.07596259 0.68088,0.4034859 1.86612,0.4034859 1.2777,0 2.12671,-0.2942085 0.849,-0.2858026 1.2693,-0.68088255 0.42029,-0.39507999 0.42029,-0.69769446 0,-0.24377276 -0.30261,-0.24377276 h -1.36177 q -0.4287,0 -0.89943,-0.08405958 -0.46233,-0.0840596 -0.86582,-0.36145616 -0.40348,-0.2773966 -0.65566,-0.83218979 -0.24377,-0.5547932 -0.24377,-1.4878544 0,-0.8742196 0.2858,-1.6811915 0.2858,-0.8153779 0.81538,-1.4542306 0.53798,-0.6388528 1.28611,-1.0171209 0.74813,-0.3782681 1.68119,-0.3782681 0.63045,0 1.23567,0.193337 0.61364,0.1849311 1.1264,0.5547932 l -0.77335,2.1435192 q -0.43711,-0.2437728 -0.84059,-0.3362383 -0.39508,-0.1008715 -0.73132,-0.1008715 -0.90784,0 -1.42061,0.596823 -0.51276,0.588417 -0.51276,1.4710425 0,0.2269608 0.1429,0.2858025 0.15131,0.058842 0.36986,0.058842 h 1.22727 q 0.96669,0 1.51308,0.3026145 0.55479,0.3026145 0.78175,0.8405957 0.23537,0.52957536 0.23537,1.21045791 0,1.20205189 -0.68929,2.20236079 -0.68929,1.000309 -2.00903,1.5971319 -1.31973,0.596823 -3.21107,0.596823 z m -9.91904,-11.1883292 q 1.05915,0 1.79888,0.6304468 0.73972,0.6304468 1.16002,1.6643795 0.42029,1.0255268 0.50435,2.2275787 h 0.63045 V 0 h -0.79856 q -0.47914,1.9165583 -1.88294,3.0093327 -1.40379,1.1011805 -3.83312,1.5719141 l -0.83219,-2.2443907 q 1.05916,-0.2017429 1.95859,-0.5379812 0.90785,-0.3362383 1.52989,-0.79016 Q 262.09888,0.55479319 262.30903,0 h -0.79016 q -1.698,0 -2.58903,-0.70610042 -0.89103,-0.71450638 -0.89103,-2.30323228 0,-0.6220409 0.19333,-1.3029234 0.19334,-0.6892885 0.58842,-1.2861115 0.39508,-0.6052289 0.9919,-0.9750911 0.60523,-0.378268 1.42061,-0.378268 z m 0.2774,4.522405 h 1.07596 q -0.0504,-0.4707336 -0.20174,-0.9666851 -0.1429,-0.4959515 -0.42871,-0.8321898 -0.27739,-0.3362383 -0.73972,-0.3362383 -0.39508,0 -0.63045,0.2521788 -0.22696,0.2437727 -0.32783,0.588417 -0.0925,0.3362383 -0.0925,0.6220408 0,0.4455158 0.36987,0.5631992 0.37826,0.1092774 0.97509,0.1092774 z M 253.39872,0 h -1.80728 v -2.4293217 h 1.81568 q 0.63886,0 0.87422,-0.39508 0.24378,-0.4034859 0.24378,-1.0171208 0,-0.5716051 -0.14291,-1.2440817 -0.13449,-0.6808826 -0.27739,-1.3281413 l 2.20236,-0.5716051 q 0.15971,0.79016 0.25218,1.5719141 0.10087,0.773348 0.10087,1.4794485 0,1.1179923 -0.30262,2.0090238 -0.2942,0.8910314 -1.00871,1.4122008 Q 254.63439,0 253.39872,0 Z m -1.58873,1.0759625 1.42901,1.4122009 1.4122,-1.4122009 1.43742,1.4290128 L 254.6512,3.9508 253.239,2.5217872 251.80999,3.9508 250.38098,2.5049753 Z m -5.9514,3.5136902 -0.8574,-2.2527966 q 1.21886,-0.2605846 2.09308,-0.6976944 0.88263,-0.4287038 1.36177,-1.15161617 0.47913,-0.72291234 0.47913,-1.86612253 0,-0.7649421 -0.24377,-1.7148153 -0.24377,-0.9582792 -0.52117,-1.782063 l 2.26961,-0.7313183 q 0.32783,0.9162494 0.49595,1.9754 0.17653,1.0591506 0.17653,2.0342417 0,1.76525105 -0.65567,3.0261447 -0.64726,1.2692995 -1.8325,2.0510536 -1.17683,0.7901599 -2.76556,1.1095863 z m -4.05168,-16.3748047 h 2.2696 v 7.6830448 q 0,0.8910315 0.26059,1.2861115 0.26058,0.386674 1.07596,0.386674 h 0.21015 V 0 h -0.21015 q -1.88293,0 -2.74875,-0.97509106 -0.8574,-0.97509104 -0.8574,-2.92527314 z m -4.76618,6.0102593 2.10149,-0.2605847 0.16812,2.4041038 q 0.042,0.6388528 0.35305,0.9246553 0.31102,0.2773966 0.9919,0.2773966 h 0.17653 V 0 h -0.19334 q -0.8406,0 -1.44583,-0.30261447 -0.59682,-0.30261446 -0.98349,-0.79016003 -0.51277,0.51276344 -1.21887,0.80697195 Q 236.2926,0 235.50244,0 h -0.80697 v -2.4293217 h 0.80697 q 0.92465,0 1.2693,-0.3110204 0.35305,-0.3194264 0.35305,-1.1600221 0,-0.4959515 -0.0252,-0.9582792 -0.0252,-0.4707336 -0.0588,-0.9162493 z m 0.46233,-4.4551573 1.51307,1.5130722 -1.51307,1.5046664 -1.50467,-1.5046664 z M 226.76865,0 q -0.849,0 -1.42901,-0.28580255 -0.5716,-0.29420851 -0.94147,-0.77334805 -0.46232,0.4875455 -1.10118,0.77334805 Q 222.65814,0 221.68305,0 h -0.77335 v -2.4293217 h 0.79016 q 0.92466,0 1.31133,-0.2269608 0.39508,-0.2269609 0.39508,-1.0927745 0,-0.1344953 -0.0168,-0.4455157 -0.0168,-0.3110205 -0.042,-0.6808826 -0.0252,-0.3782681 -0.0504,-0.6808825 l 2.1099,-0.2605847 0.17652,2.2696085 q 0.0757,1.1179923 1.20205,1.1179923 0.6977,0 0.93307,-0.2858025 0.23536,-0.2942085 0.23536,-1.0339328 0,-0.1176834 -0.0168,-0.4287038 -0.0168,-0.3194264 -0.042,-0.6976945 -0.0252,-0.3782681 -0.0504,-0.6808825 l 2.10989,-0.2605847 0.17653,2.2696085 q 0.0336,0.5127634 0.25217,0.8153779 0.22697,0.3026144 0.76495,0.3026144 0.50435,0 0.68929,-0.39508 0.19333,-0.4034859 0.19333,-0.9582791 0,-0.4791396 -0.0925,-0.983497 -0.0841,-0.5127634 -0.19334,-0.9246553 -0.10087,-0.4202979 -0.15131,-0.6136349 l 2.17715,-0.596823 q 0.16811,0.6640706 0.27739,1.4206068 0.10928,0.7481302 0.10928,1.4878544 0,1.0423388 -0.2774,1.9585881 -0.26899,0.9078434 -0.92465,1.47104256 Q 232.29977,0 231.16497,0 q -0.75654,0 -1.27771,-0.31102042 -0.51276,-0.31102043 -0.86581,-0.76494208 -0.4287,0.45392165 -0.97509,0.76494208 Q 227.50838,0 226.76865,0 Z m -5.59076,-6.4389633 q 0,-0.6388528 0.45392,-1.0591507 0.45392,-0.4202978 1.09278,-0.4202978 0.64726,0 1.09277,0.4202978 0.45392,0.4202979 0.45392,1.0591507 0,0.6304468 -0.45392,1.0507446 -0.45392,0.4202979 -1.09277,0.4202979 -0.65567,0 -1.10118,-0.4118919 -0.44552,-0.4202979 -0.44552,-1.0591506 z m 0,4.9511088 q 0,-0.6304468 0.45392,-1.0507446 0.45392,-0.4287039 1.09278,-0.4287039 0.64726,0 1.09277,0.4287039 0.45392,0.4202978 0.45392,1.0507446 0,0.63885281 -0.45392,1.05915067 -0.45392,0.42029787 -1.09277,0.42029787 -0.65567,0 -1.10118,-0.42029787 -0.44552,-0.42029786 -0.44552,-1.05915067 z m -6.46418,5.8085166 q -1.84931,0 -3.01774,-0.7145064 -1.16002,-0.7145064 -1.71482,-1.9165583 -0.54638,-1.19364592 -0.54638,-2.6562825 0,-0.8321898 0.15971,-1.7400332 0.16812,-0.9078434 0.52117,-1.8493106 l 2.04265,0.7397243 q -0.25218,0.7313182 -0.40349,1.4542306 -0.15131,0.7229123 -0.15131,1.3617651 0,0.81537784 0.28581,1.47104251 0.29421,0.66407059 0.97509,1.05074469 0.68088,0.39508 1.84931,0.39508 1.33655,0 2.14352,-0.2773966 0.80697,-0.2773966 1.16843,-0.6220409 0.36986,-0.34464421 0.36986,-0.53798123 0,-0.29420851 -0.2858,-0.38667404 Q 217.83232,0 217.21868,0 h -1.32814 q -0.34464,0 -0.43711,-0.1765251 -0.0925,-0.17652511 -0.17652,-0.47073362 l -0.36146,-1.30292338 q -0.0588,-0.2101489 -0.042,-0.3446443 0.0252,-0.1344953 0.32783,-0.1344953 h 5.0772 V 0 h 0.0673 q 0.0756,0.29420851 0.0756,0.47073361 0,1.02552679 -0.68088,1.89974639 -0.67248,0.8826255 -1.95018,1.4122008 -1.2693,0.5379813 -3.07658,0.5379813 z M 202.5755,-2.4293217 h 0.9835 q 0.92466,0 1.2693,-0.3110204 0.35305,-0.3194264 0.35305,-1.1600221 0,-0.4959515 -0.0252,-0.9582792 -0.0252,-0.4707336 -0.0588,-0.9162493 l 2.10149,-0.2605847 0.16812,2.4041038 q 0.042,0.6388528 0.35305,0.9246553 0.31102,0.2773966 0.9919,0.2773966 h 0.17653 V 0 h -0.19334 q -0.84059,0 -1.44582,-0.30261447 -0.59683,-0.30261446 -0.9835,-0.79016003 -0.51276,0.51276344 -1.21886,0.80697195 Q 204.34916,0 203.559,0 h -0.9835 z m 1.73163,3.42122467 1.51307,1.51307233 -1.51307,1.5046664 -1.50466,-1.5046664 z m -7.98565,-3.42122467 h 1.2693 q 0.92465,0 1.2693,-0.3110204 0.35305,-0.3194264 0.35305,-1.1600221 0,-0.4959515 -0.0252,-0.9582792 -0.0252,-0.4707336 -0.0588,-0.9162493 l 2.10149,-0.2605847 0.16812,2.4041038 q 0.042,0.6388528 0.35305,0.9246553 0.31102,0.2773966 0.9919,0.2773966 h 0.17652 V 0 h -0.19333 q -0.8406,0 -1.44583,-0.30261447 -0.59682,-0.30261446 -0.98349,-0.79016003 -0.51277,0.51276344 -1.21887,0.80697195 Q 198.38094,0 197.59078,0 h -1.2693 z m 0.21855,3.5052842 1.42902,1.4122009 1.4122,-1.4122009 1.43741,1.4290128 L 199.38125,3.9508 197.96905,2.5217872 196.54003,3.9508 195.11102,2.5049753 Z m -5.00996,-8.8430671 q 1.12639,0.6724766 1.99221,1.3197353 0.87422,0.6388528 1.37017,1.378577 0.49595,0.7397243 0.49595,1.7064094 0,1.3197353 -0.60523,2.0510536 -0.60523,0.73131824 -1.698,1.02552675 Q 191.99239,0 190.53816,0 h -2.05105 v -2.4293217 h 2.04265 q 1.34495,0 2.01743,-0.184931 0.67247,-0.1933371 0.67247,-0.7817541 0,-0.2773966 -0.41189,-0.6388527 -0.41189,-0.3698622 -1.03393,-0.7733481 -0.61364,-0.4118919 -1.2609,-0.8069719 -0.63885,-0.403486 -1.10958,-0.7397243 -0.35305,-0.2521787 -0.53798,-0.6724766 -0.17653,-0.4202978 -0.17653,-0.8574076 0,-0.4707336 0.21856,-0.8826255 0.21855,-0.4118919 0.68088,-0.596823 l 6.4894,-2.6478765 v 2.4041037 z M 187.00419,0 q -0.76495,0 -1.2609,-0.29420851 -0.33624,1.93337021 -1.65597,3.19426381 -1.31133,1.2608936 -3.50529,1.6811915 l -0.83219,-2.2443907 q 1.21887,-0.2605846 2.09309,-0.6976944 0.88262,-0.4287038 1.36176,-1.15161617 0.47914,-0.72291234 0.47914,-1.86612253 0,-0.7649421 -0.24377,-1.7148153 -0.24377,-0.9582792 -0.52117,-1.782063 l 2.2612,-0.7313183 0.48755,1.8997464 q 0.1429,0.5379813 0.4203,0.9078434 0.27739,0.3698621 0.82378,0.3698621 h 0.32783 V 0 Z m -10.39819,-10.877309 1.42901,1.412201 1.4122,-1.412201 1.43742,1.4290129 -1.43742,1.4458247 -1.4122,-1.4290128 -1.42901,1.4290128 -1.42901,-1.4458247 z M 177.42978,0 h -1.7064 v -2.4293217 h 1.71481 q 0.63885,0 0.87422,-0.39508 0.24377,-0.4034859 0.24377,-1.0171208 0,-0.5716051 -0.1429,-1.2440817 -0.13449,-0.6808826 -0.27739,-1.3281413 l 2.20236,-0.5716051 q 0.15971,0.79016 0.25217,1.5719141 0.10088,0.773348 0.10088,1.4794485 0,1.1179923 -0.30262,2.0090238 -0.30261,0.8910314 -1.01712,1.4122008 Q 178.66546,0 177.42978,0 Z m -1.79221,4.5896527 -0.85741,-2.2527966 q 1.21887,-0.2605846 2.09309,-0.6976944 0.88262,-0.4287038 1.36176,-1.15161617 0.47914,-0.72291234 0.47914,-1.86612253 0,-0.7649421 -0.24377,-1.7148153 -0.24377,-0.9582792 -0.52117,-1.782063 l 2.26961,-0.7313183 q 0.32783,0.9162494 0.49595,1.9754 0.17652,1.0591506 0.17652,2.0342417 0,1.76525105 -0.65566,3.0261447 -0.64726,1.2692995 -1.8325,2.0510536 -1.17683,0.7901599 -2.76556,1.1095863 z M 171.5859,-11.785152 h 2.26961 v 7.6830448 q 0,0.8910315 0.26058,1.2861115 0.26059,0.386674 1.07596,0.386674 h 0.21015 V 0 h -0.21015 q -1.88293,0 -2.74874,-0.97509106 -0.85741,-0.97509104 -0.85741,-2.92527314 z m -8.18741,-0.218555 1.35336,1.344953 -1.35336,1.3533592 -1.35336,-1.3533592 z m 1.47104,2.143519 1.35336,1.3533591 -1.35336,1.3533592 -1.35336,-1.3533592 z m -2.93368,0 1.34496,1.3533591 -1.34496,1.3533592 -1.35335,-1.3533592 z M 165.99593,0 q -0.74813,0 -1.2693,-0.31102042 -0.52117,-0.31102043 -0.87422,-0.76494208 -0.4287,0.45392165 -0.97509,0.76494208 Q 162.33934,0 161.59962,0 q -0.84901,0 -1.42902,-0.28580255 -0.5716,-0.29420851 -0.94146,-0.77334805 -0.46233,0.4875455 -1.10118,0.77334805 Q 157.4891,0 156.51401,0 h -0.77335 v -2.4293217 h 0.79016 q 0.92466,0 1.31133,-0.2269608 0.39508,-0.2269609 0.39508,-1.0927745 0,-0.1344953 -0.0168,-0.4455157 -0.0168,-0.3110205 -0.042,-0.6808826 -0.0252,-0.3782681 -0.0504,-0.6808825 l 2.10989,-0.2605847 0.17653,2.2696085 q 0.0756,1.1179923 1.20205,1.1179923 0.69769,0 0.93306,-0.2858025 0.23537,-0.2942085 0.23537,-1.0339328 0,-0.1176834 -0.0168,-0.4287038 -0.0168,-0.3194264 -0.042,-0.6976945 -0.0252,-0.3782681 -0.0504,-0.6808825 l 2.10989,-0.2605847 0.17653,2.2696085 q 0.0336,0.5211693 0.26058,0.8237838 0.22696,0.2942085 0.75654,0.2942085 0.52117,0 0.7061,-0.3446442 0.19334,-0.3446443 0.19334,-0.9750911 0,-0.3026145 -0.0336,-0.8742196 -0.0336,-0.5716051 -0.0756,-1.0927744 l 2.1099,-0.2605847 0.17652,2.4293217 q 0.042,0.6220408 0.34464,0.8742196 0.31102,0.2437727 0.95828,0.2437727 h 0.25218 V 0 h -0.23536 q -0.77335,0 -1.37018,-0.26899064 -0.58841,-0.26899063 -0.93306,-0.73131826 -0.34464,0.4287038 -0.849,0.71450635 Q 166.71884,0 165.99593,0 Z m -14.50868,-13.710116 1.51307,1.513072 -1.51307,1.504666 -1.50467,-1.504666 z m -0.63885,11.2807943 q 1.07596,0 1.63916,-0.1681191 0.5716,-0.1681192 0.58001,-0.8321898 -0.61364,0.1176834 -1.30293,0.1176834 -1.48785,0 -2.35366,-0.6136349 -0.86582,-0.6220408 -0.86582,-2.0174298 0,-0.6808825 0.21856,-1.3449531 0.22696,-0.6724766 0.63885,-1.2188639 0.4203,-0.5547931 1.00031,-0.8826255 0.58842,-0.3362383 1.31133,-0.3362383 0.93306,0 1.59713,0.4707336 0.67248,0.4623277 1.09277,1.2440817 0.4203,0.7817541 0.61364,1.7484392 0.20174,0.9582791 0.20174,1.958588 0,1.7484392 -0.47914,2.6815004 -0.47073,0.92465534 -1.46263,1.27770555 Q 152.29422,0 150.74752,0 h -3.09339 v -2.4293217 z m 0.88262,-2.9420851 q 0.31943,0 0.63885,-0.033624 0.32784,-0.033624 0.63886,-0.1008715 -0.0589,-0.4034859 -0.21856,-0.8321898 -0.15971,-0.4371097 -0.4287,-0.7397242 -0.26899,-0.3026145 -0.66407,-0.3026145 -0.52117,0 -0.80698,0.4287039 -0.27739,0.4202978 -0.27739,0.9078434 0,0.4455157 0.32783,0.5631991 0.32783,0.1092774 0.79016,0.1092774 z m -3.51408,1.7400332 q 0,-0.2101489 -0.0925,-0.5547932 -0.0925,-0.3446442 -0.19334,-0.5631991 l -1.66438,-3.6734034 2.00062,-0.975091 2.09309,4.8250195 q 0.25217,0.580011 0.44551,1.0675566 0.20174,0.4875455 0.45392,0.781754 0.26059,0.2942085 0.66407,0.2942085 h 0.35305 V 0 h -0.35305 q -0.94146,0 -1.52148,-0.35305021 -0.5716,-0.36145617 -1.00871,-0.92465529 -0.63885,0.61363487 -1.52148,0.94146721 -0.88262,0.32783233 -2.13511,0.32783233 -0.73973,0 -1.25249,-0.05043574 -0.51276,-0.05043575 -1.05915,-0.18493106 V -2.6730944 q 0.52117,0.1260893 1.10118,0.193337 0.58842,0.067248 1.08437,0.067248 0.62204,0 1.21886,-0.1008715 0.59683,-0.1092774 0.99191,-0.378268 0.39508,-0.2689907 0.39508,-0.7397243 z m -9.10366,-2.1435191 2.10149,-0.2605847 0.16812,2.4041038 q 0.042,0.6388528 0.35305,0.9246553 0.31102,0.2773966 0.99191,0.2773966 h 0.17652 V 0 h -0.19334 q -0.84059,0 -1.44582,-0.30261447 -0.59682,-0.30261446 -0.9835,-0.79016003 -0.51276,0.51276344 -1.21886,0.80697195 Q 138.36515,0 137.57499,0 h -0.80697 v -2.4293217 h 0.80697 q 0.92466,0 1.2693,-0.3110204 0.35305,-0.3194264 0.35305,-1.1600221 0,-0.4959515 -0.0252,-0.9582792 -0.0252,-0.4707336 -0.0589,-0.9162493 z m 0.46233,-4.4551573 1.51307,1.5130722 -1.51307,1.5046664 -1.50466,-1.5046664 z M 127.26929,0 h -0.36986 l 0.008,-2.4293217 h 0.31942 q 0.4119,0 0.73973,-0.3194264 0.33624,-0.3194263 0.63885,-0.8237838 0.31102,-0.5127634 0.64726,-1.0759625 0.34464,-0.5716051 0.76494,-1.0759626 0.42871,-0.5127634 0.9919,-0.8321897 0.5632,-0.3194264 1.31974,-0.3194264 0.94987,0 1.65597,0.39508 0.71451,0.39508 1.15162,1.0675566 0.43711,0.6724765 0.58001,1.5046663 0.1429,0.8405958 0.47073,1.1600221 0.32784,0.3194264 0.6977,0.3194264 h 0.21855 V 0 h -0.22696 q -0.53798,0 -1.05915,-0.24377276 -0.52117,-0.25217872 -0.84059,-0.58841702 -0.4203,0.52957531 -0.93306,0.78175404 -0.51277,0.24377276 -1.23568,0.24377276 -0.87422,0 -1.63916,-0.36986212 -0.75654,-0.37826809 -1.47945,-0.9330613 -0.46233,0.46232768 -0.96669,0.79016002 Q 128.22757,0 127.26929,0 Z m 5.13604,-4.5644349 q -0.34464,0 -0.62204,0.2353669 -0.27739,0.2269608 -0.48754,0.5547931 -0.21015,0.3278324 -0.35305,0.6220409 0.26058,0.2353668 0.49595,0.4034859 0.23537,0.1681192 0.44551,0.2858026 0.28581,0.1429013 0.52117,0.2101489 0.23537,0.058842 0.4119,0.058842 0.44551,0 0.63885,-0.3194264 0.19334,-0.3278323 0.19334,-0.7397242 0,-0.5295753 -0.32784,-0.9162494 -0.32783,-0.39508 -0.91625,-0.39508 z m -11.63385,-7.4392721 1.35336,1.344953 -1.35336,1.3533592 -1.35335,-1.3533592 z m 1.47105,2.143519 1.35336,1.3533591 -1.35336,1.3533592 -1.35336,-1.3533592 z m -2.93368,0 1.34495,1.3533591 -1.34495,1.3533592 -1.35336,-1.3533592 z M 118.97261,0 q -0.849,0 -1.42901,-0.28580255 -0.57161,-0.29420851 -0.94147,-0.77334805 -0.46233,0.4875455 -1.10118,0.77334805 Q 114.8621,0 113.88701,0 h -0.77335 v -2.4293217 h 0.79016 q 0.92465,0 1.31133,-0.2269608 0.39508,-0.2269609 0.39508,-1.0927745 0,-0.1344953 -0.0168,-0.4455157 -0.0168,-0.3110205 -0.042,-0.6808826 -0.0252,-0.3782681 -0.0504,-0.6808825 l 2.10989,-0.2605847 0.17653,2.2696085 q 0.0757,1.1179923 1.20205,1.1179923 0.6977,0 0.93306,-0.2858025 0.23537,-0.2942085 0.23537,-1.0339328 0,-0.1176834 -0.0168,-0.4287038 -0.0168,-0.3194264 -0.042,-0.6976945 -0.0252,-0.3782681 -0.0504,-0.6808825 l 2.1099,-0.2605847 0.17652,2.2696085 q 0.0336,0.5127634 0.25218,0.8153779 0.22696,0.3026144 0.76494,0.3026144 0.50436,0 0.68929,-0.39508 0.19334,-0.4034859 0.19334,-0.9582791 0,-0.4791396 -0.0925,-0.983497 -0.0841,-0.5127634 -0.19333,-0.9246553 -0.10088,-0.4202979 -0.15131,-0.6136349 l 2.17714,-0.596823 q 0.16812,0.6640706 0.2774,1.4206068 0.10928,0.7481302 0.10928,1.4878544 0,1.0423388 -0.2774,1.9585881 -0.26899,0.9078434 -0.92466,1.47104256 Q 124.50373,0 123.36893,0 q -0.75654,0 -1.27771,-0.31102042 -0.51276,-0.31102043 -0.86581,-0.76494208 -0.42871,0.45392165 -0.97509,0.76494208 Q 119.71233,0 118.97261,0 Z m -9.61642,-6.9517267 q 1.05915,0 1.79887,0.6304468 0.73972,0.6304468 1.16002,1.6643795 0.4203,1.0255268 0.50436,2.2275787 h 0.63045 V 0 h -0.79857 q -0.47914,1.9165583 -1.88293,3.0093327 -1.4038,1.1011805 -3.83312,1.5719141 l -0.83219,-2.2443907 q 1.05915,-0.2017429 1.95859,-0.5379812 0.90784,-0.3362383 1.52988,-0.79016 Q 110.222,0.55479319 110.43215,0 h -0.79016 q -1.69801,0 -2.58904,-0.70610042 -0.89103,-0.71450638 -0.89103,-2.30323228 0,-0.6220409 0.19334,-1.3029234 0.19334,-0.6892885 0.58842,-1.2861115 0.39508,-0.6052289 0.9919,-0.9750911 0.60523,-0.378268 1.42061,-0.378268 z m 0.27739,4.522405 h 1.07596 q -0.0504,-0.4707336 -0.20174,-0.9666851 -0.1429,-0.4959515 -0.4287,-0.8321898 -0.2774,-0.3362383 -0.73973,-0.3362383 -0.39508,0 -0.63044,0.2521788 -0.22696,0.2437727 -0.32784,0.588417 -0.0925,0.3362383 -0.0925,0.6220408 0,0.4455158 0.36986,0.5631992 0.37827,0.1092774 0.97509,0.1092774 z M 97.57945,-0.73131829 Q 96.822914,-0.47073361 95.847823,-0.23536681 94.881138,0 93.956482,0 h -0.832189 v -2.4293217 h 0.722912 q 0.277397,0 0.521169,-0.00841 0.252179,-0.00841 0.512764,-0.025218 -0.260585,-0.3362383 -0.420298,-0.8910315 -0.159713,-0.5631991 -0.159713,-1.0423387 0,-0.7145064 0.35305,-1.4037949 0.35305,-0.6892885 1.059151,-1.1516161 0.7061,-0.4623277 1.756845,-0.4959515 l 0.806972,-1.5971319 q 1.563508,0.7397242 2.773965,1.3533591 1.21886,0.6136349 2.04265,1.2104579 0.83219,0.5968229 1.26089,1.2945174 0.42871,0.6892885 0.42871,1.5971319 0,1.7148153 -1.02553,2.61425274 -1.02553,0.89103149 -2.71513,0.89103149 -0.88262,0 -1.849306,-0.2185549 -0.966685,-0.21855489 -1.613944,-0.42870382 z M 96.39421,-4.4131276 q 0,0.4623276 0.420298,0.8658136 0.420298,0.39508 0.907843,0.5463872 0.226961,-0.050436 0.52117,-0.2269608 0.302614,-0.1849311 0.521169,-0.4455158 0.218555,-0.2689906 0.218555,-0.5716051 0,-0.5043574 -0.361456,-0.9078434 -0.361456,-0.4034859 -0.882626,-0.4034859 -0.537981,0 -0.941467,0.3446442 -0.403486,0.3362383 -0.403486,0.798566 z m 3.68181,1.9838059 q 0.39508,0.067248 0.76494,0.1008715 0.36986,0.033624 0.52958,0.033624 0.49595,0 0.90784,-0.2521787 0.41189,-0.2605847 0.41189,-0.975091 0,-0.1765251 -0.13449,-0.403486 -0.12609,-0.2353668 -0.5548,-0.5716051 -0.42029,-0.3362383 -1.29451,-0.8237838 0.11768,0.3614562 0.11768,0.7481302 0,0.6556647 -0.21015,1.1936459 -0.20174,0.5295754 -0.53798,0.9498732 z M 97.435732,0 q -1.176834,0 -1.93337,-0.44551574 -0.756536,-0.4539217 -1.092775,-1.47944846 -0.966685,0.7565361 -2.109895,0.7565361 -1.395389,0 -2.32845,-0.7565361 -0.933061,-0.7649422 -0.933061,-2.2527966 0,-1.0927745 0.630447,-1.8661225 0.630446,-0.7817541 1.622349,-1.3113294 1.000309,-0.5295753 2.084678,-0.8574077 l -0.05884,-0.4034859 2.034242,-0.4118919 0.798566,5.3966246 q 0.07565,0.5127634 0.39508,0.8574077 0.327832,0.3446442 0.924655,0.3446442 h 0.260585 V 0 Z M 93.94726,-4.5139991 q 0,-0.1176834 -0.02522,-0.2605847 -0.01681,-0.1513072 -0.04203,-0.3110204 l -0.142901,-0.8826255 q -0.596823,0.2017429 -1.176834,0.4707336 -0.571605,0.2605847 -0.949873,0.580011 -0.369862,0.3110205 -0.369862,0.6724766 0,0.3446443 0.277396,0.5631992 0.285803,0.2101489 0.739724,0.2101489 0.386674,0 0.773348,-0.1092774 0.39508,-0.1176834 0.655665,-0.3446443 0.260585,-0.2353668 0.260585,-0.588417 z m -11.743124,2.0846774 h 0.983497 q 0.924655,0 1.269299,-0.3110204 0.353051,-0.3194264 0.353051,-1.1600221 0,-0.4959515 -0.02522,-0.9582792 -0.02522,-0.4707336 -0.05884,-0.9162493 l 2.101489,-0.2605847 0.16812,2.4041038 q 0.04203,0.6388528 0.35305,0.9246553 0.31102,0.2773966 0.991903,0.2773966 H 88.51701 V 0 H 88.323673 Q 87.483077,0 86.877848,-0.30261447 86.281025,-0.60522893 85.894351,-1.0927745 85.381588,-0.58001106 84.675487,-0.28580255 83.977793,0 83.187633,0 H 82.204136 Z M 83.935763,0.99190297 85.448835,2.5049753 83.935763,4.0096417 82.431097,2.5049753 Z M 78.429872,0 h -1.336547 v -2.4293217 h 1.344953 q 0.638853,0 0.87422,-0.39508 0.243772,-0.4034859 0.243772,-1.0171208 0,-0.5716051 -0.142901,-1.2440817 -0.134495,-0.6808826 -0.277396,-1.3281413 l 2.20236,-0.5716051 q 0.159714,0.79016 0.252179,1.5719141 0.100872,0.773348 0.100872,1.4794485 0,1.1179923 -0.302615,2.0090238 -0.302614,0.8910314 -1.017121,1.4122008 Q 79.665548,0 78.429872,0 Z m 0.991903,-10.961368 1.513072,1.5130719 -1.513072,1.5046664 -1.504666,-1.5046664 z m -5.808525,-0.823784 h 2.269608 v 7.6830448 q 0,0.8910315 0.260585,1.2861115 0.260584,0.386674 1.075962,0.386674 h 0.210149 V 0 H 77.219405 Q 75.336471,0 74.470657,-0.97509106 73.61325,-1.9501821 73.61325,-3.9003642 Z M 66.325285,0.99190297 67.838357,2.5049753 66.325285,4.0096417 64.820619,2.5049753 Z M 60.558798,-2.4293217 h 1.429013 q 1.084368,0 2.01743,-0.201743 0.933061,-0.2101489 1.916558,-0.6220408 0.991903,-0.4118919 2.252796,-1.0255268 -1.294517,-0.4707336 -2.093083,-0.79016 -0.798566,-0.3278323 -1.092774,-0.3278323 -0.453922,0 -0.823784,0.2858025 -0.361456,0.2773966 -0.596823,0.588417 l -0.445516,0.5631992 -1.882934,-0.9246553 0.378268,-0.605229 q 0.596823,-0.975091 1.429013,-1.6139438 0.832189,-0.6472587 1.950182,-0.6472587 0.470733,0 1.092774,0.2185549 0.630447,0.2185549 1.344953,0.5463872 0.722913,0.3194264 1.487855,0.6472587 0.773348,0.3194264 1.521478,0.5463873 0.756536,0.2269608 1.445825,0.2353668 v 2.2275787 q -0.638853,0.08406 -1.18524,0.2858025 -0.546388,0.1933371 -1.134805,0.4959515 -0.588417,0.3026145 -1.370171,0.7229124 -1.075962,0.5716051 -2.034241,0.98349696 -0.949873,0.41189191 -1.958588,0.63044681 Q 63.206675,0 61.962593,0 h -1.403795 z m -3.723835,-1.2020519 q 0,-0.2101489 -0.09247,-0.5547932 -0.09246,-0.3446442 -0.193337,-0.5631991 l -1.664379,-3.6734034 2.000618,-0.975091 2.093083,4.8250195 q 0.252179,0.580011 0.445516,1.0675566 0.201743,0.4875455 0.453921,0.781754 0.260585,0.2942085 0.664071,0.2942085 h 0.35305 V 0 h -0.35305 q -0.941467,0 -1.521478,-0.35305021 -0.571605,-0.36145617 -1.008715,-0.92465529 -0.638853,0.61363487 -1.521478,0.94146721 -0.882626,0.32783233 -2.135114,0.32783233 -0.739724,0 -1.252487,-0.05043574 -0.512764,-0.05043575 -1.059151,-0.18493106 V -2.6730944 q 0.521169,0.1260893 1.10118,0.193337 0.588418,0.067248 1.084369,0.067248 0.622041,0 1.218864,-0.1008715 0.596823,-0.1092774 0.991903,-0.378268 0.39508,-0.2689907 0.39508,-0.7397243 z m -9.103651,-2.1435191 2.101489,-0.2605847 0.168119,2.4041038 q 0.04203,0.6388528 0.35305,0.9246553 0.311021,0.2773966 0.991903,0.2773966 h 0.176525 V 0 H 51.329061 Q 50.488466,0 49.883237,-0.30261447 49.286414,-0.60522893 48.89974,-1.0927745 48.386976,-0.58001106 47.680876,-0.28580255 46.983181,0 46.193021,0 H 45.38605 v -2.4293217 h 0.806971 q 0.924656,0 1.2693,-0.3110204 0.35305,-0.3194264 0.35305,-1.1600221 0,-0.4959515 -0.02522,-0.9582792 -0.02522,-0.4707336 -0.05884,-0.9162493 z m 0.462327,-4.4551573 1.513073,1.5130722 -1.513073,1.5046664 -1.504666,-1.5046664 z M 40.880453,0.83218978 42.233812,2.1855489 40.880453,3.5389081 39.527094,2.1855489 Z m -2.933679,0 1.344953,1.35335912 -1.344953,1.3533592 -1.353359,-1.3533592 z M 39.40941,2.9841149 40.76277,4.337474 39.40941,5.6824272 38.056051,4.337474 Z m -5.766486,-5.4134366 h 1.429012 q 1.084369,0 2.01743,-0.201743 0.933061,-0.2101489 1.916558,-0.6220408 0.991903,-0.4118919 2.252797,-1.0255268 -1.294517,-0.4707336 -2.093083,-0.79016 -0.798566,-0.3278323 -1.092775,-0.3278323 -0.453922,0 -0.823784,0.2858025 -0.361456,0.2773966 -0.596823,0.588417 l -0.445515,0.5631992 -1.882935,-0.9246553 0.378268,-0.605229 q 0.596823,-0.975091 1.429013,-1.6139438 0.83219,-0.6472587 1.950182,-0.6472587 0.470734,0 1.092775,0.2185549 0.630446,0.2185549 1.344953,0.5463872 0.722912,0.3194264 1.487854,0.6472587 0.773348,0.3194264 1.521479,0.5463873 0.756536,0.2269608 1.445824,0.2353668 v 2.2275787 q -0.638853,0.08406 -1.18524,0.2858025 -0.546387,0.1933371 -1.134804,0.4959515 -0.588417,0.3026145 -1.370171,0.7229124 -1.075963,0.5716051 -2.034242,0.98349696 -0.949873,0.41189191 -1.958588,0.63044681 Q 36.2908,0 35.046719,0 h -1.403795 z"
       id="text1"
       transform="matrix(1.3333333,0,0,1.3333333,99.574667,75.18)"
       aria-label="یﻮﯾرﺎﻨﺳ:ﯽﺒﯿﮐﺮﺗرﺎﺸﻓﺪﻨﻤﺷﻮﻫﻪﺒﻧﺎﺟﺪﻨﭼ" />
  </g>
</svg>
