<?xml version="1.0" encoding="UTF-8" standalone="no"?>


<svg class="tikz-diagram" id="iran-action-ch6-tikz-8-7ea4179c80a8"
   version="1.1"
   id="svg1"
   width="512.82666"
   height="191.56"
   viewBox="0 0 512.82666 191.56"
   sodipodi:docname="iran-action-ch6-tikz-8-7ea4179c80a8.pdf"
   xmlns:inkscape="http://www.inkscape.org/namespaces/inkscape"
   xmlns:sodipodi="http://sodipodi.sourceforge.net/DTD/sodipodi-0.dtd"
   xmlns="http://www.w3.org/2000/svg"
   xmlns:svg="http://www.w3.org/2000/svg">
  <defs
     id="defs1" />
  <sodipodi:namedview
     id="namedview1"
     pagecolor="#ffffff"
     bordercolor="#000000"
     borderopacity="0.25"
     inkscape:showpageshadow="2"
     inkscape:pageopacity="0.0"
     inkscape:pagecheckerboard="0"
     inkscape:deskcolor="#d1d1d1">
    <inkscape:page
       x="0"
       y="0"
       inkscape:label="1"
       id="page1"
       width="512.82666"
       height="191.56"
       margin="0"
       bleed="0" />
  </sodipodi:namedview>
  <g
     id="g1"
     inkscape:groupmode="layer"
     inkscape:label="1">
    <path
       id="path1"
       d="M 72.97237,92.1271 H -72.97237 c -2.75117,0 -4.98138,-2.23019 -4.98138,-4.98138 V 54.58829 c 0,-2.75118 2.23021,-4.98139 4.98138,-4.98139 H 72.97237 c 2.75117,0 4.98138,2.23021 4.98138,4.98139 v 32.55743 c 0,2.75119 -2.23021,4.98138 -4.98138,4.98138 z"
       style="fill:#ffe6e6;fill-opacity:1;fill-rule:nonzero;stroke:#be1e2d;stroke-width:0.3985;stroke-linecap:butt;stroke-linejoin:miter;stroke-miterlimit:10;stroke-dasharray:none;stroke-opacity:1"
       transform="matrix(1.3333333,0,0,-1.3333333,124.128,143.02267)" />
    <g
       id="text1"
       transform="matrix(1.3333333,0,0,1.3333333,109.472,43.749333)"
       aria-label="ﺖﯿﻨﻣاطﺎﺒﺗرا=ﺮﻄﺧﺖﺷادزﺎﺑ">
      <path
         style="font-weight:800;font-size:8.9664px;font-family:Vazirmatn"
         d="m 16.934589,-4.7984251 0.744281,0.735525 0.735525,-0.735525 0.74866,0.7442813 -0.74866,0.7530375 -0.735525,-0.7442813 -0.744281,0.7442813 -0.744281,-0.7530375 z m 3.161006,1.7906532 1.094532,-0.1357219 0.08756,1.2521438 q 0.02189,0.3327375 0.175125,0.4815937 0.157613,0.1444782 0.516619,0.1444782 H 22.07013 V 0 h -0.100697 q -0.503485,0 -0.836222,-0.18388125 -0.332738,-0.18825938 -0.551644,-0.50786251 -0.398409,0.3677625 -0.971944,0.52975313 Q 19.040467,0 18.125439,0 h -0.731147 q -0.757416,0 -1.396622,-0.09194063 -0.634828,-0.09631875 -1.107665,-0.3327375 -0.46846,-0.23641876 -0.731147,-0.66109687 -0.25831,-0.4290563 -0.25831,-1.0945313 0,-0.3940312 0.08756,-0.7661719 0.08756,-0.3765187 0.218906,-0.6961219 l 1.055128,0.3984094 q -0.07443,0.2057719 -0.153234,0.4772157 -0.07443,0.2714437 -0.07443,0.5166187 0,0.4378125 0.323981,0.6479625 0.323981,0.21015 0.858112,0.2758219 0.53851,0.061294 1.177716,0.061294 h 0.731147 q 0.634828,0 1.085775,-0.048159 0.450947,-0.052537 0.687366,-0.2145281 0.240797,-0.1663688 0.240797,-0.5122407 0,-0.2232844 -0.01313,-0.49035 -0.01313,-0.2670656 -0.03065,-0.4772156 z m -9.90332,1.7424938 h 0.661097 q 0.481594,0 0.661097,-0.1619907 0.183882,-0.1663687 0.183882,-0.6041812 0,-0.2583094 -0.01314,-0.4991063 -0.01313,-0.245175 -0.03065,-0.4772156 l 1.094532,-0.1357219 0.08756,1.2521438 q 0.02189,0.3327375 0.183881,0.4815937 0.161991,0.1444782 0.516619,0.1444782 h 0.09194 V 0 h -0.100697 q -0.437813,0 -0.753038,-0.1576125 -0.310847,-0.15761251 -0.51224,-0.41154376 -0.267066,0.26706563 -0.634828,0.42030001 Q 11.264916,0 10.853372,0 H 10.192275 Z M 10.306107,0.56040001 11.050388,1.295925 11.785913,0.56040001 12.534572,1.3046813 11.785913,2.0577188 11.050388,1.3134375 10.306107,2.0577188 9.5618255,1.3046813 Z M 8.4016222,-3.0077719 9.4961535,-3.1434938 9.583716,-1.89135 q 0.021891,0.3327375 0.1838812,0.4815937 0.1619906,0.1444782 0.5166188,0.1444782 h 0.09194 V 0 H 10.27546 Q 9.8376472,0 9.5224222,-0.1576125 9.2115753,-0.31522501 9.0101816,-0.56915626 8.7431159,-0.30209063 8.3753534,-0.14885625 8.0119691,0 7.6004253,0 h -0.4203 v -1.2652781 h 0.4203 q 0.4815938,0 0.6610969,-0.1619907 0.1838812,-0.1663687 0.1838812,-0.6041812 0,-0.2583094 -0.013134,-0.4991063 -0.013134,-0.245175 -0.030647,-0.4772156 z m 0.2407969,-2.3204063 0.7880625,0.7880625 -0.7880625,0.7836844 -0.7836844,-0.7836844 z m -3.274837,5.42887508 q -0.455325,0 -0.8537344,-0.19263751 Q 4.1198165,-0.28895625 3.7432977,-0.57791251 3.5025008,-0.33711563 3.2398133,-0.16636875 2.9815039,0 2.4823977,0 H 2.2897602 v -1.2652781 h 0.1707469 q 0.2145281,0 0.385275,-0.1663688 0.175125,-0.1663688 0.3327375,-0.4290563 0.1619906,-0.2670656 0.3371156,-0.5604 0.1795031,-0.2977125 0.3984094,-0.5604 0.2232844,-0.2670656 0.5166187,-0.4334344 0.2933344,-0.1663687 0.6873657,-0.1663687 0.5516437,0 0.9544312,0.2626875 0.4027875,0.2583094 0.6216938,0.6873656 0.2189062,0.4246782 0.2189062,0.9281625 0,0.5166188 -0.1707468,0.92378444 -0.1707469,0.40716563 -0.5166188,0.64358438 -0.3414937,0.23641876 -0.8581125,0.23641876 z m -0.21015,-2.47801878 q -0.1795031,0 -0.3239813,0.1225875 -0.1444781,0.1182094 -0.2539312,0.2889562 -0.1094531,0.1707469 -0.1838813,0.3239813 0.1269657,0.1138313 0.2407969,0.1970156 0.1138313,0.083184 0.2189063,0.1444782 0.1576125,0.087562 0.2889562,0.1225875 0.1313438,0.035025 0.2276625,0.035025 0.2320407,0 0.3327375,-0.1663688 0.1006969,-0.1707469 0.1006969,-0.385275 0,-0.2758219 -0.1707469,-0.4772156 Q 5.4639008,-2.3773219 5.1574321,-2.3773219 Z M 1.7818974,-6.1381314 v 6.13375327 H 0.59980366 V -6.1381314 Z"
         id="path8" />
      <path
         style="font-size:8.9664px;font-family:Vazirmatn"
         d="m 43.285333,10.162181 q 0.08319,-0.1401 0.175125,-0.275822 0.09194,-0.1401 0.175125,-0.2758219 V 4.9303214 h 0.744282 v 3.6382219 q 0.941297,-1.1339343 1.939509,-1.1339343 0.516619,0 0.901894,0.21015 0.389653,0.21015 0.604181,0.5822906 0.214528,0.3677625 0.214528,0.8493563 -0.0044,0.9588091 -0.809953,1.4228911 Q 46.428827,10.959 44.808921,10.959 h -2.539313 v -0.796819 z m 3.077822,-1.9351314 q -1.055128,0 -2.276625,1.9307534 l 0.704878,0.0044 q 1.247766,0 1.860704,-0.2495533 0.617315,-0.2495531 0.617315,-0.7924406 0,-0.385275 -0.249553,-0.6392063 -0.249553,-0.2539312 -0.656719,-0.2539312 z m -6.2038,-3.2967282 h 0.739903 V 9.115809 q 0,0.6173156 0.227663,0.8318437 0.227662,0.2145283 0.687365,0.2145283 h 0.109453 V 10.959 h -0.109453 q -0.836222,0 -1.247765,-0.442191 -0.407166,-0.446569 -0.407166,-1.4053781 z m -3.870261,5.2318596 h 0.512241 q 0.556022,0 0.79244,-0.2495533 0.240797,-0.2495531 0.240797,-0.7661718 0,-0.21015 -0.01313,-0.3984094 -0.0088,-0.1882594 -0.02627,-0.3765188 l 0.731147,-0.087562 0.07005,1.0244813 q 0.05254,0.8537345 0.88876,0.8537345 h 0.09194 V 10.959 h -0.100697 q -0.485972,0 -0.779306,-0.175125 Q 38.408107,10.60875 38.228604,10.289146 37.992185,10.635018 37.60691,10.797009 37.221635,10.959 36.801335,10.959 h -0.512241 z m 0.901894,1.466672 0.634828,0.634828 -0.634828,0.634828 -0.634828,-0.634828 z M 35.470385,5.8190808 36.083323,6.4276402 35.470385,7.0449558 34.861826,6.4276402 Z m -1.453537,0 0.612937,0.6085594 -0.612937,0.6173156 -0.60856,-0.6173156 z M 33.54401,10.162181 h 0.897516 q 0.437812,0 0.591047,-0.2539314 0.157612,-0.2539312 0.157612,-0.6435844 0,-0.2845781 -0.05254,-0.6085594 Q 35.08511,8.3321246 35.023816,8.0037652 L 35.78561,7.8111277 q 0.07443,0.35025 0.11821,0.6873656 0.04378,0.3371157 0.04378,0.6435844 0,0.525375 -0.144478,0.9369183 -0.144478,0.411544 -0.472838,0.647963 Q 35.001926,10.959 34.450282,10.959 H 33.54401 Z m -3.385449,3.15225 -0.258309,-0.696122 q 1.068262,-0.232041 1.506075,-0.814331 0.437812,-0.577913 0.437812,-1.370353 0,-0.372141 -0.08318,-0.7793066 -0.07881,-0.4115438 -0.223284,-0.8362219 l 0.726768,-0.245175 q 0.315225,0.8975156 0.315225,1.7293595 0,0.731147 -0.258309,1.352841 -0.253931,0.626071 -0.792441,1.059506 -0.534131,0.437812 -1.370353,0.599803 z M 29.895875,4.9303214 V 10.954622 H 29.155971 V 4.9303214 Z m 0.389058,3.2529469 H 26.633577 V 7.5221715 h 3.651356 z m 0,1.6855782 H 26.633577 V 9.2121277 h 3.651356 z M 28.340451,10.959 q -0.302091,0 -0.507863,-0.07881 -0.201393,-0.08318 -0.315225,-0.175125 -0.06567,0.573535 -0.319603,1.107666 -0.249553,0.538509 -0.753037,0.936919 -0.503485,0.398409 -1.33095,0.5604 l -0.25831,-0.691744 q 1.068263,-0.232041 1.506075,-0.814331 0.437813,-0.577913 0.437813,-1.370353 0,-0.372141 -0.08318,-0.7793066 -0.07881,-0.4115438 -0.223285,-0.8362219 l 0.726769,-0.245175 0.236419,0.9150281 q 0.09632,0.3677625 0.306468,0.5209964 0.21015,0.153235 0.529754,0.153235 H 28.45866 V 10.959 Z M 22.570083,7.4302308 q 0.494729,0 0.875625,0.2189063 0.385275,0.2145281 0.604182,0.5866687 0.218906,0.3721407 0.218906,0.8406001 -0.0044,0.5604 -0.341494,1.0025901 0.122588,0.03065 0.32836,0.05692 0.21015,0.02627 0.608559,0.02627 h 0.131344 V 10.959 h -0.126966 q -0.556022,0 -0.919406,-0.113832 -0.359006,-0.113831 -0.604181,-0.315225 -0.359007,0.201394 -0.945675,0.315225 Q 21.812668,10.959 21.03774,10.959 h -2.267869 v -0.796819 h 0.744281 q 0.08318,-0.1401 0.175125,-0.275822 0.09194,-0.1401 0.175125,-0.2758219 V 4.9303214 h 0.739903 V 8.5685433 Q 21.077143,7.9993871 21.554358,7.714809 22.035952,7.4302308 22.570083,7.4302308 Z m 0.01751,0.7968188 q -1.05075,0 -2.276625,1.9351314 h 0.709256 q 1.247766,0 1.860703,-0.2495533 0.612938,-0.2495531 0.612938,-0.7924406 0,-0.385275 -0.249553,-0.6392063 Q 22.994762,8.2270496 22.587596,8.2270496 Z M 15.490653,5.3987808 16.125481,6.0336089 15.490653,6.6684371 14.855824,6.0336089 Z m -2.727572,4.7634002 h 0.744281 q 0.512241,0 0.941297,-0.09194 0.429056,-0.09194 0.836222,-0.253931 Q 15.696424,9.6543184 16.142993,9.4354121 16.59394,9.2121277 17.149962,8.9581965 16.839115,8.8443652 16.506378,8.7130215 16.17364,8.5772996 15.871549,8.4590902 15.573837,8.3408808 15.350553,8.2664527 q -0.223285,-0.078806 -0.315225,-0.078806 -0.267066,0 -0.472838,0.1576125 -0.201394,0.1532343 -0.372141,0.3721406 l -0.118209,0.1488562 -0.669853,-0.3283593 0.06567,-0.105075 q 0.288956,-0.4684594 0.669853,-0.7486594 0.385275,-0.2845781 0.901894,-0.2845781 0.214528,0 0.516618,0.1094531 0.306469,0.1094531 0.665475,0.2758219 0.359007,0.1619906 0.744282,0.3327375 0.385275,0.1663687 0.77055,0.2845781 0.385275,0.1138312 0.735525,0.1269656 v 0.7574157 q -0.2802,0.030647 -0.718013,0.2057718 -0.433434,0.1707469 -1.129556,0.5385093 -0.5604,0.297713 -1.041994,0.507863 -0.477215,0.205772 -0.976322,0.315225 Q 14.111543,10.959 13.494228,10.959 H 12.763081 Z M 11.641893,6.6640589 12.25483,7.2726183 11.641893,7.889934 11.033333,7.2726183 Z m -1.453538,0 0.612938,0.6085594 L 10.188355,7.889934 9.5797959,7.2726183 Z m 3.375535,1.7074688 0.731147,-0.087562 0.07443,1.0244813 q 0.02627,0.4159219 0.236419,0.6348281 0.214528,0.2189064 0.639206,0.2189064 h 0.105075 V 10.959 H 15.24509 q -0.494728,0 -0.814331,-0.183882 -0.315225,-0.188259 -0.520997,-0.599803 -0.363385,0.4203 -0.932541,0.604182 Q 12.412443,10.959 11.405474,10.959 h -0.731147 q -1.6505529,0 -2.4823967,-0.446569 -0.8274656,-0.446569 -0.8274656,-1.5454783 0,-0.3020906 0.065672,-0.5910469 0.07005,-0.2889562 0.1795032,-0.5560218 L 8.288249,8.0738152 q -0.07005,0.1926375 -0.1182093,0.4115438 -0.043781,0.2189062 -0.043781,0.4159219 0.00438,0.5122406 0.2889563,0.7880625 0.2845781,0.2714437 0.8493562,0.3721406 0.5647782,0.100697 1.4097561,0.100697 h 0.731147 q 1.046372,0 1.619906,-0.2189064 0.577913,-0.2189062 0.577913,-0.7968187 0,-0.1795032 -0.01313,-0.3852751 -0.0088,-0.2057718 -0.02627,-0.3896531 z M 3.7612724,5.2017652 4.3523193,5.792812 3.7612724,6.3838589 3.1702256,5.792812 Z M 4.5099318,6.3094308 5.1009787,6.9004777 4.5099318,7.4915246 3.9188849,6.9004777 Z m -1.4973187,0 L 3.6036599,6.9004777 3.0126131,7.4915246 2.4215662,6.9004777 Z M 2.8243537,10.959 q -0.5034844,0 -0.7793063,-0.170747 Q 1.7736037,10.613128 1.611613,10.289146 1.4058412,10.613128 1.086238,10.788253 0.7666349,10.959 0.17558801,10.959 h -0.4027875 v -0.796819 h 0.41154375 q 0.56040001,0 0.81870944,-0.205772 0.2583093,-0.21015 0.2583093,-0.7617938 0,-0.1138312 -0.013134,-0.2670656 -0.00876,-0.1576125 -0.030647,-0.4378125 l 0.7311469,-0.091941 0.07005,0.9150281 q 0.026269,0.3677625 0.2232843,0.6085594 0.2013938,0.240797 0.5910469,0.240797 0.4640813,0 0.63045,-0.2495533 0.1663688,-0.2495531 0.1663688,-0.7180125 0,-0.1138312 -0.013134,-0.2714437 -0.00876,-0.1576125 -0.030647,-0.4334344 l 0.7311469,-0.091941 0.07005,0.9150281 q 0.021891,0.3546281 0.1882594,0.6041813 0.1663688,0.2451751 0.5385094,0.2451751 0.3633844,0 0.4991063,-0.2714439 0.1357218,-0.2714437 0.1357218,-0.6348281 0,-0.3283594 -0.065672,-0.6610969 Q 5.6219756,8.2620746 5.5738162,8.0563027 L 6.3224756,7.854909 q 0.078806,0.2933343 0.1269656,0.6260718 0.048159,0.3283594 0.048159,0.6567188 0,0.4728375 -0.1313437,0.8887594 Q 6.2349131,10.442381 5.9328225,10.70069 5.63511,10.954622 5.1184912,10.959 q -0.4203,0 -0.6786094,-0.175125 -0.2583093,-0.175125 -0.4203,-0.494729 -0.245175,0.354629 -0.5472656,0.512241 Q 3.1746037,10.959 2.8243537,10.959 Z M -0.80949154,4.9303214 V 10.954622 H -1.5493947 V 4.9303214 Z M -5.0825426,10.170937 q 1.6812,0 1.6812,-0.8712468 0,-0.4115437 -0.4203,-0.8712469 -0.4203,-0.4597031 -1.3922438,-0.9894562 l 0.3458719,-0.6917438 q 1.1251781,0.5735344 1.6680657,1.2127407 0.5472656,0.6348281 0.5472656,1.3265719 0,0.8230871 -0.5691563,1.2433871 -0.5647781,0.4203 -1.7950313,0.4203 -0.5866687,0 -1.0595062,-0.105075 v -0.79244 q 0.5735344,0.118209 0.9938344,0.118209 z M -8.4611234,6.4539089 -7.8262952,7.0887371 -8.4611234,7.7235652 -9.0959515,7.0887371 Z m -1.6023936,6.8605221 -0.25831,-0.696122 q 1.068263,-0.232041 1.5060755,-0.814331 0.4378125,-0.577913 0.4378125,-1.370353 0,-0.372141 -0.083184,-0.7793066 -0.078806,-0.4115438 -0.2232843,-0.8362219 l 0.7267687,-0.245175 q 0.315225,0.8975156 0.315225,1.7293595 0,0.731147 -0.2583094,1.352841 -0.2539312,0.626071 -0.7924406,1.059506 -0.5341312,0.437812 -1.370353,0.599803 z m -1.882596,-8.3841096 h 0.739903 V 9.115809 q 0,0.6173156 0.227663,0.8318437 0.227662,0.2145283 0.687366,0.2145283 h 0.109453 V 10.959 h -0.109453 q -0.836222,0 -1.247766,-0.442191 -0.407166,-0.446569 -0.407166,-1.4053781 z M -14.546718,10.959 h -0.805575 v -0.796819 h 0.796819 q 0.437813,0 0.591047,-0.2539314 0.157612,-0.2539312 0.157612,-0.6435844 0,-0.2845781 -0.05254,-0.6085594 -0.05254,-0.3239812 -0.113831,-0.6523406 l 0.761793,-0.1926375 q 0.07443,0.35025 0.11821,0.6873656 0.04378,0.3371157 0.04378,0.6435844 0,0.525375 -0.144478,0.9369183 -0.144478,0.411544 -0.472838,0.647963 -0.328359,0.232041 -0.880003,0.232041 z m 0.09632,0.669853 0.634828,0.634828 -0.634828,0.634828 -0.634828,-0.634828 z"
         id="path9" />
    </g>
    <path
       id="path2"
       d="M 271.40002,92.1271 H 125.45529 c -2.75117,0 -4.98139,-2.23019 -4.98139,-4.98138 V 54.58829 c 0,-2.75118 2.23022,-4.98139 4.98139,-4.98139 h 145.94473 c 2.75119,0 4.98139,2.23021 4.98139,4.98139 v 32.55743 c 0,2.75119 -2.2302,4.98138 -4.98139,4.98138 z"
       style="fill:#ffe6e6;fill-opacity:1;fill-rule:nonzero;stroke:#be1e2d;stroke-width:0.3985;stroke-linecap:butt;stroke-linejoin:miter;stroke-miterlimit:10;stroke-dasharray:none;stroke-opacity:1"
       transform="matrix(1.3333333,0,0,-1.3333333,124.128,143.02267)" />
    <g
       id="text2"
       transform="matrix(1.3333333,0,0,1.3333333,373.684,43.754667)"
       aria-label="دﺎﻤﺘﻋاذﻮﻔﻧﯽﺗﺎﻋﻼﻃا">
      <path
         style="font-weight:800;font-size:8.9664px;font-family:Vazirmatn"
         d="m 19.54833,-1.2521438 q 0.359006,0 0.7005,-0.048159 0.345872,-0.052537 0.569156,-0.1926375 0.227663,-0.1401001 0.227663,-0.4071657 0,-0.2758219 -0.267066,-0.5866687 -0.262687,-0.315225 -0.7005,-0.6173157 -0.433434,-0.3020906 -0.945675,-0.5428875 l 0.53851,-1.1383125 q 0.464081,0.2276625 0.906271,0.5122406 0.446569,0.2802 0.801197,0.6260719 0.359007,0.3458719 0.569157,0.7661719 0.214528,0.4203 0.214528,0.9281625 0,0.7005 -0.319603,1.12955629 -0.315225,0.42905625 -0.88876,0.62169376 -0.573534,0.1926375 -1.339706,0.1926375 -0.35025,0 -0.652341,-0.02189063 -0.30209,-0.02626875 -0.591047,-0.09194062 v -1.2609 q 0.284579,0.056916 0.60856,0.096319 0.328359,0.035025 0.569156,0.035025 z M 16.1115,-6.1381314 h 1.182094 v 4.0016064 q 0,0.4640812 0.135722,0.6698531 0.135722,0.2013938 0.5604,0.2013938 h 0.109453 V 0 H 17.989716 Q 17.009016,0 16.558069,-0.50786251 16.1115,-1.015725 16.1115,-2.03145 Z M 10.481231,0 h -0.192638 l 0.0044,-1.2652781 h 0.166369 q 0.214528,0 0.385275,-0.1663688 0.175125,-0.1663688 0.332738,-0.4290563 0.16199,-0.2670656 0.337115,-0.5604 0.179503,-0.2977125 0.39841,-0.5604 0.223284,-0.2670656 0.516619,-0.4334344 0.293334,-0.1663687 0.687365,-0.1663687 0.494728,0 0.862491,0.2057719 0.37214,0.2057718 0.599803,0.5560219 0.227662,0.35025 0.302091,0.7836843 0.07443,0.4378125 0.245175,0.6041813 0.170746,0.1663688 0.363384,0.1663688 h 0.113831 V 0 h -0.118209 q -0.2802,0 -0.551644,-0.12696563 -0.271444,-0.13134375 -0.437812,-0.30646875 -0.218907,0.27582188 -0.485972,0.40716563 -0.267066,0.12696563 -0.643585,0.12696563 -0.455325,0 -0.853734,-0.19263751 -0.394031,-0.19701562 -0.77055,-0.48597188 -0.240797,0.24079688 -0.503485,0.41154376 Q 10.980337,0 10.481231,0 Z m 2.675034,-2.3773219 q -0.179503,0 -0.323981,0.1225875 -0.144478,0.1182094 -0.253931,0.2889562 -0.109453,0.1707469 -0.183881,0.3239813 0.135721,0.1225875 0.258309,0.21015 0.122587,0.087562 0.232041,0.1488563 0.148856,0.074428 0.271443,0.1094531 0.122588,0.030647 0.214528,0.030647 0.232041,0 0.332738,-0.1663688 0.100697,-0.1707469 0.100697,-0.385275 0,-0.2758219 -0.170747,-0.4772156 -0.170747,-0.2057719 -0.477216,-0.2057719 z m -5.6215124,-2.9026969 0.7442813,0.735525 0.735525,-0.735525 0.7486594,0.7442812 -0.7486594,0.7530375 -0.735525,-0.7442812 -0.7442813,0.7442812 -0.7442813,-0.7530375 z M 7.0750495,-1.2652781 H 7.687987 q 0.4815937,0 0.6610969,-0.1619907 0.1838812,-0.1663687 0.1838812,-0.6041812 0,-0.2583094 -0.013134,-0.4991063 -0.013134,-0.245175 -0.030647,-0.4772156 l 1.0945312,-0.1357219 0.087563,1.2521438 q 0.021891,0.3327375 0.1838813,0.4815937 0.1619911,0.1444782 0.5166191,0.1444782 h 0.09194 V 0 H 10.363021 Q 9.9252089,0 9.6099839,-0.1576125 9.299137,-0.31522501 9.0977432,-0.56915626 8.8306776,-0.30209063 8.4629151,-0.14885625 8.0995307,0 7.687987,0 H 7.0750495 Z m -3.8352371,0 Q 3.1172249,-1.4841844 3.0471749,-1.786275 q -0.07005,-0.3064688 -0.07005,-0.5516438 0,-0.5209969 0.2583093,-0.9588094 0.2583094,-0.4421906 0.6961219,-0.7048781 0.4421907,-0.2670656 0.9763219,-0.2670656 0.4947281,0 0.9018938,0.1795031 0.4071656,0.175125 0.8318437,0.4640812 l -0.455325,1.0419938 Q 5.9017124,-2.7538407 5.6171343,-2.8764282 5.3325561,-2.9990157 4.9910624,-2.9990157 q -0.2013938,0 -0.4071656,0.083184 -0.2057719,0.083184 -0.3414938,0.2407969 -0.1357219,0.1532344 -0.1357219,0.3721406 0,0.1838813 0.083184,0.3590063 0.087562,0.1707468 0.2057719,0.3020906 0.1182094,0.1269656 0.21015,0.1838813 0.017513,0.00438 0.07005,-0.013134 l 2.1321469,-0.5078625 v 1.26965624 Q 5.7046968,-0.37651876 4.6933499,-0.18825938 3.6863811,0 2.7319499,0 H 2.2897592 V -1.2652781 Z M 1.7818967,-6.1381314 v 6.13375327 H 0.59980294 V -6.1381314 Z"
         id="path10" />
      <path
         style="font-size:8.9664px;font-family:Vazirmatn"
         d="m 32.103795,4.7989777 0.634828,0.6348281 -0.634828,0.6348281 -0.634828,-0.6348281 z m -0.183881,5.3719593 q 1.6812,0 1.6812,-0.8712468 0,-0.4115437 -0.4203,-0.8712469 -0.4203,-0.4597031 -1.392244,-0.9894562 l 0.345872,-0.6917438 q 1.125178,0.5735344 1.668066,1.2127407 0.547265,0.6348281 0.547265,1.3265719 0,0.8230871 -0.569156,1.2433871 -0.564778,0.4203 -1.795031,0.4203 -0.586669,0 -1.059506,-0.105075 v -0.79244 q 0.573534,0.118209 0.993834,0.118209 z M 28.413036,7.7585902 q 0.682987,0 1.151447,0.6129375 0.468459,0.6085594 0.485972,1.7906533 h 0.529753 V 10.959 h -0.599803 q -0.09632,0.503484 -0.385275,0.971943 -0.284579,0.472838 -0.849357,0.831844 -0.564778,0.363385 -1.497318,0.542888 l -0.25831,-0.696122 Q 28.973436,12.228656 29.288661,10.959 h -0.691744 q -1.659309,0 -1.659309,-1.3440848 0,-0.4290562 0.170747,-0.8581125 0.175125,-0.4290562 0.503484,-0.7136344 0.332737,-0.2845781 0.801197,-0.2845781 z m 0.1401,2.4035908 h 0.774928 q -0.05254,-0.8449783 -0.2802,-1.2302533 -0.223284,-0.385275 -0.647963,-0.385275 -0.2802,0 -0.44219,0.1795031 -0.157613,0.1795032 -0.223285,0.4246782 -0.06129,0.2407969 -0.06129,0.4378125 0,0.3064687 0.205772,0.4421905 0.21015,0.131344 0.674231,0.131344 z M 24.372024,5.3549995 25.006853,5.9898277 24.372024,6.6246558 23.737196,5.9898277 Z m 1.584882,3.5419032 q 0,0.3458719 -0.153235,0.6435844 -0.153234,0.2933344 -0.4203,0.6041809 0.249553,0.01314 0.442191,0.01751 0.192638,0 0.341494,0 h 0.424678 V 10.959 H 26.18019 q -0.166369,0 -0.459703,-0.02627 -0.288956,-0.03065 -0.639206,-0.100697 -0.345872,-0.07005 -0.682988,-0.188259 -0.337115,0.122587 -0.691744,0.192637 -0.354628,0.06567 -0.656718,0.09632 Q 22.74774,10.959 22.568237,10.959 h -0.612938 v -0.796819 h 0.612938 q 0.183881,0 0.380897,0 0.201394,-0.0044 0.485972,-0.02189 -0.262688,-0.3064685 -0.411544,-0.6085591 -0.148856,-0.3020907 -0.148856,-0.6435844 0,-0.2714438 0.126965,-0.5472657 0.126966,-0.2758218 0.341494,-0.5122406 0.214528,-0.2364187 0.49035,-0.3765187 0.275822,-0.1444782 0.569156,-0.1444782 0.306469,0 0.586669,0.1444782 0.2802,0.1401 0.494728,0.3765187 0.218906,0.2320406 0.345872,0.5122406 0.126966,0.2802 0.126966,0.5560219 z M 24.402671,8.0825715 q -0.166368,0 -0.35025,0.1269656 -0.179503,0.1225875 -0.306468,0.3108469 -0.122588,0.1882593 -0.122588,0.385275 0,0.2013937 0.118209,0.4115437 0.11821,0.21015 0.297713,0.385275 0.183881,0.175125 0.372141,0.2714438 0.332737,-0.1401 0.564778,-0.4509469 0.236418,-0.315225 0.236418,-0.6260719 0,-0.1838812 -0.131343,-0.3721406 Q 24.954315,8.3365027 24.766056,8.2095371 24.577796,8.0825715 24.402671,8.0825715 Z M 20.112112,10.959 h -0.713634 v -0.796819 h 0.704878 q 0.437812,0 0.591047,-0.2539314 0.157612,-0.2539312 0.157612,-0.6435844 0,-0.2845781 -0.05254,-0.6085594 Q 20.74694,8.3321246 20.685646,8.0037652 L 21.44744,7.8111277 q 0.07443,0.35025 0.11821,0.6873656 0.04378,0.3371157 0.04378,0.6435844 0,0.525375 -0.144478,0.9369183 -0.144478,0.411544 -0.472838,0.647963 Q 20.663756,10.959 20.112112,10.959 Z m 0.534131,-5.166188 0.634828,0.6348282 -0.634828,0.6348281 -0.634828,-0.6348281 z m -1.55921,7.420922 q -0.945675,0 -1.514831,-0.345872 -0.564778,-0.345872 -0.818709,-0.923784 -0.249553,-0.573535 -0.249553,-1.2609 0,-0.297713 0.04378,-0.6873659 0.04816,-0.3896531 0.214528,-0.8887594 l 0.696122,0.2583094 q -0.126966,0.4378125 -0.166369,0.7749279 -0.03503,0.337116 -0.03503,0.569157 0,0.472837 0.166369,0.86249 0.166369,0.389653 0.564778,0.621694 0.402787,0.232041 1.098909,0.232041 0.656719,0 1.125178,-0.161991 0.472838,-0.161991 0.722391,-0.385275 0.253931,-0.223284 0.253931,-0.407166 0,-0.21015 -0.183881,-0.359006 -0.179503,-0.148856 -0.586669,-0.148856 h -0.647962 q -0.08756,0 -0.126966,-0.07443 -0.0394,-0.07881 -0.07443,-0.201394 l -0.118209,-0.4203 q -0.0044,-0.03502 0.01751,-0.06567 0.02189,-0.03503 0.07881,-0.03503 h 2.42986 v 0.796819 h -0.179503 q 0.06567,0.131344 0.08318,0.249553 0.02189,0.118209 0.02189,0.245175 0,0.288956 -0.170747,0.595425 -0.166369,0.310847 -0.516619,0.573534 -0.345872,0.262688 -0.875625,0.424678 -0.529753,0.161991 -1.252144,0.161991 z M 15.159857,5.8190808 15.772795,6.4276402 15.159857,7.0449558 14.551298,6.4276402 Z m -1.453537,0 0.612937,0.6085594 -0.612937,0.6173156 -0.60856,-0.6173156 z m -0.691744,4.3431002 h 1.116422 q 0.437812,0 0.591047,-0.2539314 0.157612,-0.2539312 0.157612,-0.6435844 0,-0.2845781 -0.05254,-0.6085594 -0.05254,-0.3239812 -0.113831,-0.6523406 l 0.761793,-0.1926375 q 0.07443,0.35025 0.11821,0.6873656 0.04378,0.3371157 0.04378,0.6435844 0,0.525375 -0.144478,0.9369183 -0.144478,0.411544 -0.472838,0.647963 Q 14.691398,10.959 14.139754,10.959 H 13.014576 Z M 11.425314,4.9303214 h 0.739903 V 9.115809 q 0,0.6173156 0.227663,0.8318437 0.227662,0.2145283 0.687365,0.2145283 h 0.109453 V 10.959 h -0.109453 q -0.836222,0 -1.247765,-0.442191 Q 11.425314,10.07024 11.425314,9.1114309 Z M 7.3361461,10.162181 Q 7.1391304,9.9170059 6.9990304,9.5623777 6.8633086,9.2033715 6.8633086,8.8443652 q 0,-0.4684594 0.245175,-0.8493562 0.245175,-0.3808969 0.6435844,-0.6041813 0.3984093,-0.2232844 0.8581125,-0.2232844 0.6961219,0 1.4929405,0.5428875 L 9.8097867,8.3627715 Q 9.1267992,7.959984 8.6583398,7.959984 q -0.4027875,0 -0.7136343,0.2495531 -0.3108469,0.2495531 -0.3108469,0.665475 0,0.3239813 0.1444781,0.5735344 0.1488563,0.2495531 0.315225,0.3896531 0.1663688,0.1357219 0.2232844,0.1357219 0.078806,0 0.1532344,-0.021891 L 10.322027,9.5098402 V 10.306659 Q 9.2318742,10.639397 8.3037117,10.801387 7.3799273,10.959 6.4692773,10.959 H 5.9920617 V 10.162181 Z M 3.225087,10.052728 Q 3.5534463,9.9607871 3.8117557,9.7725277 4.0700651,9.5798902 4.2189213,9.2165059 4.3677776,8.8487433 4.3677776,8.2270496 V 4.9303214 h 0.7399031 v 3.5287688 q 0,0.8362219 0.2013938,1.2696563 0.2013937,0.4334345 0.7005,0.4334345 H 6.167187 V 10.959 H 5.9964401 q -0.5866687,0 -0.9018937,-0.2802 Q 4.7793214,10.394221 4.6348432,9.8907371 4.2670807,10.433625 3.5534463,10.696312 2.8441901,10.959 1.8985151,10.959 q -0.1795032,0 -0.3677625,-0.0088 -0.1882594,-0.0088 -0.3808969,-0.02627 v -0.753038 q 0.2714437,0.01751 0.4597031,0.03065 0.1882594,0.0088 0.3765188,0.0088 0.1795031,0 0.3108468,0 0.1357219,-0.0044 0.2232844,-0.02189 0,0 -0.065672,-0.3940316 Q 2.3888651,9.396009 2.2356307,8.7217777 2.0823963,8.0431683 1.8153307,7.1938121 1.5526432,6.3444558 1.1542338,5.442562 L 1.8328432,5.127337 Q 2.2268744,6.0598777 2.4939401,6.9398808 2.7653838,7.819884 2.9229963,8.5247621 3.084987,9.2252621 3.155037,9.641184 Z m -7.7317689,0.109453 q 0.083184,-0.1401 0.175125,-0.275822 0.091941,-0.1401 0.175125,-0.2758219 V 4.9303214 h 0.7399032 v 3.6382219 q 0.9412968,-1.1339343 1.9395094,-1.1339343 0.51661872,0 0.90189372,0.21015 0.38965314,0.21015 0.60418126,0.5822906 Q 0.24796194,8.5948121 0.24796194,9.0764059 0.24358381,10.035215 -0.5619912,10.499297 -1.3631881,10.959 -2.9830944,10.959 h -2.2678688 v -0.796819 z m 3.0734438,-1.9351314 q -1.05075,0 -2.276625,1.9351314 h 0.7092562 q 1.2477657,0 1.8607032,-0.2495533 0.6129375,-0.2495531 0.6129375,-0.7924406 0,-0.385275 -0.24955313,-0.6392063 Q -1.0260725,8.2270496 -1.4332381,8.2270496 Z M -5.8332533,4.9303214 V 10.954622 H -6.5731564 V 4.9303214 Z"
         id="path11" />
    </g>
    <path
       id="path4"
       d="M 72.97237,21.2601 H -72.97237 c -2.75117,0 -4.98138,-2.23021 -4.98138,-4.98138 v -32.55744 c 0,-2.75117 2.23021,-4.98138 4.98138,-4.98138 H 72.97237 c 2.75117,0 4.98138,2.23021 4.98138,4.98138 v 32.55744 c 0,2.75117 -2.23021,4.98138 -4.98138,4.98138 z"
       style="fill:#ffe6e6;fill-opacity:1;fill-rule:nonzero;stroke:#be1e2d;stroke-width:0.3985;stroke-linecap:butt;stroke-linejoin:miter;stroke-miterlimit:10;stroke-dasharray:none;stroke-opacity:1"
       transform="matrix(1.3333333,0,0,-1.3333333,124.128,143.02267)" />
    <g
       id="text4"
       transform="matrix(1.3333333,0,0,1.3333333,97.972,138.46)"
       aria-label="ﻪﻠﺻﺎﻓکردجرﺎﺧ≠ﻞﺧاد">
      <path
         style="font-weight:800;font-size:8.9664px;font-family:Vazirmatn"
         d="m 34.777582,0 q -0.612938,0 -1.006969,-0.23204063 -0.394031,-0.23641875 -0.569156,-0.77054997 -0.503485,0.39403122 -1.09891,0.39403122 -0.726769,0 -1.21274,-0.39403122 -0.485972,-0.3984094 -0.485972,-1.1733376 0,-0.5691562 0.328359,-0.9719437 0.328359,-0.4071657 0.844978,-0.6829875 0.520997,-0.2758219 1.085775,-0.4465688 l -0.03065,-0.21015 1.059507,-0.2145281 0.415921,2.8107563 q 0.0394,0.2670656 0.205772,0.4465687 0.170747,0.1795032 0.481594,0.1795032 h 0.135722 V 0 Z M 32.96066,-2.3510532 q 0,-0.061294 -0.01313,-0.1357218 -0.0088,-0.078806 -0.02189,-0.1619907 l -0.07443,-0.4597031 q -0.310847,0.105075 -0.612938,0.245175 -0.297712,0.1357219 -0.494728,0.3020906 -0.192638,0.1619907 -0.192638,0.35025 0,0.1795032 0.144479,0.2933344 0.148856,0.1094531 0.385275,0.1094531 0.201393,0 0.402787,-0.056916 0.205772,-0.061294 0.341494,-0.1795031 0.135722,-0.1225875 0.135722,-0.3064688 z m -4.811557,0.2583094 v -4.0453876 h 1.177716 v 4.0453876 q 0,0.4115438 0.131343,0.6216938 0.135722,0.2057719 0.534132,0.2057719 h 0.1401 V 0 H 30.00105 Q 29.536969,0 29.243634,-0.1401 28.954678,-0.28457813 28.735772,-0.56477813 28.503731,-0.2977125 28.192884,-0.14885625 27.886415,0 27.374175,0 h -0.267066 v -1.2652781 h 0.236419 q 0.442191,0 0.621694,-0.1970157 0.183881,-0.2013937 0.183881,-0.63045 z m -6.256341,0.6567188 q 0.297712,-0.49035 0.63045,-0.945675 0.332737,-0.455325 0.709256,-0.8143313 0.376519,-0.3590063 0.801197,-0.5647781 0.424678,-0.21015 0.906272,-0.21015 0.556022,0 0.9807,0.2364187 0.429056,0.2364188 0.669853,0.6479625 0.245175,0.4115438 0.245175,0.9412969 0,0.6173157 -0.262687,1.0332375 -0.262688,0.41154379 -0.731147,0.65671879 Q 25.373371,-0.21015 24.751678,-0.105075 24.134362,0 23.420728,0 H 23.188687 Q 22.461918,0 21.936543,-0.12696563 21.411168,-0.25830938 21.087187,-0.56915626 20.842012,-0.30209063 20.504896,-0.14885625 20.167781,0 19.673053,0 h -0.179504 l 0.0044,-1.2652781 h 0.175125 q 0.520996,0 0.691743,-0.1619907 0.175125,-0.1663687 0.175125,-0.6085594 0,-0.2495531 -0.01751,-0.49035 -0.01313,-0.245175 -0.03065,-0.4772156 l 1.094531,-0.1357219 0.08319,1.2477657 q 0.01751,0.175125 0.07005,0.3064687 0.05692,0.1269657 0.153234,0.1488563 z m 3.077822,-1.2915469 q -0.337116,0 -0.67861,0.2145281 -0.341493,0.21015 -0.65234,0.5472656 -0.310847,0.3327375 -0.564778,0.7005001 h 0.398409 q 0.591047,0 1.094531,-0.056916 0.507863,-0.061294 0.814332,-0.2320406 0.306468,-0.1707469 0.306468,-0.5078625 0,-0.3020906 -0.205771,-0.4815938 -0.201394,-0.1838812 -0.512241,-0.1838812 z M 17.681006,-6.1381314 H 18.8631 v 4.0016064 q 0,0.4640812 0.135721,0.6698531 0.135722,0.2013938 0.5604,0.2013938 h 0.109454 V 0 H 19.559221 Q 18.578521,0 18.127575,-0.50786251 17.681006,-1.015725 17.681006,-2.03145 Z m -2.898319,-1.0025906 0.788062,0.7880625 -0.788062,0.7836844 -0.783685,-0.7836844 z m -0.332738,5.8754439 q 0.5604,0 0.853735,-0.087562 0.297712,-0.087562 0.30209,-0.4334344 -0.319603,0.061294 -0.678609,0.061294 -0.774928,0 -1.225875,-0.3196031 -0.450947,-0.3239813 -0.450947,-1.05075 0,-0.3546282 0.113831,-0.7005 0.11821,-0.35025 0.332738,-0.6348282 0.218906,-0.2889562 0.520997,-0.4597031 0.306468,-0.175125 0.682987,-0.175125 0.485972,0 0.831844,0.245175 0.35025,0.2407969 0.569156,0.6479625 0.218906,0.4071656 0.319603,0.91065 0.105075,0.4991063 0.105075,1.0201032 0,0.91065 -0.249553,1.39662186 -0.245175,0.48159376 -0.761794,0.66547501 Q 15.202987,0 14.397412,0 h -1.61115 v -1.2652781 z m 0.459703,-1.5323438 q 0.166369,0 0.332738,-0.017512 0.170747,-0.017513 0.332737,-0.052538 -0.03065,-0.21015 -0.113831,-0.4334344 -0.08318,-0.2276625 -0.223284,-0.385275 -0.1401,-0.1576125 -0.345872,-0.1576125 -0.271444,0 -0.4203,0.2232844 -0.144478,0.2189062 -0.144478,0.4728375 0,0.2320406 0.170747,0.2933344 0.170746,0.056916 0.411543,0.056916 z m -2.404011,-1.2477657 q 0.586669,0.35025 1.037616,0.6873657 0.455325,0.3327375 0.713635,0.7180125 0.258309,0.385275 0.258309,0.8887594 0,0.6873656 -0.315225,1.06826249 -0.315225,0.38089688 -0.884381,0.53413126 Q 12.746438,0 11.989023,0 H 10.92076 v -1.2652781 h 1.063885 q 0.7005,0 1.05075,-0.096319 0.35025,-0.1006969 0.35025,-0.4071656 0,-0.1444782 -0.214528,-0.3327375 -0.214529,-0.1926375 -0.53851,-0.4027875 -0.319603,-0.2145282 -0.656719,-0.4203 -0.332737,-0.2101501 -0.577912,-0.3852751 -0.183881,-0.1313437 -0.2802,-0.35025 -0.09194,-0.2189062 -0.09194,-0.4465687 0,-0.245175 0.113831,-0.4597031 0.113832,-0.2145282 0.354629,-0.3108469 l 3.379912,-1.3791094 V -5.004197 Z M 10.148389,0 Q 9.7499792,0 9.4916698,-0.15323438 9.3165448,0.85373439 8.6291791,1.5104531 7.9461916,2.1671719 6.803501,2.3860782 L 6.3700666,1.2171188 Q 7.0048947,1.0813969 7.4602198,0.85373439 7.9199229,0.63045001 8.169476,0.25393125 8.4190291,-0.1225875 8.4190291,-0.71801251 8.4190291,-1.1164219 8.2920635,-1.61115 8.1650979,-2.1102563 8.0206198,-2.5393125 l 1.1777156,-0.3808969 0.2539313,0.9894562 q 0.074428,0.2802 0.2189062,0.4728376 0.1444781,0.1926375 0.4290561,0.1926375 h 0.170747 V 0 Z M 4.334238,-1.2521438 q 0.3590063,0 0.7005,-0.048159 0.3458719,-0.052537 0.5691563,-0.1926375 0.2276625,-0.1401001 0.2276625,-0.4071657 0,-0.2758219 -0.2670656,-0.5866687 Q 5.3018036,-2.802 4.8639911,-3.1040907 4.4305568,-3.4061813 3.9183161,-3.6469782 l 0.5385094,-1.1383125 q 0.4640813,0.2276625 0.9062719,0.5122406 0.4465688,0.2802 0.8011969,0.6260719 0.3590062,0.3458719 0.5691562,0.7661719 0.2145282,0.4203 0.2145282,0.9281625 0,0.7005 -0.3196032,1.12955629 -0.315225,0.42905625 -0.8887593,0.62169376 -0.5735344,0.1926375 -1.3397063,0.1926375 -0.35025,0 -0.6523407,-0.02189063 Q 3.4454786,-0.05691563 3.1565224,-0.1225875 v -1.2609 q 0.2845781,0.056916 0.6085593,0.096319 0.3283594,0.035025 0.5691563,0.035025 z"
         id="path12" />
      <path
         style="font-size:8.9664px;font-family:Vazirmatn"
         d="m 39.698107,11.628853 0.634828,0.634828 -0.634828,0.634828 -0.634828,-0.634828 z m -3.003394,-1.466672 h 0.744281 q 0.512241,0 0.941297,-0.09194 0.429056,-0.09194 0.836222,-0.253931 Q 39.628057,9.6543184 40.074625,9.4354121 40.525572,9.2121277 41.081594,8.9581965 40.770747,8.8443652 40.43801,8.7130215 40.105272,8.5772996 39.803182,8.4590902 39.505469,8.3408808 39.282185,8.2664527 39.0589,8.1876465 38.96696,8.1876465 q -0.267066,0 -0.472838,0.1576125 -0.201393,0.1532343 -0.37214,0.3721406 l -0.11821,0.1488562 -0.669853,-0.3283593 0.06567,-0.105075 q 0.288956,-0.4684594 0.669853,-0.7486594 0.385275,-0.2845781 0.901894,-0.2845781 0.214528,0 0.516619,0.1094531 0.306468,0.1094531 0.665475,0.2758219 0.359006,0.1619906 0.744281,0.3327375 0.385275,0.1663687 0.77055,0.2845781 0.385275,0.1138312 0.735525,0.1269656 v 0.7574157 q -0.2802,0.030647 -0.718012,0.2057718 -0.433435,0.1707469 -1.129557,0.5385093 -0.5604,0.297713 -1.041994,0.507863 -0.477215,0.205772 -0.976321,0.315225 Q 38.043175,10.959 37.42586,10.959 h -0.731147 z m 0.05692,0.796819 q -0.302091,0 -0.507863,-0.07881 -0.201393,-0.08318 -0.315225,-0.175125 -0.06567,0.573535 -0.319603,1.107666 -0.249553,0.538509 -0.753037,0.936919 -0.503485,0.398409 -1.33095,0.5604 l -0.25831,-0.691744 q 1.068263,-0.232041 1.506075,-0.814331 0.437813,-0.577913 0.437813,-1.370353 0,-0.372141 -0.08319,-0.7793066 -0.07881,-0.4115438 -0.223284,-0.8362219 l 0.726769,-0.245175 0.236419,0.9150281 q 0.09632,0.3677625 0.306468,0.5209964 0.21015,0.153235 0.529753,0.153235 h 0.166369 V 10.959 Z M 31.642356,4.9303214 h 0.739903 V 9.115809 q 0,0.6173156 0.227663,0.8318437 0.227662,0.2145283 0.687365,0.2145283 H 33.40674 V 10.959 h -0.109453 q -0.836222,0 -1.247765,-0.442191 -0.407166,-0.446569 -0.407166,-1.4053781 z m -4.036632,0.4684594 0.634828,0.6348281 -0.634828,0.6348282 -0.634828,-0.6348282 z m -2.727572,4.7634002 h 0.744281 q 0.512241,0 0.941297,-0.09194 0.429057,-0.09194 0.836222,-0.253931 Q 27.811496,9.6543184 28.258065,9.4354121 28.709012,9.2121277 29.265034,8.9581965 28.954187,8.8443652 28.621449,8.7130215 28.288712,8.5772996 27.986621,8.4590902 27.688908,8.3408808 27.465624,8.2664527 27.24234,8.1876465 27.150399,8.1876465 q -0.267066,0 -0.472837,0.1576125 -0.201394,0.1532343 -0.372141,0.3721406 l -0.118209,0.1488562 -0.669854,-0.3283593 0.06567,-0.105075 q 0.288957,-0.4684594 0.669853,-0.7486594 0.385275,-0.2845781 0.901894,-0.2845781 0.214528,0 0.516619,0.1094531 0.306469,0.1094531 0.665475,0.2758219 0.359006,0.1619906 0.744281,0.3327375 0.385275,0.1663687 0.77055,0.2845781 0.385275,0.1138312 0.735525,0.1269656 v 0.7574157 q -0.2802,0.030647 -0.718012,0.2057718 Q 29.43578,9.6630746 28.739659,10.030837 28.179258,10.32855 27.697665,10.5387 27.220449,10.744472 26.721343,10.853925 26.226615,10.959 25.609299,10.959 h -0.731147 z m 1.886377,-1.6549314 v 0.7048781 h -2.320406 l -0.621694,1.0638843 -0.415922,-0.258309 0.46846,-0.8055753 H 23.113173 V 8.5072496 h 1.177716 L 24.938851,7.3952058 H 23.113173 V 6.6903277 h 2.237222 l 0.669853,-1.1470688 0.415922,0.2583094 -0.520997,0.8887594 h 0.849356 v 0.7048781 h -1.2609 L 24.855667,8.5072496 Z M 21.606713,13.13055 q -0.814331,0 -1.326572,-0.293335 -0.512241,-0.288956 -0.753038,-0.809953 -0.240796,-0.520997 -0.240796,-1.208362 0,-0.464082 0.09632,-0.9500535 0.09632,-0.49035 0.262688,-0.9544313 l 0.696122,0.2802 q -0.126966,0.4027875 -0.214528,0.8274658 -0.08756,0.424678 -0.08756,0.823087 0,0.709257 0.359006,1.103288 0.363385,0.394031 1.208363,0.394031 0.783684,0 1.177715,-0.429056 0.39841,-0.429056 0.39841,-1.383488 V 4.9303214 h 0.739903 v 4.2380251 q 0,0.49035 0.179503,0.7442812 0.183881,0.2495533 0.713634,0.2495533 h 0.131344 V 10.959 h -0.122587 q -0.385275,0 -0.551644,-0.07443 -0.166369,-0.07881 -0.354628,-0.25831 0,1.252144 -0.591047,1.878216 -0.591047,0.626072 -1.720603,0.626072 z m -6.12062,-7.7317692 0.634828,0.6348281 -0.634828,0.6348282 -0.634828,-0.6348282 z m -2.727572,4.7634002 h 0.744282 q 0.51224,0 0.941297,-0.09194 0.429056,-0.09194 0.836221,-0.253931 Q 15.691865,9.6543184 16.138434,9.4354121 16.589381,9.2121277 17.145403,8.9581965 16.834556,8.8443652 16.501818,8.7130215 16.169081,8.5772996 15.86699,8.4590902 15.569278,8.3408808 15.345993,8.2664527 q -0.223284,-0.078806 -0.315225,-0.078806 -0.267065,0 -0.472837,0.1576125 -0.201394,0.1532343 -0.372141,0.3721406 L 14.067581,8.8662558 13.397728,8.5378965 13.4634,8.4328215 q 0.288956,-0.4684594 0.669853,-0.7486594 0.385275,-0.2845781 0.901893,-0.2845781 0.214529,0 0.516619,0.1094531 0.306469,0.1094531 0.665475,0.2758219 0.359006,0.1619906 0.744281,0.3327375 0.385275,0.1663687 0.77055,0.2845781 0.385275,0.1138312 0.735525,0.1269656 v 0.7574157 q -0.2802,0.030647 -0.718012,0.2057718 -0.433434,0.1707469 -1.129556,0.5385093 -0.5604,0.297713 -1.041994,0.507863 -0.477216,0.205772 -0.976322,0.315225 Q 14.106984,10.959 13.489668,10.959 H 12.758521 Z M 12.176232,4.9303214 V 10.954622 H 11.436329 V 4.9303214 Z M 7.9031821,10.170937 q 1.6812,0 1.6812,-0.8712468 0,-0.4115437 -0.4203,-0.8712469 -0.4203,-0.4597031 -1.3922438,-0.9894562 L 8.1177102,6.7472433 q 1.1251781,0.5735344 1.6680656,1.2127407 0.5472652,0.6348281 0.5472652,1.3265719 0,0.8230871 -0.5691558,1.2433871 -0.5647781,0.4203 -1.7950313,0.4203 -0.5866687,0 -1.0595062,-0.105075 v -0.79244 q 0.5735344,0.118209 0.9938344,0.118209 z"
         id="path13" />
    </g>
    <path
       id="path6"
       d="M 271.40002,21.2601 H 125.45529 c -2.75117,0 -4.98139,-2.23021 -4.98139,-4.98138 v -32.55744 c 0,-2.75117 2.23022,-4.98138 4.98139,-4.98138 h 145.94473 c 2.75119,0 4.98139,2.23021 4.98139,4.98138 v 32.55744 c 0,2.75117 -2.2302,4.98138 -4.98139,4.98138 z"
       style="fill:#ffe6e6;fill-opacity:1;fill-rule:nonzero;stroke:#be1e2d;stroke-width:0.3985;stroke-linecap:butt;stroke-linejoin:miter;stroke-miterlimit:10;stroke-dasharray:none;stroke-opacity:1"
       transform="matrix(1.3333333,0,0,-1.3333333,124.128,143.02267)" />
    <g
       id="text6"
       transform="matrix(1.3333333,0,0,1.3333333,379.52133,138.24133)"
       aria-label="راﺰﺑا،ﮓﻨﯾﺮﺘﻠﯿﻓلﺮﺘﻨﮐ">
      <path
         style="font-weight:800;font-size:8.9664px;font-family:Vazirmatn"
         d="M 9.8540041,2.3904563 9.4074354,1.2171188 q 0.6348286,-0.1357219 1.0901536,-0.36338441 0.459703,-0.22328438 0.709256,-0.59980314 0.249553,-0.37651875 0.249553,-0.97194376 0,-0.39840939 -0.126966,-0.89313749 -0.126965,-0.4991063 -0.271443,-0.9281625 l 1.182093,-0.3808969 q 0.170747,0.4772156 0.25831,1.0288594 0.09194,0.5516437 0.09194,1.05950624 0,0.91940626 -0.341493,1.57612502 Q 11.911723,1.4053781 11.294407,1.8125438 10.68147,2.2240875 9.8540041,2.3904563 Z M 9.6613668,-6.1381314 v 6.13375327 H 8.479273 V -6.1381314 Z M 5.6148227,-5.1005157 6.4028852,-4.3124532 5.6148227,-3.5287688 4.8311383,-4.3124532 Z M 7.234729,0 Q 6.8363196,0 6.5780102,-0.15323438 6.4028852,0.85373439 5.7155196,1.5104531 5.0325321,2.1671719 3.8898414,2.3860782 L 3.456407,1.2171188 Q 4.0912352,1.0813969 4.5465602,0.85373439 5.0062633,0.63045001 5.2558164,0.25393125 5.5053696,-0.1225875 5.5053696,-0.71801251 5.5053696,-1.1164219 5.3784039,-1.61115 5.2514383,-2.1102563 5.1069602,-2.5393125 l 1.1777156,-0.3808969 0.2539313,0.9894562 q 0.074428,0.2802 0.2189062,0.4728376 0.1444782,0.1926375 0.4290563,0.1926375 H 7.3573165 V 0 Z M 1.8540135,0 H 1.065951 v -1.2652781 h 0.7924406 q 0.3327375,0 0.4553251,-0.2057719 0.1269656,-0.21015 0.1269656,-0.5297532 0,-0.2977125 -0.074428,-0.6479625 -0.07005,-0.3546281 -0.1444782,-0.6917437 l 1.1470688,-0.2977125 q 0.083184,0.4115437 0.1313437,0.8187094 0.052537,0.4027875 0.052537,0.77055 0,0.5822906 -0.1576125,1.0463719 Q 3.237501,-0.53850938 2.8653604,-0.26706563 2.4975979,0 1.8540135,0 Z M 1.9678448,0.51661876 2.7559073,1.3046813 1.9678448,2.0883657 1.1841604,1.3046813 Z M 0.56246634,-6.1381314 v 6.13375327 H -0.61962743 V -6.1381314 Z"
         id="path14" />
      <path
         style="font-size:8.9664px;font-family:Vazirmatn"
         d="m 34.664156,8.6079465 q -0.306469,0.2802 -0.485972,0.5560219 -0.175125,0.2758218 -0.175125,0.6742312 0.310847,0 0.429056,0.1357219 0.122588,0.1357215 0.122588,0.4071655 0,0.267066 -0.135722,0.424678 -0.135722,0.153235 -0.407166,0.153235 -0.345872,0 -0.499106,-0.192638 -0.148856,-0.192637 -0.148856,-0.516619 0,-0.5954246 0.2802,-1.0551278 Q 33.924253,8.730534 34.3752,8.380284 Z M 28.547914,5.6570902 V 5.1754964 L 31.875289,3.8270339 V 4.3086277 Z M 29.16523,10.959 h -1.116422 q -1.646175,0 -2.473641,-0.446569 -0.823087,-0.446569 -0.823087,-1.5454783 0,-0.3020906 0.06567,-0.5910469 0.07005,-0.2889562 0.179503,-0.5560218 l 0.678609,0.2539312 q -0.07005,0.1882594 -0.118209,0.4071656 -0.04378,0.2189063 -0.04378,0.4159219 0.0044,0.5122407 0.284578,0.7880625 0.284578,0.2714438 0.844978,0.3765188 0.564778,0.100697 1.405378,0.100697 h 1.112044 q 0.849356,0 1.217119,-0.148856 0.367762,-0.1532348 0.367762,-0.6041816 0,-0.2889563 -0.205772,-0.5647782 Q 30.338567,8.5685433 30.014586,8.3014777 29.694983,8.030034 29.327221,7.7717246 28.959458,7.5090371 28.635477,7.2551058 28.346521,7.0274433 28.346521,6.6815714 q 0,-0.1795031 0.100696,-0.3371156 0.100697,-0.1619906 0.310847,-0.245175 l 3.147872,-1.2784125 v 0.7749281 l -2.75384,1.1164219 q 0.494728,0.3546281 0.954431,0.7005 0.459703,0.3414938 0.827465,0.7399032 0.367763,0.3984093 0.582291,0.9281625 0.232041,0.5647781 0.49035,0.8230875 0.258309,0.2583095 0.726769,0.2583095 h 0.118209 l -0.0044,0.796819 h -0.118209 q -0.485972,0 -0.827466,-0.18826 -0.337116,-0.188259 -0.604181,-0.599803 -0.175125,0.25831 -0.429056,0.433435 -0.249554,0.175125 -0.656719,0.267065 Q 29.808814,10.959 29.16523,10.959 Z m -6.540917,-2.5874723 0.731147,-0.087562 0.07005,1.0244813 q 0.05254,0.8537345 0.888759,0.8537345 h 0.09194 V 10.959 h -0.100697 q -0.485972,0 -0.779306,-0.175125 -0.288957,-0.175125 -0.46846,-0.494729 -0.236419,0.345872 -0.621694,0.507863 Q 22.050778,10.959 21.630478,10.959 h -0.4203 v -0.796819 h 0.4203 q 0.556022,0 0.792441,-0.2495533 0.240797,-0.2495531 0.240797,-0.7661718 0,-0.21015 -0.01313,-0.3984094 -0.0088,-0.1882594 -0.02627,-0.3765188 z m 0.08318,-2.1803063 0.634828,0.6348282 -0.634828,0.6348281 -0.634828,-0.6348281 z m -4.597031,3.9709596 h 1.247766 q 0.437812,0 0.591047,-0.2539314 0.157612,-0.2539312 0.157612,-0.6435844 0,-0.2845781 -0.05254,-0.6085594 -0.05254,-0.3239812 -0.113832,-0.6523406 l 0.761794,-0.1926375 q 0.07443,0.35025 0.118209,0.6873656 0.04378,0.3371157 0.04378,0.6435844 0,0.525375 -0.144478,0.9369183 Q 20.57535,10.49054 20.246991,10.726959 19.918632,10.959 19.366988,10.959 h -1.256522 z m 1.878216,1.492941 0.612937,0.608559 -0.612937,0.617316 -0.60856,-0.617316 z m -1.453538,0 0.612938,0.608559 -0.612938,0.617316 -0.608559,-0.617316 z M 18.167382,10.959 q -0.302091,0 -0.507863,-0.07881 -0.201393,-0.08318 -0.315225,-0.175125 -0.06567,0.573535 -0.319603,1.107666 -0.249553,0.538509 -0.753037,0.936919 -0.503485,0.398409 -1.33095,0.5604 l -0.25831,-0.691744 q 1.068263,-0.232041 1.506075,-0.814331 0.437813,-0.577913 0.437813,-1.370353 0,-0.372141 -0.08318,-0.7793066 -0.07881,-0.4115438 -0.223285,-0.8362219 l 0.726769,-0.245175 0.236419,0.9150281 q 0.09632,0.3677625 0.306468,0.5209964 0.21015,0.153235 0.529754,0.153235 h 0.166368 V 10.959 Z M 13.360201,6.2218683 13.973139,6.8304277 13.360201,7.4477433 12.751642,6.8304277 Z m -1.453537,0 0.612937,0.6085594 -0.612937,0.6173156 -0.60856,-0.6173156 z M 11.21492,10.162181 h 0.831844 q 0.556022,0 0.792441,-0.2495533 0.240796,-0.2495531 0.240796,-0.7661718 0,-0.21015 -0.01313,-0.3984094 -0.0088,-0.1882594 -0.02627,-0.3765188 l 0.731147,-0.087562 0.07005,1.0244813 q 0.05254,0.8537345 0.88876,0.8537345 h 0.09194 V 10.959 h -0.100697 q -0.485972,0 -0.779306,-0.175125 -0.288956,-0.175125 -0.468459,-0.494729 -0.236419,0.345872 -0.621694,0.507863 Q 12.467064,10.959 12.046764,10.959 H 11.21492 Z M 9.6256595,9.0413809 V 4.9303214 h 0.7399035 v 4.1241938 q 0,0.4815938 0.188259,0.7968188 0.192638,0.310847 0.696122,0.310847 h 0.1401 V 10.959 H 11.2587 q -0.49035,0 -0.779306,-0.170747 Q 10.190438,10.617506 10.019691,10.293525 9.8752127,10.508053 9.7263564,10.656909 9.5818783,10.805765 9.3542158,10.884572 9.1309314,10.959 8.7412783,10.959 H 8.3647595 V 10.162181 H 8.732522 q 0.3677625,0 0.5560219,-0.144478 Q 9.4811814,9.8688465 9.5512314,9.6149152 9.6256595,9.360984 9.6256595,9.0413809 Z M 5.1030564,10.162181 h 0.6610969 q 0.5560219,0 0.7924406,-0.2495533 0.2407969,-0.2495531 0.2407969,-0.7661718 0,-0.21015 -0.013134,-0.3984094 -0.00876,-0.1882594 -0.026269,-0.3765188 l 0.7311469,-0.087562 0.07005,1.0244813 q 0.052537,0.8537345 0.8887594,0.8537345 h 0.091941 V 10.959 H 8.4391877 q -0.4859719,0 -0.7793063,-0.175125 Q 7.3709252,10.60875 7.1914221,10.289146 6.9550033,10.635018 6.5697283,10.797009 6.1844533,10.959 5.7641533,10.959 H 5.1030564 Z m 1.5805032,1.492941 0.6129375,0.608559 -0.6129375,0.617316 -0.6085594,-0.617316 z m -1.4535376,0 0.6129375,0.608559 L 5.230022,12.880997 4.6214626,12.263681 Z M 3.0103125,4.3786777 3.6451406,5.0135058 3.0103125,5.6483339 2.3754844,5.0135058 Z M 2.677575,10.162181 q 0.4947281,0 0.7968188,-0.05692 0.3064687,-0.05692 0.4465687,-0.2495529 0.1444781,-0.1970156 0.1444781,-0.6085594 -0.2145281,0.065672 -0.4378125,0.1006969 -0.2189062,0.035025 -0.4728375,0.035025 -1.4885625,0 -1.4885625,-1.2214969 0,-0.4203 0.1663688,-0.8406 0.1707468,-0.4203 0.4991062,-0.7005 0.3283594,-0.2845781 0.7968188,-0.2845781 0.4290562,0 0.735525,0.2189062 0.3108469,0.2189063 0.5078625,0.5910469 0.2013937,0.3677625 0.2977125,0.8362219 0.096319,0.4640812 0.096319,0.9588094 0,0.6523406 -0.1182094,1.0551281 Q 4.5339,10.394221 4.2799688,10.604372 4.0260375,10.810143 3.6188719,10.884572 3.2117063,10.959 2.6250375,10.959 h -1.61115 V 10.162181 Z M 3.2160844,8.6298371 q 0.2013937,0 0.3984094,-0.035025 Q 3.8158875,8.555409 4.0172813,8.4984933 3.9822563,8.1876465 3.8859375,7.8680433 3.7939969,7.5484402 3.6101156,7.3339121 3.4262344,7.1150058 3.1197656,7.1150058 q -0.2714437,0 -0.4378125,0.1707469 -0.1619906,0.1707469 -0.2364187,0.4071656 -0.07005,0.2364188 -0.07005,0.4378125 0,0.3020907 0.2145281,0.4027875 0.2189062,0.096319 0.6260719,0.096319 z M 2.838969,10.451137 q 0,1.383488 -0.5910469,2.03145 -0.5910468,0.647963 -1.72498124,0.647963 -0.81433126,0 -1.3265719,-0.293335 -0.51224066,-0.288956 -0.75303746,-0.809953 -0.2407969,-0.520997 -0.2407969,-1.208362 0,-0.464082 0.096319,-0.9500535 0.096319,-0.49035 0.2626875,-0.9544313 l 0.69612191,0.2802 q -0.12696562,0.4027875 -0.21452812,0.8274658 -0.0875625,0.424678 -0.0875625,0.823087 0,0.709257 0.35900624,1.103288 0.36338438,0.394031 1.20836252,0.394031 0.78368434,0 1.17771564,-0.429056 0.3984094,-0.429056 0.3984094,-1.383488 V 4.9303214 H 2.838969 Z M -2.512605,10.959 q -0.3020906,0 -0.5078625,-0.07881 -0.2013937,-0.08318 -0.315225,-0.175125 -0.065672,0.573535 -0.3196031,1.107666 -0.2495531,0.538509 -0.7530375,0.936919 -0.5034844,0.398409 -1.33095,0.5604 l -0.2583094,-0.691744 q 1.0682625,-0.232041 1.506075,-0.814331 0.4378125,-0.577913 0.4378125,-1.370353 0,-0.372141 -0.083184,-0.7793066 -0.078806,-0.4115438 -0.2232843,-0.8362219 l 0.7267687,-0.245175 0.2364188,0.9150281 q 0.096319,0.3677625 0.3064687,0.5209964 0.21015,0.153235 0.5297532,0.153235 h 0.1663687 V 10.959 Z M -7.3197865,6.2218683 -6.706849,6.8304277 -7.3197865,7.4477433 -7.9283459,6.8304277 Z m -1.4535375,0 0.6129375,0.6085594 -0.6129375,0.6173156 -0.6085594,-0.6173156 z m -0.6917438,3.9403127 h 0.8318438 q 0.5560218,0 0.7924406,-0.2495533 0.2407969,-0.2495531 0.2407969,-0.7661718 0,-0.21015 -0.013134,-0.3984094 -0.00876,-0.1882594 -0.026269,-0.3765188 l 0.7311468,-0.087562 0.07005,1.0244813 q 0.052537,0.8537345 0.8887594,0.8537345 h 0.091941 V 10.959 h -0.1006969 q -0.4859719,0 -0.7793063,-0.175125 Q -7.0264521,10.60875 -7.2059553,10.289146 -7.442374,10.635018 -7.827649,10.797009 -8.212924,10.959 -8.633224,10.959 h -0.8318438 z m -1.6067722,-1.7906533 0.731147,-0.087562 0.07005,1.0244813 q 0.05254,0.8537345 0.8887594,0.8537345 h 0.091941 V 10.959 h -0.1006968 q -0.4859719,0 -0.7793062,-0.175125 -0.288956,-0.175125 -0.468459,-0.494729 -0.236419,0.345872 -0.621694,0.507863 -0.385275,0.161991 -0.805575,0.161991 h -0.4203 v -0.796819 h 0.4203 q 0.556022,0 0.79244,-0.2495533 0.240797,-0.2495531 0.240797,-0.7661718 0,-0.21015 -0.01313,-0.3984094 -0.0088,-0.1882594 -0.02627,-0.3765188 z m 0.08319,-2.1803063 0.634828,0.6348282 -0.634828,0.6348281 -0.634829,-0.6348281 z m -4.426285,0.5209969 q 0.380897,0.2670656 0.792441,0.5647781 0.411543,0.2933344 0.766171,0.6304501 0.359007,0.3327375 0.577913,0.7136343 0.223284,0.3765188 0.223284,0.8055751 -0.0044,0.8143311 -0.564778,1.1733371 -0.556022,0.359007 -1.777519,0.359007 h -1.068262 v -0.796819 h 1.063884 q 0.849357,0 1.217119,-0.148856 0.367763,-0.1532348 0.367763,-0.6041816 0,-0.2889563 -0.205772,-0.5647782 -0.201394,-0.2758219 -0.525375,-0.5428875 -0.319603,-0.2714437 -0.687366,-0.5297531 -0.367762,-0.2626875 -0.691744,-0.5166188 -0.1401,-0.1138312 -0.214528,-0.2670656 -0.07443,-0.1532344 -0.07443,-0.3064688 0,-0.1795031 0.09632,-0.3371156 0.100697,-0.1619906 0.310847,-0.245175 l 3.147872,-1.2784125 v 0.7749281 z"
         id="path15" />
    </g>
  </g>
</svg>
