<?xml version="1.0" encoding="UTF-8" standalone="no"?>


<svg class="tikz-diagram" id="iran-action-ch3-tikz-2-69fa921c3123"
   version="1.1"
   id="svg1"
   width="494.98666"
   height="226.10667"
   viewBox="0 0 494.98666 226.10667"
   sodipodi:docname="iran-action-ch3-tikz-2-69fa921c3123.pdf"
   xmlns:inkscape="http://www.inkscape.org/namespaces/inkscape"
   xmlns:sodipodi="http://sodipodi.sourceforge.net/DTD/sodipodi-0.dtd"
   xmlns="http://www.w3.org/2000/svg"
   xmlns:svg="http://www.w3.org/2000/svg">
  <defs
     id="defs1" />
  <sodipodi:namedview
     id="namedview1"
     pagecolor="#ffffff"
     bordercolor="#000000"
     borderopacity="0.25"
     inkscape:showpageshadow="2"
     inkscape:pageopacity="0.0"
     inkscape:pagecheckerboard="0"
     inkscape:deskcolor="#d1d1d1">
    <inkscape:page
       x="0"
       y="0"
       inkscape:label="1"
       id="page1"
       width="494.98666"
       height="226.10667"
       margin="0"
       bleed="0" />
  </sodipodi:namedview>
  <g
     id="g1"
     inkscape:groupmode="layer"
     inkscape:label="1">
    <path
       id="path1"
       d="M 80.05907,17.00804 H -80.05907 c -2.75117,0 -4.98138,-2.23021 -4.98138,-4.98138 v -24.05332 c 0,-2.75117 2.23021,-4.98138 4.98138,-4.98138 H 80.05907 c 2.75117,0 4.98138,2.23021 4.98138,4.98138 v 24.05332 c 0,2.75117 -2.23021,4.98138 -4.98138,4.98138 z"
       style="fill:#0055a4;fill-opacity:1;fill-rule:nonzero;stroke:#0055a4;stroke-width:0.3985;stroke-linecap:butt;stroke-linejoin:miter;stroke-miterlimit:10;stroke-dasharray:none;stroke-opacity:1"
       transform="matrix(1.3333333,0,0,-1.3333333,247.49333,42.865333)" />
    <path
       style="font-weight:800;font-size:9.9626px;font-family:Vazirmatn;fill:#ffffff"
       d="m 116.73494,-4.5921358 0.87561,0.8756191 -0.87561,0.8707546 -0.87076,-0.8707546 z m 0.0632,5.3510057 q 0.70536,0 1.10912,-0.22376933 0.40376,-0.22376933 0.57402,-0.60806883 0.17512,-0.38916405 0.17512,-0.87561912 0,-0.52050692 -0.17026,-1.07506572 -0.16539,-0.5594233 -0.37457,-1.0702011 l 1.29884,-0.4864551 q 0.27241,0.7345472 0.3843,1.3474805 0.11675,0.6129334 0.11675,1.25018957 0,1.44963609 -0.79779,2.29120333 -0.79292,0.8415673 -2.31553,0.8415673 -1.04587,0 -1.72691,-0.3988932 -0.67617,-0.3988931 -1.0021,-1.08965931 -0.32592,-0.69076619 -0.32592,-1.56152076 0,-0.57888153 0.12648,-1.19667943 0.12647,-0.617798 0.36484,-1.2355959 l 1.18208,0.4524032 q -0.17999,0.5156424 -0.3016,1.006962 -0.12161,0.4913196 -0.12161,0.91940007 0,0.46699686 0.16539,0.85616092 0.1654,0.38916405 0.55942,0.62266248 0.39403,0.23349843 1.07993,0.23349843 z M 111.21853,-6.8201 h 1.31343 v 4.4461993 q 0,0.5156423 0.1508,0.7442762 0.1508,0.2237694 0.62266,0.2237694 h 0.12162 V 0 h -0.12162 q -1.08965,0 -1.5907,-0.56428788 -0.49619,-0.56428792 -0.49619,-1.69286362 z m -5.22939,6.39688409 q -0.43781,0.15080107 -1.0021,0.28700849 Q 104.42762,0 103.89252,0 h -0.48159 v -1.4058551 h 0.41835 q 0.16053,0 0.3016,-0.00486 0.14594,-0.00486 0.29674,-0.014594 -0.1508,-0.1945821 -0.24323,-0.5156424 -0.0924,-0.3259249 -0.0924,-0.6032043 0,-0.4134868 0.20431,-0.81238 0.20432,-0.3988931 0.61294,-0.6664434 0.40862,-0.2675503 1.01669,-0.2870085 l 0.467,-0.9242646 q 0.9048,0.4280804 1.6053,0.7831926 0.70536,0.3551122 1.18208,0.7004953 0.48159,0.3453831 0.72969,0.7491408 0.24809,0.3988932 0.24809,0.9242647 0,0.9923683 -0.59348,1.51287522 -0.59347,0.51564237 -1.57125,0.51564237 -0.51078,0 -1.0702,-0.12647831 -0.55942,-0.12647832 -0.93399,-0.24809209 z m -0.6859,-2.13067319 q 0,0.2675503 0.24322,0.5010487 0.24323,0.2286339 0.52538,0.3161958 0.13134,-0.029187 0.3016,-0.1313429 0.17512,-0.1070201 0.3016,-0.2578211 0.12648,-0.1556657 0.12648,-0.3307895 0,-0.291873 -0.20918,-0.5253715 -0.20917,-0.2334984 -0.51078,-0.2334984 -0.31133,0 -0.54483,0.1994466 -0.23349,0.194582 -0.23349,0.4621323 z m 2.13067,1.148034 q 0.22863,0.038916 0.44267,0.058375 0.21404,0.019458 0.30647,0.019458 0.28701,0 0.52537,-0.1459366 0.23836,-0.150801 0.23836,-0.5642878 0,-0.1021556 -0.0778,-0.2334985 -0.073,-0.1362074 -0.32106,-0.3307894 -0.24323,-0.194582 -0.74914,-0.476726 0.0681,0.2091757 0.0681,0.432945 0,0.379435 -0.12161,0.6907662 -0.11675,0.3064667 -0.31133,0.5496943 z M 102.84664,-6.8201 v 6.81523545 h -1.31343 V -6.8201 Z m -4.251615,2.7971166 q 0.612934,0 1.041014,0.3648413 0.428081,0.3648413 0.671311,0.963181 0.24322,0.5934752 0.29187,1.289106 h 0.36484 V 0 h -0.46213 q -0.27728,1.1091176 -1.08966,1.7415091 -0.81238,0.6372562 -2.218235,0.909671 L 96.712444,1.3523451 Q 97.325378,1.2355959 97.845884,1.0410138 98.371256,0.84643182 98.731233,0.58374608 99.096074,0.32106034 99.217688,0 H 98.76042 q -0.982639,0 -1.498282,-0.40862226 -0.515642,-0.4134868 -0.515642,-1.33288684 0,-0.3599768 0.111885,-0.7540054 0.111884,-0.3988931 0.340518,-0.7442762 0.228634,-0.3502477 0.574017,-0.5642879 0.350248,-0.2189048 0.822109,-0.2189048 z m 0.16053,2.6171283 h 0.622663 q -0.02919,-0.2724149 -0.116749,-0.5594234 -0.0827,-0.2870085 -0.248092,-0.4815905 -0.160531,-0.194582 -0.428081,-0.194582 -0.228634,0 -0.364841,0.1459365 -0.131343,0.141072 -0.189718,0.3405186 -0.05351,0.194582 -0.05351,0.3599767 0,0.2578212 0.214041,0.3259249 0.218904,0.063239 0.564287,0.063239 z m -6.270404,-5.3947867 0.875619,0.8756191 -0.875619,0.8707546 -0.870755,-0.8707546 z m -3.030616,5.3947867 h 0.826974 q 0.627527,0 1.167492,-0.1167493 0.539965,-0.1216137 1.109118,-0.3599767 0.574017,-0.238363 1.303699,-0.5934752 -0.74914,-0.2724148 -1.211273,-0.4572677 -0.462132,-0.1897175 -0.632391,-0.1897175 -0.262686,0 -0.476726,0.1653947 -0.209176,0.1605302 -0.345383,0.3405185 l -0.257822,0.3259249 -1.089659,-0.5351005 0.218905,-0.3502477 q 0.345383,-0.5642879 0.826973,-0.9339937 0.481591,-0.3745704 1.128576,-0.3745704 0.272415,0 0.632392,0.1264783 0.364841,0.1264783 0.778328,0.3161958 0.418351,0.1848529 0.861025,0.3745704 0.447539,0.1848529 0.880484,0.3161958 0.43781,0.1313429 0.836703,0.1362074 v 1.2891059 q -0.369706,0.048645 -0.685902,0.1653948 -0.316196,0.1118846 -0.656714,0.2870084 -0.340519,0.1751239 -0.792922,0.4183514 -0.622662,0.33078945 -1.177221,0.56915243 -0.549694,0.23836299 -1.133441,0.3648413 Q 90.986869,0 90.266915,0 h -0.81238 z M 84.536938,0 q -0.681037,0 -1.118847,-0.25782119 -0.437809,-0.26268573 -0.632392,-0.85616091 -0.559423,0.43780956 -1.221002,0.43780956 -0.807515,0 -1.34748,-0.43780956 -0.539965,-0.4426741 -0.539965,-1.3036996 0,-0.6323916 0.364841,-1.0799302 0.364841,-0.4524032 0.938858,-0.7588699 0.578882,-0.3064667 1.206409,-0.4961842 l -0.03405,-0.2334984 1.177221,-0.238363 0.462132,3.1230415 q 0.04378,0.2967376 0.228634,0.4961842 0.189718,0.1994466 0.535101,0.1994466 h 0.150801 V 0 Z m -2.018789,-2.6122637 q 0,-0.068104 -0.01459,-0.1508011 -0.0097,-0.087562 -0.02432,-0.1799884 l -0.0827,-0.5107778 q -0.345383,0.1167492 -0.681037,0.2724149 -0.330789,0.150801 -0.549694,0.335654 -0.21404,0.1799883 -0.21404,0.389164 0,0.1994466 0.16053,0.3259249 0.165395,0.1216138 0.428081,0.1216138 0.223769,0 0.447538,-0.063239 0.228634,-0.068104 0.379435,-0.1994466 0.150801,-0.1362074 0.150801,-0.3405185 z m -9.262107,1.2064086 q 0.0681,-0.1118847 0.136208,-0.2091757 0.07297,-0.1021556 0.145936,-0.2043111 V -6.8201 h 1.308564 v 3.3516754 q 0.447539,-0.432945 0.909671,-0.6859017 0.466997,-0.2529566 1.016691,-0.2529566 0.617798,0 1.08966,0.2626857 0.476726,0.2578212 0.744276,0.715089 0.272415,0.4524032 0.272415,1.0458784 0,0.6859016 -0.291873,1.1480339 -0.291873,0.45726779 -0.81238,0.72968263 -0.520507,0.27241484 -1.211273,0.38916405 Q 75.878035,0 75.085113,0 h -2.519837 v -1.4058551 z m 3.551122,-1.62476 q -0.37457,0 -0.754005,0.238363 -0.379435,0.2334985 -0.724818,0.6080689 -0.345383,0.3697058 -0.627527,0.7783281 h 0.442674 q 0.656714,0 1.216138,-0.063239 0.564288,-0.068104 0.904806,-0.2578212 0.340519,-0.1897175 0.340519,-0.5642879 0,-0.335654 -0.228634,-0.5351005 -0.22377,-0.2043112 -0.569153,-0.2043112 z m -4.538617,1.9506849 q 0,1.13830481 -0.423216,1.89231016 -0.418351,0.75400534 -1.18695,1.19667944 -0.768599,0.4426741 -1.819342,0.6421207 l -0.481591,-1.298835 q 0.992369,-0.1897175 1.658812,-0.53996514 0.671308,-0.35024765 0.851297,-0.86102547 -0.121614,0.02432276 -0.252957,0.04378096 -0.131343,0.01459365 -0.238363,0.01459365 -0.924265,0 -1.454501,-0.40862225 Q 68.3915,-0.80751541 68.3915,-1.7415091 q 0,-0.3891641 0.116749,-0.7929218 0.11675,-0.4086223 0.350248,-0.7491408 0.233499,-0.3453831 0.578882,-0.5545588 0.345383,-0.2091757 0.802651,-0.2091757 0.525371,0 0.904806,0.2529567 0.384299,0.2529566 0.632392,0.6761725 0.248092,0.4232159 0.369705,0.953452 0.121614,0.530236 0.121614,1.0847948 z m -1.911768,-0.3113313 q 0.209175,0 0.379435,-0.024323 0.175124,-0.024323 0.287008,-0.048645 -0.02919,-0.2480921 -0.111884,-0.5302361 -0.0827,-0.2821439 -0.248093,-0.4815905 -0.16053,-0.2043111 -0.432945,-0.2043111 -0.233498,0 -0.369705,0.1556656 -0.131343,0.1556656 -0.184853,0.3648413 -0.05351,0.2091757 -0.05351,0.3648413 0,0.2626857 0.209175,0.335654 0.21404,0.068104 0.525372,0.068104 z M 67.814209,0 Q 67.371535,0 67.084527,-0.17025927 66.889945,0.94858738 66.12621,1.67827 65.36734,2.4079526 64.097693,2.6511801 l -0.481591,-1.298835 q 0.70536,-0.1508011 1.211273,-0.40375772 0.510778,-0.24809208 0.788058,-0.66644344 0.277279,-0.41835136 0.277279,-1.07993025 0,-0.44267409 -0.141072,-0.99236829 -0.141072,-0.5545588 -0.301602,-1.0312848 l 1.308564,-0.4232159 0.282144,1.0993885 q 0.0827,0.3113312 0.243227,0.5253714 0.160531,0.2140403 0.476726,0.2140403 h 0.189718 V 0 Z m -8.011915,-6.9465783 0.783193,0.7783281 -0.783193,0.7831926 -0.783193,-0.7831926 z m 0.851296,1.2404604 0.783193,0.7831926 -0.783193,0.7831927 -0.783192,-0.7831927 z m -1.697728,0 0.778328,0.7831926 -0.778328,0.7831927 -0.783192,-0.7831927 z M 61.30544,0 Q 60.872495,0 60.570893,-0.17998837 60.269291,-0.35997675 60.06498,-0.62266248 59.816888,-0.35997675 59.500692,-0.17998837 59.189361,0 58.76128,0 58.269961,0 57.934307,-0.16539472 57.603517,-0.335654 57.389477,-0.61293338 57.121927,-0.33078944 56.752221,-0.16539472 56.382515,0 55.818227,0 h -0.447539 v -1.4058551 h 0.457268 q 0.535101,0 0.75887,-0.1313429 0.228634,-0.1313429 0.228634,-0.6323916 0,-0.077833 -0.0097,-0.2578212 -0.0097,-0.1799884 -0.02432,-0.3940286 -0.01459,-0.2189048 -0.02919,-0.3940286 l 1.221002,-0.1508011 0.102156,1.3134287 q 0.04378,0.6469853 0.69563,0.6469853 0.403758,0 0.539965,-0.1653948 0.136208,-0.1702592 0.136208,-0.5983397 0,-0.068104 -0.0097,-0.2480921 -0.0097,-0.1848529 -0.02432,-0.4037577 -0.01459,-0.2189048 -0.02919,-0.3940286 l 1.221002,-0.1508011 0.102155,1.3134287 q 0.01946,0.3016022 0.150802,0.476726 0.131342,0.1702593 0.437809,0.1702593 0.301602,0 0.408622,-0.1994466 0.111885,-0.1994466 0.111885,-0.5642879 0,-0.1751238 -0.01946,-0.5059133 -0.01946,-0.3307894 -0.04378,-0.6323915 l 1.221002,-0.1508011 0.102156,1.4058551 q 0.02432,0.3599768 0.199446,0.5059133 0.179989,0.141072 0.554559,0.141072 h 0.145937 V 0 H 63.839871 Q 63.392332,0 63.046949,-0.15566562 62.706431,-0.31133124 62.506984,-0.57888153 62.307538,-0.33078944 62.015665,-0.16539472 61.723792,0 61.30544,0 Z m -7.948677,0.11188467 q -0.505913,0 -0.948587,-0.21404023 -0.43781,-0.21890478 -0.856161,-0.53996513 -0.26755,0.26755029 -0.559423,0.45726776 Q 50.705583,0 50.151024,0 h -0.21404 v -1.4058551 h 0.189718 q 0.238362,0 0.42808,-0.184853 0.194582,-0.1848529 0.369706,-0.4767259 0.179988,-0.2967376 0.37457,-0.6226625 0.199447,-0.3307895 0.442674,-0.6226625 0.248092,-0.2967376 0.574017,-0.4815905 0.325925,-0.1848529 0.763735,-0.1848529 0.612933,0 1.060472,0.291873 0.447538,0.2870085 0.690766,0.7637345 0.243228,0.4718614 0.243228,1.0312847 0,0.574017 -0.189718,1.02642018 -0.189717,0.45240321 -0.574017,0.71508895 -0.379435,0.26268574 -0.953452,0.26268574 z M 53.123265,-2.641451 q -0.199447,0 -0.359977,0.1362074 -0.16053,0.1313429 -0.282144,0.3210604 -0.121614,0.1897174 -0.204311,0.3599767 0.141072,0.1264783 0.26755,0.2189048 0.126479,0.092426 0.243228,0.1605302 0.175124,0.097291 0.32106,0.1362074 0.145937,0.038916 0.252957,0.038916 0.257821,0 0.369706,-0.1848529 0.111884,-0.1897175 0.111884,-0.4280805 0,-0.3064667 -0.189717,-0.530236 -0.189718,-0.2286339 -0.530236,-0.2286339 z m -1.022252,1.5615208 q 0,1.13830481 -0.423216,1.89231016 -0.418351,0.75400534 -1.18695,1.19667944 -0.768599,0.4426741 -1.819342,0.6421207 l -0.48159,-1.298835 q 0.992368,-0.1897175 1.658811,-0.53996514 0.671308,-0.35024765 0.851297,-0.86102547 -0.121614,0.02432276 -0.252957,0.04378096 -0.131343,0.01459365 -0.238363,0.01459365 -0.924265,0 -1.454501,-0.40862225 -0.530236,-0.40862226 -0.530236,-1.34261595 0,-0.3891641 0.11675,-0.7929218 0.116749,-0.4086223 0.350247,-0.7491408 0.233499,-0.3453831 0.578882,-0.5545588 0.345383,-0.2091757 0.802651,-0.2091757 0.525371,0 0.904806,0.2529567 0.3843,0.2529566 0.632392,0.6761725 0.248092,0.4232159 0.369706,0.953452 0.121613,0.530236 0.121613,1.0847948 z m -1.911768,-0.3113313 q 0.209176,0 0.379435,-0.024323 0.175124,-0.024323 0.287008,-0.048645 -0.02919,-0.2480921 -0.111884,-0.5302361 -0.0827,-0.2821439 -0.248092,-0.4815905 -0.160531,-0.2043111 -0.432945,-0.2043111 -0.233499,0 -0.369706,0.1556656 -0.131343,0.1556656 -0.184853,0.3648413 -0.05351,0.2091757 -0.05351,0.3648413 0,0.2626857 0.209175,0.335654 0.214041,0.068104 0.525372,0.068104 z m -3.468893,-3.2008743 0.875619,0.8756191 -0.875619,0.8707546 -0.870755,-0.8707546 z m 0.06324,5.3510057 q 0.70536,0 1.109118,-0.22376933 0.403757,-0.22376933 0.574017,-0.60806883 0.175123,-0.38916405 0.175123,-0.87561912 0,-0.52050692 -0.170259,-1.07506572 -0.165395,-0.5594233 -0.37457,-1.0702011 l 1.298835,-0.4864551 q 0.272415,0.7345472 0.384299,1.3474805 0.11675,0.6129334 0.11675,1.25018957 0,1.44963609 -0.797787,2.29120333 -0.792922,0.8415673 -2.315526,0.8415673 -1.045878,0 -1.726915,-0.3988932 -0.676173,-0.3988931 -1.002098,-1.08965931 -0.325925,-0.69076619 -0.325925,-1.56152076 0,-0.57888153 0.126479,-1.19667943 0.126478,-0.617798 0.364841,-1.2355959 l 1.182086,0.4524032 q -0.179989,0.5156424 -0.301602,1.006962 -0.121614,0.4913196 -0.121614,0.91940007 0,0.46699686 0.165395,0.85616092 0.165394,0.38916405 0.559423,0.62266248 0.394028,0.23349843 1.07993,0.23349843 z M 41.203953,-6.8201 h 1.313428 v 4.4461993 q 0,0.5156423 0.150801,0.7442762 0.150801,0.2237694 0.622663,0.2237694 h 0.121614 V 0 H 43.290845 Q 42.201185,0 41.700137,-0.56428788 41.203953,-1.1285758 41.203953,-2.2571515 Z M 38.256031,0 h -1.045878 v -1.4058551 h 1.050743 q 0.369706,0 0.505913,-0.2286339 0.141072,-0.2334985 0.141072,-0.5886107 0,-0.3307894 -0.0827,-0.7199535 -0.07783,-0.3940286 -0.16053,-0.768599 l 1.274512,-0.3307894 q 0.09243,0.4572678 0.145936,0.909671 0.05837,0.4475386 0.05837,0.8561609 0,0.6469852 -0.175124,1.1626276 -0.170259,0.51564237 -0.583746,0.81724451 Q 38.97112,0 38.256031,0 Z M 37.336631,0.62266248 38.163605,1.439907 38.980849,0.62266248 39.812687,1.4496361 38.980849,2.2863388 38.163605,1.4593652 37.336631,2.2863388 36.509658,1.4496361 Z M 36.655592,-6.8201 v 6.81523545 H 35.342164 V -6.8201 Z M 33.969311,0 Q 33.526637,0 33.239629,-0.17025927 33.045047,0.94858738 32.281312,1.67827 31.522442,2.4079526 30.252795,2.6511801 l -0.481591,-1.298835 q 0.70536,-0.1508011 1.211273,-0.40375772 0.510778,-0.24809208 0.788057,-0.66644344 0.27728,-0.41835136 0.27728,-1.07993025 0,-0.44267409 -0.141072,-0.99236829 -0.141072,-0.5545588 -0.301602,-1.0312848 l 1.308564,-0.4232159 0.282144,1.0993885 q 0.0827,0.3113312 0.243227,0.5253714 0.16053,0.2140403 0.476726,0.2140403 h 0.189718 V 0 Z m -7.277366,-5.8228671 v -0.7394117 l 3.954879,-1.6101663 v 0.7394117 z m 1.386397,1.3280223 q 0.651849,0.389164 1.152898,0.7637344 0.505913,0.3697059 0.792922,0.7977864 0.287008,0.4280804 0.287008,0.9875037 0,0.7637345 -0.350247,1.1869504 -0.350248,0.4232159 -0.98264,0.59347518 Q 28.345892,0 27.504325,0 h -1.186951 v -1.4058551 h 1.182086 q 0.778328,0 1.167492,-0.1070202 0.389164,-0.1118846 0.389164,-0.4524032 0,-0.1605301 -0.238363,-0.3697058 -0.238363,-0.2140402 -0.598339,-0.4475387 -0.355113,-0.238363 -0.729683,-0.4669968 -0.369706,-0.2334985 -0.642121,-0.4280805 -0.204311,-0.1459365 -0.311331,-0.3891641 -0.102156,-0.2432275 -0.102156,-0.4961841 0,-0.2724149 0.126479,-0.5107778 0.126478,-0.238363 0.394028,-0.3453831 l 3.755433,-1.5323335 v 1.3912615 z M 17.707587,2.4517335 q -1.045878,0 -1.726915,-0.3988931 -0.676173,-0.3988932 -1.002098,-1.08965937 -0.325925,-0.69076619 -0.325925,-1.55665621 0,-0.57888152 0.126479,-1.19667942 0.126478,-0.6226625 0.364841,-1.2404605 l 1.182086,0.4524032 q -0.179989,0.5156424 -0.301602,1.006962 -0.121614,0.4913197 -0.121614,0.91940011 0,0.46699686 0.165394,0.85616092 0.165395,0.38916405 0.559424,0.62266248 0.394028,0.23349839 1.07993,0.23349839 0.739412,0 1.230731,-0.17025923 0.49132,-0.16539472 0.734548,-0.3940286 0.243227,-0.22863388 0.243227,-0.40375771 0,-0.14107197 -0.175124,-0.14107197 h -0.788057 q -0.248092,0 -0.520507,-0.0486455 -0.26755,-0.04864551 -0.501049,-0.20917568 -0.233498,-0.16053017 -0.379435,-0.48159052 -0.141072,-0.32106039 -0.141072,-0.86102549 0,-0.5059132 0.165395,-0.9729101 0.165395,-0.4718614 0.471862,-0.8415673 0.311331,-0.3697058 0.744276,-0.5886106 0.432945,-0.2189048 0.97291,-0.2189048 0.364841,0 0.715089,0.1118847 0.355112,0.1070201 0.65185,0.3210603 l -0.447539,1.2404604 q -0.252957,-0.1410719 -0.486455,-0.194582 -0.228634,-0.058375 -0.423216,-0.058375 -0.525371,0 -0.822109,0.3453831 -0.296738,0.3405186 -0.296738,0.8512964 0,0.1313428 0.0827,0.1653947 0.08756,0.034052 0.21404,0.034052 h 0.710224 q 0.559424,0 0.87562,0.1751238 0.32106,0.1751238 0.452403,0.48645504 0.136207,0.30646669 0.136207,0.7004953 0,0.69563074 -0.398893,1.27451226 -0.398893,0.5788815 -1.162628,0.9242646 -0.763734,0.3453831 -1.858258,0.3453831 z m -5.74017,-6.4747169 q 0.612933,0 1.041014,0.3648413 0.42808,0.3648413 0.671308,0.963181 0.243227,0.5934752 0.291873,1.289106 h 0.364841 V 0 h -0.462132 q -0.27728,1.1091176 -1.08966,1.7415091 -0.812379,0.6372562 -2.218235,0.909671 l -0.48159,-1.298835 Q 10.697769,1.2355959 11.218276,1.0410138 11.743648,0.84643182 12.103624,0.58374608 12.468466,0.32106034 12.590079,0 h -0.457267 q -0.98264,0 -1.498282,-0.40862226 -0.515642,-0.4134868 -0.515642,-1.33288684 0,-0.3599768 0.111884,-0.7540054 0.111885,-0.3988931 0.340519,-0.7442762 0.228634,-0.3502477 0.574017,-0.5642879 0.350248,-0.2189048 0.822109,-0.2189048 z m 0.16053,2.6171283 h 0.622663 q -0.02919,-0.2724149 -0.11675,-0.5594234 -0.0827,-0.2870085 -0.248092,-0.4815905 -0.16053,-0.194582 -0.42808,-0.194582 -0.228634,0 -0.364841,0.1459365 -0.131343,0.141072 -0.189718,0.3405186 -0.05351,0.194582 -0.05351,0.3599767 0,0.2578212 0.21404,0.3259249 0.218905,0.063239 0.564288,0.063239 z M 7.6136442,-2.3252552 V -6.8201 h 1.3085641 v 4.4948448 q 0,0.4572677 0.1459365,0.6907662 0.1508011,0.2286339 0.5934752,0.2286339 H 9.8172856 V 0 H 9.6713491 Q 9.1557067,0 8.8297818,-0.15566562 8.5087215,-0.31619579 8.2654939,-0.62752704 8.0076728,-0.33078944 7.6622897,-0.16539472 7.3217711,0 6.7526187,0 H 6.4558811 v -1.4058551 h 0.2626857 q 0.4913197,0 0.6907662,-0.2189048 0.2043112,-0.2237694 0.2043112,-0.7004953 z M 1.4940399,0 v -1.4058551 h 0.8123799 v -0.1118847 q 0,-0.4669969 0.097291,-0.9875038 0.1021556,-0.5205069 0.3259249,-0.9777747 0.2286339,-0.4621323 0.5983398,-0.7491408 0.3745704,-0.2870085 0.9145355,-0.2870085 0.4669969,0 0.8026509,0.2286339 0.335654,0.2237693 0.5107778,0.6129334 0.1799883,0.3842995 0.1799883,0.86589 0,0.4524032 -0.1702592,0.8950773 -0.1702593,0.4378096 -0.4621323,0.8221091 -0.2918731,0.37943495 -0.6664435,0.66157889 -0.3697058,0.27727939 -0.7783281,0.40862226 0.068104,0.20917568 0.2334984,0.45240321 0.1702593,0.24322753 0.3648413,0.4134868 Q 4.3592602,0.42321591 4.5830295,0.02432275 4.8116634,-0.3745704 5.1181301,-0.69563074 5.4245968,-1.0215556 5.7748445,-1.2112731 6.1299567,-1.4058551 6.4899334,-1.4058551 H 6.6504636 V 0 H 6.4802043 Q 5.8478127,0 5.6143143,0.32106034 5.3856804,0.64698524 5.3856804,1.298835 q 0,0.1216138 0.00486,0.2529567 0.00486,0.1362074 0.014594,0.2724148 L 4.5538422,2.6171283 Q 4.0771163,2.3884944 3.6295776,1.9750076 3.182039,1.5615208 2.8512495,1.0458784 2.5253246,0.53023602 2.4037108,0 Z m 2.694961,-3.1619579 q -0.1799883,0 -0.3113312,0.1653947 -0.1264783,0.1653947 -0.2091757,0.4232159 -0.077833,0.2529566 -0.1167492,0.5399651 -0.034052,0.282144 -0.034052,0.5156424 v 0.1118847 q 0.2967376,-0.024323 0.5448297,-0.2091757 0.2480921,-0.1848529 0.3988932,-0.4718614 0.1556656,-0.2918731 0.1556656,-0.6226625 0,-0.2091757 -0.1167492,-0.3307895 Q 4.383583,-3.1619579 4.1890009,-3.1619579 Z M -0.69500803,0 H -1.7408864 v -1.4058551 h 1.05074292 q 0.36970585,0 0.50591327,-0.2286339 0.14107197,-0.2334985 0.14107197,-0.5886107 0,-0.3307894 -0.08269737,-0.7199535 -0.0778328,-0.3940286 -0.16053017,-0.768599 L 0.9881265,-4.0424416 q 0.0924265,0.4572678 0.1459365,0.909671 0.058375,0.4475386 0.058375,0.8561609 0,0.6469852 -0.1751238,1.1626276 Q 0.84705453,-0.59833973 0.43356772,-0.29673759 0.02008091,0 -0.69500803,0 Z M 0.03953912,0.48159052 0.82273177,1.2647832 0.03953912,2.0479758 -0.74365354,1.2647832 Z m -1.69772822,0 L -0.87986096,1.2647832 -1.6581891,2.0479758 -2.4413817,1.2647832 Z M -0.81175725,1.7269155 -0.02856459,2.5101081 -0.81175725,3.2884362 -1.5949499,2.5101081 Z"
       id="text1"
       transform="matrix(1.3333333,0,0,1.3333333,166.31867,46.121333)"
       aria-label="نﺎﻫاﻮﺧ ﻪﻃوﺮﺸﻣونﺎﯾاﺮﮔ یﻮﻠﻬﭘ" />
    <path
       id="path2"
       d="m -62.07353,-45.75336 h -103.4245 c -2.75117,0 -4.98139,-2.23021 -4.98139,-4.98138 v -24.05333 c 0,-2.75118 2.23022,-4.98138 4.98139,-4.98138 h 103.4245 c 2.75117,0 4.98138,2.2302 4.98138,4.98138 v 24.05333 c 0,2.75117 -2.23021,4.98138 -4.98138,4.98138 z"
       style="fill:#e6f0fa;fill-opacity:1;fill-rule:nonzero;stroke:#0055a4;stroke-width:0.3985;stroke-linecap:butt;stroke-linejoin:miter;stroke-miterlimit:10;stroke-dasharray:none;stroke-opacity:1"
       transform="matrix(1.3333333,0,0,-1.3333333,247.49333,42.865333)" />
    <g
       id="text2"
       transform="matrix(1.3333333,0,0,1.3333333,78.737333,122.60267)"
       aria-label="دﺮﮕﺷﺮﻓ،لﺎﻌﻓ)(ﺮﺗ ناﻮﺟ">
      <path
         style="font-size:8.9664px;font-family:Vazirmatn"
         d="m 22.089884,-0.78806251 q 1.6812,0 1.6812,-0.87124689 0,-0.4115438 -0.4203,-0.8712469 -0.4203,-0.4597031 -1.392244,-0.9894563 l 0.345872,-0.6917437 q 1.125178,0.5735344 1.668065,1.2127406 0.547266,0.6348282 0.547266,1.3265719 0,0.82308754 -0.569156,1.24338754 -0.564778,0.42030001 -1.795032,0.42030001 -0.586668,0 -1.059506,-0.105075 v -0.79244064 q 0.573535,0.11820938 0.993835,0.11820938 z M 19.932587,0 q -0.30209,0 -0.507862,-0.07880625 -0.201394,-0.08318438 -0.315225,-0.175125 -0.06567,0.57353438 -0.319603,1.10766564 -0.249553,0.53850941 -0.753038,0.93691881 -0.503484,0.3984093 -1.33095,0.5604 L 16.4476,1.6593094 q 1.068262,-0.2320406 1.506075,-0.81433126 0.437812,-0.57791251 0.437812,-1.37035315 0,-0.37214063 -0.08318,-0.77930629 -0.07881,-0.4115437 -0.223284,-0.8362219 l 0.726768,-0.245175 0.236419,0.9150282 q 0.09632,0.3677625 0.306469,0.52099686 0.21015,0.15323438 0.529753,0.15323438 h 0.166369 V 0 Z m -7.652963,-5.3019095 v -0.4815937 l 3.327375,-1.3484625 v 0.4815937 z m 0.604182,1.0551282 q 0.499106,0.35025 0.954431,0.6961219 0.459703,0.3414937 0.827465,0.7442812 0.367763,0.3984094 0.582291,0.9281625 0.232041,0.5647782 0.49035,0.8230876 0.258309,0.25830934 0.726769,0.25830934 h 0.122587 V 0 H 16.465112 Q 15.97914,0 15.637646,-0.18825938 15.300531,-0.37651876 15.033465,-0.78806251 14.85834,-0.52975313 14.604409,-0.35462813 14.354856,-0.17950313 13.94769,-0.0875625 13.544902,0 12.901318,0 h -1.068262 v -0.79681876 h 1.063884 q 0.849356,0 1.217119,-0.14885626 0.367762,-0.15323438 0.367762,-0.60418128 0,-0.2889562 -0.205772,-0.5647781 -0.201393,-0.2758219 -0.525375,-0.5428875 -0.319603,-0.2714438 -0.687365,-0.5297532 -0.367763,-0.2626875 -0.691744,-0.5166187 -0.1401,-0.1138313 -0.214528,-0.2670656 -0.07443,-0.1532344 -0.07443,-0.3108469 0,-0.1795031 0.09632,-0.3371157 0.100697,-0.1576125 0.310847,-0.2407968 l 3.147872,-1.2784126 v 0.7749282 z M 8.7508564,-5.7572345 9.3419033,-5.1661876 8.7508564,-4.5751407 8.1598095,-5.1661876 Z m 0.7486594,1.1076657 0.5910472,0.5910469 -0.5910472,0.5910468 -0.5910469,-0.5910468 z m -1.4973188,0 0.5910469,0.5910469 L 8.002197,-3.4674751 7.4111501,-4.0585219 Z M 7.8139376,0 Q 7.3104533,0 7.0346314,-0.17074688 6.7631876,-0.34587188 6.601197,-0.66985314 6.3954251,-0.34587188 6.075822,-0.17074688 5.7562189,0 5.165172,0 H 4.7623845 v -0.79681876 h 0.4115437 q 0.5604,0 0.8187094,-0.20577184 0.2583094,-0.21015 0.2583094,-0.7617938 0,-0.1138313 -0.013134,-0.2670656 -0.00876,-0.1576125 -0.030647,-0.4378125 l 0.7311469,-0.091941 0.07005,0.9150282 q 0.026269,0.3677625 0.2232844,0.6085594 0.2013938,0.24079684 0.5910469,0.24079684 0.4640813,0 0.63045,-0.24955314 0.1663688,-0.2495531 0.1663688,-0.7180125 0,-0.1138313 -0.013134,-0.2714438 -0.00876,-0.1576125 -0.030647,-0.4334343 l 0.7311469,-0.091941 0.07005,0.9150282 q 0.021891,0.3546281 0.1882594,0.6041812 0.1663687,0.24517504 0.5385093,0.24517504 0.363384,0 0.499106,-0.27144374 0.135722,-0.2714438 0.135722,-0.6348282 0,-0.3283593 -0.06567,-0.6610968 Q 10.61156,-2.696925 10.5634,-2.9026969 l 0.74866,-0.2013938 q 0.07881,0.2933344 0.126965,0.6260719 0.04816,0.3283594 0.04816,0.6567188 0,0.4728375 -0.131344,0.88875936 -0.131344,0.41592188 -0.433435,0.67423126 Q 10.624694,-0.00437813 10.108075,0 9.6877752,0 9.4294658,-0.175125 9.1711564,-0.35025001 9.0091658,-0.66985314 8.7639908,-0.31522501 8.4619002,-0.1576125 8.1641877,0 7.8139376,0 Z M 4.1199207,0 Q 3.81783,0 3.6120582,-0.07880625 3.4106644,-0.16199063 3.2968332,-0.25393125 3.2311613,0.31960313 2.97723,0.85373439 2.7276769,1.3922438 2.2241925,1.7906532 1.7207081,2.1890625 0.89324249,2.3510532 L 0.63493311,1.6593094 Q 1.7031956,1.4272688 2.1410081,0.84497814 2.5788206,0.26706563 2.5788206,-0.52537501 q 0,-0.37214063 -0.083184,-0.77930629 Q 2.41683,-1.716225 2.2723519,-2.1409032 l 0.7267688,-0.245175 0.2364187,0.9150282 q 0.096319,0.3677625 0.3064688,0.52099686 0.21015,0.15323438 0.5297531,0.15323438 H 4.23813 V 0 Z m -5.00857499,-6.580322 0.63482813,0.6348282 -0.63482813,0.6348281 -0.63482811,-0.6348281 z m -0.33273751,5.78350324 q 0.49472814,0 0.79681877,-0.0569156 0.30646875,-0.0569156 0.44656875,-0.24955311 0.14447813,-0.1970156 0.14447813,-0.6085594 -0.21452813,0.065672 -0.43781251,0.1006969 -0.21890625,0.035025 -0.4728375,0.035025 -1.48856254,0 -1.48856254,-1.2214969 0,-0.4203 0.1663688,-0.8406 0.1707468,-0.4203 0.4991062,-0.7005 0.3283594,-0.2845782 0.79681879,-0.2845782 0.42905625,0 0.73552501,0.2189063 0.31084688,0.2189062 0.50786251,0.5910469 0.20139375,0.3677625 0.2977125,0.8362219 0.0963188,0.4640812 0.0963188,0.9588093 0,0.6523407 -0.11820937,1.05512818 -0.11383126,0.39840939 -0.36776251,0.60855939 -0.25393126,0.20577188 -0.66109689,0.2802 Q -0.68726054,0 -1.2739293,0 h -1.61115 v -0.79681876 z m 0.53850939,-1.53234374 q 0.20139375,0 0.39840938,-0.035025 0.20139375,-0.039403 0.4027875,-0.096319 -0.035025,-0.3108469 -0.13134375,-0.63045 -0.09194062,-0.3196031 -0.27582188,-0.5341313 -0.18388125,-0.2189062 -0.49035,-0.2189062 -0.27144374,0 -0.43781254,0.1707469 -0.1619906,0.1707468 -0.2364187,0.4071656 -0.07005,0.2364188 -0.07005,0.4378125 0,0.3020906 0.2145281,0.4027875 0.2189063,0.096319 0.62607189,0.096319 z"
         id="path9" />
      <path
         style="font-size:7.9701px;font-family:Vazirmatn"
         d="m 32.435792,8.8691834 q -0.272416,0.2490656 -0.431973,0.4942396 -0.155666,0.245174 -0.155666,0.5993141 0.276307,0 0.381381,0.1206409 0.108967,0.120641 0.108967,0.361924 0,0.23739 -0.120641,0.37749 -0.120642,0.136208 -0.361924,0.136208 -0.30744,0 -0.443648,-0.171233 -0.132316,-0.171233 -0.132316,-0.459215 0,-0.5292642 0.249065,-0.9378875 0.249066,-0.4125149 0.649906,-0.7238469 z m -2.280506,1.6383846 q 0,1.229762 -0.525373,1.805726 -0.525372,0.575964 -1.53331,0.575964 -0.723847,0 -1.17917,-0.26074 -0.455323,-0.256849 -0.669364,-0.719956 -0.214041,-0.463106 -0.214041,-1.074095 0,-0.412515 0.08562,-0.8444883 0.08562,-0.4358648 0.233499,-0.8483798 l 0.618772,0.2490656 q -0.112858,0.3580319 -0.190691,0.7355215 -0.07783,0.377491 -0.07783,0.731631 0,0.630447 0.319116,0.980696 0.323007,0.350248 1.074095,0.350248 0.696606,0 1.046854,-0.381382 0.35414,-0.381381 0.35414,-1.229761 V 5.6001971 h 0.657689 z M 24.158248,5.6001971 h 0.657689 v 3.7204177 q 0,0.5487227 0.202365,0.7394132 0.202366,0.190691 0.61099,0.190691 h 0.09729 V 10.959 h -0.09729 q -0.743306,0 -1.109121,-0.393057 -0.361923,-0.396948 -0.361923,-1.2492198 z m -2.735827,2.315532 q 0.299657,0 0.618773,0.050591 0.319115,0.0467 0.591531,0.1362078 0.276307,0.089508 0.447539,0.2179324 0.171233,0.1284245 0.171233,0.2879821 0,0.1128579 -0.120641,0.311332 -0.11675,0.1984742 -0.303549,0.4280816 -0.182907,0.2296074 -0.385273,0.4436481 -0.202366,0.2101495 -0.369707,0.3580315 0.272415,0.07005 0.517589,0.08562 0.245174,0.01557 0.443649,0.01557 h 0.607097 V 10.959 h -0.603206 q -0.408623,0 -0.817246,-0.09729 -0.404732,-0.09729 -0.797789,-0.323007 -0.256849,0.147883 -0.595422,0.241283 -0.334682,0.0934 -0.677147,0.136207 -0.338574,0.04281 -0.610989,0.04281 h -0.614881 v -0.708281 h 0.618772 q 0.132316,0 0.35414,-0.0039 0.225716,-0.0078 0.463107,-0.02724 0.241282,-0.02335 0.420298,-0.07005 Q 20.612958,10.001654 20.410592,9.7915045 20.208226,9.5774638 20.021427,9.3478564 19.83852,9.118249 19.717879,8.9197748 19.597237,8.7213007 19.597237,8.6084428 q 0,-0.1595576 0.167341,-0.2879821 0.167341,-0.1284245 0.439757,-0.2179324 0.276307,-0.089508 0.595422,-0.1362078 0.319116,-0.050591 0.622664,-0.050591 z m 0,0.6693638 q -0.175124,0 -0.502023,0.027242 -0.323007,0.027242 -0.610989,0.1245328 0.252958,0.3191153 0.509807,0.5720726 0.256848,0.2529573 0.428081,0.4047316 0.175124,0.1478827 0.175124,0.1478827 0,0 0.175125,-0.1478827 Q 21.77267,9.5618972 22.03341,9.3089399 22.294151,9.0559826 22.543217,8.7368673 22.255235,8.639576 21.928336,8.6123345 21.601437,8.5850929 21.422421,8.5850929 Z m -4.366432,-3.4752437 0.564289,0.5642893 -0.564289,0.5642893 -0.56429,-0.5642893 z m -0.295766,5.1408698 q 0.439757,0 0.708281,-0.05059 0.272415,-0.05059 0.396948,-0.2218243 0.128424,-0.1751242 0.128424,-0.5409394 -0.19069,0.058375 -0.389165,0.089508 -0.194582,0.031133 -0.420298,0.031133 -1.323161,0 -1.323161,-1.0857704 0,-0.3735985 0.147883,-0.7471969 0.151774,-0.3735984 0.443648,-0.6226641 0.291874,-0.2529572 0.70828,-0.2529572 0.381382,0 0.653797,0.1945825 0.276308,0.1945825 0.451432,0.5253728 0.179016,0.3268986 0.264632,0.7433052 0.08562,0.4125149 0.08562,0.8522714 0,0.5798559 -0.105074,0.9378882 -0.101183,0.35414 -0.326899,0.540939 -0.225715,0.182908 -0.587639,0.249066 -0.361923,0.06616 -0.883405,0.06616 h -1.432127 v -0.708281 z m 0.478673,-1.3620774 q 0.179016,0 0.35414,-0.031133 0.179016,-0.035025 0.358032,-0.085616 Q 17.919935,8.495585 17.834319,8.2114945 17.752594,7.927404 17.589145,7.7367131 17.425695,7.5421306 17.15328,7.5421306 q -0.241282,0 -0.389165,0.1517744 -0.143991,0.1517744 -0.210149,0.3619235 -0.06227,0.2101491 -0.06227,0.389165 0,0.2685239 0.190691,0.3580318 0.194583,0.085616 0.556506,0.085616 z M 13.849269,8.6590343 q 0,0.7316302 0.155666,1.4360187 0.155666,0.700497 0.455323,1.27257 0.303548,0.572073 0.747197,0.910646 L 15.059572,12.75305 Q 14.627599,12.519551 14.27735,12.103145 13.927102,11.686738 13.674144,11.138016 13.425079,10.593185 13.288871,9.9588455 13.152663,9.3245065 13.152663,8.6590343 q 0,-0.6654722 0.136208,-1.2998112 Q 13.425079,6.724884 13.674144,6.180053 13.927102,5.6313303 14.27735,5.2149237 14.627599,4.7985171 15.059572,4.5650181 l 0.147883,0.4747813 Q 14.763806,5.378373 14.460258,5.9504456 14.160601,6.5225182 14.004935,7.2269069 13.849269,7.927404 13.849269,8.6590343 Z m -0.292404,0 q 0,-0.7316303 -0.155666,-1.4321274 Q 13.249425,6.5225182 12.945876,5.9504456 12.642327,5.378373 12.198679,5.0397994 l 0.147883,-0.4747813 q 0.431973,0.233499 0.782221,0.6499056 0.350249,0.4164066 0.599315,0.9651293 0.252957,0.544831 0.389165,1.1791701 0.136207,0.634339 0.136207,1.2998112 0,0.6654722 -0.136207,1.2998112 -0.136208,0.6343395 -0.389165,1.1791705 -0.249066,0.548722 -0.599315,0.965129 -0.350248,0.416406 -0.782221,0.649905 l -0.147883,-0.474781 q 0.443648,-0.338573 0.747197,-0.910646 0.303549,-0.572073 0.455323,-1.27257 0.155666,-0.7043885 0.155666,-1.4360187 z M 12.330499,10.959 q -0.268524,0 -0.451432,-0.07005 -0.179016,-0.07394 -0.280199,-0.155666 -0.05837,0.509806 -0.28409,0.984587 -0.221824,0.478673 -0.669364,0.832814 -0.44754,0.35414 -1.1830617,0.498131 L 9.2327449,12.433935 q 0.9495631,-0.206257 1.3387281,-0.723847 0.389165,-0.513698 0.389165,-1.218086 0,-0.330791 -0.07394,-0.6927142 -0.07005,-0.3658151 -0.198474,-0.7433052 l 0.646014,-0.2179324 0.210149,0.8133549 q 0.08562,0.3268986 0.272416,0.4631069 0.186799,0.136207 0.470889,0.136207 h 0.147883 V 10.959 Z M 9.0148118,6.3902021 9.5596428,6.9311415 9.0148118,7.4798642 8.4738724,6.9311415 Z m -1.2920279,0 0.544831,0.5409394 L 7.7227839,7.4798642 7.1818445,6.9311415 Z M 7.3024856,10.250719 H 8.100274 q 0.389165,0 0.5253728,-0.225715 0.1400994,-0.2257162 0.1400994,-0.5720731 0,-0.2529572 -0.0467,-0.5409394 -0.0467,-0.2879821 -0.1011829,-0.5798559 L 9.2950106,8.160903 q 0.066158,0.3113321 0.1050746,0.6109891 0.038917,0.2996571 0.038917,0.5720726 0,0.4669981 -0.1284245,0.8328133 Q 9.1821528,10.542593 8.890279,10.752742 8.5984052,10.959 8.1080573,10.959 H 7.3024856 Z M 1.3956755,10.959 h -0.634339 v -0.708281 h 0.6265557 q 0.389165,0 0.5253728,-0.225715 0.1400994,-0.2257162 0.1400994,-0.5720731 0,-0.2529572 -0.0467,-0.5409394 -0.0467,-0.2879821 -0.1011829,-0.5798559 L 2.5826289,8.160903 q 0.066158,0.3113321 0.1050745,0.6109891 0.038917,0.2996571 0.038917,0.5720726 0,0.4669981 -0.1284244,0.8328133 Q 2.469771,10.542593 2.1778972,10.752742 1.8860234,10.959 1.3956755,10.959 Z M 1.8704568,6.3668522 2.4347461,6.9311415 1.8704568,7.4954308 1.3061675,6.9311415 Z M -0.65133119,5.6001971 h 0.65768891 v 3.7204177 q 0,0.5487227 0.20236582,0.7394132 0.20236582,0.190691 0.61098911,0.190691 H 0.9170039 V 10.959 h -0.0972912 q -0.74330522,0 -1.10912036,-0.393057 -0.36192348,-0.396948 -0.36192348,-1.2492198 z M -3.0952884,8.1142032 q 0.6070974,0 1.023504,0.5448311 0.4164066,0.5409394 0.4319732,1.5916847 h 0.4708897 V 10.959 h -0.5331561 q -0.085616,0.447539 -0.3424652,0.863946 -0.2529573,0.420298 -0.7549802,0.739414 -0.5020229,0.323007 -1.3309444,0.482564 L -4.3600748,12.426152 Q -2.5971572,12.087578 -2.3169584,10.959 h -0.6148807 q -1.4749355,0 -1.4749355,-1.194737 0,-0.3813818 0.1517744,-0.7627635 0.155666,-0.3813817 0.4475398,-0.634339 0.2957654,-0.2529573 0.712172,-0.2529573 z m 0.1245328,2.1365158 h 0.6888221 q -0.0467,-0.7510882 -0.2490656,-1.0935535 -0.1984742,-0.3424652 -0.5759643,-0.3424652 -0.2490656,0 -0.3930567,0.1595577 -0.1400994,0.1595576 -0.1984741,0.37749 -0.054483,0.2140408 -0.054483,0.3891651 0,0.2724159 0.1829075,0.3930569 0.1867993,0.116749 0.5993142,0.116749 z m -4.5687975,1.303703 0.5642893,0.564289 -0.5642893,0.56429 -0.5642893,-0.56429 z m -2.6696719,-1.303703 h 0.6615803 q 0.4553231,0 0.8367048,-0.08172 0.3813818,-0.08173 0.7433053,-0.2257161 0.3658151,-0.1439911 0.7627634,-0.3385736 0.40084,-0.1984742 0.8950796,-0.4241899 Q -6.5860988,9.0793325 -6.8818642,8.962583 -7.1776296,8.8419418 -7.4461535,8.7368673 -7.7107857,8.6317927 -7.9092599,8.5656347 q -0.1984742,-0.07005 -0.2801988,-0.07005 -0.2373907,0 -0.4202983,0.1400994 -0.1790159,0.1362077 -0.3307902,0.3307903 l -0.1050746,0.1323161 -0.5954225,-0.2918738 0.058375,-0.0934 q 0.2568489,-0.4164066 0.5954225,-0.6654722 0.3424652,-0.2529573 0.8016799,-0.2529573 0.1906909,0 0.4592148,0.097291 0.2724155,0.097291 0.5915308,0.2451739 0.3191154,0.1439911 0.6615806,0.2957655 0.3424652,0.1478827 0.6849305,0.2529572 0.3424652,0.1011829 0.6537972,0.1128579 v 0.6732555 q -0.2490656,0.027242 -0.6382306,0.1829076 -0.3852734,0.1517743 -1.0040458,0.4786732 -0.4981313,0.264632 -0.9262128,0.451431 -0.4241899,0.182908 -0.867838,0.280199 -0.4397565,0.0934 -0.9884792,0.0934 h -0.6499054 z"
         id="path10" />
    </g>
    <path
       id="path3"
       d="m 51.71225,-45.75336 h -103.4245 c -2.75117,0 -4.98138,-2.23021 -4.98138,-4.98138 v -24.05333 c 0,-2.75118 2.23021,-4.98138 4.98138,-4.98138 h 103.4245 c 2.75117,0 4.98138,2.2302 4.98138,4.98138 v 24.05333 c 0,2.75117 -2.23021,4.98138 -4.98138,4.98138 z"
       style="fill:#e6f0fa;fill-opacity:1;fill-rule:nonzero;stroke:#0055a4;stroke-width:0.3985;stroke-linecap:butt;stroke-linejoin:miter;stroke-miterlimit:10;stroke-dasharray:none;stroke-opacity:1"
       transform="matrix(1.3333333,0,0,-1.3333333,247.49333,42.865333)" />
    <g
       id="text3"
       transform="matrix(1.3333333,0,0,1.3333333,209.91733,121.576)"
       aria-label="یارﻮﺷﯽﻠﻣناﺮﯾاﺎﺿر)(یﻮﻠﻬﭘ">
      <path
         style="font-size:8.9664px;font-family:Vazirmatn"
         d="m 46.663142,-0.79681876 h 0.950053 q 0.437812,0 0.591047,-0.25393124 0.157612,-0.2539313 0.157612,-0.6435844 0,-0.2845781 -0.05254,-0.6085594 -0.05254,-0.3239812 -0.113832,-0.6523406 l 0.761794,-0.1926375 q 0.07443,0.35025 0.11821,0.6873656 0.04378,0.3371156 0.04378,0.6435844 0,0.525375 -0.144478,0.93691876 -0.144478,0.41154376 -0.472838,0.64796251 Q 48.173595,0 47.621951,0 h -0.958809 z m 1.580503,1.49294065 0.612937,0.60855941 -0.612937,0.6173156 -0.60856,-0.6173156 z m -1.453538,0 0.612938,0.60855941 -0.612938,0.6173156 -0.608559,-0.6173156 z M 45.082638,-6.0286782 h 0.739903 v 4.1854875 q 0,0.6173157 0.227662,0.8318438 0.227663,0.21452814 0.687366,0.21452814 h 0.109453 V 0 H 46.737569 Q 45.901347,0 45.489803,-0.44219063 45.082638,-0.88875939 45.082638,-1.8475688 Z m -4.142861,8.3841095 -0.25831,-0.6961219 q 1.068263,-0.2320406 1.506075,-0.81433126 0.437813,-0.57791251 0.437813,-1.37035315 0,-0.37214063 -0.08318,-0.77930629 -0.07881,-0.4115437 -0.223285,-0.8362219 l 0.726769,-0.245175 q 0.315225,0.8975157 0.315225,1.72935944 0,0.73114689 -0.258309,1.35284065 Q 42.848639,1.3221938 42.31013,1.7556282 41.775999,2.1934407 40.939777,2.3554313 Z m -2.285381,-5.5558407 q 0.682987,0 1.151446,0.6129375 0.46846,0.6085594 0.485972,1.79065314 h 0.529753 V 0 H 40.221764 Q 40.125446,0.50348438 39.836489,0.97194377 39.551911,1.4447813 38.987133,1.8037875 38.422355,2.1671719 37.489814,2.346675 L 37.231505,1.6505532 Q 39.214796,1.2696563 39.530021,0 h -0.691744 q -1.65931,0 -1.65931,-1.3440844 0,-0.4290563 0.170747,-0.8581125 0.175125,-0.4290563 0.503485,-0.7136344 0.332737,-0.2845781 0.801197,-0.2845781 z m 0.1401,2.40359064 h 0.774928 q -0.05254,-0.84497814 -0.2802,-1.23025314 -0.223285,-0.385275 -0.647963,-0.385275 -0.2802,0 -0.44219,0.1795031 -0.157613,0.1795031 -0.223285,0.4246781 -0.06129,0.2407969 -0.06129,0.4378126 0,0.3064687 0.205772,0.44219058 0.21015,0.13134376 0.674232,0.13134376 z m -5.218725,-4.96041574 0.591047,0.5910469 -0.591047,0.5910469 -0.591047,-0.5910469 z m 0.74866,1.1076657 0.591047,0.5910469 -0.591047,0.5910468 -0.591047,-0.5910468 z m -1.497319,0 0.591047,0.5910469 -0.591047,0.5910468 -0.591047,-0.5910468 z M 32.638853,0 q -0.503485,0 -0.779307,-0.17074688 -0.271443,-0.175125 -0.433434,-0.49910626 -0.205772,0.32398126 -0.525375,0.49910626 Q 30.581134,0 29.990087,0 h -0.402788 v -0.79681876 h 0.411544 q 0.5604,0 0.81871,-0.20577184 0.258309,-0.21015 0.258309,-0.7617938 0,-0.1138313 -0.01313,-0.2670656 -0.0088,-0.1576125 -0.03065,-0.4378125 l 0.731147,-0.091941 0.07005,0.9150282 q 0.02627,0.3677625 0.223284,0.6085594 0.201394,0.24079684 0.591047,0.24079684 0.464081,0 0.63045,-0.24955314 0.166369,-0.2495531 0.166369,-0.7180125 0,-0.1138313 -0.01314,-0.2714438 -0.0088,-0.1576125 -0.03065,-0.4334343 l 0.731147,-0.091941 0.07005,0.9150282 q 0.02189,0.3546281 0.18826,0.6041812 0.166368,0.24517504 0.538509,0.24517504 0.363384,0 0.499106,-0.27144374 0.135722,-0.2714438 0.135722,-0.6348282 0,-0.3283593 -0.06567,-0.6610968 -0.06129,-0.3327375 -0.109453,-0.5385094 l 0.74866,-0.2013938 q 0.07881,0.2933344 0.126965,0.6260719 0.04816,0.3283594 0.04816,0.6567188 0,0.4728375 -0.131344,0.88875936 -0.131344,0.41592188 -0.433435,0.67423126 Q 35.449609,-0.00437813 34.93299,0 q -0.4203,0 -0.678609,-0.175125 -0.25831,-0.17512501 -0.4203,-0.49472814 -0.245175,0.35462813 -0.547266,0.51224064 Q 32.989103,0 32.638853,0 Z m -3.362996,2.2547344 q -0.945675,0 -1.514831,-0.3458719 -0.564778,-0.3458718 -0.81871,-0.92378436 -0.249553,-0.57353438 -0.249553,-1.26090002 0,-0.2977125 0.04378,-0.68736564 0.04816,-0.38965308 0.214529,-0.88875938 l 0.696121,0.2583094 q -0.126965,0.4378125 -0.166368,0.77492811 -0.03503,0.33711563 -0.03503,0.56915626 0,0.47283751 0.166368,0.86249064 0.166369,0.38965309 0.564779,0.62169379 0.402787,0.2320406 1.098909,0.2320406 0.656719,0 1.125178,-0.1619906 0.472838,-0.1619907 0.722391,-0.38527503 0.253931,-0.22328438 0.253931,-0.40716564 0,-0.21015 -0.183881,-0.35900625 -0.179503,-0.14885625 -0.586669,-0.14885625 h -0.647962 q -0.08756,0 -0.126966,-0.07442813 -0.0394,-0.07880625 -0.07443,-0.20139375 l -0.11821,-0.42030001 q -0.0044,-0.035025 0.01751,-0.0656719 0.02189,-0.035025 0.07881,-0.035025 h 2.42986 v 0.79681877 h -0.179504 q 0.06567,0.13134375 0.08319,0.24955312 0.02189,0.11820938 0.02189,0.24517501 0,0.28895625 -0.170746,0.59542504 -0.166369,0.3108468 -0.516619,0.5735344 -0.345872,0.2626875 -0.875625,0.4246781 -0.529753,0.1619906 -1.252144,0.1619906 z m -4.693349,-4.1723532 v -4.1110594 h 0.739903 v 4.1241938 q 0,0.4815938 0.188259,0.7968188 0.192638,0.31084684 0.696122,0.31084684 h 0.1401 V 0 h -0.131344 q -0.49035,0 -0.779306,-0.17074688 -0.288956,-0.17074688 -0.459703,-0.49472813 -0.144478,0.21452813 -0.293334,0.36338438 -0.144479,0.14885625 -0.372141,0.2276625 Q 24.08778,0 23.698126,0 h -0.376518 v -0.79681876 h 0.367762 q 0.367763,0 0.556022,-0.14447813 0.192638,-0.14885621 0.262688,-0.40278751 0.07443,-0.2539313 0.07443,-0.5735344 z m -2.985883,2.01831568 q -0.437813,0 -0.809953,-0.18825938 Q 20.418909,-0.2802 20.0205,-0.66547501 19.735921,-0.34587188 19.473234,-0.17074688 19.210546,0 18.733331,0 h -0.192638 v -0.79681876 h 0.170747 q 0.293335,0 0.494728,-0.16636876 0.201394,-0.17074688 0.359007,-0.43781248 0.157612,-0.2670657 0.310846,-0.5647782 0.157613,-0.3020906 0.35025,-0.5691562 0.192638,-0.2670656 0.464082,-0.4334344 0.275822,-0.1707469 0.678609,-0.1707469 0.485972,0 0.844978,0.2364188 0.363385,0.2320406 0.5604,0.6260719 0.201394,0.3940312 0.201394,0.8800031 0,0.71363439 -0.363384,1.10766565 -0.359007,0.38965313 -1.015725,0.38965313 z m -0.21015,-2.46488438 q -0.218907,0 -0.39841,0.1488562 -0.179503,0.1444781 -0.323981,0.3765188 -0.144478,0.2320406 -0.258309,0.4815937 0.262687,0.2758219 0.542887,0.45094691 0.359006,0.23204063 0.639206,0.23204063 0.647963,0 0.647963,-0.65234064 0,-0.455325 -0.227663,-0.7442813 -0.223284,-0.2933343 -0.621693,-0.2933343 z M 19.100498,0 h -0.713634 v -0.79681876 h 0.704878 q 0.437812,0 0.591047,-0.25393124 0.157612,-0.2539313 0.157612,-0.6435844 0,-0.2845781 -0.05254,-0.6085594 -0.05254,-0.3239812 -0.113831,-0.6523406 l 0.761793,-0.1926375 q 0.07443,0.35025 0.11821,0.6873656 0.04378,0.3371156 0.04378,0.6435844 0,0.525375 -0.144478,0.93691876 -0.144478,0.41154376 -0.472838,0.64796251 Q 19.652142,0 19.100498,0 Z m 0.534131,-5.1661876 0.634829,0.6348282 -0.634829,0.6348281 -0.634828,-0.6348281 z m -2.837025,-0.8624906 h 0.739903 v 4.1854875 q 0,0.6173157 0.227662,0.8318438 0.227663,0.21452814 0.687366,0.21452814 h 0.109453 V 0 H 18.452535 Q 17.616313,0 17.204769,-0.44219063 16.797604,-0.88875939 16.797604,-1.8475688 Z M 15.496357,0 q -0.302091,0 -0.507863,-0.07880625 -0.201394,-0.08318438 -0.315225,-0.175125 -0.06567,0.57353438 -0.319603,1.10766564 -0.249553,0.53850941 -0.753037,0.93691881 -0.503485,0.3984093 -1.33095,0.5604 l -0.25831,-0.6917438 q 1.068263,-0.2320406 1.506075,-0.81433126 0.437813,-0.57791251 0.437813,-1.37035315 0,-0.37214063 -0.08319,-0.77930629 -0.07881,-0.4115437 -0.223284,-0.8362219 l 0.726769,-0.245175 0.236418,0.9150282 q 0.09632,0.3677625 0.306469,0.52099686 0.21015,0.15323438 0.529753,0.15323438 h 0.166369 V 0 Z M 9.1743436,-0.79681876 h 0.9500534 q 0.437812,0 0.591047,-0.25393124 0.157612,-0.2539313 0.157612,-0.6435844 0,-0.2845781 -0.05254,-0.6085594 -0.05254,-0.3239812 -0.113832,-0.6523406 l 0.761794,-0.1926375 q 0.07443,0.35025 0.118209,0.6873656 0.04378,0.3371156 0.04378,0.6435844 0,0.525375 -0.144478,0.93691876 -0.144479,0.41154376 -0.472838,0.64796251 Q 10.684797,0 10.133153,0 H 9.1743436 Z m 1.5805034,1.49294065 0.612937,0.60855941 -0.612937,0.6173156 -0.60856,-0.6173156 z m -1.4535378,0 L 9.9142467,1.3046813 9.3013092,1.9219969 8.6927498,1.3046813 Z m -0.7005,-6.72480009 v 6.02430007 H 7.860906 V -6.0286782 Z"
         id="path11" />
      <path
         style="font-size:7.9701px;font-family:Vazirmatn"
         d="m 45.086375,5.6001971 h 0.657689 v 3.7204177 q 0,0.5487227 0.202366,0.7394132 0.202366,0.190691 0.610989,0.190691 h 0.09729 V 10.959 h -0.09729 q -0.743305,0 -1.109121,-0.393057 -0.361923,-0.396948 -0.361923,-1.2492198 z M 42.428382,5.9270957 42.992671,6.491385 42.428382,7.0556743 41.864092,6.491385 Z m -2.541248,4.2029823 q 0.692714,-1.1830616 1.362078,-1.7434593 0.669363,-0.5642893 1.338727,-0.5642893 0.443648,0 0.786114,0.1945826 0.346356,0.1906908 0.540939,0.5214811 0.194583,0.3307903 0.194583,0.7471969 -0.0039,0.852271 -0.716064,1.264786 Q 42.681339,10.959 41.237537,10.959 h -0.206258 q -0.82503,0 -1.257003,-0.155666 -0.431973,-0.155666 -0.610989,-0.435865 -0.225716,0.30744 -0.509806,0.451431 -0.280199,0.1401 -0.747197,0.1401 h -0.159558 l 0.0039,-0.708281 h 0.155666 q 0.544831,0 0.73163,-0.229607 0.190691,-0.2334991 0.190691,-0.6732556 0,-0.1867992 -0.01557,-0.3463569 -0.01167,-0.1595577 -0.01946,-0.3424652 l 0.649906,-0.077833 0.05837,0.9106462 q 0.01946,0.2607405 0.108966,0.4514314 0.08951,0.1867991 0.276307,0.1867991 z m 2.731938,-1.5994682 q -0.937887,0 -2.027549,1.7201092 h 0.630447 q 1.10912,0 1.653951,-0.221824 0.544831,-0.2218239 0.544831,-0.7043885 0,-0.3424652 -0.221824,-0.568181 -0.217932,-0.2257157 -0.579856,-0.2257157 z m -7.961321,4.5220982 -0.229608,-0.618773 q 0.949563,-0.206257 1.338728,-0.723847 0.389165,-0.513698 0.389165,-1.218086 0,-0.330791 -0.07394,-0.6927142 -0.07005,-0.3658151 -0.198475,-0.7433052 l 0.646014,-0.2179324 q 0.280199,0.7977883 0.280199,1.5372018 0,0.649906 -0.229607,1.20252 -0.225716,0.556506 -0.704389,0.941779 -0.474781,0.389165 -1.218086,0.533157 z M 32.65355,8.6590343 q 0,0.7316302 0.155666,1.4360187 0.155666,0.700497 0.455323,1.27257 0.303549,0.572073 0.747197,0.910646 L 33.863853,12.75305 Q 33.43188,12.519551 33.081631,12.103145 32.731383,11.686738 32.478426,11.138016 32.22936,10.593185 32.093152,9.9588455 31.956944,9.3245065 31.956944,8.6590343 q 0,-0.6654722 0.136208,-1.2998112 Q 32.22936,6.724884 32.478426,6.180053 32.731383,5.6313303 33.081631,5.2149237 33.43188,4.7985171 33.863853,4.5650181 l 0.147883,0.4747813 Q 33.568088,5.378373 33.264539,5.9504456 32.964882,6.5225182 32.809216,7.2269069 32.65355,7.927404 32.65355,8.6590343 Z m -0.292402,0 q 0,-0.7316303 -0.155666,-1.4321274 Q 32.053708,6.5225182 31.750159,5.9504456 31.44661,5.378373 31.002962,5.0397994 l 0.147883,-0.4747813 q 0.431973,0.233499 0.782222,0.6499056 0.350248,0.4164066 0.599314,0.9651293 0.252957,0.544831 0.389165,1.1791701 0.136207,0.634339 0.136207,1.2998112 0,0.6654722 -0.136207,1.2998112 -0.136208,0.6343395 -0.389165,1.1791705 -0.249066,0.548722 -0.599314,0.965129 -0.350249,0.416406 -0.782222,0.649905 l -0.147883,-0.474781 q 0.443648,-0.338573 0.747197,-0.910646 0.303549,-0.572073 0.455323,-1.27257 0.155666,-0.7043885 0.155666,-1.4360187 z M 27.9091,12.924283 q -0.840597,0 -1.346511,-0.30744 -0.502023,-0.307441 -0.727739,-0.821139 -0.221824,-0.509806 -0.221824,-1.120795 0,-0.412515 0.08562,-0.844488 0.08562,-0.4358648 0.233499,-0.8483797 l 0.618773,0.2490656 q -0.112858,0.3580318 -0.190691,0.7355219 -0.07783,0.3774902 -0.07783,0.7316302 0,0.420298 0.147883,0.766655 0.151774,0.346357 0.505914,0.552615 0.35414,0.206257 0.972913,0.206257 0.552614,0 0.988479,-0.140099 0.435865,-0.136208 0.688822,-0.358032 0.252957,-0.217933 0.252957,-0.463107 0,-0.124532 -0.07394,-0.233499 -0.07394,-0.108966 -0.268524,-0.108966 h -0.630447 q -0.575964,0 -0.809464,-0.276307 -0.229607,-0.280199 -0.229607,-0.7744385 0,-0.5136978 0.210149,-0.9417794 0.210149,-0.4319731 0.599314,-0.6888221 0.389165,-0.2568489 0.922322,-0.2568489 0.202365,0 0.424189,0.054483 0.225716,0.054483 0.451432,0.2062575 l -0.221824,0.5915308 q -0.307441,-0.155666 -0.653797,-0.155666 -0.49424,0 -0.774439,0.3463569 -0.276307,0.3463569 -0.276307,0.8444881 0,0.1829075 0.07394,0.2685235 0.07394,0.08173 0.299657,0.08173 h 0.653798 q 0.537047,0 0.73163,0.291874 0.198474,0.287982 0.198474,0.735522 0,0.431973 -0.295765,0.813355 -0.295766,0.385273 -0.867838,0.622664 -0.568181,0.241282 -1.393211,0.241282 z M 23.379218,8.1142032 q 0.607098,0 1.023504,0.5448311 0.416407,0.5409394 0.431974,1.5916847 h 0.470889 V 10.959 h -0.533156 q -0.08562,0.447539 -0.342465,0.863946 -0.252957,0.420298 -0.75498,0.739414 -0.502023,0.323007 -1.330945,0.482564 L 22.114432,12.426152 Q 23.87735,12.087578 24.157549,10.959 h -0.614881 q -1.474936,0 -1.474936,-1.194737 0,-0.3813818 0.151775,-0.7627635 0.155666,-0.3813817 0.447539,-0.634339 0.295766,-0.2529573 0.712172,-0.2529573 z m 0.124533,2.1365158 h 0.688822 q -0.0467,-0.7510882 -0.249065,-1.0935535 -0.198474,-0.3424652 -0.575965,-0.3424652 -0.249065,0 -0.393056,0.1595577 -0.1401,0.1595576 -0.198474,0.37749 -0.05448,0.2140408 -0.05448,0.3891651 0,0.2724159 0.182907,0.3930569 0.186799,0.116749 0.599314,0.116749 z M 20.191957,9.2544568 V 5.6001971 h 0.657689 v 3.6659346 q 0,0.4280816 0.167341,0.7082804 0.171232,0.2763069 0.618772,0.2763069 h 0.124533 V 10.959 h -0.11675 q -0.435865,0 -0.692713,-0.151775 -0.256849,-0.151774 -0.408624,-0.439756 -0.128424,0.190691 -0.26074,0.323007 -0.128425,0.132316 -0.330791,0.202366 Q 19.7522,10.959 19.405843,10.959 h -0.334682 v -0.708281 h 0.326899 q 0.326899,0 0.49424,-0.128424 0.171232,-0.1323163 0.233499,-0.358032 0.06616,-0.2257157 0.06616,-0.5098062 z M 15.101678,10.959 v -0.708281 h 0.805572 v -0.07005 q 0,-0.416407 0.07394,-0.8444886 0.07783,-0.4319732 0.241282,-0.7938966 0.16345,-0.3658152 0.428082,-0.5876392 0.268524,-0.2218241 0.649906,-0.2218241 0.494239,0 0.774438,0.3463569 0.280199,0.3463569 0.280199,0.9028629 0,0.3619234 -0.143991,0.712172 -0.143991,0.3502487 -0.393057,0.6382307 -0.249066,0.287982 -0.568181,0.459215 -0.319115,0.171232 -0.669364,0.171232 0.07783,0.326899 0.307441,0.665472 0.229607,0.338574 0.572072,0.560398 0,-1.938042 1.638385,-1.938042 h 0.128424 V 10.959 H 19.09062 q -0.521481,0 -0.786114,0.28409 -0.26074,0.284091 -0.26074,0.961238 0,0.08562 0.0039,0.179016 0.0039,0.09729 0.01168,0.190691 l -0.482564,0.470889 Q 16.915187,12.710242 16.502672,12.16152 16.090157,11.616689 15.961733,10.959 Z m 2.190999,-2.541248 q -0.233499,0 -0.40084,0.233499 -0.167341,0.233499 -0.256849,0.634339 -0.08562,0.3969483 -0.08562,0.891188 v 0.07783 q 0.326899,0 0.595422,-0.175124 0.268524,-0.1751246 0.428082,-0.4631067 0.159558,-0.2918738 0.159558,-0.634339 0,-0.2763072 -0.124533,-0.4202983 Q 17.48726,8.417752 17.292677,8.417752 Z m -4.681655,1.832967 h 0.844488 q 0.389165,0 0.525373,-0.225715 0.140099,-0.2257162 0.140099,-0.5720731 0,-0.2529572 -0.0467,-0.5409394 -0.0467,-0.2879821 -0.101183,-0.5798559 L 14.650247,8.160903 q 0.06616,0.3113321 0.105074,0.6109891 0.03892,0.2996571 0.03892,0.5720726 0,0.4669981 -0.128425,0.8328133 -0.128424,0.365815 -0.420298,0.575964 Q 13.953641,10.959 13.463293,10.959 h -0.852271 z m 1.408777,1.198629 0.525373,0.525372 -0.525373,0.525373 -0.525373,-0.525373 z m -1.330944,0 0.525373,0.525372 -0.525373,0.525373 -0.525373,-0.525373 z m 0.665472,0.984587 0.525373,0.525373 -0.525373,0.525373 -0.525373,-0.525373 z"
         id="path12" />
    </g>
    <path
       id="path5"
       d="M 165.49803,-45.75336 H 62.07353 c -2.75117,0 -4.98138,-2.23021 -4.98138,-4.98138 v -24.05333 c 0,-2.75118 2.23021,-4.98138 4.98138,-4.98138 h 103.4245 c 2.75117,0 4.98139,2.2302 4.98139,4.98138 v 24.05333 c 0,2.75117 -2.23022,4.98138 -4.98139,4.98138 z"
       style="fill:#e6f0fa;fill-opacity:1;fill-rule:nonzero;stroke:#0055a4;stroke-width:0.3985;stroke-linecap:butt;stroke-linejoin:miter;stroke-miterlimit:10;stroke-dasharray:none;stroke-opacity:1"
       transform="matrix(1.3333333,0,0,-1.3333333,247.49333,42.865333)" />
    <g
       id="text5"
       transform="matrix(1.3333333,0,0,1.3333333,346.93467,121.608)"
       aria-label="نﺎﻫاﻮﺧ ﻪﻃوﺮﺸﻣﯽﺘﻨﺳﻞﺴﻧ)(ﻢﯾﺪﻗ">
      <path
         style="font-size:8.9664px;font-family:Vazirmatn"
         d="m 75.519502,-3.7170282 0.634828,0.6348281 -0.634828,0.6348282 -0.634828,-0.6348282 z m 0.05254,4.864097 q 0.731147,0 1.129556,-0.24079691 0.402787,-0.23641875 0.5604,-0.62607189 0.161991,-0.385275 0.161991,-0.82746563 0,-0.52099687 -0.1401,-1.02885937 -0.1401,-0.5078625 -0.262688,-0.8318438 l 0.748659,-0.3020906 q 0.205772,0.5647781 0.310847,1.0989094 0.109453,0.5297531 0.109453,1.01134687 0,0.73990313 -0.275821,1.31343752 Q 77.642893,1.2871688 77.06498,1.61115 q -0.577912,0.3239813 -1.49294,0.3239813 -0.945675,0 -1.514832,-0.3458719 -0.564778,-0.3458719 -0.818709,-0.92378439 -0.249553,-0.57353438 -0.249553,-1.26090002 0,-0.46408129 0.09632,-0.95005319 0.09632,-0.49035 0.262687,-0.9544312 l 0.696122,0.2802 q -0.126966,0.4027875 -0.214528,0.8274656 -0.08756,0.42467816 -0.08756,0.82308754 0,0.47283751 0.166369,0.86249064 0.170747,0.38965313 0.569156,0.62169376 0.39841,0.23204066 1.094532,0.23204066 z m -4.693347,-7.175747 h 0.739903 v 4.1854875 q 0,0.6173157 0.227662,0.8318438 0.227663,0.21452814 0.687366,0.21452814 h 0.109453 V 0 H 72.533624 Q 71.697402,0 71.285858,-0.44219063 70.878693,-0.88875939 70.878693,-1.8475688 Z m -4.557629,2.4736406 0.345872,-0.6479625 q 1.571747,0.7661719 2.342297,1.3703532 0.77055,0.5998031 0.77055,1.225875 0,0.77492814 -0.481594,1.16895939 -0.477215,0.39403126 -1.28279,0.39403126 -0.302091,0 -0.643585,-0.04815938 Q 67.030321,-0.1401 66.723852,-0.21015 q -0.306469,-0.0744281 -0.516619,-0.14447813 -0.380897,0.1401 -0.893137,0.24955313 Q 64.801855,0 64.324639,0 h -0.433434 v -0.79681876 h 0.376519 q 0.288956,0 0.507862,-0.0131344 0.223285,-0.0131344 0.485972,-0.0437812 Q 64.959467,-1.0989094 64.823746,-1.3878656 64.692402,-1.6812 64.692402,-1.9920469 q 0,-0.455325 0.214528,-0.7836844 0.214528,-0.3283594 0.569156,-0.5034844 0.354628,-0.1795031 0.774928,-0.1795031 0.18826,0 0.376519,0.048159 -0.148856,-0.07005 -0.306469,-0.1444782 z m 0.792441,2.71881571 q 0.192637,0.0218906 0.4203,0.0437812 0.227662,0.0175125 0.402787,0.0175125 0.529754,0 0.805575,-0.19701563 0.2802,-0.20139373 0.2802,-0.62169373 0,-0.2145282 -0.245175,-0.4640813 -0.245175,-0.2539312 -0.656718,-0.5209969 -0.407166,-0.2714437 -0.901894,-0.5341312 0.240797,0.1926375 0.385275,0.4640812 0.148856,0.2714438 0.148856,0.5735344 0,0.4115438 -0.166369,0.7048782 -0.16199,0.2889562 -0.472837,0.53413121 z M 65.445439,-2.0008032 q 0,0.2583094 0.214528,0.5166188 0.218907,0.2539313 0.63045,0.4115438 0.788063,-0.3196032 0.788063,-0.9194063 0,-0.3808969 -0.232041,-0.5779125 -0.227662,-0.2013938 -0.551643,-0.2013938 -0.376519,0 -0.612938,0.21015 -0.236419,0.21015 -0.236419,0.5604 z m -2.136524,-4.027875 v 6.02430007 H 62.569012 V -6.0286782 Z m -3.489366,2.8282688 q 0.682988,0 1.151447,0.6129375 0.468459,0.6085594 0.485972,1.79065314 h 0.529753 V 0 H 61.386918 Q 61.290599,0.50348438 61.001643,0.97194377 60.717065,1.4447813 60.152287,1.8037875 59.587508,2.1671719 58.654968,2.346675 L 58.396658,1.6505532 Q 60.379949,1.2696563 60.695174,0 H 60.00343 q -1.659309,0 -1.659309,-1.3440844 0,-0.4290563 0.170747,-0.8581125 0.175125,-0.4290563 0.503484,-0.7136344 0.332738,-0.2845781 0.801197,-0.2845781 z m 0.1401,2.40359064 h 0.774928 q -0.05254,-0.84497814 -0.2802,-1.23025314 -0.223284,-0.385275 -0.647962,-0.385275 -0.2802,0 -0.442191,0.1795031 -0.157612,0.1795031 -0.223284,0.4246781 -0.06129,0.2407969 -0.06129,0.4378126 0,0.3064687 0.205772,0.44219058 0.21015,0.13134376 0.674231,0.13134376 z m -5.415739,-4.76340004 0.634828,0.6348281 -0.634828,0.6348281 -0.634829,-0.6348281 z m -2.727572,4.76340004 h 0.744281 q 0.512241,0 0.941297,-0.0919406 0.429056,-0.0919406 0.836222,-0.25393121 0.411543,-0.1619907 0.858112,-0.3808969 0.450947,-0.2232844 1.006969,-0.4772157 -0.310847,-0.1138312 -0.643584,-0.245175 -0.332738,-0.1357218 -0.634829,-0.2539312 -0.297712,-0.1182094 -0.520996,-0.1926375 -0.223285,-0.078806 -0.315225,-0.078806 -0.267066,0 -0.472838,0.1576125 -0.201394,0.1532344 -0.372141,0.3721407 l -0.118209,0.1488562 -0.669853,-0.3283594 0.06567,-0.105075 q 0.288956,-0.4684593 0.669853,-0.7486594 0.385275,-0.2845781 0.901894,-0.2845781 0.214528,0 0.516618,0.1094531 0.306469,0.1094532 0.665475,0.2758219 0.359007,0.1619907 0.744282,0.3327375 0.385275,0.1663688 0.77055,0.2845782 0.385275,0.1138312 0.735525,0.1269656 v 0.7574156 q -0.2802,0.030647 -0.718013,0.2057719 -0.433434,0.1707469 -1.129556,0.53850938 -0.5604,0.29771251 -1.041994,0.50786251 Q 54.158635,-0.21452813 53.659528,-0.105075 53.1648,0 52.547485,0 H 51.816338 Z M 47.02726,0 q -0.643584,0 -1.002591,-0.30209063 -0.354628,-0.30209063 -0.459703,-0.83184377 -0.253931,0.25393126 -0.551643,0.38965314 -0.293335,0.13572188 -0.661097,0.13572188 -0.626072,0 -1.05075,-0.33711564 -0.424678,-0.33711558 -0.424678,-0.93254068 0,-0.6742312 0.551643,-1.1645812 0.551644,-0.4947282 1.733738,-0.8581125 l -0.03065,-0.21015 0.7005,-0.1401 0.380897,2.6881687 q 0.05254,0.3852751 0.249553,0.57791256 0.201394,0.18825938 0.582291,0.18825938 h 0.135722 V 0 Z m -1.637419,-2.2021969 q 0,-0.1357219 -0.01751,-0.2583094 l -0.109453,-0.7311469 q -0.849357,0.3064688 -1.23901,0.6041813 -0.385275,0.2977125 -0.385275,0.6523406 0,0.2889563 0.197016,0.4378125 0.197016,0.1488563 0.534131,0.1488563 0.25831,0 0.49035,-0.1006969 0.236419,-0.1006969 0.380897,-0.2933344 0.148856,-0.1926375 0.148856,-0.4597031 z m -8.130175,1.40537814 q 0.08318,-0.14010001 0.175125,-0.27582184 0.09194,-0.1401 0.175125,-0.2758219 v -4.6802157 h 0.739903 v 3.6382219 q 0.941297,-1.1339344 1.93951,-1.1339344 0.516618,0 0.901893,0.21015 0.389653,0.21015 0.604182,0.5822907 0.218906,0.3677625 0.218906,0.8493562 -0.0044,0.95880941 -0.809953,1.42289067 Q 40.40316,0 38.783254,0 H 36.515385 V -0.79681876 Z M 40.33311,-2.73195 q -1.05075,0 -2.276625,1.93513124 h 0.709256 q 1.247766,0 1.860703,-0.24955314 0.612938,-0.2495531 0.612938,-0.7924406 0,-0.385275 -0.249553,-0.6392063 Q 40.740275,-2.73195 40.33311,-2.73195 Z m -4.163596,1.98329061 q 0,2.55682509 -2.806378,3.09533439 l -0.25831,-0.6961218 q 1.006969,-0.1926376 1.606772,-0.6435844 0.599803,-0.44656879 0.709257,-1.12517818 -0.166369,0.0525375 -0.385275,0.09194063 -0.218907,0.03940313 -0.385275,0.03940313 -1.598016,0 -1.598016,-1.35721878 0,-0.3239813 0.09632,-0.6479625 0.100697,-0.3283594 0.288956,-0.5998031 0.192637,-0.2758219 0.468459,-0.4421907 0.275822,-0.1663687 0.626072,-0.1663687 0.415922,0 0.722391,0.2057719 0.310847,0.2057718 0.51224,0.5560218 0.201394,0.35025 0.302091,0.7880625 0.100697,0.4378126 0.100697,0.90189381 z m -1.497319,-0.0306469 q 0.385275,0 0.766172,-0.11383125 -0.04378,-0.73552499 -0.271444,-1.12517819 -0.227662,-0.3940312 -0.643584,-0.3940312 -0.288956,0 -0.450947,0.1795031 -0.157612,0.1795031 -0.223284,0.4246781 -0.06129,0.2407969 -0.06129,0.4378126 0,0.3196031 0.218906,0.45532496 0.218906,0.13572188 0.665475,0.13572188 z M 32.453709,0 q -0.30209,0 -0.507862,-0.07880625 -0.201394,-0.08318438 -0.315225,-0.175125 -0.06567,0.57353438 -0.319603,1.10766564 -0.249553,0.53850941 -0.753038,0.93691881 -0.503484,0.3984093 -1.33095,0.5604 L 28.968722,1.6593094 q 1.068262,-0.2320406 1.506075,-0.81433126 0.437812,-0.57791251 0.437812,-1.37035315 0,-0.37214063 -0.08318,-0.77930629 -0.07881,-0.4115437 -0.223284,-0.8362219 l 0.726768,-0.245175 0.236419,0.9150282 q 0.09632,0.3677625 0.306469,0.52099686 0.21015,0.15323438 0.529753,0.15323438 h 0.166369 V 0 Z m -7.101319,-5.7572345 0.591047,0.5910469 -0.591047,0.5910469 -0.591047,-0.5910469 z m 0.74866,1.1076657 0.591047,0.5910469 -0.591047,0.5910468 -0.591047,-0.5910468 z m -1.497319,0 0.591047,0.5910469 -0.591047,0.5910468 -0.591047,-0.5910468 z M 26.709609,0 Q 26.289309,0 26.031,-0.175125 25.77269,-0.35025001 25.6107,-0.66985314 25.365525,-0.31522501 25.063434,-0.1576125 24.765722,0 24.415472,0 23.911987,0 23.636165,-0.17074688 23.364722,-0.34587188 23.202731,-0.66985314 22.996959,-0.34587188 22.677356,-0.17074688 22.357753,0 21.766706,0 h -0.402788 v -0.79681876 h 0.411544 q 0.5604,0 0.81871,-0.20577184 0.258309,-0.21015 0.258309,-0.7617938 0,-0.1138313 -0.01313,-0.2670656 -0.0088,-0.1576125 -0.03065,-0.4378125 l 0.731147,-0.091941 0.07005,0.9150282 q 0.02627,0.3677625 0.223284,0.6085594 0.201394,0.24079684 0.591047,0.24079684 0.464081,0 0.63045,-0.24955314 0.166369,-0.2495531 0.166369,-0.7180125 0,-0.1138313 -0.01313,-0.2714438 -0.0088,-0.1576125 -0.03065,-0.4334343 l 0.731147,-0.091941 0.07005,0.9150282 q 0.02189,0.3546281 0.18826,0.6041812 0.166368,0.24517504 0.538509,0.24517504 0.647962,0 0.647962,-0.96756564 0,-0.1576125 -0.01313,-0.3283594 -0.0088,-0.1707469 -0.03065,-0.4509469 l 0.731147,-0.087563 0.07005,0.9850782 q 0.05254,0.84935624 0.866869,0.84935624 h 0.131344 V 0 H 28.986234 Q 28.526531,0 28.220062,-0.16636875 27.913593,-0.33711563 27.799762,-0.67423126 27.615881,-0.35025001 27.375084,-0.175125 27.138665,0 26.709609,0 Z m -7.070672,0.10069688 q -0.437812,0 -0.809953,-0.18825938 Q 18.461222,-0.2802 18.062812,-0.66547501 17.778234,-0.34587188 17.515547,-0.17074688 17.252859,0 16.775643,0 h -0.192637 v -0.79681876 h 0.170747 q 0.293334,0 0.494728,-0.16636876 0.201394,-0.17074688 0.359006,-0.43781248 0.157613,-0.2670657 0.310847,-0.5647782 0.157613,-0.3020906 0.35025,-0.5691562 0.192638,-0.2670656 0.464081,-0.4334344 0.275822,-0.1707469 0.67861,-0.1707469 0.485972,0 0.844978,0.2364188 0.363384,0.2320406 0.5604,0.6260719 0.201394,0.3940312 0.201394,0.8800031 0,0.71363439 -0.363385,1.10766565 -0.359006,0.38965313 -1.015725,0.38965313 z m -0.21015,-2.46488438 q -0.218906,0 -0.398409,0.1488562 -0.179503,0.1444781 -0.323981,0.3765188 -0.144479,0.2320406 -0.25831,0.4815937 0.262688,0.2758219 0.542888,0.45094691 0.359006,0.23204063 0.639206,0.23204063 0.647963,0 0.647963,-0.65234064 0,-0.455325 -0.227663,-0.7442813 -0.223284,-0.2933343 -0.621694,-0.2933343 z m -3.157222,4.6189219 q -0.945675,0 -1.514832,-0.3458719 -0.564778,-0.3458718 -0.818709,-0.92378436 -0.249553,-0.57353438 -0.249553,-1.26090002 0,-0.2977125 0.04378,-0.68736564 0.04816,-0.38965308 0.214528,-0.88875938 l 0.696122,0.2583094 q -0.126966,0.4378125 -0.166369,0.77492811 -0.03502,0.33711563 -0.03502,0.56915626 0,0.47283751 0.166369,0.86249064 0.166369,0.38965309 0.564778,0.62169379 0.402788,0.2320406 1.09891,0.2320406 0.656718,0 1.125178,-0.1619906 0.472837,-0.1619907 0.72239,-0.38527503 0.253932,-0.22328438 0.253932,-0.40716564 0,-0.21015 -0.183882,-0.35900625 Q 18.00968,0.00437813 17.602515,0.00437813 h -0.647963 q -0.08756,0 -0.126966,-0.07442813 -0.0394,-0.07880625 -0.07443,-0.20139375 l -0.118209,-0.42030001 q -0.0044,-0.035025 0.01751,-0.0656719 0.02189,-0.035025 0.07881,-0.035025 h 2.429859 v 0.79681877 h -0.179503 q 0.06567,0.13134375 0.08318,0.24955312 0.02189,0.11820938 0.02189,0.24517501 0,0.28895625 -0.170747,0.59542504 -0.166369,0.3108468 -0.516619,0.5735344 -0.345872,0.2626875 -0.875625,0.4246781 -0.529753,0.1619906 -1.252143,0.1619906 z m -4.39126,-6.9918657 0.612937,0.6085594 -0.612937,0.6173156 -0.60856,-0.6173156 z m -1.453538,0 0.612938,0.6085594 -0.612938,0.6173156 -0.6085591,-0.6173156 z m -0.6917434,3.94031254 h 0.8318434 q 0.556022,0 0.792441,-0.24955314 0.240797,-0.2495531 0.240797,-0.7661719 0,-0.21015 -0.01313,-0.3984094 -0.0088,-0.1882593 -0.02627,-0.3765187 l 0.731147,-0.087562 0.07005,1.0244812 q 0.05254,0.85373444 0.888759,0.85373444 h 0.09194 V 0 H 13.241902 Q 12.75593,0 12.462595,-0.175125 12.173639,-0.35025001 11.994136,-0.66985314 11.757717,-0.32398126 11.372442,-0.16199063 10.987167,0 10.566867,0 H 9.7350236 Z m -1.6067721,-1.79065314 0.7311469,-0.087562 0.07005,1.0244812 q 0.052537,0.85373444 0.8887594,0.85373444 h 0.091941 V 0 H 9.8094515 Q 9.3234797,0 9.0301453,-0.175125 8.741189,-0.35025001 8.5616859,-0.66985314 8.3252671,-0.32398126 7.9399921,-0.16199063 7.5547171,0 7.1344171,0 h -0.4203 v -0.79681876 h 0.4203 q 0.5560219,0 0.7924407,-0.24955314 0.2407968,-0.2495531 0.2407968,-0.7661719 0,-0.21015 -0.013134,-0.3984094 -0.00876,-0.1882593 -0.026269,-0.3765187 z M 8.2114359,-4.7677782 8.846264,-4.1329501 8.2114359,-3.4981219 7.5766077,-4.1329501 Z M 2.6949983,0 Q 2.1915139,0 1.915692,-0.17074688 1.6442483,-0.34587188 1.4822577,-0.66985314 1.2764858,-0.34587188 0.95688266,-0.17074688 0.63727953,0 0.04623264,0 h -0.40278751 v -0.79681876 h 0.41154376 q 0.56040001,0 0.81870939,-0.20577184 0.25830942,-0.21015 0.25830942,-0.7617938 0,-0.1138313 -0.013134,-0.2670656 -0.00876,-0.1576125 -0.030647,-0.4378125 l 0.7311469,-0.091941 0.07005,0.9150282 q 0.026269,0.3677625 0.2232844,0.6085594 0.2013937,0.24079684 0.5910469,0.24079684 0.4640812,0 0.63045,-0.24955314 0.1663687,-0.2495531 0.1663687,-0.7180125 0,-0.1138313 -0.013134,-0.2714438 -0.00876,-0.1576125 -0.030647,-0.4334343 l 0.7311469,-0.091941 0.07005,0.9150282 q 0.021891,0.3546281 0.1882593,0.6041812 0.1663688,0.24517504 0.5385094,0.24517504 0.3633844,0 0.4991063,-0.27144374 0.1357219,-0.2714438 0.1357219,-0.6348282 0,-0.3283593 -0.065672,-0.6610968 -0.061294,-0.3327375 -0.1094531,-0.5385094 l 0.7486593,-0.2013938 q 0.078806,0.2933344 0.1269657,0.6260719 0.048159,0.3283594 0.048159,0.6567188 0,0.4728375 -0.1313437,0.88875936 Q 6.1055577,-0.51661876 5.8034671,-0.25830938 5.5057546,-0.00437813 4.9891358,0 4.5688358,0 4.3105265,-0.175125 4.0522171,-0.35025001 3.8902265,-0.66985314 3.6450514,-0.31522501 3.3429608,-0.1576125 3.0452483,0 2.6949983,0 Z"
         id="path13" />
      <path
         style="font-size:7.9701px;font-family:Vazirmatn"
         d="m 54.980359,12.889258 q -0.723847,0 -1.17917,-0.26074 -0.455323,-0.256849 -0.669364,-0.719956 -0.214041,-0.463106 -0.214041,-1.074095 0,-0.412515 0.08562,-0.8444883 0.08562,-0.4358648 0.233499,-0.8483798 l 0.618773,0.2490656 q -0.112858,0.3580319 -0.190691,0.7355215 -0.07783,0.377491 -0.07783,0.731631 0,0.630447 0.319115,0.980696 0.323007,0.350248 1.074096,0.350248 0.696605,0 1.046854,-0.381382 0.35414,-0.381381 0.35414,-1.229761 V 5.6001971 h 0.657689 v 3.7671175 q 0,0.4358649 0.159558,0.6615804 0.163449,0.221824 0.634339,0.221824 h 0.116749 V 10.959 h -0.108966 q -0.342465,0 -0.490348,-0.06616 -0.147883,-0.07005 -0.315224,-0.229608 0,1.113012 -0.525373,1.669518 -0.525372,0.556506 -1.529418,0.556506 z M 50.477718,10.959 q -0.373598,0 -0.603205,-0.155666 -0.229608,-0.155666 -0.373599,-0.439757 -0.217932,0.315224 -0.486456,0.455323 -0.264632,0.1401 -0.575964,0.1401 -0.44754,0 -0.692714,-0.151775 -0.241282,-0.155666 -0.385273,-0.443648 -0.182908,0.287982 -0.466999,0.443648 Q 46.609418,10.959 46.084045,10.959 h -0.358032 v -0.708281 h 0.365815 q 0.498132,0 0.727739,-0.182907 0.229607,-0.1867995 0.229607,-0.6771475 0,-0.1011829 -0.01167,-0.2373906 -0.0078,-0.1400994 -0.02724,-0.3891651 l 0.649906,-0.081725 0.06227,0.8133549 q 0.02335,0.3268986 0.198474,0.5409389 0.179016,0.214041 0.525373,0.214041 0.412515,0 0.560398,-0.221824 0.147882,-0.2218239 0.147882,-0.6382305 0,-0.1011829 -0.01167,-0.2412823 -0.0078,-0.1400994 -0.02724,-0.3852734 l 0.649905,-0.081725 0.06227,0.8133549 q 0.01946,0.3152237 0.167341,0.5370479 0.147883,0.217932 0.478673,0.217932 0.575964,0 0.575964,-0.8600545 0,-0.1400994 -0.01167,-0.2918737 -0.0078,-0.1517744 -0.02724,-0.40084 l 0.649905,-0.077833 0.06227,0.8756213 q 0.0467,0.7549799 0.770546,0.7549799 h 0.11675 V 10.959 h -0.108966 q -0.408624,0 -0.681039,-0.147883 -0.272416,-0.151774 -0.373599,-0.451432 -0.163449,0.287983 -0.37749,0.443649 Q 50.8591,10.959 50.477718,10.959 Z m -6.390088,0 h -0.634339 v -0.708281 h 0.626556 q 0.389165,0 0.525373,-0.225715 0.140099,-0.2257162 0.140099,-0.5720731 0,-0.2529572 -0.0467,-0.5409394 -0.0467,-0.2879821 -0.101183,-0.5798559 L 45.274583,8.160903 q 0.06616,0.3113321 0.105075,0.6109891 0.03892,0.2996571 0.03892,0.5720726 0,0.4669981 -0.128425,0.8328133 -0.128424,0.365815 -0.420298,0.575964 Q 44.577978,10.959 44.08763,10.959 Z m 0.474781,-4.5921478 0.56429,0.5642893 -0.56429,0.5642893 -0.564289,-0.5642893 z m -2.541247,2.2921821 q 0,0.7316302 0.155666,1.4360187 0.155666,0.700497 0.455323,1.27257 0.303548,0.572073 0.747197,0.910646 l -0.147883,0.474781 q -0.431973,-0.233499 -0.782222,-0.649905 -0.350248,-0.416407 -0.603206,-0.965129 -0.249065,-0.544831 -0.385273,-1.1791705 -0.136208,-0.634339 -0.136208,-1.2998112 0,-0.6654722 0.136208,-1.2998112 Q 41.596974,6.724884 41.846039,6.180053 42.098997,5.6313303 42.449245,5.2149237 42.799494,4.7985171 43.231467,4.5650181 L 43.37935,5.0397994 Q 42.935701,5.378373 42.632153,5.9504456 42.332496,6.5225182 42.17683,7.2269069 42.021164,7.927404 42.021164,8.6590343 Z m -0.292404,0 q 0,-0.7316303 -0.155666,-1.4321274 Q 41.42132,6.5225182 41.117771,5.9504456 40.814222,5.378373 40.370574,5.0397994 l 0.147883,-0.4747813 q 0.431973,0.233499 0.782221,0.6499056 0.350249,0.4164066 0.599315,0.9651293 0.252957,0.544831 0.389165,1.1791701 0.136207,0.634339 0.136207,1.2998112 0,0.6654722 -0.136207,1.2998112 -0.136208,0.6343395 -0.389165,1.1791705 -0.249066,0.548722 -0.599315,0.965129 -0.350248,0.416406 -0.782221,0.649905 l -0.147883,-0.474781 q 0.443648,-0.338573 0.747197,-0.910646 0.303549,-0.572073 0.455323,-1.27257 0.155666,-0.7043885 0.155666,-1.4360187 z m -2.233807,0.8094632 q 0.0467,0.334682 0.241282,0.5603975 0.198474,0.221824 0.455323,0.221824 h 0.105075 V 10.959 h -0.105075 q -0.237391,0 -0.47089,-0.101183 -0.229607,-0.101183 -0.381381,-0.342466 -0.132316,0.249066 -0.37749,0.377491 -0.245174,0.128424 -0.626556,0.128424 -0.229607,0 -0.466998,-0.07394 -0.233499,-0.07394 -0.451432,-0.167341 -0.21404,-0.09729 -0.393056,-0.171233 -0.179016,-0.07394 -0.299657,-0.07394 -0.217933,0 -0.330791,0.143991 -0.108966,0.140099 -0.147882,0.478673 -0.03502,0.338573 -0.03502,0.937888 0,0.264632 0.0039,0.470889 0.0078,0.210149 0.01946,0.412515 0.01557,0.202366 0.03113,0.459215 h -0.669364 q -0.01946,-0.358032 -0.03113,-0.673256 -0.01167,-0.311332 -0.01167,-0.630447 0,-0.435865 0.02335,-0.828921 0.02724,-0.393057 0.120641,-0.708281 0.09729,-0.319115 0.299657,-0.525373 0.202366,-0.2101488 0.556506,-0.2763068 0.217932,-0.7588718 0.568181,-1.190845 0.35414,-0.4358649 0.965129,-0.4358649 0.358032,0 0.657689,0.1712326 0.299657,0.167341 0.498131,0.4631064 0.202366,0.2918738 0.252958,0.6654722 z m -0.630448,0.3307903 q 0,-0.40084 -0.21404,-0.6693638 -0.214041,-0.2724156 -0.548723,-0.2724156 -0.241282,0 -0.408623,0.1517744 -0.167341,0.1478827 -0.280199,0.3930567 -0.112858,0.2412823 -0.198474,0.5175895 0.42419,0.186799 0.704388,0.295765 0.284091,0.105075 0.42419,0.105075 0.256849,0 0.389165,-0.140099 0.132316,-0.143992 0.132316,-0.3813822 z m -6.265556,0.4514312 h 0.844488 q 0.389165,0 0.525373,-0.225715 0.1401,-0.2257162 0.1401,-0.5720731 0,-0.2529572 -0.0467,-0.5409394 -0.0467,-0.2879821 -0.101183,-0.5798559 L 34.638174,8.160903 q 0.06616,0.3113321 0.105075,0.6109891 0.03892,0.2996571 0.03892,0.5720726 0,0.4669981 -0.128424,0.8328133 -0.128425,0.365815 -0.420299,0.575964 Q 33.941569,10.959 33.451221,10.959 h -0.852272 z m 1.404886,1.327053 0.544831,0.540939 -0.544831,0.548723 -0.540939,-0.548723 z m -1.292028,0 0.544831,0.540939 -0.544831,0.548723 -0.540939,-0.548723 z M 31.073422,9.5424389 q 0,-0.1011829 -0.0467,-0.2607406 -0.04281,-0.1634493 -0.105075,-0.3035487 l -0.688822,-1.5605518 0.607097,-0.2840905 0.883405,2.0781413 q 0.179016,0.4202983 0.311332,0.646014 0.136208,0.2257154 0.264632,0.3113324 0.132316,0.08172 0.299657,0.08172 h 0.16345 V 10.959 h -0.16345 q -0.30744,0 -0.502022,-0.07394 -0.190691,-0.07394 -0.330791,-0.221824 -0.140099,-0.147883 -0.28409,-0.373598 -0.272416,0.342465 -0.696606,0.505914 -0.420298,0.159558 -1.050745,0.159558 -0.272416,0 -0.490348,-0.02335 -0.217933,-0.02724 -0.412515,-0.07394 v -0.704389 q 0.44754,0.105075 0.844488,0.105075 1.397102,0 1.397102,-0.7160641 z M 27.150638,5.1837905 27.695469,5.7247299 27.150638,6.2734526 26.609699,5.7247299 Z m -1.292028,0 0.544831,0.5409394 -0.544831,0.5487227 -0.540939,-0.5487227 z m 0.346357,5.0669285 q 0.439757,0 0.708281,-0.05059 0.272415,-0.05059 0.396948,-0.2218243 0.128424,-0.1751242 0.128424,-0.5409394 -0.19069,0.058375 -0.389165,0.089508 -0.194582,0.031133 -0.420298,0.031133 -1.323161,0 -1.323161,-1.0857704 0,-0.3735985 0.147883,-0.7471969 0.151774,-0.3735984 0.443648,-0.6226641 0.291874,-0.2529572 0.70828,-0.2529572 0.381382,0 0.653798,0.1945825 0.276307,0.1945825 0.451431,0.5253728 0.179016,0.3268986 0.264632,0.7433052 0.08562,0.4125149 0.08562,0.8522714 0,0.5798559 -0.105075,0.9378882 -0.101183,0.35414 -0.326899,0.540939 -0.225715,0.182908 -0.587639,0.249066 Q 26.679749,10.959 26.158268,10.959 H 24.72614 V 10.250719 Z M 26.68364,8.8886416 q 0.179016,0 0.354141,-0.031133 0.179015,-0.035025 0.358031,-0.085616 Q 27.364679,8.495585 27.279063,8.2114945 27.197338,7.927404 27.033889,7.7367131 26.87044,7.5421306 26.598024,7.5421306 q -0.241282,0 -0.389165,0.1517744 -0.143991,0.1517744 -0.210149,0.3619235 -0.06227,0.2101491 -0.06227,0.389165 0,0.2685239 0.190691,0.3580318 0.194583,0.085616 0.556506,0.085616 z"
         id="path14" />
    </g>
    <path
       id="path7"
       d="m 51.71225,-88.27359 h -103.4245 c -2.75117,0 -4.98138,-2.23021 -4.98138,-4.98138 v -24.05333 c 0,-2.7512 2.23021,-4.98139 4.98138,-4.98139 h 103.4245 c 2.75117,0 4.98138,2.23019 4.98138,4.98139 v 24.05333 c 0,2.75117 -2.23021,4.98138 -4.98138,4.98138 z"
       style="fill:#e6f0fa;fill-opacity:1;fill-rule:nonzero;stroke:#0055a4;stroke-width:0.3985;stroke-linecap:butt;stroke-linejoin:miter;stroke-miterlimit:10;stroke-dasharray:none;stroke-opacity:1"
       transform="matrix(1.3333333,0,0,-1.3333333,247.49333,42.865333)" />
    <g
       id="text7"
       transform="matrix(1.3333333,0,0,1.3333333,224.47067,178.61733)"
       aria-label="ترﺎﺘﺳا یرﺪﯿﺳ)ﺪﻤﺤﻣ(ﯽﻨﯿﺴﺣ">
      <path
         style="font-size:8.9664px;font-family:Vazirmatn"
         d="m 25.880814,-5.1399188 0.612938,0.6085594 -0.612938,0.6173156 -0.608559,-0.6173156 z m -1.453537,0 0.612937,0.6085594 -0.612937,0.6173156 -0.60856,-0.6173156 z m -0.472838,4.34310004 h 0.897516 q 0.437812,0 0.591047,-0.25393124 0.157612,-0.2539313 0.157612,-0.6435844 0,-0.2845781 -0.05254,-0.6085594 -0.05254,-0.3239812 -0.113832,-0.6523406 l 0.761794,-0.1926375 q 0.07443,0.35025 0.11821,0.6873656 0.04378,0.3371156 0.04378,0.6435844 0,0.525375 -0.144478,0.93691876 -0.144478,0.41154376 -0.472838,0.64796251 Q 25.412355,0 24.860711,0 H 23.954439 Z M 23.311976,0 q -0.30209,0 -0.507862,-0.07880625 -0.201394,-0.08318438 -0.315225,-0.175125 -0.06567,0.57353438 -0.319603,1.10766564 -0.249554,0.53850941 -0.753038,0.93691881 -0.503484,0.3984093 -1.33095,0.5604 L 19.826989,1.6593094 q 1.068262,-0.2320406 1.506075,-0.81433126 0.437812,-0.57791251 0.437812,-1.37035315 0,-0.37214063 -0.08318,-0.77930629 -0.07881,-0.4115437 -0.223285,-0.8362219 l 0.726769,-0.245175 0.236419,0.9150282 q 0.09632,0.3677625 0.306469,0.52099686 0.21015,0.15323438 0.529753,0.15323438 h 0.166369 V 0 Z m -5.109275,-6.0286782 h 0.739904 v 4.1854875 q 0,0.6173157 0.227662,0.8318438 0.227663,0.21452814 0.687366,0.21452814 h 0.109453 V 0 H 19.857633 Q 19.021411,0 18.609867,-0.44219063 18.202701,-0.88875939 18.202701,-1.8475688 Z m -2.044582,1.2915469 0.612937,0.6085594 -0.612937,0.6173156 -0.608559,-0.6173156 z m -1.453538,0 0.612938,0.6085594 -0.612938,0.6173156 -0.608559,-0.6173156 z m -0.472837,3.94031254 h 0.612937 q 0.556022,0 0.792441,-0.24955314 0.240797,-0.2495531 0.240797,-0.7661719 0,-0.21015 -0.01313,-0.3984094 -0.0088,-0.1882593 -0.02627,-0.3765187 l 0.731147,-0.087562 0.07005,1.0244812 q 0.05254,0.85373444 0.888759,0.85373444 h 0.09194 V 0 H 17.519716 Q 17.033744,0 16.74041,-0.175125 16.451453,-0.35025001 16.27195,-0.66985314 16.035531,-0.32398126 15.650256,-0.16199063 15.264981,0 14.844681,0 H 14.231744 Z M 10.212625,0 Q 9.7091406,0 9.4333187,-0.17074688 9.161875,-0.34587188 8.9998844,-0.66985314 8.7941125,-0.34587188 8.4745094,-0.17074688 8.1549062,0 7.5638593,0 H 7.1610718 v -0.79681876 h 0.4115438 q 0.5604,0 0.8187094,-0.20577184 0.2583094,-0.21015 0.2583094,-0.7617938 0,-0.1138313 -0.013134,-0.2670656 -0.00876,-0.1576125 -0.030647,-0.4378125 L 9.337,-2.5612032 9.40705,-1.646175 q 0.026269,0.3677625 0.2232844,0.6085594 0.2013937,0.24079684 0.5910466,0.24079684 0.464082,0 0.63045,-0.24955314 0.166369,-0.2495531 0.166369,-0.7180125 0,-0.1138313 -0.01313,-0.2714438 -0.0088,-0.1576125 -0.03065,-0.4334343 l 0.731147,-0.091941 0.07005,0.9150282 q 0.02189,0.3546281 0.188259,0.6041812 0.166369,0.24517504 0.538509,0.24517504 0.363385,0 0.499107,-0.27144374 0.135722,-0.2714438 0.135722,-0.6348282 0,-0.3283593 -0.06567,-0.6610968 -0.06129,-0.3327375 -0.109453,-0.5385094 l 0.748659,-0.2013938 q 0.07881,0.2933344 0.126966,0.6260719 0.04816,0.3283594 0.04816,0.6567188 0,0.4728375 -0.131344,0.88875936 -0.131344,0.41592188 -0.433434,0.67423126 Q 13.023381,-0.00437813 12.506763,0 q -0.4203,0 -0.67861,-0.175125 -0.258309,-0.17512501 -0.4203,-0.49472814 -0.245175,0.35462813 -0.547265,0.51224064 Q 10.562875,0 10.212625,0 Z M 6.5787812,-6.0286782 v 6.02430007 H 5.8388781 V -6.0286782 Z m -9.4079952,5.23185944 h 1.2477656 q 0.4378125,0 0.59104689,-0.25393124 0.15761251,-0.2539313 0.15761251,-0.6435844 0,-0.2845781 -0.0525375,-0.6085594 -0.0525375,-0.3239812 -0.11383126,-0.6523406 l 0.76179377,-0.1926375 q 0.0744281,0.35025 0.11820937,0.6873656 0.04378125,0.3371156 0.04378125,0.6435844 0,0.525375 -0.14447812,0.93691876 Q -0.36432962,-0.46845938 -0.692689,-0.23204063 -1.0210484,0 -1.5726921,0 H -2.829214 Z M -0.95099838,0.69612189 -0.33806087,1.3046813 -0.95099838,1.9219969 -1.5595578,1.3046813 Z m -1.45353752,0 0.6129375,0.60855941 -0.6129375,0.6173156 -0.6085594,-0.6173156 z M -2.7722986,0 q -0.3020906,0 -0.5078625,-0.07880625 -0.2013937,-0.08318438 -0.315225,-0.175125 -0.065672,0.57353438 -0.3196031,1.10766564 -0.2495531,0.53850941 -0.7530375,0.93691881 -0.5034844,0.3984093 -1.3309501,0.5604 L -6.2572861,1.6593094 q 1.0682625,-0.2320406 1.506075,-0.81433126 0.4378125,-0.57791251 0.4378125,-1.37035315 0,-0.37214063 -0.083184,-0.77930629 -0.078806,-0.4115437 -0.2232844,-0.8362219 l 0.7267688,-0.245175 0.2364188,0.9150282 q 0.096319,0.3677625 0.3064687,0.52099686 0.21015,0.15323438 0.5297531,0.15323438 h 0.1663688 V 0 Z"
         id="path15" />
      <path
         style="font-size:7.9701px;font-family:Vazirmatn"
         d="m 47.879611,9.5424389 q 0,-0.1011829 -0.0467,-0.2607406 -0.04281,-0.1634493 -0.105075,-0.3035487 l -0.688822,-1.5605518 0.607098,-0.2840905 0.883404,2.0781413 q 0.179016,0.4202983 0.311332,0.646014 0.136208,0.2257154 0.264632,0.3113324 0.132317,0.08172 0.299658,0.08172 h 0.163449 V 10.959 h -0.163449 q -0.307441,0 -0.502023,-0.07394 -0.190691,-0.07394 -0.330791,-0.221824 -0.140099,-0.147883 -0.28409,-0.373598 -0.272416,0.342465 -0.696606,0.505914 -0.420298,0.159558 -1.050745,0.159558 -0.272416,0 -0.490348,-0.02335 -0.217933,-0.02724 -0.412515,-0.07394 v -0.704389 q 0.44754,0.105075 0.844488,0.105075 1.397103,0 1.397103,-0.7160641 z m -5.603979,0.7082801 h 0.587639 q 0.49424,0 0.704389,-0.221824 0.21404,-0.2218239 0.21404,-0.6810386 0,-0.1867992 -0.01168,-0.3541402 -0.0078,-0.167341 -0.02335,-0.3346819 l 0.649905,-0.077833 0.06227,0.9106462 q 0.0467,0.7588715 0.790005,0.7588715 h 0.08172 V 10.959 h -0.08951 q -0.431973,0 -0.692713,-0.155666 Q 44.291507,10.647668 44.131949,10.363577 43.9218,10.671018 43.579335,10.815009 43.236869,10.959 42.863271,10.959 h -0.587639 z m 1.404885,1.327053 0.544832,0.540939 -0.544832,0.548723 -0.540939,-0.548723 z m -1.292027,0 0.544831,0.540939 -0.544831,0.548723 -0.54094,-0.548723 z M 38.71088,10.959 q -0.44754,0 -0.692714,-0.151775 -0.241282,-0.155666 -0.385273,-0.443648 -0.182908,0.287982 -0.466998,0.443648 Q 36.881805,10.959 36.356432,10.959 H 35.9984 v -0.708281 h 0.365815 q 0.498131,0 0.727739,-0.182907 0.229607,-0.1867995 0.229607,-0.6771475 0,-0.1011829 -0.01168,-0.2373906 -0.0078,-0.1400994 -0.02724,-0.3891651 l 0.649905,-0.081725 0.06227,0.8133549 q 0.02335,0.3268986 0.198474,0.5409389 0.179016,0.214041 0.525373,0.214041 0.412514,0 0.560397,-0.221824 0.147883,-0.2218239 0.147883,-0.6382305 0,-0.1011829 -0.01167,-0.2412823 -0.0078,-0.1400994 -0.02724,-0.3852734 l 0.649906,-0.081725 0.06227,0.8133549 q 0.01946,0.3152237 0.167341,0.5370479 0.147883,0.217932 0.478673,0.217932 0.323007,0 0.443648,-0.241282 0.120642,-0.2412824 0.120642,-0.5642894 0,-0.2918737 -0.05837,-0.5876392 -0.05448,-0.2957654 -0.09729,-0.478673 l 0.665472,-0.1790159 q 0.07005,0.2607406 0.112858,0.556506 0.04281,0.2918738 0.04281,0.5837476 0,0.4202982 -0.11675,0.7900049 -0.116749,0.369707 -0.385273,0.599314 -0.264632,0.225716 -0.723847,0.229608 -0.373598,0 -0.603206,-0.155666 -0.229607,-0.155666 -0.373598,-0.439757 -0.217933,0.315224 -0.486457,0.455323 -0.264632,0.1401 -0.575964,0.1401 z M 34.566272,8.6590343 q 0,0.7316302 0.155666,1.4360187 0.155666,0.700497 0.455324,1.27257 0.303548,0.572073 0.747196,0.910646 l -0.147882,0.474781 q -0.431974,-0.233499 -0.782222,-0.649905 -0.350249,-0.416407 -0.603206,-0.965129 -0.249065,-0.544831 -0.385273,-1.1791705 -0.136208,-0.634339 -0.136208,-1.2998112 0,-0.6654722 0.136208,-1.2998112 0.136208,-0.6343391 0.385273,-1.1791701 0.252957,-0.5487227 0.603206,-0.9651293 0.350248,-0.4164066 0.782222,-0.6499056 l 0.147882,0.4747813 Q 35.48081,5.378373 35.177262,5.9504456 34.877604,6.5225182 34.721938,7.2269069 34.566272,7.927404 34.566272,8.6590343 Z m -0.689351,0.8834046 q 0,-0.1011829 -0.0467,-0.2607406 -0.04281,-0.1634493 -0.105074,-0.3035487 l -0.688822,-1.5605518 0.607097,-0.2840905 0.883405,2.0781413 q 0.179016,0.4202983 0.311332,0.646014 0.136208,0.2257154 0.264632,0.3113324 0.132316,0.08172 0.299657,0.08172 h 0.163449 V 10.959 h -0.163449 q -0.30744,0 -0.502023,-0.07394 -0.190691,-0.07394 -0.33079,-0.221824 -0.140099,-0.147883 -0.284091,-0.373598 -0.272415,0.342465 -0.696605,0.505914 -0.420298,0.159558 -1.050746,0.159558 -0.272415,0 -0.490347,-0.02335 -0.217933,-0.02724 -0.412515,-0.07394 v -0.704389 q 0.447539,0.105075 0.844488,0.105075 1.397102,0 1.397102,-0.7160641 z M 26.774659,10.959 h -0.171233 v -0.708281 h 0.151775 q 0.26074,0 0.439756,-0.147882 0.179016,-0.1517748 0.319115,-0.3891655 0.1401,-0.2373907 0.276308,-0.5020229 0.140099,-0.2685238 0.311332,-0.5059145 0.171232,-0.2373907 0.412514,-0.3852734 0.245174,-0.1517744 0.603206,-0.1517744 0.610989,0 0.949563,0.3735985 0.338574,0.3697067 0.455323,0.9223211 0.07783,0.3813817 0.264632,0.5837471 0.190691,0.202366 0.439757,0.202366 H 31.32789 V 10.959 h -0.105075 q -0.249066,0 -0.486456,-0.101183 -0.237391,-0.105075 -0.385274,-0.330791 -0.163449,0.237391 -0.404731,0.381382 -0.241283,0.1401 -0.626556,0.1401 -0.389165,0 -0.719955,-0.167341 -0.326899,-0.171233 -0.681039,-0.513698 -0.252957,0.28409 -0.486456,0.439756 Q 27.198849,10.959 26.774659,10.959 Z m 2.35834,-2.1014916 q -0.194583,0 -0.35414,0.1323162 -0.159558,0.1284244 -0.287982,0.3346819 -0.128425,0.2062575 -0.229608,0.4280815 0.128425,0.1323161 0.256849,0.2373907 0.128425,0.1050743 0.249066,0.1790163 0.311332,0.19069 0.544831,0.19069 0.575964,0 0.575964,-0.5798554 0,-0.4047317 -0.202366,-0.6615806 -0.198474,-0.2607406 -0.552614,-0.2607406 z m -2.887604,-0.058375 v 0.6732555 q -0.167341,0.015567 -0.393057,0.085616 -0.225715,0.066158 -0.478673,0.1867992 0.0078,0.3230073 0.311332,0.4164063 0.303549,0.08951 0.860055,0.08951 h 0.214041 V 10.959 h -0.229607 q -0.793897,0 -1.190845,-0.210149 -0.393057,-0.21015 -0.47089,-0.7549807 Q 24.097204,10.414169 23.373357,10.686584 22.653402,10.959 21.820589,10.959 h -0.649906 v -0.708281 h 0.661581 q 0.455323,0 0.836704,-0.08172 0.381382,-0.08173 0.743306,-0.2257161 0.365815,-0.1439911 0.762763,-0.3385736 0.40084,-0.1984742 0.89508,-0.4241899 Q 24.79381,9.0793325 24.498044,8.962583 24.202279,8.8419418 23.933755,8.7368673 23.669123,8.6317927 23.470648,8.5656347 23.272174,8.495585 23.19045,8.495585 q -0.237391,0 -0.420299,0.1400994 -0.179016,0.1362077 -0.33079,0.3307903 l -0.105074,0.1323161 -0.595423,-0.2918738 0.05838,-0.0934 q 0.256849,-0.4164066 0.595422,-0.6654722 0.342466,-0.2529573 0.80168,-0.2529573 0.190691,0 0.459215,0.097291 0.272416,0.097291 0.591531,0.2451739 0.319115,0.1439911 0.66158,0.2957655 0.342466,0.1478827 0.684931,0.2529572 0.342465,0.1011829 0.653797,0.1128579 z m -6.608021,2.2493743 q -0.389165,0 -0.719956,-0.167341 -0.326898,-0.171233 -0.681039,-0.513698 -0.252957,0.28409 -0.486456,0.439756 Q 17.516424,10.959 17.092234,10.959 h -0.171232 v -0.708281 h 0.151774 q 0.260741,0 0.439756,-0.147882 0.179016,-0.1517748 0.319116,-0.3891655 0.140099,-0.2373907 0.276307,-0.5020229 0.140099,-0.2685238 0.311332,-0.5059145 0.171233,-0.2373907 0.412515,-0.3852734 0.245174,-0.1517744 0.603206,-0.1517744 0.431973,0 0.751088,0.2101491 0.323007,0.2062575 0.498131,0.556506 0.179016,0.3502486 0.179016,0.7822218 0,0.6343388 -0.323007,0.9845878 -0.319115,0.346357 -0.902862,0.346357 z m -0.1868,-2.1909996 q -0.194582,0 -0.35414,0.1323162 -0.159558,0.1284244 -0.287982,0.3346819 -0.128424,0.2062575 -0.229607,0.4280815 0.233499,0.245174 0.482564,0.40084 0.319116,0.206257 0.568181,0.206257 0.575965,0 0.575965,-0.5798554 0,-0.4047317 -0.202366,-0.6615806 Q 19.804715,8.8575084 19.450574,8.8575084 Z M 17.928593,8.6590343 q 0,-0.7316303 -0.155666,-1.4321274 Q 17.621152,6.5225182 17.317604,5.9504456 17.014055,5.378373 16.570407,5.0397994 L 16.71829,4.5650181 q 0.431973,0.233499 0.782221,0.6499056 0.350249,0.4164066 0.599314,0.9651293 0.252958,0.544831 0.389165,1.1791701 0.136208,0.634339 0.136208,1.2998112 0,0.6654722 -0.136208,1.2998112 -0.136207,0.6343395 -0.389165,1.1791705 -0.249065,0.548722 -0.599314,0.965129 -0.350248,0.416406 -0.782221,0.649905 l -0.147883,-0.474781 q 0.443648,-0.338573 0.747197,-0.910646 0.303548,-0.572073 0.455323,-1.27257 0.155666,-0.7043885 0.155666,-1.4360187 z M 13.927979,12.9632 q -0.840597,0 -1.346511,-0.307441 -0.502023,-0.30744 -0.727739,-0.821138 -0.221824,-0.509806 -0.221824,-1.120795 0,-0.264633 0.03892,-0.610989 0.04281,-0.3463573 0.19069,-0.7900055 l 0.618773,0.2296074 q -0.112858,0.389165 -0.147883,0.6888221 -0.03113,0.299657 -0.03113,0.505915 0,0.420298 0.147883,0.766655 0.147882,0.346357 0.502022,0.552614 0.358032,0.206258 0.976805,0.206258 0.583747,0 1.000154,-0.143992 0.420298,-0.143991 0.642122,-0.342465 0.225716,-0.198474 0.225716,-0.361923 0,-0.186799 -0.163449,-0.319116 -0.159558,-0.132316 -0.521482,-0.132316 h -0.575964 q -0.07783,0 -0.112858,-0.06616 -0.03503,-0.07005 -0.06616,-0.179016 l -0.105074,-0.373598 q -0.0039,-0.03113 0.01557,-0.05837 0.01946,-0.03113 0.07005,-0.03113 h 2.159866 v 0.70828 H 16.33691 q 0.05838,0.11675 0.07394,0.221824 0.01946,0.105075 0.01946,0.217933 0,0.256849 -0.151774,0.529264 -0.147883,0.276307 -0.459215,0.509806 -0.307441,0.233499 -0.77833,0.377491 -0.47089,0.143991 -1.113012,0.143991 z m -4.1874152,-4.3041657 0.6499052,-0.077833 0.06227,0.9106462 q 0.0467,0.7588715 0.790005,0.7588715 h 0.08172 V 10.959 h -0.08951 q -0.431974,0 -0.692714,-0.155666 Q 10.285395,10.647668 10.125837,10.363577 9.9156881,10.671018 9.5732228,10.815009 9.2307576,10.959 8.8571592,10.959 H 8.4835607 v -0.708281 h 0.3735985 q 0.4942396,0 0.7043887,-0.221824 0.2140407,-0.2218239 0.2140407,-0.6810386 0,-0.1867992 -0.011675,-0.3541402 -0.00778,-0.167341 -0.02335,-0.3346819 z M 9.8145052,6.7209924 10.378794,7.2852817 9.8145052,7.849571 9.2502159,7.2852817 Z M 5.5842789,10.250719 h 0.5876392 q 0.4942396,0 0.7043887,-0.221824 0.2140408,-0.2218239 0.2140408,-0.6810386 0,-0.1867992 -0.011675,-0.3541402 -0.00778,-0.167341 -0.02335,-0.3346819 l 0.6499056,-0.077833 0.062266,0.9106462 q 0.0467,0.7588715 0.790005,0.7588715 h 0.081725 V 10.959 h -0.089508 q -0.4319732,0 -0.6927137,-0.155666 Q 7.6001537,10.647668 7.4405961,10.363577 7.230447,10.671018 6.8879817,10.815009 6.5455165,10.959 6.1719181,10.959 H 5.5842789 Z m 1.4048857,1.327053 0.5448311,0.540939 -0.5448311,0.548723 -0.5409394,-0.548723 z m -1.2920279,0 0.5448311,0.540939 -0.5448311,0.548723 -0.5409394,-0.548723 z M 3.6151038,10.959 Q 3.2415054,10.959 3.011898,10.803334 2.7822906,10.647668 2.6382996,10.363577 2.4203671,10.678801 2.1518433,10.8189 1.887211,10.959 1.575879,10.959 1.1283392,10.959 0.88316525,10.807225 0.64188293,10.651559 0.49789187,10.363577 0.3149843,10.651559 0.03089383,10.807225 -0.25319665,10.959 -0.77856945,10.959 H -1.1366013 v -0.708281 h 0.36581515 q 0.49813125,0 0.72773862,-0.182907 0.22960737,-0.1867995 0.22960737,-0.6771475 0,-0.1011829 -0.011675,-0.2373906 -0.007783,-0.1400994 -0.0272415,-0.3891651 l 0.64990561,-0.081725 0.0622664,0.8133549 q 0.0233499,0.3268986 0.19847415,0.5409389 0.1790159,0.214041 0.5253728,0.214041 0.412515,0 0.5603977,-0.221824 0.1478827,-0.2218239 0.1478827,-0.6382305 0,-0.1011829 -0.011675,-0.2412823 -0.00778,-0.1400994 -0.027242,-0.3852734 l 0.6499056,-0.081725 0.062266,0.8133549 q 0.019458,0.3152237 0.167341,0.5370479 0.1478827,0.217932 0.478673,0.217932 0.5759642,0 0.5759642,-0.8600545 0,-0.1400994 -0.011675,-0.2918737 -0.00778,-0.1517744 -0.027242,-0.40084 l 0.6499056,-0.077833 0.062266,0.8756213 q 0.0467,0.7549799 0.7705468,0.7549799 H 5.7477282 V 10.959 H 5.638762 q -0.4086233,0 -0.6810388,-0.147883 Q 4.6853077,10.659343 4.5841247,10.359685 4.4206754,10.647668 4.2066347,10.803334 3.9964855,10.959 3.6151038,10.959 Z M -6.4759444,10.250719 h 0.6615806 q 0.4553231,0 0.8367048,-0.08172 0.3813818,-0.08173 0.7433053,-0.2257161 0.3658151,-0.1439911 0.7627634,-0.3385736 0.40084,-0.1984742 0.8950796,-0.4241899 Q -2.8528179,9.0793325 -3.1485833,8.962583 -3.4443487,8.8419418 -3.7128726,8.7368673 -3.9775048,8.6317927 -4.175979,8.5656347 q -0.1984742,-0.07005 -0.2801988,-0.07005 -0.2373907,0 -0.4202983,0.1400994 -0.1790159,0.1362077 -0.3307902,0.3307903 l -0.1050746,0.1323161 -0.5954225,-0.2918738 0.058375,-0.0934 q 0.2568489,-0.4164066 0.5954225,-0.6654722 0.3424652,-0.2529573 0.8016799,-0.2529573 0.1906909,0 0.4592148,0.097291 0.2724155,0.097291 0.5915308,0.2451739 0.3191154,0.1439911 0.6615806,0.2957655 0.3424652,0.1478827 0.6849305,0.2529572 0.3424652,0.1011829 0.6537972,0.1128579 V 9.4723892 Q -1.6502979,9.4996308 -2.0394629,9.6552968 -2.4247363,9.8070711 -3.0435087,10.13397 -3.54164,10.398602 -3.9697215,10.585401 -4.3939114,10.768309 -4.8375596,10.8656 -5.277316,10.959 -5.8260387,10.959 h -0.6499057 z"
         id="path16" />
    </g>
  </g>
</svg>
