<?xml version="1.0" encoding="UTF-8" standalone="no"?>


<svg class="tikz-diagram" id="iran-action-ch4-tikz-22-111043deaaf8"
   version="1.1"
   id="svg1"
   width="694.29333"
   height="435.32001"
   viewBox="0 0 694.29333 435.32001"
   sodipodi:docname="iran-action-ch4-tikz-22-111043deaaf8.pdf"
   xmlns:inkscape="http://www.inkscape.org/namespaces/inkscape"
   xmlns:sodipodi="http://sodipodi.sourceforge.net/DTD/sodipodi-0.dtd"
   xmlns="http://www.w3.org/2000/svg"
   xmlns:svg="http://www.w3.org/2000/svg">
  <defs
     id="defs1" />
  <sodipodi:namedview
     id="namedview1"
     pagecolor="#ffffff"
     bordercolor="#000000"
     borderopacity="0.25"
     inkscape:showpageshadow="2"
     inkscape:pageopacity="0.0"
     inkscape:pagecheckerboard="0"
     inkscape:deskcolor="#d1d1d1">
    <inkscape:page
       x="0"
       y="0"
       inkscape:label="1"
       id="page1"
       width="694.29333"
       height="435.32001"
       margin="0"
       bleed="0" />
  </sodipodi:namedview>
  <g
     id="g1"
     inkscape:groupmode="layer"
     inkscape:label="1">
    <path
       id="path1"
       d="M 0,0 68.03217,117.83548"
       style="fill:none;stroke:#dcdcdc;stroke-width:0.3985;stroke-linecap:butt;stroke-linejoin:miter;stroke-miterlimit:10;stroke-dasharray:none;stroke-opacity:1"
       transform="matrix(1.3333333,0,0,-1.3333333,280.56267,217.696)" />
    <path
       id="path2"
       d="M 0,0 -68.03217,117.83548"
       style="fill:none;stroke:#dcdcdc;stroke-width:0.3985;stroke-linecap:butt;stroke-linejoin:miter;stroke-miterlimit:10;stroke-dasharray:none;stroke-opacity:1"
       transform="matrix(1.3333333,0,0,-1.3333333,280.56267,217.696)" />
    <path
       id="path3"
       d="M 0,0 H -136.06433"
       style="fill:none;stroke:#dcdcdc;stroke-width:0.3985;stroke-linecap:butt;stroke-linejoin:miter;stroke-miterlimit:10;stroke-dasharray:none;stroke-opacity:1"
       transform="matrix(1.3333333,0,0,-1.3333333,280.56267,217.696)" />
    <path
       id="path4"
       d="M 0,0 -68.03217,-117.83548"
       style="fill:none;stroke:#dcdcdc;stroke-width:0.3985;stroke-linecap:butt;stroke-linejoin:miter;stroke-miterlimit:10;stroke-dasharray:none;stroke-opacity:1"
       transform="matrix(1.3333333,0,0,-1.3333333,280.56267,217.696)" />
    <path
       id="path5"
       d="M 0,0 68.03217,-117.83548"
       style="fill:none;stroke:#dcdcdc;stroke-width:0.3985;stroke-linecap:butt;stroke-linejoin:miter;stroke-miterlimit:10;stroke-dasharray:none;stroke-opacity:1"
       transform="matrix(1.3333333,0,0,-1.3333333,280.56267,217.696)" />
    <path
       id="path6"
       d="M 0,0 H 136.06433"
       style="fill:none;stroke:#dcdcdc;stroke-width:0.3985;stroke-linecap:butt;stroke-linejoin:miter;stroke-miterlimit:10;stroke-dasharray:none;stroke-opacity:1"
       transform="matrix(1.3333333,0,0,-1.3333333,280.56267,217.696)" />
    <path
       id="path7"
       d="M 17.00801,29.45885 H -17.00801 L -34.01608,0 -17.00801,-29.45885 H 17.00801 L 34.01608,0 Z"
       style="fill:none;stroke:#dcdcdc;stroke-width:0.3985;stroke-linecap:butt;stroke-linejoin:miter;stroke-miterlimit:10;stroke-dasharray:none;stroke-opacity:1"
       transform="matrix(1.3333333,0,0,-1.3333333,280.56267,217.696)" />
    <path
       id="path8"
       d="M 34.01608,58.91772 H -34.01608 L -68.03217,0 -34.01608,-58.91772 H 34.01608 L 68.03217,0 Z"
       style="fill:none;stroke:#dcdcdc;stroke-width:0.3985;stroke-linecap:butt;stroke-linejoin:miter;stroke-miterlimit:10;stroke-dasharray:none;stroke-opacity:1"
       transform="matrix(1.3333333,0,0,-1.3333333,280.56267,217.696)" />
    <path
       id="path9"
       d="M 51.02411,88.3766 H -51.02411 L -102.04825,0 -51.02411,-88.3766 H 51.02411 L 102.04825,0 Z"
       style="fill:none;stroke:#dcdcdc;stroke-width:0.3985;stroke-linecap:butt;stroke-linejoin:miter;stroke-miterlimit:10;stroke-dasharray:none;stroke-opacity:1"
       transform="matrix(1.3333333,0,0,-1.3333333,280.56267,217.696)" />
    <path
       id="path10"
       d="M 68.03217,117.83548 H -68.03217 L -136.06433,0 -68.03217,-117.83548 H 68.03217 L 136.06433,0 Z"
       style="fill:none;stroke:#dcdcdc;stroke-width:0.3985;stroke-linecap:butt;stroke-linejoin:miter;stroke-miterlimit:10;stroke-dasharray:none;stroke-opacity:1"
       transform="matrix(1.3333333,0,0,-1.3333333,280.56267,217.696)" />
    <path
       style="font-size:8.9664px;font-family:Vazirmatn"
       d="m 23.856404,-0.50786251 q 0,1.38348752 -0.591047,2.03145001 Q 22.67431,2.17155 21.540376,2.17155 q -0.814331,0 -1.326572,-0.2933343 Q 19.701563,1.5892594 19.460767,1.0682625 19.21997,0.54726563 19.21997,-0.1401 q 0,-0.46408126 0.09632,-0.9500531 0.09632,-0.4903501 0.262688,-0.9544313 l 0.696122,0.2802 q -0.126966,0.4027875 -0.214528,0.82746563 -0.08756,0.42467814 -0.08756,0.82308752 0,0.70925626 0.359006,1.10328752 0.363385,0.39403123 1.208363,0.39403123 0.783684,0 1.177716,-0.42905623 0.398409,-0.42905626 0.398409,-1.38348753 V -6.0286782 h 0.739903 z M 17.109713,-6.0286782 h 0.739903 v 4.1854875 q 0,0.6173157 0.227662,0.8318438 0.227663,0.21452814 0.687366,0.21452814 h 0.109453 V 0 H 18.764644 Q 17.928422,0 17.516878,-0.44219063 17.109713,-0.88875939 17.109713,-1.8475688 Z M 11.405015,0 h -0.192637 v -0.79681876 h 0.170746 q 0.293335,0 0.494729,-0.16636876 0.201393,-0.17074688 0.359006,-0.43781248 0.157612,-0.2670657 0.310847,-0.5647782 0.157612,-0.3020906 0.35025,-0.5691562 0.192637,-0.2670656 0.464081,-0.4334344 0.275822,-0.1707469 0.678609,-0.1707469 0.687366,0 1.068263,0.4203 0.380897,0.4159219 0.512241,1.0376157 0.08756,0.4290562 0.297712,0.6567187 0.214528,0.22766254 0.494728,0.22766254 h 0.113831 V 0 h -0.118209 q -0.2802,0 -0.547266,-0.11383125 -0.267065,-0.11820938 -0.433434,-0.37214063 -0.183881,0.26706563 -0.455325,0.42905625 -0.271444,0.15761251 -0.704878,0.15761251 -0.437813,0 -0.809953,-0.18825938 Q 13.090593,-0.2802 12.692184,-0.66547501 12.407606,-0.34587188 12.144918,-0.17074688 11.882231,0 11.405015,0 Z m 2.653144,-2.3641875 q -0.218906,0 -0.398409,0.1488562 -0.179504,0.1444781 -0.323982,0.3765188 -0.144478,0.2320406 -0.258309,0.4815937 0.144478,0.1488563 0.288956,0.2670657 0.144478,0.11820933 0.2802,0.20139371 0.35025,0.21452813 0.612938,0.21452813 0.647962,0 0.647962,-0.65234064 0,-0.455325 -0.227662,-0.7442813 -0.223285,-0.2933343 -0.621694,-0.2933343 z M 9.9252097,-4.7371313 10.538147,-4.1285719 9.9252097,-3.5112563 9.3166503,-4.1285719 Z m -1.4535375,0 0.6129375,0.6085594 -0.6129375,0.6173156 -0.6085594,-0.6173156 z m -0.4728375,3.94031254 h 0.6129375 q 0.5560219,0 0.7924406,-0.24955314 0.2407969,-0.2495531 0.2407969,-0.7661719 0,-0.21015 -0.013134,-0.3984094 -0.00876,-0.1882593 -0.026269,-0.3765187 l 0.7311464,-0.087562 0.07005,1.0244812 q 0.05254,0.85373444 0.88876,0.85373444 h 0.09194 V 0 H 11.286807 Q 10.800835,0 10.5075,-0.175125 10.218544,-0.35025001 10.039041,-0.66985314 9.8026222,-0.32398126 9.4173472,-0.16199063 9.0320722,0 8.6117722,0 H 7.9988347 Z m -6.0067876,0 h 0.7442813 q 0.5122406,0 0.9412969,-0.0919406 Q 4.1066815,-0.98070002 4.5138472,-1.1426906 4.9253909,-1.3046813 5.3719597,-1.5235875 5.8229066,-1.7468719 6.3789285,-2.0008032 6.0680816,-2.1146344 5.7353441,-2.2459782 5.4026066,-2.3817 5.1005159,-2.4999094 4.8028034,-2.6181188 4.579519,-2.6925469 q -0.2232843,-0.078806 -0.315225,-0.078806 -0.2670656,0 -0.4728375,0.1576125 Q 3.5900628,-2.4605063 3.4193159,-2.2416 l -0.1182094,0.1488562 -0.6698531,-0.3283594 0.065672,-0.105075 q 0.2889562,-0.4684593 0.6698531,-0.7486594 0.385275,-0.2845781 0.9018938,-0.2845781 0.2145281,0 0.5166187,0.1094531 0.3064688,0.1094532 0.665475,0.2758219 0.3590063,0.1619907 0.7442813,0.3327375 0.385275,0.1663688 0.77055,0.2845782 0.385275,0.1138312 0.735525,0.1269656 v 0.7574156 q -0.2802,0.030647 -0.7180125,0.2057719 -0.4334344,0.1707469 -1.1295563,0.53850938 -0.5604,0.29771251 -1.0419937,0.50786251 Q 4.334344,-0.21452813 3.8352378,-0.105075 3.3405097,0 2.723194,0 H 1.9920471 Z M 1.409756,-6.0286782 v 6.02430007 H 0.66985288 V -6.0286782 Z"
       id="text10"
       transform="matrix(1.3333333,0,0,1.3333333,366.26267,33.354667)"
       aria-label="لﺎﻤﺘﺣا" />
    <path
       style="font-size:8.9664px;font-family:Vazirmatn"
       d="m 17.543148,-0.79681876 h 1.247766 q 0.437812,0 0.591047,-0.25393124 0.157612,-0.2539313 0.157612,-0.6435844 0,-0.2845781 -0.05254,-0.6085594 -0.05254,-0.3239812 -0.113832,-0.6523406 l 0.761794,-0.1926375 q 0.07443,0.35025 0.11821,0.6873656 0.04378,0.3371156 0.04378,0.6435844 0,0.525375 -0.144478,0.93691876 -0.144478,0.41154376 -0.472838,0.64796251 Q 19.351314,0 18.79967,0 h -1.256522 z m 1.878216,1.49294065 0.612937,0.60855941 -0.612937,0.6173156 -0.60856,-0.6173156 z m -1.453538,0 0.612938,0.60855941 -0.612938,0.6173156 -0.608559,-0.6173156 z M 17.600062,0 q -0.30209,0 -0.507862,-0.07880625 -0.201394,-0.08318438 -0.315225,-0.175125 -0.06567,0.57353438 -0.319604,1.10766564 -0.249553,0.53850941 -0.753037,0.93691881 -0.503484,0.3984093 -1.33095,0.5604 L 14.115075,1.6593094 q 1.068262,-0.2320406 1.506075,-0.81433126 0.437812,-0.57791251 0.437812,-1.37035315 0,-0.37214063 -0.08318,-0.77930629 -0.07881,-0.4115437 -0.223285,-0.8362219 l 0.726769,-0.245175 0.236419,0.9150282 q 0.09632,0.3677625 0.306469,0.52099686 0.21015,0.15323438 0.529753,0.15323438 h 0.166369 V 0 Z m -3.489365,-6.0286782 v 6.02430007 H 13.370794 V -6.0286782 Z m -3.2223,4.4350407 q 0,-0.1138313 -0.05254,-0.2933344 -0.04816,-0.1838813 -0.11821,-0.3414938 l -0.7749279,-1.7556281 0.6829879,-0.3196031 0.993834,2.3379187 q 0.201394,0.4728376 0.35025,0.7267688 0.153234,0.25393126 0.297713,0.35025001 0.148856,0.0919406 0.337115,0.0919406 h 0.183881 V 0 h -0.183881 q -0.345872,0 -0.564778,-0.08318438 -0.214528,-0.08318437 -0.372141,-0.24955313 -0.157612,-0.16636875 -0.319603,-0.4203 -0.306469,0.385275 -0.783684,0.56915626 -0.472838,0.17950312 -1.1820939,0.17950312 -0.3064688,0 -0.5516438,-0.02626875 -0.245175,-0.03064687 -0.4640812,-0.08318437 v -0.79244064 q 0.5034844,0.11820938 0.9500531,0.11820938 1.5717468,0 1.5717468,-0.80557499 z m -5.8447974,0.79681874 h 0.9500531 q 0.4378125,0 0.5910469,-0.25393124 0.1576125,-0.2539313 0.1576125,-0.6435844 0,-0.2845781 -0.052538,-0.6085594 -0.052537,-0.3239812 -0.1138312,-0.6523406 l 0.7617937,-0.1926375 q 0.074428,0.35025 0.1182094,0.6873656 0.043781,0.3371156 0.043781,0.6435844 0,0.525375 -0.1444781,0.93691876 Q 7.2107715,-0.46845938 6.8824121,-0.23204063 6.5540527,0 6.002409,0 H 5.0435996 Z M 6.6241027,0.69612189 7.2370402,1.3046813 6.6241027,1.9219969 6.0155433,1.3046813 Z m -1.4535375,0 L 5.7835027,1.3046813 5.1705652,1.9219969 4.5620058,1.3046813 Z M 3.4630965,-6.0286782 h 0.7399032 v 4.1854875 q 0,0.6173157 0.2276625,0.8318438 0.2276625,0.21452814 0.6873656,0.21452814 H 5.2274809 V 0 H 5.1180278 Q 4.2818059,0 3.8702622,-0.44219063 3.4630965,-0.88875939 3.4630965,-1.8475688 Z m -3.5594154,5.23185944 h 0.95005314 q 0.43781246,0 0.59104686,-0.25393124 0.1576125,-0.2539313 0.1576125,-0.6435844 0,-0.2845781 -0.052538,-0.6085594 -0.052537,-0.3239812 -0.1138312,-0.6523406 l 0.7617937,-0.1926375 q 0.074428,0.35025 0.1182094,0.6873656 0.043781,0.3371156 0.043781,0.6435844 0,0.525375 -0.1444782,0.93691876 Q 2.070853,-0.46845938 1.7424936,-0.23204063 1.4141342,0 0.86249049,0 H -0.0963189 Z M 1.4885624,0.55164376 2.0796093,1.1426906 1.4885624,1.7337375 0.89751549,1.1426906 Z m -1.4973188,0 L 0.58229049,1.1426906 -0.0087564,1.7337375 -0.59980328,1.1426906 Z M 0.73990299,1.6593094 1.3309499,2.2503563 0.73990299,2.8414032 0.1488561,2.2503563 Z"
       id="text11"
       transform="matrix(1.3333333,0,0,1.3333333,489.352,209.21467)"
       aria-label="یراﺪﯾﺎﭘ" />
    <path
       style="font-size:8.9664px;font-family:Vazirmatn"
       d="m 52.449344,-5.7572345 0.591047,0.5910469 -0.591047,0.5910469 -0.591047,-0.5910469 z m 0.74866,1.1076657 0.591046,0.5910469 -0.591046,0.5910468 -0.591047,-0.5910468 z m -1.497319,0 0.591047,0.5910469 -0.591047,0.5910468 -0.591047,-0.5910468 z m -3.660113,6.1162407 q 0.731147,0 1.129556,-0.2407969 0.402788,-0.23641873 0.5604,-0.62607187 0.161991,-0.385275 0.161991,-0.82746563 0,-0.52099689 -0.1401,-1.0288594 -0.1401,-0.5078625 -0.262687,-0.8318438 l 0.748659,-0.3020906 0.262688,0.8274656 q 0.122587,0.3808969 0.367762,0.57353443 0.245175,0.19263751 0.647963,0.19263751 0.464081,0 0.63045,-0.24955314 0.166368,-0.2495531 0.166368,-0.7180125 0,-0.1138313 -0.01313,-0.2714438 -0.0088,-0.1576125 -0.03065,-0.4334343 l 0.731147,-0.091941 0.07005,0.9150282 q 0.02189,0.3546281 0.188259,0.6041812 0.166369,0.24517504 0.53851,0.24517504 0.647962,0 0.647962,-0.96756564 0,-0.1576125 -0.01313,-0.3283594 -0.0088,-0.1707469 -0.03065,-0.4509469 l 0.731147,-0.087563 0.07005,0.9850782 q 0.05254,0.84935624 0.866869,0.84935624 h 0.131343 V 0 H 56.07881 Q 55.619107,0 55.312638,-0.16636875 55.006169,-0.33711563 54.892338,-0.67423126 54.708457,-0.35025001 54.46766,-0.175125 54.231241,0 53.802185,0 q -0.4203,0 -0.67861,-0.175125 -0.258309,-0.17512501 -0.4203,-0.49472814 Q 52.4581,-0.31522501 52.15601,-0.1576125 51.858297,0 51.508047,0 q -0.288956,0 -0.499106,-0.07005 -0.21015,-0.07442813 -0.35025,-0.17950313 -0.0044,0.73114689 -0.2802,1.29592503 -0.275822,0.5691563 -0.853734,0.8887594 -0.573535,0.3196031 -1.484185,0.3196031 -0.945675,0 -1.514831,-0.3458719 -0.564778,-0.3458718 -0.818709,-0.92378436 -0.249554,-0.57353438 -0.249554,-1.26090002 0,-0.46408126 0.09632,-0.95005312 0.09632,-0.49035 0.262688,-0.9544313 l 0.696122,0.2802 q -0.126966,0.4027875 -0.214529,0.8274657 -0.08756,0.42467809 -0.08756,0.82308747 0,0.47283751 0.166369,0.86249064 0.170747,0.38965309 0.569156,0.62169379 0.398409,0.2320406 1.094531,0.2320406 z m -4.404396,-7.0093782 0.612938,0.6085593 -0.612938,0.6173157 -0.608559,-0.6173157 z m -1.453537,0 0.612937,0.6085593 -0.612937,0.6173157 -0.608559,-0.6173157 z m 2.294138,3.4806094 q 0,0.3458719 -0.153235,0.6435844 -0.153234,0.2933344 -0.4203,0.60418124 0.249553,0.0131344 0.442191,0.0175125 0.192637,0 0.341494,0 h 0.424678 V 0 h -0.411544 q -0.166369,0 -0.459703,-0.02626875 -0.288956,-0.03064688 -0.639207,-0.10069688 -0.345871,-0.07005 -0.682987,-0.18825938 -0.337116,0.12258751 -0.691744,0.19263751 -0.354628,0.06567187 -0.656719,0.09631875 Q 41.267611,0 41.088108,0 H 40.47517 v -0.79681876 h 0.612938 q 0.183881,0 0.380897,0 0.201393,-0.004378 0.485971,-0.0218906 -0.262687,-0.30646871 -0.411543,-0.60855941 -0.148857,-0.3020906 -0.148857,-0.6435844 0,-0.2714437 0.126966,-0.5472656 0.126966,-0.2758219 0.341494,-0.5122406 0.214528,-0.2364188 0.49035,-0.3765188 0.275822,-0.1444781 0.569156,-0.1444781 0.306469,0 0.586669,0.1444781 0.2802,0.1401 0.494728,0.3765188 0.218906,0.2320406 0.345872,0.5122406 0.126966,0.2802 0.126966,0.5560219 z m -1.554235,-0.8143313 q -0.166369,0 -0.35025,0.1269657 -0.179503,0.1225875 -0.306469,0.3108468 -0.122587,0.1882594 -0.122587,0.385275 0,0.2013938 0.118209,0.4115438 0.11821,0.21015 0.297713,0.385275 0.183881,0.175125 0.37214,0.27144376 0.332738,-0.14009996 0.564778,-0.45094686 0.236419,-0.315225 0.236419,-0.6260719 0,-0.1838813 -0.131344,-0.3721406 -0.126965,-0.1882594 -0.315225,-0.315225 -0.188259,-0.1269657 -0.363384,-0.1269657 z M 38.631981,0 h -0.713635 v -0.79681876 h 0.704879 q 0.437812,0 0.591046,-0.25393124 0.157613,-0.2539313 0.157613,-0.6435844 0,-0.2845781 -0.05254,-0.6085594 -0.05254,-0.3239812 -0.113831,-0.6523406 l 0.761794,-0.1926375 q 0.07443,0.35025 0.118209,0.6873656 0.04378,0.3371156 0.04378,0.6435844 0,0.525375 -0.144479,0.93691876 -0.144478,0.41154376 -0.472837,0.64796251 Q 39.183625,0 38.631981,0 Z m 0.534131,-5.1661876 0.634828,0.6348282 -0.634828,0.6348281 -0.634828,-0.6348281 z m -1.861297,1.4491594 0.634828,0.6348281 -0.634828,0.6348282 -0.634828,-0.6348282 z m 0.05254,4.864097 q 0.731147,0 1.129557,-0.24079691 0.402787,-0.23641875 0.5604,-0.62607189 0.16199,-0.385275 0.16199,-0.82746563 0,-0.52099687 -0.1401,-1.02885937 -0.1401,-0.5078625 -0.262687,-0.8318438 l 0.748659,-0.3020906 q 0.205772,0.5647781 0.310847,1.0989094 0.109453,0.5297531 0.109453,1.01134687 0,0.73990313 -0.275822,1.31343752 Q 39.428205,1.2871688 38.850293,1.61115 38.27238,1.9351313 37.357352,1.9351313 q -0.945675,0 -1.514831,-0.3458719 -0.564778,-0.3458719 -0.818709,-0.92378439 -0.249553,-0.57353438 -0.249553,-1.26090002 0,-0.46408129 0.09632,-0.95005319 0.09632,-0.49035 0.262688,-0.9544312 l 0.696122,0.2802 q -0.126966,0.4027875 -0.214528,0.8274656 -0.08756,0.42467816 -0.08756,0.82308754 0,0.47283751 0.166369,0.86249064 0.170747,0.38965313 0.569156,0.62169376 0.398409,0.23204066 1.094531,0.23204066 z m -5.096137,-4.3474782 q 0.682987,0 1.151447,0.6129375 0.468459,0.6085594 0.485971,1.79065314 h 0.529754 V 0 H 33.828583 Q 33.732265,0.50348438 33.443308,0.97194377 33.15873,1.4447813 32.593952,1.8037875 32.029174,2.1671719 31.096633,2.346675 L 30.838324,1.6505532 Q 32.821615,1.2696563 33.13684,0 h -0.691744 q -1.659309,0 -1.659309,-1.3440844 0,-0.4290563 0.170746,-0.8581125 0.175125,-0.4290563 0.503485,-0.7136344 0.332737,-0.2845781 0.801197,-0.2845781 z m 0.1401,2.40359064 h 0.774928 q -0.05254,-0.84497814 -0.2802,-1.23025314 -0.223285,-0.385275 -0.647963,-0.385275 -0.2802,0 -0.44219,0.1795031 -0.157613,0.1795031 -0.223285,0.4246781 -0.06129,0.2407969 -0.06129,0.4378126 0,0.3064687 0.205771,0.44219058 0.21015,0.13134376 0.674232,0.13134376 z m -5.39823,0 h 0.661097 q 0.556021,0 0.79244,-0.24955314 0.240797,-0.2495531 0.240797,-0.7661719 0,-0.21015 -0.01313,-0.3984094 -0.0088,-0.1882593 -0.02627,-0.3765187 l 0.731147,-0.087562 0.07005,1.0244812 q 0.05254,0.85373444 0.888759,0.85373444 h 0.09194 V 0 H 30.339216 Q 29.853244,0 29.55991,-0.175125 29.270953,-0.35025001 29.09145,-0.66985314 28.855032,-0.32398126 28.469757,-0.16199063 28.084482,0 27.664182,0 h -0.661097 z m 1.580503,1.49294065 0.612937,0.60855941 -0.612937,0.6173156 -0.60856,-0.6173156 z m -1.453538,0 L 27.742988,1.3046813 27.13005,1.9219969 26.521491,1.3046813 Z M 24.787753,0 q -0.4203,0 -0.678609,-0.175125 -0.25831,-0.17512501 -0.4203,-0.49472814 -0.245175,0.35462813 -0.547266,0.51224064 Q 22.843866,0 22.493616,0 21.990131,0 21.714309,-0.17074688 21.442866,-0.34587188 21.280875,-0.66985314 21.075103,-0.34587188 20.7555,-0.17074688 20.435897,0 19.84485,0 h -0.402788 v -0.79681876 h 0.411544 q 0.5604,0 0.81871,-0.20577184 0.258309,-0.21015 0.258309,-0.7617938 0,-0.1138313 -0.01313,-0.2670656 -0.0088,-0.1576125 -0.03065,-0.4378125 l 0.731147,-0.091941 0.07005,0.9150282 q 0.02627,0.3677625 0.223284,0.6085594 0.201394,0.24079684 0.591047,0.24079684 0.464081,0 0.63045,-0.24955314 0.166369,-0.2495531 0.166369,-0.7180125 0,-0.1138313 -0.01314,-0.2714438 -0.0088,-0.1576125 -0.03065,-0.4334343 l 0.731147,-0.091941 0.07005,0.9150282 q 0.02189,0.3546281 0.18826,0.6041812 0.166368,0.24517504 0.538509,0.24517504 0.647963,0 0.647963,-0.96756564 0,-0.1576125 -0.01314,-0.3283594 -0.0088,-0.1707469 -0.03065,-0.4509469 l 0.731147,-0.087563 0.07005,0.9850782 q 0.05254,0.84935624 0.866869,0.84935624 h 0.131344 V 0 H 27.064378 Q 26.604675,0 26.298206,-0.16636875 25.991738,-0.33711563 25.877906,-0.67423126 25.694025,-0.35025001 25.453228,-0.175125 25.216809,0 24.787753,0 Z m -8.14769,-0.79681876 h 0.950053 q 0.437812,0 0.591047,-0.25393124 0.157612,-0.2539313 0.157612,-0.6435844 0,-0.2845781 -0.05254,-0.6085594 Q 18.2337,-2.626875 18.172407,-2.9552344 L 18.9342,-3.1478719 q 0.07443,0.35025 0.11821,0.6873656 0.04378,0.3371156 0.04378,0.6435844 0,0.525375 -0.144478,0.93691876 -0.144478,0.41154376 -0.472838,0.64796251 Q 18.150516,0 17.598872,0 h -0.958809 z m 1.580503,1.49294065 0.612937,0.60855941 -0.612937,0.6173156 -0.608559,-0.6173156 z m -1.453538,0 0.612938,0.60855941 -0.612938,0.6173156 -0.608559,-0.6173156 z m -1.291547,-5.20121259 0.634828,0.6348281 -0.634828,0.6348282 -0.634828,-0.6348282 z m -1.602394,6.860522 -0.258309,-0.6961219 q 1.068262,-0.2320406 1.506075,-0.81433126 0.437813,-0.57791251 0.437813,-1.37035315 0,-0.37214063 -0.08319,-0.77930629 -0.07881,-0.4115437 -0.223284,-0.8362219 l 0.726769,-0.245175 q 0.315225,0.8975157 0.315225,1.72935944 0,0.73114689 -0.25831,1.35284065 -0.253931,0.62607191 -0.79244,1.05950631 -0.534132,0.4378125 -1.370354,0.5998031 z m -2.285381,-5.5558407 q 0.682988,0 1.151447,0.6129375 0.468459,0.6085594 0.485972,1.79065314 h 0.529753 V 0 H 13.155075 Q 13.058756,0.50348438 12.7698,0.97194377 12.485222,1.4447813 11.920444,1.8037875 11.355665,2.1671719 10.423125,2.346675 L 10.164815,1.6505532 Q 12.148106,1.2696563 12.463331,0 h -0.691744 q -1.659309,0 -1.659309,-1.3440844 0,-0.4290563 0.170747,-0.8581125 0.175125,-0.4290563 0.503484,-0.7136344 0.332738,-0.2845781 0.801197,-0.2845781 z m 0.1401,2.40359064 h 0.774928 q -0.05254,-0.84497814 -0.2802,-1.23025314 -0.223284,-0.385275 -0.647962,-0.385275 -0.2802,0 -0.442191,0.1795031 -0.157612,0.1795031 -0.223284,0.4246781 -0.06129,0.2407969 -0.06129,0.4378126 0,0.3064687 0.205772,0.44219058 0.21015,0.13134376 0.674231,0.13134376 z m -4.9385251,0 H 7.739334 q 0.4378125,0 0.5910469,-0.25393124 0.1576125,-0.2539313 0.1576125,-0.6435844 0,-0.2845781 -0.052538,-0.6085594 -0.052537,-0.3239812 -0.1138313,-0.6523406 l 0.7617938,-0.1926375 q 0.074428,0.35025 0.1182094,0.6873656 0.043781,0.3371156 0.043781,0.6435844 0,0.525375 -0.1444781,0.93691876 Q 8.9564528,-0.46845938 8.6280934,-0.23204063 8.299734,0 7.7480903,0 H 6.7892809 Z M 8.3741621,0.55164376 8.965209,1.1426906 8.3741621,1.7337375 7.7831153,1.1426906 Z m -1.4973187,0 L 7.4678902,1.1426906 6.8768434,1.7337375 6.2857965,1.1426906 Z M 7.6255028,1.6593094 8.2165496,2.2503563 7.6255028,2.8414032 7.0344559,2.2503563 Z M 6.2157465,-6.0286782 v 6.02430007 H 5.4758434 V -6.0286782 Z"
       id="text12"
       transform="matrix(1.3333333,0,0,1.3333333,387.304,407.18)"
       aria-label="ﺶﻘﻧنﻮﯿﺴﯾزﻮﭘا" />
    <path
       style="font-size:8.9664px;font-family:Vazirmatn"
       d="m 18.520591,-4.2949407 0.612938,0.6085594 -0.612938,0.6173156 -0.608559,-0.6173156 z m -1.453537,0 0.612937,0.6085594 -0.612937,0.6173156 -0.60856,-0.6173156 z m 3.375534,1.7074688 0.731147,-0.087562 0.07443,1.0244812 q 0.02627,0.4159219 0.236419,0.6348282 0.214528,0.21890624 0.639206,0.21890624 h 0.105075 V 0 H 22.123788 Q 21.62906,0 21.309457,-0.18388125 20.994232,-0.37214063 20.78846,-0.78368439 20.425076,-0.36338438 19.855919,-0.17950313 19.291141,0 18.284172,0 h -0.731146 q -1.650554,0 -2.482397,-0.44656876 -0.827466,-0.44656875 -0.827466,-1.54547814 0,-0.3020906 0.06567,-0.5910469 0.07005,-0.2889562 0.179503,-0.5560219 l 0.678609,0.2539313 q -0.07005,0.1926375 -0.118209,0.4115437 -0.04378,0.2189063 -0.04378,0.4159219 0.0044,0.5122406 0.288956,0.7880625 0.284578,0.27144378 0.849356,0.37214066 0.564778,0.10069688 1.409757,0.10069688 h 0.731146 q 1.046372,0 1.619907,-0.21890624 0.577912,-0.2189063 0.577912,-0.7968188 0,-0.1795031 -0.01313,-0.385275 -0.0088,-0.2057719 -0.02627,-0.3896531 z M 10.390412,-0.79681876 Q 10.193396,-1.0419938 10.053296,-1.3966219 9.9175745,-1.7556282 9.9175745,-2.1146344 q 0,-0.4684594 0.2451755,-0.8493563 0.245175,-0.3808969 0.643584,-0.6041812 0.398409,-0.2232844 0.858112,-0.2232844 0.696122,0 1.492941,0.5428875 l -0.293334,0.6523406 q -0.682988,-0.4027875 -1.151447,-0.4027875 -0.402788,0 -0.713635,0.2495532 -0.310846,0.2495531 -0.310846,0.665475 0,0.3239812 0.144478,0.5735344 0.148856,0.2495531 0.315225,0.3896531 0.166368,0.13572186 0.223284,0.13572186 0.07881,0 0.153234,-0.0218907 l 1.851947,-0.4421906 v 0.79681876 Q 12.28614,-0.31960313 11.357978,-0.1576125 10.434193,0 9.5235433,0 H 9.0463277 V -0.79681876 Z M 8.4038641,0 Q 8.1017735,0 7.8960016,-0.07880625 7.6946079,-0.16199063 7.5807766,-0.25393125 7.5151048,0.31960313 7.2611735,0.85373439 7.0116204,1.3922438 6.508136,1.7906532 6.0046516,2.1890625 5.177186,2.3510532 L 4.9188766,1.6593094 q 1.0682625,-0.2320406 1.506075,-0.81433126 0.4378125,-0.57791251 0.4378125,-1.37035315 0,-0.37214063 -0.083184,-0.77930629 -0.078806,-0.4115437 -0.2232843,-0.8362219 l 0.7267687,-0.245175 0.2364188,0.9150282 q 0.096319,0.3677625 0.3064687,0.52099686 0.21015,0.15323438 0.5297532,0.15323438 H 8.5220735 V 0 Z M 1.5652327,0 Q 1.0617484,0 0.78592648,-0.17074688 0.51448272,-0.34587188 0.35249209,-0.66985314 0.14672022,-0.34587188 -0.17288291,-0.17074688 -0.49248604,0 -1.0835329,0 h -0.4027875 v -0.79681876 h 0.4115437 q 0.56040003,0 0.81870941,-0.20577184 0.25830938,-0.21015 0.25830938,-0.7617938 0,-0.1138313 -0.01313438,-0.2670656 -0.0087562,-0.1576125 -0.03064687,-0.4378125 l 0.73114688,-0.091941 0.07005,0.9150282 q 0.0262687,0.3677625 0.22328437,0.6085594 0.2013938,0.24079684 0.5910469,0.24079684 0.4640812,0 0.63045,-0.24955314 0.1663688,-0.2495531 0.1663688,-0.7180125 0,-0.1138313 -0.013134,-0.2714438 -0.00876,-0.1576125 -0.030647,-0.4334343 l 0.7311469,-0.091941 0.07005,0.9150282 q 0.021891,0.3546281 0.1882594,0.6041812 0.1663687,0.24517504 0.5385094,0.24517504 0.3633843,0 0.4991062,-0.27144374 0.1357219,-0.2714438 0.1357219,-0.6348282 0,-0.3283593 -0.065672,-0.6610968 -0.061294,-0.3327375 -0.1094531,-0.5385094 l 0.7486594,-0.2013938 q 0.078806,0.2933344 0.1269656,0.6260719 0.048159,0.3283594 0.048159,0.6567188 0,0.4728375 -0.1313438,0.88875936 Q 4.9757922,-0.51661876 4.6737015,-0.25830938 4.375989,-0.00437813 3.8593703,0 3.4390703,0 3.1807609,-0.175125 2.9224515,-0.35025001 2.7604609,-0.66985314 2.5152859,-0.31522501 2.2131952,-0.1576125 1.9154827,0 1.5652327,0 Z"
       id="text13"
       transform="matrix(1.3333333,0,0,1.3333333,163.28667,404.86933)"
       aria-label="ﺖﻋﺮﺳ" />
    <path
       style="font-size:8.9664px;font-family:Vazirmatn"
       d="m 32.376828,2.2547344 q -0.945675,0 -1.514831,-0.3458719 -0.564778,-0.3458718 -0.818709,-0.92378436 -0.249554,-0.57353438 -0.249554,-1.26090002 0,-0.2977125 0.04378,-0.68736564 0.04816,-0.38965308 0.214528,-0.88875938 l 0.696122,0.2583094 q -0.126966,0.4378125 -0.166369,0.77492811 -0.03503,0.33711563 -0.03503,0.56915626 0,0.47283751 0.166369,0.86249064 0.166368,0.38965309 0.564778,0.62169379 0.402787,0.2320406 1.098909,0.2320406 0.656719,0 1.125178,-0.1619906 0.472838,-0.1619907 0.722391,-0.38527503 0.253931,-0.22328438 0.253931,-0.40716564 0,-0.21015 -0.183881,-0.35900625 -0.179503,-0.14885625 -0.586669,-0.14885625 h -0.647962 q -0.08756,0 -0.126966,-0.07442813 -0.0394,-0.07880625 -0.07443,-0.20139375 l -0.118209,-0.42030001 q -0.0044,-0.035025 0.01751,-0.0656719 0.02189,-0.035025 0.07881,-0.035025 h 2.42986 v 0.79681877 h -0.179503 q 0.06567,0.13134375 0.08318,0.24955312 0.02189,0.11820938 0.02189,0.24517501 0,0.28895625 -0.170747,0.59542504 -0.166369,0.3108468 -0.516619,0.5735344 -0.345872,0.2626875 -0.875625,0.4246781 -0.529753,0.1619906 -1.252144,0.1619906 z m -7.237039,-7.5566439 v -0.4815937 l 3.327375,-1.3484625 v 0.4815937 z m 0.604181,1.0551282 q 0.499106,0.35025 0.954431,0.6961219 0.459704,0.3414937 0.827466,0.7442812 0.367763,0.3984094 0.582291,0.9281625 0.23204,0.5647782 0.49035,0.8230876 0.258309,0.25830934 0.726769,0.25830934 h 0.122587 V 0 h -0.122587 q -0.485972,0 -0.827466,-0.18825938 -0.337116,-0.18825938 -0.604181,-0.59980313 -0.175125,0.25830938 -0.429057,0.43343438 -0.249553,0.175125 -0.656718,0.26706563 Q 26.405067,0 25.761483,0 H 24.69322 v -0.79681876 h 1.063885 q 0.849356,0 1.217118,-0.14885626 0.367763,-0.15323438 0.367763,-0.60418128 0,-0.2889562 -0.205772,-0.5647781 -0.201394,-0.2758219 -0.525375,-0.5428875 -0.319603,-0.2714438 -0.687366,-0.5297532 -0.367762,-0.2626875 -0.691743,-0.5166187 -0.1401,-0.1138313 -0.214529,-0.2670656 -0.07443,-0.1532344 -0.07443,-0.3108469 0,-0.1795031 0.09632,-0.3371157 0.100697,-0.1576125 0.310847,-0.2407968 l 3.147872,-1.2784126 v 0.7749282 z m -2.657522,1.6593094 0.731147,-0.087562 0.07005,1.0244812 q 0.05254,0.85373444 0.888759,0.85373444 h 0.09194 V 0 H 24.767648 Q 24.281676,0 23.988342,-0.175125 23.699386,-0.35025001 23.519883,-0.66985314 23.283464,-0.32398126 22.898189,-0.16199063 22.512914,0 22.092614,0 h -0.4203 v -0.79681876 h 0.4203 q 0.556022,0 0.79244,-0.24955314 0.240797,-0.2495531 0.240797,-0.7661719 0,-0.21015 -0.01313,-0.3984094 -0.0088,-0.1882593 -0.02627,-0.3765187 z m 0.08319,-2.1803063 0.634828,0.6348281 -0.634828,0.6348282 -0.634829,-0.6348282 z m -4.59703,3.97095944 h 1.247766 q 0.437812,0 0.591047,-0.25393124 0.157612,-0.2539313 0.157612,-0.6435844 0,-0.2845781 -0.05254,-0.6085594 -0.05254,-0.3239812 -0.113831,-0.6523406 l 0.761793,-0.1926375 q 0.07443,0.35025 0.11821,0.6873656 0.04378,0.3371156 0.04378,0.6435844 0,0.525375 -0.144478,0.93691876 -0.144478,0.41154376 -0.472838,0.64796251 Q 20.380769,0 19.829125,0 H 18.572603 Z M 20.450819,0.69612189 21.063756,1.3046813 20.450819,1.9219969 19.84226,1.3046813 Z m -1.453538,0 0.612938,0.60855941 -0.612938,0.6173156 -0.608559,-0.6173156 z m -1.992048,-5.20121259 0.634828,0.6348281 -0.634828,0.6348282 -0.634828,-0.6348282 z M 18.629517,0 q -0.30209,0 -0.507862,-0.07880625 -0.201394,-0.08318438 -0.315225,-0.175125 -0.06567,0.57353438 -0.319603,1.10766564 -0.249553,0.53850941 -0.753038,0.93691881 -0.503484,0.3984093 -1.33095,0.5604 L 15.14453,1.6593094 q 1.068262,-0.2320406 1.506075,-0.81433126 0.437812,-0.57791251 0.437812,-1.37035315 0,-0.37214063 -0.08318,-0.77930629 -0.07881,-0.4115437 -0.223284,-0.8362219 l 0.726768,-0.245175 0.236419,0.9150282 q 0.09632,0.3677625 0.306469,0.52099686 0.21015,0.15323438 0.529753,0.15323438 h 0.166369 V 0 Z m -6.619723,-3.5550376 0.345871,-0.6479625 q 1.571747,0.7661719 2.342297,1.3703532 0.77055,0.5998031 0.77055,1.225875 0,0.77492814 -0.481593,1.16895939 -0.477216,0.39403126 -1.282791,0.39403126 -0.302091,0 -0.643584,-0.04815938 Q 12.71905,-0.1401 12.412581,-0.21015 q -0.306469,-0.0744281 -0.516619,-0.14447813 -0.380897,0.1401 -0.893137,0.24955313 Q 10.490584,0 10.013369,0 H 9.5799342 v -0.79681876 h 0.3765187 q 0.2889561,0 0.5078621,-0.0131344 0.223285,-0.0131344 0.485972,-0.0437812 -0.30209,-0.24517501 -0.437812,-0.53413121 -0.131344,-0.2933344 -0.131344,-0.6041813 0,-0.455325 0.214528,-0.7836844 0.214528,-0.3283594 0.569156,-0.5034844 0.354629,-0.1795031 0.774929,-0.1795031 0.188259,0 0.376518,0.048159 -0.148856,-0.07005 -0.306468,-0.1444782 z m 0.79244,2.71881571 q 0.192638,0.0218906 0.4203,0.0437812 0.227663,0.0175125 0.402788,0.0175125 0.529753,0 0.805575,-0.19701563 0.2802,-0.20139373 0.2802,-0.62169373 0,-0.2145282 -0.245175,-0.4640813 -0.245175,-0.2539312 -0.656719,-0.5209969 -0.407166,-0.2714437 -0.901894,-0.5341312 0.240797,0.1926375 0.385275,0.4640812 0.148856,0.2714438 0.148856,0.5735344 0,0.4115438 -0.166368,0.7048782 -0.161991,0.2889562 -0.472838,0.53413121 z M 11.134169,-2.0008032 q 0,0.2583094 0.214528,0.5166188 0.218906,0.2539313 0.63045,0.4115438 0.788062,-0.3196032 0.788062,-0.9194063 0,-0.3808969 -0.23204,-0.5779125 -0.227663,-0.2013938 -0.551644,-0.2013938 -0.376519,0 -0.612938,0.21015 -0.236418,0.21015 -0.236418,0.5604 z m -7.0919682,0.3239813 q 0.052538,0.3765188 0.2714438,0.63045 0.2232843,0.24955314 0.5122406,0.24955314 H 4.9440946 V 0 H 4.8258852 Q 4.5588196,0 4.2961321,-0.11383125 4.0378227,-0.2276625 3.8670758,-0.49910626 3.7182195,-0.21890625 3.4423977,-0.07442813 3.1665758,0.07005 2.7375195,0.07005 q -0.2583093,0 -0.525375,-0.08318438 Q 1.949457,-0.09631875 1.704282,-0.20139375 1.4634851,-0.31084688 1.2620914,-0.39403126 q -0.2013938,-0.0831844 -0.33711565,-0.0831844 -0.245175,0 -0.37214063,0.16199062 -0.1225875,0.15761251 -0.16636875,0.53850939 -0.0394031,0.38089688 -0.0394031,1.05512812 0,0.2977125 0.004378,0.5297532 0.008756,0.2364187 0.0218906,0.4640812 0.0175125,0.2276625 0.035025,0.5166188 h -0.75303751 q -0.0218906,-0.4027875 -0.035025,-0.7574157 -0.0131344,-0.35025 -0.0131344,-0.7092562 0,-0.49035004 0.0262688,-0.93254067 0.0306469,-0.44219063 0.13572187,-0.79681876 0.10945313,-0.35900626 0.33711563,-0.59104689 0.22766251,-0.23641878 0.62607189,-0.31084688 0.245175,-0.8537344 0.63920625,-1.3397063 0.3984094,-0.49035 1.085775,-0.49035 0.4027875,0 0.7399032,0.1926375 0.3371156,0.1882594 0.5604,0.5209969 0.2276625,0.3283594 0.2845781,0.7486594 z m -0.7092563,0.3721406 q 0,-0.4509469 -0.2407968,-0.7530375 -0.2407969,-0.3064687 -0.6173157,-0.3064687 -0.2714437,0 -0.4597031,0.1707468 -0.1882594,0.1663688 -0.315225,0.4421907 -0.1269656,0.2714437 -0.2232844,0.5822906 0.4772156,0.21015001 0.7924406,0.33273751 0.3196032,0.11820938 0.4772157,0.11820938 0.2889562,0 0.4378125,-0.1576125 0.1488562,-0.16199059 0.1488562,-0.42905629 z m -7.1757472,-2.9421 q 0.3808969,0.2670656 0.7924406,0.5647781 0.4115438,0.2933344 0.7661719,0.63045 0.3590063,0.3327375 0.5779125,0.7136344 0.2232844,0.3765188 0.2232844,0.805575 -0.00438,0.81433129 -0.5647781,1.17333754 Q -2.6037933,0 -3.8252902,0 h -1.0682625 v -0.79681876 h 1.0638844 q 0.8493562,0 1.2171187,-0.14885626 0.3677625,-0.15323438 0.3677625,-0.60418128 0,-0.2889562 -0.2057718,-0.5647781 -0.2013938,-0.2758219 -0.525375,-0.5428875 -0.3196032,-0.2714438 -0.6873657,-0.5297532 -0.3677625,-0.2626875 -0.6917437,-0.5166187 -0.1401,-0.1138313 -0.2145282,-0.2670656 -0.074428,-0.1532344 -0.074428,-0.3064688 0,-0.1795031 0.096319,-0.3371156 0.1006968,-0.1619907 0.3108468,-0.245175 l 3.147872,-1.2784126 v 0.7749282 z"
       id="text14"
       transform="matrix(1.3333333,0,0,1.3333333,24.349333,231.89867)"
       aria-label="ﯽﮕﻨﯾﺰﻫ ﻢﮐ" />
    <path
       style="font-size:8.9664px;font-family:Vazirmatn"
       d="m 30.69563,2.2547344 q -0.945675,0 -1.514831,-0.3458719 -0.564778,-0.3458718 -0.81871,-0.92378436 -0.249553,-0.57353438 -0.249553,-1.26090002 0,-0.2977125 0.04378,-0.68736564 0.04816,-0.38965308 0.214528,-0.88875938 l 0.696122,0.2583094 q -0.126966,0.4378125 -0.166369,0.77492811 -0.03503,0.33711563 -0.03503,0.56915626 0,0.47283751 0.166369,0.86249064 0.166368,0.38965309 0.564778,0.62169379 0.402787,0.2320406 1.098909,0.2320406 0.656719,0 1.125178,-0.1619906 0.472838,-0.1619907 0.722391,-0.38527503 0.253931,-0.22328438 0.253931,-0.40716564 0,-0.21015 -0.183881,-0.35900625 Q 32.433746,0.00437813 32.02658,0.00437813 h -0.647962 q -0.08756,0 -0.126966,-0.07442813 -0.0394,-0.07880625 -0.07443,-0.20139375 l -0.11821,-0.42030001 q -0.0044,-0.035025 0.01751,-0.0656719 0.02189,-0.035025 0.07881,-0.035025 h 2.42986 V 0.00437813 H 33.40569 q 0.06567,0.13134375 0.08318,0.24955312 0.02189,0.11820938 0.02189,0.24517501 0,0.28895625 -0.170747,0.59542504 -0.166369,0.3108468 -0.516619,0.5735344 -0.345872,0.2626875 -0.875625,0.4246781 -0.529753,0.1619906 -1.252144,0.1619906 z m -6.63286,-6.5015157 q 0.499106,0.35025 0.954431,0.6961219 0.459704,0.3414937 0.827466,0.7442812 0.367763,0.3984094 0.582291,0.9281625 0.23204,0.5647782 0.49035,0.8230876 0.258309,0.25830934 0.726768,0.25830934 h 0.122588 V 0 h -0.122588 q -0.485971,0 -0.827465,-0.18825938 -0.337116,-0.18825938 -0.604181,-0.59980313 -0.175125,0.25830938 -0.429057,0.43343438 -0.249553,0.175125 -0.656718,0.26706563 Q 24.723867,0 24.080283,0 H 23.01202 v -0.79681876 h 1.063885 q 0.849356,0 1.217118,-0.14885626 0.367763,-0.15323438 0.367763,-0.60418128 0,-0.2889562 -0.205772,-0.5647781 -0.201394,-0.2758219 -0.525375,-0.5428875 -0.319603,-0.2714438 -0.687366,-0.5297532 -0.367762,-0.2626875 -0.691743,-0.5166187 -0.1401,-0.1138313 -0.214529,-0.2670656 -0.07443,-0.1532344 -0.07443,-0.3108469 0,-0.1795031 0.09632,-0.3371157 0.100697,-0.1576125 0.310847,-0.2407968 l 3.147872,-1.2784126 v 0.7749282 z M 20.787932,0 q -0.4203,0 -0.678609,-0.175125 -0.258309,-0.17512501 -0.4203,-0.49472814 -0.245175,0.35462813 -0.547266,0.51224064 Q 18.844045,0 18.493795,0 17.990311,0 17.714489,-0.17074688 17.443045,-0.34587188 17.281054,-0.66985314 17.075282,-0.34587188 16.755679,-0.17074688 16.436076,0 15.845029,0 h -0.402787 v -0.79681876 h 0.411543 q 0.5604,0 0.81871,-0.20577184 0.258309,-0.21015 0.258309,-0.7617938 0,-0.1138313 -0.01313,-0.2670656 -0.0088,-0.1576125 -0.03065,-0.4378125 l 0.731147,-0.091941 0.07005,0.9150282 q 0.02627,0.3677625 0.223284,0.6085594 0.201394,0.24079684 0.591047,0.24079684 0.464081,0 0.63045,-0.24955314 0.166369,-0.2495531 0.166369,-0.7180125 0,-0.1138313 -0.01313,-0.2714438 -0.0088,-0.1576125 -0.03065,-0.4334343 l 0.731147,-0.091941 0.07005,0.9150282 q 0.02189,0.3546281 0.188259,0.6041812 0.166369,0.24517504 0.538509,0.24517504 0.647963,0 0.647963,-0.96756564 0,-0.1576125 -0.01313,-0.3283594 -0.0088,-0.1707469 -0.03065,-0.4509469 l 0.731146,-0.087563 0.07005,0.9850782 q 0.05254,0.84935624 0.866869,0.84935624 h 0.131344 V 0 H 23.064557 Q 22.604854,0 22.298386,-0.16636875 21.991917,-0.33711563 21.878086,-0.67423126 21.694204,-0.35025001 21.453407,-0.175125 21.216989,0 20.787932,0 Z m -8.147689,-0.79681876 h 0.950053 q 0.437813,0 0.591047,-0.25393124 0.157613,-0.2539313 0.157613,-0.6435844 0,-0.2845781 -0.05254,-0.6085594 -0.05254,-0.3239812 -0.113831,-0.6523406 l 0.761794,-0.1926375 q 0.07443,0.35025 0.118209,0.6873656 0.04378,0.3371156 0.04378,0.6435844 0,0.525375 -0.144478,0.93691876 -0.144478,0.41154376 -0.472837,0.64796251 Q 14.150696,0 13.599052,0 h -0.958809 z m 1.580503,1.49294065 0.612938,0.60855941 -0.612938,0.6173156 -0.608559,-0.6173156 z m -1.453537,0 0.612937,0.60855941 -0.612937,0.6173156 -0.60856,-0.6173156 z M 9.8732667,2.3554313 9.6149573,1.6593094 Q 10.68322,1.4272688 11.121032,0.84497814 q 0.437813,-0.57791251 0.437813,-1.37035315 0,-0.37214063 -0.08319,-0.77930629 -0.07881,-0.4115437 -0.223284,-0.8362219 l 0.726769,-0.245175 q 0.315225,0.8975157 0.315225,1.72935944 0,0.73114689 -0.25831,1.35284065 Q 11.782129,1.3221938 11.24362,1.7556282 10.709489,2.1934407 9.8732667,2.3554313 Z M 4.0422003,-1.6768219 q 0.052537,0.3765188 0.2714438,0.63045 0.2232844,0.24955314 0.5122406,0.24955314 H 4.9440941 V 0 H 4.8258847 Q 4.5588191,0 4.2961316,-0.11383125 4.0378222,-0.2276625 3.8670753,-0.49910626 3.7182191,-0.21890625 3.4423972,-0.07442813 3.1665753,0.07005 2.7375191,0.07005 2.4792097,0.07005 2.212144,-0.01313438 1.9494565,-0.09631875 1.7042815,-0.20139375 1.4634847,-0.31084688 1.2620909,-0.39403126 q -0.2013937,-0.0831844 -0.33711562,-0.0831844 -0.24517501,0 -0.37214064,0.16199062 -0.1225875,0.15761251 -0.16636875,0.53850939 -0.0394031,0.38089688 -0.0394031,1.05512812 0,0.2977125 0.004378,0.5297532 0.008756,0.2364187 0.0218906,0.4640812 0.0175125,0.2276625 0.035025,0.5166188 H -0.34468099 Q -0.36657162,2.3860782 -0.379706,2.03145 -0.39284037,1.6812 -0.39284037,1.3221938 q 0,-0.49035004 0.0262688,-0.93254067 0.0306469,-0.44219063 0.13572188,-0.79681876 0.10945312,-0.35900626 0.33711563,-0.59104689 0.2276625,-0.23641878 0.62607188,-0.31084688 0.24517501,-0.8537344 0.63920623,-1.3397063 0.3984094,-0.49035 1.0857751,-0.49035 0.4027875,0 0.7399031,0.1926375 0.3371156,0.1882594 0.5604,0.5209969 0.2276625,0.3283594 0.2845781,0.7486594 z m -0.7092562,0.3721406 q 0,-0.4509469 -0.2407969,-0.7530375 -0.2407969,-0.3064687 -0.6173156,-0.3064687 -0.2714438,0 -0.4597032,0.1707468 -0.1882594,0.1663688 -0.315225,0.4421907 -0.1269656,0.2714437 -0.2232844,0.5822906 0.4772157,0.21015001 0.7924407,0.33273751 0.3196031,0.11820938 0.4772156,0.11820938 0.2889563,0 0.4378125,-0.1576125 0.1488563,-0.16199059 0.1488563,-0.42905629 z m -7.1757468,-2.9421 q 0.3808969,0.2670656 0.7924406,0.5647781 0.4115438,0.2933344 0.7661719,0.63045 0.3590063,0.3327375 0.5779125,0.7136344 0.2232844,0.3765188 0.2232844,0.805575 -0.00438,0.81433129 -0.5647781,1.17333754 Q -2.6037933,0 -3.8252902,0 h -1.0682625 v -0.79681876 h 1.0638844 q 0.8493562,0 1.2171187,-0.14885626 0.3677625,-0.15323438 0.3677625,-0.60418128 0,-0.2889562 -0.2057718,-0.5647781 -0.2013938,-0.2758219 -0.525375,-0.5428875 -0.3196032,-0.2714438 -0.6873657,-0.5297532 -0.3677625,-0.2626875 -0.6917437,-0.5166187 -0.1401,-0.1138313 -0.2145282,-0.2670656 -0.074428,-0.1532344 -0.074428,-0.3064688 0,-0.1795031 0.096319,-0.3371156 0.1006968,-0.1619907 0.3108468,-0.245175 l 3.147872,-1.2784126 v 0.7749282 z"
       id="text15"
       transform="matrix(1.3333333,0,0,1.3333333,129.164,32.530667)"
       aria-label="ﯽﮑﺴﯾر ﻢﮐ" />
    <path
       id="path15"
       d="M 59.52812,103.10605 119.05627,0 68.03217,-117.83548 -51.02411,-88.3766 -102.04825,0 -59.52812,103.10605 Z"
       style="fill:#3498db;fill-opacity:0.2;fill-rule:nonzero;stroke:#3498db;stroke-width:1.99255;stroke-linecap:butt;stroke-linejoin:miter;stroke-miterlimit:10;stroke-dasharray:none;stroke-opacity:1"
       transform="matrix(1.3333333,0,0,-1.3333333,280.56267,217.696)" />
    <path
       id="path16"
       d="M 42.52008,73.64716 119.05627,0 68.03217,-117.83548 -34.01608,-58.91772 -85.04019,0 -51.02411,88.3766 Z"
       style="fill:#006633;fill-opacity:0.1;fill-rule:nonzero;stroke:#006633;stroke-width:1.49442;stroke-linecap:butt;stroke-linejoin:miter;stroke-miterlimit:10;stroke-dasharray:none;stroke-opacity:1"
       transform="matrix(1.3333333,0,0,-1.3333333,280.56267,217.696)" />
    <path
       style="font-size:9.9626px;font-family:Vazirmatn"
       d="m 54.60166,2.5052436 q -1.050743,0 -1.683134,-0.3842995 -0.627527,-0.3842995 -0.909671,-1.0264202 -0.27728,-0.63725614 -0.27728,-1.40099059 0,-0.33078945 0.04865,-0.76373441 0.05351,-0.4329451 0.238363,-0.9875038 l 0.773463,0.2870085 q -0.141072,0.486455 -0.184853,0.86102543 -0.03892,0.3745704 -0.03892,0.63239158 0,0.52537147 0.184853,0.95831648 0.184853,0.43294501 0.627527,0.69076621 0.447539,0.2578212 1.221002,0.2578212 0.729683,0 1.25019,-0.1799884 0.525371,-0.1799884 0.802651,-0.4280805 0.282143,-0.24809204 0.282143,-0.45240317 0,-0.23349843 -0.204311,-0.39889316 Q 56.532887,0.00486455 56.080484,0.00486455 H 55.36053 q -0.09729,0 -0.141072,-0.08269736 -0.04378,-0.08756191 -0.0827,-0.22376933 L 55.005418,-0.768599 q -0.0049,-0.0389164 0.01946,-0.0729683 0.02432,-0.0389164 0.08756,-0.0389164 h 2.699826 v 0.88534822 h -0.199447 q 0.07297,0.14593652 0.09243,0.27727939 0.02432,0.13134287 0.02432,0.27241484 0,0.32106034 -0.189717,0.66157892 -0.184853,0.3453831 -0.574017,0.6372561 -0.3843,0.291873 -0.97291,0.4718614 -0.588611,0.1799884 -1.391262,0.1799884 z m -6.907658,-3.39059182 h 0.569153 q 0.617798,0 0.880483,-0.27727938 0.267551,-0.2772794 0.267551,-0.8512964 0,-0.2334984 -0.01459,-0.4426741 -0.0097,-0.2091757 -0.02919,-0.4183513 l 0.81238,-0.097291 0.07783,1.1383049 q 0.05837,0.94858738 0.987504,0.94858738 H 51.34728 V 0 h -0.111885 q -0.539965,0 -0.86589,-0.19458203 -0.32106,-0.19458202 -0.520507,-0.54969422 -0.262686,0.3842995 -0.690766,0.56428788 Q 48.730152,0 48.263155,0 H 47.694002 Z M 48.6961,0.74427625 49.40146,1.4496361 48.6961,2.1549959 47.99074,1.4496361 Z m -4.621323,-1.62962447 h 0.734547 q 0.617798,0 0.880484,-0.27727938 0.26755,-0.2772794 0.26755,-0.8512964 0,-0.2334984 -0.01459,-0.4426741 -0.0097,-0.2091757 -0.02919,-0.4183513 l 0.81238,-0.097291 0.07783,1.1383049 q 0.05837,0.94858738 0.987504,0.94858738 h 0.102155 V 0 h -0.111884 q -0.539966,0 -0.865891,-0.19458203 -0.32106,-0.19458202 -0.520506,-0.54969422 -0.262686,0.3842995 -0.690767,0.56428788 Q 45.276321,0 44.809324,0 H 44.074777 Z M 45.83088,0.77346356 46.511917,1.4496361 45.83088,2.1355377 45.154707,1.4496361 Z m -1.615031,0 0.681037,0.67617254 -0.681037,0.6859016 -0.676173,-0.6859016 z m -3.38573,-5.49207766 q 0.423216,0.2967375 0.880484,0.627527 0.457268,0.3259249 0.851296,0.7004953 0.398894,0.3697058 0.642121,0.7929217 0.248092,0.4183514 0.248092,0.8950774 -0.0049,0.90480639 -0.627527,1.30369955 Q 42.206787,0 40.849578,0 h -1.186951 v -0.88534822 h 1.182086 q 0.943723,0 1.352345,-0.16539468 0.408622,-0.1702593 0.408622,-0.671308 0,-0.3210604 -0.228634,-0.6275271 -0.223769,-0.3064667 -0.583746,-0.6032043 -0.355112,-0.3016021 -0.763734,-0.5886106 -0.408622,-0.291873 -0.768599,-0.574017 -0.155666,-0.1264783 -0.238363,-0.2967375 -0.0827,-0.1702593 -0.0827,-0.3405186 0,-0.1994466 0.10702,-0.3745704 0.111884,-0.1799884 0.345383,-0.2724148 L 43.889922,-6.8201 v 0.8610254 z M 38.80931,0 Q 38.473656,0 38.245022,-0.08756191 38.021253,-0.17998837 37.894775,-0.28214394 37.821806,0.3551122 37.539662,0.94858738 37.262383,1.5469271 36.70296,1.9896012 36.143536,2.4322753 35.224136,2.6122637 l -0.287008,-0.768599 q 1.18695,-0.2578212 1.673405,-0.90480642 0.486455,-0.64212069 0.486455,-1.52260436 0,-0.41348681 -0.09243,-0.86589002 Q 36.917,-1.9069039 36.75647,-2.3787653 l 0.807515,-0.2724148 0.262686,1.0166911 q 0.10702,0.4086222 0.340519,0.5788815 0.233498,0.17025928 0.58861,0.17025928 h 0.184853 V 0 Z m -4.144601,-5.7109825 0.681037,0.6761726 -0.681037,0.6859016 -0.676173,-0.6859016 z m -1.615031,0 0.681037,0.6761726 -0.681037,0.6859016 -0.676173,-0.6859016 z m -0.525372,4.82563428 h 0.997233 q 0.486455,0 0.656715,-0.28214398 0.175123,-0.2821439 0.175123,-0.7150889 0,-0.3161958 -0.05837,-0.6761725 -0.05837,-0.3599768 -0.126479,-0.7248181 l 0.846432,-0.2140402 q 0.0827,0.389164 0.131343,0.7637344 0.04865,0.3745704 0.04865,0.715089 0,0.5837461 -0.160531,1.04101382 -0.16053,0.45726776 -0.525371,0.71995349 Q 34.144202,0 33.531268,0 H 32.524306 Z M 31.604012,2.4565981 q -1.050743,0 -1.683135,-0.3842995 -0.627527,-0.3842995 -0.909671,-1.0264202 -0.277279,-0.63725614 -0.277279,-1.4009906 0,-0.51564237 0.10702,-1.0556075 0.10702,-0.5448297 0.291873,-1.060472 l 0.773464,0.3113312 q -0.141072,0.4475387 -0.238363,0.9194001 -0.09729,0.4718614 -0.09729,0.91453551 0,0.52537147 0.184853,0.95831648 0.189717,0.43294501 0.632391,0.69076621 0.442674,0.2578212 1.216138,0.2578212 0.690766,0 1.235596,-0.1751239 0.544829,-0.1702592 0.861025,-0.44753862 0.316196,-0.27241484 0.316196,-0.57888153 0,-0.15566562 -0.09243,-0.29187304 -0.09243,-0.13620742 -0.335654,-0.13620742 h -0.788058 q -0.719953,0 -1.011826,-0.34538309 -0.287009,-0.35024765 -0.287009,-0.9680456 0,-0.6421207 0.262686,-1.1772212 0.262686,-0.5399652 0.749141,-0.8610255 0.486455,-0.3210604 1.152898,-0.3210604 0.252957,0 0.530236,0.068104 0.282144,0.068104 0.564288,0.2578211 l -0.277279,0.7394117 q -0.3843,-0.194582 -0.817245,-0.194582 -0.617798,0 -0.968045,0.432945 -0.345383,0.432945 -0.345383,1.0556075 0,0.2286339 0.09243,0.335654 0.09243,0.10215557 0.374571,0.10215557 h 0.817244 q 0.671308,0 0.914536,0.3648413 0.248092,0.35997675 0.248092,0.91940008 0,0.53996512 -0.369706,1.01669105 -0.369706,0.4815906 -1.084795,0.7783281 -0.710224,0.3016022 -1.741509,0.3016022 z m -5.662338,-6.0125846 q 0.75887,0 1.279377,0.6810371 0.520507,0.6761725 0.539965,1.98960118 h 0.588611 V 0 h -0.666444 q -0.10702,0.55942333 -0.42808,1.0799302 -0.316196,0.5253715 -0.943723,0.9242647 -0.627527,0.4037577 -1.663676,0.6032043 L 24.360695,1.8339356 Q 26.564337,1.4107197 26.914584,0 h -0.768599 q -1.843664,0 -1.843664,-1.4934171 0,-0.4767259 0.189717,-0.9534519 0.194582,-0.4767259 0.559424,-0.7929217 0.369705,-0.3161958 0.890212,-0.3161958 z m 0.155666,2.67063828 h 0.861025 q -0.05837,-0.93885828 -0.311331,-1.36693878 -0.248092,-0.4280804 -0.719953,-0.4280804 -0.311332,0 -0.49132,0.1994466 -0.175124,0.1994465 -0.248092,0.4718614 -0.0681,0.2675503 -0.0681,0.486455 0,0.3405186 0.228634,0.4913197 0.233499,0.14593648 0.749141,0.14593648 z m -5.48721,0 h 1.055607 q 0.486455,0 0.656714,-0.28214398 0.175124,-0.2821439 0.175124,-0.7150889 0,-0.3161958 -0.05837,-0.6761725 -0.05838,-0.3599768 -0.126479,-0.7248181 l 0.846432,-0.2140402 q 0.0827,0.389164 0.131343,0.7637344 0.04865,0.3745704 0.04865,0.715089 0,0.5837461 -0.160531,1.04101382 -0.16053,0.45726776 -0.525371,0.71995349 Q 22.2884,0 21.675466,0 H 20.61013 Z M 22.366232,0.77346356 23.04727,1.4496361 22.366232,2.1355377 21.69006,1.4496361 Z m -1.61503,0 0.681037,0.67617254 -0.681037,0.6859016 -0.676173,-0.6859016 z M 17.535732,2.6171283 17.248724,1.8436647 q 1.18695,-0.2578212 1.673405,-0.90480642 0.486455,-0.64212069 0.486455,-1.52260436 0,-0.41348681 -0.09243,-0.86589002 -0.08756,-0.4572678 -0.248092,-0.9291292 l 0.807515,-0.2724148 q 0.350248,0.9972329 0.350248,1.9214975 0,0.81237996 -0.287009,1.50314616 -0.282144,0.69563074 -0.880483,1.17722124 -0.593476,0.4864551 -1.522605,0.6664435 z m -2.091756,-9.3156146 h 0.822109 v 4.6505105 q 0,0.6859016 0.252956,0.9242646 0.252957,0.23836298 0.763735,0.23836298 H 17.40439 V 0 H 17.282776 Q 16.353647,0 15.896379,-0.49131962 15.443976,-0.98750378 15.443976,-2.0528404 Z m -2.626857,3.8235369 0.812379,-0.097291 0.07783,1.1383049 q 0.05837,0.94858738 0.987504,0.94858738 h 0.102156 V 0 h -0.111885 q -0.539965,0 -0.86589,-0.19458203 -0.32106,-0.19458202 -0.520507,-0.54969422 -0.262686,0.3842995 -0.690766,0.56428788 Q 12.179862,0 11.712866,0 h -0.466997 v -0.88534822 h 0.466997 q 0.617797,0 0.880483,-0.27727938 0.26755,-0.2772794 0.26755,-0.8512964 0,-0.2334984 -0.01459,-0.4426741 -0.0097,-0.2091757 -0.02919,-0.4183513 z m 0.09243,-2.4225463 0.70536,0.7053599 -0.70536,0.7053598 -0.70536,-0.7053598 z M 6.7802102,0 Q 6.2207869,0 5.9143202,-0.18971748 5.612718,-0.3842995 5.4327297,-0.74427625 5.2040958,-0.3842995 4.8489836,-0.18971748 4.4938714,0 3.837157,0 H 3.3896184 v -0.88534822 h 0.4572677 q 0.6226625,0 0.909671,-0.22863388 0.2870085,-0.2334984 0.2870085,-0.8464318 0,-0.1264783 -0.014594,-0.2967376 -0.00973,-0.1751238 -0.034052,-0.4864551 l 0.81238,-0.1021555 0.077833,1.0166911 q 0.029187,0.4086222 0.248092,0.6761725 0.2237694,0.26755028 0.6567144,0.26755028 0.5156424,0 0.7004953,-0.27727938 0.1848529,-0.2772794 0.1848529,-0.7977863 0,-0.1264783 -0.014594,-0.3016022 -0.00973,-0.1751238 -0.034052,-0.4815905 l 0.81238,-0.1021555 0.077833,1.0166911 q 0.024323,0.3940286 0.2091757,0.6713079 0.1848529,0.27241488 0.5983397,0.27241488 0.4037577,0 0.5545588,-0.30160218 0.150801,-0.3016021 0.150801,-0.7053598 0,-0.3648413 -0.072968,-0.7345472 -0.068104,-0.3697058 -0.1216138,-0.5983397 l 0.831838,-0.2237693 q 0.08756,0.3259249 0.141072,0.6956307 0.05351,0.3648413 0.05351,0.7296826 0,0.5253715 -0.145936,0.9875038 -0.145937,0.46213232 -0.481591,0.74914081 Q 9.9032517,-0.00486455 9.3292347,0 8.8622379,0 8.5752294,-0.19458203 8.2882209,-0.38916405 8.1082325,-0.74427625 7.8358177,-0.35024765 7.5001637,-0.17512382 7.1693742,0 6.7802102,0 Z"
       id="text16"
       transform="matrix(1.3333333,0,0,1.3333333,520,97.664)"
       aria-label="ﯽﺒﯿﮐﺮﺗیﻮﯾرﺎﻨﺳ" />
    <path
       id="path17"
       d="M 0,0 V 8.50412 H 14.17339 V 0 Z"
       style="fill:#3498db;fill-opacity:1;fill-rule:nonzero;stroke:none"
       transform="matrix(1.3333333,0,0,-1.3333333,643.07733,97.664)" />
    <path
       style="font-size:9.9626px;font-family:Vazirmatn"
       d="m 77.824092,-5.0056226 0.70536,0.7053598 -0.70536,0.7053599 -0.705359,-0.7053599 z M 79.628841,0 Q 79.293187,0 79.064553,-0.08756191 78.840783,-0.17998837 78.714305,-0.28214394 78.641337,0.3551122 78.359193,0.94858738 78.081914,1.5469271 77.52249,1.9896012 76.963067,2.4322753 76.043667,2.6122637 l -0.287009,-0.768599 q 1.186951,-0.2578212 1.673406,-0.90480642 0.486455,-0.64212069 0.486455,-1.52260436 0,-0.41348681 -0.09243,-0.86589002 Q 77.73653,-1.9069039 77.576,-2.3787653 l 0.807516,-0.2724148 0.262685,1.0166911 q 0.107021,0.4086222 0.340519,0.5788815 0.233498,0.17025928 0.588611,0.17025928 h 0.184853 V 0 Z m -7.535193,-0.88534822 h 0.734547 q 0.617798,0 0.880484,-0.27727938 0.26755,-0.2772794 0.26755,-0.8512964 0,-0.2334984 -0.01459,-0.4426741 -0.0097,-0.2091757 -0.02919,-0.4183513 l 0.81238,-0.097291 0.07783,1.1383049 q 0.05837,0.94858738 0.987504,0.94858738 H 75.91232 V 0 h -0.111884 q -0.539965,0 -0.86589,-0.19458203 -0.321061,-0.19458202 -0.520507,-0.54969422 -0.262686,0.3842995 -0.690766,0.56428788 Q 73.295192,0 72.828195,0 h -0.734547 z m 1.756103,1.65881178 0.681037,0.67617254 -0.681037,0.6859016 -0.676173,-0.6859016 z m -1.615031,0 0.681037,0.67617254 -0.681037,0.6859016 -0.676172,-0.6859016 z m -4.353766,-4.72347866 0.3843,-0.7199535 q 1.746373,0.8512963 2.602534,1.5226043 0.856161,0.6664435 0.856161,1.3620742 0,0.86102547 -0.5351,1.29883503 -0.530236,0.43780956 -1.425314,0.43780956 -0.335654,0 -0.715089,-0.05351005 -0.379435,-0.0535101 -0.719953,-0.13134287 -0.340519,-0.0826974 -0.574017,-0.16053017 -0.423216,0.15566562 -0.992369,0.27727938 Q 66.192955,0 65.662719,0 h -0.481591 v -0.88534822 h 0.418352 q 0.32106,0 0.564288,-0.0145937 0.248092,-0.0145937 0.539965,-0.0486455 -0.335654,-0.27241482 -0.486455,-0.59347522 -0.145937,-0.3259249 -0.145937,-0.671308 0,-0.5059132 0.238363,-0.8707545 0.238363,-0.3648413 0.632392,-0.5594233 0.394028,-0.1994466 0.861025,-0.1994466 0.209176,0 0.418352,0.05351 -0.165395,-0.077833 -0.340519,-0.1605301 z m 0.880484,3.02088592 q 0.21404,0.0243228 0.466997,0.0486455 0.252956,0.0194582 0.447538,0.0194582 0.588611,0 0.895078,-0.21890473 0.311331,-0.2237694 0.311331,-0.6907662 0,-0.238363 -0.272415,-0.5156424 -0.272415,-0.2821439 -0.729683,-0.5788815 -0.452403,-0.3016022 -1.002097,-0.5934752 0.26755,0.2140402 0.42808,0.5156423 0.165395,0.3016022 0.165395,0.6372562 0,0.4572677 -0.184853,0.7831926 -0.179988,0.3210604 -0.525371,0.59347522 z M 66.908044,-2.2230997 q 0,0.2870085 0.238363,0.574017 0.243227,0.282144 0.700495,0.4572678 0.875619,-0.3551122 0.875619,-1.0215557 0,-0.4232159 -0.257821,-0.6421206 -0.252956,-0.2237694 -0.612933,-0.2237694 -0.418352,0 -0.681037,0.2334985 -0.262686,0.2334984 -0.262686,0.6226624 z M 64.467284,0 Q 64.13163,0 63.902997,-0.08756191 63.679227,-0.17998837 63.552749,-0.28214394 63.479781,0.3551122 63.197637,0.94858738 62.920357,1.5469271 62.360934,1.9896012 61.801511,2.4322753 60.882111,2.6122637 l -0.287009,-0.768599 q 1.18695,-0.2578212 1.673406,-0.90480642 0.486455,-0.64212069 0.486455,-1.52260436 0,-0.41348681 -0.09243,-0.86589002 -0.08756,-0.4572678 -0.248092,-0.9291292 l 0.807515,-0.2724148 0.262686,1.0166911 q 0.10702,0.4086222 0.340519,0.5788815 0.233498,0.17025928 0.58861,0.17025928 h 0.184853 V 0 Z m -7.024412,-0.88534822 h 1.055608 q 0.486455,0 0.656714,-0.28214398 0.175124,-0.2821439 0.175124,-0.7150889 0,-0.3161958 -0.05837,-0.6761725 -0.05837,-0.3599768 -0.126478,-0.7248181 l 0.846432,-0.2140402 q 0.0827,0.389164 0.131343,0.7637344 0.04865,0.3745704 0.04865,0.715089 0,0.5837461 -0.16053,1.04101382 -0.16053,0.45726776 -0.525371,0.71995349 Q 59.121142,0 58.508209,0 H 57.442872 Z M 59.20384,0.61293338 59.860554,1.2696477 59.20384,1.9263621 58.547125,1.2696477 Z m -1.663677,0 0.656715,0.65671432 -0.656715,0.6567144 -0.656714,-0.6567144 z M 58.372001,1.8436647 59.028716,2.500379 58.372001,3.1570934 57.715287,2.500379 Z m -10.190574,-6.6157889 0.681037,0.6761725 -0.681037,0.6859017 -0.676173,-0.6859017 z m -1.615031,0 0.681037,0.6761725 -0.681037,0.6859017 -0.676173,-0.6859017 z m 3.750569,1.8971748 0.812379,-0.097291 0.0827,1.1383049 q 0.02919,0.4621323 0.262686,0.7053598 0.238363,0.24322758 0.710224,0.24322758 h 0.116749 V 0 H 52.184952 Q 51.635258,0 51.280146,-0.20431113 50.929898,-0.41348681 50.701264,-0.87075457 50.297506,-0.4037577 49.665115,-0.19944658 49.037588,0 47.918741,0 h -0.81238 q -1.833936,0 -2.7582,-0.49618417 -0.9194,-0.49618416 -0.9194,-1.71718643 0,-0.3356539 0.07297,-0.6567143 0.07783,-0.3210603 0.199447,-0.6177979 l 0.754005,0.2821439 q -0.07783,0.2140402 -0.131343,0.4572678 -0.04865,0.2432275 -0.04865,0.4621323 0.0049,0.5691524 0.32106,0.8756191 0.316196,0.3016021 0.943723,0.41348681 0.627527,0.11188467 1.566385,0.11188467 h 0.81238 q 1.162628,0 1.799884,-0.24322758 0.64212,-0.2432275 0.64212,-0.8853482 0,-0.1994466 -0.01459,-0.4280804 -0.0097,-0.2286339 -0.02919,-0.432945 z M 40.801904,0 h -0.792921 v -0.88534822 h 0.783192 q 0.486455,0 0.656715,-0.28214398 0.175123,-0.2821439 0.175123,-0.7150889 0,-0.3161958 -0.05837,-0.6761725 -0.05837,-0.3599768 -0.126478,-0.7248181 l 0.846431,-0.2140402 q 0.0827,0.389164 0.131343,0.7637344 0.04865,0.3745704 0.04865,0.715089 0,0.5837461 -0.16053,1.04101382 -0.160531,0.45726776 -0.525372,0.71995349 Q 41.414838,0 40.801904,0 Z m 0.593476,-5.7401698 0.705359,0.7053599 -0.705359,0.7053598 -0.70536,-0.7053598 z m -3.599769,2.1841833 q 0.75887,0 1.279377,0.6810371 0.520507,0.6761725 0.539965,1.98960118 h 0.588611 V 0 H 39.537121 Q 39.4301,0.55942333 39.10904,1.0799302 38.792844,1.6053017 38.165317,2.0041949 37.53779,2.4079526 36.501641,2.6073992 L 36.214632,1.8339356 Q 38.418274,1.4107197 38.768522,0 h -0.768599 q -1.843665,0 -1.843665,-1.4934171 0,-0.4767259 0.189717,-0.9534519 0.194582,-0.4767259 0.559424,-0.7929217 0.369706,-0.3161958 0.890212,-0.3161958 z m 0.155666,2.67063828 h 0.861026 q -0.05837,-0.93885828 -0.311332,-1.36693878 -0.248092,-0.4280804 -0.719953,-0.4280804 -0.311331,0 -0.49132,0.1994466 -0.175124,0.1994465 -0.248092,0.4718614 -0.0681,0.2675503 -0.0681,0.486455 0,0.3405186 0.228634,0.4913197 0.233499,0.14593648 0.749141,0.14593648 z m -6.353104,-5.51153588 0.656715,0.6567143 -0.656715,0.6567144 -0.656714,-0.6567144 z m 0.831839,1.2307313 0.656714,0.6567143 -0.656714,0.6567144 -0.656715,-0.6567144 z m -1.663677,0 0.656715,0.6567143 -0.656715,0.6567144 -0.656714,-0.6567144 z M 33.106184,0 Q 32.639187,0 32.352179,-0.19458203 32.06517,-0.38916405 31.885182,-0.74427625 31.612767,-0.35024765 31.277113,-0.17512382 30.946324,0 30.55716,0 29.997736,0 29.69127,-0.18971748 29.389667,-0.3842995 29.209679,-0.74427625 28.981045,-0.3842995 28.625933,-0.18971748 28.270821,0 27.614106,0 h -0.447538 v -0.88534822 h 0.457268 q 0.622662,0 0.909671,-0.22863388 0.287008,-0.2334984 0.287008,-0.8464318 0,-0.1264783 -0.01459,-0.2967376 -0.0097,-0.1751238 -0.03405,-0.4864551 l 0.812379,-0.1021555 0.07783,1.0166911 q 0.02919,0.4086222 0.248092,0.6761725 0.22377,0.26755028 0.656715,0.26755028 0.515642,0 0.700495,-0.27727938 0.184853,-0.2772794 0.184853,-0.7977863 0,-0.1264783 -0.01459,-0.3016022 -0.0097,-0.1751238 -0.03405,-0.4815905 l 0.81238,-0.1021555 0.07783,1.0166911 q 0.02432,0.3940286 0.209176,0.6713079 0.184853,0.27241488 0.59834,0.27241488 0.719953,0 0.719953,-1.07506568 0,-0.1751238 -0.01459,-0.3648413 -0.0097,-0.1897175 -0.03405,-0.5010487 l 0.81238,-0.097291 0.07783,1.0945239 q 0.05837,0.94372278 0.963181,0.94372278 h 0.145937 V 0 H 35.63575 Q 35.124973,0 34.784454,-0.18485293 34.443936,-0.3745704 34.317457,-0.7491408 34.113146,-0.38916405 33.845596,-0.19458203 33.58291,0 33.106184,0 Z m -9.583163,-6.1779793 0.70536,0.7053598 -0.70536,0.7053599 -0.70536,-0.7053599 z m -3.030615,5.29263108 h 0.826973 q 0.569153,0 1.045879,-0.10215556 0.476726,-0.10215552 0.929129,-0.28214392 0.457268,-0.1799884 0.953452,-0.4232159 0.501049,-0.2480921 1.118847,-0.5302361 -0.345383,-0.1264783 -0.715089,-0.2724148 -0.369706,-0.1508011 -0.70536,-0.2821439 -0.33079,-0.1313429 -0.578882,-0.2140403 -0.248092,-0.087562 -0.350247,-0.087562 -0.296738,0 -0.525372,0.1751239 -0.223769,0.1702592 -0.413487,0.4134868 l -0.131342,0.1653947 -0.744277,-0.3648413 0.07297,-0.1167492 q 0.32106,-0.520507 0.744276,-0.8318382 0.42808,-0.3161958 1.002097,-0.3161958 0.238363,0 0.574017,0.1216138 0.340519,0.1216137 0.739412,0.3064667 0.398893,0.1799883 0.826974,0.3697058 0.42808,0.1848529 0.85616,0.3161958 0.428081,0.1264783 0.817245,0.141072 v 0.8415672 q -0.311331,0.034052 -0.797786,0.2286339 -0.481591,0.1897175 -1.255054,0.5983398 -0.622663,0.3307894 -1.157764,0.56428784 -0.530236,0.22863388 -1.084794,0.35024764 Q 21.990687,0 21.304786,0 h -0.81238 z m -1.440803,1.62962447 0.70536,0.70535985 -0.70536,0.7053598 -0.70536,-0.7053598 z M 19.829931,0 h -1.13344 q -1.833936,0 -2.7582,-0.49618417 -0.9194,-0.49618416 -0.9194,-1.71718643 0,-0.3356539 0.07297,-0.6567143 0.07783,-0.3210603 0.199446,-0.6177979 l 0.754006,0.2821439 q -0.07783,0.2140402 -0.131343,0.4572678 -0.04865,0.2432275 -0.04865,0.4621323 0.0049,0.5691524 0.321061,0.8756191 0.316196,0.3016021 0.943723,0.41348681 0.627527,0.11188467 1.566385,0.11188467 h 1.138305 q 0.330789,0 0.690766,-0.0194582 0.364841,-0.0194582 0.681037,-0.10702008 0.316196,-0.087562 0.515642,-0.2918731 0.199447,-0.2091757 0.199447,-0.5837461 0,-0.2724148 -0.05351,-0.6469852 -0.05351,-0.3794349 -0.126478,-0.7491408 l 0.846431,-0.2140402 q 0.08756,0.3794349 0.131343,0.7880572 0.04865,0.4037577 0.04865,0.7053598 0,0.6615789 -0.22377,1.06047207 -0.223769,0.39889316 -0.627527,0.60320428 Q 21.51793,-0.13620742 20.98283,-0.06810371 20.452594,0 19.829931,0 Z m -8.464317,-1.006962 q 0.364842,-0.1021556 0.65185,-0.3113312 0.287009,-0.2140403 0.452403,-0.617798 0.165395,-0.4086222 0.165395,-1.0993884 v -3.6630067 h 0.822109 v 3.9208279 q 0,0.9291291 0.223769,1.4107197 0.22377,0.48159048 0.778328,0.48159048 h 0.175124 V 0 H 14.444875 Q 13.793025,0 13.442777,-0.31133124 13.09253,-0.62752704 12.932,-1.1869504 12.523377,-0.58374608 11.730456,-0.29187304 10.942398,0 9.8916554,0 9.6922088,0 9.4830331,-0.0097291 9.2738575,-0.0194582 9.0598172,-0.03891641 v -0.83670271 q 0.3016022,0.0194582 0.5107779,0.0340519 0.2091756,0.009729 0.4183513,0.009729 0.1994466,0 0.3453836,0 0.150801,-0.004865 0.248092,-0.0243228 0,0 -0.07297,-0.43780958 -0.07297,-0.4426741 -0.243227,-1.1918149 -0.170259,-0.7540053 -0.4669971,-1.6977282 -0.291873,-0.9437228 -0.7345471,-1.9458202 l 0.7540053,-0.3502477 q 0.4378099,1.0361493 0.7345469,2.013924 0.301602,0.9777747 0.476726,1.7609673 0.179989,0.7783281 0.257821,1.2404605 z M 6.9923832,-6.1585211 7.6734203,-5.4823486 6.9923832,-4.796447 6.3162107,-5.4823486 Z m -1.6150308,0 0.6810371,0.6761725 -0.6810371,0.6859016 -0.6761726,-0.6859016 z m 2.5490245,3.8673177 q 0,0.3842995 -0.1702592,0.715089 -0.1702593,0.3259249 -0.4669969,0.67130798 0.2772794,0.0145937 0.4913196,0.0194582 0.2140402,0 0.379435,0 H 8.6317368 V 0 H 8.174469 Q 7.9896161,0 7.6636912,-0.0291873 7.3426308,-0.06323916 6.9534668,-0.14107197 6.5691673,-0.21890478 6.1945969,-0.35024765 5.8200265,-0.21404023 5.4259979,-0.13620742 5.0319693,-0.06323916 4.6963153,-0.0291873 4.3606613,0 4.1612147,0 H 3.4801776 v -0.88534822 h 0.6810371 q 0.2043111,0 0.4232159,0 0.2237694,-0.004865 0.5399651,-0.0243227 -0.291873,-0.34051853 -0.4572677,-0.67617253 -0.1653947,-0.335654 -0.1653947,-0.715089 0,-0.3016021 0.1410719,-0.6080688 0.141072,-0.3064667 0.379435,-0.5691524 0.238363,-0.2626858 0.5448297,-0.4183514 0.3064666,-0.1605302 0.6323915,-0.1605302 0.3405186,0 0.6518498,0.1605302 0.3113313,0.1556656 0.5496943,0.4183514 0.2432275,0.2578212 0.3842995,0.5691524 0.1410719,0.3113312 0.1410719,0.6177979 z M 6.1994614,-3.1960098 q -0.1848529,0 -0.389164,0.141072 -0.1994466,0.1362074 -0.3405186,0.3453831 -0.1362074,0.2091757 -0.1362074,0.4280804 0,0.2237694 0.1313429,0.4572678 0.1313429,0.2334984 0.3307894,0.4280805 0.2043112,0.194582 0.4134868,0.3016021 0.3697059,-0.1556656 0.6275271,-0.5010487 0.2626857,-0.3502477 0.2626857,-0.6956308 0,-0.2043111 -0.1459365,-0.4134868 -0.141072,-0.2091756 -0.3502477,-0.3502476 -0.2091756,-0.141072 -0.4037577,-0.141072 z M 1.4322016,0 H 0.63927982 V -0.88534822 H 1.4224725 q 0.486455,0 0.6567143,-0.28214398 0.1751238,-0.2821439 0.1751238,-0.7150889 0,-0.3161958 -0.058375,-0.6761725 -0.058375,-0.3599768 -0.1264783,-0.7248181 l 0.8464318,-0.2140402 q 0.082697,0.389164 0.1313429,0.7637344 0.048646,0.3745704 0.048646,0.715089 0,0.5837461 -0.1605302,1.04101382 Q 2.7748176,-0.52050692 2.4099763,-0.25782119 2.045135,0 1.4322016,0 Z m 0.5934752,-5.7401698 0.7053598,0.7053599 -0.7053598,0.7053598 -0.7053599,-0.7053598 z m -2.03338221,-0.9583165 v 6.69362175 H -0.82981447 V -6.6984863 Z"
       id="text17"
       transform="matrix(1.3333333,0,0,1.3333333,520,113.78533)"
       aria-label="ﺰﯿﻫﺮﭘ ﺖﻧﻮﺸﺧبﻼﻘﻧا" />
    <path
       id="path18"
       d="M 0,0 V 8.50412 H 14.17339 V 0 Z"
       style="fill:#006633;fill-opacity:1;fill-rule:nonzero;stroke:none"
       transform="matrix(1.3333333,0,0,-1.3333333,643.07733,113.78533)" />
  </g>
</svg>
