<?xml version="1.0" encoding="UTF-8" standalone="no"?>


<svg class="tikz-diagram" id="iran-action-ch8-tikz-3-1b060a0da8a8"
   version="1.1"
   id="svg1"
   width="571.64001"
   height="99.199997"
   viewBox="0 0 571.64001 99.199997"
   sodipodi:docname="iran-action-ch8-tikz-3-1b060a0da8a8.pdf"
   xmlns:inkscape="http://www.inkscape.org/namespaces/inkscape"
   xmlns:sodipodi="http://sodipodi.sourceforge.net/DTD/sodipodi-0.dtd"
   xmlns="http://www.w3.org/2000/svg"
   xmlns:svg="http://www.w3.org/2000/svg">
  <defs
     id="defs1" />
  <sodipodi:namedview
     id="namedview1"
     pagecolor="#ffffff"
     bordercolor="#000000"
     borderopacity="0.25"
     inkscape:showpageshadow="2"
     inkscape:pageopacity="0.0"
     inkscape:pagecheckerboard="0"
     inkscape:deskcolor="#d1d1d1">
    <inkscape:page
       x="0"
       y="0"
       inkscape:label="1"
       id="page1"
       width="571.64001"
       height="99.199997"
       margin="0"
       bleed="0" />
  </sodipodi:namedview>
  <g
     id="g1"
     inkscape:groupmode="layer"
     inkscape:label="1">
    <path
       id="path1"
       d="m 188.46497,21.2601 h -376.92994 c -5.50236,0 -9.96276,-4.46042 -9.96276,-9.96277 v -22.59466 c 0,-5.50235 4.4604,-9.96277 9.96276,-9.96277 h 376.92994 c 5.50236,0 9.96276,4.46042 9.96276,9.96277 v 22.59466 c 0,5.50235 -4.4604,9.96277 -9.96276,9.96277 z"
       style="fill:#e0f7ea;fill-opacity:1;fill-rule:nonzero;stroke:#2ecc71;stroke-width:1.99255;stroke-linecap:butt;stroke-linejoin:miter;stroke-miterlimit:10;stroke-dasharray:none;stroke-opacity:1"
       transform="matrix(1.3333333,0,0,-1.3333333,285.82,49.6)" />
    <path
       style="font-weight:800;font-size:11.9552px;font-family:Vazirmatn"
       d="M 31.574478,0 H 30.09759 Q 29.09354,0 28.241265,-0.1225875 27.38899,-0.2510125 26.75854,-0.56623751 26.133928,-0.88146251 25.783678,-1.4477 q -0.344413,-0.572075 -0.344413,-1.459375 0,-0.5253751 0.11675,-1.0274001 0.11675,-0.502025 0.291875,-0.9281625 l 1.406838,0.5312125 q -0.09924,0.2743625 -0.204313,0.642125 -0.09924,0.361925 -0.09924,0.6888251 0,0.58375 0.431975,0.86395 0.431975,0.2802 1.14415,0.3677625 0.718012,0.081725 1.570287,0.081725 h 1.47105 q 0.934,0 1.401,-0.128425 0.467001,-0.1342625 0.467001,-0.5428875 0,-0.1926375 -0.286038,-0.44365 -0.286038,-0.25685 -0.718013,-0.5370501 -0.426137,-0.2860375 -0.875625,-0.5604 -0.44365,-0.2802 -0.77055,-0.5137 -0.245175,-0.1809625 -0.3736,-0.4728375 -0.128425,-0.2977125 -0.128425,-0.6071 0,-0.338575 0.151775,-0.6071 0.157613,-0.2743625 0.478675,-0.4027875 l 4.506551,-1.8388125 v 1.669525 l -3.152251,1.2784125 q 0.776388,0.467 1.278413,0.8347625 0.502025,0.3677625 0.81725,0.7647125 0.321063,0.3911125 0.548725,0.9456751 0.175125,0.4203 0.332738,0.67715 0.16345,0.25685 0.408625,0.3736 0.245175,0.1109125 0.671312,0.1109125 h 0.157613 V 0 h -0.157613 q -0.706337,0 -1.185012,-0.2043125 -0.472838,-0.21015001 -0.805575,-0.69466251 -0.30355,0.338575 -0.665475,0.53705 Q 33.314053,-0.1692875 32.812028,-0.081725 32.31584,0 31.574478,0 Z m -9.701925,0 q -0.519538,0 -0.881463,-0.2159875 -0.361925,-0.21598751 -0.6071,-0.53121251 -0.297712,0.315225 -0.67715,0.53121251 Q 19.33324,0 18.81954,0 q -0.589587,0 -0.992375,-0.198475 -0.39695,-0.20431251 -0.6538,-0.53705001 -0.321062,0.338575 -0.764712,0.53705001 Q 15.965003,0 15.287853,0 h -0.53705 v -1.6870375 h 0.548725 q 0.642125,0 0.91065,-0.1576125 0.274362,-0.1576125 0.274362,-0.758875 0,-0.0934 -0.01168,-0.3093875 -0.01168,-0.2159876 -0.02919,-0.4728376 -0.01751,-0.2626875 -0.03502,-0.4728375 l 1.465212,-0.1809625 0.122588,1.5761251 q 0.05254,0.7763875 0.834762,0.7763875 0.484513,0 0.647963,-0.198475 0.16345,-0.2043125 0.16345,-0.7180125 0,-0.081725 -0.01167,-0.2977125 -0.01168,-0.2218251 -0.02919,-0.4845126 -0.01751,-0.2626875 -0.03503,-0.4728375 l 1.465213,-0.1809625 0.122587,1.5761251 q 0.02335,0.361925 0.180963,0.572075 0.157612,0.2043125 0.525375,0.2043125 0.361925,0 0.49035,-0.2393375 0.134262,-0.2393375 0.134262,-0.67715 0,-0.21015 -0.02335,-0.6071001 -0.02335,-0.39695 -0.05254,-0.758875 l 1.465212,-0.1809625 0.122588,1.6870376 q 0.02919,0.431975 0.239337,0.6071 0.215988,0.1692875 0.665475,0.1692875 H 25.07734 V 0 H 24.91389 Q 24.37684,0 23.962378,-0.1868 23.553753,-0.37360001 23.314415,-0.69466251 23.075078,-0.39695001 22.724828,-0.198475 22.374578,0 21.872553,0 Z m -9.748625,0 h -1.255062 v -1.6870375 h 1.2609 q 0.44365,0 0.6071,-0.2743625 0.169287,-0.2802 0.169287,-0.7063375 0,-0.3969501 -0.09924,-0.8639501 -0.0934,-0.4728375 -0.192638,-0.922325 l 1.529425,-0.39695 q 0.110913,0.548725 0.175125,1.0916125 0.07005,0.53705 0.07005,1.0274001 0,0.7763875 -0.21015,1.3951625 -0.204312,0.61877499 -0.7005,0.98069999 Q 12.982041,0 12.123928,0 Z M 11.020641,0.74720001 12.013016,1.7279 12.993716,0.74720001 13.991928,1.739575 12.993716,2.743625 12.013016,1.75125 11.020641,2.743625 10.028266,1.739575 Z M 6.8876896,3.1872751 6.2922646,1.622825 Q 7.1387021,1.4418625 7.7458021,1.1383125 8.3587396,0.84060001 8.6914771,0.33857501 9.0242146,-0.16345 9.0242146,-0.95735002 9.0242146,-1.4885625 8.8549271,-2.1482 8.6856396,-2.813675 8.4930021,-3.3857501 l 1.5761249,-0.5078625 q 0.227663,0.6362875 0.344413,1.3718126 0.122587,0.735525 0.122587,1.412675 0,1.225875 -0.455325,2.10150002 Q 9.6313146,1.8738375 8.8082271,2.416725 7.9909771,2.96545 6.8876896,3.1872751 Z M 6.6769791,-4.4715251 q 0,-0.44365 0.315225,-0.735525 0.315225,-0.291875 0.758875,-0.291875 0.4494875,0 0.758875,0.291875 0.315225,0.291875 0.315225,0.735525 0,0.4378125 -0.315225,0.7296875 -0.315225,0.291875 -0.758875,0.291875 -0.455325,0 -0.7647125,-0.2860375 -0.3093875,-0.291875 -0.3093875,-0.735525 z m 0,3.4382876 q 0,-0.4378125 0.315225,-0.7296875 0.315225,-0.2977125 0.758875,-0.2977125 0.4494875,0 0.758875,0.2977125 0.315225,0.291875 0.315225,0.7296875 0,0.44364999 -0.315225,0.735525 -0.315225,0.291875 -0.758875,0.291875 -0.455325,0 -0.7647125,-0.291875 -0.3093875,-0.29187501 -0.3093875,-0.735525 z M 45.332905,-7.8923001 q 0.02919,0.268525 0.0467,0.5662375 0.02335,0.291875 0.02335,0.5662375 0,0.8406 -0.221825,1.482725 -0.215987,0.642125 -0.72385,1.00405 -0.507862,0.361925 -1.37765,0.361925 -0.16345,0 -0.414462,-0.011675 -0.245175,-0.017513 -0.467,-0.064213 0.07589,0.7530375 0.105075,1.4652126 0.02919,0.7063375 0.02919,1.3601375 V 0 h -1.599475 v -1.179175 q 0,-1.389325 -0.105075,-2.5042876 -0.105075,-1.1208 -0.344413,-2.0489625 -0.239337,-0.934 -0.636287,-1.7570875 l 1.4944,-0.53705 q 0.175125,0.4261375 0.297712,0.7530375 0.122588,0.3269 0.291875,0.7413625 0.1401,0.3327375 0.2802,0.53705 0.145938,0.198475 0.373601,0.291875 0.2335,0.087562 0.636287,0.087562 0.467,0 0.694663,-0.268525 0.227662,-0.268525 0.227662,-0.67715 0,-0.3210625 -0.04086,-0.6129375 -0.03502,-0.2977125 -0.08172,-0.5779125 z M 159.63522,3.000475 q -1.28425,0 -2.09566,-0.4961875 -0.80558,-0.4961875 -1.19085,-1.33095 -0.37944,-0.82892499 -0.37944,-1.84465001 0,-0.57791249 0.11091,-1.20836249 0.11675,-0.63045 0.36193,-1.2842501 l 1.41851,0.5137001 q -0.17512,0.5078625 -0.2802,1.0098875 -0.10507,0.502025 -0.10507,0.94567499 0,0.56623751 0.19847,1.02156252 0.20431,0.4611625 0.67715,0.72968749 0.47284,0.2743625 1.28425,0.2743625 0.92816,0 1.48856,-0.1926375 0.5604,-0.19263748 0.81142,-0.43197499 0.25685,-0.2393375 0.25685,-0.3736 0,-0.20431251 -0.19848,-0.26852501 Q 161.80093,0 161.3748,0 h -0.92233 q -0.23934,0 -0.30355,-0.1225875 -0.0642,-0.1225875 -0.12259,-0.32690001 L 159.77532,-1.3543 q -0.0409,-0.1459375 -0.0292,-0.2393375 0.0175,-0.0934 0.22767,-0.0934 h 3.52585 V 0 h 0.0467 q 0.0525,0.2043125 0.0525,0.32690001 0,0.71217499 -0.47283,1.31927499 -0.467,0.6129375 -1.3543,0.9807 -0.88147,0.3736 -2.13653,0.3736 z m -9.93542,-9.9879626 v -0.8873 l 4.74589,-1.9322126 v 0.8873001 z m 1.66369,1.5936375 q 0.78223,0.4611625 1.28425,0.828925 0.50203,0.3677625 0.81725,0.7647125 0.32106,0.39695 0.54873,0.9515126 0.17512,0.4203 0.33273,0.67715 0.16345,0.25685 0.40863,0.3736 0.24517,0.1109125 0.67131,0.1109125 h 0.16345 V 0 h -0.16345 q -0.70634,0 -1.18501,-0.2043125 -0.47284,-0.21015001 -0.80558,-0.69466251 -0.30355,0.338575 -0.66547,0.53705 -0.35609,0.19263751 -0.85811,0.28020001 Q 151.41603,0 150.67467,0 h -1.42435 v -1.6870375 h 1.41851 q 0.934,0 1.401,-0.128425 0.467,-0.1342625 0.467,-0.5428875 0,-0.1926375 -0.28604,-0.44365 -0.28604,-0.25685 -0.71801,-0.5370501 -0.42614,-0.2860375 -0.87563,-0.5604 -0.44365,-0.2802 -0.77055,-0.5137 -0.24517,-0.1809625 -0.3736,-0.4728375 -0.12842,-0.2977125 -0.12842,-0.6129375 0,-0.3327375 0.15177,-0.6012625 0.15762,-0.2743625 0.47868,-0.4027875 l 4.50655,-1.8388125 v 1.669525 z m -5.78498,-1.646175 0.99237,0.9807 0.9807,-0.9807 0.99822,0.992375 -0.99822,1.00405 -0.9807,-0.992375 -0.99237,0.992375 -0.99238,-1.00405 z m -0.61294,5.3529876 h 0.81725 q 0.64213,0 0.88146,-0.2159875 0.24518,-0.221825 0.24518,-0.805575 0,-0.3444125 -0.0175,-0.6654751 -0.0175,-0.3269 -0.0409,-0.6362875 l 1.45938,-0.1809625 0.11675,1.6695251 q 0.0292,0.44365 0.24517,0.642125 0.21599,0.1926375 0.68883,0.1926375 h 0.12259 V 0 h -0.13427 q -0.58375,0 -1.00405,-0.21015 -0.41446,-0.21015001 -0.68298,-0.54872501 -0.35609,0.3560875 -0.84644,0.56040001 Q 146.33155,0 145.78282,0 h -0.81725 z M 141.9943,0 q -0.51953,0 -0.88146,-0.2159875 -0.36192,-0.21598751 -0.6071,-0.53121251 -0.29771,0.315225 -0.67715,0.53121251 Q 139.45499,0 138.94129,0 q -0.58959,0 -0.99237,-0.198475 -0.39695,-0.20431251 -0.6538,-0.53705001 -0.32107,0.338575 -0.76472,0.53705001 Q 136.08675,0 135.4096,0 h -0.53705 v -1.6870375 h 0.54873 q 0.64212,0 0.91065,-0.1576125 0.27436,-0.1576125 0.27436,-0.758875 0,-0.0934 -0.0117,-0.3093875 -0.0117,-0.2159876 -0.0292,-0.4728376 -0.0175,-0.2626875 -0.035,-0.4728375 l 1.46522,-0.1809625 0.12258,1.5761251 q 0.0525,0.7763875 0.83477,0.7763875 0.48451,0 0.64796,-0.198475 0.16345,-0.2043125 0.16345,-0.7180125 0,-0.081725 -0.0117,-0.2977125 -0.0117,-0.2218251 -0.0292,-0.4845126 -0.0175,-0.2626875 -0.035,-0.4728375 l 1.46521,-0.1809625 0.12259,1.5761251 q 0.0234,0.361925 0.18096,0.572075 0.15762,0.2043125 0.52538,0.2043125 0.36192,0 0.49035,-0.2393375 0.13426,-0.2393375 0.13426,-0.67715 0,-0.21015 -0.0233,-0.6071001 -0.0233,-0.39695 -0.0525,-0.758875 l 1.46522,-0.1809625 0.12258,1.6870376 q 0.0292,0.431975 0.23934,0.6071 0.21599,0.1692875 0.66548,0.1692875 h 0.17512 V 0 h -0.16345 q -0.53705,0 -0.95151,-0.1868 -0.40863,-0.18680001 -0.64796,-0.50786251 -0.23934,0.2977125 -0.58959,0.49618751 Q 142.49633,0 141.9943,0 Z m -11.63999,-8.1608251 1.05075,1.05075 -1.05075,1.0449125 -1.04491,-1.0449125 z m -3.63676,6.4737876 h 0.99237 q 0.75304,0 1.401,-0.1401 0.64796,-0.1459375 1.33095,-0.431975 0.68883,-0.2860375 1.56445,-0.712175 -0.89897,-0.3269001 -1.45354,-0.5487251 -0.55456,-0.2276625 -0.75887,-0.2276625 -0.31523,0 -0.57208,0.198475 -0.25101,0.1926375 -0.41446,0.408625 l -0.30939,0.3911126 -1.3076,-0.6421251 0.26269,-0.4203 q 0.41446,-0.67715 0.99238,-1.1208 0.57791,-0.4494875 1.3543,-0.4494875 0.3269,0 0.75887,0.151775 0.43781,0.151775 0.934,0.3794375 0.50203,0.221825 1.03324,0.4494875 0.53705,0.221825 1.05659,0.3794375 0.52537,0.1576125 1.00405,0.16345 V -2.31165 q -0.44365,0.058375 -0.82309,0.198475 -0.37944,0.1342625 -0.78806,0.3444125 -0.40863,0.21015 -0.95152,0.502025 -0.7472,0.39694999 -1.41267,0.68298749 -0.65964,0.28603751 -1.36014,0.43781251 Q 128.55636,0 127.69241,0 h -0.97486 z m 2.6088,0.3911125 q 0,1.365975 -0.50786,2.27078752 Q 128.31647,1.879675 127.39414,2.4108875 126.47182,2.9421 125.21092,3.1814376 L 124.633,1.622825 q 1.19085,-0.2276625 1.99059,-0.64796248 0.80558,-0.42030001 1.02156,-1.03323752 -0.14593,0.0291875 -0.30355,0.0525375 -0.15761,0.0175125 -0.28603,0.0175125 -1.10913,0 -1.74542,-0.49035001 -0.63628,-0.49035001 -0.63628,-1.61114999 0,-0.467 0.1401,-0.9515125 0.1401,-0.4903501 0.4203,-0.8989751 0.2802,-0.4144625 0.69466,-0.665475 0.41446,-0.2510125 0.96319,-0.2510125 0.63045,0 1.08577,0.30355 0.46116,0.30355 0.75888,0.8114125 0.29771,0.5078625 0.44365,1.1441501 0.14593,0.6362875 0.14593,1.3017625 z m -2.29413,-0.3736 q 0.25101,0 0.45532,-0.029188 0.21015,-0.029187 0.34441,-0.058375 -0.035,-0.2977125 -0.13426,-0.6362875 -0.0992,-0.338575 -0.29771,-0.5779125 -0.19264,-0.2451751 -0.51954,-0.2451751 -0.2802,0 -0.44365,0.1868001 -0.15761,0.1868 -0.22182,0.4378125 -0.0642,0.2510125 -0.0642,0.4378125 0,0.315225 0.25102,0.4027875 0.25685,0.081725 0.63045,0.081725 z M 122.64187,2.9421 q -1.25507,0 -2.07232,-0.478675 -0.81141,-0.478675 -1.20252,-1.3076 -0.39111,-0.82892499 -0.39111,-1.86800001 0,-0.69466249 0.15177,-1.43602499 0.15178,-0.7472 0.43781,-1.4885626 l 1.41852,0.5428875 q -0.21599,0.6187751 -0.36193,1.2083626 -0.14594,0.5895875 -0.14594,1.10328749 0,0.56040001 0.19848,1.02740001 0.19847,0.46700001 0.67131,0.74720002 0.47284,0.28019998 1.29593,0.28019998 0.8873,0 1.47688,-0.2043125 0.58959,-0.19847499 0.88147,-0.47283749 0.29187,-0.2743625 0.29187,-0.48451251 0,-0.1692875 -0.21015,-0.1692875 h -0.94567 q -0.29772,0 -0.62462,-0.058375 -0.32106,-0.058375 -0.60126,-0.25101251 -0.2802,-0.1926375 -0.45532,-0.57791251 -0.16929,-0.38527498 -0.16929,-1.03323748 0,-0.6071 0.19847,-1.1675001 0.19848,-0.5662375 0.56624,-1.0098875 0.3736,-0.44365 0.89314,-0.7063375 0.51954,-0.2626875 1.1675,-0.2626875 0.43781,0 0.85811,0.1342625 0.42614,0.128425 0.78223,0.385275 l -0.53705,1.4885625 q -0.30355,-0.1692875 -0.58375,-0.2335 -0.27437,-0.07005 -0.50787,-0.07005 -0.63045,0 -0.98653,0.4144626 -0.35609,0.408625 -0.35609,1.0215625 0,0.1576125 0.0992,0.198475 0.10507,0.040863 0.25685,0.040863 h 0.85227 q 0.67131,0 1.05075,0.21015 0.38528,0.21015 0.54289,0.58374998 0.16345,0.36776251 0.16345,0.84060002 0,0.83476251 -0.47868,1.529425 -0.47867,0.6946625 -1.39516,1.109125 Q 123.9553,2.9421 122.64187,2.9421 Z m -6.86491,-5.4639 q 0,-0.1459375 -0.0642,-0.385275 -0.0642,-0.2393376 -0.13427,-0.3911126 l -1.15582,-2.5509875 1.38932,-0.67715 1.45354,3.350725 q 0.17513,0.4027876 0.30939,0.7413626 0.1401,0.338575 0.31522,0.5428875 0.18097,0.2043125 0.46117,0.2043125 h 0.24517 V 0 h -0.24517 q -0.6538,0 -1.05659,-0.245175 -0.39695,-0.25101251 -0.7005,-0.64212501 -0.44365,0.4261375 -1.05659,0.65380001 -0.61294,0.2276625 -1.48272,0.2276625 -0.5137,0 -0.86979,-0.035025 -0.35609,-0.035025 -0.73553,-0.128425 V -1.856325 q 0.36193,0.087562 0.76472,0.1342625 0.40862,0.0467 0.75303,0.0467 0.43198,0 0.84644,-0.07005 0.41446,-0.075887 0.68883,-0.2626875 0.27436,-0.1868 0.27436,-0.5137 z m -8.27174,0.8347625 h 0.88146 q 0.64213,0 0.88146,-0.2159875 0.24518,-0.221825 0.24518,-0.805575 0,-0.3444125 -0.0175,-0.6654751 -0.0175,-0.3269 -0.0409,-0.6362875 l 1.45938,-0.1809625 0.11675,1.6695251 q 0.0292,0.44365 0.24517,0.642125 0.21599,0.1926375 0.68883,0.1926375 h 0.12259 V 0 h -0.13427 q -0.58375,0 -1.00405,-0.21015 -0.41446,-0.21015001 -0.68298,-0.54872501 -0.35609,0.3560875 -0.84644,0.56040001 Q 108.93541,0 108.38668,0 h -0.88146 z m 0.15177,2.43423751 0.99238,0.98069999 0.9807,-0.98069999 0.99821,0.99237499 -0.99821,1.00405 -0.9807,-0.992375 -0.99238,0.992375 -0.99237,-1.00405 z M 105.10017,0.1342625 q -0.6071,0 -1.13831,-0.25685 -0.52538,-0.26268751 -1.0274,-0.64796251 -0.32106,0.3210625 -0.67131,0.54872501 Q 101.91873,0 101.25326,0 h -0.25685 v -1.6870375 h 0.22766 q 0.28604,0 0.5137,-0.221825 0.2335,-0.221825 0.44365,-0.572075 0.21599,-0.3560875 0.44949,-0.7472001 0.23934,-0.39695 0.53121,-0.7472 0.29771,-0.3560875 0.68883,-0.5779125 0.39111,-0.221825 0.91648,-0.221825 0.73553,0 1.27258,0.35025 0.53705,0.3444125 0.82892,0.9164875 0.29188,0.5662376 0.29188,1.2375501 0,0.688825 -0.22766,1.2317125 -0.22767,0.54288749 -0.68883,0.8581125 -0.45532,0.315225 -1.14415,0.315225 z m -0.2802,-3.3040251 q -0.23934,0 -0.43197,0.1634501 -0.19264,0.1576125 -0.33858,0.385275 -0.14594,0.2276625 -0.24517,0.431975 0.16928,0.151775 0.32106,0.2626875 0.15177,0.1109125 0.29187,0.1926375 0.21015,0.11675 0.38528,0.16345 0.17512,0.0467 0.30355,0.0467 0.30939,0 0.44365,-0.221825 0.13426,-0.2276625 0.13426,-0.5137 0,-0.3677625 -0.22766,-0.6362875 -0.22766,-0.2743626 -0.63629,-0.2743626 z m -4.50071,-5.0144125 v 8.1783376 h -1.576125 v -8.1783376 z m -4.90934,0 h 1.576125 V -2.8487 q 0,0.618775 0.180963,0.8931375 0.180962,0.268525 0.7472,0.268525 h 0.145937 V 0 H 97.914208 Q 96.606608,0 96.005345,-0.67715001 95.40992,-1.3543 95.40992,-2.7086 Z M 91.872394,0 h -0.928162 v -1.6870375 h 0.934 q 0.44365,0 0.6071,-0.2743625 0.169287,-0.2802 0.169287,-0.7063375 0,-0.3969501 -0.09924,-0.8639501 -0.0934,-0.4728375 -0.192638,-0.922325 l 1.529425,-0.39695 q 0.110913,0.548725 0.175125,1.0916125 0.07005,0.53705 0.07005,1.0274001 0,0.7763875 -0.21015,1.3951625 -0.21015,0.61877499 -0.706337,0.98069999 Q 92.730507,0 91.872394,0 Z m 0.688825,-7.6121001 1.05075,1.05075 -1.05075,1.0449125 -1.044912,-1.0449125 z m -1.06882,7.7463626 q -0.6071,0 -1.138313,-0.25685 -0.525375,-0.26268751 -1.0274,-0.64796251 -0.321062,0.3210625 -0.671312,0.54872501 Q 88.310961,0 87.645486,0 h -0.25685 v -1.6870375 h 0.227663 q 0.286037,0 0.5137,-0.221825 0.2335,-0.221825 0.44365,-0.572075 0.215987,-0.3560875 0.449487,-0.7472001 0.239338,-0.39695 0.531213,-0.7472 0.297712,-0.3560875 0.688825,-0.5779125 0.391112,-0.221825 0.916487,-0.221825 0.735525,0 1.272575,0.35025 0.53705,0.3444125 0.828925,0.9164875 0.291875,0.5662376 0.291875,1.2375501 0,0.688825 -0.227662,1.2317125 -0.227663,0.54288749 -0.688825,0.8581125 -0.455325,0.315225 -1.14415,0.315225 z m -0.2802,-3.3040251 q -0.239338,0 -0.431975,0.1634501 -0.192638,0.1576125 -0.338575,0.385275 -0.145938,0.2276625 -0.245175,0.431975 0.169287,0.151775 0.321062,0.2626875 0.151775,0.1109125 0.291875,0.1926375 0.21015,0.11675 0.385275,0.16345 0.175125,0.0467 0.30355,0.0467 0.309388,0 0.44365,-0.221825 0.134263,-0.2276625 0.134263,-0.5137 0,-0.3677625 -0.227663,-0.6362875 -0.227662,-0.2743626 -0.636287,-0.2743626 z M 84.802624,-2.5218 q 0,-0.1459375 -0.06421,-0.385275 -0.06421,-0.2393376 -0.134263,-0.3911126 l -1.155825,-2.5509875 1.389325,-0.67715 1.453538,3.350725 q 0.175125,0.4027876 0.309387,0.7413626 0.1401,0.338575 0.315225,0.5428875 0.180963,0.2043125 0.461163,0.2043125 h 0.245175 V 0 h -0.245175 q -0.6538,0 -1.056588,-0.245175 -0.39695,-0.25101251 -0.7005,-0.64212501 -0.44365,0.4261375 -1.056587,0.65380001 -0.612938,0.2276625 -1.482725,0.2276625 -0.5137,0 -0.869788,-0.035025 -0.356087,-0.035025 -0.735525,-0.128425 V -1.856325 q 0.361925,0.087562 0.764713,0.1342625 0.408625,0.0467 0.753037,0.0467 0.431975,0 0.846438,-0.07005 0.414462,-0.075887 0.688825,-0.2626875 0.274362,-0.1868 0.274362,-0.5137 z M 80.029323,0 q -0.531212,0 -0.875625,-0.2043125 -0.2335,1.342625 -1.149987,2.21825 -0.91065,0.875625 -2.434238,1.1675001 L 74.991561,1.622825 q 0.846437,-0.1809625 1.453537,-0.4845125 0.612938,-0.29771249 0.945675,-0.79973749 0.332738,-0.50202501 0.332738,-1.29592503 0,-0.53121248 -0.169288,-1.19084998 -0.169287,-0.665475 -0.361925,-1.2375501 l 1.570288,-0.5078625 0.338575,1.3192751 q 0.09924,0.3736 0.291875,0.63045 0.192637,0.25685 0.572075,0.25685 h 0.227662 V 0 Z m -6.322012,0.1342625 q -0.6071,0 -1.138312,-0.25685 -0.525375,-0.26268751 -1.0274,-0.64796251 -0.321063,0.3210625 -0.671313,0.54872501 Q 70.525874,0 69.860399,0 h -0.25685 v -1.6870375 h 0.227662 q 0.286038,0 0.5137,-0.221825 0.2335,-0.221825 0.44365,-0.572075 0.215988,-0.3560875 0.449488,-0.7472001 0.239337,-0.39695 0.531212,-0.7472 0.297713,-0.3560875 0.688825,-0.5779125 0.391113,-0.221825 0.916488,-0.221825 0.735525,0 1.272575,0.35025 0.53705,0.3444125 0.828925,0.9164875 0.291875,0.5662376 0.291875,1.2375501 0,0.688825 -0.227663,1.2317125 -0.227662,0.54288749 -0.688825,0.8581125 -0.455325,0.315225 -1.14415,0.315225 z m -0.2802,-3.3040251 q -0.239337,0 -0.431975,0.1634501 -0.192637,0.1576125 -0.338575,0.385275 -0.145937,0.2276625 -0.245175,0.431975 0.169288,0.151775 0.321063,0.2626875 0.151775,0.1109125 0.291875,0.1926375 0.21015,0.11675 0.385275,0.16345 0.175125,0.0467 0.30355,0.0467 0.309387,0 0.44365,-0.221825 0.134262,-0.2276625 0.134262,-0.5137 0,-0.3677625 -0.227662,-0.6362875 -0.227663,-0.2743626 -0.636288,-0.2743626 z"
       id="text1"
       transform="matrix(1.3333333,0,0,1.3333333,180.43867,53.658667)"
       aria-label="ﮏﺴﯾر:۲ﯽﮕﺘﺴﺧویﺪﯿﻣاﺎﻧمدﺮﻣ" />
  </g>
</svg>
