<?xml version="1.0" encoding="UTF-8" standalone="no"?>


<svg class="tikz-diagram" id="iran-action-ch3-tikz-4-e2fabeca7c1f"
   version="1.1"
   id="svg1"
   width="532.78668"
   height="169.41333"
   viewBox="0 0 532.78668 169.41333"
   sodipodi:docname="iran-action-ch3-tikz-4-e2fabeca7c1f.pdf"
   xmlns:inkscape="http://www.inkscape.org/namespaces/inkscape"
   xmlns:sodipodi="http://sodipodi.sourceforge.net/DTD/sodipodi-0.dtd"
   xmlns="http://www.w3.org/2000/svg"
   xmlns:svg="http://www.w3.org/2000/svg">
  <defs
     id="defs1" />
  <sodipodi:namedview
     id="namedview1"
     pagecolor="#ffffff"
     bordercolor="#000000"
     borderopacity="0.25"
     inkscape:showpageshadow="2"
     inkscape:pageopacity="0.0"
     inkscape:pagecheckerboard="0"
     inkscape:deskcolor="#d1d1d1">
    <inkscape:page
       x="0"
       y="0"
       inkscape:label="1"
       id="page1"
       width="532.78668"
       height="169.41333"
       margin="0"
       bleed="0" />
  </sodipodi:namedview>
  <g
     id="g1"
     inkscape:groupmode="layer"
     inkscape:label="1">
    <path
       id="path1"
       d="M 80.05907,17.00804 H -80.05907 c -2.75117,0 -4.98138,-2.23021 -4.98138,-4.98138 v -24.05332 c 0,-2.75117 2.23021,-4.98138 4.98138,-4.98138 H 80.05907 c 2.75117,0 4.98138,2.23021 4.98138,4.98138 v 24.05332 c 0,2.75117 -2.23021,4.98138 -4.98138,4.98138 z"
       style="fill:#663399;fill-opacity:1;fill-rule:nonzero;stroke:#663399;stroke-width:0.3985;stroke-linecap:butt;stroke-linejoin:miter;stroke-miterlimit:10;stroke-dasharray:none;stroke-opacity:1"
       transform="matrix(1.3333333,0,0,-1.3333333,266.392,42.864)" />
    <path
       style="font-weight:800;font-size:9.9626px;font-family:Vazirmatn;fill:#ffffff"
       d="m 85.683964,-4.5921358 0.875619,0.8756191 -0.875619,0.8707546 -0.870755,-0.8707546 z m 0.06324,5.3510057 q 0.70536,0 1.109117,-0.22376933 0.403758,-0.22376933 0.574017,-0.60806883 0.175124,-0.38916405 0.175124,-0.87561912 0,-0.52050692 -0.170259,-1.07506572 -0.165395,-0.5594233 -0.374571,-1.0702011 l 1.298835,-0.4864551 q 0.272415,0.7345472 0.3843,1.3474805 0.116749,0.6129334 0.116749,1.25018957 0,1.44963609 -0.797786,2.29120333 -0.792922,0.8415673 -2.315526,0.8415673 -1.045879,0 -1.726916,-0.3988932 -0.676172,-0.3988931 -1.002097,-1.08965931 -0.325925,-0.69076619 -0.325925,-1.56152076 0,-0.57888153 0.126478,-1.19667943 0.126479,-0.617798 0.364841,-1.2355959 l 1.182086,0.4524032 q -0.179988,0.5156424 -0.301602,1.006962 -0.121614,0.4913196 -0.121614,0.91940007 0,0.46699686 0.165395,0.85616092 0.165395,0.38916405 0.559423,0.62266248 0.394029,0.23349843 1.079931,0.23349843 z M 80.16756,-6.8201 h 1.313429 v 4.4461993 q 0,0.5156423 0.150801,0.7442762 0.150801,0.2237694 0.622663,0.2237694 h 0.121613 V 0 H 82.254453 Q 81.164793,0 80.663745,-0.56428788 80.16756,-1.1285758 80.16756,-2.2571515 Z m -5.229394,6.39688409 q -0.43781,0.15080107 -1.002098,0.28700849 Q 73.376645,0 72.841544,0 h -0.48159 v -1.4058551 h 0.418351 q 0.16053,0 0.301602,-0.00486 0.145937,-0.00486 0.296738,-0.014594 -0.150801,-0.1945821 -0.243228,-0.5156424 -0.09243,-0.3259249 -0.09243,-0.6032043 0,-0.4134868 0.204311,-0.81238 0.204311,-0.3988931 0.612933,-0.6664434 0.408623,-0.2675503 1.016692,-0.2870085 l 0.466996,-0.9242646 q 0.904807,0.4280804 1.605302,0.7831926 0.70536,0.3551122 1.182086,0.7004953 0.48159,0.3453831 0.729683,0.7491408 0.248092,0.3988932 0.248092,0.9242647 0,0.9923683 -0.593476,1.51287522 -0.593475,0.51564237 -1.571249,0.51564237 -0.510778,0 -1.070202,-0.12647831 -0.559423,-0.12647832 -0.933993,-0.24809209 z M 74.252264,-2.5538891 q 0,0.2675503 0.243228,0.5010487 0.243227,0.2286339 0.525371,0.3161958 0.131343,-0.029187 0.301602,-0.1313429 0.175124,-0.1070201 0.301602,-0.2578211 0.126479,-0.1556657 0.126479,-0.3307895 0,-0.291873 -0.209176,-0.5253715 -0.209176,-0.2334984 -0.510778,-0.2334984 -0.311331,0 -0.54483,0.1994466 -0.233498,0.194582 -0.233498,0.4621323 z m 2.130673,1.148034 q 0.228634,0.038916 0.442674,0.058375 0.214041,0.019458 0.306467,0.019458 0.287009,0 0.525372,-0.1459366 0.238363,-0.150801 0.238363,-0.5642878 0,-0.1021556 -0.07783,-0.2334985 -0.07297,-0.1362074 -0.321061,-0.3307894 -0.243227,-0.194582 -0.74914,-0.476726 0.0681,0.2091757 0.0681,0.432945 0,0.379435 -0.121614,0.6907662 -0.116749,0.3064667 -0.311331,0.5496943 z M 71.795676,-6.8201 v 6.81523545 H 70.482247 V -6.8201 Z m -4.251623,2.7971166 q 0.612934,0 1.041014,0.3648413 0.428081,0.3648413 0.671308,0.963181 0.243228,0.5934752 0.291873,1.289106 h 0.364841 V 0 h -0.462132 q -0.277279,1.1091176 -1.089659,1.7415091 -0.81238,0.6372562 -2.218235,0.909671 L 65.661472,1.3523451 Q 66.274406,1.2355959 66.794912,1.0410138 67.320284,0.84643182 67.680261,0.58374608 68.045102,0.32106034 68.166716,0 h -0.457268 q -0.982639,0 -1.498282,-0.40862226 -0.515642,-0.4134868 -0.515642,-1.33288684 0,-0.3599768 0.111885,-0.7540054 0.111884,-0.3988931 0.340518,-0.7442762 0.228634,-0.3502477 0.574017,-0.5642879 0.350248,-0.2189048 0.822109,-0.2189048 z m 0.16053,2.6171283 h 0.622663 q -0.02919,-0.2724149 -0.116749,-0.5594234 -0.0827,-0.2870085 -0.248092,-0.4815905 -0.160531,-0.194582 -0.428081,-0.194582 -0.228634,0 -0.364841,0.1459365 -0.131343,0.141072 -0.189718,0.3405186 -0.05351,0.194582 -0.05351,0.3599767 0,0.2578212 0.214041,0.3259249 0.218904,0.063239 0.564287,0.063239 z m -6.270404,-5.3947867 0.875619,0.8756191 -0.875619,0.8707546 -0.870755,-0.8707546 z m -3.030616,5.3947867 h 0.826974 q 0.627527,0 1.167492,-0.1167493 0.539965,-0.1216137 1.109118,-0.3599767 0.574017,-0.238363 1.303699,-0.5934752 -0.74914,-0.2724148 -1.211273,-0.4572677 -0.462132,-0.1897175 -0.632391,-0.1897175 -0.262686,0 -0.476726,0.1653947 -0.209176,0.1605302 -0.345383,0.3405185 l -0.257822,0.3259249 -1.089659,-0.5351005 0.218905,-0.3502477 q 0.345383,-0.5642879 0.826973,-0.9339937 0.481591,-0.3745704 1.128576,-0.3745704 0.272415,0 0.632392,0.1264783 0.364841,0.1264783 0.778328,0.3161958 0.418351,0.1848529 0.861025,0.3745704 0.447539,0.1848529 0.880484,0.3161958 0.43781,0.1313429 0.836703,0.1362074 v 1.2891059 q -0.369706,0.048645 -0.685902,0.1653948 -0.316196,0.1118846 -0.656714,0.2870084 -0.340519,0.1751239 -0.792922,0.4183514 -0.622662,0.33078945 -1.177221,0.56915243 -0.549694,0.23836299 -1.133441,0.3648413 Q 59.935897,0 59.215943,0 h -0.81238 z M 51.272598,0 H 49.89593 v -1.4058551 h 1.381533 q 0.369706,0 0.505913,-0.2286339 0.141072,-0.2334985 0.141072,-0.5886107 0,-0.3307894 -0.0827,-0.7199535 -0.07783,-0.3940286 -0.160531,-0.768599 l 1.274513,-0.3307894 q 0.09243,0.4572678 0.145936,0.909671 0.05837,0.4475386 0.05837,0.8561609 0,0.6469852 -0.175124,1.1626276 -0.170259,0.51564237 -0.583746,0.81724451 Q 51.987687,0 51.272598,0 Z M 50.353198,0.62266248 51.180172,1.439907 51.997416,0.62266248 52.829254,1.4496361 51.997416,2.2863388 51.180172,1.4593652 50.353198,2.2863388 49.526224,1.4496361 Z M 49.954304,0 Q 49.51163,0 49.224622,-0.17025927 49.03004,0.94858738 48.266305,1.67827 47.507435,2.4079526 46.237788,2.6511801 l -0.481591,-1.298835 q 0.70536,-0.1508011 1.211273,-0.40375772 0.510778,-0.24809208 0.788057,-0.66644344 0.27728,-0.41835136 0.27728,-1.07993025 0,-0.44267409 -0.141072,-0.99236829 -0.141072,-0.5545588 -0.301602,-1.0312848 l 1.308564,-0.4232159 0.282144,1.0993885 q 0.0827,0.3113312 0.243227,0.5253714 0.16053,0.2140403 0.476726,0.2140403 h 0.189718 V 0 Z m -6.207168,-4.0229834 q 0.612934,0 1.041014,0.3648413 0.428081,0.3648413 0.671308,0.963181 0.243228,0.5934752 0.291873,1.289106 h 0.364841 V 0 H 45.65404 q -0.277279,1.1091176 -1.089659,1.7415091 -0.81238,0.6372562 -2.218235,0.909671 L 41.864555,1.3523451 Q 42.477489,1.2355959 42.997996,1.0410138 43.523367,0.84643182 43.883344,0.58374608 44.248185,0.32106034 44.369799,0 h -0.457268 q -0.982639,0 -1.498282,-0.40862226 -0.515642,-0.4134868 -0.515642,-1.33288684 0,-0.3599768 0.111885,-0.7540054 0.111884,-0.3988931 0.340518,-0.7442762 0.228634,-0.3502477 0.574017,-0.5642879 0.350248,-0.2189048 0.822109,-0.2189048 z m 0.16053,2.6171283 h 0.622663 q -0.02919,-0.2724149 -0.116749,-0.5594234 -0.0827,-0.2870085 -0.248092,-0.4815905 -0.160531,-0.194582 -0.428081,-0.194582 -0.228634,0 -0.364841,0.1459365 -0.131343,0.141072 -0.189718,0.3405186 -0.05351,0.194582 -0.05351,0.3599767 0,0.2578212 0.214041,0.3259249 0.218904,0.063239 0.564287,0.063239 z M 36.440581,0 v -1.4058551 h 0.81238 v -0.1118847 q 0,-0.4669969 0.09729,-0.9875038 0.102156,-0.5205069 0.325925,-0.9777747 0.228634,-0.4621323 0.59834,-0.7491408 0.37457,-0.2870085 0.914535,-0.2870085 0.466997,0 0.802651,0.2286339 0.335654,0.2237693 0.510778,0.6129334 0.179988,0.3842995 0.179988,0.86589 0,0.4524032 -0.170259,0.8950773 -0.170259,0.4378096 -0.462132,0.8221091 -0.291873,0.37943495 -0.666444,0.66157889 -0.369705,0.27727939 -0.778328,0.40862226 0.0681,0.20917568 0.233499,0.45240321 0.170259,0.24322753 0.364841,0.4134868 0.102156,-0.41835135 0.325925,-0.81724451 0.228634,-0.39889315 0.535101,-0.71995349 0.306466,-0.32592486 0.656714,-0.51564236 0.355112,-0.194582 0.715089,-0.194582 h 0.16053 V 0 h -0.170259 q -0.632392,0 -0.86589,0.32106034 -0.228634,0.3259249 -0.228634,0.97777466 0,0.1216138 0.0049,0.2529567 0.0049,0.1362074 0.01459,0.2724148 L 39.500384,2.6171283 Q 39.023658,2.3884944 38.576119,1.9750076 38.12858,1.5615208 37.797791,1.0458784 37.471866,0.53023602 37.350252,0 Z m 2.694961,-3.1619579 q -0.179988,0 -0.311331,0.1653947 -0.126478,0.1653947 -0.209176,0.4232159 -0.07783,0.2529566 -0.116749,0.5399651 -0.03405,0.282144 -0.03405,0.5156424 v 0.1118847 q 0.296738,-0.024323 0.54483,-0.2091757 0.248092,-0.1848529 0.398893,-0.4718614 0.155666,-0.2918731 0.155666,-0.6226625 0,-0.2091757 -0.116749,-0.3307895 -0.11675,-0.1216137 -0.311332,-0.1216137 z M 30.943638,0 h -0.21404 l 0.0049,-1.4058551 h 0.184853 q 0.238362,0 0.42808,-0.184853 0.194582,-0.1848529 0.369706,-0.4767259 0.179988,-0.2967376 0.37457,-0.6226625 0.199447,-0.3307895 0.442674,-0.6226625 0.248092,-0.2967376 0.574017,-0.4815905 0.325925,-0.1848529 0.763735,-0.1848529 0.549694,0 0.958316,0.2286338 0.413487,0.2286339 0.666444,0.617798 0.252956,0.389164 0.335654,0.8707545 0.0827,0.4864551 0.272415,0.671308 0.189717,0.184853 0.403757,0.184853 h 0.126479 V 0 H 36.50382 q -0.311332,0 -0.612934,-0.14107197 -0.301602,-0.14593652 -0.486455,-0.34051855 -0.243227,0.3064667 -0.539965,0.45240322 -0.296738,0.14107197 -0.715089,0.14107197 -0.505913,0 -0.948587,-0.21404023 -0.43781,-0.21890478 -0.856161,-0.53996513 -0.26755,0.26755029 -0.559423,0.45726776 Q 31.498197,0 30.943638,0 Z m 2.972241,-2.641451 q -0.199447,0 -0.359977,0.1362074 -0.16053,0.1313429 -0.282144,0.3210604 -0.121614,0.1897174 -0.204311,0.3599767 0.150801,0.1362074 0.287008,0.2334984 0.136208,0.097291 0.257822,0.1653948 0.165394,0.082697 0.301602,0.1216137 0.136207,0.034052 0.238363,0.034052 0.257821,0 0.369706,-0.1848529 0.111884,-0.1897175 0.111884,-0.4280805 0,-0.3064667 -0.189717,-0.530236 Q 34.256397,-2.641451 33.915879,-2.641451 Z M 27.270905,0.57401698 28.146524,1.4496361 27.270905,2.3203907 26.400151,1.4496361 Z M 23.933824,-1.4058551 h 0.826973 q 0.627527,0 1.167492,-0.1167493 0.539965,-0.1216137 1.109118,-0.3599767 0.574017,-0.238363 1.303699,-0.5934752 -0.74914,-0.2724148 -1.211273,-0.4572677 -0.462132,-0.1897175 -0.632391,-0.1897175 -0.262686,0 -0.476726,0.1653947 -0.209176,0.1605302 -0.345383,0.3405185 l -0.257821,0.3259249 -1.08966,-0.5351005 0.218905,-0.3502477 q 0.345383,-0.5642879 0.826974,-0.9339937 0.48159,-0.3745704 1.128575,-0.3745704 0.272415,0 0.632392,0.1264783 0.364841,0.1264783 0.778328,0.3161958 0.418351,0.1848529 0.861025,0.3745704 0.447539,0.1848529 0.880484,0.3161958 0.43781,0.1313429 0.836703,0.1362074 v 1.2891059 q -0.369706,0.048645 -0.685902,0.1653948 -0.316196,0.1118846 -0.656714,0.2870084 -0.340519,0.1751239 -0.792922,0.4183514 -0.622662,0.33078945 -1.177221,0.56915243 -0.549694,0.23836299 -1.13344,0.3648413 Q 25.466157,0 24.746204,0 h -0.81238 z M 23.067233,2.6560447 22.571049,1.3523451 Q 23.276409,1.201544 23.782322,0.94858738 24.2931,0.7004953 24.570379,0.28214394 q 0.277279,-0.41835136 0.277279,-1.07993025 0,-0.44267409 -0.141071,-0.99236829 -0.141072,-0.5545588 -0.301603,-1.0312848 l 1.313429,-0.4232159 q 0.189718,0.530236 0.287009,1.1431694 0.102155,0.6129334 0.102155,1.17722127 0,1.02155564 -0.379435,1.75123824 Q 25.353572,1.5615208 24.66767,2.013924 23.986633,2.4711917 23.067233,2.6560447 Z M 19.044249,0 Q 18.781564,0 18.523742,-0.0194582 18.270786,-0.03891641 18.0081,-0.05837461 V -1.4155842 q 0.301602,0.029187 0.603204,0.048646 0.306467,0.014594 0.530236,0.014594 0.08756,0 0.165395,0 0.07783,-0.00486 0.141072,-0.00486 0,0 -0.0681,-0.3064667 -0.06324,-0.3064667 -0.189717,-0.8172445 -0.121614,-0.5156424 -0.301602,-1.148034 -0.175124,-0.6323916 -0.398894,-1.2939705 -0.223769,-0.6615789 -0.486455,-1.2501895 l 1.19668,-0.5205069 q 0.26755,0.6226625 0.496184,1.3231578 0.228634,0.6956307 0.413487,1.3620742 0.189717,0.6664434 0.32106,1.2112731 0.136208,0.5399651 0.204311,0.86589 0.07297,0.3210603 0.07297,0.3210603 0.841567,-0.3648413 0.841567,-1.8339356 V -6.8201 h 1.303699 v 3.4343727 q 0,0.8610255 -0.218904,1.4593652 -0.218905,0.5934752 -0.59834,0.97291017 -0.379435,0.37943495 -0.86589,0.58861063 -0.486455,0.20917568 -1.036149,0.28700849 Q 19.589079,0 19.044249,0 Z M 15.29368,-4.0229834 q 0.612934,0 1.041014,0.3648413 0.428081,0.3648413 0.671308,0.963181 0.243228,0.5934752 0.291873,1.289106 h 0.364842 V 0 h -0.462133 q -0.277279,1.1091176 -1.089659,1.7415091 -0.81238,0.6372562 -2.218235,0.909671 L 13.411099,1.3523451 Q 14.024033,1.2355959 14.54454,1.0410138 15.069911,0.84643182 15.429888,0.58374608 15.794729,0.32106034 15.916343,0 h -0.457268 q -0.982639,0 -1.498282,-0.40862226 -0.515642,-0.4134868 -0.515642,-1.33288684 0,-0.3599768 0.111885,-0.7540054 0.111884,-0.3988931 0.340518,-0.7442762 0.228634,-0.3502477 0.574017,-0.5642879 0.350248,-0.2189048 0.822109,-0.2189048 z m 0.160531,2.6171283 h 0.622662 q -0.02919,-0.2724149 -0.116749,-0.5594234 -0.0827,-0.2870085 -0.248092,-0.4815905 -0.16053,-0.194582 -0.428081,-0.194582 -0.228634,0 -0.364841,0.1459365 -0.131343,0.141072 -0.189717,0.3405186 -0.05351,0.194582 -0.05351,0.3599767 0,0.2578212 0.214041,0.3259249 0.218904,0.063239 0.564288,0.063239 z M 9.6216155,-4.4948448 q 0.6518495,0.3842995 1.0702015,0.6907662 0.418351,0.3064667 0.681037,0.6372561 0.26755,0.3307895 0.457267,0.7929218 0.145937,0.3502476 0.27728,0.5642879 0.136207,0.2140402 0.340518,0.3113312 0.204312,0.092427 0.559424,0.092427 H 13.14355 V 0 H 13.007343 Q 12.418732,0 12.019839,-0.17025927 11.62581,-0.3453831 11.348531,-0.7491408 11.095574,-0.46699686 10.793972,-0.30160214 10.497235,-0.14107197 10.078883,-0.06810371 9.6653964,0 9.0475985,0 H 7.8606481 v -1.4058551 h 1.1820858 q 0.7783282,0 1.1674921,-0.1070202 0.389164,-0.1118846 0.389164,-0.4524032 0,-0.1605301 -0.238363,-0.3697058 Q 10.122664,-2.5490245 9.7626874,-2.782523 9.4075752,-3.020886 9.0330048,-3.2495198 8.663299,-3.4830183 8.3908842,-3.6776003 8.186573,-3.8284014 8.0795529,-4.0716289 7.9725328,-4.319721 7.9725328,-4.5824067 q 0,-0.2772794 0.1264783,-0.5010487 0.1313429,-0.2286339 0.3988932,-0.335654 l 3.7554327,-1.5323335 v 1.3912615 z M 3.2733769,0 Q 2.7820572,0 2.4464032,-0.16539472 2.1156138,-0.335654 1.9015736,-0.61293338 1.6340233,-0.33078944 1.2643174,-0.16539472 0.89461159,0 0.33032371,0 h -0.44753866 v -1.4058551 h 0.45726776 q 0.53510058,0 0.75886989,-0.1313429 0.2286339,-0.1313429 0.2286339,-0.6323916 0,-0.077833 -0.00973,-0.2578212 -0.00973,-0.1799884 -0.024323,-0.3940286 -0.014594,-0.2189048 -0.029187,-0.3940286 l 1.2210023,-0.1508011 0.1021555,1.3134287 q 0.043781,0.6469853 0.6956308,0.6469853 0.4037577,0 0.5399651,-0.1653948 0.1362074,-0.1702592 0.1362074,-0.5983397 0,-0.068104 -0.00973,-0.2480921 -0.00973,-0.1848529 -0.024323,-0.4037577 -0.014594,-0.2189048 -0.029187,-0.3940286 l 1.2210023,-0.1508011 0.1021555,1.3134287 q 0.019458,0.2967376 0.1459365,0.4718614 0.1313429,0.1751239 0.4426742,0.1751239 0.291873,0 0.3988931,-0.2286339 0.1118847,-0.2334985 0.1118847,-0.5545588 0,-0.2772794 -0.05351,-0.5691524 Q 6.21643,-3.0549378 6.1531909,-3.2933008 6.0948162,-3.5365283 6.0656289,-3.648413 l 1.2599187,-0.3453831 q 0.097291,0.3842995 0.1605301,0.8221091 0.063239,0.432945 0.063239,0.8610254 0,0.6032043 -0.1605302,1.1334403 Q 7.2331211,-0.65184979 6.8536861,-0.32592489 6.4742512,0 5.8175369,0 5.3797273,0 5.0781252,-0.17998837 4.7813876,-0.35997675 4.5770764,-0.62266248 4.3289844,-0.35997675 4.0127886,-0.17998837 3.7014573,0 3.2733769,0 Z"
       id="text1"
       transform="matrix(1.3333333,0,0,1.3333333,204.18933,45.728)"
       aria-label="نﺎﻫاﻮﺧ یرﻮﻬﻤﺟرﻻﻮﮑﺳ" />
    <path
       id="path2"
       d="m -76.24695,-45.75336 h -103.4245 c -2.75117,0 -4.98138,-2.23021 -4.98138,-4.98138 v -24.05333 c 0,-2.75118 2.23021,-4.98138 4.98138,-4.98138 h 103.4245 c 2.75118,0 4.98139,2.2302 4.98139,4.98138 v 24.05333 c 0,2.75117 -2.23021,4.98138 -4.98139,4.98138 z"
       style="fill:#f5ebff;fill-opacity:1;fill-rule:nonzero;stroke:#663399;stroke-width:0.3985;stroke-linecap:butt;stroke-linejoin:miter;stroke-miterlimit:10;stroke-dasharray:none;stroke-opacity:1"
       transform="matrix(1.3333333,0,0,-1.3333333,266.392,42.864)" />
    <g
       id="text2"
       transform="matrix(1.3333333,0,0,1.3333333,50.605333,121.86267)"
       aria-label="بﺰﺣﻪﻃوﺮﺸﻣناﺮﯾاهاﻮﺧ یرﻮﻬﻤﺟ)(هﺪﺷ">
      <path
         style="font-size:8.9664px;font-family:Vazirmatn"
         d="M 59.730972,0.66985314 60.3658,1.3046813 59.730972,1.9395094 59.096144,1.3046813 Z M 60.431472,0 h -1.020103 q -1.650553,0 -2.482397,-0.44656876 -0.827466,-0.44656875 -0.827466,-1.54547814 0,-0.3020906 0.06567,-0.5910469 0.07005,-0.2889562 0.179503,-0.5560219 l 0.67861,0.2539313 q -0.07005,0.1926375 -0.11821,0.4115437 -0.04378,0.2189063 -0.04378,0.4159219 0.0044,0.5122406 0.288956,0.7880625 0.284578,0.27144378 0.849356,0.37214066 0.564779,0.10069688 1.409757,0.10069688 h 1.024481 q 0.297712,0 0.621694,-0.0175125 0.328359,-0.0175125 0.612937,-0.0963188 0.284578,-0.0788063 0.464081,-0.26268749 0.179504,-0.1882594 0.179504,-0.525375 0,-0.245175 -0.04816,-0.5822907 -0.04816,-0.3414937 -0.113831,-0.6742312 l 0.761794,-0.1926375 q 0.07881,0.3414937 0.118209,0.7092562 0.04378,0.3633844 0.04378,0.6348282 0,0.595425 -0.201393,0.95443124 -0.201394,0.35900625 -0.564779,0.5428875 -0.359006,0.18388126 -0.8406,0.24517501 Q 60.991872,0 60.431472,0 Z m -7.11771,-4.5050907 0.634828,0.6348281 -0.634828,0.6348282 -0.634828,-0.6348282 z M 54.938046,0 q -0.30209,0 -0.507862,-0.07880625 -0.201394,-0.08318438 -0.315225,-0.175125 -0.06567,0.57353438 -0.319603,1.10766564 -0.249554,0.53850941 -0.753038,0.93691881 -0.503484,0.3984093 -1.33095,0.5604 L 51.453059,1.6593094 q 1.068262,-0.2320406 1.506075,-0.81433126 0.437812,-0.57791251 0.437812,-1.37035315 0,-0.37214063 -0.08318,-0.77930629 -0.07881,-0.4115437 -0.223285,-0.8362219 l 0.726769,-0.245175 0.236419,0.9150282 q 0.09632,0.3677625 0.306469,0.52099686 0.21015,0.15323438 0.529753,0.15323438 h 0.166369 V 0 Z m -8.826298,-0.79681876 h 0.744281 q 0.512241,0 0.941297,-0.0919406 0.429056,-0.0919406 0.836222,-0.25393121 0.411544,-0.1619907 0.858112,-0.3808969 0.450947,-0.2232844 1.006969,-0.4772157 -0.310847,-0.1138312 -0.643584,-0.245175 -0.332738,-0.1357218 -0.634828,-0.2539312 -0.297713,-0.1182094 -0.520997,-0.1926375 -0.223285,-0.078806 -0.315225,-0.078806 -0.267066,0 -0.472838,0.1576125 -0.201394,0.1532344 -0.37214,0.3721407 l -0.11821,0.1488562 -0.669853,-0.3283594 0.06567,-0.105075 q 0.288956,-0.4684593 0.669853,-0.7486594 0.385275,-0.2845781 0.901894,-0.2845781 0.214528,0 0.516619,0.1094531 0.306468,0.1094532 0.665475,0.2758219 0.359006,0.1619907 0.744281,0.3327375 0.385275,0.1663688 0.77055,0.2845782 0.385275,0.1138312 0.735525,0.1269656 v 0.7574156 q -0.2802,0.030647 -0.718013,0.2057719 -0.433434,0.1707469 -1.129556,0.53850938 -0.5604,0.29771251 -1.041994,0.50786251 Q 48.454045,-0.21452813 47.954938,-0.105075 47.46021,0 46.842895,0 H 46.111748 Z M 48.536629,0 q -0.643584,0 -1.002591,-0.30209063 -0.354628,-0.30209063 -0.459703,-0.83184377 -0.253931,0.25393126 -0.551643,0.38965314 -0.293335,0.13572188 -0.661097,0.13572188 -0.626072,0 -1.05075,-0.33711564 -0.424679,-0.33711558 -0.424679,-0.93254068 0,-0.6742312 0.551644,-1.1645812 0.551644,-0.4947282 1.733738,-0.8581125 l -0.03065,-0.21015 0.7005,-0.1401 0.380897,2.6881687 q 0.05254,0.3852751 0.249553,0.57791256 0.201394,0.18825938 0.582291,0.18825938 h 0.135721 V 0 Z M 46.89921,-2.2021969 q 0,-0.1357219 -0.01751,-0.2583094 l -0.109453,-0.7311469 q -0.849357,0.3064688 -1.23901,0.6041813 -0.385275,0.2977125 -0.385275,0.6523406 0,0.2889563 0.197016,0.4378125 0.197015,0.1488563 0.534131,0.1488563 0.258309,0 0.49035,-0.1006969 0.236419,-0.1006969 0.380897,-0.2933344 0.148856,-0.1926375 0.148856,-0.4597031 z m -8.130179,1.40537814 q 0.08318,-0.14010001 0.175125,-0.27582184 0.09194,-0.1401 0.175125,-0.2758219 v -4.6802157 h 0.739903 v 3.6382219 q 0.941297,-1.1339344 1.93951,-1.1339344 0.516618,0 0.901893,0.21015 0.389654,0.21015 0.604182,0.5822907 0.218906,0.3677625 0.218906,0.8493562 -0.0044,0.95880941 -0.809953,1.42289067 Q 41.912525,0 40.292619,0 H 38.02475 V -0.79681876 Z M 41.842475,-2.73195 q -1.05075,0 -2.276625,1.93513124 h 0.709256 q 1.247766,0 1.860703,-0.24955314 0.612938,-0.2495531 0.612938,-0.7924406 0,-0.385275 -0.249553,-0.6392063 Q 42.249641,-2.73195 41.842475,-2.73195 Z m -4.163596,1.98329061 q 0,2.55682509 -2.806378,3.09533439 l -0.25831,-0.6961218 q 1.006969,-0.1926376 1.606772,-0.6435844 0.599804,-0.44656879 0.709257,-1.12517818 -0.166369,0.0525375 -0.385275,0.09194063 -0.218907,0.03940313 -0.385275,0.03940313 -1.598016,0 -1.598016,-1.35721878 0,-0.3239813 0.09632,-0.6479625 0.100697,-0.3283594 0.288956,-0.5998031 0.192637,-0.2758219 0.468459,-0.4421907 0.275822,-0.1663687 0.626072,-0.1663687 0.415922,0 0.722391,0.2057719 0.310847,0.2057718 0.512241,0.5560218 0.201393,0.35025 0.30209,0.7880625 0.100697,0.4378126 0.100697,0.90189381 z m -1.497319,-0.0306469 q 0.385275,0 0.766172,-0.11383125 -0.04378,-0.73552499 -0.271444,-1.12517819 -0.227662,-0.3940312 -0.643584,-0.3940312 -0.288956,0 -0.450947,0.1795031 -0.157612,0.1795031 -0.223284,0.4246781 -0.06129,0.2407969 -0.06129,0.4378126 0,0.3196031 0.218906,0.45532496 0.218907,0.13572188 0.665475,0.13572188 z M 33.972043,0 q -0.302091,0 -0.507863,-0.07880625 -0.201393,-0.08318438 -0.315225,-0.175125 -0.06567,0.57353438 -0.319603,1.10766564 -0.249553,0.53850941 -0.753037,0.93691881 -0.503485,0.3984093 -1.33095,0.5604 l -0.25831,-0.6917438 q 1.068263,-0.2320406 1.506075,-0.81433126 0.437813,-0.57791251 0.437813,-1.37035315 0,-0.37214063 -0.08319,-0.77930629 -0.07881,-0.4115437 -0.223284,-0.8362219 l 0.726769,-0.245175 0.236419,0.9150282 q 0.09632,0.3677625 0.306468,0.52099686 0.21015,0.15323438 0.529753,0.15323438 h 0.166369 V 0 Z m -7.101319,-5.7572345 0.591047,0.5910469 -0.591047,0.5910469 -0.591047,-0.5910469 z m 0.748659,1.1076657 0.591047,0.5910469 -0.591047,0.5910468 -0.591047,-0.5910468 z m -1.497319,0 0.591047,0.5910469 -0.591047,0.5910468 -0.591047,-0.5910468 z M 28.227943,0 q -0.4203,0 -0.67861,-0.175125 -0.258309,-0.17512501 -0.4203,-0.49472814 -0.245175,0.35462813 -0.547266,0.51224064 Q 26.284055,0 25.933805,0 25.430321,0 25.154499,-0.17074688 24.883055,-0.34587188 24.721064,-0.66985314 24.515292,-0.34587188 24.195689,-0.17074688 23.876086,0 23.285039,0 h -0.402787 v -0.79681876 h 0.411544 q 0.5604,0 0.818709,-0.20577184 0.258309,-0.21015 0.258309,-0.7617938 0,-0.1138313 -0.01313,-0.2670656 -0.0088,-0.1576125 -0.03065,-0.4378125 l 0.731147,-0.091941 0.07005,0.9150282 q 0.02627,0.3677625 0.223284,0.6085594 0.201394,0.24079684 0.591047,0.24079684 0.464081,0 0.63045,-0.24955314 0.166369,-0.2495531 0.166369,-0.7180125 0,-0.1138313 -0.01313,-0.2714438 -0.0088,-0.1576125 -0.03065,-0.4334343 l 0.731147,-0.091941 0.07005,0.9150282 q 0.02189,0.3546281 0.188259,0.6041812 0.166369,0.24517504 0.538509,0.24517504 0.647963,0 0.647963,-0.96756564 0,-0.1576125 -0.01313,-0.3283594 -0.0088,-0.1707469 -0.03065,-0.4509469 l 0.731147,-0.087563 0.07005,0.9850782 q 0.05254,0.84935624 0.866868,0.84935624 h 0.131344 V 0 H 30.504568 Q 30.044864,0 29.738396,-0.16636875 29.431927,-0.33711563 29.318096,-0.67423126 29.134214,-0.35025001 28.893418,-0.175125 28.656999,0 28.227943,0 Z m -7.070672,0.10069688 q -0.437813,0 -0.809953,-0.18825938 Q 19.979555,-0.2802 19.581146,-0.66547501 19.296568,-0.34587188 19.03388,-0.17074688 18.771193,0 18.293977,0 h -0.192638 v -0.79681876 h 0.170747 q 0.293335,0 0.494728,-0.16636876 0.201394,-0.17074688 0.359007,-0.43781248 0.157612,-0.2670657 0.310847,-0.5647782 0.157612,-0.3020906 0.35025,-0.5691562 0.192637,-0.2670656 0.464081,-0.4334344 0.275822,-0.1707469 0.678609,-0.1707469 0.485972,0 0.844978,0.2364188 0.363385,0.2320406 0.5604,0.6260719 0.201394,0.3940312 0.201394,0.8800031 0,0.71363439 -0.363384,1.10766565 -0.359007,0.38965313 -1.015725,0.38965313 z m -0.21015,-2.46488438 q -0.218907,0 -0.39841,0.1488562 -0.179503,0.1444781 -0.323981,0.3765188 -0.144478,0.2320406 -0.258309,0.4815937 0.262687,0.2758219 0.542887,0.45094691 0.359006,0.23204063 0.639206,0.23204063 0.647963,0 0.647963,-0.65234064 0,-0.455325 -0.227663,-0.7442813 -0.223284,-0.2933343 -0.621693,-0.2933343 z M 18.661144,0 H 17.94751 v -0.79681876 h 0.704878 q 0.437812,0 0.591047,-0.25393124 0.157612,-0.2539313 0.157612,-0.6435844 0,-0.2845781 -0.05254,-0.6085594 -0.05254,-0.3239812 -0.113831,-0.6523406 l 0.761793,-0.1926375 q 0.07443,0.35025 0.11821,0.6873656 0.04378,0.3371156 0.04378,0.6435844 0,0.525375 -0.144478,0.93691876 -0.144478,0.41154376 -0.472838,0.64796251 Q 19.212788,0 18.661144,0 Z m 0.534131,-5.1661876 0.634829,0.6348282 -0.634829,0.6348281 -0.634828,-0.6348281 z m -2.837024,-0.8624906 h 0.739903 v 4.1854875 q 0,0.6173157 0.227662,0.8318438 0.227663,0.21452814 0.687366,0.21452814 h 0.109453 V 0 H 18.013182 Q 17.17696,0 16.765416,-0.44219063 16.358251,-0.88875939 16.358251,-1.8475688 Z M 15.048035,0 q -0.30209,0 -0.507862,-0.07880625 -0.201394,-0.08318438 -0.315225,-0.175125 -0.06567,0.57353438 -0.319603,1.10766564 -0.249553,0.53850941 -0.753038,0.93691881 -0.503484,0.3984093 -1.33095,0.5604 L 11.563048,1.6593094 q 1.068262,-0.2320406 1.506075,-0.81433126 0.437812,-0.57791251 0.437812,-1.37035315 0,-0.37214063 -0.08318,-0.77930629 -0.07881,-0.4115437 -0.223284,-0.8362219 l 0.726768,-0.245175 0.236419,0.9150282 q 0.09632,0.3677625 0.306469,0.52099686 0.21015,0.15323438 0.529753,0.15323438 h 0.166369 V 0 Z M 8.7260232,-0.79681876 h 0.9500531 q 0.4378127,0 0.5910467,-0.25393124 0.157613,-0.2539313 0.157613,-0.6435844 0,-0.2845781 -0.05254,-0.6085594 -0.05254,-0.3239812 -0.113831,-0.6523406 l 0.761794,-0.1926375 q 0.07443,0.35025 0.118209,0.6873656 0.04378,0.3371156 0.04378,0.6435844 0,0.525375 -0.144478,0.93691876 -0.144478,0.41154376 -0.472837,0.64796251 Q 10.236476,0 9.6848326,0 H 8.7260232 Z M 10.306526,0.69612189 10.919464,1.3046813 10.306526,1.9219969 9.6979669,1.3046813 Z m -1.4535372,0 L 9.4659263,1.3046813 8.8529888,1.9219969 8.2444294,1.3046813 Z m -0.7005,-6.72480009 v 6.02430007 H 7.4125857 V -6.0286782 Z"
         id="path7" />
      <path
         style="font-size:7.9701px;font-family:Vazirmatn"
         d="m 60.990474,7.7989795 0.307441,-0.5759642 q 1.397102,0.6810388 2.082033,1.2180866 0.68493,0.5331561 0.68493,1.0896621 0,0.688822 -0.428082,1.039071 -0.424189,0.350248 -1.140253,0.350248 -0.268524,0 -0.572073,-0.04281 -0.303548,-0.04281 -0.575964,-0.105075 -0.272415,-0.06616 -0.459215,-0.128424 -0.338573,0.124533 -0.793896,0.221824 -0.455323,0.0934 -0.879513,0.0934 h -0.385274 v -0.708281 h 0.334682 q 0.256849,0 0.451432,-0.01168 0.198474,-0.01168 0.431973,-0.03892 Q 59.780171,9.9821954 59.65953,9.7253465 59.54278,9.4646059 59.54278,9.1882987 q 0,-0.4047316 0.190691,-0.6966054 0.190691,-0.2918738 0.505915,-0.4475398 0.315223,-0.1595576 0.688822,-0.1595576 0.167341,0 0.334682,0.042808 -0.132316,-0.062266 -0.272416,-0.1284245 z m 0.704389,2.4167145 q 0.171233,0.01946 0.373598,0.03892 0.202366,0.01557 0.358032,0.01557 0.47089,0 0.716064,-0.175125 0.249066,-0.1790157 0.249066,-0.5526141 0,-0.1906909 -0.217933,-0.4125149 -0.217932,-0.2257158 -0.583747,-0.4631064 -0.361924,-0.2412823 -0.80168,-0.4747814 0.21404,0.1712326 0.342465,0.412515 0.132316,0.2412823 0.132316,0.5098062 0,0.3658151 -0.147883,0.6265557 Q 61.97117,9.997762 61.694863,10.215694 Z M 60.212144,9.1805154 q 0,0.2296074 0.190691,0.4592148 0.194583,0.2257157 0.560398,0.3658148 0.700497,-0.2840902 0.700497,-0.8172463 0,-0.3385736 -0.206258,-0.5136978 -0.202366,-0.1790159 -0.490348,-0.1790159 -0.334682,0 -0.544831,0.1867992 -0.210149,0.1867992 -0.210149,0.4981312 z M 57.417938,5.6001971 h 0.657689 v 3.7204177 q 0,0.5487227 0.202365,0.7394132 0.202366,0.190691 0.61099,0.190691 h 0.09729 V 10.959 h -0.09729 q -0.743306,0 -1.109121,-0.393057 -0.361923,-0.396948 -0.361923,-1.2492198 z m -2.443955,2.5140061 q 0.607097,0 1.023504,0.5448311 0.416407,0.5409394 0.431973,1.5916847 h 0.47089 V 10.959 h -0.533156 q -0.08562,0.447539 -0.342466,0.863946 -0.252957,0.420298 -0.75498,0.739414 -0.502023,0.323007 -1.330944,0.482564 L 53.709197,12.426152 Q 55.472114,12.087578 55.752313,10.959 h -0.614881 q -1.474935,0 -1.474935,-1.194737 0,-0.3813818 0.151774,-0.7627635 0.155666,-0.3813817 0.44754,-0.634339 0.295765,-0.2529573 0.712172,-0.2529573 z m 0.124533,2.1365158 h 0.688822 q -0.0467,-0.7510882 -0.249066,-1.0935535 -0.198474,-0.3424652 -0.575964,-0.3424652 -0.249066,0 -0.393057,0.1595577 -0.140099,0.1595576 -0.198474,0.37749 -0.05448,0.2140408 -0.05448,0.3891651 0,0.2724159 0.182908,0.3930569 0.186799,0.116749 0.599314,0.116749 z M 50.284544,6.0166037 50.848834,6.580893 50.284544,7.1451823 49.720255,6.580893 Z m -2.424498,4.2341153 h 0.661581 q 0.455323,0 0.836705,-0.08172 0.381381,-0.08173 0.743305,-0.2257161 Q 50.467452,9.7992878 50.8644,9.6047053 51.26524,9.4062311 51.75948,9.1805154 51.483173,9.0793325 51.187407,8.962583 50.891642,8.8419418 50.623118,8.7368673 50.358486,8.6317927 50.160012,8.5656347 q -0.198474,-0.07005 -0.280199,-0.07005 -0.237391,0 -0.420298,0.1400994 -0.179016,0.1362077 -0.330791,0.3307903 L 49.02365,9.0987908 48.428227,8.806917 l 0.05837,-0.0934 q 0.256849,-0.4164066 0.595423,-0.6654722 0.342465,-0.2529573 0.80168,-0.2529573 0.19069,0 0.459214,0.097291 0.272416,0.097291 0.591531,0.2451739 0.319115,0.1439911 0.661581,0.2957655 0.342465,0.1478827 0.68493,0.2529572 0.342465,0.1011829 0.653797,0.1128579 v 0.6732555 q -0.249065,0.027242 -0.63823,0.1829076 -0.385274,0.1517743 -1.004046,0.4786732 -0.498131,0.264632 -0.926213,0.451431 -0.42419,0.182908 -0.867838,0.280199 -0.439756,0.0934 -0.988479,0.0934 h -0.649906 z m -7.031685,0 h 1.109121 q 0.389165,0 0.525373,-0.225715 0.140099,-0.2257162 0.140099,-0.5720731 0,-0.2529572 -0.0467,-0.5409394 -0.0467,-0.2879821 -0.101183,-0.5798559 L 43.132218,8.160903 q 0.06616,0.3113321 0.105075,0.6109891 0.03892,0.2996571 0.03892,0.5720726 0,0.4669981 -0.128425,0.8328133 -0.128424,0.365815 -0.420298,0.575964 Q 42.435613,10.959 41.945265,10.959 h -1.116904 z m 1.669518,1.327053 0.544831,0.540939 -0.544831,0.548723 -0.540939,-0.548723 z m -1.292027,0 0.544831,0.540939 -0.544831,0.548723 -0.54094,-0.548723 z M 40.878952,10.959 q -0.268524,0 -0.451432,-0.07005 -0.179016,-0.07394 -0.280199,-0.155666 -0.05837,0.509806 -0.28409,0.984587 -0.221824,0.478673 -0.669364,0.832814 -0.44754,0.35414 -1.183062,0.498131 l -0.229607,-0.614881 q 0.949563,-0.206257 1.338728,-0.723847 0.389165,-0.513698 0.389165,-1.218086 0,-0.330791 -0.07394,-0.6927142 Q 39.3651,9.4334727 39.236675,9.0559826 l 0.646014,-0.2179324 0.210149,0.8133549 q 0.08562,0.3268986 0.272416,0.4631069 0.186799,0.136207 0.47089,0.136207 h 0.147882 V 10.959 Z M 35.979364,8.1142032 q 0.607097,0 1.023504,0.5448311 0.416406,0.5409394 0.431973,1.5916847 H 37.90573 V 10.959 h -0.533156 q -0.08562,0.447539 -0.342465,0.863946 -0.252957,0.420298 -0.75498,0.739414 -0.502023,0.323007 -1.330944,0.482564 L 34.714577,12.426152 Q 36.477495,12.087578 36.757694,10.959 h -0.614881 q -1.474936,0 -1.474936,-1.194737 0,-0.3813818 0.151775,-0.7627635 0.155666,-0.3813817 0.44754,-0.634339 0.295765,-0.2529573 0.712172,-0.2529573 z m 0.124532,2.1365158 h 0.688822 q -0.0467,-0.7510882 -0.249065,-1.0935535 -0.198474,-0.3424652 -0.575964,-0.3424652 -0.249066,0 -0.393057,0.1595577 -0.1401,0.1595576 -0.198474,0.37749 -0.05448,0.2140408 -0.05448,0.3891651 0,0.2724159 0.182907,0.3930569 0.186799,0.116749 0.599314,0.116749 z M 30.23529,10.959 v -0.708281 h 0.805572 v -0.07005 q 0,-0.416407 0.07394,-0.8444886 0.07783,-0.4319732 0.241283,-0.7938966 0.163449,-0.3658152 0.428081,-0.5876392 0.268524,-0.2218241 0.649906,-0.2218241 0.49424,0 0.774438,0.3463569 0.280199,0.3463569 0.280199,0.9028629 0,0.3619234 -0.143991,0.712172 -0.143991,0.3502487 -0.393057,0.6382307 -0.249065,0.287982 -0.568181,0.459215 -0.319115,0.171232 -0.669363,0.171232 0.07783,0.326899 0.30744,0.665472 0.229607,0.338574 0.572073,0.560398 0,-1.938042 1.638384,-1.938042 H 34.36044 V 10.959 h -0.136208 q -0.521481,0 -0.786113,0.28409 -0.260741,0.284091 -0.260741,0.961238 0,0.08562 0.0039,0.179016 0.0039,0.09729 0.01168,0.190691 L 32.71038,13.044924 Q 32.0488,12.710242 31.636285,12.16152 31.22377,11.616689 31.095345,10.959 Z m 2.191,-2.541248 q -0.233499,0 -0.40084,0.233499 -0.167341,0.233499 -0.256849,0.634339 -0.08562,0.3969483 -0.08562,0.891188 v 0.07783 q 0.326899,0 0.595423,-0.175124 0.268524,-0.1751246 0.428081,-0.4631067 0.159558,-0.2918738 0.159558,-0.634339 0,-0.2763072 -0.124533,-0.4202983 Q 32.620872,8.417752 32.42629,8.417752 Z M 25.837723,10.959 H 25.66649 v -0.708281 h 0.151775 q 0.26074,0 0.439756,-0.147882 0.179016,-0.1517748 0.319116,-0.3891655 0.140099,-0.2373907 0.276307,-0.5020229 0.140099,-0.2685238 0.311332,-0.5059145 0.171232,-0.2373907 0.412515,-0.3852734 0.245174,-0.1517744 0.603206,-0.1517744 0.610989,0 0.949562,0.3735985 0.338574,0.3697067 0.455323,0.9223211 0.07783,0.3813817 0.264633,0.5837471 0.19069,0.202366 0.439756,0.202366 h 0.101183 V 10.959 h -0.105075 q -0.249065,0 -0.486456,-0.101183 -0.237391,-0.105075 -0.385273,-0.330791 -0.16345,0.237391 -0.404732,0.381382 -0.241282,0.1401 -0.626556,0.1401 -0.389165,0 -0.719955,-0.167341 -0.326899,-0.171233 -0.681039,-0.513698 -0.252957,0.28409 -0.486456,0.439756 Q 26.261913,10.959 25.837723,10.959 Z m 2.35834,-2.1014916 q -0.194582,0 -0.35414,0.1323162 -0.159558,0.1284244 -0.287982,0.3346819 -0.128425,0.2062575 -0.229607,0.4280815 0.128424,0.1323161 0.256848,0.2373907 0.128425,0.1050743 0.249066,0.1790163 0.311332,0.19069 0.544831,0.19069 0.575964,0 0.575964,-0.5798554 0,-0.4047317 -0.202365,-0.6615806 -0.198475,-0.2607406 -0.552615,-0.2607406 z m -5.199242,2.6969136 0.564289,0.564289 -0.564289,0.56429 -0.56429,-0.56429 z m -2.669673,-1.303703 h 0.661581 q 0.455323,0 0.836705,-0.08172 0.381381,-0.08173 0.743305,-0.2257161 0.365815,-0.1439911 0.762763,-0.3385736 0.40084,-0.1984742 0.89508,-0.4241899 Q 23.950275,9.0793325 23.654509,8.962583 23.358744,8.8419418 23.09022,8.7368673 22.825588,8.6317927 22.627114,8.5656347 22.42864,8.495585 22.346915,8.495585 q -0.237391,0 -0.420298,0.1400994 -0.179016,0.1362077 -0.330791,0.3307903 l -0.105074,0.1323161 -0.595423,-0.2918738 0.05837,-0.0934 q 0.256849,-0.4164066 0.595423,-0.6654722 0.342465,-0.2529573 0.80168,-0.2529573 0.19069,0 0.459214,0.097291 0.272416,0.097291 0.591531,0.2451739 0.319115,0.1439911 0.661581,0.2957655 0.342465,0.1478827 0.68493,0.2529572 0.342465,0.1011829 0.653797,0.1128579 v 0.6732555 q -0.249065,0.027242 -0.63823,0.1829076 -0.385274,0.1517743 -1.004046,0.4786732 -0.498131,0.264632 -0.926213,0.451431 -0.42419,0.182908 -0.867838,0.280199 -0.439756,0.0934 -0.988479,0.0934 H 20.327148 Z M 18.895019,8.6590343 q 0,0.7316302 0.155666,1.4360187 0.155666,0.700497 0.455323,1.27257 0.303549,0.572073 0.747197,0.910646 L 20.105322,12.75305 Q 19.673349,12.519551 19.3231,12.103145 18.972852,11.686738 18.719895,11.138016 18.470829,10.593185 18.334621,9.9588455 18.198414,9.3245065 18.198414,8.6590343 q 0,-0.6654722 0.136207,-1.2998112 Q 18.470829,6.724884 18.719895,6.180053 18.972852,5.6313303 19.3231,5.2149237 19.673349,4.7985171 20.105322,4.5650181 l 0.147883,0.4747813 Q 19.809557,5.378373 19.506008,5.9504456 19.206351,6.5225182 19.050685,7.2269069 18.895019,7.927404 18.895019,8.6590343 Z m -0.292402,0 q 0,-0.7316303 -0.155666,-1.4321274 Q 18.295177,6.5225182 17.991628,5.9504456 17.688079,5.378373 17.244431,5.0397994 l 0.147883,-0.4747813 q 0.431973,0.233499 0.782222,0.6499056 0.350248,0.4164066 0.599314,0.9651293 0.252957,0.544831 0.389165,1.1791701 0.136208,0.634339 0.136208,1.2998112 0,0.6654722 -0.136208,1.2998112 -0.136208,0.6343395 -0.389165,1.1791705 -0.249066,0.548722 -0.599314,0.965129 -0.350249,0.416406 -0.782222,0.649905 l -0.147883,-0.474781 q 0.443648,-0.338573 0.747197,-0.910646 0.303549,-0.572073 0.455323,-1.27257 0.155666,-0.7043885 0.155666,-1.4360187 z M 14.707076,8.0791784 14.555301,7.9429706 14.967816,7.4098145 q 0.513698,0.4241899 0.902863,0.7938967 0.393057,0.3658151 0.614881,0.7199553 0.221824,0.3502485 0.221824,0.7277386 0,0.5915309 -0.404732,0.9417799 -0.404731,0.350248 -1.066312,0.350248 -0.677147,0 -1.074096,-0.33079 -0.396948,-0.334682 -0.396948,-0.84838 0,-0.4514315 0.241282,-0.8405965 0.241283,-0.3930567 0.700498,-0.8444881 z m 1.338727,1.5410935 q 0,-0.1790159 -0.132316,-0.3658151 Q 15.785063,9.0637659 15.586589,8.8769667 15.392006,8.6862758 15.18964,8.5111516 q -0.358032,0.3424652 -0.560397,0.6148807 -0.202366,0.2685239 -0.202366,0.5642893 0,0.2257157 0.190691,0.3930564 0.19069,0.167341 0.61488,0.167341 0.428082,0 0.618773,-0.155666 0.194582,-0.1556658 0.194582,-0.4747811 z m -4.276924,-0.077833 q 0,-0.1011829 -0.0467,-0.2607406 Q 11.679371,9.118249 11.617104,8.9781496 L 10.928282,7.4175978 11.53538,7.1335073 12.418784,9.2116486 q 0.179016,0.4202983 0.311332,0.646014 0.136208,0.2257154 0.264633,0.3113324 0.132316,0.08172 0.299657,0.08172 h 0.163449 V 10.959 h -0.163449 q -0.307441,0 -0.502023,-0.07394 -0.190691,-0.07394 -0.330791,-0.221824 -0.140099,-0.147883 -0.28409,-0.373598 -0.272416,0.342465 -0.696605,0.505914 -0.420299,0.159558 -1.050746,0.159558 -0.272416,0 -0.4903479,-0.02335 -0.2179325,-0.02724 -0.412515,-0.07394 v -0.704389 q 0.4475398,0.105075 0.8444879,0.105075 1.397103,0 1.397103,-0.7160641 z M 6.3244604,5.8414794 6.8498332,6.3668522 6.3244604,6.892225 5.7990876,6.3668522 Z M 6.9899326,6.826067 7.5153054,7.3514398 6.9899326,7.8768126 6.4645598,7.3514398 Z m -1.3309444,0 L 6.1843609,7.3514398 5.6589882,7.8768126 5.1336154,7.3514398 Z M 5.4916472,10.959 q -0.4475398,0 -0.6927138,-0.151775 Q 4.5576511,10.651559 4.41366,10.363577 4.2307525,10.651559 3.946662,10.807225 3.6625715,10.959 3.1371987,10.959 H 2.7791669 V 10.250719 H 3.144982 q 0.4981313,0 0.7277386,-0.182907 0.2296074,-0.1867995 0.2296074,-0.6771475 0,-0.1011829 -0.011675,-0.2373906 -0.00778,-0.1400994 -0.027242,-0.3891651 l 0.6499056,-0.081725 0.062266,0.8133549 q 0.02335,0.3268986 0.1984742,0.5409389 0.1790159,0.214041 0.5253728,0.214041 0.4125149,0 0.5603976,-0.221824 0.1478828,-0.2218239 0.1478828,-0.6382305 0,-0.1011829 -0.011675,-0.2412823 -0.00778,-0.1400994 -0.027242,-0.3852734 L 6.8187,8.6823842 6.8809664,9.4957391 q 0.019458,0.3152237 0.1673409,0.5370479 0.1478827,0.217932 0.478673,0.217932 0.323007,0 0.4436482,-0.241282 0.1206411,-0.2412824 0.1206411,-0.5642894 0,-0.2918737 -0.058375,-0.5876392 Q 7.9784118,8.561743 7.9356036,8.3788354 L 8.6010758,8.1998195 q 0.07005,0.2607406 0.1128579,0.556506 0.042808,0.2918738 0.042808,0.5837476 0,0.4202982 -0.1167495,0.7900049 Q 8.5232428,10.499785 8.2547189,10.729392 7.9900867,10.955108 7.530872,10.959 7.1572735,10.959 6.9276662,10.803334 6.6980588,10.647668 6.5540677,10.363577 6.3361353,10.678801 6.0676114,10.8189 5.8029792,10.959 5.4916472,10.959 Z"
         id="path8" />
    </g>
    <path
       id="path3"
       d="m 51.71225,-45.75336 h -103.4245 c -2.75117,0 -4.98138,-2.23021 -4.98138,-4.98138 v -24.05333 c 0,-2.75118 2.23021,-4.98138 4.98138,-4.98138 h 103.4245 c 2.75117,0 4.98138,2.2302 4.98138,4.98138 v 24.05333 c 0,2.75117 -2.23021,4.98138 -4.98138,4.98138 z"
       style="fill:#f5ebff;fill-opacity:1;fill-rule:nonzero;stroke:#663399;stroke-width:0.3985;stroke-linecap:butt;stroke-linejoin:miter;stroke-miterlimit:10;stroke-dasharray:none;stroke-opacity:1"
       transform="matrix(1.3333333,0,0,-1.3333333,266.392,42.864)" />
    <g
       id="text3"
       transform="matrix(1.3333333,0,0,1.3333333,215.488,121.57467)"
       aria-label="ﻪﻬﺒﺟنﺎﻫاﻮﺧ یرﻮﻬﻤﺟﺮﺘﭼ)(هدﺮﺘﺴﮔ">
      <path
         style="font-size:8.9664px;font-family:Vazirmatn"
         d="m 73.456181,0 q -0.643585,0 -1.002591,-0.30209063 -0.354628,-0.30209063 -0.459703,-0.83184377 -0.253931,0.25393126 -0.551644,0.38965314 -0.293334,0.13572188 -0.661097,0.13572188 -0.626071,0 -1.05075,-0.33711564 -0.424678,-0.33711558 -0.424678,-0.93254068 0,-0.6742312 0.551644,-1.1645812 0.551644,-0.4947282 1.733738,-0.8581125 l -0.03065,-0.21015 0.7005,-0.1401 0.380897,2.6881687 q 0.05254,0.3852751 0.249553,0.57791256 0.201394,0.18825938 0.58229,0.18825938 h 0.135722 V 0 Z m -1.637419,-2.2021969 q 0,-0.1357219 -0.01751,-0.2583094 l -0.109454,-0.7311469 q -0.849356,0.3064688 -1.239009,0.6041813 -0.385275,0.2977125 -0.385275,0.6523406 0,0.2889563 0.197016,0.4378125 0.197015,0.1488563 0.534131,0.1488563 0.258309,0 0.49035,-0.1006969 0.236419,-0.1006969 0.380897,-0.2933344 0.148856,-0.1926375 0.148856,-0.4597031 z M 64.319031,0 v -0.79681876 h 0.906272 v -0.0788063 q 0,-0.46845939 0.08318,-0.95005319 0.08756,-0.4859718 0.271444,-0.8931375 0.183881,-0.4115437 0.481594,-0.6610969 0.30209,-0.2495531 0.731146,-0.2495531 0.556022,0 0.871247,0.3896531 0.315225,0.3896532 0.315225,1.0157251 0,0.4071656 -0.16199,0.8011969 -0.161991,0.3940312 -0.442191,0.71801246 -0.2802,0.32398126 -0.639206,0.51661876 -0.359006,0.19263751 -0.753038,0.19263751 0.08756,0.3677625 0.345872,0.74865938 0.25831,0.38089689 0.643585,0.63044999 0,-2.18030626 1.84319,-2.18030626 h 0.144478 V 0 H 68.806609 Q 68.21994,0 67.922228,0.31960313 67.628893,0.63920626 67.628893,1.401 q 0,0.096319 0.0044,0.2013938 0.0044,0.1094531 0.01313,0.2145281 L 67.103518,2.346675 Q 66.359237,1.9701563 65.895156,1.3528406 65.431075,0.73990314 65.286596,0 Z m 2.464884,-2.8589157 q -0.262687,0 -0.450947,0.2626875 -0.188259,0.2626875 -0.288956,0.7136344 -0.09632,0.4465688 -0.09632,1.00259066 v 0.0875625 q 0.367763,0 0.669853,-0.19701563 0.302091,-0.19701563 0.481594,-0.52099683 0.179503,-0.3283594 0.179503,-0.7136344 0,-0.3108469 -0.1401,-0.4728375 -0.135722,-0.1619907 -0.354628,-0.1619907 z m -5.577722,2.06209694 h 0.512241 q 0.556022,0 0.79244,-0.24955314 0.240797,-0.2495531 0.240797,-0.7661719 0,-0.21015 -0.01313,-0.3984094 -0.0088,-0.1882593 -0.02627,-0.3765187 l 0.731147,-0.087562 0.07005,1.0244812 q 0.05254,0.85373444 0.88876,0.85373444 h 0.09194 V 0 H 64.393468 Q 63.907496,0 63.614162,-0.175125 63.325206,-0.35025001 63.145703,-0.66985314 62.909284,-0.32398126 62.524009,-0.16199063 62.138734,0 61.718434,0 h -0.512241 z m 0.901894,1.4666719 0.634828,0.63482816 -0.634828,0.6348281 -0.634828,-0.6348281 z m -3.900912,0 0.634828,0.63482816 -0.634828,0.6348281 -0.634828,-0.6348281 z m -3.003394,-1.4666719 h 0.744281 q 0.512241,0 0.941297,-0.0919406 0.429057,-0.0919406 0.836222,-0.25393121 0.411544,-0.1619907 0.858113,-0.3808969 0.450947,-0.2232844 1.006969,-0.4772157 -0.310847,-0.1138312 -0.643585,-0.245175 -0.332737,-0.1357218 -0.634828,-0.2539312 -0.297713,-0.1182094 -0.520997,-0.1926375 -0.223284,-0.078806 -0.315225,-0.078806 -0.267066,0 -0.472837,0.1576125 -0.201394,0.1532344 -0.372141,0.3721407 l -0.118209,0.1488562 -0.669854,-0.3283594 0.06567,-0.105075 q 0.288957,-0.4684593 0.669853,-0.7486594 0.385275,-0.2845781 0.901894,-0.2845781 0.214528,0 0.516619,0.1094531 0.306469,0.1094532 0.665475,0.2758219 0.359006,0.1619907 0.744281,0.3327375 0.385275,0.1663688 0.77055,0.2845782 0.385275,0.1138312 0.735525,0.1269656 v 0.7574156 q -0.2802,0.030647 -0.718012,0.2057719 -0.433435,0.1707469 -1.129556,0.53850938 -0.560401,0.29771251 -1.041994,0.50786251 Q 57.546078,-0.21452813 57.046972,-0.105075 56.552244,0 55.934928,0 h -0.731147 z m -0.613535,-2.92020944 0.634828,0.6348281 -0.634828,0.6348282 -0.634828,-0.6348282 z m 0.05254,4.864097 q 0.731147,0 1.129556,-0.24079691 0.402788,-0.23641875 0.5604,-0.62607189 0.161991,-0.385275 0.161991,-0.82746563 0,-0.52099687 -0.1401,-1.02885937 -0.1401,-0.5078625 -0.262687,-0.8318438 l 0.748659,-0.3020906 q 0.205772,0.5647781 0.310847,1.0989094 0.109453,0.5297531 0.109453,1.01134687 0,0.73990313 -0.275822,1.31343752 -0.271444,0.57353441 -0.849356,0.89751561 -0.577913,0.3239813 -1.492941,0.3239813 -0.945675,0 -1.514831,-0.3458719 -0.564778,-0.3458719 -0.818709,-0.92378439 -0.249554,-0.57353438 -0.249554,-1.26090002 0,-0.46408129 0.09632,-0.95005319 0.09632,-0.49035 0.262688,-0.9544312 l 0.696122,0.2802 q -0.126966,0.4027875 -0.214529,0.8274656 -0.08756,0.42467816 -0.08756,0.82308754 0,0.47283751 0.166369,0.86249064 0.170747,0.38965313 0.569156,0.62169376 0.398409,0.23204066 1.094531,0.23204066 z m -4.693351,-7.175747 h 0.739903 v 4.1854875 q 0,0.6173157 0.227663,0.8318438 0.227662,0.21452814 0.687366,0.21452814 h 0.109453 V 0 H 51.604364 Q 50.768142,0 50.356598,-0.44219063 49.949432,-0.88875939 49.949432,-1.8475688 Z m -4.557628,2.4736406 0.345872,-0.6479625 q 1.571747,0.7661719 2.342297,1.3703532 0.77055,0.5998031 0.77055,1.225875 0,0.77492814 -0.481594,1.16895939 -0.477216,0.39403126 -1.282791,0.39403126 -0.30209,0 -0.643584,-0.04815938 Q 46.10106,-0.1401 45.794592,-0.21015 q -0.306469,-0.0744281 -0.516619,-0.14447813 -0.380897,0.1401 -0.893138,0.24955313 Q 43.872595,0 43.395379,0 h -0.433434 v -0.79681876 h 0.376518 q 0.288957,0 0.507863,-0.0131344 0.223284,-0.0131344 0.485972,-0.0437812 Q 44.030207,-1.0989094 43.894485,-1.3878656 43.763142,-1.6812 43.763142,-1.9920469 q 0,-0.455325 0.214528,-0.7836844 0.214528,-0.3283594 0.569156,-0.5034844 0.354628,-0.1795031 0.774928,-0.1795031 0.188259,0 0.376519,0.048159 -0.148856,-0.07005 -0.306469,-0.1444782 z m 0.792441,2.71881571 q 0.192637,0.0218906 0.4203,0.0437812 0.227662,0.0175125 0.402787,0.0175125 0.529753,0 0.805575,-0.19701563 0.2802,-0.20139373 0.2802,-0.62169373 0,-0.2145282 -0.245175,-0.4640813 -0.245175,-0.2539312 -0.656719,-0.5209969 -0.407165,-0.2714437 -0.901893,-0.5341312 0.240797,0.1926375 0.385275,0.4640812 0.148856,0.2714438 0.148856,0.5735344 0,0.4115438 -0.166369,0.7048782 -0.16199,0.2889562 -0.472837,0.53413121 z M 44.516179,-2.0008032 q 0,0.2583094 0.214528,0.5166188 0.218906,0.2539313 0.63045,0.4115438 0.788063,-0.3196032 0.788063,-0.9194063 0,-0.3808969 -0.232041,-0.5779125 -0.227662,-0.2013938 -0.551644,-0.2013938 -0.376518,0 -0.612937,0.21015 -0.236419,0.21015 -0.236419,0.5604 z m -2.136525,-4.027875 v 6.02430007 H 41.639751 V -6.0286782 Z m -3.489365,2.8282688 q 0.682987,0 1.151447,0.6129375 0.468459,0.6085594 0.485972,1.79065314 h 0.529753 V 0 H 40.457658 Q 40.361339,0.50348438 40.072383,0.97194377 39.787804,1.4447813 39.223026,1.8037875 38.658248,2.1671719 37.725708,2.346675 L 37.467398,1.6505532 Q 39.450689,1.2696563 39.765914,0 H 39.07417 q -1.659309,0 -1.659309,-1.3440844 0,-0.4290563 0.170746,-0.8581125 0.175126,-0.4290563 0.503485,-0.7136344 0.332737,-0.2845781 0.801197,-0.2845781 z m 0.1401,2.40359064 h 0.774928 q -0.05254,-0.84497814 -0.2802,-1.23025314 -0.223284,-0.385275 -0.647963,-0.385275 -0.2802,0 -0.44219,0.1795031 -0.157613,0.1795031 -0.223285,0.4246781 -0.06129,0.2407969 -0.06129,0.4378126 0,0.3064687 0.205772,0.44219058 0.21015,0.13134376 0.674231,0.13134376 z m -5.415742,-4.76340004 0.634829,0.6348281 -0.634829,0.6348281 -0.634828,-0.6348281 z m -2.727572,4.76340004 h 0.744282 q 0.51224,0 0.941297,-0.0919406 0.429056,-0.0919406 0.836222,-0.25393121 0.411543,-0.1619907 0.858112,-0.3808969 0.450947,-0.2232844 1.006969,-0.4772157 -0.310847,-0.1138312 -0.643585,-0.245175 -0.332737,-0.1357218 -0.634828,-0.2539312 -0.297712,-0.1182094 -0.520997,-0.1926375 -0.223284,-0.078806 -0.315225,-0.078806 -0.267065,0 -0.472837,0.1576125 -0.201394,0.1532344 -0.372141,0.3721407 l -0.118209,0.1488562 -0.669853,-0.3283594 0.06567,-0.105075 q 0.288956,-0.4684593 0.669853,-0.7486594 0.385275,-0.2845781 0.901894,-0.2845781 0.214528,0 0.516618,0.1094531 0.306469,0.1094532 0.665475,0.2758219 0.359007,0.1619907 0.744282,0.3327375 0.385275,0.1663688 0.77055,0.2845782 0.385275,0.1138312 0.735525,0.1269656 v 0.7574156 q -0.2802,0.030647 -0.718013,0.2057719 -0.433434,0.1707469 -1.129556,0.53850938 -0.5604,0.29771251 -1.041994,0.50786251 Q 33.229372,-0.21452813 32.730266,-0.105075 32.235538,0 31.618222,0 h -0.731147 z m -7.910675,0 h 1.247766 q 0.437813,0 0.591047,-0.25393124 0.157612,-0.2539313 0.157612,-0.6435844 0,-0.2845781 -0.05254,-0.6085594 -0.05254,-0.3239812 -0.113831,-0.6523406 l 0.761793,-0.1926375 q 0.07443,0.35025 0.11821,0.6873656 0.04378,0.3371156 0.04378,0.6435844 0,0.525375 -0.144478,0.93691876 -0.144478,0.41154376 -0.472838,0.64796251 Q 24.784566,0 24.232922,0 H 22.9764 Z m 1.878216,1.49294065 0.612938,0.60855941 -0.612938,0.6173156 -0.608559,-0.6173156 z m -1.453537,0 0.612937,0.60855941 -0.612937,0.6173156 -0.60856,-0.6173156 z M 23.033316,0 q -0.30209,0 -0.507862,-0.07880625 -0.201394,-0.08318438 -0.315225,-0.175125 -0.06567,0.57353438 -0.319603,1.10766564 -0.249553,0.53850941 -0.753038,0.93691881 -0.503484,0.3984093 -1.33095,0.5604 L 19.548329,1.6593094 q 1.068262,-0.2320406 1.506075,-0.81433126 0.437812,-0.57791251 0.437812,-1.37035315 0,-0.37214063 -0.08318,-0.77930629 -0.07881,-0.4115437 -0.223284,-0.8362219 l 0.726768,-0.245175 0.236419,0.9150282 q 0.09632,0.3677625 0.306469,0.52099686 0.21015,0.15323438 0.529753,0.15323438 h 0.166369 V 0 Z m -5.512061,-3.2004094 q 0.682987,0 1.151447,0.6129375 0.468459,0.6085594 0.485972,1.79065314 h 0.529753 V 0 H 19.088624 Q 18.992305,0.50348438 18.703349,0.97194377 18.418771,1.4447813 17.853992,1.8037875 17.289214,2.1671719 16.356674,2.346675 L 16.098364,1.6505532 Q 18.081655,1.2696563 18.39688,0 h -0.691744 q -1.659309,0 -1.659309,-1.3440844 0,-0.4290563 0.170747,-0.8581125 0.175125,-0.4290563 0.503484,-0.7136344 0.332738,-0.2845781 0.801197,-0.2845781 z m 0.1401,2.40359064 h 0.774928 q -0.05254,-0.84497814 -0.2802,-1.23025314 -0.223284,-0.385275 -0.647962,-0.385275 -0.2802,0 -0.442191,0.1795031 -0.157613,0.1795031 -0.223284,0.4246781 -0.06129,0.2407969 -0.06129,0.4378126 0,0.3064687 0.205772,0.44219058 0.21015,0.13134376 0.674231,0.13134376 z M 11.059143,0 v -0.79681876 h 0.906272 v -0.0788063 q 0,-0.46845939 0.08318,-0.95005319 0.08756,-0.4859718 0.271444,-0.8931375 0.183881,-0.4115437 0.481594,-0.6610969 0.302091,-0.2495531 0.731147,-0.2495531 0.556022,0 0.871247,0.3896531 0.315225,0.3896532 0.315225,1.0157251 0,0.4071656 -0.161991,0.8011969 -0.161991,0.3940312 -0.442191,0.71801246 -0.2802,0.32398126 -0.639206,0.51661876 -0.359006,0.19263751 -0.753037,0.19263751 0.08756,0.3677625 0.345872,0.74865938 0.258309,0.38089689 0.643584,0.63044999 0,-2.18030626 1.843191,-2.18030626 h 0.144478 V 0 H 15.546721 Q 14.960053,0 14.66234,0.31960313 14.369006,0.63920626 14.369006,1.401 q 0,0.096319 0.0044,0.2013938 0.0044,0.1094531 0.01313,0.2145281 L 13.843631,2.346675 Q 13.099349,1.9701563 12.635268,1.3528406 12.171187,0.73990314 12.026709,0 Z m 2.464885,-2.8589157 q -0.262688,0 -0.450947,0.2626875 -0.18826,0.2626875 -0.288957,0.7136344 -0.09632,0.4465688 -0.09632,1.00259066 v 0.0875625 q 0.367762,0 0.669853,-0.19701563 0.30209,-0.19701563 0.481594,-0.52099683 0.179503,-0.3283594 0.179503,-0.7136344 0,-0.3108469 -0.1401,-0.4728375 -0.135722,-0.1619907 -0.354628,-0.1619907 z M 6.1118618,0 H 5.9192243 v -0.79681876 h 0.1707469 q 0.2933344,0 0.4947281,-0.16636876 Q 6.7860931,-1.1339344 6.9437056,-1.401 7.1013181,-1.6680657 7.2545525,-1.9657782 7.412165,-2.2678688 7.6048025,-2.5349344 7.79744,-2.802 8.0688837,-2.9683688 q 0.2758219,-0.1707469 0.6786094,-0.1707469 0.6873657,0 1.0682625,0.4203 0.3808974,0.4159219 0.5122404,1.0376157 0.08756,0.4290562 0.297713,0.6567187 0.214528,0.22766254 0.494728,0.22766254 h 0.113831 V 0 h -0.118209 q -0.2802,0 -0.547266,-0.11383125 -0.267065,-0.11820938 -0.433434,-0.37214063 -0.1838815,0.26706563 -0.4553252,0.42905625 -0.2714438,0.15761251 -0.7048782,0.15761251 -0.4378125,0 -0.8099531,-0.18825938 Q 7.79744,-0.2802 7.3990306,-0.66547501 7.1144525,-0.34587188 6.851765,-0.17074688 6.5890775,0 6.1118618,0 Z m 2.6531438,-2.3641875 q -0.2189062,0 -0.3984094,0.1488562 -0.1795031,0.1444781 -0.3239812,0.3765188 -0.1444781,0.2320406 -0.2583094,0.4815937 0.1444781,0.1488563 0.2889563,0.2670657 0.1444781,0.11820933 0.2802,0.20139371 0.35025,0.21452813 0.6129375,0.21452813 0.6479625,0 0.6479625,-0.65234064 0,-0.455325 -0.2276625,-0.7442813 Q 9.163415,-2.3641875 8.7650056,-2.3641875 Z M 2.9158305,0.66985314 3.5506587,1.3046813 2.9158305,1.9395094 2.2810024,1.3046813 Z m -3.00339378,-1.4666719 h 0.74428127 q 0.51224061,0 0.94129691,-0.0919406 Q 2.0270711,-0.98070002 2.4342368,-1.1426906 2.8457805,-1.3046813 3.2923493,-1.5235875 3.7432962,-1.7468719 4.299318,-2.0008032 3.9884712,-2.1146344 3.6557337,-2.2459782 3.3229962,-2.3817 3.0209055,-2.4999094 2.723193,-2.6181188 2.4999086,-2.6925469 q -0.2232843,-0.078806 -0.315225,-0.078806 -0.2670656,0 -0.4728375,0.1576125 Q 1.5104524,-2.4605063 1.3397055,-2.2416 l -0.1182094,0.1488562 -0.66985312,-0.3283594 0.0656719,-0.105075 q 0.28895625,-0.4684593 0.66985314,-0.7486594 0.385275,-0.2845781 0.9018938,-0.2845781 0.2145281,0 0.5166187,0.1094531 0.3064688,0.1094532 0.665475,0.2758219 0.3590063,0.1619907 0.7442813,0.3327375 0.385275,0.1663688 0.77055,0.2845782 0.385275,0.1138312 0.735525,0.1269656 v 0.7574156 q -0.2802,0.030647 -0.7180125,0.2057719 Q 4.4700649,-1.295925 3.773943,-0.92816252 3.213543,-0.63045001 2.7319493,-0.42030001 2.2547336,-0.21452813 1.7556274,-0.105075 1.2608992,0 0.64358361,0 h -0.73114689 z"
         id="path9" />
      <path
         style="font-size:7.9701px;font-family:Vazirmatn"
         d="m 61.387236,10.959 q -0.268524,0 -0.451432,-0.07005 -0.179016,-0.07394 -0.280199,-0.155666 -0.05837,0.509806 -0.28409,0.984587 -0.221824,0.478673 -0.669364,0.832814 -0.44754,0.35414 -1.183062,0.498131 l -0.229607,-0.614881 q 0.949563,-0.206257 1.338728,-0.723847 0.389165,-0.513698 0.389165,-1.218086 0,-0.330791 -0.07394,-0.6927142 -0.07005,-0.3658151 -0.198474,-0.7433052 l 0.646014,-0.2179324 0.210149,0.8133549 q 0.08562,0.3268986 0.272416,0.4631069 0.186799,0.136207 0.470889,0.136207 H 61.49231 V 10.959 Z M 57.114203,6.748234 57.659034,7.2891733 57.114203,7.837896 56.573263,7.2891733 Z m -1.292028,0 0.544831,0.5409393 -0.544831,0.5487227 -0.54094,-0.5487227 z m -0.420298,3.502485 h 0.544831 q 0.494239,0 0.704388,-0.221824 0.214041,-0.2218239 0.214041,-0.6810386 0,-0.1867992 -0.01167,-0.3541402 -0.0078,-0.167341 -0.02335,-0.3346819 l 0.649906,-0.077833 0.06227,0.9106462 q 0.0467,0.7588715 0.790005,0.7588715 h 0.08172 V 10.959 h -0.08951 q -0.431973,0 -0.692714,-0.155666 -0.256849,-0.155666 -0.416406,-0.439757 -0.210149,0.307441 -0.552615,0.451432 Q 56.320306,10.959 55.946708,10.959 h -0.544831 z m -2.0042,1.198629 0.525373,0.525372 -0.525373,0.525373 -0.525373,-0.525373 z m -1.330944,0 0.525372,0.525372 -0.525372,0.525373 -0.525373,-0.525373 z m 0.665472,0.984587 0.525373,0.525373 -0.525373,0.525373 -0.525373,-0.525373 z m -2.669672,-2.183216 h 0.66158 q 0.455323,0 0.836705,-0.08172 Q 51.9422,10.08727 52.304123,9.9432789 52.669938,9.7992878 53.066887,9.6047053 53.467727,9.4062311 53.961966,9.1805154 53.685659,9.0793325 53.389894,8.962583 53.094128,8.8419418 52.825604,8.7368673 52.560972,8.6317927 52.362498,8.5656347 q -0.198474,-0.07005 -0.280199,-0.07005 -0.237391,0 -0.420298,0.1400994 -0.179016,0.1362077 -0.33079,0.3307903 l -0.105075,0.1323161 -0.595422,-0.2918738 0.05837,-0.0934 q 0.256849,-0.4164066 0.595423,-0.6654722 0.342465,-0.2529573 0.80168,-0.2529573 0.190691,0 0.459215,0.097291 0.272415,0.097291 0.59153,0.2451739 0.319116,0.1439911 0.661581,0.2957655 0.342465,0.1478827 0.68493,0.2529572 0.342466,0.1011829 0.653798,0.1128579 v 0.6732555 q -0.249066,0.027242 -0.638231,0.1829076 -0.385273,0.1517743 -1.004046,0.4786732 -0.498131,0.264632 -0.926213,0.451431 -0.424189,0.182908 -0.867838,0.280199 -0.439756,0.0934 -0.988479,0.0934 H 50.062533 Z M 48.630405,8.6590343 q 0,0.7316302 0.155666,1.4360187 0.155666,0.700497 0.455323,1.27257 0.303549,0.572073 0.747197,0.910646 L 49.840708,12.75305 Q 49.408735,12.519551 49.058487,12.103145 48.708238,11.686738 48.455281,11.138016 48.206215,10.593185 48.070007,9.9588455 47.9338,9.3245065 47.9338,8.6590343 q 0,-0.6654722 0.136207,-1.2998112 0.136208,-0.6343391 0.385274,-1.1791701 0.252957,-0.5487227 0.603206,-0.9651293 0.350248,-0.4164066 0.782221,-0.6499056 l 0.147883,0.4747813 Q 49.544943,5.378373 49.241394,5.9504456 48.941737,6.5225182 48.786071,7.2269069 48.630405,7.927404 48.630405,8.6590343 Z m -0.292404,0 q 0,-0.7316303 -0.155666,-1.4321274 Q 48.030561,6.5225182 47.727012,5.9504456 47.423464,5.378373 46.979815,5.0397994 l 0.147883,-0.4747813 q 0.431973,0.233499 0.782222,0.6499056 0.350248,0.4164066 0.599314,0.9651293 0.252957,0.544831 0.389165,1.1791701 0.136208,0.634339 0.136208,1.2998112 0,0.6654722 -0.136208,1.2998112 -0.136208,0.6343395 -0.389165,1.1791705 -0.249066,0.548722 -0.599314,0.965129 -0.350249,0.416406 -0.782222,0.649905 l -0.147883,-0.474781 q 0.443649,-0.338573 0.747197,-0.910646 0.303549,-0.572073 0.455323,-1.27257 0.155666,-0.7043885 0.155666,-1.4360187 z m -4.965744,-0.8600548 0.30744,-0.5759642 q 1.397103,0.6810388 2.082033,1.2180866 0.684931,0.5331561 0.684931,1.0896621 0,0.688822 -0.428082,1.039071 -0.42419,0.350248 -1.140253,0.350248 -0.268524,0 -0.572073,-0.04281 -0.303549,-0.04281 -0.575964,-0.105075 -0.272416,-0.06616 -0.459215,-0.128424 -0.338573,0.124533 -0.793897,0.221824 -0.455323,0.0934 -0.879513,0.0934 h -0.385273 v -0.708281 h 0.334682 q 0.256849,0 0.451431,-0.01168 0.198475,-0.01168 0.431974,-0.03892 -0.268524,-0.2179326 -0.389165,-0.4747815 -0.11675,-0.2607406 -0.11675,-0.5370478 0,-0.4047316 0.190691,-0.6966054 0.190691,-0.2918738 0.505914,-0.4475398 0.315224,-0.1595576 0.688823,-0.1595576 0.167341,0 0.334682,0.042808 -0.132317,-0.062266 -0.272416,-0.1284245 z m 0.704389,2.4167145 q 0.171232,0.01946 0.373598,0.03892 0.202366,0.01557 0.358032,0.01557 0.47089,0 0.716064,-0.175125 0.249065,-0.1790157 0.249065,-0.5526141 0,-0.1906909 -0.217932,-0.4125149 -0.217933,-0.2257158 -0.583748,-0.4631064 -0.361923,-0.2412823 -0.80168,-0.4747814 0.214041,0.1712326 0.342466,0.412515 0.132316,0.2412823 0.132316,0.5098062 0,0.3658151 -0.147883,0.6265557 -0.143991,0.2568489 -0.420298,0.4747809 z M 42.593927,9.1805154 q 0,0.2296074 0.190691,0.4592148 0.194582,0.2257157 0.560397,0.3658148 0.700498,-0.2840902 0.700498,-0.8172463 0,-0.3385736 -0.206258,-0.5136978 -0.202366,-0.1790159 -0.490348,-0.1790159 -0.334682,0 -0.544831,0.1867992 -0.210149,0.1867992 -0.210149,0.4981312 z m -2.914846,0.3619235 q 0,-0.1011829 -0.0467,-0.2607406 -0.04281,-0.1634493 -0.105075,-0.3035487 l -0.688822,-1.5605518 0.607097,-0.2840905 0.883405,2.0781413 q 0.179016,0.4202983 0.311332,0.646014 0.136208,0.2257154 0.264632,0.3113324 0.132316,0.08172 0.299657,0.08172 h 0.16345 V 10.959 h -0.16345 q -0.30744,0 -0.502022,-0.07394 -0.190691,-0.07394 -0.330791,-0.221824 -0.140099,-0.147883 -0.28409,-0.373598 -0.272416,0.342465 -0.696606,0.505914 -0.420298,0.159558 -1.050745,0.159558 -0.272416,0 -0.490348,-0.02335 -0.217933,-0.02724 -0.412515,-0.07394 v -0.704389 q 0.44754,0.105075 0.844488,0.105075 1.397102,0 1.397102,-0.7160641 z M 36.41128,10.959 q -0.268524,0 -0.451432,-0.07005 -0.179016,-0.07394 -0.280199,-0.155666 -0.05837,0.509806 -0.28409,0.984587 -0.221824,0.478673 -0.669364,0.832814 -0.44754,0.35414 -1.183062,0.498131 l -0.229607,-0.614881 q 0.949563,-0.206257 1.338728,-0.723847 0.389165,-0.513698 0.389165,-1.218086 0,-0.330791 -0.07394,-0.6927142 -0.07005,-0.3658151 -0.198474,-0.7433052 l 0.646014,-0.2179324 0.210149,0.8133549 q 0.08562,0.3268986 0.272416,0.4631069 0.186799,0.136207 0.470889,0.136207 h 0.147883 V 10.959 Z M 32.138246,6.748234 32.683077,7.2891733 32.138246,7.837896 31.597306,7.2891733 Z m -1.292028,0 0.544831,0.5409393 -0.544831,0.5487227 -0.540939,-0.5487227 z m -0.420298,3.502485 h 0.544831 q 0.494239,0 0.704388,-0.221824 0.214041,-0.2218239 0.214041,-0.6810386 0,-0.1867992 -0.01168,-0.3541402 -0.0078,-0.167341 -0.02335,-0.3346819 l 0.649906,-0.077833 0.06227,0.9106462 q 0.0467,0.7588715 0.790005,0.7588715 h 0.08172 V 10.959 h -0.08951 q -0.431973,0 -0.692714,-0.155666 -0.256849,-0.155666 -0.416406,-0.439757 -0.210149,0.307441 -0.552615,0.451432 Q 31.344349,10.959 30.970751,10.959 H 30.42592 Z M 28.448961,10.959 q -0.373598,0 -0.603205,-0.155666 -0.229608,-0.155666 -0.373599,-0.439757 -0.217932,0.315224 -0.486456,0.455323 -0.264632,0.1401 -0.575964,0.1401 -0.44754,0 -0.692714,-0.151775 -0.241283,-0.155666 -0.385274,-0.443648 -0.182907,0.287982 -0.466998,0.443648 Q 24.580661,10.959 24.055288,10.959 h -0.358032 v -0.708281 h 0.365815 q 0.498132,0 0.727739,-0.182907 0.229607,-0.1867995 0.229607,-0.6771475 0,-0.1011829 -0.01167,-0.2373906 -0.0078,-0.1400994 -0.02724,-0.3891651 l 0.649905,-0.081725 0.06227,0.8133549 q 0.02335,0.3268986 0.198474,0.5409389 0.179016,0.214041 0.525373,0.214041 0.412515,0 0.560398,-0.221824 0.147882,-0.2218239 0.147882,-0.6382305 0,-0.1011829 -0.01168,-0.2412823 -0.0078,-0.1400994 -0.02724,-0.3852734 l 0.649905,-0.081725 0.06227,0.8133549 q 0.01946,0.3152237 0.167341,0.5370479 0.147882,0.217932 0.478673,0.217932 0.575964,0 0.575964,-0.8600545 0,-0.1400994 -0.01168,-0.2918737 -0.0078,-0.1517744 -0.02724,-0.40084 l 0.649906,-0.077833 0.06227,0.8756213 q 0.0467,0.7549799 0.770547,0.7549799 h 0.11675 V 10.959 H 30.47262 q -0.408624,0 -0.681039,-0.147883 -0.272416,-0.151774 -0.373599,-0.451432 -0.163449,0.287983 -0.37749,0.443649 Q 28.830343,10.959 28.448961,10.959 Z M 20.556694,6.2462111 V 5.8181295 l 2.957655,-1.1986283 v 0.4280815 z m 0.537048,0.9378877 q 0.338574,0.2373907 0.704389,0.5020229 0.365815,0.2607406 0.681039,0.5603976 0.319115,0.2957655 0.513698,0.634339 0.198474,0.334682 0.198474,0.7160637 -0.0039,0.723847 -0.502023,1.042962 -0.49424,0.319116 -1.58001,0.319116 h -0.949563 v -0.708281 h 0.945671 q 0.75498,0 1.081879,-0.132316 0.326899,-0.1362076 0.326899,-0.5370476 0,-0.2568489 -0.182908,-0.5020229 Q 22.152271,8.8341585 21.864289,8.5967679 21.580198,8.3554855 21.2533,8.1258782 20.926401,7.8923792 20.638419,7.6666634 20.513886,7.5654805 20.447728,7.4292728 20.38157,7.293065 20.38157,7.1568572 q 0,-0.1595576 0.08562,-0.299657 0.08951,-0.1439911 0.276308,-0.2179325 L 23.54159,5.5029058 v 0.6888221 z"
         id="path10" />
    </g>
    <path
       id="path5"
       d="M 179.67145,-45.75336 H 76.24695 c -2.75118,0 -4.98139,-2.23021 -4.98139,-4.98138 v -24.05333 c 0,-2.75118 2.23021,-4.98138 4.98139,-4.98138 h 103.4245 c 2.75117,0 4.98138,2.2302 4.98138,4.98138 v 24.05333 c 0,2.75117 -2.23021,4.98138 -4.98138,4.98138 z"
       style="fill:#f5ebff;fill-opacity:1;fill-rule:nonzero;stroke:#663399;stroke-width:0.3985;stroke-linecap:butt;stroke-linejoin:miter;stroke-miterlimit:10;stroke-dasharray:none;stroke-opacity:1"
       transform="matrix(1.3333333,0,0,-1.3333333,266.392,42.864)" />
    <g
       id="text5"
       transform="matrix(1.3333333,0,0,1.3333333,386.31067,121.86267)"
       aria-label="یﺎﻫ ﺖﯿﺼﺨﺷﻞﻘﺘﺴﻣ،ناﺮﮑﻔﻨﺷور)(ﺎﻫ ﮏﯿﻣدﺎﮐآ">
      <path
         style="font-size:8.9664px;font-family:Vazirmatn"
         d="m 72.501536,2.2109532 q -0.945675,0 -1.514831,-0.3458719 -0.564778,-0.3458719 -0.818709,-0.92378441 -0.249553,-0.57353438 -0.249553,-1.26090002 0,-0.46408126 0.09632,-0.95005317 0.09632,-0.49035 0.262688,-0.9544312 l 0.696122,0.2802 q -0.126966,0.4027875 -0.214528,0.8274656 -0.08756,0.42467814 -0.08756,0.82308752 0,0.47283751 0.166369,0.86249064 0.170747,0.38965313 0.569156,0.62169374 0.39841,0.2320406 1.094531,0.2320406 0.621694,0 1.112044,-0.1576125 0.49035,-0.1532343 0.774928,-0.40278746 0.284578,-0.245175 0.284578,-0.52099688 0,-0.14010001 -0.08318,-0.26268751 -0.08318,-0.1225875 -0.302091,-0.1225875 h -0.709256 q -0.647962,0 -0.91065,-0.31084688 -0.258309,-0.31522501 -0.258309,-0.87124687 0,-0.5779125 0.236419,-1.0595063 0.236418,-0.4859719 0.674231,-0.7749281 0.437812,-0.2889563 1.037615,-0.2889563 0.227663,0 0.477216,0.061294 0.253931,0.061294 0.507863,0.2320406 l -0.249554,0.665475 q -0.345871,-0.175125 -0.735525,-0.175125 -0.556021,0 -0.871246,0.3896531 -0.310847,0.3896532 -0.310847,0.9500532 0,0.2057719 0.08318,0.30209061 0.08318,0.0919406 0.337116,0.0919406 h 0.735525 q 0.604181,0 0.823087,0.32835938 0.223285,0.32398125 0.223285,0.82746564 0,0.48597188 -0.332738,0.91502814 -0.332737,0.4334344 -0.976322,0.7005 -0.639206,0.2714438 -1.567369,0.2714438 z M 67.808197,-6.0286782 H 68.5481 v 4.1854875 q 0,0.6173157 0.227663,0.8318438 0.227662,0.21452814 0.687365,0.21452814 h 0.109453 V 0 H 69.463128 Q 68.626906,0 68.215363,-0.44219063 67.808197,-0.88875939 67.808197,-1.8475688 Z m -4.557636,2.4736406 0.345872,-0.6479625 q 1.571747,0.7661719 2.342297,1.3703532 0.77055,0.5998031 0.77055,1.225875 0,0.77492814 -0.481594,1.16895939 -0.477216,0.39403126 -1.282791,0.39403126 -0.30209,0 -0.643584,-0.04815938 Q 63.959817,-0.1401 63.653349,-0.21015 63.34688,-0.28457813 63.13673,-0.35462813 62.755833,-0.21452813 62.243592,-0.105075 61.731352,0 61.254136,0 h -0.433434 v -0.79681876 h 0.376518 q 0.288957,0 0.507863,-0.0131344 0.223284,-0.0131344 0.485972,-0.0437812 Q 61.888964,-1.0989094 61.753242,-1.3878656 61.621899,-1.6812 61.621899,-1.9920469 q 0,-0.455325 0.214528,-0.7836844 0.214528,-0.3283594 0.569156,-0.5034844 0.354628,-0.1795031 0.774928,-0.1795031 0.188259,0 0.376519,0.048159 -0.148856,-0.07005 -0.306469,-0.1444782 z m 0.792441,2.71881571 q 0.192637,0.0218906 0.4203,0.0437812 0.227662,0.0175125 0.402787,0.0175125 0.529753,0 0.805575,-0.19701563 0.2802,-0.20139373 0.2802,-0.62169373 0,-0.2145282 -0.245175,-0.4640813 -0.245175,-0.2539312 -0.656719,-0.5209969 -0.407165,-0.2714437 -0.901893,-0.5341312 0.240797,0.1926375 0.385275,0.4640812 0.148856,0.2714438 0.148856,0.5735344 0,0.4115438 -0.166369,0.7048782 -0.16199,0.2889562 -0.472837,0.53413121 z M 62.374936,-2.0008032 q 0,0.2583094 0.214528,0.5166188 0.218906,0.2539313 0.63045,0.4115438 0.788063,-0.3196032 0.788063,-0.9194063 0,-0.3808969 -0.232041,-0.5779125 -0.227662,-0.2013938 -0.551644,-0.2013938 -0.376518,0 -0.612937,0.21015 -0.236419,0.21015 -0.236419,0.5604 z m -9.898345,-2.2941375 0.612937,0.6085594 -0.612937,0.6173156 -0.60856,-0.6173156 z m -1.453538,0 0.612938,0.6085594 -0.612938,0.6173156 -0.608559,-0.6173156 z m 3.375534,1.7074688 0.731147,-0.087562 0.07443,1.0244812 q 0.02627,0.4159219 0.236419,0.6348282 0.214528,0.21890624 0.639207,0.21890624 h 0.105075 V 0 h -0.105075 q -0.494729,0 -0.814332,-0.18388125 -0.315225,-0.18825938 -0.520997,-0.59980314 -0.363384,0.42030001 -0.93254,0.60418126 Q 53.247141,0 52.240172,0 h -0.731147 q -1.650553,0 -2.482397,-0.44656876 -0.827466,-0.44656875 -0.827466,-1.54547814 0,-0.3020906 0.06567,-0.5910469 0.07005,-0.2889562 0.179503,-0.5560219 l 0.67861,0.2539313 q -0.07005,0.1926375 -0.11821,0.4115437 -0.04378,0.2189063 -0.04378,0.4159219 0.0044,0.5122406 0.288956,0.7880625 0.284579,0.27144378 0.849357,0.37214066 0.564778,0.10069688 1.409756,0.10069688 h 0.731147 q 1.046372,0 1.619906,-0.21890624 0.577913,-0.2189063 0.577913,-0.7968188 0,-0.1795031 -0.01313,-0.385275 -0.0088,-0.2057719 -0.02627,-0.3896531 z m -9.982123,1.79065314 h 0.661097 q 0.556022,0 0.792441,-0.24955314 0.240797,-0.2495531 0.240797,-0.7661719 0,-0.21015 -0.01313,-0.3984094 -0.0088,-0.1882593 -0.02627,-0.3765187 l 0.731146,-0.087562 0.07005,1.0244812 q 0.05254,0.85373444 0.88876,0.85373444 h 0.09194 V 0 H 47.752596 Q 47.266624,0 46.973289,-0.175125 46.684333,-0.35025001 46.50483,-0.66985314 46.268411,-0.32398126 45.883136,-0.16199063 45.497861,0 45.077561,0 h -0.661097 z m 1.580503,1.49294065 0.612938,0.60855941 -0.612938,0.6173156 -0.608559,-0.6173156 z m -1.453537,0 L 45.156367,1.3046813 44.54343,1.9219969 43.934871,1.3046813 Z M 40.642522,0 H 40.410481 Q 39.482319,0 38.996347,-0.175125 38.510375,-0.35025001 38.308981,-0.66547501 38.05505,-0.31960313 37.735447,-0.1576125 37.420222,0 36.894847,0 h -0.179503 l 0.0044,-0.79681876 h 0.175125 q 0.612937,0 0.823087,-0.25830934 0.214528,-0.2626875 0.214528,-0.7574157 0,-0.21015 -0.01751,-0.3896531 -0.01313,-0.1795031 -0.02189,-0.385275 l 0.731147,-0.087562 0.06567,1.0244812 q 0.02189,0.2933344 0.122587,0.5078626 0.100697,0.21014996 0.310847,0.21014996 0.783685,-1.33095006 1.532344,-1.96140006 0.753038,-0.6348281 1.506075,-0.6348281 0.499106,0 0.884381,0.2189062 0.389654,0.2145282 0.60856,0.5866688 0.218906,0.3721406 0.218906,0.8406 -0.0044,0.5647782 -0.337116,1.00259066 0.126966,0.0306469 0.32836,0.0569156 0.205772,0.0262688 0.604181,0.0262688 h 0.131344 V 0 H 44.473381 Q 43.917359,0 43.553975,-0.11383125 43.194969,-0.2276625 42.949794,-0.42905626 42.590787,-0.2276625 42.004119,-0.11383125 41.41745,0 40.642522,0 Z m 1.554234,-2.73195 q -1.055128,0 -2.281003,1.93513124 h 0.709256 q 1.247766,0 1.860703,-0.24955314 0.612938,-0.2495531 0.612938,-0.7924406 0,-0.385275 -0.249553,-0.6392063 Q 42.603922,-2.73195 42.196756,-2.73195 Z m -8.865703,-2.8282688 0.634828,0.6348281 -0.634828,0.6348281 -0.634828,-0.6348281 z m 2.981503,3.1303594 v 0.7574156 q -0.188259,0.017512 -0.44219,0.096319 -0.253931,0.074428 -0.53851,0.21015 0.0088,0.3633844 0.35025,0.46845936 0.341494,0.10069688 0.967566,0.10069688 h 0.240797 V 0 H 36.63216 Q 35.739022,0 35.292453,-0.23641875 34.850263,-0.47283751 34.7627,-1.085775 33.895831,-0.61293751 33.0815,-0.30646876 32.271547,0 31.334628,0 h -0.731147 v -0.79681876 h 0.744282 q 0.51224,0 0.941297,-0.0919406 0.429056,-0.0919406 0.836221,-0.25393121 0.411544,-0.1619907 0.858113,-0.3808969 0.450947,-0.2232844 1.006969,-0.4772157 -0.310847,-0.1138312 -0.643585,-0.245175 -0.332737,-0.1357218 -0.634828,-0.2539312 -0.297712,-0.1182094 -0.520997,-0.1926375 -0.223284,-0.078806 -0.315225,-0.078806 -0.267065,0 -0.472837,0.1576125 -0.201394,0.1532344 -0.372141,0.3721407 l -0.118209,0.1488562 -0.669853,-0.3283594 0.06567,-0.105075 q 0.288957,-0.4684593 0.669854,-0.7486594 0.385275,-0.2845781 0.901893,-0.2845781 0.214529,0 0.516619,0.1094531 0.306469,0.1094532 0.665475,0.2758219 0.359006,0.1619907 0.744281,0.3327375 0.385275,0.1663688 0.77055,0.2845782 0.385275,0.1138312 0.735525,0.1269656 z m -8.791276,-3.3273751 0.591047,0.5910469 -0.591047,0.5910469 -0.591047,-0.5910469 z m 0.74866,1.1076657 0.591047,0.5910469 -0.591047,0.5910468 -0.591047,-0.5910468 z m -1.497319,0 0.591047,0.5910469 -0.591047,0.5910468 -0.591047,-0.5910468 z M 26.584362,0 q -0.503485,0 -0.779307,-0.17074688 -0.271443,-0.175125 -0.433434,-0.49910626 -0.205772,0.32398126 -0.525375,0.49910626 Q 24.526643,0 23.935596,0 h -0.402788 v -0.79681876 h 0.411544 q 0.5604,0 0.81871,-0.20577184 0.258309,-0.21015 0.258309,-0.7617938 0,-0.1138313 -0.01313,-0.2670656 -0.0088,-0.1576125 -0.03065,-0.4378125 l 0.731147,-0.091941 0.07005,0.9150282 q 0.02627,0.3677625 0.223284,0.6085594 0.201394,0.24079684 0.591047,0.24079684 0.464081,0 0.63045,-0.24955314 0.166369,-0.2495531 0.166369,-0.7180125 0,-0.1138313 -0.01313,-0.2714438 -0.0088,-0.1576125 -0.03065,-0.4334343 l 0.731147,-0.091941 0.07005,0.9150282 q 0.02189,0.3546281 0.18826,0.6041812 0.166368,0.24517504 0.538509,0.24517504 0.363384,0 0.499106,-0.27144374 0.135722,-0.2714438 0.135722,-0.6348282 0,-0.3283593 -0.06567,-0.6610968 -0.06129,-0.3327375 -0.109453,-0.5385094 l 0.748659,-0.2013938 q 0.07881,0.2933344 0.126966,0.6260719 0.04816,0.3283594 0.04816,0.6567188 0,0.4728375 -0.131343,0.88875936 -0.131344,0.41592188 -0.433435,0.67423126 Q 29.395118,-0.00437813 28.878499,0 28.458199,0 28.19989,-0.175125 27.94158,-0.35025001 27.77959,-0.66985314 27.534415,-0.31522501 27.232324,-0.1576125 26.934612,0 26.584362,0 Z m -3.822909,2.17155 q -0.814331,0 -1.326572,-0.2933343 Q 20.92264,1.5892594 20.681843,1.0682625 20.441047,0.54726563 20.441047,-0.1401 q 0,-0.46408126 0.09632,-0.9500531 0.09632,-0.4903501 0.262688,-0.9544313 l 0.696122,0.2802 q -0.126966,0.4027875 -0.214528,0.82746563 -0.08756,0.42467814 -0.08756,0.82308752 0,0.70925626 0.359006,1.10328752 0.363385,0.39403123 1.208363,0.39403123 0.783684,0 1.177716,-0.42905623 0.398409,-0.42905626 0.398409,-1.38348753 V -6.0286782 h 0.739903 v 4.238025 q 0,0.4903501 0.179503,0.7442813 0.183881,0.24955314 0.713635,0.24955314 h 0.131343 V 0 h -0.122587 q -0.385275,0 -0.551644,-0.07442813 -0.166369,-0.07880625 -0.354628,-0.25830938 0,1.25214378 -0.591047,1.87821571 Q 23.891009,2.17155 22.761453,2.17155 Z m -4.141706,-7.7142563 0.612937,0.6085593 -0.612937,0.6173157 -0.60856,-0.6173157 z m -1.453538,0 0.612938,0.6085593 -0.612938,0.6173157 -0.608559,-0.6173157 z m 2.294138,3.4806094 q 0,0.3458719 -0.153235,0.6435844 -0.153234,0.2933344 -0.4203,0.60418124 0.249553,0.0131344 0.442191,0.0175125 0.192637,0 0.341494,0 h 0.424678 V 0 h -0.411544 q -0.166369,0 -0.459703,-0.02626875 -0.288956,-0.03064688 -0.639206,-0.10069688 -0.345872,-0.07005 -0.682988,-0.18825938 -0.337116,0.12258751 -0.691744,0.19263751 -0.354628,0.06567187 -0.656718,0.09631875 Q 16.251181,0 16.071678,0 H 15.45874 v -0.79681876 h 0.612938 q 0.183881,0 0.380897,0 0.201393,-0.004378 0.485972,-0.0218906 -0.262688,-0.30646871 -0.411544,-0.60855941 -0.148856,-0.3020906 -0.148856,-0.6435844 0,-0.2714437 0.126965,-0.5472656 0.126966,-0.2758219 0.341494,-0.5122406 0.214528,-0.2364188 0.49035,-0.3765188 0.275822,-0.1444781 0.569156,-0.1444781 0.306469,0 0.586669,0.1444781 0.2802,0.1401 0.494728,0.3765188 0.218906,0.2320406 0.345872,0.5122406 0.126966,0.2802 0.126966,0.5560219 z m -1.554235,-0.8143313 q -0.166369,0 -0.35025,0.1269657 -0.179503,0.1225875 -0.306469,0.3108468 -0.122587,0.1882594 -0.122587,0.385275 0,0.2013938 0.118209,0.4115438 0.11821,0.21015 0.297713,0.385275 0.183881,0.175125 0.37214,0.27144376 0.332738,-0.14009996 0.564779,-0.45094686 0.236418,-0.315225 0.236418,-0.6260719 0,-0.1838813 -0.131343,-0.3721406 -0.126966,-0.1882594 -0.315225,-0.315225 -0.18826,-0.1269657 -0.363385,-0.1269657 z m -3.734541,-1.8607031 0.612938,0.6085594 -0.612938,0.6173156 -0.608559,-0.6173156 z m -1.453537,0 0.612937,0.6085594 -0.612937,0.6173156 -0.608559,-0.6173156 z m -0.472838,3.94031254 h 0.612938 q 0.556022,0 0.792441,-0.24955314 0.240796,-0.2495531 0.240796,-0.7661719 0,-0.21015 -0.01313,-0.3984094 -0.0088,-0.1882593 -0.02627,-0.3765187 l 0.731147,-0.087562 0.07005,1.0244812 q 0.05254,0.85373444 0.88876,0.85373444 h 0.09194 V 0 H 15.533168 Q 15.047196,0 14.753862,-0.175125 14.464906,-0.35025001 14.285403,-0.66985314 14.048984,-0.32398126 13.663709,-0.16199063 13.278434,0 12.858134,0 H 12.245196 Z M 10.021109,0 Q 9.6008087,0 9.3424993,-0.175125 9.0841899,-0.35025001 8.9221993,-0.66985314 8.6770243,-0.31522501 8.3749336,-0.1576125 8.0772211,0 7.7269711,0 7.2234868,0 6.9476649,-0.17074688 6.6762211,-0.34587188 6.5142305,-0.66985314 6.3084586,-0.34587188 5.9888555,-0.17074688 5.6692524,0 5.0782055,0 H 4.675418 v -0.79681876 h 0.4115437 q 0.5604,0 0.8187094,-0.20577184 0.2583094,-0.21015 0.2583094,-0.7617938 0,-0.1138313 -0.013134,-0.2670656 -0.00876,-0.1576125 -0.030647,-0.4378125 l 0.7311469,-0.091941 0.07005,0.9150282 q 0.026269,0.3677625 0.2232844,0.6085594 0.2013938,0.24079684 0.5910469,0.24079684 0.4640812,0 0.63045,-0.24955314 0.1663687,-0.2495531 0.1663687,-0.7180125 0,-0.1138313 -0.013134,-0.2714438 -0.00876,-0.1576125 -0.030647,-0.4334343 l 0.7311469,-0.091941 0.07005,0.9150282 q 0.021891,0.3546281 0.1882594,0.6041812 0.1663687,0.24517504 0.5385098,0.24517504 0.647962,0 0.647962,-0.96756564 0,-0.1576125 -0.01313,-0.3283594 -0.0088,-0.1707469 -0.03065,-0.4509469 l 0.731147,-0.087563 0.07005,0.9850782 q 0.05254,0.84935624 0.866868,0.84935624 h 0.131344 V 0 H 12.297734 Q 11.838031,0 11.531562,-0.16636875 11.225093,-0.33711563 11.111262,-0.67423126 10.927381,-0.35025001 10.686584,-0.175125 10.450165,0 10.021109,0 Z M 2.9504362,0.10069688 q -0.4378125,0 -0.8099531,-0.18825938 Q 1.7727206,-0.2802 1.3743112,-0.66547501 1.089733,-0.34587188 0.82704554,-0.17074688 0.56435804,0 0.08714241,0 H -0.1054951 v -0.79681876 h 0.17074688 q 0.29333438,0 0.49472814,-0.16636876 Q 0.76137367,-1.1339344 0.91898617,-1.401 1.0765987,-1.6680657 1.2298331,-1.9657782 1.3874456,-2.2678688 1.5800831,-2.5349344 1.7727206,-2.802 2.0441643,-2.9683688 q 0.2758219,-0.1707469 0.6786094,-0.1707469 0.4859719,0 0.8449781,0.2364188 0.3633844,0.2320406 0.5604,0.6260719 0.2013938,0.3940312 0.2013938,0.8800031 0,0.71363439 -0.3633844,1.10766565 -0.3590062,0.38965313 -1.015725,0.38965313 z m -0.21015,-2.46488438 q -0.2189063,0 -0.3984094,0.1488562 -0.1795031,0.1444781 -0.3239812,0.3765188 -0.1444782,0.2320406 -0.2583094,0.4815937 0.2626875,0.2758219 0.5428875,0.45094691 0.3590062,0.23204063 0.6392063,0.23204063 0.6479625,0 0.6479625,-0.65234064 0,-0.455325 -0.2276625,-0.7442813 -0.2232844,-0.2933343 -0.6216938,-0.2933343 z"
         id="path11" />
      <path
         style="font-size:7.9701px;font-family:Vazirmatn"
         d="m 73.460362,8.8691834 q -0.272415,0.2490656 -0.431973,0.4942396 -0.155666,0.245174 -0.155666,0.5993141 0.276307,0 0.381382,0.1206409 0.108966,0.120641 0.108966,0.361924 0,0.23739 -0.120641,0.37749 -0.120641,0.136208 -0.361924,0.136208 -0.30744,0 -0.443648,-0.171233 -0.132316,-0.171233 -0.132316,-0.459215 0,-0.5292642 0.249066,-0.9378875 0.249065,-0.4125149 0.649905,-0.7238469 z M 70.055172,10.959 h -0.634339 v -0.708281 h 0.626555 q 0.389165,0 0.525373,-0.225715 0.140099,-0.2257162 0.140099,-0.5720731 0,-0.2529572 -0.0467,-0.5409394 -0.0467,-0.2879821 -0.101183,-0.5798559 L 71.242125,8.160903 q 0.06616,0.3113321 0.105074,0.6109891 0.03892,0.2996571 0.03892,0.5720726 0,0.4669981 -0.128424,0.8328133 -0.128425,0.365815 -0.420299,0.575964 Q 70.545519,10.959 70.055172,10.959 Z M 70.529953,6.3668522 71.094242,6.9311415 70.529953,7.4954308 69.965664,6.9311415 Z M 68.008166,5.6001971 h 0.657689 v 3.7204177 q 0,0.5487227 0.202366,0.7394132 0.202365,0.190691 0.610989,0.190691 h 0.09729 V 10.959 h -0.09729 q -0.743306,0 -1.109121,-0.393057 -0.361923,-0.396948 -0.361923,-1.2492198 z M 66.843535,10.959 q -0.268524,0 -0.451431,-0.07005 -0.179016,-0.07394 -0.280199,-0.155666 -0.05837,0.509806 -0.284091,0.984587 -0.221824,0.478673 -0.669364,0.832814 -0.447539,0.35414 -1.183061,0.498131 l -0.229608,-0.614881 q 0.949563,-0.206257 1.338728,-0.723847 0.389165,-0.513698 0.389165,-1.218086 0,-0.330791 -0.07394,-0.6927142 -0.07005,-0.3658151 -0.198474,-0.7433052 l 0.646014,-0.2179324 0.210149,0.8133549 q 0.08562,0.3268986 0.272415,0.4631069 0.186799,0.136207 0.47089,0.136207 H 66.94861 V 10.959 Z M 60.577969,7.1840988 q 0.443648,0.311332 0.84838,0.6187724 0.408623,0.3035487 0.735522,0.6615806 0.326899,0.3541401 0.51759,0.8250298 0.206257,0.5020229 0.435864,0.7316304 0.229608,0.229607 0.646014,0.229607 h 0.108967 V 10.959 h -0.108967 q -0.431973,0 -0.735522,-0.167341 -0.299657,-0.167341 -0.537047,-0.533156 -0.155666,0.229607 -0.381382,0.385273 -0.221824,0.155666 -0.583748,0.237391 -0.358031,0.07783 -0.930104,0.07783 h -0.949563 v -0.708281 h 0.945671 q 0.75498,0 1.081879,-0.132316 0.326899,-0.1362076 0.326899,-0.5370476 0,-0.2568489 -0.182908,-0.5020229 Q 61.636498,8.8341585 61.348516,8.5967679 61.064426,8.3554855 60.737527,8.1258782 60.410628,7.8923792 60.122646,7.6666634 59.998113,7.5654805 59.931955,7.4292728 59.865797,7.293065 59.865797,7.1529656 q 0,-0.1595577 0.08562,-0.2996571 0.08951,-0.1400994 0.276307,-0.2140408 l 2.798096,-1.1363619 v 0.6888221 z m -2.751392,-1.2064116 0.564289,0.5642893 -0.564289,0.5642893 -0.56429,-0.5642893 z m 1.408777,3.1483451 q 0,0.3074404 -0.136208,0.5720726 -0.136207,0.2607406 -0.373598,0.5370481 0.221824,0.01168 0.393057,0.01557 0.171232,0 0.303548,0 h 0.37749 V 10.959 h -0.365815 q -0.147882,0 -0.408623,-0.02335 -0.256849,-0.02724 -0.568181,-0.08951 -0.30744,-0.06227 -0.607097,-0.167341 -0.299658,0.108966 -0.614881,0.171232 -0.315224,0.05837 -0.583748,0.08562 -0.268524,0.02335 -0.428081,0.02335 h -0.544831 v -0.708281 h 0.544831 q 0.163449,0 0.338573,0 0.179016,-0.0039 0.431973,-0.01946 Q 56.760264,9.9588455 56.627948,9.6903216 56.495632,9.4217977 56.495632,9.118249 q 0,-0.2412823 0.112858,-0.4864563 0.112858,-0.245174 0.303549,-0.4553231 0.190691,-0.2101491 0.435865,-0.3346819 0.245174,-0.1284245 0.505914,-0.1284245 0.272416,0 0.521481,0.1284245 0.249066,0.1245328 0.439757,0.3346819 0.194582,0.2062575 0.30744,0.4553231 0.112858,0.2490656 0.112858,0.4942396 z M 57.853818,8.4021854 q -0.147883,0 -0.311332,0.1128578 -0.159558,0.1089662 -0.272415,0.2763072 -0.108967,0.167341 -0.108967,0.3424652 0,0.1790159 0.105075,0.3658152 0.105075,0.1867992 0.264632,0.3424652 0.16345,0.155666 0.33079,0.241282 0.295766,-0.1245325 0.502023,-0.4008397 0.210149,-0.2801988 0.210149,-0.556506 0,-0.1634493 -0.116749,-0.3307903 Q 58.344166,8.6279011 58.176825,8.5150432 58.009484,8.4021854 57.853818,8.4021854 Z m -3.603667,0.2568489 0.649905,-0.077833 0.06227,0.9106462 q 0.0467,0.7588715 0.790005,0.7588715 h 0.08172 V 10.959 h -0.08951 q -0.431974,0 -0.692714,-0.155666 -0.256849,-0.155666 -0.416407,-0.439757 -0.210149,0.307441 -0.552614,0.451432 Q 53.740345,10.959 53.366746,10.959 h -0.373598 v -0.708281 h 0.373598 q 0.49424,0 0.704389,-0.221824 0.214041,-0.2218239 0.214041,-0.6810386 0,-0.1867992 -0.01167,-0.3541402 -0.0078,-0.167341 -0.02335,-0.3346819 z M 54.324092,6.7209924 54.888381,7.2852817 54.324092,7.849571 53.759803,7.2852817 Z M 50.253426,5.8414794 50.778799,6.3668522 50.253426,6.892225 49.728053,6.3668522 Z m 0.665472,0.9845876 0.525373,0.5253728 -0.525373,0.5253728 -0.525372,-0.5253728 z m -1.330944,0 0.525373,0.5253728 -0.525373,0.5253728 -0.525373,-0.5253728 z M 49.420613,10.959 q -0.44754,0 -0.692714,-0.151775 -0.241282,-0.155666 -0.385273,-0.443648 -0.182908,0.287982 -0.466998,0.443648 Q 47.591537,10.959 47.066164,10.959 h -0.358031 v -0.708281 h 0.365815 q 0.498131,0 0.727738,-0.182907 0.229608,-0.1867995 0.229608,-0.6771475 0,-0.1011829 -0.01168,-0.2373906 -0.0078,-0.1400994 -0.02724,-0.3891651 l 0.649906,-0.081725 0.06227,0.8133549 q 0.02335,0.3268986 0.198474,0.5409389 0.179016,0.214041 0.525373,0.214041 0.412515,0 0.560398,-0.221824 0.147883,-0.2218239 0.147883,-0.6382305 0,-0.1011829 -0.01167,-0.2412823 -0.0078,-0.1400994 -0.02724,-0.3852734 l 0.649906,-0.081725 0.06227,0.8133549 q 0.01946,0.3152237 0.167341,0.5370479 0.147883,0.217932 0.478673,0.217932 0.323007,0 0.443648,-0.241282 0.120641,-0.2412824 0.120641,-0.5642894 0,-0.2918737 -0.05837,-0.5876392 -0.05448,-0.2957654 -0.09729,-0.478673 l 0.665473,-0.1790159 q 0.07005,0.2607406 0.112857,0.556506 0.04281,0.2918738 0.04281,0.5837476 0,0.4202982 -0.11675,0.7900049 -0.116749,0.369707 -0.385273,0.599314 -0.264633,0.225716 -0.723847,0.229608 -0.373599,0 -0.603206,-0.155666 -0.229607,-0.155666 -0.373599,-0.439757 -0.217932,0.315224 -0.486456,0.455323 -0.264632,0.1401 -0.575964,0.1401 z m -3.01992,-0.665473 q 0,2.272724 -2.494548,2.751397 l -0.229607,-0.618772 q 0.89508,-0.171233 1.428236,-0.572073 0.533156,-0.396948 0.630447,-1.000154 -0.147883,0.0467 -0.342465,0.08173 -0.194583,0.03502 -0.342465,0.03502 -1.420453,0 -1.420453,-1.206412 0,-0.2879822 0.08562,-0.5759643 0.08951,-0.2918738 0.256849,-0.5331561 0.171233,-0.2451739 0.416407,-0.3930567 0.245174,-0.1478827 0.556506,-0.1478827 0.369707,0 0.642122,0.1829076 0.276307,0.1829076 0.455323,0.4942396 0.179016,0.311332 0.268524,0.7004971 0.08951,0.389165 0.08951,0.8016795 z m -1.330944,-0.02724 q 0.342465,0 0.681039,-0.101183 -0.03892,-0.6537973 -0.241283,-1.0001542 -0.202366,-0.3502485 -0.572072,-0.3502485 -0.256849,0 -0.40084,0.1595577 -0.1401,0.1595576 -0.198475,0.37749 -0.05448,0.2140408 -0.05448,0.3891651 0,0.2840909 0.194583,0.4047319 0.194582,0.120641 0.591531,0.120641 z m -4.489876,2.786422 -0.229607,-0.618773 q 0.949563,-0.206257 1.338728,-0.723847 0.389165,-0.513698 0.389165,-1.218086 0,-0.330791 -0.07394,-0.6927142 -0.07005,-0.3658151 -0.198474,-0.7433052 l 0.646014,-0.2179324 q 0.280199,0.7977883 0.280199,1.5372018 0,0.649906 -0.229607,1.20252 -0.225716,0.556506 -0.704389,0.941779 -0.474782,0.389165 -1.218087,0.533157 z M 38.575669,8.6590343 q 0,0.7316302 0.155666,1.4360187 0.155666,0.700497 0.455323,1.27257 0.303549,0.572073 0.747197,0.910646 L 39.785972,12.75305 Q 39.353999,12.519551 39.00375,12.103145 38.653502,11.686738 38.400544,11.138016 38.151479,10.593185 38.015271,9.9588455 37.879063,9.3245065 37.879063,8.6590343 q 0,-0.6654722 0.136208,-1.2998112 Q 38.151479,6.724884 38.400544,6.180053 38.653502,5.6313303 39.00375,5.2149237 39.353999,4.7985171 39.785972,4.5650181 l 0.147883,0.4747813 Q 39.490207,5.378373 39.186658,5.9504456 38.887001,6.5225182 38.731335,7.2269069 38.575669,7.927404 38.575669,8.6590343 Z m -0.2924,0 q 0,-0.7316303 -0.155666,-1.4321274 Q 37.975828,6.5225182 37.67228,5.9504456 37.368731,5.378373 36.925083,5.0397994 l 0.147883,-0.4747813 q 0.431973,0.233499 0.782221,0.6499056 0.350249,0.4164066 0.599314,0.9651293 0.252958,0.544831 0.389165,1.1791701 0.136208,0.634339 0.136208,1.2998112 0,0.6654722 -0.136208,1.2998112 -0.136207,0.6343395 -0.389165,1.1791705 -0.249065,0.548722 -0.599314,0.965129 -0.350248,0.416406 -0.782221,0.649905 l -0.147883,-0.474781 q 0.443648,-0.338573 0.747197,-0.910646 0.303548,-0.572073 0.455323,-1.27257 0.155666,-0.7043885 0.155666,-1.4360187 z M 35.282805,5.6001971 h 0.657689 v 3.7204177 q 0,0.5487227 0.202366,0.7394132 0.202365,0.190691 0.610989,0.190691 h 0.09729 V 10.959 h -0.09729 q -0.743305,0 -1.109121,-0.393057 -0.361923,-0.396948 -0.361923,-1.2492198 z M 31.231596,7.7989795 31.539037,7.2230153 Q 32.936139,7.9040541 33.62107,8.4411019 34.306,8.974258 34.306,9.530764 q 0,0.688822 -0.428081,1.039071 -0.42419,0.350248 -1.140254,0.350248 -0.268524,0 -0.572072,-0.04281 -0.303549,-0.04281 -0.575965,-0.105075 -0.272415,-0.06616 -0.459214,-0.128424 -0.338574,0.124533 -0.793897,0.221824 -0.455323,0.0934 -0.879513,0.0934 h -0.385273 v -0.708281 h 0.334681 q 0.256849,0 0.451432,-0.01168 0.198474,-0.01168 0.431973,-0.03892 -0.268524,-0.2179326 -0.389165,-0.4747815 -0.116749,-0.2607406 -0.116749,-0.5370478 0,-0.4047316 0.19069,-0.6966054 0.190691,-0.2918738 0.505915,-0.4475398 0.315224,-0.1595576 0.688822,-0.1595576 0.167341,0 0.334682,0.042808 -0.132316,-0.062266 -0.272416,-0.1284245 z m 0.704389,2.4167145 q 0.171233,0.01946 0.373599,0.03892 0.202365,0.01557 0.358031,0.01557 0.47089,0 0.716064,-0.175125 0.249066,-0.1790157 0.249066,-0.5526141 0,-0.1906909 -0.217933,-0.4125149 -0.217932,-0.2257158 -0.583747,-0.4631064 -0.361924,-0.2412823 -0.80168,-0.4747814 0.214041,0.1712326 0.342465,0.412515 0.132316,0.2412823 0.132316,0.5098062 0,0.3658151 -0.147883,0.6265557 -0.143991,0.2568489 -0.420298,0.4747809 z M 30.453266,9.1805154 q 0,0.2296074 0.190691,0.4592148 0.194583,0.2257157 0.560398,0.3658148 0.700497,-0.2840902 0.700497,-0.8172463 0,-0.3385736 -0.206257,-0.5136978 -0.202366,-0.1790159 -0.490348,-0.1790159 -0.334682,0 -0.544831,0.1867992 -0.21015,0.1867992 -0.21015,0.4981312 z M 21.674232,10.959 h -0.992371 q -1.46326,0 -2.198782,-0.396949 -0.73163,-0.396948 -0.73163,-1.3737523 0,-0.2685239 0.05837,-0.5253728 0.06227,-0.2568489 0.159557,-0.4942396 l 0.603206,0.2257158 q -0.06227,0.1673409 -0.105075,0.3619234 -0.03892,0.1945826 -0.03892,0.3697068 0.0039,0.4553231 0.252957,0.7004971 0.252957,0.2412826 0.751089,0.3346816 0.502023,0.08951 1.249219,0.08951 h 0.98848 q 0.75498,0 1.081878,-0.132316 0.326899,-0.1362076 0.326899,-0.5370476 0,-0.2568489 -0.182907,-0.5020229 -0.179016,-0.245174 -0.466999,-0.4825646 -0.28409,-0.2412824 -0.610989,-0.4708897 -0.326898,-0.233499 -0.61488,-0.4592148 -0.256849,-0.2023658 -0.256849,-0.5098062 0,-0.1595576 0.08951,-0.299657 0.08951,-0.1439911 0.276307,-0.2179325 l 2.798096,-1.1363619 v 0.6888221 l -2.447848,0.9923709 q 0.439757,0.3152237 0.84838,0.622664 0.408623,0.3035488 0.735522,0.657689 0.326899,0.3541401 0.51759,0.8250298 0.206257,0.5020229 0.435864,0.7316304 0.229608,0.229607 0.646014,0.229607 h 0.105075 L 24.94711,10.959 h -0.105074 q -0.431973,0 -0.735522,-0.167341 -0.299657,-0.167341 -0.537048,-0.533156 -0.155666,0.229607 -0.381382,0.385273 -0.221824,0.155666 -0.583747,0.237391 -0.358032,0.07783 -0.930105,0.07783 z m -7.285168,-0.708281 h 0.58764 q 0.494239,0 0.704388,-0.221824 0.214041,-0.2218239 0.214041,-0.6810386 0,-0.1867992 -0.01168,-0.3541402 -0.0078,-0.167341 -0.02335,-0.3346819 l 0.649906,-0.077833 0.06227,0.9106462 q 0.0467,0.7588715 0.790005,0.7588715 h 0.08172 V 10.959 h -0.08951 q -0.431973,0 -0.692714,-0.155666 -0.256849,-0.155666 -0.416406,-0.439757 -0.21015,0.307441 -0.552615,0.451432 Q 15.350302,10.959 14.976704,10.959 h -0.58764 z m 1.404886,1.327053 0.544831,0.540939 -0.544831,0.548723 -0.540939,-0.548723 z m -1.292028,0 0.544831,0.540939 -0.544831,0.548723 -0.540939,-0.548723 z m -1.638385,-0.529264 q -0.389165,0 -0.719955,-0.167341 -0.326899,-0.171233 -0.681039,-0.513698 -0.252957,0.28409 -0.486456,0.439756 Q 10.742588,10.959 10.318398,10.959 h -0.171233 v -0.708281 h 0.151775 q 0.26074,0 0.439756,-0.147882 0.179016,-0.1517748 0.319115,-0.3891655 0.1401,-0.2373907 0.276308,-0.5020229 0.140099,-0.2685238 0.311332,-0.5059145 0.171232,-0.2373907 0.412515,-0.3852734 0.245173,-0.1517744 0.603205,-0.1517744 0.431974,0 0.751089,0.2101491 0.323007,0.2062575 0.498131,0.556506 0.179016,0.3502486 0.179016,0.7822218 0,0.6343388 -0.323007,0.9845878 -0.319115,0.346357 -0.902863,0.346357 z M 12.676738,8.8575084 q -0.194583,0 -0.35414,0.1323162 -0.159558,0.1284244 -0.287982,0.3346819 -0.128425,0.2062575 -0.229608,0.4280815 0.233499,0.245174 0.482565,0.40084 0.319115,0.206257 0.568181,0.206257 0.575964,0 0.575964,-0.5798554 0,-0.4047317 -0.202366,-0.6615806 Q 13.030878,8.8575084 12.676738,8.8575084 Z M 7.6798587,10.258503 q 1.4943938,0 1.4943938,-0.7744389 0,-0.3658151 -0.3735985,-0.7744384 Q 8.4270556,8.3010024 7.5631092,7.8301127 L 7.8705496,7.215232 q 1.0001541,0.5098062 1.4827188,1.0779871 0.4864563,0.5642893 0.4864563,1.1791701 0,0.7316298 -0.5059146,1.1052288 -0.5020229,0.373598 -1.5955766,0.373598 -0.5214812,0 -0.9417794,-0.0934 v -0.704389 q 0.5098062,0.105075 0.8834046,0.105075 z M 4.9206791,5.6001971 H 5.578368 v 3.7204177 q 0,0.5487227 0.2023658,0.7394132 0.2023658,0.190691 0.6109891,0.190691 h 0.097291 V 10.959 h -0.097291 q -0.7433052,0 -1.1091204,-0.393057 Q 4.9206791,10.168995 4.9206791,9.3167232 Z M 1.6439095,7.1840988 Q 1.9824831,7.4214895 2.3482982,7.6861217 2.7141133,7.9468623 3.029337,8.2465193 3.3484523,8.5422848 3.5430349,8.8808583 3.741509,9.2155403 3.741509,9.596922 3.7376174,10.320769 3.2394861,10.639884 2.7452465,10.959 1.6594761,10.959 H 0.70991339 V 10.250719 H 1.6555844 q 0.7549802,0 1.0818788,-0.132316 0.3268987,-0.1362076 0.3268987,-0.5370476 0,-0.2568489 -0.1829076,-0.5020229 Q 2.7024384,8.8341585 2.4144562,8.5967679 2.1303658,8.3554855 1.8034671,8.1258782 1.4765685,7.8923792 1.1885864,7.6666634 1.0640536,7.5654805 0.99789552,7.4292728 0.93173746,7.293065 0.93173746,7.1568572 q 0,-0.1595576 0.0856163,-0.299657 0.089508,-0.1439911 0.2763071,-0.2179325 L 4.0917576,5.5029058 V 6.1917279 Z M 0.98394808,5.1137408 q 0.0544831,0.027242 0.11285782,0.027242 0.1089663,0 0.3891651,-0.2529573 L 1.6844451,4.7090092 2.0385853,5.0281245 1.8206529,5.234382 Q 1.6143954,5.4289645 1.4587294,5.5223641 1.3069551,5.611872 1.151289,5.611872 q -0.1478827,0 -0.35024849,-0.089508 L 0.29901762,5.2927567 q -0.0544831,-0.02335 -0.10118291,-0.038917 -0.0466998,-0.015567 -0.089508,-0.015567 -0.08561631,0 -0.19458252,0.07005 -0.10896621,0.07005 -0.29187377,0.2529573 L -0.59995361,5.7831047 -0.9540938,5.4639893 -0.72837807,5.2304903 Q -0.4754208,4.9697497 -0.30029654,4.8646752 -0.12128062,4.755709 0.03827705,4.755709 q 0.10507455,0 0.21014911,0.035025 0.10896621,0.035025 0.23349903,0.0934 z M 0.92557333,6.1061116 V 10.955108 H 0.26788442 V 6.1061116 Z"
         id="path12" />
    </g>
  </g>
</svg>
