<?xml version="1.0" encoding="UTF-8" standalone="no"?>


<svg class="tikz-diagram" id="iran-action-ch4-tikz-8-e6cd614615d5"
   version="1.1"
   id="svg1"
   width="607.30664"
   height="115.97333"
   viewBox="0 0 607.30664 115.97333"
   sodipodi:docname="iran-action-ch4-tikz-8-e6cd614615d5.pdf"
   xmlns:inkscape="http://www.inkscape.org/namespaces/inkscape"
   xmlns:sodipodi="http://sodipodi.sourceforge.net/DTD/sodipodi-0.dtd"
   xmlns="http://www.w3.org/2000/svg"
   xmlns:svg="http://www.w3.org/2000/svg">
  <defs
     id="defs1" />
  <sodipodi:namedview
     id="namedview1"
     pagecolor="#ffffff"
     bordercolor="#000000"
     borderopacity="0.25"
     inkscape:showpageshadow="2"
     inkscape:pageopacity="0.0"
     inkscape:pagecheckerboard="0"
     inkscape:deskcolor="#d1d1d1">
    <inkscape:page
       x="0"
       y="0"
       inkscape:label="1"
       id="page1"
       width="607.30664"
       height="115.97333"
       margin="0"
       bleed="0" />
  </sodipodi:namedview>
  <g
     id="g1"
     inkscape:groupmode="layer"
     inkscape:label="1">
    <path
       id="path1"
       d="m 48.72342,28.3468 h -97.44684 c -4.40187,0 -7.97021,-3.56833 -7.97021,-7.97021 v -40.75318 c 0,-4.40188 3.56834,-7.97021 7.97021,-7.97021 h 97.44684 c 4.40187,0 7.97021,3.56833 7.97021,7.97021 v 40.75318 c 0,4.40188 -3.56834,7.97021 -7.97021,7.97021 z"
       style="fill:#f5ebff;fill-opacity:1;fill-rule:nonzero;stroke:#663399;stroke-width:0.3985;stroke-linecap:butt;stroke-linejoin:miter;stroke-miterlimit:10;stroke-dasharray:none;stroke-opacity:1"
       transform="matrix(1.3333333,0,0,-1.3333333,95.781333,57.988)" />
    <g
       id="text1"
       transform="matrix(1.3333333,0,0,1.3333333,54.622667,45.114667)"
       aria-label="یﺎﺗدﻮﮐﮏﯿﺳﻼﮐنﺎﯿﻣﺎﻈﻧﻪﯿﻠﻋنﺎﯿﻣﺎﻈﻧﺮﯿﻏﺮﺼﻣ)(۲۰۱۳">
      <path
         style="font-weight:800;font-size:9.9626px;font-family:Vazirmatn"
         d="m 57.727156,2.4517335 q -1.045878,0 -1.726915,-0.3988931 -0.676173,-0.3988932 -1.002097,-1.08965937 -0.325925,-0.69076619 -0.325925,-1.55665621 0,-0.57888152 0.126478,-1.19667942 0.126478,-0.6226625 0.364841,-1.2404605 l 1.182086,0.4524032 q -0.179988,0.5156424 -0.301602,1.006962 -0.121614,0.4913197 -0.121614,0.91940011 0,0.46699686 0.165395,0.85616092 0.165395,0.38916405 0.559423,0.62266248 0.394029,0.23349839 1.07993,0.23349839 0.739412,0 1.230732,-0.17025923 0.491319,-0.16539472 0.734547,-0.3940286 0.243227,-0.22863388 0.243227,-0.40375771 0,-0.14107197 -0.175123,-0.14107197 h -0.788058 q -0.248092,0 -0.520506,-0.0486455 -0.267551,-0.04864551 -0.501049,-0.20917568 -0.233499,-0.16053017 -0.379435,-0.48159052 -0.141072,-0.32106039 -0.141072,-0.86102549 0,-0.5059132 0.165395,-0.9729101 0.165394,-0.4718614 0.471861,-0.8415673 0.311331,-0.3697058 0.744276,-0.5886106 0.432945,-0.2189048 0.97291,-0.2189048 0.364842,0 0.715089,0.1118847 0.355113,0.1070201 0.65185,0.3210603 l -0.447539,1.2404604 q -0.252956,-0.1410719 -0.486455,-0.194582 -0.228633,-0.058375 -0.423216,-0.058375 -0.525371,0 -0.822109,0.3453831 -0.296737,0.3405186 -0.296737,0.8512964 0,0.1313428 0.0827,0.1653947 0.08756,0.034052 0.21404,0.034052 h 0.710225 q 0.559423,0 0.875619,0.1751238 0.32106,0.1751238 0.452403,0.48645504 0.136208,0.30646669 0.136208,0.7004953 0,0.69563074 -0.398894,1.27451226 -0.398893,0.5788815 -1.162627,0.9242646 -0.763735,0.3453831 -1.858259,0.3453831 z M 52.147518,-6.8201 h 1.313429 v 4.4461993 q 0,0.5156423 0.150801,0.7442762 0.150801,0.2237694 0.622662,0.2237694 h 0.121614 V 0 H 54.23441 Q 53.144751,0 52.643702,-0.56428788 52.147518,-1.1285758 52.147518,-2.2571515 Z m -3.424644,0.5253714 0.826974,0.8172446 0.817244,-0.8172446 0.831838,0.8269737 -0.831838,0.8367027 -0.817244,-0.8269736 -0.826974,0.8269736 L 47.8959,-5.4677549 Z M 49.1996,0 h -0.987504 v -1.4058551 h 0.992369 q 0.369705,0 0.505913,-0.2286339 0.141072,-0.2334985 0.141072,-0.5886107 0,-0.3307894 -0.0827,-0.7199535 -0.07783,-0.3940286 -0.16053,-0.768599 l 1.274513,-0.3307894 q 0.09243,0.4572678 0.145936,0.909671 0.05837,0.4475386 0.05837,0.8561609 0,0.6469852 -0.175124,1.1626276 -0.175124,0.51564237 -0.588611,0.81724451 Q 49.914689,0 49.1996,0 Z m -4.193242,-1.3912615 q 0.398893,0 0.778328,-0.05351 0.384299,-0.058375 0.632392,-0.2140403 0.252956,-0.1556656 0.252956,-0.4524032 0,-0.3064667 -0.296737,-0.6518498 -0.291873,-0.3502476 -0.778328,-0.6859016 -0.481591,-0.335654 -1.050743,-0.6032043 l 0.598339,-1.2647832 q 0.515643,0.2529567 1.006962,0.5691525 0.496184,0.3113312 0.890213,0.6956307 0.398893,0.3842995 0.632392,0.8512964 0.238363,0.4669968 0.238363,1.0312847 0,0.7783281 -0.355113,1.25505408 -0.350247,0.47672596 -0.987503,0.69076619 -0.637256,0.21404023 -1.488553,0.21404023 -0.389164,0 -0.724818,-0.02432275 -0.335654,-0.02918731 -0.656714,-0.10215557 V -1.537198 q 0.316196,0.063239 0.676172,0.1070201 0.364842,0.038916 0.632392,0.038916 z m -3.979204,-2.6317219 q 0.612934,0 1.041014,0.3648413 0.42808,0.3648413 0.671308,0.963181 0.243228,0.5934752 0.291873,1.289106 H 43.39619 V 0 h -0.462132 q -0.277279,1.1091176 -1.089659,1.7415091 -0.81238,0.6372562 -2.218235,0.909671 L 39.144573,1.3523451 Q 39.757506,1.2355959 40.278013,1.0410138 40.803385,0.84643182 41.163362,0.58374608 41.528203,0.32106034 41.649817,0 h -0.457268 q -0.982639,0 -1.498282,-0.40862226 -0.515642,-0.4134868 -0.515642,-1.33288684 0,-0.3599768 0.111885,-0.7540054 0.111884,-0.3988931 0.340518,-0.7442762 0.228634,-0.3502477 0.574017,-0.5642879 0.350248,-0.2189048 0.822109,-0.2189048 z m 0.16053,2.6171283 h 0.622663 Q 41.78116,-1.67827 41.693598,-1.9652785 41.6109,-2.252287 41.445506,-2.446869 q -0.160531,-0.194582 -0.428081,-0.194582 -0.228634,0 -0.364841,0.1459365 -0.131343,0.141072 -0.189718,0.3405186 -0.05351,0.194582 -0.05351,0.3599767 0,0.2578212 0.21404,0.3259249 0.218905,0.063239 0.564288,0.063239 z m -5.287767,-3.0889897 q 0.65185,0.389164 1.152898,0.7637344 0.505913,0.3697059 0.792922,0.7977864 0.287008,0.4280804 0.287008,0.9875037 0,0.7637345 -0.350247,1.1869504 Q 37.43225,-0.335654 36.799859,-0.16539472 36.167467,0 35.3259,0 h -1.186951 v -1.4058551 h 1.182086 q 0.778328,0 1.167492,-0.1070202 0.389164,-0.1118846 0.389164,-0.4524032 0,-0.1605301 -0.238363,-0.3697058 -0.238363,-0.2140402 -0.598339,-0.4475387 -0.355113,-0.238363 -0.729683,-0.4669968 -0.369706,-0.2334985 -0.642121,-0.4280805 -0.204311,-0.1459365 -0.311331,-0.3891641 -0.102155,-0.2432275 -0.102155,-0.4961841 0,-0.2724149 0.126478,-0.5107778 0.126478,-0.238363 0.394029,-0.3453831 l 3.755433,-1.5323335 v 1.3912615 z M 32.713171,0 H 31.48244 q -0.836703,0 -1.546927,-0.10215556 -0.710225,-0.10702012 -1.235596,-0.36970585 -0.520507,-0.26268574 -0.81238,-0.73454719 -0.287008,-0.4767259 -0.287008,-1.2161376 0,-0.4378096 0.09729,-0.8561609 0.09729,-0.4183514 0.243227,-0.7734636 l 1.172357,0.4426741 q -0.0827,0.2286339 -0.17026,0.5351006 -0.0827,0.3016021 -0.0827,0.574017 0,0.486455 0.359977,0.7199535 0.359977,0.2334984 0.953452,0.3064666 0.59834,0.068104 1.308564,0.068104 h 1.225867 q 0.778328,0 1.167492,-0.1070202 0.389164,-0.1118846 0.389164,-0.4524032 0,-0.1605301 -0.238363,-0.3697058 -0.238363,-0.2140402 -0.59834,-0.4475387 -0.355112,-0.238363 -0.729682,-0.4669968 -0.369706,-0.2334985 -0.642121,-0.4280805 -0.204311,-0.1508011 -0.311331,-0.3940286 -0.10702,-0.2480921 -0.10702,-0.5059133 0,-0.2821439 0.126478,-0.5059132 0.131343,-0.2286339 0.398893,-0.335654 l 3.755433,-1.5323335 v 1.3912615 l -2.626857,1.0653366 q 0.646985,0.389164 1.065336,0.6956307 0.418352,0.3064667 0.681037,0.6372562 0.267551,0.3259249 0.457268,0.7880572 0.145937,0.3502476 0.27728,0.5642879 0.136207,0.2140402 0.340518,0.3113312 0.204311,0.092427 0.559423,0.092427 h 0.131343 V 0 h -0.131343 q -0.58861,0 -0.987503,-0.17025927 -0.394029,-0.17512383 -0.671308,-0.57888153 -0.252957,0.28214394 -0.554559,0.44753866 -0.296738,0.16053017 -0.715089,0.23349843 Q 33.330969,0 32.713171,0 Z M 23.480253,-1.4058551 H 24.2148 q 0.5351,0 0.734547,-0.1799884 0.204311,-0.1848529 0.204311,-0.671308 0,-0.2870085 -0.01459,-0.5545588 -0.01459,-0.2724148 -0.03405,-0.530236 l 1.216138,-0.1508011 0.09729,1.3912615 q 0.02432,0.3697059 0.204311,0.5351006 0.179989,0.1605302 0.574017,0.1605302 h 0.102156 V 0 H 27.18704 Q 26.700585,0 26.350337,-0.17512382 26.004954,-0.35024765 25.781185,-0.63239159 25.484447,-0.335654 25.075825,-0.16539472 24.672067,0 24.2148,0 H 23.480253 Z M 23.606731,0.62266248 24.433704,1.439907 25.250949,0.62266248 26.082787,1.4496361 25.250949,2.2863388 24.433704,1.4593652 23.606731,2.2863388 22.779757,1.4496361 Z M 18.90271,0 q -0.491319,0 -0.826973,-0.16539472 -0.33079,-0.17025928 -0.54483,-0.44753866 -0.26755,0.28214394 -0.637256,0.44753866 Q 16.523945,0 15.959657,0 h -0.447539 v -1.4058551 h 0.457268 q 0.535101,0 0.75887,-0.1313429 0.228634,-0.1313429 0.228634,-0.6323916 0,-0.077833 -0.0097,-0.2578212 -0.0097,-0.1799884 -0.02432,-0.3940286 -0.01459,-0.2189048 -0.02919,-0.3940286 l 1.221002,-0.1508011 0.102155,1.3134287 q 0.04378,0.6469853 0.695631,0.6469853 0.403758,0 0.539965,-0.1653948 0.136208,-0.1702592 0.136208,-0.5983397 0,-0.068104 -0.0097,-0.2480921 -0.0097,-0.1848529 -0.02432,-0.4037577 -0.01459,-0.2189048 -0.02919,-0.3940286 l 1.221002,-0.1508011 0.102155,1.3134287 q 0.01946,0.2967376 0.145937,0.4718614 0.131343,0.1751239 0.442674,0.1751239 0.291873,0 0.398893,-0.2286339 0.111885,-0.2334985 0.111885,-0.5545588 0,-0.2772794 -0.05351,-0.5691524 -0.04865,-0.2967376 -0.111885,-0.5351006 -0.05837,-0.2432275 -0.08756,-0.3551122 l 1.259919,-0.3453831 q 0.09729,0.3842995 0.16053,0.8221091 0.06324,0.432945 0.06324,0.8610254 0,0.6032043 -0.16053,1.1334403 -0.155666,0.52537151 -0.535101,0.85129641 Q 22.103584,0 21.44687,0 21.009061,0 20.707458,-0.17998837 20.410721,-0.35997675 20.20641,-0.62266248 19.958318,-0.35997675 19.642122,-0.17998837 19.330791,0 18.90271,0 Z m -6.275271,-1.6101663 q 0.841568,-0.3551122 0.841568,-1.8339356 V -6.8201 h 1.303699 v 3.6338193 q 0,0.432945 0.04378,0.8464318 0.04865,0.4086223 0.209176,0.671308 0.165395,0.2626858 0.505913,0.2626858 h 0.179988 V 0 H 15.516982 Q 14.913778,0 14.51975,-0.27727939 14.130585,-0.55942333 13.92141,-1.0020974 13.439819,-0.51077782 12.67122,-0.25295663 11.907486,0 10.963763,0 10.701077,0 10.443256,-0.0194582 10.190299,-0.03891641 9.9276137,-0.05837461 V -1.4155842 q 0.3016023,0.019458 0.6032043,0.043781 0.306467,0.019458 0.530236,0.019458 0.08756,0 0.16053,0 0.07783,0 0.145937,-0.00486 0,0 -0.0681,-0.3064667 -0.06324,-0.3064667 -0.189718,-0.8172445 -0.121613,-0.5156424 -0.301602,-1.148034 -0.175123,-0.6323916 -0.398893,-1.2939705 -0.223769,-0.6615789 -0.4864549,-1.2501895 l 1.1966799,-0.5205069 q 0.26755,0.6226625 0.496184,1.3231578 0.228634,0.6956307 0.413487,1.3620742 0.189717,0.6664434 0.32106,1.2112731 0.136207,0.5399651 0.204311,0.86589 z M 6.6051264,-4.4948448 q 0.6518498,0.389164 1.1528986,0.7637344 0.5059132,0.3697059 0.7929217,0.7977864 0.2870085,0.4280804 0.2870085,0.9875037 0,0.7637345 -0.3502476,1.1869504 Q 8.1374599,-0.335654 7.5050683,-0.16539472 6.8726767,0 6.0311095,0 H 4.8441591 v -1.4058551 h 1.1820858 q 0.7783281,0 1.1674922,-0.1070202 0.389164,-0.1118846 0.389164,-0.4524032 0,-0.1605301 -0.238363,-0.3697058 Q 7.1061752,-2.5490245 6.7461984,-2.782523 6.3910862,-3.020886 6.0165158,-3.2495198 5.64681,-3.4830183 5.3743951,-3.6776003 5.170084,-3.8235368 5.0630639,-4.0667644 4.9609083,-4.3099919 4.9609083,-4.5629485 q 0,-0.2724149 0.1264783,-0.5107778 0.1264784,-0.238363 0.3940286,-0.3453831 l 3.7554332,-1.5323335 v 1.3912615 z"
         id="path9" />
      <path
         style="font-size:8.9664px;font-family:Vazirmatn"
         d="M 70.527915,8.2379717 71.162743,8.8727999 70.527915,9.507628 69.893086,8.8727999 Z m 0.05254,4.8640973 q 0.731147,0 1.129556,-0.240797 0.402788,-0.236419 0.5604,-0.626072 0.161991,-0.385275 0.161991,-0.827466 0,-0.520997 -0.1401,-1.028859 -0.1401,-0.5078626 -0.262688,-0.8318439 l 0.74866,-0.3020906 q 0.205772,0.5647781 0.310847,1.0989095 0.109453,0.529753 0.109453,1.011347 0,0.739903 -0.275822,1.313437 -0.271444,0.573535 -0.849356,0.897516 -0.577913,0.323981 -1.492941,0.323981 -0.945675,0 -1.514831,-0.345872 -0.564778,-0.345872 -0.81871,-0.923784 -0.249553,-0.573534 -0.249553,-1.2609 0,-0.464081 0.09632,-0.950053 0.09632,-0.4903502 0.262687,-0.9544315 l 0.696122,0.2802 q -0.126965,0.4027875 -0.214528,0.8274655 -0.08756,0.424678 -0.08756,0.823088 0,0.472837 0.166368,0.86249 0.170747,0.389653 0.569157,0.621694 0.398409,0.232041 1.094531,0.232041 z M 65.887105,5.9263217 h 0.739903 v 4.1854873 q 0,0.617316 0.227663,0.831844 0.227662,0.214528 0.687365,0.214528 h 0.109453 V 11.955 h -0.109453 q -0.836222,0 -1.247765,-0.442191 -0.407166,-0.446568 -0.407166,-1.405378 z m -4.019117,5.2318593 h 0.661097 q 0.556022,0 0.792441,-0.249553 0.240796,-0.249553 0.240796,-0.766172 0,-0.2101499 -0.01313,-0.3984092 -0.0088,-0.1882594 -0.02627,-0.3765188 l 0.731147,-0.087563 0.07005,1.0244815 q 0.05254,0.853734 0.88876,0.853734 h 0.09194 V 11.955 h -0.100697 q -0.485971,0 -0.779306,-0.175125 Q 64.135857,11.60475 63.956354,11.285147 63.719935,11.631019 63.33466,11.793009 62.949385,11.955 62.529085,11.955 h -0.661097 z m 1.580503,1.492941 0.612938,0.608559 -0.612938,0.617316 -0.608559,-0.617316 z m -1.453537,0 0.612937,0.608559 -0.612937,0.617316 -0.60856,-0.617316 z m -1.8432,-0.595425 q -0.437813,0 -0.809953,-0.18826 Q 58.974038,11.6748 58.575629,11.289525 58.291051,11.609128 58.028363,11.784253 57.765676,11.955 57.28846,11.955 h -0.192638 v -0.796819 h 0.170747 q 0.293335,0 0.494728,-0.166369 0.201394,-0.170746 0.359007,-0.437812 0.157612,-0.267066 0.310847,-0.5647782 0.157612,-0.3020907 0.35025,-0.5691563 0.192637,-0.2670656 0.464081,-0.4334344 0.275822,-0.1707469 0.678609,-0.1707469 0.485972,0 0.844978,0.2364188 0.363385,0.2320406 0.5604,0.6260719 0.201394,0.3940311 0.201394,0.8800031 0,0.713634 -0.363384,1.107666 -0.359007,0.389653 -1.015725,0.389653 z m -0.21015,-2.4648846 q -0.218907,0 -0.39841,0.1488562 -0.179503,0.1444782 -0.323981,0.3765184 -0.144478,0.232041 -0.258309,0.481594 0.262687,0.275822 0.542887,0.450947 0.359006,0.232041 0.639206,0.232041 0.647963,0 0.647963,-0.652341 0,-0.455325 -0.227663,-0.7442812 -0.223284,-0.2933344 -0.621693,-0.2933344 z m -4.43503,-3.6644907 h 0.739903 v 4.1854873 q 0,0.617316 0.227662,0.831844 0.227663,0.214528 0.687366,0.214528 h 0.109453 V 11.955 h -0.109453 q -0.836222,0 -1.247766,-0.442191 -0.407165,-0.446568 -0.407165,-1.405378 z M 52.437502,6.2940842 53.07233,6.9289123 52.437502,7.5637405 51.802673,6.9289123 Z m 0.06129,2.1321469 q 0.494728,0 0.875625,0.2189063 0.385275,0.2145281 0.604182,0.5866687 0.218906,0.3721407 0.218906,0.8405999 -0.0044,0.5604 -0.341494,1.002591 0.122588,0.03065 0.328359,0.05692 0.21015,0.02627 0.60856,0.02627 h 0.131344 V 11.955 h -0.126966 q -0.556022,0 -0.919406,-0.113831 -0.359007,-0.113832 -0.604182,-0.315225 -0.359006,0.201393 -0.945675,0.315225 Q 51.74138,11.955 50.966451,11.955 h -2.267868 v -0.796819 h 0.744281 q 0.08318,-0.1401 0.175125,-0.275822 0.09194,-0.1401 0.175125,-0.275822 V 5.9263217 h 0.739903 V 9.5645436 Q 51.005855,8.9953874 51.48307,8.7108092 51.964664,8.4262311 52.498795,8.4262311 Z m 0.01751,0.7968188 q -1.05075,0 -2.276625,1.9351311 h 0.709256 q 1.247766,0 1.860703,-0.249553 0.612938,-0.249553 0.612938,-0.792441 0,-0.3852746 -0.249553,-0.6392059 Q 52.923473,9.2230499 52.516308,9.2230499 Z M 46.855393,11.955 h -0.713634 v -0.796819 h 0.704878 q 0.437813,0 0.591047,-0.253931 0.157613,-0.253931 0.157613,-0.643584 0,-0.2845786 -0.05254,-0.6085599 -0.05254,-0.3239812 -0.113831,-0.6523406 L 48.190722,8.807128 q 0.07443,0.35025 0.118209,0.6873656 0.04378,0.3371157 0.04378,0.6435844 0,0.525375 -0.144478,0.936919 -0.144478,0.411544 -0.472837,0.647962 Q 47.407037,11.955 46.855393,11.955 Z M 47.389525,6.7888123 48.024353,7.4236405 47.389525,8.0584686 46.754696,7.4236405 Z M 48.56664,11.955 q -0.643584,0 -1.00259,-0.302091 -0.354629,-0.30209 -0.459704,-0.831843 -0.253931,0.253931 -0.551643,0.389653 -0.293335,0.135722 -0.661097,0.135722 -0.626072,0 -1.05075,-0.337116 -0.424678,-0.337116 -0.424678,-0.932541 0,-0.674231 0.551643,-1.164581 0.551644,-0.4947281 1.733738,-0.8581125 l -0.03065,-0.21015 0.7005,-0.1401 0.380897,2.6881685 q 0.05254,0.385275 0.249553,0.577913 0.201394,0.188259 0.582291,0.188259 h 0.135722 V 11.955 Z M 46.929221,9.752803 q 0,-0.1357219 -0.01751,-0.2583094 L 46.802256,8.7633467 q -0.849356,0.3064688 -1.23901,0.6041813 -0.385275,0.2977125 -0.385275,0.652341 0,0.288956 0.197016,0.437812 0.197016,0.148856 0.534131,0.148856 0.25831,0 0.49035,-0.100696 0.236419,-0.100697 0.380897,-0.293335 0.148856,-0.192637 0.148856,-0.459703 z m -6.295741,1.405378 h 0.661096 q 0.556022,0 0.792441,-0.249553 0.240797,-0.249553 0.240797,-0.766172 0,-0.2101499 -0.01313,-0.3984092 -0.0088,-0.1882594 -0.02627,-0.3765188 l 0.731147,-0.087563 0.07005,1.0244815 q 0.05254,0.853734 0.888759,0.853734 h 0.09194 V 11.955 h -0.100697 q -0.485972,0 -0.779306,-0.175125 -0.288957,-0.175125 -0.46846,-0.494728 -0.236419,0.345872 -0.621694,0.507862 Q 41.714876,11.955 41.294576,11.955 H 40.63348 Z m 1.580503,1.492941 0.612937,0.608559 -0.612937,0.617316 -0.60856,-0.617316 z m -1.453538,0 0.612938,0.608559 -0.612938,0.617316 -0.608559,-0.617316 z M 39.052977,10.037381 V 5.9263217 h 0.739903 v 4.1241943 q 0,0.481593 0.18826,0.796818 0.192637,0.310847 0.696122,0.310847 h 0.1401 V 11.955 h -0.131344 q -0.49035,0 -0.779306,-0.170747 -0.288957,-0.170747 -0.459704,-0.494728 -0.144478,0.214528 -0.293334,0.363384 -0.144478,0.148857 -0.372141,0.227663 -0.223284,0.07443 -0.612937,0.07443 h -0.376519 v -0.796819 h 0.367763 q 0.367762,0 0.556022,-0.144478 0.192637,-0.148856 0.262687,-0.402787 0.07443,-0.253932 0.07443,-0.573535 z m -4.592654,1.1208 q -0.197016,-0.245175 -0.337116,-0.599803 -0.135721,-0.359006 -0.135721,-0.7180125 0,-0.4684594 0.245175,-0.8493562 0.245175,-0.3808969 0.643584,-0.6041813 0.398409,-0.2232844 0.858112,-0.2232844 0.696122,0 1.492941,0.5428875 l -0.293334,0.6523407 q -0.682988,-0.4027876 -1.151447,-0.4027876 -0.402788,0 -0.713635,0.2495532 -0.310846,0.2495531 -0.310846,0.665475 0,0.3239816 0.144478,0.5735346 0.148856,0.249553 0.315225,0.389653 0.166368,0.135722 0.223284,0.135722 0.07881,0 0.153234,-0.02189 l 1.851947,-0.44219 v 0.796818 Q 36.356051,11.635397 35.427889,11.797387 34.504104,11.955 33.593454,11.955 H 33.116239 V 11.158181 Z M 32.511675,8.2379717 33.146503,8.8727999 32.511675,9.507628 31.876847,8.8727999 Z m 0.05254,4.8640973 q 0.731147,0 1.129556,-0.240797 0.402788,-0.236419 0.5604,-0.626072 0.161991,-0.385275 0.161991,-0.827466 0,-0.520997 -0.1401,-1.028859 -0.1401,-0.5078626 -0.262688,-0.8318439 l 0.74866,-0.3020906 q 0.205772,0.5647781 0.310847,1.0989095 0.109453,0.529753 0.109453,1.011347 0,0.739903 -0.275822,1.313437 -0.271444,0.573535 -0.849357,0.897516 -0.577912,0.323981 -1.49294,0.323981 -0.945675,0 -1.514831,-0.345872 -0.564779,-0.345872 -0.81871,-0.923784 -0.249553,-0.573534 -0.249553,-1.2609 0,-0.464081 0.09632,-0.950053 0.09632,-0.4903502 0.262687,-0.9544315 l 0.696122,0.2802 q -0.126965,0.4027875 -0.214528,0.8274655 -0.08756,0.424678 -0.08756,0.823088 0,0.472837 0.166368,0.86249 0.170747,0.389653 0.569157,0.621694 0.398409,0.232041 1.094531,0.232041 z M 27.870858,5.9263217 h 0.739903 v 4.1854873 q 0,0.617316 0.227663,0.831844 0.227662,0.214528 0.687365,0.214528 h 0.109454 V 11.955 h -0.109454 q -0.836221,0 -1.247765,-0.442191 -0.407166,-0.446568 -0.407166,-1.405378 z m -4.019117,5.2318593 h 0.661097 q 0.556022,0 0.792441,-0.249553 0.240797,-0.249553 0.240797,-0.766172 0,-0.2101499 -0.01313,-0.3984092 -0.0088,-0.1882594 -0.02627,-0.3765188 l 0.731146,-0.087563 0.07005,1.0244815 q 0.05254,0.853734 0.88876,0.853734 h 0.09194 V 11.955 h -0.100696 q -0.485972,0 -0.779307,-0.175125 Q 26.11961,11.60475 25.940107,11.285147 25.703688,11.631019 25.318413,11.793009 24.933138,11.955 24.512838,11.955 h -0.661097 z m 1.580503,1.492941 0.612938,0.608559 -0.612938,0.617316 -0.608559,-0.617316 z m -1.453537,0 0.612937,0.608559 -0.612937,0.617316 -0.608559,-0.617316 z m -1.843191,-0.595425 q -0.437812,0 -0.809953,-0.18826 Q 20.957801,11.6748 20.559391,11.289525 20.274813,11.609128 20.012126,11.784253 19.749438,11.955 19.272223,11.955 h -0.192638 v -0.796819 h 0.170747 q 0.293334,0 0.494728,-0.166369 0.201394,-0.170746 0.359006,-0.437812 0.157613,-0.267066 0.310847,-0.5647782 0.157613,-0.3020907 0.35025,-0.5691563 0.192638,-0.2670656 0.464082,-0.4334344 0.275821,-0.1707469 0.678609,-0.1707469 0.485972,0 0.844978,0.2364188 0.363384,0.2320406 0.5604,0.6260719 0.201394,0.3940311 0.201394,0.8800031 0,0.713634 -0.363385,1.107666 -0.359006,0.389653 -1.015725,0.389653 z m -0.21015,-2.4648846 q -0.218906,0 -0.398409,0.1488562 -0.179503,0.1444782 -0.323981,0.3765184 -0.144478,0.232041 -0.25831,0.481594 0.262688,0.275822 0.542888,0.450947 0.359006,0.232041 0.639206,0.232041 0.647963,0 0.647963,-0.652341 0,-0.455325 -0.227663,-0.7442812 Q 22.323776,9.5908124 21.925366,9.5908124 Z M 17.490325,5.9263217 h 0.739903 v 4.1854873 q 0,0.617316 0.227663,0.831844 0.227662,0.214528 0.687365,0.214528 h 0.109453 V 11.955 h -0.109453 q -0.836222,0 -1.247765,-0.442191 -0.407166,-0.446568 -0.407166,-1.405378 z M 14.42126,6.2940842 15.056089,6.9289123 14.42126,7.5637405 13.786432,6.9289123 Z m 0.06129,2.1321469 q 0.494728,0 0.875625,0.2189063 0.385275,0.2145281 0.604181,0.5866687 0.218907,0.3721407 0.218907,0.8405999 -0.0044,0.5604 -0.341494,1.002591 0.122587,0.03065 0.328359,0.05692 0.21015,0.02627 0.60856,0.02627 h 0.131343 V 11.955 H 16.78107 q -0.556022,0 -0.919406,-0.113831 -0.359007,-0.113832 -0.604182,-0.315225 -0.359006,0.201393 -0.945675,0.315225 Q 13.725139,11.955 12.95021,11.955 h -2.267868 v -0.796819 h 0.744281 q 0.08318,-0.1401 0.175125,-0.275822 0.09194,-0.1401 0.175125,-0.275822 V 5.9263217 h 0.739903 v 3.6382219 q 0.472838,-0.5691562 0.950053,-0.8537344 0.481594,-0.2845781 1.015725,-0.2845781 z m 0.01751,0.7968188 q -1.05075,0 -2.276625,1.9351311 h 0.709256 q 1.247766,0 1.860703,-0.249553 0.612938,-0.249553 0.612938,-0.792441 0,-0.3852746 -0.249554,-0.6392059 Q 14.907232,9.2230499 14.500067,9.2230499 Z M 8.8391504,11.955 H 8.125516 v -0.796819 h 0.7048781 q 0.4378125,0 0.5910469,-0.253931 0.1576125,-0.253931 0.1576125,-0.643584 0,-0.2845786 -0.052537,-0.6085599 Q 9.4739785,9.3281249 9.4126848,8.9997655 L 10.174479,8.807128 q 0.07443,0.35025 0.118209,0.6873656 0.04378,0.3371157 0.04378,0.6435844 0,0.525375 -0.144478,0.936919 -0.144478,0.411544 -0.4728375,0.647962 Q 9.3907941,11.955 8.8391504,11.955 Z M 9.3732816,6.7888123 10.00811,7.4236405 9.3732816,8.0584686 8.7384535,7.4236405 Z M 7.5727174,11.955 q -0.3020906,0 -0.5078625,-0.07881 -0.2013937,-0.08319 -0.315225,-0.175125 -0.065672,0.573534 -0.3196031,1.107665 -0.2495531,0.53851 -0.7530375,0.936919 -0.5034844,0.398409 -1.33095,0.5604 L 4.0877299,13.614309 q 1.0682625,-0.23204 1.506075,-0.814331 0.4378125,-0.577912 0.4378125,-1.370353 0,-0.372141 -0.083184,-0.779306 Q 5.8696268,10.238775 5.7251486,9.8140968 L 6.4519174,9.5689218 6.6883362,10.48395 q 0.096319,0.367762 0.3064687,0.520997 0.21015,0.153234 0.5297532,0.153234 H 7.6909268 V 11.955 Z M 0.79100177,11.158181 H 1.4520987 q 0.5560218,0 0.7924406,-0.249553 0.2407969,-0.249553 0.2407969,-0.766172 0,-0.2101499 -0.013134,-0.3984092 Q 2.4634455,9.5557874 2.445933,9.367528 l 0.7311469,-0.087563 0.07005,1.0244815 q 0.052538,0.853734 0.8887594,0.853734 h 0.091941 V 11.955 H 4.1271331 q -0.4859719,0 -0.7793063,-0.175125 Q 3.0588706,11.60475 2.8793674,11.285147 2.6429487,11.631019 2.2576737,11.793009 1.8723987,11.955 1.4520987,11.955 H 0.79100177 Z m 1.58050313,1.492941 0.6129375,0.608559 -0.6129375,0.617316 -0.6085594,-0.617316 z m -1.45353751,0 0.61293751,0.608559 -0.61293751,0.617316 -0.60855938,-0.617316 z M -1.336767,6.1277155 -0.70193882,6.7625436 -1.336767,7.3973717 -1.9715951,6.7625436 Z m -1.1952281,5.0304655 q -0.1970156,-0.245175 -0.3371156,-0.599803 -0.1357219,-0.359006 -0.1357219,-0.7180125 0,-0.4684594 0.245175,-0.8493562 0.245175,-0.3808969 0.6435844,-0.6041813 0.3984094,-0.2232844 0.8581125,-0.2232844 0.69612188,0 1.49294064,0.5428875 L -0.05835444,9.3587718 Q -0.74134195,8.9559842 -1.2098013,8.9559842 q -0.4027875,0 -0.7136344,0.2495532 -0.3108469,0.2495531 -0.3108469,0.665475 0,0.3239816 0.1444781,0.5735346 0.1488563,0.249553 0.315225,0.389653 0.1663688,0.135722 0.2232844,0.135722 0.078806,0 0.1532344,-0.02189 l 1.8519469,-0.44219 v 0.796818 Q -0.63626695,11.635397 -1.5644295,11.797387 -2.4882139,11.955 -3.3988639,11.955 h -0.4772156 v -0.796819 z"
         id="path10" />
      <path
         style="font-size:8.9664px;font-family:Vazirmatn"
         d="m 34.593611,23.910999 q -0.302091,0 -0.507863,-0.07881 -0.201394,-0.08318 -0.315225,-0.175125 -0.06567,0.573534 -0.319603,1.107666 -0.249553,0.538509 -0.753038,0.936918 -0.503484,0.39841 -1.33095,0.5604 l -0.258309,-0.691743 q 1.068262,-0.232041 1.506075,-0.814332 0.437812,-0.577912 0.437812,-1.370353 0,-0.37214 -0.08318,-0.779306 -0.07881,-0.411544 -0.223284,-0.836222 l 0.726769,-0.245175 0.236418,0.915028 q 0.09632,0.367763 0.306469,0.520997 0.21015,0.153235 0.529753,0.153235 h 0.166369 v 0.796818 z m -7.302713,0 h -0.23204 q -0.928163,0 -1.414135,-0.175125 -0.485972,-0.175125 -0.687365,-0.49035 -0.253932,0.345872 -0.573535,0.507863 -0.315225,0.157612 -0.8406,0.157612 H 23.36372 l 0.0044,-0.796818 h 0.175125 q 0.612938,0 0.823088,-0.25831 0.214528,-0.262687 0.214528,-0.757415 0,-0.21015 -0.01751,-0.389654 -0.01313,-0.179503 -0.02189,-0.385275 l 0.731147,-0.08756 0.06567,1.024481 q 0.02189,0.293335 0.122588,0.507863 0.100697,0.21015 0.310847,0.21015 0.783684,-1.33095 1.532344,-1.9614 0.753037,-0.634829 1.506075,-0.634829 0.499106,0 0.884381,0.218907 0.389653,0.214528 0.608559,0.586669 0.218906,0.37214 0.218906,0.8406 -0.0044,0.564778 -0.337115,1.00259 0.126965,0.03065 0.328359,0.05692 0.205772,0.02627 0.604182,0.02627 h 0.131343 v 0.796818 h -0.126965 q -0.556022,0 -0.919407,-0.113831 -0.359006,-0.113831 -0.604181,-0.315225 -0.359006,0.201394 -0.945675,0.315225 -0.586669,0.113831 -1.361597,0.113831 z m 1.554235,-2.73195 q -1.055129,0 -2.281004,1.935132 h 0.709257 q 1.247765,0 1.860703,-0.249554 0.612937,-0.249553 0.612937,-0.79244 0,-0.385275 -0.249553,-0.639206 -0.245175,-0.253932 -0.65234,-0.253932 z m -7.206394,2.832647 q -0.437813,0 -0.809953,-0.188259 -0.367763,-0.192638 -0.766172,-0.577913 -0.284578,0.319603 -0.547266,0.494728 -0.262687,0.170747 -0.739903,0.170747 h -0.192637 v -0.796818 h 0.170746 q 0.293335,0 0.494729,-0.166369 0.201393,-0.170747 0.359006,-0.437813 0.157612,-0.267065 0.310847,-0.564778 0.157612,-0.30209 0.35025,-0.569156 0.192637,-0.267066 0.464081,-0.433435 0.275822,-0.170746 0.678609,-0.170746 0.485972,0 0.844979,0.236418 0.363384,0.232041 0.5604,0.626072 0.201393,0.394032 0.201393,0.880003 0,0.713635 -0.363384,1.107666 -0.359006,0.389653 -1.015725,0.389653 z m -0.21015,-2.464884 q -0.218906,0 -0.398409,0.148856 -0.179504,0.144478 -0.323982,0.376519 -0.144478,0.23204 -0.258309,0.481594 0.262687,0.275821 0.542887,0.450946 0.359007,0.232041 0.639207,0.232041 0.647962,0 0.647962,-0.652341 0,-0.455325 -0.227662,-0.744281 -0.223285,-0.293334 -0.621694,-0.293334 z m -4.456932,-0.223285 q 0,0.823088 0.175125,1.615529 0.175125,0.788062 0.512241,1.431646 0.341494,0.643585 0.8406,1.024482 l -0.166369,0.534131 q -0.485972,-0.262688 -0.880003,-0.731147 -0.394031,-0.468459 -0.678609,-1.085775 -0.2802,-0.612937 -0.433435,-1.326572 -0.153234,-0.713634 -0.153234,-1.462294 0,-0.748659 0.153234,-1.462293 0.153235,-0.713635 0.433435,-1.326572 0.284578,-0.617316 0.678609,-1.085775 0.394031,-0.46846 0.880003,-0.731147 l 0.166369,0.534131 q -0.499106,0.380897 -0.8406,1.024481 -0.337116,0.643585 -0.512241,1.436025 -0.175125,0.788063 -0.175125,1.61115 z m -0.328955,0 q 0,-0.823087 -0.175125,-1.61115 -0.170747,-0.79244 -0.51224,-1.436025 -0.341494,-0.643584 -0.8406,-1.024481 l 0.166368,-0.534131 q 0.485972,0.262687 0.880004,0.731147 0.394031,0.468459 0.674231,1.085775 0.284578,0.612937 0.437812,1.326572 0.153235,0.713634 0.153235,1.462293 0,0.74866 -0.153235,1.462294 -0.153234,0.713635 -0.437812,1.326572 -0.2802,0.617316 -0.674231,1.085775 -0.394032,0.468459 -0.880004,0.731147 l -0.166368,-0.534131 q 0.499106,-0.380897 0.8406,-1.024482 0.341493,-0.643584 0.51224,-1.431646 0.175125,-0.792441 0.175125,-1.615529 z m 24.61382,-3.204787 q 0.01313,0.157612 0.02189,0.310847 0.0088,0.153234 0.0088,0.30209 0,0.556022 -0.1401,0.998213 -0.1401,0.44219 -0.481594,0.7005 -0.337116,0.253931 -0.936919,0.253931 -0.170747,0 -0.411543,-0.02189 -0.236419,-0.02627 -0.499107,-0.105075 0.09194,0.656719 0.105075,1.23901 0.01751,0.582291 0.01751,1.133934 v 0.9807 h -0.753038 v -0.993834 q 0,-1.466672 -0.153234,-2.596228 -0.148856,-1.129557 -0.577913,-2.013938 l 0.687366,-0.245175 q 0.100697,0.271444 0.183881,0.477216 0.08756,0.201394 0.183882,0.472837 0.192637,0.534132 0.455325,0.722391 0.267065,0.183881 0.753037,0.183881 0.345872,0 0.529753,-0.148856 0.183881,-0.153234 0.253931,-0.389653 0.07005,-0.236419 0.07005,-0.499106 0,-0.192638 -0.02189,-0.367763 -0.02189,-0.175125 -0.04816,-0.328359 z m 1.063884,3.699516 q 0,-0.359007 0.170747,-0.652341 0.175125,-0.293335 0.468459,-0.464081 0.293335,-0.175125 0.652341,-0.175125 0.359006,0 0.652341,0.175125 0.293334,0.170746 0.464081,0.464081 0.175125,0.293334 0.175125,0.652341 0,0.359006 -0.175125,0.65234 -0.170747,0.293335 -0.464081,0.46846 -0.293335,0.170746 -0.652341,0.170746 -0.359006,0 -0.652341,-0.170746 -0.293334,-0.175125 -0.468459,-0.46846 -0.170747,-0.293334 -0.170747,-0.65234 z m 0.669853,0 q 0,0.258309 0.179503,0.44219 0.183882,0.179503 0.442191,0.179503 0.258309,0 0.437813,-0.179503 0.183881,-0.183881 0.183881,-0.44219 0,-0.25831 -0.183881,-0.437813 -0.179504,-0.183881 -0.437813,-0.183881 -0.258309,0 -0.442191,0.183881 -0.179503,0.179503 -0.179503,0.437813 z m 4.426284,2.092743 h -0.753037 v -0.993834 q 0,-1.466672 -0.153235,-2.596228 -0.148856,-1.129557 -0.577912,-2.013938 l 0.691744,-0.249553 q 0.464081,1.028859 0.626071,2.224088 0.166369,1.19085 0.166369,2.648765 z m 4.899121,-3.226678 q -0.293334,0 -0.5604,-0.118209 -0.267065,-0.122588 -0.4203,-0.402788 -0.148856,0.275822 -0.4203,0.39841 -0.271444,0.122587 -0.477215,0.122587 -0.148857,0 -0.267066,-0.0088 -0.113831,-0.01313 -0.2802,-0.07005 0.04816,0.503484 0.07005,0.880003 0.02627,0.376519 0.03502,0.718013 0.0088,0.337115 0.0088,0.726768 v 0.9807 h -0.753037 v -0.993834 q 0,-1.466672 -0.153235,-2.596228 -0.148856,-1.129557 -0.577912,-2.013938 l 0.687365,-0.245175 q 0.135722,0.345872 0.227663,0.595425 0.09194,0.245175 0.218906,0.556022 0.113831,0.2802 0.262688,0.49035 0.148856,0.21015 0.468459,0.214528 0.315225,0 0.459703,-0.192637 0.148857,-0.192638 0.153235,-0.796819 l 0.0044,-0.5604 0.7005,-0.03065 0.01751,0.512241 q 0.02189,0.626072 0.157613,0.849356 0.135722,0.218906 0.429056,0.218906 0.214528,0 0.328359,-0.144478 0.11821,-0.148856 0.166369,-0.380897 0.04816,-0.23204 0.04816,-0.485972 0,-0.192637 -0.02189,-0.380897 -0.01751,-0.192637 -0.04378,-0.341493 l 0.753037,-0.06567 q 0.02627,0.288956 0.02627,0.573534 0,0.525375 -0.113831,0.9807 -0.109453,0.455325 -0.380897,0.735525 -0.271444,0.275822 -0.753038,0.275822 z"
         id="path11" />
    </g>
    <path
       id="path3"
       d="m 204.63086,28.3468 h -97.44684 c -4.40188,0 -7.97022,-3.56833 -7.97022,-7.97021 v -40.75318 c 0,-4.40188 3.56834,-7.97021 7.97022,-7.97021 h 97.44684 c 4.40189,0 7.97021,3.56833 7.97021,7.97021 v 40.75318 c 0,4.40188 -3.56832,7.97021 -7.97021,7.97021 z"
       style="fill:#f5ebff;fill-opacity:1;fill-rule:nonzero;stroke:#663399;stroke-width:0.3985;stroke-linecap:butt;stroke-linejoin:miter;stroke-miterlimit:10;stroke-dasharray:none;stroke-opacity:1"
       transform="matrix(1.3333333,0,0,-1.3333333,95.781333,57.988)" />
    <g
       id="text3"
       transform="matrix(1.3333333,0,0,1.3333333,269.87867,44.822667)"
       aria-label="یﺎﺗدﻮﮐﯽﺧﺎﮐﯽﺣﺎﻨﺟﻪﯿﻠﻋحﺎﻨﺟﺮﮕﯾدنورد)(مﺎﻈﻧ">
      <path
         style="font-weight:800;font-size:9.9626px;font-family:Vazirmatn"
         d="m 46.660304,2.4517335 q -1.045878,0 -1.726916,-0.3988931 -0.676172,-0.3988932 -1.002097,-1.08965937 -0.325925,-0.69076619 -0.325925,-1.55665621 0,-0.57888152 0.126478,-1.19667942 0.126479,-0.6226625 0.364842,-1.2404605 l 1.182086,0.4524032 q -0.179989,0.5156424 -0.301603,1.006962 -0.121613,0.4913197 -0.121613,0.91940011 0,0.46699686 0.165394,0.85616092 0.165395,0.38916405 0.559424,0.62266248 0.394028,0.23349839 1.07993,0.23349839 0.739412,0 1.230731,-0.17025923 0.49132,-0.16539472 0.734547,-0.3940286 0.243228,-0.22863388 0.243228,-0.40375771 0,-0.14107197 -0.175124,-0.14107197 h -0.788057 q -0.248092,0 -0.520507,-0.0486455 -0.26755,-0.04864551 -0.501049,-0.20917568 -0.233498,-0.16053017 -0.379435,-0.48159052 -0.141072,-0.32106039 -0.141072,-0.86102549 0,-0.5059132 0.165395,-0.9729101 0.165395,-0.4718614 0.471861,-0.8415673 0.311332,-0.3697058 0.744277,-0.5886106 0.432945,-0.2189048 0.97291,-0.2189048 0.364841,0 0.715089,0.1118847 0.355112,0.1070201 0.65185,0.3210603 l -0.447539,1.2404604 q -0.252957,-0.1410719 -0.486455,-0.194582 -0.228634,-0.058375 -0.423216,-0.058375 -0.525372,0 -0.822109,0.3453831 -0.296738,0.3405186 -0.296738,0.8512964 0,0.1313428 0.0827,0.1653947 0.08756,0.034052 0.21404,0.034052 h 0.710224 q 0.559424,0 0.875619,0.1751238 0.321061,0.1751238 0.452404,0.48645504 0.136207,0.30646669 0.136207,0.7004953 0,0.69563074 -0.398893,1.27451226 -0.398893,0.5788815 -1.162628,0.9242646 -0.763734,0.3453831 -1.858258,0.3453831 z M 41.080665,-6.8201 h 1.313429 v 4.4461993 q 0,0.5156423 0.150801,0.7442762 0.150801,0.2237694 0.622663,0.2237694 h 0.121613 V 0 H 43.167558 Q 42.077898,0 41.57685,-0.56428788 41.080665,-1.1285758 41.080665,-2.2571515 Z m -3.424644,0.5253714 0.826974,0.8172446 0.817245,-0.8172446 0.831838,0.8269737 -0.831838,0.8367027 -0.817245,-0.8269736 -0.826974,0.8269736 -0.826973,-0.8367027 z M 38.132747,0 h -0.987503 v -1.4058551 h 0.992368 q 0.369706,0 0.505913,-0.2286339 0.141072,-0.2334985 0.141072,-0.5886107 0,-0.3307894 -0.0827,-0.7199535 -0.07783,-0.3940286 -0.16053,-0.768599 l 1.274512,-0.3307894 q 0.09243,0.4572678 0.145936,0.909671 0.05837,0.4475386 0.05837,0.8561609 0,0.6469852 -0.175124,1.1626276 -0.175124,0.51564237 -0.58861,0.81724451 Q 38.847836,0 38.132747,0 Z m -4.193242,-1.3912615 q 0.398893,0 0.778328,-0.05351 0.3843,-0.058375 0.632392,-0.2140403 0.252957,-0.1556656 0.252957,-0.4524032 0,-0.3064667 -0.296738,-0.6518498 -0.291873,-0.3502476 -0.778328,-0.6859016 -0.481591,-0.335654 -1.050743,-0.6032043 l 0.59834,-1.2647832 q 0.515642,0.2529567 1.006962,0.5691525 0.496184,0.3113312 0.890212,0.6956307 0.398894,0.3842995 0.632392,0.8512964 0.238363,0.4669968 0.238363,1.0312847 0,0.7783281 -0.355112,1.25505408 -0.350248,0.47672596 -0.987504,0.69076619 -0.637256,0.21404023 -1.488552,0.21404023 -0.389164,0 -0.724818,-0.02432275 -0.335654,-0.02918731 -0.656715,-0.10215557 V -1.537198 q 0.316196,0.063239 0.676173,0.1070201 0.364841,0.038916 0.632391,0.038916 z M 29.9603,-4.0229834 q 0.612933,0 1.041014,0.3648413 0.42808,0.3648413 0.671308,0.963181 0.243227,0.5934752 0.291873,1.289106 h 0.364841 V 0 h -0.462132 q -0.27728,1.1091176 -1.08966,1.7415091 -0.81238,0.6372562 -2.218235,0.909671 l -0.48159,-1.298835 Q 28.690652,1.2355959 29.211159,1.0410138 29.73653,0.84643182 30.096507,0.58374608 30.461348,0.32106034 30.582962,0 h -0.457268 q -0.982639,0 -1.498281,-0.40862226 -0.515643,-0.4134868 -0.515643,-1.33288684 0,-0.3599768 0.111885,-0.7540054 0.111885,-0.3988931 0.340519,-0.7442762 0.228634,-0.3502477 0.574017,-0.5642879 0.350247,-0.2189048 0.822109,-0.2189048 z m 0.16053,2.6171283 h 0.622662 q -0.02919,-0.2724149 -0.116749,-0.5594234 -0.0827,-0.2870085 -0.248092,-0.4815905 -0.16053,-0.194582 -0.42808,-0.194582 -0.228634,0 -0.364842,0.1459365 -0.131343,0.141072 -0.189717,0.3405186 -0.05351,0.194582 -0.05351,0.3599767 0,0.2578212 0.21404,0.3259249 0.218905,0.063239 0.564288,0.063239 z m -5.287764,-3.0889897 q 0.65185,0.389164 1.152899,0.7637344 0.505913,0.3697059 0.792921,0.7977864 0.287009,0.4280804 0.287009,0.9875037 0,0.7637345 -0.350248,1.1869504 Q 26.3654,-0.335654 25.733008,-0.16539472 25.100616,0 24.259049,0 h -1.18695 v -1.4058551 h 1.182086 q 0.778328,0 1.167492,-0.1070202 0.389164,-0.1118846 0.389164,-0.4524032 0,-0.1605301 -0.238363,-0.3697058 -0.238363,-0.2140402 -0.59834,-0.4475387 -0.355112,-0.238363 -0.729683,-0.4669968 -0.369705,-0.2334985 -0.64212,-0.4280805 -0.204311,-0.1459365 -0.311332,-0.3891641 -0.102155,-0.2432275 -0.102155,-0.4961841 0,-0.2724149 0.126478,-0.5107778 0.126479,-0.238363 0.394029,-0.3453831 l 3.755433,-1.5323335 v 1.3912615 z M 22.521937,2.500379 q -1.070201,0 -1.746373,-0.4134868 -0.671308,-0.4134868 -0.992369,-1.10911752 -0.316196,-0.69076619 -0.316196,-1.53719801 0,-0.48159047 0.09243,-1.00696197 0.09729,-0.5253715 0.301602,-1.0702012 l 1.182086,0.4280805 q -0.145937,0.4232159 -0.233499,0.8415673 -0.08756,0.41835132 -0.08756,0.78805717 0,0.47186142 0.165395,0.85129637 0.170259,0.3842995 0.564288,0.60806883 0.394029,0.22863393 1.070201,0.22863393 0.773464,0 1.240461,-0.16053022 0.466996,-0.16053017 0.676172,-0.35997675 0.21404,-0.19944658 0.21404,-0.31133124 0,-0.17025928 -0.165394,-0.22376933 Q 24.326685,0 23.971573,0 h -0.768599 q -0.199446,0 -0.252956,-0.10215556 -0.05351,-0.10215557 -0.102156,-0.27241484 l -0.209176,-0.7540054 q -0.03405,-0.1216137 -0.02432,-0.1994465 0.01459,-0.077833 0.189717,-0.077833 H 25.74227 V 0 h 0.03892 q 0.04378,0.17025927 0.04378,0.27241484 0,0.59347518 -0.394029,1.09938846 -0.389164,0.5107778 -1.128575,0.8172445 -0.734547,0.3113312 -1.780426,0.3113312 z m -7.33088,-9.3010208 0.87562,0.8756191 -0.87562,0.8707546 -0.870754,-0.8707546 z m -3.030615,5.3947867 h 0.826974 q 0.627527,0 1.167492,-0.1167493 0.539965,-0.1216137 1.109118,-0.3599767 0.574017,-0.238363 1.303699,-0.5934752 -0.749141,-0.2724148 -1.211273,-0.4572677 -0.462132,-0.1897175 -0.632391,-0.1897175 -0.262686,0 -0.476726,0.1653947 -0.209176,0.1605302 -0.345384,0.3405185 l -0.257821,0.3259249 -1.089659,-0.5351005 0.218905,-0.3502477 q 0.345383,-0.5642879 0.826973,-0.9339937 0.481591,-0.3745704 1.128576,-0.3745704 0.272415,0 0.632392,0.1264783 0.364841,0.1264783 0.778328,0.3161958 0.418351,0.1848529 0.861025,0.3745704 0.447539,0.1848529 0.880484,0.3161958 0.437809,0.1313429 0.836703,0.1362074 v 1.2891059 q -0.369706,0.048645 -0.685902,0.1653948 -0.316196,0.1118846 -0.656714,0.2870084 -0.340519,0.1751239 -0.792922,0.4183514 -0.622663,0.33078945 -1.177221,0.56915243 -0.549695,0.23836299 -1.133441,0.3648413 Q 13.692776,0 12.972822,0 h -0.81238 z M 10.146519,-6.8201 h 1.313429 v 4.4461993 q 0,0.5156423 0.150801,0.7442762 0.150801,0.2237694 0.622663,0.2237694 h 0.121613 V 0 H 12.233412 Q 11.143752,0 10.642704,-0.56428788 10.146519,-1.1285758 10.146519,-2.2571515 Z m -3.5413926,2.3252552 q 0.6518498,0.389164 1.1528986,0.7637344 0.5059132,0.3697059 0.7929217,0.7977864 0.2870085,0.4280804 0.2870085,0.9875037 0,0.7637345 -0.3502476,1.1869504 Q 8.1374599,-0.335654 7.5050683,-0.16539472 6.8726767,0 6.0311095,0 H 4.8441591 v -1.4058551 h 1.1820858 q 0.7783281,0 1.1674922,-0.1070202 0.389164,-0.1118846 0.389164,-0.4524032 0,-0.1605301 -0.238363,-0.3697058 Q 7.1061752,-2.5490245 6.7461984,-2.782523 6.3910862,-3.020886 6.0165158,-3.2495198 5.64681,-3.4830183 5.3743951,-3.6776003 5.170084,-3.8235368 5.0630639,-4.0667644 4.9609083,-4.3099919 4.9609083,-4.5629485 q 0,-0.2724149 0.1264783,-0.5107778 0.1264784,-0.238363 0.3940286,-0.3453831 l 3.7554332,-1.5323335 v 1.3912615 z"
         id="path12" />
      <path
         style="font-size:8.9664px;font-family:Vazirmatn"
         d="m 61.701972,14.209734 q -0.945675,0 -1.514831,-0.345872 -0.564778,-0.345871 -0.81871,-0.923784 -0.249553,-0.573534 -0.249553,-1.2609 0,-0.297712 0.04378,-0.687366 0.04816,-0.389653 0.214528,-0.888759 l 0.696122,0.258309 q -0.126966,0.437813 -0.166369,0.774929 -0.03503,0.337115 -0.03503,0.569156 0,0.472837 0.166369,0.86249 0.166368,0.389654 0.564778,0.621694 0.402787,0.232041 1.098909,0.232041 0.656719,0 1.125178,-0.161991 0.472838,-0.16199 0.722391,-0.385275 0.253931,-0.223284 0.253931,-0.407165 0,-0.21015 -0.183881,-0.359007 -0.179503,-0.148856 -0.586669,-0.148856 H 62.38496 q -0.08756,0 -0.126966,-0.07443 -0.0394,-0.07881 -0.07443,-0.201394 l -0.11821,-0.4203 q -0.0044,-0.03503 0.01751,-0.06567 0.02189,-0.03503 0.07881,-0.03503 h 2.42986 v 0.796819 h -0.179504 q 0.06567,0.131344 0.08319,0.249553 0.02189,0.11821 0.02189,0.245175 0,0.288956 -0.170746,0.595425 -0.166369,0.310847 -0.516619,0.573535 -0.345872,0.262687 -0.875625,0.424678 -0.529753,0.16199 -1.252144,0.16199 z m -9.110881,-3.051553 h 0.744281 q 0.512241,0 0.941297,-0.09194 0.429057,-0.09194 0.836222,-0.253932 0.411544,-0.16199 0.858113,-0.380897 0.450947,-0.223284 1.006969,-0.4772152 Q 56.667126,9.8403655 56.334388,9.7090218 56.001651,9.5732999 55.69956,9.4550905 55.401848,9.3368811 55.178563,9.262453 q -0.223284,-0.078806 -0.315225,-0.078806 -0.267066,0 -0.472837,0.1576125 -0.201394,0.1532343 -0.372141,0.3721406 l -0.118209,0.1488562 -0.669854,-0.3283593 0.06567,-0.105075 q 0.288957,-0.4684594 0.669853,-0.7486594 0.385275,-0.2845782 0.901894,-0.2845782 0.214528,0 0.516619,0.1094532 0.306469,0.1094531 0.665475,0.2758218 0.359006,0.1619907 0.744281,0.3327376 0.385275,0.1663687 0.77055,0.2845781 0.385275,0.1138312 0.735525,0.1269656 v 0.7574155 q -0.2802,0.03065 -0.718012,0.205772 -0.433435,0.170747 -1.129556,0.538509 -0.5604,0.297713 -1.041994,0.507863 -0.477216,0.205772 -0.976322,0.315225 Q 53.939554,11.955 53.322238,11.955 H 52.591091 Z M 51.001835,5.9263217 h 0.739903 v 4.1854873 q 0,0.617316 0.227662,0.831844 0.227663,0.214528 0.687366,0.214528 h 0.109453 V 11.955 h -0.109453 q -0.836222,0 -1.247766,-0.442191 -0.407165,-0.446568 -0.407165,-1.405378 z m -2.364186,3.4412063 0.731147,-0.087563 0.07005,1.0244815 q 0.05254,0.853734 0.888759,0.853734 h 0.09194 V 11.955 h -0.100697 q -0.485972,0 -0.779306,-0.175125 -0.288956,-0.175125 -0.46846,-0.494728 -0.236418,0.345872 -0.621693,0.507862 Q 48.064115,11.955 47.643815,11.955 h -0.4203 v -0.796819 h 0.4203 q 0.556022,0 0.79244,-0.249553 0.240797,-0.249553 0.240797,-0.766172 0,-0.2101499 -0.01313,-0.3984092 -0.0088,-0.1882594 -0.02627,-0.3765188 z m 0.08318,-2.1803063 0.634829,0.6348282 -0.634829,0.6348281 -0.634828,-0.6348281 z m -4.500715,5.4376313 0.634828,0.634828 -0.634828,0.634828 -0.634828,-0.634828 z m -3.003394,-1.466672 h 0.744282 q 0.51224,0 0.941297,-0.09194 0.429056,-0.09194 0.836221,-0.253932 0.411544,-0.16199 0.858113,-0.380897 0.450947,-0.223284 1.006969,-0.4772152 Q 45.292759,9.8403655 44.960021,9.7090218 44.627284,9.5732999 44.325193,9.4550905 44.027481,9.3368811 43.804196,9.262453 q -0.223284,-0.078806 -0.315225,-0.078806 -0.267065,0 -0.472837,0.1576125 -0.201394,0.1532343 -0.372141,0.3721406 l -0.118209,0.1488562 -0.669853,-0.3283593 0.06567,-0.105075 q 0.288956,-0.4684594 0.669853,-0.7486594 0.385275,-0.2845782 0.901893,-0.2845782 0.214529,0 0.516619,0.1094532 0.306469,0.1094531 0.665475,0.2758218 0.359007,0.1619907 0.744282,0.3327376 0.385275,0.1663687 0.77055,0.2845781 0.385275,0.1138312 0.735525,0.1269656 v 0.7574155 q -0.2802,0.03065 -0.718013,0.205772 -0.433434,0.170747 -1.129556,0.538509 -0.5604,0.297713 -1.041994,0.507863 -0.477216,0.205772 -0.976322,0.315225 Q 42.565187,11.955 41.947871,11.955 H 41.216724 Z M 43.64161,11.955 q -0.643585,0 -1.002591,-0.302091 -0.354628,-0.30209 -0.459703,-0.831843 -0.253932,0.253931 -0.551644,0.389653 -0.293334,0.135722 -0.661097,0.135722 -0.626072,0 -1.05075,-0.337116 -0.424678,-0.337116 -0.424678,-0.932541 0,-0.674231 0.551644,-1.164581 0.551643,-0.4947281 1.733737,-0.8581125 l -0.03065,-0.21015 0.7005,-0.1401 0.380897,2.6881685 q 0.05254,0.385275 0.249553,0.577913 0.201394,0.188259 0.582291,0.188259 h 0.135722 V 11.955 Z M 42.004191,9.752803 q 0,-0.1357219 -0.01751,-0.2583094 L 41.877225,8.7633467 q -0.849356,0.3064688 -1.239009,0.6041813 -0.385275,0.2977125 -0.385275,0.652341 0,0.288956 0.197015,0.437812 0.197016,0.148856 0.534132,0.148856 0.258309,0 0.49035,-0.100696 0.236418,-0.100697 0.380896,-0.293335 0.148857,-0.192637 0.148857,-0.459703 z m -6.295746,1.405378 h 0.661097 q 0.556022,0 0.792441,-0.249553 0.240796,-0.249553 0.240796,-0.766172 0,-0.2101499 -0.01313,-0.3984092 -0.0088,-0.1882594 -0.02627,-0.3765188 l 0.731147,-0.087563 0.07005,1.0244815 q 0.05254,0.853734 0.88876,0.853734 h 0.09194 V 11.955 h -0.100697 q -0.485972,0 -0.779306,-0.175125 -0.288956,-0.175125 -0.468459,-0.494728 -0.236419,0.345872 -0.621694,0.507862 Q 36.789842,11.955 36.369542,11.955 h -0.661097 z m 1.580503,1.492941 0.612938,0.608559 -0.612938,0.617316 -0.608559,-0.617316 z m -1.453537,0 0.612937,0.608559 -0.612937,0.617316 -0.60856,-0.617316 z M 34.127946,10.037381 V 5.9263217 h 0.739904 v 4.1241943 q 0,0.481593 0.188259,0.796818 0.192637,0.310847 0.696122,0.310847 h 0.1401 V 11.955 h -0.131344 q -0.49035,0 -0.779306,-0.170747 -0.288956,-0.170747 -0.459703,-0.494728 -0.144478,0.214528 -0.293335,0.363384 -0.144478,0.148857 -0.37214,0.227663 -0.223285,0.07443 -0.612938,0.07443 h -0.376519 v -0.796819 h 0.367763 q 0.367762,0 0.556022,-0.144478 0.192637,-0.148856 0.262687,-0.402787 0.07443,-0.253932 0.07443,-0.573535 z m -4.592654,1.1208 q -0.197015,-0.245175 -0.337115,-0.599803 -0.135722,-0.359006 -0.135722,-0.7180125 0,-0.4684594 0.245175,-0.8493562 0.245175,-0.3808969 0.643584,-0.6041813 0.39841,-0.2232844 0.858113,-0.2232844 0.696122,0 1.49294,0.5428875 l -0.293334,0.6523407 q -0.682988,-0.4027876 -1.151447,-0.4027876 -0.402787,0 -0.713634,0.2495532 -0.310847,0.2495531 -0.310847,0.665475 0,0.3239816 0.144478,0.5735346 0.148856,0.249553 0.315225,0.389653 0.166369,0.135722 0.223284,0.135722 0.07881,0 0.153235,-0.02189 l 1.851947,-0.44219 v 0.796818 Q 31.43102,11.635397 30.502858,11.797387 29.579074,11.955 28.668424,11.955 h -0.477216 v -0.796819 z m 0.625686,-1.8782155 v 0.7530375 q -1.265278,0.100697 -2.232844,0.464081 -0.967566,0.363385 -1.514831,0.923785 -0.542888,0.5604 -0.542888,1.2609 0,1.536722 2.2416,1.536722 0.494728,0 1.011347,-0.100697 0.520997,-0.09632 0.971944,-0.306469 l 0.197015,0.731147 q -0.459703,0.214528 -1.05075,0.323981 -0.586668,0.113831 -1.195228,0.113831 -0.8406,0 -1.501697,-0.240797 -0.656718,-0.236418 -1.037615,-0.739903 -0.376519,-0.499106 -0.376519,-1.278412 0,-0.722391 0.363384,-1.348463 0.367763,-0.63045 1.103288,-1.098909 0.739903,-0.4728376 1.851947,-0.7180126 -0.359007,-0.1488563 -0.709257,-0.2889563 -0.345871,-0.1401 -0.608559,-0.2320406 -0.258309,-0.096319 -0.363384,-0.096319 -0.267066,0 -0.477216,0.1401001 -0.21015,0.1357218 -0.411544,0.3896531 l -0.118209,0.1488562 -0.669853,-0.3283593 0.06567,-0.105075 q 0.315225,-0.5078626 0.704878,-0.7705501 0.394031,-0.2626875 0.91065,-0.2626875 0.271444,0 0.665475,0.1663688 0.398409,0.1663687 0.86249,0.385275 0.464082,0.2189062 0.941297,0.3940313 0.481594,0.1707468 0.919407,0.1838812 z M 23.015877,5.9263217 h 0.739903 v 4.1854873 q 0,0.617316 0.227662,0.831844 0.227663,0.214528 0.687366,0.214528 h 0.109453 V 11.955 h -0.109453 q -0.836222,0 -1.247766,-0.442191 -0.407165,-0.446568 -0.407165,-1.405378 z m -2.364186,3.4412063 0.731147,-0.087563 0.07005,1.0244815 q 0.05254,0.853734 0.888759,0.853734 h 0.09194 V 11.955 h -0.100697 q -0.485972,0 -0.779306,-0.175125 -0.288957,-0.175125 -0.46846,-0.494728 -0.236418,0.345872 -0.621693,0.507862 Q 20.078157,11.955 19.657857,11.955 h -0.4203 v -0.796819 h 0.4203 q 0.556021,0 0.79244,-0.249553 0.240797,-0.249553 0.240797,-0.766172 0,-0.2101499 -0.01313,-0.3984092 -0.0088,-0.1882594 -0.02627,-0.3765188 z m 0.08318,-2.1803063 0.634828,0.6348282 -0.634828,0.6348281 -0.634828,-0.6348281 z m -4.500713,5.4376313 0.634828,0.634828 -0.634828,0.634828 -0.634828,-0.634828 z m -3.003394,-1.466672 h 0.744282 q 0.51224,0 0.941296,-0.09194 0.429057,-0.09194 0.836222,-0.253932 0.411544,-0.16199 0.858113,-0.380897 Q 17.061628,10.208128 17.61765,9.9541968 17.306803,9.8403655 16.974065,9.7090218 16.641328,9.5732999 16.339237,9.4550905 16.041525,9.3368811 15.81824,9.262453 q -0.223284,-0.078806 -0.315225,-0.078806 -0.267065,0 -0.472837,0.1576125 -0.201394,0.1532343 -0.372141,0.3721406 l -0.118209,0.1488562 -0.669853,-0.3283593 0.06567,-0.105075 q 0.288957,-0.4684594 0.669854,-0.7486594 0.385275,-0.2845782 0.901893,-0.2845782 0.214528,0 0.516619,0.1094532 0.306469,0.1094531 0.665475,0.2758218 0.359006,0.1619907 0.744281,0.3327376 0.385275,0.1663687 0.77055,0.2845781 0.385275,0.1138312 0.735525,0.1269656 v 0.7574155 q -0.2802,0.03065 -0.718012,0.205772 -0.433435,0.170747 -1.129556,0.538509 -0.5604,0.297713 -1.041994,0.507863 -0.477216,0.205772 -0.976322,0.315225 Q 14.579231,11.955 13.961915,11.955 H 13.230768 Z M 15.69068,11.955 q -0.30209,0 -0.507862,-0.07881 -0.201394,-0.08319 -0.315225,-0.175125 -0.06567,0.573534 -0.319603,1.107665 -0.249554,0.53851 -0.753038,0.936919 -0.503484,0.398409 -1.33095,0.5604 l -0.258309,-0.691744 q 1.068262,-0.23204 1.506075,-0.814331 0.437812,-0.577912 0.437812,-1.370353 0,-0.372141 -0.08318,-0.779306 -0.07881,-0.411544 -0.223285,-0.8362222 l 0.726769,-0.245175 0.236419,0.9150282 q 0.09632,0.367762 0.306469,0.520997 0.21015,0.153234 0.529753,0.153234 H 15.80889 V 11.955 Z M 8.0377172,6.6530905 V 6.1714967 L 11.365092,4.8230342 v 0.4815937 z m 0.6041813,1.0551281 q 0.4991062,0.35025 0.9544312,0.6961219 0.4597033,0.3414937 0.8274653,0.7442813 0.367763,0.3984093 0.582291,0.9281622 0.232041,0.564778 0.49035,0.823088 0.258309,0.258309 0.726769,0.258309 h 0.122587 V 11.955 h -0.122587 q -0.485972,0 -0.827466,-0.188259 -0.337116,-0.18826 -0.604181,-0.599804 -0.175125,0.25831 -0.429056,0.433435 -0.249554,0.175125 -0.6567192,0.267065 Q 9.3029953,11.955 8.659411,11.955 H 7.5911484 v -0.796819 h 1.0638844 q 0.8493563,0 1.2171188,-0.148856 0.3677624,-0.153234 0.3677624,-0.604181 0,-0.288957 -0.205772,-0.5647785 Q 9.8327485,9.5645436 9.5087672,9.297478 9.1891641,9.0260343 8.8214016,8.7677249 8.4536391,8.5050374 8.1296578,8.2511061 7.9895578,8.1372749 7.9151297,7.9840405 7.8407016,7.8308061 7.8407016,7.6731936 q 0,-0.1795031 0.096319,-0.3371156 Q 8.0377172,7.1784655 8.2478672,7.0952811 L 11.395739,5.8168686 V 6.5917967 Z M 4.7891488,11.158181 h 0.9500531 q 0.4378125,0 0.5910469,-0.253931 0.1576125,-0.253931 0.1576125,-0.643584 0,-0.2845786 -0.052537,-0.6085599 Q 6.3827863,9.3281249 6.3214926,8.9997655 L 7.0832863,8.807128 q 0.074428,0.35025 0.1182094,0.6873656 0.043781,0.3371157 0.043781,0.6435844 0,0.525375 -0.1444781,0.936919 Q 6.9563207,11.486541 6.6279613,11.722959 6.2996019,11.955 5.7479582,11.955 H 4.7891488 Z m 1.5805031,1.492941 0.6129375,0.608559 -0.6129375,0.617316 -0.6085594,-0.617316 z m -1.4535375,0 0.6129375,0.608559 L 4.9161144,13.876997 4.307555,13.259681 Z M 2.0221737,11.166937 q 1.6812,0 1.6812,-0.871246 0,-0.4115442 -0.4203,-0.8712474 -0.4203,-0.4597031 -1.3922438,-0.9894562 L 2.2367018,7.7432436 q 1.1251781,0.5735344 1.6680657,1.2127406 0.5472656,0.6348282 0.5472656,1.3265718 0,0.823088 -0.5691563,1.243388 -0.5647781,0.4203 -1.7950313,0.4203 -0.5866687,0 -1.0595062,-0.105075 v -0.792441 q 0.5735344,0.118209 0.9938344,0.118209 z"
         id="path13" />
      <path
         style="font-size:8.9664px;font-family:Vazirmatn"
         d="m 40.240172,23.910999 h -0.713635 v -0.796818 h 0.704879 q 0.437812,0 0.591046,-0.253932 0.157613,-0.253931 0.157613,-0.643584 0,-0.284578 -0.05254,-0.608559 Q 40.875,21.284124 40.813706,20.955765 L 41.5755,20.763127 q 0.07443,0.35025 0.118209,0.687366 0.04378,0.337116 0.04378,0.643584 0,0.525375 -0.144478,0.936919 -0.144479,0.411544 -0.472838,0.647963 -0.328359,0.23204 -0.880003,0.23204 z m 0.534131,-5.166187 0.634828,0.634828 -0.634828,0.634828 -0.634828,-0.634828 z m -3.239812,1.965778 q 0.682987,0 1.151446,0.612937 0.46846,0.60856 0.485972,1.790654 h 0.529753 v 0.796818 h -0.599803 q -0.09632,0.503485 -0.385275,0.971944 -0.284578,0.472838 -0.849356,0.831844 -0.564778,0.363384 -1.497319,0.542887 L 36.1116,25.561552 q 1.983291,-0.380896 2.298516,-1.650553 h -0.691744 q -1.65931,0 -1.65931,-1.344084 0,-0.429056 0.170747,-0.858113 0.175125,-0.429056 0.503485,-0.713634 0.332737,-0.284578 0.801197,-0.284578 z m 0.1401,2.403591 h 0.774928 q -0.05254,-0.844979 -0.2802,-1.230254 -0.223285,-0.385275 -0.647963,-0.385275 -0.2802,0 -0.44219,0.179504 -0.157613,0.179503 -0.223285,0.424678 -0.06129,0.240797 -0.06129,0.437812 0,0.306469 0.205772,0.442191 0.21015,0.131344 0.674232,0.131344 z m -5.037786,3.15225 -0.25831,-0.696122 q 1.068263,-0.232041 1.506075,-0.814332 0.437813,-0.577912 0.437813,-1.370353 0,-0.37214 -0.08319,-0.779306 -0.07881,-0.411544 -0.223284,-0.836222 l 0.726769,-0.245175 q 0.315225,0.897516 0.315225,1.72936 0,0.731146 -0.25831,1.35284 -0.253931,0.626072 -0.79244,1.059506 -0.534132,0.437813 -1.370353,0.599804 z m -2.368567,-3.143494 q 1.6812,0 1.6812,-0.871247 0,-0.411544 -0.4203,-0.871247 -0.4203,-0.459703 -1.392243,-0.989456 l 0.345871,-0.691744 q 1.125179,0.573534 1.668066,1.212741 0.547266,0.634828 0.547266,1.326572 0,0.823087 -0.569157,1.243387 -0.564778,0.4203 -1.795031,0.4203 -0.586669,0 -1.059506,-0.105075 v -0.792441 q 0.573534,0.11821 0.993834,0.11821 z m -3.125981,-1.79941 q 0,0.823088 0.175125,1.615529 0.175125,0.788062 0.51224,1.431646 0.341494,0.643585 0.840601,1.024482 l -0.166369,0.534131 q -0.485972,-0.262688 -0.880003,-0.731147 -0.394032,-0.468459 -0.67861,-1.085775 -0.2802,-0.612937 -0.433434,-1.326572 -0.153235,-0.713634 -0.153235,-1.462294 0,-0.748659 0.153235,-1.462293 0.153234,-0.713635 0.433434,-1.326572 0.284578,-0.617316 0.67861,-1.085775 0.394031,-0.46846 0.880003,-0.731147 l 0.166369,0.534131 q -0.499107,0.380897 -0.840601,1.024481 -0.337115,0.643585 -0.51224,1.436025 -0.175125,0.788063 -0.175125,1.61115 z m -0.337921,0 q 0,-0.823087 -0.175125,-1.61115 -0.170747,-0.79244 -0.51224,-1.436025 -0.341494,-0.643584 -0.8406,-1.024481 l 0.166368,-0.534131 q 0.485972,0.262687 0.880003,0.731147 0.394032,0.468459 0.674232,1.085775 0.284578,0.612937 0.437812,1.326572 0.153235,0.713634 0.153235,1.462293 0,0.74866 -0.153235,1.462294 -0.153234,0.713635 -0.437812,1.326572 -0.2802,0.617316 -0.674232,1.085775 -0.394031,0.468459 -0.880003,0.731147 l -0.166368,-0.534131 q 0.499106,-0.380897 0.8406,-1.024482 0.341493,-0.643584 0.51224,-1.431646 0.175125,-0.792441 0.175125,-1.615529 z M 21.33168,22.60194 q 0.245175,-0.853734 0.639206,-1.339706 0.398409,-0.49035 1.085775,-0.49035 0.464081,0 0.827465,0.236418 0.363385,0.236419 0.573535,0.652341 0.214528,0.411544 0.214528,0.950053 0,0.591047 -0.328359,0.9807 -0.323982,0.389653 -1.006969,0.389653 -0.25831,0 -0.525375,-0.08318 -0.262688,-0.08318 -0.507863,-0.188259 -0.240797,-0.109454 -0.44219,-0.192638 -0.201394,-0.08318 -0.337116,-0.08318 -0.245175,0 -0.372141,0.16199 -0.122587,0.157613 -0.166368,0.53851 -0.0394,0.380897 -0.0394,1.055128 0,0.297712 0.0044,0.529753 0.0088,0.236419 0.02189,0.464081 0.01751,0.227663 0.03503,0.516619 h -0.753037 q -0.02189,-0.402788 -0.03502,-0.757416 -0.01314,-0.35025 -0.01314,-0.709256 0,-0.49035 0.02627,-0.932541 0.03065,-0.44219 0.135722,-0.796818 0.109453,-0.359007 0.337116,-0.591047 0.227662,-0.236419 0.626072,-0.310847 z m 2.600606,0.0044 q 0,-0.450947 -0.240797,-0.753037 -0.240797,-0.306469 -0.617316,-0.306469 -0.271443,0 -0.459703,0.170747 -0.188259,0.166368 -0.315225,0.44219 -0.126965,0.271444 -0.223284,0.582291 0.477215,0.21015 0.79244,0.332737 0.319604,0.11821 0.477216,0.11821 0.293334,0 0.437813,-0.157613 0.148856,-0.16199 0.148856,-0.429056 z m -5.83604,-4.723997 h 0.739903 v 4.185488 q 0,0.617315 0.227663,0.831843 0.227662,0.214529 0.687365,0.214529 h 0.109454 v 0.796818 h -0.109454 q -0.836221,0 -1.247765,-0.44219 -0.407166,-0.446569 -0.407166,-1.405378 z m -3.069066,0.367763 0.634828,0.634828 -0.634828,0.634828 -0.634828,-0.634828 z m 0.06129,2.132146 q 0.494728,0 0.875625,0.218907 0.385275,0.214528 0.604181,0.586669 0.218907,0.37214 0.218907,0.8406 -0.0044,0.5604 -0.341494,1.00259 0.122587,0.03065 0.328359,0.05692 0.21015,0.02627 0.60856,0.02627 h 0.131343 v 0.796818 H 17.38699 q -0.556022,0 -0.919407,-0.113831 -0.359006,-0.113831 -0.604181,-0.315225 -0.359006,0.201394 -0.945675,0.315225 -0.586669,0.113831 -1.361597,0.113831 h -2.267869 v -0.796818 h 0.744282 q 0.08318,-0.1401 0.175125,-0.275822 0.09194,-0.1401 0.175125,-0.275822 v -4.680216 h 0.739903 v 3.638222 q 0.472837,-0.569156 0.950053,-0.853734 0.481594,-0.284579 1.015725,-0.284579 z m 0.01751,0.796819 q -1.05075,0 -2.276626,1.935132 h 0.709257 q 1.247765,0 1.860703,-0.249554 0.612937,-0.249553 0.612937,-0.79244 0,-0.385275 -0.249553,-0.639206 -0.249553,-0.253932 -0.656718,-0.253932 z m -5.6609168,2.73195 H 8.7314358 V 23.114181 H 9.436314 q 0.4378125,0 0.591047,-0.253932 0.157612,-0.253931 0.157612,-0.643584 0,-0.284578 -0.05254,-0.608559 -0.05254,-0.323982 -0.113831,-0.652341 l 0.761793,-0.192638 q 0.07443,0.35025 0.11821,0.687366 0.04378,0.337116 0.04378,0.643584 0,0.525375 -0.144478,0.936919 -0.144478,0.411544 -0.472838,0.647963 -0.328359,0.23204 -0.8800028,0.23204 z M 9.9792015,18.744812 10.61403,19.37964 9.9792015,20.014468 9.3443733,19.37964 Z"
         id="path14" />
    </g>
    <path
       id="path6"
       d="m 360.53831,28.3468 h -97.44683 c -4.40189,0 -7.97022,-3.56833 -7.97022,-7.97021 v -40.75318 c 0,-4.40188 3.56833,-7.97021 7.97022,-7.97021 h 97.44683 c 4.40189,0 7.97022,3.56833 7.97022,7.97021 v 40.75318 c 0,4.40188 -3.56833,7.97021 -7.97022,7.97021 z"
       style="fill:#f5ebff;fill-opacity:1;fill-rule:nonzero;stroke:#663399;stroke-width:0.3985;stroke-linecap:butt;stroke-linejoin:miter;stroke-miterlimit:10;stroke-dasharray:none;stroke-opacity:1"
       transform="matrix(1.3333333,0,0,-1.3333333,95.781333,57.988)" />
    <g
       id="text6"
       transform="matrix(1.3333333,0,0,1.3333333,468.476,45.601333)"
       aria-label="یﺎﺗدﻮﮐاﺮﮔ حﻼﺻایاﺮﺑهﺰﯿﺗاﺮﮐﻮﻣدندﺮﮐلﺎﻐﺗﺮﭘ)(۱۹۷۴">
      <path
         style="font-weight:800;font-size:9.9626px;font-family:Vazirmatn"
         d="m 59.657565,2.4517335 q -1.045878,0 -1.726916,-0.3988931 -0.676172,-0.3988932 -1.002097,-1.08965937 -0.325925,-0.69076619 -0.325925,-1.55665621 0,-0.57888152 0.126478,-1.19667942 0.126479,-0.6226625 0.364842,-1.2404605 l 1.182086,0.4524032 q -0.179989,0.5156424 -0.301603,1.006962 -0.121613,0.4913197 -0.121613,0.91940011 0,0.46699686 0.165394,0.85616092 0.165395,0.38916405 0.559424,0.62266248 0.394028,0.23349839 1.07993,0.23349839 0.739412,0 1.230731,-0.17025923 0.49132,-0.16539472 0.734547,-0.3940286 0.243228,-0.22863388 0.243228,-0.40375771 0,-0.14107197 -0.175124,-0.14107197 H 60.90289 q -0.248092,0 -0.520507,-0.0486455 -0.26755,-0.04864551 -0.501049,-0.20917568 -0.233498,-0.16053017 -0.379435,-0.48159052 -0.141072,-0.32106039 -0.141072,-0.86102549 0,-0.5059132 0.165395,-0.9729101 0.165395,-0.4718614 0.471861,-0.8415673 0.311332,-0.3697058 0.744277,-0.5886106 0.432945,-0.2189048 0.97291,-0.2189048 0.364841,0 0.715089,0.1118847 0.355112,0.1070201 0.65185,0.3210603 l -0.447539,1.2404604 q -0.252957,-0.1410719 -0.486455,-0.194582 -0.228634,-0.058375 -0.423216,-0.058375 -0.525371,0 -0.822109,0.3453831 -0.296738,0.3405186 -0.296738,0.8512964 0,0.1313428 0.0827,0.1653947 0.08756,0.034052 0.21404,0.034052 h 0.710224 q 0.559424,0 0.875619,0.1751238 0.321061,0.1751238 0.452404,0.48645504 0.136207,0.30646669 0.136207,0.7004953 0,0.69563074 -0.398893,1.27451226 -0.398893,0.5788815 -1.162628,0.9242646 -0.763734,0.3453831 -1.858258,0.3453831 z M 54.077926,-6.8201 h 1.313429 v 4.4461993 q 0,0.5156423 0.150801,0.7442762 0.150801,0.2237694 0.622663,0.2237694 h 0.121613 V 0 H 56.164819 Q 55.075159,0 54.574111,-0.56428788 54.077926,-1.1285758 54.077926,-2.2571515 Z m -3.424644,0.5253714 0.826974,0.8172446 0.817245,-0.8172446 0.831838,0.8269737 -0.831838,0.8367027 -0.817245,-0.8269736 -0.826974,0.8269736 -0.826973,-0.8367027 z M 51.130008,0 h -0.987503 v -1.4058551 h 0.992368 q 0.369706,0 0.505913,-0.2286339 0.141072,-0.2334985 0.141072,-0.5886107 0,-0.3307894 -0.0827,-0.7199535 -0.07783,-0.3940286 -0.16053,-0.768599 l 1.274512,-0.3307894 q 0.09243,0.4572678 0.145937,0.909671 0.05837,0.4475386 0.05837,0.8561609 0,0.6469852 -0.175124,1.1626276 -0.175124,0.51564237 -0.58861,0.81724451 Q 51.845097,0 51.130008,0 Z m -4.193242,-1.3912615 q 0.398894,0 0.778328,-0.05351 0.3843,-0.058375 0.632392,-0.2140403 0.252957,-0.1556656 0.252957,-0.4524032 0,-0.3064667 -0.296738,-0.6518498 -0.291873,-0.3502476 -0.778328,-0.6859016 -0.481591,-0.335654 -1.050743,-0.6032043 l 0.59834,-1.2647832 q 0.515642,0.2529567 1.006962,0.5691525 0.496184,0.3113312 0.890213,0.6956307 0.398893,0.3842995 0.632391,0.8512964 0.238363,0.4669968 0.238363,1.0312847 0,0.7783281 -0.355112,1.25505408 -0.350248,0.47672596 -0.987504,0.69076619 -0.637256,0.21404023 -1.488552,0.21404023 -0.389164,0 -0.724818,-0.02432275 -0.335654,-0.02918731 -0.656715,-0.10215557 V -1.537198 q 0.316196,0.063239 0.676173,0.1070201 0.364841,0.038916 0.632391,0.038916 z m -3.979203,-2.6317219 q 0.612933,0 1.041013,0.3648413 0.428081,0.3648413 0.671308,0.963181 0.243228,0.5934752 0.291874,1.289106 h 0.364841 V 0 h -0.462133 q -0.277279,1.1091176 -1.089659,1.7415091 -0.81238,0.6372562 -2.218235,0.909671 l -0.48159,-1.298835 Q 41.687915,1.2355959 42.208422,1.0410138 42.733793,0.84643182 43.09377,0.58374608 43.458611,0.32106034 43.580225,0 h -0.457268 q -0.982639,0 -1.498281,-0.40862226 -0.515643,-0.4134868 -0.515643,-1.33288684 0,-0.3599768 0.111885,-0.7540054 0.111885,-0.3988931 0.340519,-0.7442762 0.228633,-0.3502477 0.574017,-0.5642879 0.350247,-0.2189048 0.822109,-0.2189048 z m 0.16053,2.6171283 h 0.622662 q -0.02919,-0.2724149 -0.116749,-0.5594234 -0.0827,-0.2870085 -0.248092,-0.4815905 -0.16053,-0.194582 -0.42808,-0.194582 -0.228634,0 -0.364842,0.1459365 -0.131343,0.141072 -0.189717,0.3405186 -0.05351,0.194582 -0.05351,0.3599767 0,0.2578212 0.21404,0.3259249 0.218905,0.063239 0.564288,0.063239 z m -5.287768,-3.0889897 q 0.65185,0.389164 1.152899,0.7637344 0.505913,0.3697059 0.792921,0.7977864 0.287009,0.4280804 0.287009,0.9875037 0,0.7637345 -0.350248,1.1869504 -0.350247,0.4232159 -0.982639,0.59347518 Q 38.097875,0 37.256308,0 h -1.18695 v -1.4058551 h 1.182086 q 0.778328,0 1.167492,-0.1070202 0.389164,-0.1118846 0.389164,-0.4524032 0,-0.1605301 -0.238363,-0.3697058 -0.238363,-0.2140402 -0.59834,-0.4475387 -0.355112,-0.238363 -0.729682,-0.4669968 -0.369706,-0.2334985 -0.642121,-0.4280805 -0.204311,-0.1459365 -0.311331,-0.3891641 -0.102156,-0.2432275 -0.102156,-0.4961841 0,-0.2724149 0.126478,-0.5107778 0.126479,-0.238363 0.394029,-0.3453831 l 3.755433,-1.5323335 v 1.3912615 z M 37.975794,-6.8201 v 6.81523545 H 36.662366 V -6.8201 Z M 35.279549,0 Q 34.836875,0 34.549867,-0.17025927 34.355285,0.94858738 33.59155,1.67827 32.83268,2.4079526 31.563032,2.6511801 l -0.48159,-1.298835 q 0.70536,-0.1508011 1.211273,-0.40375772 0.510778,-0.24809208 0.788057,-0.66644344 0.27728,-0.41835136 0.27728,-1.07993025 0,-0.44267409 -0.141072,-0.99236829 -0.141072,-0.5545588 -0.301602,-1.0312848 l 1.308564,-0.4232159 0.282144,1.0993885 q 0.0827,0.3113312 0.243227,0.5253714 0.16053,0.2140403 0.476726,0.2140403 h 0.189718 V 0 Z m -7.277367,-5.8228671 v -0.7394117 l 3.95488,-1.6101663 v 0.7394117 z m 1.386397,1.3280223 q 0.65185,0.389164 1.152899,0.7637344 0.505913,0.3697059 0.792922,0.7977864 0.287008,0.4280804 0.287008,0.9875037 0,0.7637345 -0.350247,1.1869504 -0.350248,0.4232159 -0.98264,0.59347518 Q 29.65613,0 28.814562,0 h -1.18695 v -1.4058551 h 1.182086 q 0.778328,0 1.167492,-0.1070202 0.389164,-0.1118846 0.389164,-0.4524032 0,-0.1605301 -0.238363,-0.3697058 -0.238363,-0.2140402 -0.59834,-0.4475387 -0.355112,-0.238363 -0.729682,-0.4669968 -0.369706,-0.2334985 -0.642121,-0.4280805 -0.204311,-0.1459365 -0.311331,-0.3891641 -0.102156,-0.2432275 -0.102156,-0.4961841 0,-0.2724149 0.126479,-0.5107778 0.126478,-0.238363 0.394028,-0.3453831 l 3.755433,-1.5323335 v 1.3912615 z m -7.096911,1.0410138 -0.0049,1.2599187 q -0.617798,0.05351 -1.284242,0.194582 -0.661578,0.1362074 -1.284241,0.3648413 -0.622662,0.2237693 -1.123711,0.5448297 -0.496184,0.31619574 -0.792922,0.72968255 -0.291873,0.40862226 -0.291873,0.91453553 0,0.47186142 0.277279,0.79292172 0.282144,0.3210604 0.75887,0.4815905 0.481591,0.1653948 1.084795,0.1653948 0.685902,0 1.308564,-0.1313429 0.622663,-0.1264783 1.118847,-0.3210603 l 0.394029,1.3182932 q -0.656715,0.2626857 -1.366939,0.3794349 -0.710225,0.1216138 -1.400991,0.1216138 -0.943723,0 -1.717186,-0.2821439 -0.773464,-0.2772794 -1.235596,-0.8902128 -0.457268,-0.6129334 -0.457268,-1.60530172 0,-0.7004953 0.262686,-1.26964772 0.262686,-0.56915246 0.719953,-1.00209746 0.457268,-0.4378095 1.045879,-0.7491408 0.58861,-0.3113312 1.235596,-0.4913196 -0.457268,-0.194582 -0.778328,-0.3161958 -0.321061,-0.1216138 -0.452404,-0.1216138 -0.26755,0 -0.48159,0.1653948 -0.209176,0.1605301 -0.350248,0.3453831 l -0.257821,0.3210603 -1.089659,-0.530236 0.218904,-0.3551122 q 0.345384,-0.5642879 0.831839,-0.9339937 0.486455,-0.3697059 1.13344,-0.3697059 0.26755,0 0.627527,0.1264783 0.364841,0.1264783 0.778328,0.3161958 0.418351,0.1848529 0.861026,0.3745704 0.442674,0.1848529 0.880483,0.3161958 0.43781,0.1313429 0.831838,0.1362074 z m -9.403178,1.8436647 q 0.841568,-0.3551122 0.841568,-1.8339356 V -6.8201 h 1.303699 v 3.6338193 q 0,0.432945 0.04378,0.8464318 0.04865,0.4086223 0.209176,0.671308 0.165395,0.2626858 0.505913,0.2626858 h 0.179989 V 0 H 15.778034 Q 15.174829,0 14.780801,-0.27727939 14.391637,-0.55942333 14.182461,-1.0020974 13.70087,-0.51077782 12.932271,-0.25295663 12.168537,0 11.224814,0 10.962128,0 10.704307,-0.0194582 10.451351,-0.03891641 10.188665,-0.05837461 V -1.4155842 q 0.301602,0.019458 0.603204,0.043781 0.306467,0.019458 0.530236,0.019458 0.08756,0 0.16053,0 0.07783,0 0.145937,-0.00486 0,0 -0.0681,-0.3064667 -0.06324,-0.3064667 -0.189717,-0.8172445 -0.121614,-0.5156424 -0.301602,-1.148034 -0.175124,-0.6323916 -0.398894,-1.2939705 -0.223769,-0.6615789 -0.486455,-1.2501895 l 1.19668,-0.5205069 q 0.26755,0.6226625 0.496184,1.3231578 0.228634,0.6956307 0.413487,1.3620742 0.189717,0.6664434 0.32106,1.2112731 0.136208,0.5399651 0.204311,0.86589 z m -9.0334701,0.014594 q 0.3307895,-0.5448297 0.7004953,-1.050743 0.3697059,-0.5059132 0.7880572,-0.9048064 0.4183514,-0.3988931 0.8902128,-0.627527 0.4718614,-0.2334984 1.006962,-0.2334984 0.6177979,0 1.0896593,0.2626857 0.476726,0.2626857 0.7442763,0.7199535 0.2724148,0.4572677 0.2724148,1.0458784 0,0.6859016 -0.291873,1.1480339 -0.2918731,0.45726779 -0.81238,0.72968263 Q 7.7223377,-0.23349843 7.0315715,-0.11674922 6.3456699,0 5.5527481,0 H 5.2949269 Q 4.4874115,0 3.9036654,-0.14107197 3.3199193,-0.28700849 2.9599426,-0.63239159 2.6875278,-0.335654 2.3129574,-0.16539472 1.938387,0 1.3886927,0 H 1.1892462 l 0.00486,-1.4058551 h 0.194582 q 0.5788816,0 0.768599,-0.1799884 0.1945821,-0.1848529 0.1945821,-0.6761726 0,-0.2772793 -0.019458,-0.5448296 -0.014594,-0.2724149 -0.034052,-0.5302361 l 1.2161377,-0.150801 0.092426,1.3863969 q 0.019458,0.194582 0.077833,0.3405186 0.063239,0.1410719 0.1702593,0.1653947 z M 7.274799,-3.0306151 q -0.3745704,0 -0.7540053,0.238363 -0.379435,0.2334985 -0.7248181,0.6080689 -0.3453831,0.3697058 -0.627527,0.7783281 h 0.4426741 q 0.6567143,0 1.2161377,-0.063239 0.5642879,-0.068104 0.9048064,-0.2578212 0.3405185,-0.1897175 0.3405185,-0.5642879 0,-0.335654 -0.2286338,-0.5351005 Q 7.6201821,-3.0306151 7.274799,-3.0306151 Z M 0.62495877,-6.8201 v 6.81523545 H -0.68846991 V -6.8201 Z"
         id="path15" />
      <path
         style="font-size:8.9664px;font-family:Vazirmatn"
         d="m 56.440038,11.158181 h 0.950053 q 0.437813,0 0.591047,-0.253931 0.157613,-0.253931 0.157613,-0.643584 0,-0.2845786 -0.05254,-0.6085599 -0.05254,-0.3239812 -0.113831,-0.6523406 L 58.734176,8.807128 q 0.07443,0.35025 0.118209,0.6873656 0.04378,0.3371157 0.04378,0.6435844 0,0.525375 -0.144478,0.936919 -0.144478,0.411544 -0.472837,0.647962 Q 57.950491,11.955 57.398848,11.955 h -0.95881 z m 1.580503,1.492941 0.612938,0.608559 -0.612938,0.617316 -0.608559,-0.617316 z m -1.453537,0 0.612937,0.608559 -0.612937,0.617316 -0.60856,-0.617316 z m -1.70747,-6.7248003 h 0.739903 v 4.1854873 q 0,0.617316 0.227663,0.831844 0.227662,0.214528 0.687365,0.214528 h 0.109454 V 11.955 h -0.109454 q -0.836221,0 -1.247765,-0.442191 -0.407166,-0.446568 -0.407166,-1.405378 z M 53.54932,11.955 q -0.302091,0 -0.507863,-0.07881 -0.201393,-0.08319 -0.315225,-0.175125 -0.06567,0.573534 -0.319603,1.107665 -0.249553,0.53851 -0.753037,0.936919 -0.503485,0.398409 -1.33095,0.5604 l -0.25831,-0.691744 q 1.068263,-0.23204 1.506075,-0.814331 0.437813,-0.577912 0.437813,-1.370353 0,-0.372141 -0.08318,-0.779306 -0.07881,-0.411544 -0.223285,-0.8362222 l 0.726769,-0.245175 0.236419,0.9150282 q 0.09632,0.367762 0.306468,0.520997 0.21015,0.153234 0.529754,0.153234 h 0.166368 V 11.955 Z m -5.144296,0 h -0.805575 v -0.796819 h 0.796819 q 0.437813,0 0.591047,-0.253931 0.157613,-0.253931 0.157613,-0.643584 0,-0.2845786 -0.05254,-0.6085599 -0.05254,-0.3239812 -0.113831,-0.6523406 L 49.740353,8.807128 q 0.07443,0.35025 0.118209,0.6873656 0.04378,0.3371157 0.04378,0.6435844 0,0.525375 -0.144478,0.936919 -0.144478,0.411544 -0.472837,0.647962 Q 48.956668,11.955 48.405024,11.955 Z m 0.09632,0.669853 0.634828,0.634828 -0.634828,0.634828 -0.634828,-0.634828 z M 47.410592,8.7151874 47.239845,8.561953 47.703926,7.9621499 q 0.577913,0.4772156 1.015725,0.8931375 0.442191,0.4115437 0.691744,0.8099531 0.249553,0.3940315 0.249553,0.8187095 0,0.665475 -0.455325,1.059506 -0.455325,0.394031 -1.199606,0.394031 -0.761794,0 -1.208363,-0.37214 -0.446568,-0.376519 -0.446568,-0.954431 0,-0.507863 0.271443,-0.9456755 0.271444,-0.4421906 0.788063,-0.9500531 z m 1.506075,1.7337376 q 0,-0.201394 -0.148856,-0.411544 -0.144479,-0.214528 -0.367763,-0.424678 -0.218906,-0.2145281 -0.446569,-0.4115437 -0.402787,0.385275 -0.63045,0.6917437 -0.227662,0.302091 -0.227662,0.634828 0,0.253931 0.214528,0.442191 0.214528,0.188259 0.691744,0.188259 0.481593,0 0.696122,-0.175125 0.218906,-0.175125 0.218906,-0.534131 z M 43.57231,7.4499092 44.207138,8.0847374 43.57231,8.7195655 42.937481,8.0847374 Z M 45.196594,11.955 q -0.302091,0 -0.507863,-0.07881 -0.201393,-0.08319 -0.315225,-0.175125 -0.06567,0.573534 -0.319603,1.107665 -0.249553,0.53851 -0.753037,0.936919 -0.503485,0.398409 -1.33095,0.5604 l -0.25831,-0.691744 q 1.068263,-0.23204 1.506075,-0.814331 0.437813,-0.577912 0.437813,-1.370353 0,-0.372141 -0.08318,-0.779306 -0.07881,-0.411544 -0.223285,-0.8362222 l 0.726769,-0.245175 0.236419,0.9150282 q 0.09632,0.367762 0.306468,0.520997 0.21015,0.153234 0.529754,0.153234 h 0.166368 V 11.955 Z m -6.781718,-0.796819 h 0.661097 q 0.556022,0 0.792441,-0.249553 0.240797,-0.249553 0.240797,-0.766172 0,-0.2101499 -0.01314,-0.3984092 -0.0088,-0.1882594 -0.02627,-0.3765188 l 0.731147,-0.087563 0.07005,1.0244815 q 0.05254,0.853734 0.888759,0.853734 h 0.09194 V 11.955 h -0.100697 q -0.485972,0 -0.779307,-0.175125 -0.288956,-0.175125 -0.468459,-0.494728 -0.236419,0.345872 -0.621694,0.507862 Q 39.496273,11.955 39.075973,11.955 h -0.661097 z m 1.580504,1.492941 0.612937,0.608559 -0.612937,0.617316 -0.60856,-0.617316 z m -1.453538,0 0.612938,0.608559 -0.612938,0.617316 -0.608559,-0.617316 z m -0.941296,-5.8360409 0.612937,0.6085594 -0.612937,0.6173156 -0.60856,-0.6173156 z m -1.453538,0 0.612938,0.6085594 -0.612938,0.6173156 -0.608559,-0.6173156 z m -0.472837,4.3430999 h 0.897515 q 0.437813,0 0.591047,-0.253931 0.157613,-0.253931 0.157613,-0.643584 0,-0.2845786 -0.05254,-0.6085599 -0.05254,-0.3239812 -0.113831,-0.6523406 L 37.915771,8.807128 q 0.07443,0.35025 0.118209,0.6873656 0.04378,0.3371157 0.04378,0.6435844 0,0.525375 -0.144478,0.936919 -0.144478,0.411544 -0.472837,0.647962 Q 37.132086,11.955 36.580442,11.955 H 35.674171 Z M 35.09188,5.9263217 V 11.950622 H 34.351977 V 5.9263217 Z M 33.032795,11.955 q -0.302091,0 -0.507863,-0.07881 -0.201394,-0.08319 -0.315225,-0.175125 -0.06567,0.573534 -0.319603,1.107665 -0.249553,0.53851 -0.753037,0.936919 -0.503485,0.398409 -1.33095,0.5604 l -0.25831,-0.691744 q 1.068263,-0.23204 1.506075,-0.814331 0.437813,-0.577912 0.437813,-1.370353 0,-0.372141 -0.08319,-0.779306 -0.07881,-0.411544 -0.223284,-0.8362222 l 0.726769,-0.245175 0.236418,0.9150282 q 0.09632,0.367762 0.306469,0.520997 0.21015,0.153234 0.529753,0.153234 h 0.166369 V 11.955 Z M 27.415661,7.7082186 q 0.380897,0.2670656 0.792441,0.5647781 0.411544,0.2933344 0.766172,0.63045 0.359006,0.3327376 0.577912,0.7136344 0.223285,0.3765188 0.223285,0.8055749 -0.0044,0.814331 -0.564779,1.173338 Q 28.654671,11.955 27.433174,11.955 h -1.068263 v -0.796819 h 1.063885 q 0.849356,0 1.217118,-0.148856 0.367763,-0.153234 0.367763,-0.604181 0,-0.288957 -0.205772,-0.5647785 Q 28.606511,9.5645436 28.28253,9.297478 27.962927,9.0260343 27.595164,8.7677249 27.227402,8.5050374 26.903421,8.2511061 q -0.1401,-0.1138312 -0.214529,-0.2670656 -0.07443,-0.1532344 -0.07443,-0.3064688 0,-0.1795031 0.09632,-0.3371156 0.100697,-0.1619906 0.310847,-0.245175 l 3.147872,-1.2784125 v 0.7749281 z m -3.042797,1.0463719 q 0.682988,0 1.151447,0.6129375 0.468459,0.6085594 0.485972,1.790653 h 0.529753 V 11.955 h -0.599803 q -0.09632,0.503484 -0.385275,0.971944 -0.284578,0.472837 -0.849356,0.831843 -0.564778,0.363385 -1.497319,0.542888 l -0.258309,-0.696122 q 1.98329,-0.380897 2.298515,-1.650553 h -0.691744 q -1.659309,0 -1.659309,-1.344084 0,-0.429057 0.170747,-0.858113 0.175125,-0.4290562 0.503484,-0.7136344 0.332738,-0.2845781 0.801197,-0.2845781 z m 0.1401,2.4035905 h 0.774928 q -0.05254,-0.844978 -0.2802,-1.230253 -0.223284,-0.385275 -0.647962,-0.385275 -0.2802,0 -0.442191,0.1795031 -0.157612,0.1795032 -0.223284,0.4246779 -0.06129,0.240797 -0.06129,0.437813 0,0.306469 0.205772,0.44219 0.21015,0.131344 0.674231,0.131344 z m -3.861506,0.897516 q -0.437812,0 -0.809953,-0.18826 Q 19.473742,11.6748 19.075333,11.289525 18.790755,11.609128 18.528067,11.784253 18.26538,11.955 17.788164,11.955 h -0.192637 v -0.796819 h 0.170747 q 0.293334,0 0.494728,-0.166369 0.201394,-0.170746 0.359006,-0.437812 0.157613,-0.267066 0.310847,-0.5647782 0.157612,-0.3020907 0.35025,-0.5691563 0.192637,-0.2670656 0.464081,-0.4334344 0.275822,-0.1707469 0.67861,-0.1707469 0.485971,0 0.844978,0.2364188 0.363384,0.2320406 0.5604,0.6260719 0.201393,0.3940311 0.201393,0.8800031 0,0.713634 -0.363384,1.107666 -0.359006,0.389653 -1.015725,0.389653 z m -0.21015,-2.4648846 q -0.218906,0 -0.398409,0.1488562 -0.179503,0.1444782 -0.323982,0.3765184 -0.144478,0.232041 -0.258309,0.481594 0.262688,0.275822 0.542888,0.450947 0.359006,0.232041 0.639206,0.232041 0.647962,0 0.647962,-0.652341 0,-0.455325 -0.227662,-0.7442812 -0.223285,-0.2933344 -0.621694,-0.2933344 z m -5.621512,1.5761246 q 1.6812,0 1.6812,-0.871246 0,-0.4115442 -0.4203,-0.8712474 -0.4203,-0.4597031 -1.392243,-0.9894562 l 0.345871,-0.6917438 q 1.125179,0.5735344 1.668066,1.2127406 0.547266,0.6348282 0.547266,1.3265718 0,0.823088 -0.569156,1.243388 -0.564779,0.4203 -1.795032,0.4203 -0.586669,0 -1.059506,-0.105075 v -0.792441 q 0.573534,0.118209 0.993834,0.118209 z M 13.864768,11.955 h -0.713634 v -0.796819 h 0.704878 q 0.437812,0 0.591047,-0.253931 0.157612,-0.253931 0.157612,-0.643584 0,-0.2845786 -0.05254,-0.6085599 -0.05254,-0.3239812 -0.113832,-0.6523406 L 15.200096,8.807128 q 0.07443,0.35025 0.11821,0.6873656 0.04378,0.3371157 0.04378,0.6435844 0,0.525375 -0.144478,0.936919 -0.144478,0.411544 -0.472838,0.647962 Q 14.416412,11.955 13.864768,11.955 Z m 0.534131,-5.1661877 0.634828,0.6348282 -0.634828,0.6348281 -0.634828,-0.6348281 z m -2.972747,3.5725497 q 0,-0.113831 -0.05254,-0.293334 -0.04816,-0.1838812 -0.11821,-0.3414937 L 10.480477,7.9709061 11.163465,7.651303 12.157299,9.9892218 q 0.201394,0.4728372 0.35025,0.7267692 0.153234,0.253931 0.297713,0.35025 0.148856,0.09194 0.337115,0.09194 h 0.183881 V 11.955 h -0.183881 q -0.345872,0 -0.564778,-0.08318 -0.214528,-0.08319 -0.372141,-0.249554 -0.157612,-0.166368 -0.319603,-0.4203 -0.306468,0.385275 -0.783684,0.569157 -0.472838,0.179503 -1.1820939,0.179503 -0.3064688,0 -0.5516438,-0.02627 -0.245175,-0.03065 -0.4640812,-0.08318 v -0.792441 q 0.5034844,0.118209 0.9500531,0.118209 1.5717468,0 1.5717468,-0.805575 z M 7.7498572,11.955 q -0.3020906,0 -0.5078625,-0.07881 -0.2013938,-0.08319 -0.315225,-0.175125 -0.065672,0.573534 -0.3196032,1.107665 -0.2495531,0.53851 -0.7530375,0.936919 -0.5034844,0.398409 -1.33095,0.5604 L 4.2648696,13.614309 q 1.0682625,-0.23204 1.5060751,-0.814331 0.4378125,-0.577912 0.4378125,-1.370353 0,-0.372141 -0.083184,-0.779306 Q 6.0467665,10.238775 5.9022884,9.8140968 L 6.6290572,9.5689218 6.8654759,10.48395 q 0.096319,0.367762 0.3064688,0.520997 0.21015,0.153234 0.5297531,0.153234 H 7.8680666 V 11.955 Z M 2.1327232,7.7082186 Q 2.51362,7.9752842 2.9251638,8.2729967 3.3367075,8.5663311 3.6913357,8.9034467 4.0503419,9.2361843 4.2692482,9.6170811 4.4925326,9.9935999 4.4925326,10.422656 4.4881544,11.236987 3.9277544,11.595994 3.3717325,11.955 2.1502357,11.955 H 1.0819731 v -0.796819 h 1.0638844 q 0.8493563,0 1.2171188,-0.148856 0.3677625,-0.153234 0.3677625,-0.604181 0,-0.288957 -0.2057719,-0.5647785 Q 3.3235732,9.5645436 2.9995919,9.297478 2.6799888,9.0260343 2.3122263,8.7677249 1.9444638,8.5050374 1.6204825,8.2511061 1.4803825,8.1372749 1.4059544,7.9840405 1.3315263,7.8308061 1.3315263,7.6775717 q 0,-0.1795031 0.096319,-0.3371156 0.1006969,-0.1619906 0.3108469,-0.245175 L 4.8865638,5.8168686 v 0.7749281 z"
         id="path16" />
      <path
         style="font-size:8.9664px;font-family:Vazirmatn"
         d="m 37.889165,23.403137 q 0,1.383487 -0.591047,2.03145 -0.591047,0.647962 -1.724981,0.647962 -0.814332,0 -1.326572,-0.293334 -0.512241,-0.288956 -0.753038,-0.809953 -0.240797,-0.520997 -0.240797,-1.208363 0,-0.464081 0.09632,-0.950053 0.09632,-0.49035 0.262688,-0.954431 l 0.696121,0.2802 q -0.126965,0.402787 -0.214528,0.827466 -0.08756,0.424678 -0.08756,0.823087 0,0.709256 0.359006,1.103288 0.363384,0.394031 1.208363,0.394031 0.783684,0 1.177715,-0.429056 0.39841,-0.429057 0.39841,-1.383488 v -5.599622 h 0.739903 z m -6.746692,-5.520816 h 0.739903 v 4.185488 q 0,0.617315 0.227663,0.831843 0.227662,0.214529 0.687365,0.214529 h 0.109454 v 0.796818 h -0.109454 q -0.836221,0 -1.247765,-0.44219 -0.407166,-0.446569 -0.407166,-1.405378 z m -3.090954,0.525375 0.634828,0.634828 -0.634828,0.634828 -0.634828,-0.634828 z m 0.01313,2.079609 q 0.337116,0 0.696122,0.05692 0.359006,0.05254 0.665475,0.153234 0.310847,0.100697 0.503484,0.245175 0.192638,0.144479 0.192638,0.323982 0,0.126965 -0.135722,0.35025 -0.131344,0.223284 -0.341494,0.481594 -0.205772,0.258309 -0.433434,0.499106 -0.227663,0.236419 -0.415922,0.402787 0.306469,0.07881 0.582291,0.09632 0.275821,0.01751 0.499106,0.01751 h 0.682987 v 0.796818 h -0.678609 q -0.459703,0 -0.919406,-0.109453 -0.455325,-0.109453 -0.897516,-0.363384 -0.288956,0.166369 -0.669853,0.271444 -0.376519,0.105075 -0.761794,0.153234 -0.380897,0.04816 -0.687365,0.04816 h -0.691744 v -0.796818 h 0.696122 q 0.148856,0 0.398409,-0.0044 0.253931,-0.0088 0.520997,-0.03065 0.271444,-0.02627 0.472837,-0.07881 -0.188259,-0.166368 -0.415921,-0.402787 -0.227663,-0.240797 -0.437813,-0.499106 -0.205772,-0.25831 -0.341494,-0.481594 -0.135722,-0.223285 -0.135722,-0.35025 0,-0.179503 0.18826,-0.323982 0.188259,-0.144478 0.494728,-0.245175 0.310847,-0.100696 0.669853,-0.153234 0.359006,-0.05692 0.7005,-0.05692 z m 0,0.753038 q -0.197016,0 -0.564778,0.03065 -0.363384,0.03065 -0.687366,0.1401 0.284578,0.359006 0.573535,0.643584 0.288956,0.284578 0.481593,0.455325 0.197016,0.166369 0.197016,0.166369 0,0 0.197016,-0.166369 0.197015,-0.170747 0.49035,-0.455325 0.293334,-0.284578 0.573534,-0.643584 -0.323981,-0.109453 -0.691744,-0.1401 -0.367762,-0.03065 -0.569156,-0.03065 z M 24.43081,18.77108 25.043747,19.37964 24.43081,19.996955 23.82225,19.37964 Z m -1.453538,0 0.612938,0.60856 -0.612938,0.617315 -0.608559,-0.617315 z m -0.472837,4.343101 h 0.897515 q 0.437813,0 0.591047,-0.253932 0.157613,-0.253931 0.157613,-0.643584 0,-0.284578 -0.05254,-0.608559 -0.05254,-0.323982 -0.113831,-0.652341 l 0.761794,-0.192638 q 0.07443,0.35025 0.118209,0.687366 0.04378,0.337116 0.04378,0.643584 0,0.525375 -0.144478,0.936919 -0.144478,0.411544 -0.472837,0.647963 -0.32836,0.23204 -0.880003,0.23204 h -0.906272 z m -0.552801,0.796818 q -0.30209,0 -0.507862,-0.07881 -0.201394,-0.08318 -0.315225,-0.175125 -0.06567,0.573534 -0.319603,1.107666 -0.249554,0.538509 -0.753038,0.936918 -0.503484,0.39841 -1.33095,0.5604 l -0.258309,-0.691743 q 1.068262,-0.232041 1.506075,-0.814332 0.437812,-0.577912 0.437812,-1.370353 0,-0.37214 -0.08318,-0.779306 -0.07881,-0.411544 -0.223285,-0.836222 l 0.726769,-0.245175 0.236419,0.915028 q 0.09632,0.367763 0.306469,0.520997 0.21015,0.153235 0.529753,0.153235 h 0.166369 v 0.796818 z m -6.322013,-0.796818 h 0.950054 q 0.437812,0 0.591047,-0.253932 0.157612,-0.253931 0.157612,-0.643584 0,-0.284578 -0.05254,-0.608559 -0.05254,-0.323982 -0.113832,-0.652341 l 0.761794,-0.192638 q 0.07443,0.35025 0.118209,0.687366 0.04378,0.337116 0.04378,0.643584 0,0.525375 -0.144478,0.936919 -0.144479,0.411544 -0.472838,0.647963 -0.328359,0.23204 -0.880003,0.23204 h -0.95881 z m 1.584882,1.348462 0.591047,0.591047 -0.591047,0.591047 -0.591047,-0.591047 z m -1.497319,0 0.591047,0.591047 -0.591047,0.591047 -0.591047,-0.591047 z m 0.748659,1.107666 0.591047,0.591047 -0.591047,0.591046 -0.591047,-0.591046 z m -2.438616,-4.246782 q 0,0.823088 0.175125,1.615529 0.175125,0.788062 0.512241,1.431646 0.341493,0.643585 0.8406,1.024482 l -0.166369,0.534131 q -0.485972,-0.262688 -0.880003,-0.731147 -0.394031,-0.468459 -0.67861,-1.085775 -0.2802,-0.612937 -0.433434,-1.326572 -0.153234,-0.713634 -0.153234,-1.462294 0,-0.748659 0.153234,-1.462293 0.153234,-0.713635 0.433434,-1.326572 0.284579,-0.617316 0.67861,-1.085775 0.394031,-0.46846 0.880003,-0.731147 l 0.166369,0.534131 q -0.499107,0.380897 -0.8406,1.024481 -0.337116,0.643585 -0.512241,1.436025 -0.175125,0.788063 -0.175125,1.61115 z m -0.328954,0 q 0,-0.823087 -0.175125,-1.61115 -0.170747,-0.79244 -0.512241,-1.436025 -0.341494,-0.643584 -0.8406,-1.024481 l 0.166369,-0.534131 q 0.485972,0.262687 0.880003,0.731147 0.394031,0.468459 0.674231,1.085775 0.284578,0.612937 0.437813,1.326572 0.153234,0.713634 0.153234,1.462293 0,0.74866 -0.153234,1.462294 -0.153235,0.713635 -0.437813,1.326572 -0.2802,0.617316 -0.674231,1.085775 -0.394031,0.468459 -0.880003,0.731147 l -0.166369,-0.534131 q 0.499106,-0.380897 0.8406,-1.024482 0.341494,-0.643584 0.512241,-1.431646 0.175125,-0.792441 0.175125,-1.615529 z m 28.562887,2.587472 h -0.753037 v -0.993834 q 0,-1.466672 -0.153235,-2.596228 -0.148856,-1.129557 -0.577912,-2.013938 l 0.691743,-0.249553 q 0.464082,1.028859 0.626072,2.224088 0.166369,1.19085 0.166369,2.648765 z m 2.731951,-2.692547 q -0.814331,0 -1.234631,-0.288956 -0.415922,-0.293334 -0.415922,-1.046372 0,-0.30209 0.09632,-0.617315 0.09632,-0.315225 0.284578,-0.586669 0.188259,-0.271444 0.464081,-0.437813 0.2802,-0.166368 0.643585,-0.166368 0.604181,0 0.954431,0.323981 0.35025,0.319603 0.507862,0.93254 0.157613,0.60856 0.175125,1.479807 0.0088,0.30209 0.01313,0.696122 0.0088,0.394031 0.01751,0.823087 0.01313,0.429056 0.02627,0.8406 0.01313,0.411544 0.02627,0.739903 h -0.753038 q -0.0088,-0.337115 -0.01751,-0.748659 -0.0088,-0.411544 -0.01751,-0.818709 -0.0044,-0.407166 -0.0088,-0.735525 -0.0044,-0.32836 -0.0088,-0.49035 -0.131344,0.0394 -0.354628,0.07005 -0.223285,0.03065 -0.39841,0.03065 z m -0.02189,-0.757415 q 0.218906,0 0.429056,-0.03065 0.214528,-0.03502 0.319603,-0.07443 -0.01751,-0.411544 -0.105075,-0.757416 -0.08756,-0.345872 -0.2802,-0.556022 -0.188259,-0.21015 -0.512241,-0.21015 -0.2802,0 -0.446568,0.18826 -0.161991,0.183881 -0.236419,0.433434 -0.07005,0.245175 -0.07005,0.429056 0,0.319603 0.205772,0.450947 0.205772,0.126966 0.696122,0.126966 z m 4.548871,3.449962 q -0.175125,-1.19085 -0.507863,-2.245978 -0.328359,-1.059506 -0.704878,-1.886972 -0.376518,-0.831844 -0.696122,-1.344084 l 0.687366,-0.372141 q 0.197016,0.354628 0.424678,0.849356 0.232041,0.49035 0.459703,1.072641 0.227663,0.577913 0.415922,1.195228 0.18826,0.612938 0.297713,1.208363 0.105075,-0.595425 0.293334,-1.208363 0.18826,-0.617315 0.415922,-1.195228 0.227663,-0.582291 0.459703,-1.072641 0.232041,-0.494728 0.429056,-0.849356 l 0.687366,0.372141 q -0.315225,0.51224 -0.696122,1.344084 -0.376519,0.827466 -0.704878,1.886972 -0.328359,1.055128 -0.507862,2.245978 z m 6.610968,-5.0436 q -0.319603,0 -0.547266,0.161991 -0.227662,0.157612 -0.35025,0.415922 -0.122587,0.253931 -0.122587,0.551643 0,0.157613 0.153234,0.25831 0.153234,0.09632 0.398409,0.144478 0.245175,0.04816 0.516619,0.04816 0.306469,0 0.595425,-0.05254 0.293335,-0.05692 0.481594,-0.157613 l 0.100697,0.757416 q -0.595425,0.21015 -1.19085,0.21015 -0.516619,0 -1.020103,-0.166369 -0.503485,-0.170747 -0.831844,-0.503484 0.09194,0.7005 0.113831,1.309059 0.02189,0.604182 0.02189,1.085775 v 0.9807 h -0.753038 v -0.993834 q 0,-1.466672 -0.153234,-2.596228 -0.148856,-1.129557 -0.577913,-2.013938 l 0.691744,-0.245175 0.35025,0.932541 q 0.1401,0.367762 0.214528,0.538509 0.07443,0.166369 0.122588,0.223285 0.05254,0.05254 0.113831,0.08318 0,-0.442191 0.192638,-0.8406 0.192637,-0.402788 0.556021,-0.652341 0.363385,-0.253931 0.875625,-0.253931 0.424679,0 0.669854,0.126966 0.249553,0.122587 0.411543,0.236418 l -0.245175,0.687366 q -0.157612,-0.09632 -0.345871,-0.183881 -0.183882,-0.09194 -0.442191,-0.09194 z"
         id="path17" />
    </g>
  </g>
</svg>
