<?xml version="1.0" encoding="UTF-8" standalone="no"?>


<svg class="tikz-diagram" id="iran-action-ch6-tikz-3-d6408c47959c"
   version="1.1"
   id="svg1"
   width="572.97333"
   height="119.42667"
   viewBox="0 0 572.97333 119.42667"
   sodipodi:docname="iran-action-ch6-tikz-3-d6408c47959c.pdf"
   xmlns:inkscape="http://www.inkscape.org/namespaces/inkscape"
   xmlns:sodipodi="http://sodipodi.sourceforge.net/DTD/sodipodi-0.dtd"
   xmlns="http://www.w3.org/2000/svg"
   xmlns:svg="http://www.w3.org/2000/svg">
  <defs
     id="defs1" />
  <sodipodi:namedview
     id="namedview1"
     pagecolor="#ffffff"
     bordercolor="#000000"
     borderopacity="0.25"
     inkscape:showpageshadow="2"
     inkscape:pageopacity="0.0"
     inkscape:pagecheckerboard="0"
     inkscape:deskcolor="#d1d1d1">
    <inkscape:page
       x="0"
       y="0"
       inkscape:label="1"
       id="page1"
       width="572.97333"
       height="119.42667"
       margin="0"
       bleed="0" />
  </sodipodi:namedview>
  <g
     id="g1"
     inkscape:groupmode="layer"
     inkscape:label="1">
    <path
       id="path1"
       d="m 183.48358,28.3468 h -366.96716 c -8.25354,0 -14.94415,-6.69061 -14.94415,-14.94415 v -26.8053 c 0,-8.25354 6.69061,-14.94415 14.94415,-14.94415 h 366.96716 c 8.25354,0 14.94415,6.69061 14.94415,14.94415 v 26.8053 c 0,8.25354 -6.69061,14.94415 -14.94415,14.94415 z"
       style="fill:#e6fae6;fill-opacity:1;fill-rule:nonzero;stroke:#006633;stroke-width:2.98883;stroke-linecap:butt;stroke-linejoin:miter;stroke-miterlimit:10;stroke-dasharray:none;stroke-opacity:1"
       transform="matrix(1.3333333,0,0,-1.3333333,286.48533,59.713333)" />
    <path
       style="font-weight:800;font-size:14.3462px;font-family:Vazirmatn"
       d="m 173.52653,-10.003112 1.12781,1.1207968 -1.12781,1.1278018 -1.1278,-1.1278018 z m 1.22588,1.7862699 1.1278,1.1278019 -1.1278,1.1278018 -1.12781,-1.1278018 z m -2.44474,0 1.12079,1.1278019 -1.12079,1.1278018 -1.1278,-1.1278018 z m -5.84216,9.8139776 q 1.00872,0 1.59013,-0.3222291 0.58842,-0.32222906 0.8336,-0.87562251 0.25218,-0.55339346 0.25218,-1.25389151 0,-0.75653788 -0.24518,-1.55510568 -0.23817,-0.8055727 -0.53938,-1.5340907 l 1.87033,-0.700498 0.46933,1.4430259 q 0.16112,0.4903487 0.46934,0.8335927 0.30821,0.3362391 0.87562,0.343244 0.58141,0 0.77755,-0.2381693 0.19614,-0.2451743 0.19614,-0.8616126 0,-0.09807 -0.014,-0.357254 -0.014,-0.2661892 -0.035,-0.5814134 -0.021,-0.3152241 -0.042,-0.5674034 l 1.76525,-0.2171544 0.1401,1.8913447 q 0.028,0.4343088 0.21715,0.6864881 0.18914,0.2451743 0.63045,0.2451743 0.4203,0 0.58142,-0.2801992 0.16812,-0.2872042 0.16812,-0.8195827 0,-0.2521793 -0.028,-0.728518 -0.028,-0.4763386 -0.0631,-0.9106474 l 1.76526,-0.2171544 0.1401,2.0244393 q 0.035,0.5183686 0.2872,0.728518 0.25218,0.2031444 0.79156,0.2031444 h 0.21015 V 0 h -0.19614 q -0.64446,0 -1.1348,-0.22415937 -0.49035,-0.22415938 -0.77756,-0.60943331 -0.2872,0.35725401 -0.7145,0.59542334 Q 176.2865,0 175.68407,0 q -0.62345,0 -1.05775,-0.25918428 -0.42731,-0.25918427 -0.72152,-0.63745322 -0.35725,0.37826895 -0.81257,0.63745322 Q 172.64391,0 172.02747,0 q -0.31523,0 -0.58142,-0.09106475 -0.26618,-0.09106474 -0.48334,-0.24517431 -0.19614,1.81428996 -1.34496,2.87204196 -1.14181,1.0647571 -3.15224,1.0647571 -1.50607,0 -2.48676,-0.5744084 -0.9737,-0.5744084 -1.44303,-1.5691157 -0.46933,-0.99470719 -0.46933,-2.24159371 0,-0.83359269 0.18213,-1.72322519 0.18212,-0.8966375 0.52537,-1.78627 l 1.70221,0.6514632 q -0.25919,0.7425279 -0.43431,1.4500309 -0.17512,0.707503 -0.17512,1.32394132 0,0.67247813 0.23817,1.23287656 0.23816,0.56039844 0.80557,0.89663752 0.5674,0.336239 1.5551,0.336239 z m -10.54949,-11.3900982 1.2609,1.2608965 -1.2609,1.2538915 -1.25389,-1.2538915 z m 5.07861,5.1626706 v 1.8282999 q -0.40629,0.04203 -0.82659,0.1891345 -0.41329,0.1400996 -0.72151,0.2801992 0.13309,0.1961395 0.64446,0.2521793 0.51837,0.05604 1.13481,0.05604 h 0.38527 V 0 h -0.41329 q -1.28192,0 -2.06647,-0.33623906 -0.77756,-0.34324404 -1.06476,-1.27490644 -1.29592,0.69349306 -2.59184,1.15582177 Q 154.18579,0 152.72175,0 h -1.16983 v -2.0244394 h 1.19084 q 0.90365,0 1.67419,-0.1681195 0.77756,-0.1751245 1.60414,-0.5183685 0.82659,-0.3432441 1.87734,-0.8546077 -1.07877,-0.3992838 -1.74424,-0.6654731 -0.66547,-0.2661893 -0.91065,-0.2661893 -0.37827,0 -0.68649,0.2381694 -0.30121,0.2311643 -0.49735,0.4903486 l -0.37126,0.4693337 -1.56912,-0.7705478 0.31522,-0.5043586 q 0.49736,-0.8125778 1.19085,-1.3449563 0.69349,-0.5393835 1.62516,-0.5393835 0.39228,0 0.91064,0.1821295 0.52538,0.1821295 1.1208,0.4553237 0.60243,0.2661893 1.23988,0.5393835 0.64446,0.2661893 1.2679,0.4553238 0.63045,0.1891344 1.20486,0.1961394 z M 148.39968,0 h -1.2609 v -2.0244394 h 1.26791 q 0.53237,0 0.72851,-0.329234 0.20315,-0.3362391 0.20315,-0.8476027 0,-0.4763386 -0.11909,-1.0367371 -0.11208,-0.5674034 -0.23116,-1.1067869 l 1.8353,-0.4763387 q 0.1331,0.6584682 0.21015,1.3099314 0.0841,0.6444582 0.0841,1.2328765 0,0.9316624 -0.25218,1.6741904 -0.25218,0.7425279 -0.8476,1.17683669 Q 149.42941,0 148.39968,0 Z m 0.18213,0.82658769 1.2609,1.26089651 -1.2609,1.2538915 -1.25389,-1.2538915 z M 147.36926,-5.365815 q 0,-0.5323786 0.37827,-0.8826276 0.37827,-0.350249 0.91065,-0.350249 0.53938,0 0.91065,0.350249 0.37827,0.350249 0.37827,0.8826276 0,0.5253735 -0.37827,0.8756225 -0.37827,0.350249 -0.91065,0.350249 -0.54639,0 -0.91765,-0.343244 -0.37127,-0.350249 -0.37127,-0.8826275 z m 0,4.1259335 q 0,-0.5253736 0.37827,-0.8756226 0.37827,-0.357254 0.91065,-0.357254 0.53938,0 0.91065,0.357254 0.37827,0.350249 0.37827,0.8756226 0,0.53237847 -0.37827,0.8826275 -0.37827,0.35024902 -0.91065,0.35024902 -0.54639,0 -0.91765,-0.35024902 -0.37127,-0.35024903 -0.37127,-0.8826275 z m -5.40784,-0.7845579 h 0.53238 q 0.72851,0 0.93166,-0.343244 0.20314,-0.343244 0.20314,-1.0437421 v -6.4095571 h 1.88434 v 6.5776766 q 0,1.6041406 -0.71451,2.42372329 Q 144.09093,0 142.48679,0 h -0.52537 z m -3.13123,-3.7686794 q 0.88263,0 1.49906,0.5253735 0.61644,0.5253735 0.96669,1.3869861 0.35025,0.8546076 0.4203,1.8563198 h 0.52537 V 0 h -0.66547 q -0.39928,1.5971355 -1.56911,2.507783 -1.16984,0.9176524 -3.19428,1.3099314 l -0.69349,-1.8703298 q 0.88263,-0.1681196 1.63216,-0.4483188 0.75654,-0.2801992 1.27491,-0.65846814 Q 139.5517,0.46232871 139.72683,0 h -0.65847 q -1.41501,0 -2.15754,-0.58841836 -0.74252,-0.59542334 -0.74252,-1.91936464 0,-0.5183686 0.16111,-1.085772 0.16111,-0.5744084 0.49035,-1.071762 0.32923,-0.5043586 0.82659,-0.8125777 0.50436,-0.3152241 1.18384,-0.3152241 z m 0.23116,3.7686794 h 0.89664 q -0.042,-0.3922789 -0.16812,-0.8055727 -0.11908,-0.4132939 -0.35725,-0.6934931 -0.23117,-0.2801992 -0.61644,-0.2801992 -0.32924,0 -0.52538,0.2101494 -0.18913,0.2031445 -0.27319,0.4903487 -0.077,0.2801992 -0.077,0.5183685 0,0.371264 0.30821,0.4693337 0.31523,0.091065 0.81258,0.091065 z m -4.42015,-7.7965432 v 9.81397762 h -1.89134 V -9.8209826 Z m -6.19351,2.143524 1.19085,1.1768367 1.17683,-1.1768367 1.19785,1.1908467 -1.19785,1.2048566 -1.17683,-1.1908466 -1.19085,1.1908466 -1.19085,-1.2048566 z m 5.0576,2.865037 1.75124,-0.2171544 0.1401,2.0034244 q 0.035,0.5323786 0.2802,0.7705479 0.25218,0.2311643 0.82659,0.2311643 h 0.16111 V 0 h -0.16111 q -0.80558,0 -1.33795,-0.29420918 -0.53238,-0.30121416 -0.88263,-0.81257772 -0.63746,0.58841835 -1.55511,0.84760262 Q 131.81708,0 130.35304,0 h -1.16983 q -1.21186,0 -2.23459,-0.14710459 -1.01572,-0.15410957 -1.77226,-0.53237851 -0.74953,-0.3782689 -1.16983,-1.0577521 -0.41329,-0.686488 -0.41329,-1.7512451 0,-0.6304482 0.1401,-1.2258716 0.1401,-0.6024283 0.35025,-1.1137918 l 1.6882,0.6374532 q -0.11909,0.3292341 -0.24518,0.7635428 -0.11908,0.4343088 -0.11908,0.8265877 0,0.7004981 0.51837,1.0367372 0.51836,0.336239 1.37297,0.4413137 0.86162,0.09807 1.88434,0.09807 h 1.16983 q 1.01573,0 1.73724,-0.077055 0.72151,-0.08406 1.09978,-0.3432441 0.38527,-0.2661892 0.38527,-0.8195827 0,-0.357254 -0.021,-0.7845578 -0.021,-0.4273038 -0.049,-0.7635429 z m -16.04841,2.7879822 h 2.27662 q 0.53238,0 0.72852,-0.329234 0.20315,-0.3362391 0.20315,-0.8476027 0,-0.4763386 -0.11909,-1.0367371 -0.11208,-0.5674034 -0.23116,-1.1067869 l 1.8353,-0.4763387 q 0.1331,0.6584682 0.21015,1.3099314 0.0841,0.6444582 0.0841,1.2328765 0,0.9316624 -0.25218,1.6741904 -0.24517,0.7425279 -0.8406,1.17683669 Q 120.75623,0 119.7265,0 h -2.26962 z m 0.94568,2.9210769 1.19084,1.1768367 1.17684,-1.1768367 1.19785,1.1908467 -1.19785,1.2048566 -1.17684,-1.1908467 -1.19084,1.1908467 -1.19085,-1.2048566 z m -4.06991,-6.6897563 q 0.88263,0 1.49907,0.5253735 0.61644,0.5253735 0.96669,1.3869861 0.35024,0.8546076 0.42029,1.8563198 h 0.52538 V 0 h -0.66548 q -0.39928,1.5971355 -1.56911,2.507783 -1.16983,0.9176524 -3.19427,1.3099314 l -0.69349,-1.8703298 q 0.88262,-0.1681196 1.63216,-0.4483188 0.75653,-0.2801992 1.2749,-0.65846814 Q 115.05417,0.46232871 115.22929,0 h -0.65847 q -1.415,0 -2.15753,-0.58841836 -0.74253,-0.59542334 -0.74253,-1.91936464 0,-0.5183686 0.16111,-1.085772 0.16112,-0.5744084 0.49035,-1.071762 0.32924,-0.5043586 0.82659,-0.8125777 0.50436,-0.3152241 1.18384,-0.3152241 z m 0.23117,3.7686794 h 0.89663 q -0.042,-0.3922789 -0.16812,-0.8055727 -0.11908,-0.4132939 -0.35725,-0.6934931 -0.23116,-0.2801992 -0.61644,-0.2801992 -0.32923,0 -0.52537,0.2101494 -0.18914,0.2031445 -0.2732,0.4903487 -0.077,0.2801992 -0.077,0.5183685 0,0.371264 0.30822,0.4693337 0.31522,0.091065 0.81258,0.091065 z m -8.03471,-7.6564436 1.19085,1.1768367 1.17683,-1.1768367 1.19786,1.1908467 -1.19786,1.2048566 -1.17683,-1.1908467 -1.19085,1.1908467 -1.19085,-1.2048566 z m 3.99984,6.0242832 q 0,0.4553237 -0.11908,0.8476026 -0.11208,0.3922789 -0.38527,0.7775529 0.16111,0.007 0.2942,0.007 0.1331,0 0.24518,0 h 0.67248 V 0 h -0.95268 q -0.58141,0 -1.2609,-0.16811953 -0.67948,-0.17512451 -1.28891,-0.37826895 -0.63045,0.2171544 -1.33095,0.38527393 Q 105.70953,0 105.09309,0 h -1.27491 v -2.0244394 h 1.04374 q 0.16112,0 0.29421,0 0.1401,-0.007 0.33624,-0.01401 -0.26619,-0.3922789 -0.37827,-0.7845578 -0.11208,-0.3992839 -0.11208,-0.8476027 0,-0.5533934 0.22416,-1.064757 0.23117,-0.5183685 0.61644,-0.9246574 0.39228,-0.4132939 0.88263,-0.6514632 0.49035,-0.2381693 1.00872,-0.2381693 0.7145,0 1.35196,0.4132938 0.64446,0.4062889 1.04374,1.071762 0.39928,0.6584682 0.39928,1.4080011 z m -2.78097,-0.9456724 q -0.20315,0 -0.42731,0.1541096 -0.21715,0.1541096 -0.37126,0.378269 -0.15411,0.2171543 -0.15411,0.4273038 0,0.2591842 0.15411,0.5183685 0.16111,0.2521793 0.38527,0.4553237 0.23117,0.1961395 0.42731,0.3082192 0.32223,-0.1751245 0.64446,-0.5323785 0.32923,-0.357254 0.32923,-0.7635429 0,-0.2101494 -0.16812,-0.4273038 -0.16111,-0.2241594 -0.39228,-0.371264 -0.22416,-0.1471046 -0.4273,-0.1471046 z m -7.768523,-4.4621725 1.190843,1.1768367 1.17684,-1.1768367 1.19785,1.1908467 -1.19785,1.2048566 -1.17684,-1.1908467 -1.190843,1.1908467 L 98.78861,-7.873598 Z M 100.66594,0 h -1.422006 v -2.0244394 h 1.429016 q 0.53238,0 0.72852,-0.329234 0.20314,-0.3362391 0.20314,-0.8476027 0,-0.4763386 -0.11908,-1.0367371 -0.11208,-0.5674034 -0.23117,-1.1067869 l 1.83531,-0.4763387 q 0.13309,0.6584682 0.21015,1.3099314 0.0841,0.6444582 0.0841,1.2328765 0,0.9316624 -0.25218,1.6741904 -0.25218,0.7425279 -0.8476,1.17683669 Q 101.69568,0 100.66594,0 Z m -3.145907,3.5305102 q -1.506071,0 -2.486768,-0.5744084 -0.973692,-0.5744084 -1.443026,-1.5691157 -0.469333,-0.99470719 -0.469333,-2.24159372 0,-0.83359268 0.182129,-1.72322518 0.18213,-0.8966375 0.525374,-1.78627 l 1.70221,0.6514632 q -0.259184,0.7425279 -0.434309,1.4500309 -0.175125,0.707503 -0.175125,1.32394132 0,0.67247812 0.23817,1.23287656 0.238169,0.56039844 0.805573,0.89663752 0.567403,0.336239 1.555105,0.336239 1.064757,0 1.77226,-0.2451743 0.707503,-0.2381693 1.057757,-0.56740339 0.35024,-0.32923408 0.35024,-0.58141338 0,-0.20314443 -0.25217,-0.20314443 h -1.134812 q -0.357254,0 -0.749533,-0.07004981 -0.385274,-0.0700498 -0.721513,-0.30121416 -0.336239,-0.23116435 -0.546388,-0.69349303 -0.203145,-0.4623287 -0.203145,-1.2398816 0,-0.7285179 0.23817,-1.4009961 0.238169,-0.6794831 0.679483,-1.2118616 0.448319,-0.5323785 1.071762,-0.8476026 0.623443,-0.3152241 1.400996,-0.3152241 0.52537,0 1.02973,0.1611145 0.51137,0.1541096 0.93867,0.4623287 l -0.64446,1.78627 q -0.36426,-0.2031444 -0.7005,-0.2801992 -0.32923,-0.08406 -0.60943,-0.08406 -0.756538,0 -1.183842,0.4973537 -0.427304,0.4903486 -0.427304,1.2258715 0,0.1891345 0.119085,0.2381694 0.12609,0.049035 0.308219,0.049035 h 1.022732 q 0.80557,0 1.26089,0.2521793 0.46233,0.2521793 0.65147,0.7004981 0.19613,0.44131375 0.19613,1.00871717 0,1.00171221 -0.5744,1.83530493 -0.57441,0.8335926 -1.67419,1.3309462 -1.099786,0.4973537 -2.675907,0.4973537 z M 89.485324,-9.8209826 h 1.891344 v 6.4025521 q 0,0.742528 0.217155,1.071762 0.217154,0.3222291 0.896637,0.3222291 h 0.175125 V 0 H 92.49046 Q 90.921345,0 90.199832,-0.81257773 89.485324,-1.6251555 89.485324,-3.2503109 Z m -7.530353,9.2115493 Q 81.324523,-0.39227891 80.511945,-0.19613945 79.706372,0 78.935824,0 h -0.693493 v -2.0244394 h 0.602429 q 0.231164,0 0.434309,-0.007 0.210149,-0.007 0.427303,-0.021015 -0.217154,-0.2801992 -0.350249,-0.7425279 -0.133094,-0.4693337 -0.133094,-0.8686176 0,-0.5954233 0.294209,-1.1698317 0.294209,-0.5744084 0.882627,-0.9596823 0.588419,-0.385274 1.464041,-0.4132939 l 0.672478,-1.3309463 q 1.302927,0.6164383 2.311644,1.1278019 1.015722,0.5113635 1.70221,1.0087172 0.693493,0.4973536 1.050747,1.078767 0.357254,0.5744084 0.357254,1.3309462 0,1.4290161 -0.854607,2.17854897 -0.854608,0.74252793 -2.262609,0.74252793 -0.735523,0 -1.541096,-0.1821295 -0.805572,-0.18212949 -1.344956,-0.357254 z m -0.987702,-3.0681814 q 0,0.3852739 0.350249,0.7215129 0.350249,0.3292341 0.756538,0.4553238 0.189134,-0.04203 0.434309,-0.1891345 0.252179,-0.1541096 0.434308,-0.371264 0.18213,-0.2241593 0.18213,-0.4763386 0,-0.4202989 -0.301214,-0.7565379 -0.301215,-0.3362391 -0.735523,-0.3362391 -0.448319,0 -0.784558,0.2872042 -0.336239,0.2801992 -0.336239,0.6654732 z m 3.068181,1.6531753 q 0.329234,0.05604 0.637453,0.08406 0.30822,0.02802 0.441314,0.02802 0.413294,0 0.756538,-0.2101494 0.343244,-0.2171544 0.343244,-0.8125777 0,-0.1471046 -0.112079,-0.3362391 -0.105075,-0.1961394 -0.462329,-0.4763386 -0.350249,-0.2801993 -1.078767,-0.6864881 0.09807,0.3012141 0.09807,0.6234432 0,0.5463885 -0.175125,0.9947073 -0.16812,0.4413137 -0.448319,0.7915627 z m -6.220434,0.4693337 q 0,1.63916547 -0.609433,2.7249374 -0.602428,1.085772 -1.709215,1.7232252 -1.106787,0.6374533 -2.619863,0.9246575 L 72.183012,1.9473846 q 1.429016,-0.2731943 2.388698,-0.7775529 0.966688,-0.50435856 1.225872,-1.2398815 -0.175125,0.0350249 -0.364259,0.06304482 -0.189134,0.02101494 -0.343244,0.02101494 -1.330946,0 -2.094489,-0.58841836 -0.763543,-0.5884184 -0.763543,-1.9333746 0,-0.5603984 0.168119,-1.1418118 0.16812,-0.5884184 0.504359,-1.078767 0.336239,-0.4973536 0.833593,-0.7985678 0.497353,-0.3012141 1.155822,-0.3012141 0.756537,0 1.302926,0.3642589 0.553393,0.364259 0.910647,0.9736923 0.357254,0.6094333 0.532379,1.3729762 0.175124,0.7635429 0.175124,1.5621106 z m -2.752957,-0.4483187 q 0.301214,0 0.546389,-0.035025 0.252179,-0.035025 0.413293,-0.07005 -0.04203,-0.357254 -0.161114,-0.7635429 -0.119085,-0.4062889 -0.357254,-0.6934931 -0.231165,-0.2942091 -0.623443,-0.2942091 -0.336239,0 -0.532379,0.2241593 -0.189134,0.2241594 -0.266189,0.5253736 -0.07706,0.3012141 -0.07706,0.5253735 0,0.378269 0.301214,0.4833437 0.308219,0.09807 0.756538,0.09807 z M 71.415107,0 Q 70.777653,0 70.36436,-0.24517432 70.08416,1.3659712 68.984378,2.4167183 67.891601,3.4674653 66.063302,3.8177144 L 65.369808,1.9473846 q 1.015723,-0.2171544 1.744241,-0.5814134 0.735523,-0.357254 1.134806,-0.95968233 0.399284,-0.60242832 0.399284,-1.55510567 0,-0.6374532 -0.203144,-1.429016 -0.203145,-0.7985678 -0.434309,-1.4850559 l 1.88434,-0.6094333 0.406289,1.5831256 q 0.119084,0.4483188 0.350249,0.7565379 0.231164,0.3082191 0.686488,0.3082191 h 0.273194 V 0 Z m -11.02584,-2.0244394 h 1.057752 q 0.770548,0 1.057752,-0.2591842 0.29421,-0.2661893 0.29421,-0.9666873 0,-0.4132939 -0.02101,-0.7985678 -0.02101,-0.3922789 -0.04903,-0.7635429 l 1.751245,-0.2171544 0.1401,2.0034244 q 0.03502,0.5323786 0.294209,0.7705479 0.259184,0.2311643 0.826587,0.2311643 h 0.147105 V 0 H 65.727062 Q 65.026564,0 64.522206,-0.2521793 64.024852,-0.50435859 63.702623,-0.91064746 63.275319,-0.48334365 62.686901,-0.23816934 62.105488,0 61.447019,0 h -1.057752 z m 0.18213,2.9210769 1.190847,1.1768367 L 62.93908,0.8966375 64.136932,2.0874842 62.93908,3.2923408 61.762244,2.1014941 60.571397,3.2923408 59.38055,2.0874842 Z M 57.251032,0 H 56.13724 v -2.0244394 h 1.120797 q 0.532379,0 0.728518,-0.329234 0.203145,-0.3362391 0.203145,-0.8476027 0,-0.4763386 -0.119085,-1.0367371 -0.11208,-0.5674034 -0.231164,-1.1067869 l 1.835304,-0.4763387 q 0.133095,0.6584682 0.21015,1.3099314 0.08406,0.6444582 0.08406,1.2328765 0,0.9316624 -0.25218,1.6741904 -0.252179,0.7425279 -0.847602,1.17683669 Q 58.280764,0 57.251032,0 Z M 58.07762,-9.1344945 59.338516,-7.873598 58.07762,-6.6197065 56.823728,-7.873598 Z M 59.764815,0 Q 59.127362,0 58.714068,-0.24517432 58.433869,1.3659712 57.334087,2.4167183 56.24131,3.4674653 54.41301,3.8177144 L 53.719517,1.9473846 q 1.015722,-0.2171544 1.74424,-0.5814134 0.735523,-0.357254 1.134807,-0.95968233 0.399284,-0.60242832 0.399284,-1.55510567 0,-0.6374532 -0.203145,-1.429016 -0.203144,-0.7985678 -0.434308,-1.4850559 l 1.884339,-0.6094333 0.406289,1.5831256 q 0.119085,0.4483188 0.350249,0.7565379 0.231165,0.3082191 0.686488,0.3082191 h 0.273195 V 0 Z M 48.262633,-2.0244394 h 1.541096 q 0.770548,0 1.057752,-0.2591842 0.294209,-0.2661893 0.294209,-0.9666873 0,-0.4132939 -0.02101,-0.7985678 -0.02101,-0.3922789 -0.04904,-0.7635429 l 1.751245,-0.2171544 0.1401,2.0034244 q 0.03502,0.5323786 0.294209,0.7705479 0.259185,0.2311643 0.826588,0.2311643 h 0.147105 V 0 H 54.083772 Q 53.383274,0 52.878915,-0.2521793 52.381562,-0.50435859 52.059333,-0.91064746 51.632029,-0.48334365 51.04361,-0.23816934 50.462197,0 49.803729,0 h -1.541096 z m 0.658468,2.9210769 1.190847,1.1768367 1.176837,-1.1768367 1.197851,1.1908467 -1.197851,1.2048566 -1.176837,-1.1908467 -1.190847,1.1908467 -1.190846,-1.2048566 z m -5.877178,-2.9210769 h 1.057752 q 0.770548,0 1.057752,-0.2591842 0.294209,-0.2661893 0.294209,-0.9666873 0,-0.4132939 -0.02102,-0.7985678 -0.02101,-0.3922789 -0.04903,-0.7635429 l 1.751245,-0.2171544 0.1401,2.0034244 q 0.03502,0.5323786 0.294209,0.7705479 0.259184,0.2311643 0.826588,0.2311643 h 0.147104 V 0 H 48.381718 Q 47.68122,0 47.176861,-0.2521793 46.679508,-0.50435859 46.357279,-0.91064746 45.929975,-0.48334365 45.341556,-0.23816934 44.760143,0 44.101675,0 h -1.057752 z m 0.182129,2.9210769 1.190847,1.1768367 1.176837,-1.1768367 1.197851,1.1908467 -1.197851,1.2048566 -1.176837,-1.1908467 -1.190847,1.1908467 -1.190846,-1.2048566 z m -3.901776,-10.5424956 1.260897,1.2608965 -1.260897,1.2538915 -1.253891,-1.2538915 z m 0.02102,3.4744703 q 0.553394,0 1.176837,0.08406 0.623443,0.077055 1.169832,0.2591843 0.546388,0.1751245 0.889632,0.4623287 0.350249,0.2801992 0.350249,0.6794831 0,0.2311643 -0.182129,0.5674034 -0.175125,0.336239 -0.455324,0.707503 -0.273194,0.364259 -0.574408,0.7004981 -0.294209,0.329234 -0.525374,0.5603984 0.287204,0.08406 0.553394,0.1050747 0.266189,0.021015 0.497353,0.021015 H 43.33813 V 0 h -1.085772 q -0.819582,0 -1.5481,-0.18913447 -0.721513,-0.19613946 -1.358967,-0.51836856 -0.672478,0.33623907 -1.61815,0.52537354 Q 36.788473,0 35.954881,0 h -1.106787 v -2.0244394 h 1.113792 q 0.161114,0 0.434309,-0.007 0.280199,-0.007 0.581413,-0.035025 0.301214,-0.02802 0.518369,-0.091065 -0.231165,-0.2311643 -0.525374,-0.5603984 -0.294209,-0.3362391 -0.567403,-0.7004981 -0.273195,-0.3712639 -0.455324,-0.700498 -0.18213,-0.3362391 -0.18213,-0.5674034 0,-0.3992839 0.343244,-0.6794831 0.343244,-0.2872042 0.889633,-0.4623287 0.546388,-0.1821295 1.169832,-0.2591843 0.623443,-0.08406 1.176836,-0.08406 z m 0.007,1.8353049 q -0.343244,0 -0.728518,0.035025 -0.378269,0.035025 -0.791562,0.1190847 0.294209,0.3152241 0.644458,0.6584681 0.357254,0.3362391 0.609433,0.5744084 0.259184,0.2381694 0.259184,0.2381694 0,0 0.259185,-0.2381694 0.259184,-0.2381693 0.616438,-0.5744084 0.364259,-0.343244 0.651463,-0.6584681 -0.406289,-0.08406 -0.791563,-0.1190847 -0.378269,-0.035025 -0.728518,-0.035025 z m -8.342928,-4.7283618 1.190846,1.1768367 1.176837,-1.1768367 1.197852,1.1908467 -1.197852,1.2048566 -1.176837,-1.1908467 -1.190846,1.1908467 -1.190847,-1.2048566 z M 31.695856,0 h -1.422011 v -2.0244394 h 1.429016 q 0.532378,0 0.728518,-0.329234 0.203144,-0.3362391 0.203144,-0.8476027 0,-0.4763386 -0.119085,-1.0367371 -0.112079,-0.5674034 -0.231164,-1.1067869 l 1.835305,-0.4763387 q 0.133095,0.6584682 0.210149,1.3099314 0.08406,0.6444582 0.08406,1.2328765 0,0.9316624 -0.252179,1.6741904 -0.25218,0.7425279 -0.847603,1.17683669 Q 32.725588,0 31.695856,0 Z"
       id="text1"
       transform="matrix(1.3333333,0,0,1.3333333,162.88667,63.837333)"
       aria-label="ﺶﺨﺑ:لواﺖﯾﻮﻘﺗیﺎﻫوﺮﯿﻧﺮﯿﯿﻐﺗ" />
  </g>
</svg>
