<?xml version="1.0" encoding="UTF-8" standalone="no"?>


<svg class="tikz-diagram" id="iran-action-ch9-tikz-2-5d0a603e581d"
   version="1.1"
   id="svg1"
   width="572.97333"
   height="119.42667"
   viewBox="0 0 572.97333 119.42667"
   sodipodi:docname="iran-action-ch9-tikz-2-5d0a603e581d.pdf"
   xmlns:inkscape="http://www.inkscape.org/namespaces/inkscape"
   xmlns:sodipodi="http://sodipodi.sourceforge.net/DTD/sodipodi-0.dtd"
   xmlns="http://www.w3.org/2000/svg"
   xmlns:svg="http://www.w3.org/2000/svg">
  <defs
     id="defs1" />
  <sodipodi:namedview
     id="namedview1"
     pagecolor="#ffffff"
     bordercolor="#000000"
     borderopacity="0.25"
     inkscape:showpageshadow="2"
     inkscape:pageopacity="0.0"
     inkscape:pagecheckerboard="0"
     inkscape:deskcolor="#d1d1d1">
    <inkscape:page
       x="0"
       y="0"
       inkscape:label="1"
       id="page1"
       width="572.97333"
       height="119.42667"
       margin="0"
       bleed="0" />
  </sodipodi:namedview>
  <g
     id="g1"
     inkscape:groupmode="layer"
     inkscape:label="1">
    <path
       id="path1"
       d="m 183.48358,28.3468 h -366.96716 c -8.25354,0 -14.94415,-6.69061 -14.94415,-14.94415 v -26.8053 c 0,-8.25354 6.69061,-14.94415 14.94415,-14.94415 h 366.96716 c 8.25354,0 14.94415,6.69061 14.94415,14.94415 v 26.8053 c 0,8.25354 -6.69061,14.94415 -14.94415,14.94415 z"
       style="fill:#e6f0fa;fill-opacity:1;fill-rule:nonzero;stroke:#0055a4;stroke-width:2.98883;stroke-linecap:butt;stroke-linejoin:miter;stroke-miterlimit:10;stroke-dasharray:none;stroke-opacity:1"
       transform="matrix(1.3333333,0,0,-1.3333333,286.48533,59.713333)" />
    <path
       style="font-weight:800;font-size:14.3462px;font-family:Vazirmatn"
       d="m 41.141033,0 q -0.980697,0 -1.611145,-0.37126396 -0.630449,-0.37826895 -0.910648,-1.23287654 -0.805573,0.63044822 -1.75825,0.63044822 -1.162827,0 -1.940379,-0.63044822 -0.777553,-0.6374532 -0.777553,-1.8773348 0,-0.9106475 0.525373,-1.5551057 0.525374,-0.6514631 1.351961,-1.0927769 0.833593,-0.4413138 1.737236,-0.714508 l -0.04903,-0.3362391 1.695205,-0.343244 0.665473,4.4971974 q 0.06305,0.4273038 0.329234,0.714508 0.273194,0.2872042 0.770548,0.2872042 h 0.217154 V 0 Z m -2.907067,-3.7616745 q 0,-0.09807 -0.02102,-0.2171544 -0.01401,-0.1260897 -0.03502,-0.2591843 l -0.119084,-0.7355229 q -0.497354,0.1681195 -0.980697,0.3922789 -0.476339,0.2171544 -0.791563,0.4833436 -0.308219,0.2591843 -0.308219,0.5603985 0,0.2872042 0.231164,0.4693337 0.238169,0.1751245 0.616438,0.1751245 0.322229,0 0.644458,-0.091065 0.329234,-0.09807 0.546389,-0.2872042 0.217154,-0.1961394 0.217154,-0.4903486 z m -7.698473,0.4132938 v -6.4726019 h 1.88434 v 6.4726019 q 0,0.6584682 0.210149,0.9947073 0.217155,0.329234 0.854608,0.329234 h 0.224159 V 0 H 33.4986 Q 32.756072,0 32.286738,-0.22415937 31.82441,-0.45532373 31.474161,-0.90364248 31.102897,-0.47633867 30.605543,-0.23816934 30.115195,0 29.295612,0 h -0.427304 v -2.0244394 h 0.378269 q 0.707503,0 0.994707,-0.3152241 0.294209,-0.3222291 0.294209,-1.0087172 z m -11.453142,1.3239413 h 1.190846 q 0.903643,0 1.681196,-0.1681195 0.777552,-0.1751245 1.597135,-0.5183685 0.826588,-0.3432441 1.877335,-0.8546077 -1.078767,-0.3922789 -1.74424,-0.6584681 -0.665473,-0.2731943 -0.910648,-0.2731943 -0.378269,0 -0.686488,0.2381694 -0.301214,0.2311643 -0.497353,0.4903486 l -0.371264,0.4693337 -1.569116,-0.7705478 0.315224,-0.5043586 q 0.497354,-0.8125778 1.190847,-1.3449563 0.693493,-0.5393835 1.625155,-0.5393835 0.392279,0 0.910648,0.1821295 0.525373,0.1821295 1.120797,0.4553237 0.602428,0.2661893 1.239881,0.5393835 0.644458,0.2661893 1.267902,0.4553238 0.630448,0.1891344 1.204856,0.1961394 v 1.8563198 q -0.532378,0.07005 -0.987702,0.2381694 -0.455324,0.1611145 -0.945672,0.4132938 -0.490349,0.2521793 -1.141812,0.6024283 -0.896638,0.4763387 -1.695205,0.81958275 Q 22.96311,-0.357254 22.122512,-0.17512451 21.288919,0 20.252182,0 H 19.082351 Z M 18.047407,0 Q 17.409954,0 16.99666,-0.24517432 16.716461,1.3659712 15.616679,2.4167183 14.523902,3.4674653 12.695602,3.8177144 L 12.002109,1.9473846 q 1.015722,-0.2171544 1.74424,-0.5814134 0.735523,-0.357254 1.134807,-0.95968233 0.399284,-0.60242832 0.399284,-1.55510567 0,-0.6374532 -0.203145,-1.429016 -0.203144,-0.7985678 -0.434309,-1.4850559 l 1.88434,-0.6094333 0.406289,1.5831256 q 0.119085,0.4483188 0.350249,0.7565379 0.231164,0.3082191 0.686488,0.3082191 h 0.273194 V 0 Z m -7.586393,0.16111455 q -0.7285179,0 -1.3659712,-0.30821914 Q 8.4645946,-0.46232871 7.8621663,-0.92465742 7.4768924,-0.5393835 7.0565935,-0.26618926 6.6432997,0 5.8447319,0 H 5.5365128 V -2.0244394 H 5.809707 q 0.343244,0 0.6164383,-0.2661892 0.2801992,-0.2661893 0.5323785,-0.6864881 0.2591843,-0.4273038 0.5393835,-0.8966375 0.2872042,-0.4763387 0.6374532,-0.8966375 0.357254,-0.4273038 0.8265877,-0.6934931 0.4693337,-0.2661892 1.0997818,-0.2661892 0.882628,0 1.527086,0.4202988 0.644458,0.4132939 0.994707,1.0997819 0.350249,0.6794831 0.350249,1.4850559 0,0.8265877 -0.273194,1.4780509 -0.273194,0.65146316 -0.826588,1.02973211 -0.546388,0.37826894 -1.372976,0.37826894 z M 10.124775,-3.8037044 q -0.2872042,0 -0.5183686,0.1961395 -0.2311643,0.1891344 -0.4062888,0.4623287 -0.1751246,0.2731942 -0.2942092,0.5183685 0.2031444,0.1821295 0.3852739,0.3152241 0.1821295,0.1330947 0.350249,0.2311644 0.2521793,0.1400996 0.4623287,0.1961395 0.210149,0.05604 0.364259,0.05604 0.371264,0 0.532379,-0.2661893 0.161114,-0.2731942 0.161114,-0.6164382 0,-0.4413138 -0.273194,-0.7635429 -0.273194,-0.3292341 -0.763543,-0.3292341 z M 5.7456532,-5.365815 q 0,-0.5323786 0.378269,-0.8826276 0.3782689,-0.350249 0.9106474,-0.350249 0.5393835,0 0.9106475,0.350249 0.3782689,0.350249 0.3782689,0.8826276 0,0.5253735 -0.3782689,0.8756225 -0.378269,0.350249 -0.9106475,0.350249 -0.5463885,0 -0.9176524,-0.343244 -0.371264,-0.350249 -0.371264,-0.8826275 z m 0,4.1259335 q 0,-0.5253736 0.378269,-0.8756226 0.3782689,-0.357254 0.9106474,-0.357254 0.5393835,0 0.9106475,0.357254 0.3782689,0.350249 0.3782689,0.8756226 0,0.53237847 -0.3782689,0.8826275 -0.378269,0.35024902 -0.9106475,0.35024902 -0.5463885,0 -0.9176524,-0.35024902 -0.371264,-0.35024903 -0.371264,-0.8826275 z M 47.278181,0 h -1.919365 v -1.4150061 q 0,-1.6671853 -0.133094,-3.0051366 -0.12609,-1.3449562 -0.413294,-2.4587481 -0.287204,-1.1207969 -0.763543,-2.1084991 l 1.793275,-0.6514632 q 0.791563,1.7512451 1.113792,3.7546695 0.322229,2.0034244 0.322229,4.4901925 z m 111.027039,-7.6774586 1.19084,1.1768367 1.17684,-1.1768367 1.19785,1.1908467 -1.19785,1.2048566 -1.17684,-1.1908466 -1.19084,1.1908466 -1.19085,-1.2048566 z m 5.05759,2.865037 1.75125,-0.2171544 0.1401,2.0034244 q 0.035,0.5323786 0.2802,0.7705479 0.25218,0.2311643 0.82659,0.2311643 h 0.16111 V 0 h -0.16111 q -0.80558,0 -1.33796,-0.29420918 -0.53237,-0.30121416 -0.88262,-0.81257772 -0.63746,0.58841835 -1.55511,0.84760262 Q 161.67461,0 160.21057,0 h -1.16983 q -1.21186,0 -2.23459,-0.14710459 -1.01572,-0.15410957 -1.77226,-0.53237851 -0.74953,-0.3782689 -1.16983,-1.0577521 -0.41329,-0.686488 -0.41329,-1.7512451 0,-0.6304482 0.1401,-1.2258716 0.1401,-0.6024283 0.35025,-1.1137918 l 1.6882,0.6374532 q -0.11909,0.3292341 -0.24518,0.7635428 -0.11908,0.4343088 -0.11908,0.8265877 0,0.7004981 0.51836,1.0367372 0.51837,0.336239 1.37298,0.4413137 0.86161,0.09807 1.88434,0.09807 h 1.16983 q 1.01572,0 1.73724,-0.077055 0.72151,-0.08406 1.09978,-0.3432441 0.38527,-0.2661892 0.38527,-0.8195827 0,-0.357254 -0.021,-0.7845578 -0.021,-0.4273038 -0.049,-0.7635429 z m -15.84526,2.7879822 h 1.05775 q 0.77055,0 1.05776,-0.2591842 0.29421,-0.2661893 0.29421,-0.9666873 0,-0.4132939 -0.021,-0.7985678 -0.021,-0.3922789 -0.049,-0.7635429 l 1.75124,-0.2171544 0.1401,2.0034244 q 0.035,0.5323786 0.29421,0.7705479 0.25918,0.2311643 0.82659,0.2311643 h 0.1471 V 0 h -0.16111 q -0.7005,0 -1.20486,-0.2521793 -0.49735,-0.25217929 -0.81958,-0.65846816 -0.42731,0.42730381 -1.01572,0.67247812 Q 149.23377,0 148.5753,0 h -1.05775 z m 0.18213,2.9210769 1.19085,1.1768367 1.17683,-1.1768367 1.19786,1.1908467 -1.19786,1.2048566 -1.17683,-1.1908467 -1.19085,1.1908467 -1.19085,-1.2048566 z m -5.14866,-2.9210769 h 0.81958 q 0.77055,0 1.05775,-0.2591842 0.29421,-0.2661893 0.29421,-0.9666873 0,-0.4132939 -0.021,-0.7985678 -0.021,-0.3922789 -0.049,-0.7635429 l 1.75124,-0.2171544 0.1401,2.0034244 q 0.035,0.5323786 0.29421,0.7705479 0.25919,0.2311643 0.82659,0.2311643 h 0.14711 V 0 h -0.16112 q -0.7005,0 -1.20486,-0.2521793 -0.49735,-0.25217929 -0.81958,-0.65846816 -0.4273,0.42730381 -1.01572,0.67247812 Q 144.02907,0 143.3706,0 h -0.81958 z m 1.44302,2.85102709 1.2609,1.26089651 -1.2609,1.2538915 -1.25389,-1.2538915 z m -4.65832,-10.82969969 1.1278,1.1207968 -1.1278,1.1278018 -1.1278,-1.1278018 z m 1.22587,1.7862699 1.12781,1.1278019 -1.12781,1.1278018 -1.1278,-1.1278018 z m -2.44473,0 1.12079,1.1278019 -1.12079,1.1278018 -1.12781,-1.1278018 z m -0.71451,6.1924027 h 0.99471 q 0.77054,0 1.05775,-0.2591842 0.29421,-0.2661893 0.29421,-0.9666873 0,-0.4132939 -0.021,-0.7985678 -0.021,-0.3922789 -0.049,-0.7635429 l 1.75124,-0.2171544 0.1401,2.0034244 q 0.035,0.5323786 0.29421,0.7705479 0.25918,0.2311643 0.82659,0.2311643 h 0.1471 V 0 h -0.16111 q -0.7005,0 -1.20486,-0.2521793 -0.49735,-0.25217929 -0.81958,-0.65846816 -0.4273,0.42730381 -1.01572,0.67247812 Q 139.05552,0 138.39706,0 h -0.99471 z m -3.8247,-7.0400053 1.19084,1.1768367 1.17684,-1.1768367 1.19785,1.1908467 -1.19785,1.2048566 -1.17684,-1.1908467 -1.19084,1.1908467 -1.19085,-1.2048566 z M 134.26413,0 h -1.42201 v -2.0244394 h 1.42902 q 0.53238,0 0.72852,-0.329234 0.20314,-0.3362391 0.20314,-0.8476027 0,-0.4763386 -0.11908,-1.0367371 -0.11208,-0.5674034 -0.23117,-1.1067869 l 1.83531,-0.4763387 q 0.13309,0.6584682 0.21015,1.3099314 0.0841,0.6444582 0.0841,1.2328765 0,0.9316624 -0.25218,1.6741904 -0.25218,0.7425279 -0.8476,1.17683669 Q 135.29387,0 134.26413,0 Z m 1.70854,-1.5551057 q 0,1.63916547 -0.60943,2.7249374 -0.60243,1.085772 -1.70922,1.7232252 -1.10679,0.6374533 -2.61986,0.9246575 l -0.69349,-1.8703298 q 1.42901,-0.2731943 2.38869,-0.7775529 0.96669,-0.50435856 1.22588,-1.2398815 -0.17513,0.0350249 -0.36426,0.06304482 -0.18914,0.02101494 -0.34325,0.02101494 -1.33094,0 -2.09449,-0.58841836 -0.76354,-0.5884184 -0.76354,-1.9333746 0,-0.5603984 0.16812,-1.1418118 0.16812,-0.5884184 0.50436,-1.078767 0.33624,-0.4973536 0.83359,-0.7985678 0.49736,-0.3012141 1.15582,-0.3012141 0.75654,0 1.30293,0.3642589 0.55339,0.364259 0.91065,0.9736923 0.35725,0.6094333 0.53238,1.3729762 0.17512,0.7635429 0.17512,1.5621106 z m -2.75296,-0.4483187 q 0.30122,0 0.54639,-0.035025 0.25218,-0.035025 0.4133,-0.07005 -0.042,-0.357254 -0.16112,-0.7635429 -0.11908,-0.4062889 -0.35725,-0.6934931 -0.23117,-0.2942091 -0.62345,-0.2942091 -0.33624,0 -0.53238,0.2241593 -0.18913,0.2241594 -0.26618,0.5253736 -0.0771,0.3012141 -0.0771,0.5253735 0,0.378269 0.30121,0.4833437 0.30822,0.09807 0.75654,0.09807 z M 130.08082,0 h -1.98241 v -2.0244394 h 1.98941 q 0.53238,0 0.72852,-0.329234 0.20315,-0.3362391 0.20315,-0.8476027 0,-0.4763386 -0.11909,-1.0367371 -0.11208,-0.5674034 -0.23116,-1.1067869 l 1.8353,-0.4763387 q 0.1331,0.6584682 0.21015,1.3099314 0.0841,0.6444582 0.0841,1.2328765 0,0.9316624 -0.25218,1.6741904 -0.24517,0.7425279 -0.84059,1.17683669 Q 131.11055,0 130.08082,0 Z m -1.32394,0.8966375 1.19085,1.1768367 1.17683,-1.1768367 1.19785,1.1908467 -1.19785,1.2048566 -1.17683,-1.1908467 -1.19085,1.1908467 -1.19085,-1.2048566 z m -3.16627,-9.0574397 1.2609,1.2608964 -1.2609,1.2538915 -1.25389,-1.2538915 z M 128.18246,0 q -0.63746,0 -1.05075,-0.24517432 -0.2802,1.61114552 -1.37998,2.66189262 -1.09278,1.050747 -2.92108,1.4009961 l -0.69349,-1.8703298 q 1.01572,-0.2171544 1.74424,-0.5814134 0.73552,-0.357254 1.1348,-0.95968233 0.39929,-0.60242832 0.39929,-1.55510567 0,-0.6374532 -0.20315,-1.429016 -0.20314,-0.7985678 -0.4343,-1.4850559 l 1.88434,-0.6094333 0.40628,1.5831256 q 0.11909,0.4483188 0.35025,0.7565379 0.23117,0.3082191 0.68649,0.3082191 h 0.2732 V 0 Z m -8.70719,-9.8209826 h 1.89134 v 6.4025521 q 0,0.742528 0.21716,1.071762 0.21715,0.3222291 0.89663,0.3222291 h 0.17513 V 0 h -0.17513 q -1.56911,0 -2.29062,-0.81257773 -0.71451,-0.81257777 -0.71451,-2.43773317 z M 111.7768,0 q -0.70751,0 -1.19085,-0.23816934 -0.47634,-0.24517431 -0.78456,-0.6444582 -0.38527,0.40628887 -0.91765,0.6444582 Q 108.35136,0 107.53878,0 h -0.64446 v -2.0244394 h 0.65847 q 0.77055,0 1.09278,-0.1891344 0.32923,-0.1891345 0.32923,-0.9106475 0,-0.1120797 -0.014,-0.371264 -0.014,-0.2591842 -0.035,-0.5674034 -0.021,-0.3152241 -0.042,-0.5674034 l 1.75825,-0.2171544 0.1471,1.8913447 q 0.0631,0.9316624 1.00172,0.9316624 0.58141,0 0.77755,-0.2381693 0.19614,-0.2451743 0.19614,-0.8616126 0,-0.09807 -0.014,-0.357254 -0.014,-0.2661892 -0.035,-0.5814134 -0.021,-0.3152241 -0.042,-0.5674034 l 1.75825,-0.2171544 0.14711,1.8913447 q 0.028,0.4273039 0.21015,0.6794831 0.18913,0.2521793 0.63745,0.2521793 0.4203,0 0.57441,-0.329234 0.16111,-0.3362391 0.16111,-0.7985678 0,-0.3992839 -0.077,-0.8195827 -0.0701,-0.4273038 -0.16112,-0.7705479 -0.0841,-0.350249 -0.12609,-0.5113635 l 1.81429,-0.4973537 q 0.1401,0.5533935 0.23117,1.1838417 0.0911,0.6234433 0.0911,1.2398816 0,0.8686176 -0.23116,1.6321604 -0.22416,0.75653792 -0.77055,1.22587161 Q 116.38607,0 115.4404,0 q -0.63045,0 -1.06476,-0.25918428 -0.4273,-0.25918427 -0.72151,-0.63745322 -0.35725,0.37826895 -0.81258,0.63745322 Q 112.39323,0 111.7768,0 Z m -15.494012,-11.439133 1.260897,1.260896 -1.260897,1.2538919 -1.253891,-1.2538919 z m 1.288917,8.6441458 q -0.511364,0.09807 -1.085772,0.09807 -1.239882,0 -1.961395,-0.5463885 -0.721513,-0.5463884 -0.721513,-1.7092152 0,-0.7565379 0.322229,-1.4780509 0.329234,-0.721513 0.924658,-1.1908466 0.595423,-0.4763387 1.393991,-0.4763387 0.784558,0 1.337951,0.3852739 0.553394,0.3852739 0.903643,1.0367371 0.350249,0.6514632 0.511363,1.457036 0.16812,0.7985677 0.16812,1.6321604 0,1.4570359 -0.392279,2.2345888 -0.392279,0.77054782 -1.218867,1.064757 Q 96.934251,0 95.63833,0 H 93.305672 Q 92.09381,0 91.071083,-0.14710459 90.048356,-0.30121416 89.291818,-0.6794831 88.542285,-1.057752 88.128991,-1.7372352 q -0.413294,-0.686488 -0.413294,-1.7512451 0,-0.6304482 0.1401,-1.2258716 0.140099,-0.6024283 0.350249,-1.1137918 l 1.6882,0.6374532 q -0.119085,0.3292341 -0.245174,0.7635428 -0.119085,0.4343088 -0.119085,0.8265877 0,0.7004981 0.518369,1.0367372 0.518368,0.336239 1.379981,0.4413137 0.861612,0.09807 1.877335,0.09807 h 2.472758 q 0.903642,0 1.344956,-0.1120796 0.441314,-0.1120797 0.448319,-0.6584682 z m -1.120797,-1.6741903 q 0.539383,0 1.071762,-0.1190847 -0.04904,-0.3362391 -0.189135,-0.6934931 -0.133094,-0.364259 -0.357254,-0.6164383 -0.217154,-0.2521792 -0.546388,-0.2521792 -0.434309,0 -0.672478,0.357254 -0.231165,0.350249 -0.231165,0.7565378 0,0.371264 0.26619,0.4693337 0.273194,0.09807 0.658468,0.09807 z m -13.603669,2.150529 Q 84.0591,-2.8300121 84.0591,-4.9595262 v -4.8614564 h 1.877335 v 5.2327204 q 0,0.6234433 0.06305,1.2188666 0.07005,0.5884184 0.301214,0.9666873 0.23817,0.3782689 0.728518,0.3782689 h 0.259184 V 0 H 87.008197 Q 86.13958,0 85.572176,-0.39928389 85.011778,-0.80557275 84.710564,-1.443026 84.017071,-0.73552295 82.910284,-0.36425898 81.810502,0 80.451536,0 80.073267,0 79.702003,-0.02801992 79.337744,-0.05603984 78.959475,-0.08405977 V -2.0384493 q 0.434308,0.02802 0.868617,0.063045 0.441314,0.02802 0.763543,0.02802 0.12609,0 0.231165,0 0.112079,0 0.210149,-0.007 0,0 -0.09807,-0.4413138 -0.09107,-0.4413138 -0.273194,-1.1768367 -0.175125,-0.742528 -0.434309,-1.6531754 -0.252179,-0.9106475 -0.574408,-1.8633248 -0.322229,-0.9526774 -0.700498,-1.80028 l 1.723225,-0.7495329 q 0.385274,0.8966375 0.714508,1.9053547 0.329234,1.0017122 0.595423,1.9613945 0.273195,0.9596823 0.462329,1.7442401 0.196139,0.7775529 0.294209,1.2468866 z m -9.071457,-6.1293579 1.190847,1.1768367 1.176837,-1.1768367 1.197851,1.1908466 -1.197851,1.2048567 -1.176837,-1.1908467 -1.190847,1.1908467 -1.190846,-1.2048567 z m -0.735523,6.423567 h 0.980698 q 0.770547,0 1.057752,-0.2591842 0.294209,-0.2661893 0.294209,-0.9666873 0,-0.4132939 -0.02102,-0.7985678 -0.02101,-0.3922789 -0.04903,-0.7635429 l 1.751245,-0.2171544 0.1401,2.0034244 q 0.03502,0.5323786 0.294209,0.7705479 0.259184,0.2311643 0.826588,0.2311643 h 0.147104 V 0 H 78.301 Q 77.600502,0 77.096143,-0.2521793 76.598789,-0.50435859 76.27656,-0.91064746 75.849256,-0.48334365 75.260838,-0.23816934 74.679425,0 74.020957,0 h -0.980698 z m -3.026148,-5.1136357 q -0.23817,-0.1891345 -0.364259,-0.4202988 -0.119085,-0.2311644 -0.119085,-0.6024283 0,-0.6234433 0.434309,-1.0227272 0.434309,-0.4062889 0.987702,-0.4062889 0.301214,0 0.497354,0.063045 0.203144,0.063045 0.406289,0.1821295 l 0.007,0.8265877 q -0.413294,-0.2101495 -0.812578,-0.2101495 -0.280199,0 -0.518369,0.1681196 -0.238169,0.1681195 -0.238169,0.4903486 0.007,0.1891345 0.182129,0.350249 0.175125,0.1611146 0.546389,0.1120797 0,0 0.05604,-0.01401 l 1.008717,-0.364259 0.119085,0.8055727 -2.801993,1.1067869 -0.112079,-0.7845578 z M 69.888021,0 H 68.452 v -2.0244394 h 1.443026 q 0.532379,0 0.728518,-0.329234 0.203144,-0.3362391 0.203144,-0.8476027 0,-0.4763386 -0.119084,-1.0367371 -0.11208,-0.5674034 -0.231165,-1.1067869 l 1.835305,-0.4763387 q 0.133095,0.6584682 0.21015,1.3099314 0.08406,0.6444582 0.08406,1.2328765 0,0.9316624 -0.252179,1.6741904 -0.252179,0.7425279 -0.847602,1.17683669 Q 70.917753,0 69.888021,0 Z m -2.234588,-9.8209826 v 9.81397762 H 65.762089 V -9.8209826 Z"
       id="text1"
       transform="matrix(1.3333333,0,0,1.3333333,175.92,64.789333)"
       aria-label="ﻪﻠﺣﺮﻣ:۱ﺖﯿﺒﺜﺗویزﺎﺳ فﻼﺘﺋا" />
  </g>
</svg>
