<?xml version="1.0" encoding="UTF-8" standalone="no"?>


<svg class="tikz-diagram" id="iran-action-ch4-tikz-11-ebcd861bdd51"
   version="1.1"
   id="svg1"
   width="572.97333"
   height="119.42667"
   viewBox="0 0 572.97333 119.42667"
   sodipodi:docname="iran-action-ch4-tikz-11-ebcd861bdd51.pdf"
   xmlns:inkscape="http://www.inkscape.org/namespaces/inkscape"
   xmlns:sodipodi="http://sodipodi.sourceforge.net/DTD/sodipodi-0.dtd"
   xmlns="http://www.w3.org/2000/svg"
   xmlns:svg="http://www.w3.org/2000/svg">
  <defs
     id="defs1" />
  <sodipodi:namedview
     id="namedview1"
     pagecolor="#ffffff"
     bordercolor="#000000"
     borderopacity="0.25"
     inkscape:showpageshadow="2"
     inkscape:pageopacity="0.0"
     inkscape:pagecheckerboard="0"
     inkscape:deskcolor="#d1d1d1">
    <inkscape:page
       x="0"
       y="0"
       inkscape:label="1"
       id="page1"
       width="572.97333"
       height="119.42667"
       margin="0"
       bleed="0" />
  </sodipodi:namedview>
  <g
     id="g1"
     inkscape:groupmode="layer"
     inkscape:label="1">
    <path
       id="path1"
       d="m 183.48358,28.3468 h -366.96716 c -8.25354,0 -14.94415,-6.69061 -14.94415,-14.94415 v -26.8053 c 0,-8.25354 6.69061,-14.94415 14.94415,-14.94415 h 366.96716 c 8.25354,0 14.94415,6.69061 14.94415,14.94415 v 26.8053 c 0,8.25354 -6.69061,14.94415 -14.94415,14.94415 z"
       style="fill:#fff8dc;fill-opacity:1;fill-rule:nonzero;stroke:#b8860b;stroke-width:2.98883;stroke-linecap:butt;stroke-linejoin:miter;stroke-miterlimit:10;stroke-dasharray:none;stroke-opacity:1"
       transform="matrix(1.3333333,0,0,-1.3333333,286.48533,59.713333)" />
    <path
       style="font-weight:800;font-size:14.3462px;font-family:Vazirmatn"
       d="m 49.657637,3.5305102 q -1.506071,0 -2.486768,-0.5744084 -0.973692,-0.5744084 -1.443026,-1.5691157 -0.469334,-0.99470719 -0.469334,-2.24159372 0,-0.83359268 0.18213,-1.72322518 0.182129,-0.8966375 0.525373,-1.78627 l 1.702211,0.6514632 q -0.259185,0.7425279 -0.434309,1.4500309 -0.175125,0.707503 -0.175125,1.32394132 0,0.67247812 0.23817,1.23287656 0.238169,0.56039844 0.805572,0.89663752 0.567404,0.336239 1.555106,0.336239 1.064757,0 1.77226,-0.2451743 0.707503,-0.2381693 1.057752,-0.56740339 0.350249,-0.32923408 0.350249,-0.58141338 0,-0.20314443 -0.252179,-0.20314443 h -1.134807 q -0.357254,0 -0.749533,-0.07004981 -0.385274,-0.0700498 -0.721513,-0.30121416 -0.336239,-0.23116435 -0.546388,-0.69349303 -0.203145,-0.4623287 -0.203145,-1.2398816 0,-0.7285179 0.23817,-1.4009961 0.238169,-0.6794831 0.679483,-1.2118616 0.448318,-0.5323785 1.071762,-0.8476026 0.623443,-0.3152241 1.400996,-0.3152241 0.525373,0 1.029732,0.1611145 0.511363,0.1541096 0.938667,0.4623287 l -0.644458,1.78627 q -0.364259,-0.2031444 -0.700498,-0.2801992 -0.329234,-0.08406 -0.609433,-0.08406 -0.756538,0 -1.183842,0.4973537 -0.427304,0.4903486 -0.427304,1.2258715 0,0.1891345 0.119085,0.2381694 0.12609,0.049035 0.308219,0.049035 h 1.022727 q 0.805573,0 1.260897,0.2521793 0.462328,0.2521793 0.651463,0.7004981 0.196139,0.44131375 0.196139,1.00871717 0,1.00171221 -0.574408,1.83530493 -0.574409,0.8335926 -1.67419,1.3309462 -1.099782,0.4973537 -2.675903,0.4973537 z m -8.265879,-9.323629 q 0.882627,0 1.499065,0.5253735 0.616439,0.5253735 0.966688,1.3869861 0.350249,0.8546076 0.420298,1.8563198 h 0.525374 V 0 H 44.13771 Q 43.738426,1.5971355 42.568594,2.507783 41.398762,3.4254354 39.374323,3.8177144 L 38.68083,1.9473846 Q 39.563458,1.779265 40.312991,1.4990658 41.069528,1.2188666 41.587897,0.84059766 42.113271,0.46232871 42.288395,0 H 41.629927 Q 40.214921,0 39.472393,-0.58841836 38.729865,-1.1838417 38.729865,-2.507783 q 0,-0.5183686 0.161114,-1.085772 0.161115,-0.5744084 0.490349,-1.071762 0.329234,-0.5043586 0.826588,-0.8125777 0.504358,-0.3152241 1.183842,-0.3152241 z m 0.231164,3.7686794 h 0.896637 q -0.04203,-0.3922789 -0.168119,-0.8055727 -0.119085,-0.4132939 -0.357254,-0.6934931 -0.231165,-0.2801992 -0.616438,-0.2801992 -0.329235,0 -0.525374,0.2101494 -0.189134,0.2031445 -0.273194,0.4903487 -0.07706,0.2801992 -0.07706,0.5183685 0,0.371264 0.308219,0.4693337 0.315224,0.091065 0.812578,0.091065 z M 34.863115,0 h -1.50607 v -2.0244394 h 1.513075 q 0.532379,0 0.728518,-0.329234 0.203145,-0.3362391 0.203145,-0.8476027 0,-0.4763386 -0.119085,-1.0367371 -0.11208,-0.5674034 -0.231164,-1.1067869 l 1.835305,-0.4763387 q 0.133094,0.6584682 0.210149,1.3099314 0.08406,0.6444582 0.08406,1.2328765 0,0.9316624 -0.252179,1.6741904 -0.245175,0.7425279 -0.840598,1.17683669 Q 35.892848,0 34.863115,0 Z M 33.539174,0.8966375 34.730021,2.0734742 35.906857,0.8966375 37.104709,2.0874842 35.906857,3.2923408 34.730021,2.1014941 33.539174,3.2923408 32.348327,2.0874842 Z M 28.579647,3.8247193 27.865139,1.9473846 q 1.015722,-0.2171544 1.74424,-0.5814134 0.735523,-0.357254 1.134807,-0.95968233 0.399284,-0.60242832 0.399284,-1.55510567 0,-0.6374532 -0.203144,-1.429016 -0.203145,-0.7985678 -0.434309,-1.4850559 l 1.891345,-0.6094333 q 0.273194,0.7635429 0.413293,1.6461704 0.147105,0.8826276 0.147105,1.6952053 0,1.47104591 -0.546388,2.521793 -0.539384,1.057752 -1.527086,1.7092152 -0.980697,0.6584682 -2.304639,0.9246574 z M 25.203246,-9.8209826 h 1.891344 v 6.4025521 q 0,0.742528 0.217155,1.071762 0.217154,0.3222291 0.896637,0.3222291 h 0.175125 V 0 H 28.208382 Q 26.639267,0 25.917754,-0.81257773 25.203246,-1.6251555 25.203246,-3.2503109 Z m -3.971823,5.008561 1.751245,-0.2171544 0.1401,2.0034244 q 0.03503,0.5323786 0.294209,0.7705479 0.259184,0.2311643 0.826588,0.2311643 h 0.147104 V 0 H 24.229555 Q 23.529057,0 23.024698,-0.2521793 22.527345,-0.50435859 22.205116,-0.91064746 21.777812,-0.48334365 21.189393,-0.23816934 20.60798,0 19.949512,0 h -0.672478 v -2.0244394 h 0.672478 q 0.770548,0 1.057752,-0.2591842 0.294209,-0.2661893 0.294209,-0.9666873 0,-0.4132939 -0.02102,-0.7985678 -0.02101,-0.3922789 -0.04903,-0.7635429 z m 0.385274,-3.7126396 1.260897,1.2608965 -1.260897,1.2538915 -1.253891,-1.2538915 z M 12.671337,0 q -0.707503,0 -1.190846,-0.23816934 -0.476339,-0.24517431 -0.784558,-0.6444582 -0.385274,0.40628887 -0.9176526,0.6444582 Q 9.2459019,0 8.4333242,0 H 7.788866 v -2.0244394 h 0.6584681 q 0.7705479,0 1.092777,-0.1891344 0.3292341,-0.1891345 0.3292341,-0.9106475 0,-0.1120797 -0.01401,-0.371264 -0.01401,-0.2591842 -0.035025,-0.5674034 -0.021015,-0.3152241 -0.04203,-0.5674034 l 1.7582506,-0.2171544 0.147104,1.8913447 q 0.06304,0.9316624 1.001712,0.9316624 0.581414,0 0.777553,-0.2381693 0.19614,-0.2451743 0.19614,-0.8616126 0,-0.09807 -0.01401,-0.357254 -0.01401,-0.2661892 -0.03503,-0.5814134 -0.02101,-0.3152241 -0.04203,-0.5674034 l 1.75825,-0.2171544 0.147105,1.8913447 q 0.02802,0.4273039 0.210149,0.6794831 0.189134,0.2521793 0.637453,0.2521793 0.420299,0 0.574409,-0.329234 0.161114,-0.3362391 0.161114,-0.7985678 0,-0.3992839 -0.07706,-0.8195827 -0.07005,-0.4273038 -0.161114,-0.7705479 -0.08406,-0.350249 -0.12609,-0.5113635 l 1.81429,-0.4973537 q 0.1401,0.5533935 0.231164,1.1838417 0.09107,0.6234433 0.09107,1.2398816 0,0.8686176 -0.231164,1.6321604 -0.22416,0.75653792 -0.770548,1.22587161 Q 17.280614,0 16.334942,0 15.704494,0 15.270185,-0.25918428 14.842881,-0.51836855 14.548672,-0.8966375 14.191418,-0.51836855 13.736094,-0.25918428 13.287776,0 12.671337,0 Z M 8.012353,-5.365815 q 0,-0.5323786 0.3782689,-0.8826276 0.378269,-0.350249 0.9106475,-0.350249 0.5393835,0 0.9106476,0.350249 0.378269,0.350249 0.378269,0.8826276 0,0.5253735 -0.378269,0.8756225 -0.3782691,0.350249 -0.9106476,0.350249 -0.5463885,0 -0.9176524,-0.343244 -0.371264,-0.350249 -0.371264,-0.8826275 z m 0,4.1259335 q 0,-0.5253736 0.3782689,-0.8756226 0.378269,-0.357254 0.9106475,-0.357254 0.5393835,0 0.9106476,0.357254 0.378269,0.350249 0.378269,0.8756226 0,0.53237847 -0.378269,0.8826275 -0.3782691,0.35024902 -0.9106476,0.35024902 -0.5463885,0 -0.9176524,-0.35024902 -0.371264,-0.35024903 -0.371264,-0.8826275 z m 56.558214,-6.4445821 q -0.560399,0 -0.861613,0.4413138 -0.294209,0.4343088 -0.294209,0.9526773 0,0.1891345 0.399284,0.3222291 0.406289,0.1260897 0.987702,0.1260897 0.427304,0 0.896637,-0.08406 0.476339,-0.091065 0.903643,-0.2942092 l 0.259184,1.8703298 q -0.602428,0.2872042 -1.169831,0.371264 -0.567404,0.08406 -0.973693,0.08406 -0.721513,0 -1.436021,-0.1891345 -0.714508,-0.1891345 -1.190846,-0.4903486 0.09807,0.8896325 0.119084,1.7442401 0.02802,0.8546076 0.02802,1.4990658 V 0 h -1.919365 v -1.3519612 q 0,-2.5007781 -0.294209,-4.329078 -0.294209,-1.8282999 -1.015722,-3.3063507 l 1.821295,-0.6514632 0.644458,1.8913447 q 0.133095,0.371264 0.22416,0.6094333 0.09807,0.2381693 0.231164,0.378269 0.04203,-0.742528 0.357254,-1.3659712 0.322229,-0.6304483 0.882628,-1.0157222 0.560398,-0.3852739 1.316936,-0.3852739 0.728518,0 1.204857,0.2171544 0.483343,0.2171544 0.875622,0.5253735 l -0.616438,1.5410957 Q 65.593294,-7.4532992 65.27807,-7.5653789 64.962846,-7.6844636 64.570567,-7.6844636 Z M 156.91823,3.60056 q -1.5411,0 -2.51479,-0.5954234 -0.96669,-0.5954233 -1.42902,-1.5971355 -0.45532,-0.99470725 -0.45532,-2.21357385 0,-0.69349305 0.13309,-1.45003095 0.1401,-0.7565379 0.43431,-1.5410957 l 1.70221,0.6164383 q -0.21015,0.6094333 -0.33624,1.2118616 -0.12609,0.6024283 -0.12609,1.13480682 0,0.67948311 0.23817,1.22587159 0.24518,0.55339345 0.81258,0.87562259 0.5674,0.329234 1.5411,0.329234 1.11379,0 1.78627,-0.2311643 0.67247,-0.2311644 0.97369,-0.51836856 0.30822,-0.2872042 0.30822,-0.44831875 0,-0.24517432 -0.23817,-0.3222291 Q 159.51707,0 159.00571,0 h -1.10679 q -0.2872,0 -0.36426,-0.14710459 -0.0771,-0.14710459 -0.1471,-0.39227891 l -0.30121,-1.085772 q -0.049,-0.1751245 -0.035,-0.2872042 0.021,-0.1120797 0.2732,-0.1120797 h 4.231 V 0 h 0.056 q 0.0631,0.24517432 0.0631,0.39227891 0,0.85460759 -0.56741,1.58312559 -0.56039,0.7355229 -1.62515,1.1768367 Q 158.4243,3.60056 156.91823,3.60056 Z m -10.24129,-13.603672 1.1278,1.1207968 -1.1278,1.1278018 -1.1278,-1.1278018 z m 1.22587,1.7862699 1.1278,1.1278019 -1.1278,1.1278018 -1.1278,-1.1278018 z m -2.44474,0 1.1208,1.1278019 -1.1208,1.1278018 -1.1278,-1.1278018 z M 145.17787,0 q -0.7075,0 -1.19084,-0.23816934 -0.47634,-0.24517431 -0.78456,-0.6444582 -0.38528,0.40628887 -0.91765,0.6444582 Q 141.75244,0 140.93986,0 h -0.64446 v -2.0244394 h 0.65847 q 0.77055,0 1.09278,-0.1891344 0.32923,-0.1891345 0.32923,-0.9106475 0,-0.1120797 -0.014,-0.371264 -0.014,-0.2591842 -0.035,-0.5674034 -0.021,-0.3152241 -0.042,-0.5674034 l 1.75825,-0.2171544 0.1471,1.8913447 q 0.0631,0.9316624 1.00171,0.9316624 0.58142,0 0.77756,-0.2381693 0.19614,-0.2451743 0.19614,-0.8616126 0,-0.09807 -0.014,-0.357254 -0.014,-0.2661892 -0.035,-0.5814134 -0.021,-0.3152241 -0.042,-0.5674034 l 1.75825,-0.2171544 0.14711,1.8913447 q 0.028,0.4273039 0.21014,0.6794831 0.18914,0.2521793 0.63746,0.2521793 0.4203,0 0.57441,-0.329234 0.16111,-0.3362391 0.16111,-0.7985678 0,-0.3992839 -0.0771,-0.8195827 -0.0701,-0.4273038 -0.16112,-0.7705479 -0.0841,-0.350249 -0.12609,-0.5113635 l 1.81429,-0.4973537 q 0.1401,0.5533935 0.23117,1.1838417 0.0911,0.6234433 0.0911,1.2398816 0,0.8686176 -0.23116,1.6321604 -0.22416,0.75653792 -0.77055,1.22587161 Q 149.78715,0 148.84148,0 q -0.63045,0 -1.06476,-0.25918428 -0.4273,-0.25918427 -0.72151,-0.63745322 -0.35726,0.37826895 -0.81258,0.63745322 Q 145.79431,0 145.17787,0 Z m -7.78252,-9.8209826 h 1.89134 v 6.4025521 q 0,0.742528 0.21716,1.071762 0.21715,0.3222291 0.89664,0.3222291 h 0.17512 V 0 h -0.17512 q -1.56912,0 -2.29063,-0.81257773 -0.71451,-0.81257777 -0.71451,-2.43773317 z M 133.15033,0 h -1.50607 v -2.0244394 h 1.51308 q 0.53238,0 0.72851,-0.329234 0.20315,-0.3362391 0.20315,-0.8476027 0,-0.4763386 -0.11909,-1.0367371 -0.11208,-0.5674034 -0.23116,-1.1067869 l 1.8353,-0.4763387 q 0.1331,0.6584682 0.21015,1.3099314 0.0841,0.6444582 0.0841,1.2328765 0,0.9316624 -0.25218,1.6741904 -0.24517,0.7425279 -0.84059,1.17683669 Q 134.18006,0 133.15033,0 Z m 1.05775,0.69349307 1.12781,1.12780183 -1.12781,1.1278019 -1.1278,-1.1278019 z m -2.44473,0 1.12079,1.12780183 -1.12079,1.1278019 -1.12781,-1.1278019 z m 1.21886,1.79327503 1.1278,1.1278018 -1.1278,1.1207969 -1.1278,-1.1207969 z m -1.75125,-4.0418738 q 0,1.63916547 -0.60943,2.7249374 -0.60243,1.085772 -1.70922,1.7232252 -1.10678,0.6374533 -2.61986,0.9246575 l -0.69349,-1.8703298 q 1.42902,-0.2731943 2.3887,-0.7775529 0.96668,-0.50435856 1.22587,-1.2398815 -0.17513,0.0350249 -0.36426,0.06304482 -0.18913,0.02101494 -0.34324,0.02101494 -1.33095,0 -2.09449,-0.58841836 -0.76355,-0.5884184 -0.76355,-1.9333746 0,-0.5603984 0.16812,-1.1418118 0.16812,-0.5884184 0.50436,-1.078767 0.33624,-0.4973536 0.83359,-0.7985678 0.49736,-0.3012141 1.15583,-0.3012141 0.75653,0 1.30292,0.3642589 0.5534,0.364259 0.91065,0.9736923 0.35725,0.6094333 0.53238,1.3729762 0.17512,0.7635429 0.17512,1.5621106 z m -2.75295,-0.4483187 q 0.30121,0 0.54638,-0.035025 0.25218,-0.035025 0.4133,-0.07005 -0.042,-0.357254 -0.16112,-0.7635429 -0.11908,-0.4062889 -0.35725,-0.6934931 -0.23116,-0.2942091 -0.62344,-0.2942091 -0.33624,0 -0.53238,0.2241593 -0.18914,0.2241594 -0.26619,0.5253736 -0.0771,0.3012141 -0.0771,0.5253735 0,0.378269 0.30122,0.4833437 0.30822,0.09807 0.75654,0.09807 z M 124.83105,0 q -0.63745,0 -1.05074,-0.24517432 -0.2802,1.61114552 -1.37998,2.66189262 -1.09278,1.050747 -2.92108,1.4009961 l -0.69349,-1.8703298 q 1.01572,-0.2171544 1.74424,-0.5814134 0.73552,-0.357254 1.1348,-0.95968233 0.39929,-0.60242832 0.39929,-1.55510567 0,-0.6374532 -0.20315,-1.429016 -0.20314,-0.7985678 -0.43431,-1.4850559 l 1.88434,-0.6094333 0.40629,1.5831256 q 0.11909,0.4483188 0.35025,0.7565379 0.23117,0.3082191 0.68649,0.3082191 h 0.27319 V 0 Z m -8.37096,-11.425123 1.2609,1.260896 -1.2609,1.2538919 -1.25389,-1.2538919 z m -0.53238,9.4006836 q 0.89664,0 1.36598,-0.1400996 0.47633,-0.1400996 0.48334,-0.693493 -0.51136,0.09807 -1.08577,0.09807 -1.23988,0 -1.9614,-0.5113636 -0.72151,-0.5183685 -0.72151,-1.6811953 0,-0.5674034 0.18213,-1.1207969 0.18913,-0.5603984 0.53238,-1.0157221 0.35025,-0.4623287 0.83359,-0.735523 0.49035,-0.2801992 1.09278,-0.2801992 0.77755,0 1.33094,0.3922789 0.5604,0.3852739 0.91065,1.0367371 0.35025,0.6514632 0.51137,1.457036 0.16811,0.7985677 0.16811,1.6321604 0,1.4570359 -0.39928,2.2345888 -0.39228,0.77054782 -1.21887,1.064757 Q 117.13257,0 115.84366,0 h -2.57784 v -2.0244394 z m 0.73553,-2.4517431 q 0.26619,0 0.53238,-0.02802 0.27319,-0.02802 0.53237,-0.08406 -0.049,-0.3362391 -0.18212,-0.6934931 -0.1331,-0.364259 -0.35726,-0.6164383 -0.22416,-0.2521792 -0.55339,-0.2521792 -0.43431,0 -0.67248,0.357254 -0.23116,0.350249 -0.23116,0.7565378 0,0.371264 0.27319,0.4693337 0.27319,0.091065 0.65847,0.091065 z m -1.90636,-3.6846197 1.2609,1.2608964 -1.2609,1.2538915 -1.25389,-1.2538915 z m -2.73895,11.9855215 -0.7145,-1.8773347 q 1.01572,-0.2171544 1.74424,-0.5814134 0.73552,-0.357254 1.1348,-0.95968233 0.39929,-0.60242832 0.39929,-1.55510567 0,-0.6374532 -0.20315,-1.429016 -0.20314,-0.7985678 -0.43431,-1.4850559 l 1.89135,-0.6094333 q 0.27319,0.7635429 0.41329,1.6461704 0.14711,0.8826276 0.14711,1.6952053 0,1.47104591 -0.54639,2.521793 -0.53939,1.057752 -1.52709,1.7092152 -0.9807,0.6584682 -2.30464,0.9246574 z m -0.30821,-13.6457019 v 9.81397762 h -1.89135 V -9.8209826 Z M 109.1242,0 h -1.11379 v -2.0244394 h 1.1208 q 0.53238,0 0.72852,-0.329234 0.20314,-0.3362391 0.20314,-0.8476027 0,-0.4763386 -0.11908,-1.0367371 -0.11208,-0.5674034 -0.23117,-1.1067869 l 1.83531,-0.4763387 q 0.13309,0.6584682 0.21015,1.3099314 0.0841,0.6444582 0.0841,1.2328765 0,0.9316624 -0.25218,1.6741904 -0.25218,0.7425279 -0.8476,1.17683669 Q 110.15394,0 109.1242,0 Z m 0.82659,-9.1344945 1.2609,1.2608965 -1.2609,1.2538915 -1.25389,-1.2538915 z m -5.07161,3.3413757 q 0.88263,0 1.49907,0.5253735 0.61644,0.5253735 0.96669,1.3869861 0.35025,0.8546076 0.4203,1.8563198 h 0.52537 V 0 h -0.66547 q -0.39929,1.5971355 -1.56912,2.507783 -1.16983,0.9176524 -3.19427,1.3099314 l -0.69349,-1.8703298 q 0.88262,-0.1681196 1.63216,-0.4483188 0.75654,-0.2801992 1.2749,-0.65846814 Q 105.6007,0.46232871 105.77582,0 h -0.65847 q -1.415,0 -2.15753,-0.58841836 -0.74253,-0.59542334 -0.74253,-1.91936464 0,-0.5183686 0.16112,-1.085772 0.16111,-0.5744084 0.49034,-1.071762 0.32924,-0.5043586 0.82659,-0.8125777 0.50436,-0.3152241 1.18384,-0.3152241 z m 0.23117,3.7686794 h 0.89664 q -0.042,-0.3922789 -0.16812,-0.8055727 -0.11909,-0.4132939 -0.35726,-0.6934931 -0.23116,-0.2801992 -0.61644,-0.2801992 -0.32923,0 -0.52537,0.2101494 -0.18913,0.2031445 -0.27319,0.4903487 -0.0771,0.2801992 -0.0771,0.5183685 0,0.371264 0.30822,0.4693337 0.31523,0.091065 0.81258,0.091065 z M 96.510525,3.8247193 95.796017,1.9473846 q 1.015722,-0.2171544 1.74424,-0.5814134 0.735523,-0.357254 1.134807,-0.95968233 0.399284,-0.60242832 0.399284,-1.55510567 0,-0.6374532 -0.203145,-1.429016 -0.203144,-0.7985678 -0.434308,-1.4850559 l 1.891345,-0.6094333 q 0.27319,0.7635429 0.41329,1.6461704 0.14711,0.8826276 0.14711,1.6952053 0,1.47104591 -0.54639,2.521793 -0.539384,1.057752 -1.527086,1.7092152 -0.980698,0.6584682 -2.304639,0.9246574 z m -3.971813,-5.8281437 q 0.574408,0 1.120797,-0.077055 0.553393,-0.08406 0.910647,-0.3082191 0.364259,-0.2241594 0.364259,-0.6514632 0,-0.4413138 -0.427304,-0.9386674 -0.420298,-0.5043586 -1.120797,-0.9877022 -0.693493,-0.4833437 -1.513075,-0.8686176 l 0.861612,-1.8212949 q 0.742528,0.3642589 1.450031,0.8195827 0.714508,0.4483187 1.281912,1.0017122 0.574408,0.5533934 0.910647,1.2258716 0.343244,0.6724781 0.343244,1.4850558 0,1.1207969 -0.511363,1.807285 -0.504359,0.68648806 -1.422011,0.9947072 -0.917653,0.30821914 -2.143524,0.30821914 -0.560399,0 -1.043743,-0.0350249 -0.483343,-0.04202989 -0.945672,-0.14710459 V -2.2135738 q 0.455324,0.091065 0.973692,0.1541095 0.525374,0.05604 0.910648,0.05604 z"
       id="text1"
       transform="matrix(1.3333333,0,0,1.3333333,177.84,64.173333)"
       aria-label="یﻮﯾرﺎﻨﺳ:۴ﯽﺷﺎﭘوﺮﻓزانورد" />
  </g>
</svg>
