<?xml version="1.0" encoding="UTF-8" standalone="no"?>


<svg class="tikz-diagram" id="iran-action-ch9-tikz-6-ad20d26852fc"
   version="1.1"
   id="svg1"
   width="572.97333"
   height="119.42667"
   viewBox="0 0 572.97333 119.42667"
   sodipodi:docname="iran-action-ch9-tikz-6-ad20d26852fc.pdf"
   xmlns:inkscape="http://www.inkscape.org/namespaces/inkscape"
   xmlns:sodipodi="http://sodipodi.sourceforge.net/DTD/sodipodi-0.dtd"
   xmlns="http://www.w3.org/2000/svg"
   xmlns:svg="http://www.w3.org/2000/svg">
  <defs
     id="defs1" />
  <sodipodi:namedview
     id="namedview1"
     pagecolor="#ffffff"
     bordercolor="#000000"
     borderopacity="0.25"
     inkscape:showpageshadow="2"
     inkscape:pageopacity="0.0"
     inkscape:pagecheckerboard="0"
     inkscape:deskcolor="#d1d1d1">
    <inkscape:page
       x="0"
       y="0"
       inkscape:label="1"
       id="page1"
       width="572.97333"
       height="119.42667"
       margin="0"
       bleed="0" />
  </sodipodi:namedview>
  <g
     id="g1"
     inkscape:groupmode="layer"
     inkscape:label="1">
    <path
       id="path1"
       d="m 183.48358,28.3468 h -366.96716 c -8.25354,0 -14.94415,-6.69061 -14.94415,-14.94415 v -26.8053 c 0,-8.25354 6.69061,-14.94415 14.94415,-14.94415 h 366.96716 c 8.25354,0 14.94415,6.69061 14.94415,14.94415 v 26.8053 c 0,8.25354 -6.69061,14.94415 -14.94415,14.94415 z"
       style="fill:#fff8dc;fill-opacity:1;fill-rule:nonzero;stroke:#b8860b;stroke-width:2.98883;stroke-linecap:butt;stroke-linejoin:miter;stroke-miterlimit:10;stroke-dasharray:none;stroke-opacity:1"
       transform="matrix(1.3333333,0,0,-1.3333333,286.48533,59.713333)" />
    <path
       style="font-weight:800;font-size:14.3462px;font-family:Vazirmatn"
       d="m 41.141033,0 q -0.980697,0 -1.611145,-0.37126396 -0.630449,-0.37826895 -0.910648,-1.23287654 -0.805573,0.63044822 -1.75825,0.63044822 -1.162827,0 -1.940379,-0.63044822 -0.777553,-0.6374532 -0.777553,-1.8773348 0,-0.9106475 0.525373,-1.5551057 0.525374,-0.6514631 1.351961,-1.0927769 0.833593,-0.4413138 1.737236,-0.714508 l -0.04903,-0.3362391 1.695205,-0.343244 0.665473,4.4971974 q 0.06305,0.4273038 0.329234,0.714508 0.273194,0.2872042 0.770548,0.2872042 h 0.217154 V 0 Z m -2.907067,-3.7616745 q 0,-0.09807 -0.02102,-0.2171544 -0.01401,-0.1260897 -0.03502,-0.2591843 l -0.119084,-0.7355229 q -0.497354,0.1681195 -0.980697,0.3922789 -0.476339,0.2171544 -0.791563,0.4833436 -0.308219,0.2591843 -0.308219,0.5603985 0,0.2872042 0.231164,0.4693337 0.238169,0.1751245 0.616438,0.1751245 0.322229,0 0.644458,-0.091065 0.329234,-0.09807 0.546389,-0.2872042 0.217154,-0.1961394 0.217154,-0.4903486 z m -7.698473,0.4132938 v -6.4726019 h 1.88434 v 6.4726019 q 0,0.6584682 0.210149,0.9947073 0.217155,0.329234 0.854608,0.329234 h 0.224159 V 0 H 33.4986 Q 32.756072,0 32.286738,-0.22415937 31.82441,-0.45532373 31.474161,-0.90364248 31.102897,-0.47633867 30.605543,-0.23816934 30.115195,0 29.295612,0 h -0.427304 v -2.0244394 h 0.378269 q 0.707503,0 0.994707,-0.3152241 0.294209,-0.3222291 0.294209,-1.0087172 z m -11.453142,1.3239413 h 1.190846 q 0.903643,0 1.681196,-0.1681195 0.777552,-0.1751245 1.597135,-0.5183685 0.826588,-0.3432441 1.877335,-0.8546077 -1.078767,-0.3922789 -1.74424,-0.6584681 -0.665473,-0.2731943 -0.910648,-0.2731943 -0.378269,0 -0.686488,0.2381694 -0.301214,0.2311643 -0.497353,0.4903486 l -0.371264,0.4693337 -1.569116,-0.7705478 0.315224,-0.5043586 q 0.497354,-0.8125778 1.190847,-1.3449563 0.693493,-0.5393835 1.625155,-0.5393835 0.392279,0 0.910648,0.1821295 0.525373,0.1821295 1.120797,0.4553237 0.602428,0.2661893 1.239881,0.5393835 0.644458,0.2661893 1.267902,0.4553238 0.630448,0.1891344 1.204856,0.1961394 v 1.8563198 q -0.532378,0.07005 -0.987702,0.2381694 -0.455324,0.1611145 -0.945672,0.4132938 -0.490349,0.2521793 -1.141812,0.6024283 -0.896638,0.4763387 -1.695205,0.81958275 Q 22.96311,-0.357254 22.122512,-0.17512451 21.288919,0 20.252182,0 H 19.082351 Z M 18.047407,0 Q 17.409954,0 16.99666,-0.24517432 16.716461,1.3659712 15.616679,2.4167183 14.523902,3.4674653 12.695602,3.8177144 L 12.002109,1.9473846 q 1.015722,-0.2171544 1.74424,-0.5814134 0.735523,-0.357254 1.134807,-0.95968233 0.399284,-0.60242832 0.399284,-1.55510567 0,-0.6374532 -0.203145,-1.429016 -0.203144,-0.7985678 -0.434309,-1.4850559 l 1.88434,-0.6094333 0.406289,1.5831256 q 0.119085,0.4483188 0.350249,0.7565379 0.231164,0.3082191 0.686488,0.3082191 h 0.273194 V 0 Z m -7.586393,0.16111455 q -0.7285179,0 -1.3659712,-0.30821914 Q 8.4645946,-0.46232871 7.8621663,-0.92465742 7.4768924,-0.5393835 7.0565935,-0.26618926 6.6432997,0 5.8447319,0 H 5.5365128 V -2.0244394 H 5.809707 q 0.343244,0 0.6164383,-0.2661892 0.2801992,-0.2661893 0.5323785,-0.6864881 0.2591843,-0.4273038 0.5393835,-0.8966375 0.2872042,-0.4763387 0.6374532,-0.8966375 0.357254,-0.4273038 0.8265877,-0.6934931 0.4693337,-0.2661892 1.0997818,-0.2661892 0.882628,0 1.527086,0.4202988 0.644458,0.4132939 0.994707,1.0997819 0.350249,0.6794831 0.350249,1.4850559 0,0.8265877 -0.273194,1.4780509 -0.273194,0.65146316 -0.826588,1.02973211 -0.546388,0.37826894 -1.372976,0.37826894 z M 10.124775,-3.8037044 q -0.2872042,0 -0.5183686,0.1961395 -0.2311643,0.1891344 -0.4062888,0.4623287 -0.1751246,0.2731942 -0.2942092,0.5183685 0.2031444,0.1821295 0.3852739,0.3152241 0.1821295,0.1330947 0.350249,0.2311644 0.2521793,0.1400996 0.4623287,0.1961395 0.210149,0.05604 0.364259,0.05604 0.371264,0 0.532379,-0.2661893 0.161114,-0.2731942 0.161114,-0.6164382 0,-0.4413138 -0.273194,-0.7635429 -0.273194,-0.3292341 -0.763543,-0.3292341 z M 5.7456532,-5.365815 q 0,-0.5323786 0.378269,-0.8826276 0.3782689,-0.350249 0.9106474,-0.350249 0.5393835,0 0.9106475,0.350249 0.3782689,0.350249 0.3782689,0.8826276 0,0.5253735 -0.3782689,0.8756225 -0.378269,0.350249 -0.9106475,0.350249 -0.5463885,0 -0.9176524,-0.343244 -0.371264,-0.350249 -0.371264,-0.8826275 z m 0,4.1259335 q 0,-0.5253736 0.378269,-0.8756226 0.3782689,-0.357254 0.9106474,-0.357254 0.5393835,0 0.9106475,0.357254 0.3782689,0.350249 0.3782689,0.8756226 0,0.53237847 -0.3782689,0.8826275 -0.378269,0.35024902 -0.9106475,0.35024902 -0.5463885,0 -0.9176524,-0.35024902 -0.371264,-0.35024903 -0.371264,-0.8826275 z M 50.605547,-4.6933369 q -0.462329,0 -0.917653,-0.1611146 -0.448318,-0.1681195 -0.693493,-0.4483187 -0.245174,0.2591843 -0.637453,0.4343088 -0.385274,0.1751245 -0.749533,0.1751245 -0.09807,0 -0.245174,0 -0.147105,-0.007 -0.245174,-0.02802 0.09807,0.9106474 0.126089,1.7022102 0.02802,0.7915628 0.02802,1.6251555 V 0 h -1.919365 v -1.4150061 q 0,-1.6671853 -0.126089,-3.0051366 -0.12609,-1.3449562 -0.413294,-2.4587481 -0.287204,-1.1207969 -0.763543,-2.1084991 l 1.793275,-0.6444582 q 0.252179,0.6024283 0.413294,1.078767 0.161114,0.4763386 0.420299,1.0927769 0.126089,0.3012142 0.308219,0.5113636 0.189134,0.2101494 0.553393,0.2101494 0.413294,0 0.532379,-0.3082191 0.119085,-0.3152242 0.12609,-0.9246575 l 0.01401,-1.057752 1.548101,-0.08406 0.04203,1.0017122 q 0.03503,0.8476027 0.203144,1.1137919 0.175125,0.2591843 0.532379,0.2591843 0.266189,0 0.399284,-0.1891345 0.133095,-0.1891345 0.175124,-0.4763386 0.04203,-0.2872042 0.04203,-0.5884184 0,-0.350249 -0.05604,-0.707503 -0.04903,-0.357254 -0.08406,-0.6024284 l 1.807285,-0.1681195 q 0.03502,0.350249 0.05604,0.721513 0.02802,0.364259 0.02802,0.721513 0,0.8756225 -0.217154,1.6391654 -0.210149,0.7565379 -0.714508,1.2258716 -0.497354,0.4693337 -1.365971,0.4693337 z m 81.100753,3.83872928 1.2609,1.26089649 -1.2609,1.25389153 -1.25389,-1.25389153 z m -4.48319,1.69520528 q 0,-1.00871719 0.37827,-1.82829991 0.37827,-0.81958275 1.03674,-1.44302595 0.65847,-0.6304483 1.50607,-1.078767 0.8476,-0.4483188 1.77927,-0.707503 -0.65847,-0.2801993 -1.1208,-0.4553238 -0.46233,-0.1751245 -0.65146,-0.1751245 -0.38528,0 -0.6935,0.2381694 -0.30822,0.2381693 -0.50436,0.4973536 l -0.37126,0.4623287 -1.56912,-0.7635429 0.31523,-0.5113636 q 0.49035,-0.8125777 1.19085,-1.3449562 0.7075,-0.5323785 1.63916,-0.5323785 0.38527,0 0.90364,0.1821295 0.52538,0.1821295 1.1208,0.4553237 0.60243,0.2661892 1.23988,0.5393835 0.63746,0.2661892 1.2679,0.4553237 0.63045,0.1891345 1.19785,0.1961395 l -0.007,1.8142899 q -0.35025,0.02802 -0.82659,0.08406 -0.46933,0.049035 -0.77055,0.1050747 0.028,0.5463885 0.53939,0.7495329 0.51837,0.1961394 1.44302,0.1961394 h 0.56741 V 0 h -0.54639 q -1.07877,0 -1.86333,-0.21715439 -0.78455,-0.22415938 -1.23988,-0.77755284 -0.44832,-0.56039847 -0.53238,-1.56911557 -1.05074,0.3222291 -1.87733,0.8195827 -0.82659,0.4903486 -1.30293,1.1348068 -0.46933,0.63745322 -0.46933,1.40800107 0,0.67948313 0.39928,1.14181183 0.40629,0.4623287 1.09278,0.6934931 0.69349,0.2381693 1.56211,0.2381693 0.9877,0 1.88434,-0.1891345 0.89664,-0.1821295 1.61115,-0.4623287 l 0.5674,1.8983497 q -0.94567,0.378269 -1.9684,0.5463885 -1.02273,0.1751245 -2.01743,0.1751245 -1.35897,0 -2.47276,-0.4062889 -1.11379,-0.3992839 -1.77927,-1.2819114 -0.65847,-0.8826275 -0.65847,-2.31164354 z m -5.94022,-2.86503706 h 1.05775 q 0.77055,0 1.05775,-0.2591842 0.29421,-0.2661893 0.29421,-0.9666873 0,-0.4132939 -0.021,-0.7985678 -0.021,-0.3922789 -0.049,-0.7635429 l 1.75125,-0.2171544 0.1401,2.0034244 q 0.035,0.5323786 0.2942,0.7705479 0.25919,0.2311643 0.82659,0.2311643 h 0.14711 V 0 h -0.16112 q -0.7005,0 -1.20485,-0.2521793 -0.49736,-0.25217929 -0.81959,-0.65846816 -0.4273,0.42730381 -1.01572,0.67247812 Q 122.99911,0 122.34064,0 h -1.05775 z m 0.18213,2.9210769 1.19084,1.1768367 1.17684,-1.1768367 1.19785,1.1908467 -1.19785,1.2048566 -1.17684,-1.1908467 -1.19084,1.1908467 -1.19085,-1.2048566 z M 117.73136,0 q -0.62344,0 -1.05775,-0.25918428 -0.43431,-0.25918427 -0.72852,-0.63745322 -0.35725,0.37826895 -0.81258,0.63745322 Q 114.6842,0 114.06776,0 q -0.70751,0 -1.19085,-0.23816934 -0.47634,-0.24517431 -0.78456,-0.6444582 -0.38527,0.40628887 -0.91765,0.6444582 Q 110.64232,0 109.82974,0 h -0.64445 v -2.0244394 h 0.65846 q 0.77055,0 1.09278,-0.1891344 0.32924,-0.1891345 0.32924,-0.9106475 0,-0.1120797 -0.014,-0.371264 -0.014,-0.2591842 -0.035,-0.5674034 -0.021,-0.3152241 -0.042,-0.5674034 l 1.75825,-0.2171544 0.14711,1.8913447 q 0.063,0.9316624 1.00171,0.9316624 0.58141,0 0.77755,-0.2381693 0.19614,-0.2451743 0.19614,-0.8616126 0,-0.09807 -0.014,-0.357254 -0.014,-0.2661892 -0.035,-0.5814134 -0.021,-0.3152241 -0.042,-0.5674034 l 1.75825,-0.2171544 0.1471,1.8913447 q 0.028,0.4343088 0.21715,0.6864881 0.18914,0.2451743 0.63045,0.2451743 0.43431,0 0.58842,-0.2872042 0.16112,-0.2872042 0.16112,-0.8125777 0,-0.2521793 -0.028,-0.728518 -0.028,-0.4763386 -0.063,-0.9106474 l 1.75825,-0.2171544 0.14711,2.0244393 q 0.035,0.5183686 0.2872,0.728518 0.25918,0.2031444 0.79857,0.2031444 h 0.21015 V 0 h -0.19614 q -0.64446,0 -1.14181,-0.22415937 -0.49035,-0.22415938 -0.77756,-0.60943331 -0.2872,0.35725401 -0.7075,0.59542334 Q 118.33379,0 117.73136,0 Z m -11.69832,0 h -1.26089 v -2.0244394 h 1.2679 q 0.53238,0 0.72852,-0.329234 0.20314,-0.3362391 0.20314,-0.8476027 0,-0.4763386 -0.11908,-1.0367371 -0.11208,-0.5674034 -0.23117,-1.1067869 l 1.83531,-0.4763387 q 0.13309,0.6584682 0.21015,1.3099314 0.084,0.6444582 0.084,1.2328765 0,0.9316624 -0.25217,1.6741904 -0.25218,0.7425279 -0.84761,1.17683669 Q 107.06277,0 106.03304,0 Z m 0.18213,0.82658769 1.2609,1.26089651 -1.2609,1.2538915 -1.25389,-1.2538915 z m 1.69453,-2.38169339 q 0,1.63916547 -0.60943,2.7249374 -0.60243,1.085772 -1.70921,1.7232252 -1.10679,0.6374533 -2.61987,0.9246575 L 102.2777,1.9473846 q 1.42902,-0.2731943 2.3887,-0.7775529 0.96669,-0.50435856 1.22587,-1.2398815 -0.17512,0.0350249 -0.36426,0.06304482 -0.18913,0.02101494 -0.34324,0.02101494 -1.33095,0 -2.09449,-0.58841836 -0.76354,-0.5884184 -0.76354,-1.9333746 0,-0.5603984 0.16811,-1.1418118 0.16812,-0.5884184 0.50436,-1.078767 0.33624,-0.4973536 0.8336,-0.7985678 0.49735,-0.3012141 1.15582,-0.3012141 0.75654,0 1.30292,0.3642589 0.5534,0.364259 0.91065,0.9736923 0.35726,0.6094333 0.53238,1.3729762 0.17512,0.7635429 0.17512,1.5621106 z m -2.75295,-0.4483187 q 0.30121,0 0.54639,-0.035025 0.25218,-0.035025 0.41329,-0.07005 -0.042,-0.357254 -0.16111,-0.7635429 -0.11909,-0.4062889 -0.35726,-0.6934931 -0.23116,-0.2942091 -0.62344,-0.2942091 -0.33624,0 -0.53238,0.2241593 -0.18914,0.2241594 -0.26619,0.5253736 -0.077,0.3012141 -0.077,0.5253735 0,0.378269 0.30121,0.4833437 0.30822,0.09807 0.75654,0.09807 z m -4.77807,5.8281437 -0.714507,-1.8773347 q 1.015727,-0.2171544 1.744237,-0.5814134 0.73553,-0.357254 1.13481,-0.95968233 0.39928,-0.60242832 0.39928,-1.55510567 0,-0.6374532 -0.20314,-1.429016 -0.20314,-0.7985678 -0.43431,-1.4850559 l 1.89135,-0.6094333 q 0.27319,0.7635429 0.41329,1.6461704 0.1471,0.8826276 0.1471,1.6952053 0,1.47104591 -0.54638,2.521793 -0.53939,1.057752 -1.52709,1.7092152 -0.9807,0.6584682 -2.30464,0.9246574 z M 97.002284,-9.8209826 h 1.891344 v 6.4025521 q 0,0.742528 0.217155,1.071762 0.217154,0.3222291 0.896637,0.3222291 h 0.17512 V 0 h -0.17512 Q 98.438305,0 97.716792,-0.81257773 97.002284,-1.6251555 97.002284,-3.2503109 Z m -6.822858,-0.1821294 1.127802,1.1207968 -1.127802,1.1278018 -1.127802,-1.1278018 z m 1.225871,1.7862699 1.127802,1.1278019 -1.127802,1.1278018 -1.127801,-1.1278018 z m -2.444738,0 1.120797,1.1278019 -1.120797,1.1278018 -1.127802,-1.1278018 z M 92.343965,0 Q 91.720522,0 91.286213,-0.25918428 90.851904,-0.51836855 90.557695,-0.8966375 90.200441,-0.51836855 89.745117,-0.25918428 89.296798,0 88.68036,0 87.972857,0 87.489513,-0.23816934 87.013175,-0.48334365 86.704956,-0.88262754 86.319682,-0.47633867 85.787303,-0.23816934 85.254925,0 84.442347,0 h -0.644458 v -2.0244394 h 0.658468 q 0.770548,0 1.092777,-0.1891344 0.329234,-0.1891345 0.329234,-0.9106475 0,-0.1120797 -0.01401,-0.371264 -0.01401,-0.2591842 -0.03502,-0.5674034 -0.02102,-0.3152241 -0.04203,-0.5674034 l 1.75825,-0.2171544 0.147105,1.8913447 q 0.06305,0.9316624 1.001712,0.9316624 0.581413,0 0.777553,-0.2381693 0.196139,-0.2451743 0.196139,-0.8616126 0,-0.09807 -0.01401,-0.357254 -0.01401,-0.2661892 -0.03502,-0.5814134 -0.02102,-0.3152241 -0.04203,-0.5674034 l 1.75825,-0.2171544 0.147104,1.8913447 q 0.02802,0.4343088 0.217155,0.6864881 0.189134,0.2451743 0.630448,0.2451743 0.434309,0 0.588418,-0.2872042 0.161115,-0.2872042 0.161115,-0.8125777 0,-0.2521793 -0.02802,-0.728518 -0.02802,-0.4763386 -0.06305,-0.9106474 l 1.75825,-0.2171544 0.147105,2.0244393 q 0.03503,0.5183686 0.287204,0.728518 0.259184,0.2031444 0.798568,0.2031444 h 0.210149 V 0 H 95.99356 Q 95.349101,0 94.851748,-0.22415937 94.361399,-0.44831875 94.074195,-0.83359268 93.786991,-0.47633867 93.366692,-0.23816934 92.946393,0 92.343965,0 Z m -12.090598,-11.425123 1.260897,1.260896 -1.260897,1.2538919 -1.253891,-1.2538919 z m -0.532378,9.4006836 q 0.896637,0 1.365971,-0.1400996 0.476339,-0.1400996 0.483344,-0.693493 -0.511364,0.09807 -1.085772,0.09807 -1.239882,0 -1.961395,-0.5113636 -0.721513,-0.5183685 -0.721513,-1.6811953 0,-0.5674034 0.18213,-1.1207969 0.189134,-0.5603984 0.532378,-1.0157221 0.350249,-0.4623287 0.833593,-0.735523 0.490348,-0.2801992 1.092777,-0.2801992 0.777553,0 1.330946,0.3922789 0.560399,0.3852739 0.910648,1.0367371 0.350249,0.6514632 0.511363,1.457036 0.16812,0.7985677 0.16812,1.6321604 0,1.4570359 -0.399284,2.2345888 -0.392279,0.77054782 -1.218867,1.064757 Q 80.925845,0 79.636929,0 h -2.577833 v -2.0244394 z m 0.735523,-2.4517431 q 0.266189,0 0.532378,-0.02802 0.273195,-0.02802 0.532379,-0.08406 -0.04904,-0.3362391 -0.18213,-0.6934931 -0.133094,-0.364259 -0.357254,-0.6164383 -0.224159,-0.2521792 -0.553393,-0.2521792 -0.434309,0 -0.672478,0.357254 -0.231165,0.350249 -0.231165,0.7565378 0,0.371264 0.273195,0.4693337 0.273194,0.091065 0.658468,0.091065 z"
       id="text1"
       transform="matrix(1.3333333,0,0,1.3333333,198.864,64.102667)"
       aria-label="ﻪﻠﺣﺮﻣ:۳ﺞﯿﺴﺑورﺎﺸﻓ" />
  </g>
</svg>
