<?xml version="1.0" encoding="UTF-8" standalone="no"?>


<svg class="tikz-diagram" id="iran-action-ch1-tikz-1-b21231f5c716"
   version="1.1"
   id="svg1"
   width="485.73334"
   height="360.44"
   viewBox="0 0 485.73334 360.44"
   sodipodi:docname="iran-action-ch1-tikz-1-b21231f5c716.pdf"
   xmlns:inkscape="http://www.inkscape.org/namespaces/inkscape"
   xmlns:sodipodi="http://sodipodi.sourceforge.net/DTD/sodipodi-0.dtd"
   xmlns="http://www.w3.org/2000/svg"
   xmlns:svg="http://www.w3.org/2000/svg">
  <defs
     id="defs1" />
  <sodipodi:namedview
     id="namedview1"
     pagecolor="#ffffff"
     bordercolor="#000000"
     borderopacity="0.25"
     inkscape:showpageshadow="2"
     inkscape:pageopacity="0.0"
     inkscape:pagecheckerboard="0"
     inkscape:deskcolor="#d1d1d1">
    <inkscape:page
       x="0"
       y="0"
       inkscape:label="1"
       id="page1"
       width="485.73334"
       height="360.44"
       margin="0"
       bleed="0" />
  </sodipodi:namedview>
  <g
     id="g1"
     inkscape:groupmode="layer"
     inkscape:label="1">
    <path
       id="path1"
       d="M 0,0 V 197.43138"
       style="fill:none;stroke:#000000;stroke-width:0.99628;stroke-linecap:butt;stroke-linejoin:miter;stroke-miterlimit:10;stroke-dasharray:none;stroke-opacity:1"
       transform="matrix(1.3333333,0,0,-1.3333333,49.398667,305.17867)" />
    <path
       id="path2"
       d="M -2.78957,3.47087 C -2.27992,1.38832 -1.14423,0.40492 0,0 -1.14423,-0.40492 -2.27992,-1.38832 -2.78957,-3.47087"
       style="fill:none;stroke:#000000;stroke-width:0.99628;stroke-linecap:round;stroke-linejoin:round;stroke-miterlimit:10;stroke-dasharray:none;stroke-opacity:1"
       transform="matrix(0,-1.3333333,-1.3333333,0,49.398667,41.27264)" />
    <path
       style="font-size:8.9664px;font-family:Vazirmatn"
       d="m 33.973657,-3.7170282 0.634828,0.6348281 -0.634828,0.6348282 -0.634828,-0.6348282 z m 0.05254,4.864097 q 0.731147,0 1.129556,-0.24079691 0.402787,-0.23641875 0.5604,-0.62607189 0.161991,-0.385275 0.161991,-0.82746563 0,-0.52099687 -0.1401,-1.02885937 -0.1401,-0.5078625 -0.262688,-0.8318438 l 0.748659,-0.3020906 q 0.205772,0.5647781 0.310847,1.0989094 0.109453,0.5297531 0.109453,1.01134687 0,0.73990313 -0.275821,1.31343752 -0.271444,0.57353441 -0.849357,0.89751561 -0.577912,0.3239813 -1.49294,0.3239813 -0.945675,0 -1.514832,-0.3458719 -0.564778,-0.3458719 -0.818709,-0.92378439 -0.249553,-0.57353438 -0.249553,-1.26090002 0,-0.46408129 0.09632,-0.95005319 0.09632,-0.49035 0.262687,-0.9544312 l 0.696122,0.2802 q -0.126966,0.4027875 -0.214528,0.8274656 -0.08756,0.42467816 -0.08756,0.82308754 0,0.47283751 0.166369,0.86249064 0.170747,0.38965313 0.569156,0.62169376 0.39841,0.23204066 1.094532,0.23204066 z m -5.09614,-4.3474782 q 0.682988,0 1.151447,0.6129375 0.468459,0.6085594 0.485972,1.79065314 h 0.529753 V 0 H 30.497424 Q 30.401105,0.50348438 30.112149,0.97194377 29.827571,1.4447813 29.262793,1.8037875 28.698014,2.1671719 27.765474,2.346675 L 27.507164,1.6505532 Q 29.490455,1.2696563 29.80568,0 h -0.691744 q -1.659309,0 -1.659309,-1.3440844 0,-0.4290563 0.170747,-0.8581125 0.175125,-0.4290563 0.503484,-0.7136344 0.332738,-0.2845781 0.801197,-0.2845781 z m 0.1401,2.40359064 h 0.774928 q -0.05254,-0.84497814 -0.2802,-1.23025314 -0.223284,-0.385275 -0.647962,-0.385275 -0.2802,0 -0.442191,0.1795031 -0.157612,0.1795031 -0.223284,0.4246781 -0.06129,0.2407969 -0.06129,0.4378126 0,0.3064687 0.205772,0.44219058 0.21015,0.13134376 0.674231,0.13134376 z m -5.398228,0 h 0.661097 q 0.556022,0 0.79244,-0.24955314 0.240797,-0.2495531 0.240797,-0.7661719 0,-0.21015 -0.01313,-0.3984094 -0.0088,-0.1882593 -0.02627,-0.3765187 l 0.731147,-0.087562 0.07005,1.0244812 q 0.05254,0.85373444 0.88876,0.85373444 h 0.09194 V 0 H 27.008058 Q 26.522086,0 26.228752,-0.175125 25.939796,-0.35025001 25.760293,-0.66985314 25.523874,-0.32398126 25.138599,-0.16199063 24.753324,0 24.333024,0 H 23.671927 Z M 25.25243,0.69612189 25.865368,1.3046813 25.25243,1.9219969 24.643871,1.3046813 Z m -1.453537,0 0.612937,0.60855941 -0.612937,0.6173156 -0.60856,-0.6173156 z M 22.091425,-1.9176188 v -4.1110594 h 0.739903 v 4.1241938 q 0,0.4815938 0.188259,0.7968188 0.192638,0.31084684 0.696122,0.31084684 h 0.1401 V 0 h -0.131344 q -0.49035,0 -0.779306,-0.17074688 -0.288956,-0.17074688 -0.459703,-0.49472813 -0.144478,0.21452813 -0.293335,0.36338438 -0.144478,0.14885625 -0.37214,0.2276625 Q 21.596696,0 21.207043,0 h -0.376518 v -0.79681876 h 0.367762 q 0.367763,0 0.556022,-0.14447813 0.192637,-0.14885621 0.262687,-0.40278751 0.07443,-0.2539313 0.07443,-0.5735344 z m -4.522604,1.12080004 h 0.661097 q 0.556022,0 0.792441,-0.24955314 0.240797,-0.2495531 0.240797,-0.7661719 0,-0.21015 -0.01313,-0.3984094 -0.0088,-0.1882593 -0.02627,-0.3765187 l 0.731147,-0.087562 0.07005,1.0244812 q 0.05254,0.85373444 0.888759,0.85373444 h 0.09194 V 0 H 20.904953 Q 20.418981,0 20.125646,-0.175125 19.83669,-0.35025001 19.657187,-0.66985314 19.420768,-0.32398126 19.035493,-0.16199063 18.650218,0 18.229918,0 h -0.661097 z m 1.580504,1.49294065 0.612937,0.60855941 -0.612937,0.6173156 -0.60856,-0.6173156 z m -1.453538,0 0.612938,0.60855941 -0.612938,0.6173156 -0.608559,-0.6173156 z M 15.852595,0.10069688 q -0.437813,0 -0.809953,-0.18825938 Q 14.674879,-0.2802 14.27647,-0.66547501 13.991891,-0.34587188 13.729204,-0.17074688 13.466516,0 12.989301,0 h -0.192638 v -0.79681876 h 0.170747 q 0.293335,0 0.494728,-0.16636876 0.201394,-0.17074688 0.359007,-0.43781248 0.157612,-0.2670657 0.310846,-0.5647782 0.157613,-0.3020906 0.35025,-0.5691562 0.192638,-0.2670656 0.464082,-0.4334344 0.275822,-0.1707469 0.678609,-0.1707469 0.485972,0 0.844978,0.2364188 0.363385,0.2320406 0.5604,0.6260719 0.201394,0.3940312 0.201394,0.8800031 0,0.71363439 -0.363384,1.10766565 -0.359007,0.38965313 -1.015725,0.38965313 z m -0.21015,-2.46488438 q -0.218907,0 -0.39841,0.1488562 -0.179503,0.1444781 -0.323981,0.3765188 -0.144478,0.2320406 -0.258309,0.4815937 0.262687,0.2758219 0.542887,0.45094691 0.359006,0.23204063 0.639206,0.23204063 0.647963,0 0.647963,-0.65234064 0,-0.455325 -0.227663,-0.7442813 -0.223284,-0.2933343 -0.621693,-0.2933343 z M 15.256575,0 q -0.30209,0 -0.507862,-0.07880625 -0.201394,-0.08318438 -0.315225,-0.175125 -0.06567,0.57353438 -0.319603,1.10766564 -0.249553,0.53850941 -0.753038,0.93691881 -0.503484,0.3984093 -1.33095,0.5604 L 11.771588,1.6593094 q 1.068262,-0.2320406 1.506075,-0.81433126 0.437812,-0.57791251 0.437812,-1.37035315 0,-0.37214063 -0.08318,-0.77930629 -0.07881,-0.4115437 -0.223284,-0.8362219 l 0.726768,-0.245175 0.236419,0.9150282 q 0.09632,0.3677625 0.306469,0.52099686 0.21015,0.15323438 0.529753,0.15323438 h 0.166369 V 0 Z M 9.6919784,-5.6040001 10.326807,-4.969172 9.6919784,-4.3343438 9.0571503,-4.969172 Z m 1.5848816,3.5419032 q 0,0.3458719 -0.153235,0.6435844 -0.153234,0.2933344 -0.4203,0.60418124 0.249553,0.0131344 0.442191,0.0175125 0.192637,0 0.341494,0 h 0.424678 V 0 H 11.500144 Q 11.333775,0 11.040441,-0.02626875 10.751485,-0.05691563 10.401235,-0.12696563 10.055363,-0.19701563 9.7182471,-0.31522501 9.3811315,-0.1926375 9.0265034,-0.1225875 8.6718753,-0.05691563 8.3697846,-0.02626875 8.067694,0 7.8881909,0 H 7.2752534 v -0.79681876 h 0.6129375 q 0.1838812,0 0.3808968,0 0.2013938,-0.004378 0.4859719,-0.0218906 Q 8.4923721,-1.1251781 8.3435159,-1.4272688 8.1946596,-1.7293594 8.1946596,-2.0708532 q 0,-0.2714437 0.1269656,-0.5472656 0.1269657,-0.2758219 0.3414938,-0.5122406 0.2145281,-0.2364188 0.49035,-0.3765188 0.2758219,-0.1444781 0.5691563,-0.1444781 0.3064687,0 0.5866687,0.1444781 0.2802,0.1401 0.494728,0.3765188 0.218906,0.2320406 0.345872,0.5122406 0.126966,0.2802 0.126966,0.5560219 z M 9.7226253,-2.8764282 q -0.1663688,0 -0.35025,0.1269657 -0.1795032,0.1225875 -0.3064688,0.3108468 -0.1225875,0.1882594 -0.1225875,0.385275 0,0.2013938 0.1182094,0.4115438 0.1182094,0.21015 0.2977125,0.385275 0.1838812,0.175125 0.3721406,0.27144376 0.3327375,-0.14009996 0.5647785,-0.45094686 0.236418,-0.315225 0.236418,-0.6260719 0,-0.1838813 -0.131343,-0.3721406 Q 10.274269,-2.6224969 10.08601,-2.7494625 9.8977503,-2.8764282 9.7226253,-2.8764282 Z M 5.4320626,0 H 4.7184282 v -0.79681876 h 0.7048781 q 0.4378125,0 0.5910469,-0.25393124 0.1576125,-0.2539313 0.1576125,-0.6435844 0,-0.2845781 -0.052538,-0.6085594 Q 6.0668907,-2.626875 6.005597,-2.9552344 l 0.7617937,-0.1926375 q 0.074428,0.35025 0.1182094,0.6873656 0.043781,0.3371156 0.043781,0.6435844 0,0.525375 -0.1444782,0.93691876 Q 6.6404251,-0.46845938 6.3120657,-0.23204063 5.9837063,0 5.4320626,0 Z M 5.9661938,-5.1661876 6.601022,-4.5313594 5.9661938,-3.8965313 5.3313657,-4.5313594 Z"
       id="text2"
       transform="matrix(1.3333333,0,0,1.3333333,24.352,32.382667)"
       aria-label="نﻮﯿﻠﯿﻣﺮﻔﻧ" />
    <path
       id="path3"
       d="M 0,0 H 310.81862"
       style="fill:none;stroke:#000000;stroke-width:0.99628;stroke-linecap:butt;stroke-linejoin:miter;stroke-miterlimit:10;stroke-dasharray:none;stroke-opacity:1"
       transform="matrix(1.3333333,0,0,-1.3333333,49.398667,305.17867)" />
    <path
       id="path4"
       d="M -2.78957,3.47087 C -2.27992,1.38832 -1.14423,0.40492 0,0 -1.14423,-0.40492 -2.27992,-1.38832 -2.78957,-3.47087"
       style="fill:none;stroke:#000000;stroke-width:0.99628;stroke-linecap:round;stroke-linejoin:round;stroke-miterlimit:10;stroke-dasharray:none;stroke-opacity:1"
       transform="matrix(1.3333333,0,0,-1.3333333,464.48768,305.17867)" />
    <path
       id="path5"
       d="M 0,28.3468 H 297.6415"
       style="fill:none;stroke:#dcdcdc;stroke-width:0.3985;stroke-linecap:butt;stroke-linejoin:miter;stroke-miterlimit:10;stroke-dasharray:2.98883, 2.98883;stroke-dashoffset:0;stroke-opacity:1"
       transform="matrix(1.3333333,0,0,-1.3333333,49.398667,305.17867)" />
    <path
       style="font-size:7.9701px;font-family:Vazirmatn"
       d="m 2.3505568,-0.61877241 q -0.097291,0.33857358 -0.323007,0.478673 Q 1.8018341,0 1.502177,0 0.99237084,0 0.70049706,-0.32300698 0.40862329,-0.64990561 0.40862329,-1.3114862 q 0,-0.7082803 0.39694833,-1.4982854 Q 1.2064116,-3.6036682 1.825184,-4.4481564 L 1.591685,-4.6777637 2.0041999,-5.242053 q 0.8561631,0.7938966 1.3542944,1.4866104 0.5020229,0.6888221 0.7160636,1.2959196 0.2179324,0.6032058 0.2179324,1.1480368 0,0.65379729 -0.2801988,0.98458757 Q 3.7320927,0 3.2145032,0 2.9537626,0 2.7008053,-0.14009941 2.4517397,-0.28019883 2.3505568,-0.61877241 Z M 1.0546372,-1.3075945 q 0,0.2879821 0.1206412,0.46310637 0.1206412,0.17512427 0.323007,0.17512427 0.1323161,0 0.2412823,-0.0544831 0.1089662,-0.0583748 0.1984742,-0.24906562 0.0934,-0.19069091 0.1673409,-0.59153081 h 0.4825647 q 0.066158,0.4008399 0.1595577,0.59153081 0.097291,0.19069087 0.2140407,0.24906562 0.1206412,0.0544831 0.2529573,0.0544831 0.2218241,0 0.323007,-0.17123262 0.1050745,-0.17123262 0.1050745,-0.46699802 0,-0.646014 -0.3463568,-1.3270528 Q 2.949871,-3.3156861 2.3233153,-3.973375 1.6656264,-3.105537 1.358186,-2.4517397 1.0546372,-1.7979425 1.0546372,-1.3075945 Z"
       id="text5"
       transform="matrix(1.3333333,0,0,1.3333333,38.437333,270.87733)"
       aria-label="۵" />
    <path
       id="path6"
       d="M 0,56.69362 H 297.6415"
       style="fill:none;stroke:#dcdcdc;stroke-width:0.3985;stroke-linecap:butt;stroke-linejoin:miter;stroke-miterlimit:10;stroke-dasharray:2.98883, 2.98883;stroke-dashoffset:0;stroke-opacity:1"
       transform="matrix(1.3333333,0,0,-1.3333333,49.398667,305.17867)" />
    <path
       style="font-size:7.9701px;font-family:Vazirmatn"
       d="M 1.7006512,0 H 1.0312873 v -0.88340463 q 0,-1.30370287 -0.13620772,-2.30774867 -0.13231611,-1.0040458 -0.51369785,-1.7901592 l 0.61488076,-0.221824 q 0.41251491,0.9145378 0.55650601,1.9769584 0.1478827,1.0585289 0.1478827,2.35444842 z m 1.1324703,-1.8602089 q 0,-0.3191153 0.1517743,-0.5798559 0.1556661,-0.2607405 0.4164066,-0.4125149 0.2607406,-0.155666 0.5798559,-0.155666 0.3191154,0 0.5798559,0.155666 0.2607406,0.1517744 0.412515,0.4125149 0.155666,0.2607406 0.155666,0.5798559 0,0.3191154 -0.155666,0.5798559 -0.1517744,0.2607406 -0.412515,0.41640662 -0.2607405,0.15177437 -0.5798559,0.15177437 -0.3191153,0 -0.5798559,-0.15177437 Q 3.1405619,-1.0196124 2.9848958,-1.280353 2.8331215,-1.5410935 2.8331215,-1.8602089 Z m 0.5954225,0 q 0,0.2296074 0.1595576,0.3930567 0.1634494,0.1595577 0.3930567,0.1595577 0.2296074,0 0.3891651,-0.1595577 0.1634493,-0.1634493 0.1634493,-0.3930567 0,-0.2296073 -0.1634493,-0.389165 -0.1595577,-0.1634493 -0.3891651,-0.1634493 -0.2296073,0 -0.3930567,0.1634493 -0.1595576,0.1595577 -0.1595576,0.389165 z"
       id="text6"
       transform="matrix(1.3333333,0,0,1.3333333,37.156,233.056)"
       aria-label="۱۰" />
    <path
       id="path7"
       d="M 0,85.04042 H 297.6415"
       style="fill:none;stroke:#dcdcdc;stroke-width:0.3985;stroke-linecap:butt;stroke-linejoin:miter;stroke-miterlimit:10;stroke-dasharray:2.98883, 2.98883;stroke-dashoffset:0;stroke-opacity:1"
       transform="matrix(1.3333333,0,0,-1.3333333,49.398667,305.17867)" />
    <path
       style="font-size:7.9701px;font-family:Vazirmatn"
       d="M 1.7006512,0 H 1.0312873 v -0.88340463 q 0,-1.30370287 -0.13620772,-2.30774867 -0.13231611,-1.0040458 -0.51369785,-1.7901592 l 0.61488076,-0.221824 q 0.41251491,0.9145378 0.55650601,1.9769584 0.1478827,1.0585289 0.1478827,2.35444842 z m 2.949871,-0.61877241 q -0.097291,0.33857358 -0.323007,0.478673 Q 4.1017995,0 3.8021424,0 3.2923362,0 3.0004624,-0.32300698 2.7085887,-0.64990561 2.7085887,-1.3114862 q 0,-0.7082803 0.3969483,-1.4982854 0.40084,-0.7938966 1.0196124,-1.6383848 L 3.8916504,-4.6777637 4.3041653,-5.242053 q 0.8561631,0.7938966 1.3542943,1.4866104 0.5020229,0.6888221 0.7160637,1.2959196 0.2179324,0.6032058 0.2179324,1.1480368 0,0.65379729 -0.2801988,0.98458757 Q 6.0320581,0 5.5144686,0 5.253728,0 5.0007707,-0.14009941 4.7517051,-0.28019883 4.6505222,-0.61877241 Z M 3.3546026,-1.3075945 q 0,0.2879821 0.1206412,0.46310637 0.1206411,0.17512427 0.323007,0.17512427 0.1323161,0 0.2412823,-0.0544831 0.1089662,-0.0583748 0.1984742,-0.24906562 0.0934,-0.19069091 0.1673409,-0.59153081 h 0.4825647 q 0.066158,0.4008399 0.1595576,0.59153081 0.097291,0.19069087 0.2140408,0.24906562 0.1206412,0.0544831 0.2529573,0.0544831 0.221824,0 0.323007,-0.17123262 0.1050745,-0.17123262 0.1050745,-0.46699802 0,-0.646014 -0.3463569,-1.3270528 Q 5.2498364,-3.3156861 4.6232806,-3.973375 3.9655917,-3.105537 3.6581514,-2.4517397 3.3546026,-1.7979425 3.3546026,-1.3075945 Z"
       id="text7"
       transform="matrix(1.3333333,0,0,1.3333333,35.370667,195.28667)"
       aria-label="۱۵" />
    <path
       id="path8"
       d="M 0,113.38724 H 297.6415"
       style="fill:none;stroke:#dcdcdc;stroke-width:0.3985;stroke-linecap:butt;stroke-linejoin:miter;stroke-miterlimit:10;stroke-dasharray:2.98883, 2.98883;stroke-dashoffset:0;stroke-opacity:1"
       transform="matrix(1.3333333,0,0,-1.3333333,49.398667,305.17867)" />
    <path
       style="font-size:7.9701px;font-family:Vazirmatn"
       d="m 3.7593342,-5.1486534 q 0.011675,0.1400994 0.019458,0.2763072 0.00778,0.1362077 0.00778,0.2685238 0,0.4942396 -0.1245328,0.8872963 -0.1245328,0.3930567 -0.4280816,0.6226641 -0.299657,0.2257157 -0.8328131,0.2257157 -0.1517744,0 -0.3658152,-0.019458 -0.2101491,-0.02335 -0.4436481,-0.0934 0.081725,0.5837476 0.0934,1.1013371 0.015567,0.5175895 0.015567,1.00793742 V 0 H 1.0312873 v -0.88340463 q 0,-1.30370287 -0.13620772,-2.30774867 -0.13231611,-1.0040458 -0.51369785,-1.7901592 l 0.61098911,-0.2179324 q 0.089508,0.2412823 0.16344936,0.4241899 0.077833,0.1790159 0.1634493,0.4202983 0.1712326,0.4747813 0.4047316,0.6421223 0.2373907,0.1634493 0.6693639,0.1634493 0.3074403,0 0.4708897,-0.1323161 0.1634493,-0.1362078 0.2257157,-0.3463569 0.062266,-0.2101491 0.062266,-0.4436482 0,-0.1712326 -0.019458,-0.3268986 -0.019458,-0.155666 -0.042808,-0.2918738 z m 0.9456711,3.2884445 q 0,-0.3191153 0.1517744,-0.5798559 0.155666,-0.2607405 0.4164066,-0.4125149 0.2607406,-0.155666 0.5798559,-0.155666 0.3191153,0 0.5798559,0.155666 0.2607406,0.1517744 0.4125149,0.4125149 0.1556661,0.2607406 0.1556661,0.5798559 0,0.3191154 -0.1556661,0.5798559 -0.1517743,0.2607406 -0.4125149,0.41640662 -0.2607406,0.15177437 -0.5798559,0.15177437 -0.3191153,0 -0.5798559,-0.15177437 Q 5.0124457,-1.0196124 4.8567797,-1.280353 4.7050053,-1.5410935 4.7050053,-1.8602089 Z m 0.5954226,0 q 0,0.2296074 0.1595576,0.3930567 0.1634493,0.1595577 0.3930567,0.1595577 0.2296074,0 0.389165,-0.1595577 0.1634494,-0.1634493 0.1634494,-0.3930567 0,-0.2296073 -0.1634494,-0.389165 -0.1595576,-0.1634493 -0.389165,-0.1634493 -0.2296074,0 -0.3930567,0.1634493 -0.1595576,0.1595577 -0.1595576,0.389165 z"
       id="text8"
       transform="matrix(1.3333333,0,0,1.3333333,34.66,157.46133)"
       aria-label="۲۰" />
    <path
       id="path9"
       d="M 0,141.73404 H 297.6415"
       style="fill:none;stroke:#dcdcdc;stroke-width:0.3985;stroke-linecap:butt;stroke-linejoin:miter;stroke-miterlimit:10;stroke-dasharray:2.98883, 2.98883;stroke-dashoffset:0;stroke-opacity:1"
       transform="matrix(1.3333333,0,0,-1.3333333,49.398667,305.17867)" />
    <path
       style="font-size:7.9701px;font-family:Vazirmatn"
       d="m 3.7593342,-5.1486534 q 0.011675,0.1400994 0.019458,0.2763072 0.00778,0.1362077 0.00778,0.2685238 0,0.4942396 -0.1245328,0.8872963 -0.1245328,0.3930567 -0.4280816,0.6226641 -0.299657,0.2257157 -0.8328131,0.2257157 -0.1517744,0 -0.3658152,-0.019458 -0.2101491,-0.02335 -0.4436481,-0.0934 0.081725,0.5837476 0.0934,1.1013371 0.015567,0.5175895 0.015567,1.00793742 V 0 H 1.0312873 v -0.88340463 q 0,-1.30370287 -0.13620772,-2.30774867 -0.13231611,-1.0040458 -0.51369785,-1.7901592 l 0.61098911,-0.2179324 q 0.089508,0.2412823 0.16344936,0.4241899 0.077833,0.1790159 0.1634493,0.4202983 0.1712326,0.4747813 0.4047316,0.6421223 0.2373907,0.1634493 0.6693639,0.1634493 0.3074403,0 0.4708897,-0.1323161 0.1634493,-0.1362078 0.2257157,-0.3463569 0.062266,-0.2101491 0.062266,-0.4436482 0,-0.1712326 -0.019458,-0.3268986 -0.019458,-0.155666 -0.042808,-0.2918738 z m 2.7630719,4.52988099 q -0.097291,0.33857358 -0.323007,0.478673 Q 5.9736834,0 5.6740263,0 5.1642201,0 4.8723463,-0.32300698 4.5804725,-0.64990561 4.5804725,-1.3114862 q 0,-0.7082803 0.3969484,-1.4982854 0.40084,-0.7938966 1.0196124,-1.6383848 L 5.7635342,-4.6777637 6.1760492,-5.242053 q 0.8561631,0.7938966 1.3542943,1.4866104 0.5020229,0.6888221 0.7160637,1.2959196 0.2179324,0.6032058 0.2179324,1.1480368 0,0.65379729 -0.2801988,0.98458757 Q 7.9039419,0 7.3863524,0 7.1256119,0 6.8726546,-0.14009941 6.623589,-0.28019883 6.5224061,-0.61877241 Z M 5.2264865,-1.3075945 q 0,0.2879821 0.1206412,0.46310637 0.1206411,0.17512427 0.3230069,0.17512427 0.1323161,0 0.2412824,-0.0544831 0.1089662,-0.0583748 0.1984741,-0.24906562 0.0934,-0.19069091 0.167341,-0.59153081 h 0.4825646 q 0.066158,0.4008399 0.1595577,0.59153081 0.097291,0.19069087 0.2140408,0.24906562 0.1206411,0.0544831 0.2529572,0.0544831 0.2218241,0 0.323007,-0.17123262 0.1050746,-0.17123262 0.1050746,-0.46699802 0,-0.646014 -0.3463569,-1.3270528 Q 7.1217202,-3.3156861 6.4951645,-3.973375 5.8374756,-3.105537 5.5300352,-2.4517397 5.2264865,-1.7979425 5.2264865,-1.3075945 Z"
       id="text9"
       transform="matrix(1.3333333,0,0,1.3333333,32.874667,119.69467)"
       aria-label="۲۵" />
    <path
       id="path10"
       d="M 0,170.08086 H 297.6415"
       style="fill:none;stroke:#dcdcdc;stroke-width:0.3985;stroke-linecap:butt;stroke-linejoin:miter;stroke-miterlimit:10;stroke-dasharray:2.98883, 2.98883;stroke-dashoffset:0;stroke-opacity:1"
       transform="matrix(1.3333333,0,0,-1.3333333,49.398667,305.17867)" />
    <path
       style="font-size:7.9701px;font-family:Vazirmatn"
       d="m 3.7554426,-2.8681463 q -0.2607406,0 -0.4981313,-0.1050746 -0.2373906,-0.1089662 -0.3735984,-0.3580318 -0.1323161,0.245174 -0.3735984,0.3541402 -0.2412823,0.1089662 -0.4241899,0.1089662 -0.1323161,0 -0.2373907,-0.00778 -0.1011829,-0.011675 -0.2490656,-0.062266 0.042808,0.4475398 0.062266,0.7822217 0.02335,0.3346819 0.031133,0.6382307 0.00778,0.299657 0.00778,0.64601392 V 0 H 1.0312873 v -0.88340463 q 0,-1.30370287 -0.13620772,-2.30774867 -0.13231611,-1.0040458 -0.51369785,-1.7901592 l 0.61098911,-0.2179324 q 0.12064116,0.3074404 0.20236586,0.5292645 0.081725,0.2179324 0.1945825,0.4942396 0.1011829,0.2490656 0.233499,0.4358648 0.1323161,0.1867992 0.4164066,0.1906909 0.2801988,0 0.4086233,-0.1712326 0.1323161,-0.1712327 0.1362077,-0.7082804 l 0.00389,-0.4981312 0.622664,-0.027242 0.015567,0.4553231 q 0.019458,0.556506 0.1400995,0.7549802 0.1206411,0.1945825 0.3813817,0.1945825 0.1906909,0 0.2918738,-0.1284245 0.1050745,-0.1323161 0.1478827,-0.3385736 0.042808,-0.2062574 0.042808,-0.4319732 0,-0.1712326 -0.019458,-0.3385735 -0.015567,-0.1712327 -0.038917,-0.3035488 l 0.6693638,-0.058375 q 0.02335,0.2568489 0.02335,0.5098062 0,0.466998 -0.1011829,0.8717297 -0.097291,0.4047316 -0.3385735,0.6537972 -0.2412824,0.245174 -0.6693639,0.245174 z m 2.0275499,1.0079374 q 0,-0.3191153 0.1517744,-0.5798559 0.155666,-0.2607405 0.4164066,-0.4125149 0.2607406,-0.155666 0.5798559,-0.155666 0.3191153,0 0.5798559,0.155666 0.2607406,0.1517744 0.4125149,0.4125149 0.1556661,0.2607406 0.1556661,0.5798559 0,0.3191154 -0.1556661,0.5798559 -0.1517743,0.2607406 -0.4125149,0.41640662 -0.2607406,0.15177437 -0.5798559,0.15177437 -0.3191153,0 -0.5798559,-0.15177437 Q 6.0904329,-1.0196124 5.9347669,-1.280353 5.7829925,-1.5410935 5.7829925,-1.8602089 Z m 0.5954225,0 q 0,0.2296074 0.1595577,0.3930567 0.1634493,0.1595577 0.3930567,0.1595577 0.2296074,0 0.389165,-0.1595577 0.1634493,-0.1634493 0.1634493,-0.3930567 0,-0.2296073 -0.1634493,-0.389165 -0.1595576,-0.1634493 -0.389165,-0.1634493 -0.2296074,0 -0.3930567,0.1634493 -0.1595577,0.1595577 -0.1595577,0.389165 z"
       id="text10"
       transform="matrix(1.3333333,0,0,1.3333333,33.222667,81.870667)"
       aria-label="۳۰" />
    <path
       id="path11"
       d="M 28.3468,0 V 17.00824 H 56.69362 V 0 Z"
       style="fill:#3498db;fill-opacity:1;fill-rule:nonzero;stroke:none"
       transform="matrix(1.3333333,0,0,-1.3333333,49.398667,305.17867)" />
    <g
       id="text11"
       transform="matrix(1.3333333,0,0,1.3333333,85.162667,320.796)"
       aria-label="بﻼﻘﻧا۵۷(ﻦﯿﻤﺨﺗ)">
      <path
         style="font-size:7.9701px;font-family:Vazirmatn"
         d="m 16.500598,0.5954225 0.56429,0.5642893 -0.56429,0.5642893 -0.564289,-0.5642893 z M 17.123262,0 H 16.216508 Q 14.749356,0 14.009942,-0.39694834 13.27442,-0.79389667 13.27442,-1.7707009 q 0,-0.2685239 0.05838,-0.5253728 0.06227,-0.2568489 0.159558,-0.4942396 l 0.603205,0.2257157 q -0.06227,0.1712326 -0.105074,0.3658151 -0.03892,0.1945826 -0.03892,0.3697068 0.0039,0.4553231 0.256849,0.7004971 0.252958,0.24128232 0.75498,0.33079028 0.502023,0.089508 1.253112,0.089508 h 0.910646 q 0.264632,0 0.552614,-0.0155666 0.291874,-0.0155666 0.544831,-0.0856163 0.252958,-0.0700497 0.412515,-0.23349903 0.159558,-0.167341 0.159558,-0.466998 0,-0.2179325 -0.04281,-0.5175895 -0.04281,-0.3035488 -0.101183,-0.5993142 l 0.677147,-0.1712326 q 0.07005,0.3035487 0.105075,0.6304474 0.03892,0.3230069 0.03892,0.5642893 0,0.5292644 -0.179016,0.84837973 -0.179016,0.31911533 -0.502023,0.48256465 -0.319115,0.16344931 -0.747196,0.21793242 Q 17.621394,0 17.123262,0 Z M 10.35179,-0.80557162 q 0.291873,-0.0817247 0.521481,-0.24906558 0.229607,-0.1712327 0.361923,-0.4942396 0.132316,-0.3268987 0.132316,-0.879513 v -2.9304127 h 0.657689 v 3.1366701 q 0,0.7433053 0.179016,1.1285787 0.179016,0.38527334 0.622664,0.38527334 h 0.1401 V 0 H 12.815204 Q 12.293723,0 12.013524,-0.24906562 11.733326,-0.5020229 11.604901,-0.94956269 11.278003,-0.46699804 10.643663,-0.23349902 10.013216,0 9.1726197,0 9.013062,0 8.845721,-0.0077833 8.6783801,-0.0155666 8.5071475,-0.0311332 v -0.66936386 q 0.2412823,0.0155666 0.4086232,0.0272416 0.167341,0.007783 0.334682,0.007783 0.1595576,0 0.2763071,0 0.1206412,-0.003892 0.1984742,-0.0194583 0,0 -0.058375,-0.35024854 Q 9.6084845,-1.3893192 9.4722767,-1.9886333 9.336069,-2.5918391 9.0986783,-3.3468193 8.8651793,-4.1017995 8.5110391,-4.9034794 l 0.6032058,-0.2801989 q 0.3502485,0.8289216 0.5876392,1.6111433 0.2412823,0.7822217 0.3813819,1.4087774 0.143991,0.6226641 0.206257,0.9923708 z m -3.4985941,-4.12125768 0.544831,0.5409394 -0.544831,0.5487227 -0.5409394,-0.5487227 z m -1.292028,0 0.5448311,0.5409394 -0.5448311,0.5487227 -0.5409394,-0.5487227 z m 2.0392248,3.093862 q 0,0.3074404 -0.1362077,0.5720726 -0.1362078,0.2607406 -0.3735985,0.53704773 0.2218241,0.011675 0.3930567,0.0155666 0.1712326,0 0.3035487,0 H 8.164682 V 0 H 7.7988669 Q 7.6509842,0 7.3902436,-0.0233499 7.1333947,-0.05059145 6.8220627,-0.11285786 6.5146223,-0.17512427 6.2149652,-0.28019883 5.9153081,-0.17123262 5.6000844,-0.10896621 5.2848608,-0.05059145 5.0163369,-0.0233499 4.747813,0 4.5882553,0 h -0.544831 v -0.70828036 h 0.544831 q 0.1634494,0 0.3385736,0 0.1790159,-0.003892 0.4319732,-0.0194583 Q 5.1253031,-1.0001541 4.992987,-1.268678 4.8606709,-1.5372019 4.8606709,-1.8407506 q 0,-0.2412823 0.1128578,-0.4864563 0.1128579,-0.245174 0.3035488,-0.4553231 0.1906908,-0.2101491 0.4358648,-0.3346819 0.245174,-0.1284245 0.5059145,-0.1284245 0.2724156,0 0.5214812,0.1284245 0.2490656,0.1245328 0.4397565,0.3346819 0.1945825,0.2062575 0.3074404,0.4553231 0.1128578,0.2490656 0.1128578,0.4942396 z m -1.3815359,-0.723847 q -0.1478827,0 -0.311332,0.1128579 -0.1595576,0.1089662 -0.2724155,0.2763072 -0.1089662,0.1673409 -0.1089662,0.3424652 0,0.1790159 0.1050745,0.3658151 0.1050746,0.1867992 0.2646323,0.3424652 0.1634493,0.15566606 0.3307902,0.24128237 0.2957655,-0.12453277 0.5020229,-0.40083997 0.2101492,-0.2801988 0.2101492,-0.556506 0,-0.1634493 -0.1167495,-0.3307903 Q 6.7092048,-2.3310986 6.5418638,-2.4439564 6.3745229,-2.5568143 6.2188568,-2.5568143 Z M 2.40504,0 H 1.770701 v -0.70828036 h 0.6265557 q 0.389165,0 0.5253728,-0.22571573 0.1400994,-0.22571571 0.1400994,-0.57207261 0,-0.2529573 -0.0467,-0.5409394 -0.0467,-0.2879821 -0.1011829,-0.5798559 l 0.6771471,-0.1712326 q 0.066158,0.311332 0.1050746,0.6109891 0.038917,0.2996571 0.038917,0.5720726 0,0.466998 -0.1284245,0.83281318 Q 3.4791355,-0.41640659 3.1872617,-0.20625747 2.8953879,0 2.40504,0 Z M 2.8798213,-4.5921474 3.4441106,-4.0278581 2.8798213,-3.4635688 2.315532,-4.0278581 Z M 1.2531111,-5.3588025 v 5.35491085 H 0.59542222 V -5.3588025 Z m 23.0925249,4.74003009 q -0.09729,0.33857358 -0.323007,0.478673 Q 23.796913,0 23.497256,0 22.98745,0 22.695576,-0.32300698 22.403702,-0.64990561 22.403702,-1.3114862 q 0,-0.7082803 0.396949,-1.4982854 0.40084,-0.7938966 1.019612,-1.6383848 l -0.233499,-0.2296073 0.412515,-0.5642893 q 0.856163,0.7938966 1.354294,1.4866104 0.502023,0.6888221 0.716064,1.2959196 0.217932,0.6032058 0.217932,1.1480368 0,0.65379729 -0.280198,0.98458757 Q 25.727172,0 25.209582,0 q -0.26074,0 -0.513698,-0.14009941 -0.249065,-0.14009942 -0.350248,-0.478673 z m -1.29592,-0.68882209 q 0,0.2879821 0.120641,0.46310637 0.120642,0.17512427 0.323007,0.17512427 0.132317,0 0.241283,-0.0544831 0.108966,-0.0583748 0.198474,-0.24906562 0.0934,-0.19069091 0.167341,-0.59153081 h 0.482565 q 0.06616,0.4008399 0.159557,0.59153081 0.09729,0.19069087 0.214041,0.24906562 0.120641,0.0544831 0.252957,0.0544831 0.221824,0 0.323007,-0.17123262 0.105075,-0.17123262 0.105075,-0.46699802 0,-0.646014 -0.346357,-1.3270528 -0.346357,-0.6810388 -0.972913,-1.3387277 -0.657689,0.867838 -0.965129,1.5216353 -0.303549,0.6537972 -0.303549,1.1441452 z M 28.708175,0 Q 28.552509,-1.0585289 28.256744,-1.9964166 27.96487,-2.938196 27.630188,-3.6737179 27.295506,-4.4131315 27.011415,-4.8684546 l 0.61099,-0.3307903 q 0.175124,0.3152237 0.37749,0.7549802 0.206257,0.4358648 0.408623,0.9534543 0.202366,0.5136979 0.369707,1.0624206 0.167341,0.544831 0.264632,1.0740955 0.0934,-0.5292645 0.260741,-1.0740955 0.16734,-0.5487227 0.369706,-1.0624206 0.202366,-0.5175895 0.408624,-0.9534543 0.206257,-0.4397565 0.381381,-0.7549802 l 0.610989,0.3307903 Q 30.7941,-4.4131315 30.455526,-3.6737179 30.120844,-2.938196 29.82897,-1.9964166 29.537097,-1.0585289 29.377539,0 Z"
         id="path25" />
      <path
         style="font-size:7.9701px;font-family:Vazirmatn"
         d="m 27.613077,7.1650348 q 0,-0.7316303 -0.155666,-1.4321273 Q 27.305636,5.0285187 27.002088,4.4564461 26.698539,3.8843735 26.254891,3.5458 l 0.147882,-0.4747814 q 0.431974,0.233499 0.782222,0.6499056 0.350249,0.4164066 0.599314,0.9651293 0.252958,0.5448311 0.389165,1.1791701 0.136208,0.634339 0.136208,1.2998112 0,0.6654722 -0.136208,1.2998112 -0.136207,0.634339 -0.389165,1.1791701 -0.249065,0.5487229 -0.599314,0.9651289 -0.350248,0.416407 -0.782222,0.649906 L 26.254891,10.78427 q 0.443648,-0.338574 0.747197,-0.9106466 0.303548,-0.5720726 0.455323,-1.2725696 0.155666,-0.7043887 0.155666,-1.436019 z m -4.619389,-0.7082804 0.56429,0.5642893 -0.56429,0.5642893 -0.564289,-0.5642893 z m 0.04281,4.3119486 q 0.649905,0 1.004045,-0.214041 0.358032,-0.210149 0.498132,-0.5565057 0.143991,-0.3424653 0.143991,-0.735522 0,-0.4631064 -0.124533,-0.9145378 -0.124533,-0.4514314 -0.233499,-0.7394136 l 0.665472,-0.2685238 0.287982,0.9106461 q 0.07783,0.2490657 0.252957,0.3774901 0.179016,0.1284245 0.498132,0.1284245 h 0.151774 v 0.7082804 h -0.136208 q -0.272415,0 -0.416406,-0.050592 -0.1401,-0.050591 -0.264632,-0.1712326 -0.0039,0.6499056 -0.249066,1.1519289 -0.245174,0.505914 -0.758872,0.790005 -0.509806,0.28409 -1.319269,0.28409 -0.840597,0 -1.346511,-0.30744 -0.502023,-0.307441 -0.727739,-0.821139 -0.221824,-0.5098057 -0.221824,-1.1207948 0,-0.412515 0.08562,-0.8444881 0.08562,-0.4358649 0.233499,-0.8483798 l 0.618773,0.2490656 q -0.112858,0.3580318 -0.190691,0.7355219 -0.07783,0.3774901 -0.07783,0.7316303 0,0.4202982 0.147882,0.7666549 0.151775,0.346357 0.505915,0.552615 0.35414,0.206257 0.972913,0.206257 z m -5.65846,-2.0119832 h 0.587639 q 0.494239,0 0.704388,-0.2218241 0.214041,-0.2218241 0.214041,-0.6810388 0,-0.1867992 -0.01168,-0.3541402 -0.0078,-0.1673409 -0.02335,-0.3346819 l 0.649906,-0.077833 0.06227,0.9106462 q 0.0467,0.7588718 0.790005,0.7588718 h 0.08172 v 0.7082804 h -0.08951 q -0.431973,0 -0.692714,-0.1556661 -0.256849,-0.155666 -0.416406,-0.4397565 -0.210149,0.3074404 -0.552615,0.4514315 -0.342465,0.1439911 -0.716063,0.1439911 h -0.587639 z m 1.404885,1.3270532 0.544831,0.540939 -0.544831,0.548723 -0.540939,-0.548723 z m -1.292028,0 0.544831,0.540939 -0.544831,0.548723 -0.540939,-0.548723 z M 12.988255,9.4650002 H 12.817023 V 8.7567198 h 0.151774 q 0.260741,0 0.439757,-0.1478827 0.179016,-0.1517744 0.319115,-0.3891651 0.140099,-0.2373906 0.276307,-0.5020229 0.1401,-0.2685238 0.311332,-0.5059145 0.171233,-0.2373907 0.412515,-0.3852734 0.245174,-0.1517744 0.603206,-0.1517744 0.610989,0 0.949563,0.3735985 0.338573,0.3697068 0.455323,0.9223211 0.07783,0.3813818 0.264632,0.5837476 0.190691,0.2023658 0.439756,0.2023658 h 0.101183 v 0.7082804 h -0.105074 q -0.249066,0 -0.486457,-0.101183 -0.23739,-0.1050745 -0.385273,-0.3307902 -0.163449,0.2373906 -0.404732,0.3813817 -0.241282,0.1400994 -0.626555,0.1400994 -0.389165,0 -0.719956,-0.167341 -0.326898,-0.1712326 -0.681038,-0.5136978 -0.252958,0.2840905 -0.486457,0.4397565 -0.233499,0.1517744 -0.657689,0.1517744 z m 2.35834,-2.1014912 q -0.194582,0 -0.35414,0.1323161 -0.159557,0.1284244 -0.287982,0.3346819 -0.128424,0.2062575 -0.229607,0.4280815 0.128424,0.1323162 0.256849,0.2373907 0.128424,0.1050746 0.249065,0.1790159 0.311332,0.1906909 0.544831,0.1906909 0.575965,0 0.575965,-0.5798559 0,-0.4047316 -0.202366,-0.6615806 Q 15.700736,7.363509 15.346595,7.363509 Z M 9.8087769,4.5226042 10.373066,5.0868935 9.8087769,5.6511828 9.2444876,5.0868935 Z m 2.6502141,2.78253 v 0.6732555 q -0.167341,0.015567 -0.393057,0.085616 -0.225716,0.066158 -0.478673,0.1867992 0.0078,0.323007 0.311332,0.4164066 0.303549,0.089508 0.860055,0.089508 h 0.214041 v 0.7082804 h -0.229608 q -0.793896,0 -1.190845,-0.2101492 Q 11.15918,9.0447019 11.081347,8.4998709 10.3108,8.9201691 9.5869528,9.1925846 8.8669975,9.4650002 8.0341843,9.4650002 H 7.3842787 V 8.7567198 h 0.6615806 q 0.4553231,0 0.8367048,-0.081725 Q 9.2639458,8.5932705 9.6258693,8.4492794 9.9916844,8.3052883 10.388633,8.1107058 10.789473,7.9122317 11.283712,7.6865159 11.007405,7.585333 10.71164,7.4685835 10.415874,7.3479424 10.14735,7.2428678 9.8827182,7.1377932 9.6842441,7.0716352 q -0.1984742,-0.07005 -0.2801989,-0.07005 -0.2373906,0 -0.4202982,0.1400994 Q 8.8047311,7.2778927 8.6529567,7.4724752 L 8.5478822,7.6047913 7.9524597,7.3129175 l 0.058375,-0.0934 q 0.2568489,-0.4164066 0.5954225,-0.6654722 0.3424652,-0.2529573 0.80168,-0.2529573 0.1906909,0 0.4592147,0.097291 0.2724154,0.097291 0.5915304,0.2451739 0.319116,0.1439911 0.661581,0.2957655 0.342465,0.1478827 0.684931,0.2529572 0.342465,0.101183 0.653797,0.1128579 z M 6.652648,4.8962026 7.1974791,5.437142 6.652648,5.9858647 6.1117086,5.437142 Z m -1.2920279,0 L 5.9054511,5.437142 5.3606201,5.9858647 4.8196807,5.437142 Z M 4.9403219,8.7567198 h 0.7977883 q 0.389165,0 0.5253728,-0.2257157 0.1400994,-0.2257158 0.1400994,-0.5720726 0,-0.2529573 -0.0467,-0.5409394 -0.0467,-0.2879822 -0.1011829,-0.5798559 L 6.9328468,6.6669035 q 0.066158,0.3113321 0.1050746,0.6109892 0.038917,0.299657 0.038917,0.5720726 0,0.466998 -0.1284245,0.8328131 Q 6.819989,9.0485936 6.5281152,9.2587427 6.2362414,9.4650002 5.7458935,9.4650002 H 4.9403219 Z M 3.5081945,7.1650348 q 0,0.7316303 0.155666,1.436019 0.1556661,0.700497 0.4553231,1.2725696 0.3035488,0.5720726 0.7471969,0.9106466 L 4.7184978,11.259051 Q 4.2865246,11.025552 3.9362761,10.609145 3.5860275,10.192739 3.3330703,9.6440161 3.0840046,9.099185 2.9477969,8.464846 2.8115891,7.830507 2.8115891,7.1650348 q 0,-0.6654722 0.1362078,-1.2998112 Q 3.0840046,5.2308846 3.3330703,4.6860535 3.5860275,4.1373308 3.9362761,3.7209242 4.2865246,3.3045176 4.7184978,3.0710186 L 4.8663805,3.5458 Q 4.4227324,3.8843735 4.1191836,4.4564461 3.8195266,5.0285187 3.6638605,5.7329075 3.5081945,6.4334045 3.5081945,7.1650348 Z"
         id="path26" />
    </g>
    <path
       style="font-size:7.9701px;font-family:Vazirmatn"
       d="m 3.7554426,-2.8681463 q -0.2607406,0 -0.4981313,-0.1050746 -0.2373906,-0.1089662 -0.3735984,-0.3580318 -0.1323161,0.245174 -0.3735984,0.3541402 -0.2412823,0.1089662 -0.4241899,0.1089662 -0.1323161,0 -0.2373907,-0.00778 -0.1011829,-0.011675 -0.2490656,-0.062266 0.042808,0.4475398 0.062266,0.7822217 0.02335,0.3346819 0.031133,0.6382307 0.00778,0.299657 0.00778,0.64601392 V 0 H 1.0312873 v -0.88340463 q 0,-1.30370287 -0.13620772,-2.30774867 -0.13231611,-1.0040458 -0.51369785,-1.7901592 l 0.61098911,-0.2179324 q 0.12064116,0.3074404 0.20236586,0.5292645 0.081725,0.2179324 0.1945825,0.4942396 0.1011829,0.2490656 0.233499,0.4358648 0.1323161,0.1867992 0.4164066,0.1906909 0.2801988,0 0.4086233,-0.1712326 0.1323161,-0.1712327 0.1362077,-0.7082804 l 0.00389,-0.4981312 0.622664,-0.027242 0.015567,0.4553231 q 0.019458,0.556506 0.1400995,0.7549802 0.1206411,0.1945825 0.3813817,0.1945825 0.1906909,0 0.2918738,-0.1284245 0.1050745,-0.1323161 0.1478827,-0.3385736 0.042808,-0.2062574 0.042808,-0.4319732 0,-0.1712326 -0.019458,-0.3385735 -0.015567,-0.1712327 -0.038917,-0.3035488 l 0.6693638,-0.058375 q 0.02335,0.2568489 0.02335,0.5098062 0,0.466998 -0.1011829,0.8717297 -0.097291,0.4047316 -0.3385735,0.6537972 -0.2412824,0.245174 -0.6693639,0.245174 z"
       id="text12"
       transform="matrix(1.3333333,0,0,1.3333333,102.592,277.808)"
       aria-label="۳" />
    <path
       id="path13"
       d="m 85.04042,0 v 11.33855 h 28.34682 V 0 Z"
       style="fill:#2ecc71;fill-opacity:1;fill-rule:nonzero;stroke:none"
       transform="matrix(1.3333333,0,0,-1.3333333,49.398667,305.17867)" />
    <g
       id="text13"
       transform="matrix(1.3333333,0,0,1.3333333,158.40933,320.47467)"
       aria-label="ﺶﺒﻨﺟﺰﺒﺳ۸۸">
      <path
         style="font-size:7.9701px;font-family:Vazirmatn"
         d="m 31.650263,-5.1175202 0.525373,0.5253728 -0.525373,0.5253728 -0.525373,-0.5253728 z m 0.665472,0.9845875 0.525373,0.5253728 -0.525373,0.5253728 -0.525373,-0.5253728 z m -1.330944,0 0.525373,0.5253728 -0.525373,0.5253728 -0.525373,-0.5253728 z m -3.25342,5.4366356 q 0.649906,0 1.004046,-0.2140408 0.358032,-0.21014912 0.498131,-0.556506 0.143991,-0.34246523 0.143991,-0.73552192 0,-0.46310639 -0.124533,-0.91453788 -0.124532,-0.4514314 -0.233499,-0.7394135 l 0.665473,-0.2685239 0.233499,0.7355219 q 0.108966,0.3385736 0.326898,0.50980622 0.217933,0.17123262 0.575965,0.17123262 0.412514,0 0.560397,-0.22182407 0.147883,-0.22182407 0.147883,-0.63823067 0,-0.1011829 -0.01168,-0.2412823 -0.0078,-0.1400994 -0.02724,-0.3852734 l 0.649906,-0.081725 0.06227,0.813355 q 0.01946,0.3152236 0.167341,0.53704772 0.147883,0.21793242 0.478673,0.21793242 0.575965,0 0.575965,-0.86005474 0,-0.1400994 -0.01167,-0.2918738 -0.0078,-0.1517743 -0.02724,-0.40084 l 0.649906,-0.077833 0.06227,0.8756214 q 0.0467,0.75498014 0.770547,0.75498014 h 0.116749 V 0 h -0.108966 q -0.408623,0 -0.681039,-0.14788271 -0.272415,-0.15177437 -0.373598,-0.45143144 -0.163449,0.28798212 -0.37749,0.44364814 Q 33.234165,0 32.852783,0 32.479185,0 32.249577,-0.15566601 32.01997,-0.31133203 31.875979,-0.5954225 31.658046,-0.28019883 31.389522,-0.14009941 31.12489,0 30.813558,0 30.556709,0 30.36991,-0.06226641 q -0.186799,-0.06615805 -0.311332,-0.15955766 -0.0039,0.64990561 -0.249066,1.1519285 -0.245174,0.50591457 -0.758871,0.79000507 -0.509807,0.2840904 -1.31927,0.2840904 -0.840596,0 -1.346511,-0.3074403 -0.502023,-0.3074404 -0.727739,-0.82113827 -0.221824,-0.5098062 -0.221824,-1.1207953 0,-0.41251494 0.08562,-0.84448813 0.08562,-0.4358648 0.233499,-0.8483798 l 0.618772,0.2490656 q -0.112858,0.3580319 -0.190691,0.73552196 -0.07783,0.37749009 -0.07783,0.73163027 0,0.42029824 0.147883,0.76665512 0.151774,0.34635688 0.505915,0.55261435 0.35414,0.2062575 0.972912,0.2062575 z m -5.526143,-2.01198326 h 0.455323 q 0.49424,0 0.704389,-0.22182407 0.214041,-0.22182407 0.214041,-0.68103877 0,-0.1867993 -0.01168,-0.3541402 -0.0078,-0.167341 -0.02335,-0.334682 l 0.649906,-0.077833 0.06227,0.9106462 q 0.0467,0.75887184 0.790005,0.75887184 h 0.08172 V 0 H 25.03835 Q 24.606377,0 24.345636,-0.15566601 24.088787,-0.31133203 23.929229,-0.5954225 23.71908,-0.28798213 23.376615,-0.14399106 23.03415,0 22.660551,0 h -0.455323 z m 0.80168,1.30370286 0.56429,0.5642893 -0.56429,0.5642893 -0.564289,-0.5642893 z m -2.226023,-2.8953879 0.649906,-0.077833 0.06227,0.9106462 q 0.0467,0.75887184 0.790005,0.75887184 h 0.08172 V 0 h -0.08951 Q 21.843306,0 21.582565,-0.15566601 21.325716,-0.31133203 21.166159,-0.5954225 20.956009,-0.28798213 20.613544,-0.14399106 20.271079,0 19.897481,0 h -0.373599 v -0.70828036 h 0.373599 q 0.494239,0 0.704388,-0.22182407 0.214041,-0.22182407 0.214041,-0.68103877 0,-0.1867993 -0.01168,-0.3541402 -0.0078,-0.167341 -0.02335,-0.334682 z m 0.07394,-1.9380418 0.564289,0.5642893 -0.564289,0.5642893 -0.56429,-0.5642893 z m -4.000619,4.8334297 0.56429,0.5642893 -0.56429,0.5642893 -0.564289,-0.5642893 z m -2.669672,-1.30370286 h 0.661581 q 0.455323,0 0.836705,-0.0817247 0.381381,-0.0817247 0.743305,-0.22571568 0.365815,-0.1439911 0.762763,-0.3385736 0.40084,-0.1984742 0.89508,-0.4241899 -0.276307,-0.1011829 -0.572073,-0.2179324 -0.295765,-0.1206412 -0.564289,-0.2257158 -0.264632,-0.1050745 -0.463106,-0.1712326 -0.198475,-0.07005 -0.280199,-0.07005 -0.237391,0 -0.420299,0.1400994 -0.179015,0.1362078 -0.33079,0.3307903 l -0.105074,0.1323161 -0.595423,-0.2918737 0.05837,-0.0934 q 0.256849,-0.4164065 0.595422,-0.6654722 0.342466,-0.2529572 0.80168,-0.2529572 0.190691,0 0.459215,0.097291 0.272416,0.097291 0.591531,0.245174 0.319115,0.1439911 0.66158,0.2957654 0.342466,0.1478827 0.684931,0.2529573 0.342465,0.1011829 0.653797,0.1128579 v 0.6732555 q -0.249065,0.027241 -0.63823,0.1829075 -0.385274,0.1517744 -1.004046,0.47867302 -0.498131,0.26463223 -0.926213,0.45143145 -0.42419,0.18290756 -0.867838,0.28019882 Q 15.383164,0 14.834442,0 h -0.649906 z m 0.742775,-3.29622784 0.56429,0.5642893 -0.56429,0.5642893 -0.564289,-0.5642893 z M 16.371114,0 Q 16.10259,0 15.919682,-0.07004971 15.740666,-0.14399106 15.639483,-0.22571572 15.581109,0.28409048 15.355393,0.75887182 15.133569,1.2375448 14.686029,1.591685 14.238489,1.9458252 13.502967,2.0898162 L 13.27336,1.4749355 q 0.949563,-0.2062575 1.338728,-0.72384698 0.389165,-0.51369785 0.389165,-1.21808656 0,-0.33079028 -0.07394,-0.69271376 -0.07005,-0.3658151 -0.198474,-0.7433052 l 0.646014,-0.2179324 0.210149,0.8133549 q 0.08562,0.32689861 0.272416,0.46310637 0.186799,0.13620777 0.47089,0.13620777 h 0.147882 V 0 Z m -5.895851,-0.70828036 h 0.455323 q 0.49424,0 0.704389,-0.22182407 0.214041,-0.22182407 0.214041,-0.68103877 0,-0.1867993 -0.01168,-0.3541402 -0.0078,-0.167341 -0.02335,-0.334682 l 0.649905,-0.077833 0.06227,0.9106462 q 0.0467,0.75887184 0.790005,0.75887184 h 0.08173 V 0 h -0.08951 Q 12.876411,0 12.615671,-0.15566601 12.358822,-0.31133203 12.199264,-0.5954225 11.989115,-0.28798213 11.64665,-0.14399106 11.304185,0 10.930586,0 h -0.455323 z m 0.80168,1.30370286 0.564289,0.5642893 -0.564289,0.5642893 -0.564289,-0.5642893 z M 6.9066209,0 Q 6.4590811,0 6.2139071,-0.15177436 5.9726248,-0.30744038 5.8286338,-0.5954225 5.6457262,-0.30744038 5.3616357,-0.15177436 5.0775452,0 4.5521724,0 H 4.1941406 v -0.70828036 h 0.3658151 q 0.4981313,0 0.7277387,-0.18290757 0.2296073,-0.18679917 0.2296073,-0.67714717 0,-0.1011829 -0.011675,-0.2373907 -0.00778,-0.1400994 -0.027242,-0.389165 l 0.6499056,-0.081725 0.062266,0.813355 q 0.02335,0.3268986 0.1984742,0.54093937 0.1790159,0.21404077 0.5253728,0.21404077 0.4125149,0 0.5603977,-0.22182407 0.1478827,-0.22182407 0.1478827,-0.63823067 0,-0.1011829 -0.011675,-0.2412823 -0.00778,-0.1400994 -0.027241,-0.3852734 l 0.6499056,-0.081725 0.062266,0.813355 q 0.019458,0.3152236 0.1673409,0.53704772 0.1478828,0.21793242 0.478673,0.21793242 0.323007,0 0.4436482,-0.24128233 0.1206411,-0.24128231 0.1206411,-0.56428931 0,-0.2918738 -0.058375,-0.5876392 -0.054483,-0.2957654 -0.097291,-0.478673 L 10.01605,-2.7591801 q 0.07005,0.2607406 0.112857,0.556506 0.04281,0.2918738 0.04281,0.5837476 0,0.4202982 -0.11675,0.79000497 Q 9.9382165,-0.45921474 9.6696927,-0.22960737 9.4050604,-0.00389165 8.9458457,0 8.5722473,0 8.3426399,-0.15566601 8.1130325,-0.31133203 7.9690414,-0.5954225 7.751109,-0.28019883 7.4825852,-0.14009941 7.2179529,0 6.9066209,0 Z"
         id="path27" />
      <path
         style="font-size:7.9701px;font-family:Vazirmatn"
         d="m 14.773983,4.4214213 h 0.669364 q 0.159558,1.0585289 0.451432,2.0003083 0.291873,0.9378877 0.626555,1.6773013 0.338574,0.7355219 0.618773,1.190845 L 16.529118,9.6206662 Q 16.353993,9.3054425 16.147736,8.8695776 15.941478,8.4298212 15.739113,7.9161233 15.536747,7.3985338 15.369406,6.8537028 15.202065,6.3049801 15.108665,5.7757156 15.011374,6.3049801 14.844033,6.8537028 14.676692,7.3985338 14.474326,7.9161233 14.27196,8.4298212 14.065703,8.8695776 13.863337,9.3054425 13.688213,9.6206662 L 13.077224,9.2898759 q 0.28409,-0.4553231 0.618772,-1.190845 0.334682,-0.7394136 0.626556,-1.6773013 0.295765,-0.9417794 0.451431,-2.0003083 z m 4.693331,0 h 0.669363 q 0.159558,1.0585289 0.451432,2.0003083 0.291874,0.9378877 0.626556,1.6773013 0.338573,0.7355219 0.618772,1.190845 L 21.222448,9.6206662 Q 21.047324,9.3054425 20.841066,8.8695776 20.634809,8.4298212 20.432443,7.9161233 20.230077,7.3985338 20.062736,6.8537028 19.895395,6.3049801 19.801996,5.7757156 q -0.09729,0.5292645 -0.264633,1.0779872 -0.167341,0.544831 -0.369706,1.0624205 -0.202366,0.5136979 -0.408624,0.9534543 -0.202366,0.4358649 -0.37749,0.7510886 L 17.770554,9.2898759 q 0.284091,-0.4553231 0.618772,-1.190845 0.334682,-0.7394136 0.626556,-1.6773013 0.295766,-0.9417794 0.451432,-2.0003083 z"
         id="path28" />
    </g>
    <path
       style="font-size:7.9701px;font-family:Vazirmatn"
       d="m 3.7593342,-5.1486534 q 0.011675,0.1400994 0.019458,0.2763072 0.00778,0.1362077 0.00778,0.2685238 0,0.4942396 -0.1245328,0.8872963 -0.1245328,0.3930567 -0.4280816,0.6226641 -0.299657,0.2257157 -0.8328131,0.2257157 -0.1517744,0 -0.3658152,-0.019458 -0.2101491,-0.02335 -0.4436481,-0.0934 0.081725,0.5837476 0.0934,1.1013371 0.015567,0.5175895 0.015567,1.00793742 V 0 H 1.0312873 v -0.88340463 q 0,-1.30370287 -0.13620772,-2.30774867 -0.13231611,-1.0040458 -0.51369785,-1.7901592 l 0.61098911,-0.2179324 q 0.089508,0.2412823 0.16344936,0.4241899 0.077833,0.1790159 0.1634493,0.4202983 0.1712326,0.4747813 0.4047316,0.6421223 0.2373907,0.1634493 0.6693639,0.1634493 0.3074403,0 0.4708897,-0.1323161 0.1634493,-0.1362078 0.2257157,-0.3463569 0.062266,-0.2101491 0.062266,-0.4436482 0,-0.1712326 -0.019458,-0.3268986 -0.019458,-0.155666 -0.042808,-0.2918738 z"
       id="text15"
       transform="matrix(1.3333333,0,0,1.3333333,178.90267,285.368)"
       aria-label="۲" />
    <path
       id="path16"
       d="m 141.73404,0 v 8.50412 h 28.34682 V 0 Z"
       style="fill:#f1c40f;fill-opacity:1;fill-rule:nonzero;stroke:none"
       transform="matrix(1.3333333,0,0,-1.3333333,49.398667,305.17867)" />
    <g
       id="text16"
       transform="matrix(1.3333333,0,0,1.3333333,249.48933,321.984)"
       aria-label="نﺎﺑآ۹۸">
      <path
         style="font-size:7.9701px;font-family:Vazirmatn"
         d="m 8.9196624,-3.3040112 0.5642893,0.5642894 -0.5642893,0.5642893 -0.5642893,-0.5642893 z m 0.0467,4.3236236 q 0.6499056,0 1.0040458,-0.21404078 0.358032,-0.21014912 0.498131,-0.556506 0.143991,-0.34246523 0.143991,-0.73552191 0,-0.4631064 -0.124533,-0.91453781 -0.124532,-0.4514315 -0.233499,-0.7394136 l 0.665473,-0.2685239 q 0.182907,0.5020229 0.276307,0.9768043 0.09729,0.47088966 0.09729,0.8989712 0,0.65768891 -0.245174,1.16749511 -0.241282,0.50980619 -0.75498,0.79778829 -0.5136979,0.2879822 -1.3270528,0.2879822 -0.8405965,0 -1.346511,-0.3074404 Q 7.1178283,1.1052287 6.8921126,0.59153085 6.6702885,0.08172466 6.6702885,-0.52926445 q 0,-0.41251494 0.085616,-0.84448815 0.085616,-0.4358648 0.233499,-0.8483798 l 0.6187724,0.2490657 q -0.1128578,0.3580318 -0.1906908,0.7355219 -0.077833,0.37749007 -0.077833,0.73163025 0,0.42029824 0.1478827,0.76665512 Q 7.6393094,0.60709746 7.9934496,0.81335492 8.3475898,1.0196124 8.9663622,1.0196124 Z M 4.794513,-5.3588025 h 0.6576889 v 3.7204177 q 0,0.5487227 0.2023658,0.73941357 0.2023658,0.19069087 0.6109891,0.19069087 h 0.097291 V 0 H 6.2655568 Q 5.5222516,0 5.1564365,-0.39305669 4.794513,-0.79000502 4.794513,-1.6422764 Z M 2.4828726,0 H 1.766809 v -0.70828036 h 0.7082803 q 0.3891651,0 0.5253728,-0.22571573 0.1400994,-0.22571571 0.1400994,-0.57207261 0,-0.2529573 -0.0467,-0.5409394 -0.0467,-0.2879821 -0.1011829,-0.5798559 L 3.669826,-2.7980966 q 0.066158,0.311332 0.1050746,0.6109891 0.038917,0.2996571 0.038917,0.5720726 0,0.466998 -0.1284245,0.83281318 Q 3.5569681,-0.41640659 3.2650944,-0.20625747 2.9732206,0 2.4828726,0 Z M 2.5684889,0.5954225 3.1327782,1.1597118 2.5684889,1.7240011 2.0041996,1.1597118 Z M 1.311486,-5.8452588 q 0.054483,0.027241 0.1128579,0.027241 0.1089662,0 0.389165,-0.2529573 l 0.1984742,-0.1790159 0.3541401,0.3191154 -0.2179324,0.2062574 q -0.2062574,0.1945825 -0.3619235,0.2879822 -0.1517743,0.089508 -0.3074403,0.089508 -0.1478827,0 -0.3502486,-0.089508 L 0.62655554,-5.6662429 q -0.0544831,-0.02335 -0.10118291,-0.038917 -0.0466998,-0.015567 -0.089508,-0.015567 -0.0856163,0 -0.19458252,0.07005 -0.10896621,0.07005 -0.29187377,0.2529573 l -0.22182407,0.221824 -0.35414019,-0.3191153 0.22571572,-0.233499 q 0.25295728,-0.2607406 0.42808154,-0.3658152 0.17901592,-0.1089662 0.33857358,-0.1089662 0.10507456,0 0.21014912,0.035025 0.10896621,0.035025 0.23349902,0.0934 z m -0.058375,0.9923708 v 4.84899635 H 0.59542234 V -4.852888 Z"
         id="path29" />
      <path
         style="font-size:7.9701px;font-family:Vazirmatn"
         d="m 3.4010757,7.0716352 q -0.723847,0 -1.0974454,-0.2568489 -0.3697068,-0.2607406 -0.3697068,-0.9301045 0,-0.2685238 0.085616,-0.5487227 Q 2.1051561,5.0557603 2.2724971,4.814478 2.4398381,4.5731957 2.685012,4.4253129 2.9340777,4.2774302 3.2570846,4.2774302 q 0.5370478,0 0.8483798,0.2879822 0.311332,0.2840904 0.4514314,0.8289215 0.1400995,0.5409394 0.1556661,1.3153778 0.00778,0.2685239 0.011675,0.6187724 0.00778,0.3502485 0.015567,0.7316303 0.011675,0.3813817 0.02335,0.7471968 0.011675,0.3658152 0.02335,0.657689 H 4.1171394 Q 4.1093561,9.1653431 4.1015728,8.7995279 4.0937895,8.4337128 4.0860062,8.0717893 4.0821145,7.7098658 4.0782229,7.4179921 4.0743312,7.1261183 4.0704396,6.9821272 3.95369,7.0171521 3.7552159,7.0443936 3.5567417,7.0716352 3.4010757,7.0716352 Z M 3.3816174,6.3983797 q 0.1945826,0 0.3813818,-0.027242 Q 3.95369,6.3400049 4.0470897,6.3049801 4.0315231,5.9391649 3.95369,5.6317246 3.875857,5.3242842 3.7046244,5.137485 3.5372835,4.9506857 3.2493013,4.9506857 q -0.2490656,0 -0.3969483,0.167341 -0.1439911,0.1634493 -0.2101491,0.3852734 -0.062266,0.2179324 -0.062266,0.3813817 0,0.2840905 0.1829075,0.40084 0.1829076,0.1128579 0.6187724,0.1128579 z M 7.4250422,4.4214213 h 0.6693639 q 0.1595577,1.0585289 0.4514314,2.0003083 0.2918738,0.9378877 0.6265557,1.6773013 0.3385736,0.7355219 0.6187724,1.190845 L 9.1801765,9.6206662 Q 9.0050523,9.3054425 8.7987948,8.8695776 8.5925373,8.4298212 8.3901715,7.9161233 8.1878057,7.3985338 8.0204647,6.8537028 7.8531238,6.3049801 7.7597242,5.7757156 7.6624329,6.3049801 7.4950919,6.8537028 7.327751,7.3985338 7.1253852,7.9161233 6.9230193,8.4298212 6.7167619,8.8695776 6.514396,9.3054425 6.3392718,9.6206662 L 5.7282827,9.2898759 Q 6.0123732,8.8345528 6.3470551,8.0990309 6.681737,7.3596173 6.9736108,6.4217296 7.2693762,5.4799502 7.4250422,4.4214213 Z"
         id="path30" />
    </g>
    <path
       style="font-size:7.9701px;font-family:Vazirmatn"
       d="m 2.3505568,-0.61877241 q -0.097291,0.33857358 -0.323007,0.478673 Q 1.8018341,0 1.502177,0 0.99237084,0 0.70049706,-0.32300698 0.40862329,-0.64990561 0.40862329,-1.3114862 q 0,-0.7082803 0.39694833,-1.4982854 Q 1.2064116,-3.6036682 1.825184,-4.4481564 L 1.591685,-4.6777637 2.0041999,-5.242053 q 0.8561631,0.7938966 1.3542944,1.4866104 0.5020229,0.6888221 0.7160636,1.2959196 0.2179324,0.6032058 0.2179324,1.1480368 0,0.65379729 -0.2801988,0.98458757 Q 3.7320927,0 3.2145032,0 2.9537626,0 2.7008053,-0.14009941 2.4517397,-0.28019883 2.3505568,-0.61877241 Z M 1.0546372,-1.3075945 q 0,0.2879821 0.1206412,0.46310637 0.1206412,0.17512427 0.323007,0.17512427 0.1323161,0 0.2412823,-0.0544831 0.1089662,-0.0583748 0.1984742,-0.24906562 0.0934,-0.19069091 0.1673409,-0.59153081 h 0.4825647 q 0.066158,0.4008399 0.1595577,0.59153081 0.097291,0.19069087 0.2140407,0.24906562 0.1206412,0.0544831 0.2529573,0.0544831 0.2218241,0 0.323007,-0.17123262 0.1050745,-0.17123262 0.1050745,-0.46699802 0,-0.646014 -0.3463568,-1.3270528 Q 2.949871,-3.3156861 2.3233153,-3.973375 1.6656264,-3.105537 1.358186,-2.4517397 1.0546372,-1.7979425 1.0546372,-1.3075945 Z m 4.215187,0.790005 q 0,-0.21404077 0.1517744,-0.36581513 0.1517744,-0.15566597 0.3658151,-0.15566597 0.2140408,0 0.3658152,0.15566597 0.1517743,0.15177436 0.1517743,0.36581513 0,0.21404077 -0.1517743,0.36581514 Q 6.0014545,0 5.7874137,0 5.573373,0 5.4215986,-0.14788271 5.2698242,-0.29576543 5.2698242,-0.5175895 Z M 8.5699435,0 H 7.9005796 v -0.88340463 q 0,-1.30370287 -0.1362078,-2.30774867 Q 7.6320557,-4.1951991 7.250674,-4.9813125 l 0.6148807,-0.221824 q 0.412515,0.9145378 0.5565061,1.9769584 0.1478827,1.0585289 0.1478827,2.35444842 z"
       id="text18"
       transform="matrix(1.3333333,0,0,1.3333333,251.16533,289.14667)"
       aria-label="۵ .۱" />
    <path
       id="path19"
       d="m 198.42766,0 v 28.3468 h 28.34682 V 0 Z"
       style="fill:#e67e22;fill-opacity:1;fill-rule:nonzero;stroke:none"
       transform="matrix(1.3333333,0,0,-1.3333333,49.398667,305.17867)" />
    <g
       id="text19"
       transform="matrix(1.3333333,0,0,1.3333333,321.51067,320.796)"
       aria-label="ﺎﺴﻬﻣ۱۴۰۱">
      <path
         style="font-size:7.9701px;font-family:Vazirmatn"
         d="m 15.543253,-5.3588025 h 0.657689 v 3.7204177 q 0,0.5487227 0.202365,0.73941357 0.202366,0.19069087 0.61099,0.19069087 h 0.09729 V 0 h -0.09729 Q 16.270991,0 15.905176,-0.39305669 15.543253,-0.79000502 15.543253,-1.6422764 Z M 12.893038,0 Q 12.519439,0 12.289832,-0.15566601 12.060225,-0.31133203 11.916234,-0.5954225 11.698301,-0.28019883 11.429777,-0.14009941 11.165145,0 10.853813,0 10.406273,0 10.161099,-0.15177436 9.919817,-0.30744038 9.7758259,-0.5954225 9.5929184,-0.30744038 9.3088279,-0.15177436 9.0247374,0 8.4993646,0 H 8.1413328 v -0.70828036 h 0.3658151 q 0.4981313,0 0.7277386,-0.18290757 0.2296074,-0.18679917 0.2296074,-0.67714717 0,-0.1011829 -0.011675,-0.2373907 -0.00778,-0.1400994 -0.027242,-0.389165 l 0.6499056,-0.081725 0.06227,0.813355 q 0.02335,0.3268986 0.198475,0.54093937 0.179016,0.21404077 0.525372,0.21404077 0.412515,0 0.560398,-0.22182407 0.147883,-0.22182407 0.147883,-0.63823067 0,-0.1011829 -0.01168,-0.2412823 -0.0078,-0.1400994 -0.02724,-0.3852734 l 0.649906,-0.081725 0.06227,0.813355 q 0.01946,0.3152236 0.167341,0.53704772 0.147883,0.21793242 0.478673,0.21793242 0.575964,0 0.575964,-0.86005474 0,-0.1400994 -0.01167,-0.2918738 -0.0078,-0.1517743 -0.02724,-0.40084 l 0.649906,-0.077833 0.06227,0.8756214 q 0.0467,0.75498014 0.770547,0.75498014 h 0.116749 V 0 H 14.916696 Q 14.508073,0 14.235657,-0.14788271 13.963242,-0.29965708 13.862059,-0.59931415 13.69861,-0.31133203 13.484569,-0.15566601 13.27442,0 12.893038,0 Z M 4.1718494,0 V -0.70828036 H 4.977421 v -0.0700497 q 0,-0.41640663 0.073941,-0.84448813 0.077833,-0.4319732 0.2412823,-0.7938967 0.1634493,-0.3658151 0.4280816,-0.5876392 0.2685238,-0.221824 0.6499056,-0.221824 0.4942396,0 0.7744384,0.3463568 0.2801988,0.3463569 0.2801988,0.9028629 0,0.3619235 -0.143991,0.712172 -0.1439911,0.35024857 -0.3930567,0.63823069 -0.2490657,0.28798213 -0.568181,0.45921474 -0.3191153,0.17123262 -0.6693638,0.17123262 0.077833,0.32689863 0.3074403,0.66547221 0.2296074,0.33857354 0.5720726,0.56039764 0,-1.93804186 1.6383848,-1.93804186 H 8.2969988 V 0 H 8.160791 Q 7.6393099,0 7.3746777,0.28409048 7.1139371,0.56818095 7.1139371,1.2453281 q 0,0.085616 0.00389,0.1790159 0.00389,0.097291 0.011675,0.1906909 L 6.646939,2.0859246 Q 5.9853585,1.7512427 5.5728435,1.20252 5.1603286,0.65768891 5.0319041,0 Z m 2.1909992,-2.5412477 q -0.2334991,0 -0.40084,0.233499 -0.167341,0.2334991 -0.2568489,0.634339 -0.085616,0.3969484 -0.085616,0.89118798 v 0.077833 q 0.3268986,0 0.5954225,-0.17512427 0.2685238,-0.17512422 0.4280815,-0.46310642 0.1595577,-0.2918737 0.1595577,-0.634339 0,-0.2763072 -0.1245329,-0.4202982 Q 6.5574311,-2.5412477 6.3628486,-2.5412477 Z M 2.6385387,0.08950796 q -0.389165,0 -0.7199553,-0.16734097 Q 1.5916848,-0.24906562 1.2375446,-0.59153085 0.9845873,-0.30744038 0.75108828,-0.15177436 0.51758926,0 0.09339937,0 h -0.17123261 v -0.70828036 h 0.15177436 q 0.26074057,0 0.43975649,-0.14788272 0.17901592,-0.15177432 0.31911533,-0.38916502 0.14009941,-0.2373907 0.27630716,-0.5020229 0.1400994,-0.2685239 0.311332,-0.5059146 0.1712327,-0.2373906 0.412515,-0.3852733 0.245174,-0.1517744 0.6032058,-0.1517744 0.4319732,0 0.7510885,0.2101491 0.323007,0.2062575 0.4981312,0.556506 0.179016,0.3502485 0.179016,0.7822217 0,0.63433904 -0.323007,0.98458758 Q 3.2222863,0.08950796 2.6385387,0.08950796 Z M 2.4517395,-2.1014912 q -0.1945825,0 -0.3541402,0.1323161 -0.1595577,0.1284245 -0.2879821,0.334682 -0.1284245,0.2062574 -0.2296074,0.4280815 0.233499,0.24517396 0.4825647,0.40083998 0.3191153,0.20625747 0.5681809,0.20625747 0.5759643,0 0.5759643,-0.57985595 0,-0.4047316 -0.2023659,-0.6615805 -0.1984741,-0.2607406 -0.5526143,-0.2607406 z"
         id="path31" />
      <path
         style="font-size:7.9701px;font-family:Vazirmatn"
         d="M 3.9596513,9.4650002 H 3.2902874 V 8.5815955 q 0,-1.3037028 -0.1362078,-2.3077486 Q 3.0217635,5.2698011 2.6403818,4.4836877 L 3.2552626,4.2618636 Q 3.6677775,5.1764015 3.8117686,6.238822 3.9596513,7.2973509 3.9596513,8.5932705 Z M 7.7540104,4.9818189 q -0.2840905,0 -0.4864563,0.1439911 -0.2023658,0.1400994 -0.311332,0.3697068 -0.1089662,0.2257157 -0.1089662,0.4903479 0,0.1400994 0.1362077,0.2296074 0.1362078,0.085616 0.3541402,0.1284245 0.2179324,0.042808 0.4592147,0.042808 0.2724156,0 0.5292645,-0.0467 0.2607406,-0.050591 0.4280815,-0.1400994 L 8.8436725,6.873161 Q 8.314408,7.0599602 7.7851436,7.0599602 q -0.4592148,0 -0.9067545,-0.1478827 -0.4475398,-0.1517743 -0.7394136,-0.4475398 0.081725,0.6226641 0.1011829,1.1636035 0.019458,0.5370477 0.019458,0.9651293 V 9.4650002 H 5.5902528 V 8.5815955 q 0,-1.3037028 -0.1362078,-2.3077486 Q 5.3217289,5.2698011 4.9403472,4.4836877 L 5.5552279,4.2657553 5.86656,5.0946768 q 0.1245328,0.3268986 0.1906908,0.478673 0.066158,0.1478827 0.1089662,0.1984742 0.0467,0.0467 0.101183,0.073941 0,-0.3930567 0.1712326,-0.7471968 0.1712326,-0.3580319 0.4942396,-0.5798559 0.3230069,-0.2257158 0.77833,-0.2257158 0.3774901,0 0.5954225,0.1128579 0.2218241,0.1089662 0.3658152,0.2101491 L 8.4545074,5.2269929 Q 8.314408,5.1413766 8.1470671,5.0635436 7.9836178,4.9818189 7.7540104,4.9818189 Z m 1.8913419,2.6229724 q 0,-0.3191153 0.1517744,-0.5798559 0.155666,-0.2607406 0.4164063,-0.412515 0.260741,-0.155666 0.579856,-0.155666 0.319115,0 0.579856,0.155666 0.260741,0.1517744 0.412515,0.412515 0.155666,0.2607406 0.155666,0.5798559 0,0.3191153 -0.155666,0.5798559 -0.151774,0.2607406 -0.412515,0.4164066 -0.260741,0.1517743 -0.579856,0.1517743 -0.319115,0 -0.579856,-0.1517743 Q 9.9527927,8.4453878 9.7971267,8.1846472 9.6453523,7.9239066 9.6453523,7.6047913 Z m 0.5954227,0 q 0,0.2296074 0.159557,0.3930567 0.16345,0.1595576 0.393057,0.1595576 0.229608,0 0.389165,-0.1595576 0.16345,-0.1634493 0.16345,-0.3930567 0,-0.2296074 -0.16345,-0.3891651 -0.159557,-0.1634493 -0.389165,-0.1634493 -0.229607,0 -0.393057,0.1634493 -0.159557,0.1595577 -0.159557,0.3891651 z m 3.934458,1.8602089 H 13.505869 V 8.5815955 q 0,-1.3037028 -0.136207,-2.3077486 -0.132317,-1.0040458 -0.513698,-1.7901592 l 0.61488,-0.2218241 q 0.412515,0.9145379 0.556506,1.9769584 0.147883,1.0585289 0.147883,2.3544485 z"
         id="path32" />
    </g>
    <path
       style="font-size:7.9701px;font-family:Vazirmatn"
       d="m 2.3505568,-0.61877241 q -0.097291,0.33857358 -0.323007,0.478673 Q 1.8018341,0 1.502177,0 0.99237084,0 0.70049706,-0.32300698 0.40862329,-0.64990561 0.40862329,-1.3114862 q 0,-0.7082803 0.39694833,-1.4982854 Q 1.2064116,-3.6036682 1.825184,-4.4481564 L 1.591685,-4.6777637 2.0041999,-5.242053 q 0.8561631,0.7938966 1.3542944,1.4866104 0.5020229,0.6888221 0.7160636,1.2959196 0.2179324,0.6032058 0.2179324,1.1480368 0,0.65379729 -0.2801988,0.98458757 Q 3.7320927,0 3.2145032,0 2.9537626,0 2.7008053,-0.14009941 2.4517397,-0.28019883 2.3505568,-0.61877241 Z M 1.0546372,-1.3075945 q 0,0.2879821 0.1206412,0.46310637 0.1206412,0.17512427 0.323007,0.17512427 0.1323161,0 0.2412823,-0.0544831 0.1089662,-0.0583748 0.1984742,-0.24906562 0.0934,-0.19069091 0.1673409,-0.59153081 h 0.4825647 q 0.066158,0.4008399 0.1595577,0.59153081 0.097291,0.19069087 0.2140407,0.24906562 0.1206412,0.0544831 0.2529573,0.0544831 0.2218241,0 0.323007,-0.17123262 0.1050745,-0.17123262 0.1050745,-0.46699802 0,-0.646014 -0.3463568,-1.3270528 Q 2.949871,-3.3156861 2.3233153,-3.973375 1.6656264,-3.105537 1.358186,-2.4517397 1.0546372,-1.7979425 1.0546372,-1.3075945 Z"
       id="text21"
       transform="matrix(1.3333333,0,0,1.3333333,329.732,262.68933)"
       aria-label="۵" />
    <path
       id="path22"
       d="M 255.12128,0 V 170.08086 H 283.4681 V 0 Z"
       style="fill:#be1e2d;fill-opacity:1;fill-rule:nonzero;stroke:none"
       transform="matrix(1.3333333,0,0,-1.3333333,49.398667,305.17867)" />
    <g
       id="text22"
       transform="matrix(1.3333333,0,0,1.3333333,395.468,320.796)"
       aria-label="هﺎﻣ ید۱۴۰۴">
      <path
         style="font-size:7.9701px;font-family:Vazirmatn"
         d="m 14.387961,-2.8798213 -0.151774,-0.1362077 0.412515,-0.5331561 q 0.513698,0.4241899 0.902863,0.7938966 0.393056,0.3658152 0.61488,0.7199554 0.221824,0.3502485 0.221824,0.7277386 0,0.59153083 -0.404731,0.94177937 -0.404732,0.35024853 -1.066312,0.35024853 -0.677148,0 -1.074096,-0.33079028 -0.396948,-0.33468193 -0.396948,-0.84837982 0,-0.4514314 0.241282,-0.8405964 0.241282,-0.3930567 0.700497,-0.8444882 z m 1.338728,1.5410936 q 0,-0.1790159 -0.132316,-0.3658152 -0.128425,-0.1906908 -0.326899,-0.37749 -0.194582,-0.1906909 -0.396948,-0.3658152 -0.358032,0.3424653 -0.560398,0.6148808 -0.202366,0.2685239 -0.202366,0.5642893 0,0.2257157 0.190691,0.39305667 0.190691,0.16734097 0.614881,0.16734097 0.428081,0 0.618772,-0.15566602 0.194583,-0.15566602 0.194583,-0.47478132 z m -4.156282,-4.0200748 h 0.657689 v 3.7204177 q 0,0.5487227 0.202365,0.73941357 0.202366,0.19069087 0.61099,0.19069087 h 0.09729 V 0 h -0.09729 Q 12.298145,0 11.93233,-0.39305669 11.570407,-0.79000502 11.570407,-1.6422764 Z M 9.3638402,0.08950796 q -0.389165,0 -0.7199553,-0.16734097 Q 8.3169863,-0.24906562 7.9628461,-0.59153085 7.7098888,-0.30744038 7.4763898,-0.15177436 7.2428908,0 6.8187009,0 H 6.6474683 v -0.70828036 h 0.1517743 q 0.2607406,0 0.4397565,-0.14788272 0.1790159,-0.15177432 0.3191153,-0.38916502 0.1400995,-0.2373907 0.2763072,-0.5020229 0.1400994,-0.2685239 0.311332,-0.5059146 0.1712327,-0.2373906 0.412515,-0.3852733 0.245174,-0.1517744 0.6032058,-0.1517744 0.4319732,0 0.7510885,0.2101491 0.3230071,0.2062575 0.4981311,0.556506 0.179016,0.3502485 0.179016,0.7822217 0,0.63433904 -0.323007,0.98458758 Q 9.9475878,0.08950796 9.3638402,0.08950796 Z M 9.177041,-2.1014912 q -0.1945825,0 -0.3541402,0.1323161 -0.1595577,0.1284245 -0.2879821,0.334682 -0.1284245,0.2062574 -0.2296074,0.4280815 0.233499,0.24517396 0.4825647,0.40083998 0.3191153,0.20625747 0.5681809,0.20625747 0.5759643,0 0.5759643,-0.57985595 0,-0.4047316 -0.2023659,-0.6615805 Q 9.5311812,-2.1014912 9.177041,-2.1014912 Z m -9.29662357,1.39321084 h 0.84448812 q 0.38916505,0 0.52537285,-0.22571573 0.1400994,-0.22571571 0.1400994,-0.57207261 0,-0.2529573 -0.0467,-0.5409394 -0.0467,-0.2879821 -0.1011829,-0.5798559 l 0.6771471,-0.1712326 q 0.066158,0.311332 0.1050746,0.6109891 0.038916,0.2996571 0.038916,0.5720726 0,0.466998 -0.1284245,0.83281318 Q 1.8067844,-0.41640659 1.5149106,-0.20625747 1.2230368,0 0.73268885,0 H -0.11958257 Z M 1.2853032,0.61877241 1.8301343,1.1597118 1.2853032,1.7084345 0.74436381,1.1597118 Z m -1.29202791,0 0.54483105,0.54093939 -0.54483105,0.5487227 -0.5409394,-0.5487227 z M -1.6451096,-1.4165607 q 0,-0.1011829 -0.0467,-0.2607406 -0.042808,-0.1634493 -0.1050746,-0.3035487 l -0.6888221,-1.5605518 0.6070975,-0.2840905 0.88340459,2.0781413 q 0.17901591,0.4202982 0.31133203,0.6460139 0.13620776,0.22571577 0.26463222,0.31133208 0.13231611,0.0817247 0.29965708,0.0817247 H 0.04386663 V 0 h -0.16344931 q -0.30744038,0 -0.5020229,-0.07394136 -0.19069086,-0.07394135 -0.33079028,-0.22182407 -0.14009944,-0.14788271 -0.28409044,-0.37359843 -0.2724156,0.34246523 -0.6966054,0.50591455 -0.4202983,0.15955766 -1.0507456,0.15955766 -0.2724156,0 -0.490348,-0.0233499 -0.2179324,-0.02724155 -0.4125149,-0.07394136 v -0.70438871 q 0.4475398,0.10507456 0.8444881,0.10507456 1.3971025,0 1.3971025,-0.71606364 z"
         id="path33" />
      <path
         style="font-size:7.9701px;font-family:Vazirmatn"
         d="M 4.0586512,9.4650002 H 3.3892874 V 8.5815955 q 0,-1.3037028 -0.1362078,-2.3077486 Q 3.1207635,5.2698011 2.7393818,4.4836877 L 3.3542625,4.2618636 q 0.412515,0.9145379 0.556506,1.9769584 0.1478827,1.0585289 0.1478827,2.3544485 z M 7.8530104,4.9818189 q -0.2840905,0 -0.4864563,0.1439911 Q 7.1641882,5.2659094 7.055222,5.4955168 6.9462558,5.7212325 6.9462558,5.9858647 q 0,0.1400994 0.1362078,0.2296074 0.1362078,0.085616 0.3541402,0.1284245 0.2179324,0.042808 0.4592147,0.042808 0.2724155,0 0.5292645,-0.0467 0.2607405,-0.050591 0.4280815,-0.1400994 L 8.9426725,6.873161 Q 8.413408,7.0599602 7.8841436,7.0599602 q -0.4592148,0 -0.9067546,-0.1478827 -0.4475398,-0.1517743 -0.7394135,-0.4475398 0.081725,0.6226641 0.1011829,1.1636035 0.019458,0.5370477 0.019458,0.9651293 V 9.4650002 H 5.6892528 V 8.5815955 q 0,-1.3037028 -0.1362078,-2.3077486 Q 5.4207289,5.2698011 5.0393472,4.4836877 l 0.6148807,-0.2179324 0.311332,0.8289215 q 0.1245329,0.3268986 0.1906909,0.478673 0.066158,0.1478827 0.1089662,0.1984742 0.0467,0.0467 0.1011829,0.073941 0,-0.3930567 0.1712326,-0.7471968 0.1712327,-0.3580319 0.4942396,-0.5798559 0.323007,-0.2257158 0.7783301,-0.2257158 0.3774901,0 0.5954225,0.1128579 0.2218241,0.1089662 0.3658151,0.2101491 L 8.5535074,5.2269929 Q 8.413408,5.1413766 8.246067,5.0635436 8.0826177,4.9818189 7.8530104,4.9818189 Z m 1.8913419,2.6229724 q 0,-0.3191153 0.1517743,-0.5798559 0.1556664,-0.2607406 0.4164064,-0.412515 0.260741,-0.155666 0.579856,-0.155666 0.319115,0 0.579856,0.155666 0.260741,0.1517744 0.412515,0.412515 0.155666,0.2607406 0.155666,0.5798559 0,0.3191153 -0.155666,0.5798559 -0.151774,0.2607406 -0.412515,0.4164066 -0.260741,0.1517743 -0.579856,0.1517743 -0.319115,0 -0.579856,-0.1517743 Q 10.051793,8.4453878 9.8961266,8.1846472 9.7443523,7.9239066 9.7443523,7.6047913 Z m 0.5954227,0 q 0,0.2296074 0.159557,0.3930567 0.16345,0.1595576 0.393057,0.1595576 0.229608,0 0.389165,-0.1595576 0.163449,-0.1634493 0.163449,-0.3930567 0,-0.2296074 -0.163449,-0.3891651 -0.159557,-0.1634493 -0.389165,-0.1634493 -0.229607,0 -0.393057,0.1634493 -0.159557,0.1595577 -0.159557,0.3891651 z m 5.428852,-2.6229724 q -0.284091,0 -0.486456,0.1439911 -0.202366,0.1400994 -0.311332,0.3697068 -0.108967,0.2257157 -0.108967,0.4903479 0,0.1400994 0.136208,0.2296074 0.136208,0.085616 0.35414,0.1284245 0.217933,0.042808 0.459215,0.042808 0.272416,0 0.529264,-0.0467 0.260741,-0.050591 0.428082,-0.1400994 l 0.08951,0.6732555 q -0.529264,0.1867992 -1.058529,0.1867992 -0.459215,0 -0.906754,-0.1478827 -0.44754,-0.1517743 -0.739414,-0.4475398 0.08173,0.6226641 0.101183,1.1636035 0.01946,0.5370477 0.01946,0.9651293 V 9.4650002 H 13.604869 V 8.5815955 q 0,-1.3037028 -0.136207,-2.3077486 -0.132317,-1.0040458 -0.513698,-1.7901592 l 0.61488,-0.2179324 0.311332,0.8289215 q 0.124533,0.3268986 0.190691,0.478673 0.06616,0.1478827 0.108967,0.1984742 0.0467,0.0467 0.101182,0.073941 0,-0.3930567 0.171233,-0.7471968 0.171233,-0.3580319 0.49424,-0.5798559 0.323007,-0.2257158 0.77833,-0.2257158 0.37749,0 0.595422,0.1128579 0.221824,0.1089662 0.365815,0.2101491 l -0.217932,0.6109891 q -0.140099,-0.085616 -0.30744,-0.1634493 -0.16345,-0.081725 -0.393057,-0.081725 z"
         id="path34" />
    </g>
    <path
       style="font-weight:800;font-size:7.9701px;font-family:Vazirmatn;fill:#be1e2d"
       d="m 3.8527339,-2.6074057 q -0.256849,0 -0.5098062,-0.089508 -0.2490657,-0.0934 -0.3852734,-0.2490656 -0.1362078,0.143991 -0.3541402,0.2412823 -0.2140408,0.097291 -0.4164066,0.097291 -0.054483,0 -0.1362078,0 -0.081725,-0.00389 -0.1362077,-0.015567 0.054483,0.5059145 0.07005,0.945671 0.015567,0.4397565 0.015567,0.90286288 V 0 H 0.93399609 v -0.78611337 q 0,-0.92621283 -0.0700497,-1.66951803 Q 0.79389667,-3.2028282 0.63433901,-3.8216006 0.47478134,-4.4442647 0.21014912,-4.9929874 L 1.2064116,-5.3510192 q 0.1400994,0.3346819 0.2296074,0.5993141 0.089508,0.2646322 0.233499,0.6070975 0.07005,0.1673409 0.1712326,0.2840904 0.1050746,0.1167496 0.3074404,0.1167496 0.2296074,0 0.2957654,-0.1712327 0.066158,-0.1751242 0.07005,-0.5136978 l 0.00778,-0.5876392 0.8600548,-0.0467 0.02335,0.556506 q 0.019458,0.4708897 0.1128578,0.6187724 0.097291,0.1439911 0.2957654,0.1439911 0.1478828,0 0.2218241,-0.1050746 0.073941,-0.1050746 0.097291,-0.2646322 0.02335,-0.1595577 0.02335,-0.3268987 0,-0.1945825 -0.031133,-0.3930566 -0.027242,-0.1984742 -0.0467,-0.334682 l 1.0040458,-0.0934 q 0.019458,0.1945825 0.031133,0.40084 0.015567,0.2023658 0.015567,0.40084 0,0.4864563 -0.1206412,0.9106462 -0.1167495,0.4202982 -0.3969483,0.6810388 -0.2763072,0.2607406 -0.7588718,0.2607406 z m 2.0275498,0.7471968 q 0,-0.3735984 0.179016,-0.6771471 0.1829075,-0.3035488 0.4864563,-0.4825647 0.3035487,-0.1829075 0.6771471,-0.1829075 0.3735985,0 0.6771472,0.1829075 0.3035487,0.1790159 0.4825646,0.4825647 0.1829076,0.3035487 0.1829076,0.6771471 0,0.3735985 -0.1829076,0.6771472 -0.1790159,0.30354872 -0.4825646,0.48645629 -0.3035487,0.17901591 -0.6771472,0.17901591 -0.3735984,0 -0.6771471,-0.17901591 Q 6.2422072,-0.87951298 6.0592997,-1.1830617 5.8802837,-1.4866104 5.8802837,-1.8602089 Z m 0.8483798,0 q 0,0.2062575 0.1439911,0.334682 0.1439911,0.1284244 0.3502485,0.1284244 0.2101491,0 0.3502486,-0.1284244 0.143991,-0.1284245 0.143991,-0.334682 0,-0.2062574 -0.143991,-0.3346819 -0.1400995,-0.1284245 -0.3502486,-0.1284245 -0.2062574,0 -0.3502485,0.1284245 -0.1439911,0.1284245 -0.1439911,0.3346819 z"
       id="text24"
       transform="matrix(1.3333333,0,0,1.3333333,402.45733,73.710667)"
       aria-label="۳۰" />
  </g>
</svg>
