<?xml version="1.0" encoding="UTF-8" standalone="no"?>


<svg class="tikz-diagram" id="iran-action-ch6-tikz-9-4ccfc127962f"
   version="1.1"
   id="svg1"
   width="576.49335"
   height="367.30667"
   viewBox="0 0 576.49335 367.30667"
   sodipodi:docname="iran-action-ch6-tikz-9-4ccfc127962f.pdf"
   xmlns:inkscape="http://www.inkscape.org/namespaces/inkscape"
   xmlns:sodipodi="http://sodipodi.sourceforge.net/DTD/sodipodi-0.dtd"
   xmlns="http://www.w3.org/2000/svg"
   xmlns:svg="http://www.w3.org/2000/svg">
  <defs
     id="defs1" />
  <sodipodi:namedview
     id="namedview1"
     pagecolor="#ffffff"
     bordercolor="#000000"
     borderopacity="0.25"
     inkscape:showpageshadow="2"
     inkscape:pageopacity="0.0"
     inkscape:pagecheckerboard="0"
     inkscape:deskcolor="#d1d1d1">
    <inkscape:page
       x="0"
       y="0"
       inkscape:label="1"
       id="page1"
       width="576.49335"
       height="367.30667"
       margin="0"
       bleed="0" />
  </sodipodi:namedview>
  <g
     id="g1"
     inkscape:groupmode="layer"
     inkscape:label="1">
    <path
       id="path1"
       d="m 62.36331,144.56976 c 0,7.82785 -6.34555,14.17339 -14.1734,14.17339 -7.82785,0 -14.1734,-6.34554 -14.1734,-14.17339 0,-7.82785 6.34555,-14.1734 14.1734,-14.1734 7.82785,0 14.1734,6.34555 14.1734,14.1734 z"
       style="fill:#e6fae6;fill-opacity:1;fill-rule:nonzero;stroke:#006633;stroke-width:0.3985;stroke-linecap:butt;stroke-linejoin:miter;stroke-miterlimit:10;stroke-dasharray:none;stroke-opacity:1"
       transform="matrix(1.3333333,0,0,-1.3333333,21.917333,263.96533)" />
    <path
       id="path2"
       d="m 134.6482,168.66472 c 0,7.82783 -6.34556,14.17338 -14.1734,14.17338 -7.82786,0 -14.17341,-6.34555 -14.17341,-14.17338 0,-7.82785 6.34555,-14.1734 14.17341,-14.1734 7.82784,0 14.1734,6.34555 14.1734,14.1734 z"
       style="fill:#e6fae6;fill-opacity:1;fill-rule:nonzero;stroke:#006633;stroke-width:0.3985;stroke-linecap:butt;stroke-linejoin:miter;stroke-miterlimit:10;stroke-dasharray:none;stroke-opacity:1"
       transform="matrix(1.3333333,0,0,-1.3333333,21.917333,263.96533)" />
    <path
       id="path3"
       d="m 206.93307,144.56976 c 0,7.82785 -6.34555,14.17339 -14.1734,14.17339 -7.82783,0 -14.17338,-6.34554 -14.17338,-14.17339 0,-7.82785 6.34555,-14.1734 14.17338,-14.1734 7.82785,0 14.1734,6.34555 14.1734,14.1734 z"
       style="fill:#e6fae6;fill-opacity:1;fill-rule:nonzero;stroke:#006633;stroke-width:0.3985;stroke-linecap:butt;stroke-linejoin:miter;stroke-miterlimit:10;stroke-dasharray:none;stroke-opacity:1"
       transform="matrix(1.3333333,0,0,-1.3333333,21.917333,263.96533)" />
    <path
       id="path4"
       d="m 279.21796,168.66472 c 0,7.82783 -6.34556,14.17338 -14.1734,14.17338 -7.82786,0 -14.17341,-6.34555 -14.17341,-14.17338 0,-7.82785 6.34555,-14.1734 14.17341,-14.1734 7.82784,0 14.1734,6.34555 14.1734,14.1734 z"
       style="fill:#e6fae6;fill-opacity:1;fill-rule:nonzero;stroke:#006633;stroke-width:0.3985;stroke-linecap:butt;stroke-linejoin:miter;stroke-miterlimit:10;stroke-dasharray:none;stroke-opacity:1"
       transform="matrix(1.3333333,0,0,-1.3333333,21.917333,263.96533)" />
    <path
       id="path5"
       d="m 86.45827,96.37984 c 0,7.82785 -6.34555,14.1734 -14.1734,14.1734 -7.82785,0 -14.1734,-6.34555 -14.1734,-14.1734 0,-7.82785 6.34555,-14.1734 14.1734,-14.1734 7.82785,0 14.1734,6.34555 14.1734,14.1734 z"
       style="fill:#e6fae6;fill-opacity:1;fill-rule:nonzero;stroke:#006633;stroke-width:0.3985;stroke-linecap:butt;stroke-linejoin:miter;stroke-miterlimit:10;stroke-dasharray:none;stroke-opacity:1"
       transform="matrix(1.3333333,0,0,-1.3333333,21.917333,263.96533)" />
    <path
       id="path6"
       d="m 158.74315,72.28487 c 0,7.82785 -6.34554,14.1734 -14.17339,14.1734 -7.82785,0 -14.1734,-6.34555 -14.1734,-14.1734 0,-7.82785 6.34555,-14.1734 14.1734,-14.1734 7.82785,0 14.17339,6.34555 14.17339,14.1734 z"
       style="fill:#e6fae6;fill-opacity:1;fill-rule:nonzero;stroke:#006633;stroke-width:0.3985;stroke-linecap:butt;stroke-linejoin:miter;stroke-miterlimit:10;stroke-dasharray:none;stroke-opacity:1"
       transform="matrix(1.3333333,0,0,-1.3333333,21.917333,263.96533)" />
    <path
       id="path7"
       d="m 255.123,96.37984 c 0,7.82785 -6.34555,14.1734 -14.1734,14.1734 -7.82785,0 -14.1734,-6.34555 -14.1734,-14.1734 0,-7.82785 6.34555,-14.1734 14.1734,-14.1734 7.82785,0 14.1734,6.34555 14.1734,14.1734 z"
       style="fill:#e6fae6;fill-opacity:1;fill-rule:nonzero;stroke:#006633;stroke-width:0.3985;stroke-linecap:butt;stroke-linejoin:miter;stroke-miterlimit:10;stroke-dasharray:none;stroke-opacity:1"
       transform="matrix(1.3333333,0,0,-1.3333333,21.917333,263.96533)" />
    <path
       id="path8"
       d="m 110.55324,24.09494 c 0,7.82785 -6.34555,14.1734 -14.1734,14.1734 -7.82785,0 -14.1734,-6.34555 -14.1734,-14.1734 0,-7.82785 6.34555,-14.17339 14.1734,-14.17339 7.82785,0 14.1734,6.34554 14.1734,14.17339 z"
       style="fill:#e6fae6;fill-opacity:1;fill-rule:nonzero;stroke:#006633;stroke-width:0.3985;stroke-linecap:butt;stroke-linejoin:miter;stroke-miterlimit:10;stroke-dasharray:none;stroke-opacity:1"
       transform="matrix(1.3333333,0,0,-1.3333333,21.917333,263.96533)" />
    <path
       id="path9"
       d="m 206.93307,24.09494 c 0,7.82785 -6.34555,14.1734 -14.1734,14.1734 -7.82783,0 -14.17338,-6.34555 -14.17338,-14.1734 0,-7.82785 6.34555,-14.17339 14.17338,-14.17339 7.82785,0 14.1734,6.34554 14.1734,14.17339 z"
       style="fill:#e6fae6;fill-opacity:1;fill-rule:nonzero;stroke:#006633;stroke-width:0.3985;stroke-linecap:butt;stroke-linejoin:miter;stroke-miterlimit:10;stroke-dasharray:none;stroke-opacity:1"
       transform="matrix(1.3333333,0,0,-1.3333333,21.917333,263.96533)" />
    <path
       id="path10"
       d="m 48.18991,144.56976 72.28489,24.09496"
       style="fill:none;stroke:#006633;stroke-width:0.99628;stroke-linecap:butt;stroke-linejoin:miter;stroke-miterlimit:10;stroke-dasharray:none;stroke-opacity:1"
       transform="matrix(1.3333333,0,0,-1.3333333,21.917333,263.96533)" />
    <path
       id="path11"
       d="m 120.4748,168.66472 72.28487,-24.09496"
       style="fill:none;stroke:#006633;stroke-width:0.99628;stroke-linecap:butt;stroke-linejoin:miter;stroke-miterlimit:10;stroke-dasharray:none;stroke-opacity:1"
       transform="matrix(1.3333333,0,0,-1.3333333,21.917333,263.96533)" />
    <path
       id="path12"
       d="m 192.75967,144.56976 72.28489,24.09496"
       style="fill:none;stroke:#006633;stroke-width:0.99628;stroke-linecap:butt;stroke-linejoin:miter;stroke-miterlimit:10;stroke-dasharray:none;stroke-opacity:1"
       transform="matrix(1.3333333,0,0,-1.3333333,21.917333,263.96533)" />
    <path
       id="path13"
       d="M 72.28487,96.37984 144.56976,72.28487"
       style="fill:none;stroke:#006633;stroke-width:0.99628;stroke-linecap:butt;stroke-linejoin:miter;stroke-miterlimit:10;stroke-dasharray:none;stroke-opacity:1"
       transform="matrix(1.3333333,0,0,-1.3333333,21.917333,263.96533)" />
    <path
       id="path14"
       d="M 144.56976,72.28487 240.9496,96.37984"
       style="fill:none;stroke:#006633;stroke-width:0.99628;stroke-linecap:butt;stroke-linejoin:miter;stroke-miterlimit:10;stroke-dasharray:none;stroke-opacity:1"
       transform="matrix(1.3333333,0,0,-1.3333333,21.917333,263.96533)" />
    <path
       id="path15"
       d="m 96.37984,24.09494 h 96.37983"
       style="fill:none;stroke:#006633;stroke-width:0.99628;stroke-linecap:butt;stroke-linejoin:miter;stroke-miterlimit:10;stroke-dasharray:none;stroke-opacity:1"
       transform="matrix(1.3333333,0,0,-1.3333333,21.917333,263.96533)" />
    <path
       id="path16"
       d="M 48.18991,144.56976 72.28487,96.37984"
       style="fill:none;stroke:#006633;stroke-width:0.99628;stroke-linecap:butt;stroke-linejoin:miter;stroke-miterlimit:10;stroke-dasharray:2.98883, 2.98883;stroke-dashoffset:0;stroke-opacity:1"
       transform="matrix(1.3333333,0,0,-1.3333333,21.917333,263.96533)" />
    <path
       id="path17"
       d="M 144.56976,72.28487 120.4748,168.66472"
       style="fill:none;stroke:#006633;stroke-width:0.99628;stroke-linecap:butt;stroke-linejoin:miter;stroke-miterlimit:10;stroke-dasharray:2.98883, 2.98883;stroke-dashoffset:0;stroke-opacity:1"
       transform="matrix(1.3333333,0,0,-1.3333333,21.917333,263.96533)" />
    <path
       id="path18"
       d="m 240.9496,96.37984 24.09496,72.28488"
       style="fill:none;stroke:#006633;stroke-width:0.99628;stroke-linecap:butt;stroke-linejoin:miter;stroke-miterlimit:10;stroke-dasharray:2.98883, 2.98883;stroke-dashoffset:0;stroke-opacity:1"
       transform="matrix(1.3333333,0,0,-1.3333333,21.917333,263.96533)" />
    <path
       id="path19"
       d="M 0,0 H 313.23448"
       style="fill:none;stroke:#be1e2d;stroke-width:2.98883;stroke-linecap:butt;stroke-linejoin:miter;stroke-miterlimit:10;stroke-dasharray:2.98883, 2.98883;stroke-dashoffset:0;stroke-opacity:1"
       transform="matrix(1.3333333,0,0,-1.3333333,21.917333,263.96533)" />
    <path
       style="font-weight:800;font-size:9.9626px;font-family:Vazirmatn;fill:#be1e2d"
       d="m 27.98537,-5.6672015 0.875619,0.8756191 -0.875619,0.8707546 -0.870754,-0.8707546 z M 26.083331,2.6560447 25.587147,1.3523451 q 0.70536,-0.1508011 1.211273,-0.40375772 0.510778,-0.24809208 0.788057,-0.66644344 0.27728,-0.41835136 0.27728,-1.07993025 0,-0.44267409 -0.141072,-0.99236829 -0.141072,-0.5545588 -0.301603,-1.0312848 l 1.313429,-0.4232159 q 0.189718,0.530236 0.287009,1.1431694 0.102155,0.6129334 0.102155,1.17722127 0,1.02155564 -0.379435,1.75123824 Q 28.36967,1.5615208 27.683768,2.013924 27.002731,2.4711917 26.083331,2.6560447 Z M 25.661477,0 Q 25.218803,0 24.931794,-0.17025927 24.737212,0.94858738 23.973478,1.67827 23.214608,2.4079526 21.94496,2.6511801 L 21.463369,1.3523451 Q 22.168729,1.201544 22.674643,0.94858738 23.18542,0.7004953 23.4627,0.28214394 q 0.277279,-0.41835136 0.277279,-1.07993025 0,-0.44267409 -0.141072,-0.99236829 -0.141072,-0.5545588 -0.301602,-1.0312848 l 1.308564,-0.4232159 0.282144,1.0993885 q 0.0827,0.3113312 0.243228,0.5253714 0.16053,0.2140403 0.476726,0.2140403 h 0.189717 V 0 Z m -5.268306,0.11188467 q -0.505914,0 -0.948588,-0.21404023 -0.437809,-0.21890478 -0.856161,-0.53996513 -0.26755,0.26755029 -0.559423,0.45726776 Q 17.741991,0 17.187432,0 h -0.21404 v -1.4058551 h 0.189717 q 0.238363,0 0.42808,-0.184853 0.194582,-0.1848529 0.369706,-0.4767259 0.179989,-0.2967376 0.374571,-0.6226625 0.199446,-0.3307895 0.442674,-0.6226625 0.248092,-0.2967376 0.574017,-0.4815905 0.325925,-0.1848529 0.763734,-0.1848529 0.612934,0 1.060472,0.291873 0.447539,0.2870085 0.690766,0.7637345 0.243228,0.4718614 0.243228,1.0312847 0,0.574017 -0.189717,1.02642018 -0.189718,0.45240321 -0.574017,0.71508895 -0.379435,0.26268574 -0.953452,0.26268574 z M 20.159672,-2.641451 q -0.199446,0 -0.359977,0.1362074 -0.16053,0.1313429 -0.282143,0.3210604 -0.121614,0.1897174 -0.204312,0.3599767 0.141072,0.1264783 0.267551,0.2189048 0.126478,0.092426 0.243227,0.1605302 0.175124,0.097291 0.321061,0.1362074 0.145936,0.038916 0.252956,0.038916 0.257821,0 0.369706,-0.1848529 0.111885,-0.1897175 0.111885,-0.4280805 0,-0.3064667 -0.189718,-0.530236 Q 20.500191,-2.641451 20.159672,-2.641451 Z M 17.245106,0 h -0.773464 v -1.4058551 h 0.778329 q 0.369705,0 0.505913,-0.2286339 0.141072,-0.2334985 0.141072,-0.5886107 0,-0.3307894 -0.0827,-0.7199535 -0.07783,-0.3940286 -0.16053,-0.768599 l 1.274513,-0.3307894 q 0.09243,0.4572678 0.145936,0.909671 0.05838,0.4475386 0.05838,0.8561609 0,0.6469852 -0.175124,1.1626276 -0.175124,0.51564237 -0.588611,0.81724451 Q 17.960195,0 17.245106,0 Z m 0.574017,-6.3433741 0.875619,0.8756192 -0.875619,0.8707545 -0.870755,-0.8707545 z M 14.457717,-6.8201 h 1.313428 v 4.4461993 q 0,0.5156423 0.150801,0.7442762 0.150802,0.2237694 0.622663,0.2237694 h 0.121614 V 0 H 16.544609 Q 15.45495,0 14.953901,-0.56428788 14.457717,-1.1285758 14.457717,-2.2571515 Z M 13.089728,0 Q 12.647054,0 12.360045,-0.17025927 12.165463,0.94858738 11.401729,1.67827 10.642859,2.4079526 9.3732112,2.6511801 L 8.8916207,1.3523451 Q 9.5969805,1.201544 10.102894,0.94858738 10.613672,0.7004953 10.890951,0.28214394 q 0.277279,-0.41835136 0.277279,-1.07993025 0,-0.44267409 -0.141072,-0.99236829 -0.141072,-0.5545588 -0.301602,-1.0312848 l 1.308564,-0.4232159 0.282144,1.0993885 q 0.0827,0.3113312 0.243228,0.5253714 0.16053,0.2140403 0.476726,0.2140403 h 0.189717 V 0 Z M 6.8679674,0 H 5.822089 v -1.4058551 h 1.0507429 q 0.3697059,0 0.5059133,-0.2286339 0.141072,-0.2334985 0.141072,-0.5886107 0,-0.3307894 -0.082697,-0.7199535 -0.077833,-0.3940286 -0.1605302,-0.768599 l 1.2745123,-0.3307894 q 0.092426,0.4572678 0.1459365,0.909671 0.058375,0.4475386 0.058375,0.8561609 0,0.6469852 -0.1751238,1.1626276 Q 8.4100299,-0.59833973 7.9965431,-0.29673759 7.5830563,0 6.8679674,0 Z M 5.9485673,0.62266248 6.7755409,1.439907 7.5927854,0.62266248 8.4246236,1.4496361 7.5927854,2.2863388 6.7755409,1.4593652 5.9485673,2.2863388 5.1215937,1.4496361 Z M 5.2675306,-6.8201 v 6.81523545 H 3.9541019 V -6.8201 Z"
       id="text19"
       transform="matrix(1.3333333,0,0,1.3333333,207.73333,287.39067)"
       aria-label="زﺮﻣناﺮﯾا" />
    <path
       id="path20"
       d="M 102.737,-34.01651 H 41.83273 c -2.75117,0 -4.98138,-2.23021 -4.98138,-4.98139 v -18.38403 c 0,-2.75117 2.23021,-4.98138 4.98138,-4.98138 H 102.737 c 2.75117,0 4.98138,2.23021 4.98138,4.98138 v 18.38403 c 0,2.75118 -2.23021,4.98139 -4.98138,4.98139 z"
       style="fill:#e6f0fa;fill-opacity:1;fill-rule:nonzero;stroke:#0055a4;stroke-width:0.3985;stroke-linecap:butt;stroke-linejoin:miter;stroke-miterlimit:10;stroke-dasharray:none;stroke-opacity:1"
       transform="matrix(1.3333333,0,0,-1.3333333,21.917333,263.96533)" />
    <g
       id="text20"
       transform="matrix(1.3333333,0,0,1.3333333,96.053333,323.77333)"
       aria-label="ﯽﮕﻨﻫﺎﻤﻫﺎﭘورا">
      <path
         style="font-size:8.9664px;font-family:Vazirmatn"
         d="m 30.563691,2.2547344 q -0.945675,0 -1.514831,-0.3458719 -0.564778,-0.3458718 -0.818709,-0.92378436 -0.249554,-0.57353438 -0.249554,-1.26090002 0,-0.2977125 0.04378,-0.68736564 0.04816,-0.38965308 0.214528,-0.88875938 l 0.696122,0.2583094 q -0.126966,0.4378125 -0.166369,0.77492811 -0.03503,0.33711563 -0.03503,0.56915626 0,0.47283751 0.166369,0.86249064 0.166368,0.38965309 0.564778,0.62169379 0.402787,0.2320406 1.098909,0.2320406 0.656719,0 1.125178,-0.1619906 0.472838,-0.1619907 0.722391,-0.38527503 0.253931,-0.22328438 0.253931,-0.40716564 0,-0.21015 -0.183881,-0.35900625 -0.179503,-0.14885625 -0.586669,-0.14885625 h -0.647962 q -0.08756,0 -0.126966,-0.07442813 -0.0394,-0.07880625 -0.07443,-0.20139375 l -0.118209,-0.42030001 q -0.0044,-0.035025 0.01751,-0.0656719 0.02189,-0.035025 0.07881,-0.035025 h 2.42986 v 0.79681877 h -0.179503 q 0.06567,0.13134375 0.08318,0.24955312 0.02189,0.11820938 0.02189,0.24517501 0,0.28895625 -0.170747,0.59542504 Q 33.04171,1.4053781 32.69146,1.6680657 32.345588,1.9307532 31.815835,2.0927438 31.286082,2.2547344 30.563691,2.2547344 Z M 23.32665,-5.3019095 v -0.4815937 l 3.327375,-1.3484625 v 0.4815937 z m 0.604181,1.0551282 q 0.499107,0.35025 0.954432,0.6961219 0.459703,0.3414937 0.827465,0.7442812 0.367763,0.3984094 0.582291,0.9281625 0.23204,0.5647782 0.49035,0.8230876 0.258309,0.25830934 0.726769,0.25830934 h 0.122587 V 0 h -0.122587 q -0.485972,0 -0.827466,-0.18825938 -0.337116,-0.18825938 -0.604181,-0.59980313 -0.175125,0.25830938 -0.429057,0.43343438 -0.249553,0.175125 -0.656718,0.26706563 Q 24.591928,0 23.948344,0 h -1.068263 v -0.79681876 h 1.063885 q 0.849356,0 1.217118,-0.14885626 0.367763,-0.15323438 0.367763,-0.60418128 0,-0.2889562 -0.205772,-0.5647781 -0.201394,-0.2758219 -0.525375,-0.5428875 -0.319603,-0.2714438 -0.687366,-0.5297532 -0.367762,-0.2626875 -0.691743,-0.5166187 -0.1401,-0.1138313 -0.214529,-0.2670656 -0.07443,-0.1532344 -0.07443,-0.3108469 0,-0.1795031 0.09632,-0.3371157 0.100697,-0.1576125 0.310847,-0.2407968 l 3.147872,-1.2784126 v 0.7749282 z m -2.657522,1.6593094 0.731147,-0.087562 0.07005,1.0244812 q 0.05254,0.85373444 0.888759,0.85373444 h 0.09194 V 0 H 22.954509 Q 22.468537,0 22.175203,-0.175125 21.886247,-0.35025001 21.706744,-0.66985314 21.470325,-0.32398126 21.08505,-0.16199063 20.699775,0 20.279475,0 h -0.4203 v -0.79681876 h 0.4203 q 0.556022,0 0.79244,-0.24955314 0.240797,-0.2495531 0.240797,-0.7661719 0,-0.21015 -0.01313,-0.3984094 -0.0088,-0.1882593 -0.02627,-0.3765187 z m 0.08319,-2.1803063 0.634828,0.6348281 -0.634828,0.6348282 -0.634829,-0.6348282 z m -5.297532,1.2127406 0.345872,-0.6479625 q 1.571747,0.7661719 2.342297,1.3703532 0.77055,0.5998031 0.77055,1.225875 0,0.77492814 -0.481594,1.16895939 -0.477215,0.39403126 -1.28279,0.39403126 -0.302091,0 -0.643585,-0.04815938 Q 16.768218,-0.1401 16.46175,-0.21015 q -0.306469,-0.0744281 -0.516619,-0.14447813 -0.380897,0.1401 -0.893138,0.24955313 Q 14.539753,0 14.062537,0 h -0.433434 v -0.79681876 h 0.376519 q 0.288956,0 0.507862,-0.0131344 0.223284,-0.0131344 0.485972,-0.0437812 Q 14.697365,-1.0989094 14.561643,-1.3878656 14.4303,-1.6812 14.4303,-1.9920469 q 0,-0.455325 0.214528,-0.7836844 0.214528,-0.3283594 0.569156,-0.5034844 0.354628,-0.1795031 0.774928,-0.1795031 0.18826,0 0.376519,0.048159 -0.148856,-0.07005 -0.306469,-0.1444782 z m 0.792441,2.71881571 q 0.192637,0.0218906 0.4203,0.0437812 0.227662,0.0175125 0.402787,0.0175125 0.529753,0 0.805575,-0.19701563 0.2802,-0.20139373 0.2802,-0.62169373 0,-0.2145282 -0.245175,-0.4640813 -0.245175,-0.2539312 -0.656718,-0.5209969 -0.407166,-0.2714437 -0.901894,-0.5341312 0.240797,0.1926375 0.385275,0.4640812 0.148856,0.2714438 0.148856,0.5735344 0,0.4115438 -0.166369,0.7048782 -0.16199,0.2889562 -0.472837,0.53413121 z M 15.183337,-2.0008032 q 0,0.2583094 0.214528,0.5166188 0.218907,0.2539313 0.63045,0.4115438 0.788063,-0.3196032 0.788063,-0.9194063 0,-0.3808969 -0.232041,-0.5779125 -0.227662,-0.2013938 -0.551644,-0.2013938 -0.376518,0 -0.612937,0.21015 -0.236419,0.21015 -0.236419,0.5604 z m -3.143493,-4.027875 h 0.739904 v 4.1854875 q 0,0.6173157 0.227662,0.8318438 0.227663,0.21452814 0.687366,0.21452814 h 0.109453 V 0 H 13.694776 Q 12.858554,0 12.44701,-0.44219063 12.039844,-0.88875939 12.039844,-1.8475688 Z M 6.3351475,0 H 6.14251 v -0.79681876 h 0.1707469 q 0.2933344,0 0.4947281,-0.16636876 Q 7.0093788,-1.1339344 7.1669913,-1.401 7.3246038,-1.6680657 7.4778381,-1.9657782 7.6354506,-2.2678688 7.8280881,-2.5349344 8.0207257,-2.802 8.2921694,-2.9683688 q 0.2758219,-0.1707469 0.6786094,-0.1707469 0.6873656,0 1.0682622,0.4203 0.380897,0.4159219 0.512241,1.0376157 0.08756,0.4290562 0.297712,0.6567187 0.214529,0.22766254 0.494729,0.22766254 h 0.113831 V 0 h -0.11821 q -0.2802,0 -0.547265,-0.11383125 -0.267066,-0.11820938 -0.433435,-0.37214063 -0.183881,0.26706563 -0.4553246,0.42905625 -0.2714437,0.15761251 -0.7048781,0.15761251 -0.4378125,0 -0.8099531,-0.18825938 Q 8.0207257,-0.2802 7.6223163,-0.66547501 7.3377381,-0.34587188 7.0750506,-0.17074688 6.8123631,0 6.3351475,0 Z m 2.6531438,-2.3641875 q -0.2189063,0 -0.3984094,0.1488562 -0.1795031,0.1444781 -0.3239812,0.3765188 -0.1444782,0.2320406 -0.2583094,0.4815937 0.1444781,0.1488563 0.2889562,0.2670657 0.1444782,0.11820933 0.2802,0.20139371 0.35025,0.21452813 0.6129375,0.21452813 0.6479626,0 0.6479626,-0.65234064 0,-0.455325 -0.2276625,-0.7442813 Q 9.3867007,-2.3641875 8.9882913,-2.3641875 Z M 2.342297,-3.5550376 2.6881688,-4.2030001 q 1.5717469,0.7661719 2.342297,1.3703532 0.77055,0.5998031 0.77055,1.225875 0,0.77492814 -0.4815938,1.16895939 -0.4772156,0.39403126 -1.2827906,0.39403126 -0.3020907,0 -0.6435844,-0.04815938 Q 3.0515532,-0.1401 2.7450845,-0.21015 2.4386157,-0.28457813 2.2284657,-0.35462813 1.8475688,-0.21452813 1.3353282,-0.105075 0.82308756,0 0.34587193,0 H -0.08756246 V -0.79681876 H 0.2889563 q 0.28895625,0 0.50786251,-0.0131344 Q 1.0201032,-0.82308751 1.2827907,-0.85373439 0.98070006,-1.0989094 0.84497818,-1.3878656 0.71363443,-1.6812 0.71363443,-1.9920469 q 0,-0.455325 0.21452813,-0.7836844 0.21452814,-0.3283594 0.56915624,-0.5034844 0.3546281,-0.1795031 0.7749282,-0.1795031 0.1882593,0 0.3765187,0.048159 -0.1488562,-0.07005 -0.3064687,-0.1444782 z m 0.7924406,2.71881571 q 0.1926375,0.0218906 0.4203,0.0437812 0.2276625,0.0175125 0.4027875,0.0175125 0.5297531,0 0.805575,-0.19701563 0.2802,-0.20139373 0.2802,-0.62169373 0,-0.2145282 -0.245175,-0.4640813 Q 4.5532501,-2.31165 4.1417064,-2.5787157 3.7345407,-2.8501594 3.2398126,-3.1128469 q 0.2407969,0.1926375 0.385275,0.4640812 0.1488563,0.2714438 0.1488563,0.5735344 0,0.4115438 -0.1663688,0.7048782 -0.1619906,0.2889562 -0.4728375,0.53413121 z M 1.4666719,-2.0008032 q 0,0.2583094 0.2145282,0.5166188 0.2189062,0.2539313 0.63045,0.4115438 0.7880625,-0.3196032 0.7880625,-0.9194063 0,-0.3808969 -0.2320406,-0.5779125 -0.2276625,-0.2013938 -0.5516438,-0.2013938 -0.3765187,0 -0.6129375,0.21015 -0.2364188,0.21015 -0.2364188,0.5604 z"
         id="path37" />
      <path
         style="font-size:8.9664px;font-family:Vazirmatn"
         d="m 21.469399,4.9303214 h 0.739904 V 9.115809 q 0,0.6173156 0.227662,0.8318437 0.227663,0.2145283 0.687366,0.2145283 h 0.109453 V 10.959 h -0.109453 q -0.836222,0 -1.247766,-0.442191 -0.407166,-0.446569 -0.407166,-1.4053781 z m -3.559415,5.2318596 h 0.950053 q 0.437813,0 0.591047,-0.2539314 0.157613,-0.2539312 0.157613,-0.6435844 0,-0.2845781 -0.05254,-0.6085594 -0.05254,-0.3239812 -0.113831,-0.6523406 l 0.761794,-0.1926375 q 0.07443,0.35025 0.118209,0.6873656 0.04378,0.3371157 0.04378,0.6435844 0,0.525375 -0.144478,0.9369183 -0.144478,0.411544 -0.472837,0.647963 Q 19.420437,10.959 18.868793,10.959 h -0.958809 z m 1.584881,1.348462 0.591047,0.591047 -0.591047,0.591047 -0.591047,-0.591047 z m -1.497318,0 0.591046,0.591047 -0.591046,0.591047 L 17.4065,12.10169 Z m 0.748659,1.107666 0.591047,0.591047 -0.591047,0.591047 -0.591047,-0.591047 z M 17.572868,10.21034 q 0,2.556825 -2.806379,3.095335 L 14.50818,12.609553 q 1.006969,-0.192638 1.606772,-0.643585 0.599803,-0.446568 0.709256,-1.125178 -0.166368,0.05254 -0.385275,0.09194 -0.218906,0.0394 -0.385275,0.0394 -1.598015,0 -1.598015,-1.3572188 0,-0.3239812 0.09632,-0.6479625 0.100697,-0.3283594 0.288957,-0.5998031 0.192637,-0.2758219 0.468459,-0.4421906 0.275822,-0.1663688 0.626072,-0.1663688 0.415922,0 0.722391,0.2057719 0.310846,0.2057719 0.51224,0.5560219 0.201394,0.35025 0.302091,0.7880625 0.100697,0.4378125 0.100697,0.9018935 z m -1.497319,-0.03065 q 0.385275,0 0.766172,-0.113831 -0.04378,-0.7355249 -0.271444,-1.125178 -0.227662,-0.3940313 -0.643584,-0.3940313 -0.288957,0 -0.450947,0.1795031 -0.157613,0.1795032 -0.223285,0.4246782 -0.06129,0.2407969 -0.06129,0.4378125 0,0.3196031 0.218906,0.4553245 0.218906,0.135722 0.665475,0.135722 z m -5.042164,3.134738 -0.258309,-0.696122 q 1.068262,-0.232041 1.506075,-0.814331 0.437812,-0.577913 0.437812,-1.370353 0,-0.372141 -0.08318,-0.7793066 -0.07881,-0.4115438 -0.223284,-0.8362219 l 0.726768,-0.245175 q 0.315225,0.8975156 0.315225,1.7293595 0,0.731147 -0.258309,1.352841 -0.253931,0.626071 -0.792441,1.059506 -0.534131,0.437812 -1.370353,0.599803 z M 10.770698,4.9303214 V 10.954622 H 10.030794 V 4.9303214 Z"
         id="path38" />
    </g>
    <path
       id="path21"
       d="m 199.11684,-34.01651 h -60.90425 c -2.75119,0 -4.98139,-2.23021 -4.98139,-4.98139 v -18.38403 c 0,-2.75117 2.2302,-4.98138 4.98139,-4.98138 h 60.90425 c 2.75119,0 4.98138,2.23021 4.98138,4.98138 v 18.38403 c 0,2.75118 -2.23019,4.98139 -4.98138,4.98139 z"
       style="fill:#e6f0fa;fill-opacity:1;fill-rule:nonzero;stroke:#0055a4;stroke-width:0.3985;stroke-linecap:butt;stroke-linejoin:miter;stroke-miterlimit:10;stroke-dasharray:none;stroke-opacity:1"
       transform="matrix(1.3333333,0,0,-1.3333333,21.917333,263.96533)" />
    <g
       id="text21"
       transform="matrix(1.3333333,0,0,1.3333333,232.18933,323.364)"
       aria-label="یارﻮﺷیﺰﮐﺮﻣ">
      <path
         style="font-size:8.9664px;font-family:Vazirmatn"
         d="m 15.768851,-0.79681876 h 0.950053 q 0.437812,0 0.591047,-0.25393124 0.157612,-0.2539313 0.157612,-0.6435844 0,-0.2845781 -0.05254,-0.6085594 -0.05254,-0.3239812 -0.113831,-0.6523406 l 0.761793,-0.1926375 q 0.07443,0.35025 0.11821,0.6873656 0.04378,0.3371156 0.04378,0.6435844 0,0.525375 -0.144478,0.93691876 -0.144478,0.41154376 -0.472838,0.64796251 Q 17.279304,0 16.72766,0 h -0.958809 z m 1.580503,1.49294065 0.612937,0.60855941 -0.612937,0.6173156 -0.608559,-0.6173156 z m -1.453538,0 0.612938,0.60855941 -0.612938,0.6173156 -0.608559,-0.6173156 z M 14.188348,-6.0286782 h 0.739903 v 4.1854875 q 0,0.6173157 0.227662,0.8318438 0.227663,0.21452814 0.687366,0.21452814 h 0.109453 V 0 H 15.843279 Q 15.007057,0 14.595513,-0.44219063 14.188348,-0.88875939 14.188348,-1.8475688 Z M 10.045485,2.3554313 9.7871756,1.6593094 q 1.0682624,-0.2320406 1.5060754,-0.81433126 0.437812,-0.57791251 0.437812,-1.37035315 0,-0.37214063 -0.08318,-0.77930629 -0.07881,-0.4115437 -0.223285,-0.8362219 l 0.726769,-0.245175 q 0.315225,0.8975157 0.315225,1.72935944 0,0.73114689 -0.258309,1.35284065 Q 11.954348,1.3221938 11.415838,1.7556282 10.881707,2.1934407 10.045485,2.3554313 Z M 7.7601046,-3.2004094 q 0.6829875,0 1.1514469,0.6129375 0.4684594,0.6085594 0.4859719,1.79065314 H 9.9272765 V 0 H 9.3274734 Q 9.2311546,0.50348438 8.9421984,0.97194377 8.6576202,1.4447813 8.0928421,1.8037875 7.528064,2.1671719 6.5955233,2.346675 L 6.3372139,1.6505532 Q 8.3205046,1.2696563 8.6357296,0 H 7.9439858 q -1.6593094,0 -1.6593094,-1.3440844 0,-0.4290563 0.1707469,-0.8581125 0.175125,-0.4290563 0.5034844,-0.7136344 0.3327375,-0.2845781 0.8011969,-0.2845781 z m 0.1401,2.40359064 h 0.7749281 q -0.052538,-0.84497814 -0.2802,-1.23025314 -0.2232843,-0.385275 -0.6479625,-0.385275 -0.2802,0 -0.4421906,0.1795031 -0.1576125,0.1795031 -0.2232844,0.4246781 -0.061294,0.2407969 -0.061294,0.4378126 0,0.3064687 0.2057718,0.44219058 0.21015,0.13134376 0.6742313,0.13134376 z M 2.681479,-5.7572345 3.2725259,-5.1661876 2.681479,-4.5751407 2.0904321,-5.1661876 Z m 0.7486594,1.1076657 0.5910469,0.5910469 -0.5910469,0.5910468 -0.5910469,-0.5910468 z m -1.4973188,0 0.5910469,0.5910469 -0.5910469,0.5910468 -0.5910469,-0.5910468 z M 1.7445602,0 Q 1.2410758,0 0.96525396,-0.17074688 0.69381021,-0.34587188 0.53181958,-0.66985314 0.3260477,-0.34587188 0.00644457,-0.17074688 -0.31315856,0 -0.90420544,0 H -1.3069929 v -0.79681876 h 0.41154371 q 0.56040001,0 0.81870939,-0.20577184 0.25830938,-0.21015 0.25830938,-0.7617938 0,-0.1138313 -0.0131344,-0.2670656 -0.008756,-0.1576125 -0.0306469,-0.4378125 l 0.73114688,-0.091941 0.07005,0.9150282 q 0.0262687,0.3677625 0.22328439,0.6085594 0.2013937,0.24079684 0.5910469,0.24079684 0.4640812,0 0.63045,-0.24955314 0.1663687,-0.2495531 0.1663687,-0.7180125 0,-0.1138313 -0.013134,-0.2714438 -0.00876,-0.1576125 -0.030647,-0.4334343 l 0.7311469,-0.091941 0.07005,0.9150282 q 0.021891,0.3546281 0.1882594,0.6041812 0.1663687,0.24517504 0.5385093,0.24517504 0.3633844,0 0.4991063,-0.27144374 0.1357219,-0.2714438 0.1357219,-0.6348282 0,-0.3283593 -0.065672,-0.6610968 -0.061294,-0.3327375 -0.1094531,-0.5385094 l 0.7486594,-0.2013938 q 0.078806,0.2933344 0.1269656,0.6260719 0.048159,0.3283594 0.048159,0.6567188 0,0.4728375 -0.1313438,0.88875936 Q 5.1551197,-0.51661876 4.853029,-0.25830938 4.5553165,-0.00437813 4.0386978,0 3.6183978,0 3.3600884,-0.175125 3.101779,-0.35025001 2.9397884,-0.66985314 2.6946134,-0.31522501 2.3925227,-0.1576125 2.0948102,0 1.7445602,0 Z"
         id="path39" />
      <path
         style="font-size:8.9664px;font-family:Vazirmatn"
         d="m 16.716098,13.169953 q -0.945675,0 -1.514831,-0.345872 -0.564778,-0.345872 -0.81871,-0.923784 -0.249553,-0.573535 -0.249553,-1.2609 0,-0.464082 0.09632,-0.9500536 0.09632,-0.49035 0.262687,-0.9544313 l 0.696122,0.2802 q -0.126965,0.4027875 -0.214528,0.8274656 -0.08756,0.4246783 -0.08756,0.8230873 0,0.472838 0.166368,0.862491 0.170747,0.389653 0.569157,0.621694 0.398409,0.23204 1.094531,0.23204 0.621694,0 1.112044,-0.157612 0.49035,-0.153235 0.774928,-0.402788 0.284578,-0.245175 0.284578,-0.520997 0,-0.1401 -0.08318,-0.262687 -0.08319,-0.122588 -0.302091,-0.122588 h -0.709256 q -0.647963,0 -0.91065,-0.310846 -0.25831,-0.315226 -0.25831,-0.8712474 0,-0.5779125 0.236419,-1.0595063 0.236419,-0.4859718 0.674231,-0.7749281 0.437813,-0.2889562 1.037616,-0.2889562 0.227663,0 0.477216,0.061294 0.253931,0.061294 0.507862,0.2320406 l -0.249553,0.665475 q -0.345872,-0.175125 -0.735525,-0.175125 -0.556022,0 -0.871247,0.3896532 -0.310847,0.3896531 -0.310847,0.9500531 0,0.2057719 0.08319,0.3020904 0.08318,0.09194 0.337115,0.09194 h 0.735525 q 0.604182,0 0.823088,0.328359 0.223284,0.323982 0.223284,0.827466 0,0.485972 -0.332737,0.915028 -0.332738,0.433434 -0.976322,0.7005 -0.639206,0.271444 -1.567369,0.271444 z M 12.044639,6.4539089 12.679467,7.0887371 12.044639,7.7235652 11.409811,7.0887371 Z M 13.668923,10.959 q -0.30209,0 -0.507862,-0.07881 -0.201394,-0.08318 -0.315225,-0.175125 -0.06567,0.573535 -0.319603,1.107666 -0.249554,0.538509 -0.753038,0.936919 -0.503484,0.398409 -1.33095,0.5604 l -0.258309,-0.691744 q 1.068262,-0.232041 1.506075,-0.814331 0.437812,-0.577913 0.437812,-1.370353 0,-0.372141 -0.08318,-0.7793066 -0.07881,-0.4115438 -0.223285,-0.8362219 l 0.726769,-0.245175 0.236419,0.9150281 q 0.09632,0.3677625 0.306469,0.5209964 0.21015,0.153235 0.529753,0.153235 h 0.166369 V 10.959 Z M 8.0517878,6.7122183 Q 8.4326847,6.9792839 8.8442284,7.2769964 9.2557722,7.5703308 9.6104003,7.9074465 9.9694066,8.240184 10.188313,8.6210808 10.411597,8.9975996 10.411597,9.4266559 10.407219,10.240987 9.8468191,10.599993 9.2907972,10.959 8.0693003,10.959 H 7.0010378 v -0.796819 h 1.0638844 q 0.8493562,0 1.2171187,-0.148856 0.3677625,-0.1532348 0.3677625,-0.6041816 0,-0.2889563 -0.2057718,-0.5647782 Q 9.2426378,8.5685433 8.9186566,8.3014777 8.5990534,8.030034 8.2312909,7.7717246 7.8635284,7.5090371 7.5395472,7.2551058 7.3994472,7.1412746 7.325019,6.9880402 7.2505909,6.8348058 7.2505909,6.6815714 q 0,-0.1795031 0.096319,-0.3371156 0.1006968,-0.1619906 0.3108468,-0.245175 L 10.805628,4.8208683 V 5.5957964 Z M 6.2330452,10.959 q -0.3020906,0 -0.5078625,-0.07881 -0.2013937,-0.08318 -0.315225,-0.175125 -0.065672,0.573535 -0.3196031,1.107666 -0.2495532,0.538509 -0.7530375,0.936919 -0.5034844,0.398409 -1.3309501,0.5604 L 2.7480577,12.618309 q 1.0682625,-0.232041 1.506075,-0.814331 0.4378125,-0.577913 0.4378125,-1.370353 0,-0.372141 -0.083184,-0.7793066 Q 4.5299546,9.2427746 4.3854764,8.8180965 L 5.1122452,8.5729215 5.348664,9.4879496 q 0.096319,0.3677625 0.3064687,0.5209964 0.21015,0.153235 0.5297531,0.153235 H 6.3512546 V 10.959 Z m -4.5444939,0.100697 q -0.4378125,0 -0.8099531,-0.18826 Q 0.51083569,10.6788 0.11242631,10.293525 -0.17215182,10.613128 -0.43483932,10.788253 -0.69752683,10.959 -1.1747425,10.959 H -1.36738 v -0.796819 h 0.1707469 q 0.29333439,0 0.49472815,-0.1663689 Q -0.5005112,9.8250652 -0.3428987,9.5579996 -0.18528619,9.290934 -0.03205182,8.9932215 0.12556069,8.6911308 0.31819819,8.4240652 0.51083569,8.1569996 0.78227945,7.9906308 1.0581013,7.819884 1.4608888,7.819884 q 0.4859719,0 0.8449782,0.2364187 0.3633844,0.2320406 0.5604,0.6260719 0.2013937,0.3940313 0.2013937,0.8800031 0,0.7136343 -0.3633843,1.1076653 -0.3590063,0.389654 -1.0157251,0.389654 z m -0.21015,-2.4648849 q -0.2189062,0 -0.3984093,0.1488562 -0.17950318,0.1444782 -0.3239813,0.3765188 -0.14447813,0.2320406 -0.25830938,0.4815938 0.2626875,0.2758218 0.54288748,0.4509471 0.3590063,0.23204 0.6392063,0.23204 0.6479625,0 0.6479625,-0.6523403 0,-0.455325 -0.2276625,-0.7442812 Q 1.8768107,8.5948121 1.4784013,8.5948121 Z"
         id="path40" />
    </g>
    <path
       id="path23"
       d="m 295.49669,-34.01651 h -60.90427 c -2.75117,0 -4.98138,-2.23021 -4.98138,-4.98139 v -18.38403 c 0,-2.75117 2.23021,-4.98138 4.98138,-4.98138 h 60.90427 c 2.75117,0 4.98138,2.23021 4.98138,4.98138 v 18.38403 c 0,2.75118 -2.23021,4.98139 -4.98138,4.98139 z"
       style="fill:#e6f0fa;fill-opacity:1;fill-rule:nonzero;stroke:#0055a4;stroke-width:0.3985;stroke-linecap:butt;stroke-linejoin:miter;stroke-miterlimit:10;stroke-dasharray:none;stroke-opacity:1"
       transform="matrix(1.3333333,0,0,-1.3333333,21.917333,263.96533)" />
    <g
       id="text23"
       transform="matrix(1.3333333,0,0,1.3333333,353.06667,324.1)"
       aria-label="ﯽﮕﻨﻫﺎﻤﻫﺎﮑﯾﺮﻣآ">
      <path
         style="font-size:8.9664px;font-family:Vazirmatn"
         d="m 30.563691,2.2547344 q -0.945675,0 -1.514831,-0.3458719 -0.564778,-0.3458718 -0.818709,-0.92378436 -0.249554,-0.57353438 -0.249554,-1.26090002 0,-0.2977125 0.04378,-0.68736564 0.04816,-0.38965308 0.214528,-0.88875938 l 0.696122,0.2583094 q -0.126966,0.4378125 -0.166369,0.77492811 -0.03503,0.33711563 -0.03503,0.56915626 0,0.47283751 0.166369,0.86249064 0.166368,0.38965309 0.564778,0.62169379 0.402787,0.2320406 1.098909,0.2320406 0.656719,0 1.125178,-0.1619906 0.472838,-0.1619907 0.722391,-0.38527503 0.253931,-0.22328438 0.253931,-0.40716564 0,-0.21015 -0.183881,-0.35900625 -0.179503,-0.14885625 -0.586669,-0.14885625 h -0.647962 q -0.08756,0 -0.126966,-0.07442813 -0.0394,-0.07880625 -0.07443,-0.20139375 l -0.118209,-0.42030001 q -0.0044,-0.035025 0.01751,-0.0656719 0.02189,-0.035025 0.07881,-0.035025 h 2.42986 v 0.79681877 h -0.179503 q 0.06567,0.13134375 0.08318,0.24955312 0.02189,0.11820938 0.02189,0.24517501 0,0.28895625 -0.170747,0.59542504 Q 33.04171,1.4053781 32.69146,1.6680657 32.345588,1.9307532 31.815835,2.0927438 31.286082,2.2547344 30.563691,2.2547344 Z M 23.32665,-5.3019095 v -0.4815937 l 3.327375,-1.3484625 v 0.4815937 z m 0.604181,1.0551282 q 0.499107,0.35025 0.954432,0.6961219 0.459703,0.3414937 0.827465,0.7442812 0.367763,0.3984094 0.582291,0.9281625 0.23204,0.5647782 0.49035,0.8230876 0.258309,0.25830934 0.726769,0.25830934 h 0.122587 V 0 h -0.122587 q -0.485972,0 -0.827466,-0.18825938 -0.337116,-0.18825938 -0.604181,-0.59980313 -0.175125,0.25830938 -0.429057,0.43343438 -0.249553,0.175125 -0.656718,0.26706563 Q 24.591928,0 23.948344,0 h -1.068263 v -0.79681876 h 1.063885 q 0.849356,0 1.217118,-0.14885626 0.367763,-0.15323438 0.367763,-0.60418128 0,-0.2889562 -0.205772,-0.5647781 -0.201394,-0.2758219 -0.525375,-0.5428875 -0.319603,-0.2714438 -0.687366,-0.5297532 -0.367762,-0.2626875 -0.691743,-0.5166187 -0.1401,-0.1138313 -0.214529,-0.2670656 -0.07443,-0.1532344 -0.07443,-0.3108469 0,-0.1795031 0.09632,-0.3371157 0.100697,-0.1576125 0.310847,-0.2407968 l 3.147872,-1.2784126 v 0.7749282 z m -2.657522,1.6593094 0.731147,-0.087562 0.07005,1.0244812 q 0.05254,0.85373444 0.888759,0.85373444 h 0.09194 V 0 H 22.954509 Q 22.468537,0 22.175203,-0.175125 21.886247,-0.35025001 21.706744,-0.66985314 21.470325,-0.32398126 21.08505,-0.16199063 20.699775,0 20.279475,0 h -0.4203 v -0.79681876 h 0.4203 q 0.556022,0 0.79244,-0.24955314 0.240797,-0.2495531 0.240797,-0.7661719 0,-0.21015 -0.01313,-0.3984094 -0.0088,-0.1882593 -0.02627,-0.3765187 z m 0.08319,-2.1803063 0.634828,0.6348281 -0.634828,0.6348282 -0.634829,-0.6348282 z m -5.297532,1.2127406 0.345872,-0.6479625 q 1.571747,0.7661719 2.342297,1.3703532 0.77055,0.5998031 0.77055,1.225875 0,0.77492814 -0.481594,1.16895939 -0.477215,0.39403126 -1.28279,0.39403126 -0.302091,0 -0.643585,-0.04815938 Q 16.768218,-0.1401 16.46175,-0.21015 q -0.306469,-0.0744281 -0.516619,-0.14447813 -0.380897,0.1401 -0.893138,0.24955313 Q 14.539753,0 14.062537,0 h -0.433434 v -0.79681876 h 0.376519 q 0.288956,0 0.507862,-0.0131344 0.223284,-0.0131344 0.485972,-0.0437812 Q 14.697365,-1.0989094 14.561643,-1.3878656 14.4303,-1.6812 14.4303,-1.9920469 q 0,-0.455325 0.214528,-0.7836844 0.214528,-0.3283594 0.569156,-0.5034844 0.354628,-0.1795031 0.774928,-0.1795031 0.18826,0 0.376519,0.048159 -0.148856,-0.07005 -0.306469,-0.1444782 z m 0.792441,2.71881571 q 0.192637,0.0218906 0.4203,0.0437812 0.227662,0.0175125 0.402787,0.0175125 0.529753,0 0.805575,-0.19701563 0.2802,-0.20139373 0.2802,-0.62169373 0,-0.2145282 -0.245175,-0.4640813 -0.245175,-0.2539312 -0.656718,-0.5209969 -0.407166,-0.2714437 -0.901894,-0.5341312 0.240797,0.1926375 0.385275,0.4640812 0.148856,0.2714438 0.148856,0.5735344 0,0.4115438 -0.166369,0.7048782 -0.16199,0.2889562 -0.472837,0.53413121 z M 15.183337,-2.0008032 q 0,0.2583094 0.214528,0.5166188 0.218907,0.2539313 0.63045,0.4115438 0.788063,-0.3196032 0.788063,-0.9194063 0,-0.3808969 -0.232041,-0.5779125 -0.227662,-0.2013938 -0.551644,-0.2013938 -0.376518,0 -0.612937,0.21015 -0.236419,0.21015 -0.236419,0.5604 z m -3.143493,-4.027875 h 0.739904 v 4.1854875 q 0,0.6173157 0.227662,0.8318438 0.227663,0.21452814 0.687366,0.21452814 h 0.109453 V 0 H 13.694776 Q 12.858554,0 12.44701,-0.44219063 12.039844,-0.88875939 12.039844,-1.8475688 Z M 6.3351475,0 H 6.14251 v -0.79681876 h 0.1707469 q 0.2933344,0 0.4947281,-0.16636876 Q 7.0093788,-1.1339344 7.1669913,-1.401 7.3246038,-1.6680657 7.4778381,-1.9657782 7.6354506,-2.2678688 7.8280881,-2.5349344 8.0207257,-2.802 8.2921694,-2.9683688 q 0.2758219,-0.1707469 0.6786094,-0.1707469 0.6873656,0 1.0682622,0.4203 0.380897,0.4159219 0.512241,1.0376157 0.08756,0.4290562 0.297712,0.6567187 0.214529,0.22766254 0.494729,0.22766254 h 0.113831 V 0 h -0.11821 q -0.2802,0 -0.547265,-0.11383125 -0.267066,-0.11820938 -0.433435,-0.37214063 -0.183881,0.26706563 -0.4553246,0.42905625 -0.2714437,0.15761251 -0.7048781,0.15761251 -0.4378125,0 -0.8099531,-0.18825938 Q 8.0207257,-0.2802 7.6223163,-0.66547501 7.3377381,-0.34587188 7.0750506,-0.17074688 6.8123631,0 6.3351475,0 Z m 2.6531438,-2.3641875 q -0.2189063,0 -0.3984094,0.1488562 -0.1795031,0.1444781 -0.3239812,0.3765188 -0.1444782,0.2320406 -0.2583094,0.4815937 0.1444781,0.1488563 0.2889562,0.2670657 0.1444782,0.11820933 0.2802,0.20139371 0.35025,0.21452813 0.6129375,0.21452813 0.6479626,0 0.6479626,-0.65234064 0,-0.455325 -0.2276625,-0.7442813 Q 9.3867007,-2.3641875 8.9882913,-2.3641875 Z M 2.342297,-3.5550376 2.6881688,-4.2030001 q 1.5717469,0.7661719 2.342297,1.3703532 0.77055,0.5998031 0.77055,1.225875 0,0.77492814 -0.4815938,1.16895939 -0.4772156,0.39403126 -1.2827906,0.39403126 -0.3020907,0 -0.6435844,-0.04815938 Q 3.0515532,-0.1401 2.7450845,-0.21015 2.4386157,-0.28457813 2.2284657,-0.35462813 1.8475688,-0.21452813 1.3353282,-0.105075 0.82308756,0 0.34587193,0 H -0.08756246 V -0.79681876 H 0.2889563 q 0.28895625,0 0.50786251,-0.0131344 Q 1.0201032,-0.82308751 1.2827907,-0.85373439 0.98070006,-1.0989094 0.84497818,-1.3878656 0.71363443,-1.6812 0.71363443,-1.9920469 q 0,-0.455325 0.21452813,-0.7836844 0.21452814,-0.3283594 0.56915624,-0.5034844 0.3546281,-0.1795031 0.7749282,-0.1795031 0.1882593,0 0.3765187,0.048159 -0.1488562,-0.07005 -0.3064687,-0.1444782 z m 0.7924406,2.71881571 q 0.1926375,0.0218906 0.4203,0.0437812 0.2276625,0.0175125 0.4027875,0.0175125 0.5297531,0 0.805575,-0.19701563 0.2802,-0.20139373 0.2802,-0.62169373 0,-0.2145282 -0.245175,-0.4640813 Q 4.5532501,-2.31165 4.1417064,-2.5787157 3.7345407,-2.8501594 3.2398126,-3.1128469 q 0.2407969,0.1926375 0.385275,0.4640812 0.1488563,0.2714438 0.1488563,0.5735344 0,0.4115438 -0.1663688,0.7048782 -0.1619906,0.2889562 -0.4728375,0.53413121 z M 1.4666719,-2.0008032 q 0,0.2583094 0.2145282,0.5166188 0.2189062,0.2539313 0.63045,0.4115438 0.7880625,-0.3196032 0.7880625,-0.9194063 0,-0.3808969 -0.2320406,-0.5779125 -0.2276625,-0.2013938 -0.5516438,-0.2013938 -0.3765187,0 -0.6129375,0.21015 -0.2364188,0.21015 -0.2364188,0.5604 z"
         id="path41" />
      <path
         style="font-size:8.9664px;font-family:Vazirmatn"
         d="m 24.634202,4.9303214 h 0.739904 V 9.115809 q 0,0.6173156 0.227662,0.8318437 0.227663,0.2145283 0.687366,0.2145283 h 0.109453 V 10.959 h -0.109453 q -0.836222,0 -1.247766,-0.442191 -0.407166,-0.446569 -0.407166,-1.4053781 z m -4.286183,1.7818969 q 0.499107,0.35025 0.954432,0.6961219 0.459703,0.3414938 0.827465,0.7442813 0.367763,0.3984093 0.582291,0.9281625 0.232041,0.5647781 0.49035,0.8230875 0.258309,0.2583095 0.726769,0.2583095 h 0.122587 V 10.959 h -0.122587 q -0.485972,0 -0.827466,-0.18826 -0.337116,-0.188259 -0.604181,-0.599803 -0.175125,0.25831 -0.429056,0.433435 -0.249554,0.175125 -0.656719,0.267065 -0.402788,0.08756 -1.046372,0.08756 h -1.068263 v -0.796819 h 1.063885 q 0.849356,0 1.217119,-0.148856 0.367762,-0.1532348 0.367762,-0.6041816 0,-0.2889563 -0.205772,-0.5647782 Q 21.538869,8.5685433 21.214888,8.3014777 20.895285,8.030034 20.527523,7.7717246 20.15976,7.5090371 19.835779,7.2551058 q -0.1401,-0.1138312 -0.214528,-0.2670656 -0.07443,-0.1532344 -0.07443,-0.3108469 0,-0.1795031 0.09632,-0.3371156 0.100697,-0.1576125 0.310847,-0.2407969 L 23.10186,4.8208683 v 0.7749281 z m -4.150462,3.4499627 h 1.247766 q 0.437812,0 0.591047,-0.2539314 0.157612,-0.2539312 0.157612,-0.6435844 0,-0.2845781 -0.05254,-0.6085594 -0.05254,-0.3239812 -0.113832,-0.6523406 l 0.761794,-0.1926375 q 0.07443,0.35025 0.118209,0.6873656 0.04378,0.3371157 0.04378,0.6435844 0,0.525375 -0.144478,0.9369183 -0.144479,0.411544 -0.472838,0.647963 Q 18.005723,10.959 17.454079,10.959 h -1.256522 z m 1.878216,1.492941 0.612937,0.608559 -0.612937,0.617316 -0.60856,-0.617316 z m -1.453538,0 0.612938,0.608559 -0.612938,0.617316 -0.608559,-0.617316 z M 16.254472,10.959 q -0.30209,0 -0.507862,-0.07881 -0.201394,-0.08318 -0.315225,-0.175125 -0.06567,0.573535 -0.319603,1.107666 -0.249553,0.538509 -0.753038,0.936919 -0.503484,0.398409 -1.33095,0.5604 l -0.258309,-0.691744 q 1.068262,-0.232041 1.506075,-0.814331 0.437812,-0.577913 0.437812,-1.370353 0,-0.372141 -0.08318,-0.7793066 -0.07881,-0.4115438 -0.223284,-0.8362219 l 0.726768,-0.245175 0.236419,0.9150281 q 0.09632,0.3677625 0.306469,0.5209964 0.21015,0.153235 0.529753,0.153235 h 0.166369 V 10.959 Z m -4.544493,0.100697 q -0.437813,0 -0.809954,-0.18826 Q 10.532263,10.6788 10.133854,10.293525 9.8492755,10.613128 9.586588,10.788253 9.3239004,10.959 8.8466848,10.959 H 8.6540473 v -0.796819 h 0.1707469 q 0.2933344,0 0.4947281,-0.1663689 Q 9.5209161,9.8250652 9.6785286,9.5579996 9.8361411,9.290934 9.9893755,8.9932215 10.146988,8.6911308 10.339625,8.4240652 10.532263,8.1569996 10.803707,7.9906308 11.079529,7.819884 11.482316,7.819884 q 0.485972,0 0.844978,0.2364187 0.363385,0.2320406 0.5604,0.6260719 0.201394,0.3940313 0.201394,0.8800031 0,0.7136343 -0.363384,1.1076653 -0.359007,0.389654 -1.015725,0.389654 z m -0.21015,-2.4648849 q -0.218907,0 -0.39841,0.1488562 -0.179503,0.1444782 -0.323981,0.3765188 -0.144478,0.2320406 -0.258309,0.4815938 0.262687,0.2758218 0.542887,0.4509471 0.359006,0.23204 0.639206,0.23204 0.647963,0 0.647963,-0.6523403 0,-0.455325 -0.227663,-0.7442812 Q 11.898238,8.5948121 11.499829,8.5948121 Z M 8.1374288,4.3830558 q 0.061294,0.030647 0.1269656,0.030647 0.1225875,0 0.4378125,-0.2845782 L 8.9254913,3.9277308 9.3239007,4.286737 9.0787257,4.5187777 Q 8.8466851,4.7376839 8.67156,4.8427589 8.5008132,4.9434558 8.3256882,4.9434558 q -0.1663688,0 -0.3940313,-0.1006969 L 7.3668788,4.5844495 Q 7.305585,4.5581808 7.2530475,4.5406683 7.20051,4.5231558 7.1523506,4.5231558 q -0.096319,0 -0.2189062,0.078806 Q 6.8108569,4.6807683 6.605085,4.8865402 L 6.3555319,5.1360933 5.9571225,4.777087 6.2110538,4.5143995 Q 6.4956319,4.2210651 6.6926475,4.1028558 6.8940413,3.9802683 7.0735444,3.9802683 q 0.1182094,0 0.2364188,0.039403 0.1225875,0.039403 0.2626875,0.105075 z M 8.0717569,5.4994777 V 10.954622 H 7.3318538 V 5.4994777 Z"
         id="path42" />
    </g>
    <path
       id="path25"
       d="M 162.91711,-33.81653 145.12476,10.65999"
       style="fill:none;stroke:#b8860b;stroke-width:1.49442;stroke-linecap:butt;stroke-linejoin:miter;stroke-miterlimit:10;stroke-dasharray:none;stroke-opacity:1"
       transform="matrix(1.3333333,0,0,-1.3333333,21.917333,263.96533)" />
    <path
       id="path26"
       d="M -3.38733,4.37073 C -2.76846,1.74825 -1.38942,0.50992 0,0 -1.38942,-0.50992 -2.76846,-1.74825 -3.38733,-4.37073"
       style="fill:none;stroke:#b8860b;stroke-width:1.49442;stroke-linecap:round;stroke-linejoin:round;stroke-miterlimit:10;stroke-dasharray:none;stroke-opacity:1"
       transform="matrix(-0.49517333,-1.23792,-1.23792,0.49517333,215.04701,248.82705)" />
    <path
       id="path27"
       d="m 108.91164,-48.18837 23.1212,-5e-4"
       style="fill:none;stroke:#0055a4;stroke-width:0.99628;stroke-linecap:butt;stroke-linejoin:miter;stroke-miterlimit:10;stroke-dasharray:none;stroke-opacity:1"
       transform="matrix(1.3333333,0,0,-1.3333333,21.917333,263.96533)" />
    <path
       id="path28"
       d="M -2.78957,3.47087 C -2.27992,1.38832 -1.14423,0.40492 0,0 -1.14423,-0.40492 -2.27992,-1.38832 -2.78957,-3.47087"
       style="fill:none;stroke:#0055a4;stroke-width:0.99628;stroke-linecap:round;stroke-linejoin:round;stroke-miterlimit:10;stroke-dasharray:none;stroke-opacity:1"
       transform="matrix(-1.3333333,0,0,1.3333333,166.46867,328.21649)" />
    <path
       id="path29"
       d="M -2.78957,3.47087 C -2.27992,1.38832 -1.14423,0.40492 0,0 -1.14423,-0.40492 -2.27992,-1.38832 -2.78957,-3.47087"
       style="fill:none;stroke:#0055a4;stroke-width:0.99628;stroke-linecap:round;stroke-linejoin:round;stroke-miterlimit:10;stroke-dasharray:none;stroke-opacity:1"
       transform="matrix(1.3333333,0,0,-1.3333333,198.62531,328.21716)" />
    <path
       id="path30"
       d="m 205.28944,-48.18837 23.12122,-5e-4"
       style="fill:none;stroke:#0055a4;stroke-width:0.99628;stroke-linecap:butt;stroke-linejoin:miter;stroke-miterlimit:10;stroke-dasharray:none;stroke-opacity:1"
       transform="matrix(1.3333333,0,0,-1.3333333,21.917333,263.96533)" />
    <path
       id="path31"
       d="M -2.78957,3.47087 C -2.27992,1.38832 -1.14423,0.40492 0,0 -1.14423,-0.40492 -2.27992,-1.38832 -2.78957,-3.47087"
       style="fill:none;stroke:#0055a4;stroke-width:0.99628;stroke-linecap:round;stroke-linejoin:round;stroke-miterlimit:10;stroke-dasharray:none;stroke-opacity:1"
       transform="matrix(-1.3333333,0,0,1.3333333,294.9724,328.21649)" />
    <path
       id="path32"
       d="M -2.78957,3.47087 C -2.27992,1.38832 -1.14423,0.40492 0,0 -1.14423,-0.40492 -2.27992,-1.38832 -2.78957,-3.47087"
       style="fill:none;stroke:#0055a4;stroke-width:0.99628;stroke-linecap:round;stroke-linejoin:round;stroke-miterlimit:10;stroke-dasharray:none;stroke-opacity:1"
       transform="matrix(1.3333333,0,0,-1.3333333,327.12907,328.21716)" />
    <path
       style="font-weight:800;font-size:8.9664px;font-family:Vazirmatn"
       d="m 0.56040001,-3.3536438 q 0,-0.3327375 0.23641875,-0.5516438 0.23641874,-0.2189062 0.56915624,-0.2189062 0.3371157,0 0.5691563,0.2189062 0.2364187,0.2189063 0.2364187,0.5516438 0,0.3283594 -0.2364187,0.5472656 -0.2364188,0.2189063 -0.5691563,0.2189063 -0.3414937,0 -0.57353436,-0.2145281 -0.23204063,-0.2189063 -0.23204063,-0.5516438 z m 0,2.57871566 q 0,-0.32835936 0.23641875,-0.54726566 0.23641874,-0.2232844 0.56915624,-0.2232844 0.3371157,0 0.5691563,0.2232844 0.2364187,0.2189063 0.2364187,0.54726566 0,0.33273751 -0.2364187,0.55164376 -0.2364188,0.21890625 -0.5691563,0.21890625 -0.3414937,0 -0.57353436,-0.21890625 Q 0.56040001,-0.44219063 0.56040001,-0.77492814 Z M 22.89206,-6.1381314 h 1.182093 v 4.0016064 q 0,0.4640812 0.135722,0.6698531 0.135722,0.2013938 0.5604,0.2013938 h 0.109453 V 0 H 24.770275 Q 23.789575,0 23.338628,-0.50786251 22.89206,-1.015725 22.89206,-2.03145 Z M 17.26179,0 h -0.192637 l 0.0044,-1.2652781 H 17.2399 q 0.214528,0 0.385275,-0.1663688 0.175125,-0.1663688 0.332737,-0.4290563 0.161991,-0.2670656 0.337116,-0.5604 0.179503,-0.2977125 0.398409,-0.5604 0.223285,-0.2670656 0.516619,-0.4334344 0.293334,-0.1663687 0.687366,-0.1663687 0.494728,0 0.86249,0.2057719 0.372141,0.2057718 0.599803,0.5560219 0.227663,0.35025 0.302091,0.7836843 0.07443,0.4378125 0.245175,0.6041813 0.170747,0.1663688 0.363384,0.1663688 h 0.113832 V 0 h -0.11821 q -0.2802,0 -0.551643,-0.12696563 -0.271444,-0.13134375 -0.437813,-0.30646875 -0.218906,0.27582188 -0.485972,0.40716563 -0.267065,0.12696563 -0.643584,0.12696563 -0.455325,0 -0.853735,-0.19263751 -0.394031,-0.19701562 -0.77055,-0.48597188 -0.240796,0.24079688 -0.503484,0.41154376 Q 17.760897,0 17.26179,0 Z m 2.675035,-2.3773219 q -0.179503,0 -0.323981,0.1225875 -0.144479,0.1182094 -0.253932,0.2889562 -0.109453,0.1707469 -0.183881,0.3239813 0.135722,0.1225875 0.258309,0.21015 0.122588,0.087562 0.232041,0.1488563 0.148856,0.074428 0.271444,0.1094531 0.122587,0.030647 0.214528,0.030647 0.232041,0 0.332737,-0.1663688 0.100697,-0.1707469 0.100697,-0.385275 0,-0.2758219 -0.170747,-0.4772156 -0.170746,-0.2057719 -0.477215,-0.2057719 z m -4.667082,-0.63045 1.094532,-0.1357219 0.08756,1.2521438 q 0.02189,0.3327375 0.183881,0.4815937 0.161991,0.1444782 0.516619,0.1444782 h 0.09194 V 0 h -0.100697 q -0.437813,0 -0.753038,-0.1576125 -0.310847,-0.15761251 -0.51224,-0.41154376 -0.267066,0.26706563 -0.634828,0.42030001 Q 14.88009,0 14.468546,0 h -0.4203 v -1.2652781 h 0.4203 q 0.481594,0 0.661097,-0.1619907 0.183882,-0.1663687 0.183882,-0.6041812 0,-0.2583094 -0.01314,-0.4991063 -0.01313,-0.245175 -0.03065,-0.4772156 z m 0.240797,-2.3204063 0.788063,0.7880625 -0.788063,0.7836844 -0.783684,-0.7836844 z m -5.485789,4.94728132 Q 9.6307194,-0.245175 9.1228569,-0.1225875 8.6193725,0 8.1377787,0 H 7.7043443 v -1.2652781 h 0.3765188 q 0.1444781,0 0.2714437,-0.00438 0.1313438,-0.00438 0.2670657,-0.013134 -0.1357219,-0.175125 -0.2189063,-0.4640813 -0.083184,-0.2933344 -0.083184,-0.5428875 0,-0.3721406 0.1838813,-0.7311469 0.1838812,-0.3590063 0.5516438,-0.5998031 0.3677625,-0.2407969 0.9150281,-0.2583094 l 0.4203,-0.8318438 q 0.814331,0.385275 1.444781,0.7048782 0.634828,0.3196031 1.063885,0.63045 0.433434,0.3108468 0.656718,0.6742312 0.223285,0.3590063 0.223285,0.8318438 0,0.89313751 -0.534131,1.36159689 -0.534132,0.46408126 -1.414135,0.46408126 -0.459703,0 -0.963187,-0.11383125 -0.503485,-0.11383125 -0.8406,-0.22328438 z M 9.407435,-2.2985157 q 0,0.2407969 0.2189062,0.4509469 0.2189063,0.2057719 0.4728378,0.2845781 0.118209,-0.026269 0.271444,-0.1182093 0.157612,-0.096319 0.271443,-0.2320407 0.113832,-0.1401 0.113832,-0.2977125 0,-0.2626875 -0.18826,-0.4728375 -0.188259,-0.21015 -0.459703,-0.21015 -0.2802,0 -0.49035,0.1795032 -0.21015,0.175125 -0.21015,0.4159218 z m 1.917619,1.0332376 q 0.205772,0.035025 0.398409,0.052537 0.192638,0.017513 0.275822,0.017513 0.258309,0 0.472838,-0.1313438 0.214528,-0.1357219 0.214528,-0.5078625 0,-0.091941 -0.07005,-0.21015 -0.06567,-0.1225875 -0.288957,-0.2977125 -0.218906,-0.175125 -0.674231,-0.4290563 0.06129,0.1882594 0.06129,0.3896532 0,0.3414937 -0.109453,0.6216937 -0.105075,0.2758219 -0.2802,0.4947282 z M 7.196482,-6.1381314 v 6.13375327 H 6.0143882 V -6.1381314 Z M 1.7226696,2.3904563 1.2761008,1.2171188 Q 1.910929,1.0813969 2.366254,0.85373439 2.8259571,0.63045001 3.0755102,0.25393125 3.3250634,-0.1225875 3.3250634,-0.71801251 3.3250634,-1.1164219 3.1980978,-1.61115 3.0711321,-2.1102563 2.926654,-2.5393125 l 1.1820938,-0.3808969 q 0.1707468,0.4772156 0.2583093,1.0288594 0.091941,0.5516437 0.091941,1.05950624 0,0.91940626 -0.3414938,1.57612502 Q 3.7803884,1.4053781 3.1630727,1.8125438 2.5501352,2.2240875 1.7226696,2.3904563 Z"
       id="text32"
       transform="matrix(1.3333333,0,0,1.3333333,519.08933,51.957333)"
       aria-label=":ﺎﻤﻨﻫار" />
    <path
       id="path33"
       d="m 9.81894,-4.14966 c 0,3.13109 -2.53819,5.66925 -5.66928,5.66925 -3.13109,0 -5.66925,-2.53816 -5.66925,-5.66925 0,-3.13109 2.53816,-5.66928 5.66925,-5.66928 3.13109,0 5.66928,2.53819 5.66928,5.66928 z"
       style="fill:#e6fae6;fill-opacity:1;fill-rule:nonzero;stroke:#006633;stroke-width:0.3985;stroke-linecap:butt;stroke-linejoin:miter;stroke-miterlimit:10;stroke-dasharray:none;stroke-opacity:1"
       transform="matrix(1.3333333,0,0,-1.3333333,478.67467,58.765333)" />
    <path
       style="font-size:8.9664px;font-family:Vazirmatn"
       d="m 42.384034,0 q -0.643585,0 -1.002591,-0.30209063 -0.354628,-0.30209063 -0.459703,-0.83184377 -0.253932,0.25393126 -0.551644,0.38965314 -0.293334,0.13572188 -0.661097,0.13572188 -0.626072,0 -1.05075,-0.33711564 -0.424678,-0.33711558 -0.424678,-0.93254068 0,-0.6742312 0.551644,-1.1645812 0.551643,-0.4947282 1.733737,-0.8581125 l -0.03065,-0.21015 0.7005,-0.1401 0.380897,2.6881687 q 0.05254,0.3852751 0.249553,0.57791256 0.201394,0.18825938 0.582291,0.18825938 h 0.135722 V 0 Z m -1.637419,-2.2021969 q 0,-0.1357219 -0.01751,-0.2583094 l -0.109453,-0.7311469 q -0.849356,0.3064688 -1.239009,0.6041813 -0.385275,0.2977125 -0.385275,0.6523406 0,0.2889563 0.197015,0.4378125 0.197016,0.1488563 0.534132,0.1488563 0.258309,0 0.49035,-0.1006969 0.236418,-0.1006969 0.380896,-0.2933344 0.148857,-0.1926375 0.148857,-0.4597031 z m -4.321209,-2.5349344 0.612938,0.6085594 -0.612938,0.6173156 -0.608559,-0.6173156 z m -1.453537,0 0.612937,0.6085594 -0.612937,0.6173156 -0.60856,-0.6173156 z m -0.472838,3.94031254 h 0.612938 q 0.556022,0 0.79244,-0.24955314 0.240797,-0.2495531 0.240797,-0.7661719 0,-0.21015 -0.01313,-0.3984094 -0.0088,-0.1882593 -0.02627,-0.3765187 l 0.731147,-0.087562 0.07005,1.0244812 q 0.05254,0.85373444 0.888759,0.85373444 H 37.8877 V 0 h -0.100697 q -0.485972,0 -0.779306,-0.175125 -0.288956,-0.17512501 -0.46846,-0.49472814 -0.236418,0.34587188 -0.621693,0.50786251 Q 35.532269,0 35.111969,0 H 34.499031 Z M 32.274943,0 q -0.4203,0 -0.678609,-0.175125 -0.258309,-0.17512501 -0.4203,-0.49472814 -0.245175,0.35462813 -0.547266,0.51224064 Q 30.331056,0 29.980806,0 29.477321,0 29.2015,-0.17074688 28.930056,-0.34587188 28.768065,-0.66985314 28.562293,-0.34587188 28.24269,-0.17074688 27.923087,0 27.33204,0 h -0.402787 v -0.79681876 h 0.411543 q 0.5604,0 0.81871,-0.20577184 0.258309,-0.21015 0.258309,-0.7617938 0,-0.1138313 -0.01313,-0.2670656 -0.0088,-0.1576125 -0.03065,-0.4378125 l 0.731147,-0.091941 0.07005,0.9150282 q 0.02627,0.3677625 0.223284,0.6085594 0.201394,0.24079684 0.591047,0.24079684 0.464081,0 0.63045,-0.24955314 0.166369,-0.2495531 0.166369,-0.7180125 0,-0.1138313 -0.01313,-0.2714438 -0.0088,-0.1576125 -0.03065,-0.4334343 l 0.731147,-0.091941 0.07005,0.9150282 q 0.02189,0.3546281 0.188259,0.6041812 0.166369,0.24517504 0.538509,0.24517504 0.647963,0 0.647963,-0.96756564 0,-0.1576125 -0.01314,-0.3283594 -0.0088,-0.1707469 -0.03065,-0.4509469 l 0.731146,-0.087563 0.07005,0.9850782 q 0.05254,0.84935624 0.866869,0.84935624 h 0.131344 V 0 H 34.551568 Q 34.091865,0 33.785397,-0.16636875 33.478928,-0.33711563 33.365097,-0.67423126 33.181215,-0.35025001 32.940418,-0.175125 32.704,0 32.274943,0 Z m -9.145905,-3.5550376 0.345872,-0.6479625 q 1.571747,0.7661719 2.342297,1.3703532 0.77055,0.5998031 0.77055,1.225875 0,0.77492814 -0.481594,1.16895939 -0.477215,0.39403126 -1.28279,0.39403126 -0.302091,0 -0.643585,-0.04815938 Q 23.838294,-0.1401 23.531826,-0.21015 23.225357,-0.28457813 23.015207,-0.35462813 22.63431,-0.21452813 22.122069,-0.105075 21.609829,0 21.132613,0 h -0.433434 v -0.79681876 h 0.376519 q 0.288956,0 0.507862,-0.0131344 0.223284,-0.0131344 0.485972,-0.0437812 Q 21.767441,-1.0989094 21.631719,-1.3878656 21.500376,-1.6812 21.500376,-1.9920469 q 0,-0.455325 0.214528,-0.7836844 0.214528,-0.3283594 0.569156,-0.5034844 0.354628,-0.1795031 0.774928,-0.1795031 0.18826,0 0.376519,0.048159 -0.148856,-0.07005 -0.306469,-0.1444782 z m 0.792441,2.71881571 q 0.192637,0.0218906 0.4203,0.0437812 0.227662,0.0175125 0.402787,0.0175125 0.529753,0 0.805575,-0.19701563 0.2802,-0.20139373 0.2802,-0.62169373 0,-0.2145282 -0.245175,-0.4640813 -0.245175,-0.2539312 -0.656718,-0.5209969 -0.407166,-0.2714437 -0.901894,-0.5341312 0.240797,0.1926375 0.385275,0.4640812 0.148856,0.2714438 0.148856,0.5735344 0,0.4115438 -0.166369,0.7048782 -0.16199,0.2889562 -0.472837,0.53413121 z M 22.253413,-2.0008032 q 0,0.2583094 0.214528,0.5166188 0.218907,0.2539313 0.63045,0.4115438 0.788063,-0.3196032 0.788063,-0.9194063 0,-0.3808969 -0.232041,-0.5779125 -0.227662,-0.2013938 -0.551644,-0.2013938 -0.376518,0 -0.612937,0.21015 -0.236419,0.21015 -0.236419,0.5604 z M 19.93679,2.17155 q -0.814332,0 -1.326572,-0.2933343 Q 18.097977,1.5892594 17.85718,1.0682625 17.616383,0.54726563 17.616383,-0.1401 q 0,-0.46408126 0.09632,-0.9500531 0.09632,-0.4903501 0.262688,-0.9544313 l 0.696122,0.2802 q -0.126966,0.4027875 -0.214529,0.82746563 -0.08756,0.42467814 -0.08756,0.82308752 0,0.70925626 0.359006,1.10328752 0.363385,0.39403123 1.208363,0.39403123 0.783684,0 1.177715,-0.42905623 0.39841,-0.42905626 0.39841,-1.38348753 V -6.0286782 h 0.739903 v 4.238025 q 0,0.4903501 0.179503,0.7442813 0.183881,0.24955314 0.713634,0.24955314 h 0.131344 V 0 h -0.122587 q -0.385275,0 -0.551644,-0.07442813 -0.166369,-0.07880625 -0.354628,-0.25830938 0,1.25214378 -0.591047,1.87821571 Q 21.066346,2.17155 19.93679,2.17155 Z m -6.120619,-7.7317688 0.634828,0.6348281 -0.634828,0.6348281 -0.634828,-0.6348281 z m -2.727572,4.76340004 h 0.744282 q 0.51224,0 0.941296,-0.0919406 0.429057,-0.0919406 0.836222,-0.25393121 0.411544,-0.1619907 0.858113,-0.3808969 0.450947,-0.2232844 1.006969,-0.4772157 -0.310847,-0.1138312 -0.643585,-0.245175 -0.332737,-0.1357218 -0.634828,-0.2539312 -0.297712,-0.1182094 -0.520997,-0.1926375 -0.223284,-0.078806 -0.315225,-0.078806 -0.267065,0 -0.472837,0.1576125 -0.201394,0.1532344 -0.372141,0.3721407 l -0.118209,0.1488562 -0.669853,-0.3283594 0.06567,-0.105075 q 0.288957,-0.4684593 0.669854,-0.7486594 0.385275,-0.2845781 0.901893,-0.2845781 0.214528,0 0.516619,0.1094531 0.306469,0.1094532 0.665475,0.2758219 0.359006,0.1619907 0.744281,0.3327375 0.385275,0.1663688 0.77055,0.2845782 0.385275,0.1138312 0.735525,0.1269656 v 0.7574156 q -0.2802,0.030647 -0.718012,0.2057719 -0.433435,0.1707469 -1.129556,0.53850938 -0.5604,0.29771251 -1.041994,0.50786251 Q 13.430896,-0.21452813 12.93179,-0.105075 12.437062,0 11.819746,0 H 11.088599 Z M 10.506308,-6.0286782 v 6.02430007 H 9.766405 V -6.0286782 Z m -4.27305,5.24061569 q 1.6812001,0 1.6812001,-0.87124689 0,-0.4115438 -0.4203,-0.8712469 -0.4203,-0.4597031 -1.3922438,-0.9894563 l 0.3458719,-0.6917437 q 1.1251781,0.5735344 1.6680656,1.2127406 0.5472657,0.6348282 0.5472657,1.3265719 0,0.82308754 -0.5691563,1.24338754 -0.5647781,0.42030001 -1.7950313,0.42030001 -0.5866687,0 -1.0595063,-0.105075 v -0.79244064 q 0.5735344,0.11820938 0.9938344,0.11820938 z"
       id="text33"
       transform="matrix(1.3333333,0,0,1.3333333,495.24267,72.122667)"
       aria-label="ﻪﺘﺴﻫﻞﺧاد" />
    <path
       id="path34"
       d="M 0,0 H 14.17339"
       style="fill:none;stroke:#006633;stroke-width:0.99628;stroke-linecap:butt;stroke-linejoin:miter;stroke-miterlimit:10;stroke-dasharray:none;stroke-opacity:1"
       transform="matrix(1.3333333,0,0,-1.3333333,478.37867,86.069333)" />
    <path
       style="font-size:8.9664px;font-family:Vazirmatn"
       d="m 32.440157,-0.79681876 q 0.08318,-0.14010001 0.175125,-0.27582184 0.09194,-0.1401 0.175125,-0.2758219 v -4.6802157 h 0.744281 v 3.6382219 q 0.941297,-1.1339344 1.939509,-1.1339344 0.516619,0 0.901894,0.21015 0.389653,0.21015 0.604181,0.5822907 0.214529,0.3677625 0.214529,0.8493562 -0.0044,0.95880941 -0.809954,1.42289067 Q 35.583651,0 33.963744,0 H 31.424432 V -0.79681876 Z M 35.517979,-2.73195 q -1.055129,0 -2.276625,1.93075311 l 0.704878,0.004378 q 1.247765,0 1.860703,-0.24955314 0.617316,-0.2495531 0.617316,-0.7924406 0,-0.385275 -0.249554,-0.6392063 Q 35.925144,-2.73195 35.517979,-2.73195 Z m -6.203806,-3.2967282 h 0.739903 v 4.1854875 q 0,0.6173157 0.227662,0.8318438 0.227663,0.21452814 0.687366,0.21452814 h 0.109453 V 0 H 30.969104 Q 30.132882,0 29.721338,-0.44219063 29.314173,-0.88875939 29.314173,-1.8475688 Z m -3.870261,5.23185944 h 0.51224 q 0.556022,0 0.792441,-0.24955314 0.240797,-0.2495531 0.240797,-0.7661719 0,-0.21015 -0.01313,-0.3984094 -0.0088,-0.1882593 -0.02627,-0.3765187 l 0.731147,-0.087562 0.07005,1.0244812 q 0.05254,0.85373444 0.888759,0.85373444 h 0.09194 V 0 h -0.100697 q -0.485972,0 -0.779306,-0.175125 -0.288957,-0.17512501 -0.46846,-0.49472814 -0.236419,0.34587188 -0.621694,0.50786251 Q 26.376452,0 25.956152,0 h -0.51224 z m 0.901894,1.4666719 0.634828,0.63482816 -0.634828,0.6348281 -0.634829,-0.6348281 z m -1.720603,-5.80977194 0.612937,0.6085594 -0.612937,0.6173156 -0.60856,-0.6173156 z m -1.453538,0 0.612938,0.6085594 -0.612938,0.6173156 -0.608559,-0.6173156 z m -0.472837,4.34310004 h 0.897515 q 0.437813,0 0.591047,-0.25393124 0.157613,-0.2539313 0.157613,-0.6435844 0,-0.2845781 -0.05254,-0.6085594 -0.05254,-0.3239812 -0.113831,-0.6523406 l 0.761794,-0.1926375 q 0.07443,0.35025 0.118209,0.6873656 0.04378,0.3371156 0.04378,0.6435844 0,0.525375 -0.144478,0.93691876 -0.144478,0.41154376 -0.472837,0.64796251 Q 24.156743,0 23.6051,0 H 22.698828 Z M 19.313381,2.3554313 19.055071,1.6593094 q 1.068263,-0.2320406 1.506075,-0.81433126 0.437813,-0.57791251 0.437813,-1.37035315 0,-0.37214063 -0.08319,-0.77930629 -0.07881,-0.4115437 -0.223284,-0.8362219 l 0.726769,-0.245175 q 0.315225,0.8975157 0.315225,1.72935944 0,0.73114689 -0.25831,1.35284065 -0.253931,0.62607191 -0.79244,1.05950631 -0.534131,0.4378125 -1.370353,0.5998031 z m -0.262687,-8.3841095 v 6.02430007 H 18.310791 V -6.0286782 Z m -1.808762,8.2834126 q -0.945675,0 -1.514831,-0.3458719 -0.564778,-0.3458718 -0.81871,-0.92378436 -0.249553,-0.57353438 -0.249553,-1.26090002 0,-0.2977125 0.04378,-0.68736564 0.04816,-0.38965308 0.214529,-0.88875938 l 0.696121,0.2583094 q -0.126965,0.4378125 -0.166368,0.77492811 -0.03503,0.33711563 -0.03503,0.56915626 0,0.47283751 0.166368,0.86249064 0.166369,0.38965309 0.564779,0.62169379 0.402787,0.2320406 1.098909,0.2320406 0.656719,0 1.125178,-0.1619906 0.472838,-0.1619907 0.722391,-0.38527503 0.253931,-0.22328438 0.253931,-0.40716564 0,-0.21015 -0.183881,-0.35900625 -0.179503,-0.14885625 -0.586669,-0.14885625 h -0.647963 q -0.08756,0 -0.126965,-0.07442813 -0.0394,-0.07880625 -0.07443,-0.20139375 l -0.11821,-0.42030001 q -0.0044,-0.035025 0.01751,-0.0656719 0.02189,-0.035025 0.07881,-0.035025 h 2.42986 v 0.79681877 h -0.179504 q 0.06567,0.13134375 0.08319,0.24955312 0.02189,0.11820938 0.02189,0.24517501 0,0.28895625 -0.170746,0.59542504 -0.166369,0.3108468 -0.516619,0.5735344 -0.345872,0.2626875 -0.875625,0.4246781 -0.529753,0.1619906 -1.252144,0.1619906 z m -4.404394,-7.7974407 0.612938,0.6085593 -0.612938,0.6173157 -0.608559,-0.6173157 z m -1.453537,0 0.612937,0.6085593 -0.612937,0.6173157 -0.60856,-0.6173157 z m 2.294137,3.4806094 q 0,0.3458719 -0.153234,0.6435844 -0.153235,0.2933344 -0.4203,0.60418124 0.249553,0.0131344 0.44219,0.0175125 0.192638,0 0.341494,0 h 0.424678 V 0 h -0.411543 q -0.166369,0 -0.459704,-0.02626875 -0.288956,-0.03064688 -0.639206,-0.10069688 -0.345872,-0.07005 -0.682987,-0.18825938 -0.337116,0.12258751 -0.691744,0.19263751 -0.354628,0.06567187 -0.656719,0.09631875 Q 10.468972,0 10.289469,0 H 9.6765319 v -0.79681876 h 0.6129371 q 0.183882,0 0.380897,0 0.201394,-0.004378 0.485972,-0.0218906 -0.262687,-0.30646871 -0.411544,-0.60855941 -0.148856,-0.3020906 -0.148856,-0.6435844 0,-0.2714437 0.126966,-0.5472656 0.126965,-0.2758219 0.341493,-0.5122406 0.214529,-0.2364188 0.490351,-0.3765188 0.275821,-0.1444781 0.569156,-0.1444781 0.306469,0 0.586669,0.1444781 0.2802,0.1401 0.494728,0.3765188 0.218906,0.2320406 0.345872,0.5122406 0.126965,0.2802 0.126965,0.5560219 z m -1.554234,-0.8143313 q -0.166369,0 -0.35025,0.1269657 -0.179503,0.1225875 -0.306469,0.3108468 -0.122587,0.1882594 -0.122587,0.385275 0,0.2013938 0.118209,0.4115438 0.118209,0.21015 0.297712,0.385275 0.183882,0.175125 0.372141,0.27144376 0.332738,-0.14009996 0.564778,-0.45094686 0.236419,-0.315225 0.236419,-0.6260719 0,-0.1838813 -0.131344,-0.3721406 -0.126965,-0.1882594 -0.315225,-0.315225 -0.188259,-0.1269657 -0.363384,-0.1269657 z M 7.5750317,-6.580322 8.2098598,-5.9454938 7.5750317,-5.3106657 6.9402036,-5.9454938 Z m -0.3327375,5.78350324 q 0.4947281,0 0.7968188,-0.0569156 0.3064687,-0.0569156 0.4465687,-0.24955311 0.1444781,-0.1970156 0.1444781,-0.6085594 -0.2145281,0.065672 -0.4378125,0.1006969 -0.2189062,0.035025 -0.4728375,0.035025 -1.4885625,0 -1.4885625,-1.2214969 0,-0.4203 0.1663688,-0.8406 0.1707468,-0.4203 0.4991062,-0.7005 0.3283594,-0.2845782 0.7968188,-0.2845782 0.4290562,0 0.735525,0.2189063 0.3108469,0.2189062 0.5078625,0.5910469 0.2013937,0.3677625 0.2977125,0.8362219 0.096319,0.4640812 0.096319,0.9588093 0,0.6523407 -0.1182094,1.05512818 -0.1138313,0.39840939 -0.3677625,0.60855939 -0.2539313,0.20577188 -0.6610969,0.2802 Q 7.7764255,0 7.1897567,0 h -1.61115 V -0.79681876 Z M 7.7808036,-2.3291625 q 0.2013937,0 0.3984094,-0.035025 0.2013937,-0.039403 0.4027875,-0.096319 -0.035025,-0.3108469 -0.1313438,-0.63045 -0.091941,-0.3196031 -0.2758219,-0.5341313 -0.1838812,-0.2189062 -0.49035,-0.2189062 -0.2714437,0 -0.4378125,0.1707469 -0.1619906,0.1707468 -0.2364187,0.4071656 -0.07005,0.2364188 -0.07005,0.4378125 0,0.3020906 0.2145281,0.4027875 0.2189062,0.096319 0.6260719,0.096319 z M 4.996316,-6.0286782 v 6.02430007 H 4.2564129 V -6.0286782 Z"
       id="text34"
       transform="matrix(1.3333333,0,0,1.3333333,501.15067,86.734667)"
       aria-label="طﺎﺒﺗراﯽﻘﻓا" />
    <path
       id="path35"
       d="M 0,0 H 12.67897"
       style="fill:none;stroke:#b8860b;stroke-width:1.49442;stroke-linecap:butt;stroke-linejoin:miter;stroke-miterlimit:10;stroke-dasharray:none;stroke-opacity:1"
       transform="matrix(1.3333333,0,0,-1.3333333,482.22,98.026667)" />
    <path
       id="path36"
       d="M -3.38733,4.37073 C -2.76846,1.74825 -1.38942,0.50992 0,0 -1.38942,-0.50992 -2.76846,-1.74825 -3.38733,-4.37073"
       style="fill:none;stroke:#b8860b;stroke-width:1.49442;stroke-linecap:round;stroke-linejoin:round;stroke-miterlimit:10;stroke-dasharray:none;stroke-opacity:1"
       transform="matrix(1.3333333,0,0,-1.3333333,500.12157,98.026667)" />
    <path
       style="font-size:8.9664px;font-family:Vazirmatn"
       d="m 29.309797,-0.79681876 q 0.08318,-0.14010001 0.175125,-0.27582184 0.09194,-0.1401 0.175125,-0.2758219 v -4.6802157 h 0.744281 v 3.6382219 q 0.941297,-1.1339344 1.93951,-1.1339344 0.516618,0 0.901894,0.21015 0.389653,0.21015 0.604181,0.5822907 0.214528,0.3677625 0.214528,0.8493562 -0.0044,0.95880941 -0.809953,1.42289067 Q 32.453291,0 30.833385,0 H 28.294072 V -0.79681876 Z M 32.387619,-2.73195 q -1.055128,0 -2.276625,1.93075311 l 0.704878,0.004378 q 1.247766,0 1.860703,-0.24955314 0.617316,-0.2495531 0.617316,-0.7924406 0,-0.385275 -0.249553,-0.6392063 Q 32.794785,-2.73195 32.387619,-2.73195 Z m -6.203806,-3.2967282 h 0.739903 v 4.1854875 q 0,0.6173157 0.227663,0.8318438 0.227662,0.21452814 0.687365,0.21452814 h 0.109453 V 0 H 27.838744 Q 27.002522,0 26.590979,-0.44219063 26.183813,-0.88875939 26.183813,-1.8475688 Z m -3.870261,5.23185944 h 0.512241 q 0.556022,0 0.79244,-0.24955314 0.240797,-0.2495531 0.240797,-0.7661719 0,-0.21015 -0.01313,-0.3984094 -0.0088,-0.1882593 -0.02627,-0.3765187 l 0.731147,-0.087562 0.07005,1.0244812 q 0.05254,0.85373444 0.888759,0.85373444 h 0.09194 V 0 H 25.500827 Q 25.014855,0 24.721521,-0.175125 24.432565,-0.35025001 24.253062,-0.66985314 24.016643,-0.32398126 23.631368,-0.16199063 23.246093,0 22.825793,0 h -0.512241 z m 0.901894,1.4666719 0.634828,0.63482816 -0.634828,0.6348281 -0.634828,-0.6348281 z m -1.720603,-5.80977194 0.612938,0.6085594 -0.612938,0.6173156 -0.608559,-0.6173156 z m -1.453537,0 0.612937,0.6085594 -0.612937,0.6173156 -0.60856,-0.6173156 z m -0.472838,4.34310004 h 0.897516 q 0.437812,0 0.591047,-0.25393124 0.157612,-0.2539313 0.157612,-0.6435844 0,-0.2845781 -0.05254,-0.6085594 -0.05254,-0.3239812 -0.113832,-0.6523406 l 0.761794,-0.1926375 q 0.07443,0.35025 0.11821,0.6873656 0.04378,0.3371156 0.04378,0.6435844 0,0.525375 -0.144478,0.93691876 -0.144478,0.41154376 -0.472838,0.64796251 Q 21.026384,0 20.47474,0 H 19.568468 Z M 16.18302,2.3554313 15.924711,1.6593094 q 1.068262,-0.2320406 1.506075,-0.81433126 0.437812,-0.57791251 0.437812,-1.37035315 0,-0.37214063 -0.08318,-0.77930629 -0.07881,-0.4115437 -0.223285,-0.8362219 l 0.726769,-0.245175 q 0.315225,0.8975157 0.315225,1.72935944 0,0.73114689 -0.258309,1.35284065 Q 18.091883,1.3221938 17.553373,1.7556282 17.019242,2.1934407 16.18302,2.3554313 Z m -0.262687,-8.3841095 v 6.02430007 H 15.18043 V -6.0286782 Z m -2.504883,2.6443875 0.634828,0.6348282 -0.634828,0.6348281 -0.634828,-0.6348281 z m 0.04816,4.8509626 q 0.731147,0 1.129556,-0.2407969 0.402788,-0.23641873 0.5604,-0.62607187 0.161991,-0.385275 0.161991,-0.82746563 0,-0.52099689 -0.1401,-1.0288594 -0.1401,-0.5078625 -0.262688,-0.8318438 l 0.74866,-0.3020906 0.323981,1.0244813 q 0.08756,0.2802 0.284578,0.42467811 0.201394,0.14447813 0.5604,0.14447813 h 0.170747 V 0 H 16.8479 q -0.306468,0 -0.468459,-0.05691563 -0.157612,-0.05691562 -0.297712,-0.1926375 -0.0044,0.73114689 -0.2802,1.29592503 -0.275822,0.5691563 -0.853735,0.8887594 -0.573534,0.3196031 -1.484184,0.3196031 -0.945675,0 -1.514832,-0.3458719 Q 11.384,1.5629907 11.130069,0.98507814 10.880516,0.41154376 10.880516,-0.27582188 q 0,-0.46408126 0.09632,-0.95005312 0.09632,-0.49035 0.262687,-0.9544313 l 0.696122,0.2802 q -0.126966,0.4027875 -0.214528,0.8274657 -0.08756,0.42467809 -0.08756,0.82308747 0,0.47283751 0.166369,0.86249064 0.170747,0.38965309 0.569156,0.62169379 0.39841,0.2320406 1.094532,0.2320406 z M 8.634538,0.10069688 q -0.4378125,0 -0.8099532,-0.18825938 Q 7.4568223,-0.2802 7.0584129,-0.66547501 6.7738348,-0.34587188 6.5111473,-0.17074688 6.2484598,0 5.7712442,0 H 5.5786067 v -0.79681876 h 0.1707468 q 0.2933344,0 0.4947282,-0.16636876 Q 6.4454754,-1.1339344 6.6030879,-1.401 6.7607004,-1.6680657 6.9139348,-1.9657782 7.0715473,-2.2678688 7.2641848,-2.5349344 7.4568223,-2.802 7.7282661,-2.9683688 8.004088,-3.1391157 8.4068755,-3.1391157 q 0.4859718,0 0.8449781,0.2364188 0.3633844,0.2320406 0.5604,0.6260719 0.2013934,0.3940312 0.2013934,0.8800031 0,0.71363439 -0.363384,1.10766565 Q 9.2912567,0.10069688 8.634538,0.10069688 Z M 8.424388,-2.3641875 q -0.2189063,0 -0.3984094,0.1488562 -0.1795031,0.1444781 -0.3239813,0.3765188 -0.1444781,0.2320406 -0.2583094,0.4815937 0.2626875,0.2758219 0.5428876,0.45094691 0.3590062,0.23204063 0.6392062,0.23204063 0.6479625,0 0.6479625,-0.65234064 0,-0.455325 -0.2276625,-0.7442813 Q 8.8227973,-2.3641875 8.424388,-2.3641875 Z M 4.9963165,-6.0286782 v 6.02430007 H 4.2564134 V -6.0286782 Z"
       id="text36"
       transform="matrix(1.3333333,0,0,1.3333333,505.324,104.85067)"
       aria-label="طﺎﺒﺗراﻦﻣا" />
  </g>
</svg>
