<?xml version="1.0" encoding="UTF-8" standalone="no"?>


<svg class="tikz-diagram" id="iran-action-ch2-tikz-1-b71219be2ffb"
   version="1.1"
   id="svg1"
   width="576.73334"
   height="148.37334"
   viewBox="0 0 576.73334 148.37334"
   sodipodi:docname="iran-action-ch2-tikz-1-b71219be2ffb.pdf"
   xmlns:inkscape="http://www.inkscape.org/namespaces/inkscape"
   xmlns:sodipodi="http://sodipodi.sourceforge.net/DTD/sodipodi-0.dtd"
   xmlns="http://www.w3.org/2000/svg"
   xmlns:svg="http://www.w3.org/2000/svg">
  <defs
     id="defs1" />
  <sodipodi:namedview
     id="namedview1"
     pagecolor="#ffffff"
     bordercolor="#000000"
     borderopacity="0.25"
     inkscape:showpageshadow="2"
     inkscape:pageopacity="0.0"
     inkscape:pagecheckerboard="0"
     inkscape:deskcolor="#d1d1d1">
    <inkscape:page
       x="0"
       y="0"
       inkscape:label="1"
       id="page1"
       width="576.73334"
       height="148.37334"
       margin="0"
       bleed="0" />
  </sodipodi:namedview>
  <g
     id="g1"
     inkscape:groupmode="layer"
     inkscape:label="1">
    <path
       id="path1"
       d="M 0,0 H 355.17482"
       style="fill:none;stroke:#808080;stroke-width:1.99255;stroke-linecap:butt;stroke-linejoin:miter;stroke-miterlimit:10;stroke-dasharray:none;stroke-opacity:1"
       transform="matrix(1.3333333,0,0,-1.3333333,47.592,71.606667)" />
    <path
       id="path2"
       d="M -3.9851,5.27061 C -3.25705,2.1082 -1.63463,0.6149 0,0 -1.63463,-0.6149 -3.25705,-2.1082 -3.9851,-5.27061"
       style="fill:none;stroke:#808080;stroke-width:1.99255;stroke-linecap:round;stroke-linejoin:round;stroke-miterlimit:10;stroke-dasharray:none;stroke-opacity:1"
       transform="matrix(1.3333333,0,0,-1.3333333,522.4868,71.606667)" />
    <path
       style="font-size:8.9664px;font-family:Vazirmatn"
       d="m 31.228009,2.2547344 q -0.945675,0 -1.514831,-0.3458719 Q 29.1484,1.5629907 28.894469,0.98507814 28.644915,0.41154376 28.644915,-0.27582188 q 0,-0.2977125 0.04378,-0.68736564 0.04816,-0.38965308 0.214528,-0.88875938 l 0.696122,0.2583094 q -0.126966,0.4378125 -0.166369,0.77492811 -0.03502,0.33711563 -0.03502,0.56915626 0,0.47283751 0.166369,0.86249064 0.166368,0.38965309 0.564778,0.62169379 0.402787,0.2320406 1.098909,0.2320406 0.656719,0 1.125178,-0.1619906 0.472838,-0.1619907 0.722391,-0.38527503 0.253931,-0.22328438 0.253931,-0.40716564 0,-0.21015 -0.183881,-0.35900625 -0.179503,-0.14885625 -0.586669,-0.14885625 h -0.647962 q -0.08756,0 -0.126966,-0.07442813 -0.0394,-0.07880625 -0.07443,-0.20139375 l -0.118209,-0.42030001 q -0.0044,-0.035025 0.01751,-0.0656719 0.02189,-0.035025 0.07881,-0.035025 h 2.42986 v 0.79681877 h -0.179503 q 0.06567,0.13134375 0.08318,0.24955312 0.02189,0.11820938 0.02189,0.24517501 0,0.28895625 -0.170747,0.59542504 Q 33.706028,1.4053781 33.355778,1.6680657 33.009906,1.9307532 32.480153,2.0927438 31.9504,2.2547344 31.228009,2.2547344 Z M 24.104803,0 q -0.503485,0 -0.779307,-0.17074688 -0.271443,-0.175125 -0.433434,-0.49910626 -0.205772,0.32398126 -0.525375,0.49910626 Q 22.047084,0 21.456037,0 h -0.402788 v -0.79681876 h 0.411544 q 0.5604,0 0.81871,-0.20577184 0.258309,-0.21015 0.258309,-0.7617938 0,-0.1138313 -0.01313,-0.2670656 -0.0088,-0.1576125 -0.03065,-0.4378125 l 0.731147,-0.091941 0.07005,0.9150282 q 0.02627,0.3677625 0.223284,0.6085594 0.201394,0.24079684 0.591047,0.24079684 0.464081,0 0.63045,-0.24955314 0.166369,-0.2495531 0.166369,-0.7180125 0,-0.1138313 -0.01314,-0.2714438 -0.0088,-0.1576125 -0.03065,-0.4334343 l 0.731147,-0.091941 0.07005,0.9150282 q 0.02189,0.3546281 0.18826,0.6041812 0.166368,0.24517504 0.538509,0.24517504 0.363384,0 0.499106,-0.27144374 0.135722,-0.2714438 0.135722,-0.6348282 0,-0.3283593 -0.06567,-0.6610968 -0.06129,-0.3327375 -0.109453,-0.5385094 l 0.74866,-0.2013938 q 0.07881,0.2933344 0.126965,0.6260719 0.04816,0.3283594 0.04816,0.6567188 0,0.4728375 -0.131344,0.88875936 -0.131344,0.41592188 -0.433435,0.67423126 Q 26.915559,-0.00437813 26.39894,0 q -0.4203,0 -0.678609,-0.175125 -0.25831,-0.17512501 -0.4203,-0.49472814 -0.245175,0.35462813 -0.547266,0.51224064 Q 24.455053,0 24.104803,0 Z m -3.633846,-6.0286782 v 6.02430007 H 19.731054 V -6.0286782 Z M 18.420838,0 q -0.302091,0 -0.507862,-0.07880625 -0.201394,-0.08318438 -0.315225,-0.175125 -0.06567,0.57353438 -0.319604,1.10766564 -0.249553,0.53850941 -0.753037,0.93691881 -0.503484,0.3984093 -1.33095,0.5604 L 14.935851,1.6593094 q 1.068262,-0.2320406 1.506075,-0.81433126 0.437812,-0.57791251 0.437812,-1.37035315 0,-0.37214063 -0.08318,-0.77930629 -0.07881,-0.4115437 -0.223285,-0.8362219 l 0.726769,-0.245175 0.236419,0.9150282 q 0.09632,0.3677625 0.306469,0.52099686 0.21015,0.15323438 0.529753,0.15323438 h 0.166368 V 0 Z m -5.617133,-4.2467813 q 0.380896,0.2670656 0.79244,0.5647781 0.411544,0.2933344 0.766172,0.63045 0.359006,0.3327375 0.577913,0.7136344 0.223284,0.3765188 0.223284,0.805575 -0.0044,0.81433129 -0.564778,1.17333754 Q 14.042714,0 12.821217,0 h -1.068262 v -0.79681876 h 1.063884 q 0.849356,0 1.217119,-0.14885626 0.367762,-0.15323438 0.367762,-0.60418128 0,-0.2889562 -0.205772,-0.5647781 -0.201393,-0.2758219 -0.525375,-0.5428875 -0.319603,-0.2714438 -0.687365,-0.5297532 -0.367763,-0.2626875 -0.691744,-0.5166187 -0.1401,-0.1138313 -0.214528,-0.2670656 -0.07443,-0.1532344 -0.07443,-0.3064688 0,-0.1795031 0.09632,-0.3371156 0.100697,-0.1619907 0.310847,-0.245175 l 3.147872,-1.2784126 v 0.7749282 z m -3.0427974,1.0463719 q 0.6829874,0 1.1514464,0.6129375 0.46846,0.6085594 0.485972,1.79065314 H 11.92808 V 0 H 11.328276 Q 11.231958,0.50348438 10.943001,0.97194377 10.658423,1.4447813 10.093645,1.8037875 9.528867,2.1671719 8.5963263,2.346675 L 8.3380169,1.6505532 Q 10.321308,1.2696563 10.636533,0 H 9.9447888 q -1.6593094,0 -1.6593094,-1.3440844 0,-0.4290563 0.1707469,-0.8581125 0.175125,-0.4290563 0.5034844,-0.7136344 0.3327375,-0.2845781 0.8011969,-0.2845781 z m 0.1401,2.40359064 h 0.7749284 q -0.05254,-0.84497814 -0.2802,-1.23025314 -0.223285,-0.385275 -0.6479628,-0.385275 -0.2802,0 -0.4421906,0.1795031 -0.1576125,0.1795031 -0.2232844,0.4246781 -0.061294,0.2407969 -0.061294,0.4378126 0,0.3064687 0.2057718,0.44219058 0.21015,0.13134376 0.6742313,0.13134376 z M 6.0395007,0.10069688 q -0.4378125,0 -0.8099531,-0.18825938 Q 4.8617851,-0.2802 4.4633757,-0.66547501 4.1787976,-0.34587188 3.9161101,-0.17074688 3.6534226,0 3.1762069,0 H 2.9835694 v -0.79681876 h 0.1707469 q 0.2933344,0 0.4947282,-0.16636876 Q 3.8504382,-1.1339344 4.0080507,-1.401 4.1656632,-1.6680657 4.3188976,-1.9657782 4.4765101,-2.2678688 4.6691476,-2.5349344 4.8617851,-2.802 5.1332289,-2.9683688 q 0.2758218,-0.1707469 0.6786093,-0.1707469 0.4859719,0 0.8449782,0.2364188 0.3633844,0.2320406 0.5604,0.6260719 0.2013937,0.3940312 0.2013937,0.8800031 0,0.71363439 -0.3633843,1.10766565 -0.3590063,0.38965313 -1.0157251,0.38965313 z m -0.21015,-2.46488438 q -0.2189062,0 -0.3984093,0.1488562 -0.1795032,0.1444781 -0.3239813,0.3765188 -0.1444781,0.2320406 -0.2583094,0.4815937 0.2626875,0.2758219 0.5428875,0.45094691 0.3590063,0.23204063 0.6392063,0.23204063 0.6479625,0 0.6479625,-0.65234064 0,-0.455325 -0.2276625,-0.7442813 -0.2232844,-0.2933343 -0.6216938,-0.2933343 z m -5.62151237,1.57612499 q 1.68120007,0 1.68120007,-0.87124689 0,-0.4115438 -0.4203001,-0.8712469 -0.4203,-0.4597031 -1.39224373,-0.9894563 l 0.34587189,-0.6917437 q 1.12517814,0.5735344 1.66806564,1.2127406 0.5472656,0.6348282 0.5472656,1.3265719 0,0.82308754 -0.5691562,1.24338754 -0.5647782,0.42030001 -1.7950313,0.42030001 -0.58666876,0 -1.05950626,-0.105075 v -0.79244064 q 0.57353438,0.11820938 0.99383439,0.11820938 z"
       id="text2"
       transform="matrix(1.3333333,0,0,1.3333333,24.353333,84.484)"
       aria-label="ﯽﺳاﺮﮐﻮﻣد" />
    <path
       style="font-size:8.9664px;font-family:Vazirmatn"
       d="m 41.290692,-3.5550376 0.345872,-0.6479625 q 1.571746,0.7661719 2.342296,1.3703532 0.77055,0.5998031 0.77055,1.225875 0,0.77492814 -0.481593,1.16895939 -0.477216,0.39403126 -1.282791,0.39403126 -0.302091,0 -0.643584,-0.04815938 Q 41.999948,-0.1401 41.693479,-0.21015 41.38701,-0.28457813 41.17686,-0.35462813 40.795964,-0.21452813 40.283723,-0.105075 39.771482,0 39.294267,0 h -0.433435 v -0.79681876 h 0.376519 q 0.288956,0 0.507863,-0.0131344 0.223284,-0.0131344 0.485971,-0.0437812 -0.30209,-0.24517501 -0.437812,-0.53413121 -0.131344,-0.2933344 -0.131344,-0.6041813 0,-0.455325 0.214528,-0.7836844 0.214528,-0.3283594 0.569157,-0.5034844 0.354628,-0.1795031 0.774928,-0.1795031 0.188259,0 0.376518,0.048159 -0.148856,-0.07005 -0.306468,-0.1444782 z m 0.79244,2.71881571 q 0.192638,0.0218906 0.4203,0.0437812 0.227663,0.0175125 0.402788,0.0175125 0.529753,0 0.805575,-0.19701563 0.2802,-0.20139373 0.2802,-0.62169373 0,-0.2145282 -0.245175,-0.4640813 -0.245175,-0.2539312 -0.656719,-0.5209969 -0.407166,-0.2714437 -0.901894,-0.5341312 0.240797,0.1926375 0.385275,0.4640812 0.148857,0.2714438 0.148857,0.5735344 0,0.4115438 -0.166369,0.7048782 -0.161991,0.2889562 -0.472838,0.53413121 z M 40.415067,-2.0008032 q 0,0.2583094 0.214528,0.5166188 0.218906,0.2539313 0.63045,0.4115438 0.788062,-0.3196032 0.788062,-0.9194063 0,-0.3808969 -0.23204,-0.5779125 -0.227663,-0.2013938 -0.551644,-0.2013938 -0.376519,0 -0.612938,0.21015 -0.236418,0.21015 -0.236418,0.5604 z m -3.143495,-4.027875 h 0.739903 v 4.1854875 q 0,0.6173157 0.227663,0.8318438 0.227662,0.21452814 0.687365,0.21452814 h 0.109453 V 0 H 38.926503 Q 38.090281,0 37.678738,-0.44219063 37.271572,-0.88875939 37.271572,-1.8475688 Z m -2.749459,2.8282688 q 0.682988,0 1.151447,0.6129375 0.46846,0.6085594 0.485972,1.79065314 h 0.529753 V 0 H 36.089482 Q 35.993163,0.50348438 35.704207,0.97194377 35.419629,1.4447813 34.854851,1.8037875 34.290073,2.1671719 33.357532,2.346675 L 33.099223,1.6505532 Q 35.082513,1.2696563 35.397738,0 h -0.691743 q -1.65931,0 -1.65931,-1.3440844 0,-0.4290563 0.170747,-0.8581125 0.175125,-0.4290563 0.503484,-0.7136344 0.332738,-0.2845781 0.801197,-0.2845781 z m 0.1401,2.40359064 h 0.774928 q -0.05254,-0.84497814 -0.2802,-1.23025314 -0.223284,-0.385275 -0.647962,-0.385275 -0.2802,0 -0.442191,0.1795031 -0.157612,0.1795031 -0.223284,0.4246781 -0.06129,0.2407969 -0.06129,0.4378126 0,0.3064687 0.205772,0.44219058 0.21015,0.13134376 0.674231,0.13134376 z M 29.246472,-5.5602188 29.8813,-4.9253907 29.246472,-4.2905626 28.611644,-4.9253907 Z M 26.5189,-0.79681876 h 0.744281 q 0.512241,0 0.941297,-0.0919406 0.429056,-0.0919406 0.836222,-0.25393121 0.411544,-0.1619907 0.858113,-0.3808969 0.450946,-0.2232844 1.006968,-0.4772157 -0.310847,-0.1138312 -0.643584,-0.245175 -0.332738,-0.1357218 -0.634828,-0.2539312 -0.297713,-0.1182094 -0.520997,-0.1926375 -0.223284,-0.078806 -0.315225,-0.078806 -0.267066,0 -0.472838,0.1576125 -0.201393,0.1532344 -0.37214,0.3721407 l -0.11821,0.1488562 -0.669853,-0.3283594 0.06567,-0.105075 q 0.288956,-0.4684593 0.669853,-0.7486594 0.385275,-0.2845781 0.901894,-0.2845781 0.214528,0 0.516619,0.1094531 0.306469,0.1094532 0.665475,0.2758219 0.359006,0.1619907 0.744281,0.3327375 0.385275,0.1663688 0.77055,0.2845782 0.385275,0.1138312 0.735525,0.1269656 v 0.7574156 q -0.2802,0.030647 -0.718012,0.2057719 -0.433435,0.1707469 -1.129557,0.53850938 -0.5604,0.29771251 -1.041993,0.50786251 Q 28.861197,-0.21452813 28.362091,-0.105075 27.867362,0 27.250047,0 H 26.5189 Z m -8.344111,-3.49812194 0.612937,0.6085594 -0.612937,0.6173156 -0.608559,-0.6173156 z m -1.453538,0 0.612938,0.6085594 -0.612938,0.6173156 -0.608559,-0.6173156 z m 3.375535,1.7074688 0.731147,-0.087562 0.07443,1.0244812 q 0.02627,0.4159219 0.236419,0.6348282 0.214528,0.21890624 0.639206,0.21890624 h 0.105075 V 0 H 21.777986 Q 21.283258,0 20.963655,-0.18388125 20.64843,-0.37214063 20.442658,-0.78368439 20.079273,-0.36338438 19.510117,-0.17950313 18.945339,0 17.93837,0 h -0.731147 q -1.650553,0 -2.482397,-0.44656876 -0.827465,-0.44656875 -0.827465,-1.54547814 0,-0.3020906 0.06567,-0.5910469 0.07005,-0.2889562 0.179503,-0.5560219 l 0.678609,0.2539313 q -0.07005,0.1926375 -0.118209,0.4115437 -0.04378,0.2189063 -0.04378,0.4159219 0.0044,0.5122406 0.288957,0.7880625 0.284578,0.27144378 0.849356,0.37214066 0.564778,0.10069688 1.409756,0.10069688 h 0.731147 q 1.046372,0 1.619906,-0.21890624 0.577913,-0.2189063 0.577913,-0.7968188 0,-0.1795031 -0.01313,-0.385275 -0.0088,-0.2057719 -0.02627,-0.3896531 z m -9.982125,1.79065314 h 0.661097 q 0.556021,0 0.79244,-0.24955314 0.240797,-0.2495531 0.240797,-0.7661719 0,-0.21015 -0.01313,-0.3984094 -0.0088,-0.1882593 -0.02627,-0.3765187 l 0.731147,-0.087562 0.07005,1.0244812 q 0.05254,0.85373444 0.888759,0.85373444 h 0.09194 V 0 H 13.450792 Q 12.96482,0 12.671486,-0.175125 12.382529,-0.35025001 12.203026,-0.66985314 11.966608,-0.32398126 11.581333,-0.16199063 11.196058,0 10.775758,0 h -0.661097 z m 1.580503,1.49294065 0.612937,0.60855941 -0.612937,0.6173156 -0.60856,-0.6173156 z m -1.453538,0 L 10.854564,1.3046813 10.241626,1.9219969 9.633067,1.3046813 Z M 8.3984359,0.10069688 q -0.4378125,0 -0.8099532,-0.18825938 Q 7.2207202,-0.2802 6.8223108,-0.66547501 6.5377327,-0.34587188 6.2750452,-0.17074688 6.0123577,0 5.5351421,0 H 5.3425046 v -0.79681876 h 0.1707468 q 0.2933344,0 0.4947282,-0.16636876 Q 6.2093733,-1.1339344 6.3669858,-1.401 6.5245983,-1.6680657 6.6778327,-1.9657782 6.8354452,-2.2678688 7.0280827,-2.5349344 7.2207202,-2.802 7.492164,-2.9683688 q 0.2758219,-0.1707469 0.6786094,-0.1707469 0.4859718,0 0.8449781,0.2364188 0.3633844,0.2320406 0.5604,0.6260719 0.2013938,0.3940312 0.2013938,0.8800031 0,0.71363439 -0.3633844,1.10766565 -0.3590063,0.38965313 -1.015725,0.38965313 z m -0.21015,-2.46488438 q -0.2189063,0 -0.3984094,0.1488562 -0.1795032,0.1444781 -0.3239813,0.3765188 -0.1444781,0.2320406 -0.2583094,0.4815937 0.2626875,0.2758219 0.5428876,0.45094691 0.3590062,0.23204063 0.6392062,0.23204063 0.6479625,0 0.6479625,-0.65234064 0,-0.455325 -0.2276625,-0.7442813 Q 8.5866952,-2.3641875 8.1882859,-2.3641875 Z M 3.7532448,-6.0286782 h 0.7399031 v 4.1854875 q 0,0.6173157 0.2276625,0.8318438 0.2276625,0.21452814 0.6873657,0.21452814 H 5.5176292 V 0 H 5.4081761 Q 4.5719542,0 4.1604104,-0.44219063 3.7532448,-0.88875939 3.7532448,-1.8475688 Z M -1.9514519,0 h -0.1926375 v -0.79681876 h 0.1707469 q 0.2933344,0 0.4947281,-0.16636876 0.2013938,-0.17074688 0.3590063,-0.43781248 0.15761247,-0.2670657 0.31084685,-0.5647782 0.1576125,-0.3020906 0.35025,-0.5691562 0.1926375,-0.2670656 0.46408126,-0.4334344 0.27582188,-0.1707469 0.67860939,-0.1707469 0.6873656,0 1.0682625,0.4203 0.3808969,0.4159219 0.5122406,1.0376157 0.087562,0.4290562 0.2977126,0.6567187 0.2145281,0.22766254 0.4947281,0.22766254 H 3.1709544 V 0 H 3.0527451 Q 2.7725451,0 2.5054794,-0.11383125 2.2384138,-0.23204063 2.072045,-0.48597188 1.8881638,-0.21890625 1.61672,-0.05691563 1.3452763,0.10069688 0.9118419,0.10069688 q -0.43781251,0 -0.80995314,-0.18825938 Q -0.26587375,-0.2802 -0.66428313,-0.66547501 -0.94886126,-0.34587188 -1.2115488,-0.17074688 -1.4742363,0 -1.9514519,0 Z m 2.6531438,-2.3641875 q -0.21890626,0 -0.39840939,0.1488562 -0.17950312,0.1444781 -0.32398125,0.3765188 -0.14447813,0.2320406 -0.25830938,0.4815937 0.14447813,0.1488563 0.28895625,0.2670657 0.14447813,0.11820933 0.28020001,0.20139371 0.35025,0.21452813 0.61293751,0.21452813 0.64796255,0 0.64796255,-0.65234064 0,-0.455325 -0.2276625,-0.7442813 -0.2232844,-0.2933343 -0.6216938,-0.2933343 z m -3.6688686,-2.7757313 0.6129375,0.6085594 -0.6129375,0.6173156 -0.6085594,-0.6173156 z m -1.4535376,0 0.6129376,0.6085594 -0.6129376,0.6173156 -0.6085593,-0.6173156 z m -0.4728375,4.34310004 h 0.8975157 q 0.4378125,0 0.5910469,-0.25393124 0.1576125,-0.2539313 0.1576125,-0.6435844 0,-0.2845781 -0.052538,-0.6085594 -0.052538,-0.3239812 -0.1138313,-0.6523406 l 0.7617938,-0.1926375 q 0.074428,0.35025 0.1182093,0.6873656 0.043781,0.3371156 0.043781,0.6435844 0,0.525375 -0.1444781,0.93691876 -0.1444782,0.41154376 -0.4728375,0.64796251 Q -3.4356361,0 -3.9872799,0 h -0.9062719 z"
       id="text3"
       transform="matrix(1.3333333,0,0,1.3333333,495.24667,84.338667)"
       aria-label="هاﻮﺧ ﺖﯿﻣﺎﻤﺗ" />
    <path
       id="path3"
       d="m 30.61424,0 c 0,2.81793 -2.28436,5.1023 -5.10231,5.1023 -2.81795,0 -5.10229,-2.28437 -5.10229,-5.1023 0,-2.81793 2.28434,-5.1023 5.10229,-5.1023 2.81795,0 5.10231,2.28437 5.10231,5.1023 z"
       style="fill:#006633;fill-opacity:1;fill-rule:nonzero;stroke:none"
       transform="matrix(1.3333333,0,0,-1.3333333,47.592,71.606667)" />
    <path
       style="font-size:8.9664px;font-family:Vazirmatn"
       d="m 16.763842,-1.5936375 q 0,-0.1138313 -0.05254,-0.2933344 -0.04816,-0.1838813 -0.118209,-0.3414938 l -0.774928,-1.7556281 0.682987,-0.3196031 0.993834,2.3379187 q 0.201394,0.4728376 0.35025,0.7267688 0.153235,0.25393126 0.297713,0.35025001 0.148856,0.0919406 0.337116,0.0919406 h 0.183881 V 0 h -0.183881 q -0.345872,0 -0.564779,-0.08318438 -0.214528,-0.08318437 -0.37214,-0.24955313 -0.157613,-0.16636875 -0.319603,-0.4203 -0.306469,0.385275 -0.783685,0.56915626 -0.472837,0.17950312 -1.182093,0.17950312 -0.306469,0 -0.551644,-0.02626875 -0.245175,-0.03064687 -0.464082,-0.08318437 v -0.79244064 q 0.503485,0.11820938 0.950054,0.11820938 1.571747,0 1.571747,-0.80557499 z m -4.732754,-2.5436907 q -0.148856,-0.1138312 -0.253931,-0.2626875 -0.105075,-0.1488562 -0.105075,-0.4071656 0,-0.3765188 0.258309,-0.6173157 0.262687,-0.2407968 0.595425,-0.2407968 0.288956,0 0.529753,0.1401 l 0.0044,0.4334343 q -0.135722,-0.07005 -0.253931,-0.087562 -0.118209,-0.017512 -0.218906,-0.017512 -0.18826,0 -0.35025,0.1138313 -0.157613,0.1138312 -0.157613,0.3327375 0.0044,0.1357219 0.135722,0.2670656 0.135722,0.1269657 0.380897,0.091941 0.0088,0 0.01751,-0.00438 0.01313,-0.00438 0.02627,-0.00876 l 0.577913,-0.21015 0.06129,0.4334344 -1.668065,0.6610968 -0.06129,-0.4290562 z m -1.068263,3.34050944 h 0.906272 q 0.437813,0 0.591047,-0.25393124 0.157613,-0.2539313 0.157613,-0.6435844 0,-0.2845781 -0.05254,-0.6085594 -0.05254,-0.3239812 -0.113831,-0.6523406 l 0.761794,-0.1926375 q 0.07443,0.35025 0.118209,0.6873656 0.04378,0.3371156 0.04378,0.6435844 0,0.525375 -0.144478,0.93691876 -0.144478,0.41154376 -0.472837,0.64796251 Q 12.429497,0 11.877853,0 H 10.962825 Z M 8.9795346,-3.2004094 q 0.6829875,0 1.1514464,0.6129375 0.46846,0.6085594 0.485972,1.79065314 h 0.529753 V 0 H 10.546903 Q 10.450585,0.50348438 10.161628,0.97194377 9.8770502,1.4447813 9.3122721,1.8037875 8.7474939,2.1671719 7.8149533,2.346675 L 7.5566439,1.6505532 Q 9.5399346,1.2696563 9.8551596,0 H 9.1634158 q -1.6593094,0 -1.6593094,-1.3440844 0,-0.4290563 0.1707469,-0.8581125 0.175125,-0.4290563 0.5034844,-0.7136344 0.3327375,-0.2845781 0.8011969,-0.2845781 z m 0.1401,2.40359064 h 0.7749281 q -0.052537,-0.84497814 -0.2802,-1.23025314 -0.2232844,-0.385275 -0.6479625,-0.385275 -0.2802,0 -0.4421906,0.1795031 -0.1576125,0.1795031 -0.2232844,0.4246781 -0.061294,0.2407969 -0.061294,0.4378126 0,0.3064687 0.2057719,0.44219058 0.21015,0.13134376 0.6742313,0.13134376 z M 2.9639902,0 Q 2.4605059,0 2.184684,-0.17074688 1.9132402,-0.34587188 1.7512496,-0.66985314 1.5454777,-0.34587188 1.2258746,-0.17074688 0.90627146,0 0.31522457,0 h -0.4027875 v -0.79681876 h 0.41154375 q 0.56040001,0 0.81870938,-0.20577184 0.2583094,-0.21015 0.2583094,-0.7617938 0,-0.1138313 -0.013134,-0.2670656 -0.00876,-0.1576125 -0.030647,-0.4378125 l 0.7311469,-0.091941 0.07005,0.9150282 q 0.026269,0.3677625 0.2232844,0.6085594 0.2013938,0.24079684 0.5910469,0.24079684 0.4640812,0 0.63045,-0.24955314 0.1663688,-0.2495531 0.1663688,-0.7180125 0,-0.1138313 -0.013134,-0.2714438 -0.00876,-0.1576125 -0.030647,-0.4334343 l 0.7311469,-0.091941 0.07005,0.9150282 q 0.021891,0.3546281 0.1882594,0.6041812 0.1663687,0.24517504 0.5385094,0.24517504 0.3633843,0 0.4991062,-0.27144374 0.1357219,-0.2714438 0.1357219,-0.6348282 0,-0.3283593 -0.065672,-0.6610968 -0.061294,-0.3327375 -0.1094531,-0.5385094 l 0.7486594,-0.2013938 q 0.078806,0.2933344 0.1269656,0.6260719 0.048159,0.3283594 0.048159,0.6567188 0,0.4728375 -0.1313438,0.88875936 Q 6.3745497,-0.51661876 6.072459,-0.25830938 5.7747465,-0.00437813 5.2581278,0 4.8378278,0 4.5795184,-0.175125 4.321209,-0.35025001 4.1592184,-0.66985314 3.9140434,-0.31522501 3.6119528,-0.1576125 3.3142402,0 2.9639902,0 Z"
       id="text4"
       transform="matrix(1.3333333,0,0,1.3333333,69.224,52.445333)"
       aria-label="ﺪﺋﻮﺳ" />
    <path
       id="path4"
       d="m 107.1501,0 c 0,2.81793 -2.28435,5.1023 -5.1023,5.1023 -2.81794,0 -5.1023,-2.28437 -5.1023,-5.1023 0,-2.81793 2.28436,-5.1023 5.1023,-5.1023 2.81795,0 5.1023,2.28437 5.1023,5.1023 z"
       style="fill:#3498db;fill-opacity:1;fill-rule:nonzero;stroke:none"
       transform="matrix(1.3333333,0,0,-1.3333333,47.592,71.606667)" />
    <path
       style="font-size:8.9664px;font-family:Vazirmatn"
       d="m 16.591273,0 q -0.643585,0 -1.002591,-0.30209063 -0.354628,-0.30209063 -0.459703,-0.83184377 -0.253931,0.25393126 -0.551644,0.38965314 -0.293334,0.13572188 -0.661097,0.13572188 -0.626072,0 -1.05075,-0.33711564 -0.424678,-0.33711558 -0.424678,-0.93254068 0,-0.6742312 0.551644,-1.1645812 0.551644,-0.4947282 1.733737,-0.8581125 l -0.03065,-0.21015 0.7005,-0.1401 0.380896,2.6881687 q 0.05254,0.3852751 0.249554,0.57791256 0.201393,0.18825938 0.58229,0.18825938 h 0.135722 V 0 Z m -1.637419,-2.2021969 q 0,-0.1357219 -0.01751,-0.2583094 l -0.109453,-0.7311469 q -0.849356,0.3064688 -1.239009,0.6041813 -0.385275,0.2977125 -0.385275,0.6523406 0,0.2889563 0.197015,0.4378125 0.197016,0.1488563 0.534132,0.1488563 0.258309,0 0.49035,-0.1006969 0.236419,-0.1006969 0.380897,-0.2933344 0.148856,-0.1926375 0.148856,-0.4597031 z M 8.6581101,-0.79681876 H 9.319207 q 0.5560219,0 0.792441,-0.24955314 0.240797,-0.2495531 0.240797,-0.7661719 0,-0.21015 -0.01314,-0.3984094 -0.0088,-0.1882593 -0.02627,-0.3765187 l 0.731147,-0.087562 0.07005,1.0244812 q 0.05254,0.85373444 0.88876,0.85373444 h 0.09194 V 0 H 11.994241 Q 11.50827,0 11.214935,-0.175125 10.925979,-0.35025001 10.746476,-0.66985314 10.510057,-0.32398126 10.124782,-0.16199063 9.739507,0 9.319207,0 H 8.6581101 Z M 10.238613,0.69612189 10.851551,1.3046813 10.238613,1.9219969 9.6300539,1.3046813 Z m -1.4535373,0 L 9.3980132,1.3046813 8.7850757,1.9219969 8.1765164,1.3046813 Z M 5.7379006,-4.2467813 q 0.3808968,0.2670656 0.7924406,0.5647781 0.4115437,0.2933344 0.7661719,0.63045 0.3590062,0.3327375 0.5779125,0.7136344 Q 8.09771,-1.9614 8.09771,-1.5323438 8.0933318,-0.71801251 7.5329318,-0.35900626 6.97691,0 5.7554131,0 H 4.6871505 v -0.79681876 h 1.0638844 q 0.8493563,0 1.2171188,-0.14885626 0.3677625,-0.15323438 0.3677625,-0.60418128 0,-0.2889562 -0.2057719,-0.5647781 Q 6.9287506,-2.3904563 6.6047693,-2.6575219 6.2851662,-2.9289657 5.9174037,-3.1872751 5.5496412,-3.4499626 5.2256599,-3.7038938 q -0.1401,-0.1138313 -0.2145281,-0.2670656 -0.074428,-0.1532344 -0.074428,-0.3064688 0,-0.1795031 0.096319,-0.3371156 0.1006969,-0.1619907 0.3108469,-0.245175 l 3.1478719,-1.2784126 v 0.7749282 z M 3.9191574,0 Q 3.6170668,0 3.4112949,-0.07880625 3.2099012,-0.16199063 3.0960699,-0.25393125 3.0303981,0.31960313 2.7764668,0.85373439 2.5269137,1.3922438 2.0234293,1.7906532 1.5199449,2.1890625 0.69247927,2.3510532 L 0.43416989,1.6593094 Q 1.5024324,1.4272688 1.9402449,0.84497814 2.3780574,0.26706563 2.3780574,-0.52537501 q 0,-0.37214063 -0.083184,-0.77930629 -0.078806,-0.4115437 -0.2232843,-0.8362219 l 0.7267687,-0.245175 0.2364188,0.9150282 q 0.096319,0.3677625 0.3064687,0.52099686 0.21015,0.15323438 0.5297532,0.15323438 H 4.0373668 V 0 Z m -3.73016234,-5.1399188 0.61293751,0.6085594 -0.61293751,0.6173156 -0.60855938,-0.6173156 z m -1.45353756,0 0.61293755,0.6085594 -0.61293755,0.6173156 -0.6085593,-0.6173156 z M -1.73738,-0.79681876 h 0.89751567 q 0.43781251,0 0.59104689,-0.25393124 0.1576125,-0.2539313 0.1576125,-0.6435844 0,-0.2845781 -0.0525375,-0.6085594 -0.0525375,-0.3239812 -0.11383125,-0.6523406 l 0.76179376,-0.1926375 q 0.0744281,0.35025 0.11820938,0.6873656 0.0437812,0.3371156 0.0437812,0.6435844 0,0.525375 -0.14447813,0.93691876 Q 0.37725444,-0.46845938 0.04889506,-0.23204063 -0.27946432,0 -0.83110808,0 H -1.73738 Z"
       id="text5"
       transform="matrix(1.3333333,0,0,1.3333333,172.14667,52.44)"
       aria-label="ﻪﯿﮐﺮﺗ" />
    <path
       id="path5"
       d="m 183.68599,0 c 0,2.81793 -2.28436,5.1023 -5.10231,5.1023 -2.81795,0 -5.1023,-2.28437 -5.1023,-5.1023 0,-2.81793 2.28435,-5.1023 5.1023,-5.1023 2.81795,0 5.10231,2.28437 5.10231,5.1023 z"
       style="fill:#f1c40f;fill-opacity:1;fill-rule:nonzero;stroke:none"
       transform="matrix(1.3333333,0,0,-1.3333333,47.592,71.606667)" />
    <path
       style="font-size:8.9664px;font-family:Vazirmatn"
       d="m 21.835146,0 q -0.643584,0 -1.00259,-0.30209063 -0.354629,-0.30209063 -0.459704,-0.83184377 -0.253931,0.25393126 -0.551643,0.38965314 -0.293335,0.13572188 -0.661097,0.13572188 -0.626072,0 -1.05075,-0.33711564 -0.424678,-0.33711558 -0.424678,-0.93254068 0,-0.6742312 0.551643,-1.1645812 0.551644,-0.4947282 1.733738,-0.8581125 l -0.03065,-0.21015 0.7005,-0.1401 0.380897,2.6881687 q 0.05254,0.3852751 0.249553,0.57791256 0.201394,0.18825938 0.582291,0.18825938 h 0.135722 V 0 Z m -1.637419,-2.2021969 q 0,-0.1357219 -0.01751,-0.2583094 l -0.109453,-0.7311469 q -0.849356,0.3064688 -1.23901,0.6041813 -0.385275,0.2977125 -0.385275,0.6523406 0,0.2889563 0.197016,0.4378125 0.197016,0.1488563 0.534131,0.1488563 0.25831,0 0.49035,-0.1006969 0.236419,-0.1006969 0.380897,-0.2933344 0.148856,-0.1926375 0.148856,-0.4597031 z m -6.295743,1.40537814 h 0.661097 q 0.556021,0 0.79244,-0.24955314 0.240797,-0.2495531 0.240797,-0.7661719 0,-0.21015 -0.01313,-0.3984094 -0.0088,-0.1882593 -0.02627,-0.3765187 l 0.731147,-0.087562 0.07005,1.0244812 q 0.05254,0.85373444 0.888759,0.85373444 h 0.09194 V 0 h -0.100697 q -0.485972,0 -0.779306,-0.175125 -0.288957,-0.17512501 -0.46846,-0.49472814 -0.236418,0.34587188 -0.621693,0.50786251 Q 14.983381,0 14.563081,0 h -0.661097 z m 1.580503,1.49294065 0.612937,0.60855941 -0.612937,0.6173156 -0.60856,-0.6173156 z m -1.453538,0 L 14.641887,1.3046813 14.028949,1.9219969 13.42039,1.3046813 Z M 9.8916201,0 Q 9.3881358,0 9.1123139,-0.17074688 8.8408701,-0.34587188 8.6788795,-0.66985314 8.4731076,-0.34587188 8.1535045,-0.17074688 7.8339014,0 7.2428545,0 H 6.840067 v -0.79681876 h 0.4115437 q 0.5604,0 0.8187094,-0.20577184 0.2583094,-0.21015 0.2583094,-0.7617938 0,-0.1138313 -0.013134,-0.2670656 -0.00876,-0.1576125 -0.030647,-0.4378125 l 0.7311469,-0.091941 0.07005,0.9150282 q 0.026269,0.3677625 0.2232844,0.6085594 0.2013938,0.24079684 0.5910469,0.24079684 0.4640816,0 0.6304496,-0.24955314 0.166369,-0.2495531 0.166369,-0.7180125 0,-0.1138313 -0.01313,-0.2714438 -0.0088,-0.1576125 -0.03065,-0.4334343 l 0.731147,-0.091941 0.07005,0.9150282 q 0.02189,0.3546281 0.188259,0.6041812 0.166369,0.24517504 0.53851,0.24517504 0.363384,0 0.499106,-0.27144374 0.135722,-0.2714438 0.135722,-0.6348282 0,-0.3283593 -0.06567,-0.6610968 -0.06129,-0.3327375 -0.109453,-0.5385094 l 0.748659,-0.2013938 q 0.07881,0.2933344 0.126966,0.6260719 0.04816,0.3283594 0.04816,0.6567188 0,0.4728375 -0.131344,0.88875936 -0.131343,0.41592188 -0.433434,0.67423126 Q 12.702376,-0.00437813 12.185758,0 q -0.4203,0 -0.67861,-0.175125 -0.258309,-0.17512501 -0.4203,-0.49472814 -0.245175,0.35462813 -0.547265,0.51224064 Q 10.24187,0 9.8916201,0 Z M 6.494195,-0.74865939 q 0,2.55682509 -2.8063782,3.09533439 L 3.4295074,1.6505532 q 1.0069688,-0.1926376 1.606772,-0.6435844 0.5998031,-0.44656879 0.7092562,-1.12517818 -0.1663687,0.0525375 -0.385275,0.09194063 -0.2189062,0.03940313 -0.385275,0.03940313 -1.5980157,0 -1.5980157,-1.35721878 0,-0.3239813 0.096319,-0.6479625 0.1006969,-0.3283594 0.2889563,-0.5998031 0.1926375,-0.2758219 0.4684593,-0.4421907 0.2758219,-0.1663687 0.6260719,-0.1663687 0.4159219,0 0.7223907,0.2057719 0.3108468,0.2057718 0.5122406,0.5560218 0.2013937,0.35025 0.3020906,0.7880625 0.1006969,0.4378126 0.1006969,0.90189381 z m -1.4973188,-0.0306469 q 0.385275,0 0.7661719,-0.11383125 Q 5.7192669,-1.6286625 5.4916044,-2.0183157 5.2639419,-2.4123469 4.84802,-2.4123469 q -0.2889563,0 -0.4509469,0.1795031 -0.1576125,0.1795031 -0.2232844,0.4246781 -0.061294,0.2407969 -0.061294,0.4378126 0,0.3196031 0.2189062,0.45532496 0.2189063,0.13572188 0.665475,0.13572188 z M -0.04528753,2.3554313 -0.30359691,1.6593094 Q 0.7646656,1.4272688 1.2024781,0.84497814 1.6402906,0.26706563 1.6402906,-0.52537501 q 0,-0.37214063 -0.083184,-0.77930629 Q 1.4783,-1.716225 1.3338219,-2.1409032 l 0.7267687,-0.245175 q 0.315225,0.8975157 0.315225,1.72935944 0,0.73114689 -0.2583093,1.35284065 Q 1.863575,1.3221938 1.3250656,1.7556282 0.79093435,2.1934407 -0.04528753,2.3554313 Z"
       id="text6"
       transform="matrix(1.3333333,0,0,1.3333333,271.10667,52.434667)"
       aria-label="ﻪﯿﺳور" />
    <path
       id="path6"
       d="m 262.7732,0 c 0,4.22704 -3.42661,7.65364 -7.65365,7.65364 -4.22705,0 -7.65365,-3.4266 -7.65365,-7.65364 0,-4.22704 3.4266,-7.65364 7.65365,-7.65364 4.22704,0 7.65365,3.4266 7.65365,7.65364 z"
       style="fill:#be1e2d;fill-opacity:1;fill-rule:nonzero;stroke:none"
       transform="matrix(1.3333333,0,0,-1.3333333,47.592,71.606667)" />
    <path
       style="font-weight:800;font-size:8.9664px;font-family:Vazirmatn;fill:#be1e2d"
       d="m 0.56040001,-0.77055001 q 0,-0.32835939 0.23641875,-0.54726559 Q 1.0332375,-1.5411 1.365975,-1.5411 q 0.3371157,0 0.5691563,0.2232844 0.2364187,0.2189062 0.2364187,0.54726559 0,0.3327375 -0.2364187,0.55164376 Q 1.6987125,0 1.365975,0 1.0244813,0 0.79244064,-0.21890625 0.56040001,-0.43781251 0.56040001,-0.77055001 Z M 30.093586,-6.1381314 v 6.13375327 H 28.911493 V -6.1381314 Z m -3.953447,5.36758139 q 0,-0.32835939 0.236418,-0.54726559 0.236419,-0.2232844 0.569157,-0.2232844 0.337115,0 0.569156,0.2232844 0.236419,0.2189062 0.236419,0.54726559 0,0.3327375 -0.236419,0.55164376 Q 27.278451,0 26.945714,0 26.60422,0 26.372179,-0.21890625 26.140139,-0.43781251 26.140139,-0.77055001 Z M 22.379328,0.51661876 23.167391,1.3046813 22.379328,2.0883657 21.595644,1.3046813 Z M 19.375935,-1.2652781 h 0.744281 q 0.564778,0 1.05075,-0.105075 0.485972,-0.1094532 0.998212,-0.3239813 0.516619,-0.2145281 1.173338,-0.5341313 -0.674231,-0.245175 -1.090153,-0.4115437 -0.415922,-0.1707469 -0.569156,-0.1707469 -0.236419,0 -0.429057,0.1488563 -0.188259,0.1444781 -0.310847,0.3064687 l -0.23204,0.2933344 -0.9807,-0.4815938 0.197015,-0.315225 q 0.310847,-0.5078625 0.744282,-0.8406 0.433434,-0.3371156 1.015725,-0.3371156 0.245175,0 0.569156,0.1138312 0.328359,0.1138313 0.7005,0.2845782 0.376519,0.1663687 0.774928,0.3371156 0.402788,0.1663687 0.792441,0.2845781 0.394031,0.1182094 0.753037,0.1225875 v 1.1602032 q -0.332737,0.043781 -0.617315,0.1488562 -0.284579,0.1006969 -0.591047,0.2583094 -0.306469,0.1576125 -0.713635,0.37651876 -0.5604,0.2977125 -1.059506,0.51224063 -0.494728,0.21452813 -1.020103,0.32835938 Q 20.755044,0 20.107082,0 h -0.731147 z m 1.159502,-1.7424938 1.094531,-0.1357219 0.08756,1.2521438 q 0.02189,0.3327375 0.183881,0.4815937 0.161991,0.1444782 0.516619,0.1444782 h 0.09194 V 0 H 22.409275 Q 21.971462,0 21.656237,-0.1576125 21.34539,-0.31522501 21.143996,-0.56915626 20.876931,-0.30209063 20.509168,-0.14885625 20.145784,0 19.73424,0 h -0.4203 v -1.2652781 h 0.4203 q 0.481594,0 0.661097,-0.1619907 0.183881,-0.1663687 0.183881,-0.6041812 0,-0.2583094 -0.01313,-0.4991063 -0.01313,-0.245175 -0.03065,-0.4772156 z m 0.240797,-2.3204063 0.788062,0.7880625 -0.788062,0.7836844 -0.783685,-0.7836844 z m -3.274836,-0.8099532 h 1.182094 v 4.0016064 q 0,0.4640812 0.135722,0.6698531 0.135722,0.2013938 0.5604,0.2013938 h 0.109453 V 0 H 19.379614 Q 18.398914,0 17.947967,-0.50786251 17.501398,-1.015725 17.501398,-2.03145 Z M 16.270199,0 Q 15.871789,0 15.61348,-0.15323438 15.438355,0.85373439 14.750989,1.5104531 14.068002,2.1671719 12.925311,2.3860782 L 12.491877,1.2171188 q 0.634828,-0.1357219 1.090153,-0.36338441 0.459703,-0.22328438 0.709256,-0.59980314 0.249553,-0.37651875 0.249553,-0.97194376 0,-0.39840939 -0.126966,-0.89313749 -0.126965,-0.4991063 -0.271443,-0.9281625 l 1.177715,-0.3808969 0.253932,0.9894562 q 0.07443,0.2802 0.218906,0.4728376 0.144478,0.1926375 0.429056,0.1926375 h 0.170747 V 0 Z M 10.670577,0 H 9.72928 v -1.2652781 h 0.945675 q 0.332737,0 0.455325,-0.2057719 0.126966,-0.21015 0.126966,-0.5297532 0,-0.2977125 -0.07443,-0.6479625 -0.07005,-0.3546281 -0.144478,-0.6917437 l 1.147069,-0.2977125 q 0.08318,0.4115437 0.131344,0.8187094 0.05254,0.4027875 0.05254,0.77055 0,0.5822906 -0.157612,1.0463719 -0.153234,0.46408122 -0.525375,0.73552497 Q 11.314161,0 10.670577,0 Z M 9.8431112,0.56040001 10.587392,1.295925 11.322917,0.56040001 12.071577,1.3046813 11.322917,2.0577188 10.587392,1.3134375 9.8431112,2.0577188 9.09883,1.3046813 Z M 9.2301739,-6.1381314 v 6.13375327 H 8.0480801 V -6.1381314 Z"
       id="text7"
       transform="matrix(1.3333333,0,0,1.3333333,364.92533,43.982667)"
       aria-label=".ا.جناﺮﯾا" />
    <path
       id="path7"
       d="m 336.75772,0 c 0,2.81793 -2.28436,5.1023 -5.10231,5.1023 -2.81795,0 -5.10229,-2.28437 -5.10229,-5.1023 0,-2.81793 2.28434,-5.1023 5.10229,-5.1023 2.81795,0 5.10231,2.28437 5.10231,5.1023 z"
       style="fill:#808080;fill-opacity:1;fill-rule:nonzero;stroke:none"
       transform="matrix(1.3333333,0,0,-1.3333333,47.592,71.606667)" />
    <path
       style="font-size:8.9664px;font-family:Vazirmatn"
       d="m 32.932783,-3.2398126 -0.170747,-0.1532343 0.464081,-0.5998032 q 0.577913,0.4772157 1.015725,0.8931375 0.442191,0.4115438 0.691744,0.8099532 0.249553,0.3940312 0.249553,0.8187094 0,0.66547499 -0.455325,1.05950624 -0.455325,0.39403126 -1.199606,0.39403126 -0.761794,0 -1.208363,-0.37214063 -0.446568,-0.37651876 -0.446568,-0.95443127 0,-0.5078625 0.271443,-0.945675 0.271444,-0.4421906 0.788063,-0.9500532 z m 1.506075,1.7337376 q 0,-0.2013938 -0.148856,-0.4115438 -0.144478,-0.2145281 -0.367763,-0.4246781 -0.218906,-0.2145281 -0.446569,-0.4115438 -0.402787,0.385275 -0.63045,0.6917438 -0.227662,0.3020906 -0.227662,0.6348281 0,0.2539313 0.214528,0.44219066 0.214528,0.18825938 0.691744,0.18825938 0.481594,0 0.696122,-0.17512501 0.218906,-0.17512503 0.218906,-0.53413123 z M 30.709817,0 q -0.302091,0 -0.507863,-0.07880625 -0.201394,-0.08318438 -0.315225,-0.175125 -0.06567,0.57353438 -0.319603,1.10766564 -0.249553,0.53850941 -0.753037,0.93691881 -0.503485,0.3984093 -1.33095,0.5604 l -0.25831,-0.6917438 q 1.068263,-0.2320406 1.506075,-0.81433126 0.437813,-0.57791251 0.437813,-1.37035315 0,-0.37214063 -0.08319,-0.77930629 -0.07881,-0.4115437 -0.223284,-0.8362219 l 0.726769,-0.245175 0.236418,0.9150282 q 0.09632,0.3677625 0.306469,0.52099686 0.21015,0.15323438 0.529753,0.15323438 h 0.166369 V 0 Z m -5.617136,-4.2467813 q 0.380897,0.2670656 0.792441,0.5647781 0.411544,0.2933344 0.766172,0.63045 0.359006,0.3327375 0.577912,0.7136344 0.223285,0.3765188 0.223285,0.805575 -0.0044,0.81433129 -0.564778,1.17333754 Q 26.331691,0 25.110194,0 h -1.068263 v -0.79681876 h 1.063885 q 0.849356,0 1.217118,-0.14885626 0.367763,-0.15323438 0.367763,-0.60418128 0,-0.2889562 -0.205772,-0.5647781 -0.201394,-0.2758219 -0.525375,-0.5428875 -0.319603,-0.2714438 -0.687366,-0.5297532 -0.367762,-0.2626875 -0.691743,-0.5166187 -0.1401,-0.1138313 -0.214529,-0.2670656 -0.07443,-0.1532344 -0.07443,-0.3064688 0,-0.1795031 0.09632,-0.3371156 0.100697,-0.1619907 0.310847,-0.245175 l 3.147872,-1.2784126 v 0.7749282 z m -1.362194,6.5015157 q -0.945675,0 -1.514831,-0.3458719 -0.564778,-0.3458718 -0.81871,-0.92378436 -0.249553,-0.57353438 -0.249553,-1.26090002 0,-0.2977125 0.04378,-0.68736564 0.04816,-0.38965308 0.214529,-0.88875938 l 0.696121,0.2583094 q -0.126965,0.4378125 -0.166368,0.77492811 -0.03502,0.33711563 -0.03502,0.56915626 0,0.47283751 0.166368,0.86249064 0.166369,0.38965309 0.564779,0.62169379 0.402787,0.2320406 1.098909,0.2320406 0.656719,0 1.125178,-0.1619906 0.472838,-0.1619907 0.722391,-0.38527503 0.253931,-0.22328438 0.253931,-0.40716564 0,-0.21015 -0.183881,-0.35900625 -0.179503,-0.14885625 -0.586669,-0.14885625 h -0.647963 q -0.08756,0 -0.126965,-0.07442813 -0.0394,-0.07880625 -0.07443,-0.20139375 l -0.11821,-0.42030001 q -0.0044,-0.035025 0.01751,-0.0656719 0.02189,-0.035025 0.07881,-0.035025 h 2.429859 v 0.79681877 h -0.179503 q 0.06567,0.13134375 0.08319,0.24955312 0.02189,0.11820938 0.02189,0.24517501 0,0.28895625 -0.170747,0.59542504 -0.166368,0.3108468 -0.516618,0.5735344 -0.345872,0.2626875 -0.875625,0.4246781 -0.529753,0.1619906 -1.252144,0.1619906 z M 16.83932,0 Q 16.659816,0 16.471557,-0.00875625 16.283298,-0.0175125 16.09066,-0.035025 v -0.75303751 q 0.271444,0.0175125 0.459703,0.0306469 0.18826,0.008756 0.376519,0.008756 0.179503,0 0.310847,-0.004378 0.135722,-0.004378 0.223284,-0.0175125 0,0 -0.06567,-0.39403129 -0.06567,-0.3984094 -0.218906,-1.0726406 -0.153234,-0.6786094 -0.4203,-1.5279657 -0.262687,-0.8493562 -0.661097,-1.75125 l 0.67861,-0.315225 q 0.394031,0.9325406 0.661097,1.8125438 0.271443,0.8800031 0.429056,1.5848813 0.16199,0.7005 0.23204,1.1164219 0.07005,0.41154371 0.07005,0.41154371 0.32836,-0.0919406 0.586669,-0.28020001 0.25831,-0.1926375 0.407166,-0.5560219 0.148856,-0.3677625 0.148856,-0.9894562 v -3.2967282 h 0.739903 v 3.3098625 q 0,0.8274657 -0.236419,1.3615969 -0.236418,0.52975316 -0.665475,0.82746567 -0.429056,0.29333438 -1.015725,0.41154375 Q 17.544198,0 16.83932,0 Z m -6.256342,0 h -0.192637 v -0.79681876 h 0.170747 q 0.293334,0 0.494728,-0.16636876 Q 11.25721,-1.1339344 11.414822,-1.401 q 0.157613,-0.2670657 0.310847,-0.5647782 0.157613,-0.3020906 0.35025,-0.5691562 Q 12.268557,-2.802 12.54,-2.9683688 q 0.275822,-0.1707469 0.67861,-0.1707469 0.687365,0 1.068262,0.4203 0.380897,0.4159219 0.512241,1.0376157 0.08756,0.4290562 0.297712,0.6567187 0.214528,0.22766254 0.494728,0.22766254 h 0.113832 V 0 h -0.11821 q -0.2802,0 -0.547265,-0.11383125 -0.267066,-0.11820938 -0.433435,-0.37214063 -0.183881,0.26706563 -0.455325,0.42905625 -0.271443,0.15761251 -0.704878,0.15761251 -0.437812,0 -0.809953,-0.18825938 Q 12.268557,-0.2802 11.870147,-0.66547501 11.585569,-0.34587188 11.322882,-0.17074688 11.060194,0 10.582978,0 Z m 2.653144,-2.3641875 q -0.218906,0 -0.398409,0.1488562 -0.179503,0.1444781 -0.323981,0.3765188 -0.144479,0.2320406 -0.25831,0.4815937 0.144478,0.1488563 0.288956,0.2670657 0.144479,0.11820933 0.2802,0.20139371 0.35025,0.21452813 0.612938,0.21452813 0.647962,0 0.647962,-0.65234064 0,-0.455325 -0.227662,-0.7442813 -0.223284,-0.2933343 -0.621694,-0.2933343 z m -5.9279803,-3.393047 0.5910469,0.5910469 -0.5910469,0.5910469 -0.5910469,-0.5910469 z m 0.7486594,1.1076657 0.5910469,0.5910469 -0.5910469,0.5910468 -0.5910469,-0.5910468 z m -1.4973188,0 0.5910469,0.5910469 -0.5910469,0.5910468 -0.5910468,-0.5910468 z M 6.371223,0 Q 5.8677386,0 5.5919167,-0.17074688 5.3204729,-0.34587188 5.1584823,-0.66985314 4.9527104,-0.34587188 4.6331073,-0.17074688 4.3135042,0 3.7224573,0 H 3.3196698 v -0.79681876 h 0.4115437 q 0.5604,0 0.8187094,-0.20577184 0.2583094,-0.21015 0.2583094,-0.7617938 0,-0.1138313 -0.013134,-0.2670656 -0.00876,-0.1576125 -0.030647,-0.4378125 l 0.7311468,-0.091941 0.07005,0.9150282 q 0.026269,0.3677625 0.2232844,0.6085594 0.2013938,0.24079684 0.5910469,0.24079684 0.4640813,0 0.63045,-0.24955314 0.1663688,-0.2495531 0.1663688,-0.7180125 0,-0.1138313 -0.013134,-0.2714438 -0.00876,-0.1576125 -0.030647,-0.4334343 l 0.7311469,-0.091941 0.07005,0.9150282 q 0.021891,0.3546281 0.1882594,0.6041812 0.1663687,0.24517504 0.5385094,0.24517504 0.3633844,0 0.4991062,-0.27144374 0.1357219,-0.2714438 0.1357219,-0.6348282 0,-0.3283593 -0.065672,-0.6610968 -0.061294,-0.3327375 -0.1094531,-0.5385094 l 0.7486594,-0.2013938 q 0.078806,0.2933344 0.1269656,0.6260719 0.04816,0.3283594 0.04816,0.6567188 0,0.4728375 -0.1313439,0.88875936 Q 9.7817824,-0.51661876 9.4796918,-0.25830938 9.1819793,-0.00437813 8.6653605,0 8.2450605,0 7.9867511,-0.175125 7.7284417,-0.35025001 7.5664511,-0.66985314 7.3212761,-0.31522501 7.0191855,-0.1576125 6.721473,0 6.371223,0 Z"
       id="text8"
       transform="matrix(1.3333333,0,0,1.3333333,465.608,52.44)"
       aria-label="هﺮﮐﯽﻟﺎﻤﺷ" />
    <path
       id="path8"
       d="m 216.85161,-20.40962 v 58.67753 h 76.53586 v -58.67753 z"
       style="fill:none;stroke:#be1e2d;stroke-width:0.99628;stroke-linecap:butt;stroke-linejoin:miter;stroke-miterlimit:10;stroke-dasharray:2.98883, 2.98883;stroke-dashoffset:0;stroke-opacity:1"
       transform="matrix(1.3333333,0,0,-1.3333333,47.592,71.606667)" />
    <path
       style="font-size:7.9701px;font-family:Vazirmatn;fill:#be1e2d"
       d="m 49.880155,-3.1600201 0.307441,-0.5759642 q 1.397102,0.6810388 2.082033,1.2180865 0.68493,0.5331561 0.68493,1.0896621 0,0.68882213 -0.428081,1.03907066 -0.42419,0.35024854 -1.140254,0.35024854 -0.268524,0 -0.572073,-0.04280816 -0.303548,-0.04280815 -0.575964,-0.10507456 -0.272415,-0.0661581 -0.459215,-0.12842446 -0.338573,0.12453281 -0.793896,0.22182407 Q 48.529753,0 48.105563,0 h -0.385274 v -0.70828036 h 0.334682 q 0.256849,0 0.451432,-0.011675 0.198474,-0.011675 0.431973,-0.0389165 -0.268524,-0.21793242 -0.389165,-0.47478138 -0.11675,-0.2607405 -0.11675,-0.5370477 0,-0.4047316 0.190691,-0.6966054 0.190691,-0.2918738 0.505915,-0.4475398 0.315224,-0.1595577 0.688822,-0.1595577 0.167341,0 0.334682,0.042808 -0.132316,-0.062266 -0.272416,-0.1284245 z m 0.704389,2.41671488 q 0.171233,0.0194583 0.373598,0.0389165 0.202366,0.0155666 0.358032,0.0155666 0.47089,0 0.716064,-0.17512427 0.249066,-0.17901592 0.249066,-0.55261432 0,-0.1906909 -0.217933,-0.412515 -0.217932,-0.2257157 -0.583747,-0.4631064 -0.361924,-0.2412823 -0.80168,-0.4747813 0.21404,0.1712326 0.342465,0.4125149 0.132316,0.2412824 0.132316,0.5098062 0,0.3658152 -0.147883,0.6265557 -0.143991,0.25684896 -0.420298,0.47478138 z M 49.101825,-1.7784842 q 0,0.2296074 0.190691,0.4592147 0.194583,0.2257158 0.560398,0.36581516 0.700497,-0.28409046 0.700497,-0.81724656 0,-0.3385736 -0.206258,-0.5136979 -0.202365,-0.1790159 -0.490348,-0.1790159 -0.334681,0 -0.544831,0.1867992 -0.210149,0.1867993 -0.210149,0.4981313 z m -2.794206,-3.5803183 h 0.657689 v 3.7204177 q 0,0.5487227 0.202366,0.73941357 0.202365,0.19069087 0.610989,0.19069087 h 0.09729 V 0 h -0.09729 Q 47.035357,0 46.669542,-0.39305669 46.307619,-0.79000502 46.307619,-1.6422764 Z m -2.443955,2.5140061 q 0.607097,0 1.023504,0.544831 0.416407,0.5409394 0.431973,1.59168504 h 0.47089 V 0 H 45.256875 Q 45.171259,0.44753979 44.91441,0.86394638 44.661452,1.2842446 44.159429,1.6033599 43.657407,1.9263669 42.828485,2.0859246 L 42.598878,1.4671522 Q 44.361795,1.1285786 44.641994,0 h -0.614881 q -1.474935,0 -1.474935,-1.1947367 0,-0.3813817 0.151774,-0.7627634 0.155666,-0.3813818 0.44754,-0.634339 0.295765,-0.2529573 0.712172,-0.2529573 z m 0.124533,2.13651604 h 0.688822 q -0.0467,-0.75108854 -0.249066,-1.09355374 -0.198474,-0.3424652 -0.575964,-0.3424652 -0.249066,0 -0.393057,0.1595576 -0.140099,0.1595577 -0.198474,0.3774901 -0.05448,0.2140408 -0.05448,0.389165 0,0.27241556 0.182908,0.39305672 0.186799,0.11674952 0.599314,0.11674952 z m -4.813971,-4.23411564 0.564289,0.5642894 -0.564289,0.5642893 -0.56429,-0.5642893 z m -2.424499,4.23411564 h 0.661581 q 0.455323,0 0.836705,-0.0817247 0.381382,-0.0817247 0.743305,-0.22571568 0.365815,-0.1439911 0.762763,-0.3385736 0.40084,-0.1984742 0.89508,-0.4241899 -0.276307,-0.1011829 -0.572073,-0.2179324 -0.295765,-0.1206412 -0.564289,-0.2257158 -0.264632,-0.1050745 -0.463106,-0.1712326 -0.198474,-0.07005 -0.280199,-0.07005 -0.237391,0 -0.420298,0.1400994 -0.179016,0.1362078 -0.330791,0.3307903 l -0.105074,0.1323161 -0.595423,-0.2918737 0.05837,-0.0934 q 0.256849,-0.4164065 0.595423,-0.6654722 0.342465,-0.2529572 0.80168,-0.2529572 0.19069,0 0.459214,0.097291 0.272416,0.097291 0.591531,0.245174 0.319116,0.1439911 0.661581,0.2957654 0.342465,0.1478827 0.68493,0.2529573 0.342465,0.1011829 0.653797,0.1128579 v 0.6732555 q -0.249065,0.027241 -0.63823,0.1829075 -0.385274,0.1517744 -1.004046,0.47867302 -0.498131,0.26463223 -0.926213,0.45143145 -0.42419,0.18290756 -0.867838,0.28019882 Q 37.948356,0 37.399633,0 h -0.649906 z m -7.41696,-3.10942864 0.544831,0.5409394 -0.544831,0.5487227 -0.540939,-0.5487227 z m -1.292028,0 0.544831,0.5409394 -0.544831,0.5487227 -0.540939,-0.5487227 z m 3.000463,1.5177436 0.649905,-0.077833 0.06616,0.9106462 q 0.02335,0.3697068 0.210149,0.56428932 0.190691,0.19458252 0.568181,0.19458252 h 0.0934 V 0 h -0.0934 Q 32.095839,0 31.811748,-0.16344931 31.53155,-0.33079028 31.348642,-0.69660541 31.025635,-0.32300698 30.519721,-0.15955766 30.017698,0 29.122618,0 h -0.649906 q -1.467152,0 -2.206565,-0.39694834 -0.735522,-0.39694833 -0.735522,-1.37375256 0,-0.2685239 0.05837,-0.5253728 0.06227,-0.2568489 0.159557,-0.4942396 l 0.603206,0.2257157 q -0.06227,0.1712326 -0.105075,0.3658151 -0.03892,0.1945826 -0.03892,0.3697068 0.0039,0.4553231 0.256849,0.7004971 0.252957,0.24128232 0.75498,0.33079028 0.502023,0.089508 1.253111,0.089508 h 0.649906 q 0.930105,0 1.439911,-0.19458252 0.513698,-0.19458252 0.513698,-0.70828032 0,-0.1595577 -0.01168,-0.3424653 -0.0078,-0.1829075 -0.02335,-0.3463569 z m -8.872962,1.59168504 h 0.58764 q 0.494239,0 0.704388,-0.22182407 0.214041,-0.22182407 0.214041,-0.68103877 0,-0.1867993 -0.01168,-0.3541402 -0.0078,-0.167341 -0.02335,-0.334682 l 0.649906,-0.077833 0.06227,0.9106462 q 0.0467,0.75887184 0.790005,0.75887184 h 0.08172 V 0 h -0.08951 Q 24.701705,0 24.440964,-0.15566601 24.184115,-0.31133203 24.024558,-0.5954225 23.814408,-0.28798213 23.471943,-0.14399106 23.129478,0 22.75588,0 h -0.58764 z m 1.404886,1.32705277 0.544831,0.54093939 -0.544831,0.5487227 -0.540939,-0.5487227 z m -1.292028,0 0.544831,0.54093939 -0.544831,0.5487227 -0.540939,-0.5487227 z M 20.642714,0.08950796 q -0.389165,0 -0.719955,-0.16734097 Q 19.59586,-0.24906562 19.24172,-0.59153085 18.988763,-0.30744038 18.755264,-0.15177436 18.521765,0 18.097575,0 h -0.171233 v -0.70828036 h 0.151775 q 0.26074,0 0.439756,-0.14788272 0.179016,-0.15177432 0.319115,-0.38916502 0.1401,-0.2373907 0.276308,-0.5020229 0.140099,-0.2685239 0.311332,-0.5059146 0.171232,-0.2373906 0.412515,-0.3852733 0.245173,-0.1517744 0.603205,-0.1517744 0.431973,0 0.751089,0.2101491 0.323007,0.2062575 0.498131,0.556506 0.179016,0.3502485 0.179016,0.7822217 0,0.63433904 -0.323007,0.98458758 -0.319115,0.34635688 -0.902863,0.34635688 z M 20.455915,-2.1014912 q -0.194583,0 -0.35414,0.1323161 -0.159558,0.1284245 -0.287982,0.334682 -0.128425,0.2062574 -0.229608,0.4280815 0.233499,0.24517396 0.482565,0.40083998 0.319115,0.20625747 0.568181,0.20625747 0.575964,0 0.575964,-0.57985595 0,-0.4047316 -0.202366,-0.6615805 -0.198474,-0.2607406 -0.552614,-0.2607406 z m -3.942241,-3.2573113 h 0.657688 v 3.7204177 q 0,0.5487227 0.202366,0.73941357 0.202366,0.19069087 0.610989,0.19069087 h 0.09729 V 0 h -0.09729 Q 17.241412,0 16.875597,-0.39305669 16.513674,-0.79000502 16.513674,-1.6422764 Z M 11.442853,0 H 11.27162 v -0.70828036 h 0.151774 q 0.260741,0 0.439757,-0.14788272 0.179016,-0.15177432 0.319115,-0.38916502 0.1401,-0.2373907 0.276307,-0.5020229 0.1401,-0.2685239 0.311332,-0.5059146 0.171233,-0.2373906 0.412515,-0.3852733 0.245174,-0.1517744 0.603206,-0.1517744 0.610989,0 0.949563,0.3735984 0.338573,0.3697068 0.455323,0.9223212 0.07783,0.3813817 0.264632,0.58374752 0.190691,0.20236582 0.439757,0.20236582 h 0.101182 V 0 h -0.105074 q -0.249066,0 -0.486456,-0.10118291 -0.237391,-0.10507456 -0.385274,-0.33079028 -0.163449,0.23739067 -0.404731,0.38138174 -0.241283,0.14009941 -0.626556,0.14009941 -0.389165,0 -0.719955,-0.16734097 -0.326899,-0.17123261 -0.681039,-0.51369784 -0.252957,0.28409047 -0.486457,0.43975649 Q 11.867042,0 11.442853,0 Z m 2.35834,-2.1014912 q -0.194583,0 -0.35414,0.1323161 -0.159558,0.1284245 -0.287983,0.334682 -0.128424,0.2062574 -0.229607,0.4280815 0.128424,0.1323161 0.256849,0.23739066 0.128424,0.10507456 0.249066,0.17901592 0.311332,0.19069087 0.544831,0.19069087 0.575964,0 0.575964,-0.57985595 0,-0.4047316 -0.202366,-0.6615805 -0.198474,-0.2607406 -0.552614,-0.2607406 z m -3.261203,-2.4673063 0.544831,0.5409394 -0.544831,0.5487227 -0.5409397,-0.5487227 z m -1.2920282,0 0.5448311,0.5409394 -0.5448311,0.5487227 -0.5409394,-0.5487227 z m -0.4202982,3.86051714 h 0.7977883 q 0.3891651,0 0.5253731,-0.22571573 0.140099,-0.22571571 0.140099,-0.57207261 0,-0.2529573 -0.0467,-0.5409394 -0.0467,-0.2879821 -0.101183,-0.5798559 l 0.677148,-0.1712326 q 0.06616,0.311332 0.105074,0.6109891 0.03892,0.2996571 0.03892,0.5720726 0,0.466998 -0.128425,0.83281318 -0.128424,0.36581513 -0.420298,0.57596425 Q 10.123583,0 9.6332352,0 H 8.8276636 Z M 4.5627572,0 Q 3.9906846,0 3.6715692,-0.26852387 3.3563455,-0.53704775 3.2629459,-1.0079374 3.0372302,-0.78222172 2.772598,-0.66158056 2.5118574,-0.5409394 2.1849588,-0.5409394 q -0.556506,0 -0.9339961,-0.29965708 Q 0.87347262,-1.1402536 0.87347262,-1.669518 q 0,-0.5993142 0.49034798,-1.035179 0.4903479,-0.4397565 1.5410935,-0.7627635 l -0.027242,-0.1867992 0.622664,-0.1245328 0.3385736,2.3894733 q 0.0467,0.3424653 0.2218241,0.51369787 0.1790159,0.16734097 0.5175895,0.16734097 H 4.6989649 V 0 Z M 3.1072799,-1.9575001 q 0,-0.1206412 -0.015567,-0.2296074 l -0.097291,-0.6499056 q -0.7549802,0.2724155 -1.1013371,0.5370477 -0.3424652,0.2646323 -0.3424652,0.5798559 0,0.256849 0.1751242,0.3891651 0.1751243,0.1323161 0.4747814,0.1323161 0.2296074,0 0.4358648,-0.089508 0.2101491,-0.089508 0.3385736,-0.2607405 0.1323161,-0.1712327 0.1323161,-0.4086233 z m -5.4638771,1.24921974 h 0.4553231 q 0.4942396,0 0.7043887,-0.22182407 0.21404078,-0.22182407 0.21404078,-0.68103877 0,-0.1867993 -0.011675,-0.3541402 -0.007783,-0.167341 -0.0233499,-0.334682 l 0.64990563,-0.077833 0.0622664,0.9106462 q 0.0466998,0.75887184 0.79000502,0.75887184 h 0.0817247 V 0 h -0.089508 Q 0.04455107,0 -0.2161895,-0.15566601 -0.47303843,-0.31133203 -0.63259609,-0.5954225 -0.84274521,-0.28798213 -1.1852104,-0.14399106 -1.5276757,0 -1.9012741,0 h -0.4553231 z m 0.80168,1.30370286 0.56428928,0.5642893 -0.56428928,0.5642893 -0.5642893,-0.5642893 z m -3.5375102,-5.7129427 0.5253728,0.5253728 -0.5253728,0.5253728 -0.5253728,-0.5253728 z m 0.6654722,0.9845875 0.5253728,0.5253728 -0.5253728,0.5253728 -0.5253728,-0.5253728 z m -1.3309444,0 0.5253728,0.5253728 -0.5253728,0.5253728 -0.5253728,-0.5253728 z M -5.9252406,0 Q -6.3727804,0 -6.6179544,-0.15177436 -6.8592367,-0.30744038 -7.0032277,-0.5954225 -7.1861353,-0.30744038 -7.4702258,-0.15177436 -7.7543163,0 -8.2796891,0 h -0.3580318 v -0.70828036 h 0.3658151 q 0.4981313,0 0.7277387,-0.18290757 0.2296073,-0.18679917 0.2296073,-0.67714717 0,-0.1011829 -0.011675,-0.2373907 -0.00778,-0.1400994 -0.027242,-0.389165 l 0.6499056,-0.081725 0.062266,0.813355 q 0.02335,0.3268986 0.1984742,0.54093937 0.1790159,0.21404077 0.5253728,0.21404077 0.4125149,0 0.5603977,-0.22182407 0.1478827,-0.22182407 0.1478827,-0.63823067 0,-0.1011829 -0.011675,-0.2412823 -0.00778,-0.1400994 -0.027241,-0.3852734 l 0.6499056,-0.081725 0.062266,0.813355 q 0.019458,0.3152236 0.1673409,0.53704772 0.1478828,0.21793242 0.478673,0.21793242 0.323007,0 0.4436482,-0.24128233 0.1206411,-0.24128231 0.1206411,-0.56428931 0,-0.2918738 -0.058375,-0.5876392 -0.054483,-0.2957654 -0.097291,-0.478673 l 0.6654722,-0.1790159 q 0.07005,0.2607406 0.1128579,0.556506 0.042808,0.2918738 0.042808,0.5837476 0,0.4202982 -0.1167496,0.79000497 -0.1167495,0.36970679 -0.3852733,0.59931416 Q -3.4268011,-0.00389165 -3.8860158,0 -4.2596142,0 -4.4892216,-0.15566601 -4.718829,-0.31133203 -4.86282,-0.5954225 -5.0807525,-0.28019883 -5.3492763,-0.14009941 -5.6139086,0 -5.9252406,0 Z"
       id="text9"
       transform="matrix(1.3333333,0,0,1.3333333,353.56933,121.24133)"
       aria-label="هاﻮﺧ ﺖﯿﻣﺎﻤﺗ ﻪﺒﺷ" />
  </g>
</svg>
