<?xml version="1.0" encoding="UTF-8" standalone="no"?>


<svg class="tikz-diagram" id="iran-action-ch8-tikz-2-32496149068a"
   version="1.1"
   id="svg1"
   width="571.64001"
   height="99.199997"
   viewBox="0 0 571.64001 99.199997"
   sodipodi:docname="iran-action-ch8-tikz-2-32496149068a.pdf"
   xmlns:inkscape="http://www.inkscape.org/namespaces/inkscape"
   xmlns:sodipodi="http://sodipodi.sourceforge.net/DTD/sodipodi-0.dtd"
   xmlns="http://www.w3.org/2000/svg"
   xmlns:svg="http://www.w3.org/2000/svg">
  <defs
     id="defs1" />
  <sodipodi:namedview
     id="namedview1"
     pagecolor="#ffffff"
     bordercolor="#000000"
     borderopacity="0.25"
     inkscape:showpageshadow="2"
     inkscape:pageopacity="0.0"
     inkscape:pagecheckerboard="0"
     inkscape:deskcolor="#d1d1d1">
    <inkscape:page
       x="0"
       y="0"
       inkscape:label="1"
       id="page1"
       width="571.64001"
       height="99.199997"
       margin="0"
       bleed="0" />
  </sodipodi:namedview>
  <g
     id="g1"
     inkscape:groupmode="layer"
     inkscape:label="1">
    <path
       id="path1"
       d="m 188.46497,21.2601 h -376.92994 c -5.50236,0 -9.96276,-4.46042 -9.96276,-9.96277 v -22.59466 c 0,-5.50235 4.4604,-9.96277 9.96276,-9.96277 h 376.92994 c 5.50236,0 9.96276,4.46042 9.96276,9.96277 v 22.59466 c 0,5.50235 -4.4604,9.96277 -9.96276,9.96277 z"
       style="fill:#e1f0fa;fill-opacity:1;fill-rule:nonzero;stroke:#3498db;stroke-width:1.99255;stroke-linecap:butt;stroke-linejoin:miter;stroke-miterlimit:10;stroke-dasharray:none;stroke-opacity:1"
       transform="matrix(1.3333333,0,0,-1.3333333,285.82,49.6)" />
    <path
       style="font-weight:800;font-size:11.9552px;font-family:Vazirmatn"
       d="M 31.574478,0 H 30.09759 Q 29.09354,0 28.241265,-0.1225875 27.38899,-0.2510125 26.75854,-0.56623751 26.133928,-0.88146251 25.783678,-1.4477 q -0.344413,-0.572075 -0.344413,-1.459375 0,-0.5253751 0.11675,-1.0274001 0.11675,-0.502025 0.291875,-0.9281625 l 1.406838,0.5312125 q -0.09924,0.2743625 -0.204313,0.642125 -0.09924,0.361925 -0.09924,0.6888251 0,0.58375 0.431975,0.86395 0.431975,0.2802 1.14415,0.3677625 0.718012,0.081725 1.570287,0.081725 h 1.47105 q 0.934,0 1.401,-0.128425 0.467001,-0.1342625 0.467001,-0.5428875 0,-0.1926375 -0.286038,-0.44365 -0.286038,-0.25685 -0.718013,-0.5370501 -0.426137,-0.2860375 -0.875625,-0.5604 -0.44365,-0.2802 -0.77055,-0.5137 -0.245175,-0.1809625 -0.3736,-0.4728375 -0.128425,-0.2977125 -0.128425,-0.6071 0,-0.338575 0.151775,-0.6071 0.157613,-0.2743625 0.478675,-0.4027875 l 4.506551,-1.8388125 v 1.669525 l -3.152251,1.2784125 q 0.776388,0.467 1.278413,0.8347625 0.502025,0.3677625 0.81725,0.7647125 0.321063,0.3911125 0.548725,0.9456751 0.175125,0.4203 0.332738,0.67715 0.16345,0.25685 0.408625,0.3736 0.245175,0.1109125 0.671312,0.1109125 h 0.157613 V 0 h -0.157613 q -0.706337,0 -1.185012,-0.2043125 -0.472838,-0.21015001 -0.805575,-0.69466251 -0.30355,0.338575 -0.665475,0.53705 Q 33.314053,-0.1692875 32.812028,-0.081725 32.31584,0 31.574478,0 Z m -9.701925,0 q -0.519538,0 -0.881463,-0.2159875 -0.361925,-0.21598751 -0.6071,-0.53121251 -0.297712,0.315225 -0.67715,0.53121251 Q 19.33324,0 18.81954,0 q -0.589587,0 -0.992375,-0.198475 -0.39695,-0.20431251 -0.6538,-0.53705001 -0.321062,0.338575 -0.764712,0.53705001 Q 15.965003,0 15.287853,0 h -0.53705 v -1.6870375 h 0.548725 q 0.642125,0 0.91065,-0.1576125 0.274362,-0.1576125 0.274362,-0.758875 0,-0.0934 -0.01168,-0.3093875 -0.01168,-0.2159876 -0.02919,-0.4728376 -0.01751,-0.2626875 -0.03502,-0.4728375 l 1.465212,-0.1809625 0.122588,1.5761251 q 0.05254,0.7763875 0.834762,0.7763875 0.484513,0 0.647963,-0.198475 0.16345,-0.2043125 0.16345,-0.7180125 0,-0.081725 -0.01167,-0.2977125 -0.01168,-0.2218251 -0.02919,-0.4845126 -0.01751,-0.2626875 -0.03503,-0.4728375 l 1.465213,-0.1809625 0.122587,1.5761251 q 0.02335,0.361925 0.180963,0.572075 0.157612,0.2043125 0.525375,0.2043125 0.361925,0 0.49035,-0.2393375 0.134262,-0.2393375 0.134262,-0.67715 0,-0.21015 -0.02335,-0.6071001 -0.02335,-0.39695 -0.05254,-0.758875 l 1.465212,-0.1809625 0.122588,1.6870376 q 0.02919,0.431975 0.239337,0.6071 0.215988,0.1692875 0.665475,0.1692875 H 25.07734 V 0 H 24.91389 Q 24.37684,0 23.962378,-0.1868 23.553753,-0.37360001 23.314415,-0.69466251 23.075078,-0.39695001 22.724828,-0.198475 22.374578,0 21.872553,0 Z m -9.748625,0 h -1.255062 v -1.6870375 h 1.2609 q 0.44365,0 0.6071,-0.2743625 0.169287,-0.2802 0.169287,-0.7063375 0,-0.3969501 -0.09924,-0.8639501 -0.0934,-0.4728375 -0.192638,-0.922325 l 1.529425,-0.39695 q 0.110913,0.548725 0.175125,1.0916125 0.07005,0.53705 0.07005,1.0274001 0,0.7763875 -0.21015,1.3951625 -0.204312,0.61877499 -0.7005,0.98069999 Q 12.982041,0 12.123928,0 Z M 11.020641,0.74720001 12.013016,1.7279 12.993716,0.74720001 13.991928,1.739575 12.993716,2.743625 12.013016,1.75125 11.020641,2.743625 10.028266,1.739575 Z M 6.8876896,3.1872751 6.2922646,1.622825 Q 7.1387021,1.4418625 7.7458021,1.1383125 8.3587396,0.84060001 8.6914771,0.33857501 9.0242146,-0.16345 9.0242146,-0.95735002 9.0242146,-1.4885625 8.8549271,-2.1482 8.6856396,-2.813675 8.4930021,-3.3857501 l 1.5761249,-0.5078625 q 0.227663,0.6362875 0.344413,1.3718126 0.122587,0.735525 0.122587,1.412675 0,1.225875 -0.455325,2.10150002 Q 9.6313146,1.8738375 8.8082271,2.416725 7.9909771,2.96545 6.8876896,3.1872751 Z M 6.6769791,-4.4715251 q 0,-0.44365 0.315225,-0.735525 0.315225,-0.291875 0.758875,-0.291875 0.4494875,0 0.758875,0.291875 0.315225,0.291875 0.315225,0.735525 0,0.4378125 -0.315225,0.7296875 -0.315225,0.291875 -0.758875,0.291875 -0.455325,0 -0.7647125,-0.2860375 -0.3093875,-0.291875 -0.3093875,-0.735525 z m 0,3.4382876 q 0,-0.4378125 0.315225,-0.7296875 0.315225,-0.2977125 0.758875,-0.2977125 0.4494875,0 0.758875,0.2977125 0.315225,0.291875 0.315225,0.7296875 0,0.44364999 -0.315225,0.735525 -0.315225,0.291875 -0.758875,0.291875 -0.455325,0 -0.7647125,-0.291875 -0.3093875,-0.29187501 -0.3093875,-0.735525 z M 42.338268,0 h -1.599476 v -1.179175 q 0,-1.389325 -0.110912,-2.5042876 -0.105075,-1.1208 -0.344413,-2.0489625 -0.239337,-0.934 -0.636287,-1.7570875 l 1.4944,-0.5428875 q 0.659637,1.459375 0.928163,3.1289 0.268525,1.669525 0.268525,3.7418376 z M 159.42811,0.68882501 160.47886,1.739575 159.42811,2.7844875 158.38319,1.739575 Z M 160.38546,0 h -1.34847 q -1.00988,0 -1.86216,-0.1225875 -0.84644,-0.128425 -1.47689,-0.44365001 -0.62461,-0.315225 -0.97486,-0.88146249 -0.34441,-0.572075 -0.34441,-1.459375 0,-0.5253751 0.11675,-1.0215626 0.11675,-0.502025 0.29187,-0.9281625 l 1.40684,0.525375 q -0.0992,0.2743625 -0.20431,0.642125 -0.0992,0.361925 -0.0992,0.6888251 0,0.58375 0.43198,0.86395 0.43197,0.2802 1.14415,0.3677625 0.71801,0.081725 1.57028,0.081725 h 1.36598 q 1.07994,0 1.6812,-0.1926375 0.6071,-0.1926375 0.6071,-0.7763875 0,-0.385275 -0.0934,-0.8756251 -0.0876,-0.49035 -0.19848,-0.934 l 1.53527,-0.385275 q 0.11675,0.548725 0.18096,1.0916125 0.0642,0.53705 0.0642,1.0215626 0,0.875625 -0.29187,1.4185125 -0.29188,0.54288749 -0.81725,0.82892499 -0.51954,0.28603751 -1.20837,0.39111251 Q 161.17352,0 160.38546,0 Z m -9.21158,-4.8276126 q 0.73553,0 1.24923,0.4378125 0.5137,0.4378125 0.80557,1.155825 0.29188,0.7121751 0.35025,1.5469376 h 0.43782 V 0 h -0.55457 q -0.33273,1.33095 -1.3076,2.089825 -0.97486,0.7647125 -2.6619,1.0916126 L 148.91477,1.622825 q 0.73553,-0.1401 1.36014,-0.3736 0.63045,-0.2335 1.06242,-0.54872499 Q 151.77515,0.38527501 151.92108,0 h -0.54872 q -1.17918,0 -1.79795,-0.49035001 -0.61878,-0.49618751 -0.61878,-1.59947499 0,-0.431975 0.13427,-0.9048125 0.13426,-0.4786751 0.40862,-0.8931376 0.27436,-0.4203 0.68883,-0.67715 0.4203,-0.2626875 0.98653,-0.2626875 z m 0.19264,3.1405751 h 0.7472 q -0.035,-0.3269 -0.1401,-0.6713125 -0.0992,-0.3444125 -0.29771,-0.5779125 -0.19264,-0.2335001 -0.5137,-0.2335001 -0.27436,0 -0.43781,0.1751251 -0.15762,0.1692875 -0.22767,0.408625 -0.0642,0.2335 -0.0642,0.431975 0,0.3093875 0.25685,0.3911125 0.26269,0.075888 0.67715,0.075888 z m -6.34536,-3.7068126 q 0.78222,0.467 1.38349,0.9164875 0.6071,0.44365 0.95151,0.95735 0.34441,0.5137001 0.34441,1.1850126 0,0.9164875 -0.4203,1.42434999 -0.4203,0.5078625 -1.17917,0.71217501 Q 145.34222,0 144.33233,0 h -1.42435 v -1.6870375 h 1.41852 q 0.934,0 1.401,-0.128425 0.467,-0.1342625 0.467,-0.5428875 0,-0.1926375 -0.28604,-0.44365 -0.28604,-0.25685 -0.71801,-0.5370501 -0.42614,-0.2860375 -0.87563,-0.5604 -0.44365,-0.2802 -0.77055,-0.5137 -0.24517,-0.175125 -0.3736,-0.467 -0.12259,-0.291875 -0.12259,-0.595425 0,-0.3269 0.15178,-0.6129375 0.15177,-0.2860375 0.47284,-0.4144625 l 4.50655,-1.8388125 v 1.669525 z M 141.89011,0 q -0.53121,0 -0.87563,-0.2043125 -0.2335,1.342625 -1.14998,2.21825 -0.91065,0.875625 -2.43424,1.1675001 L 136.85235,1.622825 q 0.84643,-0.1809625 1.45353,-0.4845125 0.61294,-0.29771249 0.94568,-0.79973749 0.33274,-0.50202501 0.33274,-1.29592503 0,-0.53121248 -0.16929,-1.19084998 -0.16929,-0.665475 -0.36193,-1.2375501 l 1.57029,-0.5078625 0.33858,1.3192751 q 0.0992,0.3736 0.29187,0.63045 0.19264,0.25685 0.57208,0.25685 h 0.22766 V 0 Z m -9.41005,0 q -0.58958,0 -0.99237,-0.198475 -0.39695,-0.20431251 -0.6538,-0.53705001 -0.32106,0.338575 -0.76471,0.53705001 Q 129.62553,0 128.94838,0 h -0.53705 v -1.6870375 h 0.54872 q 0.64213,0 0.91065,-0.1576125 0.27436,-0.1576125 0.27436,-0.758875 0,-0.0934 -0.0117,-0.3093875 -0.0117,-0.2159876 -0.0292,-0.4728376 -0.0175,-0.2626875 -0.035,-0.4728375 l 1.46521,-0.1809625 0.12259,1.5761251 q 0.0525,0.7763875 0.83476,0.7763875 0.48451,0 0.64796,-0.198475 0.16345,-0.2043125 0.16345,-0.7180125 0,-0.081725 -0.0117,-0.2977125 -0.0117,-0.2218251 -0.0292,-0.4845126 -0.0175,-0.2626875 -0.035,-0.4728375 l 1.46522,-0.1809625 0.12258,1.5761251 q 0.0234,0.3560875 0.17513,0.5662375 0.15761,0.21015 0.53121,0.21015 0.35025,0 0.47868,-0.2743625 0.13426,-0.2802 0.13426,-0.665475 0,-0.3327375 -0.0642,-0.6829876 -0.0584,-0.3560875 -0.13427,-0.642125 -0.07,-0.291875 -0.10507,-0.4261375 l 1.51191,-0.4144625 q 0.11675,0.4611625 0.19264,0.9865375 0.0759,0.5195375 0.0759,1.0332376 0,0.72385 -0.19264,1.3601375 -0.1868,0.63044999 -0.64213,1.02156249 Q 136.32114,0 135.53308,0 q -0.52538,0 -0.8873,-0.2159875 -0.35609,-0.21598751 -0.60127,-0.53121251 -0.29771,0.315225 -0.67715,0.53121251 Q 132.99376,0 132.48006,0 Z m -1.04576,0 q -0.53121,0 -0.87563,-0.2043125 -0.2335,1.342625 -1.14998,2.21825 -0.91065,0.875625 -2.43424,1.1675001 L 126.39654,1.622825 q 0.84643,-0.1809625 1.45353,-0.4845125 0.61294,-0.29771249 0.94568,-0.79973749 0.33274,-0.50202501 0.33274,-1.29592503 0,-0.53121248 -0.16929,-1.19084998 -0.16929,-0.665475 -0.36193,-1.2375501 l 1.57029,-0.5078625 0.33858,1.3192751 q 0.0992,0.3736 0.29187,0.63045 0.19264,0.25685 0.57208,0.25685 h 0.22766 V 0 Z m -7.22098,-7.5537251 0.99238,0.9807 0.9807,-0.9807 0.99821,0.992375 -0.99821,1.00405 -0.9807,-0.992375 -0.99238,0.992375 -0.99237,-1.00405 z M 124.7854,0 h -1.18502 v -1.6870375 h 1.19085 q 0.44365,0 0.6071,-0.2743625 0.16929,-0.2802 0.16929,-0.7063375 0,-0.3969501 -0.0992,-0.8639501 -0.0934,-0.4728375 -0.19263,-0.922325 l 1.52942,-0.39695 q 0.11091,0.548725 0.17513,1.0916125 0.07,0.53705 0.07,1.0274001 0,0.7763875 -0.21015,1.3951625 -0.21015,0.61877499 -0.70634,0.98069999 Q 125.64351,0 124.7854,0 Z m -11.66833,-5.0669501 1.05075,1.05075 -1.05075,1.0449126 -1.04492,-1.0449126 z m 0.07,6.3979001 q 0.8406,0 1.32511,-0.268525 0.49035,-0.26852499 0.69466,-0.72968749 0.21015,-0.46116251 0.21015,-1.04491252 0,-0.63044999 -0.20431,-1.29592499 -0.19848,-0.6713125 -0.44949,-1.2784126 l 1.55861,-0.58375 0.467,1.4185126 q 0.0992,0.30355 0.30355,0.53705 0.20432,0.2276625 0.58959,0.2276625 h 0.2335 V 0 h -0.21015 q -0.25101,0 -0.43781,-0.0408625 -0.1868,-0.0408625 -0.35025,-0.1576125 -0.1868,1.4768875 -1.13248,2.335 -0.94567,0.86395 -2.59768,0.86395 -1.25507,0 -2.07232,-0.478675 -0.81141,-0.478675 -1.20252,-1.3076 -0.39111,-0.82892499 -0.39111,-1.86800001 0,-0.69466249 0.15177,-1.43602499 0.15178,-0.7472 0.43781,-1.4885626 l 1.41852,0.5428876 q -0.21599,0.618775 -0.36193,1.2083625 -0.14594,0.5895875 -0.14594,1.10328749 0,0.56040001 0.19848,1.02740001 0.19847,0.46700001 0.67131,0.7472 0.47284,0.2802 1.29593,0.2802 z m -8.62783,-3.0179875 h 0.88146 q 0.64213,0 0.88146,-0.2159875 0.24518,-0.221825 0.24518,-0.805575 0,-0.3444125 -0.0175,-0.6654751 -0.0175,-0.3269 -0.0409,-0.6362875 l 1.45938,-0.1809625 0.11675,1.6695251 q 0.0292,0.44365 0.24517,0.642125 0.21599,0.1926375 0.68883,0.1926375 h 0.12259 V 0 h -0.13427 q -0.58375,0 -1.00405,-0.21015 -0.41446,-0.21015001 -0.68298,-0.54872501 -0.35609,0.3560875 -0.84644,0.56040001 Q 105.98948,0 105.44075,0 h -0.88146 z m 0.15177,2.43423751 0.99238,0.98069999 0.9807,-0.98069999 0.99821,0.99237499 -0.99821,1.00405 -0.9807,-0.992375 -0.99238,0.992375 -0.99237,-1.00405 z M 101.9441,0 h -0.92817 v -1.6870375 h 0.934 q 0.44365,0 0.6071,-0.2743625 0.16929,-0.2802 0.16929,-0.7063375 0,-0.3969501 -0.0992,-0.8639501 -0.0934,-0.4728375 -0.19263,-0.922325 l 1.52942,-0.39695 q 0.11091,0.548725 0.17513,1.0916125 0.0701,0.53705 0.0701,1.0274001 0,0.7763875 -0.21015,1.3951625 -0.21015,0.61877499 -0.70634,0.98069999 Q 102.80221,0 101.9441,0 Z m 0.68882,-7.6121001 1.05075,1.05075 -1.05075,1.0449125 -1.04491,-1.0449125 z m -4.226347,2.7844875 q 0.735525,0 1.249225,0.4378125 0.513702,0.4378125 0.805572,1.155825 0.29188,0.7121751 0.35025,1.5469376 h 0.43782 V 0 h -0.55457 q -0.33273,1.33095 -1.307597,2.089825 -0.974862,0.7647125 -2.6619,1.0916126 L 96.147461,1.622825 q 0.735525,-0.1401 1.360137,-0.3736 0.63045,-0.2335 1.062425,-0.54872499 Q 99.007836,0.38527501 99.153773,0 h -0.548725 q -1.179175,0 -1.79795,-0.49035001 -0.618775,-0.49618751 -0.618775,-1.59947499 0,-0.431975 0.134263,-0.9048125 0.134262,-0.4786751 0.408625,-0.8931376 0.274362,-0.4203 0.688825,-0.67715 0.4203,-0.2626875 0.986537,-0.2626875 z m 0.192638,3.1405751 h 0.7472 q -0.03503,-0.3269 -0.1401,-0.6713125 -0.09924,-0.3444125 -0.297713,-0.5779125 -0.192637,-0.2335001 -0.5137,-0.2335001 -0.274362,0 -0.437812,0.1751251 -0.157613,0.1692875 -0.227663,0.408625 -0.06421,0.2335 -0.06421,0.431975 0,0.3093875 0.25685,0.3911125 0.262687,0.075888 0.67715,0.075888 z m -7.524549,-6.4737876 1.05075,1.05075 -1.05075,1.0449125 -1.044913,-1.0449125 z m -3.636763,6.4737876 h 0.992375 q 0.753038,0 1.401,-0.1401 0.647963,-0.1459375 1.33095,-0.431975 0.688825,-0.2860375 1.56445,-0.712175 -0.898975,-0.3269001 -1.453537,-0.5487251 -0.554563,-0.2276625 -0.758875,-0.2276625 -0.315225,0 -0.572075,0.198475 -0.251013,0.1926375 -0.414463,0.408625 l -0.309387,0.3911126 -1.3076,-0.6421251 0.262687,-0.4203 q 0.414463,-0.67715 0.992375,-1.1208 0.577913,-0.4494875 1.3543,-0.4494875 0.3269,0 0.758875,0.151775 0.437813,0.151775 0.934,0.3794375 0.502025,0.221825 1.033238,0.4494875 0.53705,0.221825 1.056587,0.3794375 0.525375,0.1576125 1.00405,0.16345 V -2.31165 q -0.44365,0.058375 -0.823087,0.198475 -0.379438,0.1342625 -0.788063,0.3444125 -0.408625,0.21015 -0.951512,0.502025 -0.7472,0.39694999 -1.412675,0.68298749 Q 90.671874,-0.2977125 89.971374,-0.1459375 89.276712,0 88.412762,0 h -0.974863 z m 1.242554,-5.1136501 1.05075,1.05075 -1.05075,1.0449125 -1.044913,-1.0449125 z M 86.39799,3.1872751 85.802565,1.622825 q 0.846438,-0.1809625 1.453538,-0.4845125 0.612937,-0.29771249 0.945675,-0.79973749 0.332737,-0.50202501 0.332737,-1.29592503 0,-0.53121248 -0.169287,-1.19084998 -0.169288,-0.665475 -0.361925,-1.2375501 l 1.576125,-0.5078625 q 0.227662,0.6362875 0.344412,1.3718126 0.122588,0.735525 0.122588,1.412675 0,1.225875 -0.455325,2.10150002 Q 89.141615,1.8738375 88.318528,2.416725 87.501278,2.96545 86.39799,3.1872751 Z M 86.141137,-8.1841751 v 8.1783376 h -1.576125 v -8.1783376 z m -3.567262,3.6250875 -0.2335,-0.2043125 0.9807,-1.2550625 q 0.525375,0.4144625 1.044912,0.8347625 0.519538,0.4203 0.945675,0.8697875 0.431975,0.4494875 0.688825,0.945675 0.25685,0.4961876 0.25685,1.0565876 0,0.712175 -0.315225,1.225875 -0.315225,0.51369999 -0.869787,0.7880625 -0.554563,0.2743625 -1.272575,0.2743625 -1.208363,0 -1.838813,-0.58958751 Q 81.336325,-1.2083625 81.336325,-2.1015 q 0,-0.7296875 0.356087,-1.2959251 0.361925,-0.572075 0.881463,-1.1616625 z m 2.1949,2.2591126 q 0,-0.1868 -0.169288,-0.4144625 -0.16345,-0.2335 -0.408625,-0.4553251 -0.239337,-0.221825 -0.461162,-0.3911125 -0.204313,0.1809625 -0.414463,0.4144625 -0.204312,0.2335001 -0.344412,0.4670001 -0.1401,0.2335 -0.1401,0.4261375 0,0.268525 0.25685,0.4203 0.262687,0.1459375 0.706337,0.1459375 0.974863,0 0.974863,-0.6129375 z m -6.438773,-5.8842001 h 1.576125 V -2.8487 q 0,0.618775 0.180963,0.8931375 0.180962,0.268525 0.7472,0.268525 h 0.145937 V 0 H 80.83429 Q 79.52669,0 78.925427,-0.67715001 78.330002,-1.3543 78.330002,-2.7086 Z M 75.00263,0.1342625 q -0.6071,0 -1.138313,-0.25685 -0.525375,-0.26268751 -1.0274,-0.64796251 -0.321062,0.3210625 -0.671312,0.54872501 Q 71.821192,0 71.155717,0 h -0.25685 v -1.6870375 h 0.227663 q 0.286037,0 0.5137,-0.221825 0.2335,-0.221825 0.44365,-0.572075 0.215987,-0.3560875 0.449487,-0.7472001 0.239338,-0.39695 0.531213,-0.7472 0.297712,-0.3560875 0.688825,-0.5779125 0.391112,-0.221825 0.916487,-0.221825 0.735525,0 1.272575,0.35025 0.53705,0.3444125 0.828925,0.9164875 0.291875,0.5662376 0.291875,1.2375501 0,0.688825 -0.227662,1.2317125 -0.227663,0.54288749 -0.688825,0.8581125 -0.455325,0.315225 -1.14415,0.315225 z m -0.2802,-3.3040251 q -0.239338,0 -0.431975,0.1634501 -0.192638,0.1576125 -0.338575,0.385275 -0.145938,0.2276625 -0.245175,0.431975 0.169287,0.151775 0.321062,0.2626875 0.151775,0.1109125 0.291875,0.1926375 0.21015,0.11675 0.385275,0.16345 0.175125,0.0467 0.30355,0.0467 0.309388,0 0.44365,-0.221825 0.134263,-0.2276625 0.134263,-0.5137 0,-0.3677625 -0.227663,-0.6362875 -0.227662,-0.2743626 -0.636287,-0.2743626 z M 62.353604,0 h -1.255062 v -1.6870375 h 1.2609 q 0.44365,0 0.6071,-0.2743625 0.169287,-0.2802 0.169287,-0.7063375 0,-0.3969501 -0.09924,-0.8639501 -0.0934,-0.4728375 -0.192638,-0.922325 l 1.529425,-0.39695 q 0.110913,0.548725 0.175125,1.0916125 0.07005,0.53705 0.07005,1.0274001 0,0.7763875 -0.21015,1.3951625 -0.204312,0.61877499 -0.7005,0.98069999 Q 63.211717,0 62.353604,0 Z M 61.250317,0.74720001 62.242692,1.7279 63.223392,0.74720001 64.221604,1.739575 63.223392,2.743625 62.242692,1.75125 61.250317,2.743625 60.257942,1.739575 Z M 58.524209,-2.5218 q 0,-0.1459375 -0.06421,-0.385275 -0.06421,-0.2393376 -0.134262,-0.3911126 l -1.155825,-2.5509875 1.389325,-0.67715 1.453537,3.350725 q 0.175125,0.4027876 0.309388,0.7413626 0.1401,0.338575 0.315225,0.5428875 0.180962,0.2043125 0.461162,0.2043125 h 0.245175 V 0 h -0.245175 q -0.6538,0 -1.056587,-0.245175 -0.39695,-0.25101251 -0.7005,-0.64212501 -0.44365,0.4261375 -1.056588,0.65380001 -0.612937,0.2276625 -1.482725,0.2276625 -0.5137,0 -0.869787,-0.035025 -0.356088,-0.035025 -0.735525,-0.128425 V -1.856325 q 0.361925,0.087562 0.764712,0.1342625 0.408625,0.0467 0.753038,0.0467 0.431975,0 0.846437,-0.07005 0.414463,-0.075887 0.688825,-0.2626875 0.274363,-0.1868 0.274363,-0.5137 z"
       id="text1"
       transform="matrix(1.3333333,0,0,1.3333333,175.804,53.036)"
       aria-label="ﮏﺴﯾر:۱بﻮﮐﺮﺳﺮﺗ ﻦﯿﻧﻮﺧزاهﺎﻣ ید" />
  </g>
</svg>
