<?xml version="1.0" encoding="UTF-8" standalone="no"?>


<svg class="tikz-diagram" id="iran-action-ch3-tikz-10-d37db5dbedb3"
   version="1.1"
   id="svg1"
   width="361.10666"
   height="349.77332"
   viewBox="0 0 361.10666 349.77332"
   sodipodi:docname="iran-action-ch3-tikz-10-d37db5dbedb3.pdf"
   xmlns:inkscape="http://www.inkscape.org/namespaces/inkscape"
   xmlns:sodipodi="http://sodipodi.sourceforge.net/DTD/sodipodi-0.dtd"
   xmlns="http://www.w3.org/2000/svg"
   xmlns:svg="http://www.w3.org/2000/svg">
  <defs
     id="defs1" />
  <sodipodi:namedview
     id="namedview1"
     pagecolor="#ffffff"
     bordercolor="#000000"
     borderopacity="0.25"
     inkscape:showpageshadow="2"
     inkscape:pageopacity="0.0"
     inkscape:pagecheckerboard="0"
     inkscape:deskcolor="#d1d1d1">
    <inkscape:page
       x="0"
       y="0"
       inkscape:label="1"
       id="page1"
       width="361.10666"
       height="349.77332"
       margin="0"
       bleed="0" />
  </sodipodi:namedview>
  <g
     id="g1"
     inkscape:groupmode="layer"
     inkscape:label="1">
    <path
       id="path1"
       d="M 85.04042,0 C 85.04042,46.96713 46.96713,85.04042 0,85.04042 -46.96713,85.04042 -85.04042,46.96713 -85.04042,0 c 0,-46.96713 38.07329,-85.04042 85.04042,-85.04042 46.96713,0 85.04042,38.07329 85.04042,85.04042 z"
       style="fill:#e6f0fa;fill-opacity:0.5;fill-rule:nonzero;stroke:none"
       transform="matrix(1.3333333,0,0,-1.3333333,133.31067,216.46133)" />
    <path
       id="path2"
       d="m 155.90744,0 c 0,46.96713 -38.07329,85.04042 -85.04044,85.04042 -46.96713,0 -85.0404,-38.07329 -85.0404,-85.04042 0,-46.96713 38.07327,-85.04042 85.0404,-85.04042 46.96715,0 85.04044,38.07329 85.04044,85.04042 z"
       style="fill:#e6fae6;fill-opacity:0.5;fill-rule:nonzero;stroke:none"
       transform="matrix(1.3333333,0,0,-1.3333333,133.31067,216.46133)" />
    <path
       id="path3"
       d="m 120.47392,62.36288 c 0,46.96714 -38.07329,85.04044 -85.04043,85.04044 -46.96712,0 -85.04041,-38.0733 -85.04041,-85.04044 0,-46.96713 38.07329,-85.04042 85.04041,-85.04042 46.96714,0 85.04043,38.07329 85.04043,85.04042 z"
       style="fill:#fff8dc;fill-opacity:0.5;fill-rule:nonzero;stroke:none"
       transform="matrix(1.3333333,0,0,-1.3333333,133.31067,216.46133)" />
    <path
       style="font-size:8.9664px;font-family:Vazirmatn"
       d="m 53.773954,-3.7170282 0.634828,0.6348281 -0.634828,0.6348282 -0.634828,-0.6348282 z m 0.05254,4.864097 q 0.731147,0 1.129557,-0.24079691 0.402787,-0.23641875 0.5604,-0.62607189 0.16199,-0.385275 0.16199,-0.82746563 0,-0.52099687 -0.1401,-1.02885937 -0.1401,-0.5078625 -0.262687,-0.8318438 l 0.748659,-0.3020906 q 0.205772,0.5647781 0.310847,1.0989094 0.109453,0.5297531 0.109453,1.01134687 0,0.73990313 -0.275822,1.31343752 Q 55.897345,1.2871688 55.319432,1.61115 54.74152,1.9351313 53.826491,1.9351313 q -0.945675,0 -1.514831,-0.3458719 -0.564778,-0.3458719 -0.818709,-0.92378439 -0.249553,-0.57353438 -0.249553,-1.26090002 0,-0.46408129 0.09632,-0.95005319 0.09632,-0.49035 0.262688,-0.9544312 l 0.696122,0.2802 q -0.126966,0.4027875 -0.214528,0.8274656 -0.08756,0.42467816 -0.08756,0.82308754 0,0.47283751 0.166369,0.86249064 0.170747,0.38965313 0.569156,0.62169376 0.39841,0.23204066 1.094531,0.23204066 z m -4.693351,-7.175747 h 0.739904 v 4.1854875 q 0,0.6173157 0.227662,0.8318438 0.227663,0.21452814 0.687366,0.21452814 h 0.109453 V 0 H 50.788072 Q 49.95185,0 49.540306,-0.44219063 49.13314,-0.88875939 49.13314,-1.8475688 Z m -4.557628,2.4736406 0.345872,-0.6479625 q 1.571747,0.7661719 2.342297,1.3703532 0.77055,0.5998031 0.77055,1.225875 0,0.77492814 -0.481594,1.16895939 -0.477215,0.39403126 -1.28279,0.39403126 -0.302091,0 -0.643585,-0.04815938 Q 45.284769,-0.1401 44.9783,-0.21015 q -0.306469,-0.0744281 -0.516619,-0.14447813 -0.380897,0.1401 -0.893138,0.24955313 Q 43.056303,0 42.579087,0 h -0.433434 v -0.79681876 h 0.376519 q 0.288956,0 0.507862,-0.0131344 0.223284,-0.0131344 0.485972,-0.0437812 Q 43.213915,-1.0989094 43.078193,-1.3878656 42.94685,-1.6812 42.94685,-1.9920469 q 0,-0.455325 0.214528,-0.7836844 0.214528,-0.3283594 0.569156,-0.5034844 0.354628,-0.1795031 0.774928,-0.1795031 0.18826,0 0.376519,0.048159 -0.148856,-0.07005 -0.306469,-0.1444782 z m 0.792441,2.71881571 q 0.192637,0.0218906 0.4203,0.0437812 0.227662,0.0175125 0.402787,0.0175125 0.529754,0 0.805575,-0.19701563 0.2802,-0.20139373 0.2802,-0.62169373 0,-0.2145282 -0.245175,-0.4640813 -0.245175,-0.2539312 -0.656718,-0.5209969 -0.407166,-0.2714437 -0.901894,-0.5341312 0.240797,0.1926375 0.385275,0.4640812 0.148856,0.2714438 0.148856,0.5735344 0,0.4115438 -0.166369,0.7048782 -0.16199,0.2889562 -0.472837,0.53413121 z M 43.699887,-2.0008032 q 0,0.2583094 0.214528,0.5166188 0.218907,0.2539313 0.63045,0.4115438 0.788063,-0.3196032 0.788063,-0.9194063 0,-0.3808969 -0.232041,-0.5779125 -0.227662,-0.2013938 -0.551644,-0.2013938 -0.376518,0 -0.612937,0.21015 -0.236419,0.21015 -0.236419,0.5604 z m -2.136524,-4.027875 v 6.02430007 H 40.82346 V -6.0286782 Z m -3.489366,2.8282688 q 0.682987,0 1.151447,0.6129375 0.468459,0.6085594 0.485972,1.79065314 h 0.529753 V 0 H 39.641366 Q 39.545047,0.50348438 39.256091,0.97194377 38.971513,1.4447813 38.406734,1.8037875 37.841956,2.1671719 36.909416,2.346675 L 36.651106,1.6505532 Q 38.634397,1.2696563 38.949622,0 h -0.691744 q -1.659309,0 -1.659309,-1.3440844 0,-0.4290563 0.170747,-0.8581125 0.175125,-0.4290563 0.503484,-0.7136344 0.332738,-0.2845781 0.801197,-0.2845781 z m 0.1401,2.40359064 h 0.774928 q -0.05254,-0.84497814 -0.2802,-1.23025314 -0.223284,-0.385275 -0.647962,-0.385275 -0.2802,0 -0.442191,0.1795031 -0.157613,0.1795031 -0.223284,0.4246781 -0.06129,0.2407969 -0.06129,0.4378126 0,0.3064687 0.205772,0.44219058 0.21015,0.13134376 0.674231,0.13134376 z m -5.415741,-4.76340004 0.634828,0.6348281 -0.634828,0.6348281 -0.634829,-0.6348281 z m -2.727572,4.76340004 h 0.744281 q 0.512241,0 0.941297,-0.0919406 0.429056,-0.0919406 0.836222,-0.25393121 0.411543,-0.1619907 0.858112,-0.3808969 0.450947,-0.2232844 1.006969,-0.4772157 -0.310847,-0.1138312 -0.643584,-0.245175 -0.332738,-0.1357218 -0.634829,-0.2539312 -0.297712,-0.1182094 -0.520996,-0.1926375 -0.223285,-0.078806 -0.315225,-0.078806 -0.267066,0 -0.472838,0.1576125 -0.201394,0.1532344 -0.372141,0.3721407 l -0.118209,0.1488562 -0.669853,-0.3283594 0.06567,-0.105075 q 0.288956,-0.4684593 0.669853,-0.7486594 0.385275,-0.2845781 0.901894,-0.2845781 0.214528,0 0.516618,0.1094531 0.306469,0.1094532 0.665475,0.2758219 0.359007,0.1619907 0.744282,0.3327375 0.385275,0.1663688 0.77055,0.2845782 0.385275,0.1138312 0.735525,0.1269656 v 0.7574156 q -0.2802,0.030647 -0.718013,0.2057719 -0.433434,0.1707469 -1.129556,0.53850938 -0.5604,0.29771251 -1.041994,0.50786251 Q 32.413081,-0.21452813 31.913974,-0.105075 31.419246,0 30.801931,0 H 30.070784 Z M 25.281712,0 q -0.643584,0 -1.002591,-0.30209063 -0.354628,-0.30209063 -0.459703,-0.83184377 -0.253931,0.25393126 -0.551644,0.38965314 -0.293334,0.13572188 -0.661097,0.13572188 -0.626071,0 -1.05075,-0.33711564 -0.424678,-0.33711558 -0.424678,-0.93254068 0,-0.6742312 0.551644,-1.1645812 0.551644,-0.4947282 1.733738,-0.8581125 l -0.03065,-0.21015 0.7005,-0.1401 0.380897,2.6881687 q 0.05254,0.3852751 0.249553,0.57791256 0.201394,0.18825938 0.58229,0.18825938 h 0.135722 V 0 Z m -1.637419,-2.2021969 q 0,-0.1357219 -0.01751,-0.2583094 l -0.109454,-0.7311469 q -0.849356,0.3064688 -1.239009,0.6041813 -0.385275,0.2977125 -0.385275,0.6523406 0,0.2889563 0.197016,0.4378125 0.197015,0.1488563 0.534131,0.1488563 0.258309,0 0.49035,-0.1006969 0.236419,-0.1006969 0.380897,-0.2933344 0.148856,-0.1926375 0.148856,-0.4597031 z m -8.13018,1.40537814 q 0.08318,-0.14010001 0.175125,-0.27582184 0.09194,-0.1401 0.175125,-0.2758219 v -4.6802157 h 0.739903 v 3.6382219 q 0.941297,-1.1339344 1.93951,-1.1339344 0.516618,0 0.901893,0.21015 0.389653,0.21015 0.604182,0.5822907 0.218906,0.3677625 0.218906,0.8493562 -0.0044,0.95880941 -0.809953,1.42289067 Q 18.657607,0 17.037701,0 H 14.769832 V -0.79681876 Z M 18.587557,-2.73195 q -1.05075,0 -2.276625,1.93513124 h 0.709256 q 1.247766,0 1.860703,-0.24955314 0.612938,-0.2495531 0.612938,-0.7924406 0,-0.385275 -0.249553,-0.6392063 Q 18.994722,-2.73195 18.587557,-2.73195 Z m -4.163596,1.98329061 q 0,2.55682509 -2.806378,3.09533439 l -0.25831,-0.6961218 q 1.006969,-0.1926376 1.606772,-0.6435844 0.599803,-0.44656879 0.709257,-1.12517818 -0.166369,0.0525375 -0.385275,0.09194063 -0.218907,0.03940313 -0.385275,0.03940313 -1.598016,0 -1.598016,-1.35721878 0,-0.3239813 0.09632,-0.6479625 0.100697,-0.3283594 0.288956,-0.5998031 0.192637,-0.2758219 0.468459,-0.4421907 0.275822,-0.1663687 0.626072,-0.1663687 0.415922,0 0.722391,0.2057719 0.310847,0.2057718 0.51224,0.5560218 0.201394,0.35025 0.302091,0.7880625 0.100697,0.4378126 0.100697,0.90189381 z m -1.497319,-0.0306469 q 0.385275,0 0.766172,-0.11383125 -0.04378,-0.73552499 -0.271444,-1.12517819 -0.227662,-0.3940312 -0.643584,-0.3940312 -0.288956,0 -0.450947,0.1795031 -0.157612,0.1795031 -0.223284,0.4246781 -0.06129,0.2407969 -0.06129,0.4378126 0,0.3196031 0.218906,0.45532496 0.218906,0.13572188 0.665475,0.13572188 z M 10.708158,0 Q 10.406067,0 10.200295,-0.07880625 9.9989015,-0.16199063 9.8850703,-0.25393125 9.8193984,0.31960313 9.5654671,0.85373439 9.315914,1.3922438 8.8124296,1.7906532 q -0.5034844,0.3984093 -1.33095,0.5604 L 7.2231702,1.6593094 q 1.0682625,-0.2320406 1.506075,-0.81433126 0.4378126,-0.57791251 0.4378126,-1.37035315 0,-0.37214063 -0.083184,-0.77930629 Q 9.0050671,-1.716225 8.860589,-2.1409032 l 0.7267688,-0.245175 0.2364187,0.9150282 q 0.096319,0.3677625 0.3064685,0.52099686 0.21015,0.15323438 0.529753,0.15323438 h 0.166369 V 0 Z M 3.6068394,-5.7572345 4.1978863,-5.1661876 3.6068394,-4.5751407 3.0157925,-5.1661876 Z m 0.7486594,1.1076657 0.5910468,0.5910469 -0.5910468,0.5910468 -0.5910469,-0.5910468 z m -1.4973188,0 0.5910469,0.5910469 L 2.85818,-3.4674751 2.2671331,-4.0585219 Z M 4.9640581,0 Q 4.5437581,0 4.2854488,-0.175125 4.0271394,-0.35025001 3.8651488,-0.66985314 3.6199737,-0.31522501 3.3178831,-0.1576125 3.0201706,0 2.6699206,0 2.1664362,0 1.8906143,-0.17074688 1.6191706,-0.34587188 1.45718,-0.66985314 1.2514081,-0.34587188 0.93180496,-0.17074688 0.61220182,0 0.02115494,0 h -0.40278751 v -0.79681876 h 0.41154376 q 0.56040001,0 0.81870939,-0.20577184 0.25830942,-0.21015 0.25830942,-0.7617938 0,-0.1138313 -0.013134,-0.2670656 -0.00876,-0.1576125 -0.030647,-0.4378125 l 0.7311469,-0.091941 0.07005,0.9150282 q 0.026269,0.3677625 0.2232844,0.6085594 0.2013937,0.24079684 0.5910469,0.24079684 0.4640812,0 0.63045,-0.24955314 0.1663687,-0.2495531 0.1663687,-0.7180125 0,-0.1138313 -0.013134,-0.2714438 -0.00876,-0.1576125 -0.030647,-0.4334343 l 0.7311469,-0.091941 0.07005,0.9150282 q 0.021891,0.3546281 0.1882593,0.6041812 0.1663688,0.24517504 0.5385094,0.24517504 0.6479625,0 0.6479625,-0.96756564 0,-0.1576125 -0.013134,-0.3283594 -0.00876,-0.1707469 -0.030647,-0.4509469 l 0.7311469,-0.087563 0.07005,0.9850782 q 0.052537,0.84935624 0.8668687,0.84935624 H 7.3632707 V 0 H 7.2406832 Q 6.7809801,0 6.4745113,-0.16636875 6.1680425,-0.33711563 6.0542113,-0.67423126 5.87033,-0.35025001 5.6295332,-0.175125 5.3931144,0 4.9640581,0 Z m -7.0706719,0.10069688 q -0.4378126,0 -0.8099532,-0.18825938 Q -3.2843295,-0.2802 -3.6827389,-0.66547501 -3.967317,-0.34587188 -4.2300045,-0.17074688 -4.492692,0 -4.9699076,0 h -0.1926375 v -0.79681876 h 0.1707468 q 0.2933344,0 0.4947282,-0.16636876 0.2013937,-0.17074688 0.3590062,-0.43781248 0.1576125,-0.2670657 0.3108469,-0.5647782 0.1576125,-0.3020906 0.35025,-0.5691562 0.1926375,-0.2670656 0.4640813,-0.4334344 0.2758218,-0.1707469 0.6786094,-0.1707469 0.4859718,0 0.8449781,0.2364188 0.3633844,0.2320406 0.5604,0.6260719 0.20139375,0.3940312 0.20139375,0.8800031 0,0.71363439 -0.36338435,1.10766565 -0.3590063,0.38965313 -1.015725,0.38965313 z m -0.21015,-2.46488438 q -0.2189063,0 -0.3984094,0.1488562 -0.1795032,0.1444781 -0.3239813,0.3765188 -0.1444781,0.2320406 -0.2583094,0.4815937 0.2626875,0.2758219 0.5428875,0.45094691 0.3590063,0.23204063 0.6392063,0.23204063 0.6479625,0 0.6479625,-0.65234064 0,-0.455325 -0.2276625,-0.7442813 -0.2232844,-0.2933343 -0.6216937,-0.2933343 z"
       id="text3"
       transform="matrix(1.3333333,0,0,1.3333333,38.698667,218.91333)"
       aria-label="نﺎﻫاﻮﺧ ﻪﻃوﺮﺸﻣ" />
    <path
       style="font-size:8.9664px;font-family:Vazirmatn"
       d="m 49.784257,-3.7170282 0.634829,0.6348281 -0.634829,0.6348282 -0.634828,-0.6348282 z m 0.05254,4.864097 q 0.731147,0 1.129556,-0.24079691 0.402788,-0.23641875 0.5604,-0.62607189 0.161991,-0.385275 0.161991,-0.82746563 0,-0.52099687 -0.1401,-1.02885937 -0.1401,-0.5078625 -0.262688,-0.8318438 l 0.74866,-0.3020906 q 0.205772,0.5647781 0.310847,1.0989094 0.109453,0.5297531 0.109453,1.01134687 0,0.73990313 -0.275822,1.31343752 -0.271444,0.57353441 -0.849356,0.89751561 -0.577913,0.3239813 -1.492941,0.3239813 -0.945675,0 -1.514831,-0.3458719 -0.564779,-0.3458719 -0.81871,-0.92378439 -0.249553,-0.57353438 -0.249553,-1.26090002 0,-0.46408129 0.09632,-0.95005319 0.09632,-0.49035 0.262687,-0.9544312 l 0.696122,0.2802 q -0.126965,0.4027875 -0.214528,0.8274656 -0.08756,0.42467816 -0.08756,0.82308754 0,0.47283751 0.166368,0.86249064 0.170747,0.38965313 0.569157,0.62169376 0.398409,0.23204066 1.094531,0.23204066 z m -4.693351,-7.175747 h 0.739903 v 4.1854875 q 0,0.6173157 0.227663,0.8318438 0.227662,0.21452814 0.687365,0.21452814 h 0.109453 V 0 H 46.798375 Q 45.962153,0 45.55061,-0.44219063 45.143444,-0.88875939 45.143444,-1.8475688 Z m -4.557628,2.4736406 0.345872,-0.6479625 q 1.571747,0.7661719 2.342297,1.3703532 0.77055,0.5998031 0.77055,1.225875 0,0.77492814 -0.481594,1.16895939 -0.477216,0.39403126 -1.282791,0.39403126 -0.30209,0 -0.643584,-0.04815938 Q 41.295072,-0.1401 40.988603,-0.21015 q -0.306469,-0.0744281 -0.516619,-0.14447813 -0.380896,0.1401 -0.893137,0.24955313 Q 39.066606,0 38.589391,0 h -0.433435 v -0.79681876 h 0.376519 q 0.288956,0 0.507863,-0.0131344 0.223284,-0.0131344 0.485971,-0.0437812 -0.30209,-0.24517501 -0.437812,-0.53413121 -0.131344,-0.2933344 -0.131344,-0.6041813 0,-0.455325 0.214528,-0.7836844 0.214528,-0.3283594 0.569157,-0.5034844 0.354628,-0.1795031 0.774928,-0.1795031 0.188259,0 0.376518,0.048159 -0.148856,-0.07005 -0.306468,-0.1444782 z m 0.79244,2.71881571 q 0.192638,0.0218906 0.4203,0.0437812 0.227663,0.0175125 0.402788,0.0175125 0.529753,0 0.805575,-0.19701563 0.2802,-0.20139373 0.2802,-0.62169373 0,-0.2145282 -0.245175,-0.4640813 -0.245175,-0.2539312 -0.656719,-0.5209969 -0.407165,-0.2714437 -0.901894,-0.5341312 0.240797,0.1926375 0.385275,0.4640812 0.148857,0.2714438 0.148857,0.5735344 0,0.4115438 -0.166369,0.7048782 -0.161991,0.2889562 -0.472838,0.53413121 z M 39.710191,-2.0008032 q 0,0.2583094 0.214528,0.5166188 0.218906,0.2539313 0.63045,0.4115438 0.788062,-0.3196032 0.788062,-0.9194063 0,-0.3808969 -0.23204,-0.5779125 -0.227663,-0.2013938 -0.551644,-0.2013938 -0.376519,0 -0.612938,0.21015 -0.236418,0.21015 -0.236418,0.5604 z m -2.136525,-4.027875 v 6.02430007 H 36.833763 V -6.0286782 Z M 34.0843,-3.2004094 q 0.682988,0 1.151447,0.6129375 0.46846,0.6085594 0.485972,1.79065314 h 0.529753 V 0 H 35.651669 Q 35.55535,0.50348438 35.266394,0.97194377 34.981816,1.4447813 34.417038,1.8037875 33.85226,2.1671719 32.919719,2.346675 L 32.66141,1.6505532 Q 34.6447,1.2696563 34.959925,0 h -0.691743 q -1.65931,0 -1.65931,-1.3440844 0,-0.4290563 0.170747,-0.8581125 0.175125,-0.4290563 0.503485,-0.7136344 0.332737,-0.2845781 0.801196,-0.2845781 z m 0.1401,2.40359064 h 0.774929 q -0.05254,-0.84497814 -0.2802,-1.23025314 -0.223285,-0.385275 -0.647963,-0.385275 -0.2802,0 -0.442191,0.1795031 -0.157612,0.1795031 -0.223284,0.4246781 -0.06129,0.2407969 -0.06129,0.4378126 0,0.3064687 0.205772,0.44219058 0.21015,0.13134376 0.674231,0.13134376 z m -5.415741,-4.76340004 0.634828,0.6348281 -0.634828,0.6348281 -0.634828,-0.6348281 z m -2.727572,4.76340004 h 0.744281 q 0.512241,0 0.941297,-0.0919406 0.429057,-0.0919406 0.836222,-0.25393121 0.411544,-0.1619907 0.858113,-0.3808969 0.450947,-0.2232844 1.006968,-0.4772157 -0.310846,-0.1138312 -0.643584,-0.245175 -0.332737,-0.1357218 -0.634828,-0.2539312 -0.297713,-0.1182094 -0.520997,-0.1926375 -0.223284,-0.078806 -0.315225,-0.078806 -0.267066,0 -0.472837,0.1576125 -0.201394,0.1532344 -0.372141,0.3721407 l -0.118209,0.1488562 -0.669854,-0.3283594 0.06567,-0.105075 q 0.288957,-0.4684593 0.669853,-0.7486594 0.385275,-0.2845781 0.901894,-0.2845781 0.214528,0 0.516619,0.1094531 0.306469,0.1094532 0.665475,0.2758219 0.359006,0.1619907 0.744281,0.3327375 0.385275,0.1663688 0.77055,0.2845782 0.385275,0.1138312 0.735525,0.1269656 v 0.7574156 q -0.2802,0.030647 -0.718012,0.2057719 -0.433435,0.1707469 -1.129557,0.53850938 -0.5604,0.29771251 -1.041993,0.50786251 Q 28.423384,-0.21452813 27.924278,-0.105075 27.42955,0 26.812234,0 h -0.731147 z m -7.910677,0 h 1.247766 q 0.437812,0 0.591047,-0.25393124 0.157612,-0.2539313 0.157612,-0.6435844 0,-0.2845781 -0.05254,-0.6085594 -0.05254,-0.3239812 -0.113832,-0.6523406 l 0.761794,-0.1926375 q 0.07443,0.35025 0.11821,0.6873656 0.04378,0.3371156 0.04378,0.6435844 0,0.525375 -0.144478,0.93691876 -0.144478,0.41154376 -0.472838,0.64796251 Q 19.978576,0 19.426932,0 H 18.17041 Z m 1.878216,1.49294065 0.612937,0.60855941 -0.612937,0.6173156 -0.60856,-0.6173156 z m -1.453538,0 0.612938,0.60855941 -0.612938,0.6173156 -0.608559,-0.6173156 z M 18.227326,0 q -0.30209,0 -0.507862,-0.07880625 -0.201394,-0.08318438 -0.315225,-0.175125 -0.06567,0.57353438 -0.319603,1.10766564 -0.249554,0.53850941 -0.753038,0.93691881 -0.503484,0.3984093 -1.33095,0.5604 L 14.742339,1.6593094 q 1.068262,-0.2320406 1.506075,-0.81433126 0.437812,-0.57791251 0.437812,-1.37035315 0,-0.37214063 -0.08318,-0.77930629 -0.07881,-0.4115437 -0.223285,-0.8362219 l 0.726769,-0.245175 0.236419,0.9150282 q 0.09632,0.3677625 0.306469,0.52099686 0.21015,0.15323438 0.529753,0.15323438 h 0.166369 V 0 Z m -5.51206,-3.2004094 q 0.682987,0 1.151447,0.6129375 0.468459,0.6085594 0.485971,1.79065314 h 0.529754 V 0 H 14.282634 Q 14.186316,0.50348438 13.897359,0.97194377 13.612781,1.4447813 13.048003,1.8037875 12.483225,2.1671719 11.550684,2.346675 L 11.292375,1.6505532 Q 13.275666,1.2696563 13.590891,0 h -0.691744 q -1.659309,0 -1.659309,-1.3440844 0,-0.4290563 0.170746,-0.8581125 0.175125,-0.4290563 0.503485,-0.7136344 0.332737,-0.2845781 0.801197,-0.2845781 z m 0.1401,2.40359064 h 0.774928 q -0.05254,-0.84497814 -0.2802,-1.23025314 -0.223285,-0.385275 -0.647963,-0.385275 -0.2802,0 -0.44219,0.1795031 -0.157613,0.1795031 -0.223285,0.4246781 -0.06129,0.2407969 -0.06129,0.4378126 0,0.3064687 0.205771,0.44219058 0.21015,0.13134376 0.674232,0.13134376 z M 6.2531529,0 v -0.79681876 h 0.9062719 v -0.0788063 q 0,-0.46845939 0.083184,-0.95005319 0.087562,-0.4859718 0.2714437,-0.8931375 0.1838813,-0.4115437 0.4815938,-0.6610969 0.3020906,-0.2495531 0.7311469,-0.2495531 0.5560219,0 0.8712469,0.3896531 0.315225,0.3896532 0.315225,1.0157251 0,0.4071656 -0.1619907,0.8011969 -0.1619906,0.3940312 -0.4421906,0.71801246 -0.2802,0.32398126 -0.6392063,0.51661876 -0.3590062,0.19263751 -0.7530375,0.19263751 0.087563,0.3677625 0.3458719,0.74865938 0.2583094,0.38089689 0.6435844,0.63044999 0,-2.18030626 1.8431903,-2.18030626 h 0.144478 V 0 H 10.740731 Q 10.154062,0 9.8563498,0.31960313 9.5630155,0.63920626 9.5630155,1.401 q 0,0.096319 0.00438,0.2013938 0.00438,0.1094531 0.013134,0.2145281 L 9.0376405,2.346675 Q 8.2933592,1.9701563 7.8292779,1.3528406 7.3651967,0.73990314 7.2207185,0 Z m 2.4648844,-2.8589157 q -0.2626875,0 -0.4509469,0.2626875 -0.1882593,0.2626875 -0.2889562,0.7136344 -0.096319,0.4465688 -0.096319,1.00259066 v 0.0875625 q 0.3677625,0 0.6698532,-0.19701563 0.3020906,-0.19701563 0.4815937,-0.52099683 0.1795032,-0.3283594 0.1795032,-0.7136344 0,-0.3108469 -0.1401,-0.4728375 Q 8.9369436,-2.8589157 8.7180373,-2.8589157 Z M 1.3058721,0 H 1.1132346 v -0.79681876 h 0.1707469 q 0.2933343,0 0.4947281,-0.16636876 Q 1.9801033,-1.1339344 2.1377158,-1.401 2.2953283,-1.6680657 2.4485627,-1.9657782 2.6061752,-2.2678688 2.7988127,-2.5349344 2.9914502,-2.802 3.262894,-2.9683688 q 0.2758219,-0.1707469 0.6786094,-0.1707469 0.6873656,0 1.0682625,0.4203 0.3808969,0.4159219 0.5122406,1.0376157 0.087562,0.4290562 0.2977125,0.6567187 0.2145282,0.22766254 0.4947282,0.22766254 H 6.4282784 V 0 H 6.310069 Q 6.029869,0 5.7628034,-0.11383125 5.4957378,-0.23204063 5.329369,-0.48597188 5.1454878,-0.21890625 4.874044,-0.05691563 4.6026003,0.10069688 4.1691659,0.10069688 q -0.4378125,0 -0.8099532,-0.18825938 Q 2.9914502,-0.2802 2.5930409,-0.66547501 2.3084627,-0.34587188 2.0457752,-0.17074688 1.7830877,0 1.3058721,0 Z m 2.6531438,-2.3641875 q -0.2189063,0 -0.3984094,0.1488562 -0.1795031,0.1444781 -0.3239813,0.3765188 -0.1444781,0.2320406 -0.2583093,0.4815937 0.1444781,0.1488563 0.2889562,0.2670657 0.1444781,0.11820933 0.2802,0.20139371 0.35025,0.21452813 0.6129375,0.21452813 0.6479625,0 0.6479625,-0.65234064 0,-0.455325 -0.2276625,-0.7442813 Q 4.3574253,-2.3641875 3.9590159,-2.3641875 Z M -1.8901594,0.66985314 -1.2553313,1.3046813 -1.8901594,1.9395094 -2.5249875,1.3046813 Z m -3.0033938,-1.4666719 h 0.7442813 q 0.5122406,0 0.9412969,-0.0919406 0.4290562,-0.0919406 0.8362218,-0.25393121 0.4115438,-0.1619907 0.8581126,-0.3808969 0.4509468,-0.2232844 1.00696872,-0.4772157 -0.31084688,-0.1138312 -0.64358442,-0.245175 -0.3327375,-0.1357218 -0.6348281,-0.2539312 -0.2977125,-0.1182094 -0.5209969,-0.1926375 -0.2232844,-0.078806 -0.315225,-0.078806 -0.2670656,0 -0.4728375,0.1576125 -0.2013937,0.1532344 -0.3721406,0.3721407 l -0.1182094,0.1488562 -0.6698531,-0.3283594 0.065672,-0.105075 q 0.2889563,-0.4684593 0.6698532,-0.7486594 0.385275,-0.2845781 0.9018937,-0.2845781 0.2145282,0 0.5166188,0.1094531 0.3064688,0.1094532 0.665475,0.2758219 0.3590063,0.1619907 0.74428127,0.3327375 0.38527501,0.1663688 0.77055001,0.2845782 0.38527501,0.1138312 0.73552502,0.1269656 v 0.7574156 q -0.28020001,0.030647 -0.71801252,0.2057719 -0.43343438,0.1707469 -1.12955628,0.53850938 -0.5604,0.29771251 -1.0419938,0.50786251 Q -2.5512563,-0.21452813 -3.0503625,-0.105075 -3.5450907,0 -4.1624063,0 h -0.7311469 z"
       id="text4"
       transform="matrix(1.3333333,0,0,1.3333333,247.34933,218.91067)"
       aria-label="نﺎﻫاﻮﺧ یرﻮﻬﻤﺟ" />
    <path
       style="font-size:8.9664px;font-family:Vazirmatn"
       d="M 38.303232,0.55164376 38.894279,1.1426906 38.303232,1.7337375 37.712185,1.1426906 Z m -1.497319,0 0.591047,0.59104684 -0.591047,0.5910469 -0.591047,-0.5910469 z m 0.74866,1.10766564 0.591046,0.5910469 -0.591046,0.5910469 -0.591047,-0.5910469 z m 2.569959,-4.2467813 0.731147,-0.087562 0.07443,1.0244812 q 0.02627,0.4159219 0.236419,0.6348282 0.214528,0.21890624 0.639206,0.21890624 h 0.105075 V 0 H 41.805732 Q 41.311004,0 40.991401,-0.18388125 40.676176,-0.37214063 40.470404,-0.78368439 40.107019,-0.36338438 39.537863,-0.17950313 38.973085,0 37.966116,0 h -0.731147 q -1.650553,0 -2.482396,-0.44656876 -0.827466,-0.44656875 -0.827466,-1.54547814 0,-0.3020906 0.06567,-0.5910469 0.07005,-0.2889562 0.179503,-0.5560219 l 0.678609,0.2539313 q -0.07005,0.1926375 -0.118209,0.4115437 -0.04378,0.2189063 -0.04378,0.4159219 0.0044,0.5122406 0.288956,0.7880625 0.284578,0.27144378 0.849356,0.37214066 0.564778,0.10069688 1.409756,0.10069688 h 0.731147 q 1.046372,0 1.619907,-0.21890624 0.577912,-0.2189063 0.577912,-0.7968188 0,-0.1795031 -0.01313,-0.385275 -0.0088,-0.2057719 -0.02627,-0.3896531 z M 31.149379,0.55164376 31.740426,1.1426906 31.149379,1.7337375 30.558332,1.1426906 Z m -1.497319,0 0.591047,0.59104684 -0.591047,0.5910469 -0.591047,-0.5910469 z m 0.748659,1.10766564 0.591047,0.5910469 -0.591047,0.5910469 -0.591047,-0.5910469 z m -3.003393,-2.45612816 h 0.744281 q 0.51224,0 0.941297,-0.0919406 0.429056,-0.0919406 0.836222,-0.25393121 0.411543,-0.1619907 0.858112,-0.3808969 0.450947,-0.2232844 1.006969,-0.4772157 -0.310847,-0.1138312 -0.643584,-0.245175 -0.332738,-0.1357218 -0.634829,-0.2539312 -0.297712,-0.1182094 -0.520997,-0.1926375 -0.223284,-0.078806 -0.315225,-0.078806 -0.267065,0 -0.472837,0.1576125 -0.201394,0.1532344 -0.372141,0.3721407 l -0.118209,0.1488562 -0.669853,-0.3283594 0.06567,-0.105075 q 0.288956,-0.4684593 0.669853,-0.7486594 0.385275,-0.2845781 0.901894,-0.2845781 0.214528,0 0.516618,0.1094531 0.306469,0.1094532 0.665475,0.2758219 0.359007,0.1619907 0.744282,0.3327375 0.385275,0.1663688 0.77055,0.2845782 0.385275,0.1138312 0.735525,0.1269656 v 0.7574156 q -0.2802,0.030647 -0.718013,0.2057719 -0.433434,0.1707469 -1.129556,0.53850938 -0.5604,0.29771251 -1.041994,0.50786251 Q 29.739622,-0.21452813 29.240516,-0.105075 28.745788,0 28.128472,0 h -0.731146 z m 2.057123,0.0481594 q 0,2.55682509 -2.806378,3.09533439 l -0.25831,-0.6961218 q 1.006969,-0.1926376 1.606772,-0.6435844 0.599803,-0.44656879 0.709257,-1.12517818 -0.166369,0.0525375 -0.385275,0.09194063 -0.218907,0.03940313 -0.385275,0.03940313 -1.598016,0 -1.598016,-1.35721878 0,-0.3239813 0.09632,-0.6479625 0.100697,-0.3283594 0.288956,-0.5998031 0.192637,-0.2758219 0.468459,-0.4421907 0.275822,-0.1663687 0.626072,-0.1663687 0.415922,0 0.722391,0.2057719 0.310847,0.2057718 0.51224,0.5560218 0.201394,0.35025 0.302091,0.7880625 0.100697,0.4378126 0.100697,0.90189381 z m -1.497319,-0.0306469 q 0.385275,0 0.766172,-0.11383125 -0.04378,-0.73552499 -0.271444,-1.12517819 -0.227662,-0.3940312 -0.643584,-0.3940312 -0.288956,0 -0.450947,0.1795031 -0.157612,0.1795031 -0.223284,0.4246781 -0.06129,0.2407969 -0.06129,0.4378126 0,0.3196031 0.218906,0.45532496 0.218906,0.13572188 0.665475,0.13572188 z M 25.513751,2.2547344 q -0.945675,0 -1.514831,-0.3458719 -0.564778,-0.3458718 -0.81871,-0.92378436 -0.249553,-0.57353438 -0.249553,-1.26090002 0,-0.2977125 0.04378,-0.68736564 0.04816,-0.38965308 0.214528,-0.88875938 l 0.696122,0.2583094 q -0.126966,0.4378125 -0.166369,0.77492811 -0.03503,0.33711563 -0.03503,0.56915626 0,0.47283751 0.166369,0.86249064 0.166368,0.38965309 0.564778,0.62169379 0.402787,0.2320406 1.098909,0.2320406 0.656719,0 1.125178,-0.1619906 0.472838,-0.1619907 0.722391,-0.38527503 0.253931,-0.22328438 0.253931,-0.40716564 0,-0.21015 -0.183881,-0.35900625 -0.179503,-0.14885625 -0.586669,-0.14885625 h -0.647962 q -0.08756,0 -0.126966,-0.07442813 -0.0394,-0.07880625 -0.07443,-0.20139375 l -0.11821,-0.42030001 q -0.0044,-0.035025 0.01751,-0.0656719 0.02189,-0.035025 0.07881,-0.035025 h 2.42986 V 0.00437813 H 28.22381 q 0.06567,0.13134375 0.08319,0.24955312 0.02189,0.11820938 0.02189,0.24517501 0,0.28895625 -0.170746,0.59542504 Q 27.99177,1.4053781 27.64152,1.6680657 27.295648,1.9307532 26.765895,2.0927438 26.236142,2.2547344 25.513751,2.2547344 Z M 20.684679,0.10069688 q -0.437812,0 -0.809953,-0.18825938 Q 19.506964,-0.2802 19.108554,-0.66547501 18.823976,-0.34587188 18.561289,-0.17074688 18.298601,0 17.821386,0 h -0.192638 v -0.79681876 h 0.170747 q 0.293334,0 0.494728,-0.16636876 0.201394,-0.17074688 0.359006,-0.43781248 0.157613,-0.2670657 0.310847,-0.5647782 0.157613,-0.3020906 0.35025,-0.5691562 0.192638,-0.2670656 0.464081,-0.4334344 0.275822,-0.1707469 0.67861,-0.1707469 0.485972,0 0.844978,0.2364188 0.363384,0.2320406 0.5604,0.6260719 0.201394,0.3940312 0.201394,0.8800031 0,0.71363439 -0.363385,1.10766565 -0.359006,0.38965313 -1.015725,0.38965313 z m -0.21015,-2.46488438 q -0.218906,0 -0.398409,0.1488562 -0.179503,0.1444781 -0.323981,0.3765188 -0.144478,0.2320406 -0.25831,0.4815937 0.262688,0.2758219 0.542888,0.45094691 0.359006,0.23204063 0.639206,0.23204063 0.647963,0 0.647963,-0.65234064 0,-0.455325 -0.227663,-0.7442813 -0.223284,-0.2933343 -0.621694,-0.2933343 z m -4.837828,-0.8362219 q 0.682988,0 1.151447,0.6129375 0.468459,0.6085594 0.485972,1.79065314 h 0.529753 V 0 H 17.20407 Q 17.107751,0.50348438 16.818795,0.97194377 16.534217,1.4447813 15.969439,1.8037875 15.40466,2.1671719 14.47212,2.346675 L 14.21381,1.6505532 Q 16.197101,1.2696563 16.512326,0 h -0.691744 q -1.659309,0 -1.659309,-1.3440844 0,-0.4290563 0.170747,-0.8581125 0.175125,-0.4290563 0.503484,-0.7136344 0.332738,-0.2845781 0.801197,-0.2845781 z m 0.1401,2.40359064 h 0.774928 q -0.05254,-0.84497814 -0.2802,-1.23025314 -0.223284,-0.385275 -0.647962,-0.385275 -0.2802,0 -0.442191,0.1795031 -0.157612,0.1795031 -0.223284,0.4246781 -0.06129,0.2407969 -0.06129,0.4378126 0,0.3064687 0.205772,0.44219058 0.21015,0.13134376 0.674231,0.13134376 z m -3.506878,-5.70031884 0.612937,0.6085594 -0.612937,0.6173156 -0.60856,-0.6173156 z m -1.453538,0 0.612938,0.6085594 -0.612938,0.6173156 -0.608559,-0.6173156 z m 0.389653,5.70031884 q 0.494728,0 0.796819,-0.0569156 0.306469,-0.0569156 0.446569,-0.24955311 0.144478,-0.1970156 0.144478,-0.6085594 -0.214528,0.065672 -0.437813,0.1006969 -0.218906,0.035025 -0.472837,0.035025 -1.488563,0 -1.488563,-1.2214969 0,-0.4203 0.166369,-0.8406 0.170747,-0.4203 0.499106,-0.7005 0.32836,-0.2845782 0.796819,-0.2845782 0.429056,0 0.735525,0.2189063 0.310847,0.2189062 0.507863,0.5910469 0.201394,0.3677625 0.297712,0.8362219 0.09632,0.4640812 0.09632,0.9588093 0,0.6523407 -0.118209,1.05512818 -0.113832,0.39840939 -0.367763,0.60855939 -0.253931,0.20577188 -0.661097,0.2802 Q 11.74017,0 11.153501,0 H 9.5423508 v -0.79681876 z m 0.53851,-1.53234374 q 0.201393,0 0.398409,-0.035025 0.201394,-0.039403 0.402788,-0.096319 -0.03503,-0.3108469 -0.131344,-0.63045 -0.09194,-0.3196031 -0.275822,-0.5341313 -0.183881,-0.2189062 -0.49035,-0.2189062 -0.271444,0 -0.437813,0.1707469 -0.16199,0.1707468 -0.236418,0.4071656 -0.07005,0.2364188 -0.07005,0.4378125 0,0.3020906 0.214528,0.4027875 0.218906,0.096319 0.626072,0.096319 z"
       id="text5"
       transform="matrix(1.3333333,0,0,1.3333333,152.556,67.716)"
       aria-label="ﭗﭼوﯽﻣﻮﻗ" />
    <path
       id="path5"
       d="m 70.867,22.67752 c 0,15.6557 -15.86387,28.3468 -35.43351,28.3468 C 15.86386,51.02432 0,38.33322 0,22.67752 0,7.0218 15.86386,-5.66928 35.43349,-5.66928 c 19.56964,0 35.43351,12.69108 35.43351,28.3468 z"
       style="fill:#ffffff;fill-opacity:1;fill-rule:nonzero;stroke:#be1e2d;stroke-width:1.99255;stroke-linecap:butt;stroke-linejoin:miter;stroke-miterlimit:10;stroke-dasharray:none;stroke-opacity:1"
       transform="matrix(1.3333333,0,0,-1.3333333,133.31067,216.46133)" />
    <path
       style="font-weight:800;font-size:9.9626px;font-family:Vazirmatn"
       d="m 34.052322,-6.8201 h 1.313429 v 4.4461993 q 0,0.5156423 0.150801,0.7442762 0.150801,0.2237694 0.622662,0.2237694 h 0.121614 V 0 H 36.139214 Q 35.049555,0 34.548506,-0.56428788 34.052322,-1.1285758 34.052322,-2.2571515 Z m -5.229393,6.39688409 Q 28.38512,-0.27241484 27.820832,-0.13620742 27.261409,0 26.726308,0 h -0.48159 v -1.4058551 h 0.418351 q 0.16053,0 0.301602,-0.00486 0.145937,-0.00486 0.296738,-0.014594 -0.150801,-0.1945821 -0.243228,-0.5156424 -0.09243,-0.3259249 -0.09243,-0.6032043 0,-0.4134868 0.204311,-0.81238 0.204311,-0.3988931 0.612933,-0.6664434 0.408622,-0.2675503 1.016691,-0.2870085 l 0.466997,-0.9242646 q 0.904807,0.4280804 1.605302,0.7831926 0.70536,0.3551122 1.182086,0.7004953 0.48159,0.3453831 0.729682,0.7491408 0.248092,0.3988932 0.248092,0.9242647 0,0.9923683 -0.593475,1.51287522 -0.593475,0.51564237 -1.57125,0.51564237 -0.510778,0 -1.070201,-0.12647831 Q 29.1975,-0.30160214 28.822929,-0.42321591 Z M 28.137028,-2.5538891 q 0,0.2675503 0.243227,0.5010487 0.243228,0.2286339 0.525372,0.3161958 0.131343,-0.029187 0.301602,-0.1313429 0.175124,-0.1070201 0.301602,-0.2578211 0.126478,-0.1556657 0.126478,-0.3307895 0,-0.291873 -0.209175,-0.5253715 -0.209176,-0.2334984 -0.510778,-0.2334984 -0.311331,0 -0.54483,0.1994466 -0.233498,0.194582 -0.233498,0.4621323 z m 2.130673,1.148034 q 0.228634,0.038916 0.442674,0.058375 0.21404,0.019458 0.306467,0.019458 0.287008,0 0.525371,-0.1459366 0.238363,-0.150801 0.238363,-0.5642878 0,-0.1021556 -0.07783,-0.2334985 -0.07297,-0.1362074 -0.32106,-0.3307894 -0.243227,-0.194582 -0.749141,-0.476726 0.0681,0.2091757 0.0681,0.432945 0,0.379435 -0.121614,0.6907662 -0.116749,0.3064667 -0.311331,0.5496943 z M 17.868429,2.4128171 q -1.430178,0 -2.150131,-0.7637344 -0.719954,-0.75886993 -0.719954,-2.13553777 0,-0.56428783 0.131343,-1.17235673 0.136208,-0.6080688 0.359977,-1.1674921 l 1.182086,0.4524032 q -0.165395,0.4378095 -0.296738,0.9485874 -0.131343,0.51077778 -0.131343,0.94372278 0,0.7296826 0.398893,1.11398211 0.403758,0.38916401 1.225867,0.38916401 0.554559,0 0.861026,-0.21404019 0.311331,-0.20917568 0.432945,-0.60320428 0.126478,-0.38916406 0.126478,-0.92426463 V -6.8201 h 1.308564 v 4.3391792 q 0,0.4718614 0.141072,0.7734635 0.145937,0.3016022 0.608069,0.3016022 h 0.150801 V 0 H 21.356312 Q 21.088762,0 20.903909,-0.05837461 20.72392,-0.12161377 20.56339,-0.23349843 20.470964,0.99723289 19.838572,1.7025927 19.211045,2.4128171 17.868429,2.4128171 Z m -6.644977,-10.1960982 0.826973,0.8172446 0.817245,-0.8172446 0.831838,0.8269737 -0.831838,0.8367027 -0.817245,-0.8269736 -0.826973,0.8269736 -0.826974,-0.8367027 z m 0.447538,6.377426 q 0.622663,0 0.948588,-0.097291 0.330789,-0.097291 0.335654,-0.4815905 -0.355112,0.068104 -0.754006,0.068104 -0.861025,0 -1.362074,-0.3551122 -0.501049,-0.3599767 -0.501049,-1.1674921 0,-0.3940286 0.126479,-0.7783281 0.131343,-0.3891641 0.369706,-0.7053599 0.243227,-0.3210603 0.578881,-0.5107778 0.340519,-0.194582 0.75887,-0.194582 0.539965,0 0.924265,0.2724148 0.389164,0.2675503 0.632391,0.7199535 0.243228,0.4524032 0.355112,1.0118266 0.11675,0.5545587 0.11675,1.1334403 0,1.0118265 -0.27728,1.55179162 -0.272415,0.53510058 -0.846431,0.7394117 Q 12.507693,0 11.612616,0 H 9.8224611 v -1.4058551 z m 0.510778,-1.7025928 q 0.184853,0 0.369706,-0.019458 0.189718,-0.019458 0.369706,-0.058375 -0.03405,-0.2334984 -0.126478,-0.4815905 -0.09243,-0.2529566 -0.248093,-0.4280805 -0.155665,-0.1751238 -0.384299,-0.1751238 -0.301602,0 -0.466997,0.2480921 -0.16053,0.2432275 -0.16053,0.5253715 0,0.2578212 0.189717,0.3259249 0.189718,0.063239 0.457268,0.063239 z M 9.2581743,-6.8201 v 6.81523545 H 7.9447456 V -6.8201 Z m -4.2321596,4.7186141 q 0,-0.1216138 -0.05351,-0.3210603 -0.05351,-0.1994466 -0.1118847,-0.3259249 l -0.963181,-2.1258087 1.157763,-0.5642878 1.2112731,2.792252 q 0.1459365,0.335654 0.2578212,0.617798 0.1167492,0.2821439 0.2626857,0.4524032 0.1508011,0.1702593 0.3842996,0.1702593 H 7.3755927 V 0 H 7.1712816 Q 6.6264519,0 6.2907979,-0.20431113 5.9600084,-0.41348681 5.7070518,-0.7394117 5.337346,-0.3842995 4.8265681,-0.19458203 q -0.5107778,0.18971748 -1.2355958,0.18971748 -0.4280805,0 -0.7248181,-0.0291873 Q 2.5694166,-0.06323916 2.2532208,-0.14107197 V -1.5469271 q 0.3016022,0.072968 0.6372562,0.1118847 0.3405185,0.038916 0.627527,0.038916 0.3599768,0 0.7053599,-0.058375 0.345383,-0.063239 0.5740169,-0.2189048 0.2286339,-0.1556656 0.2286339,-0.4280805 z m -10.0647549,0.6956308 h 0.8269736 q 0.6275271,0 1.1674922,-0.1167493 0.5399651,-0.1216137 1.1091175,-0.3599767 0.574017,-0.238363 1.30369962,-0.5934752 -0.74914082,-0.2724148 -1.21127312,-0.4572677 -0.4621323,-0.1897175 -0.6323916,-0.1897175 -0.2626857,0 -0.4767259,0.1653947 -0.2091757,0.1605302 -0.3453831,0.3405185 l -0.2578212,0.3259249 -1.0896594,-0.5351005 0.2189048,-0.3502477 q 0.3453831,-0.5642879 0.8269736,-0.9339937 0.4815905,-0.3745704 1.1285758,-0.3745704 0.2724148,0 0.6323916,0.1264783 0.3648413,0.1264783 0.7783281,0.3161958 0.41835132,0.1848529 0.86102543,0.3745704 0.44753866,0.1848529 0.88048367,0.3161958 0.4378096,0.1313429 0.8367027,0.1362074 v 1.2891059 q -0.3697058,0.048645 -0.68590163,0.1653948 -0.31619579,0.1118846 -0.65671434,0.2870084 -0.34051855,0.1751239 -0.79292176,0.4183514 -0.62266247,0.33078945 -1.17722127,0.56915243 -0.5496942,0.23836299 -1.1334403,0.3648413 Q -3.5064067,0 -4.2263602,0 h -0.81238 z"
       id="text6"
       transform="matrix(1.3333333,0,0,1.3333333,154.66267,189.80533)"
       aria-label="ﺎﻫ ﻞﻗاﺪﺣ" />
  </g>
</svg>
