<?xml version="1.0" encoding="UTF-8" standalone="no"?>


<svg class="tikz-diagram" id="iran-action-ch3-tikz-8-8525c1997a46"
   version="1.1"
   id="svg1"
   width="461.28"
   height="250.42667"
   viewBox="0 0 461.28 250.42667"
   sodipodi:docname="iran-action-ch3-tikz-8-8525c1997a46.pdf"
   xmlns:inkscape="http://www.inkscape.org/namespaces/inkscape"
   xmlns:sodipodi="http://sodipodi.sourceforge.net/DTD/sodipodi-0.dtd"
   xmlns="http://www.w3.org/2000/svg"
   xmlns:svg="http://www.w3.org/2000/svg">
  <defs
     id="defs1" />
  <sodipodi:namedview
     id="namedview1"
     pagecolor="#ffffff"
     bordercolor="#000000"
     borderopacity="0.25"
     inkscape:showpageshadow="2"
     inkscape:pageopacity="0.0"
     inkscape:pagecheckerboard="0"
     inkscape:deskcolor="#d1d1d1">
    <inkscape:page
       x="0"
       y="0"
       inkscape:label="1"
       id="page1"
       width="461.28"
       height="250.42667"
       margin="0"
       bleed="0" />
  </sodipodi:namedview>
  <g
     id="g1"
     inkscape:groupmode="layer"
     inkscape:label="1">
    <path
       id="path1"
       d="M 70.86703,0 C 70.86703,19.56963 39.13928,35.4335 0,35.4335 -39.13928,35.4335 -70.86703,19.56963 -70.86703,0 c 0,-19.56963 31.72775,-35.4335 70.86703,-35.4335 39.13928,0 70.86703,15.86387 70.86703,35.4335 z"
       style="fill:#d5f5e3;fill-opacity:1;fill-rule:nonzero;stroke:#2ecc71;stroke-width:2.98883;stroke-linecap:butt;stroke-linejoin:miter;stroke-miterlimit:10;stroke-dasharray:none;stroke-opacity:1"
       transform="matrix(1.3333333,0,0,-1.3333333,233.21067,125.00133)" />
    <g
       id="text1"
       transform="matrix(1.3333333,0,0,1.3333333,197.83867,120.844)"
       aria-label="ﺶﺒﻨﺟنﺎﻧز،نز،ﯽﮔﺪﻧزیدازآ">
      <path
         style="font-weight:800;font-size:11.9552px;font-family:Vazirmatn"
         d="m 48.17479,-8.3359501 0.939837,0.934 -0.939837,0.9398375 -0.939838,-0.9398375 z m 1.021562,1.4885625 0.939838,0.9398375 -0.939838,0.9398375 -0.939837,-0.9398375 z m -2.037287,0 0.934,0.9398375 -0.934,0.9398375 -0.939838,-0.9398375 z M 42.29059,1.33095 q 0.8406,0 1.325112,-0.268525 0.49035,-0.26852499 0.694663,-0.72968749 0.21015,-0.46116251 0.21015,-1.04491252 0,-0.63044999 -0.204313,-1.29592499 -0.198475,-0.6713125 -0.449487,-1.2784126 l 1.558612,-0.58375 0.391113,1.2025251 q 0.134262,0.408625 0.391112,0.6946625 0.25685,0.2802 0.729688,0.2860375 0.484512,0 0.647962,-0.198475 0.16345,-0.2043125 0.16345,-0.7180125 0,-0.081725 -0.01167,-0.2977125 -0.01168,-0.2218251 -0.02919,-0.4845126 -0.01751,-0.2626875 -0.03503,-0.4728375 l 1.47105,-0.1809625 0.11675,1.5761251 q 0.02335,0.361925 0.180962,0.572075 0.157613,0.2043125 0.525375,0.2043125 0.350251,0 0.484513,-0.2335 0.1401,-0.2393375 0.1401,-0.6829875 0,-0.21015 -0.02335,-0.6071001 -0.02335,-0.39695 -0.05254,-0.758875 l 1.47105,-0.1809625 0.11675,1.6870376 q 0.02919,0.431975 0.239337,0.6071 0.21015,0.1692875 0.659638,0.1692875 h 0.175125 V 0 h -0.16345 Q 52.477028,0 52.068403,-0.1868 51.659778,-0.37360001 51.42044,-0.69466251 51.181103,-0.39695001 50.825015,-0.198475 50.474765,0 49.97274,0 49.453202,0 49.091277,-0.2159875 48.73519,-0.43197501 48.490015,-0.74720001 48.192302,-0.43197501 47.812865,-0.2159875 47.439265,0 46.925565,0 46.662877,0 46.441052,-0.0758875 46.219227,-0.151775 46.038265,-0.2802 q -0.16345,1.5119125 -1.1208,2.393375 -0.951513,0.8873 -2.626875,0.8873 -1.255063,0 -2.072313,-0.478675 Q 39.406865,2.043125 39.015752,1.2142 38.62464,0.38527501 38.62464,-0.65380001 q 0,-0.69466249 0.151775,-1.43602499 0.151775,-0.7472 0.437812,-1.4885626 L 40.63274,-3.0355 q -0.215988,0.618775 -0.361925,1.2083625 -0.145938,0.5895875 -0.145938,1.10328749 0,0.56040001 0.198475,1.02740001 0.198475,0.46700001 0.671313,0.7472 0.472837,0.2802 1.295925,0.2802 z m -8.429356,-3.0179875 h 0.682988 q 0.642125,0 0.881462,-0.2159875 0.245175,-0.221825 0.245175,-0.805575 0,-0.3444125 -0.01751,-0.6654751 -0.01751,-0.3269 -0.04086,-0.6362875 l 1.459375,-0.1809625 0.11675,1.6695251 q 0.02919,0.44365 0.245175,0.642125 0.215988,0.1926375 0.688825,0.1926375 h 0.122588 V 0 h -0.134263 q -0.58375,0 -1.00405,-0.21015 -0.414462,-0.21015001 -0.682987,-0.54872501 -0.356088,0.3560875 -0.846438,0.56040001 Q 35.092947,0 34.544222,0 h -0.682988 z m 1.202525,2.37586251 1.05075,1.05074999 -1.05075,1.0449125 -1.044912,-1.0449125 z m -3.595901,-4.69918761 1.459376,-0.1809625 0.11675,1.6695251 q 0.02919,0.44365 0.245175,0.642125 0.215987,0.1926375 0.688825,0.1926375 h 0.122587 V 0 h -0.134262 q -0.58375,0 -1.00405,-0.21015 -0.414463,-0.21015001 -0.682988,-0.54872501 -0.356087,0.3560875 -0.846438,0.56040001 Q 30.948321,0 30.399596,0 h -0.5604 v -1.6870375 h 0.5604 q 0.642125,0 0.881462,-0.2159875 0.245175,-0.221825 0.245175,-0.805575 0,-0.3444125 -0.01751,-0.6654751 -0.01751,-0.3269 -0.04086,-0.6362875 z m 0.321063,-3.093875 1.05075,1.05075 -1.05075,1.0449125 -1.044913,-1.0449125 z M 25.688736,0.68882501 26.739486,1.739575 25.688736,2.7844875 24.643823,1.739575 Z M 21.684211,-1.6870375 h 0.992375 q 0.753037,0 1.401,-0.1401 0.647962,-0.1459375 1.33095,-0.431975 0.688825,-0.2860375 1.56445,-0.712175 -0.898975,-0.3269001 -1.453538,-0.5487251 -0.554562,-0.2276625 -0.758875,-0.2276625 -0.315225,0 -0.572075,0.198475 -0.251012,0.1926375 -0.414462,0.408625 l -0.309388,0.3911126 -1.3076,-0.6421251 0.262688,-0.4203 q 0.414462,-0.67715 0.992375,-1.1208 0.577912,-0.4494875 1.3543,-0.4494875 0.3269,0 0.758875,0.151775 0.437812,0.151775 0.934,0.3794375 0.502025,0.221825 1.033237,0.4494875 0.53705,0.221825 1.056588,0.3794375 0.525375,0.1576125 1.00405,0.16345 V -2.31165 q -0.44365,0.058375 -0.823088,0.198475 -0.379437,0.1342625 -0.788062,0.3444125 -0.408625,0.21015 -0.951513,0.502025 -0.7472,0.39694999 -1.412675,0.68298749 Q 24.918186,-0.2977125 24.217686,-0.1459375 23.523023,0 22.659073,0 h -0.974862 z m -1.208923,-3.8235626 1.05075,1.05075 -1.05075,1.0449125 -1.044912,-1.0449125 z m 0.07589,6.42125011 q 0.846437,0 1.33095,-0.268525 0.484512,-0.268525 0.688825,-0.72968751 0.21015,-0.46700001 0.21015,-1.05075 0,-0.6246125 -0.204313,-1.2900875 -0.198475,-0.6713126 -0.449487,-1.2842501 l 1.558612,-0.58375 q 0.3269,0.8814625 0.461163,1.6169876 0.1401,0.735525 0.1401,1.5002375 0,1.73957501 -0.95735,2.7494625 -0.951513,1.0098875 -2.77865,1.0098875 -1.255063,0 -2.072313,-0.478675 Q 17.667451,1.622825 17.276338,0.79390001 16.885226,-0.035025 16.885226,-1.0799375 q 0,-0.6946625 0.151775,-1.436025 0.151775,-0.7413626 0.437812,-1.4827251 l 1.418513,0.5428875 q -0.215988,0.6187751 -0.361925,1.2083626 -0.145938,0.5895875 -0.145938,1.1032875 0,0.56039999 0.198475,1.0274 0.198475,0.46700001 0.671313,0.74720001 0.472837,0.2802 1.295925,0.2802 z M 13.855563,-8.1841751 h 1.576125 V -2.8487 q 0,0.618775 0.180962,0.8931375 0.180963,0.268525 0.7472,0.268525 h 0.145938 V 0 H 16.35985 Q 15.05225,0 14.450988,-0.67715001 13.855563,-1.3543 13.855563,-2.7086 Z M 10.318038,0 H 9.3898752 v -1.6870375 h 0.9339998 q 0.44365,0 0.6071,-0.2743625 0.169288,-0.2802 0.169288,-0.7063375 0,-0.3969501 -0.09924,-0.8639501 -0.0934,-0.4728375 -0.192637,-0.922325 l 1.529425,-0.39695 q 0.110912,0.548725 0.175125,1.0916125 0.07005,0.53705 0.07005,1.0274001 0,0.7763875 -0.21015,1.3951625 -0.21015,0.61877499 -0.706338,0.98069999 Q 11.17615,0 10.318038,0 Z m 0.688825,-7.6121001 1.05075,1.05075 -1.05075,1.0449125 -1.0449128,-1.0449125 z m -4.1403283,0.8114125 1.05075,1.05075 -1.05075,1.0449125 -1.0449126,-1.0449125 z M 4.5840721,3.1872751 3.9886471,1.622825 Q 4.8350846,1.4418625 5.4421846,1.1383125 6.0551221,0.84060001 6.3878596,0.33857501 6.7205971,-0.16345 6.7205971,-0.95735002 6.7205971,-1.4885625 6.5513096,-2.1482 6.3820221,-2.813675 6.1893846,-3.3857501 l 1.5761251,-0.5078625 q 0.2276625,0.6362875 0.3444125,1.3718126 0.1225875,0.735525 0.1225875,1.412675 0,1.225875 -0.455325,2.10150002 Q 7.3276972,1.8738375 6.5046096,2.416725 5.6873596,2.96545 4.5840721,3.1872751 Z"
         id="path14" />
      <path
         style="font-size:9.9626px;font-family:Vazirmatn"
         d="m 48.989036,9.3427362 q -0.340519,0.3113313 -0.539965,0.617798 -0.194582,0.3064668 -0.194582,0.7491408 0.345383,0 0.476726,0.150801 0.136207,0.150801 0.136207,0.452403 0,0.296738 -0.150801,0.471862 Q 48.56582,11.955 48.264218,11.955 q -0.3843,0 -0.554559,-0.21404 -0.165395,-0.214041 -0.165395,-0.574017 0,-0.661579 0.311332,-1.172357 0.311331,-0.5156424 0.81238,-0.9048064 z M 44.732555,11.955 h -0.792922 v -0.885348 h 0.783193 q 0.486455,0 0.656714,-0.282144 0.175124,-0.282144 0.175124,-0.715089 0,-0.316196 -0.05837,-0.6761727 -0.05838,-0.3599768 -0.126479,-0.7248181 L 46.216243,8.457388 q 0.0827,0.3891641 0.131343,0.7637345 0.04865,0.3745704 0.04865,0.7150889 0,0.5837456 -0.16053,1.0410136 -0.16053,0.457268 -0.525371,0.719954 Q 45.345488,11.955 44.732555,11.955 Z M 45.32603,6.2148301 46.03139,6.92019 45.32603,7.6255498 44.62067,6.92019 Z m -3.416822,0.7345472 0.70536,0.7053598 -0.70536,0.7053599 -0.70536,-0.7053599 z M 43.713956,11.955 q -0.335654,0 -0.564288,-0.08756 -0.223769,-0.09243 -0.350247,-0.194582 -0.07297,0.637256 -0.355113,1.230731 -0.277279,0.59834 -0.836702,1.041014 -0.559424,0.442674 -1.478824,0.622663 l -0.287008,-0.768599 q 1.18695,-0.257822 1.673405,-0.904807 0.486455,-0.64212 0.486455,-1.522604 0,-0.413487 -0.09243,-0.86589 -0.08756,-0.457268 -0.248092,-0.9291293 l 0.807515,-0.2724149 0.262686,1.0166912 q 0.10702,0.408622 0.340518,0.578881 0.233499,0.17026 0.588611,0.17026 h 0.184853 V 11.955 Z M 41.97665,9.3427362 q -0.340519,0.3113313 -0.539965,0.617798 -0.194583,0.3064668 -0.194583,0.7491408 0.345384,0 0.476726,0.150801 0.136208,0.150801 0.136208,0.452403 0,0.296738 -0.150801,0.471862 -0.150801,0.170259 -0.452403,0.170259 -0.3843,0 -0.554559,-0.21404 -0.165395,-0.214041 -0.165395,-0.574017 0,-0.661579 0.311331,-1.172357 0.311332,-0.5156424 0.81238,-0.9048064 z m -5.224529,5.1175078 q -1.050743,0 -1.683134,-0.3843 -0.627527,-0.384299 -0.909671,-1.02642 -0.27728,-0.637256 -0.27728,-1.400991 0,-0.330789 0.04865,-0.763734 0.05351,-0.432945 0.238363,-0.987504 l 0.773463,0.287008 q -0.141071,0.486456 -0.184852,0.861026 -0.03892,0.37457 -0.03892,0.632392 0,0.525371 0.184853,0.958316 0.184853,0.432945 0.627527,0.690766 0.447539,0.257821 1.221002,0.257821 0.729683,0 1.25019,-0.179988 0.525371,-0.179988 0.802651,-0.42808 0.282144,-0.248093 0.282144,-0.452404 0,-0.233498 -0.204311,-0.398893 -0.199447,-0.165395 -0.65185,-0.165395 h -0.719954 q -0.09729,0 -0.141072,-0.0827 -0.04378,-0.08756 -0.0827,-0.223769 l -0.131343,-0.466997 q -0.0049,-0.03892 0.01946,-0.07297 0.02432,-0.03892 0.08756,-0.03892 h 2.699826 v 0.885348 h -0.199447 q 0.07297,0.145937 0.09243,0.27728 0.02432,0.131343 0.02432,0.272415 0,0.32106 -0.189717,0.661579 -0.184853,0.345383 -0.574017,0.637256 -0.3843,0.291873 -0.97291,0.471861 -0.588611,0.179989 -1.391262,0.179989 z M 29.489345,6.0640291 V 5.5289285 l 3.697059,-1.4982816 v 0.5351006 z m 0.671308,1.1723567 q 0.423216,0.2967376 0.880484,0.627527 0.457268,0.3259249 0.851296,0.7004953 0.398894,0.3697059 0.642121,0.7929218 0.248092,0.4183513 0.248092,0.8950771 -0.0049,0.904807 -0.627527,1.3037 Q 31.537321,11.955 30.180112,11.955 h -1.186951 v -0.885348 h 1.182086 q 0.943723,0 1.352345,-0.165395 0.408622,-0.170259 0.408622,-0.671308 0,-0.3210604 -0.228634,-0.627527 Q 31.483811,9.2989553 31.123834,9.0022177 30.768722,8.7006155 30.3601,8.413607 29.951478,8.121734 29.591501,7.8395901 29.435835,7.7131117 29.353138,7.5428525 q -0.0827,-0.1702593 -0.0827,-0.3405186 0,-0.1994465 0.10702,-0.3745704 0.111884,-0.1799883 0.345383,-0.2724148 l 3.497612,-1.4204488 v 0.8610255 z m -3.183749,2.9479172 q 0,-0.126478 -0.05837,-0.3259244 -0.05351,-0.2043111 -0.131343,-0.379435 l -0.861026,-1.9506848 0.75887,-0.3551122 1.104253,2.5976701 q 0.22377,0.5253713 0.389164,0.8075153 0.17026,0.282144 0.33079,0.389164 0.165395,0.102156 0.37457,0.102156 h 0.204311 V 11.955 h -0.204311 q -0.384299,0 -0.627527,-0.09243 -0.238363,-0.09243 -0.413487,-0.277279 -0.175123,-0.184853 -0.355112,-0.466997 -0.340518,0.428081 -0.870754,0.632392 -0.525372,0.199446 -1.313429,0.199446 -0.340519,0 -0.612933,-0.02919 -0.272415,-0.03405 -0.515643,-0.09243 v -0.880484 q 0.559424,0.131343 1.055608,0.131343 1.746373,0 1.746373,-0.895078 z M 21.548065,11.955 h -0.792922 v -0.885348 h 0.783193 q 0.486455,0 0.656714,-0.282144 0.175124,-0.282144 0.175124,-0.715089 0,-0.316196 -0.05837,-0.6761727 -0.05837,-0.3599768 -0.126478,-0.7248181 L 23.031753,8.457388 q 0.0827,0.3891641 0.131343,0.7637345 0.04865,0.3745704 0.04865,0.7150889 0,0.5837456 -0.16053,1.0410136 -0.16053,0.457268 -0.525371,0.719954 Q 22.160998,11.955 21.548065,11.955 Z M 22.14154,6.2148301 22.8469,6.92019 22.14154,7.6255498 21.43618,6.92019 Z m -3.377514,0.7345472 0.70536,0.7053598 -0.70536,0.7053599 -0.70536,-0.7053599 z m -1.780425,7.6227507 -0.287009,-0.773463 q 1.18695,-0.257822 1.673406,-0.904807 0.486455,-0.64212 0.486455,-1.522604 0,-0.413487 -0.09243,-0.86589 -0.08756,-0.457268 -0.248092,-0.9291293 l 0.807515,-0.2724149 q 0.350248,0.9972332 0.350248,1.9214972 0,0.81238 -0.287008,1.503146 -0.282144,0.695631 -0.880484,1.177222 -0.593475,0.486455 -1.522604,0.666443 z m -0.76926,-3.502476 h 1.055608 q 0.486455,0 0.656714,-0.282144 0.175124,-0.282144 0.175124,-0.715089 0,-0.316196 -0.05838,-0.6761727 -0.05837,-0.3599768 -0.126478,-0.7248181 L 18.763366,8.457388 q 0.0827,0.3891641 0.131343,0.7637345 0.04865,0.3745704 0.04865,0.7150889 0,0.5837456 -0.16053,1.0410136 -0.16053,0.457268 -0.525371,0.719954 Q 17.892611,11.955 17.279678,11.955 h -1.065337 z m 1.756103,1.658811 0.681037,0.676173 -0.681037,0.685902 -0.676172,-0.685902 z m -1.615031,0 0.681037,0.676173 -0.681037,0.685902 -0.676172,-0.685902 z m -2.047978,-2.54416 q 0,-0.126478 -0.05837,-0.3259244 -0.05351,-0.2043111 -0.131343,-0.379435 l -0.861025,-1.9506848 0.758869,-0.3551122 1.104253,2.5976701 q 0.22377,0.5253713 0.389165,0.8075153 0.170259,0.282144 0.330789,0.389164 0.165395,0.102156 0.37457,0.102156 H 16.41865 V 11.955 h -0.204311 q -0.384299,0 -0.627527,-0.09243 -0.238363,-0.09243 -0.413486,-0.277279 -0.175124,-0.184853 -0.355113,-0.466997 -0.340518,0.428081 -0.870754,0.632392 -0.525372,0.199446 -1.313429,0.199446 -0.340518,0 -0.612933,-0.02919 -0.272415,-0.03405 -0.515643,-0.09243 v -0.880484 q 0.559424,0.131343 1.055608,0.131343 1.746373,0 1.746373,-0.895078 z M 10.279588,5.2565137 V 11.950135 H 9.4574787 V 5.2565137 Z M 6.6347547,6.9493773 7.3401145,7.6547371 6.6347547,8.360097 5.9293948,7.6547371 Z M 4.8543291,14.572128 4.5673206,13.798665 q 1.1869504,-0.257822 1.6734054,-0.904807 0.4864551,-0.64212 0.4864551,-1.522604 0,-0.413487 -0.092426,-0.86589 Q 6.5471927,10.048096 6.3866626,9.5762347 L 7.194178,9.3038198 q 0.3502476,0.9972332 0.3502476,1.9214972 0,0.81238 -0.2870085,1.503146 -0.2821439,0.695631 -0.8804836,1.177222 -0.5934752,0.486455 -1.5226044,0.666443 z M 4.6354254,4.6484448 q 0.068104,0.034052 0.141072,0.034052 0.1362074,0 0.486455,-0.3161958 L 5.5110445,4.1425316 5.9537186,4.5414247 5.6813038,4.7992459 Q 5.4234826,5.0424734 5.2289006,5.1592226 5.0391831,5.2711073 4.8446011,5.2711073 q -0.184853,0 -0.4378096,-0.1118847 L 3.7792645,4.8722142 q -0.068104,-0.029187 -0.1264783,-0.048646 -0.058375,-0.019458 -0.1118847,-0.019458 -0.1070201,0 -0.2432275,0.087562 -0.1362075,0.087562 -0.3648413,0.3161958 L 2.6555533,5.4851475 2.2128792,5.0862544 2.4950231,4.7943814 Q 2.8112189,4.4684565 3.0301237,4.3371136 3.253893,4.2009062 3.4533396,4.2009062 q 0.1313428,0 0.2626857,0.043781 0.1362074,0.043781 0.2918731,0.1167492 z M 4.5624571,5.8889052 V 11.950135 H 3.7403481 V 5.8889052 Z"
         id="path15" />
    </g>
    <path
       id="path2"
       d="m -75.25705,78.37965 h -76.26036 c -2.75118,0 -4.98139,-2.23019 -4.98139,-4.98138 v -5.06253 c 0,-2.75118 2.23021,-4.98139 4.98139,-4.98139 h 76.26036 c 2.75118,0 4.98138,2.23021 4.98138,4.98139 v 5.06253 c 0,2.75119 -2.2302,4.98138 -4.98138,4.98138 z"
       style="fill:#eafaf1;fill-opacity:1;fill-rule:nonzero;stroke:#2ecc71;stroke-width:0.3985;stroke-linecap:butt;stroke-linejoin:miter;stroke-miterlimit:10;stroke-dasharray:none;stroke-opacity:1"
       transform="matrix(1.3333333,0,0,-1.3333333,233.21067,125.00133)" />
    <path
       style="font-size:8.9664px;font-family:Vazirmatn"
       d="m 72.89655,-3.5550376 0.345871,-0.6479625 q 1.571747,0.7661719 2.342297,1.3703532 0.77055,0.5998031 0.77055,1.225875 0,0.77492814 -0.481593,1.16895939 -0.477216,0.39403126 -1.282791,0.39403126 -0.302091,0 -0.643584,-0.04815938 Q 73.605806,-0.1401 73.299337,-0.21015 q -0.306469,-0.0744281 -0.516619,-0.14447813 -0.380897,0.1401 -0.893137,0.24955313 Q 71.37734,0 70.900125,0 H 70.46669 v -0.79681876 h 0.376519 q 0.288956,0 0.507862,-0.0131344 0.223285,-0.0131344 0.485972,-0.0437812 -0.30209,-0.24517501 -0.437812,-0.53413121 -0.131344,-0.2933344 -0.131344,-0.6041813 0,-0.455325 0.214528,-0.7836844 0.214528,-0.3283594 0.569156,-0.5034844 0.354629,-0.1795031 0.774929,-0.1795031 0.188259,0 0.376518,0.048159 -0.148856,-0.07005 -0.306468,-0.1444782 z m 0.79244,2.71881571 q 0.192638,0.0218906 0.4203,0.0437812 0.227663,0.0175125 0.402788,0.0175125 0.529753,0 0.805575,-0.19701563 0.2802,-0.20139373 0.2802,-0.62169373 0,-0.2145282 -0.245175,-0.4640813 -0.245175,-0.2539312 -0.656719,-0.5209969 -0.407166,-0.2714437 -0.901894,-0.5341312 0.240797,0.1926375 0.385275,0.4640812 0.148856,0.2714438 0.148856,0.5735344 0,0.4115438 -0.166368,0.7048782 -0.161991,0.2889562 -0.472838,0.53413121 z M 72.020925,-2.0008032 q 0,0.2583094 0.214528,0.5166188 0.218906,0.2539313 0.63045,0.4115438 0.788062,-0.3196032 0.788062,-0.9194063 0,-0.3808969 -0.23204,-0.5779125 -0.227663,-0.2013938 -0.551644,-0.2013938 -0.376519,0 -0.612938,0.21015 -0.236418,0.21015 -0.236418,0.5604 z m -3.820982,-2.5042875 0.634828,0.6348281 -0.634828,0.6348282 -0.634828,-0.6348282 z M 69.824227,0 q -0.302091,0 -0.507862,-0.07880625 -0.201394,-0.08318438 -0.315225,-0.175125 -0.06567,0.57353438 -0.319604,1.10766564 -0.249553,0.53850941 -0.753037,0.93691881 -0.503484,0.3984093 -1.33095,0.5604 L 66.33924,1.6593094 q 1.068262,-0.2320406 1.506075,-0.81433126 0.437812,-0.57791251 0.437812,-1.37035315 0,-0.37214063 -0.08318,-0.77930629 -0.07881,-0.4115437 -0.223285,-0.8362219 l 0.726769,-0.245175 0.236419,0.9150282 q 0.09632,0.3677625 0.306469,0.52099686 0.21015,0.15323438 0.529753,0.15323438 h 0.166368 V 0 Z m -6.430234,2.3554313 -0.25831,-0.6961219 q 1.068263,-0.2320406 1.506076,-0.81433126 0.437812,-0.57791251 0.437812,-1.37035315 0,-0.37214063 -0.08318,-0.77930629 -0.07881,-0.4115437 -0.223285,-0.8362219 l 0.726769,-0.245175 q 0.315225,0.8975157 0.315225,1.72935944 0,0.73114689 -0.258309,1.35284065 -0.253932,0.62607191 -0.792441,1.05950631 -0.534131,0.4378125 -1.370353,0.5998031 z m -1.882599,-8.3841095 h 0.739904 v 4.1854875 q 0,0.6173157 0.227662,0.8318438 0.227663,0.21452814 0.687366,0.21452814 h 0.109453 V 0 H 63.166326 Q 62.330104,0 61.91856,-0.44219063 61.511394,-0.88875939 61.511394,-1.8475688 Z m -3.87026,5.23185944 h 0.51224 q 0.556022,0 0.792441,-0.24955314 0.240797,-0.2495531 0.240797,-0.7661719 0,-0.21015 -0.01313,-0.3984094 -0.0088,-0.1882593 -0.02627,-0.3765187 l 0.731146,-0.087562 0.07005,1.0244812 q 0.05254,0.85373444 0.88876,0.85373444 h 0.09194 V 0 H 60.828409 Q 60.342437,0 60.049102,-0.175125 59.760146,-0.35025001 59.580643,-0.66985314 59.344224,-0.32398126 58.958949,-0.16199063 58.573674,0 58.153374,0 h -0.51224 z m 0.901893,1.4666719 0.634828,0.63482816 -0.634828,0.6348281 -0.634828,-0.6348281 z M 55.920529,0.10069688 q -0.437813,0 -0.809953,-0.18825938 Q 54.742813,-0.2802 54.344404,-0.66547501 54.059826,-0.34587188 53.797138,-0.17074688 53.534451,0 53.057235,0 h -0.192638 v -0.79681876 h 0.170747 q 0.293335,0 0.494728,-0.16636876 0.201394,-0.17074688 0.359007,-0.43781248 0.157612,-0.2670657 0.310847,-0.5647782 0.157612,-0.3020906 0.35025,-0.5691562 0.192637,-0.2670656 0.464081,-0.4334344 0.275822,-0.1707469 0.678609,-0.1707469 0.485972,0 0.844978,0.2364188 0.363385,0.2320406 0.5604,0.6260719 0.201394,0.3940312 0.201394,0.8800031 0,0.71363439 -0.363384,1.10766565 -0.359007,0.38965313 -1.015725,0.38965313 z m -0.21015,-2.46488438 q -0.218907,0 -0.39841,0.1488562 -0.179503,0.1444781 -0.323981,0.3765188 -0.144478,0.2320406 -0.258309,0.4815937 0.262687,0.2758219 0.542887,0.45094691 0.359006,0.23204063 0.639206,0.23204063 0.647963,0 0.647963,-0.65234064 0,-0.455325 -0.227663,-0.7442813 -0.223284,-0.2933343 -0.621693,-0.2933343 z m -2.032046,-3.6644907 h 0.739903 v 4.1854875 q 0,0.6173157 0.227663,0.8318438 0.227662,0.21452814 0.687365,0.21452814 h 0.109454 V 0 H 55.333264 Q 54.497043,0 54.085499,-0.44219063 53.678333,-0.88875939 53.678333,-1.8475688 Z M 51.077732,0 h -0.805575 v -0.79681876 h 0.796819 q 0.437812,0 0.591047,-0.25393124 0.157612,-0.2539313 0.157612,-0.6435844 0,-0.2845781 -0.05254,-0.6085594 -0.05254,-0.3239812 -0.113832,-0.6523406 l 0.761794,-0.1926375 q 0.07443,0.35025 0.11821,0.6873656 0.04378,0.3371156 0.04378,0.6435844 0,0.525375 -0.144478,0.93691876 -0.144478,0.41154376 -0.472838,0.64796251 Q 51.629376,0 51.077732,0 Z m 0.09632,0.66985314 0.634828,0.63482816 -0.634828,0.6348281 -0.634828,-0.6348281 z m -2.185282,0 0.634828,0.63482816 -0.634828,0.6348281 -0.634828,-0.6348281 z M 49.689269,0 h -1.020103 q -1.650553,0 -2.482397,-0.44656876 -0.827466,-0.44656875 -0.827466,-1.54547814 0,-0.3020906 0.06567,-0.5910469 0.07005,-0.2889562 0.179503,-0.5560219 l 0.67861,0.2539313 q -0.07005,0.1926375 -0.11821,0.4115437 -0.04378,0.2189063 -0.04378,0.4159219 0.0044,0.5122406 0.288956,0.7880625 0.284579,0.27144378 0.849357,0.37214066 0.564778,0.10069688 1.409756,0.10069688 h 1.024481 q 0.297713,0 0.621694,-0.0175125 0.328359,-0.0175125 0.612937,-0.0963188 0.284579,-0.0788063 0.464082,-0.26268749 0.179503,-0.1882594 0.179503,-0.525375 0,-0.245175 -0.04816,-0.5822907 -0.04816,-0.3414937 -0.113831,-0.6742312 l 0.761794,-0.1926375 q 0.07881,0.3414937 0.118209,0.7092562 0.04378,0.3633844 0.04378,0.6348282 0,0.595425 -0.201394,0.95443124 -0.201394,0.35900625 -0.564778,0.5428875 -0.359007,0.18388126 -0.8406,0.24517501 Q 50.249669,0 49.689269,0 Z m -6.440223,-6.0286782 h 0.739903 v 4.1854875 q 0,0.6173157 0.227663,0.8318438 0.227662,0.21452814 0.687366,0.21452814 h 0.109453 V 0 H 44.903978 Q 44.067756,0 43.656212,-0.44219063 43.249046,-0.88875939 43.249046,-1.8475688 Z M 39.383162,0.66985314 40.01799,1.3046813 39.383162,1.9395094 38.748334,1.3046813 Z m 2.705682,-3.09971254 v 0.7574156 q -0.18826,0.017512 -0.442191,0.096319 -0.253931,0.074428 -0.538509,0.21015 0.0088,0.3633844 0.35025,0.46845936 0.341493,0.10069688 0.967565,0.10069688 h 0.240797 V 0 H 42.408447 Q 41.515309,0 41.06874,-0.23641875 40.62655,-0.47283751 40.538987,-1.085775 39.672118,-0.61293751 38.857787,-0.30646876 38.047834,0 37.110915,0 h -0.731147 v -0.79681876 h 0.744282 q 0.51224,0 0.941297,-0.0919406 0.429056,-0.0919406 0.836221,-0.25393121 0.411544,-0.1619907 0.858113,-0.3808969 0.450947,-0.2232844 1.006969,-0.4772157 -0.310847,-0.1138312 -0.643585,-0.245175 -0.332737,-0.1357218 -0.634828,-0.2539312 -0.297712,-0.1182094 -0.520997,-0.1926375 -0.223284,-0.078806 -0.315225,-0.078806 -0.267065,0 -0.472837,0.1576125 -0.201394,0.1532344 -0.372141,0.3721407 l -0.118209,0.1488562 -0.669853,-0.3283594 0.06567,-0.105075 q 0.288956,-0.4684593 0.669853,-0.7486594 0.385275,-0.2845781 0.901893,-0.2845781 0.214529,0 0.516619,0.1094531 0.306469,0.1094532 0.665475,0.2758219 0.359006,0.1619907 0.744281,0.3327375 0.385276,0.1663688 0.770551,0.2845782 0.385275,0.1138312 0.735525,0.1269656 z M 30.37298,-0.79681876 h 0.744281 q 0.512241,0 0.941297,-0.0919406 0.429057,-0.0919406 0.836222,-0.25393121 0.411544,-0.1619907 0.858113,-0.3808969 0.450947,-0.2232844 1.006968,-0.4772157 -0.310846,-0.1138312 -0.643584,-0.245175 -0.332737,-0.1357218 -0.634828,-0.2539312 -0.297713,-0.1182094 -0.520997,-0.1926375 -0.223284,-0.078806 -0.315225,-0.078806 -0.267066,0 -0.472837,0.1576125 -0.201394,0.1532344 -0.372141,0.3721407 l -0.118209,0.1488562 -0.669854,-0.3283594 0.06567,-0.105075 q 0.288957,-0.4684593 0.669853,-0.7486594 0.385275,-0.2845781 0.901894,-0.2845781 0.214528,0 0.516619,0.1094531 0.306469,0.1094532 0.665475,0.2758219 0.359006,0.1619907 0.744281,0.3327375 0.385275,0.1663688 0.77055,0.2845782 0.385275,0.1138312 0.735525,0.1269656 v 0.7574156 q -0.2802,0.030647 -0.718012,0.2057719 -0.433435,0.1707469 -1.129557,0.53850938 -0.5604,0.29771251 -1.041993,0.50786251 Q 32.715277,-0.21452813 32.216171,-0.105075 31.721443,0 31.104127,0 H 30.37298 Z m -0.68775,0 h 1.247766 q 0.437812,0 0.591047,-0.25393124 0.157612,-0.2539313 0.157612,-0.6435844 0,-0.2845781 -0.05254,-0.6085594 -0.05254,-0.3239812 -0.113831,-0.6523406 l 0.761793,-0.1926375 q 0.07443,0.35025 0.11821,0.6873656 0.04378,0.3371156 0.04378,0.6435844 0,0.525375 -0.144478,0.93691876 -0.144478,0.41154376 -0.472838,0.64796251 Q 31.493396,0 30.941752,0 H 29.68523 Z m 1.878216,1.49294065 0.612937,0.60855941 -0.612937,0.6173156 -0.608559,-0.6173156 z m -1.453538,0 0.612938,0.60855941 -0.612938,0.6173156 -0.608559,-0.6173156 z M 29.742144,0 q -0.30209,0 -0.507862,-0.07880625 -0.201394,-0.08318438 -0.315225,-0.175125 -0.06567,0.57353438 -0.319603,1.10766564 -0.249553,0.53850941 -0.753038,0.93691881 -0.503484,0.3984093 -1.33095,0.5604 L 26.257157,1.6593094 q 1.068262,-0.2320406 1.506075,-0.81433126 0.437812,-0.57791251 0.437812,-1.37035315 0,-0.37214063 -0.08318,-0.77930629 -0.07881,-0.4115437 -0.223284,-0.8362219 l 0.726768,-0.245175 0.236419,0.9150282 q 0.09632,0.3677625 0.306469,0.52099686 0.21015,0.15323438 0.529753,0.15323438 h 0.166369 V 0 Z m -5.109272,-6.0286782 h 0.739903 v 4.1854875 q 0,0.6173157 0.227662,0.8318438 0.227663,0.21452814 0.687366,0.21452814 h 0.109453 V 0 H 26.287803 Q 25.451581,0 25.040037,-0.44219063 24.632872,-0.88875939 24.632872,-1.8475688 Z m -3.870261,5.23185944 h 0.51224 q 0.556022,0 0.792441,-0.24955314 0.240797,-0.2495531 0.240797,-0.7661719 0,-0.21015 -0.01313,-0.3984094 -0.0088,-0.1882593 -0.02627,-0.3765187 l 0.731147,-0.087562 0.07005,1.0244812 q 0.05254,0.85373444 0.888759,0.85373444 h 0.09194 V 0 H 23.949886 Q 23.463914,0 23.170579,-0.175125 22.881623,-0.35025001 22.70212,-0.66985314 22.465701,-0.32398126 22.080426,-0.16199063 21.695151,0 21.274851,0 h -0.51224 z m 0.901893,1.4666719 0.634829,0.63482816 -0.634829,0.6348281 -0.634828,-0.6348281 z m -3.900909,0 0.634828,0.63482816 -0.634828,0.6348281 -0.634828,-0.6348281 z m -3.003393,-1.4666719 h 0.744281 q 0.51224,0 0.941297,-0.0919406 0.429056,-0.0919406 0.836222,-0.25393121 0.411543,-0.1619907 0.858112,-0.3808969 0.450947,-0.2232844 1.006969,-0.4772157 -0.310847,-0.1138312 -0.643585,-0.245175 -0.332737,-0.1357218 -0.634828,-0.2539312 -0.297712,-0.1182094 -0.520997,-0.1926375 -0.223284,-0.078806 -0.315225,-0.078806 -0.267065,0 -0.472837,0.1576125 -0.201394,0.1532344 -0.372141,0.3721407 l -0.118209,0.1488562 -0.669853,-0.3283594 0.06567,-0.105075 q 0.288956,-0.4684593 0.669853,-0.7486594 0.385275,-0.2845781 0.901894,-0.2845781 0.214528,0 0.516618,0.1094531 0.306469,0.1094532 0.665475,0.2758219 0.359007,0.1619907 0.744282,0.3327375 0.385275,0.1663688 0.77055,0.2845782 0.385275,0.1138312 0.735525,0.1269656 v 0.7574156 q -0.2802,0.030647 -0.718013,0.2057719 -0.433434,0.1707469 -1.129556,0.53850938 -0.5604,0.29771251 -1.041994,0.50786251 Q 17.102498,-0.21452813 16.603392,-0.105075 16.108664,0 15.491348,0 H 14.760202 Z M 14.177909,-6.0286782 v 6.02430007 H 13.438006 V -6.0286782 Z"
       id="text2"
       transform="matrix(1.3333333,0,0,1.3333333,28.973333,32.961333)"
       aria-label="هزرﺎﺒﻣﺎﺑبﺎﺠﺣیرﺎﺒﺟا" />
    <path
       id="path3"
       d="M 150.92607,78.61171 H 75.84839 c -2.75118,0 -4.98139,-2.23021 -4.98139,-4.98138 V 68.1037 c 0,-2.75118 2.23021,-4.98139 4.98139,-4.98139 h 75.07768 c 2.75118,0 4.98139,2.23021 4.98139,4.98139 v 5.52663 c 0,2.75117 -2.23021,4.98138 -4.98139,4.98138 z"
       style="fill:#eafaf1;fill-opacity:1;fill-rule:nonzero;stroke:#2ecc71;stroke-width:0.3985;stroke-linecap:butt;stroke-linejoin:miter;stroke-miterlimit:10;stroke-dasharray:none;stroke-opacity:1"
       transform="matrix(1.3333333,0,0,-1.3333333,233.21067,125.00133)" />
    <path
       style="font-size:8.9664px;font-family:Vazirmatn"
       d="m 43.039599,2.2109532 q -0.945675,0 -1.514831,-0.3458719 -0.564778,-0.3458719 -0.818709,-0.92378441 -0.249553,-0.57353438 -0.249553,-1.26090002 0,-0.46408126 0.09632,-0.95005317 0.09632,-0.49035 0.262688,-0.9544312 l 0.696122,0.2802 q -0.126966,0.4027875 -0.214528,0.8274656 -0.08756,0.42467814 -0.08756,0.82308752 0,0.47283751 0.166369,0.86249064 0.170747,0.38965313 0.569156,0.62169374 0.39841,0.2320406 1.094531,0.2320406 0.621694,0 1.112044,-0.1576125 0.49035,-0.1532343 0.774928,-0.40278746 0.284578,-0.245175 0.284578,-0.52099688 0,-0.14010001 -0.08318,-0.26268751 -0.08318,-0.1225875 -0.302091,-0.1225875 h -0.709256 q -0.647962,0 -0.91065,-0.31084688 -0.258309,-0.31522501 -0.258309,-0.87124687 0,-0.5779125 0.236419,-1.0595063 0.236418,-0.4859719 0.674231,-0.7749281 0.437812,-0.2889563 1.037615,-0.2889563 0.227663,0 0.477216,0.061294 0.253931,0.061294 0.507863,0.2320406 l -0.249553,0.665475 q -0.345872,-0.175125 -0.735526,-0.175125 -0.556021,0 -0.871246,0.3896531 -0.310847,0.3896532 -0.310847,0.9500532 0,0.2057719 0.08318,0.30209061 0.08318,0.0919406 0.337116,0.0919406 h 0.735525 q 0.604181,0 0.823087,0.32835938 0.223285,0.32398125 0.223285,0.82746564 0,0.48597188 -0.332738,0.91502814 -0.332737,0.4334344 -0.976322,0.7005 -0.639206,0.2714438 -1.567369,0.2714438 z M 39.992421,0 q -0.302091,0 -0.507863,-0.07880625 -0.201393,-0.08318438 -0.315225,-0.175125 -0.06567,0.57353438 -0.319603,1.10766564 -0.249553,0.53850941 -0.753037,0.93691881 -0.503485,0.3984093 -1.33095,0.5604 l -0.25831,-0.6917438 q 1.068263,-0.2320406 1.506075,-0.81433126 0.437813,-0.57791251 0.437813,-1.37035315 0,-0.37214063 -0.08318,-0.77930629 -0.07881,-0.4115437 -0.223285,-0.8362219 l 0.726769,-0.245175 0.236419,0.9150282 q 0.09632,0.3677625 0.306468,0.52099686 0.21015,0.15323438 0.529754,0.15323438 H 40.11063 V 0 Z M 34.848125,0 H 34.04255 v -0.79681876 h 0.796819 q 0.437813,0 0.591047,-0.25393124 0.157612,-0.2539313 0.157612,-0.6435844 0,-0.2845781 -0.05254,-0.6085594 -0.05254,-0.3239812 -0.113831,-0.6523406 l 0.761794,-0.1926375 q 0.07443,0.35025 0.118209,0.6873656 0.04378,0.3371156 0.04378,0.6435844 0,0.525375 -0.144478,0.93691876 -0.144478,0.41154376 -0.472838,0.64796251 Q 35.399769,0 34.848125,0 Z m 0.09632,0.66985314 0.634828,0.63482816 -0.634828,0.6348281 -0.634828,-0.6348281 z M 33.464638,-6.0286782 v 6.02430007 H 32.724735 V -6.0286782 Z M 31.414519,0 q -0.302091,0 -0.507862,-0.07880625 -0.201394,-0.08318438 -0.315225,-0.175125 -0.06567,0.57353438 -0.319604,1.10766564 -0.249553,0.53850941 -0.753037,0.93691881 -0.503484,0.3984093 -1.33095,0.5604 L 27.929532,1.6593094 q 1.068262,-0.2320406 1.506075,-0.81433126 0.437812,-0.57791251 0.437812,-1.37035315 0,-0.37214063 -0.08318,-0.77930629 -0.07881,-0.4115437 -0.223285,-0.8362219 l 0.726769,-0.245175 0.236419,0.9150282 q 0.09632,0.3677625 0.306469,0.52099686 0.21015,0.15323438 0.529753,0.15323438 h 0.166368 V 0 Z m -5.144297,0 h -0.805575 v -0.79681876 h 0.796818 q 0.437813,0 0.591047,-0.25393124 0.157613,-0.2539313 0.157613,-0.6435844 0,-0.2845781 -0.05254,-0.6085594 -0.05254,-0.3239812 -0.113831,-0.6523406 l 0.761794,-0.1926375 q 0.07443,0.35025 0.118209,0.6873656 0.04378,0.3371156 0.04378,0.6435844 0,0.525375 -0.144478,0.93691876 -0.144478,0.41154376 -0.472837,0.64796251 Q 26.821865,0 26.270222,0 Z M 26.36654,0.66985314 27.001368,1.3046813 26.36654,1.9395094 25.731712,1.3046813 Z M 25.15758,2.2547344 q -0.945675,0 -1.514831,-0.3458719 -0.564778,-0.3458718 -0.818709,-0.92378436 -0.249553,-0.57353438 -0.249553,-1.26090002 0,-0.2977125 0.04378,-0.68736564 0.04816,-0.38965308 0.214528,-0.88875938 l 0.696122,0.2583094 q -0.126966,0.4378125 -0.166369,0.77492811 -0.03503,0.33711563 -0.03503,0.56915626 0,0.47283751 0.166369,0.86249064 0.166369,0.38965309 0.564778,0.62169379 0.402788,0.2320406 1.098909,0.2320406 0.656719,0 1.125179,-0.1619906 0.472837,-0.1619907 0.72239,-0.38527503 0.253931,-0.22328438 0.253931,-0.40716564 0,-0.21015 -0.183881,-0.35900625 Q 26.895696,0.00437813 26.48853,0.00437813 h -0.647962 q -0.08756,0 -0.126966,-0.07442813 -0.0394,-0.07880625 -0.07443,-0.20139375 l -0.118209,-0.42030001 q -0.0044,-0.035025 0.01751,-0.0656719 0.02189,-0.035025 0.07881,-0.035025 h 2.429859 V 0.00437813 H 27.86764 q 0.06567,0.13134375 0.08318,0.24955312 0.02189,0.11820938 0.02189,0.24517501 0,0.28895625 -0.170747,0.59542504 -0.166369,0.3108468 -0.516619,0.5735344 -0.345872,0.2626875 -0.875625,0.4246781 -0.529753,0.1619906 -1.252144,0.1619906 z m -4.474442,-8.751872 0.612938,0.6085594 -0.612938,0.6173156 -0.608559,-0.6173156 z m -1.453537,0 0.612937,0.6085594 -0.612937,0.6173156 -0.60856,-0.6173156 z m 0.389653,5.70031884 q 0.494728,0 0.796819,-0.0569156 0.306469,-0.0569156 0.446569,-0.24955311 0.144478,-0.1970156 0.144478,-0.6085594 -0.214528,0.065672 -0.437813,0.1006969 -0.218906,0.035025 -0.472837,0.035025 -1.488563,0 -1.488563,-1.2214969 0,-0.4203 0.166369,-0.8406 0.170747,-0.4203 0.499106,-0.7005 0.328359,-0.2845782 0.796819,-0.2845782 0.429056,0 0.735525,0.2189063 0.310847,0.2189062 0.507862,0.5910469 0.201394,0.3677625 0.297713,0.8362219 0.09632,0.4640812 0.09632,0.9588093 0,0.6523407 -0.11821,1.05512818 -0.113831,0.39840939 -0.367762,0.60855939 -0.253931,0.20577188 -0.661097,0.2802 Q 20.153385,0 19.566716,0 h -1.61115 v -0.79681876 z m 0.538509,-1.53234374 q 0.201394,0 0.39841,-0.035025 0.201394,-0.039403 0.402787,-0.096319 -0.03503,-0.3108469 -0.131343,-0.63045 -0.09194,-0.3196031 -0.275822,-0.5341313 -0.183882,-0.2189062 -0.49035,-0.2189062 -0.271444,0 -0.437813,0.1707469 -0.161991,0.1707468 -0.236419,0.4071656 -0.07005,0.2364188 -0.07005,0.4378125 0,0.3020906 0.214528,0.4027875 0.218907,0.096319 0.626072,0.096319 z M 15.96352,-3.2004094 q 0.682987,0 1.151446,0.6129375 0.46846,0.6085594 0.485972,1.79065314 h 0.529753 V 0 H 17.530888 Q 17.43457,0.50348438 17.145613,0.97194377 16.861035,1.4447813 16.296257,1.8037875 15.731479,2.1671719 14.798938,2.346675 L 14.540629,1.6505532 Q 16.52392,1.2696563 16.839145,0 h -0.691744 q -1.65931,0 -1.65931,-1.3440844 0,-0.4290563 0.170747,-0.8581125 0.175125,-0.4290563 0.503485,-0.7136344 0.332737,-0.2845781 0.801197,-0.2845781 z m 0.1401,2.40359064 h 0.774928 q -0.05254,-0.84497814 -0.2802,-1.23025314 -0.223285,-0.385275 -0.647963,-0.385275 -0.2802,0 -0.44219,0.1795031 -0.157613,0.1795031 -0.223285,0.4246781 -0.06129,0.2407969 -0.06129,0.4378126 0,0.3064687 0.205772,0.44219058 0.21015,0.13134376 0.674232,0.13134376 z m -3.436829,-4.74588754 0.612938,0.6085593 -0.612938,0.6173157 -0.608559,-0.6173157 z m -1.453537,0 0.612937,0.6085593 -0.612937,0.6173157 -0.60856,-0.6173157 z m 2.294137,3.4806094 q 0,0.3458719 -0.153234,0.6435844 -0.153234,0.2933344 -0.4203,0.60418124 0.249553,0.0131344 0.442191,0.0175125 0.192637,0 0.341493,0 h 0.424678 V 0 h -0.411543 q -0.166369,0 -0.459703,-0.02626875 -0.288957,-0.03064688 -0.639207,-0.10069688 -0.345872,-0.07005 -0.682987,-0.18825938 -0.337116,0.12258751 -0.691744,0.19263751 -0.354628,0.06567187 -0.656719,0.09631875 Q 10.298226,0 10.118723,0 H 9.505785 v -0.79681876 h 0.612938 q 0.183881,0 0.380896,0 0.201394,-0.004378 0.485972,-0.0218906 -0.262687,-0.30646871 -0.411543,-0.60855941 -0.148857,-0.3020906 -0.148857,-0.6435844 0,-0.2714437 0.126966,-0.5472656 0.126966,-0.2758219 0.341494,-0.5122406 0.214528,-0.2364188 0.49035,-0.3765188 0.275822,-0.1444781 0.569156,-0.1444781 0.306469,0 0.586669,0.1444781 0.2802,0.1401 0.494728,0.3765188 0.218906,0.2320406 0.345872,0.5122406 0.126965,0.2802 0.126965,0.5560219 z m -1.554234,-0.8143313 q -0.166369,0 -0.35025,0.1269657 -0.179503,0.1225875 -0.306469,0.3108468 -0.122587,0.1882594 -0.122587,0.385275 0,0.2013938 0.118209,0.4115438 0.118209,0.21015 0.297713,0.385275 0.183881,0.175125 0.37214,0.27144376 0.332738,-0.14009996 0.564778,-0.45094686 0.236419,-0.315225 0.236419,-0.6260719 0,-0.1838813 -0.131344,-0.3721406 -0.126965,-0.1882594 -0.315225,-0.315225 -0.188259,-0.1269657 -0.363384,-0.1269657 z m -8.4541595,2.07960944 h 0.7442813 q 0.5122406,0 0.9412969,-0.0919406 Q 5.6136319,-0.98070002 6.0207976,-1.1426906 6.4323413,-1.3046813 6.8789101,-1.5235875 7.3298569,-1.7468719 7.8858788,-2.0008032 7.575032,-2.1146344 7.2422944,-2.2459782 6.9095569,-2.3817 6.6074663,-2.4999094 6.3097538,-2.6181188 6.0864694,-2.6925469 q -0.2232844,-0.078806 -0.315225,-0.078806 -0.2670656,0 -0.4728375,0.1576125 Q 5.0970132,-2.4605063 4.9262663,-2.2416 l -0.1182094,0.1488562 -0.6698531,-0.3283594 0.065672,-0.105075 q 0.2889563,-0.4684593 0.6698532,-0.7486594 0.385275,-0.2845781 0.9018937,-0.2845781 0.2145282,0 0.5166188,0.1094531 0.3064688,0.1094532 0.665475,0.2758219 0.3590063,0.1619907 0.7442813,0.3327375 0.385275,0.1663688 0.77055,0.2845782 0.385275,0.1138312 0.735525,0.1269656 v 0.7574156 q -0.2802,0.030647 -0.7180125,0.2057719 -0.4334344,0.1707469 -1.1295563,0.53850938 -0.5604,0.29771251 -1.0419937,0.50786251 Q 5.8412944,-0.21452813 5.3421882,-0.105075 4.84746,0 4.2301444,0 H 3.4989975 Z"
       id="text3"
       transform="matrix(1.3333333,0,0,1.3333333,351.59467,33.276)"
       aria-label="یﺮﺑاﺮﺑﯽﻗﻮﻘﺣ" />
    <path
       id="path4"
       d="m -71.98875,-62.80708 h -82.79697 c -2.75118,0 -4.98138,-2.23022 -4.98138,-4.98139 v -6.15707 c 0,-2.75119 2.2302,-4.98139 4.98138,-4.98139 h 82.79697 c 2.75119,0 4.98138,2.2302 4.98138,4.98139 v 6.15707 c 0,2.75117 -2.23019,4.98139 -4.98138,4.98139 z"
       style="fill:#eafaf1;fill-opacity:1;fill-rule:nonzero;stroke:#2ecc71;stroke-width:0.3985;stroke-linecap:butt;stroke-linejoin:miter;stroke-miterlimit:10;stroke-dasharray:none;stroke-opacity:1"
       transform="matrix(1.3333333,0,0,-1.3333333,233.21067,125.00133)" />
    <path
       style="font-size:8.9664px;font-family:Vazirmatn"
       d="m 83.638127,0 q -0.643585,0 -1.002591,-0.30209063 -0.354628,-0.30209063 -0.459703,-0.83184377 -0.253931,0.25393126 -0.551644,0.38965314 -0.293334,0.13572188 -0.661097,0.13572188 -0.626072,0 -1.05075,-0.33711564 -0.424678,-0.33711558 -0.424678,-0.93254068 0,-0.6742312 0.551644,-1.1645812 0.551644,-0.4947282 1.733737,-0.8581125 l -0.03065,-0.21015 0.7005,-0.1401 0.380896,2.6881687 q 0.05254,0.3852751 0.249554,0.57791256 0.201393,0.18825938 0.58229,0.18825938 h 0.135722 V 0 Z m -1.637419,-2.2021969 q 0,-0.1357219 -0.01751,-0.2583094 l -0.109453,-0.7311469 q -0.849356,0.3064688 -1.239009,0.6041813 -0.385275,0.2977125 -0.385275,0.6523406 0,0.2889563 0.197016,0.4378125 0.197015,0.1488563 0.534131,0.1488563 0.258309,0 0.49035,-0.1006969 0.236419,-0.1006969 0.380897,-0.2933344 0.148856,-0.1926375 0.148856,-0.4597031 z m -4.623299,0.2845781 v -4.1110594 h 0.739903 v 4.1241938 q 0,0.4815938 0.188259,0.7968188 0.192638,0.31084684 0.696122,0.31084684 h 0.1401 V 0 h -0.131344 q -0.49035,0 -0.779306,-0.17074688 -0.288956,-0.17074688 -0.459703,-0.49472813 -0.144478,0.21452813 -0.293335,0.36338438 -0.144478,0.14885625 -0.37214,0.2276625 Q 76.88268,0 76.493027,0 h -0.376518 v -0.79681876 h 0.367762 q 0.367763,0 0.556022,-0.14447813 0.192637,-0.14885621 0.262687,-0.40278751 0.07443,-0.2539313 0.07443,-0.5735344 z M 74.273319,0 h -0.805575 v -0.79681876 h 0.796819 q 0.437812,0 0.591047,-0.25393124 0.157612,-0.2539313 0.157612,-0.6435844 0,-0.2845781 -0.05254,-0.6085594 -0.05254,-0.3239812 -0.113831,-0.6523406 l 0.761793,-0.1926375 q 0.07443,0.35025 0.11821,0.6873656 0.04378,0.3371156 0.04378,0.6435844 0,0.525375 -0.144478,0.93691876 -0.144478,0.41154376 -0.472838,0.64796251 Q 74.824963,0 74.273319,0 Z m 0.09632,0.66985314 0.634828,0.63482816 -0.634828,0.6348281 -0.634828,-0.6348281 z m -2.48678,-6.69853134 h 0.739903 v 4.1854875 q 0,0.6173157 0.227663,0.8318438 0.227662,0.21452814 0.687365,0.21452814 h 0.109454 V 0 H 73.537789 Q 72.701568,0 72.290024,-0.44219063 71.882858,-0.88875939 71.882858,-1.8475688 Z m -2.05772,0.4859719 0.612937,0.6085593 -0.612937,0.6173157 -0.60856,-0.6173157 z m -1.453538,0 0.612938,0.6085593 -0.612938,0.6173157 -0.608559,-0.6173157 z m 2.294138,3.4806094 q 0,0.3458719 -0.153235,0.6435844 -0.153234,0.2933344 -0.4203,0.60418124 0.249553,0.0131344 0.442191,0.0175125 0.192637,0 0.341494,0 h 0.424678 V 0 h -0.411544 q -0.166369,0 -0.459703,-0.02626875 -0.288956,-0.03064688 -0.639206,-0.10069688 -0.345872,-0.07005 -0.682988,-0.18825938 -0.337116,0.12258751 -0.691744,0.19263751 -0.354628,0.06567187 -0.656719,0.09631875 Q 67.456572,0 67.277069,0 h -0.612938 v -0.79681876 h 0.612938 q 0.183881,0 0.380897,0 0.201393,-0.004378 0.485971,-0.0218906 -0.262687,-0.30646871 -0.411543,-0.60855941 -0.148857,-0.3020906 -0.148857,-0.6435844 0,-0.2714437 0.126966,-0.5472656 0.126966,-0.2758219 0.341494,-0.5122406 0.214528,-0.2364188 0.49035,-0.3765188 0.275822,-0.1444781 0.569156,-0.1444781 0.306469,0 0.586669,0.1444781 0.2802,0.1401 0.494728,0.3765188 0.218906,0.2320406 0.345872,0.5122406 0.126966,0.2802 0.126966,0.5560219 z m -1.554235,-0.8143313 q -0.166369,0 -0.35025,0.1269657 -0.179503,0.1225875 -0.306469,0.3108468 -0.122587,0.1882594 -0.122587,0.385275 0,0.2013938 0.118209,0.4115438 0.11821,0.21015 0.297713,0.385275 0.183881,0.175125 0.37214,0.27144376 0.332738,-0.14009996 0.564779,-0.45094686 0.236418,-0.315225 0.236418,-0.6260719 0,-0.1838813 -0.131343,-0.3721406 -0.126966,-0.1882594 -0.315225,-0.315225 -0.18826,-0.1269657 -0.363385,-0.1269657 z m -4.172355,2.97712508 q -0.437812,0 -0.809953,-0.18825938 Q 63.761433,-0.2802 63.363023,-0.66547501 63.078445,-0.34587188 62.815758,-0.17074688 62.55307,0 62.075854,0 h -0.192637 v -0.79681876 h 0.170747 q 0.293334,0 0.494728,-0.16636876 0.201394,-0.17074688 0.359006,-0.43781248 0.157613,-0.2670657 0.310847,-0.5647782 0.157613,-0.3020906 0.35025,-0.5691562 0.192638,-0.2670656 0.464081,-0.4334344 0.275822,-0.1707469 0.67861,-0.1707469 0.485972,0 0.844978,0.2364188 0.363384,0.2320406 0.5604,0.6260719 0.201394,0.3940312 0.201394,0.8800031 0,0.71363439 -0.363385,1.10766565 -0.359006,0.38965313 -1.015725,0.38965313 z m -0.21015,-2.46488438 q -0.218906,0 -0.398409,0.1488562 -0.179503,0.1444781 -0.323981,0.3765188 -0.144479,0.2320406 -0.25831,0.4815937 0.262688,0.2758219 0.542888,0.45094691 0.359006,0.23204063 0.639206,0.23204063 0.647962,0 0.647962,-0.65234064 0,-0.455325 -0.227662,-0.7442813 -0.223284,-0.2933343 -0.621694,-0.2933343 z m -2.032041,-3.6644907 h 0.739903 v 4.1854875 q 0,0.6173157 0.227662,0.8318438 0.227663,0.21452814 0.687366,0.21452814 h 0.109453 V 0 H 64.351888 Q 63.515666,0 63.104122,-0.44219063 62.696957,-0.88875939 62.696957,-1.8475688 Z M 60.096352,0 h -0.805575 v -0.79681876 h 0.796818 q 0.437813,0 0.591047,-0.25393124 0.157613,-0.2539313 0.157613,-0.6435844 0,-0.2845781 -0.05254,-0.6085594 -0.05254,-0.3239812 -0.113831,-0.6523406 l 0.761794,-0.1926375 q 0.07443,0.35025 0.118209,0.6873656 0.04378,0.3371156 0.04378,0.6435844 0,0.525375 -0.144478,0.93691876 -0.144478,0.41154376 -0.472837,0.64796251 Q 60.647995,0 60.096352,0 Z M 60.19267,0.66985314 60.827498,1.3046813 60.19267,1.9395094 59.557842,1.3046813 Z m -2.018703,-4.96479384 0.612937,0.6085594 -0.612937,0.6173156 -0.60856,-0.6173156 z m -1.453538,0 0.612938,0.6085594 -0.612938,0.6173156 -0.608559,-0.6173156 z m 3.375535,1.7074688 0.731147,-0.087562 0.07443,1.0244812 q 0.02627,0.4159219 0.236418,0.6348282 0.214529,0.21890624 0.639207,0.21890624 h 0.105075 V 0 H 61.777164 Q 61.282436,0 60.962832,-0.18388125 60.647607,-0.37214063 60.441836,-0.78368439 60.078451,-0.36338438 59.509295,-0.17950313 58.944517,0 57.937548,0 h -0.731147 q -1.650553,0 -2.482397,-0.44656876 -0.827465,-0.44656875 -0.827465,-1.54547814 0,-0.3020906 0.06567,-0.5910469 0.07005,-0.2889562 0.179503,-0.5560219 l 0.678609,0.2539313 q -0.07005,0.1926375 -0.118209,0.4115437 -0.04378,0.2189063 -0.04378,0.4159219 0.0044,0.5122406 0.288957,0.7880625 0.284578,0.27144378 0.849356,0.37214066 0.564778,0.10069688 1.409756,0.10069688 h 0.731147 q 1.046372,0 1.619906,-0.21890624 0.577913,-0.2189063 0.577913,-0.7968188 0,-0.1795031 -0.01314,-0.385275 -0.0088,-0.2057719 -0.02627,-0.3896531 z M 51.532356,0 H 50.818722 V -0.79681876 H 51.5236 q 0.437812,0 0.591047,-0.25393124 0.157612,-0.2539313 0.157612,-0.6435844 0,-0.2845781 -0.05254,-0.6085594 -0.05254,-0.3239812 -0.113831,-0.6523406 l 0.761793,-0.1926375 q 0.07443,0.35025 0.11821,0.6873656 0.04378,0.3371156 0.04378,0.6435844 0,0.525375 -0.144478,0.93691876 -0.144478,0.41154376 -0.472838,0.64796251 Q 52.084,0 51.532356,0 Z m 0.534131,-5.1661876 0.634829,0.6348282 -0.634829,0.6348281 -0.634828,-0.6348281 z m -3.239816,1.9657782 q 0.682988,0 1.151447,0.6129375 0.468459,0.6085594 0.485972,1.79065314 h 0.529753 V 0 H 50.39404 Q 50.297721,0.50348438 50.008765,0.97194377 49.724187,1.4447813 49.159409,1.8037875 48.59463,2.1671719 47.66209,2.346675 L 47.40378,1.6505532 Q 49.387071,1.2696563 49.702296,0 h -0.691744 q -1.659309,0 -1.659309,-1.3440844 0,-0.4290563 0.170747,-0.8581125 0.175125,-0.4290563 0.503484,-0.7136344 0.332738,-0.2845781 0.801197,-0.2845781 z m 0.1401,2.40359064 h 0.774928 q -0.05254,-0.84497814 -0.2802,-1.23025314 -0.223284,-0.385275 -0.647962,-0.385275 -0.2802,0 -0.442191,0.1795031 -0.157612,0.1795031 -0.223284,0.4246781 -0.06129,0.2407969 -0.06129,0.4378126 0,0.3064687 0.205772,0.44219058 0.21015,0.13134376 0.674231,0.13134376 z m -5.717831,-4.96041574 0.591046,0.5910469 -0.591046,0.5910469 -0.591047,-0.5910469 z m 0.748659,1.1076657 0.591047,0.5910469 -0.591047,0.5910468 -0.591047,-0.5910468 z m -1.497319,0 0.591047,0.5910469 -0.591047,0.5910468 -0.591047,-0.5910468 z M 44.606158,0 q -0.4203,0 -0.678609,-0.175125 -0.258309,-0.17512501 -0.4203,-0.49472814 -0.245175,0.35462813 -0.547266,0.51224064 Q 42.662271,0 42.312021,0 41.808536,0 41.532715,-0.17074688 41.261271,-0.34587188 41.09928,-0.66985314 40.893508,-0.34587188 40.573905,-0.17074688 40.254302,0 39.663255,0 h -0.402787 v -0.79681876 h 0.411543 q 0.5604,0 0.81871,-0.20577184 0.258309,-0.21015 0.258309,-0.7617938 0,-0.1138313 -0.01313,-0.2670656 -0.0088,-0.1576125 -0.03065,-0.4378125 l 0.731147,-0.091941 0.07005,0.9150282 q 0.02627,0.3677625 0.223284,0.6085594 0.201394,0.24079684 0.591047,0.24079684 0.464081,0 0.63045,-0.24955314 0.166369,-0.2495531 0.166369,-0.7180125 0,-0.1138313 -0.01313,-0.2714438 -0.0088,-0.1576125 -0.03065,-0.4334343 l 0.731146,-0.091941 0.07005,0.9150282 q 0.02189,0.3546281 0.18826,0.6041812 0.166369,0.24517504 0.538509,0.24517504 0.647963,0 0.647963,-0.96756564 0,-0.1576125 -0.01314,-0.3283594 -0.0088,-0.1707469 -0.03065,-0.4509469 l 0.731147,-0.087563 0.07005,0.9850782 q 0.05254,0.84935624 0.866869,0.84935624 h 0.131344 V 0 H 46.882783 Q 46.42308,0 46.116611,-0.16636875 45.810143,-0.33711563 45.696311,-0.67423126 45.51243,-0.35025001 45.271633,-0.175125 45.035215,0 44.606158,0 Z m -8.624905,-5.5602188 0.634828,0.6348281 -0.634828,0.6348281 -0.634828,-0.6348281 z m -2.727572,4.76340004 h 0.744282 q 0.51224,0 0.941296,-0.0919406 0.429057,-0.0919406 0.836222,-0.25393121 0.411544,-0.1619907 0.858113,-0.3808969 0.450947,-0.2232844 1.006969,-0.4772157 -0.310847,-0.1138312 -0.643585,-0.245175 -0.332737,-0.1357218 -0.634828,-0.2539312 -0.297712,-0.1182094 -0.520997,-0.1926375 -0.223284,-0.078806 -0.315225,-0.078806 -0.267065,0 -0.472837,0.1576125 -0.201394,0.1532344 -0.372141,0.3721407 l -0.118209,0.1488562 -0.669853,-0.3283594 0.06567,-0.105075 q 0.288957,-0.4684593 0.669854,-0.7486594 0.385275,-0.2845781 0.901893,-0.2845781 0.214528,0 0.516619,0.1094531 0.306469,0.1094532 0.665475,0.2758219 0.359006,0.1619907 0.744281,0.3327375 0.385275,0.1663688 0.77055,0.2845782 0.385275,0.1138312 0.735525,0.1269656 v 0.7574156 q -0.2802,0.030647 -0.718012,0.2057719 -0.433435,0.1707469 -1.129556,0.53850938 -0.5604,0.29771251 -1.041994,0.50786251 Q 35.595978,-0.21452813 35.096872,-0.105075 34.602144,0 33.984828,0 H 33.253681 Z M 32.942239,2.2547344 q -0.945675,0 -1.514831,-0.3458719 -0.564779,-0.3458718 -0.81871,-0.92378436 -0.249553,-0.57353438 -0.249553,-1.26090002 0,-0.2977125 0.04378,-0.68736564 0.04816,-0.38965308 0.214528,-0.88875938 l 0.696122,0.2583094 q -0.126965,0.4378125 -0.166368,0.77492811 -0.03502,0.33711563 -0.03502,0.56915626 0,0.47283751 0.166368,0.86249064 0.166369,0.38965309 0.564778,0.62169379 0.402788,0.2320406 1.09891,0.2320406 0.656719,0 1.125178,-0.1619906 0.472838,-0.1619907 0.722391,-0.38527503 0.253931,-0.22328438 0.253931,-0.40716564 0,-0.21015 -0.183881,-0.35900625 -0.179503,-0.14885625 -0.586669,-0.14885625 h -0.647963 q -0.08756,0 -0.126965,-0.07442813 -0.0394,-0.07880625 -0.07443,-0.20139375 l -0.11821,-0.42030001 q -0.0044,-0.035025 0.01751,-0.0656719 0.02189,-0.035025 0.07881,-0.035025 h 2.429859 v 0.79681877 h -0.179503 q 0.06567,0.13134375 0.08319,0.24955312 0.02189,0.11820938 0.02189,0.24517501 0,0.28895625 -0.170747,0.59542504 -0.166368,0.3108468 -0.516618,0.5735344 -0.345872,0.2626875 -0.875625,0.4246781 -0.529754,0.1619906 -1.252144,0.1619906 z m -7.237041,-7.5566439 v -0.4815937 l 3.327375,-1.3484625 v 0.4815937 z m 0.604181,1.0551282 q 0.499106,0.35025 0.954431,0.6961219 0.459703,0.3414937 0.827466,0.7442812 0.367762,0.3984094 0.58229,0.9281625 0.232041,0.5647782 0.49035,0.8230876 0.25831,0.25830934 0.726769,0.25830934 h 0.122588 V 0 h -0.122588 q -0.485972,0 -0.827465,-0.18825938 -0.337116,-0.18825938 -0.604182,-0.59980313 -0.175125,0.25830938 -0.429056,0.43343438 -0.249553,0.175125 -0.656719,0.26706563 Q 26.970476,0 26.326891,0 h -1.068262 v -0.79681876 h 1.063884 q 0.849357,0 1.217119,-0.14885626 0.367763,-0.15323438 0.367763,-0.60418128 0,-0.2889562 -0.205772,-0.5647781 -0.201394,-0.2758219 -0.525375,-0.5428875 -0.319603,-0.2714438 -0.687366,-0.5297532 -0.367762,-0.2626875 -0.691744,-0.5166187 -0.1401,-0.1138313 -0.214528,-0.2670656 -0.07443,-0.1532344 -0.07443,-0.3108469 0,-0.1795031 0.09632,-0.3371157 0.100697,-0.1576125 0.310847,-0.2407968 l 3.147872,-1.2784126 v 0.7749282 z M 23.415438,0 h -0.713635 v -0.79681876 h 0.704878 q 0.437813,0 0.591047,-0.25393124 0.157613,-0.2539313 0.157613,-0.6435844 0,-0.2845781 -0.05254,-0.6085594 -0.05254,-0.3239812 -0.113831,-0.6523406 l 0.761794,-0.1926375 q 0.07443,0.35025 0.118209,0.6873656 0.04378,0.3371156 0.04378,0.6435844 0,0.525375 -0.144478,0.93691876 Q 24.6238,-0.46845938 24.295441,-0.23204063 23.967081,0 23.415438,0 Z m 0.534131,-5.1661876 0.634828,0.6348282 -0.634828,0.6348281 -0.634828,-0.6348281 z m -2.837026,-0.8624906 h 0.739903 v 4.1854875 q 0,0.6173157 0.227663,0.8318438 0.227662,0.21452814 0.687365,0.21452814 h 0.109453 V 0 H 22.767474 Q 21.931252,0 21.519709,-0.44219063 21.112543,-0.88875939 21.112543,-1.8475688 Z m -4.036629,0.4684594 0.634828,0.6348281 -0.634828,0.6348281 -0.634828,-0.6348281 z m -2.727572,4.76340004 h 0.744281 q 0.512241,0 0.941297,-0.0919406 0.429056,-0.0919406 0.836222,-0.25393121 0.411544,-0.1619907 0.858113,-0.3808969 0.450946,-0.2232844 1.006968,-0.4772157 -0.310847,-0.1138312 -0.643584,-0.245175 -0.332738,-0.1357218 -0.634828,-0.2539312 -0.297713,-0.1182094 -0.520997,-0.1926375 -0.223284,-0.078806 -0.315225,-0.078806 -0.267066,0 -0.472838,0.1576125 -0.201393,0.1532344 -0.37214,0.3721407 l -0.11821,0.1488562 -0.669853,-0.3283594 0.06567,-0.105075 q 0.288956,-0.4684593 0.669853,-0.7486594 0.385275,-0.2845781 0.901894,-0.2845781 0.214528,0 0.516619,0.1094531 0.306469,0.1094532 0.665475,0.2758219 0.359006,0.1619907 0.744281,0.3327375 0.385275,0.1663688 0.77055,0.2845782 0.385275,0.1138312 0.735525,0.1269656 v 0.7574156 q -0.2802,0.030647 -0.718012,0.2057719 -0.433435,0.1707469 -1.129557,0.53850938 -0.5604,0.29771251 -1.041993,0.50786251 Q 16.690639,-0.21452813 16.191533,-0.105075 15.696805,0 15.079489,0 h -0.731147 z"
       id="text4"
       transform="matrix(1.3333333,0,0,1.3333333,24.614667,222.68133)"
       aria-label="ﻪﻠﺑﺎﻘﻣﺎﺑﺖﻧﻮﺸﺧﯽﮕﻧﺎﺧ" />
    <path
       id="path5"
       d="M 150.92607,-63.12231 H 75.84839 c -2.75118,0 -4.98139,-2.23021 -4.98139,-4.98139 v -5.52663 c 0,-2.75117 2.23021,-4.98138 4.98139,-4.98138 h 75.07768 c 2.75118,0 4.98139,2.23021 4.98139,4.98138 v 5.52663 c 0,2.75118 -2.23021,4.98139 -4.98139,4.98139 z"
       style="fill:#eafaf1;fill-opacity:1;fill-rule:nonzero;stroke:#2ecc71;stroke-width:0.3985;stroke-linecap:butt;stroke-linejoin:miter;stroke-miterlimit:10;stroke-dasharray:none;stroke-opacity:1"
       transform="matrix(1.3333333,0,0,-1.3333333,233.21067,125.00133)" />
    <path
       style="font-size:8.9664px;font-family:Vazirmatn"
       d="m 45.675227,2.2109532 q -0.945675,0 -1.514831,-0.3458719 -0.564778,-0.3458719 -0.818709,-0.92378441 -0.249554,-0.57353438 -0.249554,-1.26090002 0,-0.46408126 0.09632,-0.95005317 0.09632,-0.49035 0.262688,-0.9544312 l 0.696122,0.2802 q -0.126966,0.4027875 -0.214529,0.8274656 -0.08756,0.42467814 -0.08756,0.82308752 0,0.47283751 0.166369,0.86249064 0.170747,0.38965313 0.569156,0.62169374 0.398409,0.2320406 1.094531,0.2320406 0.621694,0 1.112044,-0.1576125 0.49035,-0.1532343 0.774928,-0.40278746 0.284578,-0.245175 0.284578,-0.52099688 0,-0.14010001 -0.08318,-0.26268751 -0.08319,-0.1225875 -0.302091,-0.1225875 h -0.709256 q -0.647963,0 -0.91065,-0.31084688 -0.258309,-0.31522501 -0.258309,-0.87124687 0,-0.5779125 0.236418,-1.0595063 0.236419,-0.4859719 0.674232,-0.7749281 0.437812,-0.2889563 1.037615,-0.2889563 0.227663,0 0.477216,0.061294 0.253931,0.061294 0.507862,0.2320406 l -0.249553,0.665475 q -0.345872,-0.175125 -0.735525,-0.175125 -0.556022,0 -0.871247,0.3896531 -0.310847,0.3896532 -0.310847,0.9500532 0,0.2057719 0.08319,0.30209061 0.08318,0.0919406 0.337115,0.0919406 h 0.735525 q 0.604182,0 0.823088,0.32835938 0.223284,0.32398125 0.223284,0.82746564 0,0.48597188 -0.332737,0.91502814 -0.332738,0.4334344 -0.976322,0.7005 -0.639206,0.2714438 -1.567369,0.2714438 z M 42.628052,0 q -0.30209,0 -0.507862,-0.07880625 -0.201394,-0.08318438 -0.315225,-0.175125 -0.06567,0.57353438 -0.319603,1.10766564 -0.249553,0.53850941 -0.753038,0.93691881 -0.503484,0.3984093 -1.33095,0.5604 L 39.143065,1.6593094 q 1.068262,-0.2320406 1.506075,-0.81433126 0.437812,-0.57791251 0.437812,-1.37035315 0,-0.37214063 -0.08318,-0.77930629 -0.07881,-0.4115437 -0.223284,-0.8362219 l 0.726768,-0.245175 0.236419,0.9150282 q 0.09632,0.3677625 0.306469,0.52099686 0.21015,0.15323438 0.529753,0.15323438 h 0.166369 V 0 Z m -5.144295,0 h -0.805575 v -0.79681876 h 0.796819 q 0.437812,0 0.591047,-0.25393124 0.157612,-0.2539313 0.157612,-0.6435844 0,-0.2845781 -0.05254,-0.6085594 -0.05254,-0.3239812 -0.113832,-0.6523406 l 0.761794,-0.1926375 q 0.07443,0.35025 0.118209,0.6873656 0.04378,0.3371156 0.04378,0.6435844 0,0.525375 -0.144478,0.93691876 -0.144479,0.41154376 -0.472838,0.64796251 Q 38.035401,0 37.483757,0 Z m 0.09632,0.66985314 0.634828,0.63482816 -0.634828,0.6348281 -0.634828,-0.6348281 z M 36.10027,-6.0286782 v 6.02430007 H 35.360367 V -6.0286782 Z M 34.050149,0 q -0.302091,0 -0.507863,-0.07880625 -0.201394,-0.08318438 -0.315225,-0.175125 -0.06567,0.57353438 -0.319603,1.10766564 -0.249553,0.53850941 -0.753037,0.93691881 -0.503485,0.3984093 -1.33095,0.5604 l -0.25831,-0.6917438 q 1.068263,-0.2320406 1.506075,-0.81433126 0.437813,-0.57791251 0.437813,-1.37035315 0,-0.37214063 -0.08319,-0.77930629 -0.07881,-0.4115437 -0.223284,-0.8362219 l 0.726769,-0.245175 0.236418,0.9150282 q 0.09632,0.3677625 0.306469,0.52099686 0.21015,0.15323438 0.529753,0.15323438 h 0.166369 V 0 Z m -5.144296,0 h -0.805575 v -0.79681876 h 0.796819 q 0.437812,0 0.591047,-0.25393124 0.157612,-0.2539313 0.157612,-0.6435844 0,-0.2845781 -0.05254,-0.6085594 -0.05254,-0.3239812 -0.113831,-0.6523406 l 0.761793,-0.1926375 q 0.07443,0.35025 0.11821,0.6873656 0.04378,0.3371156 0.04378,0.6435844 0,0.525375 -0.144478,0.93691876 -0.144478,0.41154376 -0.472838,0.64796251 Q 29.457497,0 28.905853,0 Z M 29.002172,0.66985314 29.637,1.3046813 29.002172,1.9395094 28.367344,1.3046813 Z m -1.296521,-1.4666719 h 0.950053 q 0.437812,0 0.591047,-0.25393124 0.157612,-0.2539313 0.157612,-0.6435844 0,-0.2845781 -0.05254,-0.6085594 -0.05254,-0.3239812 -0.113831,-0.6523406 l 0.761793,-0.1926375 q 0.07443,0.35025 0.11821,0.6873656 0.04378,0.3371156 0.04378,0.6435844 0,0.525375 -0.144478,0.93691876 -0.144478,0.41154376 -0.472838,0.64796251 Q 29.216104,0 28.66446,0 h -0.958809 z m 1.580503,1.49294065 0.612937,0.60855941 -0.612937,0.6173156 -0.608559,-0.6173156 z m -1.453538,0 0.612938,0.60855941 -0.612938,0.6173156 -0.608559,-0.6173156 z m -1.84319,-2.28975939 q 0,-0.1138313 -0.05254,-0.2933344 -0.04816,-0.1838813 -0.118209,-0.3414938 l -0.774928,-1.7556281 0.682987,-0.3196031 0.993834,2.3379187 q 0.201394,0.4728376 0.35025,0.7267688 0.153235,0.25393126 0.297713,0.35025001 0.148856,0.0919406 0.337116,0.0919406 h 0.183881 V 0 h -0.183881 q -0.345872,0 -0.564779,-0.08318438 -0.214528,-0.08318437 -0.37214,-0.24955313 -0.157613,-0.16636875 -0.319603,-0.4203 -0.306469,0.385275 -0.783685,0.56915626 -0.472837,0.17950312 -1.182093,0.17950312 -0.306469,0 -0.551644,-0.02626875 -0.245175,-0.03064687 -0.464081,-0.08318437 v -0.79244064 q 0.503484,0.11820938 0.950053,0.11820938 1.571747,0 1.571747,-0.80557499 z m -4.632058,-4.4350407 h 0.739904 v 4.1854875 q 0,0.6173157 0.227662,0.8318438 0.227663,0.21452814 0.687366,0.21452814 h 0.109453 V 0 H 23.0123 Q 22.176078,0 21.764534,-0.44219063 21.357368,-0.88875939 21.357368,-1.8475688 Z M 16.817255,0 H 16.585214 Q 15.657052,0 15.17108,-0.175125 14.685108,-0.35025001 14.483714,-0.66547501 14.229783,-0.31960313 13.91018,-0.1576125 13.594955,0 13.06958,0 h -0.179503 l 0.0044,-0.79681876 h 0.175125 q 0.612937,0 0.823087,-0.25830934 0.214528,-0.2626875 0.214528,-0.7574157 0,-0.21015 -0.01751,-0.3896531 -0.01313,-0.1795031 -0.02189,-0.385275 l 0.731147,-0.087562 0.06567,1.0244812 q 0.02189,0.2933344 0.122588,0.5078626 0.100696,0.21014996 0.310846,0.21014996 0.783685,-1.33095006 1.532344,-1.96140006 0.753038,-0.6348281 1.506075,-0.6348281 0.499107,0 0.884382,0.2189062 0.389653,0.2145282 0.608559,0.5866688 0.218906,0.3721406 0.218906,0.8406 -0.0044,0.5647782 -0.337115,1.00259066 0.126965,0.0306469 0.328359,0.0569156 0.205772,0.0262688 0.604181,0.0262688 H 20.77508 V 0 H 20.648114 Q 20.092092,0 19.728708,-0.11383125 19.369702,-0.2276625 19.124527,-0.42905626 18.765521,-0.2276625 18.178852,-0.11383125 17.592183,0 16.817255,0 Z m 1.554234,-2.73195 q -1.055128,0 -2.281003,1.93513124 h 0.709256 q 1.247766,0 1.860704,-0.24955314 0.612937,-0.2495531 0.612937,-0.7924406 0,-0.385275 -0.249553,-0.6392063 Q 18.778655,-2.73195 18.371489,-2.73195 Z m -6.768582,-2.0051813 0.612937,0.6085594 -0.612937,0.6173156 -0.60856,-0.6173156 z m -1.453538,0 0.612938,0.6085594 -0.612938,0.6173156 -0.608559,-0.6173156 z m -0.4728371,3.94031254 h 0.6129371 q 0.556022,0 0.792441,-0.24955314 0.240797,-0.2495531 0.240797,-0.7661719 0,-0.21015 -0.01313,-0.3984094 -0.0088,-0.1882593 -0.02627,-0.3765187 l 0.731147,-0.087562 0.07005,1.0244812 q 0.05254,0.85373444 0.888759,0.85373444 h 0.09194 V 0 h -0.100697 q -0.485972,0 -0.779306,-0.175125 -0.288957,-0.17512501 -0.46846,-0.49472814 -0.236419,0.34587188 -0.621694,0.50786251 Q 10.709769,0 10.289469,0 H 9.6765319 Z M 8.3061786,-6.4971376 8.9191161,-5.8885782 8.3061786,-5.2712626 7.6976192,-5.8885782 Z m -1.4535375,0 0.6129375,0.6085594 -0.6129375,0.6173156 -0.6085594,-0.6173156 z m 0.3896531,5.70031884 q 0.4947281,0 0.7968188,-0.0569156 0.3064687,-0.0569156 0.4465687,-0.24955311 0.1444781,-0.1970156 0.1444781,-0.6085594 -0.2145281,0.065672 -0.4378125,0.1006969 -0.2189062,0.035025 -0.4728375,0.035025 -1.4885625,0 -1.4885625,-1.2214969 0,-0.4203 0.1663688,-0.8406 0.1707468,-0.4203 0.4991062,-0.7005 0.3283594,-0.2845782 0.7968188,-0.2845782 0.4290562,0 0.735525,0.2189063 0.3108469,0.2189062 0.5078625,0.5910469 0.2013937,0.3677625 0.2977125,0.8362219 0.096319,0.4640812 0.096319,0.9588093 0,0.6523407 -0.1182094,1.05512818 -0.1138313,0.39840939 -0.3677625,0.60855939 -0.2539313,0.20577188 -0.6610969,0.2802 Q 7.7764255,0 7.1897567,0 h -1.61115 V -0.79681876 Z M 7.7808036,-2.3291625 q 0.2013937,0 0.3984094,-0.035025 0.2013937,-0.039403 0.4027875,-0.096319 -0.035025,-0.3108469 -0.1313438,-0.63045 -0.091941,-0.3196031 -0.2758219,-0.5341313 -0.1838812,-0.2189062 -0.49035,-0.2189062 -0.2714437,0 -0.4378125,0.1707469 -0.1619906,0.1707468 -0.2364187,0.4071656 -0.07005,0.2364188 -0.07005,0.4378125 0,0.3020906 0.2145281,0.4027875 0.2189062,0.096319 0.6260719,0.096319 z m -2.784488,-3.6995157 v 6.02430007 H 4.2564124 V -6.0286782 Z"
       id="text5"
       transform="matrix(1.3333333,0,0,1.3333333,347.80133,222.25467)"
       aria-label="یﺮﺑاﺮﺑیدﺎﺼﺘﻗا" />
    <path
       id="path6"
       d="m -45.76804,28.60088 -54.43988,34.0262"
       style="fill:none;stroke:#2ecc71;stroke-width:0.99628;stroke-linecap:butt;stroke-linejoin:miter;stroke-miterlimit:10;stroke-dasharray:none;stroke-opacity:1"
       transform="matrix(1.3333333,0,0,-1.3333333,233.21067,125.00133)" />
    <path
       id="path7"
       d="M -2.78957,3.47087 C -2.27992,1.38832 -1.14423,0.40492 0,0 -1.14423,-0.40492 -2.27992,-1.38832 -2.78957,-3.47087"
       style="fill:none;stroke:#2ecc71;stroke-width:0.99628;stroke-linecap:round;stroke-linejoin:round;stroke-miterlimit:10;stroke-dasharray:none;stroke-opacity:1"
       transform="matrix(-1.13064,-0.70666667,-0.70666667,1.13064,99.03688,41.146533)" />
    <path
       id="path8"
       d="M 45.76804,28.60088 99.83678,62.39503"
       style="fill:none;stroke:#2ecc71;stroke-width:0.99628;stroke-linecap:butt;stroke-linejoin:miter;stroke-miterlimit:10;stroke-dasharray:none;stroke-opacity:1"
       transform="matrix(1.3333333,0,0,-1.3333333,233.21067,125.00133)" />
    <path
       id="path9"
       d="M -2.78957,3.47087 C -2.27992,1.38832 -1.14423,0.40492 0,0 -1.14423,-0.40492 -2.27992,-1.38832 -2.78957,-3.47087"
       style="fill:none;stroke:#2ecc71;stroke-width:0.99628;stroke-linecap:round;stroke-linejoin:round;stroke-miterlimit:10;stroke-dasharray:none;stroke-opacity:1"
       transform="matrix(1.13064,-0.70666667,-0.70666667,-1.13064,366.8896,41.45592)" />
    <path
       id="path10"
       d="M -45.76804,-28.60088 -99.33261,-62.0798"
       style="fill:none;stroke:#2ecc71;stroke-width:0.99628;stroke-linecap:butt;stroke-linejoin:miter;stroke-miterlimit:10;stroke-dasharray:none;stroke-opacity:1"
       transform="matrix(1.3333333,0,0,-1.3333333,233.21067,125.00133)" />
    <path
       id="path11"
       d="M -2.78957,3.47087 C -2.27992,1.38832 -1.14423,0.40492 0,0 -1.14423,-0.40492 -2.27992,-1.38832 -2.78957,-3.47087"
       style="fill:none;stroke:#2ecc71;stroke-width:0.99628;stroke-linecap:round;stroke-linejoin:round;stroke-miterlimit:10;stroke-dasharray:none;stroke-opacity:1"
       transform="matrix(-1.13064,0.70666667,0.70666667,1.13064,100.20397,208.12644)" />
    <path
       id="path12"
       d="M 45.76804,-28.60088 99.83678,-62.39503"
       style="fill:none;stroke:#2ecc71;stroke-width:0.99628;stroke-linecap:butt;stroke-linejoin:miter;stroke-miterlimit:10;stroke-dasharray:none;stroke-opacity:1"
       transform="matrix(1.3333333,0,0,-1.3333333,233.21067,125.00133)" />
    <path
       id="path13"
       d="M -2.78957,3.47087 C -2.27992,1.38832 -1.14423,0.40492 0,0 -1.14423,-0.40492 -2.27992,-1.38832 -2.78957,-3.47087"
       style="fill:none;stroke:#2ecc71;stroke-width:0.99628;stroke-linecap:round;stroke-linejoin:round;stroke-miterlimit:10;stroke-dasharray:none;stroke-opacity:1"
       transform="matrix(1.13064,0.70666667,0.70666667,-1.13064,366.8896,208.54675)" />
  </g>
</svg>
