<?xml version="1.0" encoding="UTF-8" standalone="no"?>


<svg class="tikz-diagram" id="iran-action-ch2-tikz-10-7fea91a89e73"
   version="1.1"
   id="svg1"
   width="474.49332"
   height="345.79999"
   viewBox="0 0 474.49332 345.79999"
   sodipodi:docname="iran-action-ch2-tikz-10-7fea91a89e73.pdf"
   xmlns:inkscape="http://www.inkscape.org/namespaces/inkscape"
   xmlns:sodipodi="http://sodipodi.sourceforge.net/DTD/sodipodi-0.dtd"
   xmlns="http://www.w3.org/2000/svg"
   xmlns:svg="http://www.w3.org/2000/svg">
  <defs
     id="defs1" />
  <sodipodi:namedview
     id="namedview1"
     pagecolor="#ffffff"
     bordercolor="#000000"
     borderopacity="0.25"
     inkscape:showpageshadow="2"
     inkscape:pageopacity="0.0"
     inkscape:pagecheckerboard="0"
     inkscape:deskcolor="#d1d1d1">
    <inkscape:page
       x="0"
       y="0"
       inkscape:label="1"
       id="page1"
       width="474.49332"
       height="345.79999"
       margin="0"
       bleed="0" />
  </sodipodi:namedview>
  <g
     id="g1"
     inkscape:groupmode="layer"
     inkscape:label="1">
    <path
       id="path1"
       d="m 155.90744,85.04042 c 0,39.13927 -31.72775,70.86702 -70.86702,70.86702 -39.13927,0 -70.86702,-31.72775 -70.86702,-70.86702 0,-39.13927 31.72775,-70.86702 70.86702,-70.86702 39.13927,0 70.86702,31.72775 70.86702,70.86702 z"
       style="fill:#ecbbc0;fill-opacity:1;fill-rule:nonzero;stroke:none"
       transform="matrix(1.3333333,0,0,-1.3333333,1.028,269.944)" />
    <path
       style="font-weight:800;font-size:9.9626px;font-family:Vazirmatn"
       d="m 25.606996,-5.3315475 0.826974,0.8172445 0.817244,-0.8172445 0.831838,0.8269736 -0.831838,0.8367027 -0.817244,-0.8269736 -0.826974,0.8269736 -0.826973,-0.8367027 z m 3.512206,1.9896012 1.216137,-0.1508011 0.09729,1.3912615 q 0.02432,0.3697059 0.194582,0.5351006 0.175124,0.1605302 0.574017,0.1605302 h 0.111885 V 0 H 31.201229 Q 30.641806,0 30.2721,-0.20431113 29.902394,-0.41348681 29.659167,-0.768599 29.216493,-0.35997675 28.579237,-0.17998837 27.946845,0 26.930154,0 h -0.81238 q -0.841567,0 -1.551792,-0.10215556 -0.70536,-0.10702012 -1.230731,-0.36970585 -0.520507,-0.26268574 -0.81238,-0.73454719 -0.287008,-0.4767259 -0.287008,-1.2161376 0,-0.4378096 0.09729,-0.8512964 0.09729,-0.4183514 0.243227,-0.7734636 l 1.172357,0.4426742 q -0.0827,0.2286338 -0.170259,0.530236 -0.0827,0.3016021 -0.0827,0.574017 0,0.486455 0.359977,0.7199535 0.359977,0.2334984 0.953452,0.3064666 0.59834,0.068104 1.308564,0.068104 h 0.81238 q 0.70536,0 1.206408,-0.05351 0.501049,-0.058375 0.763735,-0.238363 0.26755,-0.1848529 0.26755,-0.5691524 0,-0.2480921 -0.01459,-0.5448297 -0.01459,-0.2967376 -0.03405,-0.530236 z m -9.393449,3.45383097 q -0.505913,0 -0.948587,-0.21404023 -0.43781,-0.21890478 -0.856161,-0.53996513 -0.26755,0.26755029 -0.559424,0.45726776 Q 17.074573,0 16.520014,0 h -0.21404 v -1.4058551 h 0.189717 q 0.238363,0 0.428081,-0.184853 0.194582,-0.1848529 0.369706,-0.4767259 0.179988,-0.2967376 0.37457,-0.6226625 0.199447,-0.3307895 0.442674,-0.6226625 0.248092,-0.2967376 0.574017,-0.4815905 0.325925,-0.1848529 0.763735,-0.1848529 0.612933,0 1.060472,0.291873 0.447538,0.2870085 0.690766,0.7637345 0.243227,0.4718614 0.243227,1.0312847 0,0.574017 -0.189717,1.02642018 -0.189717,0.45240321 -0.574017,0.71508895 -0.379435,0.26268574 -0.953452,0.26268574 z M 19.492255,-2.641451 q -0.199447,0 -0.359977,0.1362074 -0.16053,0.1313429 -0.282144,0.3210604 -0.121614,0.1897174 -0.204311,0.3599767 0.141072,0.1264783 0.26755,0.2189048 0.126478,0.092426 0.243228,0.1605302 0.175123,0.097291 0.32106,0.1362074 0.145937,0.038916 0.252957,0.038916 0.257821,0 0.369706,-0.1848529 0.111884,-0.1897175 0.111884,-0.4280805 0,-0.3064667 -0.189717,-0.530236 Q 19.832773,-2.641451 19.492255,-2.641451 Z M 14.13152,-4.0229834 q 0.612933,0 1.041013,0.3648413 0.428081,0.3648413 0.671308,0.963181 0.243228,0.5934752 0.291873,1.289106 h 0.364842 V 0 h -0.462133 q -0.277279,1.1091176 -1.089659,1.7415091 -0.81238,0.6372562 -2.218235,0.909671 L 12.248938,1.3523451 Q 12.861872,1.2355959 13.382379,1.0410138 13.90775,0.84643182 14.267727,0.58374608 14.632568,0.32106034 14.754182,0 h -0.457268 q -0.982639,0 -1.498281,-0.40862226 -0.515643,-0.4134868 -0.515643,-1.33288684 0,-0.3599768 0.111885,-0.7540054 0.111885,-0.3988931 0.340518,-0.7442762 0.228634,-0.3502477 0.574017,-0.5642879 0.350248,-0.2189048 0.82211,-0.2189048 z m 0.16053,2.6171283 h 0.622662 q -0.02919,-0.2724149 -0.116749,-0.5594234 -0.0827,-0.2870085 -0.248092,-0.4815905 -0.16053,-0.194582 -0.428081,-0.194582 -0.228633,0 -0.364841,0.1459365 -0.131343,0.141072 -0.189717,0.3405186 -0.05351,0.194582 -0.05351,0.3599767 0,0.2578212 0.21404,0.3259249 0.218905,0.063239 0.564288,0.063239 z M 8.4594536,-4.4948448 q 0.6518498,0.3842995 1.0702012,0.6907662 0.4183513,0.3064667 0.6810372,0.6372561 0.26755,0.3307895 0.457268,0.7929218 0.145936,0.3502476 0.277279,0.5642879 0.136207,0.2140402 0.340519,0.3113312 0.204311,0.092427 0.559423,0.092427 h 0.136207 V 0 H 11.845181 Q 11.25657,0 10.857677,-0.17025927 10.463649,-0.3453831 10.186369,-0.7491408 9.9334125,-0.46699686 9.6318104,-0.30160214 9.3350728,-0.14107197 8.9167214,-0.06810371 8.5032346,0 7.8854367,0 H 6.6984863 v -1.4058551 h 1.1820858 q 0.7783281,0 1.1674922,-0.1070202 0.389164,-0.1118846 0.389164,-0.4524032 0,-0.1605301 -0.238363,-0.3697058 Q 8.9605024,-2.5490245 8.6005256,-2.782523 8.2454134,-3.020886 7.870843,-3.2495198 7.5011372,-3.4830183 7.2287223,-3.6776003 7.0244112,-3.8284014 6.9173911,-4.0716289 6.810371,-4.319721 6.810371,-4.5824067 q 0,-0.2772794 0.1264783,-0.5010487 0.1313429,-0.2286339 0.3988931,-0.335654 l 3.7554336,-1.5323335 v 1.3912615 z m -8.55674409,3.0889897 h 0.82697361 q 0.62752708,0 1.16749218,-0.1167493 0.5399651,-0.1216137 1.1091175,-0.3599767 0.574017,-0.238363 1.3036996,-0.5934752 Q 3.5608516,-2.7484711 3.0987193,-2.933324 2.636587,-3.1230415 2.4663277,-3.1230415 q -0.2626857,0 -0.476726,0.1653947 -0.2091756,0.1605302 -0.3453831,0.3405185 L 1.3863975,-2.2912034 0.29673811,-2.8263039 0.51564289,-3.1765516 q 0.3453831,-0.5642879 0.82697361,-0.9339937 0.4815905,-0.3745704 1.1285758,-0.3745704 0.2724148,0 0.6323915,0.1264783 0.3648413,0.1264783 0.7783282,0.3161958 0.4183513,0.1848529 0.8610254,0.3745704 0.4475387,0.1848529 0.8804837,0.3161958 0.4378095,0.1313429 0.8367027,0.1362074 v 1.2891059 Q 6.090418,-1.8777166 5.7742222,-1.7609673 5.4580264,-1.6490827 5.1175078,-1.4739589 4.7769893,-1.298835 4.3245861,-1.0556075 3.7019236,-0.72481805 3.1473648,-0.48645507 2.5976706,-0.24809208 2.0139245,-0.12161377 1.435043,0 0.71508947,0 h -0.81237996 z"
       id="text1"
       transform="matrix(1.3333333,0,0,1.3333333,93.604,159.424)"
       aria-label="ﺖﻣﻮﮑﺣ" />
    <path
       style="font-size:8.9664px;font-family:Vazirmatn"
       d="M 1.9132407,0 H 1.1602031 v -0.99383439 q 0,-1.46667191 -0.1532343,-2.59622821 Q 0.85811251,-4.7196188 0.42905626,-5.6040001 L 1.1208,-5.8535532 q 0.4640813,1.0288594 0.6260719,2.2240875 0.1663688,1.19085 0.1663688,2.64876568 z M 5.2318595,-0.69612189 Q 5.1224064,-0.31522501 4.8684751,-0.1576125 4.6145439,0 4.2774282,0 3.7038939,0 3.3755345,-0.36338438 3.0471751,-0.73114689 3.0471751,-1.4754281 q 0,-0.7968188 0.4465688,-1.6855782 0.4509468,-0.8931375 1.1470687,-1.8431907 L 4.3781251,-5.2625063 4.8422064,-5.8973345 q 0.9631875,0.8931375 1.5235875,1.6724438 0.5647781,0.7749281 0.805575,1.4579157 0.245175,0.6786093 0.245175,1.2915469 0,0.73552496 -0.315225,1.10766559 Q 6.7860939,0 6.2038033,0 5.9104689,0 5.6258908,-0.1576125 5.3456908,-0.31522501 5.2318595,-0.69612189 Z M 3.7739439,-1.47105 q 0,0.3239812 0.1357218,0.52099686 0.1357219,0.19701563 0.3633844,0.19701563 0.1488563,0 0.2714438,-0.0612938 0.1225875,-0.0656719 0.2232843,-0.28020004 0.105075,-0.2145281 0.1882594,-0.665475 h 0.5428875 q 0.074428,0.4509469 0.1795032,0.665475 0.1094531,0.21452816 0.2407968,0.28020004 0.1357219,0.0612938 0.2845782,0.0612938 0.2495531,0 0.3633844,-0.19263751 Q 6.685397,-1.1383125 6.685397,-1.47105 q 0,-0.7267688 -0.3896531,-1.4929407 -0.3896531,-0.7661719 -1.0945313,-1.506075 -0.7399031,0.9763219 -1.085775,1.7118469 -0.3414937,0.735525 -0.3414937,1.2871688 z m 7.3070901,-4.3518563 0.586669,0.2670656 -2.5830936,5.62151258 -0.5866687,-0.26706563 z m -2.5393121,0.8099531 q 0,-0.245175 0.175125,-0.4159219 0.175125,-0.175125 0.4159219,-0.175125 0.245175,0 0.4159219,0.175125 0.1707469,0.1707469 0.1707469,0.4159219 0,0.2407969 -0.1707469,0.4159219 -0.1707469,0.175125 -0.4159219,0.175125 -0.245175,0 -0.4203,-0.1663688 Q 8.5417219,-4.759022 8.5417219,-5.0129532 Z m 1.9438871,4.19862194 q 0,-0.24517504 0.170747,-0.41592184 0.175125,-0.175125 0.415922,-0.175125 0.245175,0 0.415922,0.175125 0.175125,0.1707468 0.175125,0.41592184 0,0.24079688 -0.175125,0.41592188 -0.170747,0.175125 -0.415922,0.175125 -0.245175,0 -0.415922,-0.16636875 -0.170747,-0.17074688 -0.170747,-0.42467813 z m 5.368177,-1.12517814 h -2.955234 v -0.6610969 h 2.955234 z M 18.379965,0 h -0.753037 v -0.99383439 q 0,-1.46667191 -0.153235,-2.59622821 -0.148856,-1.1295562 -0.577912,-2.0139375 l 0.691743,-0.2495531 q 0.464082,1.0288594 0.626072,2.2240875 0.166369,1.19085 0.166369,2.64876568 z m 1.274034,-2.0927438 q 0,-0.3590062 0.170746,-0.6523406 0.175125,-0.2933344 0.46846,-0.4640813 0.293334,-0.175125 0.65234,-0.175125 0.359007,0 0.652341,0.175125 0.293334,0.1707469 0.464081,0.4640813 0.175125,0.2933344 0.175125,0.6523406 0,0.3590063 -0.175125,0.6523407 -0.170747,0.2933343 -0.464081,0.46845933 -0.293334,0.17074688 -0.652341,0.17074688 -0.359006,0 -0.65234,-0.17074688 -0.293335,-0.17512503 -0.46846,-0.46845933 -0.170746,-0.2933344 -0.170746,-0.6523407 z m 0.669853,0 q 0,0.2583094 0.179503,0.4421906 0.183881,0.1795032 0.44219,0.1795032 0.25831,0 0.437813,-0.1795032 0.183881,-0.1838812 0.183881,-0.4421906 0,-0.2583094 -0.183881,-0.4378125 -0.179503,-0.1838812 -0.437813,-0.1838812 -0.258309,0 -0.44219,0.1838812 -0.179503,0.1795031 -0.179503,0.4378125 z M 50.474388,0 q -0.643584,0 -1.00259,-0.30209063 -0.354628,-0.30209063 -0.459703,-0.83184377 -0.253932,0.25393126 -0.551644,0.38965314 -0.293334,0.13572188 -0.661097,0.13572188 -0.626072,0 -1.05075,-0.33711564 -0.424678,-0.33711558 -0.424678,-0.93254068 0,-0.6742312 0.551644,-1.1645812 0.551643,-0.4947282 1.733737,-0.8581125 l -0.03065,-0.21015 0.7005,-0.1401 0.380897,2.6881687 q 0.05254,0.3852751 0.249553,0.57791256 0.201394,0.18825938 0.582291,0.18825938 h 0.135722 V 0 Z M 48.83697,-2.2021969 q 0,-0.1357219 -0.01751,-0.2583094 l -0.109453,-0.7311469 q -0.849356,0.3064688 -1.239009,0.6041813 -0.385275,0.2977125 -0.385275,0.6523406 0,0.2889563 0.197015,0.4378125 0.197016,0.1488563 0.534132,0.1488563 0.258309,0 0.49035,-0.1006969 0.236418,-0.1006969 0.380896,-0.2933344 0.148857,-0.1926375 0.148857,-0.4597031 z m -5.354445,-1.2214969 q 0.337115,0 0.696121,0.056916 0.359007,0.052538 0.665475,0.1532344 0.310847,0.1006969 0.503485,0.245175 0.192637,0.1444781 0.192637,0.3239813 0,0.1269656 -0.135722,0.35025 -0.131343,0.2232843 -0.341493,0.4815937 -0.205772,0.2583094 -0.433435,0.4991063 -0.227662,0.2364187 -0.415922,0.40278749 0.306469,0.0788062 0.582291,0.0963188 0.275822,0.0175125 0.499106,0.0175125 h 0.682988 V 0 h -0.67861 q -0.459703,0 -0.919406,-0.10945313 -0.455325,-0.10945312 -0.897515,-0.36338438 -0.288957,0.16636875 -0.669854,0.27144376 -0.376518,0.105075 -0.761793,0.15323437 Q 41.669981,0 41.363512,0 h -0.691744 v -0.79681876 h 0.696122 q 0.148856,0 0.39841,-0.004378 0.253931,-0.008756 0.520996,-0.0306469 0.271444,-0.0262687 0.472838,-0.0788062 Q 42.571875,-1.0770188 42.344212,-1.3134375 42.11655,-1.5542344 41.9064,-1.8125438 q -0.205772,-0.2583094 -0.341494,-0.4815937 -0.135722,-0.2232844 -0.135722,-0.35025 0,-0.1795032 0.188259,-0.3239813 0.18826,-0.1444781 0.494728,-0.245175 0.310847,-0.1006969 0.669854,-0.1532344 0.359006,-0.056916 0.7005,-0.056916 z m 0,0.7530375 q -0.197016,0 -0.564779,0.030647 -0.363384,0.030647 -0.687365,0.1401 0.284578,0.3590062 0.573534,0.6435844 0.288956,0.2845781 0.481594,0.455325 0.197016,0.1663687 0.197016,0.1663687 0,0 0.197015,-0.1663687 0.197016,-0.1707469 0.49035,-0.455325 0.293335,-0.2845782 0.573535,-0.6435844 -0.323982,-0.1094531 -0.691744,-0.1401 -0.367763,-0.030647 -0.569156,-0.030647 z m -4.535744,2.77135318 q -0.437812,0 -0.809953,-0.18825938 Q 37.769066,-0.2802 37.370656,-0.66547501 37.086078,-0.34587188 36.823391,-0.17074688 36.560703,0 36.083488,0 H 35.89085 v -0.79681876 h 0.170747 q 0.293334,0 0.494728,-0.16636876 0.201394,-0.17074688 0.359006,-0.43781248 0.157613,-0.2670657 0.310847,-0.5647782 0.157613,-0.3020906 0.35025,-0.5691562 0.192638,-0.2670656 0.464082,-0.4334344 0.275821,-0.1707469 0.678609,-0.1707469 0.485972,0 0.844978,0.2364188 0.363384,0.2320406 0.5604,0.6260719 0.201394,0.3940312 0.201394,0.8800031 0,0.71363439 -0.363385,1.10766565 -0.359006,0.38965313 -1.015725,0.38965313 z m -0.21015,-2.46488438 q -0.218906,0 -0.398409,0.1488562 -0.179503,0.1444781 -0.323981,0.3765188 -0.144478,0.2320406 -0.25831,0.4815937 0.262688,0.2758219 0.542888,0.45094691 0.359006,0.23204063 0.639206,0.23204063 0.647963,0 0.647963,-0.65234064 0,-0.455325 -0.227663,-0.7442813 -0.223284,-0.2933343 -0.621694,-0.2933343 z m -4.435037,-3.6644907 h 0.739903 v 4.1854875 q 0,0.6173157 0.227662,0.8318438 0.227663,0.21452814 0.687366,0.21452814 h 0.109453 V 0 H 35.956525 Q 35.120303,0 34.708759,-0.44219063 34.301594,-0.88875939 34.301594,-1.8475688 Z m -3.76081,6.69853134 0.634828,0.63482816 -0.634828,0.6348281 -0.634829,-0.6348281 z m -3.003394,-1.4666719 h 0.744281 q 0.512241,0 0.941297,-0.0919406 0.429056,-0.0919406 0.836222,-0.25393121 0.411544,-0.1619907 0.858112,-0.3808969 0.450947,-0.2232844 1.006969,-0.4772157 -0.310847,-0.1138312 -0.643584,-0.245175 -0.332738,-0.1357218 -0.634828,-0.2539312 -0.297713,-0.1182094 -0.520997,-0.1926375 -0.223285,-0.078806 -0.315225,-0.078806 -0.267066,0 -0.472838,0.1576125 -0.201394,0.1532344 -0.37214,0.3721407 l -0.11821,0.1488562 -0.669853,-0.3283594 0.06567,-0.105075 q 0.288956,-0.4684593 0.669853,-0.7486594 0.385275,-0.2845781 0.901894,-0.2845781 0.214528,0 0.516619,0.1094531 0.306468,0.1094532 0.665475,0.2758219 0.359006,0.1619907 0.744281,0.3327375 0.385275,0.1663688 0.77055,0.2845782 0.385275,0.1138312 0.735525,0.1269656 v 0.7574156 q -0.2802,0.030647 -0.718013,0.2057719 -0.433434,0.1707469 -1.129556,0.53850938 -0.5604,0.29771251 -1.041994,0.50786251 Q 29.879687,-0.21452813 29.38058,-0.105075 28.885852,0 28.268537,0 H 27.53739 Z"
       id="text2"
       transform="matrix(1.3333333,0,0,1.3333333,82.312,197.07867)"
       aria-label="۱۵٪ -۱۰ﻪﻌﻣﺎﺟ" />
    <path
       id="path2"
       d="m 340.16171,85.04042 c 0,46.96713 -38.0733,85.04044 -85.04043,85.04044 -46.96714,0 -85.04042,-38.07331 -85.04042,-85.04044 C 170.08086,38.07329 208.15414,0 255.12128,0 c 46.96713,0 85.04043,38.07329 85.04043,85.04042 z"
       style="fill:#b3d1c2;fill-opacity:1;fill-rule:nonzero;stroke:none"
       transform="matrix(1.3333333,0,0,-1.3333333,1.028,269.944)" />
    <path
       style="font-weight:800;font-size:9.9626px;font-family:Vazirmatn"
       d="m 16.599093,0.11188467 q -0.505914,0 -0.948588,-0.21404023 -0.437809,-0.21890478 -0.856161,-0.53996513 -0.26755,0.26755029 -0.559423,0.45726776 Q 13.947913,0 13.393354,0 h -0.21404 v -1.4058551 h 0.189717 q 0.238363,0 0.428081,-0.184853 0.194582,-0.1848529 0.369705,-0.4767259 0.179989,-0.2967376 0.374571,-0.6226625 0.199446,-0.3307895 0.442674,-0.6226625 0.248092,-0.2967376 0.574017,-0.4815905 0.325925,-0.1848529 0.763734,-0.1848529 0.612934,0 1.060472,0.291873 0.447539,0.2870085 0.690767,0.7637345 0.243227,0.4718614 0.243227,1.0312847 0,0.574017 -0.189717,1.02642018 -0.189718,0.45240321 -0.574017,0.71508895 -0.379435,0.26268574 -0.953452,0.26268574 z M 16.365594,-2.641451 q -0.199446,0 -0.359976,0.1362074 -0.160531,0.1313429 -0.282144,0.3210604 -0.121614,0.1897174 -0.204311,0.3599767 0.141071,0.1264783 0.26755,0.2189048 0.126478,0.092426 0.243227,0.1605302 0.175124,0.097291 0.321061,0.1362074 0.145936,0.038916 0.252956,0.038916 0.257821,0 0.369706,-0.1848529 0.111885,-0.1897175 0.111885,-0.4280805 0,-0.3064667 -0.189718,-0.530236 -0.189717,-0.2286339 -0.530236,-0.2286339 z m -5.341276,0.5399651 q 0,-0.1216138 -0.05351,-0.3210603 -0.05351,-0.1994466 -0.111885,-0.3259249 l -0.9631811,-2.1258087 1.1577631,-0.5642878 1.211273,2.792252 q 0.145937,0.335654 0.257821,0.617798 0.116749,0.2821439 0.262686,0.4524032 0.150801,0.1702593 0.384299,0.1702593 h 0.204312 V 0 h -0.204312 q -0.544829,0 -0.880483,-0.20431113 -0.33079,-0.20917568 -0.583746,-0.53510057 -0.369706,0.3551122 -0.880484,0.54482967 -0.510778,0.18971748 -1.2355958,0.18971748 -0.4280805,0 -0.724818,-0.0291873 Q 8.5677196,-0.06323916 8.2515238,-0.14107197 V -1.5469271 q 0.3016021,0.072968 0.6372561,0.1118847 0.3405186,0.038916 0.627527,0.038916 0.3599768,0 0.7053601,-0.058375 0.345383,-0.063239 0.574017,-0.2189048 0.228634,-0.1556656 0.228634,-0.4280805 z M 7.0366309,0 Q 6.5939568,0 6.3069483,-0.17025927 6.1123663,0.94858738 5.3486318,1.67827 4.5897619,2.4079526 3.3201142,2.6511801 L 2.8385237,1.3523451 Q 3.5438835,1.201544 4.0497968,0.94858738 4.5605746,0.7004953 4.837854,0.28214394 q 0.2772794,-0.41835136 0.2772794,-1.07993025 0,-0.44267409 -0.141072,-0.99236829 -0.141072,-0.5545588 -0.3016021,-1.0312848 l 1.3085641,-0.4232159 0.2821439,1.0993885 q 0.082697,0.3113312 0.2432276,0.5253714 0.1605301,0.2140403 0.4767259,0.2140403 H 7.1728383 V 0 Z M 1.7683227,0.11188467 q -0.5059132,0 -0.94858734,-0.21404023 Q 0.3819258,-0.32106034 -0.03642556,-0.64212069 -0.30397584,-0.3745704 -0.59584888,-0.18485293 -0.88285737,0 -1.4374161,0 h -0.2140403 v -1.4058551 h 0.1897175 q 0.238363,0 0.4280805,-0.184853 0.19458198,-0.1848529 0.36970581,-0.4767259 0.17998837,-0.2967376 0.3745704,-0.6226625 0.19944658,-0.3307895 0.44267411,-0.6226625 0.24809208,-0.2967376 0.57401698,-0.4815905 0.3259249,-0.1848529 0.7637345,-0.1848529 0.6129333,0 1.060472,0.291873 0.4475387,0.2870085 0.6907662,0.7637345 0.2432275,0.4718614 0.2432275,1.0312847 0,0.574017 -0.1897175,1.02642018 -0.1897174,0.45240321 -0.5740169,0.71508895 -0.379435,0.26268574 -0.953452,0.26268574 z M 1.5348243,-2.641451 q -0.1994466,0 -0.3599767,0.1362074 -0.1605302,0.1313429 -0.28214398,0.3210604 -0.12161377,0.1897174 -0.20431113,0.3599767 0.14107197,0.1264783 0.26755029,0.2189048 0.12647832,0.092426 0.24322752,0.1605302 0.1751238,0.097291 0.3210604,0.1362074 0.1459365,0.038916 0.2529566,0.038916 0.2578212,0 0.3697058,-0.1848529 0.1118847,-0.1897175 0.1118847,-0.4280805 0,-0.3064667 -0.1897175,-0.530236 Q 1.8753429,-2.641451 1.5348243,-2.641451 Z"
       id="text3"
       transform="matrix(1.3333333,0,0,1.3333333,327.984,158.036)"
       aria-label="مدﺮﻣ" />
    <path
       style="font-size:8.9664px;font-family:Vazirmatn"
       d="m 2.0577188,-2.6925469 q -0.8143313,0 -1.23463129,-0.2889563 -0.41592188,-0.2933344 -0.41592188,-1.0463719 0,-0.3020906 0.0963187,-0.6173156 0.0963188,-0.315225 0.28457813,-0.5866688 0.18825938,-0.2714437 0.46408129,-0.4378125 0.2802,-0.1663687 0.6435844,-0.1663687 0.6041812,0 0.9544312,0.3239812 0.35025,0.3196032 0.5078625,0.9325407 0.1576125,0.6085594 0.175125,1.4798062 0.00876,0.3020907 0.013134,0.6961219 0.00876,0.3940313 0.017513,0.8230875 0.013134,0.4290563 0.026269,0.84060006 Q 3.6031969,-0.32835938 3.6163313,0 H 2.8632938 q -0.00876,-0.33711563 -0.017513,-0.74865939 -0.00876,-0.41154371 -0.017513,-0.81870941 -0.00438,-0.4071656 -0.00876,-0.735525 -0.00438,-0.3283594 -0.00876,-0.49035 -0.1313438,0.039403 -0.3546281,0.07005 -0.2232844,0.030647 -0.3984094,0.030647 z m -0.021891,-0.7574157 q 0.2189062,0 0.4290562,-0.030647 0.2145281,-0.035025 0.3196031,-0.074428 -0.017513,-0.4115437 -0.105075,-0.7574156 -0.087563,-0.3458719 -0.2802,-0.5560219 -0.1882593,-0.21015 -0.5122406,-0.21015 -0.2802,0 -0.4465688,0.1882594 -0.1619906,0.1838812 -0.2364187,0.4334344 -0.07005,0.245175 -0.07005,0.4290562 0,0.3196032 0.2057719,0.4509469 0.2057719,0.1269656 0.6961219,0.1269656 z m 2.8851844,1.3572188 q 0,-0.3590062 0.1707468,-0.6523406 0.175125,-0.2933344 0.4684594,-0.4640813 0.2933344,-0.175125 0.6523407,-0.175125 0.3590062,0 0.6523406,0.175125 0.2933344,0.1707469 0.4640813,0.4640813 0.175125,0.2933344 0.175125,0.6523406 0,0.3590063 -0.175125,0.6523407 -0.1707469,0.2933343 -0.4640813,0.46845933 -0.2933344,0.17074688 -0.6523406,0.17074688 -0.3590063,0 -0.6523407,-0.17074688 Q 5.2668844,-1.1470688 5.0917594,-1.4404031 4.9210126,-1.7337375 4.9210126,-2.0927438 Z m 0.6698531,0 q 0,0.2583094 0.1795031,0.4421906 0.1838813,0.1795032 0.4421907,0.1795032 0.2583093,0 0.4378125,-0.1795032 0.1838812,-0.1838812 0.1838812,-0.4421906 0,-0.2583094 -0.1838812,-0.4378125 -0.1795032,-0.1838812 -0.4378125,-0.1838812 -0.2583094,0 -0.4421907,0.1838812 -0.1795031,0.1795031 -0.1795031,0.4378125 z m 5.7178313,-3.7301625 0.586669,0.2670656 -2.583094,5.62151258 -0.5866687,-0.26706563 z m -2.5393125,0.8099531 q 0,-0.245175 0.175125,-0.4159219 0.175125,-0.175125 0.4159219,-0.175125 0.245175,0 0.4159219,0.175125 0.1707468,0.1707469 0.1707468,0.4159219 0,0.2407969 -0.1707468,0.4159219 -0.1707469,0.175125 -0.4159219,0.175125 -0.245175,0 -0.4203,-0.1663688 Q 8.7693845,-4.759022 8.7693845,-5.0129532 Z m 1.9438875,4.19862194 q 0,-0.24517504 0.170747,-0.41592184 0.175125,-0.175125 0.415922,-0.175125 0.245175,0 0.415922,0.175125 0.175125,0.1707468 0.175125,0.41592184 0,0.24079688 -0.175125,0.41592188 -0.170747,0.175125 -0.415922,0.175125 -0.245175,0 -0.415922,-0.16636875 -0.170747,-0.17074688 -0.170747,-0.42467813 z m 5.368177,-1.12517814 h -2.955234 v -0.6610969 h 2.955234 z m 2.876427,-3.7345407 h 0.753038 q 0.179503,1.19085 0.507862,2.2503563 0.32836,1.0551281 0.704878,1.8869719 0.380897,0.82746564 0.696122,1.33970627 L 20.932411,0.175125 q -0.197016,-0.35462813 -0.429057,-0.84497814 -0.23204,-0.49472816 -0.459703,-1.07264066 -0.227662,-0.5822906 -0.415922,-1.1952281 -0.188259,-0.6173157 -0.293334,-1.2127407 -0.109453,0.595425 -0.297713,1.2127407 -0.188259,0.6129375 -0.415921,1.1952281 -0.227663,0.5779125 -0.459704,1.07264066 -0.227662,0.49035001 -0.424678,0.84497814 l -0.687365,-0.37214063 q 0.319603,-0.51224063 0.696122,-1.33970627 0.376518,-0.8318438 0.704878,-1.8869719 0.332737,-1.0595063 0.507862,-2.2503563 z m 5.660917,4.97792821 Q 24.50934,-0.31522501 24.255408,-0.1576125 24.001477,0 23.664362,0 q -0.573535,0 -0.901894,-0.36338438 -0.32836,-0.36776251 -0.32836,-1.11204372 0,-0.7968188 0.446569,-1.6855782 0.450947,-0.8931375 1.147069,-1.8431907 l -0.262688,-0.2583093 0.464082,-0.6348282 q 0.963187,0.8931375 1.523587,1.6724438 0.564778,0.7749281 0.805575,1.4579157 0.245175,0.6786093 0.245175,1.2915469 0,0.73552496 -0.315225,1.10766559 Q 26.173027,0 25.590737,0 25.297402,0 25.012824,-0.1576125 24.732624,-0.31522501 24.618793,-0.69612189 Z M 23.160877,-1.47105 q 0,0.3239812 0.135722,0.52099686 0.135722,0.19701563 0.363384,0.19701563 0.148857,0 0.271444,-0.0612938 0.122588,-0.0656719 0.223285,-0.28020004 0.105075,-0.2145281 0.188259,-0.665475 h 0.542887 q 0.07443,0.4509469 0.179504,0.665475 0.109453,0.21452816 0.240796,0.28020004 0.135722,0.0612938 0.284579,0.0612938 0.249553,0 0.363384,-0.19263751 0.118209,-0.19263748 0.118209,-0.52537498 0,-0.7267688 -0.389653,-1.4929407 -0.389653,-0.7661719 -1.094531,-1.506075 -0.739903,0.9763219 -1.085775,1.7118469 -0.341494,0.735525 -0.341494,1.2871688 z M 54.900669,0 q -0.643584,0 -1.00259,-0.30209063 -0.354628,-0.30209063 -0.459703,-0.83184377 -0.253932,0.25393126 -0.551644,0.38965314 -0.293335,0.13572188 -0.661097,0.13572188 -0.626072,0 -1.05075,-0.33711564 -0.424678,-0.33711558 -0.424678,-0.93254068 0,-0.6742312 0.551644,-1.1645812 0.551643,-0.4947282 1.733737,-0.8581125 l -0.03065,-0.21015 0.7005,-0.1401 0.380897,2.6881687 q 0.05254,0.3852751 0.249553,0.57791256 0.201394,0.18825938 0.582291,0.18825938 h 0.135722 V 0 Z m -1.637418,-2.2021969 q 0,-0.1357219 -0.01751,-0.2583094 l -0.109453,-0.7311469 q -0.849356,0.3064688 -1.239009,0.6041813 -0.385275,0.2977125 -0.385275,0.6523406 0,0.2889563 0.197015,0.4378125 0.197016,0.1488563 0.534131,0.1488563 0.25831,0 0.490351,-0.1006969 0.236418,-0.1006969 0.380896,-0.2933344 0.148857,-0.1926375 0.148857,-0.4597031 z m -5.354442,-1.2214969 q 0.337116,0 0.696122,0.056916 0.359006,0.052538 0.665475,0.1532344 0.310847,0.1006969 0.503485,0.245175 0.192637,0.1444781 0.192637,0.3239813 0,0.1269656 -0.135722,0.35025 -0.131344,0.2232843 -0.341494,0.4815937 -0.205771,0.2583094 -0.433434,0.4991063 -0.227662,0.2364187 -0.415922,0.40278749 0.306469,0.0788062 0.582291,0.0963188 0.275822,0.0175125 0.499106,0.0175125 h 0.682988 V 0 h -0.67861 Q 49.266028,0 48.806325,-0.10945313 48.351,-0.21890625 47.908809,-0.47283751 q -0.288956,0.16636875 -0.669853,0.27144376 -0.376519,0.105075 -0.761794,0.15323437 Q 46.096266,0 45.789797,0 h -0.691744 v -0.79681876 h 0.696122 q 0.148856,0 0.398409,-0.004378 0.253932,-0.008756 0.520997,-0.0306469 0.271444,-0.0262687 0.472838,-0.0788062 -0.18826,-0.16636879 -0.415922,-0.40278749 -0.227663,-0.2407969 -0.437813,-0.4991063 -0.205772,-0.2583094 -0.341493,-0.4815937 -0.135722,-0.2232844 -0.135722,-0.35025 0,-0.1795032 0.188259,-0.3239813 0.188259,-0.1444781 0.494728,-0.245175 0.310847,-0.1006969 0.669853,-0.1532344 0.359007,-0.056916 0.7005,-0.056916 z m 0,0.7530375 q -0.197015,0 -0.564778,0.030647 -0.363384,0.030647 -0.687365,0.1401 0.284578,0.3590062 0.573534,0.6435844 0.288956,0.2845781 0.481594,0.455325 0.197015,0.1663687 0.197015,0.1663687 0,0 0.197016,-0.1663687 0.197016,-0.1707469 0.49035,-0.455325 0.293334,-0.2845782 0.573534,-0.6435844 -0.323981,-0.1094531 -0.691743,-0.1401 -0.367763,-0.030647 -0.569157,-0.030647 z m -4.535743,2.77135318 q -0.437812,0 -0.809953,-0.18825938 Q 42.195351,-0.2802 41.796941,-0.66547501 41.512363,-0.34587188 41.249676,-0.17074688 40.986988,0 40.509772,0 h -0.192637 v -0.79681876 h 0.170747 q 0.293334,0 0.494728,-0.16636876 0.201394,-0.17074688 0.359006,-0.43781248 0.157613,-0.2670657 0.310847,-0.5647782 0.157613,-0.3020906 0.35025,-0.5691562 0.192638,-0.2670656 0.464081,-0.4334344 0.275822,-0.1707469 0.67861,-0.1707469 0.485972,0 0.844978,0.2364188 0.363384,0.2320406 0.5604,0.6260719 0.201394,0.3940312 0.201394,0.8800031 0,0.71363439 -0.363385,1.10766565 -0.359006,0.38965313 -1.015725,0.38965313 z m -0.21015,-2.46488438 q -0.218906,0 -0.398409,0.1488562 -0.179503,0.1444781 -0.323981,0.3765188 -0.144479,0.2320406 -0.25831,0.4815937 0.262688,0.2758219 0.542888,0.45094691 0.359006,0.23204063 0.639206,0.23204063 0.647962,0 0.647962,-0.65234064 0,-0.455325 -0.227662,-0.7442813 -0.223284,-0.2933343 -0.621694,-0.2933343 z m -4.435038,-3.6644907 h 0.739904 v 4.1854875 q 0,0.6173157 0.227662,0.8318438 0.227663,0.21452814 0.687366,0.21452814 h 0.109453 V 0 H 40.38281 Q 39.546588,0 39.135044,-0.44219063 38.727878,-0.88875939 38.727878,-1.8475688 Z M 34.96707,0.66985314 35.601898,1.3046813 34.96707,1.9395094 34.332242,1.3046813 Z m -3.003393,-1.4666719 h 0.744281 q 0.51224,0 0.941297,-0.0919406 0.429056,-0.0919406 0.836222,-0.25393121 0.411543,-0.1619907 0.858112,-0.3808969 0.450947,-0.2232844 1.006969,-0.4772157 -0.310847,-0.1138312 -0.643585,-0.245175 -0.332737,-0.1357218 -0.634828,-0.2539312 -0.297712,-0.1182094 -0.520997,-0.1926375 -0.223284,-0.078806 -0.315225,-0.078806 -0.267065,0 -0.472837,0.1576125 -0.201394,0.1532344 -0.372141,0.3721407 l -0.118209,0.1488562 -0.669853,-0.3283594 0.06567,-0.105075 q 0.288956,-0.4684593 0.669853,-0.7486594 0.385275,-0.2845781 0.901894,-0.2845781 0.214528,0 0.516618,0.1094531 0.306469,0.1094532 0.665475,0.2758219 0.359007,0.1619907 0.744282,0.3327375 0.385275,0.1663688 0.77055,0.2845782 0.385275,0.1138312 0.735525,0.1269656 v 0.7574156 q -0.2802,0.030647 -0.718013,0.2057719 -0.433434,0.1707469 -1.129556,0.53850938 -0.5604,0.29771251 -1.041994,0.50786251 Q 34.305973,-0.21452813 33.806867,-0.105075 33.312139,0 32.694823,0 h -0.731146 z"
       id="text4"
       transform="matrix(1.3333333,0,0,1.3333333,306.13467,197.07867)"
       aria-label="۹۰٪ -۸۵ﻪﻌﻣﺎﺟ" />
    <path
       id="path4"
       d="M 155.90744,0 V 170.08086"
       style="fill:none;stroke:#be1e2d;stroke-width:3.9851;stroke-linecap:butt;stroke-linejoin:miter;stroke-miterlimit:10;stroke-dasharray:none;stroke-opacity:1"
       transform="matrix(1.3333333,0,0,-1.3333333,1.028,269.944)" />
    <path
       style="font-weight:800;font-size:9.9626px;font-family:Vazirmatn;fill:#be1e2d"
       d="m 73.607928,-7.9438112 0.875619,0.8756191 -0.875619,0.8707546 -0.870755,-0.8707546 z m 0.895077,6.0028555 q -0.355112,0.068104 -0.754005,0.068104 -0.861026,0 -1.362074,-0.379435 -0.501049,-0.3794349 -0.501049,-1.1869503 0,-0.5253715 0.223769,-1.0264202 0.228634,-0.5010487 0.642121,-0.8269736 0.413487,-0.3307895 0.968046,-0.3307895 0.544829,0 0.929129,0.2675503 0.384299,0.2675503 0.627527,0.7199535 0.243227,0.4524032 0.355112,1.0118266 0.116749,0.5545587 0.116749,1.1334403 0,1.0118265 -0.272415,1.55179162 -0.272414,0.53510058 -0.846431,0.7394117 Q 74.060331,0 73.160389,0 h -1.619895 q -0.841567,0 -1.551792,-0.10215556 -0.710224,-0.10702012 -1.235596,-0.36970585 -0.520507,-0.26268574 -0.807515,-0.73454719 -0.287009,-0.4767259 -0.287009,-1.2161376 0,-0.4378096 0.09729,-0.8512964 0.09729,-0.4183514 0.243228,-0.7734636 l 1.172357,0.4426742 q -0.0827,0.2286338 -0.17026,0.530236 -0.0827,0.3016021 -0.0827,0.574017 0,0.486455 0.359977,0.7199535 0.359977,0.2334984 0.958316,0.3064666 0.59834,0.068104 1.3037,0.068104 h 1.717186 q 0.627527,0 0.933994,-0.077833 0.306467,-0.077833 0.311331,-0.4572677 z m -0.778328,-1.1626276 q 0.374571,0 0.744276,-0.082697 -0.03405,-0.2334984 -0.131342,-0.4815905 -0.09243,-0.2529566 -0.248093,-0.4280805 -0.150801,-0.1751238 -0.379434,-0.1751238 -0.301603,0 -0.466997,0.2480921 -0.160531,0.2432275 -0.160531,0.5253715 0,0.2578212 0.184853,0.3259249 0.189718,0.068104 0.457268,0.068104 z M 65.148472,-6.8201 H 66.4619 v 4.4461993 q 0,0.5156423 0.150801,0.7442762 0.150801,0.2237694 0.622663,0.2237694 h 0.121614 V 0 H 67.235364 Q 66.145704,0 65.644656,-0.56428788 65.148472,-1.1285758 65.148472,-2.2571515 Z m -4.086217,2.3252552 q 0.65185,0.3842995 1.070201,0.6907662 0.418351,0.3064667 0.681037,0.6372561 0.26755,0.3307895 0.457268,0.7929218 0.145936,0.3502476 0.277279,0.5642879 0.136208,0.2140402 0.340519,0.3113312 0.204311,0.092427 0.559423,0.092427 H 64.58419 V 0 H 64.447982 Q 63.859372,0 63.460478,-0.17025927 63.06645,-0.3453831 62.78917,-0.7491408 62.536214,-0.46699686 62.234612,-0.30160214 61.937874,-0.14107197 61.519523,-0.06810371 61.106036,0 60.488238,0 h -1.18695 v -1.4058551 h 1.182085 q 0.778329,0 1.167493,-0.1070202 0.389164,-0.1118846 0.389164,-0.4524032 0,-0.1605301 -0.238363,-0.3697058 -0.238363,-0.2140402 -0.59834,-0.4475387 -0.355112,-0.238363 -0.729683,-0.4669968 -0.369706,-0.2334985 -0.64212,-0.4280805 -0.204311,-0.1508011 -0.311332,-0.3940286 -0.10702,-0.2480921 -0.10702,-0.5107778 0,-0.2772794 0.126479,-0.5010487 0.131342,-0.2286339 0.398893,-0.335654 l 3.755433,-1.5323335 v 1.3912615 z m -5.307225,-2.4517335 0.783193,0.7783281 -0.783193,0.7831926 -0.783193,-0.7831926 z m 0.851296,1.2404604 0.783193,0.7831926 -0.783193,0.7831927 -0.783192,-0.7831927 z m -1.697728,0 0.778328,0.7831926 -0.778328,0.7831927 -0.783193,-0.7831927 z M 54.714016,0 q -0.491319,0 -0.826973,-0.16539472 -0.33079,-0.17025928 -0.54483,-0.44753866 -0.26755,0.28214394 -0.637256,0.44753866 Q 52.335251,0 51.770963,0 h -0.447539 v -1.4058551 h 0.457268 q 0.535101,0 0.75887,-0.1313429 0.228634,-0.1313429 0.228634,-0.6323916 0,-0.077833 -0.0097,-0.2578212 -0.0097,-0.1799884 -0.02432,-0.3940286 -0.01459,-0.2189048 -0.02919,-0.3940286 l 1.221002,-0.1508011 0.102155,1.3134287 q 0.04378,0.6469853 0.695631,0.6469853 0.403758,0 0.539965,-0.1653948 0.136208,-0.1702592 0.136208,-0.5983397 0,-0.068104 -0.0097,-0.2480921 -0.0097,-0.1848529 -0.02432,-0.4037577 -0.01459,-0.2189048 -0.02919,-0.3940286 l 1.221002,-0.1508011 0.102155,1.3134287 q 0.01946,0.2967376 0.145937,0.4718614 0.131343,0.1751239 0.442674,0.1751239 0.291873,0 0.398893,-0.2286339 0.111885,-0.2334985 0.111885,-0.5545588 0,-0.2772794 -0.05351,-0.5691524 -0.04865,-0.2967376 -0.111885,-0.5351006 -0.05837,-0.2432275 -0.08756,-0.3551122 l 1.259919,-0.3453831 q 0.09729,0.3842995 0.16053,0.8221091 0.06324,0.432945 0.06324,0.8610254 0,0.6032043 -0.16053,1.1334403 -0.155666,0.52537151 -0.535101,0.85129641 Q 57.91489,0 57.258176,0 56.820367,0 56.518764,-0.17998837 56.222027,-0.35997675 56.017716,-0.62266248 55.769624,-0.35997675 55.453428,-0.17998837 55.142097,0 54.714016,0 Z m -4.354241,2.4128171 q -1.430177,0 -2.150131,-0.7637344 -0.719953,-0.75886993 -0.719953,-2.13553777 0,-0.56428783 0.131342,-1.17235673 0.136208,-0.6080688 0.359977,-1.1674921 l 1.182086,0.4524032 q -0.165395,0.4378095 -0.296738,0.9485874 -0.131342,0.51077778 -0.131342,0.94372278 0,0.7296826 0.398893,1.11398211 0.403757,0.38916401 1.225866,0.38916401 0.554559,0 0.861026,-0.21404019 0.311331,-0.20917568 0.432945,-0.60320428 0.126478,-0.38916406 0.126478,-0.92426463 V -6.8201 h 1.308564 v 4.3391792 q 0,0.4718614 0.141072,0.7734635 0.145937,0.3016022 0.608069,0.3016022 H 53.98873 V 0 H 53.847658 Q 53.580108,0 53.395255,-0.05837461 53.215267,-0.12161377 53.054737,-0.23349843 52.96231,0.99723289 52.329918,1.7025927 51.702391,2.4128171 50.359775,2.4128171 Z M 44.804458,0 h -0.875619 v -1.4058551 h 0.880484 q 0.369705,0 0.505913,-0.2286339 0.141072,-0.2334985 0.141072,-0.5886107 0,-0.3307894 -0.0827,-0.7199535 -0.07783,-0.3940286 -0.16053,-0.768599 l 1.274512,-0.3307894 q 0.09243,0.4572678 0.145937,0.909671 0.05837,0.4475386 0.05837,0.8561609 0,0.6469852 -0.175124,1.1626276 -0.175124,0.51564237 -0.588611,0.81724451 Q 45.519547,0 44.804458,0 Z M 44.930936,0.57401698 45.806555,1.4496361 44.930936,2.3203907 44.060182,1.4496361 Z M 41.91978,-6.8201 h 1.313429 v 4.4461993 q 0,0.5156423 0.150801,0.7442762 0.150801,0.2237694 0.622663,0.2237694 h 0.121613 V 0 H 44.006673 Q 42.917013,0 42.415965,-0.56428788 41.91978,-1.1285758 41.91978,-2.2571515 Z m -4.037578,-0.9631811 0.826974,0.8172446 0.817244,-0.8172446 0.831839,0.8269737 -0.831839,0.8367027 -0.817244,-0.8269736 -0.826974,0.8269736 -0.826973,-0.8367027 z m 0.447539,6.377426 q 0.622662,0 0.948587,-0.097291 0.33079,-0.097291 0.335654,-0.4815905 -0.355112,0.068104 -0.754005,0.068104 -0.861026,0 -1.362074,-0.3551122 -0.501049,-0.3599767 -0.501049,-1.1674921 0,-0.3940286 0.126478,-0.7783281 0.131343,-0.3891641 0.369706,-0.7053599 0.243228,-0.3210603 0.578882,-0.5107778 0.340518,-0.194582 0.75887,-0.194582 0.539965,0 0.924264,0.2724148 0.389164,0.2675503 0.632392,0.7199535 0.243227,0.4524032 0.355112,1.0118266 0.116749,0.5545587 0.116749,1.1334403 0,1.0118265 -0.277279,1.55179162 -0.272415,0.53510058 -0.846432,0.7394117 Q 39.166444,0 38.271366,0 h -1.790154 v -1.4058551 z m 0.510778,-1.7025928 q 0.184853,0 0.369706,-0.019458 0.189717,-0.019458 0.369705,-0.058375 -0.03405,-0.2334984 -0.126478,-0.4815905 -0.09243,-0.2529566 -0.248092,-0.4280805 -0.155666,-0.1751238 -0.384299,-0.1751238 -0.301603,0 -0.466997,0.2480921 -0.160531,0.2432275 -0.160531,0.5253715 0,0.2578212 0.189718,0.3259249 0.189717,0.063239 0.457268,0.063239 z M 35.86213,0 Q 35.419456,0 35.132447,-0.17025927 34.937865,0.94858738 34.174131,1.67827 33.415261,2.4079526 32.145613,2.6511801 l -0.481591,-1.298835 q 0.70536,-0.1508011 1.211274,-0.40375772 0.510777,-0.24809208 0.788057,-0.66644344 0.277279,-0.41835136 0.277279,-1.07993025 0,-0.44267409 -0.141072,-0.99236829 -0.141072,-0.5545588 -0.301602,-1.0312848 l 1.308564,-0.4232159 0.282144,1.0993885 q 0.0827,0.3113312 0.243228,0.5253714 0.16053,0.2140403 0.476726,0.2140403 h 0.189717 V 0 Z m -7.656803,-1.4058551 h 0.734547 q 0.535101,0 0.734548,-0.1799884 0.204311,-0.1848529 0.204311,-0.671308 0,-0.2870085 -0.01459,-0.5545588 -0.01459,-0.2724148 -0.03405,-0.530236 l 1.216138,-0.1508011 0.09729,1.3912615 q 0.02432,0.3697059 0.204311,0.5351006 0.179988,0.1605302 0.574017,0.1605302 H 32.024 V 0 H 31.912115 Q 31.42566,0 31.075412,-0.17512382 30.730029,-0.35024765 30.50626,-0.63239159 30.209522,-0.335654 29.8009,-0.16539472 29.397142,0 28.939874,0 H 28.205327 Z M 28.331806,0.62266248 29.158779,1.439907 29.976024,0.62266248 30.807862,1.4496361 29.976024,2.2863388 29.158779,1.4593652 28.331806,2.2863388 27.504832,1.4496361 Z m -2.612264,-7.72004188 0.875619,0.8756191 -0.875619,0.8707546 -0.870754,-0.8707546 z m -1.765832,5.6915243 q -0.136207,-0.2432276 -0.21404,-0.5788816 -0.07783,-0.3405185 -0.07783,-0.6129334 0,-0.5788815 0.287009,-1.0653365 0.287008,-0.4913197 0.773463,-0.7831927 0.49132,-0.2967376 1.084795,-0.2967376 0.549694,0 1.002097,0.1994466 0.452404,0.194582 0.924265,0.5156424 l -0.505913,1.157763 q -0.316196,-0.1897175 -0.632392,-0.3259249 -0.316196,-0.1362074 -0.695631,-0.1362074 -0.223769,0 -0.452403,0.092427 -0.228634,0.092426 -0.379435,0.2675502 -0.150801,0.1702593 -0.150801,0.4134869 0,0.2043111 0.09243,0.3988931 0.09729,0.1897175 0.228634,0.335654 0.131342,0.141072 0.233498,0.2043111 0.01946,0.00486 0.07783,-0.014594 l 2.369036,-0.5642879 v 1.41071969 Q 26.692452,-0.41835136 25.568741,-0.20917568 24.449894,0 23.389422,0 H 22.898103 V -1.4058551 Z M 22.031512,2.6560447 21.535328,1.3523451 q 0.70536,-0.1508011 1.211273,-0.40375772 0.510778,-0.24809208 0.788057,-0.66644344 0.27728,-0.41835136 0.27728,-1.07993025 0,-0.44267409 -0.141072,-0.99236829 -0.141072,-0.5545588 -0.301602,-1.0312848 l 1.313428,-0.4232159 q 0.189718,0.530236 0.287009,1.1431694 0.102155,0.6129334 0.102155,1.17722127 0,1.02155564 -0.379435,1.75123824 -0.37457,0.73454719 -1.060472,1.18695039 -0.681037,0.4572677 -1.600437,0.6421207 z m -2.505243,-6.6790281 q 0.612934,0 1.041014,0.3648413 0.42808,0.3648413 0.671308,0.963181 0.243228,0.5934752 0.291873,1.289106 h 0.364841 V 0 h -0.462132 q -0.277279,1.1091176 -1.089659,1.7415091 -0.81238,0.6372562 -2.218235,0.909671 L 17.643688,1.3523451 Q 18.256621,1.2355959 18.777128,1.0410138 19.3025,0.84643182 19.662477,0.58374608 20.027318,0.32106034 20.148932,0 h -0.457268 q -0.982639,0 -1.498282,-0.40862226 -0.515642,-0.4134868 -0.515642,-1.33288684 0,-0.3599768 0.111885,-0.7540054 0.111884,-0.3988931 0.340518,-0.7442762 0.228634,-0.3502477 0.574017,-0.5642879 0.350248,-0.2189048 0.822109,-0.2189048 z m 0.16053,2.6171283 h 0.622663 Q 20.280274,-1.67827 20.192713,-1.9652785 20.110015,-2.252287 19.944621,-2.446869 19.78409,-2.641451 19.51654,-2.641451 q -0.228634,0 -0.364841,0.1459365 -0.131343,0.141072 -0.189718,0.3405186 -0.05351,0.194582 -0.05351,0.3599767 0,0.2578212 0.21404,0.3259249 0.218905,0.063239 0.564288,0.063239 z m -5.963939,0 h 0.569153 q 0.5351,0 0.734547,-0.1799884 0.204311,-0.1848529 0.204311,-0.671308 0,-0.2870085 -0.01459,-0.5545588 -0.01459,-0.2724148 -0.03405,-0.530236 l 1.216137,-0.1508011 0.09729,1.3912615 q 0.02432,0.3697059 0.204311,0.5351006 0.179989,0.1605302 0.574017,0.1605302 h 0.102156 V 0 H 17.264253 Q 16.777798,0 16.427551,-0.17512382 16.082168,-0.35024765 15.858398,-0.63239159 15.561661,-0.335654 15.153038,-0.16539472 14.749281,0 14.292013,0 H 13.72286 Z M 14.724958,0.57401698 15.600577,1.4496361 14.724958,2.3203907 13.854203,1.4496361 Z M 9.4663779,-1.4058551 q -0.1362074,-0.2432276 -0.2140402,-0.5788816 -0.077833,-0.3405185 -0.077833,-0.6129334 0,-0.5788815 0.2870085,-1.0653365 0.2870085,-0.4913197 0.7734637,-0.7831927 0.49132,-0.2967376 1.084795,-0.2967376 0.549694,0 1.002097,0.1994466 0.452403,0.194582 0.924265,0.5156424 l -0.505914,1.157763 q -0.316195,-0.1897175 -0.632391,-0.3259249 -0.316196,-0.1362074 -0.695631,-0.1362074 -0.223769,0 -0.452403,0.092427 -0.228634,0.092426 -0.379435,0.2675502 -0.150801,0.1702593 -0.150801,0.4134869 0,0.2043111 0.09243,0.3988931 0.09729,0.1897175 0.228634,0.335654 0.131343,0.141072 0.233499,0.2043111 0.01946,0.00486 0.07783,-0.014594 l 2.369036,-0.5642879 v 1.41071969 Q 12.20512,-0.41835136 11.081409,-0.20917568 9.9625621,0 8.90209,0 H 8.4107704 v -1.4058551 z"
       id="text5"
       transform="matrix(1.3333333,0,0,1.3333333,157.91067,34.934667)"
       aria-label="فﺎﮑﺷﻞﺑﺎﻗﺮﯿﻏرﻮﺒﻋ" />
    <g
       id="text6"
       transform="matrix(1.3333333,0,0,1.3333333,115.80667,302.36667)"
       aria-label="رﺎﺘﺸﮐهﺎﻣ یدﻦﯾافﺎﮑﺷارﻪﺑیا ﻪﻄﻘﻧﺪﻧﺎﺳرﻪﮐﺖﺸﮔزﺎﺑﻪﺑ«ﯽﺘﺴﯾﺰﻤﻫ»ًﺎﺒﯾﺮﻘﺗﻦﮑﻤﻣﺮﯿﻏﺖﺳا">
      <path
         style="font-size:8.9664px;font-family:Vazirmatn"
         d="m 158.2797,2.3554313 -0.25831,-0.6961219 q 1.06826,-0.2320406 1.50608,-0.81433126 0.43781,-0.57791251 0.43781,-1.37035315 0,-0.37214063 -0.0832,-0.77930629 -0.0788,-0.4115437 -0.22328,-0.8362219 l 0.72677,-0.245175 q 0.31522,0.8975157 0.31522,1.72935944 0,0.73114689 -0.25831,1.35284065 -0.25393,0.62607191 -0.79244,1.05950631 -0.53413,0.4378125 -1.37035,0.5998031 z m -1.8826,-8.3841095 h 0.73991 v 4.1854875 q 0,0.6173157 0.22766,0.8318438 0.22766,0.21452814 0.68736,0.21452814 h 0.10946 V 0 h -0.10946 q -0.83622,0 -1.24776,-0.44219063 -0.40717,-0.44656876 -0.40717,-1.40537817 z m -2.04459,1.2915469 0.61294,0.6085594 -0.61294,0.6173156 -0.60855,-0.6173156 z m -1.45353,0 0.61293,0.6085594 -0.61293,0.6173156 -0.60856,-0.6173156 z m -0.47284,3.94031254 h 0.61294 q 0.55602,0 0.79244,-0.24955314 0.24079,-0.2495531 0.24079,-0.7661719 0,-0.21015 -0.0131,-0.3984094 -0.009,-0.1882593 -0.0263,-0.3765187 l 0.73115,-0.087562 0.0701,1.0244812 q 0.0525,0.85373444 0.88876,0.85373444 h 0.0919 V 0 h -0.1007 q -0.48597,0 -0.7793,-0.175125 -0.28896,-0.17512501 -0.46846,-0.49472814 -0.23642,0.34587188 -0.6217,0.50786251 Q 153.45938,0 153.03908,0 h -0.61294 z m -3.58131,-4.96041574 0.59105,0.5910469 -0.59105,0.5910469 -0.59104,-0.5910469 z m 0.74866,1.1076657 0.59105,0.5910469 -0.59105,0.5910468 -0.59104,-0.5910468 z m -1.49732,0 0.59105,0.5910469 -0.59105,0.5910468 -0.59104,-0.5910468 z M 150.20205,0 q -0.4203,0 -0.67861,-0.175125 -0.25831,-0.17512501 -0.4203,-0.49472814 -0.24517,0.35462813 -0.54726,0.51224064 Q 148.25816,0 147.90791,0 q -0.50348,0 -0.7793,-0.17074688 -0.27145,-0.175125 -0.43344,-0.49910626 -0.20577,0.32398126 -0.52537,0.49910626 Q 145.8502,0 145.25915,0 h -0.40279 v -0.79681876 h 0.41155 q 0.5604,0 0.8187,-0.20577184 0.25831,-0.21015 0.25831,-0.7617938 0,-0.1138313 -0.0131,-0.2670656 -0.009,-0.1576125 -0.0307,-0.4378125 l 0.73115,-0.091941 0.0701,0.9150282 q 0.0263,0.3677625 0.22328,0.6085594 0.2014,0.24079684 0.59105,0.24079684 0.46408,0 0.63045,-0.24955314 0.16637,-0.2495531 0.16637,-0.7180125 0,-0.1138313 -0.0131,-0.2714438 -0.009,-0.1576125 -0.0306,-0.4334343 l 0.73115,-0.091941 0.0701,0.9150282 q 0.0219,0.3546281 0.18825,0.6041812 0.16637,0.24517504 0.53851,0.24517504 0.64797,0 0.64797,-0.96756564 0,-0.1576125 -0.0131,-0.3283594 -0.009,-0.1707469 -0.0306,-0.4509469 l 0.73114,-0.087563 0.0701,0.9850782 q 0.0525,0.84935624 0.86687,0.84935624 h 0.13134 V 0 h -0.12258 q -0.45971,0 -0.76617,-0.16636875 -0.30647,-0.17074688 -0.4203,-0.50786251 -0.18389,0.32398125 -0.42468,0.49910626 Q 150.63111,0 150.20205,0 Z m -8.27466,-4.2467813 q 0.3809,0.2670656 0.79244,0.5647781 0.41154,0.2933344 0.76617,0.63045 0.35901,0.3327375 0.57792,0.7136344 0.22328,0.3765188 0.22328,0.805575 -0.004,0.81433129 -0.56478,1.17333754 Q 143.1664,0 141.9449,0 h -1.06826 v -0.79681876 h 1.06388 q 0.84936,0 1.21712,-0.14885626 0.36777,-0.15323438 0.36777,-0.60418128 0,-0.2889562 -0.20578,-0.5647781 -0.20139,-0.2758219 -0.52537,-0.5428875 -0.3196,-0.2714438 -0.68737,-0.5297532 -0.36776,-0.2626875 -0.69174,-0.5166187 -0.1401,-0.1138313 -0.21453,-0.2670656 -0.0744,-0.1532344 -0.0744,-0.3064688 0,-0.1795031 0.0963,-0.3371156 0.1007,-0.1619907 0.31085,-0.245175 l 3.14787,-1.2784126 v 0.7749282 z m -0.32939,1.0069687 -0.17075,-0.1532343 0.46408,-0.5998032 q 0.57791,0.4772157 1.01573,0.8931375 0.44219,0.4115438 0.69174,0.8099532 0.24955,0.3940312 0.24955,0.8187094 0,0.66547499 -0.45532,1.05950624 -0.45533,0.39403126 -1.19961,0.39403126 -0.76179,0 -1.20836,-0.37214063 -0.44657,-0.37651876 -0.44657,-0.95443127 0,-0.5078625 0.27144,-0.945675 0.27145,-0.4421906 0.78807,-0.9500532 z m 1.50607,1.7337376 q 0,-0.2013938 -0.14885,-0.4115438 -0.14448,-0.2145281 -0.36777,-0.4246781 -0.2189,-0.2145281 -0.44657,-0.4115438 -0.40278,0.385275 -0.63045,0.6917438 -0.22766,0.3020906 -0.22766,0.6348281 0,0.2539313 0.21453,0.44219066 0.21453,0.18825938 0.69174,0.18825938 0.4816,0 0.69613,-0.17512501 0.2189,-0.17512503 0.2189,-0.53413123 z m -4.67586,-4.5226032 h 0.73991 v 4.1854875 q 0,0.6173157 0.22766,0.8318438 0.22766,0.21452814 0.68737,0.21452814 h 0.10945 V 0 h -0.10945 q -0.83623,0 -1.24777,-0.44219063 -0.40717,-0.44656876 -0.40717,-1.40537817 z m -2.48238,6.12937508 q -0.43781,0 -0.80995,-0.18825938 -0.36776,-0.1926375 -0.76617,-0.57791251 -0.28458,0.31960313 -0.54727,0.49472813 Q 133.55975,0 133.08254,0 h -0.19264 v -0.79681876 h 0.17075 q 0.29333,0 0.49473,-0.16636876 0.20139,-0.17074688 0.359,-0.43781248 0.15761,-0.2670657 0.31085,-0.5647782 0.15761,-0.3020906 0.35025,-0.5691562 0.19264,-0.2670656 0.46408,-0.4334344 0.27582,-0.1707469 0.67861,-0.1707469 0.48597,0 0.84498,0.2364188 0.36338,0.2320406 0.5604,0.6260719 0.20139,0.3940312 0.20139,0.8800031 0,0.71363439 -0.36338,1.10766565 -0.35901,0.38965313 -1.01573,0.38965313 z m -0.21015,-2.46488438 q -0.2189,0 -0.39841,0.1488562 -0.1795,0.1444781 -0.32398,0.3765188 -0.14448,0.2320406 -0.25831,0.4815937 0.26269,0.2758219 0.54289,0.45094691 0.35901,0.23204063 0.63921,0.23204063 0.64796,0 0.64796,-0.65234064 0,-0.455325 -0.22766,-0.7442813 -0.22329,-0.2933343 -0.6217,-0.2933343 z m -10.45875,1.56736874 h 0.95005 q 0.43781,0 0.59105,-0.25393124 0.15761,-0.2539313 0.15761,-0.6435844 0,-0.2845781 -0.0525,-0.6085594 -0.0525,-0.3239812 -0.11383,-0.6523406 l 0.76179,-0.1926375 q 0.0744,0.35025 0.11821,0.6873656 0.0438,0.3371156 0.0438,0.6435844 0,0.525375 -0.14447,0.93691876 -0.14448,0.41154376 -0.47284,0.64796251 Q 126.78738,0 126.23574,0 h -0.95881 z m 1.5805,1.49294065 0.61294,0.60855941 -0.61294,0.6173156 -0.60856,-0.6173156 z m -1.45354,0 0.61294,0.60855941 -0.61294,0.6173156 -0.60856,-0.6173156 z m -1.84318,-2.28975939 q 0,-0.1138313 -0.0525,-0.2933344 -0.0482,-0.1838813 -0.11821,-0.3414938 l -0.77492,-1.7556281 0.68298,-0.3196031 0.99384,2.3379187 q 0.20139,0.4728376 0.35025,0.7267688 0.15323,0.25393126 0.29771,0.35025001 0.14886,0.0919406 0.33712,0.0919406 h 0.18388 V 0 h -0.18388 q -0.34588,0 -0.56478,-0.08318438 -0.21453,-0.08318437 -0.37214,-0.24955313 -0.15762,-0.16636875 -0.31961,-0.4203 -0.30646,0.385275 -0.78368,0.56915626 -0.47284,0.17950312 -1.18209,0.17950312 -0.30647,0 -0.55165,-0.02626875 -0.24517,-0.03064687 -0.46408,-0.08318437 v -0.79244064 q 0.50349,0.11820938 0.95005,0.11820938 1.57175,0 1.57175,-0.80557499 z m -3.13579,-1.7906532 0.63483,0.6348282 -0.63483,0.6348281 -0.63483,-0.6348281 z m 0.0482,4.8509626 q 0.73115,0 1.12956,-0.2407969 0.40278,-0.23641873 0.5604,-0.62607187 0.16199,-0.385275 0.16199,-0.82746563 0,-0.52099689 -0.1401,-1.0288594 -0.1401,-0.5078625 -0.26269,-0.8318438 l 0.74866,-0.3020906 0.32398,1.0244813 q 0.0876,0.2802 0.28458,0.42467811 0.20139,0.14447813 0.5604,0.14447813 h 0.17074 V 0 h -0.15323 q -0.30647,0 -0.46846,-0.05691563 -0.15761,-0.05691562 -0.29771,-0.1926375 -0.004,0.73114689 -0.2802,1.29592503 -0.27582,0.5691563 -0.85374,0.8887594 -0.57353,0.3196031 -1.48418,0.3196031 -0.94568,0 -1.51483,-0.3458719 -0.56478,-0.3458718 -0.81871,-0.92378436 -0.24956,-0.57353438 -0.24956,-1.26090002 0,-0.46408126 0.0963,-0.95005312 0.0963,-0.49035 0.26269,-0.9544313 l 0.69612,0.2802 q -0.12696,0.4027875 -0.21453,0.8274657 -0.0876,0.42467809 -0.0876,0.82308747 0,0.47283751 0.16637,0.86249064 0.17075,0.38965309 0.56916,0.62169379 0.39841,0.2320406 1.09453,0.2320406 z m -5.90609,-2.26349066 h 0.95005 q 0.43781,0 0.59105,-0.25393124 0.15761,-0.2539313 0.15761,-0.6435844 0,-0.2845781 -0.0525,-0.6085594 -0.0525,-0.3239812 -0.11383,-0.6523406 l 0.7618,-0.1926375 q 0.0744,0.35025 0.11821,0.6873656 0.0438,0.3371156 0.0438,0.6435844 0,0.525375 -0.14448,0.93691876 -0.14448,0.41154376 -0.47284,0.64796251 Q 116.07744,0 115.5258,0 h -0.95881 z m 1.5805,1.49294065 0.61294,0.60855941 -0.61294,0.6173156 -0.60856,-0.6173156 z m -1.45354,0 0.61294,0.60855941 -0.61294,0.6173156 -0.60856,-0.6173156 z m -0.7005,-6.72480009 v 6.02430007 h -0.7399 V -6.0286782 Z m -0.25935,-0.595425 0.63482,0.6348281 -0.63482,0.6348281 -0.63483,-0.6348281 z m 1.03323,4.9166344 q -0.21452,0.065672 -0.43781,0.1006969 -0.2189,0.035025 -0.47284,0.035025 -1.48856,0 -1.48856,-1.225875 0,-0.3108469 0.0963,-0.63045 0.0963,-0.3239813 0.2802,-0.5910469 0.18826,-0.2714438 0.4597,-0.4334344 0.27145,-0.1663688 0.62608,-0.1663688 0.42905,0 0.73552,0.2189063 0.31085,0.2189063 0.50786,0.5910469 0.2014,0.3677625 0.29772,0.8362219 0.0963,0.4640812 0.0963,0.9588094 0,0.6523406 -0.11383,1.05512811 -0.10945,0.39840938 -0.359,0.60855938 -0.24956,0.20577188 -0.6611,0.28020001 Q 113.92236,0 113.32255,0 h -1.44916 q -1.67682,0 -2.49553,-0.44656876 -0.81433,-0.44656875 -0.81433,-1.54547814 0,-0.3020906 0.0657,-0.5910469 0.0701,-0.2889562 0.17951,-0.5560219 l 0.67861,0.2539313 q -0.07,0.1926375 -0.11821,0.4115437 -0.0438,0.2189063 -0.0438,0.4159219 0,0.5122406 0.29334,0.7880625 0.29333,0.27144378 0.86249,0.37214066 0.56916,0.10069688 1.39224,0.10069688 h 1.5017 q 0.51662,0 0.81871,-0.0569156 0.30647,-0.0569156 0.43781,-0.24955311 0.13572,-0.1970156 0.13572,-0.6041813 z m -0.85373,-0.6173156 q 0.20577,0 0.40279,-0.035025 0.19701,-0.039403 0.40278,-0.096319 -0.035,-0.3108468 -0.13134,-0.63045 -0.0919,-0.3196031 -0.27582,-0.5341312 -0.18388,-0.2189063 -0.49035,-0.2189063 -0.27144,0 -0.43781,0.1707469 -0.16199,0.1707469 -0.23642,0.4071656 -0.07,0.2364188 -0.07,0.4378125 0,0.2977125 0.21453,0.3984094 0.2189,0.1006969 0.62169,0.1006969 z m -7.46032,-3.7038938 h 0.7399 v 4.1854875 q 0,0.6173157 0.22766,0.8318438 0.22767,0.21452814 0.68737,0.21452814 h 0.10945 V 0 h -0.10945 q -0.83622,0 -1.24777,-0.44219063 -0.40716,-0.44656876 -0.40716,-1.40537817 z m -4.2862,1.7818969 q 0.49911,0.35025 0.95443,0.6961219 0.45971,0.3414937 0.82747,0.7442812 0.36776,0.3984094 0.58229,0.9281625 0.23204,0.5647782 0.49035,0.8230876 0.25831,0.25830934 0.72677,0.25830934 h 0.12259 V 0 h -0.12259 q -0.48597,0 -0.82747,-0.18825938 -0.33711,-0.18825938 -0.60418,-0.59980313 -0.17512,0.25830938 -0.42905,0.43343438 -0.24956,0.175125 -0.65672,0.26706563 Q 102.82818,0 102.1846,0 h -1.06827 v -0.79681876 h 1.06389 q 0.84935,0 1.21712,-0.14885626 0.36776,-0.15323438 0.36776,-0.60418128 0,-0.2889562 -0.20577,-0.5647781 -0.2014,-0.2758219 -0.52538,-0.5428875 -0.3196,-0.2714438 -0.68736,-0.5297532 -0.36777,-0.2626875 -0.69175,-0.5166187 -0.1401,-0.1138313 -0.21453,-0.2670656 -0.0744,-0.1532344 -0.0744,-0.3108469 0,-0.1795031 0.0963,-0.3371157 0.1007,-0.1576125 0.31085,-0.2407968 l 3.14787,-1.2784126 v 0.7749282 z m -4.132946,-1.5104532 0.591047,0.5910469 -0.591047,0.5910469 -0.591047,-0.5910469 z m 0.748659,1.1076657 0.591047,0.5910469 -0.591047,0.5910468 -0.591047,-0.5910468 z m -1.497318,0 0.591046,0.5910469 -0.591046,0.5910468 -0.591047,-0.5910468 z M 97.097215,0 Q 96.593731,0 96.317909,-0.17074688 96.046465,-0.34587188 95.884475,-0.66985314 95.678703,-0.34587188 95.3591,-0.17074688 95.039496,0 94.448449,0 h -0.402787 v -0.79681876 h 0.411544 q 0.5604,0 0.818709,-0.20577184 0.25831,-0.21015 0.25831,-0.7617938 0,-0.1138313 -0.01314,-0.2670656 -0.0088,-0.1576125 -0.03065,-0.4378125 l 0.731147,-0.091941 0.07005,0.9150282 q 0.02627,0.3677625 0.223285,0.6085594 0.201393,0.24079684 0.591046,0.24079684 0.464082,0 0.63045,-0.24955314 0.166369,-0.2495531 0.166369,-0.7180125 0,-0.1138313 -0.01313,-0.2714438 -0.0088,-0.1576125 -0.03065,-0.4334343 l 0.731147,-0.091941 0.07005,0.9150282 q 0.02189,0.3546281 0.188259,0.6041812 0.166369,0.24517504 0.53851,0.24517504 0.363384,0 0.499106,-0.27144374 0.135719,-0.2714438 0.135719,-0.6348282 0,-0.3283593 -0.06567,-0.6610968 -0.06129,-0.3327375 -0.109453,-0.5385094 l 0.748662,-0.2013938 q 0.0788,0.2933344 0.12696,0.6260719 0.0482,0.3283594 0.0482,0.6567188 0,0.4728375 -0.13134,0.88875936 -0.13135,0.41592188 -0.43344,0.67423126 Q 99.907971,-0.00437813 99.391353,0 q -0.4203,0 -0.67861,-0.175125 -0.258309,-0.17512501 -0.4203,-0.49472814 -0.245175,0.35462813 -0.547265,0.51224064 Q 97.447465,0 97.097215,0 Z m -0.316273,-6.0286782 v 6.02430007 H 96.041038 V -6.0286782 Z m -4.8738,8.3841095 -0.258309,-0.6961219 q 1.068262,-0.2320406 1.506075,-0.81433126 0.437812,-0.57791251 0.437812,-1.37035315 0,-0.37214063 -0.08318,-0.77930629 -0.07881,-0.4115437 -0.223284,-0.8362219 l 0.726768,-0.245175 q 0.315225,0.8975157 0.315225,1.72935944 0,0.73114689 -0.258309,1.35284065 Q 93.816005,1.3221938 93.277495,1.7556282 92.743364,2.1934407 91.907142,2.3554313 Z M 94.944302,0 q -0.643584,0 -1.002591,-0.30209063 -0.354628,-0.30209063 -0.459703,-0.83184377 -0.253931,0.25393126 -0.551644,0.38965314 -0.293334,0.13572188 -0.661097,0.13572188 -0.626071,0 -1.05075,-0.33711564 -0.424678,-0.33711558 -0.424678,-0.93254068 0,-0.6742312 0.551644,-1.1645812 0.551644,-0.4947282 1.733738,-0.8581125 l -0.03065,-0.21015 0.7005,-0.1401 0.380897,2.6881687 q 0.05254,0.3852751 0.249553,0.57791256 0.201394,0.18825938 0.58229,0.18825938 h 0.135722 V 0 Z m -1.637419,-2.2021969 q 0,-0.1357219 -0.01751,-0.2583094 l -0.109453,-0.7311469 q -0.849357,0.3064688 -1.23901,0.6041813 -0.385275,0.2977125 -0.385275,0.6523406 0,0.2889563 0.197016,0.4378125 0.197015,0.1488563 0.534131,0.1488563 0.258309,0 0.49035,-0.1006969 0.236419,-0.1006969 0.380897,-0.2933344 0.148856,-0.1926375 0.148856,-0.4597031 z M 88.429653,0 h -0.805575 v -0.79681876 h 0.796819 q 0.437812,0 0.591047,-0.25393124 0.157612,-0.2539313 0.157612,-0.6435844 0,-0.2845781 -0.05254,-0.6085594 -0.05254,-0.3239812 -0.113832,-0.6523406 l 0.761794,-0.1926375 q 0.07443,0.35025 0.11821,0.6873656 0.04378,0.3371156 0.04378,0.6435844 0,0.525375 -0.144478,0.93691876 -0.144478,0.41154376 -0.472838,0.64796251 Q 88.981297,0 88.429653,0 Z M 88.525972,0.66985314 89.1608,1.3046813 88.525972,1.9395094 87.891144,1.3046813 Z m -0.372985,-1.4666719 h 0.950053 q 0.437813,0 0.591047,-0.25393124 0.157613,-0.2539313 0.157613,-0.6435844 0,-0.2845781 -0.05254,-0.6085594 -0.05254,-0.3239812 -0.113831,-0.6523406 l 0.761794,-0.1926375 q 0.07443,0.35025 0.118209,0.6873656 0.04378,0.3371156 0.04378,0.6435844 0,0.525375 -0.144478,0.93691876 Q 90.320159,-0.46845938 89.9918,-0.23204063 89.66344,0 89.111796,0 H 88.152987 Z M 89.73349,0.69612189 90.346428,1.3046813 89.73349,1.9219969 89.124931,1.3046813 Z m -1.453537,0 0.612937,0.60855941 -0.612937,0.6173156 -0.60856,-0.6173156 z M 86.572487,-6.0286782 h 0.739903 v 4.1854875 q 0,0.6173157 0.227662,0.8318438 0.227663,0.21452814 0.687366,0.21452814 h 0.109453 V 0 H 88.227418 Q 87.391196,0 86.979652,-0.44219063 86.572487,-0.88875939 86.572487,-1.8475688 Z M 81.025997,0 q -0.643584,0 -1.00259,-0.30209063 -0.354628,-0.30209063 -0.459703,-0.83184377 -0.253932,0.25393126 -0.551644,0.38965314 -0.293334,0.13572188 -0.661097,0.13572188 -0.626072,0 -1.05075,-0.33711564 -0.424678,-0.33711558 -0.424678,-0.93254068 0,-0.6742312 0.551644,-1.1645812 0.551643,-0.4947282 1.733737,-0.8581125 l -0.03065,-0.21015 0.7005,-0.1401 0.380897,2.6881687 q 0.05254,0.3852751 0.249553,0.57791256 0.201394,0.18825938 0.582291,0.18825938 h 0.135722 V 0 Z m -1.637418,-2.2021969 q 0,-0.1357219 -0.01751,-0.2583094 l -0.109453,-0.7311469 q -0.849356,0.3064688 -1.239009,0.6041813 -0.385275,0.2977125 -0.385275,0.6523406 0,0.2889563 0.197015,0.4378125 0.197016,0.1488563 0.534132,0.1488563 0.258309,0 0.49035,-0.1006969 0.236418,-0.1006969 0.380896,-0.2933344 0.148857,-0.1926375 0.148857,-0.4597031 z m -5.284396,-1.3265719 q 0.494728,0 0.875625,0.2189062 0.385275,0.2145282 0.604181,0.5866688 0.218906,0.3721406 0.218906,0.8406 -0.0044,0.5604 -0.341493,1.00259066 0.122587,0.0306469 0.328359,0.0569156 0.21015,0.0262688 0.608559,0.0262688 h 0.131344 V 0 H 76.402699 Q 75.846677,0 75.483292,-0.11383125 75.124286,-0.2276625 74.879111,-0.42905626 74.520105,-0.2276625 73.933436,-0.11383125 73.346767,0 72.571839,0 H 70.30397 v -0.79681876 h 0.744282 q 0.08318,-0.14010001 0.175125,-0.27582184 0.09194,-0.1401 0.175125,-0.2758219 v -4.6802157 h 0.739903 v 3.6382219 q 0.472837,-0.5691562 0.950053,-0.8537344 0.481594,-0.2845781 1.015725,-0.2845781 z m 0.01751,0.7968188 q -1.05075,0 -2.276625,1.93513124 h 0.709257 q 1.247765,0 1.860703,-0.24955314 0.612937,-0.2495531 0.612937,-0.7924406 0,-0.385275 -0.249553,-0.6392063 Q 74.528861,-2.73195 74.121695,-2.73195 Z m -5.11803,-2.8107563 0.612938,0.6085593 -0.612938,0.6173157 -0.608559,-0.6173157 z m -1.453537,0 0.612937,0.6085593 -0.612937,0.6173157 -0.60856,-0.6173157 z m 2.294137,3.4806094 q 0,0.3458719 -0.153234,0.6435844 -0.153234,0.2933344 -0.4203,0.60418124 0.249553,0.0131344 0.442191,0.0175125 0.192637,0 0.341493,0 h 0.424679 V 0 H 70.06755 Q 69.901181,0 69.607847,-0.02626875 69.31889,-0.05691563 68.96864,-0.12696563 68.622768,-0.19701563 68.285653,-0.31522501 67.948537,-0.1926375 67.593909,-0.1225875 67.239281,-0.05691563 66.93719,-0.02626875 66.6351,0 66.455597,0 h -0.612938 v -0.79681876 h 0.612938 q 0.183881,0 0.380896,0 0.201394,-0.004378 0.485972,-0.0218906 -0.262687,-0.30646871 -0.411543,-0.60855941 -0.148857,-0.3020906 -0.148857,-0.6435844 0,-0.2714437 0.126966,-0.5472656 0.126966,-0.2758219 0.341494,-0.5122406 0.214528,-0.2364188 0.49035,-0.3765188 0.275822,-0.1444781 0.569156,-0.1444781 0.306469,0 0.586669,0.1444781 0.2802,0.1401 0.494728,0.3765188 0.218906,0.2320406 0.345872,0.5122406 0.126965,0.2802 0.126965,0.5560219 z m -1.554234,-0.8143313 q -0.166369,0 -0.35025,0.1269657 -0.179503,0.1225875 -0.306469,0.3108468 -0.122587,0.1882594 -0.122587,0.385275 0,0.2013938 0.118209,0.4115438 0.118209,0.21015 0.297713,0.385275 0.183881,0.175125 0.37214,0.27144376 0.332738,-0.14009996 0.564778,-0.45094686 0.236419,-0.315225 0.236419,-0.6260719 0,-0.1838813 -0.131344,-0.3721406 -0.126965,-0.1882594 -0.315225,-0.315225 -0.188259,-0.1269657 -0.363384,-0.1269657 z M 63.99947,0 h -0.713635 v -0.79681876 h 0.704878 q 0.437813,0 0.591047,-0.25393124 0.157613,-0.2539313 0.157613,-0.6435844 0,-0.2845781 -0.05254,-0.6085594 -0.05254,-0.3239812 -0.113831,-0.6523406 l 0.761794,-0.1926375 q 0.07443,0.35025 0.118209,0.6873656 0.04378,0.3371156 0.04378,0.6435844 0,0.525375 -0.144478,0.93691876 -0.144478,0.41154376 -0.472837,0.64796251 Q 64.551113,0 63.99947,0 Z m 0.534131,-5.1661876 0.634828,0.6348282 -0.634828,0.6348281 -0.634828,-0.6348281 z m 0.335856,3.5725501 q 0,-0.1138313 -0.05254,-0.2933344 -0.04816,-0.1838813 -0.11821,-0.3414938 l -0.774928,-1.7556281 0.682988,-0.3196031 0.993834,2.3379187 q 0.201394,0.4728376 0.35025,0.7267688 0.153234,0.25393126 0.297713,0.35025001 0.148856,0.0919406 0.337115,0.0919406 h 0.183881 V 0 h -0.183881 q -0.345872,0 -0.564778,-0.08318438 -0.214528,-0.08318437 -0.372141,-0.24955313 -0.157612,-0.16636875 -0.319603,-0.4203 -0.306468,0.385275 -0.783684,0.56915626 -0.472838,0.17950312 -1.182094,0.17950312 -0.306469,0 -0.551644,-0.02626875 -0.245175,-0.03064687 -0.464081,-0.08318437 v -0.79244064 q 0.503484,0.11820938 0.950053,0.11820938 1.571747,0 1.571747,-0.80557499 z M 59.983467,0 h -0.713634 v -0.79681876 h 0.704878 q 0.437812,0 0.591047,-0.25393124 0.157612,-0.2539313 0.157612,-0.6435844 0,-0.2845781 -0.05254,-0.6085594 -0.05254,-0.3239812 -0.113832,-0.6523406 l 0.761794,-0.1926375 q 0.07443,0.35025 0.11821,0.6873656 0.04378,0.3371156 0.04378,0.6435844 0,0.525375 -0.144478,0.93691876 Q 61.19183,-0.46845938 60.86347,-0.23204063 60.535111,0 59.983467,0 Z m 0.534131,-5.1661876 0.634828,0.6348282 -0.634828,0.6348281 -0.634828,-0.6348281 z m -2.837026,-0.8624906 h 0.739904 v 4.1854875 q 0,0.6173157 0.227662,0.8318438 0.227663,0.21452814 0.687366,0.21452814 h 0.109453 V 0 H 59.335504 Q 58.499282,0 58.087738,-0.44219063 57.680572,-0.88875939 57.680572,-1.8475688 Z M 52.904039,0 q -0.503484,0 -0.779306,-0.17074688 -0.271444,-0.175125 -0.433435,-0.49910626 -0.205772,0.32398126 -0.525375,0.49910626 Q 50.84632,0 50.255273,0 h -0.402787 v -0.79681876 h 0.411543 q 0.5604,0 0.81871,-0.20577184 0.258309,-0.21015 0.258309,-0.7617938 0,-0.1138313 -0.01313,-0.2670656 -0.0088,-0.1576125 -0.03065,-0.4378125 l 0.731147,-0.091941 0.07005,0.9150282 q 0.02627,0.3677625 0.223284,0.6085594 0.201394,0.24079684 0.591047,0.24079684 0.464081,0 0.63045,-0.24955314 0.166369,-0.2495531 0.166369,-0.7180125 0,-0.1138313 -0.01313,-0.2714438 -0.0088,-0.1576125 -0.03065,-0.4334343 l 0.731147,-0.091941 0.07005,0.9150282 q 0.02189,0.3546281 0.188259,0.6041812 0.166369,0.24517504 0.538509,0.24517504 0.363385,0 0.499107,-0.27144374 0.135721,-0.2714438 0.135721,-0.6348282 0,-0.3283593 -0.06567,-0.6610968 -0.06129,-0.3327375 -0.109454,-0.5385094 l 0.74866,-0.2013938 q 0.07881,0.2933344 0.126965,0.6260719 0.04816,0.3283594 0.04816,0.6567188 0,0.4728375 -0.131344,0.88875936 -0.131344,0.41592188 -0.433434,0.67423126 Q 55.714795,-0.00437813 55.198176,0 q -0.4203,0 -0.678609,-0.175125 -0.258309,-0.17512501 -0.4203,-0.49472814 -0.245175,0.35462813 -0.547266,0.51224064 Q 53.254289,0 52.904039,0 Z m -6.517698,2.3554313 -0.25831,-0.6961219 q 1.068263,-0.2320406 1.506075,-0.81433126 0.437813,-0.57791251 0.437813,-1.37035315 0,-0.37214063 -0.08319,-0.77930629 -0.07881,-0.4115437 -0.223284,-0.8362219 l 0.726769,-0.245175 q 0.315225,0.8975157 0.315225,1.72935944 0,0.73114689 -0.25831,1.35284065 -0.253931,0.62607191 -0.79244,1.05950631 -0.534132,0.4378125 -1.370353,0.5998031 z M 49.432465,0 q -0.643584,0 -1.002591,-0.30209063 -0.354628,-0.30209063 -0.459703,-0.83184377 -0.253931,0.25393126 -0.551644,0.38965314 -0.293334,0.13572188 -0.661097,0.13572188 -0.626071,0 -1.05075,-0.33711564 -0.424678,-0.33711558 -0.424678,-0.93254068 0,-0.6742312 0.551644,-1.1645812 0.551644,-0.4947282 1.733738,-0.8581125 l -0.03065,-0.21015 0.7005,-0.1401 0.380897,2.6881687 q 0.05254,0.3852751 0.249553,0.57791256 0.201394,0.18825938 0.58229,0.18825938 h 0.135722 V 0 Z m -1.637419,-2.2021969 q 0,-0.1357219 -0.01751,-0.2583094 l -0.109453,-0.7311469 q -0.849357,0.3064688 -1.23901,0.6041813 -0.385275,0.2977125 -0.385275,0.6523406 0,0.2889563 0.197016,0.4378125 0.197015,0.1488563 0.534131,0.1488563 0.258309,0 0.49035,-0.1006969 0.236419,-0.1006969 0.380897,-0.2933344 0.148856,-0.1926375 0.148856,-0.4597031 z m -5.963008,-2.0445844 q 0.380897,0.2670656 0.792441,0.5647781 0.411544,0.2933344 0.766172,0.63045 0.359006,0.3327375 0.577912,0.7136344 0.223285,0.3765188 0.223285,0.805575 -0.0044,0.81433129 -0.564778,1.17333754 Q 43.071048,0 41.849551,0 h -1.068263 v -0.79681876 h 1.063885 q 0.849356,0 1.217118,-0.14885626 0.367763,-0.15323438 0.367763,-0.60418128 0,-0.2889562 -0.205772,-0.5647781 -0.201394,-0.2758219 -0.525375,-0.5428875 -0.319603,-0.2714438 -0.687366,-0.5297532 -0.367762,-0.2626875 -0.691743,-0.5166187 -0.1401,-0.1138313 -0.214529,-0.2670656 -0.07443,-0.1532344 -0.07443,-0.3064688 0,-0.1795031 0.09632,-0.3371156 0.100697,-0.1619907 0.310847,-0.245175 l 3.147872,-1.2784126 v 0.7749282 z"
         id="path9" />
      <path
         style="font-size:8.9664px;font-family:Vazirmatn"
         d="m 83.053588,7.6600592 0.612937,0.6085594 -0.612937,0.6173156 -0.60856,-0.6173156 z m -1.453538,0 0.612938,0.6085594 -0.612938,0.6173156 -0.608559,-0.6173156 z m 3.375535,1.7074688 0.731147,-0.087563 0.07443,1.0244815 q 0.02627,0.415922 0.236419,0.634828 0.214528,0.218906 0.639206,0.218906 H 86.76186 V 11.955 h -0.105075 q -0.494728,0 -0.814331,-0.183881 -0.315225,-0.18826 -0.520997,-0.599803 -0.363385,0.4203 -0.932541,0.604181 Q 83.824138,11.955 82.817169,11.955 h -0.731147 q -1.650553,0 -2.482397,-0.446569 -0.827465,-0.446569 -0.827465,-1.545478 0,-0.3020906 0.06567,-0.5910469 0.07005,-0.2889562 0.179503,-0.5560219 l 0.678609,0.2539313 q -0.07005,0.1926375 -0.118209,0.4115438 -0.04378,0.2189062 -0.04378,0.4159218 0.0044,0.5122409 0.288957,0.7880629 0.284578,0.271443 0.849356,0.37214 0.564778,0.100697 1.409756,0.100697 h 0.731147 q 1.046372,0 1.619906,-0.218906 0.577913,-0.218906 0.577913,-0.796819 0,-0.179503 -0.01313,-0.3852749 -0.0088,-0.2057718 -0.02627,-0.3896531 z M 74.673856,6.1977655 75.264903,6.7888123 74.673856,7.3798592 74.082809,6.7888123 Z m 0.74866,1.1076656 0.591047,0.5910469 -0.591047,0.5910469 -0.591047,-0.5910469 z m -1.497319,0 L 74.516244,7.896478 73.925197,8.4875249 73.33415,7.896478 Z M 76.031075,11.955 q -0.4203,0 -0.678609,-0.175125 -0.25831,-0.175125 -0.4203,-0.494728 -0.245175,0.354628 -0.547266,0.51224 -0.297712,0.157613 -0.647962,0.157613 -0.503485,0 -0.779307,-0.170747 -0.271444,-0.175125 -0.433434,-0.499106 -0.205772,0.323981 -0.525375,0.499106 Q 71.679219,11.955 71.088172,11.955 h -0.402788 v -0.796819 h 0.411544 q 0.5604,0 0.818709,-0.205772 0.25831,-0.21015 0.25831,-0.761793 0,-0.113832 -0.01313,-0.2670661 -0.0088,-0.1576125 -0.03065,-0.4378125 l 0.731146,-0.091941 0.07005,0.9150282 q 0.02627,0.367762 0.223285,0.608559 0.201394,0.240797 0.591047,0.240797 0.464081,0 0.63045,-0.249553 0.166369,-0.249553 0.166369,-0.718012 0,-0.113832 -0.01314,-0.2714442 -0.0088,-0.1576125 -0.03065,-0.4334344 l 0.731147,-0.091941 0.07005,0.9150282 q 0.02189,0.354628 0.18826,0.604181 0.166368,0.245175 0.538509,0.245175 0.647962,0 0.647962,-0.967565 0,-0.157613 -0.01313,-0.3283599 -0.0088,-0.1707468 -0.03065,-0.4509468 l 0.731147,-0.087562 0.07005,0.9850782 q 0.05254,0.849356 0.866869,0.849356 h 0.131344 V 11.955 H 78.3077 q -0.459703,0 -0.766172,-0.166369 -0.306469,-0.170747 -0.4203,-0.507862 Q 76.937347,11.60475 76.69655,11.779875 76.460131,11.955 76.031075,11.955 Z M 67.152236,6.6530905 V 6.1714967 l 3.327375,-1.3484625 v 0.4815937 z m 0.604181,1.0551281 q 0.380897,0.2670656 0.792441,0.5647781 0.411543,0.2933344 0.766172,0.63045 0.359006,0.3327376 0.577912,0.7136344 0.223285,0.3765188 0.223285,0.8055749 -0.0044,0.814331 -0.564779,1.173338 Q 68.995426,11.955 67.77393,11.955 h -1.068263 v -0.796819 h 1.063884 q 0.849357,0 1.217119,-0.148856 0.367763,-0.153234 0.367763,-0.604181 0,-0.288957 -0.205772,-0.5647785 Q 68.947267,9.5645436 68.623286,9.297478 68.303683,9.0260343 67.93592,8.7677249 67.568158,8.5050374 67.244176,8.2511061 67.104076,8.1372749 67.029648,7.9840405 66.95522,7.8308061 66.95522,7.6775717 q 0,-0.1795031 0.09632,-0.3371156 0.100697,-0.1619906 0.310847,-0.245175 L 70.510258,5.8168686 V 6.5917967 Z M 64.707425,7.4499092 65.342253,8.0847374 64.707425,8.7195655 64.072597,8.0847374 Z m -1.602394,6.8605218 -0.258309,-0.696122 q 1.068262,-0.23204 1.506075,-0.814331 0.437812,-0.577912 0.437812,-1.370353 0,-0.372141 -0.08318,-0.779306 -0.07881,-0.411544 -0.223285,-0.8362222 l 0.726769,-0.245175 q 0.315225,0.8975152 0.315225,1.7293592 0,0.731147 -0.258309,1.352841 -0.253932,0.626072 -0.792441,1.059506 -0.534131,0.437813 -1.370353,0.599803 z M 61.222436,5.9263217 h 0.739903 v 4.1854873 q 0,0.617316 0.227663,0.831844 0.227662,0.214528 0.687366,0.214528 h 0.109453 V 11.955 h -0.109453 q -0.836222,0 -1.247766,-0.442191 -0.407166,-0.446568 -0.407166,-1.405378 z M 58.621831,11.955 h -0.805575 v -0.796819 h 0.796819 q 0.437813,0 0.591047,-0.253931 0.157612,-0.253931 0.157612,-0.643584 0,-0.2845786 -0.05254,-0.6085599 -0.05254,-0.3239812 -0.113831,-0.6523406 L 59.957159,8.807128 q 0.07443,0.35025 0.11821,0.6873656 0.04378,0.3371157 0.04378,0.6435844 0,0.525375 -0.144478,0.936919 -0.144478,0.411544 -0.472838,0.647962 Q 59.173475,11.955 58.621831,11.955 Z m 0.09632,0.669853 0.634828,0.634828 -0.634828,0.634828 -0.634828,-0.634828 z M 61.151125,11.955 q -0.643585,0 -1.002591,-0.302091 -0.354628,-0.30209 -0.459703,-0.831843 -0.253931,0.253931 -0.551644,0.389653 -0.293334,0.135722 -0.661097,0.135722 -0.626072,0 -1.05075,-0.337116 -0.424678,-0.337116 -0.424678,-0.932541 0,-0.674231 0.551644,-1.164581 0.551644,-0.4947281 1.733738,-0.8581125 l -0.03065,-0.21015 0.7005,-0.1401 0.380897,2.6881685 q 0.05254,0.385275 0.249553,0.577913 0.201393,0.188259 0.58229,0.188259 h 0.135722 V 11.955 Z M 59.513706,9.752803 q 0,-0.1357219 -0.01751,-0.2583094 L 59.38674,8.7633467 q -0.849356,0.3064688 -1.239009,0.6041813 -0.385275,0.2977125 -0.385275,0.652341 0,0.288956 0.197016,0.437812 0.197015,0.148856 0.534131,0.148856 0.258309,0 0.49035,-0.100696 0.236419,-0.100697 0.380897,-0.293335 0.148856,-0.192637 0.148856,-0.459703 z M 54.63648,11.955 h -0.805575 v -0.796819 h 0.796819 q 0.437812,0 0.591046,-0.253931 0.157613,-0.253931 0.157613,-0.643584 0,-0.2845786 -0.05254,-0.6085599 -0.05254,-0.3239812 -0.113831,-0.6523406 L 55.971808,8.807128 q 0.07443,0.35025 0.118209,0.6873656 0.04378,0.3371157 0.04378,0.6435844 0,0.525375 -0.144479,0.936919 -0.144478,0.411544 -0.472837,0.647962 Q 55.188124,11.955 54.63648,11.955 Z m 0.09632,0.669853 0.634828,0.634828 -0.634828,0.634828 -0.634829,-0.634828 z m 0.554968,-0.936919 q 0.415922,-0.5604 0.621694,-0.954431 0.205772,-0.398409 0.205772,-0.7574156 0,-0.3590063 -0.205772,-0.7530375 -0.205772,-0.3940313 -0.621694,-0.9500532 l 0.415922,-0.4027875 q 0.547266,0.6392063 0.818709,1.1383126 0.271444,0.4991062 0.271444,0.9675656 0,0.4684596 -0.271444,0.9675656 -0.271443,0.499106 -0.818709,1.142691 z m -1.545478,0 q 0.415922,-0.5604 0.621694,-0.954431 0.205772,-0.398409 0.205772,-0.7574156 0,-0.3590063 -0.205772,-0.7530375 -0.205772,-0.3940313 -0.621694,-0.9500532 l 0.415922,-0.4027875 q 0.547265,0.6348282 0.814331,1.1383126 0.271444,0.4991062 0.271444,0.9675656 0,0.4684596 -0.271444,0.9719436 -0.271444,0.499106 -0.814331,1.138313 z m -3.322996,2.5218 q -0.945675,0 -1.514831,-0.345872 -0.564778,-0.345871 -0.81871,-0.923784 -0.249553,-0.573534 -0.249553,-1.2609 0,-0.297712 0.04378,-0.687366 0.04816,-0.389653 0.214529,-0.888759 l 0.696121,0.258309 q -0.126965,0.437813 -0.166368,0.774929 -0.03503,0.337115 -0.03503,0.569156 0,0.472837 0.166368,0.86249 0.166369,0.389654 0.564779,0.621694 0.402787,0.232041 1.098909,0.232041 0.656719,0 1.125178,-0.161991 0.472838,-0.16199 0.722391,-0.385275 0.253931,-0.223284 0.253931,-0.407165 0,-0.21015 -0.183881,-0.359007 -0.179503,-0.148856 -0.586669,-0.148856 H 51.10228 q -0.08756,0 -0.126965,-0.07443 -0.0394,-0.07881 -0.07443,-0.201394 l -0.11821,-0.4203 q -0.0044,-0.03503 0.01751,-0.06567 0.02189,-0.03503 0.07881,-0.03503 h 2.42986 v 0.796819 h -0.179504 q 0.06567,0.131344 0.08319,0.249553 0.02189,0.11821 0.02189,0.245175 0,0.288956 -0.170746,0.595425 -0.166369,0.310847 -0.516619,0.573535 -0.345872,0.262687 -0.875625,0.424678 -0.529753,0.16199 -1.252144,0.16199 z M 46.028034,7.2178686 46.640972,7.826428 46.028034,8.4437436 45.419475,7.826428 Z m -1.453537,0 0.612937,0.6085594 -0.612937,0.6173156 -0.60856,-0.6173156 z m -0.472838,3.9403124 h 0.612938 q 0.556022,0 0.792441,-0.249553 0.240796,-0.249553 0.240796,-0.766172 0,-0.2101499 -0.01313,-0.3984092 -0.0088,-0.1882594 -0.02627,-0.3765188 l 0.731147,-0.087563 0.07005,1.0244815 q 0.05254,0.853734 0.88876,0.853734 h 0.09194 V 11.955 h -0.100697 q -0.485972,0 -0.779306,-0.175125 -0.288956,-0.175125 -0.468459,-0.494728 -0.236419,0.345872 -0.621694,0.507862 Q 45.134897,11.955 44.714597,11.955 H 44.101659 Z M 41.877568,11.955 q -0.4203,0 -0.67861,-0.175125 -0.258309,-0.175125 -0.4203,-0.494728 -0.245175,0.354628 -0.547265,0.51224 Q 39.93368,11.955 39.58343,11.955 q -0.503484,0 -0.779306,-0.170747 Q 38.53268,11.609128 38.37069,11.285147 38.164918,11.609128 37.845315,11.784253 37.525711,11.955 36.934665,11.955 h -0.402788 v -0.796819 h 0.411544 q 0.5604,0 0.818709,-0.205772 0.25831,-0.21015 0.25831,-0.761793 0,-0.113832 -0.01313,-0.2670661 -0.0088,-0.1576125 -0.03065,-0.4378125 l 0.731147,-0.091941 0.07005,0.9150282 q 0.02627,0.367762 0.223285,0.608559 0.201393,0.240797 0.591047,0.240797 0.464081,0 0.63045,-0.249553 0.166368,-0.249553 0.166368,-0.718012 0,-0.113832 -0.01313,-0.2714442 -0.0088,-0.1576125 -0.03065,-0.4334344 l 0.731147,-0.091941 0.07005,0.9150282 q 0.02189,0.354628 0.188259,0.604181 0.166369,0.245175 0.53851,0.245175 0.647962,0 0.647962,-0.967565 0,-0.157613 -0.01313,-0.3283599 -0.0088,-0.1707468 -0.03065,-0.4509468 l 0.731147,-0.087562 0.07005,0.9850782 q 0.05254,0.849356 0.866869,0.849356 H 44.27678 V 11.955 h -0.122587 q -0.459703,0 -0.766172,-0.166369 -0.306469,-0.170747 -0.4203,-0.507862 Q 42.78384,11.60475 42.543043,11.779875 42.306624,11.955 41.877568,11.955 Z m -8.445403,-0.796819 h 1.247765 q 0.437813,0 0.591047,-0.253931 0.157613,-0.253931 0.157613,-0.643584 0,-0.2845786 -0.05254,-0.6085599 -0.05254,-0.3239812 -0.113831,-0.6523406 L 36.024015,8.807128 q 0.07443,0.35025 0.118209,0.6873656 0.04378,0.3371157 0.04378,0.6435844 0,0.525375 -0.144478,0.936919 -0.144478,0.411544 -0.472837,0.647962 Q 35.24033,11.955 34.688687,11.955 h -1.256522 z m 1.878215,1.492941 0.612938,0.608559 -0.612938,0.617316 -0.608559,-0.617316 z m -1.453537,0 0.612937,0.608559 -0.612937,0.617316 -0.60856,-0.617316 z M 31.864798,7.4499092 32.499626,8.0847374 31.864798,8.7195655 31.22997,8.0847374 Z M 33.489083,11.955 q -0.302091,0 -0.507863,-0.07881 -0.201394,-0.08319 -0.315225,-0.175125 -0.06567,0.573534 -0.319603,1.107665 -0.249553,0.53851 -0.753038,0.936919 -0.503484,0.398409 -1.33095,0.5604 l -0.258309,-0.691744 q 1.068263,-0.23204 1.506075,-0.814331 0.437813,-0.577912 0.437813,-1.370353 0,-0.372141 -0.08319,-0.779306 -0.07881,-0.411544 -0.223284,-0.8362222 l 0.726769,-0.245175 0.236418,0.9150282 q 0.09632,0.367762 0.306469,0.520997 0.21015,0.153234 0.529753,0.153234 h 0.166369 V 11.955 Z m -8.467295,0 h -0.192637 v -0.796819 h 0.170747 q 0.293334,0 0.494728,-0.166369 0.201394,-0.170746 0.359006,-0.437812 0.157613,-0.267066 0.310847,-0.5647782 0.157612,-0.3020907 0.35025,-0.5691563 0.192637,-0.2670656 0.464081,-0.4334344 0.275822,-0.1707469 0.67861,-0.1707469 0.687365,0 1.068262,0.4203001 0.380897,0.4159218 0.512241,1.0376157 0.08756,0.429056 0.297712,0.656719 0.214528,0.227662 0.494728,0.227662 h 0.113832 V 11.955 h -0.11821 q -0.2802,0 -0.547265,-0.113831 -0.267066,-0.11821 -0.433435,-0.372141 -0.183881,0.267066 -0.455325,0.429056 -0.271444,0.157613 -0.704878,0.157613 -0.437812,0 -0.809953,-0.18826 Q 26.707366,11.6748 26.308957,11.289525 26.024379,11.609128 25.761691,11.784253 25.499004,11.955 25.021788,11.955 Z m 2.653144,-2.3641876 q -0.218906,0 -0.398409,0.1488562 -0.179503,0.1444782 -0.323982,0.3765184 -0.144478,0.232041 -0.258309,0.481594 0.144478,0.148856 0.288956,0.267066 0.144478,0.118209 0.2802,0.201394 0.35025,0.214528 0.612938,0.214528 0.647962,0 0.647962,-0.652341 0,-0.455325 -0.227662,-0.7442812 -0.223285,-0.2933344 -0.621694,-0.2933344 z m -6.645994,-1.19085 0.345872,-0.6479625 q 1.571747,0.7661718 2.342297,1.3703531 0.77055,0.5998031 0.77055,1.225875 0,0.774928 -0.481594,1.168959 -0.477215,0.394032 -1.28279,0.394032 -0.302091,0 -0.643585,-0.04816 -0.341494,-0.04816 -0.647962,-0.118209 -0.306469,-0.07443 -0.516619,-0.144478 -0.380897,0.1401 -0.893138,0.249553 Q 19.509729,11.955 19.032513,11.955 h -0.433434 v -0.796819 h 0.376518 q 0.288957,0 0.507863,-0.01313 0.223284,-0.01314 0.485972,-0.04378 -0.302091,-0.245175 -0.437813,-0.534132 -0.131343,-0.293334 -0.131343,-0.604181 0,-0.455325 0.214528,-0.7836844 0.214528,-0.3283594 0.569156,-0.5034844 0.354628,-0.1795031 0.774928,-0.1795031 0.18826,0 0.376519,0.048159 -0.148856,-0.07005 -0.306469,-0.1444781 z m 0.792441,2.7188156 q 0.192637,0.02189 0.4203,0.04378 0.227662,0.01751 0.402787,0.01751 0.529753,0 0.805575,-0.197016 0.2802,-0.201394 0.2802,-0.621694 0,-0.214528 -0.245175,-0.4640809 Q 23.239891,9.6433499 22.828348,9.3762843 22.421182,9.1048405 21.926454,8.842153 q 0.240797,0.1926375 0.385275,0.4640813 0.148856,0.2714437 0.148856,0.5735343 0,0.4115434 -0.166369,0.7048784 -0.16199,0.288956 -0.472837,0.534131 z M 20.153313,9.9541968 q 0,0.2583092 0.214528,0.5166192 0.218906,0.253931 0.63045,0.411543 0.788063,-0.319603 0.788063,-0.919406 0,-0.3808969 -0.232041,-0.5779125 -0.227662,-0.2013937 -0.551644,-0.2013937 -0.376518,0 -0.612937,0.21015 -0.236419,0.21015 -0.236419,0.5604 z m -3.533147,1.7337372 -0.415922,0.39841 q -0.542888,-0.643585 -0.81871,-1.142691 -0.271443,-0.499106 -0.271443,-0.9675656 0,-0.4684594 0.271443,-0.9675656 0.275822,-0.4991063 0.81871,-1.1383126 l 0.415922,0.4027875 q -0.415922,0.5560219 -0.626072,0.9500532 -0.205772,0.3940312 -0.205772,0.7530375 0,0.3590066 0.21015,0.7574156 0.21015,0.394031 0.621694,0.954431 z m 1.545478,0 -0.415922,0.39841 q -0.542888,-0.639207 -0.814331,-1.138313 -0.271444,-0.503484 -0.271444,-0.9719436 0,-0.4684594 0.271444,-0.9675656 0.271443,-0.5034844 0.814331,-1.1383126 l 0.415922,0.4027875 Q 17.749722,8.8290186 17.539572,9.2230499 17.3338,9.6170811 17.3338,9.9760874 q 0,0.3590066 0.21015,0.7574156 0.21015,0.394031 0.621694,0.954431 z"
         id="path10" />
      <path
         style="font-size:8.9664px;font-family:Vazirmatn"
         d="M 89.665934,4.4812848 V 4.0653629 L 91.531015,3.3035691 V 3.719491 Z m 0,0.8975156 V 4.9628785 l 1.865081,-0.7617938 v 0.4159219 z"
         id="path11" />
      <path
         style="font-size:8.9664px;font-family:Vazirmatn"
         d="m 163.02424,5.9263217 h 0.7399 v 4.1854873 q 0,0.617316 0.22766,0.831844 0.22767,0.214528 0.68737,0.214528 h 0.10945 V 11.955 h -0.10945 q -0.83622,0 -1.24777,-0.442191 -0.40716,-0.446568 -0.40716,-1.405378 z m -3.87026,5.2318593 h 0.51224 q 0.55602,0 0.79244,-0.249553 0.2408,-0.249553 0.2408,-0.766172 0,-0.2101499 -0.0131,-0.3984092 -0.009,-0.1882594 -0.0263,-0.3765188 l 0.73115,-0.087563 0.0701,1.0244815 q 0.0525,0.853734 0.88876,0.853734 h 0.0919 V 11.955 h -0.1007 q -0.48597,0 -0.7793,-0.175125 -0.28896,-0.175125 -0.46846,-0.494728 -0.23642,0.345872 -0.6217,0.507862 -0.38527,0.161991 -0.80557,0.161991 h -0.51224 z m 0.90189,1.466672 0.63483,0.634828 -0.63483,0.634828 -0.63483,-0.634828 z m -3.99724,-1.466672 h 1.24777 q 0.43781,0 0.59104,-0.253931 0.15762,-0.253931 0.15762,-0.643584 0,-0.2845786 -0.0525,-0.6085599 -0.0525,-0.3239812 -0.11383,-0.6523406 l 0.76179,-0.1926375 q 0.0744,0.35025 0.11821,0.6873656 0.0438,0.3371157 0.0438,0.6435844 0,0.525375 -0.14448,0.936919 -0.14447,0.411544 -0.47283,0.647962 Q 157.8668,11.955 157.31515,11.955 h -1.25652 z m 1.87822,1.492941 0.61294,0.608559 -0.61294,0.617316 -0.60856,-0.617316 z m -1.45354,0 0.61294,0.608559 -0.61294,0.617316 -0.60856,-0.617316 z M 156.11556,11.955 q -0.3021,0 -0.50787,-0.07881 -0.20139,-0.08319 -0.31522,-0.175125 -0.0657,0.573534 -0.31961,1.107665 -0.24955,0.53851 -0.75303,0.936919 -0.50349,0.398409 -1.33095,0.5604 l -0.25831,-0.691744 q 1.06826,-0.23204 1.50607,-0.814331 0.43782,-0.577912 0.43782,-1.370353 0,-0.372141 -0.0832,-0.779306 -0.0788,-0.411544 -0.22328,-0.8362222 l 0.72677,-0.245175 0.23641,0.9150282 q 0.0963,0.367762 0.30647,0.520997 0.21015,0.153234 0.52976,0.153234 h 0.16636 V 11.955 Z m -4.82032,-5.5427064 0.61294,0.6085594 -0.61294,0.6173156 -0.60856,-0.6173156 z m -1.45354,0 0.61294,0.6085594 -0.61294,0.6173156 -0.60856,-0.6173156 z m 2.29414,3.4806094 q 0,0.345872 -0.15324,0.643584 -0.15323,0.293335 -0.4203,0.604182 0.24956,0.01313 0.44219,0.01751 0.19264,0 0.3415,0 h 0.42468 V 11.955 h -0.41155 q -0.16637,0 -0.4597,-0.02627 -0.28896,-0.03065 -0.63921,-0.100697 -0.34587,-0.07005 -0.68298,-0.188259 -0.33712,0.122587 -0.69175,0.192637 -0.35463,0.06567 -0.65672,0.09632 -0.30209,0.02627 -0.48159,0.02627 h -0.61294 v -0.796819 h 0.61294 q 0.18388,0 0.3809,0 0.20139,-0.0044 0.48597,-0.02189 -0.26269,-0.306469 -0.41155,-0.60856 -0.14885,-0.30209 -0.14885,-0.6435842 0,-0.2714438 0.12696,-0.5472657 0.12697,-0.2758218 0.3415,-0.5122406 0.21453,-0.2364188 0.49035,-0.3765188 0.27582,-0.1444781 0.56915,-0.1444781 0.30647,0 0.58667,0.1444781 0.2802,0.1401 0.49473,0.3765188 0.21891,0.2320406 0.34587,0.5122406 0.12697,0.2802 0.12697,0.5560219 z M 150.5816,9.0785718 q -0.16637,0 -0.35025,0.1269656 -0.1795,0.1225875 -0.30647,0.3108469 -0.12258,0.1882593 -0.12258,0.385275 0,0.2013937 0.11821,0.4115437 0.11821,0.21015 0.29771,0.385275 0.18388,0.175125 0.37214,0.271444 0.33274,-0.1401 0.56478,-0.450947 0.23642,-0.315225 0.23642,-0.626072 0,-0.1838812 -0.13135,-0.3721406 -0.12696,-0.1882594 -0.31522,-0.315225 -0.18826,-0.1269656 -0.36339,-0.1269656 z m -3.27046,-2.2634907 0.61294,0.6085594 -0.61294,0.6173156 -0.60855,-0.6173156 z m -1.45353,0 0.61293,0.6085594 -0.61293,0.6173156 -0.60856,-0.6173156 z m -0.47284,4.3430999 h 0.89752 q 0.43781,0 0.59104,-0.253931 0.15761,-0.253931 0.15761,-0.643584 0,-0.2845786 -0.0525,-0.6085599 -0.0525,-0.3239812 -0.11383,-0.6523406 l 0.76179,-0.1926375 q 0.0744,0.35025 0.11821,0.6873656 0.0438,0.3371157 0.0438,0.6435844 0,0.525375 -0.14448,0.936919 -0.14448,0.411544 -0.47284,0.647962 -0.32835,0.232041 -0.88,0.232041 h -0.90627 z m -0.093,-2.5874718 0.63483,0.6348282 -0.63483,0.6348281 -0.63483,-0.6348281 z m 0.0482,4.8509628 q 0.73115,0 1.12955,-0.240797 0.40279,-0.236419 0.5604,-0.626072 0.162,-0.385275 0.162,-0.827466 0,-0.520996 -0.1401,-1.028859 -0.1401,-0.507862 -0.26269,-0.8318437 l 0.74866,-0.3020907 0.32398,1.0244814 q 0.0876,0.2802 0.28458,0.424678 0.20139,0.144478 0.5604,0.144478 h 0.17074 V 11.955 h -0.15323 q -0.30647,0 -0.46846,-0.05692 -0.15761,-0.05692 -0.29771,-0.192637 -0.004,0.731147 -0.2802,1.295925 -0.27582,0.569156 -0.85374,0.888759 -0.57353,0.319603 -1.48418,0.319603 -0.94568,0 -1.51483,-0.345872 -0.56478,-0.345871 -0.81871,-0.923784 -0.24956,-0.573534 -0.24956,-1.2609 0,-0.464081 0.0963,-0.950053 0.0963,-0.49035 0.26269,-0.9544314 l 0.69612,0.2802004 q -0.12696,0.402787 -0.21453,0.827465 -0.0876,0.424678 -0.0876,0.823088 0,0.472837 0.16637,0.86249 0.17075,0.389654 0.56916,0.621694 0.39841,0.232041 1.09453,0.232041 z m -6.63286,-5.7134534 q 0.49911,0.35025 0.95443,0.6961219 0.4597,0.3414937 0.82747,0.7442813 0.36776,0.3984093 0.58229,0.9281622 0.23204,0.564778 0.49035,0.823088 0.25831,0.258309 0.72677,0.258309 h 0.12258 V 11.955 h -0.12258 q -0.48598,0 -0.82747,-0.188259 -0.33711,-0.18826 -0.60418,-0.599804 -0.17513,0.25831 -0.42906,0.433435 -0.24955,0.175125 -0.65672,0.267065 -0.40278,0.08756 -1.04637,0.08756 h -1.06826 v -0.796819 h 1.06388 q 0.84936,0 1.21712,-0.148856 0.36777,-0.153234 0.36777,-0.604181 0,-0.288957 -0.20578,-0.5647785 -0.20139,-0.2758219 -0.52537,-0.5428875 -0.3196,-0.2714437 -0.68737,-0.5297531 -0.36776,-0.2626875 -0.69174,-0.5166188 -0.1401,-0.1138312 -0.21453,-0.2670656 -0.0744,-0.1532344 -0.0744,-0.3108469 0,-0.1795031 0.0963,-0.3371156 0.1007,-0.1576125 0.31085,-0.2407969 l 3.14787,-1.2784125 V 6.5917967 Z M 132.70904,11.955 h -0.19263 v -0.796819 h 0.17074 q 0.29334,0 0.49473,-0.166369 0.2014,-0.170746 0.35901,-0.437812 0.15761,-0.267066 0.31085,-0.5647782 0.15761,-0.3020907 0.35025,-0.5691563 0.19263,-0.2670656 0.46408,-0.4334344 0.27582,-0.1707469 0.67861,-0.1707469 0.68736,0 1.06826,0.4203001 0.3809,0.4159218 0.51224,1.0376157 0.0876,0.429056 0.29771,0.656719 0.21453,0.227662 0.49473,0.227662 h 0.11383 V 11.955 h -0.11821 q -0.2802,0 -0.54726,-0.113831 -0.26707,-0.11821 -0.43344,-0.372141 -0.18388,0.267066 -0.45532,0.429056 -0.27145,0.157613 -0.70488,0.157613 -0.43781,0 -0.80995,-0.18826 -0.36777,-0.192637 -0.76618,-0.577912 -0.28457,0.319603 -0.54726,0.494728 -0.26269,0.170747 -0.73991,0.170747 z m 2.65315,-2.3641876 q -0.21891,0 -0.39841,0.1488562 -0.1795,0.1444782 -0.32398,0.3765184 -0.14448,0.232041 -0.25831,0.481594 0.14448,0.148856 0.28895,0.267066 0.14448,0.118209 0.2802,0.201394 0.35025,0.214528 0.61294,0.214528 0.64796,0 0.64796,-0.652341 0,-0.455325 -0.22766,-0.7442812 -0.22328,-0.2933344 -0.62169,-0.2933344 z m -4.57076,2.4648846 q -0.43781,0 -0.80996,-0.18826 -0.36776,-0.192637 -0.76617,-0.577912 -0.28458,0.319603 -0.54726,0.494728 -0.26269,0.170747 -0.73991,0.170747 h -0.19263 v -0.796819 h 0.17074 q 0.29334,0 0.49473,-0.166369 0.2014,-0.170746 0.35901,-0.437812 0.15761,-0.267066 0.31084,-0.5647782 0.15762,-0.3020907 0.35025,-0.5691563 0.19264,-0.2670656 0.46409,-0.4334344 0.27582,-0.1707469 0.67861,-0.1707469 0.48597,0 0.84497,0.2364188 0.36339,0.2320406 0.5604,0.6260719 0.2014,0.3940311 0.2014,0.8800031 0,0.713634 -0.36339,1.107666 -0.359,0.389653 -1.01572,0.389653 z m -0.21015,-2.4648846 q -0.21891,0 -0.39841,0.1488562 -0.1795,0.1444782 -0.32398,0.3765184 -0.14448,0.232041 -0.25831,0.481594 0.26269,0.275822 0.54289,0.450947 0.359,0.232041 0.6392,0.232041 0.64796,0 0.64796,-0.652341 0,-0.455325 -0.22766,-0.7442812 -0.22328,-0.2933344 -0.62169,-0.2933344 z M 127.102,11.955 q -0.30209,0 -0.50786,-0.07881 -0.2014,-0.08319 -0.31523,-0.175125 -0.0657,0.573534 -0.3196,1.107665 -0.24956,0.53851 -0.75304,0.936919 -0.50348,0.398409 -1.33095,0.5604 l -0.25831,-0.691744 q 1.06826,-0.23204 1.50608,-0.814331 0.43781,-0.577912 0.43781,-1.370353 0,-0.372141 -0.0832,-0.779306 -0.0788,-0.411544 -0.22328,-0.8362222 l 0.72677,-0.245175 0.23642,0.9150282 q 0.0963,0.367762 0.30647,0.520997 0.21015,0.153234 0.52975,0.153234 h 0.16637 V 11.955 Z m -6.78172,-0.796819 h 0.6611 q 0.55602,0 0.79244,-0.249553 0.2408,-0.249553 0.2408,-0.766172 0,-0.2101499 -0.0131,-0.3984092 -0.009,-0.1882594 -0.0263,-0.3765188 l 0.73115,-0.087563 0.07,1.0244815 q 0.0525,0.853734 0.88876,0.853734 h 0.0919 V 11.955 h -0.1007 q -0.48597,0 -0.7793,-0.175125 -0.28896,-0.175125 -0.46846,-0.494728 -0.23642,0.345872 -0.6217,0.507862 -0.38527,0.161991 -0.80557,0.161991 h -0.6611 z m 1.58051,1.492941 0.61293,0.608559 -0.61293,0.617316 -0.60856,-0.617316 z m -1.45354,0 0.61294,0.608559 -0.61294,0.617316 -0.60856,-0.617316 z m -2.25474,-6.5234065 0.63483,0.6348281 -0.63483,0.6348281 -0.63482,-0.6348281 z m -1.19522,5.0304655 q -0.19702,-0.245175 -0.33712,-0.599803 -0.13572,-0.359006 -0.13572,-0.7180125 0,-0.4684594 0.24517,-0.8493562 0.24518,-0.3808969 0.64359,-0.6041813 0.39841,-0.2232844 0.85811,-0.2232844 0.69612,0 1.49294,0.5428875 l -0.29333,0.6523407 q -0.68299,-0.4027876 -1.15145,-0.4027876 -0.40279,0 -0.71363,0.2495532 -0.31085,0.2495531 -0.31085,0.665475 0,0.3239816 0.14448,0.5735346 0.14885,0.249553 0.31522,0.389653 0.16637,0.135722 0.22329,0.135722 0.0788,0 0.15323,-0.02189 l 1.85195,-0.44219 v 0.796818 q -1.09016,0.332738 -2.01832,0.494728 -0.92378,0.157613 -1.83443,0.157613 h -0.47722 v -0.796819 z m -1.56863,-3.4981218 0.61293,0.6085594 -0.61293,0.6173156 -0.60856,-0.6173156 z m -1.45354,0 0.61294,0.6085594 -0.61294,0.6173156 -0.60856,-0.6173156 z m 3.37553,1.7074688 0.73115,-0.087563 0.0744,1.0244815 q 0.0263,0.415922 0.23642,0.634828 0.21453,0.218906 0.6392,0.218906 h 0.10508 V 11.955 h -0.10508 q -0.49472,0 -0.81433,-0.183881 -0.31522,-0.18826 -0.52099,-0.599803 -0.36339,0.4203 -0.93254,0.604181 -0.56478,0.179503 -1.57175,0.179503 h -0.73115 q -1.65055,0 -2.4824,-0.446569 -0.82746,-0.446569 -0.82746,-1.545478 0,-0.3020906 0.0657,-0.5910469 0.0701,-0.2889562 0.1795,-0.5560219 l 0.67861,0.2539313 q -0.0701,0.1926375 -0.11821,0.4115438 -0.0438,0.2189062 -0.0438,0.4159218 0.004,0.5122409 0.28896,0.7880629 0.28458,0.271443 0.84936,0.37214 0.56477,0.100697 1.40975,0.100697 h 0.73115 q 1.04637,0 1.6199,-0.218906 0.57792,-0.218906 0.57792,-0.796819 0,-0.179503 -0.0131,-0.3852749 -0.009,-0.2057718 -0.0263,-0.3896531 z M 106.61111,11.955 q -0.50348,0 -0.7793,-0.170747 -0.27145,-0.175125 -0.43344,-0.499106 -0.20577,0.323981 -0.52537,0.499106 -0.31961,0.170747 -0.91065,0.170747 h -0.40279 v -0.796819 h 0.41154 q 0.5604,0 0.81871,-0.205772 0.25831,-0.21015 0.25831,-0.761793 0,-0.113832 -0.0131,-0.2670661 -0.009,-0.1576125 -0.0306,-0.4378125 l 0.73115,-0.091941 0.07,0.9150282 q 0.0263,0.367762 0.22328,0.608559 0.2014,0.240797 0.59105,0.240797 0.46408,0 0.63045,-0.249553 0.16637,-0.249553 0.16637,-0.718012 0,-0.113832 -0.0131,-0.2714442 -0.009,-0.1576125 -0.0306,-0.4334344 l 0.73114,-0.091941 0.07,0.9150282 q 0.0219,0.354628 0.18826,0.604181 0.16637,0.245175 0.53851,0.245175 0.36339,0 0.49911,-0.271444 0.13572,-0.271443 0.13572,-0.634828 0,-0.3283591 -0.0657,-0.6610966 -0.0613,-0.3327375 -0.10945,-0.5385094 l 0.74865,-0.2013938 q 0.0788,0.2933344 0.12697,0.6260719 0.0482,0.3283594 0.0482,0.6567189 0,0.472837 -0.13134,0.888759 -0.13135,0.415922 -0.43344,0.674232 -0.29771,0.253931 -0.81433,0.258309 -0.4203,0 -0.67861,-0.175125 -0.25831,-0.175125 -0.4203,-0.494728 -0.24517,0.354628 -0.54726,0.51224 -0.29772,0.157613 -0.64797,0.157613 z m -3.63384,-6.0286783 v 6.0243003 h -0.7399 V 5.9263217 Z"
         id="path12" />
    </g>
  </g>
</svg>
