<?xml version="1.0" encoding="UTF-8" standalone="no"?>


<svg class="tikz-diagram" id="iran-action-ch4-tikz-6-c76742a93c14"
   version="1.1"
   id="svg1"
   width="572.97333"
   height="119.42667"
   viewBox="0 0 572.97333 119.42667"
   sodipodi:docname="iran-action-ch4-tikz-6-c76742a93c14.pdf"
   xmlns:inkscape="http://www.inkscape.org/namespaces/inkscape"
   xmlns:sodipodi="http://sodipodi.sourceforge.net/DTD/sodipodi-0.dtd"
   xmlns="http://www.w3.org/2000/svg"
   xmlns:svg="http://www.w3.org/2000/svg">
  <defs
     id="defs1" />
  <sodipodi:namedview
     id="namedview1"
     pagecolor="#ffffff"
     bordercolor="#000000"
     borderopacity="0.25"
     inkscape:showpageshadow="2"
     inkscape:pageopacity="0.0"
     inkscape:pagecheckerboard="0"
     inkscape:deskcolor="#d1d1d1">
    <inkscape:page
       x="0"
       y="0"
       inkscape:label="1"
       id="page1"
       width="572.97333"
       height="119.42667"
       margin="0"
       bleed="0" />
  </sodipodi:namedview>
  <g
     id="g1"
     inkscape:groupmode="layer"
     inkscape:label="1">
    <path
       id="path1"
       d="m 183.48358,28.3468 h -366.96716 c -8.25354,0 -14.94415,-6.69061 -14.94415,-14.94415 v -26.8053 c 0,-8.25354 6.69061,-14.94415 14.94415,-14.94415 h 366.96716 c 8.25354,0 14.94415,6.69061 14.94415,14.94415 v 26.8053 c 0,8.25354 -6.69061,14.94415 -14.94415,14.94415 z"
       style="fill:#ffe6e6;fill-opacity:1;fill-rule:nonzero;stroke:#be1e2d;stroke-width:2.98883;stroke-linecap:butt;stroke-linejoin:miter;stroke-miterlimit:10;stroke-dasharray:none;stroke-opacity:1"
       transform="matrix(1.3333333,0,0,-1.3333333,286.48533,59.713333)" />
    <path
       style="font-weight:800;font-size:14.3462px;font-family:Vazirmatn"
       d="m 49.657637,3.5305102 q -1.506071,0 -2.486768,-0.5744084 -0.973692,-0.5744084 -1.443026,-1.5691157 -0.469334,-0.99470719 -0.469334,-2.24159372 0,-0.83359268 0.18213,-1.72322518 0.182129,-0.8966375 0.525373,-1.78627 l 1.702211,0.6514632 q -0.259185,0.7425279 -0.434309,1.4500309 -0.175125,0.707503 -0.175125,1.32394132 0,0.67247812 0.23817,1.23287656 0.238169,0.56039844 0.805572,0.89663752 0.567404,0.336239 1.555106,0.336239 1.064757,0 1.77226,-0.2451743 0.707503,-0.2381693 1.057752,-0.56740339 0.350249,-0.32923408 0.350249,-0.58141338 0,-0.20314443 -0.252179,-0.20314443 h -1.134807 q -0.357254,0 -0.749533,-0.07004981 -0.385274,-0.0700498 -0.721513,-0.30121416 -0.336239,-0.23116435 -0.546388,-0.69349303 -0.203145,-0.4623287 -0.203145,-1.2398816 0,-0.7285179 0.23817,-1.4009961 0.238169,-0.6794831 0.679483,-1.2118616 0.448318,-0.5323785 1.071762,-0.8476026 0.623443,-0.3152241 1.400996,-0.3152241 0.525373,0 1.029732,0.1611145 0.511363,0.1541096 0.938667,0.4623287 l -0.644458,1.78627 q -0.364259,-0.2031444 -0.700498,-0.2801992 -0.329234,-0.08406 -0.609433,-0.08406 -0.756538,0 -1.183842,0.4973537 -0.427304,0.4903486 -0.427304,1.2258715 0,0.1891345 0.119085,0.2381694 0.12609,0.049035 0.308219,0.049035 h 1.022727 q 0.805573,0 1.260897,0.2521793 0.462328,0.2521793 0.651463,0.7004981 0.196139,0.44131375 0.196139,1.00871717 0,1.00171221 -0.574408,1.83530493 -0.574409,0.8335926 -1.67419,1.3309462 -1.099782,0.4973537 -2.675903,0.4973537 z m -8.265879,-9.323629 q 0.882627,0 1.499065,0.5253735 0.616439,0.5253735 0.966688,1.3869861 0.350249,0.8546076 0.420298,1.8563198 h 0.525374 V 0 H 44.13771 Q 43.738426,1.5971355 42.568594,2.507783 41.398762,3.4254354 39.374323,3.8177144 L 38.68083,1.9473846 Q 39.563458,1.779265 40.312991,1.4990658 41.069528,1.2188666 41.587897,0.84059766 42.113271,0.46232871 42.288395,0 H 41.629927 Q 40.214921,0 39.472393,-0.58841836 38.729865,-1.1838417 38.729865,-2.507783 q 0,-0.5183686 0.161114,-1.085772 0.161115,-0.5744084 0.490349,-1.071762 0.329234,-0.5043586 0.826588,-0.8125777 0.504358,-0.3152241 1.183842,-0.3152241 z m 0.231164,3.7686794 h 0.896637 q -0.04203,-0.3922789 -0.168119,-0.8055727 -0.119085,-0.4132939 -0.357254,-0.6934931 -0.231165,-0.2801992 -0.616438,-0.2801992 -0.329235,0 -0.525374,0.2101494 -0.189134,0.2031445 -0.273194,0.4903487 -0.07706,0.2801992 -0.07706,0.5183685 0,0.371264 0.308219,0.4693337 0.315224,0.091065 0.812578,0.091065 z M 34.863115,0 h -1.50607 v -2.0244394 h 1.513075 q 0.532379,0 0.728518,-0.329234 0.203145,-0.3362391 0.203145,-0.8476027 0,-0.4763386 -0.119085,-1.0367371 -0.11208,-0.5674034 -0.231164,-1.1067869 l 1.835305,-0.4763387 q 0.133094,0.6584682 0.210149,1.3099314 0.08406,0.6444582 0.08406,1.2328765 0,0.9316624 -0.252179,1.6741904 -0.245175,0.7425279 -0.840598,1.17683669 Q 35.892848,0 34.863115,0 Z M 33.539174,0.8966375 34.730021,2.0734742 35.906857,0.8966375 37.104709,2.0874842 35.906857,3.2923408 34.730021,2.1014941 33.539174,3.2923408 32.348327,2.0874842 Z M 28.579647,3.8247193 27.865139,1.9473846 q 1.015722,-0.2171544 1.74424,-0.5814134 0.735523,-0.357254 1.134807,-0.95968233 0.399284,-0.60242832 0.399284,-1.55510567 0,-0.6374532 -0.203144,-1.429016 -0.203145,-0.7985678 -0.434309,-1.4850559 l 1.891345,-0.6094333 q 0.273194,0.7635429 0.413293,1.6461704 0.147105,0.8826276 0.147105,1.6952053 0,1.47104591 -0.546388,2.521793 -0.539384,1.057752 -1.527086,1.7092152 -0.980697,0.6584682 -2.304639,0.9246574 z M 25.203246,-9.8209826 h 1.891344 v 6.4025521 q 0,0.742528 0.217155,1.071762 0.217154,0.3222291 0.896637,0.3222291 h 0.175125 V 0 H 28.208382 Q 26.639267,0 25.917754,-0.81257773 25.203246,-1.6251555 25.203246,-3.2503109 Z m -3.971823,5.008561 1.751245,-0.2171544 0.1401,2.0034244 q 0.03503,0.5323786 0.294209,0.7705479 0.259184,0.2311643 0.826588,0.2311643 h 0.147104 V 0 H 24.229555 Q 23.529057,0 23.024698,-0.2521793 22.527345,-0.50435859 22.205116,-0.91064746 21.777812,-0.48334365 21.189393,-0.23816934 20.60798,0 19.949512,0 h -0.672478 v -2.0244394 h 0.672478 q 0.770548,0 1.057752,-0.2591842 0.294209,-0.2661893 0.294209,-0.9666873 0,-0.4132939 -0.02102,-0.7985678 -0.02101,-0.3922789 -0.04903,-0.7635429 z m 0.385274,-3.7126396 1.260897,1.2608965 -1.260897,1.2538915 -1.253891,-1.2538915 z M 12.671337,0 q -0.707503,0 -1.190846,-0.23816934 -0.476339,-0.24517431 -0.784558,-0.6444582 -0.385274,0.40628887 -0.9176526,0.6444582 Q 9.2459019,0 8.4333242,0 H 7.788866 v -2.0244394 h 0.6584681 q 0.7705479,0 1.092777,-0.1891344 0.3292341,-0.1891345 0.3292341,-0.9106475 0,-0.1120797 -0.01401,-0.371264 -0.01401,-0.2591842 -0.035025,-0.5674034 -0.021015,-0.3152241 -0.04203,-0.5674034 l 1.7582506,-0.2171544 0.147104,1.8913447 q 0.06304,0.9316624 1.001712,0.9316624 0.581414,0 0.777553,-0.2381693 0.19614,-0.2451743 0.19614,-0.8616126 0,-0.09807 -0.01401,-0.357254 -0.01401,-0.2661892 -0.03503,-0.5814134 -0.02101,-0.3152241 -0.04203,-0.5674034 l 1.75825,-0.2171544 0.147105,1.8913447 q 0.02802,0.4273039 0.210149,0.6794831 0.189134,0.2521793 0.637453,0.2521793 0.420299,0 0.574409,-0.329234 0.161114,-0.3362391 0.161114,-0.7985678 0,-0.3992839 -0.07706,-0.8195827 -0.07005,-0.4273038 -0.161114,-0.7705479 -0.08406,-0.350249 -0.12609,-0.5113635 l 1.81429,-0.4973537 q 0.1401,0.5533935 0.231164,1.1838417 0.09107,0.6234433 0.09107,1.2398816 0,0.8686176 -0.231164,1.6321604 -0.22416,0.75653792 -0.770548,1.22587161 Q 17.280614,0 16.334942,0 15.704494,0 15.270185,-0.25918428 14.842881,-0.51836855 14.548672,-0.8966375 14.191418,-0.51836855 13.736094,-0.25918428 13.287776,0 12.671337,0 Z M 8.012353,-5.365815 q 0,-0.5323786 0.3782689,-0.8826276 0.378269,-0.350249 0.9106475,-0.350249 0.5393835,0 0.9106476,0.350249 0.378269,0.350249 0.378269,0.8826276 0,0.5253735 -0.378269,0.8756225 -0.3782691,0.350249 -0.9106476,0.350249 -0.5463885,0 -0.9176524,-0.343244 -0.371264,-0.350249 -0.371264,-0.8826275 z m 0,4.1259335 q 0,-0.5253736 0.3782689,-0.8756226 0.378269,-0.357254 0.9106475,-0.357254 0.5393835,0 0.9106476,0.357254 0.378269,0.350249 0.378269,0.8756226 0,0.53237847 -0.378269,0.8826275 -0.3782691,0.35024902 -0.9106476,0.35024902 -0.5463885,0 -0.9176524,-0.35024902 -0.371264,-0.35024903 -0.371264,-0.8826275 z m 57.826115,-8.2308521 q 0.03502,0.3222291 0.05604,0.6794831 0.02802,0.350249 0.02802,0.6794831 0,1.0087172 -0.266189,1.7792651 -0.259185,0.7705478 -0.868618,1.2048566 -0.609433,0.4343088 -1.653175,0.4343088 -0.19614,0 -0.497354,-0.01401 -0.294209,-0.021015 -0.560398,-0.077055 0.09106,0.9036425 0.126089,1.7582501 0.03502,0.8476027 0.03502,1.6321605 V 0 h -1.919365 v -1.4150061 q 0,-1.6671853 -0.126089,-3.0051366 -0.12609,-1.3449562 -0.413294,-2.4587481 -0.287204,-1.1207969 -0.763543,-2.1084991 l 1.793275,-0.6444582 q 0.21015,0.5113635 0.357254,0.9036424 0.147105,0.3922789 0.350249,0.8896326 0.16812,0.3992838 0.336239,0.6444582 0.175125,0.2381693 0.448319,0.350249 0.280199,0.1050747 0.763543,0.1050747 0.560398,0 0.833593,-0.3222291 0.273194,-0.3222291 0.273194,-0.8125777 0,-0.385274 -0.04904,-0.735523 -0.04203,-0.357254 -0.09807,-0.6934931 z m 128.700372,6.7247813 q 0.24518,-0.7775529 0.65147,-1.457036 0.41329,-0.6864881 0.9877,-1.1067869 0.58141,-0.4202988 1.31694,-0.4202988 0.86161,0 1.50607,0.3852739 0.65146,0.378269 1.00871,1.064757 0.36426,0.6864881 0.36426,1.6111455 0,0.7565379 -0.27319,1.3869862 -0.2732,0.63044822 -0.81958,1.01572214 -0.53939,0.37826895 -1.33796,0.37826895 -0.37826,0 -0.80557,-0.13309463 -0.4273,-0.13309463 -0.8476,-0.30121416 -0.41329,-0.17512451 -0.75654,-0.30821914 -0.33624,-0.13309463 -0.53938,-0.13309463 -0.31523,0 -0.4203,0.68648808 -0.10508,0.68648809 -0.10508,1.70221029 0,0.5954233 0.021,1.1698317 0.028,0.5744084 0.056,1.0157222 0.035,0.4413137 0.056,0.6514632 h -1.92637 q -0.035,-0.7565379 -0.0701,-1.4710459 -0.028,-0.7075031 -0.028,-1.3659712 0,-1.23287659 0.12609,-2.15753402 0.13309,-0.92465738 0.54639,-1.49206088 0.4203,-0.5674034 1.28891,-0.7215129 z m 4.05589,0.063045 q 0,-0.4273038 -0.29421,-0.7635429 -0.28721,-0.3362391 -0.77755,-0.3362391 -0.30822,0 -0.54639,0.2101495 -0.23817,0.2101494 -0.40629,0.5183685 -0.16112,0.3082192 -0.26619,0.6094333 0.46933,0.2101494 0.91765,0.3922789 0.45533,0.1751245 0.75654,0.1751245 0.34324,0 0.47634,-0.2451743 0.1401,-0.2451743 0.1401,-0.5603984 z m -9.56881,-7.1380751 h 1.89134 v 6.4025521 q 0,0.742528 0.21716,1.071762 0.21715,0.3222291 0.89664,0.3222291 h 0.17512 V 0 h -0.17512 q -1.56912,0 -2.29063,-0.81257773 -0.71451,-0.81257777 -0.71451,-2.43773317 z m -6.31148,7.7965432 h 1.05775 q 0.77055,0 1.05775,-0.2591842 0.29421,-0.2661893 0.29421,-0.9666873 0,-0.4132939 -0.021,-0.7985678 -0.021,-0.3922789 -0.049,-0.7635429 l 1.75124,-0.2171544 0.1401,2.0034244 q 0.035,0.5323786 0.29421,0.7705479 0.25919,0.2311643 0.82659,0.2311643 h 0.14711 V 0 h -0.16112 q -0.7005,0 -1.20486,-0.2521793 -0.49735,-0.25217929 -0.81958,-0.65846816 -0.4273,0.42730381 -1.01572,0.67247812 Q 184.43066,0 183.77219,0 h -1.05775 z m 0.18213,2.9210769 1.19084,1.1768367 1.17684,-1.1768367 1.19785,1.1908467 -1.19785,1.2048566 -1.17684,-1.1908467 -1.19084,1.1908467 -1.19085,-1.2048566 z m -4.88947,-12.1046065 1.19084,1.176837 1.17684,-1.176837 1.19785,1.190847 -1.19785,1.2048566 -1.17684,-1.1908466 -1.19084,1.1908466 -1.19085,-1.2048566 z m 0.64445,9.1835296 q 0.89664,0 1.36597,-0.1400996 0.47634,-0.1400996 0.48335,-0.693493 -0.51137,0.09807 -1.08577,0.09807 -1.23988,0 -1.9614,-0.5113636 -0.72151,-0.5183685 -0.72151,-1.6811953 0,-0.5674034 0.18213,-1.1207969 0.18913,-0.5603984 0.53238,-1.0157221 0.35025,-0.4623287 0.83359,-0.735523 0.49035,-0.2801992 1.09278,-0.2801992 0.77755,0 1.33094,0.3922789 0.5604,0.3852739 0.91065,1.0367371 0.35025,0.6514632 0.51136,1.457036 0.16812,0.7985677 0.16812,1.6321604 0,1.4570359 -0.39928,2.2345888 -0.39228,0.77054782 -1.21887,1.064757 Q 179.85641,0 178.56749,0 h -2.57783 v -2.0244394 z m 0.73553,-2.4517431 q 0.26619,0 0.53238,-0.02802 0.27319,-0.02802 0.53237,-0.08406 -0.049,-0.3362391 -0.18213,-0.6934931 -0.13309,-0.364259 -0.35725,-0.6164383 -0.22416,-0.2521792 -0.55339,-0.2521792 -0.43431,0 -0.67248,0.357254 -0.23117,0.350249 -0.23117,0.7565378 0,0.371264 0.2732,0.4693337 0.27319,0.091065 0.65847,0.091065 z M 179.58253,0 q -0.9807,0 -1.61114,-0.37126396 -0.63045,-0.37826895 -0.91065,-1.23287654 -0.80557,0.63044822 -1.75825,0.63044822 -1.16283,0 -1.94038,-0.63044822 -0.77755,-0.6374532 -0.77755,-1.8773348 0,-0.9106475 0.52537,-1.5551057 0.52537,-0.6514631 1.35196,-1.0927769 0.83359,-0.4413138 1.73724,-0.714508 l -0.049,-0.3362391 1.69521,-0.343244 0.66547,4.4971974 q 0.063,0.4273038 0.32923,0.714508 0.2732,0.2872042 0.77055,0.2872042 h 0.21716 V 0 Z m -2.90707,-3.7616745 q 0,-0.09807 -0.021,-0.2171544 -0.014,-0.1260897 -0.035,-0.2591843 l -0.11908,-0.7355229 q -0.49735,0.1681195 -0.9807,0.3922789 -0.47634,0.2171544 -0.79156,0.4833436 -0.30822,0.2591843 -0.30822,0.5603985 0,0.2872042 0.23116,0.4693337 0.23817,0.1751245 0.61644,0.1751245 0.32223,0 0.64446,-0.091065 0.32924,-0.09807 0.54639,-0.2872042 0.21715,-0.1961394 0.21715,-0.4903486 z M 168.7178,0 h -1.11379 v -2.0244394 h 1.1208 q 0.53238,0 0.72852,-0.329234 0.20314,-0.3362391 0.20314,-0.8476027 0,-0.4763386 -0.11908,-1.0367371 -0.11208,-0.5674034 -0.23117,-1.1067869 l 1.83531,-0.4763387 q 0.13309,0.6584682 0.21015,1.3099314 0.0841,0.6444582 0.0841,1.2328765 0,0.9316624 -0.25217,1.6741904 -0.25218,0.7425279 -0.84761,1.17683669 Q 169.74753,0 168.7178,0 Z m 0.82659,-9.1344945 1.2609,1.2608965 -1.2609,1.2538915 -1.25389,-1.2538915 z m -4.84043,-0.6864881 h 1.89134 v 6.4025521 q 0,0.742528 0.21716,1.071762 0.21715,0.3222291 0.89664,0.3222291 h 0.17512 V 0 h -0.17512 q -1.56912,0 -2.29063,-0.81257773 -0.71451,-0.81257777 -0.71451,-2.43773317 z m -1.42901,5.1906905 v 1.8282999 q -0.40629,0.04203 -0.82659,0.1891345 -0.41329,0.1400996 -0.72151,0.2801992 0.13309,0.1961395 0.64446,0.2521793 0.51837,0.05604 1.1348,0.05604 h 0.38528 V 0 h -0.4133 q -1.28191,0 -2.06646,-0.33623906 -0.77756,-0.34324404 -1.06476,-1.27490644 -1.29592,0.69349306 -2.59184,1.15582177 Q 156.46611,0 155.00207,0 h -1.16983 v -2.0244394 h 1.19084 q 0.90365,0 1.67419,-0.1681195 0.77756,-0.1751245 1.60414,-0.5183685 0.82659,-0.3432441 1.87734,-0.8546077 -1.07877,-0.3992838 -1.74424,-0.6654731 -0.66547,-0.2661893 -0.91065,-0.2661893 -0.37827,0 -0.68649,0.2381694 -0.30121,0.2311643 -0.49735,0.4903486 l -0.37126,0.4693337 -1.56912,-0.7705478 0.31522,-0.5043586 q 0.49736,-0.8125778 1.19085,-1.3449563 0.69349,-0.5393835 1.62516,-0.5393835 0.39227,0 0.91064,0.1821295 0.52538,0.1821295 1.1208,0.4553237 0.60243,0.2661893 1.23988,0.5393835 0.64446,0.2661893 1.2679,0.4553238 0.63045,0.1891344 1.20486,0.1961394 z m -12.33579,1.2819114 v -6.4726019 h 1.88434 v 6.4726019 q 0,0.6584682 0.21015,0.9947073 0.21716,0.329234 0.85461,0.329234 h 0.22416 V 0 h -0.21015 q -0.74253,0 -1.21186,-0.22415937 -0.46233,-0.23116436 -0.81258,-0.67948311 -0.37126,0.42730381 -0.86862,0.66547314 Q 150.51887,0 149.69928,0 h -0.4273 v -2.0244394 h 0.37827 q 0.7075,0 0.99471,-0.3152241 0.2942,-0.3222291 0.2942,-1.0087172 z M 145.70644,0 q -0.62345,0 -1.05775,-0.25918428 -0.43431,-0.25918427 -0.72852,-0.63745322 -0.35726,0.37826895 -0.81258,0.63745322 Q 142.65927,0 142.04283,0 q -0.7075,0 -1.19084,-0.23816934 -0.47634,-0.24517431 -0.78456,-0.6444582 -0.38528,0.40628887 -0.91765,0.6444582 Q 138.6174,0 137.80482,0 h -0.64446 v -2.0244394 h 0.65847 q 0.77055,0 1.09278,-0.1891344 0.32923,-0.1891345 0.32923,-0.9106475 0,-0.1120797 -0.014,-0.371264 -0.014,-0.2591842 -0.035,-0.5674034 -0.021,-0.3152241 -0.042,-0.5674034 l 1.75825,-0.2171544 0.1471,1.8913447 q 0.0631,0.9316624 1.00171,0.9316624 0.58142,0 0.77756,-0.2381693 0.19613,-0.2451743 0.19613,-0.8616126 0,-0.09807 -0.014,-0.357254 -0.014,-0.2661892 -0.035,-0.5814134 -0.021,-0.3152241 -0.042,-0.5674034 l 1.75825,-0.2171544 0.1471,1.8913447 q 0.028,0.4343088 0.21716,0.6864881 0.18913,0.2451743 0.63045,0.2451743 0.43431,0 0.58842,-0.2872042 0.16111,-0.2872042 0.16111,-0.8125777 0,-0.2521793 -0.028,-0.728518 -0.028,-0.4763386 -0.063,-0.9106474 l 1.75825,-0.2171544 0.1471,2.0244393 q 0.035,0.5183686 0.2872,0.728518 0.25919,0.2031444 0.79857,0.2031444 h 0.21015 V 0 h -0.19614 q -0.64446,0 -1.14181,-0.22415937 -0.49035,-0.22415938 -0.77755,-0.60943331 -0.28721,0.35725401 -0.70751,0.59542334 Q 146.30887,0 145.70644,0 Z m -11.44613,0.16111455 q -0.72852,0 -1.36597,-0.30821914 -0.63045,-0.31522412 -1.23288,-0.77755283 -0.38527,0.38527392 -0.80557,0.65846816 Q 130.44259,0 129.64403,0 h -0.30822 v -2.0244394 h 0.27319 q 0.34325,0 0.61644,-0.2661892 0.2802,-0.2661893 0.53238,-0.6864881 0.25918,-0.4273038 0.53938,-0.8966375 0.28721,-0.4763387 0.63745,-0.8966375 0.35726,-0.4273038 0.82659,-0.6934931 0.46934,-0.2661892 1.09978,-0.2661892 0.88263,0 1.52709,0.4202988 0.64446,0.4132939 0.99471,1.0997819 0.35025,0.6794831 0.35025,1.4850559 0,0.8265877 -0.2732,1.4780509 -0.27319,0.65146316 -0.82659,1.02973211 -0.54638,0.37826894 -1.37297,0.37826894 z m -0.33624,-3.96481895 q -0.28721,0 -0.51837,0.1961395 -0.23116,0.1891344 -0.40629,0.4623287 -0.17512,0.2731942 -0.29421,0.5183685 0.20315,0.1821295 0.38528,0.3152241 0.18213,0.1330947 0.35025,0.2311644 0.25217,0.1400996 0.46232,0.1961395 0.21015,0.05604 0.36426,0.05604 0.37127,0 0.53238,-0.2661893 0.16112,-0.2731942 0.16112,-0.6164382 0,-0.4413138 -0.2732,-0.7635429 -0.27319,-0.3292341 -0.76354,-0.3292341 z m -4.63096,4.67932696 h -1.58313 l 3.60056,-11.07487456 h 1.59013 z m -3.12489,-10.87873456 1.1278,1.1207968 -1.1278,1.1278018 -1.1278,-1.1278018 z m 1.22587,1.7862699 1.1278,1.1278019 -1.1278,1.1278018 -1.1278,-1.1278018 z m -2.44474,0 1.1208,1.1278019 -1.1208,1.1278018 -1.1278,-1.1278018 z M 124.66915,0 q -0.7075,0 -1.19084,-0.23816934 -0.47634,-0.24517431 -0.78456,-0.6444582 -0.38528,0.40628887 -0.91765,0.6444582 Q 121.24372,0 120.43114,0 h -0.64446 v -2.0244394 h 0.65847 q 0.77055,0 1.09278,-0.1891344 0.32923,-0.1891345 0.32923,-0.9106475 0,-0.1120797 -0.014,-0.371264 -0.014,-0.2591842 -0.035,-0.5674034 -0.021,-0.3152241 -0.042,-0.5674034 l 1.75825,-0.2171544 0.1471,1.8913447 q 0.0631,0.9316624 1.00171,0.9316624 0.58142,0 0.77756,-0.2381693 0.19613,-0.2451743 0.19613,-0.8616126 0,-0.09807 -0.014,-0.357254 -0.014,-0.2661892 -0.035,-0.5814134 -0.021,-0.3152241 -0.042,-0.5674034 l 1.75825,-0.2171544 0.1471,1.8913447 q 0.028,0.4273039 0.21015,0.6794831 0.18914,0.2521793 0.63746,0.2521793 0.4203,0 0.57441,-0.329234 0.16111,-0.3362391 0.16111,-0.7985678 0,-0.3992839 -0.0771,-0.8195827 -0.07,-0.4273038 -0.16112,-0.7705479 -0.0841,-0.350249 -0.12609,-0.5113635 l 1.81429,-0.4973537 q 0.1401,0.5533935 0.23117,1.1838417 0.0911,0.6234433 0.0911,1.2398816 0,0.8686176 -0.23116,1.6321604 -0.22416,0.75653792 -0.77055,1.22587161 Q 129.27843,0 128.33276,0 q -0.63045,0 -1.06476,-0.25918428 -0.4273,-0.25918427 -0.72151,-0.63745322 -0.35726,0.37826895 -0.81258,0.63745322 Q 125.28559,0 124.66915,0 Z m -5.90307,0 q -0.63745,0 -1.05075,-0.24517432 -0.28019,1.61114552 -1.37998,2.66189262 -1.09277,1.050747 -2.92107,1.4009961 l -0.6935,-1.8703298 q 1.01573,-0.2171544 1.74424,-0.5814134 0.73553,-0.357254 1.13481,-0.95968233 0.39928,-0.60242832 0.39928,-1.55510567 0,-0.6374532 -0.20314,-1.429016 -0.20314,-0.7985678 -0.43431,-1.4850559 l 1.88434,-0.6094333 0.40629,1.5831256 q 0.11908,0.4483188 0.35025,0.7565379 0.23116,0.3082191 0.68649,0.3082191 h 0.27319 V 0 Z m -8.93836,-5.7931188 q 0.88263,0 1.49907,0.5253735 0.61644,0.5253735 0.96669,1.3869861 0.35025,0.8546076 0.4203,1.8563198 h 0.52537 V 0 h -0.66547 q -0.39929,1.5971355 -1.56912,2.507783 -1.16983,0.9176524 -3.19427,1.3099314 L 107.1168,1.9473846 q 0.88262,-0.1681196 1.63216,-0.4483188 0.75653,-0.2801992 1.2749,-0.65846814 Q 110.54924,0.46232871 110.72436,0 h -0.65847 q -1.415,0 -2.15753,-0.58841836 -0.74253,-0.59542334 -0.74253,-1.91936464 0,-0.5183686 0.16112,-1.085772 0.16111,-0.5744084 0.49034,-1.071762 0.32924,-0.5043586 0.82659,-0.8125777 0.50436,-0.3152241 1.18384,-0.3152241 z m 0.23117,3.7686794 h 0.89664 q -0.042,-0.3922789 -0.16812,-0.8055727 -0.11909,-0.4132939 -0.35726,-0.6934931 -0.23116,-0.2801992 -0.61644,-0.2801992 -0.32923,0 -0.52537,0.2101494 -0.18913,0.2031445 -0.27319,0.4903487 -0.0771,0.2801992 -0.0771,0.5183685 0,0.371264 0.30822,0.4693337 0.31522,0.091065 0.81258,0.091065 z m -8.7142,-7.9786726 1.12781,1.1207968 -1.12781,1.1278018 -1.1278,-1.1278018 z m 1.22588,1.7862699 1.1278,1.1278019 -1.1278,1.1278018 -1.12781,-1.1278018 z m -2.44474,0 1.12079,1.1278019 -1.12079,1.1278018 -1.127805,-1.1278018 z M 99.845628,0 q -0.707503,0 -1.190847,-0.23816934 -0.476338,-0.24517431 -0.784557,-0.6444582 -0.385274,0.40628887 -0.917653,0.6444582 Q 96.420193,0 95.607615,0 h -0.644458 v -2.0244394 h 0.658468 q 0.770548,0 1.092777,-0.1891344 0.329234,-0.1891345 0.329234,-0.9106475 0,-0.1120797 -0.01401,-0.371264 -0.01401,-0.2591842 -0.03502,-0.5674034 -0.02102,-0.3152241 -0.04203,-0.5674034 l 1.75825,-0.2171544 0.147105,1.8913447 q 0.06304,0.9316624 1.001712,0.9316624 0.581412,0 0.777552,-0.2381693 0.19614,-0.2451743 0.19614,-0.8616126 0,-0.09807 -0.014,-0.357254 -0.014,-0.2661892 -0.035,-0.5814134 -0.021,-0.3152241 -0.042,-0.5674034 l 1.75825,-0.2171544 0.1471,1.8913447 q 0.028,0.4273039 0.21015,0.6794831 0.18913,0.2521793 0.63745,0.2521793 0.4203,0 0.57441,-0.329234 0.16112,-0.3362391 0.16112,-0.7985678 0,-0.3992839 -0.0771,-0.8195827 -0.07,-0.4273038 -0.16111,-0.7705479 -0.0841,-0.350249 -0.12609,-0.5113635 l 1.81429,-0.4973537 q 0.1401,0.5533935 0.23116,1.1838417 0.0911,0.6234433 0.0911,1.2398816 0,0.8686176 -0.23117,1.6321604 -0.22416,0.75653792 -0.77055,1.22587161 Q 104.45491,0 103.50923,0 q -0.63045,0 -1.06475,-0.25918428 -0.42731,-0.25918427 -0.72152,-0.63745322 -0.35725,0.37826895 -0.81257,0.63745322 Q 100.46207,0 99.845628,0 Z"
       id="text1"
       transform="matrix(1.3333333,0,0,1.3333333,153.96133,64.210667)"
       aria-label="یﻮﯾرﺎﻨﺳ:۲مﺎﯿﻗﻪﻧﺎﺤﻠﺴﻣ/شرﻮﺷ" />
  </g>
</svg>
