<?xml version="1.0" encoding="UTF-8" standalone="no"?>


<svg class="tikz-diagram" id="iran-action-ch1-tikz-8-ada9891342fd"
   version="1.1"
   id="svg1"
   width="571.64001"
   height="269.28"
   viewBox="0 0 571.64001 269.28"
   sodipodi:docname="iran-action-ch1-tikz-8-ada9891342fd.pdf"
   xmlns:inkscape="http://www.inkscape.org/namespaces/inkscape"
   xmlns:sodipodi="http://sodipodi.sourceforge.net/DTD/sodipodi-0.dtd"
   xmlns="http://www.w3.org/2000/svg"
   xmlns:svg="http://www.w3.org/2000/svg">
  <defs
     id="defs1" />
  <sodipodi:namedview
     id="namedview1"
     pagecolor="#ffffff"
     bordercolor="#000000"
     borderopacity="0.25"
     inkscape:showpageshadow="2"
     inkscape:pageopacity="0.0"
     inkscape:pagecheckerboard="0"
     inkscape:deskcolor="#d1d1d1">
    <inkscape:page
       x="0"
       y="0"
       inkscape:label="1"
       id="page1"
       width="571.64001"
       height="269.28"
       margin="0"
       bleed="0" />
  </sodipodi:namedview>
  <g
     id="g1"
     inkscape:groupmode="layer"
     inkscape:label="1">
    <path
       id="path1"
       d="M 75.07768,141.73404 H -75.07768 c -5.50235,0 -9.96277,-4.4604 -9.96277,-9.96277 V 95.00319 c 0,-5.50235 4.46042,-9.96277 9.96277,-9.96277 H 75.07768 c 5.50235,0 9.96277,4.46042 9.96277,9.96277 v 36.76808 c 0,5.50237 -4.46042,9.96277 -9.96277,9.96277 z"
       style="fill:#d9e6f1;fill-opacity:1;fill-rule:nonzero;stroke:#0055a4;stroke-width:1.99255;stroke-linecap:butt;stroke-linejoin:miter;stroke-miterlimit:10;stroke-dasharray:none;stroke-opacity:1"
       transform="matrix(1.3333333,0,0,-1.3333333,134.64,210.23067)" />
    <g
       id="text1"
       transform="matrix(1.3333333,0,0,1.3333333,82.12,54.265333)"
       aria-label="؟ﺖﺴﯿﭼﺖﯿﻌﺿو.۱(۵،۳،۲لﻮﺼﻓ)">
      <path
         style="font-weight:800;font-size:9.9626px;font-family:Vazirmatn"
         d="m 69.138611,-4.9083316 q 0,-0.574017 0.287008,-1.006962 0.287009,-0.432945 0.754006,-0.6761725 0.471861,-0.2432276 1.016691,-0.2432276 0.432945,0 0.880484,0.1751238 0.452403,0.1702593 0.851296,0.5594234 l -0.603204,1.1237112 q -0.282144,-0.2529567 -0.564288,-0.3648413 -0.282144,-0.1167492 -0.525372,-0.1167492 -0.345383,0 -0.583746,0.1653947 -0.233498,0.1653947 -0.233498,0.3940286 0,0.2043111 0.145936,0.3648413 0.145937,0.1556656 0.359977,0.3259249 0.218905,0.1653947 0.432945,0.3842995 0.21404,0.2189048 0.359977,0.5399651 0.145936,0.3210603 0.145936,0.7929218 v 0.1118846 h -1.308564 v -0.1070201 q 0,-0.3697058 -0.145936,-0.5837461 -0.141072,-0.2140402 -0.350248,-0.3599767 -0.209176,-0.1508011 -0.423216,-0.3161958 -0.209176,-0.1653947 -0.355112,-0.432945 -0.141072,-0.2724149 -0.141072,-0.7296826 z m 1.172357,4.04730613 q 0,-0.36484133 0.262685,-0.60806883 0.262686,-0.2480921 0.632392,-0.2480921 0.37457,0 0.632392,0.2480921 0.257821,0.2432275 0.257821,0.60806883 0,0.36970585 -0.262686,0.61293339 -0.257821,0.24322753 -0.627527,0.24322753 -0.379435,0 -0.637256,-0.24322753 -0.257821,-0.24322754 -0.257821,-0.61293339 z m -7.102243,-4.47052203 0.826973,0.8172445 0.817245,-0.8172445 0.831838,0.8269736 -0.831838,0.8367027 -0.817245,-0.8269736 -0.826973,0.8269736 -0.826974,-0.8367027 z m 3.512205,1.9896012 1.216138,-0.1508011 0.09729,1.3912615 q 0.02432,0.3697059 0.194582,0.5351006 0.175124,0.1605302 0.574017,0.1605302 h 0.111885 V 0 H 68.802958 Q 68.243535,0 67.873829,-0.20431113 67.504123,-0.41348681 67.260895,-0.768599 66.818221,-0.35997675 66.180965,-0.17998837 65.548573,0 64.531882,0 h -0.81238 q -0.841567,0 -1.551791,-0.10215556 -0.70536,-0.10702012 -1.230732,-0.36970585 -0.520507,-0.26268574 -0.81238,-0.73454719 -0.287008,-0.4767259 -0.287008,-1.2161376 0,-0.4378096 0.09729,-0.8512964 0.09729,-0.4183514 0.243228,-0.7734636 l 1.172356,0.4426742 q -0.0827,0.2286338 -0.170259,0.530236 -0.0827,0.3016021 -0.0827,0.574017 0,0.486455 0.359976,0.7199535 0.359977,0.2334984 0.953452,0.3064666 0.59834,0.068104 1.308564,0.068104 h 0.81238 q 0.70536,0 1.206409,-0.05351 0.501049,-0.058375 0.763734,-0.238363 0.267551,-0.1848529 0.267551,-0.5691524 0,-0.2480921 -0.01459,-0.5448297 -0.01459,-0.2967376 -0.03405,-0.530236 z M 56.86535,0 Q 56.432405,0 56.130803,-0.17998837 55.829201,-0.35997675 55.62489,-0.62266248 55.376798,-0.35997675 55.060602,-0.17998837 54.749271,0 54.32119,0 53.82987,0 53.494216,-0.16539472 53.163427,-0.335654 52.949387,-0.61293338 52.681836,-0.33078944 52.312131,-0.16539472 51.942425,0 51.378137,0 h -0.447539 v -1.4058551 h 0.457268 q 0.535101,0 0.75887,-0.1313429 0.228634,-0.1313429 0.228634,-0.6323916 0,-0.077833 -0.0097,-0.2578212 -0.0097,-0.1799884 -0.02432,-0.3940286 -0.01459,-0.2189048 -0.02919,-0.3940286 l 1.221002,-0.1508011 0.102155,1.3134287 q 0.04378,0.6469853 0.695631,0.6469853 0.403758,0 0.539965,-0.1653948 0.136208,-0.1702592 0.136208,-0.5983397 0,-0.068104 -0.0097,-0.2480921 -0.0097,-0.1848529 -0.02432,-0.4037577 -0.01459,-0.2189048 -0.02919,-0.3940286 l 1.221002,-0.1508011 0.102155,1.3134287 q 0.01946,0.3016022 0.150801,0.476726 0.131343,0.1702593 0.43781,0.1702593 0.301602,0 0.408622,-0.1994466 0.111885,-0.1994466 0.111885,-0.5642879 0,-0.1751238 -0.01946,-0.5059133 -0.01946,-0.3307894 -0.04378,-0.6323915 l 1.221002,-0.1508011 0.102155,1.4058551 q 0.02432,0.3599768 0.199447,0.5059133 0.179988,0.141072 0.554559,0.141072 h 0.145936 V 0 h -0.136207 q -0.447539,0 -0.792922,-0.15566562 -0.340518,-0.15566562 -0.539965,-0.42321591 -0.199447,0.24809209 -0.49132,0.41348681 Q 57.283701,0 56.86535,0 Z m -9.558842,-1.4058551 h 0.734547 q 0.535101,0 0.734548,-0.1799884 0.204311,-0.1848529 0.204311,-0.671308 0,-0.2870085 -0.01459,-0.5545588 -0.01459,-0.2724148 -0.03405,-0.530236 l 1.216138,-0.1508011 0.09729,1.3912615 q 0.02432,0.3697059 0.204311,0.5351006 0.179988,0.1605302 0.574017,0.1605302 h 0.102156 V 0 H 51.013296 Q 50.526841,0 50.176593,-0.17512382 49.83121,-0.35024765 49.607441,-0.63239159 49.310703,-0.335654 48.902081,-0.16539472 48.498323,0 48.041055,0 H 47.306508 Z M 47.432987,0.62266248 48.25996,1.439907 49.077205,0.62266248 49.909043,1.4496361 49.077205,2.2863388 48.25996,1.4593652 47.432987,2.2863388 46.606013,1.4496361 Z M 44.708839,0.48159052 45.492032,1.2647832 44.708839,2.0479758 43.925647,1.2647832 Z m -1.697728,0 0.778328,0.78319268 -0.778328,0.7831926 -0.783193,-0.7831926 z M 43.857543,1.7269155 44.640735,2.5101081 43.857543,3.2884362 43.07435,2.5101081 Z m -3.337082,-3.1327706 h 0.826974 q 0.627527,0 1.167492,-0.1167493 0.539965,-0.1216137 1.109117,-0.3599767 0.574017,-0.238363 1.3037,-0.5934752 -0.749141,-0.2724148 -1.211273,-0.4572677 -0.462132,-0.1897175 -0.632392,-0.1897175 -0.262685,0 -0.476726,0.1653947 -0.209175,0.1605302 -0.345383,0.3405185 l -0.257821,0.3259249 -1.089659,-0.5351005 0.218904,-0.3502477 q 0.345384,-0.5642879 0.826974,-0.9339937 0.481591,-0.3745704 1.128576,-0.3745704 0.272415,0 0.632391,0.1264783 0.364842,0.1264783 0.778329,0.3161958 0.418351,0.1848529 0.861025,0.3745704 0.447539,0.1848529 0.880484,0.3161958 0.437809,0.1313429 0.836702,0.1362074 v 1.2891059 q -0.369705,0.048645 -0.685901,0.1653948 -0.316196,0.1118846 -0.656715,0.2870084 -0.340518,0.1751239 -0.792921,0.4183514 -0.622663,0.33078945 -1.177222,0.56915243 -0.549694,0.23836299 -1.13344,0.3648413 Q 42.052795,0 41.332841,0 h -0.81238 z m -3.040809,-3.9256924 0.826974,0.8172445 0.817244,-0.8172445 0.831838,0.8269736 -0.831838,0.8367027 -0.817244,-0.8269736 -0.826974,0.8269736 -0.826974,-0.8367027 z m 3.512206,1.9896012 1.216137,-0.1508011 0.09729,1.3912615 q 0.02432,0.3697059 0.194582,0.5351006 0.175124,0.1605302 0.574017,0.1605302 H 43.18577 V 0 H 43.073885 Q 42.514462,0 42.144756,-0.20431113 41.77505,-0.41348681 41.531823,-0.768599 41.089149,-0.35997675 40.451892,-0.17998837 39.819501,0 38.80281,0 h -0.81238 q -0.841567,0 -1.551792,-0.10215556 -0.70536,-0.10702012 -1.230731,-0.36970585 -0.520507,-0.26268574 -0.81238,-0.73454719 -0.287009,-0.4767259 -0.287009,-1.2161376 0,-0.4378096 0.09729,-0.8512964 0.09729,-0.4183514 0.243228,-0.7734636 l 1.172357,0.4426742 q -0.0827,0.2286338 -0.17026,0.530236 -0.0827,0.3016021 -0.0827,0.574017 0,0.486455 0.359977,0.7199535 0.359977,0.2334984 0.953452,0.3064666 0.598339,0.068104 1.308564,0.068104 h 0.81238 q 0.70536,0 1.206408,-0.05351 0.501049,-0.058375 0.763735,-0.238363 0.26755,-0.1848529 0.26755,-0.5691524 0,-0.2480921 -0.01459,-0.5448297 -0.01459,-0.2967376 -0.03405,-0.530236 z m -11.003617,1.9360912 h 0.734547 q 0.5351,0 0.734547,-0.1799884 0.204311,-0.1848529 0.204311,-0.671308 0,-0.2870085 -0.01459,-0.5545588 -0.01459,-0.2724148 -0.03405,-0.530236 l 1.216138,-0.1508011 0.09729,1.3912615 q 0.02432,0.3697059 0.204311,0.5351006 0.179989,0.1605302 0.574017,0.1605302 h 0.102156 V 0 H 33.695028 Q 33.208573,0 32.858325,-0.17512382 32.512942,-0.35024765 32.289173,-0.63239159 31.992435,-0.335654 31.583813,-0.16539472 31.180055,0 30.722788,0 H 29.988241 Z M 30.114719,0.62266248 30.941692,1.439907 31.758937,0.62266248 32.590775,1.4496361 31.758937,2.2863388 30.941692,1.4593652 30.114719,2.2863388 29.287745,1.4496361 Z m -2.69496,-4.90833158 q 0.3843,0 0.817245,0.058375 0.432945,0.05351 0.81238,0.1799883 0.379435,0.1216138 0.617798,0.3210604 0.243227,0.194582 0.243227,0.4718614 0,0.1605302 -0.126478,0.3940286 -0.121614,0.2334984 -0.316196,0.4913196 -0.189717,0.2529567 -0.398893,0.4864551 -0.204311,0.2286339 -0.364841,0.389164 0.199446,0.058375 0.384299,0.072968 0.184853,0.014594 0.345383,0.014594 h 0.75887 V 0 h -0.754005 q -0.569153,0 -1.075066,-0.13134287 -0.501049,-0.13620742 -0.943723,-0.35997675 -0.466997,0.23349843 -1.123711,0.3648413 Q 25.644198,0 25.065317,0 h -0.768599 v -1.4058551 h 0.773463 q 0.111885,0 0.301602,-0.00486 0.194582,-0.00486 0.403758,-0.024323 0.209176,-0.019458 0.359977,-0.063239 -0.16053,-0.1605302 -0.364842,-0.3891641 -0.204311,-0.2334984 -0.394028,-0.486455 -0.189718,-0.2578212 -0.316196,-0.4864551 -0.126478,-0.2334984 -0.126478,-0.3940286 0,-0.2772794 0.238363,-0.4718614 0.238363,-0.1994466 0.617798,-0.3210604 0.379435,-0.1264783 0.81238,-0.1799883 0.432945,-0.058375 0.817244,-0.058375 z m 0.0049,1.2745122 q -0.238363,0 -0.505914,0.024323 -0.262685,0.024323 -0.549694,0.082697 0.204311,0.2189047 0.447539,0.4572677 0.248092,0.2334984 0.423216,0.3988932 0.179988,0.1653947 0.179988,0.1653947 0,0 0.179989,-0.1653947 0.179988,-0.1653948 0.42808,-0.3988932 0.252957,-0.238363 0.452403,-0.4572677 -0.282144,-0.058375 -0.549694,-0.082697 -0.262686,-0.024323 -0.505913,-0.024323 z m -5.735306,-3.8235368 0.87562,0.8756191 -0.87562,0.8707546 -0.870754,-0.8707546 z m -3.18628,5.2391211 q 0.330789,-0.5448297 0.700495,-1.050743 0.369706,-0.5059132 0.788057,-0.9048064 0.418352,-0.3988931 0.890213,-0.627527 0.471861,-0.2334984 1.006962,-0.2334984 0.617798,0 1.089659,0.2626857 0.476726,0.2626857 0.744277,0.7199535 0.272414,0.4572677 0.272414,1.0458784 0,0.6859016 -0.291873,1.1480339 -0.291873,0.45726779 -0.81238,0.72968263 -0.520506,0.27241484 -1.211273,0.38916405 Q 20.993688,0 20.200766,0 H 19.942945 Q 19.135429,0 18.551683,-0.14107197 17.967937,-0.28700849 17.60796,-0.63239159 17.335546,-0.335654 16.960975,-0.16539472 16.586405,0 16.036711,0 h -0.199447 l 0.0049,-1.4058551 h 0.194582 q 0.578881,0 0.768599,-0.1799884 0.194582,-0.1848529 0.194582,-0.6761726 0,-0.2772793 -0.01946,-0.5448296 -0.01459,-0.2724149 -0.03405,-0.5302361 l 1.216137,-0.150801 0.09243,1.3863969 q 0.01946,0.194582 0.07783,0.3405186 0.06324,0.1410719 0.170259,0.1653947 z m 3.419779,-1.4350425 q -0.37457,0 -0.754005,0.238363 -0.379435,0.2334985 -0.724818,0.6080689 -0.345384,0.3697058 -0.627528,0.7783281 h 0.442675 q 0.656714,0 1.216137,-0.063239 0.564288,-0.068104 0.904807,-0.2578212 0.340518,-0.1897175 0.340518,-0.5642879 0,-0.335654 -0.228634,-0.5351005 -0.223769,-0.2043112 -0.569152,-0.2043112 z m -6.382291,1.9506849 q 0,1.13830481 -0.423215,1.89231016 Q 14.698959,1.5663853 13.93036,2.0090594 13.161761,2.4517335 12.111018,2.6511801 l -0.48159,-1.298835 q 0.992368,-0.1897175 1.658812,-0.53996514 0.671308,-0.35024765 0.851296,-0.86102547 -0.121614,0.02432276 -0.252957,0.04378096 -0.131343,0.01459365 -0.238363,0.01459365 -0.924264,0 -1.4545,-0.40862225 -0.530236,-0.40862226 -0.530236,-1.34261595 0,-0.3891641 0.116749,-0.7929218 0.116749,-0.4086223 0.350247,-0.7491408 0.233499,-0.3453831 0.578882,-0.5545588 0.345383,-0.2091757 0.802651,-0.2091757 0.525371,0 0.904806,0.2529567 0.3843,0.2529566 0.632392,0.6761725 0.248092,0.4232159 0.369706,0.953452 0.121613,0.530236 0.121613,1.0847948 z m -1.911768,-0.3113313 q 0.209176,0 0.379435,-0.024323 0.175124,-0.024323 0.287009,-0.048645 -0.02919,-0.2480921 -0.111885,-0.5302361 -0.0827,-0.2821439 -0.248092,-0.4815905 -0.16053,-0.2043111 -0.432945,-0.2043111 -0.233499,0 -0.369706,0.1556656 -0.131343,0.1556656 -0.184853,0.3648413 -0.05351,0.2091757 -0.05351,0.3648413 0,0.2626857 0.209176,0.335654 0.21404,0.068104 0.525371,0.068104 z m -1.489331,0.53510058 q 0,-0.36484128 0.262686,-0.60806878 0.262686,-0.2480921 0.632391,-0.2480921 0.374571,0 0.632392,0.2480921 0.262686,0.2432275 0.262686,0.60806878 0,0.36970585 -0.262686,0.61293339 Q 13.40421,0 13.034504,0 12.655069,0 12.397248,-0.24322753 12.139427,-0.48645507 12.139427,-0.85616092 Z M 81.444681,0 h -1.332886 v -0.98263923 q 0,-1.15776307 -0.09243,-2.08689227 -0.08756,-0.9339937 -0.287008,-1.7074572 -0.199447,-0.7783282 -0.530236,-1.4642298 l 1.245325,-0.4524032 q 0.549694,1.2161377 0.773463,2.6073991 0.223769,1.3912615 0.223769,3.11817702 z"
         id="path17" />
      <path
         style="font-weight:800;font-size:8.9664px;font-family:Vazirmatn"
         d="m 11.134562,9.3631499 q 0,-0.7661719 -0.144478,-1.506075 Q 10.845606,7.1171717 10.552272,6.5217467 10.258937,5.9219436 9.8079906,5.5935842 L 10.070678,4.8974623 q 0.674231,0.2977125 1.160203,0.9719438 0.49035,0.6742312 0.753038,1.5805031 0.267065,0.9062719 0.267065,1.9132407 0,1.0069691 -0.267065,1.9176191 -0.262688,0.906272 -0.753038,1.576125 -0.485972,0.669853 -1.160203,0.971943 L 9.8079906,13.132716 q 0.4509464,-0.332738 0.7442814,-0.928163 0.293334,-0.595425 0.437812,-1.335328 0.144478,-0.739903 0.144478,-1.5060751 z m 4.448176,2.1015001 q -0.148857,0.214528 -0.402788,0.354628 -0.249553,0.135722 -0.5604,0.135722 -0.731147,0 -1.090153,-0.464081 -0.359006,-0.464082 -0.359006,-1.230253 0,-0.5253755 0.227662,-1.0638849 0.227663,-0.5428875 0.577913,-1.0682625 0.35025,-0.5297531 0.718012,-1.0069688 l -0.262687,-0.2583093 0.72239,-0.9544313 q 1.020103,0.8800031 1.641797,1.6724438 0.621694,0.7880625 0.901894,1.4622938 0.2802,0.6742312 0.2802,1.2171192 0,0.757415 -0.35025,1.225875 -0.35025,0.468459 -1.081397,0.468459 -0.293334,0 -0.551644,-0.1401 -0.258309,-0.1401 -0.411543,-0.35025 z m -1.247766,-1.199606 q 0,0.188259 0.113831,0.306468 0.113831,0.11821 0.240797,0.11821 0.183881,0 0.275822,-0.1401 0.09632,-0.1401 0.1401,-0.345872 0.04816,-0.2101501 0.08318,-0.4115439 h 0.766172 q 0.0394,0.2101499 0.08319,0.4202999 0.04378,0.205772 0.1401,0.341494 0.100696,0.135722 0.293334,0.135722 0.1401,0 0.236419,-0.109453 0.100697,-0.109453 0.100697,-0.315225 0,-0.3808972 -0.175125,-0.7749285 -0.170747,-0.3940312 -0.455325,-0.7749281 -0.284579,-0.385275 -0.617316,-0.7399032 -0.328359,0.4159219 -0.608559,0.8143313 -0.275822,0.3984094 -0.446569,0.77055 -0.170747,0.3721406 -0.170747,0.7048785 z m 8.471251,-0.8756254 q -0.258309,0.2364188 -0.429056,0.49035 -0.170747,0.2539314 -0.227662,0.5998034 0.542887,0.105075 0.542887,0.726769 0,0.35025 -0.201394,0.551643 -0.197015,0.197016 -0.5604,0.197016 -0.424678,0 -0.639206,-0.232041 -0.21015,-0.236418 -0.21015,-0.647962 0,-0.691744 0.306469,-1.2346315 0.306469,-0.5428875 0.809953,-0.9325406 z m 4.81156,-0.3677625 q -0.288957,0 -0.573535,-0.1006969 -0.2802,-0.105075 -0.433434,-0.2802 -0.153235,0.1619907 -0.39841,0.2714438 -0.240797,0.1094531 -0.468459,0.1094531 -0.06129,0 -0.153234,0 -0.09194,-0.00438 -0.153235,-0.017512 0.06129,0.5691563 0.07881,1.0638844 0.01751,0.494728 0.01751,1.015725 V 11.955 h -1.199606 v -0.884381 q 0,-1.041994 -0.07881,-1.878216 -0.07881,-0.8406 -0.258309,-1.5367219 -0.179503,-0.7005 -0.477216,-1.3178156 l 1.1208,-0.4027875 q 0.157613,0.3765187 0.25831,0.6742312 0.100697,0.2977125 0.262687,0.6829875 0.07881,0.1882594 0.192638,0.3196032 0.118209,0.1313437 0.345872,0.1313437 0.258309,0 0.332737,-0.1926375 0.07443,-0.1970156 0.07881,-0.5779125 l 0.0088,-0.6610969 0.967565,-0.052537 0.02627,0.6260719 q 0.02189,0.5297531 0.126966,0.6961219 0.109453,0.1619906 0.332737,0.1619906 0.166369,0 0.249553,-0.1182094 0.08319,-0.1182093 0.109454,-0.2977125 0.02627,-0.1795031 0.02627,-0.3677625 0,-0.2189062 -0.03502,-0.4421906 -0.03065,-0.2232844 -0.05254,-0.3765188 l 1.129556,-0.105075 q 0.02189,0.2189063 0.03502,0.4509469 0.01751,0.2276625 0.01751,0.4509469 0,0.5472656 -0.135722,1.0244813 -0.131344,0.4728375 -0.446569,0.7661718 -0.310847,0.2933344 -0.853734,0.2933344 z m 6.269054,0.3677625 q -0.258309,0.2364188 -0.429056,0.49035 -0.170747,0.2539314 -0.227662,0.5998034 0.542887,0.105075 0.542887,0.726769 0,0.35025 -0.201394,0.551643 -0.197015,0.197016 -0.5604,0.197016 -0.424678,0 -0.639206,-0.232041 -0.21015,-0.236418 -0.21015,-0.647962 0,-0.691744 0.306469,-1.2346315 0.306469,-0.5428875 0.809953,-0.9325406 z m 4.977929,-3.3536438 q 0.02189,0.2013938 0.03502,0.4246782 0.01751,0.2189062 0.01751,0.4246781 0,0.63045 -0.166369,1.1120438 -0.161991,0.4815937 -0.542887,0.7530375 -0.380897,0.2714437 -1.033238,0.2714437 -0.122587,0 -0.310847,-0.00876 -0.183881,-0.013134 -0.35025,-0.048159 0.05692,0.5647781 0.07881,1.0989095 0.02189,0.529753 0.02189,1.020103 V 11.955 h -1.199606 v -0.884381 q 0,-1.041994 -0.07881,-1.878216 -0.07881,-0.8406 -0.258309,-1.5367219 -0.179503,-0.7005 -0.477216,-1.3178156 l 1.1208,-0.4027875 q 0.131344,0.3196031 0.223285,0.5647781 0.09194,0.245175 0.218906,0.5560219 0.105075,0.2495531 0.21015,0.4027875 0.109453,0.1488562 0.2802,0.2189062 0.175125,0.065672 0.477216,0.065672 0.35025,0 0.520997,-0.2013937 0.170747,-0.2013938 0.170747,-0.5078626 0,-0.2407968 -0.03065,-0.4597031 -0.02627,-0.2232844 -0.06129,-0.4334344 z m 29.420158,5.1924562 q 0,1.383488 -0.573534,2.140903 -0.573535,0.757416 -1.882594,0.757416 -1.287169,0 -1.935131,-0.687366 -0.647963,-0.687365 -0.647963,-1.921997 0,-0.507862 0.118209,-1.055128 0.122588,-0.5472654 0.323982,-1.0507497 l 1.063884,0.4071656 q -0.148856,0.3940311 -0.267065,0.8537341 -0.11821,0.459703 -0.11821,0.849357 0,0.647962 0.359006,0.998212 0.363385,0.354628 1.103288,0.354628 0.499106,0 0.774928,-0.192637 0.2802,-0.18826 0.389653,-0.53851 0.113831,-0.35025 0.113831,-0.836222 V 5.8168686 h 1.177716 z M 60.84211,8.3342905 q 0.551644,0 0.936919,0.3283594 0.385275,0.3283594 0.604181,0.8668687 0.218906,0.5341314 0.262687,1.1602034 h 0.32836 V 11.955 h -0.415922 q -0.249553,0.998212 -0.9807,1.567369 -0.731147,0.573534 -1.996425,0.818709 l -0.433435,-1.168959 q 0.551644,-0.105075 1.020104,-0.2802 0.472837,-0.175125 0.796818,-0.411544 0.32836,-0.236419 0.437813,-0.525375 h -0.411544 q -0.884381,0 -1.348462,-0.367763 -0.464082,-0.37214 -0.464082,-1.199606 0,-0.323981 0.100697,-0.6786092 0.100697,-0.3590063 0.306469,-0.6698532 0.205772,-0.315225 0.516619,-0.5078625 0.315225,-0.1970156 0.739903,-0.1970156 z m 0.144478,2.3554315 h 0.5604 Q 61.520719,10.444547 61.441913,10.186237 61.367485,9.927928 61.218629,9.752803 61.07415,9.577678 60.833354,9.577678 q -0.205772,0 -0.32836,0.1313438 -0.118209,0.1269656 -0.170747,0.3064692 -0.04816,0.175125 -0.04816,0.323981 0,0.23204 0.192637,0.293334 0.197016,0.05692 0.507863,0.05692 z M 54.949159,11.955 h -0.232041 q -0.726769,0 -1.252144,-0.126966 -0.525375,-0.131343 -0.849356,-0.44219 -0.245175,0.267065 -0.582291,0.4203 Q 51.696212,11.955 51.201483,11.955 H 51.02198 l 0.0044,-1.265278 h 0.175125 q 0.520997,0 0.691744,-0.161991 0.175125,-0.166369 0.175125,-0.6085592 0,-0.2495532 -0.01751,-0.49035 -0.01313,-0.245175 -0.03065,-0.4772157 l 1.094531,-0.1357219 0.08319,1.2477658 q 0.01751,0.175125 0.07005,0.306469 0.05692,0.126965 0.153234,0.148856 0.297712,-0.49035 0.63045,-0.9456751 0.332737,-0.455325 0.704878,-0.8143313 0.376519,-0.3590062 0.801197,-0.5647781 0.429056,-0.21015 0.91065,-0.21015 0.556022,0 0.9807,0.2364187 0.429056,0.2364188 0.669853,0.6479625 0.245175,0.4115438 0.245175,0.9412969 0,0.1926374 -0.04378,0.4421904 -0.0394,0.249553 -0.135722,0.407166 0.100697,0.01313 0.245175,0.02189 0.144478,0.0088 0.345872,0.0088 h 0.131344 V 11.955 h -0.126966 q -0.520997,0 -0.875625,-0.135722 -0.354628,-0.1401 -0.634828,-0.328359 -0.455325,0.201393 -1.059506,0.332737 -0.599804,0.131344 -1.2609,0.131344 z m 1.549856,-2.727572 q -0.337116,0 -0.67861,0.2145281 -0.341493,0.21015 -0.65234,0.5472657 -0.310847,0.3327372 -0.564778,0.7005002 h 0.398409 q 0.591047,0 1.094531,-0.05692 0.507863,-0.06129 0.814332,-0.23204 0.306468,-0.170747 0.306468,-0.507863 0,-0.3020906 -0.205772,-0.4815937 Q 56.809862,9.227428 56.499015,9.227428 Z M 48.806644,4.8142779 49.594706,5.6023404 48.806644,6.3860248 48.02296,5.6023404 Z m -0.332738,5.8754441 q 0.5604,0 0.853735,-0.08756 0.297712,-0.08756 0.30209,-0.433434 -0.319603,0.06129 -0.678609,0.06129 -0.774928,0 -1.225875,-0.3196035 -0.450947,-0.3239812 -0.450947,-1.05075 0,-0.3546281 0.113831,-0.7005 0.11821,-0.35025 0.332738,-0.6348281 0.218906,-0.2889563 0.520997,-0.4597032 0.306469,-0.175125 0.682987,-0.175125 0.485972,0 0.831844,0.245175 0.35025,0.2407969 0.569156,0.6479625 0.218907,0.4071657 0.319603,0.91065 0.105075,0.4991063 0.105075,1.0201032 0,0.9106501 -0.249553,1.3966221 -0.245175,0.481594 -0.761793,0.665475 Q 49.226944,11.955 48.421369,11.955 h -1.61115 V 10.689722 Z M 48.93361,9.157378 q 0.166368,0 0.332737,-0.017512 0.170747,-0.017513 0.332738,-0.052538 -0.03065,-0.21015 -0.113832,-0.4334344 -0.08318,-0.2276625 -0.223284,-0.385275 -0.1401,-0.1576125 -0.345872,-0.1576125 -0.271444,0 -0.4203,0.2232844 -0.144478,0.2189062 -0.144478,0.4728375 0,0.2320406 0.170747,0.2933344 0.170747,0.056916 0.411544,0.056916 z m -3.524388,0.2057719 q 0,0.7661721 0.144479,1.5060751 0.144478,0.739903 0.437812,1.335328 0.297713,0.595425 0.744281,0.928163 l -0.262687,0.696121 q -0.674231,-0.30209 -1.164581,-0.967565 -0.485972,-0.665475 -0.753038,-1.567369 -0.262687,-0.901894 -0.262687,-1.9088625 0,-0.7530375 0.148856,-1.4579156 0.153234,-0.7092563 0.433434,-1.3134376 0.284578,-0.6041812 0.687366,-1.0463719 0.407165,-0.4465687 0.91065,-0.6698531 l 0.262687,0.6961219 q -0.446568,0.3283594 -0.744281,0.9281625 -0.293334,0.595425 -0.437812,1.3353282 -0.144479,0.7399031 -0.144479,1.506075 z"
         id="path18" />
    </g>
    <path
       id="path2"
       d="M 301.85216,141.73404 H 151.69678 c -5.50235,0 -9.96277,-4.4604 -9.96277,-9.96277 V 95.00319 c 0,-5.50235 4.46042,-9.96277 9.96277,-9.96277 h 150.15538 c 5.50236,0 9.96277,4.46042 9.96277,9.96277 v 36.76808 c 0,5.50237 -4.46041,9.96277 -9.96277,9.96277 z"
       style="fill:#d9e8e0;fill-opacity:1;fill-rule:nonzero;stroke:#006633;stroke-width:1.99255;stroke-linecap:butt;stroke-linejoin:miter;stroke-miterlimit:10;stroke-dasharray:none;stroke-opacity:1"
       transform="matrix(1.3333333,0,0,-1.3333333,134.64,210.23067)" />
    <g
       id="text2"
       transform="matrix(1.3333333,0,0,1.3333333,385.02,54.265333)"
       aria-label="؟دﺮﮐناﻮﺗ ﯽﻣﻪﭼ.۲(۶،۴لﻮﺼﻓ)">
      <path
         style="font-weight:800;font-size:9.9626px;font-family:Vazirmatn"
         d="m 60.991738,-4.9083316 q 0,-0.574017 0.287008,-1.006962 0.287009,-0.432945 0.754005,-0.6761725 0.471862,-0.2432276 1.016691,-0.2432276 0.432945,0 0.880484,0.1751238 0.452403,0.1702593 0.851296,0.5594234 l -0.603204,1.1237112 q -0.282144,-0.2529567 -0.564288,-0.3648413 -0.282144,-0.1167492 -0.525371,-0.1167492 -0.345383,0 -0.583746,0.1653947 -0.233499,0.1653947 -0.233499,0.3940286 0,0.2043111 0.145937,0.3648413 0.145936,0.1556656 0.359977,0.3259249 0.218904,0.1653947 0.432945,0.3842995 0.21404,0.2189048 0.359976,0.5399651 0.145937,0.3210603 0.145937,0.7929218 v 0.1118846 h -1.308564 v -0.1070201 q 0,-0.3697058 -0.145937,-0.5837461 -0.141072,-0.2140402 -0.350247,-0.3599767 -0.209176,-0.1508011 -0.423216,-0.3161958 -0.209176,-0.1653947 -0.355113,-0.432945 -0.141071,-0.2724149 -0.141071,-0.7296826 z m 1.172356,4.04730613 q 0,-0.36484133 0.262686,-0.60806883 0.262686,-0.2480921 0.632392,-0.2480921 0.37457,0 0.632391,0.2480921 0.257821,0.2432275 0.257821,0.60806883 0,0.36970585 -0.262685,0.61293339 -0.257822,0.24322753 -0.627527,0.24322753 -0.379435,0 -0.637257,-0.24322753 -0.257821,-0.24322754 -0.257821,-0.61293339 z M 57.367648,-1.3912615 q 0.398893,0 0.778328,-0.05351 0.384299,-0.058375 0.632392,-0.2140403 0.252956,-0.1556656 0.252956,-0.4524032 0,-0.3064667 -0.296737,-0.6518498 -0.291873,-0.3502476 -0.778329,-0.6859016 -0.48159,-0.335654 -1.050742,-0.6032043 l 0.598339,-1.2647832 q 0.515643,0.2529567 1.006962,0.5691525 0.496184,0.3113312 0.890213,0.6956307 0.398893,0.3842995 0.632392,0.8512964 0.238363,0.4669968 0.238363,1.0312847 0,0.7783281 -0.355113,1.25505408 -0.350247,0.47672596 -0.987503,0.69076619 -0.637257,0.21404023 -1.488553,0.21404023 -0.389164,0 -0.724818,-0.02432275 -0.335654,-0.02918731 -0.656714,-0.10215557 V -1.537198 q 0.316196,0.063239 0.676172,0.1070201 0.364842,0.038916 0.632392,0.038916 z M 54.844189,0 Q 54.401515,0 54.114507,-0.17025927 53.919925,0.94858738 53.15619,1.67827 52.39732,2.4079526 51.127672,2.6511801 l -0.48159,-1.298835 q 0.70536,-0.1508011 1.211273,-0.40375772 0.510778,-0.24809208 0.788057,-0.66644344 0.27728,-0.41835136 0.27728,-1.07993025 0,-0.44267409 -0.141072,-0.99236829 -0.141072,-0.5545588 -0.301602,-1.0312848 l 1.308564,-0.4232159 0.282144,1.0993885 q 0.0827,0.3113312 0.243227,0.5253714 0.16053,0.2140403 0.476726,0.2140403 h 0.189718 V 0 Z m -5.89097,-4.4948448 q 0.65185,0.389164 1.152899,0.7637344 0.505913,0.3697059 0.792922,0.7977864 0.287008,0.4280804 0.287008,0.9875037 0,0.7637345 -0.350247,1.1869504 -0.350248,0.4232159 -0.98264,0.59347518 Q 49.22077,0 48.379202,0 h -1.18695 v -1.4058551 h 1.182086 q 0.778328,0 1.167492,-0.1070202 0.389164,-0.1118846 0.389164,-0.4524032 0,-0.1605301 -0.238363,-0.3697058 -0.238363,-0.2140402 -0.59834,-0.4475387 -0.355112,-0.238363 -0.729682,-0.4669968 -0.369706,-0.2334985 -0.642121,-0.4280805 -0.204311,-0.1459365 -0.311331,-0.3891641 -0.102156,-0.2432275 -0.102156,-0.4961841 0,-0.2724149 0.126479,-0.5107778 0.126478,-0.238363 0.394028,-0.3453831 l 3.755433,-1.5323335 v 1.3912615 z M 47.463965,0 h -0.773464 v -1.4058551 h 0.778328 q 0.369706,0 0.505914,-0.2286339 0.141072,-0.2334985 0.141072,-0.5886107 0,-0.3307894 -0.0827,-0.7199535 -0.07783,-0.3940286 -0.16053,-0.768599 l 1.274512,-0.3307894 q 0.09243,0.4572678 0.145937,0.909671 0.05837,0.4475386 0.05837,0.8561609 0,0.6469852 -0.175123,1.1626276 -0.175124,0.51564237 -0.588611,0.81724451 Q 48.179054,0 47.463965,0 Z m 0.574017,-6.3433741 0.875619,0.8756192 -0.875619,0.8707545 -0.870755,-0.8707545 z M 44.676578,-6.8201 h 1.313429 v 4.4461993 q 0,0.5156423 0.150801,0.7442762 0.150801,0.2237694 0.622663,0.2237694 h 0.121613 V 0 H 46.763471 Q 45.673811,0 45.172762,-0.56428788 44.676578,-1.1285758 44.676578,-2.2571515 Z m -2.933325,2.7971166 q 0.612933,0 1.041014,0.3648413 0.42808,0.3648413 0.671308,0.963181 0.243227,0.5934752 0.291873,1.289106 h 0.364841 V 0 h -0.462132 q -0.27728,1.1091176 -1.08966,1.7415091 -0.81238,0.6372562 -2.218235,0.909671 l -0.48159,-1.298835 Q 40.473605,1.2355959 40.994112,1.0410138 41.519484,0.84643182 41.87946,0.58374608 42.244302,0.32106034 42.365915,0 h -0.457267 q -0.98264,0 -1.498282,-0.40862226 -0.515642,-0.4134868 -0.515642,-1.33288684 0,-0.3599768 0.111884,-0.7540054 0.111885,-0.3988931 0.340519,-0.7442762 0.228634,-0.3502477 0.574017,-0.5642879 0.350248,-0.2189048 0.822109,-0.2189048 z m 0.16053,2.6171283 h 0.622663 q -0.02919,-0.2724149 -0.11675,-0.5594234 -0.0827,-0.2870085 -0.248092,-0.4815905 -0.16053,-0.194582 -0.42808,-0.194582 -0.228634,0 -0.364841,0.1459365 -0.131343,0.141072 -0.189718,0.3405186 -0.05351,0.194582 -0.05351,0.3599767 0,0.2578212 0.21404,0.3259249 0.218905,0.063239 0.564288,0.063239 z m -5.171017,-4.8888735 0.826973,0.8172446 0.817245,-0.8172446 0.831838,0.8269737 -0.831838,0.8367027 -0.817245,-0.8269736 -0.826973,0.8269736 -0.826974,-0.8367027 z M 37.209491,0 h -0.987503 v -1.4058551 h 0.992368 q 0.369706,0 0.505913,-0.2286339 0.141072,-0.2334985 0.141072,-0.5886107 0,-0.3307894 -0.0827,-0.7199535 -0.07783,-0.3940286 -0.16053,-0.768599 l 1.274512,-0.3307894 q 0.09243,0.4572678 0.145937,0.909671 0.05837,0.4475386 0.05837,0.8561609 0,0.6469852 -0.175124,1.1626276 -0.175124,0.51564237 -0.58861,0.81724451 Q 37.92458,0 37.209491,0 Z m -8.94034,2.500379 q -1.070202,0 -1.746374,-0.4134868 -0.671308,-0.4134868 -0.992368,-1.10911752 -0.316196,-0.69076619 -0.316196,-1.53719801 0,-0.48159047 0.09243,-1.00696197 0.09729,-0.5253715 0.301602,-1.0702012 l 1.182086,0.4280805 q -0.145936,0.4232159 -0.233498,0.8415673 -0.08756,0.41835132 -0.08756,0.78805717 0,0.47186142 0.165395,0.85129637 0.170259,0.3842995 0.564287,0.60806883 0.394029,0.22863393 1.070202,0.22863393 0.773463,0 1.24046,-0.16053022 0.466997,-0.16053017 0.676173,-0.35997675 0.21404,-0.19944658 0.21404,-0.31133124 0,-0.17025928 -0.165395,-0.22376933 Q 30.073899,0 29.718787,0 H 28.950188 Q 28.750741,0 28.697231,-0.10215556 28.643721,-0.20431113 28.595075,-0.3745704 L 28.3859,-1.1285758 q -0.03405,-0.1216137 -0.02432,-0.1994465 0.01459,-0.077833 0.189717,-0.077833 h 2.938189 V 0 h 0.03892 q 0.04378,0.17025927 0.04378,0.27241484 0,0.59347518 -0.394028,1.09938846 Q 30.788988,1.8825811 30.049576,2.1890478 29.315029,2.500379 28.269151,2.500379 Z M 22.689512,0.11188467 q -0.505914,0 -0.948588,-0.21404023 -0.437809,-0.21890478 -0.856161,-0.53996513 -0.26755,0.26755029 -0.559423,0.45726776 Q 20.038331,0 19.483773,0 h -0.214041 v -1.4058551 h 0.189718 q 0.238363,0 0.42808,-0.184853 0.194582,-0.1848529 0.369706,-0.4767259 0.179989,-0.2967376 0.374571,-0.6226625 0.199446,-0.3307895 0.442674,-0.6226625 0.248092,-0.2967376 0.574017,-0.4815905 0.325925,-0.1848529 0.763734,-0.1848529 0.612934,0 1.060472,0.291873 0.447539,0.2870085 0.690766,0.7637345 0.243228,0.4718614 0.243228,1.0312847 0,0.574017 -0.189718,1.02642018 -0.189717,0.45240321 -0.574017,0.71508895 -0.379434,0.26268574 -0.953451,0.26268574 z M 22.456013,-2.641451 q -0.199446,0 -0.359977,0.1362074 -0.16053,0.1313429 -0.282144,0.3210604 -0.121613,0.1897174 -0.204311,0.3599767 0.141072,0.1264783 0.267551,0.2189048 0.126478,0.092426 0.243227,0.1605302 0.175124,0.097291 0.32106,0.1362074 0.145937,0.038916 0.252957,0.038916 0.257821,0 0.369706,-0.1848529 0.111885,-0.1897175 0.111885,-0.4280805 0,-0.3064667 -0.189718,-0.530236 Q 22.796532,-2.641451 22.456013,-2.641451 Z M 21.754816,0 q -0.681037,0 -1.118847,-0.25782119 -0.437809,-0.26268573 -0.632391,-0.85616091 -0.559423,0.43780956 -1.221002,0.43780956 -0.807516,0 -1.347481,-0.43780956 -0.539965,-0.4426741 -0.539965,-1.3036996 0,-0.6323916 0.364841,-1.0799302 0.364842,-0.4524032 0.938859,-0.7588699 0.578881,-0.3064667 1.206408,-0.4961842 l -0.03405,-0.2334984 1.177222,-0.238363 0.462132,3.1230415 q 0.04378,0.2967376 0.228634,0.4961842 0.189717,0.1994466 0.5351,0.1994466 h 0.150801 V 0 Z m -2.018788,-2.6122637 q 0,-0.068104 -0.01459,-0.1508011 -0.0097,-0.087562 -0.02432,-0.1799884 l -0.0827,-0.5107778 q -0.345383,0.1167492 -0.681037,0.2724149 -0.33079,0.150801 -0.549695,0.335654 -0.21404,0.1799883 -0.21404,0.389164 0,0.1994466 0.16053,0.3259249 0.165395,0.1216138 0.428081,0.1216138 0.223769,0 0.447539,-0.063239 0.228633,-0.068104 0.379434,-0.1994466 0.150802,-0.1362074 0.150802,-0.3405185 z M 13.791547,0.48159052 14.574739,1.2647832 13.791547,2.0479758 13.008354,1.2647832 Z m -1.697729,0 0.778329,0.78319268 -0.778329,0.7831926 -0.783192,-0.7831926 z M 12.94025,1.7269155 13.723443,2.5101081 12.94025,3.2884362 12.157058,2.5101081 Z M 9.6031685,-1.4058551 h 0.8269735 q 0.627527,0 1.167492,-0.1167493 0.539965,-0.1216137 1.109118,-0.3599767 0.574017,-0.238363 1.303699,-0.5934752 -0.74914,-0.2724148 -1.211273,-0.4572677 -0.462132,-0.1897175 -0.632391,-0.1897175 -0.262686,0 -0.476726,0.1653947 -0.209176,0.1605302 -0.345383,0.3405185 l -0.257822,0.3259249 -1.0896589,-0.5351005 0.2189049,-0.3502477 q 0.345383,-0.5642879 0.826973,-0.9339937 0.481591,-0.3745704 1.128576,-0.3745704 0.272415,0 0.632392,0.1264783 0.364841,0.1264783 0.778328,0.3161958 0.418351,0.1848529 0.861025,0.3745704 0.447539,0.1848529 0.880484,0.3161958 0.43781,0.1313429 0.836703,0.1362074 v 1.2891059 q -0.369706,0.048645 -0.685902,0.1653948 -0.316196,0.1118846 -0.656714,0.2870084 -0.340519,0.1751239 -0.792922,0.4183514 -0.622662,0.33078945 -1.177221,0.56915243 -0.549694,0.23836299 -1.133441,0.3648413 Q 11.135502,0 10.415548,0 H 9.6031685 Z m 0.9820945,0.54969418 q 0,-0.36484128 0.262686,-0.60806878 0.262686,-0.2480921 0.632392,-0.2480921 0.37457,0 0.632391,0.2480921 0.262686,0.2432275 0.262686,0.60806878 0,0.36970585 -0.262686,0.61293339 Q 11.850046,0 11.480341,0 11.100906,0 10.843084,-0.24322753 10.585263,-0.48645507 10.585263,-0.85616092 Z M 75.016238,-6.5768725 q 0.02432,0.2237693 0.03892,0.4718614 0.01946,0.2432276 0.01946,0.4718614 0,0.7004953 -0.184853,1.2355959 -0.179989,0.5351006 -0.603204,0.8367027 -0.423216,0.3016022 -1.148034,0.3016022 -0.136208,0 -0.345384,-0.00973 -0.204311,-0.014594 -0.389164,-0.05351 0.06324,0.627527 0.08756,1.2210022 0.02432,0.5886106 0.02432,1.13344032 V 0 h -1.332887 v -0.98263923 q 0,-1.15776307 -0.08756,-2.08689227 -0.08756,-0.9339937 -0.287008,-1.7074572 -0.199447,-0.7783282 -0.530236,-1.4642298 l 1.245325,-0.4475387 q 0.145936,0.3551122 0.248092,0.6275271 0.102155,0.2724148 0.243227,0.6177979 0.11675,0.2772794 0.233499,0.4475387 0.121614,0.1653947 0.311331,0.2432275 0.194582,0.072968 0.530236,0.072968 0.389164,0 0.578882,-0.2237694 0.189717,-0.2237693 0.189717,-0.5642878 0,-0.2675503 -0.03405,-0.5107779 -0.02919,-0.248092 -0.0681,-0.4815905 z"
         id="path19" />
      <path
         style="font-weight:800;font-size:8.9664px;font-family:Vazirmatn"
         d="m 16.520562,9.3631499 q 0,-0.7661719 -0.144478,-1.506075 Q 16.231606,7.1171717 15.938271,6.5217467 15.644937,5.9219436 15.19399,5.5935842 l 0.262688,-0.6961219 q 0.674231,0.2977125 1.160203,0.9719438 0.49035,0.6742312 0.753037,1.5805031 0.267066,0.9062719 0.267066,1.9132407 0,1.0069691 -0.267066,1.9176191 -0.262687,0.906272 -0.753037,1.576125 -0.485972,0.669853 -1.160203,0.971943 L 15.19399,13.132716 q 0.450947,-0.332738 0.744281,-0.928163 0.293335,-0.595425 0.437813,-1.335328 0.144478,-0.739903 0.144478,-1.5060751 z M 19.95739,9.5995686 Q 19.379478,9.4419561 18.985447,9.087328 18.595793,8.7283217 18.595793,8.0847374 q 0,-0.5779125 0.245175,-1.0463719 0.245175,-0.4728375 0.687366,-0.7486594 0.446569,-0.2802 1.037616,-0.2802 0.4203,0 0.735525,0.1313437 0.319603,0.1313438 0.591047,0.3371157 L 21.502868,7.5024467 Q 21.314609,7.3929936 21.086947,7.2966748 20.859284,7.195978 20.614109,7.195978 q -0.214528,0 -0.4203,0.1006968 -0.201394,0.096319 -0.337116,0.2670657 -0.135721,0.1663687 -0.135721,0.3808969 0,0.1313437 0.126965,0.245175 0.126966,0.1138312 0.315225,0.2013937 0.18826,0.087563 0.385275,0.1401 0.197016,0.052537 0.337116,0.061294 0.0088,0 0.0394,-0.017513 0.03502,-0.021891 0.0394,-0.026269 0.323981,-0.2013937 0.617316,-0.4071656 0.293334,-0.2057719 0.65234,-0.385275 l 0.323982,1.1689594 q -0.547266,0.3371156 -1.024482,0.7749281 -0.472837,0.4378125 -0.936918,1.0419935 -0.459704,0.599803 -0.971944,1.440403 l -1.063885,-0.459703 q 0.275822,-0.529753 0.634829,-1.059506 0.363384,-0.534131 0.761793,-1.0638844 z m 7.311049,-0.21015 q -0.25831,0.2364188 -0.429057,0.49035 -0.170746,0.2539314 -0.227662,0.5998034 0.542887,0.105075 0.542887,0.726769 0,0.35025 -0.201393,0.551643 -0.197016,0.197016 -0.5604,0.197016 -0.424678,0 -0.639207,-0.232041 -0.21015,-0.236418 -0.21015,-0.647962 0,-0.691744 0.306469,-1.2346315 0.306469,-0.5428875 0.809953,-0.9325406 z m 4.185487,-2.2372219 q -0.35025,0 -0.538509,0.2758219 -0.183882,0.2714438 -0.183882,0.595425 0,0.1182094 0.249554,0.2013938 0.253931,0.078806 0.617315,0.078806 0.267066,0 0.5604,-0.052537 0.297713,-0.056916 0.564778,-0.1838812 l 0.161991,1.1689594 q -0.376519,0.1795031 -0.731147,0.2320406 -0.354628,0.052538 -0.608559,0.052538 -0.450947,0 -0.897516,-0.1182094 -0.446569,-0.1182094 -0.744281,-0.3064687 0.06129,0.5560218 0.07443,1.0901527 0.01751,0.534132 0.01751,0.936919 V 11.955 h -1.199606 v -0.844978 q 0,-1.5629909 -0.183881,-2.7056815 -0.183881,-1.1426907 -0.634828,-2.066475 l 1.138312,-0.4071657 0.402788,1.1820938 q 0.08318,0.2320406 0.1401,0.3808969 0.06129,0.1488562 0.144478,0.2364187 0.02627,-0.4640812 0.223284,-0.8537344 0.201394,-0.3940312 0.551644,-0.6348281 0.35025,-0.2407969 0.823088,-0.2407969 0.455325,0 0.753037,0.1357219 0.302091,0.1357219 0.547266,0.3283594 l -0.385275,0.9631875 q -0.223285,-0.1313438 -0.4203,-0.2013938 -0.197016,-0.074428 -0.442191,-0.074428 z m 30.641657,4.0760343 q 0,1.383488 -0.573534,2.140903 -0.573534,0.757416 -1.882594,0.757416 -1.287168,0 -1.935131,-0.687366 -0.647962,-0.687365 -0.647962,-1.921997 0,-0.507862 0.118209,-1.055128 0.122587,-0.5472654 0.323981,-1.0507497 l 1.063885,0.4071656 q -0.148857,0.3940311 -0.267066,0.8537341 -0.118209,0.459703 -0.118209,0.849357 0,0.647962 0.359006,0.998212 0.363384,0.354628 1.103287,0.354628 0.499107,0 0.774928,-0.192637 0.2802,-0.18826 0.389654,-0.53851 0.113831,-0.35025 0.113831,-0.836222 V 5.8168686 h 1.177715 z M 54.652769,8.3342905 q 0.551644,0 0.936919,0.3283594 0.385275,0.3283594 0.604181,0.8668687 0.218907,0.5341314 0.262688,1.1602034 h 0.328359 V 11.955 h -0.415922 q -0.249553,0.998212 -0.9807,1.567369 -0.731147,0.573534 -1.996425,0.818709 l -0.433434,-1.168959 q 0.551644,-0.105075 1.020103,-0.2802 0.472837,-0.175125 0.796819,-0.411544 0.328359,-0.236419 0.437812,-0.525375 h -0.411544 q -0.884381,0 -1.348462,-0.367763 -0.464081,-0.37214 -0.464081,-1.199606 0,-0.323981 0.100697,-0.6786092 0.100696,-0.3590063 0.306468,-0.6698532 0.205772,-0.315225 0.516619,-0.5078625 0.315225,-0.1970156 0.739903,-0.1970156 z m 0.144478,2.3554315 h 0.5604 Q 55.331379,10.444547 55.252572,10.186237 55.178144,9.927928 55.029288,9.752803 54.88481,9.577678 54.644013,9.577678 q -0.205772,0 -0.328359,0.1313438 -0.11821,0.1269656 -0.170747,0.3064692 -0.04816,0.175125 -0.04816,0.323981 0,0.23204 0.192638,0.293334 0.197015,0.05692 0.507862,0.05692 z M 48.759812,11.955 h -0.23204 q -0.726769,0 -1.252144,-0.126966 -0.525375,-0.131343 -0.849356,-0.44219 -0.245175,0.267065 -0.582291,0.4203 Q 45.506865,11.955 45.012137,11.955 h -0.179503 l 0.0044,-1.265278 h 0.175125 q 0.520997,0 0.691744,-0.161991 0.175125,-0.166369 0.175125,-0.6085592 0,-0.2495532 -0.01751,-0.49035 -0.01313,-0.245175 -0.03065,-0.4772157 l 1.094531,-0.1357219 0.08318,1.2477658 q 0.01751,0.175125 0.07005,0.306469 0.05692,0.126965 0.153235,0.148856 0.297712,-0.49035 0.63045,-0.9456751 0.332737,-0.455325 0.704878,-0.8143313 0.376518,-0.3590062 0.801197,-0.5647781 0.429056,-0.21015 0.91065,-0.21015 0.556022,0 0.9807,0.2364187 0.429056,0.2364188 0.669853,0.6479625 0.245175,0.4115438 0.245175,0.9412969 0,0.1926374 -0.04378,0.4421904 -0.0394,0.249553 -0.135722,0.407166 0.100697,0.01313 0.245175,0.02189 0.144478,0.0088 0.345872,0.0088 h 0.131343 V 11.955 h -0.126965 q -0.520997,0 -0.875625,-0.135722 -0.354628,-0.1401 -0.634828,-0.328359 -0.455325,0.201393 -1.059507,0.332737 -0.599803,0.131344 -1.2609,0.131344 z m 1.549856,-2.727572 q -0.337115,0 -0.678609,0.2145281 -0.341494,0.21015 -0.652341,0.5472657 -0.310846,0.3327372 -0.564778,0.7005002 h 0.39841 q 0.591047,0 1.094531,-0.05692 0.507862,-0.06129 0.814331,-0.23204 0.306469,-0.170747 0.306469,-0.507863 0,-0.3020906 -0.205772,-0.4815937 Q 50.620515,9.227428 50.309668,9.227428 Z M 42.617305,4.8142779 43.405368,5.6023404 42.617305,6.3860248 41.833621,5.6023404 Z m -0.332737,5.8754441 q 0.5604,0 0.853734,-0.08756 0.297713,-0.08756 0.302091,-0.433434 -0.319603,0.06129 -0.67861,0.06129 -0.774928,0 -1.225875,-0.3196035 -0.450947,-0.3239812 -0.450947,-1.05075 0,-0.3546281 0.113832,-0.7005 0.118209,-0.35025 0.332737,-0.6348281 0.218906,-0.2889563 0.520997,-0.4597032 0.306469,-0.175125 0.682988,-0.175125 0.485971,0 0.831843,0.245175 0.35025,0.2407969 0.569157,0.6479625 0.218906,0.4071657 0.319603,0.91065 0.105075,0.4991063 0.105075,1.0201032 0,0.9106501 -0.249553,1.3966221 -0.245175,0.481594 -0.761794,0.665475 Q 43.037605,11.955 42.23203,11.955 h -1.61115 v -1.265278 z m 0.459703,-1.532344 q 0.166369,0 0.332737,-0.017512 0.170747,-0.017513 0.332738,-0.052538 -0.03065,-0.21015 -0.113831,-0.4334344 -0.08319,-0.2276625 -0.223285,-0.385275 -0.1401,-0.1576125 -0.345872,-0.1576125 -0.271443,0 -0.4203,0.2232844 -0.144478,0.2189062 -0.144478,0.4728375 0,0.2320406 0.170747,0.2933344 0.170747,0.056916 0.411544,0.056916 z M 39.21988,9.3631499 q 0,0.7661721 0.144478,1.5060751 0.144478,0.739903 0.437813,1.335328 0.297712,0.595425 0.744281,0.928163 l -0.262688,0.696121 q -0.674231,-0.30209 -1.164581,-0.967565 -0.485972,-0.665475 -0.753037,-1.567369 -0.262688,-0.901894 -0.262688,-1.9088625 0,-0.7530375 0.148856,-1.4579156 0.153235,-0.7092563 0.433435,-1.3134376 0.284578,-0.6041812 0.687365,-1.0463719 0.407166,-0.4465687 0.91065,-0.6698531 l 0.262688,0.6961219 Q 40.099883,5.9219436 39.802171,6.5217467 39.508836,7.1171717 39.364358,7.8570749 39.21988,8.596978 39.21988,9.3631499 Z"
         id="path20" />
    </g>
    <path
       id="path4"
       d="M 75.07768,28.3468 H -75.07768 c -5.50235,0 -9.96277,-4.46042 -9.96277,-9.96277 v -36.76806 c 0,-5.50235 4.46042,-9.96277 9.96277,-9.96277 H 75.07768 c 5.50235,0 9.96277,4.46042 9.96277,9.96277 v 36.76806 c 0,5.50235 -4.46042,9.96277 -9.96277,9.96277 z"
       style="fill:#e8e0f0;fill-opacity:1;fill-rule:nonzero;stroke:#663399;stroke-width:1.99255;stroke-linecap:butt;stroke-linejoin:miter;stroke-miterlimit:10;stroke-dasharray:none;stroke-opacity:1"
       transform="matrix(1.3333333,0,0,-1.3333333,134.64,210.23067)" />
    <g
       id="text4"
       transform="matrix(1.3333333,0,0,1.3333333,59.129333,205.44933)"
       aria-label="؟دﻮﺷهﺎﺒﺘﺷاﺪﻧاﻮﺗ ﯽﻣﻪﭼ.۳(۸ﻞﺼﻓ)">
      <path
         style="font-weight:800;font-size:9.9626px;font-family:Vazirmatn"
         d="m 99.741036,-4.9083316 q 0,-0.574017 0.287004,-1.006962 0.28701,-0.432945 0.75401,-0.6761725 0.47186,-0.2432276 1.01669,-0.2432276 0.43295,0 0.88048,0.1751238 0.45241,0.1702593 0.8513,0.5594234 l -0.6032,1.1237112 q -0.28215,-0.2529567 -0.56429,-0.3648413 -0.28215,-0.1167492 -0.52537,-0.1167492 -0.34539,0 -0.58375,0.1653947 -0.2335,0.1653947 -0.2335,0.3940286 0,0.2043111 0.14594,0.3648413 0.14594,0.1556656 0.35998,0.3259249 0.2189,0.1653947 0.43294,0.3842995 0.21404,0.2189048 0.35998,0.5399651 0.14593,0.3210603 0.14593,0.7929218 v 0.1118846 h -1.30856 v -0.1070201 q 0,-0.3697058 -0.14594,-0.5837461 -0.14107,-0.2140402 -0.35024,-0.3599767 -0.20918,-0.1508011 -0.42322,-0.3161958 -0.20918,-0.1653947 -0.355112,-0.432945 -0.141072,-0.2724149 -0.141072,-0.7296826 z m 1.172354,4.04730613 q 0,-0.36484133 0.26269,-0.60806883 0.26268,-0.2480921 0.63239,-0.2480921 0.37457,0 0.63239,0.2480921 0.25782,0.2432275 0.25782,0.60806883 0,0.36970585 -0.26268,0.61293339 -0.25782,0.24322753 -0.62753,0.24322753 -0.37944,0 -0.63726,-0.24322753 -0.25782,-0.24322754 -0.25782,-0.61293339 z M 96.116942,-1.3912615 q 0.398893,0 0.778328,-0.05351 0.3843,-0.058375 0.632392,-0.2140403 0.252956,-0.1556656 0.252956,-0.4524032 0,-0.3064667 -0.296737,-0.6518498 -0.291873,-0.3502476 -0.778328,-0.6859016 -0.481591,-0.335654 -1.050743,-0.6032043 l 0.59834,-1.2647832 q 0.515642,0.2529567 1.006962,0.5691525 0.496184,0.3113312 0.890212,0.6956307 0.398893,0.3842995 0.632392,0.8512964 0.238363,0.4669968 0.238363,1.0312847 0,0.7783281 -0.355112,1.25505408 -0.350248,0.47672596 -0.987504,0.69076619 -0.637256,0.21404023 -1.488553,0.21404023 -0.389164,0 -0.724818,-0.02432275 -0.335654,-0.02918731 -0.656714,-0.10215557 V -1.537198 q 0.316196,0.063239 0.676173,0.1070201 0.364841,0.038916 0.632391,0.038916 z m -3.9792,-2.6317219 q 0.612934,0 1.041014,0.3648413 0.428081,0.3648413 0.671308,0.963181 0.243228,0.5934752 0.291873,1.289106 h 0.364841 V 0 h -0.462132 q -0.277279,1.1091176 -1.089659,1.7415091 -0.81238,0.6372562 -2.218235,0.909671 L 90.255161,1.3523451 Q 90.868095,1.2355959 91.388601,1.0410138 91.913973,0.84643182 92.27395,0.58374608 92.638791,0.32106034 92.760405,0 h -0.457268 q -0.982639,0 -1.498282,-0.40862226 -0.515642,-0.4134868 -0.515642,-1.33288684 0,-0.3599768 0.111885,-0.7540054 0.111884,-0.3988931 0.340518,-0.7442762 0.228634,-0.3502477 0.574017,-0.5642879 0.350248,-0.2189048 0.822109,-0.2189048 z m 0.16053,2.6171283 h 0.622663 q -0.02919,-0.2724149 -0.116749,-0.5594234 -0.0827,-0.2870085 -0.248092,-0.4815905 -0.160531,-0.194582 -0.428081,-0.194582 -0.228634,0 -0.364841,0.1459365 -0.131343,0.141072 -0.189718,0.3405186 -0.05351,0.194582 -0.05351,0.3599767 0,0.2578212 0.214041,0.3259249 0.218904,0.063239 0.564287,0.063239 z m -6.051497,-5.5407232 0.783193,0.7783281 -0.783193,0.7831926 -0.783193,-0.7831926 z m 0.851296,1.2404604 0.783193,0.7831926 -0.783193,0.7831927 -0.783192,-0.7831927 z m -1.697728,0 0.778328,0.7831926 -0.778328,0.7831927 -0.783193,-0.7831927 z M 85.205761,0 q -0.491319,0 -0.826973,-0.16539472 -0.33079,-0.17025928 -0.54483,-0.44753866 -0.26755,0.28214394 -0.637256,0.44753866 Q 82.826996,0 82.262708,0 h -0.447539 v -1.4058551 h 0.457268 q 0.535101,0 0.75887,-0.1313429 0.228634,-0.1313429 0.228634,-0.6323916 0,-0.077833 -0.0097,-0.2578212 -0.0097,-0.1799884 -0.02432,-0.3940286 -0.01459,-0.2189048 -0.02919,-0.3940286 l 1.221002,-0.1508011 0.102155,1.3134287 q 0.04378,0.6469853 0.695631,0.6469853 0.403758,0 0.539965,-0.1653948 0.136208,-0.1702592 0.136208,-0.5983397 0,-0.068104 -0.0097,-0.2480921 -0.0097,-0.1848529 -0.02432,-0.4037577 -0.01459,-0.2189048 -0.02919,-0.3940286 l 1.221002,-0.1508011 0.102155,1.3134287 q 0.01946,0.2967376 0.145937,0.4718614 0.131343,0.1751239 0.442674,0.1751239 0.291873,0 0.398893,-0.2286339 0.111885,-0.2334985 0.111885,-0.5545588 0,-0.2772794 -0.05351,-0.5691524 -0.04865,-0.2967376 -0.111885,-0.5351006 -0.05837,-0.2432275 -0.08756,-0.3551122 l 1.259919,-0.3453831 q 0.09729,0.3842995 0.16053,0.8221091 0.06324,0.432945 0.06324,0.8610254 0,0.6032043 -0.16053,1.1334403 -0.155666,0.52537151 -0.535101,0.85129641 Q 88.406635,0 87.749921,0 87.312112,0 87.010509,-0.17998837 86.713772,-0.35997675 86.509461,-0.62266248 86.261369,-0.35997675 85.945173,-0.17998837 85.633842,0 85.205761,0 Z m -4.286139,-3.7992141 -0.194582,-0.1702592 0.817244,-1.0458784 q 0.43781,0.3453831 0.870755,0.6956307 0.432945,0.3502477 0.788057,0.7248181 0.359977,0.3745704 0.574017,0.7880572 0.21404,0.4134868 0.21404,0.8804836 0,0.5934752 -0.262685,1.02155568 -0.262686,0.42808046 -0.724819,0.65671434 -0.462132,0.22863388 -1.060472,0.22863388 -1.006962,0 -1.532333,-0.49131962 -0.520507,-0.49618418 -0.520507,-1.24046038 0,-0.6080689 0.296738,-1.0799303 0.301602,-0.4767259 0.734547,-0.9680456 z m 1.829071,1.8825811 q 0,-0.1556656 -0.141072,-0.3453831 -0.136208,-0.194582 -0.340519,-0.3794349 -0.199446,-0.1848529 -0.384299,-0.3259249 -0.170259,0.1508011 -0.345383,0.3453831 -0.17026,0.194582 -0.287009,0.389164 -0.116749,0.1945821 -0.116749,0.3551122 0,0.2237694 0.21404,0.3502477 0.218905,0.1216138 0.588611,0.1216138 0.81238,0 0.81238,-0.5107779 z M 77.383091,-6.8201 h 1.313428 v 4.4461993 q 0,0.5156423 0.150801,0.7442762 0.150802,0.2237694 0.622663,0.2237694 h 0.121614 V 0 H 79.469983 Q 78.380324,0 77.879275,-0.56428788 77.383091,-1.1285758 77.383091,-2.2571515 Z m -4.217569,5.4142449 h 0.569152 q 0.535101,0 0.734547,-0.1799884 0.204311,-0.1848529 0.204311,-0.671308 0,-0.2870085 -0.01459,-0.5545588 -0.01459,-0.2724148 -0.03405,-0.530236 l 1.216138,-0.1508011 0.09729,1.3912615 q 0.02432,0.3697059 0.204311,0.5351006 0.179988,0.1605302 0.574017,0.1605302 h 0.102155 V 0 H 76.706915 Q 76.22046,0 75.870212,-0.17512382 75.524829,-0.35024765 75.301059,-0.63239159 75.004322,-0.335654 74.5957,-0.16539472 74.191942,0 73.734674,0 h -0.569152 z m 1.002097,1.97987208 0.875619,0.87561912 -0.875619,0.8707546 -0.870754,-0.8707546 z m -4.057027,-6.44066508 0.826974,0.8172445 0.817244,-0.8172445 0.831839,0.8269736 -0.831839,0.8367027 -0.817244,-0.8269736 -0.826974,0.8269736 -0.826973,-0.8367027 z m -0.510778,4.460793 h 0.681037 q 0.535101,0 0.734548,-0.1799884 0.204311,-0.1848529 0.204311,-0.671308 0,-0.2870085 -0.01459,-0.5545588 -0.01459,-0.2724148 -0.03405,-0.530236 l 1.216138,-0.1508011 0.09729,1.3912615 q 0.02432,0.3697059 0.204311,0.5351006 0.179988,0.1605302 0.574017,0.1605302 h 0.102156 V 0 H 73.253092 Q 72.766637,0 72.416389,-0.17512382 72.071006,-0.35024765 71.847237,-0.63239159 71.550499,-0.335654 71.141877,-0.16539472 70.738119,0 70.280851,0 h -0.681037 z m -3.546257,-5.5407232 0.783192,0.7783281 -0.783192,0.7831926 -0.783193,-0.7831926 z m 0.851296,1.2404604 0.783193,0.7831926 -0.783193,0.7831927 -0.783193,-0.7831927 z m -1.697728,0 0.778328,0.7831926 -0.778328,0.7831927 -0.783193,-0.7831927 z M 65.012543,0 Q 64.521223,0 64.185569,-0.16539472 63.85478,-0.335654 63.64074,-0.61293338 63.373189,-0.33078944 63.003483,-0.16539472 62.633778,0 62.06949,0 h -0.447539 v -1.4058551 h 0.457268 q 0.5351,0 0.75887,-0.1313429 0.228634,-0.1313429 0.228634,-0.6323916 0,-0.077833 -0.0097,-0.2578212 -0.0097,-0.1799884 -0.02432,-0.3940286 -0.01459,-0.2189048 -0.02919,-0.3940286 l 1.221003,-0.1508011 0.102155,1.3134287 q 0.04378,0.6469853 0.695631,0.6469853 0.403758,0 0.539965,-0.1653948 0.136208,-0.1702592 0.136208,-0.5983397 0,-0.068104 -0.0097,-0.2480921 -0.0097,-0.1848529 -0.02432,-0.4037577 -0.01459,-0.2189048 -0.02919,-0.3940286 l 1.221003,-0.1508011 0.102155,1.3134287 q 0.01946,0.2967376 0.145937,0.4718614 0.131343,0.1751239 0.442674,0.1751239 0.291873,0 0.398893,-0.2286339 0.111885,-0.2334985 0.111885,-0.5545588 0,-0.2772794 -0.05351,-0.5691524 -0.04865,-0.2967376 -0.111885,-0.5351006 -0.05837,-0.2432275 -0.08756,-0.3551122 l 1.259919,-0.3453831 q 0.09729,0.3842995 0.16053,0.8221091 0.06324,0.432945 0.06324,0.8610254 0,0.6032043 -0.16053,1.1334403 -0.155666,0.52537151 -0.535101,0.85129641 Q 68.213417,0 67.556703,0 67.118893,0 66.817291,-0.17998837 66.520554,-0.35997675 66.316242,-0.62266248 66.06815,-0.35997675 65.751955,-0.17998837 65.440623,0 65.012543,0 Z m -3.954885,-6.8201 v 6.81523545 H 59.744229 V -6.8201 Z m -1.761433,4.7186141 q 0,-0.1216138 -0.05351,-0.3210603 -0.05351,-0.1994466 -0.111884,-0.3259249 l -0.963181,-2.1258087 1.157763,-0.5642878 1.211273,2.792252 q 0.145936,0.335654 0.257821,0.617798 0.116749,0.2821439 0.262686,0.4524032 0.150801,0.1702593 0.384299,0.1702593 h 0.204311 V 0 h -0.204311 q -0.544829,0 -0.880483,-0.20431113 -0.33079,-0.20917568 -0.583746,-0.53510057 -0.369706,0.3551122 -0.880484,0.54482967 -0.510778,0.18971748 -1.235596,0.18971748 -0.42808,0 -0.724818,-0.0291873 -0.296738,-0.02918731 -0.612933,-0.10702012 V -1.5469271 q 0.301602,0.072968 0.637256,0.1118847 0.340518,0.038916 0.627527,0.038916 0.359976,0 0.70536,-0.058375 0.345383,-0.063239 0.574017,-0.2189048 0.228633,-0.1556656 0.228633,-0.4280805 z M 53.838198,0 h -0.773464 v -1.4058551 h 0.778329 q 0.369705,0 0.505913,-0.2286339 0.141072,-0.2334985 0.141072,-0.5886107 0,-0.3307894 -0.0827,-0.7199535 -0.07783,-0.3940286 -0.16053,-0.768599 l 1.274513,-0.3307894 q 0.09243,0.4572678 0.145936,0.909671 0.05838,0.4475386 0.05838,0.8561609 0,0.6469852 -0.175124,1.1626276 -0.175124,0.51564237 -0.588611,0.81724451 Q 54.553287,0 53.838198,0 Z m 0.574017,-6.3433741 0.875619,0.8756192 -0.875619,0.8707545 -0.870755,-0.8707545 z M 52.500449,-6.8201 v 6.81523545 H 51.18702 V -6.8201 Z m -4.251619,2.7971166 q 0.612933,0 1.041014,0.3648413 0.42808,0.3648413 0.671308,0.963181 0.243227,0.5934752 0.291873,1.289106 h 0.364841 V 0 h -0.462132 q -0.277279,1.1091176 -1.089659,1.7415091 -0.81238,0.6372562 -2.218236,0.909671 l -0.48159,-1.298835 Q 46.979182,1.2355959 47.499689,1.0410138 48.025061,0.84643182 48.385037,0.58374608 48.749879,0.32106034 48.871493,0 h -0.457268 q -0.982639,0 -1.498282,-0.40862226 -0.515642,-0.4134868 -0.515642,-1.33288684 0,-0.3599768 0.111884,-0.7540054 0.111885,-0.3988931 0.340519,-0.7442762 0.228634,-0.3502477 0.574017,-0.5642879 0.350248,-0.2189048 0.822109,-0.2189048 z m 0.16053,2.6171283 h 0.622663 q -0.02919,-0.2724149 -0.11675,-0.5594234 -0.0827,-0.2870085 -0.248092,-0.4815905 -0.16053,-0.194582 -0.42808,-0.194582 -0.228634,0 -0.364841,0.1459365 -0.131343,0.141072 -0.189718,0.3405186 -0.05351,0.194582 -0.05351,0.3599767 0,0.2578212 0.21404,0.3259249 0.218905,0.063239 0.564288,0.063239 z m -5.171017,-4.8888735 0.826973,0.8172446 0.817245,-0.8172446 0.831838,0.8269737 -0.831838,0.8367027 -0.817245,-0.8269736 -0.826973,0.8269736 -0.826974,-0.8367027 z M 43.715069,0 h -0.987504 v -1.4058551 h 0.992368 q 0.369706,0 0.505913,-0.2286339 0.141072,-0.2334985 0.141072,-0.5886107 0,-0.3307894 -0.0827,-0.7199535 -0.07783,-0.3940286 -0.16053,-0.768599 l 1.274512,-0.3307894 q 0.09243,0.4572678 0.145937,0.909671 0.05837,0.4475386 0.05837,0.8561609 0,0.6469852 -0.175124,1.1626276 -0.175123,0.51564237 -0.58861,0.81724451 Q 44.430158,0 43.715069,0 Z m -8.940343,2.500379 q -1.070201,0 -1.746374,-0.4134868 -0.671308,-0.4134868 -0.992368,-1.10911752 -0.316196,-0.69076619 -0.316196,-1.53719801 0,-0.48159047 0.09243,-1.00696197 0.09729,-0.5253715 0.301603,-1.0702012 l 1.182085,0.4280805 q -0.145936,0.4232159 -0.233498,0.8415673 -0.08756,0.41835132 -0.08756,0.78805717 0,0.47186142 0.165395,0.85129637 0.170259,0.3842995 0.564288,0.60806883 0.394028,0.22863393 1.070201,0.22863393 0.773463,0 1.24046,-0.16053022 0.466997,-0.16053017 0.676173,-0.35997675 0.21404,-0.19944658 0.21404,-0.31133124 0,-0.17025928 -0.165395,-0.22376933 Q 36.579474,0 36.224362,0 h -0.768599 q -0.199447,0 -0.252957,-0.10215556 -0.05351,-0.10215557 -0.102155,-0.27241484 l -0.209176,-0.7540054 q -0.03405,-0.1216137 -0.02432,-0.1994465 0.01459,-0.077833 0.189718,-0.077833 h 2.938188 V 0 h 0.03892 q 0.04378,0.17025927 0.04378,0.27241484 0,0.59347518 -0.394029,1.09938846 Q 37.294563,1.8825811 36.555151,2.1890478 35.820604,2.500379 34.774726,2.500379 Z M 29.195087,0.11188467 q -0.505914,0 -0.948588,-0.21404023 -0.437809,-0.21890478 -0.856161,-0.53996513 -0.26755,0.26755029 -0.559423,0.45726776 Q 26.543907,0 25.989348,0 h -0.21404 v -1.4058551 h 0.189717 q 0.238363,0 0.428081,-0.184853 0.194582,-0.1848529 0.369705,-0.4767259 0.179989,-0.2967376 0.374571,-0.6226625 0.199446,-0.3307895 0.442674,-0.6226625 0.248092,-0.2967376 0.574017,-0.4815905 0.325925,-0.1848529 0.763734,-0.1848529 0.612934,0 1.060472,0.291873 0.447539,0.2870085 0.690767,0.7637345 0.243227,0.4718614 0.243227,1.0312847 0,0.574017 -0.189717,1.02642018 -0.189718,0.45240321 -0.574017,0.71508895 -0.379435,0.26268574 -0.953452,0.26268574 z M 28.961588,-2.641451 q -0.199446,0 -0.359976,0.1362074 -0.160531,0.1313429 -0.282144,0.3210604 -0.121614,0.1897174 -0.204311,0.3599767 0.141071,0.1264783 0.26755,0.2189048 0.126478,0.092426 0.243227,0.1605302 0.175124,0.097291 0.321061,0.1362074 0.145936,0.038916 0.252956,0.038916 0.257821,0 0.369706,-0.1848529 0.111885,-0.1897175 0.111885,-0.4280805 0,-0.3064667 -0.189718,-0.530236 Q 29.302107,-2.641451 28.961588,-2.641451 Z M 28.260393,0 q -0.681037,0 -1.118846,-0.25782119 -0.43781,-0.26268573 -0.632392,-0.85616091 -0.559423,0.43780956 -1.221002,0.43780956 -0.807516,0 -1.347481,-0.43780956 -0.539965,-0.4426741 -0.539965,-1.3036996 0,-0.6323916 0.364841,-1.0799302 0.364842,-0.4524032 0.938859,-0.7588699 0.578881,-0.3064667 1.206408,-0.4961842 l -0.03405,-0.2334984 1.177222,-0.238363 0.462132,3.1230415 q 0.04378,0.2967376 0.228634,0.4961842 0.189717,0.1994466 0.5351,0.1994466 h 0.150801 V 0 Z m -2.018788,-2.6122637 q 0,-0.068104 -0.01459,-0.1508011 -0.0097,-0.087562 -0.02432,-0.1799884 l -0.0827,-0.5107778 q -0.345383,0.1167492 -0.681037,0.2724149 -0.33079,0.150801 -0.549694,0.335654 -0.214041,0.1799883 -0.214041,0.389164 0,0.1994466 0.16053,0.3259249 0.165395,0.1216138 0.428081,0.1216138 0.223769,0 0.447539,-0.063239 0.228633,-0.068104 0.379435,-0.1994466 0.150801,-0.1362074 0.150801,-0.3405185 z m -5.94448,3.09385422 0.783192,0.78319268 -0.783192,0.7831926 -0.783193,-0.7831926 z m -1.697729,0 0.778329,0.78319268 -0.778329,0.7831926 -0.783192,-0.7831926 z m 0.846432,1.24532498 0.783193,0.7831926 -0.783193,0.7783281 -0.783192,-0.7783281 z m -3.337081,-3.1327706 h 0.826973 q 0.627527,0 1.167492,-0.1167493 0.539965,-0.1216137 1.109118,-0.3599767 0.574017,-0.238363 1.303699,-0.5934752 -0.74914,-0.2724148 -1.211273,-0.4572677 -0.462132,-0.1897175 -0.632391,-0.1897175 -0.262686,0 -0.476726,0.1653947 -0.209176,0.1605302 -0.345383,0.3405185 l -0.257822,0.3259249 -1.089659,-0.5351005 0.218905,-0.3502477 q 0.345383,-0.5642879 0.826974,-0.9339937 0.48159,-0.3745704 1.128575,-0.3745704 0.272415,0 0.632392,0.1264783 0.364841,0.1264783 0.778328,0.3161958 0.418351,0.1848529 0.861025,0.3745704 0.447539,0.1848529 0.880484,0.3161958 0.43781,0.1313429 0.836703,0.1362074 v 1.2891059 q -0.369706,0.048645 -0.685902,0.1653948 -0.316196,0.1118846 -0.656714,0.2870084 -0.340519,0.1751239 -0.792922,0.4183514 -0.622662,0.33078945 -1.177221,0.56915243 -0.549694,0.23836299 -1.133441,0.3648413 Q 17.64108,0 16.921126,0 h -0.812379 z m 0.972129,0.54969418 q 0,-0.36484128 0.262686,-0.60806878 0.262686,-0.2480921 0.632392,-0.2480921 0.37457,0 0.632391,0.2480921 0.262686,0.2432275 0.262686,0.60806878 0,0.36970585 -0.262686,0.61293339 Q 18.345659,0 17.975954,0 17.596519,0 17.338697,-0.24322753 17.080876,-0.48645507 17.080876,-0.85616092 Z M 116.82849,-3.2592489 q -0.32106,0 -0.63726,-0.1118847 -0.31133,-0.1167492 -0.48159,-0.3113313 -0.17026,0.1799884 -0.44267,0.3016022 -0.26756,0.1216138 -0.52051,0.1216138 -0.0681,0 -0.17026,0 -0.10216,-0.00486 -0.17026,-0.019458 0.0681,0.6323915 0.0876,1.1820858 0.0195,0.5496942 0.0195,1.12857572 V 0 h -1.33289 v -0.98263923 q 0,-1.15776307 -0.0876,-2.08689227 -0.0876,-0.9339937 -0.28701,-1.7074572 -0.19944,-0.7783282 -0.53023,-1.4642298 l 1.24532,-0.4475387 q 0.17513,0.4183514 0.28701,0.7491408 0.11188,0.3307895 0.29187,0.7588699 0.0876,0.2091757 0.21404,0.3551122 0.13135,0.1459366 0.3843,0.1459366 0.28701,0 0.36971,-0.2140403 0.0827,-0.2189047 0.0876,-0.6421207 l 0.01,-0.7345471 1.07507,-0.058375 0.0292,0.6956307 q 0.0243,0.5886107 0.14107,0.7734636 0.12162,0.1799884 0.36971,0.1799884 0.18485,0 0.27728,-0.1313429 0.0924,-0.1313429 0.12161,-0.3307894 0.0292,-0.1994466 0.0292,-0.4086223 0,-0.2432275 -0.0389,-0.4913196 -0.034,-0.2480921 -0.0584,-0.4183514 l 1.25505,-0.1167492 q 0.0243,0.2432275 0.0389,0.5010487 0.0195,0.2529567 0.0195,0.5010487 0,0.6080689 -0.1508,1.1383049 -0.14594,0.5253715 -0.49619,0.8512964 -0.34538,0.3259249 -0.94858,0.3259249 z"
         id="path21" />
      <path
         style="font-weight:800;font-size:8.9664px;font-family:Vazirmatn"
         d="m 40.828563,9.3631499 q 0,-0.7661719 -0.144478,-1.506075 Q 40.539606,7.1171717 40.246272,6.5217467 39.952938,5.9219436 39.501991,5.5935842 l 0.262687,-0.6961219 q 0.674232,0.2977125 1.160203,0.9719438 0.49035,0.6742312 0.753038,1.5805031 0.267066,0.9062719 0.267066,1.9132407 0,1.0069691 -0.267066,1.9176191 -0.262688,0.906272 -0.753038,1.576125 -0.485971,0.669853 -1.160203,0.971943 l -0.262687,-0.696121 q 0.450947,-0.332738 0.744281,-0.928163 0.293334,-0.595425 0.437813,-1.335328 0.144478,-0.739903 0.144478,-1.5060751 z m 3.870262,-3.1960313 h 1.133935 q 0.179503,1.1120437 0.520997,2.1409031 0.341493,1.0244813 0.744281,1.8738373 0.402787,0.849357 0.761794,1.431647 l -1.085775,0.591047 q -0.245175,-0.446569 -0.529754,-1.05075 -0.284578,-0.608559 -0.547265,-1.2871687 -0.25831,-0.6786094 -0.433435,-1.3353282 -0.293334,1.0989094 -0.718012,2.0533409 -0.4203,0.950053 -0.792441,1.619906 l -1.085775,-0.591047 q 0.359006,-0.58229 0.761794,-1.431647 0.402787,-0.849356 0.744281,-1.8782154 0.345872,-1.0288594 0.525375,-2.136525 z M 70.480344,14.12655 q -1.287168,0 -1.935131,-0.687366 -0.647962,-0.682987 -0.647962,-1.921997 0,-0.507862 0.118209,-1.055128 0.122587,-0.5472654 0.323981,-1.0507497 l 1.063885,0.4071656 q -0.148857,0.3940311 -0.267066,0.8537341 -0.118209,0.459703 -0.118209,0.849357 0,0.656718 0.359006,1.00259 0.363384,0.35025 1.103287,0.35025 0.499107,0 0.774928,-0.192637 0.2802,-0.18826 0.389654,-0.542888 0.113831,-0.35025 0.113831,-0.831844 V 5.8168686 h 1.177715 v 3.9052875 q 0,0.4246779 0.126966,0.6961219 0.131344,0.271444 0.547266,0.271444 h 0.135722 V 11.955 H 73.61946 q -0.240797,0 -0.407166,-0.05254 -0.16199,-0.05692 -0.306468,-0.157612 -0.08319,1.107666 -0.652341,1.742494 -0.564778,0.639206 -1.773141,0.639206 z M 63.667979,11.955 h -0.232041 q -0.726768,0 -1.252143,-0.126966 -0.525375,-0.131343 -0.849357,-0.44219 -0.245175,0.267065 -0.58229,0.4203 Q 60.415032,11.955 59.920304,11.955 h -0.179503 l 0.0044,-1.265278 h 0.175125 q 0.520997,0 0.691744,-0.161991 0.175125,-0.166369 0.175125,-0.6085592 0,-0.2495532 -0.01751,-0.49035 -0.01313,-0.245175 -0.03065,-0.4772157 l 1.094532,-0.1357219 0.08318,1.2477658 q 0.01751,0.175125 0.07005,0.306469 0.05692,0.126965 0.153234,0.148856 0.297713,-0.49035 0.63045,-0.9456751 0.332738,-0.455325 0.704879,-0.8143313 0.376518,-0.3590062 0.801196,-0.5647781 0.429057,-0.21015 0.910651,-0.21015 0.556021,0 0.9807,0.2364187 0.429056,0.2364188 0.669853,0.6479625 0.245175,0.4115438 0.245175,0.9412969 0,0.1926374 -0.04378,0.4421904 -0.0394,0.249553 -0.135721,0.407166 0.100696,0.01313 0.245175,0.02189 0.144478,0.0088 0.345871,0.0088 h 0.131344 V 11.955 h -0.126965 q -0.520997,0 -0.875625,-0.135722 -0.354629,-0.1401 -0.634829,-0.328359 -0.455325,0.201393 -1.059506,0.332737 -0.599803,0.131344 -1.2609,0.131344 z m 1.549856,-2.727572 q -0.337115,0 -0.678609,0.2145281 -0.341494,0.21015 -0.652341,0.5472657 -0.310847,0.3327372 -0.564778,0.7005002 h 0.39841 q 0.591046,0 1.094531,-0.05692 0.507862,-0.06129 0.814331,-0.23204 0.306469,-0.170747 0.306469,-0.507863 0,-0.3020906 -0.205772,-0.4815937 Q 65.528682,9.227428 65.217835,9.227428 Z M 57.52547,4.8142779 58.313533,5.6023404 57.52547,6.3860248 56.741786,5.6023404 Z m -0.332737,5.8754441 q 0.5604,0 0.853734,-0.08756 0.297713,-0.08756 0.302091,-0.433434 -0.319603,0.06129 -0.67861,0.06129 -0.774928,0 -1.225875,-0.3196035 -0.450947,-0.3239812 -0.450947,-1.05075 0,-0.3546281 0.113832,-0.7005 0.118209,-0.35025 0.332737,-0.6348281 0.218906,-0.2889563 0.520997,-0.4597032 0.306469,-0.175125 0.682988,-0.175125 0.485971,0 0.831843,0.245175 0.35025,0.2407969 0.569157,0.6479625 0.218906,0.4071657 0.319603,0.91065 0.105075,0.4991063 0.105075,1.0201032 0,0.9106501 -0.249553,1.3966221 -0.245175,0.481594 -0.761794,0.665475 Q 57.94577,11.955 57.140195,11.955 h -1.61115 v -1.265278 z m 0.459703,-1.532344 q 0.166369,0 0.332737,-0.017512 0.170747,-0.017513 0.332738,-0.052538 -0.03065,-0.21015 -0.113831,-0.4334344 -0.08319,-0.2276625 -0.223285,-0.385275 -0.1401,-0.1576125 -0.345872,-0.1576125 -0.271443,0 -0.4203,0.2232844 -0.144478,0.2189062 -0.144478,0.4728375 0,0.2320406 0.170747,0.2933344 0.170747,0.056916 0.411544,0.056916 z m -3.524391,0.2057719 q 0,0.7661721 0.144478,1.5060751 0.144478,0.739903 0.437813,1.335328 0.297712,0.595425 0.744281,0.928163 l -0.262688,0.696121 q -0.674231,-0.30209 -1.164581,-0.967565 -0.485972,-0.665475 -0.753038,-1.567369 -0.262687,-0.901894 -0.262687,-1.9088625 0,-0.7530375 0.148856,-1.4579156 0.153235,-0.7092563 0.433435,-1.3134376 0.284578,-0.6041812 0.687365,-1.0463719 0.407166,-0.4465687 0.91065,-0.6698531 l 0.262688,0.6961219 q -0.446569,0.3283594 -0.744281,0.9281625 -0.293335,0.595425 -0.437813,1.3353282 -0.144478,0.7399031 -0.144478,1.506075 z"
         id="path22" />
    </g>
    <path
       id="path6"
       d="M 301.85216,28.3468 H 151.69678 c -5.50235,0 -9.96277,-4.46042 -9.96277,-9.96277 v -36.76806 c 0,-5.50235 4.46042,-9.96277 9.96277,-9.96277 h 150.15538 c 5.50236,0 9.96277,4.46042 9.96277,9.96277 v 36.76806 c 0,5.50235 -4.46041,9.96277 -9.96277,9.96277 z"
       style="fill:#f4edda;fill-opacity:1;fill-rule:nonzero;stroke:#b8860b;stroke-width:1.99255;stroke-linecap:butt;stroke-linejoin:miter;stroke-miterlimit:10;stroke-dasharray:none;stroke-opacity:1"
       transform="matrix(1.3333333,0,0,-1.3333333,134.64,210.23067)" />
    <g
       id="text6"
       transform="matrix(1.3333333,0,0,1.3333333,378.90667,205.44933)"
       aria-label="؟ﺖﺴﯿﭼیﺪﻌﺑمﺎﮔ.۴(۹،۷لﻮﺼﻓ)">
      <path
         style="font-weight:800;font-size:9.9626px;font-family:Vazirmatn"
         d="m 74.688599,-4.9083316 q 0,-0.574017 0.287008,-1.006962 0.287009,-0.432945 0.754006,-0.6761725 0.471861,-0.2432276 1.016691,-0.2432276 0.432945,0 0.880483,0.1751238 0.452404,0.1702593 0.851297,0.5594234 l -0.603205,1.1237112 q -0.282143,-0.2529567 -0.564287,-0.3648413 -0.282144,-0.1167492 -0.525372,-0.1167492 -0.345383,0 -0.583746,0.1653947 -0.233498,0.1653947 -0.233498,0.3940286 0,0.2043111 0.145936,0.3648413 0.145937,0.1556656 0.359977,0.3259249 0.218905,0.1653947 0.432945,0.3842995 0.21404,0.2189048 0.359977,0.5399651 0.145936,0.3210603 0.145936,0.7929218 v 0.1118846 h -1.308564 v -0.1070201 q 0,-0.3697058 -0.145936,-0.5837461 -0.141072,-0.2140402 -0.350248,-0.3599767 -0.209176,-0.1508011 -0.423216,-0.3161958 -0.209176,-0.1653947 -0.355112,-0.432945 -0.141072,-0.2724149 -0.141072,-0.7296826 z m 1.172357,4.04730613 q 0,-0.36484133 0.262685,-0.60806883 0.262686,-0.2480921 0.632392,-0.2480921 0.37457,0 0.632391,0.2480921 0.257822,0.2432275 0.257822,0.60806883 0,0.36970585 -0.262686,0.61293339 -0.257821,0.24322753 -0.627527,0.24322753 -0.379435,0 -0.637256,-0.24322753 -0.257821,-0.24322754 -0.257821,-0.61293339 z m -7.102244,-4.47052203 0.826974,0.8172445 0.817244,-0.8172445 0.831839,0.8269736 -0.831839,0.8367027 -0.817244,-0.8269736 -0.826974,0.8269736 -0.826973,-0.8367027 z m 3.512206,1.9896012 1.216138,-0.1508011 0.09729,1.3912615 q 0.02432,0.3697059 0.194582,0.5351006 0.175123,0.1605302 0.574017,0.1605302 H 74.46483 V 0 H 74.352946 Q 73.793522,0 73.423816,-0.20431113 73.054111,-0.41348681 72.810883,-0.768599 72.368209,-0.35997675 71.730953,-0.17998837 71.098561,0 70.08187,0 h -0.81238 q -0.841567,0 -1.551791,-0.10215556 -0.70536,-0.10702012 -1.230732,-0.36970585 -0.520507,-0.26268574 -0.81238,-0.73454719 -0.287008,-0.4767259 -0.287008,-1.2161376 0,-0.4378096 0.09729,-0.8512964 0.09729,-0.4183514 0.243227,-0.7734636 l 1.172357,0.4426742 q -0.0827,0.2286338 -0.170259,0.530236 -0.0827,0.3016021 -0.0827,0.574017 0,0.486455 0.359977,0.7199535 0.359977,0.2334984 0.953452,0.3064666 0.59834,0.068104 1.308564,0.068104 h 0.81238 q 0.70536,0 1.206409,-0.05351 0.501048,-0.058375 0.763734,-0.238363 0.26755,-0.1848529 0.26755,-0.5691524 0,-0.2480921 -0.01459,-0.5448297 -0.01459,-0.2967376 -0.03405,-0.530236 z M 62.415338,0 Q 61.982393,0 61.680791,-0.17998837 61.379189,-0.35997675 61.174877,-0.62266248 60.926785,-0.35997675 60.61059,-0.17998837 60.299258,0 59.871178,0 59.379858,0 59.044204,-0.16539472 58.713415,-0.335654 58.499375,-0.61293338 58.231824,-0.33078944 57.862118,-0.16539472 57.492413,0 56.928125,0 h -0.447539 v -1.4058551 h 0.457268 q 0.5351,0 0.75887,-0.1313429 0.228634,-0.1313429 0.228634,-0.6323916 0,-0.077833 -0.0097,-0.2578212 -0.0097,-0.1799884 -0.02432,-0.3940286 -0.01459,-0.2189048 -0.02919,-0.3940286 l 1.221003,-0.1508011 0.102155,1.3134287 q 0.04378,0.6469853 0.695631,0.6469853 0.403758,0 0.539965,-0.1653948 0.136207,-0.1702592 0.136207,-0.5983397 0,-0.068104 -0.0097,-0.2480921 -0.0097,-0.1848529 -0.02432,-0.4037577 -0.01459,-0.2189048 -0.02919,-0.3940286 l 1.221003,-0.1508011 0.102155,1.3134287 q 0.01946,0.3016022 0.150801,0.476726 0.131343,0.1702593 0.43781,0.1702593 0.301602,0 0.408622,-0.1994466 0.111885,-0.1994466 0.111885,-0.5642879 0,-0.1751238 -0.01946,-0.5059133 -0.01946,-0.3307894 -0.04378,-0.6323915 l 1.221003,-0.1508011 0.102155,1.4058551 q 0.02432,0.3599768 0.199447,0.5059133 0.179988,0.141072 0.554559,0.141072 h 0.145936 V 0 H 64.949769 Q 64.50223,0 64.156847,-0.15566562 63.816328,-0.31133124 63.616882,-0.57888153 63.417435,-0.33078944 63.125562,-0.16539472 62.833689,0 62.415338,0 Z m -9.558842,-1.4058551 h 0.734547 q 0.535101,0 0.734547,-0.1799884 0.204312,-0.1848529 0.204312,-0.671308 0,-0.2870085 -0.01459,-0.5545588 -0.01459,-0.2724148 -0.03405,-0.530236 l 1.216138,-0.1508011 0.09729,1.3912615 q 0.02432,0.3697059 0.204311,0.5351006 0.179988,0.1605302 0.574017,0.1605302 h 0.102155 V 0 H 56.563284 Q 56.076829,0 55.726581,-0.17512382 55.381198,-0.35024765 55.157429,-0.63239159 54.860691,-0.335654 54.452069,-0.16539472 54.048311,0 53.591043,0 H 52.856496 Z M 52.982974,0.62266248 53.809948,1.439907 54.627193,0.62266248 55.459031,1.4496361 54.627193,2.2863388 53.809948,1.4593652 52.982974,2.2863388 52.156001,1.4496361 Z M 50.258827,0.48159052 51.04202,1.2647832 50.258827,2.0479758 49.475634,1.2647832 Z m -1.697728,0 0.778328,0.78319268 -0.778328,0.7831926 -0.783193,-0.7831926 z m 0.846432,1.24532498 0.783192,0.7831926 -0.783192,0.7783281 -0.783193,-0.7783281 z m -3.337082,-3.1327706 h 0.826973 q 0.627528,0 1.167493,-0.1167493 0.539965,-0.1216137 1.109117,-0.3599767 0.574017,-0.238363 1.3037,-0.5934752 -0.749141,-0.2724148 -1.211273,-0.4572677 -0.462133,-0.1897175 -0.632392,-0.1897175 -0.262686,0 -0.476726,0.1653947 -0.209176,0.1605302 -0.345383,0.3405185 l -0.257821,0.3259249 -1.08966,-0.5351005 0.218905,-0.3502477 q 0.345383,-0.5642879 0.826974,-0.9339937 0.48159,-0.3745704 1.128576,-0.3745704 0.272414,0 0.632391,0.1264783 0.364841,0.1264783 0.778328,0.3161958 0.418352,0.1848529 0.861026,0.3745704 0.447538,0.1848529 0.880483,0.3161958 0.43781,0.1313429 0.836703,0.1362074 v 1.2891059 q -0.369706,0.048645 -0.685901,0.1653948 -0.316196,0.1118846 -0.656715,0.2870084 -0.340518,0.1751239 -0.792922,0.4183514 -0.622662,0.33078945 -1.177221,0.56915243 -0.549694,0.23836299 -1.13344,0.3648413 Q 47.602782,0 46.882829,0 h -0.81238 z m -1.197148,3.8575886 q -1.045878,0 -1.726915,-0.3988931 -0.676173,-0.3988932 -1.002098,-1.08965937 -0.325924,-0.69076619 -0.325924,-1.55665621 0,-0.57888152 0.126478,-1.19667942 0.126478,-0.6226625 0.364841,-1.2404605 l 1.182086,0.4524032 q -0.179988,0.5156424 -0.301602,1.006962 -0.121614,0.4913197 -0.121614,0.91940011 0,0.46699686 0.165395,0.85616092 0.165394,0.38916405 0.559423,0.62266248 0.394029,0.23349839 1.07993,0.23349839 0.739412,0 1.230732,-0.17025923 0.491319,-0.16539472 0.734547,-0.3940286 0.243227,-0.22863388 0.243227,-0.40375771 0,-0.14107197 -0.175123,-0.14107197 h -0.788058 q -0.248092,0 -0.520507,-0.0486455 -0.26755,-0.04864551 -0.501048,-0.20917568 -0.233499,-0.16053017 -0.379435,-0.48159052 -0.141072,-0.32106039 -0.141072,-0.86102549 0,-0.5059132 0.165394,-0.9729101 0.165395,-0.4718614 0.471862,-0.8415673 0.311331,-0.3697058 0.744276,-0.5886106 0.432945,-0.2189048 0.97291,-0.2189048 0.364842,0 0.715089,0.1118847 0.355112,0.1070201 0.65185,0.3210603 l -0.447539,1.2404604 q -0.252956,-0.1410719 -0.486455,-0.194582 -0.228634,-0.058375 -0.423216,-0.058375 -0.525371,0 -0.822109,0.3453831 -0.296737,0.3405186 -0.296737,0.8512964 0,0.1313428 0.0827,0.1653947 0.08756,0.034052 0.21404,0.034052 h 0.710225 q 0.559423,0 0.875619,0.1751238 0.32106,0.1751238 0.452403,0.48645504 0.136207,0.30646669 0.136207,0.7004953 0,0.69563074 -0.398893,1.27451226 -0.398893,0.5788815 -1.162627,0.9242646 -0.763735,0.3453831 -1.858259,0.3453831 z m -5.72071,-4.5532194 q 0,-0.1216138 -0.05351,-0.3210603 -0.05351,-0.1994466 -0.111885,-0.3259249 l -0.963181,-2.1258087 1.157763,-0.5642878 1.211273,2.792252 q 0.145937,0.335654 0.257821,0.617798 0.116749,0.2821439 0.262686,0.4524032 0.150801,0.1702593 0.384299,0.1702593 h 0.204312 V 0 h -0.204312 q -0.544829,0 -0.880483,-0.20431113 -0.33079,-0.20917568 -0.583746,-0.53510057 -0.369706,0.3551122 -0.880484,0.54482967 -0.510778,0.18971748 -1.235596,0.18971748 -0.42808,0 -0.724818,-0.0291873 -0.296737,-0.02918731 -0.612933,-0.10702012 V -1.5469271 q 0.301602,0.072968 0.637256,0.1118847 0.340518,0.038916 0.627527,0.038916 0.359977,0 0.70536,-0.058375 0.345383,-0.063239 0.574017,-0.2189048 0.228634,-0.1556656 0.228634,-0.4280805 z m -5.847195,-2.1841832 q 0.3843,0 0.817245,0.058375 0.432945,0.05351 0.81238,0.1799883 0.379435,0.1216138 0.617798,0.3210604 0.243227,0.194582 0.243227,0.4718614 0,0.1605302 -0.126478,0.3940286 -0.121614,0.2334984 -0.316196,0.4913196 -0.189717,0.2529567 -0.398893,0.4864551 -0.204311,0.2286339 -0.364841,0.389164 0.199446,0.058375 0.384299,0.072968 0.184853,0.014594 0.345383,0.014594 h 0.75887 V 0 H 35.324185 Q 34.755033,0 34.249119,-0.13134287 33.748071,-0.26755029 33.305396,-0.49131962 32.8384,-0.25782119 32.181685,-0.12647832 31.529835,0 30.950954,0 h -0.768599 v -1.4058551 h 0.773463 q 0.111885,0 0.301603,-0.00486 0.194582,-0.00486 0.403757,-0.024323 0.209176,-0.019458 0.359977,-0.063239 -0.16053,-0.1605302 -0.364841,-0.3891641 -0.204311,-0.2334984 -0.394029,-0.486455 -0.189717,-0.2578212 -0.316196,-0.4864551 -0.126478,-0.2334984 -0.126478,-0.3940286 0,-0.2772794 0.238363,-0.4718614 0.238363,-0.1994466 0.617798,-0.3210604 0.379435,-0.1264783 0.81238,-0.1799883 0.432945,-0.058375 0.817244,-0.058375 z m 0.0049,1.2745122 q -0.238363,0 -0.505913,0.024323 -0.262686,0.024323 -0.549695,0.082697 0.204312,0.2189047 0.447539,0.4572677 0.248092,0.2334984 0.423216,0.3988932 0.179988,0.1653947 0.179988,0.1653947 0,0 0.179989,-0.1653947 0.179988,-0.1653948 0.42808,-0.3988932 0.252957,-0.238363 0.452403,-0.4572677 -0.282143,-0.058375 -0.549694,-0.082697 -0.262685,-0.024323 -0.505913,-0.024323 z M 27.993308,0 h -0.875619 v -1.4058551 h 0.880484 q 0.369706,0 0.505913,-0.2286339 0.141072,-0.2334985 0.141072,-0.5886107 0,-0.3307894 -0.0827,-0.7199535 -0.07783,-0.3940286 -0.16053,-0.768599 l 1.274512,-0.3307894 q 0.09243,0.4572678 0.145936,0.909671 0.05837,0.4475386 0.05837,0.8561609 0,0.6469852 -0.175124,1.1626276 -0.175124,0.51564237 -0.58861,0.81724451 Q 28.708397,0 27.993308,0 Z M 28.119787,0.57401698 28.995406,1.4496361 28.119787,2.3203907 27.249032,1.4496361 Z M 25.239506,-1.9069039 q 0.170259,-0.5399651 0.452403,-1.0118265 0.287009,-0.476726 0.685902,-0.768599 0.403758,-0.291873 0.914536,-0.291873 0.598339,0 1.045878,0.2675502 0.452403,0.2626858 0.700495,0.7394117 0.252957,0.476726 0.252957,1.1188467 0,0.5253715 -0.189718,0.96318103 -0.189717,0.43780956 -0.569152,0.70535984 -0.37457,0.26268574 -0.929129,0.26268574 -0.262686,0 -0.559424,-0.09242646 -0.296737,-0.09242646 -0.58861,-0.20917568 -0.287009,-0.12161377 -0.525372,-0.21404023 -0.233498,-0.0924265 -0.37457,-0.0924265 -0.218905,0 -0.291873,0.47672596 -0.07297,0.47672597 -0.07297,1.18208586 0,0.4134868 0.01459,0.8123799 0.01946,0.3988932 0.03892,0.7053599 0.02432,0.3064667 0.03892,0.4524032 h -1.337751 q -0.02432,-0.5253715 -0.04865,-1.0215557 -0.01946,-0.4913196 -0.01946,-0.9485873 0,-0.85616096 0.08756,-1.49828165 0.09243,-0.64212065 0.379435,-1.03614925 0.291873,-0.3940286 0.895077,-0.5010488 z m 2.816575,0.043781 q 0,-0.2967376 -0.204311,-0.530236 -0.199447,-0.2334985 -0.539965,-0.2334985 -0.21404,0 -0.379435,0.1459366 -0.165395,0.1459365 -0.282144,0.3599767 -0.111885,0.2140402 -0.184853,0.4232159 0.325925,0.1459365 0.637256,0.2724149 0.316196,0.1216137 0.525372,0.1216137 0.238363,0 0.330789,-0.1702593 0.09729,-0.1702592 0.09729,-0.389164 z M 21.411104,-6.8201 h 1.313429 v 4.4461993 q 0,0.5156423 0.150801,0.7442762 0.150801,0.2237694 0.622662,0.2237694 H 23.61961 V 0 H 23.497996 Q 22.408337,0 21.907288,-0.56428788 21.411104,-1.1285758 21.411104,-2.2571515 Z m -4.927787,0.9972329 v -0.7394117 l 3.95488,-1.6101663 v 0.7394117 z m 1.386397,1.3280223 q 0.65185,0.389164 1.152898,0.7637344 0.505914,0.3697059 0.792922,0.7977864 0.287009,0.4280804 0.287009,0.9875037 0,0.7637345 -0.350248,1.1869504 -0.350248,0.4232159 -0.982639,0.59347518 Q 18.137264,0 17.295697,0 h -1.18695 v -1.4058551 h 1.182085 q 0.778328,0 1.167492,-0.1070202 0.389165,-0.1118846 0.389165,-0.4524032 0,-0.1605301 -0.238363,-0.3697058 -0.238363,-0.2140402 -0.59834,-0.4475387 -0.355112,-0.238363 -0.729683,-0.4669968 -0.369706,-0.2334985 -0.64212,-0.4280805 -0.204312,-0.1459365 -0.311332,-0.3891641 -0.102155,-0.2432275 -0.102155,-0.4961841 0,-0.2724149 0.126478,-0.5107778 0.126478,-0.238363 0.394029,-0.3453831 l 3.755433,-1.5323335 v 1.3912615 z m -0.788838,3.63868388 q 0,-0.36484128 0.262686,-0.60806878 0.262686,-0.2480921 0.632392,-0.2480921 0.37457,0 0.632391,0.2480921 0.262686,0.2432275 0.262686,0.60806878 0,0.36970585 -0.262686,0.61293339 Q 18.345659,0 17.975954,0 17.596519,0 17.338697,-0.24322753 17.080876,-0.48645507 17.080876,-0.85616092 Z m 73.99955,-4.48025118 q -0.389164,0 -0.59834,0.3064667 -0.204311,0.3016022 -0.204311,0.6615789 0,0.1313429 0.27728,0.2237693 0.282144,0.087562 0.685901,0.087562 0.296738,0 0.622663,-0.058375 0.330789,-0.063239 0.627527,-0.2043111 l 0.179988,1.298835 q -0.418351,0.1994466 -0.81238,0.2578212 -0.394028,0.058375 -0.676172,0.058375 -0.501049,0 -0.997233,-0.1313428 -0.496184,-0.1313429 -0.826974,-0.3405186 0.0681,0.617798 0.0827,1.2112731 0.01946,0.5934752 0.01946,1.04101387 V 0 h -1.332887 v -0.93885828 q 0,-1.73664462 -0.204311,-3.00629232 -0.204311,-1.2696477 -0.70536,-2.2960679 l 1.264783,-0.4524032 0.447539,1.3134287 q 0.09243,0.2578212 0.155665,0.4232159 0.0681,0.1653947 0.16053,0.2626857 0.02919,-0.5156424 0.248093,-0.9485874 0.223769,-0.4378095 0.612933,-0.7053598 0.389164,-0.2675503 0.914535,-0.2675503 0.505914,0 0.836703,0.1508011 0.335654,0.150801 0.608069,0.3648413 l -0.42808,1.0702011 q -0.248093,-0.1459365 -0.466997,-0.2237693 -0.218905,-0.082697 -0.49132,-0.082697 z"
         id="path23" />
      <path
         style="font-weight:800;font-size:8.9664px;font-family:Vazirmatn"
         d="m 21.066562,9.3631499 q 0,-0.7661719 -0.144478,-1.506075 Q 20.777605,7.1171717 20.484271,6.5217467 20.190937,5.9219436 19.73999,5.5935842 l 0.262687,-0.6961219 q 0.674232,0.2977125 1.160203,0.9719438 0.49035,0.6742312 0.753038,1.5805031 0.267066,0.9062719 0.267066,1.9132407 0,1.0069691 -0.267066,1.9176191 -0.262688,0.906272 -0.753038,1.576125 -0.485971,0.669853 -1.160203,0.971943 L 19.73999,13.132716 q 0.450947,-0.332738 0.744281,-0.928163 0.293334,-0.595425 0.437813,-1.335328 0.144478,-0.739903 0.144478,-1.5060751 z m 3.813347,0.2013937 q -0.481594,0 -0.893138,-0.1182093 -0.407166,-0.1225875 -0.656719,-0.4597032 -0.245175,-0.3414937 -0.245175,-0.9982125 0,-0.3283594 0.109453,-0.6786094 0.113832,-0.3546281 0.32836,-0.6523406 0.214528,-0.3020906 0.520997,-0.49035 0.310847,-0.1882594 0.709256,-0.1882594 0.534131,0 0.884381,0.2276625 0.354628,0.2276625 0.5604,0.6348281 0.21015,0.4027875 0.302091,0.9412969 0.09632,0.5341313 0.113831,1.1514469 0.0088,0.2145282 0.01313,0.5822907 0.0088,0.3633843 0.01751,0.7968187 0.0088,0.433434 0.01751,0.866869 0.01313,0.429056 0.02627,0.774928 h -1.195228 q -0.01751,-0.63045 -0.03065,-1.243388 -0.0088,-0.617315 -0.01751,-1.203984 -0.175125,0.026269 -0.310847,0.043781 -0.131344,0.013134 -0.253931,0.013134 z m -0.05692,-1.2214969 q 0.105075,0 0.284578,-0.013134 0.183881,-0.017512 0.306469,-0.048159 -0.01751,-0.2670656 -0.08319,-0.5166188 -0.06567,-0.2539312 -0.205771,-0.4159219 -0.135722,-0.1619906 -0.380897,-0.1619906 -0.21015,0 -0.337116,0.1401 -0.122587,0.1401 -0.175125,0.3283594 -0.05254,0.1882594 -0.05254,0.3327375 0,0.1926375 0.118209,0.2758219 0.122587,0.078806 0.525375,0.078806 z m 6.912639,1.0463719 q -0.258309,0.2364188 -0.429056,0.49035 -0.170747,0.2539314 -0.227662,0.5998034 0.542887,0.105075 0.542887,0.726769 0,0.35025 -0.201394,0.551643 -0.197015,0.197016 -0.5604,0.197016 -0.424678,0 -0.639206,-0.232041 -0.21015,-0.236418 -0.21015,-0.647962 0,-0.691744 0.306469,-1.2346315 0.306469,-0.5428875 0.809953,-0.9325406 z M 34.397532,11.955 Q 34.218029,10.842956 33.872157,9.8184749 33.530663,8.7896155 33.127876,7.9402592 32.725088,7.0865248 32.366082,6.5086123 l 1.085775,-0.5910468 q 0.372141,0.6698531 0.792441,1.6242844 0.424678,0.9500531 0.718012,2.0489625 0.175125,-0.6567188 0.433435,-1.3353282 0.262687,-0.6786093 0.547265,-1.2871687 0.284578,-0.6085594 0.529753,-1.05075 l 1.085775,0.5910468 Q 37.199532,7.0865248 36.796745,7.9402592 36.393957,8.7896155 36.052463,9.8184749 35.71097,10.842956 35.531467,11.955 Z m 32.322855,-0.726769 q 0,1.383488 -0.573534,2.140903 -0.573535,0.757416 -1.882594,0.757416 -1.287169,0 -1.935131,-0.687366 -0.647963,-0.687365 -0.647963,-1.921997 0,-0.507862 0.118209,-1.055128 0.122588,-0.5472654 0.323982,-1.0507497 l 1.063884,0.4071656 q -0.148856,0.3940311 -0.267066,0.8537341 -0.118209,0.459703 -0.118209,0.849357 0,0.647962 0.359006,0.998212 0.363385,0.354628 1.103288,0.354628 0.499106,0 0.774928,-0.192637 0.2802,-0.18826 0.389653,-0.53851 0.113831,-0.35025 0.113831,-0.836222 V 5.8168686 h 1.177716 z m -7.44281,-2.8939405 q 0.551643,0 0.936918,0.3283594 0.385275,0.3283594 0.604182,0.8668687 0.218906,0.5341314 0.262687,1.1602034 h 0.32836 V 11.955 h -0.415922 q -0.249554,0.998212 -0.9807,1.567369 -0.731147,0.573534 -1.996425,0.818709 l -0.433435,-1.168959 q 0.551644,-0.105075 1.020103,-0.2802 0.472838,-0.175125 0.796819,-0.411544 0.328359,-0.236419 0.437813,-0.525375 h -0.411544 q -0.884381,0 -1.348463,-0.367763 -0.464081,-0.37214 -0.464081,-1.199606 0,-0.323981 0.100697,-0.6786092 0.100697,-0.3590063 0.306469,-0.6698532 0.205772,-0.315225 0.516618,-0.5078625 0.315225,-0.1970156 0.739904,-0.1970156 z m 0.144478,2.3554315 h 0.5604 Q 59.956186,10.444547 59.87738,10.186237 59.802952,9.927928 59.654095,9.752803 59.509617,9.577678 59.26882,9.577678 q -0.205772,0 -0.328359,0.1313438 -0.118209,0.1269656 -0.170747,0.3064692 -0.04816,0.175125 -0.04816,0.323981 0,0.23204 0.192637,0.293334 0.197016,0.05692 0.507863,0.05692 z M 53.38462,11.955 h -0.232041 q -0.726769,0 -1.252144,-0.126966 -0.525375,-0.131343 -0.849356,-0.44219 -0.245175,0.267065 -0.582291,0.4203 Q 50.131673,11.955 49.636945,11.955 h -0.179504 l 0.0044,-1.265278 h 0.175125 q 0.520996,0 0.691743,-0.161991 0.175125,-0.166369 0.175125,-0.6085592 0,-0.2495532 -0.01751,-0.49035 -0.01313,-0.245175 -0.03065,-0.4772157 l 1.094531,-0.1357219 0.08319,1.2477658 q 0.01751,0.175125 0.07005,0.306469 0.05691,0.126965 0.153234,0.148856 0.297712,-0.49035 0.63045,-0.9456751 0.332737,-0.455325 0.704878,-0.8143313 0.376519,-0.3590062 0.801197,-0.5647781 0.429056,-0.21015 0.91065,-0.21015 0.556022,0 0.9807,0.2364187 0.429056,0.2364188 0.669853,0.6479625 0.245175,0.4115438 0.245175,0.9412969 0,0.1926374 -0.04378,0.4421904 -0.0394,0.249553 -0.135722,0.407166 0.100697,0.01313 0.245175,0.02189 0.144478,0.0088 0.345872,0.0088 h 0.131344 V 11.955 h -0.126966 q -0.520997,0 -0.875625,-0.135722 -0.354628,-0.1401 -0.634828,-0.328359 -0.455325,0.201393 -1.059506,0.332737 Q 54.045716,11.955 53.38462,11.955 Z m 1.549856,-2.727572 q -0.337116,0 -0.67861,0.2145281 -0.341493,0.21015 -0.65234,0.5472657 -0.310847,0.3327372 -0.564778,0.7005002 h 0.398409 q 0.591047,0 1.094531,-0.05692 0.507863,-0.06129 0.814332,-0.23204 0.306468,-0.170747 0.306468,-0.507863 0,-0.3020906 -0.205772,-0.4815937 Q 55.245323,9.227428 54.934476,9.227428 Z M 47.242111,4.8142779 48.030173,5.6023404 47.242111,6.3860248 46.458426,5.6023404 Z m -0.332738,5.8754441 q 0.5604,0 0.853735,-0.08756 0.297712,-0.08756 0.30209,-0.433434 -0.319603,0.06129 -0.678609,0.06129 -0.774928,0 -1.225875,-0.3196035 -0.450947,-0.3239812 -0.450947,-1.05075 0,-0.3546281 0.113831,-0.7005 0.11821,-0.35025 0.332738,-0.6348281 0.218906,-0.2889563 0.520997,-0.4597032 0.306468,-0.175125 0.682987,-0.175125 0.485972,0 0.831844,0.245175 0.35025,0.2407969 0.569156,0.6479625 0.218906,0.4071657 0.319603,0.91065 0.105075,0.4991063 0.105075,1.0201032 0,0.9106501 -0.249553,1.3966221 -0.245175,0.481594 -0.761794,0.665475 Q 47.662411,11.955 46.856836,11.955 h -1.61115 v -1.265278 z m 0.459703,-1.532344 q 0.166369,0 0.332738,-0.017512 0.170747,-0.017513 0.332737,-0.052538 -0.03065,-0.21015 -0.113831,-0.4334344 -0.08318,-0.2276625 -0.223284,-0.385275 -0.1401,-0.1576125 -0.345872,-0.1576125 -0.271444,0 -0.4203,0.2232844 -0.144478,0.2189062 -0.144478,0.4728375 0,0.2320406 0.170747,0.2933344 0.170746,0.056916 0.411543,0.056916 z m -3.524391,0.2057719 q 0,0.7661721 0.144478,1.5060751 0.144479,0.739903 0.437813,1.335328 0.297713,0.595425 0.744281,0.928163 l -0.262687,0.696121 q -0.674232,-0.30209 -1.164582,-0.967565 -0.485971,-0.665475 -0.753037,-1.567369 -0.262688,-0.901894 -0.262688,-1.9088625 0,-0.7530375 0.148857,-1.4579156 0.153234,-0.7092563 0.433434,-1.3134376 0.284578,-0.6041812 0.687366,-1.0463719 0.407165,-0.4465687 0.91065,-0.6698531 l 0.262687,0.6961219 q -0.446568,0.3283594 -0.744281,0.9281625 -0.293334,0.595425 -0.437813,1.3353282 -0.144478,0.7399031 -0.144478,1.506075 z"
         id="path24" />
    </g>
    <path
       id="path8"
       d="m 155.90746,56.69362 c 0,11.74178 -19.03667,21.2601 -42.52022,21.2601 -23.48357,0 -42.52024,-9.51832 -42.52024,-21.2601 0,-11.74179 19.03667,-21.26012 42.52024,-21.26012 23.48355,0 42.52022,9.51833 42.52022,21.26012 z"
       style="fill:#ffe6e6;fill-opacity:1;fill-rule:nonzero;stroke:#be1e2d;stroke-width:1.99255;stroke-linecap:butt;stroke-linejoin:miter;stroke-miterlimit:10;stroke-dasharray:none;stroke-opacity:1"
       transform="matrix(1.3333333,0,0,-1.3333333,134.64,210.23067)" />
    <path
       style="font-weight:800;font-size:9.9626px;font-family:Vazirmatn"
       d="M 36.128552,2.6560447 35.632368,1.3523451 q 0.70536,-0.1508011 1.211273,-0.40375772 0.510778,-0.24809208 0.788057,-0.66644344 0.27728,-0.41835136 0.27728,-1.07993025 0,-0.44267409 -0.141072,-0.99236829 -0.141072,-0.5545588 -0.301602,-1.0312848 l 1.313428,-0.4232159 q 0.189718,0.530236 0.287009,1.1431694 0.102155,0.6129334 0.102155,1.17722127 0,1.02155564 -0.379434,1.75123824 Q 38.414891,1.5615208 37.728989,2.013924 37.047952,2.4711917 36.128552,2.6560447 Z M 35.914511,-6.8201 v 6.81523545 H 34.601082 V -6.8201 Z m -4.825633,-0.7977863 0.875619,0.8756191 -0.875619,0.8707546 -0.870755,-0.8707546 z m 0.593475,5.5164004 q 0,-0.1216138 -0.05351,-0.3210603 -0.05351,-0.1994466 -0.111885,-0.3259249 l -0.963181,-2.1258087 1.157763,-0.5642878 1.211273,2.792252 q 0.145937,0.335654 0.257822,0.617798 0.116749,0.2821439 0.262685,0.4524032 0.150801,0.1702593 0.3843,0.1702593 h 0.204311 V 0 H 33.82762 q -0.54483,0 -0.880484,-0.20431113 -0.330789,-0.20917568 -0.583746,-0.53510057 -0.369706,0.3551122 -0.880484,0.54482967 -0.510777,0.18971748 -1.235596,0.18971748 -0.42808,0 -0.724818,-0.0291873 -0.296737,-0.02918731 -0.612933,-0.10702012 V -1.5469271 q 0.301602,0.072968 0.637256,0.1118847 0.340519,0.038916 0.627527,0.038916 0.359977,0 0.70536,-0.058375 0.345383,-0.063239 0.574017,-0.2189048 0.228634,-0.1556656 0.228634,-0.4280805 z m -7.326016,-3.7213812 v -0.7394117 l 3.95488,-1.6101663 v 0.7394117 z m 1.386397,1.3280223 q 0.65185,0.389164 1.152899,0.7637344 0.505913,0.3697059 0.792921,0.7977864 0.287009,0.4280804 0.287009,0.9875037 0,0.7637345 -0.350248,1.1869504 -0.350248,0.4232159 -0.982639,0.59347518 Q 26.010284,0 25.168717,0 h -1.18695 v -1.4058551 h 1.182085 q 0.778329,0 1.167493,-0.1070202 0.389164,-0.1118846 0.389164,-0.4524032 0,-0.1605301 -0.238363,-0.3697058 -0.238363,-0.2140402 -0.59834,-0.4475387 -0.355112,-0.238363 -0.729683,-0.4669968 -0.369705,-0.2334985 -0.64212,-0.4280805 -0.204311,-0.1459365 -0.311332,-0.3891641 -0.102155,-0.2432275 -0.102155,-0.4961841 0,-0.2724149 0.126478,-0.5107778 0.126479,-0.238363 0.394029,-0.3453831 l 3.755433,-1.5323335 v 1.3912615 z m -2.65651,6.9952238 q -1.045878,0 -1.736645,-0.3988931 -0.685901,-0.3988932 -1.02642,-1.0896594 -0.335654,-0.69076616 -0.335654,-1.55665617 0,-0.57888153 0.126479,-1.19667943 0.126478,-0.6226625 0.364841,-1.2404605 l 1.182086,0.4524033 q -0.179989,0.5156423 -0.301602,1.0069619 -0.121614,0.4913197 -0.121614,0.91940012 0,0.46699686 0.175124,0.85616091 0.175123,0.38916406 0.578881,0.62266249 0.403758,0.23349848 1.094524,0.23349848 0.885348,0 1.400991,-0.26755034 Q 25.007722,0.57401698 25.085554,0 h -0.598339 q -0.98264,0 -1.51774,-0.40862226 -0.530236,-0.4134868 -0.530236,-1.33288684 0,-0.3599768 0.10702,-0.7637345 0.111885,-0.4037577 0.340518,-0.7588699 0.228634,-0.3551122 0.574017,-0.5788815 0.350248,-0.2237694 0.82211,-0.2237694 0.612933,0 1.041013,0.379435 0.428081,0.3745704 0.666444,0.9826392 0.243227,0.6032043 0.291873,1.2988351 h 0.364841 V 0 h -0.359977 q -0.0827,1.3182932 -0.933993,1.9069039 -0.846432,0.5934751 -2.266881,0.5934751 z m 1.352345,-3.9062341 h 0.627527 q -0.02919,-0.2724149 -0.116749,-0.5691525 -0.0827,-0.2967376 -0.248092,-0.5010487 -0.16053,-0.2043111 -0.432945,-0.2043111 -0.223769,0 -0.359977,0.1556656 -0.131343,0.1508011 -0.189717,0.3599768 -0.05838,0.2043111 -0.05838,0.3697058 0,0.2626857 0.21404,0.3259249 0.218905,0.063239 0.564288,0.063239 z m -1.084795,-4.796447 0.826974,0.8172445 0.817244,-0.8172445 0.831839,0.8269736 -0.831839,0.8367027 -0.817244,-0.8269736 -0.826974,0.8269736 -0.826973,-0.8367027 z m -6.338509,-1.73178 0.875619,0.8756191 -0.875619,0.8707546 -0.870755,-0.8707546 z m -0.369706,6.528227 q 0.622662,0 0.948587,-0.097291 0.33079,-0.097291 0.335654,-0.4815905 -0.355112,0.068104 -0.754005,0.068104 -0.861026,0 -1.362074,-0.3551122 -0.501049,-0.3599767 -0.501049,-1.1674921 0,-0.3940286 0.126478,-0.7783281 0.131343,-0.3891641 0.369706,-0.7053599 0.243228,-0.3210603 0.578882,-0.5107778 0.340518,-0.194582 0.758869,-0.194582 0.539966,0 0.924265,0.2724148 0.389164,0.2675503 0.632392,0.7199535 0.243227,0.4524032 0.355112,1.0118266 0.116749,0.5545587 0.116749,1.1334403 0,1.0118265 -0.277279,1.55179162 -0.272415,0.53510058 -0.846432,0.7394117 Q 17.482261,0 16.587184,0 h -1.790155 v -1.4058551 z m 0.510778,-1.7025928 q 0.184852,0 0.369705,-0.019458 0.189718,-0.019458 0.369706,-0.058375 -0.03405,-0.2334984 -0.126478,-0.4815905 -0.09243,-0.2529566 -0.248092,-0.4280805 -0.155666,-0.1751238 -0.3843,-0.1751238 -0.301602,0 -0.466997,0.2480921 -0.16053,0.2432275 -0.16053,0.5253715 0,0.2578212 0.189718,0.3259249 0.189717,0.063239 0.457268,0.063239 z m -4.533762,-0.9145355 q 0.612933,0 1.041014,0.3648413 0.42808,0.3648413 0.671308,0.963181 0.243227,0.5934752 0.291873,1.289106 h 0.364841 V 0 h -0.462132 q -0.27728,1.1091176 -1.089659,1.7415091 -0.81238,0.6372562 -2.218236,0.909671 l -0.48159,-1.298835 Q 11.352927,1.2355959 11.873434,1.0410138 12.398806,0.84643182 12.758782,0.58374608 13.123624,0.32106034 13.245237,0 H 12.78797 q -0.98264,0 -1.498282,-0.40862226 -0.515642,-0.4134868 -0.515642,-1.33288684 0,-0.3599768 0.111884,-0.7540054 0.111885,-0.3988931 0.340519,-0.7442762 0.228634,-0.3502477 0.574017,-0.5642879 0.350248,-0.2189048 0.822109,-0.2189048 z m 0.16053,2.6171283 h 0.622663 q -0.02919,-0.2724149 -0.11675,-0.5594234 -0.0827,-0.2870085 -0.248092,-0.4815905 -0.16053,-0.194582 -0.42808,-0.194582 -0.228634,0 -0.364841,0.1459365 -0.131343,0.141072 -0.189718,0.3405186 -0.05351,0.194582 -0.05351,0.3599767 0,0.2578212 0.21404,0.3259249 0.218905,0.063239 0.564288,0.063239 z M 8.2639377,0.11188467 q -0.5059132,0 -0.9485873,-0.21404023 Q 6.8775408,-0.32106034 6.4591894,-0.64212069 6.1916392,-0.3745704 5.8997661,-0.18485293 5.6127576,0 5.0581989,0 H 4.8441586 v -1.4058551 h 0.1897175 q 0.238363,0 0.4280805,-0.184853 0.194582,-0.1848529 0.3697058,-0.4767259 0.1799884,-0.2967376 0.3745704,-0.6226625 0.1994466,-0.3307895 0.4426741,-0.6226625 0.2480921,-0.2967376 0.574017,-0.4815905 0.3259249,-0.1848529 0.7637345,-0.1848529 0.6129333,0 1.060472,0.291873 0.4475387,0.2870085 0.6907662,0.7637345 0.2432275,0.4718614 0.2432275,1.0312847 0,0.574017 -0.1897174,1.02642018 -0.1897175,0.45240321 -0.574017,0.71508895 -0.379435,0.26268574 -0.953452,0.26268574 z M 8.0304393,-2.641451 q -0.1994466,0 -0.3599767,0.1362074 -0.1605302,0.1313429 -0.282144,0.3210604 -0.1216137,0.1897174 -0.2043111,0.3599767 0.141072,0.1264783 0.2675503,0.2189048 0.1264783,0.092426 0.2432275,0.1605302 0.1751238,0.097291 0.3210604,0.1362074 0.1459365,0.038916 0.2529566,0.038916 0.2578212,0 0.3697058,-0.1848529 0.1118847,-0.1897175 0.1118847,-0.4280805 0,-0.3064667 -0.1897175,-0.530236 Q 8.3709579,-2.641451 8.0304393,-2.641451 Z"
       id="text8"
       transform="matrix(1.3333333,0,0,1.3333333,258.92533,138.31733)"
       aria-label="راﺬﮔﻖﻓﻮﻣ" />
    <path
       id="path9"
       d="M 58.67766,84.04414 80.93512,72.91905"
       style="fill:none;stroke:#0055a4;stroke-width:1.49442;stroke-linecap:butt;stroke-linejoin:miter;stroke-miterlimit:10;stroke-dasharray:none;stroke-opacity:1"
       transform="matrix(1.3333333,0,0,-1.3333333,134.64,210.23067)" />
    <path
       id="path10"
       d="M -3.38733,4.37073 C -2.76846,1.74825 -1.38942,0.50992 0,0 -1.38942,-0.50992 -2.76846,-1.74825 -3.38733,-4.37073"
       style="fill:none;stroke:#0055a4;stroke-width:1.49442;stroke-linecap:round;stroke-linejoin:round;stroke-miterlimit:10;stroke-dasharray:none;stroke-opacity:1"
       transform="matrix(1.1925867,0.59610667,0.59610667,-1.1925867,243.4446,113.45068)" />
    <path
       id="path11"
       d="M 168.09682,84.04414 145.83936,72.91905"
       style="fill:none;stroke:#006633;stroke-width:1.49442;stroke-linecap:butt;stroke-linejoin:miter;stroke-miterlimit:10;stroke-dasharray:none;stroke-opacity:1"
       transform="matrix(1.3333333,0,0,-1.3333333,134.64,210.23067)" />
    <path
       id="path12"
       d="M -3.38733,4.37073 C -2.76846,1.74825 -1.38942,0.50992 0,0 -1.38942,-0.50992 -2.76846,-1.74825 -3.38733,-4.37073"
       style="fill:none;stroke:#006633;stroke-width:1.49442;stroke-linecap:round;stroke-linejoin:round;stroke-miterlimit:10;stroke-dasharray:none;stroke-opacity:1"
       transform="matrix(-1.1925867,0.59610667,0.59610667,1.1925867,328.20133,113.45068)" />
    <path
       id="path13"
       d="M 58.67766,29.34308 80.93512,40.46817"
       style="fill:none;stroke:#663399;stroke-width:1.49442;stroke-linecap:butt;stroke-linejoin:miter;stroke-miterlimit:10;stroke-dasharray:none;stroke-opacity:1"
       transform="matrix(1.3333333,0,0,-1.3333333,134.64,210.23067)" />
    <path
       id="path14"
       d="M -3.38733,4.37073 C -2.76846,1.74825 -1.38942,0.50992 0,0 -1.38942,-0.50992 -2.76846,-1.74825 -3.38733,-4.37073"
       style="fill:none;stroke:#663399;stroke-width:1.49442;stroke-linecap:round;stroke-linejoin:round;stroke-miterlimit:10;stroke-dasharray:none;stroke-opacity:1"
       transform="matrix(1.1925867,-0.59610667,-0.59610667,-1.1925867,243.4446,155.82767)" />
    <path
       id="path15"
       d="M 168.09682,29.34308 145.83936,40.46817"
       style="fill:none;stroke:#b8860b;stroke-width:1.49442;stroke-linecap:butt;stroke-linejoin:miter;stroke-miterlimit:10;stroke-dasharray:none;stroke-opacity:1"
       transform="matrix(1.3333333,0,0,-1.3333333,134.64,210.23067)" />
    <path
       id="path16"
       d="M -3.38733,4.37073 C -2.76846,1.74825 -1.38942,0.50992 0,0 -1.38942,-0.50992 -2.76846,-1.74825 -3.38733,-4.37073"
       style="fill:none;stroke:#b8860b;stroke-width:1.49442;stroke-linecap:round;stroke-linejoin:round;stroke-miterlimit:10;stroke-dasharray:none;stroke-opacity:1"
       transform="matrix(-1.1925867,-0.59610667,-0.59610667,1.1925867,328.20133,155.82767)" />
  </g>
</svg>
