<?xml version="1.0" encoding="UTF-8" standalone="no"?>


<svg class="tikz-diagram" id="iran-action-ch8-tikz-5-02b3a5c044f2"
   version="1.1"
   id="svg1"
   width="571.64001"
   height="99.199997"
   viewBox="0 0 571.64001 99.199997"
   sodipodi:docname="iran-action-ch8-tikz-5-02b3a5c044f2.pdf"
   xmlns:inkscape="http://www.inkscape.org/namespaces/inkscape"
   xmlns:sodipodi="http://sodipodi.sourceforge.net/DTD/sodipodi-0.dtd"
   xmlns="http://www.w3.org/2000/svg"
   xmlns:svg="http://www.w3.org/2000/svg">
  <defs
     id="defs1" />
  <sodipodi:namedview
     id="namedview1"
     pagecolor="#ffffff"
     bordercolor="#000000"
     borderopacity="0.25"
     inkscape:showpageshadow="2"
     inkscape:pageopacity="0.0"
     inkscape:pagecheckerboard="0"
     inkscape:deskcolor="#d1d1d1">
    <inkscape:page
       x="0"
       y="0"
       inkscape:label="1"
       id="page1"
       width="571.64001"
       height="99.199997"
       margin="0"
       bleed="0" />
  </sodipodi:namedview>
  <g
     id="g1"
     inkscape:groupmode="layer"
     inkscape:label="1">
    <path
       id="path1"
       d="m 188.46497,21.2601 h -376.92994 c -5.50236,0 -9.96276,-4.46042 -9.96276,-9.96277 v -22.59466 c 0,-5.50235 4.4604,-9.96277 9.96276,-9.96277 h 376.92994 c 5.50236,0 9.96276,4.46042 9.96276,9.96277 v 22.59466 c 0,5.50235 -4.4604,9.96277 -9.96276,9.96277 z"
       style="fill:#fbecde;fill-opacity:1;fill-rule:nonzero;stroke:#e67e22;stroke-width:1.99255;stroke-linecap:butt;stroke-linejoin:miter;stroke-miterlimit:10;stroke-dasharray:none;stroke-opacity:1"
       transform="matrix(1.3333333,0,0,-1.3333333,285.82,49.6)" />
    <path
       style="font-weight:800;font-size:11.9552px;font-family:Vazirmatn"
       d="M 31.574478,0 H 30.09759 Q 29.09354,0 28.241265,-0.1225875 27.38899,-0.2510125 26.75854,-0.56623751 26.133928,-0.88146251 25.783678,-1.4477 q -0.344413,-0.572075 -0.344413,-1.459375 0,-0.5253751 0.11675,-1.0274001 0.11675,-0.502025 0.291875,-0.9281625 l 1.406838,0.5312125 q -0.09924,0.2743625 -0.204313,0.642125 -0.09924,0.361925 -0.09924,0.6888251 0,0.58375 0.431975,0.86395 0.431975,0.2802 1.14415,0.3677625 0.718012,0.081725 1.570287,0.081725 h 1.47105 q 0.934,0 1.401,-0.128425 0.467001,-0.1342625 0.467001,-0.5428875 0,-0.1926375 -0.286038,-0.44365 -0.286038,-0.25685 -0.718013,-0.5370501 -0.426137,-0.2860375 -0.875625,-0.5604 -0.44365,-0.2802 -0.77055,-0.5137 -0.245175,-0.1809625 -0.3736,-0.4728375 -0.128425,-0.2977125 -0.128425,-0.6071 0,-0.338575 0.151775,-0.6071 0.157613,-0.2743625 0.478675,-0.4027875 l 4.506551,-1.8388125 v 1.669525 l -3.152251,1.2784125 q 0.776388,0.467 1.278413,0.8347625 0.502025,0.3677625 0.81725,0.7647125 0.321063,0.3911125 0.548725,0.9456751 0.175125,0.4203 0.332738,0.67715 0.16345,0.25685 0.408625,0.3736 0.245175,0.1109125 0.671312,0.1109125 h 0.157613 V 0 h -0.157613 q -0.706337,0 -1.185012,-0.2043125 -0.472838,-0.21015001 -0.805575,-0.69466251 -0.30355,0.338575 -0.665475,0.53705 Q 33.314053,-0.1692875 32.812028,-0.081725 32.31584,0 31.574478,0 Z m -9.701925,0 q -0.519538,0 -0.881463,-0.2159875 -0.361925,-0.21598751 -0.6071,-0.53121251 -0.297712,0.315225 -0.67715,0.53121251 Q 19.33324,0 18.81954,0 q -0.589587,0 -0.992375,-0.198475 -0.39695,-0.20431251 -0.6538,-0.53705001 -0.321062,0.338575 -0.764712,0.53705001 Q 15.965003,0 15.287853,0 h -0.53705 v -1.6870375 h 0.548725 q 0.642125,0 0.91065,-0.1576125 0.274362,-0.1576125 0.274362,-0.758875 0,-0.0934 -0.01168,-0.3093875 -0.01168,-0.2159876 -0.02919,-0.4728376 -0.01751,-0.2626875 -0.03502,-0.4728375 l 1.465212,-0.1809625 0.122588,1.5761251 q 0.05254,0.7763875 0.834762,0.7763875 0.484513,0 0.647963,-0.198475 0.16345,-0.2043125 0.16345,-0.7180125 0,-0.081725 -0.01167,-0.2977125 -0.01168,-0.2218251 -0.02919,-0.4845126 -0.01751,-0.2626875 -0.03503,-0.4728375 l 1.465213,-0.1809625 0.122587,1.5761251 q 0.02335,0.361925 0.180963,0.572075 0.157612,0.2043125 0.525375,0.2043125 0.361925,0 0.49035,-0.2393375 0.134262,-0.2393375 0.134262,-0.67715 0,-0.21015 -0.02335,-0.6071001 -0.02335,-0.39695 -0.05254,-0.758875 l 1.465212,-0.1809625 0.122588,1.6870376 q 0.02919,0.431975 0.239337,0.6071 0.215988,0.1692875 0.665475,0.1692875 H 25.07734 V 0 H 24.91389 Q 24.37684,0 23.962378,-0.1868 23.553753,-0.37360001 23.314415,-0.69466251 23.075078,-0.39695001 22.724828,-0.198475 22.374578,0 21.872553,0 Z m -9.748625,0 h -1.255062 v -1.6870375 h 1.2609 q 0.44365,0 0.6071,-0.2743625 0.169287,-0.2802 0.169287,-0.7063375 0,-0.3969501 -0.09924,-0.8639501 -0.0934,-0.4728375 -0.192638,-0.922325 l 1.529425,-0.39695 q 0.110913,0.548725 0.175125,1.0916125 0.07005,0.53705 0.07005,1.0274001 0,0.7763875 -0.21015,1.3951625 -0.204312,0.61877499 -0.7005,0.98069999 Q 12.982041,0 12.123928,0 Z M 11.020641,0.74720001 12.013016,1.7279 12.993716,0.74720001 13.991928,1.739575 12.993716,2.743625 12.013016,1.75125 11.020641,2.743625 10.028266,1.739575 Z M 6.8876896,3.1872751 6.2922646,1.622825 Q 7.1387021,1.4418625 7.7458021,1.1383125 8.3587396,0.84060001 8.6914771,0.33857501 9.0242146,-0.16345 9.0242146,-0.95735002 9.0242146,-1.4885625 8.8549271,-2.1482 8.6856396,-2.813675 8.4930021,-3.3857501 l 1.5761249,-0.5078625 q 0.227663,0.6362875 0.344413,1.3718126 0.122587,0.735525 0.122587,1.412675 0,1.225875 -0.455325,2.10150002 Q 9.6313146,1.8738375 8.8082271,2.416725 7.9909771,2.96545 6.8876896,3.1872751 Z M 6.6769791,-4.4715251 q 0,-0.44365 0.315225,-0.735525 0.315225,-0.291875 0.758875,-0.291875 0.4494875,0 0.758875,0.291875 0.315225,0.291875 0.315225,0.735525 0,0.4378125 -0.315225,0.7296875 -0.315225,0.291875 -0.758875,0.291875 -0.455325,0 -0.7647125,-0.2860375 -0.3093875,-0.291875 -0.3093875,-0.735525 z m 0,3.4382876 q 0,-0.4378125 0.315225,-0.7296875 0.315225,-0.2977125 0.758875,-0.2977125 0.4494875,0 0.758875,0.2977125 0.315225,0.291875 0.315225,0.7296875 0,0.44364999 -0.315225,0.735525 -0.315225,0.291875 -0.758875,0.291875 -0.455325,0 -0.7647125,-0.291875 -0.3093875,-0.29187501 -0.3093875,-0.735525 z M 44.276318,-6.4037376 q -0.467,0 -0.718013,0.3677625 -0.245175,0.361925 -0.245175,0.7939 0,0.1576125 0.332738,0.268525 0.338575,0.105075 0.823087,0.105075 0.356088,0 0.7472,-0.07005 0.39695,-0.075888 0.753038,-0.245175 l 0.215987,1.5586125 q -0.502025,0.2393375 -0.974862,0.3093875 -0.472838,0.07005 -0.811413,0.07005 -0.601262,0 -1.196687,-0.1576125 -0.595425,-0.1576125 -0.992375,-0.408625 0.08172,0.7413625 0.09924,1.4535376 0.02335,0.712175 0.02335,1.249225 V 0 h -1.599475 v -1.1266375 q 0,-2.0839876 -0.245175,-3.6075751 -0.245175,-1.5235875 -0.846438,-2.7553 l 1.51775,-0.5428875 0.53705,1.576125 q 0.110913,0.3093875 0.1868,0.5078625 0.08172,0.198475 0.192638,0.315225 0.03502,-0.618775 0.297713,-1.1383125 0.268525,-0.525375 0.735525,-0.8464375 0.467,-0.3210625 1.09745,-0.3210625 0.6071,0 1.00405,0.1809625 0.402787,0.1809625 0.729687,0.4378125 l -0.5137,1.28425 q -0.297712,-0.175125 -0.5604,-0.268525 -0.262687,-0.099238 -0.589587,-0.099238 z m 102.702822,-0.58375 v -0.8873 l 4.74589,-1.9322126 v 0.8873001 z M 147.95401,0 h -1.47689 q -1.00405,0 -1.85633,-0.1225875 -0.85227,-0.128425 -1.48272,-0.44365001 -0.62461,-0.315225 -0.97486,-0.88146249 -0.34442,-0.572075 -0.34442,-1.459375 0,-0.5253751 0.11675,-1.0274001 0.11675,-0.502025 0.29188,-0.9281625 l 1.40684,0.5312125 q -0.0992,0.2743625 -0.20432,0.642125 -0.0992,0.361925 -0.0992,0.6888251 0,0.58375 0.43197,0.86395 0.43198,0.2802 1.14415,0.3677625 0.71801,0.081725 1.57029,0.081725 h 1.47105 q 0.934,0 1.401,-0.128425 0.467,-0.1342625 0.467,-0.5428875 0,-0.1926375 -0.28604,-0.44365 -0.28604,-0.25685 -0.71801,-0.5370501 -0.42614,-0.2860375 -0.87563,-0.5604 -0.44365,-0.2802 -0.77055,-0.5137 -0.24517,-0.1809625 -0.3736,-0.4728375 -0.12842,-0.2977125 -0.12842,-0.6071 0,-0.338575 0.15177,-0.6071 0.15762,-0.2743625 0.47868,-0.4027875 l 4.50655,-1.8388125 v 1.669525 l -3.15225,1.2784125 q 0.77639,0.467 1.27841,0.8347625 0.50203,0.3677625 0.81725,0.7647125 0.32106,0.3911125 0.54873,0.9456751 0.17512,0.4203 0.33273,0.67715 0.16345,0.25685 0.40863,0.3736 0.24517,0.1109125 0.67131,0.1109125 h 0.15761 V 0 h -0.15761 q -0.70634,0 -1.18501,-0.2043125 -0.47284,-0.21015001 -0.80558,-0.69466251 -0.30355,0.338575 -0.66547,0.53705 -0.35609,0.19263751 -0.85811,0.28020001 Q 148.69537,0 147.95401,0 Z m -9.12986,-4.0103626 1.45938,-0.1809625 0.11675,1.6695251 q 0.0292,0.44365 0.24517,0.642125 0.21599,0.1926375 0.68883,0.1926375 h 0.12259 V 0 h -0.13427 q -0.58375,0 -1.00405,-0.21015 -0.41446,-0.21015001 -0.68298,-0.54872501 -0.35609,0.3560875 -0.84644,0.56040001 Q 138.30462,0 137.75589,0 h -0.5604 v -1.6870375 h 0.5604 q 0.64213,0 0.88146,-0.2159875 0.24518,-0.221825 0.24518,-0.805575 0,-0.3444125 -0.0175,-0.6654751 -0.0175,-0.3269 -0.0409,-0.6362875 z m 0.32107,-3.093875 1.05075,1.05075 -1.05075,1.0449125 -1.04492,-1.0449125 z m -6.10019,7.79306261 1.05075,1.05074999 -1.05075,1.0449125 -1.04491,-1.0449125 z m -4.00452,-2.37586251 h 0.99237 q 0.75304,0 1.401,-0.1401 0.64796,-0.1459375 1.33095,-0.431975 0.68883,-0.2860375 1.56445,-0.712175 -0.89897,-0.3269001 -1.45354,-0.5487251 -0.55456,-0.2276625 -0.75887,-0.2276625 -0.31523,0 -0.57208,0.198475 -0.25101,0.1926375 -0.41446,0.408625 l -0.30939,0.3911126 -1.3076,-0.6421251 0.26269,-0.4203 q 0.41446,-0.67715 0.99238,-1.1208 0.57791,-0.4494875 1.3543,-0.4494875 0.3269,0 0.75887,0.151775 0.43781,0.151775 0.934,0.3794375 0.50203,0.221825 1.03324,0.4494875 0.53705,0.221825 1.05659,0.3794375 0.52537,0.1576125 1.00405,0.16345 V -2.31165 q -0.44365,0.058375 -0.82309,0.198475 -0.37944,0.1342625 -0.78806,0.3444125 -0.40863,0.21015 -0.95152,0.502025 -0.7472,0.39694999 -1.41267,0.68298749 -0.65964,0.28603751 -1.36014,0.43781251 Q 130.87932,0 130.01537,0 h -0.97486 z m -0.6602,4.6875125 q -1.28425,0 -2.09566,-0.4961875 -0.80558,-0.4961875 -1.19085,-1.33095 -0.37944,-0.82892499 -0.37944,-1.84465001 0,-0.57791249 0.11091,-1.20836249 0.11675,-0.63045 0.36193,-1.2842501 l 1.41851,0.5137001 q -0.17513,0.5078625 -0.2802,1.0098875 -0.10508,0.502025 -0.10508,0.94567499 0,0.56623751 0.19848,1.02156252 0.20431,0.4611625 0.67715,0.72968749 0.47284,0.2743625 1.28425,0.2743625 0.92816,0 1.48856,-0.1926375 0.5604,-0.19263748 0.81141,-0.43197499 0.25685,-0.2393375 0.25685,-0.3736 0,-0.20431251 -0.19847,-0.26852501 Q 130.54602,0 130.11988,0 h -0.92232 q -0.23934,0 -0.30355,-0.1225875 -0.0642,-0.1225875 -0.12259,-0.32690001 L 128.52041,-1.3543 q -0.0409,-0.1459375 -0.0292,-0.2393375 0.0175,-0.0934 0.22766,-0.0934 h 3.52585 V 0 h 0.0467 q 0.0525,0.2043125 0.0525,0.32690001 0,0.71217499 -0.47284,1.31927499 -0.467,0.6129375 -1.3543,0.9807 -0.88146,0.3736 -2.13652,0.3736 z m -6.68977,-5.7908 v -5.3938501 h 1.57028 v 5.3938501 q 0,0.548725 0.17513,0.828925 0.18096,0.2743625 0.71217,0.2743625 h 0.1868 V 0 h -0.17512 q -0.61878,0 -1.00989,-0.1868 -0.38527,-0.19263751 -0.67715,-0.56623751 -0.30939,0.3560875 -0.72385,0.55456251 Q 121.34029,0 120.6573,0 h -0.35609 v -1.6870375 h 0.31523 q 0.58958,0 0.82892,-0.2626875 0.24518,-0.268525 0.24518,-0.8406 z m -5.90756,-5.3705001 1.05075,1.05075 -1.05075,1.0449125 -1.04491,-1.0449125 z m -3.63676,6.4737876 h 0.99237 q 0.75304,0 1.40101,-0.1401 0.64796,-0.1459375 1.33095,-0.431975 0.68882,-0.2860375 1.56445,-0.712175 -0.89898,-0.3269001 -1.45354,-0.5487251 -0.55456,-0.2276625 -0.75888,-0.2276625 -0.31522,0 -0.57207,0.198475 -0.25101,0.1926375 -0.41446,0.408625 l -0.30939,0.3911126 -1.3076,-0.6421251 0.26268,-0.4203 q 0.41447,-0.67715 0.99238,-1.1208 0.57791,-0.4494875 1.3543,-0.4494875 0.3269,0 0.75888,0.151775 0.43781,0.151775 0.934,0.3794375 0.50202,0.221825 1.03323,0.4494875 0.53705,0.221825 1.05659,0.3794375 0.52538,0.1576125 1.00405,0.16345 V -2.31165 q -0.44365,0.058375 -0.82309,0.198475 -0.37943,0.1342625 -0.78806,0.3444125 -0.40862,0.21015 -0.95151,0.502025 -0.7472,0.39694999 -1.41268,0.68298749 Q 115.3802,-0.2977125 114.6797,-0.1459375 113.98503,0 113.12108,0 h -0.97486 z m -0.67715,-6.4971376 v 8.1783376 h -1.57612 v -8.1783376 z m -6.33953,6.5146501 q 0.47868,0 0.934,-0.064213 0.46117,-0.07005 0.75888,-0.25685 0.30355,-0.1868 0.30355,-0.5428875 0,-0.3677625 -0.35609,-0.7822251 -0.35025,-0.4203 -0.934,-0.8230875 -0.57791,-0.4027875 -1.2609,-0.72385 l 0.71801,-1.51775 q 0.61878,0.30355 1.20837,0.6829875 0.59542,0.3736 1.06826,0.8347625 0.47867,0.4611625 0.75887,1.0215625 0.28604,0.5604 0.28604,1.2375501 0,0.934 -0.42614,1.506075 -0.4203,0.57207499 -1.18501,0.828925 -0.76471,0.25685 -1.78627,0.25685 -0.467,0 -0.86979,-0.0291875 -0.40279,-0.035025 -0.78806,-0.1225875 v -1.6812 q 0.37943,0.075887 0.81141,0.128425 0.43781,0.0467 0.75887,0.0467 z m -3.19367,4.8568001 -0.59542,-1.5644501 q 0.84643,-0.1809625 1.45353,-0.4845125 0.61294,-0.29771249 0.94568,-0.79973749 0.33274,-0.50202501 0.33274,-1.29592503 0,-0.53121248 -0.16929,-1.19084998 -0.16929,-0.665475 -0.36193,-1.2375501 l 1.57613,-0.5078625 q 0.22766,0.6362875 0.34441,1.3718126 0.12259,0.735525 0.12259,1.412675 0,1.225875 -0.45533,2.10150002 -0.44948,0.88146248 -1.27257,1.42434998 -0.81725,0.548725 -1.92054,0.7705501 z M 99.122193,-8.1841751 h 1.576127 V -2.8487 q 0,0.618775 0.18096,0.8931375 0.18096,0.268525 0.7472,0.268525 h 0.14594 V 0 h -0.14594 Q 100.31888,0 99.717618,-0.67715001 99.122193,-1.3543 99.122193,-2.7086 Z m -5.259583,6.4971376 h 0.881463 q 0.642125,0 0.881462,-0.2159875 0.245175,-0.221825 0.245175,-0.805575 0,-0.3444125 -0.01751,-0.6654751 -0.01751,-0.3269 -0.04086,-0.6362875 l 1.459376,-0.1809625 0.11675,1.6695251 q 0.02919,0.44365 0.245175,0.642125 0.215987,0.1926375 0.688825,0.1926375 h 0.122587 V 0 H 98.310786 Q 97.727036,0 97.306736,-0.21015 96.892273,-0.42030001 96.623748,-0.75887501 96.26766,-0.40278751 95.77731,-0.198475 95.292798,0 94.744073,0 H 93.86261 Z M 94.014385,0.74720001 95.00676,1.7279 95.98746,0.74720001 96.985673,1.739575 95.98746,2.743625 95.00676,1.75125 94.014385,2.743625 93.02201,1.739575 Z M 88.760637,-1.6870375 q -0.16345,-0.291875 -0.25685,-0.6946625 -0.0934,-0.408625 -0.0934,-0.7355251 0,-0.6946625 0.344412,-1.2784125 0.344413,-0.5895875 0.928163,-0.9398375 0.589587,-0.3560875 1.301762,-0.3560875 0.659638,0 1.202525,0.2393375 0.542888,0.2335 1.109125,0.618775 l -0.6071,1.389325 q -0.379437,-0.2276625 -0.758875,-0.3911125 -0.379437,-0.16345 -0.834762,-0.16345 -0.268525,0 -0.542888,0.1109125 -0.274362,0.1109125 -0.455325,0.3210625 -0.180962,0.2043125 -0.180962,0.4961875 0,0.2451751 0.110912,0.4786751 0.11675,0.2276625 0.274363,0.4027875 0.157612,0.1692875 0.2802,0.245175 0.02335,0.00584 0.0934,-0.017513 l 2.842862,-0.67715 v 1.69287498 Q 92.047149,-0.50202501 90.698687,-0.2510125 89.356062,0 88.083487,0 H 87.493899 V -1.6870375 Z M 76.350951,-2.2883 q 0.204313,-0.6479625 0.542888,-1.2142001 0.344412,-0.572075 0.823087,-0.922325 0.484513,-0.35025 1.09745,-0.35025 0.718013,0 1.255063,0.3210625 0.542887,0.315225 0.8406,0.8873 0.30355,0.5720751 0.30355,1.3426251 0,0.63045 -0.227663,1.155825 -0.227662,0.52537499 -0.682987,0.8464375 -0.449488,0.315225 -1.114963,0.315225 -0.315225,0 -0.671312,-0.1109125 -0.356088,-0.1109125 -0.706338,-0.2510125 -0.344412,-0.14593751 -0.63045,-0.25685001 -0.2802,-0.1109125 -0.449487,-0.1109125 -0.262688,0 -0.35025,0.57207501 -0.08756,0.57207501 -0.08756,1.4185125 0,0.4961875 0.01751,0.9748625 0.02335,0.478675 0.0467,0.8464376 0.02919,0.3677625 0.0467,0.5428875 h -1.605313 q -0.02919,-0.63045 -0.05837,-1.2258751 -0.02335,-0.5895875 -0.02335,-1.1383125 0,-1.02739999 0.105075,-1.79795001 0.110913,-0.77054999 0.455325,-1.24338749 0.35025,-0.4728375 1.0741,-0.6012625 z m 3.379913,0.052538 q 0,-0.3560875 -0.245175,-0.6362875 -0.239338,-0.2802001 -0.647963,-0.2802001 -0.25685,0 -0.455325,0.1751251 -0.198475,0.175125 -0.338575,0.431975 -0.134262,0.25685 -0.221825,0.5078625 0.391113,0.175125 0.764713,0.3269 0.379437,0.1459375 0.63045,0.1459375 0.286037,0 0.39695,-0.2043125 0.11675,-0.2043125 0.11675,-0.467 z m -7.974028,-5.9484126 h 1.576125 V -2.8487 q 0,0.618775 0.180963,0.8931375 0.180962,0.268525 0.7472,0.268525 h 0.145937 V 0 H 74.261124 Q 72.953524,0 72.352261,-0.67715001 71.756836,-1.3543 71.756836,-2.7086 Z M 64.249811,0 h -0.25685 l 0.0058,-1.6870375 h 0.221825 q 0.286038,0 0.5137,-0.221825 0.2335,-0.221825 0.44365,-0.572075 0.215988,-0.3560875 0.449488,-0.7472001 0.239337,-0.39695 0.531212,-0.7472 0.297713,-0.3560875 0.688825,-0.5779125 0.391113,-0.221825 0.916488,-0.221825 0.659637,0 1.149987,0.2743625 0.496188,0.2743625 0.799738,0.7413625 0.30355,0.467 0.402787,1.0449126 0.09924,0.58375 0.3269,0.805575 0.227663,0.221825 0.484513,0.221825 h 0.151775 V 0 h -0.157613 q -0.3736,0 -0.735525,-0.1692875 -0.361925,-0.17512501 -0.58375,-0.40862501 -0.291875,0.36776251 -0.647962,0.54288751 -0.356088,0.1692875 -0.858113,0.1692875 -0.6071,0 -1.138312,-0.25685 -0.525375,-0.26268751 -1.0274,-0.64796251 -0.321063,0.3210625 -0.671313,0.54872501 Q 64.915286,0 64.249811,0 Z m 3.566712,-3.1697626 q -0.239337,0 -0.431975,0.1634501 -0.192637,0.1576125 -0.338575,0.385275 -0.145937,0.2276625 -0.245175,0.431975 0.180963,0.16345 0.344413,0.2802 0.16345,0.11675 0.309387,0.198475 0.198475,0.099237 0.361925,0.1459375 0.16345,0.040862 0.286038,0.040862 0.309387,0 0.44365,-0.221825 0.134262,-0.2276625 0.134262,-0.5137 0,-0.3677625 -0.227662,-0.6362875 -0.227663,-0.2743626 -0.636288,-0.2743626 z m -7.022511,-4.3839625 0.992375,0.9807 0.9807,-0.9807 0.998213,0.992375 -0.998213,1.00405 -0.9807,-0.992375 -0.992375,0.992375 -0.992375,-1.00405 z M 61.366087,0 h -1.185012 v -1.6870375 h 1.19085 q 0.44365,0 0.6071,-0.2743625 0.169287,-0.2802 0.169287,-0.7063375 0,-0.3969501 -0.09924,-0.8639501 -0.0934,-0.4728375 -0.192638,-0.922325 l 1.529425,-0.39695 q 0.110913,0.548725 0.175125,1.0916125 0.07005,0.53705 0.07005,1.0274001 0,0.7763875 -0.21015,1.3951625 -0.21015,0.61877499 -0.706337,0.98069999 Q 62.2242,0 61.366087,0 Z"
       id="text1"
       transform="matrix(1.3333333,0,0,1.3333333,188.596,53.658667)"
       aria-label="ﮏﺴﯾر:۴ﮓﻨﺟﯽﻠﺧادرﺎﯿﻋ مﺎﻤﺗ" />
  </g>
</svg>
