<?xml version="1.0" encoding="UTF-8" standalone="no"?>


<svg class="tikz-diagram" id="iran-action-ch8-tikz-4-91f7c9e5e413"
   version="1.1"
   id="svg1"
   width="571.64001"
   height="99.199997"
   viewBox="0 0 571.64001 99.199997"
   sodipodi:docname="iran-action-ch8-tikz-4-91f7c9e5e413.pdf"
   xmlns:inkscape="http://www.inkscape.org/namespaces/inkscape"
   xmlns:sodipodi="http://sodipodi.sourceforge.net/DTD/sodipodi-0.dtd"
   xmlns="http://www.w3.org/2000/svg"
   xmlns:svg="http://www.w3.org/2000/svg">
  <defs
     id="defs1" />
  <sodipodi:namedview
     id="namedview1"
     pagecolor="#ffffff"
     bordercolor="#000000"
     borderopacity="0.25"
     inkscape:showpageshadow="2"
     inkscape:pageopacity="0.0"
     inkscape:pagecheckerboard="0"
     inkscape:deskcolor="#d1d1d1">
    <inkscape:page
       x="0"
       y="0"
       inkscape:label="1"
       id="page1"
       width="571.64001"
       height="99.199997"
       margin="0"
       bleed="0" />
  </sodipodi:namedview>
  <g
     id="g1"
     inkscape:groupmode="layer"
     inkscape:label="1">
    <path
       id="path1"
       d="m 188.46497,21.2601 h -376.92994 c -5.50236,0 -9.96276,-4.46042 -9.96276,-9.96277 v -22.59466 c 0,-5.50235 4.4604,-9.96277 9.96276,-9.96277 h 376.92994 c 5.50236,0 9.96276,4.46042 9.96276,9.96277 v 22.59466 c 0,5.50235 -4.4604,9.96277 -9.96276,9.96277 z"
       style="fill:#fdf6db;fill-opacity:1;fill-rule:nonzero;stroke:#f1c40f;stroke-width:1.99255;stroke-linecap:butt;stroke-linejoin:miter;stroke-miterlimit:10;stroke-dasharray:none;stroke-opacity:1"
       transform="matrix(1.3333333,0,0,-1.3333333,285.82,49.6)" />
    <path
       style="font-weight:800;font-size:11.9552px;font-family:Vazirmatn"
       d="M 31.574478,0 H 30.09759 Q 29.09354,0 28.241265,-0.1225875 27.38899,-0.2510125 26.75854,-0.56623751 26.133928,-0.88146251 25.783678,-1.4477 q -0.344413,-0.572075 -0.344413,-1.459375 0,-0.5253751 0.11675,-1.0274001 0.11675,-0.502025 0.291875,-0.9281625 l 1.406838,0.5312125 q -0.09924,0.2743625 -0.204313,0.642125 -0.09924,0.361925 -0.09924,0.6888251 0,0.58375 0.431975,0.86395 0.431975,0.2802 1.14415,0.3677625 0.718012,0.081725 1.570287,0.081725 h 1.47105 q 0.934,0 1.401,-0.128425 0.467001,-0.1342625 0.467001,-0.5428875 0,-0.1926375 -0.286038,-0.44365 -0.286038,-0.25685 -0.718013,-0.5370501 -0.426137,-0.2860375 -0.875625,-0.5604 -0.44365,-0.2802 -0.77055,-0.5137 -0.245175,-0.1809625 -0.3736,-0.4728375 -0.128425,-0.2977125 -0.128425,-0.6071 0,-0.338575 0.151775,-0.6071 0.157613,-0.2743625 0.478675,-0.4027875 l 4.506551,-1.8388125 v 1.669525 l -3.152251,1.2784125 q 0.776388,0.467 1.278413,0.8347625 0.502025,0.3677625 0.81725,0.7647125 0.321063,0.3911125 0.548725,0.9456751 0.175125,0.4203 0.332738,0.67715 0.16345,0.25685 0.408625,0.3736 0.245175,0.1109125 0.671312,0.1109125 h 0.157613 V 0 h -0.157613 q -0.706337,0 -1.185012,-0.2043125 -0.472838,-0.21015001 -0.805575,-0.69466251 -0.30355,0.338575 -0.665475,0.53705 Q 33.314053,-0.1692875 32.812028,-0.081725 32.31584,0 31.574478,0 Z m -9.701925,0 q -0.519538,0 -0.881463,-0.2159875 -0.361925,-0.21598751 -0.6071,-0.53121251 -0.297712,0.315225 -0.67715,0.53121251 Q 19.33324,0 18.81954,0 q -0.589587,0 -0.992375,-0.198475 -0.39695,-0.20431251 -0.6538,-0.53705001 -0.321062,0.338575 -0.764712,0.53705001 Q 15.965003,0 15.287853,0 h -0.53705 v -1.6870375 h 0.548725 q 0.642125,0 0.91065,-0.1576125 0.274362,-0.1576125 0.274362,-0.758875 0,-0.0934 -0.01168,-0.3093875 -0.01168,-0.2159876 -0.02919,-0.4728376 -0.01751,-0.2626875 -0.03502,-0.4728375 l 1.465212,-0.1809625 0.122588,1.5761251 q 0.05254,0.7763875 0.834762,0.7763875 0.484513,0 0.647963,-0.198475 0.16345,-0.2043125 0.16345,-0.7180125 0,-0.081725 -0.01167,-0.2977125 -0.01168,-0.2218251 -0.02919,-0.4845126 -0.01751,-0.2626875 -0.03503,-0.4728375 l 1.465213,-0.1809625 0.122587,1.5761251 q 0.02335,0.361925 0.180963,0.572075 0.157612,0.2043125 0.525375,0.2043125 0.361925,0 0.49035,-0.2393375 0.134262,-0.2393375 0.134262,-0.67715 0,-0.21015 -0.02335,-0.6071001 -0.02335,-0.39695 -0.05254,-0.758875 l 1.465212,-0.1809625 0.122588,1.6870376 q 0.02919,0.431975 0.239337,0.6071 0.215988,0.1692875 0.665475,0.1692875 H 25.07734 V 0 H 24.91389 Q 24.37684,0 23.962378,-0.1868 23.553753,-0.37360001 23.314415,-0.69466251 23.075078,-0.39695001 22.724828,-0.198475 22.374578,0 21.872553,0 Z m -9.748625,0 h -1.255062 v -1.6870375 h 1.2609 q 0.44365,0 0.6071,-0.2743625 0.169287,-0.2802 0.169287,-0.7063375 0,-0.3969501 -0.09924,-0.8639501 -0.0934,-0.4728375 -0.192638,-0.922325 l 1.529425,-0.39695 q 0.110913,0.548725 0.175125,1.0916125 0.07005,0.53705 0.07005,1.0274001 0,0.7763875 -0.21015,1.3951625 -0.204312,0.61877499 -0.7005,0.98069999 Q 12.982041,0 12.123928,0 Z M 11.020641,0.74720001 12.013016,1.7279 12.993716,0.74720001 13.991928,1.739575 12.993716,2.743625 12.013016,1.75125 11.020641,2.743625 10.028266,1.739575 Z M 6.8876896,3.1872751 6.2922646,1.622825 Q 7.1387021,1.4418625 7.7458021,1.1383125 8.3587396,0.84060001 8.6914771,0.33857501 9.0242146,-0.16345 9.0242146,-0.95735002 9.0242146,-1.4885625 8.8549271,-2.1482 8.6856396,-2.813675 8.4930021,-3.3857501 l 1.5761249,-0.5078625 q 0.227663,0.6362875 0.344413,1.3718126 0.122587,0.735525 0.122587,1.412675 0,1.225875 -0.455325,2.10150002 Q 9.6313146,1.8738375 8.8082271,2.416725 7.9909771,2.96545 6.8876896,3.1872751 Z M 6.6769791,-4.4715251 q 0,-0.44365 0.315225,-0.735525 0.315225,-0.291875 0.758875,-0.291875 0.4494875,0 0.758875,0.291875 0.315225,0.291875 0.315225,0.735525 0,0.4378125 -0.315225,0.7296875 -0.315225,0.291875 -0.758875,0.291875 -0.455325,0 -0.7647125,-0.2860375 -0.3093875,-0.291875 -0.3093875,-0.735525 z m 0,3.4382876 q 0,-0.4378125 0.315225,-0.7296875 0.315225,-0.2977125 0.758875,-0.2977125 0.4494875,0 0.758875,0.2977125 0.315225,0.291875 0.315225,0.7296875 0,0.44364999 -0.315225,0.735525 -0.315225,0.291875 -0.758875,0.291875 -0.455325,0 -0.7647125,-0.291875 -0.3093875,-0.29187501 -0.3093875,-0.735525 z M 45.11108,-3.9111251 q -0.385275,0 -0.764712,-0.1342625 -0.3736,-0.1401 -0.577913,-0.3736 -0.204312,0.2159875 -0.531212,0.361925 -0.321063,0.1459375 -0.624613,0.1459375 -0.08173,0 -0.204312,0 -0.122588,-0.00584 -0.204313,-0.02335 0.08172,0.758875 0.105075,1.4185126 0.02335,0.6596375 0.02335,1.3543 V 0 h -1.599475 v -1.179175 q 0,-1.389325 -0.105075,-2.5042876 -0.105075,-1.1208 -0.344413,-2.0489625 -0.239337,-0.934 -0.636287,-1.7570875 l 1.4944,-0.53705 q 0.21015,0.502025 0.344412,0.898975 0.134263,0.39695 0.35025,0.91065 0.105075,0.2510125 0.256851,0.4261375 0.157612,0.175125 0.461162,0.175125 0.344413,0 0.44365,-0.25685 0.09924,-0.2626875 0.105075,-0.77055 l 0.01167,-0.8814625 1.290088,-0.07005 0.03502,0.8347625 q 0.02919,0.7063375 0.169287,0.9281625 0.145938,0.2159875 0.44365,0.2159875 0.221825,0 0.332738,-0.1576125 0.110912,-0.1576125 0.145937,-0.39695 0.03503,-0.2393375 0.03503,-0.49035 0,-0.291875 -0.0467,-0.5895875 -0.04086,-0.2977125 -0.07005,-0.502025 l 1.506075,-0.1401 q 0.02919,0.291875 0.0467,0.6012625 0.02335,0.30355 0.02335,0.6012625 0,0.7296875 -0.180962,1.365975 -0.175125,0.63045 -0.595425,1.0215625 -0.414463,0.3911125 -1.138313,0.3911125 z M 189.09665,0 q -0.81725,0 -1.34262,-0.30938751 -0.52538,-0.315225 -0.75888,-1.02739999 -0.67131,0.52537499 -1.46521,0.52537499 -0.96902,0 -1.61699,-0.52537499 -0.64796,-0.5312125 -0.64796,-1.56445 0,-0.7588751 0.43781,-1.2959251 0.43782,-0.5428875 1.12664,-0.91065 0.69466,-0.3677625 1.4477,-0.595425 l -0.0409,-0.2802 1.41267,-0.2860375 0.55457,3.7476751 q 0.0525,0.3560875 0.27436,0.595425 0.22766,0.2393375 0.64212,0.2393375 h 0.18097 V 0 Z m -2.42256,-3.1347376 q 0,-0.081725 -0.0175,-0.1809625 -0.0117,-0.105075 -0.0292,-0.2159875 l -0.0992,-0.6129375 q -0.41446,0.1401 -0.81725,0.3269 -0.39695,0.1809625 -0.65963,0.4027875 -0.25685,0.2159875 -0.25685,0.4670001 0,0.2393375 0.19263,0.3911125 0.19848,0.1459375 0.5137,0.1459375 0.26853,0 0.53705,-0.075888 0.27437,-0.081725 0.45533,-0.2393375 0.18096,-0.16345 0.18096,-0.4086251 z M 180.04271,0 h -1.65201 v -1.6870375 h 1.65785 q 0.44365,0 0.6071,-0.2743625 0.16928,-0.2802 0.16928,-0.7063375 0,-0.3969501 -0.0992,-0.8639501 -0.0934,-0.4728375 -0.19264,-0.922325 l 1.52942,-0.39695 q 0.11092,0.548725 0.17513,1.0916125 0.0701,0.53705 0.0701,1.0274001 0,0.7763875 -0.21015,1.3951625 -0.20431,0.61877499 -0.7005,0.98069999 Q 180.90082,0 180.04271,0 Z m -1.10329,0.74720001 0.99238,0.98069999 0.9807,-0.98069999 0.99821,0.99237499 -0.99821,1.00405 -0.9807,-0.992375 -0.99238,0.992375 -0.99237,-1.00405 z m -2.63857,-7.54788761 1.05075,1.05075 -1.05075,1.0449125 -1.04491,-1.0449125 z M 178.46073,0 q -0.53122,0 -0.87563,-0.2043125 -0.2335,1.342625 -1.14999,2.21825 -0.91065,0.875625 -2.43423,1.1675001 L 173.42296,1.622825 q 0.84644,-0.1809625 1.45354,-0.4845125 0.61294,-0.29771249 0.94568,-0.79973749 0.33273,-0.50202501 0.33273,-1.29592503 0,-0.53121248 -0.16928,-1.19084998 -0.16929,-0.665475 -0.36193,-1.2375501 l 1.57029,-0.5078625 0.33857,1.3192751 q 0.0992,0.3736 0.29188,0.63045 0.19264,0.25685 0.57207,0.25685 h 0.22767 V 0 Z m -8.9839,0.68882501 1.05075,1.05074999 -1.05075,1.0449125 -1.04492,-1.0449125 z m 3.86442,-4.54741261 V -2.335 q -0.33857,0.035025 -0.68882,0.1576125 -0.34442,0.11675 -0.60127,0.2335 0.11092,0.16345 0.53705,0.21015 0.43198,0.0467 0.94568,0.0467 h 0.32106 V 0 h -0.34441 q -1.06826,0 -1.72206,-0.2802 -0.64797,-0.28603751 -0.8873,-1.062425 -1.07994,0.57791249 -2.15988,0.96318749 Q 167.6672,0 166.44716,0 h -0.97486 v -1.6870375 h 0.99238 q 0.75303,0 1.39516,-0.1401 0.64796,-0.1459375 1.33679,-0.431975 0.68882,-0.2860375 1.56445,-0.712175 -0.89898,-0.3327376 -1.45354,-0.5545626 -0.55456,-0.221825 -0.75888,-0.221825 -0.31522,0 -0.57207,0.198475 -0.25101,0.1926375 -0.41446,0.408625 l -0.30939,0.3911126 -1.3076,-0.6421251 0.26269,-0.4203 q 0.41446,-0.67715 0.99237,-1.1208 0.57791,-0.4494875 1.3543,-0.4494875 0.3269,0 0.75888,0.151775 0.43781,0.151775 0.934,0.3794375 0.50202,0.221825 1.03323,0.4494875 0.53705,0.221825 1.05659,0.3794375 0.52538,0.1576125 1.00405,0.16345 z m -11.0679,-3.6951375 0.99237,0.9807 0.9807,-0.9807 0.99822,0.992375 -0.99822,1.00405 -0.9807,-0.992375 -0.99237,0.992375 -0.99238,-1.00405 z M 162.84542,0 h -1.18501 v -1.6870375 h 1.19085 q 0.44365,0 0.6071,-0.2743625 0.16929,-0.2802 0.16929,-0.7063375 0,-0.3969501 -0.0992,-0.8639501 -0.0934,-0.4728375 -0.19264,-0.922325 l 1.52943,-0.39695 q 0.11091,0.548725 0.17512,1.0916125 0.07,0.53705 0.07,1.0274001 0,0.7763875 -0.21015,1.3951625 -0.21015,0.61877499 -0.70633,0.98069999 Q 163.70354,0 162.84542,0 Z m 1.42379,-1.295925 q 0,1.365975 -0.50786,2.27078752 Q 163.25932,1.879675 162.337,2.4108875 161.41467,2.9421 160.15377,3.1814376 L 159.57586,1.622825 q 1.19085,-0.2276625 1.99059,-0.64796248 0.80557,-0.42030001 1.02156,-1.03323752 -0.14594,0.0291875 -0.30355,0.0525375 -0.15761,0.0175125 -0.28604,0.0175125 -1.10912,0 -1.74541,-0.49035001 -0.63629,-0.49035001 -0.63629,-1.61114999 0,-0.467 0.1401,-0.9515125 0.1401,-0.4903501 0.4203,-0.8989751 0.2802,-0.4144625 0.69466,-0.665475 0.41447,-0.2510125 0.96319,-0.2510125 0.63045,0 1.08578,0.30355 0.46116,0.30355 0.75887,0.8114125 0.29771,0.5078625 0.44365,1.1441501 0.14594,0.6362875 0.14594,1.3017625 z m -2.29414,-0.3736 q 0.25101,0 0.45533,-0.029188 0.21015,-0.029187 0.34441,-0.058375 -0.035,-0.2977125 -0.13426,-0.6362875 -0.0992,-0.338575 -0.29772,-0.5779125 -0.19263,-0.2451751 -0.51953,-0.2451751 -0.2802,0 -0.44365,0.1868001 -0.15762,0.1868 -0.22183,0.4378125 -0.0642,0.2510125 -0.0642,0.4378125 0,0.315225 0.25101,0.4027875 0.25685,0.081725 0.63045,0.081725 z m -3.61397,4.67 q -1.28425,0 -2.09567,-0.4961875 -0.80557,-0.4961875 -1.19085,-1.33095 -0.37943,-0.82892499 -0.37943,-1.84465001 0,-0.57791249 0.11091,-1.20836249 0.11675,-0.63045 0.36192,-1.2842501 l 1.41852,0.5137001 q -0.17513,0.5078625 -0.2802,1.0098875 -0.10508,0.502025 -0.10508,0.94567499 0,0.56623751 0.19848,1.02156252 0.20431,0.4611625 0.67715,0.72968749 0.47283,0.2743625 1.28425,0.2743625 0.92816,0 1.48856,-0.1926375 0.5604,-0.19263748 0.81141,-0.43197499 0.25685,-0.2393375 0.25685,-0.3736 0,-0.20431251 -0.19847,-0.26852501 Q 160.52681,0 160.10067,0 h -0.92232 q -0.23934,0 -0.30355,-0.1225875 -0.0642,-0.1225875 -0.12259,-0.32690001 L 158.5012,-1.3543 q -0.0409,-0.1459375 -0.0292,-0.2393375 0.0175,-0.0934 0.22766,-0.0934 h 3.52585 V 0 h 0.0467 q 0.0525,0.2043125 0.0525,0.32690001 0,0.71217499 -0.47284,1.31927499 -0.467,0.6129375 -1.3543,0.9807 -0.88146,0.3736 -2.13652,0.3736 z m -8.53443,-11.3364251 0.93984,0.934 -0.93984,0.9398375 -0.93984,-0.9398375 z m 1.02156,1.4885625 0.93984,0.9398375 -0.93984,0.9398375 -0.93983,-0.9398375 z m -2.03728,0 0.934,0.9398375 -0.934,0.9398375 -0.93984,-0.9398375 z M 148.57745,0 q -0.58959,0 -0.99238,-0.198475 -0.39695,-0.20431251 -0.6538,-0.53705001 -0.32106,0.338575 -0.76471,0.53705001 Q 145.72291,0 145.04576,0 h -0.53705 v -1.6870375 h 0.54872 q 0.64213,0 0.91065,-0.1576125 0.27437,-0.1576125 0.27437,-0.758875 0,-0.0934 -0.0117,-0.3093875 -0.0117,-0.2159876 -0.0292,-0.4728376 -0.0175,-0.2626875 -0.035,-0.4728375 l 1.46521,-0.1809625 0.12259,1.5761251 q 0.0525,0.7763875 0.83476,0.7763875 0.48451,0 0.64796,-0.198475 0.16345,-0.2043125 0.16345,-0.7180125 0,-0.081725 -0.0117,-0.2977125 -0.0117,-0.2218251 -0.0292,-0.4845126 -0.0175,-0.2626875 -0.035,-0.4728375 l 1.46521,-0.1809625 0.12259,1.5761251 q 0.0233,0.3560875 0.17512,0.5662375 0.15761,0.21015 0.53121,0.21015 0.35025,0 0.47868,-0.2743625 0.13426,-0.2802 0.13426,-0.665475 0,-0.3327375 -0.0642,-0.6829876 -0.0584,-0.3560875 -0.13426,-0.642125 -0.0701,-0.291875 -0.10508,-0.4261375 l 1.51191,-0.4144625 q 0.11675,0.4611625 0.19264,0.9865375 0.0759,0.5195375 0.0759,1.0332376 0,0.72385 -0.19264,1.3601375 -0.1868,0.63044999 -0.64212,1.02156249 Q 152.41852,0 151.63046,0 q -0.52538,0 -0.8873,-0.2159875 -0.35609,-0.21598751 -0.60126,-0.53121251 -0.29772,0.315225 -0.67715,0.53121251 Q 149.09115,0 148.57745,0 Z m -6.48547,-8.1841751 h 1.57613 V -2.8487 q 0,0.618775 0.18096,0.8931375 0.18096,0.268525 0.7472,0.268525 h 0.14594 V 0 h -0.14594 q -1.3076,0 -1.90886,-0.67715001 Q 142.09198,-1.3543 142.09198,-2.7086 Z M 138.55446,0 h -1.25506 v -1.6870375 h 1.2609 q 0.44365,0 0.6071,-0.2743625 0.16929,-0.2802 0.16929,-0.7063375 0,-0.3969501 -0.0992,-0.8639501 -0.0934,-0.4728375 -0.19264,-0.922325 l 1.52943,-0.39695 q 0.11091,0.548725 0.17512,1.0916125 0.0701,0.53705 0.0701,1.0274001 0,0.7763875 -0.21015,1.3951625 -0.20431,0.61877499 -0.7005,0.98069999 Q 139.41258,0 138.55446,0 Z m 0.88147,0.57791251 0.93983,0.93983749 -0.93983,0.9398375 -0.93984,-0.9398375 z m -2.03729,0 0.934,0.93983749 -0.934,0.9398375 L 136.4588,1.51775 Z M 138.41436,2.0723125 139.3542,3.01215 138.41436,3.9461501 137.47453,3.01215 Z m -1.45938,-3.3682375 q 0,1.365975 -0.50786,2.27078752 Q 135.9451,1.879675 135.02277,2.4108875 134.10045,2.9421 132.83955,3.1814376 L 132.26163,1.622825 q 1.19085,-0.2276625 1.99059,-0.64796248 0.80558,-0.42030001 1.02156,-1.03323752 -0.14593,0.0291875 -0.30355,0.0525375 -0.15761,0.0175125 -0.28603,0.0175125 -1.10913,0 -1.74542,-0.49035001 -0.63628,-0.49035001 -0.63628,-1.61114999 0,-0.467 0.1401,-0.9515125 0.1401,-0.4903501 0.4203,-0.8989751 0.2802,-0.4144625 0.69466,-0.665475 0.41446,-0.2510125 0.96319,-0.2510125 0.63045,0 1.08577,0.30355 0.46116,0.30355 0.75888,0.8114125 0.29771,0.5078625 0.44365,1.1441501 0.14593,0.6362875 0.14593,1.3017625 z m -2.29413,-0.3736 q 0.25101,0 0.45532,-0.029188 0.21015,-0.029187 0.34441,-0.058375 -0.035,-0.2977125 -0.13426,-0.6362875 -0.0992,-0.338575 -0.29771,-0.5779125 -0.19264,-0.2451751 -0.51954,-0.2451751 -0.2802,0 -0.44365,0.1868001 -0.15761,0.1868 -0.22182,0.4378125 -0.0642,0.2510125 -0.0642,0.4378125 0,0.315225 0.25102,0.4027875 0.25685,0.081725 0.63045,0.081725 z M 131.62171,0 q -0.53122,0 -0.87563,-0.2043125 -0.2335,1.342625 -1.14999,2.21825 -0.91065,0.875625 -2.43423,1.1675001 L 126.58394,1.622825 q 0.84644,-0.1809625 1.45354,-0.4845125 0.61294,-0.29771249 0.94568,-0.79973749 0.33273,-0.50202501 0.33273,-1.29592503 0,-0.53121248 -0.16928,-1.19084998 -0.16929,-0.665475 -0.36193,-1.2375501 l 1.57029,-0.5078625 0.33857,1.3192751 q 0.0992,0.3736 0.29188,0.63045 0.19264,0.25685 0.57207,0.25685 h 0.22767 V 0 Z m -6.97581,-9.5209627 1.05075,1.0507501 -1.05075,1.0449125 -1.04492,-1.0449125 z m -0.44365,7.8339252 q 0.7472,0 1.13831,-0.11675 0.39695,-0.11675 0.40279,-0.5779125 -0.42614,0.081725 -0.90482,0.081725 -1.03323,0 -1.6345,-0.4261375 -0.60126,-0.4319751 -0.60126,-1.4010001 0,-0.4728375 0.15178,-0.934 0.15761,-0.467 0.44365,-0.8464375 0.29187,-0.385275 0.69466,-0.6129375 0.40862,-0.2335 0.91065,-0.2335 0.64796,0 1.10912,0.3269 0.467,0.3210625 0.75888,0.86395 0.29187,0.5428875 0.42614,1.2142 0.1401,0.665475 0.1401,1.3601376 0,1.2142 -0.33274,1.8621625 -0.3269,0.64212499 -1.01573,0.8873 Q 125.2063,0 124.1322,0 h -2.1482 v -1.6870375 z m 0.61293,-2.0431251 q 0.22183,0 0.44365,-0.02335 0.22767,-0.02335 0.44365,-0.07005 -0.0409,-0.2802 -0.15177,-0.5779125 -0.11091,-0.30355 -0.29771,-0.5137 -0.1868,-0.21015 -0.46117,-0.21015 -0.36192,0 -0.5604,0.2977125 -0.19263,0.291875 -0.19263,0.63045 0,0.3093875 0.22766,0.3911125 0.22766,0.075888 0.54872,0.075888 z M 120.78647,0 H 119.438 q -1.00988,0 -1.86216,-0.1225875 -0.84644,-0.128425 -1.47689,-0.44365001 -0.62461,-0.315225 -0.97486,-0.88146249 -0.34441,-0.572075 -0.34441,-1.459375 0,-0.5253751 0.11675,-1.0215626 0.11675,-0.502025 0.29187,-0.9281625 l 1.40684,0.525375 q -0.0992,0.2743625 -0.20431,0.642125 -0.0992,0.361925 -0.0992,0.6888251 0,0.58375 0.43198,0.86395 0.43197,0.2802 1.14415,0.3677625 0.71801,0.081725 1.57028,0.081725 h 1.36598 q 1.07994,0 1.6812,-0.1926375 0.6071,-0.1926375 0.6071,-0.7763875 0,-0.385275 -0.0934,-0.8756251 -0.0876,-0.49035 -0.19848,-0.934 l 1.53527,-0.385275 q 0.11675,0.548725 0.18096,1.0916125 0.0642,0.53705 0.0642,1.0215626 0,0.875625 -0.29187,1.4185125 -0.29188,0.54288749 -0.81725,0.82892499 -0.51954,0.28603751 -1.20837,0.39111251 Q 121.57453,0 120.78647,0 Z m -2.0548,-6.4037376 0.99237,0.9807 0.9807,-0.9807 0.99821,0.992375 -0.99821,1.00405 -0.9807,-0.992375 -0.99237,0.992375 -0.99238,-1.00405 z M 111.59825,-2.5218 q 0,-0.1459375 -0.0642,-0.385275 -0.0642,-0.2393376 -0.13427,-0.3911126 l -1.15582,-2.5509875 1.38932,-0.67715 1.45354,3.350725 q 0.17513,0.4027876 0.30939,0.7413626 0.1401,0.338575 0.31522,0.5428875 0.18097,0.2043125 0.46117,0.2043125 h 0.24517 V 0 h -0.24517 q -0.6538,0 -1.05659,-0.245175 -0.39695,-0.25101251 -0.7005,-0.64212501 -0.44365,0.4261375 -1.05659,0.65380001 -0.61294,0.2276625 -1.48272,0.2276625 -0.5137,0 -0.86979,-0.035025 -0.35609,-0.035025 -0.73553,-0.128425 V -1.856325 q 0.36193,0.087562 0.76472,0.1342625 0.40862,0.0467 0.75303,0.0467 0.43198,0 0.84644,-0.07005 0.41446,-0.075887 0.68883,-0.2626875 0.27436,-0.1868 0.27436,-0.5137 z m -12.077801,0.8347625 h 0.992371 q 0.75304,0 1.401,-0.1401 0.64797,-0.1459375 1.33095,-0.431975 0.68883,-0.2860375 1.56445,-0.712175 -0.89897,-0.3269001 -1.45353,-0.5487251 -0.55457,-0.2276625 -0.75888,-0.2276625 -0.31522,0 -0.57207,0.198475 -0.25102,0.1926375 -0.41447,0.408625 l -0.30938,0.3911126 -1.307603,-0.6421251 0.262683,-0.4203 q 0.41447,-0.67715 0.99238,-1.1208 0.57791,-0.4494875 1.3543,-0.4494875 0.3269,0 0.75887,0.151775 0.43782,0.151775 0.934,0.3794375 0.50203,0.221825 1.03324,0.4494875 0.53705,0.221825 1.05659,0.3794375 0.52537,0.1576125 1.00405,0.16345 V -2.31165 q -0.44365,0.058375 -0.82309,0.198475 -0.37944,0.1342625 -0.78806,0.3444125 -0.40863,0.21015 -0.95151,0.502025 -0.7472,0.39694999 -1.41268,0.68298749 -0.65964,0.28603751 -1.36014,0.43781251 Q 101.35926,0 100.49531,0 h -0.974861 z m -0.356083,0.3911125 q 0,1.365975 -0.507863,2.27078752 Q 98.154478,1.879675 97.232153,2.4108875 96.309828,2.9421 95.048928,3.1814376 L 94.471016,1.622825 q 1.19085,-0.2276625 1.990587,-0.64796248 0.805575,-0.42030001 1.021563,-1.03323752 -0.145938,0.0291875 -0.30355,0.0525375 -0.157613,0.0175125 -0.286038,0.0175125 -1.109125,0 -1.745412,-0.49035001 -0.636288,-0.49035001 -0.636288,-1.61114999 0,-0.467 0.1401,-0.9515125 0.1401,-0.4903501 0.4203,-0.8989751 0.2802,-0.4144625 0.694663,-0.665475 0.414462,-0.2510125 0.963187,-0.2510125 0.63045,0 1.085775,0.30355 0.461163,0.30355 0.758875,0.8114125 0.297713,0.5078625 0.44365,1.1441501 0.145938,0.6362875 0.145938,1.3017625 z m -2.294138,-0.3736 q 0.251013,0 0.455325,-0.029188 0.21015,-0.029187 0.344413,-0.058375 -0.03503,-0.2977125 -0.134263,-0.6362875 -0.09924,-0.338575 -0.297712,-0.5779125 -0.192638,-0.2451751 -0.519538,-0.2451751 -0.2802,0 -0.44365,0.1868001 -0.157612,0.1868 -0.221825,0.4378125 -0.06421,0.2510125 -0.06421,0.4378125 0,0.315225 0.251012,0.4027875 0.25685,0.081725 0.63045,0.081725 z m -3.613974,4.67 q -1.28425,0 -2.095663,-0.4961875 -0.805575,-0.4961875 -1.19085,-1.33095 -0.379437,-0.82892499 -0.379437,-1.84465001 0,-0.57791249 0.110912,-1.20836249 0.11675,-0.63045 0.361925,-1.2842501 l 1.418513,0.5137001 q -0.175125,0.5078625 -0.2802,1.0098875 -0.105075,0.502025 -0.105075,0.94567499 0,0.56623751 0.198475,1.02156252 0.204312,0.4611625 0.67715,0.72968749 0.472837,0.2743625 1.28425,0.2743625 0.928162,0 1.488562,-0.1926375 0.5604,-0.19263748 0.811413,-0.43197499 0.25685,-0.2393375 0.25685,-0.3736 0,-0.20431251 -0.198475,-0.26852501 Q 95.421966,0 94.995829,0 h -0.922325 q -0.239338,0 -0.30355,-0.1225875 -0.06421,-0.1225875 -0.122588,-0.32690001 L 93.396354,-1.3543 q -0.04086,-0.1459375 -0.02919,-0.2393375 0.01751,-0.0934 0.227663,-0.0934 h 3.52585 V 0 h 0.0467 q 0.05254,0.2043125 0.05254,0.32690001 0,0.71217499 -0.472837,1.31927499 -0.467,0.6129375 -1.3543,0.9807 -0.881463,0.3736 -2.136525,0.3736 z m -6.689764,-5.7908 v -5.3938501 h 1.570287 v 5.3938501 q 0,0.548725 0.175125,0.828925 0.180963,0.2743625 0.712175,0.2743625 h 0.1868 V 0 H 89.035752 Q 88.416977,0 88.025865,-0.1868 87.64059,-0.37943751 87.348715,-0.75303751 87.039327,-0.39695001 86.624865,-0.198475 86.21624,0 85.533252,0 h -0.356087 v -1.6870375 h 0.315225 q 0.589587,0 0.828925,-0.2626875 0.245175,-0.268525 0.245175,-0.8406 z m -3.806055,2.9245875 q -0.6071,0 -1.138313,-0.25685 -0.525375,-0.26268751 -1.0274,-0.64796251 Q 80.27366,-0.44948751 79.92341,-0.221825 79.578997,0 78.913522,0 h -0.25685 v -1.6870375 h 0.227663 q 0.286037,0 0.5137,-0.221825 0.2335,-0.221825 0.44365,-0.572075 0.215987,-0.3560875 0.449487,-0.7472001 0.239338,-0.39695 0.531213,-0.7472 0.297712,-0.3560875 0.688825,-0.5779125 0.391112,-0.221825 0.916487,-0.221825 0.735525,0 1.272575,0.35025 0.53705,0.3444125 0.828925,0.9164875 0.291875,0.5662376 0.291875,1.2375501 0,0.688825 -0.227662,1.2317125 -0.227663,0.54288749 -0.688825,0.8581125 -0.455325,0.315225 -1.14415,0.315225 z m -0.2802,-3.3040251 q -0.239338,0 -0.431975,0.1634501 -0.192638,0.1576125 -0.338575,0.385275 -0.145938,0.2276625 -0.245175,0.431975 0.169287,0.151775 0.321062,0.2626875 0.151775,0.1109125 0.291875,0.1926375 0.21015,0.11675 0.385275,0.16345 0.175125,0.0467 0.30355,0.0467 0.309388,0 0.44365,-0.221825 0.134263,-0.2276625 0.134263,-0.5137 0,-0.3677625 -0.227663,-0.6362875 -0.227662,-0.2743626 -0.636287,-0.2743626 z"
       id="text1"
       transform="matrix(1.3333333,0,0,1.3333333,164.028,53.316)"
       aria-label="ﮏﺴﯾر:۳ﻪﯾﺰﺠﺗوﯽﺷﺎﭘوﺮﻓتﺪﺣوﯽﻠﻣ" />
  </g>
</svg>
