<?xml version="1.0" encoding="UTF-8" standalone="no"?>


<svg class="tikz-diagram" id="iran-action-ch1-tikz-2-7a6069a25576"
   version="1.1"
   id="svg1"
   width="613.88"
   height="324.85333"
   viewBox="0 0 613.88 324.85333"
   sodipodi:docname="iran-action-ch1-tikz-2-7a6069a25576.pdf"
   xmlns:inkscape="http://www.inkscape.org/namespaces/inkscape"
   xmlns:sodipodi="http://sodipodi.sourceforge.net/DTD/sodipodi-0.dtd"
   xmlns="http://www.w3.org/2000/svg"
   xmlns:svg="http://www.w3.org/2000/svg">
  <defs
     id="defs1" />
  <sodipodi:namedview
     id="namedview1"
     pagecolor="#ffffff"
     bordercolor="#000000"
     borderopacity="0.25"
     inkscape:showpageshadow="2"
     inkscape:pageopacity="0.0"
     inkscape:pagecheckerboard="0"
     inkscape:deskcolor="#d1d1d1">
    <inkscape:page
       x="0"
       y="0"
       inkscape:label="1"
       id="page1"
       width="613.88"
       height="324.85333"
       margin="0"
       bleed="0" />
  </sodipodi:namedview>
  <g
     id="g1"
     inkscape:groupmode="layer"
     inkscape:label="1">
    <path
       id="path1"
       d="M 57.36511,0 C 57.36511,15.6557 31.68227,28.3468 0,28.3468 -31.68227,28.3468 -57.36511,15.6557 -57.36511,0 c 0,-15.6557 25.68284,-28.3468 57.36511,-28.3468 31.68227,0 57.36511,12.6911 57.36511,28.3468 z"
       style="fill:#ffe6e6;fill-opacity:1;fill-rule:nonzero;stroke:#be1e2d;stroke-width:1.99255;stroke-linecap:butt;stroke-linejoin:miter;stroke-miterlimit:10;stroke-dasharray:none;stroke-opacity:1"
       transform="matrix(1.3333333,0,0,-1.3333333,306.94133,162.428)" />
    <g
       id="text1"
       transform="matrix(1.3333333,0,0,1.3333333,265.25467,157.64667)"
       aria-label="یﺮﯾﺬﭘﺎﻧ ﺖﺸﮔزﺎﺑﺖﯿﻌﺿو">
      <path
         style="font-weight:800;font-size:9.9626px;font-family:Vazirmatn"
         d="m 55.960234,2.4517335 q -1.045878,0 -1.726915,-0.3988931 -0.676173,-0.3988932 -1.002097,-1.08965937 -0.325925,-0.69076619 -0.325925,-1.55665621 0,-0.57888152 0.126478,-1.19667942 0.126478,-0.6226625 0.364841,-1.2404605 l 1.182086,0.4524032 q -0.179988,0.5156424 -0.301602,1.006962 -0.121614,0.4913197 -0.121614,0.91940011 0,0.46699686 0.165395,0.85616092 0.165395,0.38916405 0.559423,0.62266248 0.394029,0.23349839 1.07993,0.23349839 0.739412,0 1.230732,-0.17025923 0.491319,-0.16539472 0.734547,-0.3940286 0.243227,-0.22863388 0.243227,-0.40375771 0,-0.14107197 -0.175123,-0.14107197 h -0.788058 q -0.248092,0 -0.520506,-0.0486455 -0.267551,-0.04864551 -0.501049,-0.20917568 -0.233499,-0.16053017 -0.379435,-0.48159052 -0.141072,-0.32106039 -0.141072,-0.86102549 0,-0.5059132 0.165395,-0.9729101 0.165394,-0.4718614 0.471861,-0.8415673 0.311331,-0.3697058 0.744276,-0.5886106 0.432945,-0.2189048 0.97291,-0.2189048 0.364842,0 0.715089,0.1118847 0.355113,0.1070201 0.65185,0.3210603 l -0.447539,1.2404604 q -0.252956,-0.1410719 -0.486455,-0.194582 -0.228633,-0.058375 -0.423216,-0.058375 -0.525371,0 -0.822109,0.3453831 -0.296737,0.3405186 -0.296737,0.8512964 0,0.1313428 0.0827,0.1653947 0.08756,0.034052 0.21404,0.034052 h 0.710225 q 0.559423,0 0.875619,0.1751238 0.32106,0.1751238 0.452403,0.48645504 0.136208,0.30646669 0.136208,0.7004953 0,0.69563074 -0.398894,1.27451226 -0.398893,0.5788815 -1.162627,0.9242646 -0.763735,0.3453831 -1.858259,0.3453831 z M 52.452893,0 Q 52.010219,0 51.72321,-0.17025927 51.528628,0.94858738 50.764894,1.67827 50.006024,2.4079526 48.736376,2.6511801 l -0.48159,-1.298835 q 0.705359,-0.1508011 1.211273,-0.40375772 0.510778,-0.24809208 0.788057,-0.66644344 0.277279,-0.41835136 0.277279,-1.07993025 0,-0.44267409 -0.141072,-0.99236829 -0.141072,-0.5545588 -0.301602,-1.0312848 l 1.308564,-0.4232159 0.282144,1.0993885 q 0.0827,0.3113312 0.243228,0.5253714 0.16053,0.2140403 0.476726,0.2140403 H 52.5891 V 0 Z m -6.22176,0 h -1.045879 v -1.4058551 h 1.050743 q 0.369706,0 0.505914,-0.2286339 0.141072,-0.2334985 0.141072,-0.5886107 0,-0.3307894 -0.0827,-0.7199535 -0.07783,-0.3940286 -0.16053,-0.768599 l 1.274512,-0.3307894 q 0.09243,0.4572678 0.145937,0.909671 0.05837,0.4475386 0.05837,0.8561609 0,0.6469852 -0.175123,1.1626276 -0.17026,0.51564237 -0.583746,0.81724451 Q 46.946222,0 46.231133,0 Z M 45.311733,0.62266248 46.138706,1.439907 46.955951,0.62266248 47.787789,1.4496361 46.955951,2.2863388 46.138706,1.4593652 45.311733,2.2863388 44.484759,1.4496361 Z m -2.86522,-8.24054878 0.875619,0.8756191 -0.875619,0.8707546 -0.870754,-0.8707546 z m 0.593475,5.5164004 q 0,-0.1216138 -0.05351,-0.3210603 -0.05351,-0.1994466 -0.111884,-0.3259249 l -0.963181,-2.1258087 1.157763,-0.5642878 1.211273,2.792252 q 0.145936,0.335654 0.257821,0.617798 0.116749,0.2821439 0.262686,0.4524032 0.150801,0.1702593 0.384299,0.1702593 h 0.204311 V 0 h -0.204311 q -0.544829,0 -0.880483,-0.20431113 -0.33079,-0.20917568 -0.583746,-0.53510057 -0.369706,0.3551122 -0.880484,0.54482967 -0.510778,0.18971748 -1.235596,0.18971748 -0.42808,0 -0.724818,-0.0291873 -0.296738,-0.02918731 -0.612933,-0.10702012 V -1.5469271 q 0.301602,0.072968 0.637256,0.1118847 0.340518,0.038916 0.627527,0.038916 0.359976,0 0.70536,-0.058375 0.345383,-0.063239 0.574017,-0.2189048 0.228633,-0.1556656 0.228633,-0.4280805 z M 37.581963,0 h -1.045879 v -1.4058551 h 1.050743 q 0.369706,0 0.505914,-0.2286339 0.141072,-0.2334985 0.141072,-0.5886107 0,-0.3307894 -0.0827,-0.7199535 -0.07783,-0.3940286 -0.16053,-0.768599 l 1.274512,-0.3307894 q 0.09243,0.4572678 0.145937,0.909671 0.05837,0.4475386 0.05837,0.8561609 0,0.6469852 -0.175123,1.1626276 -0.17026,0.51564237 -0.583746,0.81724451 Q 38.297052,0 37.581963,0 Z M 38.31651,0.48159052 39.099703,1.2647832 38.31651,2.0479758 37.533317,1.2647832 Z m -1.697728,0 L 37.39711,1.2647832 36.618782,2.0479758 35.835589,1.2647832 Z M 37.465214,1.7269155 38.248406,2.5101081 37.465214,3.2884362 36.682021,2.5101081 Z M 34.531891,-6.8201 h 1.313428 v 4.4461993 q 0,0.5156423 0.150801,0.7442762 0.150801,0.2237694 0.622663,0.2237694 h 0.121614 V 0 H 36.618783 Q 35.529124,0 35.028075,-0.56428788 34.531891,-1.1285758 34.531891,-2.2571515 Z M 31.583969,0 h -0.773463 v -1.4058551 h 0.778328 q 0.369706,0 0.505913,-0.2286339 0.141072,-0.2334985 0.141072,-0.5886107 0,-0.3307894 -0.0827,-0.7199535 -0.07783,-0.3940286 -0.16053,-0.768599 l 1.274512,-0.3307894 q 0.09243,0.4572678 0.145936,0.909671 0.05837,0.4475386 0.05837,0.8561609 0,0.6469852 -0.175124,1.1626276 -0.175124,0.51564237 -0.58861,0.81724451 Q 32.299058,0 31.583969,0 Z m 0.574017,-6.3433741 0.875619,0.8756192 -0.875619,0.8707545 -0.870754,-0.8707545 z m -11.800931,1.0118266 0.826974,0.8172445 0.817244,-0.8172445 0.831839,0.8269736 -0.831839,0.8367027 -0.817244,-0.8269736 -0.826974,0.8269736 -0.826973,-0.8367027 z m 3.512206,1.9896012 1.216138,-0.1508011 0.09729,1.3912615 q 0.02432,0.3697059 0.194582,0.5351006 0.175123,0.1605302 0.574017,0.1605302 h 0.111884 V 0 H 25.951289 Q 25.391865,0 25.022159,-0.20431113 24.652453,-0.41348681 24.409226,-0.768599 23.966552,-0.35997675 23.329296,-0.17998837 22.696904,0 21.680213,0 h -0.81238 q -0.841567,0 -1.551792,-0.10215556 -0.705359,-0.10702012 -1.230731,-0.36970585 -0.520507,-0.26268574 -0.81238,-0.73454719 -0.287008,-0.4767259 -0.287008,-1.2161376 0,-0.4378096 0.09729,-0.8512964 0.09729,-0.4183514 0.243227,-0.7734636 l 1.172357,0.4426742 q -0.0827,0.2286338 -0.170259,0.530236 -0.0827,0.3016021 -0.0827,0.574017 0,0.486455 0.359977,0.7199535 0.359977,0.2334984 0.953452,0.3064666 0.59834,0.068104 1.308564,0.068104 h 0.81238 q 0.70536,0 1.206409,-0.05351 0.501048,-0.058375 0.763734,-0.238363 0.26755,-0.1848529 0.26755,-0.5691524 0,-0.2480921 -0.01459,-0.5448297 -0.01459,-0.2967376 -0.03405,-0.530236 z m -11.358726,-3.604632 0.783192,0.7783281 -0.783192,0.7831926 -0.783193,-0.7831926 z m 0.851296,1.2404604 0.783193,0.7831926 -0.783193,0.7831927 -0.783193,-0.7831927 z m -1.697728,0 0.778328,0.7831926 -0.778328,0.7831927 -0.783193,-0.7831927 z M 14.013681,0 Q 13.580736,0 13.279134,-0.17998837 12.977531,-0.35997675 12.77322,-0.62266248 12.525128,-0.35997675 12.208932,-0.17998837 11.897601,0 11.469521,0 10.978201,0 10.642547,-0.16539472 10.311758,-0.335654 10.097717,-0.61293338 9.8301672,-0.33078944 9.4604613,-0.16539472 9.0907555,0 8.5264676,0 H 8.0789289 v -1.4058551 h 0.4572678 q 0.5351006,0 0.7588699,-0.1313429 0.2286339,-0.1313429 0.2286339,-0.6323916 0,-0.077833 -0.00973,-0.2578212 -0.00973,-0.1799884 -0.024323,-0.3940286 -0.014594,-0.2189048 -0.029187,-0.3940286 l 1.2210027,-0.1508011 0.102155,1.3134287 q 0.04378,0.6469853 0.695631,0.6469853 0.403758,0 0.539965,-0.1653948 0.136207,-0.1702592 0.136207,-0.5983397 0,-0.068104 -0.0097,-0.2480921 -0.0097,-0.1848529 -0.02432,-0.4037577 -0.01459,-0.2189048 -0.02919,-0.3940286 l 1.221002,-0.1508011 0.102156,1.3134287 q 0.01946,0.3016022 0.150801,0.476726 0.131343,0.1702593 0.43781,0.1702593 0.301602,0 0.408622,-0.1994466 0.111885,-0.1994466 0.111885,-0.5642879 0,-0.1751238 -0.01946,-0.5059133 -0.01946,-0.3307894 -0.04378,-0.6323915 l 1.221003,-0.1508011 0.102155,1.4058551 q 0.02432,0.3599768 0.199447,0.5059133 0.179988,0.141072 0.554559,0.141072 h 0.145936 V 0 H 16.548112 Q 16.100573,0 15.75519,-0.15566562 15.414671,-0.31133124 15.215225,-0.57888153 15.015778,-0.33078944 14.723905,-0.16539472 14.432032,0 14.013681,0 Z M 3.9100089,-5.8228671 v -0.7394117 l 3.9548797,-1.6101663 v 0.7394117 z m 1.386397,1.3280223 q 0.6518497,0.389164 1.1528985,0.7637344 0.5059132,0.3697059 0.7929217,0.7977864 0.2870085,0.4280804 0.2870085,0.9875037 0,0.7637345 -0.3502476,1.1869504 Q 6.8287393,-0.335654 6.1963477,-0.16539472 5.5639561,0 4.7223889,0 H 3.5354385 v -1.4058551 h 1.1820858 q 0.7783281,0 1.1674922,-0.1070202 0.389164,-0.1118846 0.389164,-0.4524032 0,-0.1605301 -0.2383629,-0.3697058 Q 5.7974546,-2.5490245 5.4374778,-2.782523 5.0823656,-3.020886 4.7077952,-3.2495198 4.3380894,-3.4830183 4.0656745,-3.6776003 3.8613634,-3.8235368 3.7543433,-4.0667644 3.6521877,-4.3099919 3.6521877,-4.5629485 q 0,-0.2724149 0.1264784,-0.5107778 0.1264783,-0.238363 0.3940286,-0.3453831 l 3.7554331,-1.5323335 v 1.3912615 z M 1.1935655,-5.6672015 2.0691846,-4.7915824 1.1935655,-3.9208278 0.32281092,-4.7915824 Z M -0.70847382,2.6560447 -1.204658,1.3523451 Q -0.49929815,1.201544 0.00661512,0.94858738 0.51739294,0.7004953 0.79467233,0.28214394 1.0719517,-0.13620742 1.0719517,-0.79778631 q 0,-0.44267409 -0.14107195,-0.99236829 Q 0.78980778,-2.3447134 0.62927761,-2.8214394 L 1.9427063,-3.2446553 q 0.1897175,0.530236 0.2870085,1.1431694 0.1021555,0.6129334 0.1021555,1.17722127 0,1.02155564 -0.3794349,1.75123824 Q 1.577865,1.5615208 0.89196334,2.013924 0.21092625,2.4711917 -0.70847382,2.6560447 Z M -3.0531871,-6.8201 h 1.3134286 v 4.4461993 q 0,0.5156423 0.1508011,0.7442762 0.1508011,0.2237694 0.6226625,0.2237694 h 0.12161376 V 0 H -0.9662949 Q -2.0559543,0 -2.557003,-0.56428788 -3.0531871,-1.1285758 -3.0531871,-2.2571515 Z M -6.001105,0 h -0.8756191 v -1.4058551 h 0.8804836 q 0.3697059,0 0.5059133,-0.2286339 0.141072,-0.2334985 0.141072,-0.5886107 0,-0.3307894 -0.082697,-0.7199535 -0.077833,-0.3940286 -0.1605301,-0.768599 l 1.2745122,-0.3307894 q 0.092427,0.4572678 0.1459365,0.909671 0.058375,0.4475386 0.058375,0.8561609 0,0.6469852 -0.1751239,1.1626276 -0.1751238,0.51564237 -0.5886106,0.81724451 Q -5.2860161,0 -6.001105,0 Z m 0.1264783,0.57401698 0.8756191,0.87561912 -0.8756191,0.8707546 -0.8707546,-0.8707546 z"
         id="path20" />
      <path
         style="font-weight:800;font-size:9.9626px;font-family:Vazirmatn"
         d="M 40.332064,6.6234524 41.159038,7.4406969 41.976282,6.6234524 42.808121,7.450426 41.976282,8.2871287 41.159038,7.4601551 40.332064,8.2871287 39.505091,7.450426 Z m 3.512206,1.9896012 1.216137,-0.1508011 0.09729,1.3912615 q 0.02432,0.369706 0.194583,0.535101 0.175123,0.16053 0.574016,0.16053 h 0.111885 V 11.955 h -0.111885 q -0.559423,0 -0.929129,-0.204311 -0.369706,-0.209176 -0.612933,-0.564288 -0.442674,0.408622 -1.07993,0.588611 Q 42.671913,11.955 41.655222,11.955 h -0.81238 q -0.841567,0 -1.551792,-0.102156 -0.705359,-0.10702 -1.230731,-0.369705 -0.520507,-0.262686 -0.81238,-0.734548 -0.287008,-0.476726 -0.287008,-1.2161373 0,-0.4378096 0.09729,-0.8512964 0.09729,-0.4183513 0.243227,-0.7734635 l 1.172357,0.4426741 q -0.0827,0.2286339 -0.170259,0.530236 -0.0827,0.3016021 -0.0827,0.574017 0,0.486455 0.359977,0.7199531 0.359977,0.233499 0.953452,0.306467 0.59834,0.0681 1.308564,0.0681 h 0.81238 q 0.70536,0 1.206409,-0.05351 0.501048,-0.05837 0.763734,-0.238363 0.26755,-0.184853 0.26755,-0.5691527 0,-0.2480921 -0.01459,-0.5448297 -0.01459,-0.2967375 -0.03405,-0.530236 z M 32.840655,10.549145 h 0.734547 q 0.5351,0 0.734547,-0.179989 0.204311,-0.184853 0.204311,-0.6713076 0,-0.2870085 -0.01459,-0.5545588 -0.01459,-0.2724148 -0.03405,-0.530236 l 1.216137,-0.1508011 0.09729,1.3912615 q 0.02432,0.369706 0.204311,0.535101 0.179989,0.16053 0.574017,0.16053 h 0.102156 V 11.955 h -0.111885 q -0.486455,0 -0.836702,-0.175124 -0.345384,-0.175124 -0.569153,-0.457268 -0.296737,0.296738 -0.70536,0.466997 Q 34.03247,11.955 33.575202,11.955 h -0.734547 z m 0.126478,2.028517 0.826974,0.817245 0.817244,-0.817245 0.831838,0.826974 -0.831838,0.836703 -0.817244,-0.826974 -0.826974,0.826974 -0.826974,-0.836703 z M 30.272172,7.6693308 q 0.3843,0 0.817245,0.058375 0.432945,0.05351 0.81238,0.1799884 0.379435,0.1216137 0.617798,0.3210603 0.243227,0.194582 0.243227,0.4718614 0,0.1605302 -0.126478,0.3940286 -0.121614,0.2334985 -0.316196,0.4913197 -0.189717,0.2529566 -0.398893,0.4864552 -0.204311,0.228634 -0.364841,0.389164 0.199446,0.05837 0.384299,0.07297 0.184853,0.01459 0.345383,0.01459 h 0.75887 V 11.955 h -0.754005 q -0.569153,0 -1.075066,-0.131343 Q 30.714846,11.68745 30.272172,11.46368 29.805175,11.697179 29.148461,11.828522 28.496611,11.955 27.91773,11.955 h -0.768599 v -1.405855 h 0.773463 q 0.111885,0 0.301602,-0.0049 0.194583,-0.0049 0.403758,-0.02432 0.209176,-0.01946 0.359977,-0.06324 -0.16053,-0.16053 -0.364841,-0.389164 Q 28.418779,9.8340558 28.229061,9.5810992 28.039344,9.323278 27.912865,9.0946441 27.786387,8.8611457 27.786387,8.7006155 q 0,-0.2772794 0.238363,-0.4718614 0.238363,-0.1994466 0.617798,-0.3210603 0.379435,-0.1264783 0.81238,-0.1799884 0.432945,-0.058375 0.817244,-0.058375 z m 0.0049,1.2745123 q -0.238363,0 -0.505913,0.024323 -0.262686,0.024323 -0.549695,0.082697 0.204312,0.2189048 0.447539,0.4572677 0.248092,0.2334985 0.423216,0.3988932 0.179988,0.1653949 0.179988,0.1653949 0,0 0.179989,-0.1653949 0.179988,-0.1653947 0.42808,-0.3988932 Q 31.133198,9.269768 31.332644,9.0508632 31.0505,8.9924886 30.78295,8.9681658 30.520264,8.9438431 30.277037,8.9438431 Z M 24.541732,5.1203062 25.417351,5.9959254 24.541732,6.8666799 23.670977,5.9959254 Z m -3.186281,5.2391208 q 0.330789,-0.5448294 0.700495,-1.0507426 0.369706,-0.5059133 0.788057,-0.9048065 0.418352,-0.3988931 0.890213,-0.627527 0.471862,-0.2334984 1.006962,-0.2334984 0.617798,0 1.08966,0.2626857 0.476726,0.2626857 0.744276,0.7199535 0.272415,0.4572678 0.272415,1.0458784 0,0.6859019 -0.291873,1.1480339 -0.291873,0.457268 -0.81238,0.729683 -0.520507,0.272414 -1.211273,0.389164 Q 23.846101,11.955 23.053179,11.955 h -0.257821 q -0.807515,0 -1.391262,-0.141072 -0.583746,-0.145937 -0.943722,-0.49132 -0.272415,0.296738 -0.646986,0.466997 Q 19.438818,11.955 18.889124,11.955 h -0.199447 l 0.0049,-1.405855 h 0.194582 q 0.578881,0 0.768599,-0.179989 0.194582,-0.184853 0.194582,-0.6761721 0,-0.2772794 -0.01946,-0.5448297 -0.01459,-0.2724148 -0.03405,-0.530236 l 1.216137,-0.1508011 0.09243,1.3863969 q 0.01946,0.194582 0.07783,0.340519 0.06324,0.141072 0.170259,0.165394 z M 24.77523,8.9243849 q -0.37457,0 -0.754005,0.2383629 -0.379435,0.2334985 -0.724818,0.6080689 -0.345383,0.3697063 -0.627527,0.7783283 h 0.442674 q 0.656714,0 1.216137,-0.06324 0.564288,-0.0681 0.904807,-0.257822 0.340518,-0.189717 0.340518,-0.5642874 0,-0.335654 -0.228633,-0.5351006 Q 25.120613,8.9243849 24.77523,8.9243849 Z M 18.39294,10.87507 q 0,1.138305 -0.423216,1.89231 -0.418352,0.754005 -1.186951,1.196679 -0.768599,0.442674 -1.819342,0.642121 l -0.48159,-1.298835 q 0.992368,-0.189717 1.658812,-0.539965 0.671308,-0.350248 0.851296,-0.861026 -0.121614,0.02432 -0.252957,0.04378 -0.131342,0.01459 -0.238363,0.01459 -0.924264,0 -1.4545,-0.408622 -0.530236,-0.408622 -0.530236,-1.342616 0,-0.3891643 0.116749,-0.792922 0.116749,-0.4086222 0.350248,-0.7491408 0.233498,-0.3453831 0.578881,-0.5545587 0.345383,-0.2091757 0.802651,-0.2091757 0.525371,0 0.904806,0.2529566 0.3843,0.2529566 0.632392,0.6761725 0.248092,0.423216 0.369706,0.953452 0.121614,0.5302361 0.121614,1.0847951 z m -1.911769,-0.311332 q 0.209176,0 0.379435,-0.02432 0.175124,-0.02432 0.287009,-0.04865 -0.02919,-0.248092 -0.111885,-0.5302358 -0.0827,-0.282144 -0.248092,-0.4815906 -0.16053,-0.2043111 -0.432945,-0.2043111 -0.233499,0 -0.369706,0.1556656 -0.131343,0.1556657 -0.184853,0.3648413 -0.05351,0.2091756 -0.05351,0.3648416 0,0.262685 0.209176,0.335654 0.21404,0.0681 0.525371,0.0681 z"
         id="path21" />
    </g>
    <path
       id="path2"
       d="m 48.72342,106.37753 h -97.44684 c -4.40187,0 -7.97021,-3.56833 -7.97021,-7.97021 V 80.33165 c 0,-4.40189 3.56834,-7.97022 7.97021,-7.97022 h 97.44684 c 4.40187,0 7.97021,3.56833 7.97021,7.97022 v 18.07567 c 0,4.40188 -3.56834,7.97021 -7.97021,7.97021 z"
       style="fill:#e6f0fa;fill-opacity:1;fill-rule:nonzero;stroke:#0055a4;stroke-width:0.99628;stroke-linecap:butt;stroke-linejoin:miter;stroke-miterlimit:10;stroke-dasharray:none;stroke-opacity:1"
       transform="matrix(1.3333333,0,0,-1.3333333,306.94133,162.428)" />
    <path
       style="font-size:8.9664px;font-family:Vazirmatn"
       d="m 67.466774,-6.0286782 h 0.739903 v 4.1854875 q 0,0.6173157 0.227663,0.8318438 0.227662,0.21452814 0.687365,0.21452814 h 0.109453 V 0 H 69.121705 Q 68.285483,0 67.87394,-0.44219063 67.466774,-0.88875939 67.466774,-1.8475688 Z m -2.482406,6.12937508 q -0.437813,0 -0.809953,-0.18825938 Q 63.806652,-0.2802 63.408243,-0.66547501 63.123664,-0.34587188 62.860977,-0.17074688 62.598289,0 62.121074,0 h -0.192638 v -0.79681876 h 0.170747 q 0.293335,0 0.494728,-0.16636876 0.201394,-0.17074688 0.359007,-0.43781248 0.157612,-0.2670657 0.310846,-0.5647782 0.157613,-0.3020906 0.35025,-0.5691562 0.192638,-0.2670656 0.464082,-0.4334344 0.275822,-0.1707469 0.678609,-0.1707469 0.485972,0 0.844978,0.2364188 0.363385,0.2320406 0.5604,0.6260719 0.201394,0.3940312 0.201394,0.8800031 0,0.71363439 -0.363384,1.10766565 -0.359007,0.38965313 -1.015725,0.38965313 z m -0.21015,-2.46488438 q -0.218907,0 -0.39841,0.1488562 -0.179503,0.1444781 -0.323981,0.3765188 -0.144478,0.2320406 -0.258309,0.4815937 0.262687,0.2758219 0.542887,0.45094691 0.359006,0.23204063 0.639206,0.23204063 0.647963,0 0.647963,-0.65234064 0,-0.455325 -0.227663,-0.7442813 -0.223284,-0.2933343 -0.621693,-0.2933343 z m -3.191649,1.61552811 q 0,2.55682509 -2.806378,3.09533439 L 58.517882,1.6505532 q 1.006969,-0.1926376 1.606772,-0.6435844 0.599803,-0.44656879 0.709256,-1.12517818 -0.166369,0.0525375 -0.385275,0.09194063 -0.218906,0.03940313 -0.385275,0.03940313 -1.598016,0 -1.598016,-1.35721878 0,-0.3239813 0.09632,-0.6479625 0.100697,-0.3283594 0.288956,-0.5998031 0.192638,-0.2758219 0.46846,-0.4421907 0.275822,-0.1663687 0.626072,-0.1663687 0.415921,0 0.72239,0.2057719 0.310847,0.2057718 0.512241,0.5560218 0.201394,0.35025 0.30209,0.7880625 0.100697,0.4378126 0.100697,0.90189381 z m -1.497318,-0.0306469 q 0.385275,0 0.766171,-0.11383125 -0.04378,-0.73552499 -0.271443,-1.12517819 -0.227663,-0.3940312 -0.643585,-0.3940312 -0.288956,0 -0.450947,0.1795031 -0.157612,0.1795031 -0.223284,0.4246781 -0.06129,0.2407969 -0.06129,0.4378126 0,0.3196031 0.218907,0.45532496 0.218906,0.13572188 0.665475,0.13572188 z M 57.875733,0 q -0.30209,0 -0.507862,-0.07880625 -0.201394,-0.08318438 -0.315225,-0.175125 -0.06567,0.57353438 -0.319604,1.10766564 -0.249553,0.53850941 -0.753037,0.93691881 -0.503484,0.3984093 -1.33095,0.5604 L 54.390746,1.6593094 q 1.068262,-0.2320406 1.506075,-0.81433126 0.437812,-0.57791251 0.437812,-1.37035315 0,-0.37214063 -0.08318,-0.77930629 -0.07881,-0.4115437 -0.223285,-0.8362219 l 0.726769,-0.245175 0.236419,0.9150282 q 0.09632,0.3677625 0.306469,0.52099686 0.21015,0.15323438 0.529753,0.15323438 h 0.166369 V 0 Z m -3.730162,-5.1399188 0.612938,0.6085594 -0.612938,0.6173156 -0.608559,-0.6173156 z m -1.453537,0 0.612937,0.6085594 -0.612937,0.6173156 -0.608559,-0.6173156 z m -0.472838,4.34310004 h 0.897516 q 0.437813,0 0.591047,-0.25393124 0.157612,-0.2539313 0.157612,-0.6435844 0,-0.2845781 -0.05254,-0.6085594 -0.05254,-0.3239812 -0.113831,-0.6523406 l 0.761793,-0.1926375 q 0.07443,0.35025 0.11821,0.6873656 0.04378,0.3371156 0.04378,0.6435844 0,0.525375 -0.144478,0.93691876 -0.144478,0.41154376 -0.472838,0.64796251 Q 53.677112,0 53.125468,0 h -0.906272 z m 2.048157,0.0481594 q 0,2.55682509 -2.806378,3.09533439 L 51.202666,1.6505532 q 1.006969,-0.1926376 1.606772,-0.6435844 0.599803,-0.44656879 0.709256,-1.12517818 -0.166369,0.0525375 -0.385275,0.09194063 -0.218906,0.03940313 -0.385275,0.03940313 -1.598016,0 -1.598016,-1.35721878 0,-0.3239813 0.09632,-0.6479625 0.100697,-0.3283594 0.288956,-0.5998031 0.192638,-0.2758219 0.46846,-0.4421907 0.275822,-0.1663687 0.626072,-0.1663687 0.415921,0 0.72239,0.2057719 0.310847,0.2057718 0.512241,0.5560218 0.201394,0.35025 0.30209,0.7880625 0.100697,0.4378126 0.100697,0.90189381 z m -1.497318,-0.0306469 q 0.385275,0 0.766171,-0.11383125 -0.04378,-0.73552499 -0.271443,-1.12517819 -0.227663,-0.3940312 -0.643585,-0.3940312 -0.288956,0 -0.450947,0.1795031 -0.157612,0.1795031 -0.223284,0.4246781 -0.06129,0.2407969 -0.06129,0.4378126 0,0.3196031 0.218907,0.45532496 0.218906,0.13572188 0.665475,0.13572188 z M 52.314322,-1.6768219 q 0.05254,0.3765188 0.271443,0.63045 0.223285,0.24955314 0.512241,0.24955314 h 0.118209 V 0 H 53.098006 Q 52.83094,0 52.568253,-0.11383125 52.309944,-0.2276625 52.139197,-0.49910626 51.99034,-0.21890625 51.714519,-0.07442813 51.438697,0.07005 51.00964,0.07005 q -0.258309,0 -0.525375,-0.08318438 -0.262687,-0.08318437 -0.507862,-0.18825937 -0.240797,-0.10945313 -0.442191,-0.19263751 -0.201394,-0.0831844 -0.337115,-0.0831844 -0.245175,0 -0.372141,0.16199062 -0.122588,0.15761251 -0.166369,0.53850939 -0.0394,0.38089688 -0.0394,1.05512812 0,0.2977125 0.0044,0.5297532 0.0088,0.2364187 0.02189,0.4640812 0.01751,0.2276625 0.03502,0.5166188 H 47.92744 Q 47.90555,2.3860782 47.892415,2.03145 47.879281,1.6812 47.879281,1.3221938 q 0,-0.49035004 0.02627,-0.93254067 0.03065,-0.44219063 0.135722,-0.79681876 0.109453,-0.35900626 0.337115,-0.59104689 0.227663,-0.23641878 0.626072,-0.31084688 0.245175,-0.8537344 0.639206,-1.3397063 0.39841,-0.49035 1.085775,-0.49035 0.402788,0 0.739903,0.1926375 0.337116,0.1882594 0.560401,0.5209969 0.227662,0.3283594 0.284578,0.7486594 z m -0.709257,0.3721406 q 0,-0.4509469 -0.240797,-0.7530375 -0.240796,-0.3064687 -0.617315,-0.3064687 -0.271444,0 -0.459703,0.1707468 -0.18826,0.1663688 -0.315225,0.4421907 -0.126966,0.2714437 -0.223285,0.5822906 0.477216,0.21015001 0.792441,0.33273751 0.319603,0.11820938 0.477216,0.11820938 0.288956,0 0.437812,-0.1576125 0.148856,-0.16199059 0.148856,-0.42905629 z m -7.828087,-4.4525532 0.591046,0.5910469 -0.591046,0.5910469 -0.591047,-0.5910469 z m 0.748659,1.1076657 0.591047,0.5910469 -0.591047,0.5910468 -0.591047,-0.5910468 z m -1.497319,0 0.591047,0.5910469 -0.591047,0.5910468 -0.591047,-0.5910468 z M 45.134196,0 q -0.4203,0 -0.678609,-0.175125 -0.258309,-0.17512501 -0.4203,-0.49472814 -0.245175,0.35462813 -0.547266,0.51224064 Q 43.190309,0 42.840059,0 42.336574,0 42.060753,-0.17074688 41.789309,-0.34587188 41.627318,-0.66985314 41.421546,-0.34587188 41.101943,-0.17074688 40.78234,0 40.191293,0 h -0.402787 v -0.79681876 h 0.411543 q 0.5604,0 0.81871,-0.20577184 0.258309,-0.21015 0.258309,-0.7617938 0,-0.1138313 -0.01313,-0.2670656 -0.0088,-0.1576125 -0.03065,-0.4378125 l 0.731147,-0.091941 0.07005,0.9150282 q 0.02627,0.3677625 0.223284,0.6085594 0.201394,0.24079684 0.591047,0.24079684 0.464081,0 0.63045,-0.24955314 0.166369,-0.2495531 0.166369,-0.7180125 0,-0.1138313 -0.01313,-0.2714438 -0.0088,-0.1576125 -0.03065,-0.4334343 l 0.731146,-0.091941 0.07005,0.9150282 q 0.02189,0.3546281 0.18826,0.6041812 0.166369,0.24517504 0.538509,0.24517504 0.647963,0 0.647963,-0.96756564 0,-0.1576125 -0.01313,-0.3283594 -0.0088,-0.1707469 -0.03065,-0.4509469 l 0.731147,-0.087563 0.07005,0.9850782 q 0.05254,0.84935624 0.866869,0.84935624 h 0.131344 V 0 H 47.410821 Q 46.951118,0 46.644649,-0.16636875 46.338181,-0.33711563 46.224349,-0.67423126 46.040468,-0.35025001 45.799671,-0.175125 45.563253,0 45.134196,0 Z m -8.624905,-5.5602188 0.634828,0.6348281 -0.634828,0.6348281 -0.634828,-0.6348281 z m -2.727572,4.76340004 h 0.744282 q 0.51224,0 0.941296,-0.0919406 0.429057,-0.0919406 0.836222,-0.25393121 0.411544,-0.1619907 0.858113,-0.3808969 0.450947,-0.2232844 1.006969,-0.4772157 -0.310847,-0.1138312 -0.643585,-0.245175 -0.332737,-0.1357218 -0.634828,-0.2539312 -0.297712,-0.1182094 -0.520997,-0.1926375 -0.223284,-0.078806 -0.315225,-0.078806 -0.267065,0 -0.472837,0.1576125 -0.201394,0.1532344 -0.372141,0.3721407 l -0.118209,0.1488562 -0.669853,-0.3283594 0.06567,-0.105075 q 0.288957,-0.4684593 0.669854,-0.7486594 0.385275,-0.2845781 0.901893,-0.2845781 0.214528,0 0.516619,0.1094531 0.306469,0.1094532 0.665475,0.2758219 0.359006,0.1619907 0.744281,0.3327375 0.385275,0.1663688 0.77055,0.2845782 0.385275,0.1138312 0.735525,0.1269656 v 0.7574156 q -0.2802,0.030647 -0.718012,0.2057719 -0.433435,0.1707469 -1.129556,0.53850938 -0.5604,0.29771251 -1.041994,0.50786251 Q 36.124016,-0.21452813 35.62491,-0.105075 35.130182,0 34.512866,0 H 33.781719 Z M 33.479241,2.2547344 q -0.945675,0 -1.514831,-0.3458719 -0.564778,-0.3458718 -0.818709,-0.92378436 -0.249553,-0.57353438 -0.249553,-1.26090002 0,-0.2977125 0.04378,-0.68736564 0.04816,-0.38965308 0.214528,-0.88875938 l 0.696122,0.2583094 q -0.126966,0.4378125 -0.166369,0.77492811 -0.03503,0.33711563 -0.03503,0.56915626 0,0.47283751 0.166369,0.86249064 0.166369,0.38965309 0.564778,0.62169379 0.402788,0.2320406 1.098909,0.2320406 0.656719,0 1.125179,-0.1619906 0.472837,-0.1619907 0.72239,-0.38527503 0.253931,-0.22328438 0.253931,-0.40716564 0,-0.21015 -0.183881,-0.35900625 -0.179503,-0.14885625 -0.586669,-0.14885625 h -0.647962 q -0.08756,0 -0.126966,-0.07442813 -0.0394,-0.07880625 -0.07443,-0.20139375 l -0.118209,-0.42030001 q -0.0044,-0.035025 0.01751,-0.0656719 0.02189,-0.035025 0.07881,-0.035025 h 2.429859 v 0.79681877 h -0.179503 q 0.06567,0.13134375 0.08318,0.24955312 0.02189,0.11820938 0.02189,0.24517501 0,0.28895625 -0.170747,0.59542504 -0.166369,0.3108468 -0.516619,0.5735344 -0.345872,0.2626875 -0.875625,0.4246781 -0.529753,0.1619906 -1.252144,0.1619906 z m -5.424497,-5.6784282 q 0.337116,0 0.696122,0.056916 0.359007,0.052538 0.665475,0.1532344 0.310847,0.1006969 0.503485,0.245175 0.192637,0.1444781 0.192637,0.3239813 0,0.1269656 -0.135722,0.35025 -0.131343,0.2232843 -0.341493,0.4815937 -0.205772,0.2583094 -0.433435,0.4991063 -0.227662,0.2364187 -0.415922,0.40278749 0.306469,0.0788062 0.582291,0.0963188 0.275822,0.0175125 0.499106,0.0175125 h 0.682988 V 0 h -0.67861 q -0.459703,0 -0.919406,-0.10945313 -0.455325,-0.10945312 -0.897516,-0.36338438 -0.288956,0.16636875 -0.669853,0.27144376 -0.376518,0.105075 -0.761794,0.15323437 Q 26.242201,0 25.935732,0 h -0.691744 v -0.79681876 h 0.696122 q 0.148856,0 0.398409,-0.004378 0.253932,-0.008756 0.520997,-0.0306469 0.271444,-0.0262687 0.472838,-0.0788062 -0.18826,-0.16636879 -0.415922,-0.40278749 -0.227663,-0.2407969 -0.437813,-0.4991063 -0.205772,-0.2583094 -0.341493,-0.4815937 -0.135722,-0.2232844 -0.135722,-0.35025 0,-0.1795032 0.188259,-0.3239813 0.188259,-0.1444781 0.494728,-0.245175 0.310847,-0.1006969 0.669853,-0.1532344 0.359007,-0.056916 0.7005,-0.056916 z m 0,0.7530375 q -0.197015,0 -0.564778,0.030647 -0.363384,0.030647 -0.687365,0.1401 0.284578,0.3590062 0.573534,0.6435844 0.288956,0.2845781 0.481594,0.455325 0.197015,0.1663687 0.197015,0.1663687 0,0 0.197016,-0.1663687 0.197016,-0.1707469 0.49035,-0.455325 0.293334,-0.2845782 0.573534,-0.6435844 -0.323981,-0.1094531 -0.691743,-0.1401 -0.367763,-0.030647 -0.569157,-0.030647 z M 20.296706,0 h -0.192637 v -0.79681876 h 0.170747 q 0.293334,0 0.494728,-0.16636876 Q 20.970938,-1.1339344 21.12855,-1.401 q 0.157613,-0.2670657 0.310847,-0.5647782 0.157612,-0.3020906 0.35025,-0.5691562 0.192637,-0.2670656 0.464081,-0.4334344 0.275822,-0.1707469 0.67861,-0.1707469 0.687365,0 1.068262,0.4203 0.380897,0.4159219 0.512241,1.0376157 0.08756,0.4290562 0.297712,0.6567187 0.214528,0.22766254 0.494728,0.22766254 h 0.113832 V 0 h -0.11821 q -0.2802,0 -0.547265,-0.11383125 -0.267066,-0.11820938 -0.433435,-0.37214063 -0.183881,0.26706563 -0.455325,0.42905625 -0.271444,0.15761251 -0.704878,0.15761251 -0.437812,0 -0.809953,-0.18825938 Q 21.982284,-0.2802 21.583875,-0.66547501 21.299297,-0.34587188 21.036609,-0.17074688 20.773922,0 20.296706,0 Z m 2.653144,-2.3641875 q -0.218906,0 -0.398409,0.1488562 -0.179503,0.1444781 -0.323982,0.3765188 -0.144478,0.2320406 -0.258309,0.4815937 0.144478,0.1488563 0.288956,0.2670657 0.144478,0.11820933 0.2802,0.20139371 0.35025,0.21452813 0.612938,0.21452813 0.647962,0 0.647962,-0.65234064 0,-0.455325 -0.227662,-0.7442813 -0.223285,-0.2933343 -0.621694,-0.2933343 z M 17.100675,0.66985314 17.735503,1.3046813 17.100675,1.9395094 16.465847,1.3046813 Z m -3.003393,-1.4666719 h 0.744281 q 0.51224,0 0.941297,-0.0919406 0.429056,-0.0919406 0.836222,-0.25393121 0.411543,-0.1619907 0.858112,-0.3808969 0.450947,-0.2232844 1.006969,-0.4772157 -0.310847,-0.1138312 -0.643585,-0.245175 -0.332737,-0.1357218 -0.634828,-0.2539312 -0.297712,-0.1182094 -0.520997,-0.1926375 -0.223284,-0.078806 -0.315225,-0.078806 -0.267065,0 -0.472837,0.1576125 -0.201394,0.1532344 -0.372141,0.3721407 l -0.118209,0.1488562 -0.669853,-0.3283594 0.06567,-0.105075 q 0.288956,-0.4684593 0.669853,-0.7486594 0.385275,-0.2845781 0.901894,-0.2845781 0.214528,0 0.516618,0.1094531 0.306469,0.1094532 0.665475,0.2758219 0.359007,0.1619907 0.744282,0.3327375 0.385275,0.1663688 0.77055,0.2845782 0.385275,0.1138312 0.735525,0.1269656 v 0.7574156 q -0.2802,0.030647 -0.718013,0.2057719 -0.433434,0.1707469 -1.129556,0.53850938 -0.5604,0.29771251 -1.041994,0.50786251 Q 16.439578,-0.21452813 15.940472,-0.105075 15.445744,0 14.828428,0 h -0.731146 z"
       id="text2"
       transform="matrix(1.3333333,0,0,1.3333333,260.436,45.428)"
       aria-label="ﺎﻣوﺮﺗوﻢﺸﺧﯽﻌﻤﺟ" />
    <path
       id="path3"
       d="m 48.72342,-72.36143 h -97.44684 c -4.40187,0 -7.97021,-3.56833 -7.97021,-7.97022 v -18.07567 c 0,-4.40188 3.56834,-7.97021 7.97021,-7.97021 h 97.44684 c 4.40187,0 7.97021,3.56833 7.97021,7.97021 v 18.07567 c 0,4.40189 -3.56834,7.97022 -7.97021,7.97022 z"
       style="fill:#e6f0fa;fill-opacity:1;fill-rule:nonzero;stroke:#0055a4;stroke-width:0.99628;stroke-linecap:butt;stroke-linejoin:miter;stroke-miterlimit:10;stroke-dasharray:none;stroke-opacity:1"
       transform="matrix(1.3333333,0,0,-1.3333333,306.94133,162.428)" />
    <path
       style="font-size:8.9664px;font-family:Vazirmatn"
       d="m 55.43645,2.2547344 q -0.945675,0 -1.514831,-0.3458719 -0.564778,-0.3458718 -0.81871,-0.92378436 -0.249553,-0.57353438 -0.249553,-1.26090002 0,-0.2977125 0.04378,-0.68736564 0.04816,-0.38965308 0.214528,-0.88875938 l 0.696122,0.2583094 q -0.126966,0.4378125 -0.166369,0.77492811 -0.03502,0.33711563 -0.03502,0.56915626 0,0.47283751 0.166369,0.86249064 0.166368,0.38965309 0.564778,0.62169379 0.402787,0.2320406 1.098909,0.2320406 0.656719,0 1.125178,-0.1619906 0.472838,-0.1619907 0.722391,-0.38527503 0.253931,-0.22328438 0.253931,-0.40716564 0,-0.21015 -0.183881,-0.35900625 Q 57.174566,0.00437813 56.7674,0.00437813 h -0.647962 q -0.08756,0 -0.126966,-0.07442813 -0.0394,-0.07880625 -0.07443,-0.20139375 l -0.11821,-0.42030001 q -0.0044,-0.035025 0.01751,-0.0656719 0.02189,-0.035025 0.07881,-0.035025 h 2.42986 v 0.79681877 h -0.179504 q 0.06567,0.13134375 0.08319,0.24955312 0.02189,0.11820938 0.02189,0.24517501 0,0.28895625 -0.170746,0.59542504 -0.166369,0.3108468 -0.516619,0.5735344 -0.345872,0.2626875 -0.875625,0.4246781 -0.529753,0.1619906 -1.252144,0.1619906 z m -6.18629,-8.0119689 0.591047,0.5910469 -0.591047,0.5910469 -0.591047,-0.5910469 z m 0.74866,1.1076657 0.591047,0.5910469 -0.591047,0.5910468 -0.591047,-0.5910468 z m -1.497319,0 0.591047,0.5910469 -0.591047,0.5910468 -0.591047,-0.5910468 z M 48.313241,0 q -0.503484,0 -0.779306,-0.17074688 -0.271444,-0.175125 -0.433434,-0.49910626 -0.205772,0.32398126 -0.525375,0.49910626 Q 46.255523,0 45.664476,0 h -0.402788 v -0.79681876 h 0.411544 q 0.5604,0 0.818709,-0.20577184 0.25831,-0.21015 0.25831,-0.7617938 0,-0.1138313 -0.01313,-0.2670656 -0.0088,-0.1576125 -0.03065,-0.4378125 l 0.731146,-0.091941 0.07005,0.9150282 q 0.02627,0.3677625 0.223285,0.6085594 0.201394,0.24079684 0.591047,0.24079684 0.464081,0 0.63045,-0.24955314 0.166368,-0.2495531 0.166368,-0.7180125 0,-0.1138313 -0.01313,-0.2714438 -0.0088,-0.1576125 -0.03065,-0.4334343 l 0.731147,-0.091941 0.07005,0.9150282 q 0.02189,0.3546281 0.188259,0.6041812 0.166369,0.24517504 0.53851,0.24517504 0.363384,0 0.499106,-0.27144374 0.135722,-0.2714438 0.135722,-0.6348282 0,-0.3283593 -0.06567,-0.6610968 -0.06129,-0.3327375 -0.109453,-0.5385094 l 0.748659,-0.2013938 q 0.07881,0.2933344 0.126966,0.6260719 0.04816,0.3283594 0.04816,0.6567188 0,0.4728375 -0.131343,0.88875936 -0.131344,0.41592188 -0.433435,0.67423126 Q 51.123998,-0.00437813 50.607379,0 50.187079,0 49.92877,-0.175125 49.67046,-0.35025001 49.50847,-0.66985314 49.263295,-0.31522501 48.961204,-0.1576125 48.663491,0 48.313241,0 Z m -4.640813,-6.0286782 h 0.739903 v 4.1854875 q 0,0.6173157 0.227663,0.8318438 0.227662,0.21452814 0.687365,0.21452814 h 0.109453 V 0 H 45.327359 Q 44.491137,0 44.079594,-0.44219063 43.672428,-0.88875939 43.672428,-1.8475688 Z m -3.559415,5.23185944 h 0.950053 q 0.437812,0 0.591047,-0.25393124 0.157612,-0.2539313 0.157612,-0.6435844 0,-0.2845781 -0.05254,-0.6085594 -0.05254,-0.3239812 -0.113831,-0.6523406 l 0.761793,-0.1926375 q 0.07443,0.35025 0.11821,0.6873656 0.04378,0.3371156 0.04378,0.6435844 0,0.525375 -0.144478,0.93691876 -0.144478,0.41154376 -0.472838,0.64796251 Q 41.623466,0 41.071822,0 h -0.958809 z m 1.584881,1.34846252 0.591047,0.59104684 -0.591047,0.5910469 -0.591047,-0.5910469 z m -1.497319,0 0.591047,0.59104684 -0.591047,0.5910469 -0.591047,-0.5910469 z m 0.74866,1.10766564 0.591047,0.5910469 -0.591047,0.5910469 -0.591047,-0.5910469 z m -1.173337,-2.40796879 q 0,2.55682509 -2.806378,3.09533439 L 36.711211,1.6505532 q 1.006968,-0.1926376 1.606772,-0.6435844 0.599803,-0.44656879 0.709256,-1.12517818 -0.166369,0.0525375 -0.385275,0.09194063 -0.218906,0.03940313 -0.385275,0.03940313 -1.598016,0 -1.598016,-1.35721878 0,-0.3239813 0.09632,-0.6479625 0.100697,-0.3283594 0.288956,-0.5998031 0.192638,-0.2758219 0.46846,-0.4421907 0.275821,-0.1663687 0.626071,-0.1663687 0.415922,0 0.722391,0.2057719 0.310847,0.2057718 0.512241,0.5560218 0.201393,0.35025 0.30209,0.7880625 0.100697,0.4378126 0.100697,0.90189381 z m -1.497319,-0.0306469 q 0.385275,0 0.766172,-0.11383125 -0.04378,-0.73552499 -0.271443,-1.12517819 -0.227663,-0.3940312 -0.643585,-0.3940312 -0.288956,0 -0.450947,0.1795031 -0.157612,0.1795031 -0.223284,0.4246781 -0.06129,0.2407969 -0.06129,0.4378126 0,0.3196031 0.218906,0.45532496 0.218907,0.13572188 0.665475,0.13572188 z M 36.069062,0 q -0.302091,0 -0.507863,-0.07880625 -0.201393,-0.08318438 -0.315225,-0.175125 -0.06567,0.57353438 -0.319603,1.10766564 -0.249553,0.53850941 -0.753037,0.93691881 -0.503485,0.3984093 -1.33095,0.5604 l -0.25831,-0.6917438 q 1.068263,-0.2320406 1.506075,-0.81433126 0.437813,-0.57791251 0.437813,-1.37035315 0,-0.37214063 -0.08318,-0.77930629 -0.07881,-0.4115437 -0.223285,-0.8362219 l 0.726769,-0.245175 0.236419,0.9150282 q 0.09632,0.3677625 0.306468,0.52099686 0.21015,0.15323438 0.529754,0.15323438 h 0.166368 V 0 Z m -5.008575,-6.580322 0.634828,0.6348282 -0.634828,0.6348281 -0.634828,-0.6348281 z m -0.332737,5.78350324 q 0.494728,0 0.796818,-0.0569156 0.306469,-0.0569156 0.446569,-0.24955311 0.144478,-0.1970156 0.144478,-0.6085594 -0.214528,0.065672 -0.437812,0.1006969 -0.218906,0.035025 -0.472838,0.035025 -1.488562,0 -1.488562,-1.2214969 0,-0.4203 0.166369,-0.8406 0.170746,-0.4203 0.499106,-0.7005 0.328359,-0.2845782 0.796819,-0.2845782 0.429056,0 0.735525,0.2189063 0.310846,0.2189062 0.507862,0.5910469 0.201394,0.3677625 0.297713,0.8362219 0.09632,0.4640812 0.09632,0.9588093 0,0.6523407 -0.118209,1.05512818 -0.113831,0.39840939 -0.367763,0.60855939 -0.253931,0.20577188 -0.661096,0.2802 Q 31.261881,0 30.675212,0 h -1.61115 v -0.79681876 z m 0.538509,-1.53234374 q 0.201394,0 0.398409,-0.035025 0.201394,-0.039403 0.402788,-0.096319 -0.03502,-0.3108469 -0.131344,-0.63045 -0.09194,-0.3196031 -0.275822,-0.5341313 -0.183881,-0.2189062 -0.49035,-0.2189062 -0.271443,0 -0.437812,0.1707469 -0.161991,0.1707468 -0.236419,0.4071656 -0.07005,0.2364188 -0.07005,0.4378125 0,0.3020906 0.214528,0.4027875 0.218906,0.096319 0.626072,0.096319 z m -2.610169,1.53234374 h 0.950053 q 0.437813,0 0.591047,-0.25393124 0.157613,-0.2539313 0.157613,-0.6435844 0,-0.2845781 -0.05254,-0.6085594 -0.05254,-0.3239812 -0.113831,-0.6523406 l 0.761794,-0.1926375 q 0.07443,0.35025 0.118209,0.6873656 0.04378,0.3371156 0.04378,0.6435844 0,0.525375 -0.144478,0.93691876 -0.144478,0.41154376 -0.472837,0.64796251 Q 30.166543,0 29.6149,0 h -0.95881 z m 1.580503,1.49294065 0.612938,0.60855941 -0.612938,0.6173156 -0.608559,-0.6173156 z m -1.453537,0 0.612937,0.60855941 -0.612937,0.6173156 -0.60856,-0.6173156 z M 26.939865,-1.5936375 q 0,-0.1138313 -0.05254,-0.2933344 -0.04816,-0.1838813 -0.11821,-0.3414938 l -0.774928,-1.7556281 0.682988,-0.3196031 0.993834,2.3379187 q 0.201394,0.4728376 0.35025,0.7267688 0.153234,0.25393126 0.297712,0.35025001 0.148857,0.0919406 0.337116,0.0919406 h 0.183881 V 0 H 28.65609 q -0.345872,0 -0.564778,-0.08318438 -0.214528,-0.08318437 -0.372141,-0.24955313 -0.157612,-0.16636875 -0.319603,-0.4203 -0.306469,0.385275 -0.783684,0.56915626 -0.472838,0.17950312 -1.182094,0.17950312 -0.306469,0 -0.551644,-0.02626875 -0.245175,-0.03064687 -0.464081,-0.08318437 v -0.79244064 q 0.503484,0.11820938 0.950053,0.11820938 1.571747,0 1.571747,-0.80557499 z m -4.632057,-4.4350407 h 0.739903 v 4.1854875 q 0,0.6173157 0.227662,0.8318438 0.227663,0.21452814 0.687366,0.21452814 h 0.109453 V 0 H 23.962739 Q 23.126517,0 22.714973,-0.44219063 22.307808,-0.88875939 22.307808,-1.8475688 Z M 17.767692,0 h -0.23204 Q 16.607489,0 16.121517,-0.175125 15.635546,-0.35025001 15.434152,-0.66547501 15.180221,-0.31960313 14.860617,-0.1576125 14.545392,0 14.020017,0 h -0.179503 l 0.0044,-0.79681876 h 0.175125 q 0.612938,0 0.823088,-0.25830934 0.214528,-0.2626875 0.214528,-0.7574157 0,-0.21015 -0.01751,-0.3896531 -0.01313,-0.1795031 -0.02189,-0.385275 l 0.731147,-0.087562 0.06567,1.0244812 q 0.02189,0.2933344 0.122587,0.5078626 0.100697,0.21014996 0.310847,0.21014996 0.783684,-1.33095006 1.532344,-1.96140006 0.753037,-0.6348281 1.506075,-0.6348281 0.499106,0 0.884381,0.2189062 0.389653,0.2145282 0.608559,0.5866688 0.218907,0.3721406 0.218907,0.8406 -0.0044,0.5647782 -0.337116,1.00259066 0.126966,0.0306469 0.328359,0.0569156 0.205772,0.0262688 0.604182,0.0262688 h 0.131343 V 0 H 21.598552 Q 21.04253,0 20.679146,-0.11383125 20.320139,-0.2276625 20.074964,-0.42905626 19.715958,-0.2276625 19.129289,-0.11383125 18.542621,0 17.767692,0 Z m 1.554235,-2.73195 q -1.055128,0 -2.281003,1.93513124 h 0.709256 q 1.247766,0 1.860703,-0.24955314 0.612938,-0.2495531 0.612938,-0.7924406 0,-0.385275 -0.249554,-0.6392063 Q 19.729092,-2.73195 19.321927,-2.73195 Z m -6.768582,-2.0051813 0.612938,0.6085594 -0.612938,0.6173156 -0.608559,-0.6173156 z m -1.453537,0 0.612937,0.6085594 -0.612937,0.6173156 -0.60856,-0.6173156 z m -0.472838,3.94031254 h 0.612938 q 0.556022,0 0.79244,-0.24955314 0.240797,-0.2495531 0.240797,-0.7661719 0,-0.21015 -0.01313,-0.3984094 -0.0088,-0.1882593 -0.02627,-0.3765187 l 0.731147,-0.087562 0.07005,1.0244812 q 0.05254,0.85373444 0.88876,0.85373444 h 0.09194 V 0 H 13.914942 Q 13.42897,0 13.135636,-0.175125 12.84668,-0.35025001 12.667177,-0.66985314 12.430758,-0.32398126 12.045483,-0.16199063 11.660208,0 11.239908,0 H 10.62697 Z M 9.2566171,-6.4971376 9.8695546,-5.8885782 9.2566171,-5.2712626 8.6480577,-5.8885782 Z m -1.4535375,0 0.6129375,0.6085594 -0.6129375,0.6173156 -0.6085594,-0.6173156 z m 0.3896531,5.70031884 q 0.4947281,0 0.7968188,-0.0569156 0.3064687,-0.0569156 0.4465687,-0.24955311 0.1444781,-0.1970156 0.1444781,-0.6085594 -0.2145281,0.065672 -0.4378125,0.1006969 -0.2189062,0.035025 -0.4728375,0.035025 -1.4885625,0 -1.4885625,-1.2214969 0,-0.4203 0.1663688,-0.8406 0.1707468,-0.4203 0.4991062,-0.7005 0.3283594,-0.2845782 0.7968188,-0.2845782 0.4290562,0 0.735525,0.2189063 0.3108469,0.2189062 0.5078625,0.5910469 0.2013939,0.3677625 0.2977129,0.8362219 0.09632,0.4640812 0.09632,0.9588093 0,0.6523407 -0.118209,1.05512818 -0.113831,0.39840939 -0.3677625,0.60855939 -0.2539313,0.20577188 -0.6610969,0.2802 Q 8.726864,0 8.1401952,0 h -1.61115 V -0.79681876 Z M 8.7312421,-2.3291625 q 0.2013937,0 0.3984094,-0.035025 0.2013937,-0.039403 0.4027875,-0.096319 -0.035025,-0.3108469 -0.1313438,-0.63045 -0.091941,-0.3196031 -0.2758219,-0.5341313 -0.1838812,-0.2189062 -0.49035,-0.2189062 -0.2714437,0 -0.4378125,0.1707469 -0.1619906,0.1707468 -0.2364187,0.4071656 -0.07005,0.2364188 -0.07005,0.4378125 0,0.3020906 0.2145281,0.4027875 0.2189062,0.096319 0.6260719,0.096319 z M 5.9467545,-6.0286782 v 6.02430007 H 5.2068514 V -6.0286782 Z"
       id="text3"
       transform="matrix(1.3333333,0,0,1.3333333,265.664,284.08)"
       aria-label="ﯽﺷﺎﭘوﺮﻓیدﺎﺼﺘﻗا" />
    <path
       id="path4"
       d="m -109.34996,17.00804 h -97.44685 c -4.40187,0 -7.97022,-3.56833 -7.97022,-7.97021 V -9.03783 c 0,-4.40188 3.56835,-7.97021 7.97022,-7.97021 h 97.44685 c 4.40189,0 7.97021,3.56833 7.97021,7.97021 V 9.03783 c 0,4.40188 -3.56832,7.97021 -7.97021,7.97021 z"
       style="fill:#e6f0fa;fill-opacity:1;fill-rule:nonzero;stroke:#0055a4;stroke-width:0.99628;stroke-linecap:butt;stroke-linejoin:miter;stroke-miterlimit:10;stroke-dasharray:none;stroke-opacity:1"
       transform="matrix(1.3333333,0,0,-1.3333333,306.94133,162.428)" />
    <path
       style="font-size:8.9664px;font-family:Vazirmatn"
       d="m 52.918083,0 h -0.713634 v -0.79681876 h 0.704878 q 0.437812,0 0.591047,-0.25393124 0.157612,-0.2539313 0.157612,-0.6435844 0,-0.2845781 -0.05254,-0.6085594 -0.05254,-0.3239812 -0.113831,-0.6523406 l 0.761793,-0.1926375 q 0.07443,0.35025 0.11821,0.6873656 0.04378,0.3371156 0.04378,0.6435844 0,0.525375 -0.144478,0.93691876 -0.144478,0.41154376 -0.472838,0.64796251 Q 53.469727,0 52.918083,0 Z m 0.534131,-5.1661876 0.634829,0.6348282 -0.634829,0.6348281 -0.634828,-0.6348281 z m -2.837025,-0.8624906 h 0.739903 v 4.1854875 q 0,0.6173157 0.227662,0.8318438 0.227663,0.21452814 0.687366,0.21452814 h 0.109453 V 0 H 52.27012 Q 51.433898,0 51.022354,-0.44219063 50.615189,-0.88875939 50.615189,-1.8475688 Z M 49.304974,0 q -0.30209,0 -0.507862,-0.07880625 -0.201394,-0.08318438 -0.315225,-0.175125 -0.06567,0.57353438 -0.319603,1.10766564 -0.249553,0.53850941 -0.753038,0.93691881 -0.503484,0.3984093 -1.33095,0.5604 L 45.819987,1.6593094 q 1.068262,-0.2320406 1.506075,-0.81433126 0.437812,-0.57791251 0.437812,-1.37035315 0,-0.37214063 -0.08318,-0.77930629 -0.07881,-0.4115437 -0.223284,-0.8362219 l 0.726768,-0.245175 0.236419,0.9150282 q 0.09632,0.3677625 0.306469,0.52099686 0.21015,0.15323438 0.529753,0.15323438 h 0.166369 V 0 Z m -3.922799,-2.4298594 v 0.7574156 q -0.18826,0.017512 -0.442191,0.096319 -0.253931,0.074428 -0.538509,0.21015 0.0088,0.3633844 0.35025,0.46845936 0.341493,0.10069688 0.967565,0.10069688 h 0.240797 V 0 H 45.701778 Q 44.80864,0 44.362072,-0.23641875 43.919881,-0.47283751 43.832318,-1.085775 42.96545,-0.61293751 42.151118,-0.30646876 41.341165,0 40.404246,0 H 39.6731 v -0.79681876 h 0.744281 q 0.51224,0 0.941297,-0.0919406 0.429056,-0.0919406 0.836222,-0.25393121 0.411543,-0.1619907 0.858112,-0.3808969 0.450947,-0.2232844 1.006969,-0.4772157 -0.310847,-0.1138312 -0.643584,-0.245175 -0.332738,-0.1357218 -0.634829,-0.2539312 -0.297712,-0.1182094 -0.520997,-0.1926375 -0.223284,-0.078806 -0.315225,-0.078806 -0.267065,0 -0.472837,0.1576125 -0.201394,0.1532344 -0.372141,0.3721407 l -0.118209,0.1488562 -0.669853,-0.3283594 0.06567,-0.105075 q 0.288956,-0.4684593 0.669853,-0.7486594 0.385275,-0.2845781 0.901894,-0.2845781 0.214528,0 0.516618,0.1094531 0.306469,0.1094532 0.665475,0.2758219 0.359007,0.1619907 0.744282,0.3327375 0.385275,0.1663688 0.77055,0.2845782 0.385275,0.1138312 0.735525,0.1269656 z M 37.82991,0 h -0.805575 v -0.79681876 h 0.796819 q 0.437812,0 0.591047,-0.25393124 0.157612,-0.2539313 0.157612,-0.6435844 0,-0.2845781 -0.05254,-0.6085594 -0.05254,-0.3239812 -0.113831,-0.6523406 l 0.761793,-0.1926375 q 0.07443,0.35025 0.11821,0.6873656 0.04378,0.3371156 0.04378,0.6435844 0,0.525375 -0.144478,0.93691876 -0.144478,0.41154376 -0.472838,0.64796251 Q 38.381554,0 37.82991,0 Z m 0.09632,0.66985314 0.634828,0.63482816 -0.634828,0.6348281 -0.634828,-0.6348281 z m -2.02767,-4.96479384 0.612938,0.6085594 -0.612938,0.6173156 L 35.29,-3.6863813 Z m -1.453537,0 0.612937,0.6085594 -0.612937,0.6173156 -0.60856,-0.6173156 z m 3.375534,1.7074688 0.731147,-0.087562 0.07443,1.0244812 q 0.02627,0.4159219 0.236419,0.6348282 0.214528,0.21890624 0.639206,0.21890624 h 0.105075 V 0 H 39.501756 Q 39.007028,0 38.687425,-0.18388125 38.3722,-0.37214063 38.166428,-0.78368439 37.803043,-0.36338438 37.233887,-0.17950313 36.669109,0 35.66214,0 h -0.731147 q -1.650553,0 -2.482397,-0.44656876 -0.827465,-0.44656875 -0.827465,-1.54547814 0,-0.3020906 0.06567,-0.5910469 0.07005,-0.2889562 0.179503,-0.5560219 l 0.678609,0.2539313 q -0.07005,0.1926375 -0.118209,0.4115437 -0.04378,0.2189063 -0.04378,0.4159219 0.0044,0.5122406 0.288956,0.7880625 0.284578,0.27144378 0.849356,0.37214066 0.564778,0.10069688 1.409756,0.10069688 h 0.731147 q 1.046372,0 1.619907,-0.21890624 0.577912,-0.2189063 0.577912,-0.7968188 0,-0.1795031 -0.01313,-0.385275 -0.0088,-0.2057719 -0.02627,-0.3896531 z m -9.982125,1.79065314 h 0.661097 q 0.556022,0 0.79244,-0.24955314 0.240797,-0.2495531 0.240797,-0.7661719 0,-0.21015 -0.01313,-0.3984094 -0.0088,-0.1882593 -0.02627,-0.3765187 l 0.731147,-0.087562 0.07005,1.0244812 q 0.05254,0.85373444 0.888759,0.85373444 h 0.09194 V 0 H 31.174562 Q 30.68859,0 30.395256,-0.175125 30.1063,-0.35025001 29.926797,-0.66985314 29.690378,-0.32398126 29.305103,-0.16199063 28.919828,0 28.499528,0 h -0.661097 z m 1.580503,1.49294065 0.612938,0.60855941 -0.612938,0.6173156 -0.608559,-0.6173156 z m -1.453538,0 0.612938,0.60855941 -0.612938,0.6173156 -0.608559,-0.6173156 z m -3.449963,-1.49294065 q -0.197016,-0.24517504 -0.337116,-0.59980314 -0.135721,-0.3590063 -0.135721,-0.7180125 0,-0.4684594 0.245175,-0.8493563 0.245175,-0.3808969 0.643584,-0.6041812 0.398409,-0.2232844 0.858112,-0.2232844 0.696122,0 1.492941,0.5428875 l -0.293334,0.6523406 q -0.682988,-0.4027875 -1.151447,-0.4027875 -0.402788,0 -0.713635,0.2495532 -0.310846,0.2495531 -0.310846,0.665475 0,0.3239812 0.144478,0.5735344 0.148856,0.2495531 0.315225,0.3896531 0.166368,0.13572186 0.223284,0.13572186 0.07881,0 0.153234,-0.0218907 l 1.851947,-0.4421906 v 0.79681876 Q 26.411161,-0.31960313 25.482999,-0.1576125 24.559214,0 23.648564,0 h -0.477215 v -0.79681876 z m -1.689955,0.0481594 q 0,2.55682509 -2.806378,3.09533439 L 19.76079,1.6505532 q 1.006969,-0.1926376 1.606772,-0.6435844 0.599803,-0.44656879 0.709256,-1.12517818 -0.166368,0.0525375 -0.385275,0.09194063 -0.218906,0.03940313 -0.385275,0.03940313 -1.598015,0 -1.598015,-1.35721878 0,-0.3239813 0.09632,-0.6479625 0.100696,-0.3283594 0.288956,-0.5998031 0.192637,-0.2758219 0.468459,-0.4421907 0.275822,-0.1663687 0.626072,-0.1663687 0.415922,0 0.722391,0.2057719 0.310847,0.2057718 0.51224,0.5560218 0.201394,0.35025 0.302091,0.7880625 0.100697,0.4378126 0.100697,0.90189381 z m -1.497319,-0.0306469 q 0.385275,0 0.766172,-0.11383125 -0.04378,-0.73552499 -0.271444,-1.12517819 -0.227662,-0.3940312 -0.643584,-0.3940312 -0.288956,0 -0.450947,0.1795031 -0.157613,0.1795031 -0.223284,0.4246781 -0.06129,0.2407969 -0.06129,0.4378126 0,0.3196031 0.218906,0.45532496 0.218906,0.13572188 0.665475,0.13572188 z M 19.118642,0 q -0.302091,0 -0.507863,-0.07880625 -0.201394,-0.08318438 -0.315225,-0.175125 -0.06567,0.57353438 -0.319603,1.10766564 -0.249553,0.53850941 -0.753038,0.93691881 -0.503484,0.3984093 -1.33095,0.5604 L 15.633654,1.6593094 q 1.068263,-0.2320406 1.506075,-0.81433126 0.437813,-0.57791251 0.437813,-1.37035315 0,-0.37214063 -0.08319,-0.77930629 -0.07881,-0.4115437 -0.223284,-0.8362219 l 0.726769,-0.245175 0.236418,0.9150282 q 0.09632,0.3677625 0.306469,0.52099686 0.21015,0.15323438 0.529753,0.15323438 h 0.166369 V 0 Z m -7.101319,-5.7572345 0.591046,0.5910469 -0.591046,0.5910469 -0.591047,-0.5910469 z m 0.748659,1.1076657 0.591047,0.5910469 -0.591047,0.5910468 -0.591047,-0.5910468 z m -1.497319,0 0.591047,0.5910469 -0.591047,0.5910468 -0.591047,-0.5910468 z M 13.374541,0 q -0.4203,0 -0.678609,-0.175125 -0.258309,-0.17512501 -0.4203,-0.49472814 -0.245175,0.35462813 -0.547266,0.51224064 Q 11.430654,0 11.080404,0 10.576919,0 10.301098,-0.17074688 10.029654,-0.34587188 9.8676631,-0.66985314 9.6618913,-0.34587188 9.3422881,-0.17074688 9.022685,0 8.4316381,0 H 8.0288506 v -0.79681876 h 0.4115438 q 0.5604,0 0.8187094,-0.20577184 0.2583093,-0.21015 0.2583093,-0.7617938 0,-0.1138313 -0.013134,-0.2670656 -0.00876,-0.1576125 -0.030647,-0.4378125 l 0.7311471,-0.091941 0.07005,0.9150282 q 0.02627,0.3677625 0.223284,0.6085594 0.201394,0.24079684 0.591047,0.24079684 0.464081,0 0.63045,-0.24955314 0.166369,-0.2495531 0.166369,-0.7180125 0,-0.1138313 -0.01314,-0.2714438 -0.0088,-0.1576125 -0.03065,-0.4334343 l 0.731146,-0.091941 0.07005,0.9150282 q 0.02189,0.3546281 0.18826,0.6041812 0.166369,0.24517504 0.538509,0.24517504 0.647963,0 0.647963,-0.96756564 0,-0.1576125 -0.01314,-0.3283594 -0.0088,-0.1707469 -0.03065,-0.4509469 l 0.731147,-0.087563 0.07005,0.9850782 q 0.05254,0.84935624 0.866869,0.84935624 h 0.131344 V 0 H 15.651166 Q 15.191463,0 14.884994,-0.16636875 14.578526,-0.33711563 14.464694,-0.67423126 14.280813,-0.35025001 14.040016,-0.175125 13.803598,0 13.374541,0 Z M 6.3038693,0.10069688 q -0.4378125,0 -0.8099532,-0.18825938 Q 5.1261536,-0.2802 4.7277443,-0.66547501 4.4431661,-0.34587188 4.1804786,-0.17074688 3.9177911,0 3.4405755,0 H 3.247938 v -0.79681876 h 0.1707469 q 0.2933343,0 0.4947281,-0.16636876 Q 4.1148067,-1.1339344 4.2724192,-1.401 4.4300317,-1.6680657 4.5832661,-1.9657782 4.7408786,-2.2678688 4.9335161,-2.5349344 5.1261536,-2.802 5.3975974,-2.9683688 q 0.2758219,-0.1707469 0.6786094,-0.1707469 0.4859719,0 0.8449781,0.2364188 0.3633844,0.2320406 0.5604,0.6260719 0.2013938,0.3940312 0.2013938,0.8800031 0,0.71363439 -0.3633844,1.10766565 -0.3590063,0.38965313 -1.015725,0.38965313 z m -0.21015,-2.46488438 q -0.2189063,0 -0.3984094,0.1488562 -0.1795031,0.1444781 -0.3239813,0.3765188 -0.1444781,0.2320406 -0.2583093,0.4815937 0.2626875,0.2758219 0.5428875,0.45094691 0.3590062,0.23204063 0.6392062,0.23204063 0.6479625,0 0.6479625,-0.65234064 0,-0.455325 -0.2276625,-0.7442813 -0.2232843,-0.2933343 -0.6216937,-0.2933343 z"
       id="text4"
       transform="matrix(1.3333333,0,0,1.3333333,57.450667,164.88)"
       aria-label="ناﺮﺤﺑﺖﯿﻋوﺮﺸﻣ" />
    <path
       id="path5"
       d="m 206.79681,17.00804 h -97.44685 c -4.40189,0 -7.97021,-3.56833 -7.97021,-7.97021 V -9.03783 c 0,-4.40188 3.56832,-7.97021 7.97021,-7.97021 h 97.44685 c 4.40187,0 7.97022,3.56833 7.97022,7.97021 V 9.03783 c 0,4.40188 -3.56835,7.97021 -7.97022,7.97021 z"
       style="fill:#e6f0fa;fill-opacity:1;fill-rule:nonzero;stroke:#0055a4;stroke-width:0.99628;stroke-linecap:butt;stroke-linejoin:miter;stroke-miterlimit:10;stroke-dasharray:none;stroke-opacity:1"
       transform="matrix(1.3333333,0,0,-1.3333333,306.94133,162.428)" />
    <path
       style="font-size:8.9664px;font-family:Vazirmatn"
       d="m 49.688776,-0.79681876 h 0.950054 q 0.437812,0 0.591046,-0.25393124 0.157613,-0.2539313 0.157613,-0.6435844 0,-0.2845781 -0.05254,-0.6085594 -0.05254,-0.3239812 -0.113831,-0.6523406 l 0.761794,-0.1926375 q 0.07443,0.35025 0.118209,0.6873656 0.04378,0.3371156 0.04378,0.6435844 0,0.525375 -0.144478,0.93691876 -0.144479,0.41154376 -0.472838,0.64796251 Q 51.19923,0 50.647586,0 h -0.95881 z M 51.26928,0.69612189 51.882217,1.3046813 51.26928,1.9219969 50.66072,1.3046813 Z m -1.453538,0 0.612938,0.60855941 -0.612938,0.6173156 -0.608559,-0.6173156 z m -1.70747,-6.72480009 h 0.739904 v 4.1854875 q 0,0.6173157 0.227662,0.8318438 0.227663,0.21452814 0.687366,0.21452814 h 0.109453 V 0 H 49.763204 Q 48.926982,0 48.515438,-0.44219063 48.108272,-0.88875939 48.108272,-1.8475688 Z m -1.103286,5.28001881 q 0,2.55682509 -2.806378,3.09533439 L 43.940299,1.6505532 q 1.006968,-0.1926376 1.606771,-0.6435844 0.599804,-0.44656879 0.709257,-1.12517818 -0.166369,0.0525375 -0.385275,0.09194063 -0.218907,0.03940313 -0.385275,0.03940313 -1.598016,0 -1.598016,-1.35721878 0,-0.3239813 0.09632,-0.6479625 0.100697,-0.3283594 0.288956,-0.5998031 0.192638,-0.2758219 0.468459,-0.4421907 0.275822,-0.1663687 0.626072,-0.1663687 0.415922,0 0.722391,0.2057719 0.310847,0.2057718 0.512241,0.5560218 0.201393,0.35025 0.30209,0.7880625 0.100697,0.4378126 0.100697,0.90189381 z m -1.497319,-0.0306469 q 0.385275,0 0.766172,-0.11383125 -0.04378,-0.73552499 -0.271444,-1.12517819 -0.227662,-0.3940312 -0.643584,-0.3940312 -0.288956,0 -0.450947,0.1795031 -0.157612,0.1795031 -0.223284,0.4246781 -0.06129,0.2407969 -0.06129,0.4378126 0,0.3196031 0.218906,0.45532496 0.218907,0.13572188 0.665475,0.13572188 z m -3.833802,-3.72578444 0.634829,0.6348281 -0.634829,0.6348282 -0.634828,-0.6348282 z M 43.29815,0 q -0.302091,0 -0.507863,-0.07880625 -0.201393,-0.08318438 -0.315225,-0.175125 -0.06567,0.57353438 -0.319603,1.10766564 -0.249553,0.53850941 -0.753037,0.93691881 -0.503485,0.3984093 -1.33095,0.5604 l -0.25831,-0.6917438 q 1.068263,-0.2320406 1.506075,-0.81433126 0.437813,-0.57791251 0.437813,-1.37035315 0,-0.37214063 -0.08319,-0.77930629 -0.07881,-0.4115437 -0.223284,-0.8362219 l 0.726769,-0.245175 0.236419,0.9150282 q 0.09632,0.3677625 0.306468,0.52099686 0.21015,0.15323438 0.529753,0.15323438 h 0.166369 V 0 Z m -4.750264,0 h -0.713635 v -0.79681876 h 0.704879 q 0.437812,0 0.591046,-0.25393124 0.157613,-0.2539313 0.157613,-0.6435844 0,-0.2845781 -0.05254,-0.6085594 -0.05254,-0.3239812 -0.113831,-0.6523406 l 0.761794,-0.1926375 q 0.07443,0.35025 0.118209,0.6873656 0.04378,0.3371156 0.04378,0.6435844 0,0.525375 -0.144479,0.93691876 -0.144478,0.41154376 -0.472837,0.64796251 Q 39.09953,0 38.547886,0 Z m 0.534131,-5.1661876 0.634828,0.6348282 -0.634828,0.6348281 -0.634828,-0.6348281 z m -1.830056,-0.8624906 v 6.02430007 H 36.512058 V -6.0286782 Z m -1.817727,8.2834126 q -0.945675,0 -1.514832,-0.3458719 Q 33.354624,1.5629907 33.100693,0.98507814 32.85114,0.41154376 32.85114,-0.27582188 q 0,-0.2977125 0.04378,-0.68736564 0.04816,-0.38965308 0.214528,-0.88875938 l 0.696122,0.2583094 q -0.126965,0.4378125 -0.166369,0.77492811 -0.03502,0.33711563 -0.03502,0.56915626 0,0.47283751 0.166369,0.86249064 0.166369,0.38965309 0.564778,0.62169379 0.402788,0.2320406 1.09891,0.2320406 0.656718,0 1.125178,-0.1619906 0.472837,-0.1619907 0.72239,-0.38527503 0.253932,-0.22328438 0.253932,-0.40716564 0,-0.21015 -0.183882,-0.35900625 -0.179503,-0.14885625 -0.586668,-0.14885625 h -0.647963 q -0.08756,0 -0.126965,-0.07442813 -0.0394,-0.07880625 -0.07443,-0.20139375 l -0.118209,-0.42030001 q -0.0044,-0.035025 0.01751,-0.0656719 0.02189,-0.035025 0.07881,-0.035025 h 2.429859 v 0.79681877 h -0.179503 q 0.06567,0.13134375 0.08319,0.24955312 0.02189,0.11820938 0.02189,0.24517501 0,0.28895625 -0.170747,0.59542504 -0.166368,0.3108468 -0.516619,0.5735344 -0.345871,0.2626875 -0.875625,0.4246781 -0.529753,0.1619906 -1.252143,0.1619906 z m -4.69335,-4.1723532 v -4.1110594 h 0.739904 v 4.1241938 q 0,0.4815938 0.188259,0.7968188 0.192637,0.31084684 0.696122,0.31084684 h 0.1401 V 0 h -0.131344 q -0.49035,0 -0.779306,-0.17074688 -0.288957,-0.17074688 -0.459703,-0.49472813 -0.144479,0.21452813 -0.293335,0.36338438 -0.144478,0.14885625 -0.37214,0.2276625 Q 30.246156,0 29.856503,0 h -0.376519 v -0.79681876 h 0.367763 q 0.367762,0 0.556022,-0.14447813 0.192637,-0.14885621 0.262687,-0.40278751 0.07443,-0.2539313 0.07443,-0.5735344 z m -2.85016,0 v -4.1110594 h 0.739903 v 4.1241938 q 0,0.4815938 0.188259,0.7968188 0.192638,0.31084684 0.696122,0.31084684 h 0.1401 V 0 h -0.131344 q -0.49035,0 -0.779306,-0.17074688 -0.288956,-0.17074688 -0.459703,-0.49472813 -0.144478,0.21452813 -0.293334,0.36338438 -0.144478,0.14885625 -0.372141,0.2276625 Q 27.395996,0 27.006343,0 h -0.376519 v -0.79681876 h 0.367762 q 0.367763,0 0.556022,-0.14447813 0.192638,-0.14885621 0.262688,-0.40278751 0.07443,-0.2539313 0.07443,-0.5735344 z M 21.682542,0 h -0.192638 v -0.79681876 h 0.170747 q 0.293335,0 0.494728,-0.16636876 0.201394,-0.17074688 0.359007,-0.43781248 0.157612,-0.2670657 0.310847,-0.5647782 0.157612,-0.3020906 0.35025,-0.5691562 0.192637,-0.2670656 0.464081,-0.4334344 0.275822,-0.1707469 0.678609,-0.1707469 0.687366,0 1.068263,0.4203 0.380897,0.4159219 0.51224,1.0376157 0.08756,0.4290562 0.297713,0.6567187 0.214528,0.22766254 0.494728,0.22766254 h 0.113831 V 0 h -0.118209 q -0.2802,0 -0.547266,-0.11383125 -0.267065,-0.11820938 -0.433434,-0.37214063 -0.183881,0.26706563 -0.455325,0.42905625 -0.271444,0.15761251 -0.704878,0.15761251 -0.437813,0 -0.809953,-0.18825938 Q 23.36812,-0.2802 22.969711,-0.66547501 22.685133,-0.34587188 22.422445,-0.17074688 22.159758,0 21.682542,0 Z m 2.653144,-2.3641875 q -0.218906,0 -0.39841,0.1488562 -0.179503,0.1444781 -0.323981,0.3765188 -0.144478,0.2320406 -0.258309,0.4815937 0.144478,0.1488563 0.288956,0.2670657 0.144478,0.11820933 0.2802,0.20139371 0.35025,0.21452813 0.612938,0.21452813 0.647962,0 0.647962,-0.65234064 0,-0.455325 -0.227662,-0.7442813 -0.223285,-0.2933343 -0.621694,-0.2933343 z m -5.428875,1.56736874 h 0.367762 q 0.525375,0 0.709257,-0.29771254 0.183881,-0.2977125 0.183881,-0.7442812 v -4.1898657 h 0.739903 v 4.1854875 q 0,0.91065006 -0.394031,1.37910944 Q 20.119551,0 19.270195,0 h -0.363384 z m -0.58229,-5.23185944 v 6.02430007 H 17.584618 V -6.0286782 Z m -9.7098767,2.6443875 0.6348282,0.6348282 -0.6348282,0.6348281 -0.6348281,-0.6348281 z m 0.048159,4.8509626 q 0.7311469,0 1.1295563,-0.2407969 0.402787,-0.23641873 0.5604,-0.62607187 0.161991,-0.385275 0.161991,-0.82746563 0,-0.52099689 -0.1401,-1.0288594 -0.1401,-0.5078625 -0.262688,-0.8318438 l 0.748659,-0.3020906 0.323982,1.0244813 q 0.08756,0.2802 0.284578,0.42467811 0.201394,0.14447813 0.5604,0.14447813 h 0.170747 V 0 h -0.153235 q -0.306468,0 -0.468459,-0.05691563 -0.157613,-0.05691562 -0.297713,-0.1926375 -0.0044,0.73114689 -0.2802,1.29592503 -0.275821,0.5691563 -0.853734,0.8887594 -0.5735343,0.3196031 -1.4841843,0.3196031 -0.945675,0 -1.5148313,-0.3458719 Q 6.5831943,1.5629907 6.329263,0.98507814 6.0797099,0.41154376 6.0797099,-0.27582188 q 0,-0.46408126 0.096319,-0.95005312 0.096319,-0.49035 0.2626875,-0.9544313 l 0.6961218,0.2802 q -0.1269656,0.4027875 -0.2145281,0.8274657 -0.087563,0.42467809 -0.087563,0.82308747 0,0.47283751 0.1663688,0.86249064 Q 7.169863,1.0025906 7.5682724,1.2346313 7.9666818,1.4666719 8.6628037,1.4666719 Z M 2.2970099,-0.79681876 h 0.6610969 q 0.5560219,0 0.7924406,-0.24955314 0.2407969,-0.2495531 0.2407969,-0.7661719 0,-0.21015 -0.013134,-0.3984094 -0.00876,-0.1882593 -0.026269,-0.3765187 l 0.7311469,-0.087562 0.07005,1.0244812 q 0.052537,0.85373444 0.8887594,0.85373444 h 0.091941 V 0 H 5.6331412 Q 5.1471693,0 4.853835,-0.175125 4.5648787,-0.35025001 4.3853756,-0.66985314 4.1489568,-0.32398126 3.7636818,-0.16199063 3.3784068,0 2.9581068,0 H 2.2970099 Z M 3.8775131,0.69612189 4.4904506,1.3046813 3.8775131,1.9219969 3.2689537,1.3046813 Z m -1.4535376,0 L 3.0369131,1.3046813 2.4239755,1.9219969 1.8154162,1.3046813 Z M 0.46257551,0 H -0.3429995 v -0.79681876 h 0.79681876 q 0.43781251,0 0.59104684,-0.25393124 0.1576125,-0.2539313 0.1576125,-0.6435844 0,-0.2845781 -0.052538,-0.6085594 -0.052537,-0.3239812 -0.1138312,-0.6523406 l 0.7617938,-0.1926375 q 0.074428,0.35025 0.1182093,0.6873656 0.043781,0.3371156 0.043781,0.6435844 0,0.525375 -0.1444781,0.93691876 Q 1.670938,-0.46845938 1.3425786,-0.23204063 1.0142193,0 0.46257551,0 Z M 0.55889426,0.66985314 1.1937224,1.3046813 0.55889426,1.9395094 -0.07593387,1.3046813 Z"
       id="text5"
       transform="matrix(1.3333333,0,0,1.3333333,479.86667,164.88)"
       aria-label="یاوﺰﻧاﯽﻠﻠﻤﻟا ﻦﯿﺑ" />
    <path
       id="path6"
       d="m -63.90952,83.60974 h -97.44683 c -4.40189,0 -7.97022,-3.56833 -7.97022,-7.97021 V 57.56386 c 0,-4.40189 3.56833,-7.97022 7.97022,-7.97022 h 97.44683 c 4.40189,0 7.97022,3.56833 7.97022,7.97022 v 18.07567 c 0,4.40188 -3.56833,7.97021 -7.97022,7.97021 z"
       style="fill:#e6f0fa;fill-opacity:1;fill-rule:nonzero;stroke:#0055a4;stroke-width:0.99628;stroke-linecap:butt;stroke-linejoin:miter;stroke-miterlimit:10;stroke-dasharray:none;stroke-opacity:1"
       transform="matrix(1.3333333,0,0,-1.3333333,306.94133,162.428)" />
    <path
       style="font-size:8.9664px;font-family:Vazirmatn"
       d="m 45.028421,-4.2949407 0.612937,0.6085594 -0.612937,0.6173156 -0.60856,-0.6173156 z m -1.453538,0 0.612938,0.6085594 -0.612938,0.6173156 -0.608559,-0.6173156 z m 3.375535,1.7074688 0.731147,-0.087562 0.07443,1.0244812 q 0.02627,0.4159219 0.236419,0.6348282 0.214528,0.21890624 0.639206,0.21890624 h 0.105075 V 0 H 48.631618 Q 48.13689,0 47.817287,-0.18388125 47.502062,-0.37214063 47.29629,-0.78368439 46.932905,-0.36338438 46.363749,-0.17950313 45.798971,0 44.792002,0 h -0.731147 q -1.650553,0 -2.482397,-0.44656876 -0.827465,-0.44656875 -0.827465,-1.54547814 0,-0.3020906 0.06567,-0.5910469 0.07005,-0.2889562 0.179503,-0.5560219 l 0.678609,0.2539313 q -0.07005,0.1926375 -0.118209,0.4115437 -0.04378,0.2189063 -0.04378,0.4159219 0.0044,0.5122406 0.288957,0.7880625 0.284578,0.27144378 0.849356,0.37214066 0.564778,0.10069688 1.409756,0.10069688 h 0.731147 q 1.046372,0 1.619906,-0.21890624 0.577913,-0.2189063 0.577913,-0.7968188 0,-0.1795031 -0.01313,-0.385275 -0.0088,-0.2057719 -0.02627,-0.3896531 z M 38.005908,0 q -0.4203,0 -0.678609,-0.175125 -0.25831,-0.17512501 -0.4203,-0.49472814 -0.245175,0.35462813 -0.547266,0.51224064 Q 36.062021,0 35.711771,0 35.208286,0 34.932464,-0.17074688 34.661021,-0.34587188 34.49903,-0.66985314 34.293258,-0.34587188 33.973655,-0.17074688 33.654052,0 33.063005,0 h -0.402788 v -0.79681876 h 0.411544 q 0.5604,0 0.818709,-0.20577184 0.25831,-0.21015 0.25831,-0.7617938 0,-0.1138313 -0.01314,-0.2670656 -0.0088,-0.1576125 -0.03065,-0.4378125 l 0.731147,-0.091941 0.07005,0.9150282 q 0.02627,0.3677625 0.223284,0.6085594 0.201394,0.24079684 0.591047,0.24079684 0.464081,0 0.63045,-0.24955314 0.166369,-0.2495531 0.166369,-0.7180125 0,-0.1138313 -0.01314,-0.2714438 -0.0088,-0.1576125 -0.03065,-0.4334343 l 0.731147,-0.091941 0.07005,0.9150282 q 0.02189,0.3546281 0.18826,0.6041812 0.166368,0.24517504 0.538509,0.24517504 0.647962,0 0.647962,-0.96756564 0,-0.1576125 -0.01313,-0.3283594 -0.0088,-0.1707469 -0.03065,-0.4509469 l 0.731147,-0.087563 0.07005,0.9850782 q 0.05254,0.84935624 0.866869,0.84935624 h 0.131344 V 0 H 40.282533 Q 39.82283,0 39.516361,-0.16636875 39.209892,-0.33711563 39.096061,-0.67423126 38.91218,-0.35025001 38.671383,-0.175125 38.434964,0 38.005908,0 Z M 30.43613,0 q -0.4203,0 -0.67861,-0.175125 -0.258309,-0.17512501 -0.4203,-0.49472814 -0.245175,0.35462813 -0.547265,0.51224064 Q 28.492242,0 28.141992,0 27.638508,0 27.362686,-0.17074688 27.091242,-0.34587188 26.929251,-0.66985314 26.72348,-0.34587188 26.403876,-0.17074688 26.084273,0 25.493226,0 h -0.402787 v -0.79681876 h 0.411544 q 0.5604,0 0.818709,-0.20577184 0.258309,-0.21015 0.258309,-0.7617938 0,-0.1138313 -0.01313,-0.2670656 -0.0088,-0.1576125 -0.03065,-0.4378125 l 0.731147,-0.091941 0.07005,0.9150282 q 0.02627,0.3677625 0.223284,0.6085594 0.201394,0.24079684 0.591047,0.24079684 0.464082,0 0.63045,-0.24955314 0.166369,-0.2495531 0.166369,-0.7180125 0,-0.1138313 -0.01313,-0.2714438 -0.0088,-0.1576125 -0.03065,-0.4334343 l 0.731147,-0.091941 0.07005,0.9150282 q 0.02189,0.3546281 0.188259,0.6041812 0.166369,0.24517504 0.538509,0.24517504 0.647963,0 0.647963,-0.96756564 0,-0.1576125 -0.01313,-0.3283594 -0.0088,-0.1707469 -0.03065,-0.4509469 l 0.731147,-0.087563 0.07005,0.9850782 q 0.05254,0.84935624 0.866868,0.84935624 h 0.131344 V 0 H 32.712755 Q 32.253052,0 31.946583,-0.16636875 31.640114,-0.33711563 31.526283,-0.67423126 31.342402,-0.35025001 31.101605,-0.175125 30.865186,0 30.43613,0 Z m -8.878838,-5.3019095 v -0.4815937 l 3.327375,-1.3484625 v 0.4815937 z m 0.604182,1.0551282 q 0.380896,0.2670656 0.79244,0.5647781 0.411544,0.2933344 0.766172,0.63045 0.359006,0.3327375 0.577913,0.7136344 0.223284,0.3765188 0.223284,0.805575 -0.0044,0.81433129 -0.564778,1.17333754 Q 23.400483,0 22.178986,0 h -1.068262 v -0.79681876 h 1.063884 q 0.849356,0 1.217119,-0.14885626 0.367762,-0.15323438 0.367762,-0.60418128 0,-0.2889562 -0.205772,-0.5647781 -0.201393,-0.2758219 -0.525375,-0.5428875 -0.319603,-0.2714438 -0.687365,-0.5297532 -0.367763,-0.2626875 -0.691744,-0.5166187 -0.1401,-0.1138313 -0.214528,-0.2670656 -0.07443,-0.1532344 -0.07443,-0.3064688 0,-0.1795031 0.09632,-0.3371156 0.100697,-0.1619907 0.310847,-0.245175 l 3.147872,-1.2784126 v 0.7749282 z m -1.362193,6.5015157 q -0.945675,0 -1.514831,-0.3458719 -0.564778,-0.3458718 -0.818709,-0.92378436 -0.249554,-0.57353438 -0.249554,-1.26090002 0,-0.2977125 0.04378,-0.68736564 0.04816,-0.38965308 0.214528,-0.88875938 l 0.696122,0.2583094 q -0.126966,0.4378125 -0.166369,0.77492811 -0.03502,0.33711563 -0.03502,0.56915626 0,0.47283751 0.166369,0.86249064 0.166368,0.38965309 0.564778,0.62169379 0.402787,0.2320406 1.098909,0.2320406 0.656719,0 1.125178,-0.1619906 0.472838,-0.1619907 0.722391,-0.38527503 0.253931,-0.22328438 0.253931,-0.40716564 0,-0.21015 -0.183881,-0.35900625 -0.179503,-0.14885625 -0.586669,-0.14885625 h -0.647962 q -0.08756,0 -0.126966,-0.07442813 -0.0394,-0.07880625 -0.07443,-0.20139375 l -0.118209,-0.42030001 q -0.0044,-0.035025 0.01751,-0.0656719 0.02189,-0.035025 0.07881,-0.035025 h 2.42986 v 0.79681877 h -0.179503 q 0.06567,0.13134375 0.08318,0.24955312 0.02189,0.11820938 0.02189,0.24517501 0,0.28895625 -0.170747,0.59542504 Q 23.2773,1.4053781 22.92705,1.6680657 22.581178,1.9307532 22.051425,2.0927438 21.521672,2.2547344 20.799281,2.2547344 Z m -4.69335,-4.1723532 v -4.1110594 h 0.739903 v 4.1241938 q 0,0.4815938 0.188259,0.7968188 0.192638,0.31084684 0.696122,0.31084684 h 0.1401 V 0 h -0.131343 q -0.49035,0 -0.779307,-0.17074688 -0.288956,-0.17074688 -0.459703,-0.49472813 -0.144478,0.21452813 -0.293334,0.36338438 -0.144478,0.14885625 -0.372141,0.2276625 Q 15.611203,0 15.22155,0 h -0.376519 v -0.79681876 h 0.367762 q 0.367763,0 0.556022,-0.14447813 0.192638,-0.14885621 0.262688,-0.40278751 0.07443,-0.2539313 0.07443,-0.5735344 z M 12.620943,0 q -0.4203,0 -0.678609,-0.175125 -0.25831,-0.17512501 -0.4203,-0.49472814 -0.245175,0.35462813 -0.547266,0.51224064 Q 10.677056,0 10.326806,0 9.8233212,0 9.5474993,-0.17074688 9.2760556,-0.34587188 9.1140649,-0.66985314 8.9082931,-0.34587188 8.5886899,-0.17074688 8.2690868,0 7.6780399,0 H 7.2752524 v -0.79681876 h 0.4115438 q 0.5604,0 0.8187093,-0.20577184 0.2583094,-0.21015 0.2583094,-0.7617938 0,-0.1138313 -0.013134,-0.2670656 -0.00876,-0.1576125 -0.030647,-0.4378125 l 0.7311469,-0.091941 0.07005,0.9150282 q 0.026269,0.3677625 0.2232843,0.6085594 0.2013938,0.24079684 0.5910471,0.24079684 0.464081,0 0.63045,-0.24955314 0.166369,-0.2495531 0.166369,-0.7180125 0,-0.1138313 -0.01314,-0.2714438 -0.0088,-0.1576125 -0.03065,-0.4334343 l 0.731147,-0.091941 0.07005,0.9150282 q 0.02189,0.3546281 0.18826,0.6041812 0.166368,0.24517504 0.538509,0.24517504 0.647962,0 0.647962,-0.96756564 0,-0.1576125 -0.01313,-0.3283594 -0.0088,-0.1707469 -0.03065,-0.4509469 l 0.731147,-0.087563 0.07005,0.9850782 q 0.05254,0.84935624 0.866869,0.84935624 h 0.131344 V 0 H 14.897568 Q 14.437865,0 14.131396,-0.16636875 13.824928,-0.33711563 13.711096,-0.67423126 13.527215,-0.35025001 13.286418,-0.175125 13.049999,0 12.620943,0 Z M 5.4320621,0 H 4.7184277 v -0.79681876 h 0.7048782 q 0.4378125,0 0.5910468,-0.25393124 0.1576125,-0.2539313 0.1576125,-0.6435844 0,-0.2845781 -0.052537,-0.6085594 -0.052538,-0.3239812 -0.1138312,-0.6523406 l 0.7617938,-0.1926375 q 0.074428,0.35025 0.1182093,0.6873656 0.043781,0.3371156 0.043781,0.6435844 0,0.525375 -0.1444781,0.93691876 Q 6.6404246,-0.46845938 6.3120652,-0.23204063 5.9837059,0 5.4320621,0 Z m 0.5341313,-5.1661876 0.6348281,0.6348282 -0.6348281,0.6348281 -0.6348282,-0.6348281 z"
       id="text6"
       transform="matrix(1.3333333,0,0,1.3333333,124.328,76.877333)"
       aria-label="ﺖﺴﺴﮔﯽﻠﺴﻧ" />
    <path
       id="path7"
       d="M 161.35635,83.60974 H 63.90952 c -4.40189,0 -7.97022,-3.56833 -7.97022,-7.97021 V 57.56386 c 0,-4.40189 3.56833,-7.97022 7.97022,-7.97022 h 97.44683 c 4.40189,0 7.97022,3.56833 7.97022,7.97022 v 18.07567 c 0,4.40188 -3.56833,7.97021 -7.97022,7.97021 z"
       style="fill:#e6f0fa;fill-opacity:1;fill-rule:nonzero;stroke:#0055a4;stroke-width:0.99628;stroke-linecap:butt;stroke-linejoin:miter;stroke-miterlimit:10;stroke-dasharray:none;stroke-opacity:1"
       transform="matrix(1.3333333,0,0,-1.3333333,306.94133,162.428)" />
    <path
       style="font-size:8.9664px;font-family:Vazirmatn"
       d="m 49.385459,-5.6040001 0.634828,0.6348281 -0.634828,0.6348282 -0.634828,-0.6348282 z m -2.491153,4.80718134 h 0.385275 q 0.0394,0 0.245175,0 0.205771,0 0.459703,-0.004378 0.253931,-0.008756 0.433434,-0.0175125 -0.262687,-0.30646871 -0.411544,-0.60855941 -0.148856,-0.3020906 -0.148856,-0.6435844 0,-0.2714437 0.126966,-0.5472656 0.126965,-0.2758219 0.341493,-0.5122406 0.214529,-0.2364188 0.49035,-0.3765188 0.275822,-0.1444781 0.569157,-0.1444781 0.306468,0 0.586668,0.1444781 0.2802,0.1401 0.494729,0.3765188 0.218906,0.2320406 0.345871,0.5122406 0.126966,0.2802 0.126966,0.5560219 0,0.3458719 -0.153234,0.6435844 -0.153235,0.2933344 -0.4203,0.60418124 0.245175,0.0131344 0.437812,0.0175125 0.192638,0 0.341494,0 h 0.424678 V 0 h -0.415922 q -0.166369,0 -0.455325,-0.02626875 -0.288956,-0.03064688 -0.634828,-0.10069688 -0.345872,-0.07005 -0.682987,-0.18825938 -0.337116,0.12258751 -0.761794,0.19263751 -0.424678,0.06567187 -0.796819,0.09631875 Q 47.450327,0 47.270824,0 h -0.376518 q -1.650554,0 -2.482397,-0.44656876 -0.827466,-0.44656875 -0.827466,-1.54547814 0,-0.3020906 0.06567,-0.5910469 0.07005,-0.2889562 0.179503,-0.5560219 l 0.678609,0.2539313 q -0.07005,0.1926375 -0.118209,0.4115437 -0.04378,0.2189063 -0.04378,0.4159219 0.0044,0.5122406 0.288956,0.7880625 0.284578,0.27144378 0.849356,0.37214066 0.564778,0.10069688 1.409757,0.10069688 z m 2.491153,-2.07960944 q -0.166369,0 -0.35025,0.1269657 -0.179503,0.1225875 -0.306469,0.3108468 -0.122588,0.1882594 -0.122588,0.385275 0,0.2013938 0.11821,0.4115438 0.118209,0.21015 0.297712,0.385275 0.183882,0.175125 0.372141,0.27144376 0.332737,-0.14009996 0.564778,-0.45094686 0.236419,-0.315225 0.236419,-0.6260719 0,-0.1838813 -0.131344,-0.3721406 -0.126966,-0.1882594 -0.315225,-0.315225 -0.188259,-0.1269657 -0.363384,-0.1269657 z m -8.642414,-0.5472656 q 0.337116,0 0.696122,0.056916 0.359007,0.052538 0.665475,0.1532344 0.310847,0.1006969 0.503485,0.245175 0.192637,0.1444781 0.192637,0.3239813 0,0.1269656 -0.135722,0.35025 -0.131343,0.2232843 -0.341493,0.4815937 -0.205772,0.2583094 -0.433435,0.4991063 -0.227662,0.2364187 -0.415922,0.40278749 0.306469,0.0788062 0.582291,0.0963188 0.275822,0.0175125 0.499106,0.0175125 h 0.682988 V 0 h -0.67861 q -0.459703,0 -0.919406,-0.10945313 -0.455325,-0.10945312 -0.897516,-0.36338438 -0.288956,0.16636875 -0.669853,0.27144376 -0.376518,0.105075 -0.761793,0.15323437 Q 38.930502,0 38.624033,0 h -0.691744 v -0.79681876 h 0.696122 q 0.148856,0 0.398409,-0.004378 0.253932,-0.008756 0.520997,-0.0306469 0.271444,-0.0262687 0.472838,-0.0788062 -0.18826,-0.16636879 -0.415922,-0.40278749 -0.227663,-0.2407969 -0.437813,-0.4991063 -0.205771,-0.2583094 -0.341493,-0.4815937 -0.135722,-0.2232844 -0.135722,-0.35025 0,-0.1795032 0.188259,-0.3239813 0.18826,-0.1444781 0.494728,-0.245175 0.310847,-0.1006969 0.669853,-0.1532344 0.359007,-0.056916 0.7005,-0.056916 z m 0,0.7530375 q -0.197015,0 -0.564778,0.030647 -0.363384,0.030647 -0.687365,0.1401 0.284578,0.3590062 0.573534,0.6435844 0.288956,0.2845781 0.481594,0.455325 0.197015,0.1663687 0.197015,0.1663687 0,0 0.197016,-0.1663687 0.197016,-0.1707469 0.49035,-0.455325 0.293334,-0.2845782 0.573534,-0.6435844 -0.323981,-0.1094531 -0.691743,-0.1401 -0.367763,-0.030647 -0.569157,-0.030647 z m -5.043604,-2.9902594 0.634828,0.6348281 -0.634828,0.6348282 -0.634828,-0.6348282 z m -2.858916,4.72837506 q 0.779306,-1.33095006 1.532344,-1.96140006 0.753037,-0.6348281 1.506075,-0.6348281 0.499106,0 0.884381,0.2189062 0.389653,0.2145282 0.608559,0.5866688 0.218907,0.3721406 0.218907,0.8406 -0.0044,0.95880941 -0.805575,1.42289067 Q 35.984019,0 34.359734,0 h -0.23204 Q 33.199531,0 32.713559,-0.175125 32.227587,-0.35025001 32.026194,-0.66547501 31.772262,-0.31960313 31.452659,-0.1576125 31.137434,0 30.612059,0 h -0.179503 l 0.0044,-0.79681876 h 0.175125 q 0.612938,0 0.823088,-0.25830934 0.214528,-0.2626875 0.214528,-0.7574157 0,-0.21015 -0.01751,-0.3896531 -0.01313,-0.1795031 -0.02189,-0.385275 l 0.731147,-0.087562 0.06567,1.0244812 q 0.02189,0.2933344 0.122587,0.5078626 0.100697,0.21014996 0.310847,0.21014996 z M 35.913969,-2.73195 q -1.055128,0 -2.281003,1.93513124 h 0.709256 q 1.247766,0 1.860703,-0.24955314 0.612938,-0.2495531 0.612938,-0.7924406 0,-0.385275 -0.249554,-0.6392063 Q 36.321134,-2.73195 35.913969,-2.73195 Z m -5.880416,1.93513124 h 0.950053 q 0.437812,0 0.591047,-0.25393124 0.157612,-0.2539313 0.157612,-0.6435844 0,-0.2845781 -0.05254,-0.6085594 -0.05254,-0.3239812 -0.113832,-0.6523406 l 0.761794,-0.1926375 q 0.07443,0.35025 0.11821,0.6873656 0.04378,0.3371156 0.04378,0.6435844 0,0.525375 -0.144478,0.93691876 -0.144478,0.41154376 -0.472838,0.64796251 Q 31.544006,0 30.992362,0 h -0.958809 z m 1.580503,1.49294065 0.612937,0.60855941 -0.612937,0.6173156 -0.60856,-0.6173156 z m -1.453538,0 0.612938,0.60855941 -0.612938,0.6173156 -0.608559,-0.6173156 z M 28.453049,-6.0286782 h 0.739903 v 4.1854875 q 0,0.6173157 0.227662,0.8318438 0.227663,0.21452814 0.687366,0.21452814 h 0.109453 V 0 H 30.10798 Q 29.271758,0 28.860214,-0.44219063 28.453049,-0.88875939 28.453049,-1.8475688 Z M 22.915528,0 q -0.643585,0 -1.002591,-0.30209063 -0.354628,-0.30209063 -0.459703,-0.83184377 -0.253931,0.25393126 -0.551644,0.38965314 -0.293334,0.13572188 -0.661097,0.13572188 -0.626072,0 -1.05075,-0.33711564 -0.424678,-0.33711558 -0.424678,-0.93254068 0,-0.6742312 0.551644,-1.1645812 0.551644,-0.4947282 1.733737,-0.8581125 l -0.03065,-0.21015 0.7005,-0.1401 0.380896,2.6881687 q 0.05254,0.3852751 0.249554,0.57791256 0.201393,0.18825938 0.58229,0.18825938 h 0.135722 V 0 Z m -1.637419,-2.2021969 q 0,-0.1357219 -0.01751,-0.2583094 l -0.109453,-0.7311469 q -0.849356,0.3064688 -1.239009,0.6041813 -0.385275,0.2977125 -0.385275,0.6523406 0,0.2889563 0.197015,0.4378125 0.197016,0.1488563 0.534132,0.1488563 0.258309,0 0.49035,-0.1006969 0.236419,-0.1006969 0.380897,-0.2933344 0.148856,-0.1926375 0.148856,-0.4597031 z m -4.334344,-3.3405094 0.612938,0.6085593 -0.612938,0.6173157 -0.608559,-0.6173157 z m -1.453537,0 0.612937,0.6085593 -0.612937,0.6173157 -0.60856,-0.6173157 z m 2.294137,3.4806094 q 0,0.3458719 -0.153234,0.6435844 -0.153235,0.2933344 -0.4203,0.60418124 0.249553,0.0131344 0.44219,0.0175125 0.192638,0 0.341494,0 h 0.424678 V 0 H 18.007649 Q 17.841281,0 17.547946,-0.02626875 17.25899,-0.05691563 16.90874,-0.12696563 16.562868,-0.19701563 16.225753,-0.31522501 15.888637,-0.1926375 15.534009,-0.1225875 15.179381,-0.05691563 14.87729,-0.02626875 14.575199,0 14.395696,0 h -0.612937 v -0.79681876 h 0.612937 q 0.183882,0 0.380897,0 0.201394,-0.004378 0.485972,-0.0218906 -0.262687,-0.30646871 -0.411544,-0.60855941 -0.148856,-0.3020906 -0.148856,-0.6435844 0,-0.2714437 0.126966,-0.5472656 0.126965,-0.2758219 0.341493,-0.5122406 0.214529,-0.2364188 0.49035,-0.3765188 0.275822,-0.1444781 0.569157,-0.1444781 0.306468,0 0.586668,0.1444781 0.2802,0.1401 0.494729,0.3765188 0.218906,0.2320406 0.345871,0.5122406 0.126966,0.2802 0.126966,0.5560219 z m -1.554234,-0.8143313 q -0.166369,0 -0.35025,0.1269657 -0.179503,0.1225875 -0.306469,0.3108468 -0.122588,0.1882594 -0.122588,0.385275 0,0.2013938 0.11821,0.4115438 0.118209,0.21015 0.297712,0.385275 0.183882,0.175125 0.372141,0.27144376 0.332737,-0.14009996 0.564778,-0.45094686 0.236419,-0.315225 0.236419,-0.6260719 0,-0.1838813 -0.131344,-0.3721406 -0.126966,-0.1882594 -0.315225,-0.315225 -0.188259,-0.1269657 -0.363384,-0.1269657 z m -4.69773,-0.6523406 q 0.494728,0 0.875625,0.2189062 0.385275,0.2145282 0.604182,0.5866688 0.218906,0.3721406 0.218906,0.8406 -0.0044,0.5604 -0.341494,1.00259066 0.122588,0.0306469 0.328359,0.0569156 0.21015,0.0262688 0.60856,0.0262688 h 0.131344 V 0 H 13.830917 Q 13.274895,0 12.911511,-0.11383125 12.552504,-0.2276625 12.307329,-0.42905626 11.948323,-0.2276625 11.361654,-0.11383125 10.774986,0 10.000058,0 H 7.7321888 V -0.79681876 H 8.47647 q 0.083184,-0.14010001 0.175125,-0.27582184 0.091941,-0.1401 0.175125,-0.2758219 v -4.6802157 h 0.7399032 v 3.6382219 q 0.4728378,-0.5691562 0.9500528,-0.8537344 0.481594,-0.2845781 1.015725,-0.2845781 z m 0.01751,0.7968188 q -1.05075,0 -2.2766252,1.93513124 H 9.982545 q 1.247766,0 1.860703,-0.24955314 0.612938,-0.2495531 0.612938,-0.7924406 0,-0.385275 -0.249553,-0.6392063 Q 11.957079,-2.73195 11.549914,-2.73195 Z m -5.4244973,0.1444781 0.7311469,-0.087562 0.07005,1.0244812 q 0.052538,0.85373444 0.8887594,0.85373444 h 0.091941 V 0 H 7.8066167 Q 7.3206449,0 7.0273105,-0.175125 6.7383542,-0.35025001 6.5588511,-0.66985314 6.3224323,-0.32398126 5.9371573,-0.16199063 5.5518823,0 5.1315823,0 h -0.4203 v -0.79681876 h 0.4203 q 0.5560219,0 0.7924407,-0.24955314 0.2407968,-0.2495531 0.2407968,-0.7661719 0,-0.21015 -0.013134,-0.3984094 -0.00876,-0.1882593 -0.026269,-0.3765187 z M 6.2086011,-4.7677782 6.8434292,-4.1329501 6.2086011,-3.4981219 5.573773,-4.1329501 Z M 2.9863015,0.10069688 q -0.4378125,0 -0.8099531,-0.18825938 Q 1.8085859,-0.2802 1.4101765,-0.66547501 1.1255984,-0.34587188 0.86291085,-0.17074688 0.60022335,0 0.12300771,0 h -0.1926375 v -0.79681876 h 0.17074688 q 0.29333438,0 0.49472813,-0.16636876 Q 0.79723898,-1.1339344 0.95485148,-1.401 1.112464,-1.6680657 1.2656984,-1.9657782 1.4233109,-2.2678688 1.6159484,-2.5349344 1.8085859,-2.802 2.0800296,-2.9683688 2.3558515,-3.1391157 2.758639,-3.1391157 q 0.4859719,0 0.8449781,0.2364188 0.3633844,0.2320406 0.5604001,0.6260719 0.2013937,0.3940312 0.2013937,0.8800031 0,0.71363439 -0.3633844,1.10766565 -0.3590062,0.38965313 -1.015725,0.38965313 z m -0.21015,-2.46488438 q -0.2189062,0 -0.3984094,0.1488562 -0.1795031,0.1444781 -0.3239812,0.3765188 -0.1444782,0.2320406 -0.2583094,0.4815937 0.2626875,0.2758219 0.5428875,0.45094691 0.3590063,0.23204063 0.6392063,0.23204063 0.6479625,0 0.6479625,-0.65234064 0,-0.455325 -0.2276625,-0.7442813 -0.2232844,-0.2933343 -0.6216938,-0.2933343 z"
       id="text7"
       transform="matrix(1.3333333,0,0,1.3333333,420.62533,76.170667)"
       aria-label="ﻒﻌﺿیا ﻪﻘﻄﻨﻣ" />
    <path
       id="path8"
       d="M 0,71.8633 V 33.97667"
       style="fill:none;stroke:#808080;stroke-width:0.99628;stroke-linecap:butt;stroke-linejoin:miter;stroke-miterlimit:10;stroke-dasharray:none;stroke-opacity:1"
       transform="matrix(1.3333333,0,0,-1.3333333,306.94133,162.428)" />
    <path
       id="path9"
       d="M 6.05339,0 1.60873,1.68304 3.08754,0 1.60873,-1.68304 Z"
       style="fill:#808080;fill-opacity:1;fill-rule:nonzero;stroke:#808080;stroke-width:0.99628;stroke-linecap:butt;stroke-linejoin:miter;stroke-miterlimit:10;stroke-dasharray:none;stroke-opacity:1"
       transform="matrix(0,1.3333333,1.3333333,0,306.94133,113.34112)" />
    <path
       id="path10"
       d="m 0,-71.8633 v 37.88663"
       style="fill:none;stroke:#808080;stroke-width:0.99628;stroke-linecap:butt;stroke-linejoin:miter;stroke-miterlimit:10;stroke-dasharray:none;stroke-opacity:1"
       transform="matrix(1.3333333,0,0,-1.3333333,306.94133,162.428)" />
    <path
       id="path11"
       d="M 6.05339,0 1.60873,1.68304 3.08754,0 1.60873,-1.68304 Z"
       style="fill:#808080;fill-opacity:1;fill-rule:nonzero;stroke:#808080;stroke-width:0.99628;stroke-linecap:butt;stroke-linejoin:miter;stroke-miterlimit:10;stroke-dasharray:none;stroke-opacity:1"
       transform="matrix(0,-1.3333333,-1.3333333,0,306.94133,211.51488)" />
    <path
       id="path12"
       d="m -100.8816,0 h 37.88662"
       style="fill:none;stroke:#808080;stroke-width:0.99628;stroke-linecap:butt;stroke-linejoin:miter;stroke-miterlimit:10;stroke-dasharray:none;stroke-opacity:1"
       transform="matrix(1.3333333,0,0,-1.3333333,306.94133,162.428)" />
    <path
       id="path13"
       d="M 6.05339,0 1.60873,1.68304 3.08754,0 1.60873,-1.68304 Z"
       style="fill:#808080;fill-opacity:1;fill-rule:nonzero;stroke:#808080;stroke-width:0.99628;stroke-linecap:butt;stroke-linejoin:miter;stroke-miterlimit:10;stroke-dasharray:none;stroke-opacity:1"
       transform="matrix(1.3333333,0,0,-1.3333333,219.16337,162.428)" />
    <path
       id="path14"
       d="M 100.8816,0 H 62.99498"
       style="fill:none;stroke:#808080;stroke-width:0.99628;stroke-linecap:butt;stroke-linejoin:miter;stroke-miterlimit:10;stroke-dasharray:none;stroke-opacity:1"
       transform="matrix(1.3333333,0,0,-1.3333333,306.94133,162.428)" />
    <path
       id="path15"
       d="M 6.05339,0 1.60873,1.68304 3.08754,0 1.60873,-1.68304 Z"
       style="fill:#808080;fill-opacity:1;fill-rule:nonzero;stroke:#808080;stroke-width:0.99628;stroke-linecap:butt;stroke-linejoin:miter;stroke-miterlimit:10;stroke-dasharray:none;stroke-opacity:1"
       transform="matrix(-1.3333333,0,0,1.3333333,394.71929,162.428)" />
    <path
       id="path16"
       d="M -83.03996,49.0955 -41.79294,24.71045"
       style="fill:none;stroke:#808080;stroke-width:0.99628;stroke-linecap:butt;stroke-linejoin:miter;stroke-miterlimit:10;stroke-dasharray:none;stroke-opacity:1"
       transform="matrix(1.3333333,0,0,-1.3333333,306.94133,162.428)" />
    <path
       id="path17"
       d="M 6.05339,0 1.60873,1.68304 3.08754,0 1.60873,-1.68304 Z"
       style="fill:#808080;fill-opacity:1;fill-rule:nonzero;stroke:#808080;stroke-width:0.99628;stroke-linecap:butt;stroke-linejoin:miter;stroke-miterlimit:10;stroke-dasharray:none;stroke-opacity:1"
       transform="matrix(1.14768,0.67850667,0.67850667,-1.14768,247.95973,127.5548)" />
    <path
       id="path18"
       d="M 83.03996,49.0955 41.79294,24.71045"
       style="fill:none;stroke:#808080;stroke-width:0.99628;stroke-linecap:butt;stroke-linejoin:miter;stroke-miterlimit:10;stroke-dasharray:none;stroke-opacity:1"
       transform="matrix(1.3333333,0,0,-1.3333333,306.94133,162.428)" />
    <path
       id="path19"
       d="M 6.05339,0 1.60873,1.68304 3.08754,0 1.60873,-1.68304 Z"
       style="fill:#808080;fill-opacity:1;fill-rule:nonzero;stroke:#808080;stroke-width:0.99628;stroke-linecap:butt;stroke-linejoin:miter;stroke-miterlimit:10;stroke-dasharray:none;stroke-opacity:1"
       transform="matrix(-1.14768,0.67850667,0.67850667,1.14768,365.92293,127.5548)" />
  </g>
</svg>
