<?xml version="1.0" encoding="UTF-8" standalone="no"?>


<svg class="tikz-diagram" id="iran-action-ch6-tikz-6-42863bedfee1"
   version="1.1"
   id="svg1"
   width="541.40002"
   height="281.17334"
   viewBox="0 0 541.40002 281.17334"
   sodipodi:docname="iran-action-ch6-tikz-6-42863bedfee1.pdf"
   xmlns:inkscape="http://www.inkscape.org/namespaces/inkscape"
   xmlns:sodipodi="http://sodipodi.sourceforge.net/DTD/sodipodi-0.dtd"
   xmlns="http://www.w3.org/2000/svg"
   xmlns:svg="http://www.w3.org/2000/svg">
  <defs
     id="defs1" />
  <sodipodi:namedview
     id="namedview1"
     pagecolor="#ffffff"
     bordercolor="#000000"
     borderopacity="0.25"
     inkscape:showpageshadow="2"
     inkscape:pageopacity="0.0"
     inkscape:pagecheckerboard="0"
     inkscape:deskcolor="#d1d1d1">
    <inkscape:page
       x="0"
       y="0"
       inkscape:label="1"
       id="page1"
       width="541.40002"
       height="281.17334"
       margin="0"
       bleed="0" />
  </sodipodi:namedview>
  <g
     id="g1"
     inkscape:groupmode="layer"
     inkscape:label="1">
    <path
       id="path1"
       d="M 75.07768,70.86703 H -75.07768 c -5.50235,0 -9.96277,-4.4604 -9.96277,-9.96276 V -60.90427 c 0,-5.50236 4.46042,-9.96276 9.96277,-9.96276 H 75.07768 c 5.50235,0 9.96277,4.4604 9.96277,9.96276 V 60.90427 c 0,5.50236 -4.46042,9.96276 -9.96277,9.96276 z"
       style="fill:#ffe6e6;fill-opacity:1;fill-rule:nonzero;stroke:#be1e2d;stroke-width:1.99255;stroke-linecap:butt;stroke-linejoin:miter;stroke-miterlimit:10;stroke-dasharray:none;stroke-opacity:1"
       transform="matrix(1.3333333,0,0,-1.3333333,134.64,115.74533)" />
    <path
       style="font-weight:800;font-size:9.9626px;font-family:Vazirmatn;fill:#be1e2d"
       d="M 53.306214,2.6560447 52.81003,1.3523451 Q 53.51539,1.201544 54.021303,0.94858738 54.532081,0.7004953 54.80936,0.28214394 q 0.27728,-0.41835136 0.27728,-1.07993025 0,-0.44267409 -0.141072,-0.99236829 -0.141072,-0.5545588 -0.301602,-1.0312848 l 1.313428,-0.4232159 q 0.189718,0.530236 0.287009,1.1431694 0.102155,0.6129334 0.102155,1.17722127 0,1.02155564 -0.379435,1.75123824 -0.37457,0.73454719 -1.060472,1.18695039 -0.681037,0.4572677 -1.600437,0.6421207 z m -2.505245,-6.6790281 q 0.612934,0 1.041014,0.3648413 0.428081,0.3648413 0.671308,0.963181 0.243228,0.5934752 0.291873,1.289106 h 0.364841 V 0 h -0.462132 q -0.277279,1.1091176 -1.089659,1.7415091 -0.81238,0.6372562 -2.218235,0.909671 L 48.918388,1.3523451 Q 49.531322,1.2355959 50.051829,1.0410138 50.5772,0.84643182 50.937177,0.58374608 51.302018,0.32106034 51.423632,0 h -0.457268 q -0.982639,0 -1.498282,-0.40862226 -0.515642,-0.4134868 -0.515642,-1.33288684 0,-0.3599768 0.111885,-0.7540054 0.111884,-0.3988931 0.340518,-0.7442762 0.228634,-0.3502477 0.574017,-0.5642879 0.350248,-0.2189048 0.822109,-0.2189048 z m 0.16053,2.6171283 h 0.622663 Q 51.554975,-1.67827 51.467413,-1.9652785 51.384715,-2.252287 51.219321,-2.446869 51.05879,-2.641451 50.79124,-2.641451 q -0.228634,0 -0.364841,0.1459365 -0.131343,0.141072 -0.189718,0.3405186 -0.05351,0.194582 -0.05351,0.3599767 0,0.2578212 0.214041,0.3259249 0.218904,0.063239 0.564287,0.063239 z M 48.222758,-3.215468 v 1.2696477 q -0.282144,0.029187 -0.574017,0.1313429 -0.287009,0.097291 -0.501049,0.194582 0.09243,0.1362074 0.447539,0.1751239 0.359976,0.038916 0.788057,0.038916 h 0.26755 V 0 H 48.36383 Q 47.473617,0 46.928787,-0.23349843 46.388822,-0.47186141 46.189375,-1.1188467 45.289434,-0.63725614 44.389492,-0.31619579 43.494414,0 42.477723,0 h -0.81238 v -1.4058551 h 0.826974 q 0.627527,0 1.162627,-0.1167493 0.539966,-0.1216137 1.113983,-0.3599767 0.574017,-0.238363 1.303699,-0.5934752 -0.749141,-0.2772794 -1.211273,-0.4621323 -0.462132,-0.1848529 -0.632392,-0.1848529 -0.262685,0 -0.476726,0.1653947 -0.209175,0.1605302 -0.345383,0.3405185 l -0.257821,0.3259249 -1.089659,-0.5351005 0.218905,-0.3502477 q 0.345383,-0.5642879 0.826973,-0.9339937 0.481591,-0.3745704 1.128576,-0.3745704 0.272415,0 0.632392,0.1264783 0.364841,0.1264783 0.778328,0.3161958 0.418351,0.1848529 0.861025,0.3745704 0.447539,0.1848529 0.880484,0.3161958 0.437809,0.1313429 0.836703,0.1362074 z m -8.57134,3.32735267 q -0.505913,0 -0.948587,-0.21404023 -0.43781,-0.21890478 -0.856161,-0.53996513 -0.267551,0.26755029 -0.559424,0.45726776 Q 37.000238,0 36.445679,0 h -0.21404 v -1.4058551 h 0.189717 q 0.238363,0 0.428081,-0.184853 0.194582,-0.1848529 0.369706,-0.4767259 0.179988,-0.2967376 0.37457,-0.6226625 0.199447,-0.3307895 0.442674,-0.6226625 0.248092,-0.2967376 0.574017,-0.4815905 0.325925,-0.1848529 0.763735,-0.1848529 0.612933,0 1.060472,0.291873 0.447538,0.2870085 0.690766,0.7637345 0.243227,0.4718614 0.243227,1.0312847 0,0.574017 -0.189717,1.02642018 -0.189718,0.45240321 -0.574017,0.71508895 -0.379435,0.26268574 -0.953452,0.26268574 z M 39.41792,-2.641451 q -0.199447,0 -0.359977,0.1362074 -0.16053,0.1313429 -0.282144,0.3210604 -0.121614,0.1897174 -0.204311,0.3599767 0.141072,0.1264783 0.26755,0.2189048 0.126478,0.092426 0.243228,0.1605302 0.175123,0.097291 0.32106,0.1362074 0.145936,0.038916 0.252957,0.038916 0.257821,0 0.369705,-0.1848529 0.111885,-0.1897175 0.111885,-0.4280805 0,-0.3064667 -0.189717,-0.530236 Q 39.758438,-2.641451 39.41792,-2.641451 Z m -13.639732,-2.6900965 0.826974,0.8172445 0.817244,-0.8172445 0.831839,0.8269736 -0.831839,0.8367027 -0.817244,-0.8269736 -0.826974,0.8269736 -0.826973,-0.8367027 z m 3.512206,1.9896012 1.216138,-0.1508011 0.09729,1.3912615 q 0.02432,0.3697059 0.194582,0.5351006 0.175123,0.1605302 0.574017,0.1605302 h 0.111884 V 0 H 31.372422 Q 30.812998,0 30.443292,-0.20431113 30.073587,-0.41348681 29.830359,-0.768599 29.387685,-0.35997675 28.750429,-0.17998837 28.118037,0 27.101346,0 h -0.81238 q -0.841567,0 -1.551792,-0.10215556 -0.705359,-0.10702012 -1.230731,-0.36970585 -0.520507,-0.26268574 -0.81238,-0.73454719 -0.287008,-0.4767259 -0.287008,-1.2161376 0,-0.4378096 0.09729,-0.8512964 0.09729,-0.4183514 0.243227,-0.7734636 l 1.172357,0.4426742 q -0.0827,0.2286338 -0.170259,0.530236 -0.0827,0.3016021 -0.0827,0.574017 0,0.486455 0.359977,0.7199535 0.359977,0.2334984 0.953452,0.3064666 0.59834,0.068104 1.308564,0.068104 h 0.81238 q 0.70536,0 1.206409,-0.05351 0.501048,-0.058375 0.763734,-0.238363 0.26755,-0.1848529 0.26755,-0.5691524 0,-0.2480921 -0.01459,-0.5448297 -0.01459,-0.2967376 -0.03405,-0.530236 z m -11.003613,1.9360912 h 0.734547 q 0.5351,0 0.734547,-0.1799884 0.204311,-0.1848529 0.204311,-0.671308 0,-0.2870085 -0.01459,-0.5545588 -0.01459,-0.2724148 -0.03405,-0.530236 l 1.216137,-0.1508011 0.09729,1.3912615 q 0.02432,0.3697059 0.204311,0.5351006 0.179989,0.1605302 0.574017,0.1605302 h 0.102156 V 0 H 21.993568 Q 21.507113,0 21.156866,-0.17512382 20.811482,-0.35024765 20.587713,-0.63239159 20.290975,-0.335654 19.882353,-0.16539472 19.478596,0 19.021328,0 H 18.286781 Z M 18.413259,0.62266248 19.240233,1.439907 20.057477,0.62266248 20.889315,1.4496361 20.057477,2.2863388 19.240233,1.4593652 18.413259,2.2863388 17.586285,1.4496361 Z M 14.093538,0 H 13.835717 Q 13.028201,0 12.444455,-0.14107197 11.860709,-0.28700849 11.500732,-0.63239159 11.228317,-0.335654 10.853747,-0.16539472 10.479177,0 9.9294823,0 H 9.7300358 l 0.00486,-1.4058551 h 0.194582 q 0.5788817,0 0.7685987,-0.1799884 0.194582,-0.1848529 0.194582,-0.6761726 0,-0.2772793 -0.01946,-0.5448296 -0.01459,-0.2724149 -0.03405,-0.5302361 l 1.216138,-0.150801 0.09243,1.3863969 q 0.01946,0.194582 0.07783,0.3405186 0.06324,0.1410719 0.17026,0.1653947 0.330789,-0.5448297 0.700495,-1.050743 0.369706,-0.5059132 0.783192,-0.9048064 0.418352,-0.3988931 0.890213,-0.627527 0.476726,-0.2334984 1.011827,-0.2334984 0.617798,0 1.089659,0.2626857 0.476726,0.2626857 0.744276,0.7199535 0.272415,0.4572677 0.272415,1.0458784 0,0.2140402 -0.04865,0.4913196 -0.04378,0.2772794 -0.150801,0.4524032 0.111884,0.014594 0.272414,0.024323 0.160531,0.00973 0.3843,0.00973 h 0.145937 V 0 H 18.35002 Q 17.771138,0 17.377109,-0.15080107 16.983081,-0.30646669 16.67175,-0.51564237 16.165836,-0.29187304 15.494528,-0.14593652 14.828085,0 14.093538,0 Z m 1.722051,-3.0306151 q -0.374571,0 -0.754006,0.238363 -0.379435,0.2334985 -0.724818,0.6080689 -0.345383,0.3697058 -0.627527,0.7783281 h 0.442674 q 0.656715,0 1.216138,-0.063239 0.564288,-0.068104 0.904806,-0.2578212 0.340519,-0.1897175 0.340519,-0.5642879 0,-0.335654 -0.228634,-0.5351005 -0.223769,-0.2043112 -0.569152,-0.2043112 z M 5.9697382,-6.8006418 6.8453573,-5.9250227 5.9697382,-5.0542681 5.0989836,-5.9250227 Z m 3.5267992,3.5851738 v 1.2696477 q -0.2821439,0.029187 -0.574017,0.1313429 -0.2870084,0.097291 -0.5010487,0.194582 0.092427,0.1362074 0.4475387,0.1751239 0.3599767,0.038916 0.7880572,0.038916 H 9.9246179 V 0 H 9.6376094 Q 8.7473966,0 8.2025669,-0.23349843 7.6626018,-0.47186141 7.4631552,-1.1188467 6.5632134,-0.63725614 5.6632715,-0.31619579 4.7681942,0 3.7515031,0 h -0.81238 v -1.4058551 h 0.8269736 q 0.6275271,0 1.1626277,-0.1167493 0.5399651,-0.1216137 1.1139821,-0.3599767 0.5740169,-0.238363 1.3036995,-0.5934752 -0.7491408,-0.2772794 -1.2112731,-0.4621323 -0.4621323,-0.1848529 -0.6323916,-0.1848529 -0.2626857,0 -0.4767259,0.1653947 -0.2091757,0.1605302 -0.3453831,0.3405185 L 4.4228111,-2.2912034 3.3331517,-2.8263039 3.5520565,-3.1765516 q 0.3453831,-0.5642879 0.8269736,-0.9339937 0.4815905,-0.3745704 1.1285758,-0.3745704 0.2724148,0 0.6323916,0.1264783 0.3648413,0.1264783 0.7783281,0.3161958 0.4183513,0.1848529 0.8610254,0.3745704 0.4475387,0.1848529 0.8804837,0.3161958 0.4378096,0.1313429 0.8367027,0.1362074 z M -0.607135,-6.9465783 0.17605765,-6.1682502 -0.607135,-5.3850576 -1.3903277,-6.1682502 Z m 0.85129636,1.2404604 0.78319264,0.7831926 -0.78319264,0.7831927 -0.78319265,-0.7831927 z m -1.69772816,0 0.77832809,0.7831926 -0.77832809,0.7831927 -0.7831927,-0.7831927 z M -1.6481488,0 Q -2.1394685,0 -2.4751225,-0.16539472 -2.8059119,-0.335654 -3.0199521,-0.61293338 -3.2875024,-0.33078944 -3.6572083,-0.16539472 -4.0269141,0 -4.591202,0 h -0.4475387 v -1.4058551 h 0.4572678 q 0.5351006,0 0.7588699,-0.1313429 0.2286339,-0.1313429 0.2286339,-0.6323916 0,-0.077833 -0.00973,-0.2578212 -0.00973,-0.1799884 -0.024323,-0.3940286 -0.014594,-0.2189048 -0.029187,-0.3940286 l 1.2210022,-0.1508011 0.1021556,1.3134287 q 0.043781,0.6469853 0.6956308,0.6469853 0.4037577,0 0.5399651,-0.1653948 0.1362074,-0.1702592 0.1362074,-0.5983397 0,-0.068104 -0.009729,-0.2480921 -0.009729,-0.1848529 -0.0243228,-0.4037577 -0.0145936,-0.2189048 -0.0291873,-0.3940286 l 1.22100226,-0.1508011 0.10215556,1.3134287 q 0.0194582,0.2967376 0.14593652,0.4718614 0.13134287,0.1751239 0.44267411,0.1751239 0.29187305,0 0.39889315,-0.2286339 0.1118847,-0.2334985 0.1118847,-0.5545588 0,-0.2772794 -0.05351,-0.5691524 -0.048645,-0.2967376 -0.1118847,-0.5351006 -0.058375,-0.2432275 -0.087562,-0.3551122 l 1.2599187,-0.3453831 q 0.097291,0.3842995 0.1605301,0.8221091 0.063239,0.432945 0.063239,0.8610254 0,0.6032043 -0.1605302,1.1334403 Q 2.3115954,-0.65184979 1.9321604,-0.32592489 1.5527255,0 0.89601115,0 0.45820159,0 0.15659945,-0.17998837 -0.14013814,-0.35997675 -0.34444927,-0.62266248 -0.59254135,-0.35997675 -0.90873714,-0.17998837 -1.2200684,0 -1.6481488,0 Z"
       id="text1"
       transform="matrix(1.3333333,0,0,1.3333333,96.818667,50.573333)"
       aria-label="رﻮﺤﻣ ﺖﯿﺼﺨﺷ" />
    <path
       id="path2"
       d="m 21.2601,12.75595 c 0,11.74179 -9.51832,21.26012 -21.2601,21.26012 -11.74178,0 -21.2601,-9.51833 -21.2601,-21.26012 0,-11.74177 9.51832,-21.26009 21.2601,-21.26009 11.74178,0 21.2601,9.51832 21.2601,21.26009 z"
       style="fill:#df8e96;fill-opacity:1;fill-rule:nonzero;stroke:#be1e2d;stroke-width:0.3985;stroke-linecap:butt;stroke-linejoin:miter;stroke-miterlimit:10;stroke-dasharray:none;stroke-opacity:1"
       transform="matrix(1.3333333,0,0,-1.3333333,134.64,115.74533)" />
    <path
       style="font-size:9.9626px;font-family:Vazirmatn"
       d="M 16.822861,0 Q 16.487207,0 16.258573,-0.08756191 16.034804,-0.17998837 15.908325,-0.28214394 15.835357,0.3551122 15.553213,0.94858738 15.275934,1.5469271 14.716511,1.9896012 14.157087,2.4322753 13.237687,2.6122637 l -0.287008,-0.768599 q 1.18695,-0.2578212 1.673405,-0.90480642 0.486455,-0.64212069 0.486455,-1.52260436 0,-0.41348681 -0.09243,-0.86589002 -0.08756,-0.4572678 -0.248092,-0.9291292 l 0.807515,-0.2724148 0.262686,1.0166911 q 0.10702,0.4086222 0.340518,0.5788815 0.233499,0.17025928 0.588611,0.17025928 h 0.184853 V 0 Z M 9.4530679,-0.88534822 H 10.02222 q 0.617798,0 0.880484,-0.27727938 0.26755,-0.2772794 0.26755,-0.8512964 0,-0.2334984 -0.01459,-0.4426741 -0.0097,-0.2091757 -0.02919,-0.4183513 l 0.81238,-0.097291 0.07783,1.1383049 q 0.05837,0.94858738 0.987504,0.94858738 h 0.102155 V 0 h -0.111884 q -0.539965,0 -0.86589,-0.19458203 -0.321061,-0.19458202 -0.520507,-0.54969422 -0.262686,0.3842995 -0.690766,0.56428788 Q 10.489217,0 10.02222,0 H 9.4530679 Z M 10.455165,0.74427625 11.160525,1.4496361 10.455165,2.1549959 9.7498055,1.4496361 Z M 5.2355016,-3.9500151 5.6198011,-4.6699686 q 1.7463737,0.8512963 2.6025346,1.5226043 0.8561609,0.6664435 0.8561609,1.3620742 0,0.86102547 -0.5351006,1.29883503 -0.530236,0.43780956 -1.4253133,0.43780956 -0.335654,0 -0.7150889,-0.05351005 Q 6.0235588,-0.15566562 5.6830403,-0.23349843 5.3425217,-0.31619579 5.1090233,-0.3940286 4.6858074,-0.23836298 4.1166549,-0.11674922 3.5475025,0 3.0172665,0 H 2.535676 v -0.88534822 h 0.4183513 q 0.3210604,0 0.5642879,-0.0145937 0.2480921,-0.0145937 0.5399651,-0.0486455 -0.335654,-0.27241482 -0.486455,-0.59347522 -0.1459365,-0.3259249 -0.1459365,-0.671308 0,-0.5059132 0.2383629,-0.8707545 0.238363,-0.3648413 0.6323916,-0.5594233 0.3940286,-0.1994466 0.8610255,-0.1994466 0.2091757,0 0.4183513,0.05351 -0.1653947,-0.077833 -0.3405185,-0.1605301 z m 0.8804837,3.02088592 q 0.2140402,0.0243228 0.4669968,0.0486455 0.2529567,0.0194582 0.4475387,0.0194582 0.5886106,0 0.8950773,-0.21890473 0.3113313,-0.2237694 0.3113313,-0.6907662 0,-0.238363 -0.2724149,-0.5156424 -0.2724148,-0.2821439 -0.7296826,-0.5788815 -0.4524032,-0.3016022 -1.0020974,-0.5934752 0.2675503,0.2140402 0.4280804,0.5156423 0.1653948,0.3016022 0.1653948,0.6372562 0,0.4572677 -0.184853,0.7831926 -0.1799883,0.3210604 -0.5253714,0.59347522 z M 4.2625915,-2.2230997 q 0,0.2870085 0.2383629,0.574017 0.2432276,0.282144 0.7004953,0.4572678 0.8756192,-0.3551122 0.8756192,-1.0215557 0,-0.4232159 -0.2578212,-0.6421206 -0.2529567,-0.2237694 -0.6129334,-0.2237694 -0.4183514,0 -0.6810371,0.2334985 -0.2626857,0.2334984 -0.2626857,0.6226624 z m -5.5881232,4.840228 -0.2870085,-0.7734636 q 1.18695035,-0.2578212 1.67340542,-0.90480642 0.48645506,-0.64212069 0.48645506,-1.52260436 0,-0.41348681 -0.0924265,-0.86589002 -0.0875619,-0.4572678 -0.24809208,-0.9291292 L 1.0143171,-2.6511801 q 0.3502477,0.9972329 0.3502477,1.9214975 0,0.81237996 -0.2870085,1.50314616 Q 0.79541237,1.4690943 0.19707264,1.9506848 -0.39640254,2.4371399 -1.3255317,2.6171283 Z"
       id="text2"
       transform="matrix(1.3333333,0,0,1.3333333,123.40267,100.10667)"
       aria-label="ﺮﺒﻫر" />
    <path
       id="path3"
       d="m -29.7638,-12.75595 c 0,4.69675 -3.80737,8.50412 -8.50411,8.50412 -4.69677,0 -8.50412,-3.80737 -8.50412,-8.50412 0,-4.69676 3.80735,-8.50414 8.50412,-8.50414 4.69674,0 8.50411,3.80738 8.50411,8.50414 z"
       style="fill:#f5f5f5;fill-opacity:1;fill-rule:nonzero;stroke:#808080;stroke-width:0.3985;stroke-linecap:butt;stroke-linejoin:miter;stroke-miterlimit:10;stroke-dasharray:none;stroke-opacity:1"
       transform="matrix(1.3333333,0,0,-1.3333333,134.64,115.74533)" />
    <path
       id="path4"
       d="m -4.25183,-30.61426 c 0,4.69676 -3.80737,8.50414 -8.50412,8.50414 -4.69676,0 -8.50414,-3.80738 -8.50414,-8.50414 0,-4.69674 3.80738,-8.50412 8.50414,-8.50412 4.69675,0 8.50412,3.80738 8.50412,8.50412 z"
       style="fill:#f5f5f5;fill-opacity:1;fill-rule:nonzero;stroke:#808080;stroke-width:0.3985;stroke-linecap:butt;stroke-linejoin:miter;stroke-miterlimit:10;stroke-dasharray:none;stroke-opacity:1"
       transform="matrix(1.3333333,0,0,-1.3333333,134.64,115.74533)" />
    <path
       id="path5"
       d="m 21.26009,-30.61426 c 0,4.69676 -3.80738,8.50414 -8.50414,8.50414 -4.69675,0 -8.50412,-3.80738 -8.50412,-8.50414 0,-4.69674 3.80737,-8.50412 8.50412,-8.50412 4.69676,0 8.50414,3.80738 8.50414,8.50412 z"
       style="fill:#f5f5f5;fill-opacity:1;fill-rule:nonzero;stroke:#808080;stroke-width:0.3985;stroke-linecap:butt;stroke-linejoin:miter;stroke-miterlimit:10;stroke-dasharray:none;stroke-opacity:1"
       transform="matrix(1.3333333,0,0,-1.3333333,134.64,115.74533)" />
    <path
       id="path6"
       d="m 46.77203,-12.75595 c 0,4.69675 -3.80735,8.50412 -8.50412,8.50412 -4.69674,0 -8.50411,-3.80737 -8.50411,-8.50412 0,-4.69676 3.80737,-8.50414 8.50411,-8.50414 4.69677,0 8.50412,3.80738 8.50412,8.50414 z"
       style="fill:#f5f5f5;fill-opacity:1;fill-rule:nonzero;stroke:#808080;stroke-width:0.3985;stroke-linecap:butt;stroke-linejoin:miter;stroke-miterlimit:10;stroke-dasharray:none;stroke-opacity:1"
       transform="matrix(1.3333333,0,0,-1.3333333,134.64,115.74533)" />
    <path
       id="path7"
       d="M -17.85445,0.85304 -37.93636,-12.53493"
       style="fill:none;stroke:#be1e2d;stroke-width:0.3985;stroke-linecap:butt;stroke-linejoin:miter;stroke-miterlimit:10;stroke-dasharray:none;stroke-opacity:1"
       transform="matrix(1.3333333,0,0,-1.3333333,134.64,115.74533)" />
    <path
       id="path8"
       d="M -2.07224,2.39104 C -1.69365,0.95639 -0.84999,0.27895 0,0 -0.84999,-0.27895 -1.69365,-0.95639 -2.07224,-2.39104"
       style="fill:none;stroke:#be1e2d;stroke-width:0.3985;stroke-linecap:round;stroke-linejoin:round;stroke-miterlimit:10;stroke-dasharray:none;stroke-opacity:1"
       transform="matrix(-1.10936,0.73956,0.73956,1.10936,83.837147,132.60591)" />
    <path
       id="path9"
       d="m -6.0544,-7.83037 -6.58912,-22.40159"
       style="fill:none;stroke:#be1e2d;stroke-width:0.3985;stroke-linecap:butt;stroke-linejoin:miter;stroke-miterlimit:10;stroke-dasharray:none;stroke-opacity:1"
       transform="matrix(1.3333333,0,0,-1.3333333,134.64,115.74533)" />
    <path
       id="path10"
       d="M -2.07224,2.39104 C -1.69365,0.95639 -0.84999,0.27895 0,0 -0.84999,-0.27895 -1.69365,-0.95639 -2.07224,-2.39104"
       style="fill:none;stroke:#be1e2d;stroke-width:0.3985;stroke-linecap:round;stroke-linejoin:round;stroke-miterlimit:10;stroke-dasharray:none;stroke-opacity:1"
       transform="matrix(-0.3762,1.2790667,1.2790667,0.3762,117.70701,156.30951)" />
    <path
       id="path11"
       d="m 6.0544,-7.83037 6.58912,-22.40159"
       style="fill:none;stroke:#be1e2d;stroke-width:0.3985;stroke-linecap:butt;stroke-linejoin:miter;stroke-miterlimit:10;stroke-dasharray:none;stroke-opacity:1"
       transform="matrix(1.3333333,0,0,-1.3333333,134.64,115.74533)" />
    <path
       id="path12"
       d="M -2.07224,2.39104 C -1.69365,0.95639 -0.84999,0.27895 0,0 -0.84999,-0.27895 -1.69365,-0.95639 -2.07224,-2.39104"
       style="fill:none;stroke:#be1e2d;stroke-width:0.3985;stroke-linecap:round;stroke-linejoin:round;stroke-miterlimit:10;stroke-dasharray:none;stroke-opacity:1"
       transform="matrix(0.3762,1.2790667,1.2790667,-0.3762,151.57299,156.30951)" />
    <path
       id="path13"
       d="M 17.85445,0.85304 37.93636,-12.53493"
       style="fill:none;stroke:#be1e2d;stroke-width:0.3985;stroke-linecap:butt;stroke-linejoin:miter;stroke-miterlimit:10;stroke-dasharray:none;stroke-opacity:1"
       transform="matrix(1.3333333,0,0,-1.3333333,134.64,115.74533)" />
    <path
       id="path14"
       d="M -2.07224,2.39104 C -1.69365,0.95639 -0.84999,0.27895 0,0 -0.84999,-0.27895 -1.69365,-0.95639 -2.07224,-2.39104"
       style="fill:none;stroke:#be1e2d;stroke-width:0.3985;stroke-linecap:round;stroke-linejoin:round;stroke-miterlimit:10;stroke-dasharray:none;stroke-opacity:1"
       transform="matrix(1.10936,0.73956,0.73956,-1.10936,185.44285,132.60591)" />
    <path
       id="path15"
       d="M 279.17332,70.86703 H 129.01793 c -5.50235,0 -9.96277,-4.4604 -9.96277,-9.96276 V -60.90427 c 0,-5.50236 4.46042,-9.96276 9.96277,-9.96276 h 150.15539 c 5.50235,0 9.96278,4.4604 9.96278,9.96276 V 60.90427 c 0,5.50236 -4.46043,9.96276 -9.96278,9.96276 z"
       style="fill:#e6fae6;fill-opacity:1;fill-rule:nonzero;stroke:#006633;stroke-width:1.99255;stroke-linecap:butt;stroke-linejoin:miter;stroke-miterlimit:10;stroke-dasharray:none;stroke-opacity:1"
       transform="matrix(1.3333333,0,0,-1.3333333,134.64,115.74533)" />
    <path
       style="font-weight:800;font-size:9.9626px;font-family:Vazirmatn;fill:#006633"
       d="M 43.748151,2.6560447 43.251967,1.3523451 Q 43.957326,1.201544 44.46324,0.94858738 44.974017,0.7004953 45.251297,0.28214394 q 0.277279,-0.41835136 0.277279,-1.07993025 0,-0.44267409 -0.141072,-0.99236829 -0.141072,-0.5545588 -0.301602,-1.0312848 l 1.313429,-0.4232159 q 0.189717,0.530236 0.287008,1.1431694 0.102156,0.6129334 0.102156,1.17722127 0,1.02155564 -0.379435,1.75123824 Q 46.034489,1.5615208 45.348588,2.013924 44.667551,2.4711917 43.748151,2.6560447 Z m -2.505245,-6.6790281 q 0.612933,0 1.041014,0.3648413 0.42808,0.3648413 0.671308,0.963181 0.243227,0.5934752 0.291873,1.289106 h 0.364841 V 0 H 43.14981 q -0.27728,1.1091176 -1.08966,1.7415091 -0.81238,0.6372562 -2.218235,0.909671 l -0.48159,-1.298835 Q 39.973258,1.2355959 40.493765,1.0410138 41.019136,0.84643182 41.379113,0.58374608 41.743955,0.32106034 41.865568,0 h -0.457267 q -0.98264,0 -1.498282,-0.40862226 -0.515642,-0.4134868 -0.515642,-1.33288684 0,-0.3599768 0.111884,-0.7540054 0.111885,-0.3988931 0.340519,-0.7442762 0.228634,-0.3502477 0.574017,-0.5642879 0.350247,-0.2189048 0.822109,-0.2189048 z m 0.16053,2.6171283 h 0.622662 q -0.02919,-0.2724149 -0.116749,-0.5594234 -0.0827,-0.2870085 -0.248092,-0.4815905 -0.16053,-0.194582 -0.42808,-0.194582 -0.228634,0 -0.364842,0.1459365 -0.131342,0.141072 -0.189717,0.3405186 -0.05351,0.194582 -0.05351,0.3599767 0,0.2578212 0.21404,0.3259249 0.218905,0.063239 0.564288,0.063239 z M 38.664694,-3.215468 v 1.2696477 q -0.282144,0.029187 -0.574017,0.1313429 -0.287008,0.097291 -0.501049,0.194582 0.09243,0.1362074 0.447539,0.1751239 0.359977,0.038916 0.788057,0.038916 h 0.267551 V 0 H 38.805766 Q 37.915553,0 37.370724,-0.23349843 36.830758,-0.47186141 36.631312,-1.1188467 35.73137,-0.63725614 34.831428,-0.31619579 33.936351,0 32.91966,0 h -0.81238 v -1.4058551 h 0.826973 q 0.627527,0 1.162628,-0.1167493 0.539965,-0.1216137 1.113982,-0.3599767 0.574017,-0.238363 1.3037,-0.5934752 -0.749141,-0.2772794 -1.211273,-0.4621323 -0.462133,-0.1848529 -0.632392,-0.1848529 -0.262686,0 -0.476726,0.1653947 -0.209176,0.1605302 -0.345383,0.3405185 l -0.257821,0.3259249 -1.08966,-0.5351005 0.218905,-0.3502477 q 0.345383,-0.5642879 0.826974,-0.9339937 0.48159,-0.3745704 1.128576,-0.3745704 0.272414,0 0.632391,0.1264783 0.364841,0.1264783 0.778328,0.3161958 0.418352,0.1848529 0.861026,0.3745704 0.447538,0.1848529 0.880483,0.3161958 0.43781,0.1313429 0.836703,0.1362074 z m -8.571338,3.32735267 q -0.505913,0 -0.948587,-0.21404023 -0.43781,-0.21890478 -0.856161,-0.53996513 -0.26755,0.26755029 -0.559423,0.45726776 Q 27.442176,0 26.887618,0 h -0.214041 v -1.4058551 h 0.189718 q 0.238363,0 0.42808,-0.184853 0.194582,-0.1848529 0.369706,-0.4767259 0.179988,-0.2967376 0.37457,-0.6226625 0.199447,-0.3307895 0.442675,-0.6226625 0.248092,-0.2967376 0.574017,-0.4815905 0.325924,-0.1848529 0.763734,-0.1848529 0.612933,0 1.060472,0.291873 0.447539,0.2870085 0.690766,0.7637345 0.243228,0.4718614 0.243228,1.0312847 0,0.574017 -0.189718,1.02642018 -0.189717,0.45240321 -0.574017,0.71508895 -0.379435,0.26268574 -0.953452,0.26268574 z M 29.859858,-2.641451 q -0.199447,0 -0.359977,0.1362074 -0.16053,0.1313429 -0.282144,0.3210604 -0.121613,0.1897174 -0.204311,0.3599767 0.141072,0.1264783 0.26755,0.2189048 0.126479,0.092426 0.243228,0.1605302 0.175124,0.097291 0.32106,0.1362074 0.145937,0.038916 0.252957,0.038916 0.257821,0 0.369706,-0.1848529 0.111884,-0.1897175 0.111884,-0.4280805 0,-0.3064667 -0.189717,-0.530236 Q 30.200377,-2.641451 29.859858,-2.641451 Z M 22.569142,2.6560447 22.072958,1.3523451 q 0.70536,-0.1508011 1.211273,-0.40375772 0.510778,-0.24809208 0.788057,-0.66644344 0.27728,-0.41835136 0.27728,-1.07993025 0,-0.44267409 -0.141072,-0.99236829 -0.141072,-0.5545588 -0.301602,-1.0312848 l 1.313428,-0.4232159 q 0.189718,0.530236 0.287009,1.1431694 0.102155,0.6129334 0.102155,1.17722127 0,1.02155564 -0.379435,1.75123824 Q 24.855481,1.5615208 24.169579,2.013924 23.488542,2.4711917 22.569142,2.6560447 Z M 20.224428,-6.8201 h 1.313429 v 4.4461993 q 0,0.5156423 0.150801,0.7442762 0.150801,0.2237694 0.622662,0.2237694 h 0.121614 V 0 H 22.31132 Q 21.221661,0 20.720612,-0.56428788 20.224428,-1.1285758 20.224428,-2.2571515 Z m -3.818673,0.9534519 0.826974,0.8172445 0.817244,-0.8172445 0.831839,0.8269736 -0.831839,0.8367027 -0.817244,-0.8269736 -0.826974,0.8269736 -0.826973,-0.8367027 z m -0.510777,4.460793 h 0.681037 q 0.5351,0 0.734547,-0.1799884 0.204311,-0.1848529 0.204311,-0.671308 0,-0.2870085 -0.01459,-0.5545588 -0.01459,-0.2724148 -0.03405,-0.530236 l 1.216138,-0.1508011 0.09729,1.3912615 q 0.02432,0.3697059 0.204311,0.5351006 0.179989,0.1605302 0.574017,0.1605302 H 19.66014 V 0 H 19.548255 Q 19.0618,0 18.711552,-0.17512382 18.366169,-0.35024765 18.1424,-0.63239159 17.845662,-0.335654 17.43704,-0.16539472 17.033282,0 16.576015,0 h -0.681037 z m -3.765162,-5.3947867 0.875619,0.8756191 -0.875619,0.8707546 -0.870754,-0.8707546 z m -3.0306148,5.3947867 h 0.8269736 q 0.6275272,0 1.1674922,-0.1167493 0.539965,-0.1216137 1.109118,-0.3599767 0.574016,-0.238363 1.303699,-0.5934752 -0.749141,-0.2724148 -1.211273,-0.4572677 -0.462132,-0.1897175 -0.632392,-0.1897175 -0.262685,0 -0.476726,0.1653947 -0.209175,0.1605302 -0.345383,0.3405185 l -0.257821,0.3259249 -1.0896592,-0.5351005 0.2189048,-0.3502477 q 0.3453834,-0.5642879 0.8269734,-0.9339937 0.481591,-0.3745704 1.128576,-0.3745704 0.272415,0 0.632392,0.1264783 0.364841,0.1264783 0.778328,0.3161958 0.418351,0.1848529 0.861025,0.3745704 0.447539,0.1848529 0.880484,0.3161958 0.437809,0.1313429 0.836702,0.1362074 v 1.2891059 q -0.369705,0.048645 -0.685901,0.1653948 -0.316196,0.1118846 -0.656715,0.2870084 -0.340518,0.1751239 -0.792921,0.4183514 -0.622663,0.33078945 -1.177222,0.56915243 -0.549694,0.23836299 -1.13344,0.3648413 Q 10.631535,0 9.9115811,0 H 9.0992012 Z M 7.0852773,-6.8201 H 8.398706 v 4.4461993 q 0,0.5156423 0.1508011,0.7442762 0.150801,0.2237694 0.6226624,0.2237694 H 9.2937833 V 0 H 9.1721695 Q 8.0825102,0 7.5814615,-0.56428788 7.0852773,-1.1285758 7.0852773,-2.2571515 Z M 1.7391357,0 Q 1.2478161,0 0.91216206,-0.16539472 0.58137262,-0.335654 0.36733239,-0.61293338 0.0997821,-0.33078944 -0.26992375,-0.16539472 -0.6396296,0 -1.2039175,0 h -0.4475386 v -1.4058551 h 0.4572677 q 0.5351006,0 0.75886993,-0.1313429 0.22863388,-0.1313429 0.22863388,-0.6323916 0,-0.077833 -0.009729,-0.2578212 -0.009729,-0.1799884 -0.0243228,-0.3940286 -0.0145937,-0.2189048 -0.0291873,-0.3940286 L 0.95107847,-3.3662691 1.053234,-2.0528404 q 0.043781,0.6469853 0.6956308,0.6469853 0.4037577,0 0.5399651,-0.1653948 0.1362074,-0.1702592 0.1362074,-0.5983397 0,-0.068104 -0.00973,-0.2480921 -0.00973,-0.1848529 -0.024323,-0.4037577 -0.014594,-0.2189048 -0.029187,-0.3940286 l 1.2210022,-0.1508011 0.1021555,1.3134287 q 0.019458,0.2967376 0.1459366,0.4718614 0.1313428,0.1751239 0.4426741,0.1751239 0.291873,0 0.3988931,-0.2286339 0.1118847,-0.2334985 0.1118847,-0.5545588 0,-0.2772794 -0.05351,-0.5691524 -0.048646,-0.2967376 -0.1118846,-0.5351006 -0.058375,-0.2432275 -0.087562,-0.3551122 l 1.2599186,-0.3453831 q 0.097291,0.3842995 0.1605301,0.8221091 0.063239,0.432945 0.063239,0.8610254 0,0.6032043 -0.1605302,1.1334403 Q 5.6988799,-0.65184979 5.319445,-0.32592489 4.94001,0 4.2832957,0 3.8454861,0 3.543884,-0.17998837 3.2471464,-0.35997675 3.0428353,-0.62266248 2.7947432,-0.35997675 2.4785474,-0.17998837 2.1672161,0 1.7391357,0 Z"
       id="text15"
       transform="matrix(1.3333333,0,0,1.3333333,375.16,50.489333)"
       aria-label="رﻮﺤﻣرﺎﺘﺧﺎﺳ" />
    <path
       id="path16"
       d="m 229.45361,31.74838 h -50.71595 c -1.65072,0 -2.98883,-1.33812 -2.98883,-2.98883 V 12.0597 c 0,-1.65072 1.33811,-2.98884 2.98883,-2.98884 h 50.71595 c 1.6507,0 2.98883,1.33812 2.98883,2.98884 v 16.69985 c 0,1.65071 -1.33813,2.98883 -2.98883,2.98883 z"
       style="fill:#b3d1c2;fill-opacity:1;fill-rule:nonzero;stroke:#006633;stroke-width:0.3985;stroke-linecap:butt;stroke-linejoin:miter;stroke-miterlimit:10;stroke-dasharray:none;stroke-opacity:1"
       transform="matrix(1.3333333,0,0,-1.3333333,134.64,115.74533)" />
    <path
       style="font-size:8.9664px;font-family:Vazirmatn"
       d="m 14.92825,-6.0286782 v 6.02430007 H 14.188347 V -6.0286782 Z M 10.045485,2.3554313 9.7871756,1.6593094 q 1.0682624,-0.2320406 1.5060754,-0.81433126 0.437812,-0.57791251 0.437812,-1.37035315 0,-0.37214063 -0.08318,-0.77930629 -0.07881,-0.4115437 -0.223285,-0.8362219 l 0.726769,-0.245175 q 0.315225,0.8975157 0.315225,1.72935944 0,0.73114689 -0.258309,1.35284065 Q 11.954348,1.3221938 11.415838,1.7556282 10.881707,2.1934407 10.045485,2.3554313 Z M 7.7601046,-3.2004094 q 0.6829875,0 1.1514469,0.6129375 0.4684594,0.6085594 0.4859719,1.79065314 H 9.9272765 V 0 H 9.3274734 Q 9.2311546,0.50348438 8.9421984,0.97194377 8.6576202,1.4447813 8.0928421,1.8037875 7.528064,2.1671719 6.5955233,2.346675 L 6.3372139,1.6505532 Q 8.3205046,1.2696563 8.6357296,0 H 7.9439858 q -1.6593094,0 -1.6593094,-1.3440844 0,-0.4290563 0.1707469,-0.8581125 0.175125,-0.4290563 0.5034844,-0.7136344 0.3327375,-0.2845781 0.8011969,-0.2845781 z m 0.1401,2.40359064 h 0.7749281 q -0.052538,-0.84497814 -0.2802,-1.23025314 -0.2232843,-0.385275 -0.6479625,-0.385275 -0.2802,0 -0.4421906,0.1795031 -0.1576125,0.1795031 -0.2232844,0.4246781 -0.061294,0.2407969 -0.061294,0.4378126 0,0.3064687 0.2057718,0.44219058 0.21015,0.13134376 0.6742313,0.13134376 z M 2.681479,-5.7572345 3.2725259,-5.1661876 2.681479,-4.5751407 2.0904321,-5.1661876 Z m 0.7486594,1.1076657 0.5910469,0.5910469 -0.5910469,0.5910468 -0.5910469,-0.5910468 z m -1.4973188,0 0.5910469,0.5910469 -0.5910469,0.5910468 -0.5910469,-0.5910468 z M 1.7445602,0 Q 1.2410758,0 0.96525396,-0.17074688 0.69381021,-0.34587188 0.53181958,-0.66985314 0.3260477,-0.34587188 0.00644457,-0.17074688 -0.31315856,0 -0.90420544,0 H -1.3069929 v -0.79681876 h 0.41154371 q 0.56040001,0 0.81870939,-0.20577184 0.25830938,-0.21015 0.25830938,-0.7617938 0,-0.1138313 -0.0131344,-0.2670656 -0.008756,-0.1576125 -0.0306469,-0.4378125 l 0.73114688,-0.091941 0.07005,0.9150282 q 0.0262687,0.3677625 0.22328439,0.6085594 0.2013937,0.24079684 0.5910469,0.24079684 0.4640812,0 0.63045,-0.24955314 0.1663687,-0.2495531 0.1663687,-0.7180125 0,-0.1138313 -0.013134,-0.2714438 -0.00876,-0.1576125 -0.030647,-0.4334343 l 0.7311469,-0.091941 0.07005,0.9150282 q 0.021891,0.3546281 0.1882594,0.6041812 0.1663687,0.24517504 0.5385093,0.24517504 0.3633844,0 0.4991063,-0.27144374 0.1357219,-0.2714438 0.1357219,-0.6348282 0,-0.3283593 -0.065672,-0.6610968 -0.061294,-0.3327375 -0.1094531,-0.5385094 l 0.7486594,-0.2013938 q 0.078806,0.2933344 0.1269656,0.6260719 0.048159,0.3283594 0.048159,0.6567188 0,0.4728375 -0.1313438,0.88875936 Q 5.1551197,-0.51661876 4.853029,-0.25830938 4.5553165,-0.00437813 4.0386978,0 3.6183978,0 3.3600884,-0.175125 3.101779,-0.35025001 2.9397884,-0.66985314 2.6946134,-0.31522501 2.3925227,-0.1576125 2.0948102,0 1.7445602,0 Z"
       id="text16"
       transform="matrix(1.3333333,0,0,1.3333333,396.37067,90.981333)"
       aria-label="ارﻮﺷ" />
    <path
       id="path17"
       d="m 179.84691,0.85046 h -28.03844 c -1.65071,0 -2.98883,-1.3381 -2.98883,-2.98881 v -11.03058 c 0,-1.65071 1.33812,-2.98883 2.98883,-2.98883 h 28.03844 c 1.65071,0 2.98883,1.33812 2.98883,2.98883 v 11.03058 c 0,1.65071 -1.33812,2.98881 -2.98883,2.98881 z"
       style="fill:#e6fae6;fill-opacity:1;fill-rule:nonzero;stroke:#006633;stroke-width:0.3985;stroke-linecap:butt;stroke-linejoin:miter;stroke-miterlimit:10;stroke-dasharray:none;stroke-opacity:1"
       transform="matrix(1.3333333,0,0,-1.3333333,134.64,115.74533)" />
    <path
       style="font-size:7.9701px;font-family:Vazirmatn"
       d="m 17.928833,0 q -0.572073,0 -0.891188,-0.26852387 -0.315224,-0.26852388 -0.408624,-0.73941353 -0.225715,0.22571568 -0.490347,0.34635684 -0.260741,0.12064116 -0.58764,0.12064116 -0.556506,0 -0.933996,-0.29965708 -0.37749,-0.29965712 -0.37749,-0.82892152 0,-0.5993142 0.490348,-1.035179 0.490348,-0.4397565 1.541094,-0.7627635 l -0.02724,-0.1867992 0.622664,-0.1245328 0.338574,2.3894733 q 0.0467,0.3424653 0.221824,0.51369787 0.179016,0.16734097 0.517589,0.16734097 H 18.06504 V 0 Z m -1.455478,-1.9575001 q 0,-0.1206412 -0.01557,-0.2296074 l -0.09729,-0.6499056 q -0.754981,0.2724155 -1.101337,0.5370477 -0.342466,0.2646323 -0.342466,0.5798559 0,0.256849 0.175125,0.3891651 0.175124,0.1323161 0.474781,0.1323161 0.229607,0 0.435865,-0.089508 0.210149,-0.089508 0.338573,-0.2607405 0.132316,-0.1712327 0.132316,-0.4086233 z m -3.841057,-2.2532656 0.544831,0.5409394 -0.544831,0.5487227 -0.54094,-0.5487227 z m -1.292028,0 0.544831,0.5409394 -0.544831,0.5487227 -0.54094,-0.5487227 z m -0.420298,3.50248534 h 0.544831 q 0.494239,0 0.704388,-0.22182407 0.214041,-0.22182407 0.214041,-0.68103877 0,-0.1867993 -0.01168,-0.3541402 -0.0078,-0.167341 -0.02335,-0.334682 l 0.649906,-0.077833 0.06227,0.9106462 q 0.0467,0.75887184 0.790005,0.75887184 h 0.08173 V 0 h -0.08951 Q 13.410628,0 13.149887,-0.15566601 12.893038,-0.31133203 12.733481,-0.5954225 12.523332,-0.28798213 12.180866,-0.14399106 11.838401,0 11.464803,0 h -0.544831 z m -2.8992813,0 h 0.5876392 q 0.4942396,0 0.7043887,-0.22182407 0.2140408,-0.22182407 0.2140408,-0.68103877 0,-0.1867993 -0.011675,-0.3541402 -0.00778,-0.167341 -0.02335,-0.334682 l 0.6499054,-0.077833 0.06227,0.9106462 q 0.0467,0.75887184 0.790005,0.75887184 h 0.08172 V 0 h -0.08951 Q 10.554155,0 10.293415,-0.15566601 10.036566,-0.31133203 9.8770079,-0.5954225 9.6668588,-0.28798213 9.3243936,-0.14399106 8.9819284,0 8.6083299,0 H 8.0206907 Z M 9.4255765,0.61877241 9.9704075,1.1597118 9.4255765,1.7084345 8.8846371,1.1597118 Z m -1.2920279,0 L 8.6783796,1.1597118 8.1335486,1.7084345 7.5926092,1.1597118 Z M 3.63091,0 H 3.4596774 v -0.70828036 h 0.1517744 q 0.2607405,0 0.4397564,-0.14788272 0.179016,-0.15177432 0.3191154,-0.38916502 0.1400994,-0.2373907 0.2763071,-0.5020229 0.1400995,-0.2685239 0.3113321,-0.5059146 0.1712326,-0.2373906 0.4125149,-0.3852733 0.245174,-0.1517744 0.6032058,-0.1517744 0.6109891,0 0.9495627,0.3735984 0.3385736,0.3697068 0.4553231,0.9223212 0.077833,0.3813817 0.2646322,0.58374752 0.1906909,0.20236582 0.4397565,0.20236582 H 8.1841409 V 0 H 8.0790664 Q 7.8300007,0 7.5926101,-0.10118291 7.3552194,-0.20625747 7.2073367,-0.43197319 7.0438874,-0.19458252 6.802605,-0.05059145 6.5613227,0.08950796 6.1760493,0.08950796 q -0.389165,0 -0.7199553,-0.16734097 Q 5.1291954,-0.24906562 4.7750552,-0.59153085 4.5220979,-0.30744038 4.2885989,-0.15177436 4.0550999,0 3.63091,0 Z m 2.3583401,-2.1014912 q -0.1945825,0 -0.3541402,0.1323161 -0.1595576,0.1284245 -0.2879821,0.334682 -0.1284245,0.2062574 -0.2296074,0.4280815 0.1284245,0.1323161 0.256849,0.23739066 0.1284244,0.10507456 0.2490656,0.17901592 0.311332,0.19069087 0.544831,0.19069087 0.5759643,0 0.5759643,-0.57985595 0,-0.4047316 -0.2023658,-0.6615805 Q 6.3433903,-2.1014912 5.9892501,-2.1014912 Z M 0.85616306,-3.7749008 q 0.33857354,0.2373906 0.70438874,0.5020229 0.3658151,0.2607405 0.6810388,0.5603976 0.3191153,0.2957654 0.5136978,0.634339 0.1984742,0.3346819 0.1984742,0.7160637 -0.00389,0.72384694 -0.5020229,1.04296227 Q 1.9575001,0 0.87172966,0 h -0.94956268 v -0.70828036 h 0.94567103 q 0.75498019,0 1.08187879,-0.13231612 0.3268986,-0.13620776 0.3268986,-0.53704772 0,-0.2568489 -0.1829075,-0.5020229 Q 1.914692,-2.1248411 1.6267098,-2.3622318 1.3426194,-2.6035141 1.0157207,-2.8331215 0.6888221,-3.0666205 0.40083997,-3.2923362 0.27630716,-3.3935191 0.2101491,-3.5297269 q -0.066158,-0.1362077 -0.066158,-0.2724155 0,-0.1595577 0.0856163,-0.2996571 0.0895079,-0.143991 0.27630717,-0.2179324 L 3.3040111,-5.4560938 v 0.6888221 z"
       id="text17"
       transform="matrix(1.3333333,0,0,1.3333333,343.62267,128.44933)"
       aria-label="ﻪﺘﯿﻤﮐ" />
    <path
       id="path18"
       d="m 218.11485,0.85046 h -28.03843 c -1.65072,0 -2.98883,-1.3381 -2.98883,-2.98881 v -11.03058 c 0,-1.65071 1.33811,-2.98883 2.98883,-2.98883 h 28.03843 c 1.6507,0 2.98883,1.33812 2.98883,2.98883 v 11.03058 c 0,1.65071 -1.33813,2.98881 -2.98883,2.98881 z"
       style="fill:#e6fae6;fill-opacity:1;fill-rule:nonzero;stroke:#006633;stroke-width:0.3985;stroke-linecap:butt;stroke-linejoin:miter;stroke-miterlimit:10;stroke-dasharray:none;stroke-opacity:1"
       transform="matrix(1.3333333,0,0,-1.3333333,134.64,115.74533)" />
    <path
       style="font-size:7.9701px;font-family:Vazirmatn"
       d="m 17.928833,0 q -0.572073,0 -0.891188,-0.26852387 -0.315224,-0.26852388 -0.408624,-0.73941353 -0.225715,0.22571568 -0.490347,0.34635684 -0.260741,0.12064116 -0.58764,0.12064116 -0.556506,0 -0.933996,-0.29965708 -0.37749,-0.29965712 -0.37749,-0.82892152 0,-0.5993142 0.490348,-1.035179 0.490348,-0.4397565 1.541094,-0.7627635 l -0.02724,-0.1867992 0.622664,-0.1245328 0.338574,2.3894733 q 0.0467,0.3424653 0.221824,0.51369787 0.179016,0.16734097 0.517589,0.16734097 H 18.06504 V 0 Z m -1.455478,-1.9575001 q 0,-0.1206412 -0.01557,-0.2296074 l -0.09729,-0.6499056 q -0.754981,0.2724155 -1.101337,0.5370477 -0.342466,0.2646323 -0.342466,0.5798559 0,0.256849 0.175125,0.3891651 0.175124,0.1323161 0.474781,0.1323161 0.229607,0 0.435865,-0.089508 0.210149,-0.089508 0.338573,-0.2607405 0.132316,-0.1712327 0.132316,-0.4086233 z m -3.841057,-2.2532656 0.544831,0.5409394 -0.544831,0.5487227 -0.54094,-0.5487227 z m -1.292028,0 0.544831,0.5409394 -0.544831,0.5487227 -0.54094,-0.5487227 z m -0.420298,3.50248534 h 0.544831 q 0.494239,0 0.704388,-0.22182407 0.214041,-0.22182407 0.214041,-0.68103877 0,-0.1867993 -0.01168,-0.3541402 -0.0078,-0.167341 -0.02335,-0.334682 l 0.649906,-0.077833 0.06227,0.9106462 q 0.0467,0.75887184 0.790005,0.75887184 h 0.08173 V 0 h -0.08951 Q 13.410628,0 13.149887,-0.15566601 12.893038,-0.31133203 12.733481,-0.5954225 12.523332,-0.28798213 12.180866,-0.14399106 11.838401,0 11.464803,0 h -0.544831 z m -2.8992813,0 h 0.5876392 q 0.4942396,0 0.7043887,-0.22182407 0.2140408,-0.22182407 0.2140408,-0.68103877 0,-0.1867993 -0.011675,-0.3541402 -0.00778,-0.167341 -0.02335,-0.334682 l 0.6499054,-0.077833 0.06227,0.9106462 q 0.0467,0.75887184 0.790005,0.75887184 h 0.08172 V 0 h -0.08951 Q 10.554155,0 10.293415,-0.15566601 10.036566,-0.31133203 9.8770079,-0.5954225 9.6668588,-0.28798213 9.3243936,-0.14399106 8.9819284,0 8.6083299,0 H 8.0206907 Z M 9.4255765,0.61877241 9.9704075,1.1597118 9.4255765,1.7084345 8.8846371,1.1597118 Z m -1.2920279,0 L 8.6783796,1.1597118 8.1335486,1.7084345 7.5926092,1.1597118 Z M 3.63091,0 H 3.4596774 v -0.70828036 h 0.1517744 q 0.2607405,0 0.4397564,-0.14788272 0.179016,-0.15177432 0.3191154,-0.38916502 0.1400994,-0.2373907 0.2763071,-0.5020229 0.1400995,-0.2685239 0.3113321,-0.5059146 0.1712326,-0.2373906 0.4125149,-0.3852733 0.245174,-0.1517744 0.6032058,-0.1517744 0.6109891,0 0.9495627,0.3735984 0.3385736,0.3697068 0.4553231,0.9223212 0.077833,0.3813817 0.2646322,0.58374752 0.1906909,0.20236582 0.4397565,0.20236582 H 8.1841409 V 0 H 8.0790664 Q 7.8300007,0 7.5926101,-0.10118291 7.3552194,-0.20625747 7.2073367,-0.43197319 7.0438874,-0.19458252 6.802605,-0.05059145 6.5613227,0.08950796 6.1760493,0.08950796 q -0.389165,0 -0.7199553,-0.16734097 Q 5.1291954,-0.24906562 4.7750552,-0.59153085 4.5220979,-0.30744038 4.2885989,-0.15177436 4.0550999,0 3.63091,0 Z m 2.3583401,-2.1014912 q -0.1945825,0 -0.3541402,0.1323161 -0.1595576,0.1284245 -0.2879821,0.334682 -0.1284245,0.2062574 -0.2296074,0.4280815 0.1284245,0.1323161 0.256849,0.23739066 0.1284244,0.10507456 0.2490656,0.17901592 0.311332,0.19069087 0.544831,0.19069087 0.5759643,0 0.5759643,-0.57985595 0,-0.4047316 -0.2023658,-0.6615805 Q 6.3433903,-2.1014912 5.9892501,-2.1014912 Z M 0.85616306,-3.7749008 q 0.33857354,0.2373906 0.70438874,0.5020229 0.3658151,0.2607405 0.6810388,0.5603976 0.3191153,0.2957654 0.5136978,0.634339 0.1984742,0.3346819 0.1984742,0.7160637 -0.00389,0.72384694 -0.5020229,1.04296227 Q 1.9575001,0 0.87172966,0 h -0.94956268 v -0.70828036 h 0.94567103 q 0.75498019,0 1.08187879,-0.13231612 0.3268986,-0.13620776 0.3268986,-0.53704772 0,-0.2568489 -0.1829075,-0.5020229 Q 1.914692,-2.1248411 1.6267098,-2.3622318 1.3426194,-2.6035141 1.0157207,-2.8331215 0.6888221,-3.0666205 0.40083997,-3.2923362 0.27630716,-3.3935191 0.2101491,-3.5297269 q -0.066158,-0.1362077 -0.066158,-0.2724155 0,-0.1595577 0.0856163,-0.2996571 0.0895079,-0.143991 0.27630717,-0.2179324 L 3.3040111,-5.4560938 v 0.6888221 z"
       id="text18"
       transform="matrix(1.3333333,0,0,1.3333333,394.64667,128.44933)"
       aria-label="ﻪﺘﯿﻤﮐ" />
    <path
       id="path19"
       d="m 256.38277,0.85046 h -28.03844 c -1.6507,0 -2.98883,-1.3381 -2.98883,-2.98881 v -11.03058 c 0,-1.65071 1.33813,-2.98883 2.98883,-2.98883 h 28.03844 c 1.65071,0 2.98883,1.33812 2.98883,2.98883 v 11.03058 c 0,1.65071 -1.33812,2.98881 -2.98883,2.98881 z"
       style="fill:#e6fae6;fill-opacity:1;fill-rule:nonzero;stroke:#006633;stroke-width:0.3985;stroke-linecap:butt;stroke-linejoin:miter;stroke-miterlimit:10;stroke-dasharray:none;stroke-opacity:1"
       transform="matrix(1.3333333,0,0,-1.3333333,134.64,115.74533)" />
    <path
       style="font-size:7.9701px;font-family:Vazirmatn"
       d="m 17.928833,0 q -0.572073,0 -0.891188,-0.26852387 -0.315224,-0.26852388 -0.408624,-0.73941353 -0.225715,0.22571568 -0.490347,0.34635684 -0.260741,0.12064116 -0.58764,0.12064116 -0.556506,0 -0.933996,-0.29965708 -0.37749,-0.29965712 -0.37749,-0.82892152 0,-0.5993142 0.490348,-1.035179 0.490348,-0.4397565 1.541094,-0.7627635 l -0.02724,-0.1867992 0.622664,-0.1245328 0.338574,2.3894733 q 0.0467,0.3424653 0.221824,0.51369787 0.179016,0.16734097 0.517589,0.16734097 H 18.06504 V 0 Z m -1.455478,-1.9575001 q 0,-0.1206412 -0.01557,-0.2296074 l -0.09729,-0.6499056 q -0.754981,0.2724155 -1.101337,0.5370477 -0.342466,0.2646323 -0.342466,0.5798559 0,0.256849 0.175125,0.3891651 0.175124,0.1323161 0.474781,0.1323161 0.229607,0 0.435865,-0.089508 0.210149,-0.089508 0.338573,-0.2607405 0.132316,-0.1712327 0.132316,-0.4086233 z m -3.841057,-2.2532656 0.544831,0.5409394 -0.544831,0.5487227 -0.54094,-0.5487227 z m -1.292028,0 0.544831,0.5409394 -0.544831,0.5487227 -0.54094,-0.5487227 z m -0.420298,3.50248534 h 0.544831 q 0.494239,0 0.704388,-0.22182407 0.214041,-0.22182407 0.214041,-0.68103877 0,-0.1867993 -0.01168,-0.3541402 -0.0078,-0.167341 -0.02335,-0.334682 l 0.649906,-0.077833 0.06227,0.9106462 q 0.0467,0.75887184 0.790005,0.75887184 h 0.08173 V 0 h -0.08951 Q 13.410628,0 13.149887,-0.15566601 12.893038,-0.31133203 12.733481,-0.5954225 12.523332,-0.28798213 12.180866,-0.14399106 11.838401,0 11.464803,0 h -0.544831 z m -2.8992813,0 h 0.5876392 q 0.4942396,0 0.7043887,-0.22182407 0.2140408,-0.22182407 0.2140408,-0.68103877 0,-0.1867993 -0.011675,-0.3541402 -0.00778,-0.167341 -0.02335,-0.334682 l 0.6499054,-0.077833 0.06227,0.9106462 q 0.0467,0.75887184 0.790005,0.75887184 h 0.08172 V 0 h -0.08951 Q 10.554155,0 10.293415,-0.15566601 10.036566,-0.31133203 9.8770079,-0.5954225 9.6668588,-0.28798213 9.3243936,-0.14399106 8.9819284,0 8.6083299,0 H 8.0206907 Z M 9.4255765,0.61877241 9.9704075,1.1597118 9.4255765,1.7084345 8.8846371,1.1597118 Z m -1.2920279,0 L 8.6783796,1.1597118 8.1335486,1.7084345 7.5926092,1.1597118 Z M 3.63091,0 H 3.4596774 v -0.70828036 h 0.1517744 q 0.2607405,0 0.4397564,-0.14788272 0.179016,-0.15177432 0.3191154,-0.38916502 0.1400994,-0.2373907 0.2763071,-0.5020229 0.1400995,-0.2685239 0.3113321,-0.5059146 0.1712326,-0.2373906 0.4125149,-0.3852733 0.245174,-0.1517744 0.6032058,-0.1517744 0.6109891,0 0.9495627,0.3735984 0.3385736,0.3697068 0.4553231,0.9223212 0.077833,0.3813817 0.2646322,0.58374752 0.1906909,0.20236582 0.4397565,0.20236582 H 8.1841409 V 0 H 8.0790664 Q 7.8300007,0 7.5926101,-0.10118291 7.3552194,-0.20625747 7.2073367,-0.43197319 7.0438874,-0.19458252 6.802605,-0.05059145 6.5613227,0.08950796 6.1760493,0.08950796 q -0.389165,0 -0.7199553,-0.16734097 Q 5.1291954,-0.24906562 4.7750552,-0.59153085 4.5220979,-0.30744038 4.2885989,-0.15177436 4.0550999,0 3.63091,0 Z m 2.3583401,-2.1014912 q -0.1945825,0 -0.3541402,0.1323161 -0.1595576,0.1284245 -0.2879821,0.334682 -0.1284245,0.2062574 -0.2296074,0.4280815 0.1284245,0.1323161 0.256849,0.23739066 0.1284244,0.10507456 0.2490656,0.17901592 0.311332,0.19069087 0.544831,0.19069087 0.5759643,0 0.5759643,-0.57985595 0,-0.4047316 -0.2023658,-0.6615805 Q 6.3433903,-2.1014912 5.9892501,-2.1014912 Z M 0.85616306,-3.7749008 q 0.33857354,0.2373906 0.70438874,0.5020229 0.3658151,0.2607405 0.6810388,0.5603976 0.3191153,0.2957654 0.5136978,0.634339 0.1984742,0.3346819 0.1984742,0.7160637 -0.00389,0.72384694 -0.5020229,1.04296227 Q 1.9575001,0 0.87172966,0 h -0.94956268 v -0.70828036 h 0.94567103 q 0.75498019,0 1.08187879,-0.13231612 0.3268986,-0.13620776 0.3268986,-0.53704772 0,-0.2568489 -0.1829075,-0.5020229 Q 1.914692,-2.1248411 1.6267098,-2.3622318 1.3426194,-2.6035141 1.0157207,-2.8331215 0.6888221,-3.0666205 0.40083997,-3.2923362 0.27630716,-3.3935191 0.2101491,-3.5297269 q -0.066158,-0.1362077 -0.066158,-0.2724155 0,-0.1595577 0.0856163,-0.2996571 0.0895079,-0.143991 0.27630717,-0.2179324 L 3.3040111,-5.4560938 v 0.6888221 z"
       id="text19"
       transform="matrix(1.3333333,0,0,1.3333333,445.67067,128.44933)"
       aria-label="ﻪﺘﯿﻤﮐ" />
    <path
       id="path20"
       d="m 160.15842,-33.1656 c 0,3.91392 -3.17278,7.0867 -7.0867,7.0867 -3.91392,0 -7.08669,-3.17278 -7.08669,-7.0867 0,-3.91391 3.17277,-7.08669 7.08669,-7.08669 3.91392,0 7.0867,3.17278 7.0867,7.08669 z"
       style="fill:#e6fae6;fill-opacity:1;fill-rule:nonzero;stroke:#006633;stroke-width:0.3985;stroke-linecap:butt;stroke-linejoin:miter;stroke-miterlimit:10;stroke-dasharray:none;stroke-opacity:1"
       transform="matrix(1.3333333,0,0,-1.3333333,134.64,115.74533)" />
    <path
       id="path21"
       d="m 185.67038,-33.1656 c 0,3.91392 -3.17278,7.0867 -7.0867,7.0867 -3.91391,0 -7.08668,-3.17278 -7.08668,-7.0867 0,-3.91391 3.17277,-7.08669 7.08668,-7.08669 3.91392,0 7.0867,3.17278 7.0867,7.08669 z"
       style="fill:#e6fae6;fill-opacity:1;fill-rule:nonzero;stroke:#006633;stroke-width:0.3985;stroke-linecap:butt;stroke-linejoin:miter;stroke-miterlimit:10;stroke-dasharray:none;stroke-opacity:1"
       transform="matrix(1.3333333,0,0,-1.3333333,134.64,115.74533)" />
    <path
       id="path22"
       d="m 211.18231,-33.1656 c 0,3.91392 -3.17277,7.0867 -7.08668,7.0867 -3.91391,0 -7.08669,-3.17278 -7.08669,-7.0867 0,-3.91391 3.17278,-7.08669 7.08669,-7.08669 3.91391,0 7.08668,3.17278 7.08668,7.08669 z"
       style="fill:#e6fae6;fill-opacity:1;fill-rule:nonzero;stroke:#006633;stroke-width:0.3985;stroke-linecap:butt;stroke-linejoin:miter;stroke-miterlimit:10;stroke-dasharray:none;stroke-opacity:1"
       transform="matrix(1.3333333,0,0,-1.3333333,134.64,115.74533)" />
    <path
       id="path23"
       d="m 236.69427,-33.1656 c 0,3.91392 -3.17277,7.0867 -7.08668,7.0867 -3.91393,0 -7.0867,-3.17278 -7.0867,-7.0867 0,-3.91391 3.17277,-7.08669 7.0867,-7.08669 3.91391,0 7.08668,3.17278 7.08668,7.08669 z"
       style="fill:#e6fae6;fill-opacity:1;fill-rule:nonzero;stroke:#006633;stroke-width:0.3985;stroke-linecap:butt;stroke-linejoin:miter;stroke-miterlimit:10;stroke-dasharray:none;stroke-opacity:1"
       transform="matrix(1.3333333,0,0,-1.3333333,134.64,115.74533)" />
    <path
       id="path24"
       d="m 262.20624,-33.1656 c 0,3.91392 -3.17278,7.0867 -7.08669,7.0867 -3.91392,0 -7.0867,-3.17278 -7.0867,-7.0867 0,-3.91391 3.17278,-7.08669 7.0867,-7.08669 3.91391,0 7.08669,3.17278 7.08669,7.08669 z"
       style="fill:#e6fae6;fill-opacity:1;fill-rule:nonzero;stroke:#006633;stroke-width:0.3985;stroke-linecap:butt;stroke-linejoin:miter;stroke-miterlimit:10;stroke-dasharray:none;stroke-opacity:1"
       transform="matrix(1.3333333,0,0,-1.3333333,134.64,115.74533)" />
    <path
       id="path25"
       d="m 188.36555,8.87157 -22.2165,-16.2896"
       style="fill:none;stroke:#006633;stroke-width:0.3985;stroke-linecap:butt;stroke-linejoin:miter;stroke-miterlimit:10;stroke-dasharray:none;stroke-opacity:1"
       transform="matrix(1.3333333,0,0,-1.3333333,134.64,115.74533)" />
    <path
       id="path26"
       d="M -2.07224,2.39104 C -1.69365,0.95639 -0.84999,0.27895 0,0 -0.84999,-0.27895 -1.69365,-0.95639 -2.07224,-2.39104"
       style="fill:none;stroke:#006633;stroke-width:0.3985;stroke-linecap:round;stroke-linejoin:round;stroke-miterlimit:10;stroke-dasharray:none;stroke-opacity:1"
       transform="matrix(-1.07524,0.78837333,0.78837333,1.07524,355.95781,125.79311)" />
    <path
       id="path27"
       d="m 204.09485,8.87157 7.6e-4,-16.12673"
       style="fill:none;stroke:#006633;stroke-width:0.3985;stroke-linecap:butt;stroke-linejoin:miter;stroke-miterlimit:10;stroke-dasharray:none;stroke-opacity:1"
       transform="matrix(1.3333333,0,0,-1.3333333,134.64,115.74533)" />
    <path
       id="path28"
       d="M -2.07224,2.39104 C -1.69365,0.95639 -0.84999,0.27895 0,0 -0.84999,-0.27895 -1.69365,-0.95639 -2.07224,-2.39104"
       style="fill:none;stroke:#006633;stroke-width:0.3985;stroke-linecap:round;stroke-linejoin:round;stroke-miterlimit:10;stroke-dasharray:none;stroke-opacity:1"
       transform="matrix(6.6666667e-5,1.3333067,1.3333067,-6.6666667e-5,406.76748,125.68452)" />
    <path
       id="path29"
       d="M 219.82416,8.87157 242.04219,-7.41805"
       style="fill:none;stroke:#006633;stroke-width:0.3985;stroke-linecap:butt;stroke-linejoin:miter;stroke-miterlimit:10;stroke-dasharray:none;stroke-opacity:1"
       transform="matrix(1.3333333,0,0,-1.3333333,134.64,115.74533)" />
    <path
       id="path30"
       d="M -2.07224,2.39104 C -1.69365,0.95639 -0.84999,0.27895 0,0 -0.84999,-0.27895 -1.69365,-0.95639 -2.07224,-2.39104"
       style="fill:none;stroke:#006633;stroke-width:0.3985;stroke-linecap:round;stroke-linejoin:round;stroke-miterlimit:10;stroke-dasharray:none;stroke-opacity:1"
       transform="matrix(1.0752533,0.78833333,0.78833333,-1.0752533,457.57716,125.79311)" />
    <g
       id="text30"
       transform="matrix(1.3333333,0,0,1.3333333,102.892,224.45867)"
       aria-label="ﻪﺘﺴﺑاوﻪﺑدﺮﻓﺮﯾﺬﭘ ﺐﯿﺳآاز ﺖﺑﺎﻗر">
      <path
         style="font-size:8.9664px;font-family:Vazirmatn;fill:#be1e2d"
         d="m 46.723488,0 q -0.643584,0 -1.00259,-0.30209063 -0.354629,-0.30209063 -0.459704,-0.83184377 -0.253931,0.25393126 -0.551643,0.38965314 -0.293335,0.13572188 -0.661097,0.13572188 -0.626072,0 -1.05075,-0.33711564 -0.424678,-0.33711558 -0.424678,-0.93254068 0,-0.6742312 0.551643,-1.1645812 0.551644,-0.4947282 1.733738,-0.8581125 l -0.03065,-0.21015 0.7005,-0.1401 0.380897,2.6881687 q 0.05254,0.3852751 0.249553,0.57791256 0.201394,0.18825938 0.582291,0.18825938 h 0.135722 V 0 Z m -1.637419,-2.2021969 q 0,-0.1357219 -0.01751,-0.2583094 l -0.109453,-0.7311469 q -0.849357,0.3064688 -1.23901,0.6041813 -0.385275,0.2977125 -0.385275,0.6523406 0,0.2889563 0.197016,0.4378125 0.197016,0.1488563 0.534131,0.1488563 0.25831,0 0.49035,-0.1006969 0.236419,-0.1006969 0.380897,-0.2933344 0.148856,-0.1926375 0.148856,-0.4597031 z m -4.321204,-2.5349344 0.612937,0.6085594 -0.612937,0.6173156 -0.60856,-0.6173156 z m -1.453538,0 0.612938,0.6085594 -0.612938,0.6173156 -0.608559,-0.6173156 z m -0.472837,3.94031254 h 0.612937 q 0.556022,0 0.792441,-0.24955314 0.240797,-0.2495531 0.240797,-0.7661719 0,-0.21015 -0.01313,-0.3984094 -0.0088,-0.1882593 -0.02627,-0.3765187 l 0.731147,-0.087562 0.07005,1.0244812 q 0.05254,0.85373444 0.88876,0.85373444 h 0.09194 V 0 H 42.126462 Q 41.64049,0 41.347155,-0.175125 41.058199,-0.35025001 40.878696,-0.66985314 40.642277,-0.32398126 40.257002,-0.16199063 39.871727,0 39.451427,0 H 38.83849 Z M 36.614398,0 q -0.4203,0 -0.678609,-0.175125 -0.25831,-0.17512501 -0.4203,-0.49472814 -0.245175,0.35462813 -0.547266,0.51224064 Q 34.670511,0 34.320261,0 33.816776,0 33.540954,-0.17074688 33.26951,-0.34587188 33.10752,-0.66985314 32.901748,-0.34587188 32.582145,-0.17074688 32.262542,0 31.671495,0 h -0.402788 v -0.79681876 h 0.411544 q 0.5604,0 0.818709,-0.20577184 0.25831,-0.21015 0.25831,-0.7617938 0,-0.1138313 -0.01313,-0.2670656 -0.0088,-0.1576125 -0.03065,-0.4378125 l 0.731146,-0.091941 0.07005,0.9150282 q 0.02627,0.3677625 0.223285,0.6085594 0.201394,0.24079684 0.591047,0.24079684 0.464081,0 0.63045,-0.24955314 0.166369,-0.2495531 0.166369,-0.7180125 0,-0.1138313 -0.01313,-0.2714438 -0.0088,-0.1576125 -0.03065,-0.4334343 l 0.731147,-0.091941 0.07005,0.9150282 q 0.02189,0.3546281 0.18826,0.6041812 0.166368,0.24517504 0.538509,0.24517504 0.647962,0 0.647962,-0.96756564 0,-0.1576125 -0.01313,-0.3283594 -0.0088,-0.1707469 -0.03065,-0.4509469 l 0.731147,-0.087563 0.07005,0.9850782 q 0.05254,0.84935624 0.866869,0.84935624 h 0.131344 V 0 H 38.891023 Q 38.43132,0 38.124851,-0.16636875 37.818382,-0.33711563 37.704551,-0.67423126 37.52067,-0.35025001 37.279873,-0.175125 37.043454,0 36.614398,0 Z m -7.18888,0 h -0.805575 v -0.79681876 h 0.796819 q 0.437812,0 0.591047,-0.25393124 0.157612,-0.2539313 0.157612,-0.6435844 0,-0.2845781 -0.05254,-0.6085594 -0.05254,-0.3239812 -0.113832,-0.6523406 l 0.761794,-0.1926375 q 0.07443,0.35025 0.118209,0.6873656 0.04378,0.3371156 0.04378,0.6435844 0,0.525375 -0.144478,0.93691876 -0.144479,0.41154376 -0.472838,0.64796251 Q 29.977162,0 29.425518,0 Z m 0.09632,0.66985314 0.634828,0.63482816 -0.634828,0.6348281 -0.634828,-0.6348281 z M 28.042031,-6.0286782 v 6.02430007 H 27.302128 V -6.0286782 Z m -1.843192,5.28001881 q 0,2.55682509 -2.806378,3.09533439 L 23.134152,1.6505532 q 1.006969,-0.1926376 1.606772,-0.6435844 0.599803,-0.44656879 0.709256,-1.12517818 -0.166369,0.0525375 -0.385275,0.09194063 -0.218906,0.03940313 -0.385275,0.03940313 -1.598016,0 -1.598016,-1.35721878 0,-0.3239813 0.09632,-0.6479625 0.100697,-0.3283594 0.288956,-0.5998031 0.192638,-0.2758219 0.46846,-0.4421907 0.275822,-0.1663687 0.626072,-0.1663687 0.415922,0 0.72239,0.2057719 0.310847,0.2057718 0.512241,0.5560218 0.201394,0.35025 0.302091,0.7880625 0.100696,0.4378126 0.100696,0.90189381 z m -1.497318,-0.0306469 q 0.385275,0 0.766172,-0.11383125 -0.04378,-0.73552499 -0.271444,-1.12517819 -0.227663,-0.3940312 -0.643585,-0.3940312 -0.288956,0 -0.450946,0.1795031 -0.157613,0.1795031 -0.223285,0.4246781 -0.06129,0.2407969 -0.06129,0.4378126 0,0.3196031 0.218907,0.45532496 0.218906,0.13572188 0.665475,0.13572188 z M 24.985504,0 q -0.643584,0 -1.00259,-0.30209063 -0.354628,-0.30209063 -0.459703,-0.83184377 -0.253932,0.25393126 -0.551644,0.38965314 -0.293334,0.13572188 -0.661097,0.13572188 -0.626072,0 -1.05075,-0.33711564 -0.424678,-0.33711558 -0.424678,-0.93254068 0,-0.6742312 0.551644,-1.1645812 0.551643,-0.4947282 1.733737,-0.8581125 l -0.03065,-0.21015 0.7005,-0.1401 0.380897,2.6881687 q 0.05254,0.3852751 0.249553,0.57791256 0.201394,0.18825938 0.582291,0.18825938 h 0.135722 V 0 Z m -1.637418,-2.2021969 q 0,-0.1357219 -0.01751,-0.2583094 L 23.22112,-3.1916532 q -0.849356,0.3064688 -1.239009,0.6041813 -0.385275,0.2977125 -0.385275,0.6523406 0,0.2889563 0.197015,0.4378125 0.197016,0.1488563 0.534132,0.1488563 0.258309,0 0.49035,-0.1006969 0.236418,-0.1006969 0.380896,-0.2933344 0.148857,-0.1926375 0.148857,-0.4597031 z M 18.470852,0 h -0.805575 v -0.79681876 h 0.796819 q 0.437812,0 0.591046,-0.25393124 0.157613,-0.2539313 0.157613,-0.6435844 0,-0.2845781 -0.05254,-0.6085594 -0.05254,-0.3239812 -0.113831,-0.6523406 l 0.761794,-0.1926375 q 0.07443,0.35025 0.118209,0.6873656 0.04378,0.3371156 0.04378,0.6435844 0,0.525375 -0.144479,0.93691876 -0.144478,0.41154376 -0.472837,0.64796251 Q 19.022496,0 18.470852,0 Z m 0.09632,0.66985314 0.634828,0.63482816 -0.634828,0.6348281 -0.634829,-0.6348281 z m -1.261285,-1.45791565 q 1.6812,0 1.6812,-0.87124689 0,-0.4115438 -0.4203,-0.8712469 -0.4203,-0.4597031 -1.392244,-0.9894563 l 0.345872,-0.6917437 q 1.125178,0.5735344 1.668066,1.2127406 0.547265,0.6348282 0.547265,1.3265719 0,0.82308754 -0.569156,1.24338754 -0.564778,0.42030001 -1.795031,0.42030001 -0.586669,0 -1.059506,-0.105075 v -0.79244064 q 0.573534,0.11820938 0.993834,0.11820938 z M 15.148592,0 q -0.302091,0 -0.507863,-0.07880625 -0.201394,-0.08318438 -0.315225,-0.175125 -0.06567,0.57353438 -0.319603,1.10766564 -0.249553,0.53850941 -0.753037,0.93691881 -0.503485,0.3984093 -1.33095,0.5604 l -0.25831,-0.6917438 q 1.068263,-0.2320406 1.506075,-0.81433126 0.437813,-0.57791251 0.437813,-1.37035315 0,-0.37214063 -0.08319,-0.77930629 -0.07881,-0.4115437 -0.223284,-0.8362219 l 0.726769,-0.245175 0.236418,0.9150282 q 0.09632,0.3677625 0.306469,0.52099686 0.21015,0.15323438 0.529753,0.15323438 h 0.166369 V 0 Z m -5.008575,-6.580322 0.634828,0.6348282 -0.634828,0.6348281 -0.6348282,-0.6348281 z m -0.3327375,5.78350324 q 0.4947285,0 0.7968185,-0.0569156 0.306469,-0.0569156 0.446569,-0.24955311 0.144478,-0.1970156 0.144478,-0.6085594 -0.214528,0.065672 -0.437812,0.1006969 -0.218907,0.035025 -0.472838,0.035025 -1.4885624,0 -1.4885624,-1.2214969 0,-0.4203 0.1663687,-0.8406 0.1707469,-0.4203 0.4991063,-0.7005 0.3283594,-0.2845782 0.7968184,-0.2845782 0.429057,0 0.735525,0.2189063 0.310847,0.2189062 0.507863,0.5910469 0.201394,0.3677625 0.297712,0.8362219 0.09632,0.4640812 0.09632,0.9588093 0,0.6523407 -0.118209,1.05512818 -0.113832,0.39840939 -0.367763,0.60855939 -0.253931,0.20577188 -0.661097,0.2802 Q 10.341411,0 9.754742,0 H 8.1435919 V -0.79681876 Z M 10.345789,-2.3291625 q 0.201394,0 0.398409,-0.035025 0.201394,-0.039403 0.402788,-0.096319 -0.03502,-0.3108469 -0.131344,-0.63045 -0.09194,-0.3196031 -0.275822,-0.5341313 -0.183881,-0.2189062 -0.49035,-0.2189062 -0.2714437,0 -0.4378124,0.1707469 -0.1619906,0.1707468 -0.2364188,0.4071656 -0.07005,0.2364188 -0.07005,0.4378125 0,0.3020906 0.2145282,0.4027875 0.2189062,0.096319 0.626072,0.096319 z"
         id="path35" />
      <path
         style="font-size:8.9664px;font-family:Vazirmatn;fill:#be1e2d"
         d="m 40.90749,10.958 q -0.302091,0 -0.507862,-0.07881 -0.201394,-0.08318 -0.315225,-0.175125 -0.06567,0.573534 -0.319604,1.107666 -0.249553,0.538509 -0.753037,0.936918 -0.503485,0.39841 -1.33095,0.5604 l -0.25831,-0.691743 q 1.068263,-0.232041 1.506075,-0.814332 0.437813,-0.577912 0.437813,-1.370353 0,-0.37214 -0.08318,-0.7793061 -0.07881,-0.4115437 -0.223285,-0.8362219 l 0.726769,-0.245175 0.236419,0.9150282 q 0.09632,0.3677625 0.306469,0.5209968 0.21015,0.153234 0.529753,0.153234 h 0.166368 V 10.958 Z m -6.322012,-0.796819 h 0.950053 q 0.437812,0 0.591047,-0.2539308 0.157612,-0.2539313 0.157612,-0.6435844 0,-0.2845781 -0.05254,-0.6085594 -0.05254,-0.3239813 -0.113831,-0.6523406 l 0.761793,-0.1926375 q 0.07443,0.35025 0.11821,0.6873656 0.04378,0.3371156 0.04378,0.6435844 0,0.525375 -0.144478,0.9369187 Q 36.75265,10.489541 36.42429,10.72596 36.095931,10.958 35.544287,10.958 h -0.958809 z m 1.580503,1.492941 0.612937,0.608559 -0.612937,0.617316 -0.608559,-0.617316 z m -1.453538,0 0.612938,0.608559 -0.612938,0.617316 -0.608559,-0.617316 z M 32.124971,4.7410626 32.759799,5.3758907 32.124971,6.0107189 31.490143,5.3758907 Z m 0.744282,4.6233001 q 0,-0.1138313 -0.05254,-0.2933344 Q 32.768556,8.887147 32.698506,8.7295345 L 31.923578,6.9739064 32.606565,6.6543032 33.600399,8.992222 q 0.201394,0.4728375 0.35025,0.7267688 0.153235,0.2539312 0.297713,0.3502502 0.148856,0.09194 0.337116,0.09194 h 0.183881 V 10.958 h -0.183881 q -0.345872,0 -0.564779,-0.08318 -0.214528,-0.08318 -0.37214,-0.249553 -0.157613,-0.166369 -0.319603,-0.4203 -0.306469,0.385275 -0.783685,0.569156 -0.472837,0.179503 -1.182093,0.179503 -0.306469,0 -0.551644,-0.02627 -0.245175,-0.03065 -0.464081,-0.08318 v -0.792441 q 0.503484,0.11821 0.950053,0.11821 1.571747,0 1.571747,-0.8055753 z m -5.844797,0.7968183 h 0.950053 q 0.437813,0 0.591047,-0.2539308 0.157613,-0.2539313 0.157613,-0.6435844 0,-0.2845781 -0.05254,-0.6085594 Q 28.618094,8.3311251 28.5568,8.0027658 l 0.761794,-0.1926375 q 0.07443,0.35025 0.118209,0.6873656 0.04378,0.3371156 0.04378,0.6435844 0,0.525375 -0.144478,0.9369187 -0.144478,0.411544 -0.472837,0.647963 -0.32836,0.23204 -0.880004,0.23204 h -0.958809 z m 1.584881,1.348463 0.591047,0.591047 -0.591047,0.591047 -0.591047,-0.591047 z m -1.497319,0 0.591047,0.591047 -0.591047,0.591047 -0.591046,-0.591047 z m 0.74866,1.107666 0.591047,0.591046 -0.591047,0.591047 -0.591047,-0.591047 z m -9.81954,-0.989457 0.634828,0.634828 -0.634828,0.634829 -0.634828,-0.634829 z m 2.56996,-3.2573247 0.731146,-0.087563 0.07443,1.0244812 q 0.02627,0.4159219 0.236418,0.6348282 0.214528,0.2189058 0.639207,0.2189058 h 0.105075 V 10.958 h -0.105075 q -0.494729,0 -0.814332,-0.183881 -0.315225,-0.188259 -0.520997,-0.599803 -0.363384,0.4203 -0.93254,0.604181 Q 19.459651,10.958 18.452682,10.958 h -0.731147 q -1.650553,0 -2.482397,-0.446569 -0.827466,-0.446568 -0.827466,-1.5454777 0,-0.3020907 0.06567,-0.5910469 0.07005,-0.2889563 0.179503,-0.5560219 l 0.67861,0.2539313 q -0.07005,0.1926375 -0.118209,0.4115437 -0.04378,0.2189063 -0.04378,0.4159219 0.0044,0.5122406 0.288957,0.7880625 0.284578,0.2714438 0.849356,0.3721411 0.564778,0.100696 1.409756,0.100696 h 0.731147 q 1.046372,0 1.619906,-0.2189058 0.577913,-0.2189063 0.577913,-0.7968188 0,-0.1795031 -0.01313,-0.385275 -0.0088,-0.2057719 -0.02627,-0.3896531 z m -9.982125,1.7906527 h 0.661096 q 0.556022,0 0.792441,-0.2495527 0.240797,-0.2495531 0.240797,-0.7661719 0,-0.21015 -0.01313,-0.3984094 -0.0088,-0.1882594 -0.02627,-0.3765187 l 0.731147,-0.087563 0.07005,1.0244812 q 0.05254,0.853734 0.888759,0.853734 h 0.09194 V 10.958 h -0.100697 q -0.485972,0 -0.779306,-0.175125 -0.288957,-0.175125 -0.46846,-0.494728 -0.236419,0.345872 -0.621694,0.507863 -0.385275,0.16199 -0.805575,0.16199 h -0.661096 z m 1.580503,1.492941 0.612937,0.608559 -0.612937,0.617316 -0.60856,-0.617316 z m -1.453538,0 0.612938,0.608559 -0.612938,0.617316 -0.608559,-0.617316 z M 6.6186099,10.958 q -0.5034844,0 -0.7793063,-0.170747 Q 5.5678599,10.612128 5.4058692,10.288147 5.2000974,10.612128 4.8804942,10.787253 4.5608911,10.958 3.9698442,10.958 H 3.5670567 v -0.796819 h 0.4115438 q 0.5604,0 0.8187094,-0.2057715 0.2583093,-0.21015 0.2583093,-0.7617937 0,-0.1138313 -0.013134,-0.2670657 -0.00876,-0.1576125 -0.030647,-0.4378125 l 0.7311469,-0.091941 0.07005,0.9150282 q 0.026269,0.3677625 0.2232844,0.6085593 0.2013937,0.2407965 0.5910468,0.2407965 0.4640813,0 0.6304501,-0.2495527 0.1663687,-0.2495531 0.1663687,-0.7180125 0,-0.1138313 -0.013134,-0.2714438 -0.00876,-0.1576125 -0.030647,-0.4334344 l 0.7311468,-0.091941 0.07005,0.9150282 q 0.021891,0.3546281 0.1882594,0.6041812 0.1663688,0.2451746 0.5385094,0.2451746 0.3633844,0 0.4991063,-0.2714433 0.1357218,-0.2714438 0.1357218,-0.6348282 0,-0.3283594 -0.065672,-0.6610969 Q 9.4162318,8.2610751 9.3680724,8.0553033 L 10.116732,7.8539095 q 0.07881,0.2933344 0.126965,0.6260719 0.04816,0.3283594 0.04816,0.6567188 0,0.4728375 -0.131344,0.8887598 -0.131344,0.415921 -0.4334343,0.674231 -0.2977125,0.253931 -0.8143313,0.258309 -0.4203,0 -0.6786094,-0.175125 Q 7.9758287,10.60775 7.813838,10.288147 7.568663,10.642775 7.2665724,10.800388 6.9688599,10.958 6.6186099,10.958 Z M 3.050438,4.3820563 q 0.061294,0.030647 0.1269656,0.030647 0.1225875,0 0.4378125,-0.2845781 L 3.8385005,3.9267313 4.2369099,4.2857376 3.9917349,4.5177782 Q 3.7596942,4.7366845 3.5845692,4.8417595 3.4138224,4.9424563 3.2386974,4.9424563 q -0.1663688,0 -0.3940313,-0.1006968 L 2.279888,4.5834501 q -0.061294,-0.026269 -0.1138313,-0.043781 -0.052538,-0.017513 -0.1006969,-0.017513 -0.096319,0 -0.2189062,0.078806 -0.1225875,0.078806 -0.3283594,0.2845781 L 1.2685411,5.1350938 0.87013169,4.7760876 1.1240629,4.5134001 Q 1.4086411,4.2200657 1.6056567,4.1018563 1.8070505,3.9792688 1.9865536,3.9792688 q 0.1182094,0 0.2364187,0.039403 0.1225875,0.039403 0.2626875,0.105075 z M 2.9847661,5.4984782 V 10.953622 H 2.244863 V 5.4984782 Z"
         id="path36" />
      <path
         style="font-size:8.9664px;font-family:Vazirmatn;fill:#be1e2d"
         d="m 35.349024,15.888322 v 6.0243 h -0.739903 v -6.0243 z m -3.28037,1.523587 0.634828,0.634828 -0.634828,0.634828 -0.634828,-0.634828 z m -1.602394,6.860522 -0.258309,-0.696122 q 1.068263,-0.23204 1.506075,-0.814331 0.437813,-0.577913 0.437813,-1.370353 0,-0.372141 -0.08319,-0.779306 -0.07881,-0.411544 -0.223284,-0.836222 l 0.726769,-0.245175 q 0.315225,0.897515 0.315225,1.729359 0,0.731147 -0.25831,1.352841 -0.253931,0.626072 -0.79244,1.059506 -0.534132,0.437812 -1.370354,0.599803 z m -8.637447,-6.650372 0.612938,0.60856 -0.612938,0.617315 -0.608559,-0.617315 z m -1.453537,0 0.612937,0.60856 -0.612937,0.617315 -0.608559,-0.617315 z m 3.375534,1.707469 0.731147,-0.08756 0.07443,1.024482 q 0.02627,0.415922 0.236419,0.634828 0.214528,0.218906 0.639206,0.218906 h 0.105075 V 21.917 H 25.43201 q -0.494728,0 -0.814331,-0.183881 -0.315225,-0.18826 -0.520997,-0.599804 -0.363384,0.4203 -0.93254,0.604182 Q 22.599364,21.917 21.592395,21.917 h -0.731147 q -1.650553,0 -2.482397,-0.446569 -0.827466,-0.446569 -0.827466,-1.545478 0,-0.302091 0.06567,-0.591047 0.07005,-0.288956 0.179503,-0.556022 l 0.67861,0.253931 q -0.07005,0.192638 -0.11821,0.411544 -0.04378,0.218906 -0.04378,0.415922 0.0044,0.512241 0.288956,0.788063 0.284578,0.271443 0.849357,0.37214 0.564778,0.100697 1.409756,0.100697 h 0.731147 q 1.046372,0 1.619906,-0.218906 0.577913,-0.218906 0.577913,-0.796819 0,-0.179503 -0.01313,-0.385275 -0.0088,-0.205772 -0.02627,-0.389653 z M 15.187199,21.917 h -0.805575 v -0.796819 h 0.796819 q 0.437812,0 0.591046,-0.253931 0.157613,-0.253931 0.157613,-0.643585 0,-0.284578 -0.05254,-0.608559 -0.05254,-0.323981 -0.113831,-0.652341 l 0.761794,-0.192637 q 0.07443,0.35025 0.118209,0.687366 0.04378,0.337115 0.04378,0.643584 0,0.525375 -0.144479,0.936919 -0.144478,0.411543 -0.472837,0.647962 Q 15.738843,21.917 15.187199,21.917 Z m 0.09632,0.669853 0.634828,0.634828 -0.634828,0.634828 -0.634829,-0.634828 z m -2.486776,-6.698531 h 0.739903 v 4.185487 q 0,0.617316 0.227663,0.831844 0.227662,0.214528 0.687366,0.214528 h 0.109453 V 21.917 h -0.109453 q -0.836222,0 -1.247766,-0.442191 -0.407166,-0.446569 -0.407166,-1.405378 z m -2.127768,-0.46846 0.612937,0.60856 -0.612937,0.617315 -0.60856,-0.617315 z m -1.4535378,0 0.6129375,0.60856 -0.6129375,0.617315 -0.6085594,-0.617315 z m 0.3896531,5.700319 q 0.4947277,0 0.7968187,-0.05692 0.306469,-0.05692 0.446569,-0.249553 0.144478,-0.197015 0.144478,-0.608559 -0.214528,0.06567 -0.437813,0.100697 -0.218906,0.03503 -0.472837,0.03503 -1.4885626,0 -1.4885626,-1.221497 0,-0.4203 0.1663688,-0.8406 0.1707468,-0.4203 0.4991062,-0.7005 0.3283594,-0.284578 0.7968186,-0.284578 0.429056,0 0.735525,0.218906 0.310847,0.218906 0.507863,0.591047 0.201393,0.367762 0.297712,0.836222 0.09632,0.464081 0.09632,0.958809 0,0.652341 -0.118209,1.055128 -0.113832,0.39841 -0.367763,0.60856 -0.253931,0.205772 -0.661097,0.2802 Q 10.139221,21.917 9.5525518,21.917 h -1.61115 v -0.796819 z m 0.5385097,-1.532344 q 0.201393,0 0.398409,-0.03503 0.201394,-0.0394 0.402788,-0.09632 -0.03503,-0.310847 -0.131344,-0.63045 -0.09194,-0.319604 -0.275822,-0.534132 -0.183881,-0.218906 -0.49035,-0.218906 -0.2714438,0 -0.4378126,0.170747 -0.1619906,0.170747 -0.2364187,0.407166 -0.07005,0.236418 -0.07005,0.437812 0,0.302091 0.2145281,0.402788 0.2189063,0.09632 0.6260722,0.09632 z M 4.5469889,24.272431 4.2886795,23.576309 q 1.0682626,-0.23204 1.5060751,-0.814331 0.4378125,-0.577913 0.4378125,-1.370353 0,-0.372141 -0.083184,-0.779306 -0.078806,-0.411544 -0.2232844,-0.836222 l 0.7267688,-0.245175 q 0.315225,0.897515 0.315225,1.729359 0,0.731147 -0.2583094,1.352841 -0.2539312,0.626072 -0.7924406,1.059506 -0.5341313,0.437812 -1.3703532,0.599803 z"
         id="path37" />
    </g>
    <g
       id="text32"
       transform="matrix(1.3333333,0,0,1.3333333,372.35867,224.45867)"
       aria-label="ﻞﻘﺘﺴﻣزاداﺮﻓاراﺪﯾﺎﭘرﻮﺤﻣ یرﺎﮑﻤﻫ">
      <path
         style="font-size:8.9664px;font-family:Vazirmatn;fill:#006633"
         d="m 46.918231,2.17155 q -0.814331,0 -1.326572,-0.2933343 Q 45.079419,1.5892594 44.838622,1.0682625 44.597825,0.54726563 44.597825,-0.1401 q 0,-0.46408126 0.09632,-0.9500531 0.09632,-0.4903501 0.262687,-0.9544313 l 0.696122,0.2802 q -0.126966,0.4027875 -0.214528,0.82746563 -0.08756,0.42467814 -0.08756,0.82308752 0,0.70925626 0.359007,1.10328752 0.363384,0.39403123 1.208362,0.39403123 0.783685,0 1.177716,-0.42905623 0.398409,-0.42905626 0.398409,-1.38348753 V -6.0286782 h 0.739903 v 4.238025 q 0,0.4903501 0.179504,0.7442813 0.183881,0.24955314 0.713634,0.24955314 h 0.131344 V 0 h -0.122588 q -0.385275,0 -0.551644,-0.07442813 -0.166368,-0.07880625 -0.354628,-0.25830938 0,1.25214378 -0.591047,1.87821571 Q 48.047788,2.17155 46.918231,2.17155 Z m -4.141708,-7.7142563 0.612938,0.6085593 -0.612938,0.6173157 -0.608559,-0.6173157 z m -1.453537,0 0.612937,0.6085593 -0.612937,0.6173157 -0.60856,-0.6173157 z m 2.294137,3.4806094 q 0,0.3458719 -0.153234,0.6435844 -0.153235,0.2933344 -0.4203,0.60418124 0.249553,0.0131344 0.44219,0.0175125 0.192638,0 0.341494,0 h 0.424678 V 0 h -0.411544 q -0.166368,0 -0.459703,-0.02626875 -0.288956,-0.03064688 -0.639206,-0.10069688 -0.345872,-0.07005 -0.682987,-0.18825938 -0.337116,0.12258751 -0.691744,0.19263751 -0.354628,0.06567187 -0.656719,0.09631875 Q 40.407957,0 40.228454,0 h -0.612937 v -0.79681876 h 0.612937 q 0.183881,0 0.380897,0 0.201394,-0.004378 0.485972,-0.0218906 -0.262688,-0.30646871 -0.411544,-0.60855941 -0.148856,-0.3020906 -0.148856,-0.6435844 0,-0.2714437 0.126966,-0.5472656 0.126965,-0.2758219 0.341493,-0.5122406 0.214528,-0.2364188 0.49035,-0.3765188 0.275822,-0.1444781 0.569157,-0.1444781 0.306468,0 0.586668,0.1444781 0.2802,0.1401 0.494729,0.3765188 0.218906,0.2320406 0.345871,0.5122406 0.126966,0.2802 0.126966,0.5560219 z m -1.554234,-0.8143313 q -0.166369,0 -0.35025,0.1269657 -0.179503,0.1225875 -0.306469,0.3108468 -0.122588,0.1882594 -0.122588,0.385275 0,0.2013938 0.11821,0.4115438 0.118209,0.21015 0.297712,0.385275 0.183882,0.175125 0.372141,0.27144376 0.332737,-0.14009996 0.564778,-0.45094686 0.236419,-0.315225 0.236419,-0.6260719 0,-0.1838813 -0.131344,-0.3721406 -0.126966,-0.1882594 -0.315225,-0.315225 -0.188259,-0.1269657 -0.363384,-0.1269657 z m -3.73454,-1.8607031 0.612937,0.6085594 -0.612937,0.6173156 -0.60856,-0.6173156 z m -1.453538,0 0.612938,0.6085594 -0.612938,0.6173156 -0.608559,-0.6173156 z m -0.472837,3.94031254 h 0.612937 q 0.556022,0 0.792441,-0.24955314 0.240797,-0.2495531 0.240797,-0.7661719 0,-0.21015 -0.01314,-0.3984094 -0.0088,-0.1882593 -0.02627,-0.3765187 l 0.731147,-0.087562 0.07005,1.0244812 q 0.05254,0.85373444 0.888759,0.85373444 h 0.09194 V 0 H 39.689946 Q 39.203974,0 38.910639,-0.175125 38.621683,-0.35025001 38.44218,-0.66985314 38.205761,-0.32398126 37.820486,-0.16199063 37.435211,0 37.014911,0 H 36.401974 Z M 34.177886,0 q -0.4203,0 -0.678609,-0.175125 -0.25831,-0.17512501 -0.4203,-0.49472814 -0.245175,0.35462813 -0.547266,0.51224064 Q 32.233999,0 31.883749,0 31.380264,0 31.104442,-0.17074688 30.832998,-0.34587188 30.671008,-0.66985314 30.465236,-0.34587188 30.145633,-0.17074688 29.82603,0 29.234983,0 h -0.402788 v -0.79681876 h 0.411544 q 0.5604,0 0.818709,-0.20577184 0.25831,-0.21015 0.25831,-0.7617938 0,-0.1138313 -0.01314,-0.2670656 -0.0088,-0.1576125 -0.03065,-0.4378125 l 0.731147,-0.091941 0.07005,0.9150282 q 0.02627,0.3677625 0.223284,0.6085594 0.201394,0.24079684 0.591047,0.24079684 0.464081,0 0.63045,-0.24955314 0.166369,-0.2495531 0.166369,-0.7180125 0,-0.1138313 -0.01313,-0.2714438 -0.0088,-0.1576125 -0.03065,-0.4334343 l 0.731147,-0.091941 0.07005,0.9150282 q 0.02189,0.3546281 0.18826,0.6041812 0.166368,0.24517504 0.538509,0.24517504 0.647962,0 0.647962,-0.96756564 0,-0.1576125 -0.01313,-0.3283594 -0.0088,-0.1707469 -0.03065,-0.4509469 l 0.731147,-0.087563 0.07005,0.9850782 q 0.05254,0.84935624 0.866869,0.84935624 h 0.131344 V 0 H 36.454511 Q 35.994808,0 35.688339,-0.16636875 35.38187,-0.33711563 35.268039,-0.67423126 35.084158,-0.35025001 34.843361,-0.175125 34.606942,0 34.177886,0 Z m -7.070672,0.10069688 q -0.437812,0 -0.809953,-0.18825938 Q 25.929499,-0.2802 25.531089,-0.66547501 25.246511,-0.34587188 24.983824,-0.17074688 24.721136,0 24.24392,0 h -0.192637 v -0.79681876 h 0.170747 q 0.293334,0 0.494728,-0.16636876 0.201394,-0.17074688 0.359006,-0.43781248 0.157613,-0.2670657 0.310847,-0.5647782 0.157613,-0.3020906 0.35025,-0.5691562 0.192638,-0.2670656 0.464081,-0.4334344 0.275822,-0.1707469 0.67861,-0.1707469 0.485972,0 0.844978,0.2364188 0.363384,0.2320406 0.5604,0.6260719 0.201394,0.3940312 0.201394,0.8800031 0,0.71363439 -0.363385,1.10766565 -0.359006,0.38965313 -1.015725,0.38965313 z m -0.21015,-2.46488438 q -0.218906,0 -0.398409,0.1488562 -0.179503,0.1444781 -0.323981,0.3765188 -0.144479,0.2320406 -0.25831,0.4815937 0.262688,0.2758219 0.542888,0.45094691 0.359006,0.23204063 0.639206,0.23204063 0.647963,0 0.647963,-0.65234064 0,-0.455325 -0.227663,-0.7442813 -0.223284,-0.2933343 -0.621694,-0.2933343 z m -1.616124,-2.1409032 0.634828,0.6348281 -0.634828,0.6348282 -0.634828,-0.6348282 z m -1.602394,6.860522 -0.258309,-0.6961219 q 1.068263,-0.2320406 1.506075,-0.81433126 0.437813,-0.57791251 0.437813,-1.37035315 0,-0.37214063 -0.08319,-0.77930629 -0.07881,-0.4115437 -0.223284,-0.8362219 l 0.726769,-0.245175 q 0.315225,0.8975157 0.315225,1.72935944 0,0.73114689 -0.25831,1.35284065 Q 25.587409,1.3221938 25.0489,1.7556282 24.514768,2.1934407 23.678546,2.3554313 Z M 23.41586,-6.0286782 v 6.02430007 H 22.675957 V -6.0286782 Z m -1.861089,5.24061569 q 1.6812,0 1.6812,-0.87124689 0,-0.4115438 -0.4203,-0.8712469 -0.4203,-0.4597031 -1.392244,-0.9894563 l 0.345872,-0.6917437 q 1.125178,0.5735344 1.668066,1.2127406 0.547266,0.6348282 0.547266,1.3265719 0,0.82308754 -0.569157,1.24338754 -0.564778,0.42030001 -1.795031,0.42030001 -0.586669,0 -1.059506,-0.105075 v -0.79244064 q 0.573534,0.11820938 0.993834,0.11820938 z M 19.457648,-6.0286782 v 6.02430007 H 18.717745 V -6.0286782 Z M 17.407531,0 q -0.302091,0 -0.507863,-0.07880625 -0.201394,-0.08318438 -0.315225,-0.175125 -0.06567,0.57353438 -0.319603,1.10766564 -0.249553,0.53850941 -0.753038,0.93691881 -0.503484,0.3984093 -1.33095,0.5604 L 13.922543,1.6593094 q 1.068263,-0.2320406 1.506075,-0.81433126 0.437813,-0.57791251 0.437813,-1.37035315 0,-0.37214063 -0.08319,-0.77930629 -0.07881,-0.4115437 -0.223284,-0.8362219 l 0.726769,-0.245175 0.236418,0.9150282 q 0.09632,0.3677625 0.306469,0.52099686 0.21015,0.15323438 0.529753,0.15323438 H 17.52574 V 0 Z m -5.008576,-6.580322 0.634828,0.6348282 -0.634828,0.6348281 -0.634828,-0.6348281 z m -0.332738,5.78350324 q 0.494728,0 0.796819,-0.0569156 0.306469,-0.0569156 0.446569,-0.24955311 0.144478,-0.1970156 0.144478,-0.6085594 -0.214528,0.065672 -0.437813,0.1006969 -0.218906,0.035025 -0.472837,0.035025 -1.488563,0 -1.488563,-1.2214969 0,-0.4203 0.166369,-0.8406 0.170747,-0.4203 0.499106,-0.7005 0.32836,-0.2845782 0.796819,-0.2845782 0.429056,0 0.735525,0.2189063 0.310847,0.2189062 0.507863,0.5910469 0.201393,0.3677625 0.297712,0.8362219 0.09632,0.4640812 0.09632,0.9588093 0,0.6523407 -0.118209,1.05512818 -0.113832,0.39840939 -0.367763,0.60855939 -0.253931,0.20577188 -0.661097,0.2802 Q 12.600349,0 12.01368,0 h -1.61115 v -0.79681876 z m 0.53851,-1.53234374 q 0.201393,0 0.398409,-0.035025 0.201394,-0.039403 0.402788,-0.096319 -0.03503,-0.3108469 -0.131344,-0.63045 -0.09194,-0.3196031 -0.275822,-0.5341313 -0.183881,-0.2189062 -0.49035,-0.2189062 -0.271444,0 -0.437813,0.1707469 -0.16199,0.1707468 -0.236418,0.4071656 -0.07005,0.2364188 -0.07005,0.4378125 0,0.3020906 0.214528,0.4027875 0.218906,0.096319 0.626072,0.096319 z M 9.8202387,-6.0286782 v 6.02430007 H 9.0803355 V -6.0286782 Z"
         id="path38" />
      <path
         style="font-size:8.9664px;font-family:Vazirmatn;fill:#006633"
         d="m 31.255385,13.313431 -0.25831,-0.696121 q 1.068263,-0.232041 1.506076,-0.814332 0.437812,-0.577912 0.437812,-1.370353 0,-0.37214 -0.08318,-0.7793061 -0.07881,-0.4115437 -0.223285,-0.8362219 l 0.726769,-0.245175 q 0.315225,0.8975157 0.315225,1.729359 0,0.731147 -0.258309,1.352841 -0.253932,0.626072 -0.792441,1.059506 -0.534131,0.437813 -1.370353,0.599803 z M 30.992697,4.929322 v 6.0243 h -0.739903 v -6.0243 z m -3.2223,4.4350407 q 0,-0.1138313 -0.05254,-0.2933344 Q 27.6697,8.887147 27.59965,8.7295345 L 26.824722,6.9739064 27.50771,6.6543032 28.501544,8.992222 q 0.201394,0.4728375 0.35025,0.7267688 0.153234,0.2539312 0.297712,0.3502502 0.148857,0.09194 0.337116,0.09194 h 0.183881 V 10.958 h -0.183881 q -0.345872,0 -0.564778,-0.08318 -0.214528,-0.08318 -0.372141,-0.249553 -0.157612,-0.166369 -0.319603,-0.4203 -0.306469,0.385275 -0.783684,0.569156 -0.472838,0.179503 -1.182094,0.179503 -0.306469,0 -0.551644,-0.02627 -0.245175,-0.03065 -0.464081,-0.08318 v -0.792441 q 0.503484,0.11821 0.950053,0.11821 1.571747,0 1.571747,-0.8055753 z M 21.9256,10.161181 h 0.950053 q 0.437813,0 0.591047,-0.2539308 0.157613,-0.2539313 0.157613,-0.6435844 0,-0.2845781 -0.05254,-0.6085594 -0.05254,-0.3239813 -0.113831,-0.6523406 l 0.761794,-0.1926375 q 0.07443,0.35025 0.118209,0.6873656 0.04378,0.3371156 0.04378,0.6435844 0,0.525375 -0.144478,0.9369187 -0.144478,0.411544 -0.472837,0.647963 -0.32836,0.23204 -0.880004,0.23204 H 21.9256 Z m 1.580503,1.492941 0.612938,0.608559 -0.612938,0.617316 -0.608559,-0.617316 z m -1.453537,0 0.612937,0.608559 -0.612937,0.617316 -0.60856,-0.617316 z m -1.707469,-6.7248 H 21.085 v 4.1854875 q 0,0.6173157 0.227663,0.8318438 0.227662,0.2145277 0.687365,0.2145277 h 0.109453 V 10.958 h -0.109453 q -0.836222,0 -1.247765,-0.44219 -0.407166,-0.446569 -0.407166,-1.4053786 z m -3.559416,5.231859 h 0.950053 q 0.437813,0 0.591047,-0.2539308 0.157613,-0.2539313 0.157613,-0.6435844 0,-0.2845781 -0.05254,-0.6085594 -0.05254,-0.3239813 -0.113831,-0.6523406 l 0.761794,-0.1926375 q 0.07443,0.35025 0.118209,0.6873656 0.04378,0.3371156 0.04378,0.6435844 0,0.525375 -0.144478,0.9369187 -0.144478,0.411544 -0.472837,0.647963 -0.32836,0.23204 -0.880004,0.23204 h -0.958809 z m 1.584881,1.348463 0.591047,0.591047 -0.591047,0.591047 -0.591047,-0.591047 z m -1.497318,0 0.591046,0.591047 -0.591046,0.591047 -0.591047,-0.591047 z m 0.748659,1.107666 0.591047,0.591046 -0.591047,0.591047 -0.591047,-0.591047 z"
         id="path39" />
      <path
         style="font-size:8.9664px;font-family:Vazirmatn;fill:#006633"
         d="m 42.935988,24.272431 -0.258309,-0.696122 q 1.068262,-0.23204 1.506075,-0.814331 0.437812,-0.577913 0.437812,-1.370353 0,-0.372141 -0.08318,-0.779306 -0.07881,-0.411544 -0.223284,-0.836222 l 0.726768,-0.245175 q 0.315225,0.897515 0.315225,1.729359 0,0.731147 -0.258309,1.352841 -0.253931,0.626072 -0.792441,1.059506 -0.534131,0.437812 -1.370353,0.599803 z M 40.650607,18.71659 q 0.682987,0 1.151447,0.612938 0.468459,0.608559 0.485972,1.790653 h 0.529753 V 21.917 h -0.599803 q -0.09632,0.503484 -0.385275,0.971944 -0.284579,0.472837 -0.849357,0.831843 -0.564778,0.363385 -1.497318,0.542888 l -0.25831,-0.696122 Q 41.211007,23.186656 41.526232,21.917 h -0.691744 q -1.659309,0 -1.659309,-1.344085 0,-0.429056 0.170747,-0.858112 0.175125,-0.429056 0.503484,-0.713634 0.332737,-0.284579 0.801197,-0.284579 z m 0.1401,2.403591 h 0.774928 q -0.05254,-0.844978 -0.2802,-1.230253 -0.223284,-0.385275 -0.647963,-0.385275 -0.2802,0 -0.44219,0.179503 -0.157613,0.179503 -0.223285,0.424678 -0.06129,0.240797 -0.06129,0.437813 0,0.306468 0.205772,0.44219 0.21015,0.131344 0.674231,0.131344 z M 38.251395,19.48714 v 0.757416 q -0.18826,0.01751 -0.442191,0.09632 -0.253931,0.07443 -0.538509,0.21015 0.0088,0.363384 0.35025,0.468459 0.341493,0.100697 0.967565,0.100697 h 0.240797 V 21.917 h -0.258309 q -0.893138,0 -1.339706,-0.236419 -0.442191,-0.236419 -0.529754,-0.849356 -0.866868,0.472837 -1.6812,0.779306 Q 34.210385,21.917 33.273466,21.917 H 32.54232 v -0.796819 h 0.744281 q 0.51224,0 0.941297,-0.09194 0.429056,-0.09194 0.836222,-0.253931 0.411543,-0.16199 0.858112,-0.380897 0.450947,-0.223284 1.006969,-0.477215 -0.310847,-0.113832 -0.643584,-0.245175 -0.332738,-0.135722 -0.634829,-0.253932 -0.297712,-0.118209 -0.520996,-0.192637 -0.223285,-0.07881 -0.315225,-0.07881 -0.267066,0 -0.472838,0.157612 -0.201394,0.153235 -0.372141,0.372141 l -0.118209,0.148856 -0.669853,-0.328359 0.06567,-0.105075 q 0.288956,-0.46846 0.669853,-0.74866 0.385275,-0.284578 0.901894,-0.284578 0.214528,0 0.516618,0.109453 0.306469,0.109453 0.665475,0.275822 0.359007,0.161991 0.744282,0.332738 0.385275,0.166368 0.77055,0.284578 0.385275,0.113831 0.735525,0.126965 z m -7.434058,2.530557 q -0.437813,0 -0.809954,-0.18826 Q 29.639621,21.6368 29.241212,21.251525 28.956633,21.571128 28.693946,21.746253 28.431258,21.917 27.954043,21.917 h -0.192638 v -0.796819 h 0.170747 q 0.293335,0 0.494728,-0.166369 0.201394,-0.170747 0.359007,-0.437812 0.157612,-0.267066 0.310846,-0.564778 0.157613,-0.302091 0.35025,-0.569157 0.192638,-0.267065 0.464082,-0.433434 0.275822,-0.170747 0.678609,-0.170747 0.485972,0 0.844978,0.236419 0.363385,0.232041 0.5604,0.626072 0.201394,0.394031 0.201394,0.880003 0,0.713634 -0.363384,1.107666 -0.359007,0.389653 -1.015725,0.389653 z m -0.21015,-2.464885 q -0.218907,0 -0.39841,0.148857 -0.179503,0.144478 -0.323981,0.376518 -0.144478,0.232041 -0.258309,0.481594 0.262687,0.275822 0.542887,0.450947 0.359006,0.232041 0.639206,0.232041 0.647963,0 0.647963,-0.652341 0,-0.455325 -0.227663,-0.744281 -0.223284,-0.293335 -0.621693,-0.293335 z m -10.756459,1.567369 h 1.247766 q 0.437812,0 0.591047,-0.253931 0.157612,-0.253931 0.157612,-0.643585 0,-0.284578 -0.05254,-0.608559 -0.05254,-0.323981 -0.113831,-0.652341 l 0.761793,-0.192637 q 0.07443,0.35025 0.11821,0.687366 0.04378,0.337115 0.04378,0.643584 0,0.525375 -0.144478,0.936919 -0.144478,0.411543 -0.472838,0.647962 Q 21.658894,21.917 21.10725,21.917 h -1.256522 z m 1.878216,1.492941 0.612937,0.608559 -0.612937,0.617316 -0.608559,-0.617316 z m -1.453538,0 0.612938,0.608559 -0.612938,0.617316 -0.608559,-0.617316 z M 19.907644,21.917 q -0.30209,0 -0.507862,-0.07881 -0.201394,-0.08319 -0.315225,-0.175125 -0.06567,0.573534 -0.319603,1.107665 -0.249554,0.53851 -0.753038,0.936919 -0.503484,0.398409 -1.33095,0.5604 l -0.258309,-0.691744 q 1.068262,-0.23204 1.506075,-0.814331 0.437812,-0.577913 0.437812,-1.370353 0,-0.372141 -0.08318,-0.779306 -0.07881,-0.411544 -0.223285,-0.836222 l 0.726769,-0.245175 0.236419,0.915028 q 0.09632,0.367762 0.306469,0.520997 0.21015,0.153234 0.529753,0.153234 h 0.166369 V 21.917 Z m -5.109272,-6.028678 h 0.739904 v 4.185487 q 0,0.617316 0.227662,0.831844 0.227663,0.214528 0.687366,0.214528 h 0.109453 V 21.917 h -0.109453 q -0.836222,0 -1.247766,-0.442191 -0.407166,-0.446569 -0.407166,-1.405378 z m -4.286184,1.781896 q 0.499106,0.350251 0.954431,0.696122 0.459703,0.341494 0.827466,0.744282 0.367762,0.398409 0.582291,0.928162 0.23204,0.564778 0.49035,0.823088 0.258309,0.258309 0.726768,0.258309 h 0.122588 V 21.917 h -0.122588 q -0.485972,0 -0.827465,-0.18826 -0.337116,-0.188259 -0.604182,-0.599803 -0.175125,0.25831 -0.429056,0.433435 -0.249553,0.175125 -0.656719,0.267065 Q 11.173285,21.917 10.529701,21.917 H 9.461438 v -0.796819 h 1.063884 q 0.849357,0 1.217119,-0.148856 0.367763,-0.153235 0.367763,-0.604181 0,-0.288957 -0.205772,-0.564779 -0.201394,-0.275821 -0.525375,-0.542887 -0.319603,-0.271444 -0.687366,-0.529753 -0.367762,-0.262688 -0.6917436,-0.516619 -0.1401,-0.113831 -0.2145281,-0.267066 -0.074428,-0.153234 -0.074428,-0.310847 0,-0.179503 0.096319,-0.337115 0.1006969,-0.157613 0.3108471,-0.240797 l 3.147872,-1.278413 v 0.774929 z M 4.5141572,21.917 H 4.3215197 v -0.796819 h 0.1707469 q 0.2933343,0 0.4947281,-0.166369 Q 5.1883884,20.783065 5.3460009,20.516 5.5036134,20.248934 5.6568478,19.951222 5.8144603,19.649131 6.0070978,19.382065 6.1997353,19.115 6.4711791,18.948631 6.747001,18.777884 7.1497885,18.777884 q 0.6873656,0 1.0682625,0.4203 0.3808969,0.415922 0.5122406,1.037616 0.087563,0.429056 0.2977125,0.656719 0.2145282,0.227662 0.4947282,0.227662 H 9.6365635 V 21.917 H 9.5183541 q -0.2802,0 -0.5472656,-0.113831 -0.2670656,-0.11821 -0.4334344,-0.372141 -0.1838812,0.267066 -0.455325,0.429056 -0.2714437,0.157613 -0.7048781,0.157613 -0.4378125,0 -0.8099532,-0.18826 Q 6.1997353,21.6368 5.8013259,21.251525 5.5167478,21.571128 5.2540603,21.746253 4.9913728,21.917 4.5141572,21.917 Z M 7.167301,19.552812 q -0.2189063,0 -0.3984094,0.148857 -0.1795031,0.144478 -0.3239813,0.376518 -0.1444781,0.232041 -0.2583093,0.481594 0.1444781,0.148856 0.2889562,0.267066 0.1444781,0.118209 0.2802,0.201393 0.35025,0.214529 0.6129375,0.214529 0.6479625,0 0.6479625,-0.652341 0,-0.455325 -0.2276625,-0.744281 Q 7.5657104,19.552812 7.167301,19.552812 Z M 0.52130707,18.361962 0.86717895,17.714 q 1.57174685,0.766172 2.34229695,1.370353 0.77055,0.599803 0.77055,1.225875 0,0.774928 -0.4815938,1.168959 -0.4772156,0.394032 -1.2827906,0.394032 -0.3020907,0 -0.6435844,-0.04816 Q 1.2305633,21.7769 0.92409457,21.70685 0.61762582,21.632422 0.40747581,21.562372 0.02657893,21.702472 -0.4856617,21.811925 -0.99790233,21.917 -1.475118,21.917 h -0.4334343 v -0.796819 h 0.3765187 q 0.2889563,0 0.5078625,-0.01313 0.22328439,-0.01314 0.4859719,-0.04378 Q -0.84028983,20.81809 -0.97601171,20.529134 -1.1073555,20.2358 -1.1073555,19.924953 q 0,-0.455325 0.21452817,-0.783684 0.21452813,-0.32836 0.56915626,-0.503485 0.35462813,-0.179503 0.77492813,-0.179503 0.18825938,0 0.37651876,0.04816 -0.14885625,-0.07005 -0.30646875,-0.144478 z m 0.79244063,2.718816 q 0.1926375,0.02189 0.4203,0.04378 0.2276625,0.01751 0.4027875,0.01751 0.5297532,0 0.805575,-0.197016 0.2802,-0.201394 0.2802,-0.621694 0,-0.214528 -0.245175,-0.464081 Q 2.7322602,19.60535 2.3207165,19.338284 1.9135508,19.06684 1.4188227,18.804153 q 0.2407969,0.192637 0.385275,0.464081 0.1488563,0.271444 0.1488563,0.573535 0,0.411543 -0.1663688,0.704878 -0.1619906,0.288956 -0.4728375,0.534131 z m -1.66806565,-1.164581 q 0,0.258309 0.21452813,0.516618 0.21890625,0.253932 0.63045001,0.411544 0.78806251,-0.319603 0.78806251,-0.919406 0,-0.380897 -0.2320406,-0.577913 -0.22766253,-0.201393 -0.55164378,-0.201393 -0.37651876,0 -0.61293751,0.21015 -0.23641876,0.21015 -0.23641876,0.5604 z"
         id="path40" />
    </g>
  </g>
</svg>
