<?xml version="1.0" encoding="UTF-8" standalone="no"?>


<svg class="tikz-diagram" id="iran-action-ch3-tikz-14-ee5135aea8f0"
   version="1.1"
   id="svg1"
   width="533.84003"
   height="254.73334"
   viewBox="0 0 533.84003 254.73334"
   sodipodi:docname="iran-action-ch3-tikz-14-ee5135aea8f0.pdf"
   xmlns:inkscape="http://www.inkscape.org/namespaces/inkscape"
   xmlns:sodipodi="http://sodipodi.sourceforge.net/DTD/sodipodi-0.dtd"
   xmlns="http://www.w3.org/2000/svg"
   xmlns:svg="http://www.w3.org/2000/svg">
  <defs
     id="defs1" />
  <sodipodi:namedview
     id="namedview1"
     pagecolor="#ffffff"
     bordercolor="#000000"
     borderopacity="0.25"
     inkscape:showpageshadow="2"
     inkscape:pageopacity="0.0"
     inkscape:pagecheckerboard="0"
     inkscape:deskcolor="#d1d1d1">
    <inkscape:page
       x="0"
       y="0"
       inkscape:label="1"
       id="page1"
       width="533.84003"
       height="254.73334"
       margin="0"
       bleed="0" />
  </sodipodi:namedview>
  <g
     id="g1"
     inkscape:groupmode="layer"
     inkscape:label="1">
    <path
       id="path1"
       d="M 70.86703,0 C 70.86703,23.48355 39.13928,42.52022 0,42.52022 -39.13928,42.52022 -70.86703,23.48355 -70.86703,0 c 0,-23.48355 31.72775,-42.52022 70.86703,-42.52022 39.13928,0 70.86703,19.03667 70.86703,42.52022 z"
       style="fill:#e6f0fa;fill-opacity:1;fill-rule:nonzero;stroke:#0055a4;stroke-width:1.99255;stroke-linecap:butt;stroke-linejoin:miter;stroke-miterlimit:10;stroke-dasharray:none;stroke-opacity:1"
       transform="matrix(1.3333333,0,0,-1.3333333,115.74133,117.06667)" />
    <g
       id="text1"
       transform="matrix(1.3333333,0,0,1.3333333,72.754667,96.132)"
       aria-label="نﻮﯿﺴﯾزﻮﭘاجرﺎﺧیدازآﻞﻤﻋﻊﺑﺎﻨﻣﻪﻠﺻﺎﻓزاﺖﯿﻌﻗاو">
      <path
         style="font-weight:800;font-size:9.9626px;font-family:Vazirmatn"
         d="m 60.028091,-4.5921358 0.875619,0.8756191 -0.875619,0.8707546 -0.870754,-0.8707546 z m 0.06324,5.3510057 q 0.70536,0 1.109118,-0.22376933 0.403758,-0.22376933 0.574017,-0.60806883 0.175124,-0.38916405 0.175124,-0.87561912 0,-0.52050692 -0.17026,-1.07506572 -0.165394,-0.5594233 -0.37457,-1.0702011 l 1.298835,-0.4864551 q 0.272415,0.7345472 0.3843,1.3474805 0.116749,0.6129334 0.116749,1.25018957 0,1.44963609 -0.797787,2.29120333 -0.792921,0.8415673 -2.315526,0.8415673 -1.045878,0 -1.726915,-0.3988932 -0.676173,-0.3988931 -1.002098,-1.08965931 -0.325924,-0.69076619 -0.325924,-1.56152076 0,-0.57888153 0.126478,-1.19667943 0.126478,-0.617798 0.364841,-1.2355959 l 1.182086,0.4524032 q -0.179988,0.5156424 -0.301602,1.006962 -0.121614,0.4913196 -0.121614,0.91940007 0,0.46699686 0.165395,0.85616092 0.165395,0.38916405 0.559423,0.62266248 0.394029,0.23349843 1.07993,0.23349843 z m -5.740175,-4.7818533 q 0.612934,0 1.041014,0.3648413 0.428081,0.3648413 0.671308,0.963181 0.243228,0.5934752 0.291873,1.289106 h 0.364842 V 0 H 56.258059 Q 55.98078,1.1091176 55.1684,1.7415091 54.35602,2.3787653 52.950165,2.6511801 L 52.468574,1.3523451 Q 53.081508,1.2355959 53.602015,1.0410138 54.127386,0.84643182 54.487363,0.58374608 54.852204,0.32106034 54.973818,0 H 54.51655 q -0.982639,0 -1.498281,-0.40862226 -0.515643,-0.4134868 -0.515643,-1.33288684 0,-0.3599768 0.111885,-0.7540054 0.111885,-0.3988931 0.340518,-0.7442762 0.228634,-0.3502477 0.574017,-0.5642879 0.350248,-0.2189048 0.822109,-0.2189048 z m 0.160531,2.6171283 h 0.622662 q -0.02919,-0.2724149 -0.116749,-0.5594234 -0.0827,-0.2870085 -0.248092,-0.4815905 -0.16053,-0.194582 -0.428081,-0.194582 -0.228634,0 -0.364841,0.1459365 -0.131343,0.141072 -0.189717,0.3405186 -0.05351,0.194582 -0.05351,0.3599767 0,0.2578212 0.21404,0.3259249 0.218905,0.063239 0.564288,0.063239 z m -6.12933,0 h 0.734547 q 0.535101,0 0.734547,-0.1799884 0.204311,-0.1848529 0.204311,-0.671308 0,-0.2870085 -0.01459,-0.5545588 -0.01459,-0.2724148 -0.03405,-0.530236 l 1.216138,-0.1508011 0.09729,1.3912615 q 0.02432,0.3697059 0.204311,0.5351006 0.179988,0.1605302 0.574017,0.1605302 h 0.102155 V 0 H 52.089144 Q 51.602688,0 51.252441,-0.17512382 50.907058,-0.35024765 50.683288,-0.63239159 50.386551,-0.335654 49.977929,-0.16539472 49.574171,0 49.116903,0 H 48.382356 Z M 48.508834,0.62266248 49.335808,1.439907 50.153052,0.62266248 50.984891,1.4496361 50.153052,2.2863388 49.335808,1.4593652 48.508834,2.2863388 47.681861,1.4496361 Z M 45.916024,0 Q 45.483079,0 45.181477,-0.17998837 44.879875,-0.35997675 44.675564,-0.62266248 44.427472,-0.35997675 44.111276,-0.17998837 43.799945,0 43.371864,0 42.880545,0 42.544891,-0.16539472 42.214101,-0.335654 42.000061,-0.61293338 41.732511,-0.33078944 41.362805,-0.16539472 40.993099,0 40.428811,0 h -0.447538 v -1.4058551 h 0.457267 q 0.535101,0 0.75887,-0.1313429 0.228634,-0.1313429 0.228634,-0.6323916 0,-0.077833 -0.0097,-0.2578212 -0.0097,-0.1799884 -0.02432,-0.3940286 -0.01459,-0.2189048 -0.02919,-0.3940286 l 1.221002,-0.1508011 0.102156,1.3134287 q 0.04378,0.6469853 0.695631,0.6469853 0.403757,0 0.539965,-0.1653948 0.136207,-0.1702592 0.136207,-0.5983397 0,-0.068104 -0.0097,-0.2480921 -0.0097,-0.1848529 -0.02432,-0.4037577 -0.01459,-0.2189048 -0.02919,-0.3940286 l 1.221002,-0.1508011 0.102156,1.3134287 q 0.01946,0.3016022 0.150801,0.476726 0.131343,0.1702593 0.437809,0.1702593 0.301603,0 0.408623,-0.1994466 0.111884,-0.1994466 0.111884,-0.5642879 0,-0.1751238 -0.01946,-0.5059133 -0.01946,-0.3307894 -0.04378,-0.6323915 l 1.221002,-0.1508011 0.102156,1.4058551 q 0.02432,0.3599768 0.199447,0.5059133 0.179988,0.141072 0.554558,0.141072 h 0.145937 V 0 H 48.450455 Q 48.002917,0 47.657534,-0.15566562 47.317015,-0.31133124 47.117568,-0.57888153 46.918122,-0.33078944 46.626249,-0.16539472 46.334376,0 45.916024,0 Z m -8.123799,0 h -1.045878 v -1.4058551 h 1.050743 q 0.369706,0 0.505913,-0.2286339 0.141072,-0.2334985 0.141072,-0.5886107 0,-0.3307894 -0.0827,-0.7199535 -0.07783,-0.3940286 -0.160531,-0.768599 l 1.274513,-0.3307894 q 0.09243,0.4572678 0.145936,0.909671 0.05837,0.4475386 0.05837,0.8561609 0,0.6469852 -0.175124,1.1626276 -0.170259,0.51564237 -0.583746,0.81724451 Q 38.507314,0 37.792225,0 Z M 36.872825,0.62266248 37.699799,1.439907 38.517043,0.62266248 39.348881,1.4496361 38.517043,2.2863388 37.699799,1.4593652 36.872825,2.2863388 36.045851,1.4496361 Z m -1.542062,-6.28986398 0.875619,0.8756191 -0.875619,0.8707546 -0.870755,-0.8707546 z m -1.90204,8.3232462 -0.496184,-1.3036996 q 0.70536,-0.1508011 1.211273,-0.40375772 0.510778,-0.24809208 0.788057,-0.66644344 0.27728,-0.41835136 0.27728,-1.07993025 0,-0.44267409 -0.141072,-0.99236829 -0.141072,-0.5545588 -0.301602,-1.0312848 l 1.313428,-0.4232159 q 0.189718,0.530236 0.287009,1.1431694 0.102155,0.6129334 0.102155,1.17722127 0,1.02155564 -0.379435,1.75123824 Q 35.715062,1.5615208 35.02916,2.013924 34.348123,2.4711917 33.428723,2.6560447 Z M 30.92348,-4.0229834 q 0.612934,0 1.041014,0.3648413 0.428081,0.3648413 0.671308,0.963181 0.243228,0.5934752 0.291873,1.289106 h 0.364841 V 0 h -0.462132 q -0.277279,1.1091176 -1.089659,1.7415091 -0.81238,0.6372562 -2.218235,0.909671 L 29.040899,1.3523451 Q 29.653832,1.2355959 30.174339,1.0410138 30.699711,0.84643182 31.059688,0.58374608 31.424529,0.32106034 31.546143,0 h -0.457268 q -0.982639,0 -1.498282,-0.40862226 -0.515642,-0.4134868 -0.515642,-1.33288684 0,-0.3599768 0.111885,-0.7540054 0.111884,-0.3988931 0.340518,-0.7442762 0.228634,-0.3502477 0.574017,-0.5642879 0.350248,-0.2189048 0.822109,-0.2189048 z m 0.16053,2.6171283 h 0.622663 q -0.02919,-0.2724149 -0.116749,-0.5594234 -0.0827,-0.2870085 -0.248092,-0.4815905 -0.160531,-0.194582 -0.428081,-0.194582 -0.228634,0 -0.364841,0.1459365 -0.131343,0.141072 -0.189718,0.3405186 -0.05351,0.194582 -0.05351,0.3599767 0,0.2578212 0.214041,0.3259249 0.218904,0.063239 0.564287,0.063239 z M 26.389721,0 h -1.045878 v -1.4058551 h 1.050743 q 0.369706,0 0.505913,-0.2286339 0.141072,-0.2334985 0.141072,-0.5886107 0,-0.3307894 -0.0827,-0.7199535 -0.07783,-0.3940286 -0.160531,-0.768599 l 1.274513,-0.3307894 q 0.09243,0.4572678 0.145936,0.909671 0.05837,0.4475386 0.05837,0.8561609 0,0.6469852 -0.175124,1.1626276 -0.170259,0.51564237 -0.583746,0.81724451 Q 27.10481,0 26.389721,0 Z m 0.734547,0.48159052 0.783193,0.78319268 -0.783193,0.7831926 -0.783192,-0.7831926 z m -1.697728,0 L 26.204868,1.2647832 25.42654,2.0479758 24.643347,1.2647832 Z M 26.272972,1.7269155 27.056165,2.5101081 26.272972,3.2884362 25.489779,2.5101081 Z M 24.789282,-6.8201 v 6.81523545 H 23.475854 V -6.8201 Z M 21.72415,0.57401698 22.59977,1.4496361 21.72415,2.3203907 20.853396,1.4496361 Z M 18.387069,-1.4058551 h 0.826973 q 0.627527,0 1.167492,-0.1167493 0.539966,-0.1216137 1.109118,-0.3599767 0.574017,-0.238363 1.3037,-0.5934752 -0.749141,-0.2724148 -1.211273,-0.4572677 -0.462133,-0.1897175 -0.632392,-0.1897175 -0.262686,0 -0.476726,0.1653947 -0.209176,0.1605302 -0.345383,0.3405185 l -0.257821,0.3259249 -1.08966,-0.5351005 0.218905,-0.3502477 q 0.345383,-0.5642879 0.826974,-0.9339937 0.48159,-0.3745704 1.128575,-0.3745704 0.272415,0 0.632392,0.1264783 0.364841,0.1264783 0.778328,0.3161958 0.418352,0.1848529 0.861026,0.3745704 0.447538,0.1848529 0.880483,0.3161958 0.43781,0.1313429 0.836703,0.1362074 v 1.2891059 q -0.369706,0.048645 -0.685902,0.1653948 -0.316195,0.1118846 -0.656714,0.2870084 -0.340519,0.1751239 -0.792922,0.4183514 -0.622662,0.33078945 -1.177221,0.56915243 -0.549694,0.23836299 -1.13344,0.3648413 Q 19.919402,0 19.199449,0 h -0.81238 z M 18.445442,0 Q 18.002768,0 17.715759,-0.17025927 17.521177,0.94858738 16.757443,1.67827 15.998573,2.4079526 14.728925,2.6511801 l -0.48159,-1.298835 q 0.705359,-0.1508011 1.211273,-0.40375772 0.510777,-0.24809208 0.788057,-0.66644344 0.277279,-0.41835136 0.277279,-1.07993025 0,-0.44267409 -0.141072,-0.99236829 Q 16.2418,-2.3447134 16.08127,-2.8214394 l 1.308564,-0.4232159 0.282144,1.0993885 q 0.0827,0.3113312 0.243228,0.5253714 0.16053,0.2140403 0.476726,0.2140403 h 0.189717 V 0 Z m -6.046637,-6.8201 h 1.313429 v 4.4461993 q 0,0.5156423 0.150801,0.7442762 0.150801,0.2237694 0.622663,0.2237694 h 0.121613 V 0 H 14.485698 Q 13.396038,0 12.89499,-0.56428788 12.398805,-1.1285758 12.398805,-2.2571515 Z m -4.5240318,0.019458 0.8756191,0.8756191 -0.8756191,0.8707546 -0.8707546,-0.8707546 z m -3.030615,5.3947867 h 0.8269736 q 0.627527,0 1.1674921,-0.1167493 0.5399651,-0.1216137 1.1091176,-0.3599767 0.574017,-0.238363 1.3036996,-0.5934752 Q 8.5023002,-2.7484711 8.0401679,-2.933324 7.5780356,-3.1230415 7.4077764,-3.1230415 q -0.2626858,0 -0.476726,0.1653947 -0.2091757,0.1605302 -0.3453831,0.3405185 L 6.3278461,-2.2912034 5.2381868,-2.8263039 5.4570915,-3.1765516 q 0.3453831,-0.5642879 0.8269736,-0.9339937 0.4815906,-0.3745704 1.1285758,-0.3745704 0.2724148,0 0.6323916,0.1264783 0.3648413,0.1264783 0.7783281,0.3161958 0.4183513,0.1848529 0.8610255,0.3745704 0.4475389,0.1848529 0.8804839,0.3161958 0.437809,0.1313429 0.836702,0.1362074 v 1.2891059 q -0.369705,0.048645 -0.685901,0.1653948 -0.316196,0.1118846 -0.656715,0.2870084 Q 9.7184379,-1.298835 9.2660347,-1.0556075 8.6433722,-0.72481805 8.0888134,-0.48645507 7.5391192,-0.24809208 6.9553731,-0.12161377 6.3764916,0 5.6565381,0 H 4.8441582 Z"
         id="path13" />
      <path
         style="font-size:8.9664px;font-family:Vazirmatn"
         d="m 43.41163,11.158181 h 0.950053 q 0.437813,0 0.591047,-0.253931 0.157613,-0.253931 0.157613,-0.643584 0,-0.2845786 -0.05254,-0.6085599 -0.05254,-0.3239812 -0.113831,-0.6523406 L 45.705768,8.807128 q 0.07443,0.35025 0.118209,0.6873656 0.04378,0.3371157 0.04378,0.6435844 0,0.525375 -0.144478,0.936919 -0.144478,0.411544 -0.472837,0.647962 Q 44.922083,11.955 44.37044,11.955 h -0.95881 z m 1.580503,1.492941 0.612938,0.608559 -0.612938,0.617316 -0.608559,-0.617316 z m -1.453537,0 0.612937,0.608559 -0.612937,0.617316 -0.60856,-0.617316 z m -1.843191,-2.28976 q 0,-0.113831 -0.05254,-0.293334 -0.04816,-0.1838812 -0.118209,-0.3414937 L 40.74973,7.9709061 41.432717,7.651303 42.426552,9.9892218 q 0.201394,0.4728372 0.35025,0.7267692 0.153234,0.253931 0.297712,0.35025 0.148857,0.09194 0.337116,0.09194 h 0.183881 V 11.955 H 43.41163 q -0.345872,0 -0.564778,-0.08318 -0.214528,-0.08319 -0.372141,-0.249554 -0.157612,-0.166368 -0.319603,-0.4203 -0.306469,0.385275 -0.783684,0.569157 -0.472838,0.179503 -1.182094,0.179503 -0.306469,0 -0.551644,-0.02627 -0.245175,-0.03065 -0.464081,-0.08318 v -0.792441 q 0.503484,0.118209 0.950053,0.118209 1.571747,0 1.571747,-0.805575 z M 38.070318,5.9263217 V 11.950622 H 37.330415 V 5.9263217 Z m -3.280372,1.5235875 0.634828,0.6348282 -0.634828,0.6348281 -0.634828,-0.6348281 z m -1.602394,6.8605218 -0.258309,-0.696122 q 1.068262,-0.23204 1.506075,-0.814331 0.437812,-0.577912 0.437812,-1.370353 0,-0.372141 -0.08318,-0.779306 -0.07881,-0.411544 -0.223285,-0.8362222 l 0.726769,-0.245175 q 0.315225,0.8975152 0.315225,1.7293592 0,0.731147 -0.258309,1.352841 -0.253932,0.626072 -0.792441,1.059506 -0.534131,0.437813 -1.370353,0.599803 z M 32.990537,5.3790561 q 0.06129,0.030647 0.126966,0.030647 0.122587,0 0.437812,-0.2845781 L 33.7786,4.9237311 34.177009,5.2827373 33.931834,5.5147779 q -0.232041,0.2189063 -0.407166,0.3239813 -0.170746,0.1006969 -0.345871,0.1006969 -0.166369,0 -0.394032,-0.1006969 L 32.219987,5.5804498 q -0.06129,-0.026269 -0.113831,-0.043781 -0.05254,-0.017512 -0.100697,-0.017512 -0.09632,0 -0.218906,0.078806 -0.122588,0.078806 -0.32836,0.2845781 L 31.20864,6.1320936 30.810231,5.7730873 31.064162,5.5103998 q 0.284578,-0.2933344 0.481594,-0.4115437 0.201394,-0.1225875 0.380897,-0.1225875 0.118209,0 0.236419,0.039403 0.122587,0.039403 0.262687,0.105075 z m -0.06567,1.1164219 v 5.455144 H 32.184962 V 6.495478 Z m -2.259708,7.631072 q -0.814332,0 -1.326572,-0.293334 -0.512241,-0.288957 -0.753038,-0.809954 -0.240797,-0.520996 -0.240797,-1.208362 0,-0.464081 0.09632,-0.950053 0.09632,-0.49035 0.262688,-0.9544315 l 0.696121,0.2802005 q -0.126965,0.402787 -0.214528,0.827465 -0.08756,0.424678 -0.08756,0.823088 0,0.709256 0.359006,1.103287 0.363384,0.394031 1.208363,0.394031 0.783684,0 1.177715,-0.429056 0.39841,-0.429056 0.39841,-1.383487 V 5.9263217 h 0.739903 v 4.2380253 q 0,0.49035 0.179503,0.744281 0.183881,0.249553 0.713634,0.249553 h 0.131344 V 11.955 h -0.122587 q -0.385275,0 -0.551644,-0.07443 -0.166369,-0.07881 -0.354628,-0.25831 0,1.252144 -0.591047,1.878216 -0.591047,0.626072 -1.720603,0.626072 z M 22.876472,11.955 h -0.192638 v -0.796819 h 0.170747 q 0.293334,0 0.494728,-0.166369 0.201394,-0.170746 0.359006,-0.437812 0.157613,-0.267066 0.310847,-0.5647782 0.157613,-0.3020907 0.35025,-0.5691563 0.192638,-0.2670656 0.464082,-0.4334344 0.275821,-0.1707469 0.678609,-0.1707469 0.687366,0 1.068262,0.4203001 0.380897,0.4159218 0.512241,1.0376157 0.08756,0.429056 0.297713,0.656719 0.214528,0.227662 0.494728,0.227662 h 0.113831 V 11.955 h -0.118209 q -0.2802,0 -0.547266,-0.113831 -0.267066,-0.11821 -0.433434,-0.372141 -0.183882,0.267066 -0.455325,0.429056 -0.271444,0.157613 -0.704879,0.157613 -0.437812,0 -0.809953,-0.18826 Q 24.56205,11.6748 24.16364,11.289525 23.879062,11.609128 23.616375,11.784253 23.353687,11.955 22.876472,11.955 Z m 2.653143,-2.3641876 q -0.218906,0 -0.398409,0.1488562 -0.179503,0.1444782 -0.323981,0.3765184 -0.144478,0.232041 -0.25831,0.481594 0.144479,0.148856 0.288957,0.267066 0.144478,0.118209 0.2802,0.201394 0.35025,0.214528 0.612937,0.214528 0.647963,0 0.647963,-0.652341 0,-0.455325 -0.227663,-0.7442812 -0.223284,-0.2933344 -0.621694,-0.2933344 z m -6.177534,1.5673686 q -0.197016,-0.245175 -0.337116,-0.599803 -0.135721,-0.359006 -0.135721,-0.7180125 0,-0.4684594 0.245175,-0.8493562 0.245175,-0.3808969 0.643584,-0.6041813 0.398409,-0.2232844 0.858112,-0.2232844 0.696122,0 1.492941,0.5428875 l -0.293334,0.6523407 q -0.682988,-0.4027876 -1.151447,-0.4027876 -0.402788,0 -0.713635,0.2495532 -0.310846,0.2495531 -0.310846,0.665475 0,0.3239816 0.144478,0.5735346 0.148856,0.249553 0.315225,0.389653 0.166368,0.135722 0.223284,0.135722 0.07881,0 0.153234,-0.02189 l 1.851947,-0.44219 v 0.796818 Q 21.247809,11.635397 20.319647,11.797387 19.395862,11.955 18.485212,11.955 h -0.477215 v -0.796819 z"
         id="path14" />
      <path
         style="font-size:8.9664px;font-family:Vazirmatn"
         d="m 38.041002,22.692881 q -0.188259,-0.166369 -0.424678,-0.411544 -0.232041,-0.249553 -0.450947,-0.516618 -0.218906,-0.267066 -0.363384,-0.494729 -0.1401,-0.23204 -0.1401,-0.359006 0,-0.179503 0.188259,-0.323981 0.188259,-0.144478 0.494728,-0.245175 0.310847,-0.100697 0.669853,-0.153234 0.359006,-0.05692 0.7005,-0.05692 0.337116,0 0.696122,0.05692 0.359006,0.05254 0.665475,0.153234 0.310847,0.100697 0.503485,0.245175 0.192637,0.144478 0.192637,0.323981 0,0.126966 -0.148856,0.367763 -0.144478,0.236418 -0.372141,0.516618 -0.227662,0.275822 -0.477215,0.529754 -0.245175,0.253931 -0.450947,0.4203 0.367762,0.227662 0.801197,0.297712 0.433434,0.07005 1.028859,0.07005 h 0.262687 V 23.91 h -0.262687 q -0.442191,0 -0.8406,-0.05254 -0.398409,-0.05692 -0.801197,-0.214528 -0.398409,-0.16199 -0.853734,-0.477215 -0.7005,0.394031 -1.1208,0.801196 -0.415922,0.407166 -0.415922,0.866869 0,0.612938 0.472837,0.976322 0.472838,0.363385 1.422891,0.363385 0.380897,0 0.783684,-0.06567 0.402788,-0.06129 0.796819,-0.192638 l 0.170747,0.731147 q -0.372141,0.135722 -0.827466,0.21015 -0.450947,0.07881 -0.945675,0.07881 -0.783684,0 -1.374731,-0.23204 -0.591047,-0.232041 -0.919406,-0.7005 -0.323982,-0.46846 -0.323982,-1.16896 0,-0.402787 0.161991,-0.726769 0.166369,-0.323981 0.4203,-0.58229 0.258309,-0.25831 0.542888,-0.464081 0.288956,-0.205772 0.538509,-0.367763 z m 0.674231,-1.808166 q -0.197015,0 -0.564778,0.03503 -0.363384,0.03065 -0.687366,0.1401 0.284579,0.354629 0.573535,0.643585 0.288956,0.284578 0.481594,0.455325 0.197015,0.166369 0.197015,0.166369 0,0 0.197016,-0.166369 0.197016,-0.170747 0.49035,-0.455325 0.293334,-0.288956 0.573534,-0.643585 -0.323981,-0.109453 -0.691743,-0.1401 -0.367763,-0.03503 -0.569157,-0.03503 z M 34.013128,23.91 h -0.805575 v -0.796819 h 0.796819 q 0.437812,0 0.591047,-0.253931 0.157612,-0.253931 0.157612,-0.643585 0,-0.284578 -0.05254,-0.608559 -0.05254,-0.323981 -0.113831,-0.652341 l 0.761793,-0.192637 q 0.07443,0.35025 0.11821,0.687366 0.04378,0.337115 0.04378,0.643584 0,0.525375 -0.144478,0.936919 -0.144478,0.411543 -0.472838,0.647962 Q 34.564772,23.91 34.013128,23.91 Z m 0.09632,0.669853 0.634828,0.634828 -0.634828,0.634828 -0.634828,-0.634828 z m -2.486776,-6.698531 h 0.739903 v 4.185487 q 0,0.617316 0.227663,0.831844 0.227662,0.214528 0.687365,0.214528 h 0.109453 V 23.91 h -0.109453 q -0.836222,0 -1.247765,-0.442191 -0.407166,-0.446569 -0.407166,-1.405378 z m -2.364187,3.441206 0.731147,-0.08756 0.07005,1.024482 q 0.05254,0.853734 0.888759,0.853734 h 0.09194 V 23.91 h -0.100697 q -0.485972,0 -0.779306,-0.175125 -0.288957,-0.175125 -0.46846,-0.494728 -0.236419,0.345872 -0.621694,0.507862 Q 28.684949,23.91 28.264649,23.91 h -0.4203 v -0.796819 h 0.4203 q 0.556022,0 0.792441,-0.249553 0.240797,-0.249553 0.240797,-0.766172 0,-0.21015 -0.01313,-0.398409 -0.0088,-0.18826 -0.02627,-0.376519 z m 0.08318,-2.180306 0.634828,0.634828 -0.634828,0.634828 -0.634828,-0.634828 z m -3.2223,4.868475 q -0.437812,0 -0.809953,-0.18826 Q 24.941653,23.6298 24.543243,23.244525 24.258665,23.564128 23.995978,23.739253 23.73329,23.91 23.256074,23.91 h -0.192637 v -0.796819 h 0.170747 q 0.293334,0 0.494728,-0.166369 0.201394,-0.170747 0.359006,-0.437812 0.157613,-0.267066 0.310847,-0.564778 0.157613,-0.302091 0.35025,-0.569157 0.192638,-0.267065 0.464081,-0.433434 0.275822,-0.170747 0.67861,-0.170747 0.485972,0 0.844978,0.236419 0.363384,0.232041 0.5604,0.626072 0.201394,0.394031 0.201394,0.880003 0,0.713634 -0.363385,1.107666 -0.359006,0.389653 -1.015725,0.389653 z m -0.21015,-2.464885 q -0.218906,0 -0.398409,0.148857 -0.179503,0.144478 -0.323981,0.376518 -0.144479,0.232041 -0.25831,0.481594 0.262688,0.275822 0.542888,0.450947 0.359006,0.232041 0.639206,0.232041 0.647962,0 0.647962,-0.652341 0,-0.455325 -0.227662,-0.744281 -0.223284,-0.293335 -0.621694,-0.293335 z"
         id="path15" />
      <path
         style="font-size:8.9664px;font-family:Vazirmatn"
         d="m 60.703388,35.866001 q -0.643584,0 -1.00259,-0.302091 -0.354628,-0.30209 -0.459703,-0.831843 -0.253932,0.253931 -0.551644,0.389653 -0.293335,0.135722 -0.661097,0.135722 -0.626072,0 -1.05075,-0.337116 -0.424678,-0.337116 -0.424678,-0.932541 0,-0.674231 0.551643,-1.164581 0.551644,-0.494728 1.733738,-0.858112 l -0.03065,-0.21015 0.7005,-0.1401 0.380897,2.688168 q 0.05254,0.385275 0.249553,0.577913 0.201394,0.188259 0.582291,0.188259 h 0.135722 v 0.796819 z M 59.06597,33.663804 q 0,-0.135722 -0.01751,-0.258309 l -0.109453,-0.731147 q -0.849356,0.306469 -1.23901,0.604181 -0.385275,0.297713 -0.385275,0.652341 0,0.288956 0.197016,0.437812 0.197016,0.148857 0.534131,0.148857 0.25831,0 0.49035,-0.100697 0.236419,-0.100697 0.380897,-0.293335 0.148857,-0.192637 0.148857,-0.459703 z m -4.6233,0.284578 v -4.111059 h 0.739903 v 4.124194 q 0,0.481593 0.18826,0.796818 0.192637,0.310847 0.696122,0.310847 h 0.1401 v 0.796819 h -0.131344 q -0.49035,0 -0.779306,-0.170747 -0.288957,-0.170747 -0.459704,-0.494728 -0.144478,0.214528 -0.293334,0.363384 -0.144478,0.148857 -0.372141,0.227663 -0.223284,0.07443 -0.612937,0.07443 H 53.18177 v -0.796819 h 0.367763 q 0.367762,0 0.556022,-0.144478 0.192637,-0.148856 0.262687,-0.402787 0.07443,-0.253932 0.07443,-0.573535 z m -6.35266,0.985078 q 0.779306,-1.33095 1.532344,-1.9614 0.753037,-0.634828 1.506075,-0.634828 0.499106,0 0.884381,0.218907 0.389653,0.214528 0.608559,0.586668 0.218906,0.372141 0.218906,0.8406 -0.0044,0.95881 -0.805575,1.422891 -0.801196,0.459703 -2.425481,0.459703 h -0.23204 q -0.928163,0 -1.414135,-0.175125 -0.485972,-0.175125 -0.687365,-0.49035 -0.253932,0.345872 -0.573535,0.507863 -0.315225,0.157612 -0.8406,0.157612 h -0.179503 l 0.0044,-0.796819 h 0.175125 q 0.612938,0 0.823088,-0.258309 0.214528,-0.262688 0.214528,-0.757416 0,-0.21015 -0.01751,-0.389653 -0.01313,-0.179503 -0.02189,-0.385275 l 0.731147,-0.08756 0.06567,1.024481 q 0.02189,0.293334 0.122588,0.507862 0.100697,0.21015 0.310847,0.21015 z m 3.073444,-1.799409 q -1.055129,0 -2.281004,1.935131 h 0.709257 q 1.247765,0 1.860703,-0.249553 0.612937,-0.249553 0.612937,-0.79244 0,-0.385275 -0.249553,-0.639207 -0.245175,-0.253931 -0.65234,-0.253931 z m -7.070673,-3.296728 h 0.739903 v 4.185487 q 0,0.617316 0.227662,0.831844 0.227663,0.214528 0.687366,0.214528 h 0.109453 v 0.796819 h -0.109453 q -0.836222,0 -1.247766,-0.442191 -0.407165,-0.446568 -0.407165,-1.405378 z m -2.858914,-0.551644 0.634828,0.634828 -0.634828,0.634828 -0.634828,-0.634828 z m -0.332738,5.783503 q 0.494728,0 0.796819,-0.05691 0.306469,-0.05692 0.446569,-0.249553 0.144478,-0.197016 0.144478,-0.60856 -0.214528,0.06567 -0.437812,0.100697 -0.218907,0.03502 -0.472838,0.03502 -1.488563,0 -1.488563,-1.221497 0,-0.4203 0.166369,-0.8406 0.170747,-0.4203 0.499106,-0.7005 0.32836,-0.284578 0.796819,-0.284578 0.429057,0 0.735525,0.218906 0.310847,0.218907 0.507863,0.591047 0.201394,0.367763 0.297712,0.836222 0.09632,0.464081 0.09632,0.958809 0,0.652341 -0.118209,1.055129 -0.113832,0.398409 -0.367763,0.608559 -0.253931,0.205772 -0.661097,0.2802 -0.407165,0.07443 -0.993834,0.07443 h -1.61115 v -0.796819 z m 0.53851,-1.532343 q 0.201394,0 0.398409,-0.03502 0.201394,-0.0394 0.402788,-0.09632 -0.03503,-0.310847 -0.131344,-0.63045 -0.09194,-0.319603 -0.275822,-0.534131 -0.183881,-0.218907 -0.49035,-0.218907 -0.271444,0 -0.437813,0.170747 -0.16199,0.170747 -0.236418,0.407166 -0.07005,0.236419 -0.07005,0.437812 0,0.302091 0.214528,0.402788 0.218906,0.09632 0.626072,0.09632 z m -0.972538,-2.175929 0.634828,0.634829 -0.634828,0.634828 -0.634828,-0.634828 z m -1.602394,6.860522 -0.258309,-0.696121 q 1.068262,-0.232041 1.506075,-0.814332 0.437812,-0.577912 0.437812,-1.370353 0,-0.372141 -0.08318,-0.779306 -0.07881,-0.411544 -0.223284,-0.836222 l 0.726768,-0.245175 q 0.315225,0.897516 0.315225,1.729359 0,0.731147 -0.258309,1.352841 -0.253931,0.626072 -0.792441,1.059506 -0.534131,0.437813 -1.370353,0.599803 z m -0.26269,-8.384109 v 6.0243 h -0.739903 v -6.0243 z m -2.618505,1.733737 0.612938,0.60856 -0.612938,0.617315 -0.608559,-0.617315 z m -1.453537,0 0.612937,0.60856 -0.612937,0.617315 -0.60856,-0.617315 z m 3.375534,1.707469 0.731147,-0.08756 0.07443,1.024481 q 0.02627,0.415922 0.236419,0.634828 0.214528,0.218906 0.639206,0.218906 h 0.105075 v 0.796819 h -0.105075 q -0.494728,0 -0.814331,-0.183881 -0.315225,-0.18826 -0.520997,-0.599803 -0.363384,0.4203 -0.932541,0.604181 -0.564778,0.179503 -1.571747,0.179503 h -0.731147 q -1.650553,0 -2.482396,-0.446569 -0.827466,-0.446568 -0.827466,-1.545478 0,-0.30209 0.06567,-0.591047 0.07005,-0.288956 0.179503,-0.556022 l 0.678609,0.253932 q -0.07005,0.192637 -0.118209,0.411543 -0.04378,0.218907 -0.04378,0.415922 0.0044,0.512241 0.288956,0.788063 0.284578,0.271444 0.849356,0.37214 0.564778,0.100697 1.409756,0.100697 h 0.731147 q 1.046372,0 1.619907,-0.218906 0.577912,-0.218906 0.577912,-0.796819 0,-0.179503 -0.01313,-0.385275 -0.0088,-0.205772 -0.02627,-0.389653 z m -9.982123,1.790653 h 0.661097 q 0.556022,0 0.79244,-0.249553 0.240797,-0.249553 0.240797,-0.766172 0,-0.21015 -0.01313,-0.398409 -0.0088,-0.188259 -0.02627,-0.376519 l 0.731147,-0.08756 0.07005,1.024481 q 0.05254,0.853734 0.888759,0.853734 h 0.09194 v 0.796819 h -0.100697 q -0.485972,0 -0.779306,-0.175125 -0.288956,-0.175125 -0.46846,-0.494728 -0.236418,0.345872 -0.621693,0.507863 -0.385275,0.16199 -0.805575,0.16199 h -0.661097 z m 1.580503,1.492941 0.612937,0.608559 -0.612937,0.617316 -0.608559,-0.617316 z m -1.453538,0 0.612938,0.608559 -0.612938,0.617316 -0.608559,-0.617316 z m -2.438615,-4.119816 q 0.337115,0 0.696122,0.05692 0.359006,0.05254 0.665475,0.153234 0.310847,0.100697 0.503484,0.245175 0.192638,0.144478 0.192638,0.323982 0,0.126965 -0.135722,0.35025 -0.131344,0.223284 -0.341494,0.481593 -0.205772,0.25831 -0.433434,0.499107 -0.227663,0.236418 -0.415922,0.402787 0.306468,0.07881 0.58229,0.09632 0.275822,0.01751 0.499107,0.01751 h 0.682987 v 0.796819 h -0.678609 q -0.459703,0 -0.919407,-0.109453 -0.455325,-0.109453 -0.897515,-0.363384 -0.288957,0.166368 -0.669853,0.271443 -0.376519,0.105075 -0.761794,0.153235 -0.380897,0.04816 -0.687366,0.04816 h -0.691744 v -0.796819 h 0.696122 q 0.148857,0 0.39841,-0.0044 0.253931,-0.0088 0.520997,-0.03065 0.271443,-0.02627 0.472837,-0.07881 -0.188259,-0.166369 -0.415922,-0.402787 -0.227662,-0.240797 -0.437812,-0.499107 -0.205772,-0.258309 -0.341494,-0.481593 -0.135722,-0.223285 -0.135722,-0.35025 0,-0.179504 0.188259,-0.323982 0.18826,-0.144478 0.494729,-0.245175 0.310846,-0.100697 0.669853,-0.153234 0.359006,-0.05692 0.7005,-0.05692 z m 0,0.753038 q -0.197016,0 -0.564778,0.03065 -0.363385,0.03065 -0.687366,0.1401 0.284578,0.359006 0.573534,0.643584 0.288957,0.284578 0.481594,0.455325 0.197016,0.166369 0.197016,0.166369 0,0 0.197015,-0.166369 0.197016,-0.170747 0.49035,-0.455325 0.293335,-0.284578 0.573535,-0.643584 -0.323982,-0.109453 -0.691744,-0.1401 -0.367763,-0.03065 -0.569156,-0.03065 z m -4.18111,-3.826481 0.612938,0.608559 -0.612938,0.617316 -0.608559,-0.617316 z m -1.453537,0 0.612937,0.608559 -0.612937,0.617316 -0.60856,-0.617316 z m 0.389653,5.700318 q 0.494728,0 0.796819,-0.05691 0.306468,-0.05692 0.446568,-0.249553 0.144478,-0.197016 0.144478,-0.60856 -0.214528,0.06567 -0.437812,0.100697 -0.218906,0.03502 -0.472838,0.03502 -1.488562,0 -1.488562,-1.221497 0,-0.4203 0.166369,-0.8406 0.170747,-0.4203 0.499106,-0.7005 0.328359,-0.284578 0.796819,-0.284578 0.429056,0 0.735525,0.218906 0.310847,0.218907 0.507862,0.591047 0.201394,0.367763 0.297713,0.836222 0.09632,0.464081 0.09632,0.958809 0,0.652341 -0.118209,1.055129 -0.113831,0.398409 -0.367762,0.608559 -0.253932,0.205772 -0.661097,0.2802 -0.407166,0.07443 -0.993835,0.07443 h -1.61115 v -0.796819 z m 0.538509,-1.532343 q 0.201394,0 0.39841,-0.03502 0.201393,-0.0394 0.402787,-0.09632 -0.03503,-0.310847 -0.131344,-0.63045 -0.09194,-0.319603 -0.275822,-0.534131 -0.183881,-0.218907 -0.49035,-0.218907 -0.271443,0 -0.437812,0.170747 -0.161991,0.170747 -0.236419,0.407166 -0.07005,0.236419 -0.07005,0.437812 0,0.302091 0.214528,0.402788 0.218907,0.09632 0.626072,0.09632 z m -2.784488,-3.699516 v 6.0243 H 17.38086 v -6.0243 z m -1.84319,5.280019 q 0,2.556825 -2.806379,3.095334 l -0.258309,-0.696122 q 1.006969,-0.192637 1.606772,-0.643584 0.599803,-0.446569 0.709256,-1.125178 -0.166368,0.05254 -0.385275,0.09194 -0.218906,0.0394 -0.385275,0.0394 -1.598015,0 -1.598015,-1.357219 0,-0.323982 0.09632,-0.647963 0.100697,-0.328359 0.288957,-0.599803 0.192637,-0.275822 0.468459,-0.442191 0.275822,-0.166368 0.626072,-0.166368 0.415922,0 0.722391,0.205772 0.310846,0.205771 0.51224,0.556021 0.201394,0.35025 0.302091,0.788063 0.100697,0.437812 0.100697,0.901894 z m -1.497319,-0.03065 q 0.385275,0 0.766172,-0.113831 -0.04378,-0.735525 -0.271444,-1.125179 -0.227662,-0.394031 -0.643584,-0.394031 -0.288957,0 -0.450947,0.179503 -0.157613,0.179503 -0.223285,0.424678 -0.06129,0.240797 -0.06129,0.437813 0,0.319603 0.218906,0.455325 0.218906,0.135722 0.665475,0.135722 z"
         id="path16" />
    </g>
    <path
       id="path4"
       d="m 297.64153,0 c 0,23.48355 -31.72777,42.52022 -70.86705,42.52022 -39.1393,0 -70.86706,-19.03667 -70.86706,-42.52022 0,-23.48355 31.72776,-42.52022 70.86706,-42.52022 39.13928,0 70.86705,19.03667 70.86705,42.52022 z"
       style="fill:#e6fae6;fill-opacity:1;fill-rule:nonzero;stroke:#006633;stroke-width:1.99255;stroke-linecap:butt;stroke-linejoin:miter;stroke-miterlimit:10;stroke-dasharray:none;stroke-opacity:1"
       transform="matrix(1.3333333,0,0,-1.3333333,115.74133,117.06667)" />
    <g
       id="text4"
       transform="matrix(1.3333333,0,0,1.3333333,384.904,96.881333)"
       aria-label="نﻻﺎﻌﻓﻞﺧادردﻂﺧمﺪﻘﻣﮏﺴﯾرﻻﺎﺑﺖﯾدوﺪﺤﻣﺪﯾﺪﺷ">
      <path
         style="font-weight:800;font-size:9.9626px;font-family:Vazirmatn"
         d="m 46.22736,-4.5921358 0.875619,0.8756191 -0.875619,0.8707546 -0.870755,-0.8707546 z m 0.06324,5.3510057 q 0.70536,0 1.109117,-0.22376933 0.403758,-0.22376933 0.574017,-0.60806883 0.175124,-0.38916405 0.175124,-0.87561912 0,-0.52050692 -0.170259,-1.07506572 -0.165395,-0.5594233 -0.374571,-1.0702011 l 1.298835,-0.4864551 q 0.272415,0.7345472 0.3843,1.3474805 0.116749,0.6129334 0.116749,1.25018957 0,1.44963609 -0.797786,2.29120333 -0.792922,0.8415673 -2.315526,0.8415673 -1.045879,0 -1.726916,-0.3988932 -0.676172,-0.3988931 -1.002097,-1.08965931 -0.325925,-0.69076619 -0.325925,-1.56152076 0,-0.57888153 0.126478,-1.19667943 0.126479,-0.617798 0.364841,-1.2355959 l 1.182086,0.4524032 q -0.179988,0.5156424 -0.301602,1.006962 -0.121614,0.4913196 -0.121614,0.91940007 0,0.46699686 0.165395,0.85616092 0.165395,0.38916405 0.559423,0.62266248 0.394029,0.23349843 1.079931,0.23349843 z M 38.351653,0 Q 38.088967,0 37.831146,-0.0194582 37.578189,-0.03891641 37.315504,-0.05837461 V -1.4155842 q 0.301602,0.029187 0.603204,0.048646 0.306467,0.014594 0.530236,0.014594 0.08756,0 0.165395,0 0.07783,-0.00486 0.141072,-0.00486 0,0 -0.0681,-0.3064667 -0.06324,-0.3064667 -0.189718,-0.8172445 -0.121613,-0.5156424 -0.301602,-1.148034 -0.175124,-0.6323916 -0.398893,-1.2939705 -0.223769,-0.6615789 -0.486455,-1.2501895 l 1.196679,-0.5205069 q 0.267551,0.6226625 0.496185,1.3231578 0.228634,0.6956307 0.413486,1.3620742 0.189718,0.6664434 0.321061,1.2112731 0.136207,0.5399651 0.204311,0.86589 0.07297,0.3210603 0.07297,0.3210603 0.841567,-0.3648413 0.841567,-1.8339356 V -6.8201 h 1.3037 v 3.4343727 q 0,0.8610255 -0.218905,1.4593652 -0.218905,0.5934752 -0.59834,0.97291017 -0.379434,0.37943495 -0.86589,0.58861063 -0.486455,0.20917568 -1.036149,0.28700849 Q 38.896483,0 38.351653,0 Z m -3.590041,-6.8201 h 1.313428 v 4.4461993 q 0,0.5156423 0.150801,0.7442762 0.150802,0.2237694 0.622663,0.2237694 h 0.121614 V 0 H 36.848504 Q 35.758845,0 35.257796,-0.56428788 34.761612,-1.1285758 34.761612,-2.2571515 Z m -3.337083,2.5344309 q 0.3843,0 0.817245,0.058375 0.432945,0.05351 0.81238,0.1799883 0.379435,0.1216138 0.617798,0.3210604 0.243227,0.194582 0.243227,0.4718614 0,0.1605302 -0.126478,0.3940286 -0.121614,0.2334984 -0.316196,0.4913196 -0.189717,0.2529567 -0.398893,0.4864551 -0.204311,0.2286339 -0.364841,0.389164 0.199446,0.058375 0.384299,0.072968 0.184853,0.014594 0.345383,0.014594 h 0.75887 V 0 h -0.754005 q -0.569152,0 -1.075066,-0.13134287 -0.501048,-0.13620742 -0.943723,-0.35997675 -0.466996,0.23349843 -1.123711,0.3648413 Q 29.648968,0 29.070087,0 h -0.768599 v -1.4058551 h 0.773463 q 0.111885,0 0.301603,-0.00486 0.194582,-0.00486 0.403757,-0.024323 0.209176,-0.019458 0.359977,-0.063239 -0.16053,-0.1605302 -0.364841,-0.3891641 -0.204311,-0.2334984 -0.394029,-0.486455 -0.189717,-0.2578212 -0.316196,-0.4864551 -0.126478,-0.2334984 -0.126478,-0.3940286 0,-0.2772794 0.238363,-0.4718614 0.238363,-0.1994466 0.617798,-0.3210604 0.379435,-0.1264783 0.81238,-0.1799883 0.432945,-0.058375 0.817244,-0.058375 z m 0.0049,1.2745122 q -0.238363,0 -0.505913,0.024323 -0.262686,0.024323 -0.549695,0.082697 0.204312,0.2189047 0.447539,0.4572677 0.248092,0.2334984 0.423216,0.3988932 0.179988,0.1653947 0.179988,0.1653947 0,0 0.179989,-0.1653947 0.179988,-0.1653948 0.42808,-0.3988932 0.252957,-0.238363 0.452403,-0.4572677 -0.282143,-0.058375 -0.549694,-0.082697 -0.262685,-0.024323 -0.505913,-0.024323 z m -5.589368,-4.9229252 0.875619,0.8756191 -0.875619,0.8707546 -0.870755,-0.8707546 z m -0.369706,6.528227 q 0.622663,0 0.948587,-0.097291 0.33079,-0.097291 0.335654,-0.4815905 -0.355112,0.068104 -0.754005,0.068104 -0.861025,0 -1.362074,-0.3551122 -0.501049,-0.3599767 -0.501049,-1.1674921 0,-0.3940286 0.126479,-0.7783281 0.131342,-0.3891641 0.369705,-0.7053599 0.243228,-0.3210603 0.578882,-0.5107778 0.340518,-0.194582 0.75887,-0.194582 0.539965,0 0.924264,0.2724148 0.389165,0.2675503 0.632392,0.7199535 0.243228,0.4524032 0.355112,1.0118266 0.116749,0.5545587 0.116749,1.1334403 0,1.0118265 -0.277279,1.55179162 -0.272415,0.53510058 -0.846432,0.7394117 Q 26.307023,0 25.411946,0 h -1.790155 v -1.4058551 z m 0.510778,-1.7025928 q 0.184853,0 0.369706,-0.019458 0.189717,-0.019458 0.369706,-0.058375 -0.03405,-0.2334984 -0.126479,-0.4815905 -0.09243,-0.2529566 -0.248092,-0.4280805 -0.155665,-0.1751238 -0.384299,-0.1751238 -0.301602,0 -0.466997,0.2480921 -0.16053,0.2432275 -0.16053,0.5253715 0,0.2578212 0.189717,0.3259249 0.189718,0.063239 0.457268,0.063239 z m -3.322956,5.521265 q -1.430178,0 -2.150131,-0.7637344 -0.719954,-0.75886993 -0.719954,-2.13553777 0,-0.56428783 0.131343,-1.17235673 0.136207,-0.6080688 0.359977,-1.1674921 l 1.182086,0.4524032 q -0.165395,0.4378095 -0.296738,0.9485874 -0.131343,0.51077778 -0.131343,0.94372278 0,0.7296826 0.398893,1.11398211 0.403758,0.38916401 1.225867,0.38916401 0.554559,0 0.861025,-0.21404019 0.311332,-0.20917568 0.432945,-0.60320428 0.126479,-0.38916406 0.126479,-0.92426463 V -6.8201 h 1.308564 v 4.3391792 q 0,0.4718614 0.141072,0.7734635 0.145936,0.3016022 0.608069,0.3016022 h 0.150801 V 0 h -0.141072 q -0.26755,0 -0.452403,-0.05837461 -0.179989,-0.06323916 -0.340519,-0.17512382 -0.09243,1.23073132 -0.724818,1.93609113 -0.627527,0.7102244 -1.970143,0.7102244 z m -7.131431,-9.2134589 0.875619,0.8756191 -0.875619,0.8707546 -0.870755,-0.8707546 z m -3.030615,5.3947867 h 0.826973 q 0.627527,0 1.167492,-0.1167493 0.539966,-0.1216137 1.109118,-0.3599767 0.574017,-0.238363 1.3037,-0.5934752 -0.749141,-0.2724148 -1.211274,-0.4572677 -0.462132,-0.1897175 -0.632391,-0.1897175 -0.262686,0 -0.476726,0.1653947 -0.209176,0.1605302 -0.345383,0.3405185 l -0.257821,0.3259249 -1.08966,-0.5351005 0.218905,-0.3502477 q 0.345383,-0.5642879 0.826974,-0.9339937 0.48159,-0.3745704 1.128575,-0.3745704 0.272415,0 0.632392,0.1264783 0.364841,0.1264783 0.778328,0.3161958 0.418351,0.1848529 0.861026,0.3745704 0.447538,0.1848529 0.880483,0.3161958 0.43781,0.1313429 0.836703,0.1362074 v 1.2891059 q -0.369706,0.048645 -0.685902,0.1653948 -0.316196,0.1118846 -0.656714,0.2870084 -0.340519,0.1751239 -0.792922,0.4183514 -0.622662,0.33078945 -1.177221,0.56915243 -0.549694,0.23836299 -1.13344,0.3648413 Q 14.028429,0 13.308476,0 h -0.81238 z M 11.931809,-6.8201 v 6.81523545 H 10.61838 V -6.8201 Z m -5.2829021,5.4288385 q 0.3988932,0 0.7783281,-0.05351 0.3842995,-0.058375 0.6323916,-0.2140403 0.2529567,-0.1556656 0.2529567,-0.4524032 0,-0.3064667 -0.2967376,-0.6518498 Q 7.7239726,-3.1133124 7.2375176,-3.4489664 6.755927,-3.7846204 6.1867746,-4.0521707 l 0.5983397,-1.2647832 q 0.5156424,0.2529567 1.006962,0.5691525 0.4961842,0.3113312 0.8902128,0.6956307 0.3988932,0.3842995 0.6323916,0.8512964 0.238363,0.4669968 0.238363,1.0312847 0,0.7783281 -0.3551122,1.25505408 -0.3502477,0.47672596 -0.9875038,0.69076619 -0.6372562,0.21404023 -1.4885525,0.21404023 -0.3891641,0 -0.7248181,-0.02432275 -0.335654,-0.02918731 -0.6567143,-0.10215557 V -1.537198 q 0.3161958,0.063239 0.6761725,0.1070201 0.3648413,0.038916 0.6323916,0.038916 z"
         id="path17" />
      <path
         style="font-size:8.9664px;font-family:Vazirmatn"
         d="m 43.523525,14.310431 -0.258309,-0.696122 q 1.068262,-0.23204 1.506075,-0.814331 0.437812,-0.577912 0.437812,-1.370353 0,-0.372141 -0.08318,-0.779306 -0.07881,-0.411544 -0.223284,-0.8362222 l 0.726768,-0.245175 q 0.315225,0.8975152 0.315225,1.7293592 0,0.731147 -0.258309,1.352841 -0.253931,0.626072 -0.792441,1.059506 -0.534131,0.437813 -1.370353,0.599803 z m -2.368568,-3.143494 q 1.6812,0 1.6812,-0.871246 0,-0.4115442 -0.4203,-0.8712474 -0.4203,-0.4597031 -1.392244,-0.9894562 l 0.345872,-0.6917438 q 1.125178,0.5735344 1.668066,1.2127406 0.547266,0.6348282 0.547266,1.3265718 0,0.823088 -0.569157,1.243388 -0.564778,0.4203 -1.795031,0.4203 -0.586669,0 -1.059506,-0.105075 v -0.792441 q 0.573534,0.118209 0.993834,0.118209 z M 39.792764,8.4262311 q 0.494728,0 0.875625,0.2189063 0.385275,0.2145281 0.599803,0.5866687 0.218906,0.3721407 0.218906,0.8405999 -0.0044,0.564778 -0.337115,1.002591 0.126965,0.03065 0.332737,0.05692 0.205772,0.02627 0.604182,0.02627 h 0.131343 V 11.955 H 42.09128 q -0.556022,0 -0.919407,-0.113831 -0.363384,-0.113832 -0.608559,-0.315225 -0.359006,0.201393 -0.945675,0.315225 Q 39.03097,11.955 38.256042,11.955 H 35.71673 v -0.796819 h 1.015725 q 0.08318,-0.1401 0.175125,-0.275822 0.09194,-0.1401 0.175125,-0.275822 V 5.9263217 h 0.744281 v 3.6382219 q 0.472837,-0.5691562 0.950053,-0.8537344 0.481594,-0.2845781 1.015725,-0.2845781 z m 0.01751,0.7968188 q -1.05075,0 -2.276625,1.9351311 h 0.704879 q 1.247765,0 1.860703,-0.249553 0.617315,-0.249553 0.617315,-0.792441 0,-0.3852746 -0.249553,-0.6392059 -0.249553,-0.2539312 -0.656719,-0.2539312 z m -7.89376,-2.8282688 0.634828,0.6348281 -0.634828,0.6348282 -0.634828,-0.6348282 z m -2.727572,4.7633999 h 0.744282 q 0.51224,0 0.941297,-0.09194 0.429056,-0.09194 0.836221,-0.253932 0.411544,-0.16199 0.858113,-0.380897 0.450947,-0.223284 1.006969,-0.4772152 Q 33.264979,9.8403655 32.932241,9.7090218 32.599504,9.5732999 32.297413,9.4550905 31.999701,9.3368811 31.776416,9.262453 q -0.223284,-0.078806 -0.315225,-0.078806 -0.267065,0 -0.472837,0.1576125 -0.201394,0.1532343 -0.372141,0.3721406 l -0.118209,0.1488562 -0.669853,-0.3283593 0.06567,-0.105075 q 0.288956,-0.4684594 0.669853,-0.7486594 0.385275,-0.2845782 0.901893,-0.2845782 0.214529,0 0.516619,0.1094532 0.306469,0.1094531 0.665475,0.2758218 0.359006,0.1619907 0.744281,0.3327376 0.385275,0.1663687 0.77055,0.2845781 0.385275,0.1138312 0.735525,0.1269656 v 0.7574155 q -0.2802,0.03065 -0.718012,0.205772 -0.433434,0.170747 -1.129556,0.538509 -0.5604,0.297713 -1.041994,0.507863 -0.477216,0.205772 -0.976322,0.315225 Q 30.537407,11.955 29.920091,11.955 h -0.731147 z m -1.274418,-0.51224 q 0.245175,-0.8537349 0.639206,-1.3397067 0.39841,-0.4903501 1.085775,-0.4903501 0.464082,0 0.827466,0.2364188 0.363384,0.2364188 0.573534,0.6523406 0.214529,0.4115434 0.214529,0.9500534 0,0.591047 -0.32836,0.9807 -0.323981,0.389653 -1.006969,0.389653 -0.258309,0 -0.525375,-0.08318 -0.262687,-0.08318 -0.507862,-0.18826 -0.240797,-0.109453 -0.442191,-0.192637 -0.201393,-0.08319 -0.337115,-0.08319 -0.245175,0 -0.372141,0.161991 -0.122587,0.157612 -0.166369,0.538509 -0.0394,0.380897 -0.0394,1.055128 0,0.297713 0.0044,0.529754 0.0088,0.236418 0.02189,0.464081 0.01751,0.227662 0.03502,0.516619 h -0.753038 q -0.02189,-0.402788 -0.03502,-0.757416 -0.01313,-0.35025 -0.01313,-0.709256 0,-0.49035 0.02627,-0.932541 0.03065,-0.442191 0.135722,-0.796819 0.109453,-0.359006 0.337115,-0.591047 0.227663,-0.236418 0.626072,-0.310846 z m 2.600606,0.0044 q 0,-0.450947 -0.240796,-0.7530379 -0.240797,-0.3064687 -0.617316,-0.3064687 -0.271444,0 -0.459703,0.1707469 -0.18826,0.1663687 -0.315225,0.4421907 -0.126966,0.271444 -0.223285,0.582291 0.477216,0.21015 0.792441,0.332737 0.319603,0.118209 0.477216,0.118209 0.293334,0 0.437812,-0.157612 0.148856,-0.161991 0.148856,-0.429056 z M 24.54337,10.361362 q 0,-0.113831 -0.05254,-0.293334 -0.04816,-0.1838812 -0.118209,-0.3414937 L 23.597695,7.9709061 24.280682,7.651303 25.274517,9.9892218 q 0.201393,0.4728372 0.35025,0.7267692 0.153234,0.253931 0.297712,0.35025 0.148856,0.09194 0.337116,0.09194 h 0.183881 V 11.955 h -0.183881 q -0.345872,0 -0.564778,-0.08318 -0.214529,-0.08319 -0.372141,-0.249554 -0.157613,-0.166368 -0.319603,-0.4203 -0.306469,0.385275 -0.783685,0.569157 -0.472837,0.179503 -1.182093,0.179503 -0.306469,0 -0.551644,-0.02627 -0.245175,-0.03065 -0.464081,-0.08318 v -0.792441 q 0.503484,0.118209 0.950053,0.118209 1.571747,0 1.571747,-0.805575 z M 20.20027,6.4122936 20.813207,7.020853 20.20027,7.6381686 19.59171,7.020853 Z m -1.453538,0 L 19.35967,7.020853 18.746732,7.6381686 18.138173,7.020853 Z M 21.04087,9.892903 q 0,0.345872 -0.153235,0.643584 -0.153234,0.293335 -0.4203,0.604182 0.249553,0.01313 0.442191,0.01751 0.192637,0 0.341494,0 h 0.424678 V 11.955 h -0.411544 q -0.166369,0 -0.459703,-0.02627 -0.288956,-0.03065 -0.639206,-0.100697 -0.345872,-0.07005 -0.682988,-0.188259 -0.337116,0.122587 -0.691744,0.192637 -0.354628,0.06567 -0.656718,0.09632 -0.302091,0.02627 -0.481594,0.02627 h -0.612938 v -0.796819 h 0.612938 q 0.183881,0 0.380897,0 0.201393,-0.0044 0.485972,-0.02189 -0.262688,-0.306469 -0.411544,-0.60856 -0.148856,-0.30209 -0.148856,-0.6435842 0,-0.2714438 0.126965,-0.5472657 0.126966,-0.2758218 0.341494,-0.5122406 0.214528,-0.2364188 0.49035,-0.3765188 0.275822,-0.1444781 0.569156,-0.1444781 0.306469,0 0.586669,0.1444781 0.2802,0.1401 0.494728,0.3765188 0.218906,0.2320406 0.345872,0.5122406 0.126966,0.2802 0.126966,0.5560219 z M 19.486635,9.0785718 q -0.166369,0 -0.35025,0.1269656 -0.179503,0.1225875 -0.306469,0.3108469 -0.122587,0.1882593 -0.122587,0.385275 0,0.2013937 0.118209,0.4115437 0.11821,0.21015 0.297713,0.385275 0.183881,0.175125 0.37214,0.271444 0.332738,-0.1401 0.564779,-0.450947 0.236418,-0.315225 0.236418,-0.626072 0,-0.1838812 -0.131343,-0.3721406 Q 20.038279,9.332503 19.85002,9.2055374 19.66176,9.0785718 19.486635,9.0785718 Z m -4.172353,2.9771252 q -0.437812,0 -0.809953,-0.18826 Q 14.136567,11.6748 13.738157,11.289525 13.453579,11.609128 13.190892,11.784253 12.928204,11.955 12.450988,11.955 h -0.192637 v -0.796819 h 0.170747 q 0.293334,0 0.494728,-0.166369 0.201394,-0.170746 0.359006,-0.437812 0.157613,-0.267066 0.310847,-0.5647782 0.157613,-0.3020907 0.35025,-0.5691563 0.192638,-0.2670656 0.464081,-0.4334344 0.275822,-0.1707469 0.67861,-0.1707469 0.485972,0 0.844978,0.2364188 0.363384,0.2320406 0.5604,0.6260719 0.201394,0.3940311 0.201394,0.8800031 0,0.713634 -0.363385,1.107666 -0.359006,0.389653 -1.015725,0.389653 z m -0.21015,-2.4648846 q -0.218906,0 -0.398409,0.1488562 -0.179503,0.1444782 -0.323981,0.3765184 -0.144479,0.232041 -0.25831,0.481594 0.262688,0.275822 0.542888,0.450947 0.359006,0.232041 0.639206,0.232041 0.647962,0 0.647962,-0.652341 0,-0.455325 -0.227662,-0.7442812 -0.223284,-0.2933344 -0.621694,-0.2933344 z"
         id="path18" />
      <path
         style="font-size:8.9664px;font-family:Vazirmatn"
         d="m 38.484868,23.91 h -1.116422 q -1.646175,0 -2.473641,-0.446569 -0.823087,-0.446569 -0.823087,-1.545478 0,-0.302091 0.06567,-0.591047 0.07005,-0.288956 0.179503,-0.556022 l 0.678609,0.253931 q -0.07005,0.18826 -0.118209,0.407166 -0.04378,0.218906 -0.04378,0.415922 0.0044,0.512241 0.284579,0.788062 0.284578,0.271444 0.844978,0.376519 0.564778,0.100697 1.405378,0.100697 h 1.112044 q 0.849356,0 1.217118,-0.148856 0.367763,-0.153235 0.367763,-0.604181 0,-0.288957 -0.205772,-0.564779 -0.201394,-0.275821 -0.525375,-0.542887 -0.319603,-0.271444 -0.687366,-0.529753 -0.367762,-0.262688 -0.691743,-0.516619 -0.288957,-0.227662 -0.288957,-0.573534 0,-0.179503 0.100697,-0.337116 0.100697,-0.161991 0.310847,-0.245175 l 3.147872,-1.278413 v 0.774929 l -2.753841,1.116422 q 0.494728,0.354628 0.954432,0.7005 0.459703,0.341493 0.827465,0.739903 0.367763,0.398409 0.582291,0.928162 0.23204,0.564778 0.49035,0.823088 0.258309,0.258309 0.726769,0.258309 h 0.118209 L 42.166871,23.91 h -0.118209 q -0.485972,0 -0.827466,-0.18826 -0.337116,-0.188259 -0.604181,-0.599803 -0.175125,0.25831 -0.429057,0.433435 -0.249553,0.175125 -0.656718,0.267065 Q 39.128452,23.91 38.484868,23.91 Z m -7.158235,0 q -0.4203,0 -0.678609,-0.175125 -0.25831,-0.175125 -0.4203,-0.494728 -0.245175,0.354628 -0.547266,0.51224 Q 29.382745,23.91 29.032495,23.91 q -0.503484,0 -0.779306,-0.170747 -0.271444,-0.175125 -0.433434,-0.499106 -0.205772,0.323981 -0.525375,0.499106 Q 26.974777,23.91 26.38373,23.91 h -0.402788 v -0.796819 h 0.411544 q 0.5604,0 0.818709,-0.205772 0.25831,-0.21015 0.25831,-0.761794 0,-0.113831 -0.01314,-0.267065 -0.0088,-0.157613 -0.03065,-0.437813 l 0.731146,-0.09194 0.07005,0.915028 q 0.02627,0.367762 0.223285,0.608559 0.201394,0.240797 0.591047,0.240797 0.464081,0 0.63045,-0.249553 0.166368,-0.249553 0.166368,-0.718013 0,-0.113831 -0.01313,-0.271443 -0.0088,-0.157613 -0.03065,-0.433435 l 0.731147,-0.09194 0.07005,0.915028 q 0.02189,0.354628 0.18826,0.604181 0.166368,0.245175 0.538509,0.245175 0.647962,0 0.647962,-0.967566 0,-0.157612 -0.01313,-0.328359 -0.0088,-0.170747 -0.03065,-0.450947 l 0.731147,-0.08756 0.07005,0.985078 q 0.05254,0.849356 0.866869,0.849356 h 0.131344 V 23.91 h -0.122588 q -0.459703,0 -0.766172,-0.166369 -0.306469,-0.170747 -0.4203,-0.507862 -0.183881,0.323981 -0.424678,0.499106 Q 31.755689,23.91 31.326633,23.91 Z m -8.14769,-0.796819 h 0.950053 q 0.437812,0 0.591047,-0.253931 0.157612,-0.253931 0.157612,-0.643585 0,-0.284578 -0.05254,-0.608559 -0.05254,-0.323981 -0.113832,-0.652341 l 0.761794,-0.192637 q 0.07443,0.35025 0.11821,0.687366 0.04378,0.337115 0.04378,0.643584 0,0.525375 -0.144478,0.936919 -0.144478,0.411543 -0.472838,0.647962 Q 24.689396,23.91 24.137752,23.91 h -0.958809 z m 1.580503,1.492941 0.612937,0.608559 -0.612937,0.617316 -0.60856,-0.617316 z m -1.453538,0 0.612938,0.608559 -0.612938,0.617316 -0.608559,-0.617316 z m -2.893942,1.659309 -0.258309,-0.696122 q 1.068262,-0.23204 1.506075,-0.814331 0.437812,-0.577913 0.437812,-1.370353 0,-0.372141 -0.08318,-0.779306 -0.07881,-0.411544 -0.223284,-0.836222 l 0.726768,-0.245175 q 0.315225,0.897515 0.315225,1.729359 0,0.731147 -0.258309,1.352841 -0.253931,0.626072 -0.792441,1.059506 -0.534131,0.437813 -1.370353,0.599803 z M 18.734549,23.91 q -0.179503,0 -0.367762,-0.0088 -0.18826,-0.0088 -0.380897,-0.02627 v -0.753038 q 0.271444,0.01751 0.459703,0.03065 0.188259,0.0088 0.376519,0.0088 0.179503,0 0.310847,-0.0044 0.135722,-0.0044 0.223284,-0.01751 0,0 -0.06567,-0.394031 -0.06567,-0.39841 -0.218906,-1.072641 -0.153234,-0.678609 -0.4203,-1.527966 -0.262688,-0.849356 -0.661097,-1.75125 l 0.678609,-0.315225 q 0.394032,0.932541 0.661097,1.812544 0.271444,0.880003 0.429057,1.584881 0.16199,0.7005 0.23204,1.116422 0.07005,0.411544 0.07005,0.411544 0.32836,-0.09194 0.586669,-0.2802 0.258309,-0.192638 0.407166,-0.556022 0.148856,-0.367762 0.148856,-0.989456 v -3.296728 h 0.739903 v 3.309862 q 0,0.827466 -0.236419,1.361597 -0.236418,0.529753 -0.665475,0.827466 -0.429056,0.293334 -1.015725,0.411543 Q 19.439427,23.91 18.734549,23.91 Z m -2.898318,-6.028678 h 0.739903 v 4.185487 q 0,0.617316 0.227662,0.831844 0.227663,0.214528 0.687366,0.214528 h 0.109453 V 23.91 h -0.109453 q -0.836222,0 -1.247766,-0.442191 -0.407165,-0.446569 -0.407165,-1.405378 z M 13.235625,23.91 H 12.43005 v -0.796819 h 0.796818 q 0.437813,0 0.591047,-0.253931 0.157613,-0.253931 0.157613,-0.643585 0,-0.284578 -0.05254,-0.608559 -0.05254,-0.323981 -0.113831,-0.652341 l 0.761794,-0.192637 q 0.07443,0.35025 0.118209,0.687366 0.04378,0.337115 0.04378,0.643584 0,0.525375 -0.144478,0.936919 -0.144478,0.411543 -0.472837,0.647962 Q 13.787268,23.91 13.235625,23.91 Z m 0.09632,0.669853 0.634829,0.634828 -0.634829,0.634828 -0.634828,-0.634828 z"
         id="path19" />
      <path
         style="font-size:8.9664px;font-family:Vazirmatn"
         d="m 49.709781,31.57106 0.612937,0.60856 -0.612937,0.617315 -0.60856,-0.617315 z m -1.453538,0 0.612938,0.60856 -0.612938,0.617315 -0.608559,-0.617315 z m 3.375535,1.707469 0.731146,-0.08756 0.07443,1.024481 q 0.02627,0.415922 0.236418,0.634828 0.214528,0.218906 0.639207,0.218906 h 0.105075 v 0.796819 h -0.105075 q -0.494729,0 -0.814332,-0.183881 -0.315225,-0.18826 -0.520997,-0.599803 -0.363384,0.4203 -0.93254,0.604181 -0.564778,0.179503 -1.571747,0.179503 h -0.731147 q -1.650553,0 -2.482397,-0.446569 -0.827466,-0.446568 -0.827466,-1.545478 0,-0.30209 0.06567,-0.591047 0.07005,-0.288956 0.179503,-0.556022 l 0.67861,0.253932 q -0.07005,0.192637 -0.11821,0.411543 -0.04378,0.218907 -0.04378,0.415922 0.0044,0.512241 0.288956,0.788063 0.284579,0.271444 0.849357,0.37214 0.564778,0.100697 1.409756,0.100697 h 0.731147 q 1.046372,0 1.619906,-0.218906 0.577913,-0.218906 0.577913,-0.796819 0,-0.179503 -0.01313,-0.385275 -0.0088,-0.205772 -0.02627,-0.389653 z m -9.522418,1.790653 h 0.950053 q 0.437812,0 0.591047,-0.253931 0.157612,-0.253931 0.157612,-0.643584 0,-0.284578 -0.05254,-0.60856 -0.05254,-0.323981 -0.113832,-0.65234 l 0.761794,-0.192638 q 0.07443,0.35025 0.11821,0.687366 0.04378,0.337115 0.04378,0.643584 0,0.525375 -0.144478,0.936919 -0.144478,0.411544 -0.472838,0.647963 -0.328359,0.23204 -0.880003,0.23204 H 42.10936 Z m 1.580503,1.492941 0.612937,0.608559 -0.612937,0.617316 -0.60856,-0.617316 z m -1.453538,0 0.612938,0.608559 -0.612938,0.617316 -0.608559,-0.617316 z m -2.893939,-1.484184 q 1.6812,0 1.6812,-0.871247 0,-0.411544 -0.4203,-0.871247 -0.4203,-0.459703 -1.392244,-0.989456 l 0.345872,-0.691744 q 1.125178,0.573534 1.668065,1.21274 0.547266,0.634829 0.547266,1.326572 0,0.823088 -0.569156,1.243388 -0.564778,0.4203 -1.795032,0.4203 -0.586668,0 -1.059506,-0.105075 v -0.792441 q 0.573535,0.11821 0.993835,0.11821 z m -1.860706,0.0394 q 0,2.556825 -2.806378,3.095334 l -0.25831,-0.696122 q 1.006969,-0.192637 1.606772,-0.643584 0.599803,-0.446569 0.709256,-1.125178 -0.166368,0.05254 -0.385275,0.09194 -0.218906,0.0394 -0.385275,0.0394 -1.598015,0 -1.598015,-1.357219 0,-0.323982 0.09632,-0.647963 0.100697,-0.328359 0.288957,-0.599803 0.192637,-0.275822 0.468459,-0.442191 0.275822,-0.166368 0.626072,-0.166368 0.415922,0 0.722391,0.205772 0.310846,0.205771 0.51224,0.556021 0.201394,0.35025 0.302091,0.788063 0.100697,0.437812 0.100697,0.901894 z m -1.497319,-0.03065 q 0.385275,0 0.766172,-0.113831 -0.04378,-0.735525 -0.271444,-1.125179 -0.227662,-0.394031 -0.643584,-0.394031 -0.288957,0 -0.450947,0.179503 -0.157613,0.179503 -0.223285,0.424678 -0.06129,0.240797 -0.06129,0.437813 0,0.319603 0.218906,0.455325 0.218906,0.135722 0.665475,0.135722 z m -3.865883,-0.814331 q 0,-0.113832 -0.05254,-0.293335 -0.04816,-0.183881 -0.11821,-0.341494 l -0.774928,-1.755628 0.682988,-0.319603 0.993834,2.337919 q 0.201394,0.472837 0.35025,0.726769 0.153234,0.253931 0.297713,0.35025 0.148856,0.09194 0.337115,0.09194 h 0.183881 v 0.796819 h -0.183881 q -0.345872,0 -0.564778,-0.08318 -0.214528,-0.08319 -0.372141,-0.249553 -0.157612,-0.166369 -0.319603,-0.4203 -0.306468,0.385275 -0.783684,0.569156 -0.472838,0.179503 -1.182094,0.179503 -0.306469,0 -0.551644,-0.02627 -0.245175,-0.03065 -0.464081,-0.08318 v -0.792441 q 0.503485,0.11821 0.950053,0.11821 1.571747,0 1.571747,-0.805575 z m -3.445584,-0.836222 v 0.757415 q -0.188259,0.01751 -0.44219,0.09632 -0.253932,0.07443 -0.53851,0.21015 0.0088,0.363384 0.35025,0.468459 0.341494,0.100697 0.967566,0.100697 h 0.240797 v 0.796819 h -0.25831 q -0.893137,0 -1.339706,-0.236419 -0.442191,-0.236418 -0.529753,-0.849356 -0.866869,0.472838 -1.6812,0.779306 -0.809953,0.306469 -1.746872,0.306469 H 22.963819 V 35.069182 H 23.7081 q 0.512241,0 0.941297,-0.09194 0.429056,-0.09194 0.836222,-0.253932 0.411544,-0.16199 0.858113,-0.380896 0.450947,-0.223285 1.006968,-0.477216 -0.310846,-0.113831 -0.643584,-0.245175 -0.332737,-0.135722 -0.634828,-0.253931 -0.297713,-0.11821 -0.520997,-0.192638 -0.223284,-0.07881 -0.315225,-0.07881 -0.267066,0 -0.472838,0.157612 -0.201393,0.153235 -0.37214,0.372141 l -0.11821,0.148856 -0.669853,-0.328359 0.06567,-0.105075 q 0.288956,-0.468459 0.669853,-0.748659 0.385275,-0.284579 0.901894,-0.284579 0.214528,0 0.516619,0.109454 0.306469,0.109453 0.665475,0.275821 0.359006,0.161991 0.744281,0.332738 0.385275,0.166369 0.77055,0.284578 0.385275,0.113831 0.735525,0.126966 z m -7.434058,2.530556 q -0.437812,0 -0.809953,-0.188259 -0.367763,-0.192638 -0.766172,-0.577913 -0.284578,0.319603 -0.547266,0.494728 -0.262687,0.170747 -0.739903,0.170747 h -0.192637 v -0.796819 h 0.170747 q 0.293334,0 0.494728,-0.166368 0.201394,-0.170747 0.359006,-0.437813 0.157613,-0.267066 0.310847,-0.564778 0.157612,-0.302091 0.35025,-0.569156 0.192637,-0.267066 0.464081,-0.433435 0.275822,-0.170747 0.67861,-0.170747 0.485971,0 0.844978,0.236419 0.363384,0.232041 0.5604,0.626072 0.201393,0.394031 0.201393,0.880003 0,0.713635 -0.363384,1.107666 -0.359006,0.389653 -1.015725,0.389653 z m -0.21015,-2.464884 q -0.218906,0 -0.398409,0.148856 -0.179503,0.144478 -0.323982,0.376519 -0.144478,0.23204 -0.258309,0.481593 0.262688,0.275822 0.542888,0.450947 0.359006,0.232041 0.639206,0.232041 0.647962,0 0.647962,-0.652341 0,-0.455325 -0.227662,-0.744281 -0.223285,-0.293334 -0.621694,-0.293334 z m -2.167767,0.77055 q 0,-0.113832 -0.05254,-0.293335 -0.04816,-0.183881 -0.11821,-0.341494 l -0.774928,-1.755628 0.682988,-0.319603 0.993834,2.337919 q 0.201394,0.472837 0.35025,0.726769 0.153235,0.253931 0.297713,0.35025 0.148856,0.09194 0.337115,0.09194 h 0.183882 v 0.796819 h -0.183882 q -0.345871,0 -0.564778,-0.08318 -0.214528,-0.08319 -0.37214,-0.249553 -0.157613,-0.166369 -0.319603,-0.4203 -0.306469,0.385275 -0.783685,0.569156 -0.472837,0.179503 -1.182094,0.179503 -0.306468,0 -0.551643,-0.02627 -0.245175,-0.03065 -0.464082,-0.08318 v -0.792441 q 0.503485,0.11821 0.950053,0.11821 1.571747,0 1.571747,-0.805575 z m -5.844796,0.796818 h 0.950053 q 0.437812,0 0.591047,-0.253931 0.157612,-0.253931 0.157612,-0.643584 0,-0.284578 -0.05254,-0.60856 -0.05254,-0.323981 -0.113831,-0.65234 l 0.761793,-0.192638 q 0.07443,0.35025 0.11821,0.687366 0.04378,0.337115 0.04378,0.643584 0,0.525375 -0.144478,0.936919 -0.144478,0.411544 -0.472838,0.647963 -0.328359,0.23204 -0.880003,0.23204 h -0.958809 z m 1.580503,1.492941 0.612937,0.608559 -0.612937,0.617316 -0.608559,-0.617316 z m -1.453538,0 0.612938,0.608559 -0.612938,0.617316 -0.608559,-0.617316 z m -1.843192,-2.289759 q 0,-0.113832 -0.05254,-0.293335 -0.04816,-0.183881 -0.118209,-0.341494 l -0.774928,-1.755628 0.682987,-0.319603 0.993835,2.337919 q 0.201393,0.472837 0.35025,0.726769 0.153234,0.253931 0.297712,0.35025 0.148856,0.09194 0.337116,0.09194 h 0.183881 v 0.796819 h -0.183881 q -0.345872,0 -0.564778,-0.08318 -0.214529,-0.08319 -0.372141,-0.249553 -0.157613,-0.166369 -0.319603,-0.4203 -0.306469,0.385275 -0.783685,0.569156 -0.472837,0.179503 -1.1820934,0.179503 -0.3064687,0 -0.5516437,-0.02627 -0.245175,-0.03065 -0.4640813,-0.08318 v -0.792441 q 0.5034844,0.11821 0.9500532,0.11821 1.5717472,0 1.5717472,-0.805575 z M 5.1748996,30.108767 5.7659465,30.699814 5.1748996,31.29086 4.5838527,30.699814 Z M 5.923559,31.216432 6.5146059,31.807479 5.923559,32.398526 5.3325121,31.807479 Z m -1.4973188,0 0.5910469,0.591047 -0.5910469,0.591047 -0.5910469,-0.591047 z m -0.1882594,4.649569 q -0.5034844,0 -0.7793062,-0.170747 -0.2714438,-0.175125 -0.4334344,-0.499106 -0.2057719,0.323981 -0.525375,0.499106 -0.3196032,0.170747 -0.91065,0.170747 H 1.1864277 v -0.796819 h 0.4115437 q 0.5604,0 0.8187094,-0.205772 0.2583094,-0.21015 0.2583094,-0.761793 0,-0.113832 -0.013134,-0.267066 -0.00876,-0.157612 -0.030647,-0.437812 l 0.7311469,-0.09194 0.07005,0.915028 q 0.026269,0.367763 0.2232844,0.608559 0.2013937,0.240797 0.5910469,0.240797 0.4640812,0 0.63045,-0.249553 0.1663687,-0.249553 0.1663687,-0.718012 0,-0.113832 -0.013134,-0.271444 -0.00876,-0.157613 -0.030647,-0.433434 l 0.7311469,-0.09194 0.07005,0.915028 q 0.021891,0.354628 0.1882594,0.604181 0.1663687,0.245175 0.5385093,0.245175 0.3633844,0 0.4991063,-0.271443 0.1357219,-0.271444 0.1357219,-0.634829 0,-0.328359 -0.065672,-0.661096 -0.061294,-0.332738 -0.1094531,-0.53851 L 7.7361028,32.76191 q 0.078806,0.293335 0.1269656,0.626072 0.048159,0.32836 0.048159,0.656719 0,0.472838 -0.1313438,0.888759 -0.1313437,0.415922 -0.4334344,0.674232 -0.2977125,0.253931 -0.8143312,0.258309 -0.4203,0 -0.6786094,-0.175125 -0.2583094,-0.175125 -0.4203,-0.494728 -0.245175,0.354628 -0.5472657,0.512241 -0.2977125,0.157612 -0.6479625,0.157612 z"
         id="path20" />
    </g>
    <path
       id="path8"
       d="M 113.38724,-70.867 V 70.867"
       style="fill:none;stroke:#be1e2d;stroke-width:3.9851;stroke-linecap:butt;stroke-linejoin:miter;stroke-miterlimit:10;stroke-dasharray:2.98883, 2.98883;stroke-dashoffset:0;stroke-opacity:1"
       transform="matrix(1.3333333,0,0,-1.3333333,115.74133,117.06667)" />
    <path
       style="font-weight:800;font-size:9.9626px;font-family:Vazirmatn;fill:#be1e2d"
       d="m 52.204604,-7.9438112 0.875619,0.8756191 -0.875619,0.8707546 -0.870755,-0.8707546 z m 0.895077,6.0028555 q -0.355112,0.068104 -0.754005,0.068104 -0.861026,0 -1.362074,-0.379435 -0.501049,-0.3794349 -0.501049,-1.1869503 0,-0.5253715 0.223769,-1.0264202 0.228634,-0.5010487 0.642121,-0.8269736 0.413487,-0.3307895 0.968045,-0.3307895 0.54483,0 0.92913,0.2675503 0.384299,0.2675503 0.627527,0.7199535 0.243227,0.4524032 0.355112,1.0118266 0.116749,0.5545587 0.116749,1.1334403 0,1.0118265 -0.272415,1.55179162 -0.272415,0.53510058 -0.846432,0.7394117 Q 52.657007,0 51.757065,0 H 50.13717 q -0.841567,0 -1.551792,-0.10215556 -0.710224,-0.10702012 -1.235596,-0.36970585 -0.520507,-0.26268574 -0.807515,-0.73454719 -0.287009,-0.4767259 -0.287009,-1.2161376 0,-0.4378096 0.09729,-0.8512964 0.09729,-0.4183514 0.243228,-0.7734636 l 1.172357,0.4426742 q -0.0827,0.2286338 -0.17026,0.530236 -0.0827,0.3016021 -0.0827,0.574017 0,0.486455 0.359977,0.7199535 0.359976,0.2334984 0.958316,0.3064666 0.59834,0.068104 1.3037,0.068104 h 1.717186 q 0.627527,0 0.933994,-0.077833 0.306467,-0.077833 0.311331,-0.4572677 z m -0.778328,-1.1626276 q 0.37457,0 0.744276,-0.082697 -0.03405,-0.2334984 -0.131343,-0.4815905 -0.09243,-0.2529566 -0.248092,-0.4280805 -0.150801,-0.1751238 -0.379435,-0.1751238 -0.301602,0 -0.466996,0.2480921 -0.160531,0.2432275 -0.160531,0.5253715 0,0.2578212 0.184853,0.3259249 0.189718,0.068104 0.457268,0.068104 z M 43.745155,-6.8201 h 1.313429 v 4.4461993 q 0,0.5156423 0.150801,0.7442762 0.150801,0.2237694 0.622662,0.2237694 h 0.121614 V 0 H 45.832047 Q 44.742388,0 44.241339,-0.56428788 43.745155,-1.1285758 43.745155,-2.2571515 Z m -4.086228,2.3252552 q 0.65185,0.3842995 1.070201,0.6907662 0.418352,0.3064667 0.681037,0.6372561 0.267551,0.3307895 0.457268,0.7929218 0.145937,0.3502476 0.277279,0.5642879 0.136208,0.2140402 0.340519,0.3113312 0.204311,0.092427 0.559423,0.092427 h 0.136208 V 0 h -0.136208 q -0.58861,0 -0.987503,-0.17025927 -0.394029,-0.17512383 -0.671308,-0.57888153 -0.252957,0.28214394 -0.554559,0.44753866 -0.296738,0.16053017 -0.715089,0.23349843 Q 39.702708,0 39.08491,0 h -1.18695 v -1.4058551 h 1.182085 q 0.778329,0 1.167493,-0.1070202 0.389164,-0.1118846 0.389164,-0.4524032 0,-0.1605301 -0.238363,-0.3697058 -0.238363,-0.2140402 -0.59834,-0.4475387 -0.355112,-0.238363 -0.729683,-0.4669968 -0.369705,-0.2334985 -0.64212,-0.4280805 -0.204311,-0.1508011 -0.311332,-0.3940286 -0.10702,-0.2480921 -0.10702,-0.5107778 0,-0.2772794 0.126479,-0.5010487 0.131343,-0.2286339 0.398893,-0.335654 l 3.755433,-1.5323335 v 1.3912615 z m -5.307221,-2.4517335 0.783193,0.7783281 -0.783193,0.7831926 -0.783193,-0.7831926 z m 0.851296,1.2404604 0.783193,0.7831926 -0.783193,0.7831927 -0.783192,-0.7831927 z m -1.697728,0 0.778328,0.7831926 -0.778328,0.7831927 -0.783193,-0.7831927 z M 33.310692,0 Q 32.819372,0 32.483718,-0.16539472 32.152929,-0.335654 31.938889,-0.61293338 31.671338,-0.33078944 31.301633,-0.16539472 30.931927,0 30.367639,0 H 29.9201 v -1.4058551 h 0.457268 q 0.535101,0 0.75887,-0.1313429 0.228634,-0.1313429 0.228634,-0.6323916 0,-0.077833 -0.0097,-0.2578212 -0.0097,-0.1799884 -0.02432,-0.3940286 -0.01459,-0.2189048 -0.02919,-0.3940286 l 1.221002,-0.1508011 0.102155,1.3134287 q 0.04378,0.6469853 0.695631,0.6469853 0.403758,0 0.539965,-0.1653948 0.136208,-0.1702592 0.136208,-0.5983397 0,-0.068104 -0.0097,-0.2480921 -0.0097,-0.1848529 -0.02432,-0.4037577 -0.01459,-0.2189048 -0.02919,-0.3940286 l 1.221003,-0.1508011 0.102155,1.3134287 q 0.01946,0.2967376 0.145937,0.4718614 0.131343,0.1751239 0.442674,0.1751239 0.291873,0 0.398893,-0.2286339 0.111885,-0.2334985 0.111885,-0.5545588 0,-0.2772794 -0.05351,-0.5691524 -0.04865,-0.2967376 -0.111885,-0.5351006 -0.05837,-0.2432275 -0.08756,-0.3551122 l 1.259919,-0.3453831 q 0.09729,0.3842995 0.16053,0.8221091 0.06324,0.432945 0.06324,0.8610254 0,0.6032043 -0.16053,1.1334403 -0.155666,0.52537151 -0.535101,0.85129641 Q 36.511566,0 35.854852,0 35.417042,0 35.11544,-0.17998837 34.818703,-0.35997675 34.614392,-0.62266248 34.366299,-0.35997675 34.050104,-0.17998837 33.738772,0 33.310692,0 Z m -3.940751,2.500379 q -1.070202,0 -1.746374,-0.4134868 -0.671308,-0.4134868 -0.992368,-1.10911752 -0.316196,-0.69076619 -0.316196,-1.53719801 0,-0.48159047 0.09243,-1.00696197 0.09729,-0.5253715 0.301602,-1.0702012 l 1.182086,0.4280805 q -0.145936,0.4232159 -0.233498,0.8415673 -0.08756,0.41835132 -0.08756,0.78805717 0,0.47186142 0.165395,0.85129637 0.170259,0.3842995 0.564287,0.60806883 0.394029,0.22863393 1.070202,0.22863393 0.773463,0 1.24046,-0.16053022 0.466997,-0.16053017 0.676173,-0.35997675 0.21404,-0.19944658 0.21404,-0.31133124 0,-0.17025928 -0.165395,-0.22376933 Q 31.174689,0 30.819577,0 H 30.050978 Q 29.851531,0 29.798021,-0.10215556 29.744511,-0.20431113 29.695865,-0.3745704 L 29.48669,-1.1285758 q -0.03405,-0.1216137 -0.02432,-0.1994465 0.01459,-0.077833 0.189718,-0.077833 h 2.938188 V 0 h 0.03892 q 0.04378,0.17025927 0.04378,0.27241484 0,0.59347518 -0.394028,1.09938846 Q 31.889778,1.8825811 31.150366,2.1890478 30.415819,2.500379 29.369941,2.500379 Z M 19.8792,-1.4058551 q 0.0681,-0.1118847 0.136207,-0.2091757 0.07297,-0.1021556 0.145937,-0.2043111 V -6.8201 h 1.308564 v 3.3516754 q 0.447539,-0.432945 0.909671,-0.6859017 0.466997,-0.2529566 1.016691,-0.2529566 0.617798,0 1.089659,0.2626857 0.476726,0.2578212 0.744277,0.715089 0.272414,0.4524032 0.272414,1.0458784 0,0.6859016 -0.291873,1.1480339 -0.291873,0.45726779 -0.81238,0.72968263 -0.520507,0.27241484 -1.211273,0.38916405 Q 22.501193,0 21.708271,0 h -2.519837 v -1.4058551 z m 3.551122,-1.62476 q -0.374571,0 -0.754006,0.238363 -0.379435,0.2334985 -0.724818,0.6080689 -0.345383,0.3697058 -0.627527,0.7783281 h 0.442674 q 0.656715,0 1.216138,-0.063239 0.564288,-0.068104 0.904807,-0.2578212 0.340518,-0.1897175 0.340518,-0.5642879 0,-0.335654 -0.228634,-0.5351005 -0.223769,-0.2043112 -0.569152,-0.2043112 z M 17.174509,-6.8201 h 1.313428 v 4.4461993 q 0,0.5156423 0.150802,0.7442762 0.150801,0.2237694 0.622662,0.2237694 h 0.121614 V 0 H 19.261401 Q 18.171742,0 17.670693,-0.56428788 17.174509,-1.1285758 17.174509,-2.2571515 Z m -4.217563,5.4142449 h 0.569152 q 0.535101,0 0.734547,-0.1799884 0.204311,-0.1848529 0.204311,-0.671308 0,-0.2870085 -0.01459,-0.5545588 -0.01459,-0.2724148 -0.03405,-0.530236 l 1.216137,-0.1508011 0.09729,1.3912615 q 0.02432,0.3697059 0.204312,0.5351006 0.179988,0.1605302 0.574017,0.1605302 h 0.102155 V 0 H 16.498338 Q 16.011883,0 15.661636,-0.17512382 15.316253,-0.35024765 15.092483,-0.63239159 14.795746,-0.335654 14.387123,-0.16539472 13.983366,0 13.526098,0 h -0.569152 z m 1.002097,1.97987208 0.875619,0.87561912 -0.875619,0.8707546 -0.870755,-0.8707546 z m -3.663008,-6.86874558 0.826974,0.8172446 0.817244,-0.8172446 0.831838,0.8269737 -0.831838,0.8367027 -0.817244,-0.8269736 -0.826974,0.8269736 -0.8269735,-0.8367027 z M 10.772761,0 H 9.7852573 v -1.4058551 h 0.9923687 q 0.369706,0 0.505913,-0.2286339 0.141072,-0.2334985 0.141072,-0.5886107 0,-0.3307894 -0.0827,-0.7199535 -0.07783,-0.3940286 -0.160531,-0.768599 l 1.274513,-0.3307894 q 0.09243,0.4572678 0.145936,0.909671 0.05837,0.4475386 0.05837,0.8561609 0,0.6469852 -0.175124,1.1626276 -0.175124,0.51564237 -0.588611,0.81724451 Q 11.48785,0 10.772761,0 Z M 5.7804488,2.6560447 5.2842646,1.3523451 Q 5.9896245,1.201544 6.4955377,0.94858738 7.0063155,0.7004953 7.2835949,0.28214394 q 0.2772794,-0.41835136 0.2772794,-1.07993025 0,-0.44267409 -0.141072,-0.99236829 -0.1410719,-0.5545588 -0.3016021,-1.0312848 l 1.3134287,-0.4232159 q 0.1897175,0.530236 0.2870085,1.1431694 0.1021555,0.6129334 0.1021555,1.17722127 0,1.02155564 -0.3794349,1.75123824 Q 8.0667876,1.5615208 7.3808859,2.013924 6.6998488,2.4711917 5.7804488,2.6560447 Z M 5.566408,-6.8201 v 6.81523545 H 4.2529794 V -6.8201 Z"
       id="text8"
       transform="matrix(1.3333333,0,0,1.3333333,229.97867,226.84133)"
       aria-label="فﺎﮑﺷﯽﻃﺎﺒﺗرا" />
    <path
       id="path9"
       d="m 70.867,28.3468 h 83.04789"
       style="fill:none;stroke:#b8860b;stroke-width:1.99255;stroke-linecap:butt;stroke-linejoin:miter;stroke-miterlimit:10;stroke-dasharray:none;stroke-opacity:1"
       transform="matrix(1.3333333,0,0,-1.3333333,115.74133,117.06667)" />
    <path
       id="path10"
       d="M -3.9851,5.27061 C -3.25705,2.1082 -1.63463,0.6149 0,0 -1.63463,-0.6149 -3.25705,-2.1082 -3.9851,-5.27061"
       style="fill:none;stroke:#b8860b;stroke-width:1.99255;stroke-linecap:round;stroke-linejoin:round;stroke-miterlimit:10;stroke-dasharray:none;stroke-opacity:1"
       transform="matrix(1.3333333,0,0,-1.3333333,322.28955,79.270933)" />
    <path
       id="path11"
       d="M 155.90744,-28.3468 H 72.85956"
       style="fill:none;stroke:#b8860b;stroke-width:1.99255;stroke-linecap:butt;stroke-linejoin:miter;stroke-miterlimit:10;stroke-dasharray:none;stroke-opacity:1"
       transform="matrix(1.3333333,0,0,-1.3333333,115.74133,117.06667)" />
    <path
       id="path12"
       d="M -3.9851,5.27061 C -3.25705,2.1082 -1.63463,0.6149 0,0 -1.63463,-0.6149 -3.25705,-2.1082 -3.9851,-5.27061"
       style="fill:none;stroke:#b8860b;stroke-width:1.99255;stroke-linecap:round;stroke-linejoin:round;stroke-miterlimit:10;stroke-dasharray:none;stroke-opacity:1"
       transform="matrix(-1.3333333,0,0,1.3333333,211.55904,154.8624)" />
    <path
       style="font-size:8.9664px;font-family:Vazirmatn;fill:#b8860b"
       d="m 1.9001063,-2.3510532 q -0.3064688,0.2802 -0.4859719,0.5560219 -0.175125,0.2758219 -0.175125,0.6742313 0.3108469,0 0.4290563,0.13572186 0.1225875,0.13572188 0.1225875,0.40716563 0,0.26706563 -0.1357219,0.42467813 Q 1.5192094,0 1.2477656,0 0.90189376,0 0.74865939,-0.1926375 0.59980313,-0.38527501 0.59980313,-0.70925626 q 0,-0.59542504 0.28020001,-1.05512814 Q 1.1602031,-2.2284657 1.61115,-2.5787157 Z m 61.6386427,1.1339344 q -0.188259,-0.1663687 -0.424678,-0.4115437 -0.23204,-0.2495532 -0.450947,-0.5166188 -0.218906,-0.2670656 -0.363384,-0.4947281 -0.1401,-0.2320406 -0.1401,-0.3590063 0,-0.1795031 0.188259,-0.3239812 0.18826,-0.1444782 0.494729,-0.245175 0.310846,-0.1006969 0.669853,-0.1532344 0.359006,-0.056916 0.7005,-0.056916 0.337115,0 0.696122,0.056916 0.359006,0.052538 0.665475,0.1532344 0.310846,0.1006968 0.503484,0.245175 0.192637,0.1444781 0.192637,0.3239812 0,0.1269657 -0.148856,0.3677625 -0.144478,0.2364188 -0.37214,0.5166188 -0.227663,0.2758219 -0.477216,0.5297531 -0.245175,0.2539313 -0.450947,0.4203 0.367763,0.22766253 0.801197,0.29771254 0.433434,0.07005 1.028859,0.07005 h 0.262688 V 0 h -0.262688 q -0.44219,0 -0.8406,-0.0525375 -0.398409,-0.05691563 -0.801197,-0.21452813 -0.398409,-0.16199063 -0.853734,-0.47721563 -0.7005,0.39403125 -1.1208,0.80119689 -0.415922,0.40716563 -0.415922,0.86686876 0,0.61293751 0.472838,0.97632191 0.472837,0.3633844 1.42289,0.3633844 0.380897,0 0.783685,-0.065672 0.402787,-0.061294 0.796818,-0.1926375 l 0.170747,0.7311469 q -0.37214,0.1357218 -0.827465,0.21015 -0.450947,0.078806 -0.945675,0.078806 -0.783685,0 -1.374732,-0.2320406 -0.591046,-0.2320406 -0.919406,-0.7005 -0.323981,-0.4684594 -0.323981,-1.16895941 0,-0.40278751 0.161991,-0.72676876 0.166368,-0.32398126 0.4203,-0.58229064 0.258309,-0.25830938 0.542887,-0.46408125 0.288956,-0.20577184 0.538509,-0.36776254 z m 0.674232,-1.8081656 q -0.197016,0 -0.564778,0.035025 -0.363385,0.030647 -0.687366,0.1401 0.284578,0.3546281 0.573534,0.6435844 0.288957,0.2845781 0.481594,0.455325 0.197016,0.1663687 0.197016,0.1663687 0,0 0.197015,-0.1663687 0.197016,-0.1707469 0.49035,-0.455325 0.293335,-0.2889563 0.573535,-0.6435844 -0.323982,-0.1094531 -0.691744,-0.1401 -0.367763,-0.035025 -0.569156,-0.035025 z M 59.510876,0 h -0.805575 v -0.79681876 h 0.796818 q 0.437813,0 0.591047,-0.25393124 0.157613,-0.2539313 0.157613,-0.6435844 0,-0.2845781 -0.05254,-0.6085594 -0.05254,-0.3239812 -0.113831,-0.6523406 l 0.761794,-0.1926375 q 0.07443,0.35025 0.118209,0.6873656 0.04378,0.3371156 0.04378,0.6435844 0,0.525375 -0.144478,0.93691876 -0.144478,0.41154376 -0.472837,0.64796251 Q 60.062519,0 59.510876,0 Z m 0.09632,0.66985314 0.634828,0.63482816 -0.634828,0.6348281 -0.634828,-0.6348281 z M 57.120415,-6.0286782 h 0.739903 v 4.1854875 q 0,0.6173157 0.227662,0.8318438 0.227663,0.21452814 0.687366,0.21452814 h 0.109453 V 0 H 58.775346 Q 57.939124,0 57.52758,-0.44219063 57.120415,-0.88875939 57.120415,-1.8475688 Z m -2.364182,3.4412063 0.731147,-0.087562 0.07005,1.0244812 q 0.05254,0.85373444 0.888759,0.85373444 h 0.09194 V 0 H 56.437433 Q 55.951461,0 55.658126,-0.175125 55.36917,-0.35025001 55.189667,-0.66985314 54.953248,-0.32398126 54.567973,-0.16199063 54.182698,0 53.762398,0 h -0.4203 v -0.79681876 h 0.4203 q 0.556022,0 0.792441,-0.24955314 0.240797,-0.2495531 0.240797,-0.7661719 0,-0.21015 -0.01313,-0.3984094 -0.0088,-0.1882593 -0.02627,-0.3765187 z m 0.08318,-2.1803063 0.634828,0.6348281 -0.634828,0.6348282 -0.634828,-0.6348282 z m -3.222306,4.86847508 q -0.437812,0 -0.809953,-0.18825938 Q 50.439396,-0.2802 50.040986,-0.66547501 49.756408,-0.34587188 49.493721,-0.17074688 49.231033,0 48.753818,0 H 48.56118 v -0.79681876 h 0.170747 q 0.293334,0 0.494728,-0.16636876 0.201394,-0.17074688 0.359006,-0.43781248 0.157613,-0.2670657 0.310847,-0.5647782 0.157613,-0.3020906 0.35025,-0.5691562 0.192638,-0.2670656 0.464082,-0.4334344 0.275821,-0.1707469 0.678609,-0.1707469 0.485972,0 0.844978,0.2364188 0.363384,0.2320406 0.5604,0.6260719 0.201394,0.3940312 0.201394,0.8800031 0,0.71363439 -0.363385,1.10766565 -0.359006,0.38965313 -1.015725,0.38965313 z m -0.21015,-2.46488438 q -0.218906,0 -0.398409,0.1488562 -0.179503,0.1444781 -0.323981,0.3765188 -0.144478,0.2320406 -0.25831,0.4815937 0.262688,0.2758219 0.542888,0.45094691 0.359006,0.23204063 0.639206,0.23204063 0.647963,0 0.647963,-0.65234064 0,-0.455325 -0.227663,-0.7442813 -0.223284,-0.2933343 -0.621694,-0.2933343 z m -0.889354,0.013134 q -0.306469,0.2802 -0.485972,0.5560219 -0.175125,0.2758219 -0.175125,0.6742313 0.310847,0 0.429056,0.13572186 0.122587,0.13572188 0.122587,0.40716563 0,0.26706563 -0.135721,0.42467813 Q 50.13671,0 49.865266,0 49.519394,0 49.36616,-0.1926375 q -0.148857,-0.19263751 -0.148857,-0.51661876 0,-0.59542504 0.2802,-1.05512814 0.2802,-0.4640813 0.731147,-0.8143313 z m -5.520814,-1.9438875 0.612938,0.6085594 -0.612938,0.6173156 -0.608559,-0.6173156 z m -1.453537,0 0.612937,0.6085594 -0.612937,0.6173156 -0.60856,-0.6173156 z m 3.375534,1.7074688 0.731147,-0.087562 0.07443,1.0244812 q 0.02627,0.4159219 0.236419,0.6348282 0.214528,0.21890624 0.639206,0.21890624 h 0.105075 V 0 H 48.59999 Q 48.105262,0 47.785659,-0.18388125 47.470434,-0.37214063 47.264662,-0.78368439 46.901278,-0.36338438 46.332121,-0.17950313 45.767343,0 44.760374,0 h -0.731146 q -1.650554,0 -2.482397,-0.44656876 -0.827466,-0.44656875 -0.827466,-1.54547814 0,-0.3020906 0.06567,-0.5910469 0.07005,-0.2889562 0.179503,-0.5560219 l 0.678609,0.2539313 q -0.07005,0.1926375 -0.118209,0.4115437 -0.04378,0.2189063 -0.04378,0.4159219 0.0044,0.5122406 0.288956,0.7880625 0.284578,0.27144378 0.849356,0.37214066 0.564778,0.10069688 1.409757,0.10069688 h 0.731146 q 1.046372,0 1.619907,-0.21890624 0.577912,-0.2189063 0.577912,-0.7968188 0,-0.1795031 -0.01313,-0.385275 -0.0088,-0.2057719 -0.02627,-0.3896531 z m -9.522422,1.79065314 h 0.950054 q 0.437812,0 0.591046,-0.25393124 0.157613,-0.2539313 0.157613,-0.6435844 0,-0.2845781 -0.05254,-0.6085594 -0.05254,-0.3239812 -0.113832,-0.6523406 l 0.761794,-0.1926375 q 0.07443,0.35025 0.118209,0.6873656 0.04378,0.3371156 0.04378,0.6435844 0,0.525375 -0.144478,0.93691876 -0.144479,0.41154376 -0.472838,0.64796251 Q 38.906822,0 38.355178,0 h -0.95881 z m 1.580504,1.49294065 0.612937,0.60855941 -0.612937,0.6173156 -0.60856,-0.6173156 z m -1.453538,0 0.612938,0.60855941 -0.612938,0.6173156 -0.608559,-0.6173156 z m -1.70747,-6.72480009 h 0.739904 v 4.1854875 q 0,0.6173157 0.227662,0.8318438 0.227663,0.21452814 0.687366,0.21452814 h 0.109453 V 0 H 37.470796 Q 36.634574,0 36.22303,-0.44219063 35.815864,-0.88875939 35.815864,-1.8475688 Z M 30.111167,0 H 29.91853 v -0.79681876 h 0.170746 q 0.293335,0 0.494729,-0.16636876 0.201393,-0.17074688 0.359006,-0.43781248 0.157612,-0.2670657 0.310847,-0.5647782 0.157612,-0.3020906 0.35025,-0.5691562 0.192637,-0.2670656 0.464081,-0.4334344 0.275822,-0.1707469 0.678609,-0.1707469 0.687366,0 1.068263,0.4203 0.380897,0.4159219 0.512241,1.0376157 0.08756,0.4290562 0.297712,0.6567187 0.214528,0.22766254 0.494728,0.22766254 h 0.113831 V 0 h -0.118209 q -0.2802,0 -0.547266,-0.11383125 -0.267065,-0.11820938 -0.433434,-0.37214063 -0.183881,0.26706563 -0.455325,0.42905625 -0.271444,0.15761251 -0.704878,0.15761251 -0.437813,0 -0.809953,-0.18825938 Q 31.796745,-0.2802 31.398336,-0.66547501 31.113758,-0.34587188 30.85107,-0.17074688 30.588383,0 30.111167,0 Z m 2.653144,-2.3641875 q -0.218906,0 -0.39841,0.1488562 -0.179503,0.1444781 -0.323981,0.3765188 -0.144478,0.2320406 -0.258309,0.4815937 0.144478,0.1488563 0.288956,0.2670657 0.144478,0.11820933 0.2802,0.20139371 0.35025,0.21452813 0.612938,0.21452813 0.647962,0 0.647962,-0.65234064 0,-0.455325 -0.227662,-0.7442813 -0.223285,-0.2933343 -0.621694,-0.2933343 z m -8.852568,1.56736874 h 0.744281 q 0.512241,0 0.941297,-0.0919406 0.429057,-0.0919406 0.836222,-0.25393121 0.411544,-0.1619907 0.858113,-0.3808969 0.450947,-0.2232844 1.006969,-0.4772157 Q 27.987778,-2.1146344 27.65504,-2.2459782 27.322303,-2.3817 27.020212,-2.4999094 26.7225,-2.6181188 26.499215,-2.6925469 q -0.223284,-0.078806 -0.315225,-0.078806 -0.267065,0 -0.472837,0.1576125 -0.201394,0.1532344 -0.372141,0.3721407 l -0.118209,0.1488562 -0.669854,-0.3283594 0.06567,-0.105075 q 0.288957,-0.4684593 0.669853,-0.7486594 0.385276,-0.2845781 0.901894,-0.2845781 0.214528,0 0.516619,0.1094531 0.306469,0.1094532 0.665475,0.2758219 0.359006,0.1619907 0.744281,0.3327375 0.385275,0.1663688 0.77055,0.2845782 0.385275,0.1138312 0.735525,0.1269656 v 0.7574156 q -0.2802,0.030647 -0.718012,0.2057719 -0.433435,0.1707469 -1.129556,0.53850938 -0.5604,0.29771251 -1.041994,0.50786251 Q 26.25404,-0.21452813 25.754934,-0.105075 25.260206,0 24.64289,0 h -0.731147 z m 1.829673,-5.23185944 v 6.02430007 H 25.001512 V -6.0286782 Z m -3.222303,4.4350407 q 0,-0.1138313 -0.05254,-0.2933344 -0.04816,-0.1838813 -0.118209,-0.3414938 l -0.774929,-1.7556281 0.682988,-0.3196031 0.993834,2.3379187 q 0.201394,0.4728376 0.35025,0.7267688 0.153235,0.25393126 0.297713,0.35025001 0.148856,0.0919406 0.337115,0.0919406 H 24.41922 V 0 h -0.183882 q -0.345871,0 -0.564778,-0.08318438 -0.214528,-0.08318437 -0.37214,-0.24955313 -0.157613,-0.16636875 -0.319603,-0.4203 -0.306469,0.385275 -0.783685,0.56915626 -0.472837,0.17950312 -1.182094,0.17950312 -0.306468,0 -0.551643,-0.02626875 -0.245175,-0.03064687 -0.464082,-0.08318437 v -0.79244064 q 0.503485,0.11820938 0.950054,0.11820938 1.571746,0 1.571746,-0.80557499 z m -8.134556,0.66109686 q 0.779306,-1.33095006 1.532344,-1.96140006 0.753037,-0.6348281 1.506075,-0.6348281 0.499106,0 0.884381,0.2189062 0.389653,0.2145282 0.60856,0.5866688 0.218906,0.3721406 0.218906,0.8406 -0.0044,0.95880941 -0.805575,1.42289067 Q 17.528051,0 15.903766,0 h -0.23204 Q 14.743563,0 14.257591,-0.175125 13.77162,-0.35025001 13.570226,-0.66547501 13.316295,-0.31960313 12.996691,-0.1576125 12.681466,0 12.156091,0 h -0.179503 l 0.0044,-0.79681876 h 0.175125 q 0.612938,0 0.823088,-0.25830934 0.214528,-0.2626875 0.214528,-0.7574157 0,-0.21015 -0.01751,-0.3896531 -0.01314,-0.1795031 -0.02189,-0.385275 l 0.731147,-0.087562 0.06567,1.0244812 q 0.02189,0.2933344 0.122587,0.5078626 0.100697,0.21014996 0.310847,0.21014996 z M 17.458001,-2.73195 q -1.055128,0 -2.281003,1.93513124 h 0.709256 q 1.247766,0 1.860703,-0.24955314 0.612938,-0.2495531 0.612938,-0.7924406 0,-0.385275 -0.249553,-0.6392063 Q 17.865167,-2.73195 17.458001,-2.73195 Z"
       id="text12"
       transform="matrix(1.3333333,0,0,1.3333333,222.372,70.544)"
       aria-label="،ﻊﺑﺎﻨﻣ،ﺖﯾﺎﻤﺣاﺪﺻ" />
    <path
       style="font-size:8.9664px;font-family:Vazirmatn;fill:#b8860b"
       d="m 1.9001063,-2.3510532 q -0.3064688,0.2802 -0.4859719,0.5560219 -0.175125,0.2758219 -0.175125,0.6742313 0.3108469,0 0.4290563,0.13572186 0.1225875,0.13572188 0.1225875,0.40716563 0,0.26706563 -0.1357219,0.42467813 Q 1.5192094,0 1.2477656,0 0.90189376,0 0.74865939,-0.1926375 0.59980313,-0.38527501 0.59980313,-0.70925626 q 0,-0.59542504 0.28020001,-1.05512814 Q 1.1602031,-2.2284657 1.61115,-2.5787157 Z M 70.259166,0 H 69.239063 Q 67.588509,0 66.756666,-0.44656876 65.9292,-0.89313751 65.9292,-1.9920469 q 0,-0.3020906 0.06567,-0.5910469 0.07005,-0.2889562 0.179503,-0.5560219 l 0.678609,0.2539313 q -0.07005,0.1926375 -0.118209,0.4115437 -0.04378,0.2189063 -0.04378,0.4159219 0.0044,0.5122406 0.288956,0.7880625 0.284578,0.27144378 0.849356,0.37214066 0.564778,0.10069688 1.409757,0.10069688 h 1.024481 q 0.297712,0 0.621694,-0.0175125 0.328359,-0.0175125 0.612937,-0.0963188 0.284578,-0.0788063 0.464081,-0.26268749 0.179504,-0.1882594 0.179504,-0.525375 0,-0.245175 -0.04816,-0.5822907 -0.04816,-0.3414937 -0.113831,-0.6742312 l 0.761794,-0.1926375 q 0.07881,0.3414937 0.118209,0.7092562 0.04378,0.3633844 0.04378,0.6348282 0,0.595425 -0.201393,0.95443124 -0.201394,0.35900625 -0.564779,0.5428875 -0.359006,0.18388126 -0.8406,0.24517501 Q 70.819566,0 70.259166,0 Z m -0.08319,-4.2949407 0.612938,0.6085594 -0.612938,0.6173156 -0.608559,-0.6173156 z m -1.453537,0 0.612937,0.6085594 -0.612937,0.6173156 -0.60856,-0.6173156 z m -4.903493,-1.7337375 h 0.739903 v 4.1854875 q 0,0.6173157 0.227662,0.8318438 0.227663,0.21452814 0.687366,0.21452814 h 0.109453 V 0 H 65.473882 Q 64.63766,0 64.226116,-0.44219063 63.818951,-0.88875939 63.818951,-1.8475688 Z m -4.089174,5.23185944 Q 59.532761,-1.0419938 59.392661,-1.3966219 59.25694,-1.7556282 59.25694,-2.1146344 q 0,-0.4684594 0.245175,-0.8493563 0.245175,-0.3808969 0.643584,-0.6041812 0.398409,-0.2232844 0.858112,-0.2232844 0.696122,0 1.492941,0.5428875 l -0.293334,0.6523406 q -0.682988,-0.4027875 -1.151447,-0.4027875 -0.402788,0 -0.713635,0.2495532 -0.310846,0.2495531 -0.310846,0.665475 0,0.3239812 0.144478,0.5735344 0.148856,0.2495531 0.315225,0.3896531 0.166368,0.13572186 0.223284,0.13572186 0.07881,0 0.153234,-0.0218907 l 1.851947,-0.4421906 v 0.79681876 Q 61.625505,-0.31960313 60.697343,-0.1576125 59.773558,0 58.862908,0 h -0.477215 v -0.79681876 z m -4.111056,-0.10945313 q 0.328359,-0.0919406 0.586669,-0.28020001 0.258309,-0.1926375 0.407165,-0.5560219 0.148856,-0.3677625 0.148856,-0.9894562 v -3.2967282 h 0.739904 v 3.5287688 q 0,0.8362219 0.201393,1.2696563 0.201394,0.43343434 0.7005,0.43343434 h 0.157613 V 0 H 58.390074 Q 57.803405,0 57.48818,-0.2802 57.172955,-0.56477813 57.028477,-1.0682625 56.660715,-0.52537501 55.94708,-0.2626875 55.237824,0 54.292149,0 54.112646,0 53.924386,-0.00875625 53.736127,-0.0175125 53.54349,-0.035025 v -0.75303751 q 0.271443,0.0175125 0.459703,0.0306469 0.188259,0.008756 0.376518,0.008756 0.179504,0 0.310847,0 0.135722,-0.004378 0.223285,-0.0218906 0,0 -0.06567,-0.39403129 -0.06567,-0.3984094 -0.218906,-1.0726406 -0.153235,-0.6786094 -0.4203,-1.5279657 -0.262688,-0.8493562 -0.661097,-1.75125 l 0.678609,-0.315225 q 0.394031,0.9325406 0.661097,1.8125438 0.271444,0.8800031 0.429056,1.5848813 0.161991,0.7005 0.232041,1.1164219 z m -7.73177,0.10945313 q 0.08318,-0.14010001 0.175125,-0.27582184 0.09194,-0.1401 0.175125,-0.2758219 v -4.6802157 h 0.739903 v 3.6382219 q 0.941297,-1.1339344 1.93951,-1.1339344 0.516618,0 0.901893,0.21015 0.389653,0.21015 0.604182,0.5822907 0.218906,0.3677625 0.218906,0.8493562 -0.0044,0.95880941 -0.809953,1.42289067 Q 51.030445,0 49.410539,0 H 47.14267 V -0.79681876 Z M 50.960395,-2.73195 q -1.05075,0 -2.276625,1.93513124 h 0.709256 q 1.247766,0 1.860703,-0.24955314 0.612938,-0.2495531 0.612938,-0.7924406 0,-0.385275 -0.249553,-0.6392063 Q 51.36756,-2.73195 50.960395,-2.73195 Z M 46.56038,-6.0286782 v 6.02430007 H 45.820476 V -6.0286782 Z m 0.459107,3.677625 q -0.306469,0.2802 -0.485972,0.5560219 -0.175125,0.2758219 -0.175125,0.6742313 0.310847,0 0.429057,0.13572186 0.122587,0.13572188 0.122587,0.40716563 0,0.26706563 -0.135722,0.42467813 Q 46.63859,0 46.367147,0 46.021275,0 45.86804,-0.1926375 q -0.148856,-0.19263751 -0.148856,-0.51661876 0,-0.59542504 0.2802,-1.05512814 0.2802,-0.4640813 0.731147,-0.8143313 z m -3.161005,-2.1540375 0.634828,0.6348281 -0.634828,0.6348282 -0.634829,-0.6348282 z m -1.602394,6.860522 -0.25831,-0.6961219 q 1.068263,-0.2320406 1.506075,-0.81433126 0.437813,-0.57791251 0.437813,-1.37035315 0,-0.37214063 -0.08318,-0.77930629 -0.07881,-0.4115437 -0.223285,-0.8362219 l 0.726769,-0.245175 q 0.315225,0.8975157 0.315225,1.72935944 0,0.73114689 -0.258309,1.35284065 Q 44.16495,1.3221938 43.626441,1.7556282 43.09231,2.1934407 42.256088,2.3554313 Z m -1.882595,-8.3841095 h 0.739903 v 4.1854875 q 0,0.6173157 0.227663,0.8318438 0.227662,0.21452814 0.687365,0.21452814 h 0.109454 V 0 H 42.028424 Q 41.192203,0 40.780659,-0.44219063 40.373493,-0.88875939 40.373493,-1.8475688 Z m -4.019121,5.23185944 h 0.661097 q 0.556022,0 0.792441,-0.24955314 0.240797,-0.2495531 0.240797,-0.7661719 0,-0.21015 -0.01313,-0.3984094 -0.0088,-0.1882593 -0.02627,-0.3765187 l 0.731147,-0.087562 0.07005,1.0244812 q 0.05254,0.85373444 0.888759,0.85373444 h 0.09194 V 0 h -0.100697 q -0.485972,0 -0.779306,-0.175125 -0.288957,-0.17512501 -0.46846,-0.49472814 -0.236419,0.34587188 -0.621694,0.50786251 Q 37.435769,0 37.015469,0 h -0.661097 z m 1.580504,1.49294065 0.612937,0.60855941 -0.612937,0.6173156 -0.60856,-0.6173156 z m -1.453538,0 0.612938,0.60855941 -0.612938,0.6173156 -0.608559,-0.6173156 z M 34.519943,0 h -0.713634 v -0.79681876 h 0.704878 q 0.437812,0 0.591047,-0.25393124 0.157612,-0.2539313 0.157612,-0.6435844 0,-0.2845781 -0.05254,-0.6085594 -0.05254,-0.3239812 -0.113831,-0.6523406 l 0.761793,-0.1926375 q 0.07443,0.35025 0.11821,0.6873656 0.04378,0.3371156 0.04378,0.6435844 0,0.525375 -0.144478,0.93691876 -0.144478,0.41154376 -0.472838,0.64796251 Q 35.071587,0 34.519943,0 Z m 0.534131,-5.1661876 0.634829,0.6348282 -0.634829,0.6348281 -0.634828,-0.6348281 z m -2.368955,0.8712469 0.612938,0.6085594 -0.612938,0.6173156 -0.608559,-0.6173156 z m -1.453537,0 0.612937,0.6085594 -0.612937,0.6173156 -0.60856,-0.6173156 z m 3.375534,1.7074688 0.731147,-0.087562 0.07443,1.0244812 q 0.02627,0.4159219 0.236419,0.6348282 0.214528,0.21890624 0.639206,0.21890624 h 0.105075 V 0 H 36.288316 Q 35.793588,0 35.473985,-0.18388125 35.15876,-0.37214063 34.952988,-0.78368439 34.589603,-0.36338438 34.020447,-0.17950313 33.455669,0 32.4487,0 H 31.717553 Q 30.067,0 29.235157,-0.44656876 28.407691,-0.89313751 28.407691,-1.9920469 q 0,-0.3020906 0.06567,-0.5910469 0.07005,-0.2889562 0.179503,-0.5560219 l 0.678609,0.2539313 q -0.07005,0.1926375 -0.118209,0.4115437 -0.04378,0.2189063 -0.04378,0.4159219 0.0044,0.5122406 0.288956,0.7880625 0.284578,0.27144378 0.849356,0.37214066 0.564778,0.10069688 1.409756,0.10069688 H 32.4487 q 1.046372,0 1.619907,-0.21890624 0.577912,-0.2189063 0.577912,-0.7968188 0,-0.1795031 -0.01313,-0.385275 -0.0088,-0.2057719 -0.02627,-0.3896531 z m -9.999636,1.79065314 h 1.427269 q 0.437813,0 0.591047,-0.25393124 0.157612,-0.2539313 0.157612,-0.6435844 0,-0.2845781 -0.05254,-0.6085594 -0.05254,-0.3239812 -0.113831,-0.6523406 l 0.761793,-0.1926375 q 0.07443,0.35025 0.11821,0.6873656 0.04378,0.3371156 0.04378,0.6435844 0,0.525375 -0.144478,0.93691876 -0.144478,0.41154376 -0.472838,0.64796251 Q 26.595149,0 26.043505,0 H 24.60748 Z M 26.665199,0.69612189 27.278137,1.3046813 26.665199,1.9219969 26.05664,1.3046813 Z m -1.453537,0 0.612937,0.60855941 -0.612937,0.6173156 -0.60856,-0.6173156 z M 22.619811,-3.2004094 q 0.682988,0 1.151447,0.6129375 0.46846,0.6085594 0.485972,1.79065314 h 0.529753 V 0 H 24.18718 Q 24.090861,0.50348438 23.801905,0.97194377 23.517327,1.4447813 22.952549,1.8037875 22.387771,2.1671719 21.45523,2.346675 L 21.196921,1.6505532 Q 23.180211,1.2696563 23.495436,0 h -0.691743 q -1.65931,0 -1.65931,-1.3440844 0,-0.4290563 0.170747,-0.8581125 0.175125,-0.4290563 0.503485,-0.7136344 0.332737,-0.2845781 0.801196,-0.2845781 z m 0.1401,2.40359064 h 0.774929 q -0.05254,-0.84497814 -0.2802,-1.23025314 -0.223285,-0.385275 -0.647963,-0.385275 -0.2802,0 -0.442191,0.1795031 -0.157612,0.1795031 -0.223284,0.4246781 -0.06129,0.2407969 -0.06129,0.4378126 0,0.3064687 0.205772,0.44219058 0.21015,0.13134376 0.674231,0.13134376 z m -4.719618,0 h 0.367762 q 0.525375,0 0.709257,-0.29771254 0.183881,-0.2977125 0.183881,-0.7442812 v -4.1898657 h 0.739903 v 4.1854875 q 0,0.91065006 -0.394031,1.37910944 Q 19.253033,0 18.403677,0 h -0.363384 z m -0.345872,0.0481594 q 0,2.55682509 -2.806378,3.09533439 L 14.629734,1.6505532 q 1.006968,-0.1926376 1.606771,-0.6435844 0.599804,-0.44656879 0.709257,-1.12517818 -0.166369,0.0525375 -0.385275,0.09194063 -0.218907,0.03940313 -0.385275,0.03940313 -1.598016,0 -1.598016,-1.35721878 0,-0.3239813 0.09632,-0.6479625 0.100697,-0.3283594 0.288956,-0.5998031 0.192638,-0.2758219 0.468459,-0.4421907 0.275822,-0.1663687 0.626072,-0.1663687 0.415922,0 0.722391,0.2057719 0.310847,0.2057718 0.512241,0.5560218 0.201393,0.35025 0.30209,0.7880625 0.100697,0.4378126 0.100697,0.90189381 z m -1.497319,-0.0306469 q 0.385275,0 0.766172,-0.11383125 -0.04378,-0.73552499 -0.271444,-1.12517819 -0.227662,-0.3940312 -0.643584,-0.3940312 -0.288956,0 -0.450947,0.1795031 -0.157612,0.1795031 -0.223284,0.4246781 -0.06129,0.2407969 -0.06129,0.4378126 0,0.3196031 0.218906,0.45532496 0.218907,0.13572188 0.665475,0.13572188 z M 13.473907,-6.0286782 v 6.02430007 H 12.734004 V -6.0286782 Z"
       id="text13"
       transform="matrix(1.3333333,0,0,1.3333333,218.35333,167.59333)"
       aria-label="،تﺎﻋﻼﻃا،زﺎﯿﻧﺖﯾﻮﻟوا" />
  </g>
</svg>
