<?xml version="1.0" encoding="UTF-8" standalone="no"?>


<svg class="tikz-diagram" id="iran-action-ch8-tikz-9-a1fd198cddf4"
   version="1.1"
   id="svg1"
   width="571.64001"
   height="99.199997"
   viewBox="0 0 571.64001 99.199997"
   sodipodi:docname="iran-action-ch8-tikz-9-a1fd198cddf4.pdf"
   xmlns:inkscape="http://www.inkscape.org/namespaces/inkscape"
   xmlns:sodipodi="http://sodipodi.sourceforge.net/DTD/sodipodi-0.dtd"
   xmlns="http://www.w3.org/2000/svg"
   xmlns:svg="http://www.w3.org/2000/svg">
  <defs
     id="defs1" />
  <sodipodi:namedview
     id="namedview1"
     pagecolor="#ffffff"
     bordercolor="#000000"
     borderopacity="0.25"
     inkscape:showpageshadow="2"
     inkscape:pageopacity="0.0"
     inkscape:pagecheckerboard="0"
     inkscape:deskcolor="#d1d1d1">
    <inkscape:page
       x="0"
       y="0"
       inkscape:label="1"
       id="page1"
       width="571.64001"
       height="99.199997"
       margin="0"
       bleed="0" />
  </sodipodi:namedview>
  <g
     id="g1"
     inkscape:groupmode="layer"
     inkscape:label="1">
    <path
       id="path1"
       d="m 188.46497,21.2601 h -376.92994 c -5.50236,0 -9.96276,-4.46042 -9.96276,-9.96277 v -22.59466 c 0,-5.50235 4.4604,-9.96277 9.96276,-9.96277 h 376.92994 c 5.50236,0 9.96276,4.46042 9.96276,9.96277 v 22.59466 c 0,5.50235 -4.4604,9.96277 -9.96276,9.96277 z"
       style="fill:#ffe6e6;fill-opacity:1;fill-rule:nonzero;stroke:#be1e2d;stroke-width:1.99255;stroke-linecap:butt;stroke-linejoin:miter;stroke-miterlimit:10;stroke-dasharray:none;stroke-opacity:1"
       transform="matrix(1.3333333,0,0,-1.3333333,285.82,49.6)" />
    <path
       style="font-weight:800;font-size:11.9552px;font-family:Vazirmatn"
       d="M 31.574478,0 H 30.09759 Q 29.09354,0 28.241265,-0.1225875 27.38899,-0.2510125 26.75854,-0.56623751 26.133928,-0.88146251 25.783678,-1.4477 q -0.344413,-0.572075 -0.344413,-1.459375 0,-0.5253751 0.11675,-1.0274001 0.11675,-0.502025 0.291875,-0.9281625 l 1.406838,0.5312125 q -0.09924,0.2743625 -0.204313,0.642125 -0.09924,0.361925 -0.09924,0.6888251 0,0.58375 0.431975,0.86395 0.431975,0.2802 1.14415,0.3677625 0.718012,0.081725 1.570287,0.081725 h 1.47105 q 0.934,0 1.401,-0.128425 0.467001,-0.1342625 0.467001,-0.5428875 0,-0.1926375 -0.286038,-0.44365 -0.286038,-0.25685 -0.718013,-0.5370501 -0.426137,-0.2860375 -0.875625,-0.5604 -0.44365,-0.2802 -0.77055,-0.5137 -0.245175,-0.1809625 -0.3736,-0.4728375 -0.128425,-0.2977125 -0.128425,-0.6071 0,-0.338575 0.151775,-0.6071 0.157613,-0.2743625 0.478675,-0.4027875 l 4.506551,-1.8388125 v 1.669525 l -3.152251,1.2784125 q 0.776388,0.467 1.278413,0.8347625 0.502025,0.3677625 0.81725,0.7647125 0.321063,0.3911125 0.548725,0.9456751 0.175125,0.4203 0.332738,0.67715 0.16345,0.25685 0.408625,0.3736 0.245175,0.1109125 0.671312,0.1109125 h 0.157613 V 0 h -0.157613 q -0.706337,0 -1.185012,-0.2043125 -0.472838,-0.21015001 -0.805575,-0.69466251 -0.30355,0.338575 -0.665475,0.53705 Q 33.314053,-0.1692875 32.812028,-0.081725 32.31584,0 31.574478,0 Z m -9.701925,0 q -0.519538,0 -0.881463,-0.2159875 -0.361925,-0.21598751 -0.6071,-0.53121251 -0.297712,0.315225 -0.67715,0.53121251 Q 19.33324,0 18.81954,0 q -0.589587,0 -0.992375,-0.198475 -0.39695,-0.20431251 -0.6538,-0.53705001 -0.321062,0.338575 -0.764712,0.53705001 Q 15.965003,0 15.287853,0 h -0.53705 v -1.6870375 h 0.548725 q 0.642125,0 0.91065,-0.1576125 0.274362,-0.1576125 0.274362,-0.758875 0,-0.0934 -0.01168,-0.3093875 -0.01168,-0.2159876 -0.02919,-0.4728376 -0.01751,-0.2626875 -0.03502,-0.4728375 l 1.465212,-0.1809625 0.122588,1.5761251 q 0.05254,0.7763875 0.834762,0.7763875 0.484513,0 0.647963,-0.198475 0.16345,-0.2043125 0.16345,-0.7180125 0,-0.081725 -0.01167,-0.2977125 -0.01168,-0.2218251 -0.02919,-0.4845126 -0.01751,-0.2626875 -0.03503,-0.4728375 l 1.465213,-0.1809625 0.122587,1.5761251 q 0.02335,0.361925 0.180963,0.572075 0.157612,0.2043125 0.525375,0.2043125 0.361925,0 0.49035,-0.2393375 0.134262,-0.2393375 0.134262,-0.67715 0,-0.21015 -0.02335,-0.6071001 -0.02335,-0.39695 -0.05254,-0.758875 l 1.465212,-0.1809625 0.122588,1.6870376 q 0.02919,0.431975 0.239337,0.6071 0.215988,0.1692875 0.665475,0.1692875 H 25.07734 V 0 H 24.91389 Q 24.37684,0 23.962378,-0.1868 23.553753,-0.37360001 23.314415,-0.69466251 23.075078,-0.39695001 22.724828,-0.198475 22.374578,0 21.872553,0 Z m -9.748625,0 h -1.255062 v -1.6870375 h 1.2609 q 0.44365,0 0.6071,-0.2743625 0.169287,-0.2802 0.169287,-0.7063375 0,-0.3969501 -0.09924,-0.8639501 -0.0934,-0.4728375 -0.192638,-0.922325 l 1.529425,-0.39695 q 0.110913,0.548725 0.175125,1.0916125 0.07005,0.53705 0.07005,1.0274001 0,0.7763875 -0.21015,1.3951625 -0.204312,0.61877499 -0.7005,0.98069999 Q 12.982041,0 12.123928,0 Z M 11.020641,0.74720001 12.013016,1.7279 12.993716,0.74720001 13.991928,1.739575 12.993716,2.743625 12.013016,1.75125 11.020641,2.743625 10.028266,1.739575 Z M 6.8876896,3.1872751 6.2922646,1.622825 Q 7.1387021,1.4418625 7.7458021,1.1383125 8.3587396,0.84060001 8.6914771,0.33857501 9.0242146,-0.16345 9.0242146,-0.95735002 9.0242146,-1.4885625 8.8549271,-2.1482 8.6856396,-2.813675 8.4930021,-3.3857501 l 1.5761249,-0.5078625 q 0.227663,0.6362875 0.344413,1.3718126 0.122587,0.735525 0.122587,1.412675 0,1.225875 -0.455325,2.10150002 Q 9.6313146,1.8738375 8.8082271,2.416725 7.9909771,2.96545 6.8876896,3.1872751 Z M 6.6769791,-4.4715251 q 0,-0.44365 0.315225,-0.735525 0.315225,-0.291875 0.758875,-0.291875 0.4494875,0 0.758875,0.291875 0.315225,0.291875 0.315225,0.735525 0,0.4378125 -0.315225,0.7296875 -0.315225,0.291875 -0.758875,0.291875 -0.455325,0 -0.7647125,-0.2860375 -0.3093875,-0.291875 -0.3093875,-0.735525 z m 0,3.4382876 q 0,-0.4378125 0.315225,-0.7296875 0.315225,-0.2977125 0.758875,-0.2977125 0.4494875,0 0.758875,0.2977125 0.315225,0.291875 0.315225,0.7296875 0,0.44364999 -0.315225,0.735525 -0.315225,0.291875 -0.758875,0.291875 -0.455325,0 -0.7647125,-0.291875 -0.3093875,-0.29187501 -0.3093875,-0.735525 z M 42.244868,0 q -0.239338,-1.482725 -0.700501,-2.8487 -0.455325,-1.3718126 -0.992375,-2.5042876 -0.53705,-1.1383125 -1.015725,-1.9088625 l 1.4477,-0.7880625 q 0.496188,0.8931375 1.056588,2.1657125 0.566238,1.2667375 0.95735,2.73195 0.2335,-0.875625 0.577913,-1.7804375 0.35025,-0.9048125 0.729687,-1.716225 0.379438,-0.8114125 0.706338,-1.401 l 1.4477,0.7880625 q -0.478675,0.77055 -1.015725,1.9088625 -0.53705,1.132475 -0.992375,2.5042876 Q 43.996118,-1.482725 43.75678,0 Z M 208.32222,0 h -1.65201 v -1.6870375 h 1.65785 q 0.44365,0 0.6071,-0.2743625 0.16928,-0.2802 0.16928,-0.7063375 0,-0.3969501 -0.0992,-0.8639501 -0.0934,-0.4728375 -0.19264,-0.922325 l 1.52942,-0.39695 q 0.11092,0.548725 0.17513,1.0916125 0.07,0.53705 0.07,1.0274001 0,0.7763875 -0.21015,1.3951625 -0.20431,0.61877499 -0.7005,0.98069999 Q 209.18033,0 208.32222,0 Z m -1.10329,0.74720001 0.99238,0.98069999 0.9807,-0.98069999 0.99821,0.99237499 -0.99821,1.00405 -0.9807,-0.992375 -0.99238,0.992375 -0.99237,-1.00405 z M 206.74024,0 q -0.53121,0 -0.87563,-0.2043125 -0.2335,1.342625 -1.14998,2.21825 -0.91065,0.875625 -2.43424,1.1675001 L 201.70248,1.622825 q 0.84643,-0.1809625 1.45353,-0.4845125 0.61294,-0.29771249 0.94568,-0.79973749 0.33274,-0.50202501 0.33274,-1.29592503 0,-0.53121248 -0.16929,-1.19084998 -0.16929,-0.665475 -0.36193,-1.2375501 l 1.57029,-0.5078625 0.33858,1.3192751 q 0.0992,0.3736 0.29187,0.63045 0.19264,0.25685 0.57208,0.25685 h 0.22766 V 0 Z m -7.44863,-4.8276126 q 0.73552,0 1.24922,0.4378125 0.5137,0.4378125 0.80558,1.155825 0.29187,0.7121751 0.35025,1.5469376 h 0.43781 V 0 h -0.55456 q -0.33274,1.33095 -1.3076,2.089825 -0.97487,0.7647125 -2.6619,1.0916126 L 197.03249,1.622825 q 0.73553,-0.1401 1.36014,-0.3736 0.63045,-0.2335 1.06243,-0.54872499 Q 199.89287,0.38527501 200.03881,0 h -0.54873 q -1.17917,0 -1.79795,-0.49035001 -0.61877,-0.49618751 -0.61877,-1.59947499 0,-0.431975 0.13426,-0.9048125 0.13426,-0.4786751 0.40862,-0.8931376 0.27437,-0.4203 0.68883,-0.67715 0.4203,-0.2626875 0.98654,-0.2626875 z m 0.19263,3.1405751 h 0.7472 q -0.035,-0.3269 -0.1401,-0.6713125 -0.0992,-0.3444125 -0.29771,-0.5779125 -0.19264,-0.2335001 -0.5137,-0.2335001 -0.27436,0 -0.43781,0.1751251 -0.15761,0.1692875 -0.22766,0.408625 -0.0642,0.2335 -0.0642,0.431975 0,0.3093875 0.25685,0.3911125 0.26269,0.075888 0.67715,0.075888 z m -6.20526,-5.8666876 0.99238,0.9807 0.9807,-0.9807 0.99821,0.992375 -0.99821,1.00405 -0.9807,-0.992375 -0.99238,0.992375 -0.99237,-1.00405 z M 193.85106,0 h -1.47689 v -1.6870375 h 1.48273 q 0.44365,0 0.6071,-0.2743625 0.16928,-0.2802 0.16928,-0.7063375 0,-0.3969501 -0.0992,-0.8639501 -0.0934,-0.4728375 -0.19264,-0.922325 l 1.52942,-0.39695 q 0.11092,0.548725 0.17513,1.0916125 0.07,0.53705 0.07,1.0274001 0,0.7763875 -0.21015,1.3951625 -0.20431,0.61877499 -0.7005,0.98069999 Q 194.70917,0 193.85106,0 Z m -3.89363,-8.1841751 h 1.57612 V -2.8487 q 0,0.618775 0.18097,0.8931375 0.18096,0.268525 0.7472,0.268525 h 0.14593 V 0 h -0.14593 q -1.3076,0 -1.90887,-0.67715001 Q 189.95743,-1.3543 189.95743,-2.7086 Z m -4.57076,1.14415 0.99238,0.9807 0.9807,-0.9807 0.99821,0.992375 -0.99821,1.00405 -0.9807,-0.992375 -0.99238,0.992375 -0.99237,-1.00405 z m -0.91065,5.3529876 h 1.10913 q 0.64212,0 0.88146,-0.2159875 0.24518,-0.221825 0.24518,-0.805575 0,-0.3444125 -0.0175,-0.6654751 -0.0175,-0.3269 -0.0409,-0.6362875 l 1.45938,-0.1809625 0.11675,1.6695251 q 0.0292,0.44365 0.24517,0.642125 0.21599,0.1926375 0.68883,0.1926375 h 0.12258 V 0 h -0.13426 q -0.58375,0 -1.00405,-0.21015 -0.41446,-0.21015001 -0.68299,-0.54872501 -0.35608,0.3560875 -0.84643,0.56040001 Q 186.13387,0 185.58515,0 h -1.10913 z m -3.99284,-3.7068126 q 0.78223,0.4611625 1.28425,0.828925 0.50203,0.3677625 0.81725,0.7647125 0.32106,0.39695 0.54873,0.9515126 0.17512,0.4203 0.33273,0.67715 0.16345,0.25685 0.40863,0.3736 0.24517,0.1109125 0.67131,0.1109125 h 0.16345 V 0 h -0.16345 q -0.70634,0 -1.18501,-0.2043125 -0.47284,-0.21015001 -0.80558,-0.69466251 -0.30355,0.338575 -0.66547,0.53705 -0.35609,0.19263751 -0.85811,0.28020001 Q 180.53572,0 179.79436,0 h -1.42435 v -1.6870375 h 1.41851 q 0.934,0 1.401,-0.128425 0.467,-0.1342625 0.467,-0.5428875 0,-0.1926375 -0.28604,-0.44365 -0.28604,-0.25685 -0.71801,-0.5370501 -0.42614,-0.2860375 -0.87563,-0.5604 -0.44365,-0.2802 -0.77055,-0.5137 -0.24517,-0.1809625 -0.3736,-0.4728375 -0.12842,-0.2977125 -0.12842,-0.6129375 0,-0.3327375 0.15177,-0.6012625 0.15762,-0.2743625 0.47868,-0.4027875 l 4.50655,-1.8388125 v 1.669525 z M 175.74312,0 h -1.25506 v -1.6870375 h 1.2609 q 0.44365,0 0.6071,-0.2743625 0.16929,-0.2802 0.16929,-0.7063375 0,-0.3969501 -0.0992,-0.8639501 -0.0934,-0.4728375 -0.19264,-0.922325 l 1.52943,-0.39695 q 0.11091,0.548725 0.17512,1.0916125 0.0701,0.53705 0.0701,1.0274001 0,0.7763875 -0.21015,1.3951625 -0.20431,0.61877499 -0.7005,0.98069999 Q 176.60124,0 175.74312,0 Z m -1.10328,0.74720001 0.99237,0.98069999 0.9807,-0.98069999 0.99821,0.99237499 -0.99821,1.00405 -0.9807,-0.992375 -0.99237,0.992375 -0.99238,-1.00405 z M 170.65283,-1.669525 q 0.47867,0 0.934,-0.064213 0.46116,-0.07005 0.75887,-0.25685 0.30355,-0.1868 0.30355,-0.5428875 0,-0.3677625 -0.35608,-0.7822251 -0.35025,-0.4203 -0.934,-0.8230875 -0.57792,-0.4027875 -1.2609,-0.72385 l 0.71801,-1.51775 q 0.61877,0.30355 1.20836,0.6829875 0.59543,0.3736 1.06826,0.8347625 0.47868,0.4611625 0.75888,1.0215625 0.28604,0.5604 0.28604,1.2375501 0,0.934 -0.42614,1.506075 -0.4203,0.57207499 -1.18501,0.828925 -0.76472,0.25685 -1.78628,0.25685 -0.467,0 -0.86979,-0.0291875 -0.40278,-0.035025 -0.78806,-0.1225875 v -1.6812 q 0.37944,0.075887 0.81141,0.128425 0.43782,0.0467 0.75888,0.0467 z M 168.86599,-2.5218 q 0,-0.1459375 -0.0642,-0.385275 -0.0642,-0.2393376 -0.13426,-0.3911126 l -1.15582,-2.5509875 1.38932,-0.67715 1.45354,3.350725 q 0.17512,0.4027876 0.30939,0.7413626 0.1401,0.338575 0.31522,0.5428875 0.18096,0.2043125 0.46116,0.2043125 h 0.24518 V 0 h -0.24518 q -0.6538,0 -1.05658,-0.245175 -0.39695,-0.25101251 -0.7005,-0.64212501 -0.44365,0.4261375 -1.05659,0.65380001 -0.61294,0.2276625 -1.48273,0.2276625 -0.5137,0 -0.86978,-0.035025 -0.35609,-0.035025 -0.73553,-0.128425 V -1.856325 q 0.36193,0.087562 0.76471,0.1342625 0.40863,0.0467 0.75304,0.0467 0.43198,0 0.84644,-0.07005 0.41446,-0.075887 0.68882,-0.2626875 0.27437,-0.1868 0.27437,-0.5137 z M 162.3163,0 h -1.25506 v -1.6870375 h 1.2609 q 0.44365,0 0.6071,-0.2743625 0.16929,-0.2802 0.16929,-0.7063375 0,-0.3969501 -0.0992,-0.8639501 -0.0934,-0.4728375 -0.19264,-0.922325 l 1.52943,-0.39695 q 0.11091,0.548725 0.17512,1.0916125 0.0701,0.53705 0.0701,1.0274001 0,0.7763875 -0.21015,1.3951625 -0.20431,0.61877499 -0.7005,0.98069999 Q 163.17442,0 162.3163,0 Z m -1.10328,0.74720001 0.99237,0.98069999 0.9807,-0.98069999 0.99821,0.99237499 -0.99821,1.00405 -0.9807,-0.992375 -0.99237,0.992375 -0.99238,-1.00405 z M 158.48691,-2.5218 q 0,-0.1459375 -0.0642,-0.385275 -0.0642,-0.2393376 -0.13426,-0.3911126 l -1.15583,-2.5509875 1.38933,-0.67715 1.45354,3.350725 q 0.17512,0.4027876 0.30938,0.7413626 0.1401,0.338575 0.31523,0.5428875 0.18096,0.2043125 0.46116,0.2043125 h 0.24518 V 0 h -0.24518 q -0.6538,0 -1.05659,-0.245175 -0.39695,-0.25101251 -0.7005,-0.64212501 -0.44365,0.4261375 -1.05659,0.65380001 -0.61293,0.2276625 -1.48272,0.2276625 -0.5137,0 -0.86979,-0.035025 -0.35609,-0.035025 -0.73552,-0.128425 V -1.856325 q 0.36192,0.087562 0.76471,0.1342625 0.40862,0.0467 0.75304,0.0467 0.43197,0 0.84643,-0.07005 0.41447,-0.075887 0.68883,-0.2626875 0.27436,-0.1868 0.27436,-0.5137 z m -8.07326,3.21062501 1.05075,1.05074999 -1.05075,1.0449125 -1.04491,-1.0449125 z m -4.00452,-2.37586251 h 0.99237 q 0.75304,0 1.401,-0.1401 0.64797,-0.1459375 1.33095,-0.431975 0.68883,-0.2860375 1.56445,-0.712175 -0.89897,-0.3269001 -1.45353,-0.5487251 -0.55457,-0.2276625 -0.75888,-0.2276625 -0.31522,0 -0.57207,0.198475 -0.25102,0.1926375 -0.41447,0.408625 l -0.30938,0.3911126 -1.3076,-0.6421251 0.26268,-0.4203 q 0.41447,-0.67715 0.99238,-1.1208 0.57791,-0.4494875 1.3543,-0.4494875 0.3269,0 0.75887,0.151775 0.43782,0.151775 0.934,0.3794375 0.50203,0.221825 1.03324,0.4494875 0.53705,0.221825 1.05659,0.3794375 0.52537,0.1576125 1.00405,0.16345 V -2.31165 q -0.44365,0.058375 -0.82309,0.198475 -0.37944,0.1342625 -0.78806,0.3444125 -0.40863,0.21015 -0.95151,0.502025 -0.7472,0.39694999 -1.41268,0.68298749 Q 149.6431,-0.2977125 148.9426,-0.1459375 148.24794,0 147.38399,0 h -0.97486 z M 149.4032,0 q -0.81725,0 -1.34262,-0.30938751 -0.52538,-0.315225 -0.75888,-1.02739999 -0.67131,0.52537499 -1.46521,0.52537499 -0.96902,0 -1.61699,-0.52537499 -0.64796,-0.5312125 -0.64796,-1.56445 0,-0.7588751 0.43781,-1.2959251 0.43782,-0.5428875 1.12664,-0.91065 0.69466,-0.3677625 1.4477,-0.595425 l -0.0409,-0.2802 1.41267,-0.2860375 0.55457,3.7476751 q 0.0525,0.3560875 0.27436,0.595425 0.22766,0.2393375 0.64212,0.2393375 h 0.18097 V 0 Z m -2.42256,-3.1347376 q 0,-0.081725 -0.0175,-0.1809625 -0.0117,-0.105075 -0.0292,-0.2159875 l -0.0992,-0.6129375 q -0.41446,0.1401 -0.81725,0.3269 -0.39695,0.1809625 -0.65963,0.4027875 -0.25685,0.2159875 -0.25685,0.4670001 0,0.2393375 0.19263,0.3911125 0.19848,0.1459375 0.5137,0.1459375 0.26853,0 0.53705,-0.075888 0.27437,-0.081725 0.45533,-0.2393375 0.18096,-0.16345 0.18096,-0.4086251 z M 140.34924,0 h -1.05075 v -1.6870375 h 1.05659 q 0.44365,0 0.6071,-0.2743625 0.16929,-0.2802 0.16929,-0.7063375 0,-0.3969501 -0.0992,-0.8639501 -0.0934,-0.4728375 -0.19264,-0.922325 l 1.52943,-0.39695 q 0.11091,0.548725 0.17512,1.0916125 0.0701,0.53705 0.0701,1.0274001 0,0.7763875 -0.21015,1.3951625 -0.21015,0.61877499 -0.70633,0.98069999 Q 141.20736,0 140.34924,0 Z m 0.15178,0.68882501 1.05075,1.05074999 -1.05075,1.0449125 -1.04491,-1.0449125 z M 137.86775,2.9421 q -1.25506,0 -2.07231,-0.478675 -0.81142,-0.478675 -1.20253,-1.3076 -0.39111,-0.82892499 -0.39111,-1.86800001 0,-0.69466249 0.15177,-1.43602499 0.15178,-0.7472 0.43782,-1.4885626 l 1.41851,0.5428875 q -0.21599,0.6187751 -0.36193,1.2083626 -0.14593,0.5895875 -0.14593,1.10328749 0,0.56040001 0.19847,1.02740001 0.19848,0.46700001 0.67131,0.74720002 0.47284,0.28019998 1.29593,0.28019998 0.8873,0 1.47689,-0.2043125 0.58958,-0.19847499 0.88146,-0.47283749 0.29187,-0.2743625 0.29187,-0.48451251 0,-0.1692875 -0.21015,-0.1692875 h -0.94567 q -0.29771,0 -0.62461,-0.058375 -0.32107,-0.058375 -0.60127,-0.25101251 -0.2802,-0.1926375 -0.45532,-0.57791251 -0.16929,-0.38527498 -0.16929,-1.03323748 0,-0.6071 0.19848,-1.1675001 0.19847,-0.5662375 0.56623,-1.0098875 0.3736,-0.44365 0.89314,-0.7063375 0.51954,-0.2626875 1.1675,-0.2626875 0.43781,0 0.85811,0.1342625 0.42614,0.128425 0.78223,0.385275 l -0.53705,1.4885625 q -0.30355,-0.1692875 -0.58375,-0.2335 -0.27436,-0.07005 -0.50786,-0.07005 -0.63045,0 -0.98654,0.4144626 -0.35609,0.408625 -0.35609,1.0215625 0,0.1576125 0.0992,0.198475 0.10507,0.040863 0.25685,0.040863 h 0.85227 q 0.67132,0 1.05075,0.21015 0.38528,0.21015 0.54289,0.58374998 0.16345,0.36776251 0.16345,0.84060002 0,0.83476251 -0.47867,1.529425 -0.47868,0.6946625 -1.39517,1.109125 Q 139.18119,2.9421 137.86775,2.9421 Z m -6.69563,-11.1262751 h 1.57612 V -2.8487 q 0,0.618775 0.18097,0.8931375 0.18096,0.268525 0.7472,0.268525 h 0.14593 V 0 h -0.14593 q -1.3076,0 -1.90887,-0.67715001 Q 131.17212,-1.3543 131.17212,-2.7086 Z m -5.0611,8.87300011 1.05075,1.05074999 -1.05075,1.0449125 -1.04491,-1.0449125 z m -4.00453,-2.37586251 h 0.99238 q 0.75304,0 1.401,-0.1401 0.64796,-0.1459375 1.33095,-0.431975 0.68882,-0.2860375 1.56445,-0.712175 -0.89898,-0.3269001 -1.45354,-0.5487251 -0.55456,-0.2276625 -0.75887,-0.2276625 -0.31523,0 -0.57208,0.198475 -0.25101,0.1926375 -0.41446,0.408625 l -0.30939,0.3911126 -1.3076,-0.6421251 0.26269,-0.4203 q 0.41446,-0.67715 0.99237,-1.1208 0.57792,-0.4494875 1.3543,-0.4494875 0.3269,0 0.75888,0.151775 0.43781,0.151775 0.934,0.3794375 0.50202,0.221825 1.03324,0.4494875 0.53705,0.221825 1.05658,0.3794375 0.52538,0.1576125 1.00405,0.16345 V -2.31165 q -0.44365,0.058375 -0.82308,0.198475 -0.37944,0.1342625 -0.78807,0.3444125 -0.40862,0.21015 -0.95151,0.502025 -0.7472,0.39694999 -1.41267,0.68298749 -0.65964,0.28603751 -1.36014,0.43781251 Q 123.94531,0 123.08136,0 h -0.97487 z m -0.6602,4.6875125 q -1.28425,0 -2.09566,-0.4961875 -0.80557,-0.4961875 -1.19085,-1.33095 -0.37944,-0.82892499 -0.37944,-1.84465001 0,-0.57791249 0.11092,-1.20836249 0.11675,-0.63045 0.36192,-1.2842501 l 1.41851,0.5137001 q -0.17512,0.5078625 -0.2802,1.0098875 -0.10507,0.502025 -0.10507,0.94567499 0,0.56623751 0.19847,1.02156252 0.20432,0.4611625 0.67715,0.72968749 0.47284,0.2743625 1.28425,0.2743625 0.92817,0 1.48857,-0.1926375 0.5604,-0.19263748 0.81141,-0.43197499 0.25685,-0.2393375 0.25685,-0.3736 0,-0.20431251 -0.19848,-0.26852501 Q 123.61201,0 123.18587,0 h -0.92233 q -0.23933,0 -0.30355,-0.1225875 -0.0642,-0.1225875 -0.12258,-0.32690001 L 121.58639,-1.3543 q -0.0409,-0.1459375 -0.0292,-0.2393375 0.0175,-0.0934 0.22766,-0.0934 h 3.52585 V 0 h 0.0467 q 0.0525,0.2043125 0.0525,0.32690001 0,0.71217499 -0.47284,1.31927499 -0.467,0.6129375 -1.3543,0.9807 -0.88146,0.3736 -2.13653,0.3736 z M 111.66264,0 q -0.58958,0 -0.99237,-0.198475 -0.39695,-0.20431251 -0.6538,-0.53705001 -0.32106,0.338575 -0.76471,0.53705001 Q 108.80811,0 108.13096,0 h -0.53705 v -1.6870375 h 0.54872 q 0.64213,0 0.91065,-0.1576125 0.27436,-0.1576125 0.27436,-0.758875 0,-0.0934 -0.0117,-0.3093875 -0.0117,-0.2159876 -0.0292,-0.4728376 -0.0175,-0.2626875 -0.035,-0.4728375 l 1.46521,-0.1809625 0.12259,1.5761251 q 0.0525,0.7763875 0.83476,0.7763875 0.48451,0 0.64796,-0.198475 0.16345,-0.2043125 0.16345,-0.7180125 0,-0.081725 -0.0117,-0.2977125 -0.0117,-0.2218251 -0.0292,-0.4845126 -0.0175,-0.2626875 -0.035,-0.4728375 l 1.46522,-0.1809625 0.12258,1.5761251 q 0.0233,0.3560875 0.17513,0.5662375 0.15761,0.21015 0.53121,0.21015 0.35025,0 0.47868,-0.2743625 0.13426,-0.2802 0.13426,-0.665475 0,-0.3327375 -0.0642,-0.6829876 -0.0584,-0.3560875 -0.13427,-0.642125 -0.0701,-0.291875 -0.10507,-0.4261375 l 1.51191,-0.4144625 q 0.11675,0.4611625 0.19264,0.9865375 0.0759,0.5195375 0.0759,1.0332376 0,0.72385 -0.19264,1.3601375 -0.1868,0.63044999 -0.64213,1.02156249 Q 115.50372,0 114.71566,0 q -0.52538,0 -0.8873,-0.2159875 -0.35609,-0.21598751 -0.60127,-0.53121251 -0.29771,0.315225 -0.67715,0.53121251 Q 112.17634,0 111.66264,0 Z m -4.74588,-8.1841751 v 8.1783376 h -1.57613 V -8.1841751 Z M 103.69319,0 q -0.53121,0 -0.87562,-0.2043125 -0.2335,1.342625 -1.14999,2.21825 -0.91065,0.875625 -2.434235,1.1675001 L 98.655432,1.622825 q 0.846438,-0.1809625 1.453538,-0.4845125 0.61294,-0.29771249 0.94567,-0.79973749 0.33274,-0.50202501 0.33274,-1.29592503 0,-0.53121248 -0.16929,-1.19084998 -0.16928,-0.665475 -0.36192,-1.2375501 l 1.57029,-0.5078625 0.33857,1.3192751 q 0.0992,0.3736 0.29188,0.63045 0.19263,0.25685 0.57207,0.25685 h 0.22766 V 0 Z m -7.069209,-5.3938501 q 0.782225,0.467 1.383487,0.9164875 0.6071,0.44365 0.951513,0.95735 0.344412,0.5137001 0.344412,1.1850126 0,0.9164875 -0.4203,1.42434999 -0.4203,0.5078625 -1.179175,0.71217501 Q 96.945043,0 95.935156,0 h -1.42435 v -1.6870375 h 1.418512 q 0.934,0 1.401,-0.128425 0.467,-0.1342625 0.467,-0.5428875 0,-0.1926375 -0.286037,-0.44365 -0.286038,-0.25685 -0.718013,-0.5370501 -0.426137,-0.2860375 -0.875625,-0.5604 -0.44365,-0.2802 -0.77055,-0.5137 -0.245175,-0.175125 -0.3736,-0.467 -0.122587,-0.291875 -0.122587,-0.595425 0,-0.3269 0.151775,-0.6129375 0.151775,-0.2860375 0.472837,-0.4144625 l 4.50655,-1.8388125 v 1.669525 z m -4.722535,0.5662375 q 0.735525,0 1.249225,0.4378125 0.5137,0.4378125 0.805575,1.155825 0.291875,0.7121751 0.35025,1.5469376 h 0.437813 V 0 h -0.554563 q -0.332737,1.33095 -1.3076,2.089825 -0.974862,0.7647125 -2.6619,1.0916126 L 89.642334,1.622825 q 0.735525,-0.1401 1.360137,-0.3736 0.63045,-0.2335 1.062425,-0.54872499 Q 92.502709,0.38527501 92.648646,0 h -0.548725 q -1.179175,0 -1.79795,-0.49035001 -0.618775,-0.49618751 -0.618775,-1.59947499 0,-0.431975 0.134263,-0.9048125 0.134262,-0.4786751 0.408625,-0.8931376 0.274362,-0.4203 0.688825,-0.67715 0.4203,-0.2626875 0.986537,-0.2626875 z m 0.192638,3.1405751 h 0.7472 q -0.03503,-0.3269 -0.1401,-0.6713125 -0.09924,-0.3444125 -0.297713,-0.5779125 -0.192637,-0.2335001 -0.5137,-0.2335001 -0.274362,0 -0.437812,0.1751251 -0.157613,0.1692875 -0.227663,0.408625 -0.06421,0.2335 -0.06421,0.431975 0,0.3093875 0.25685,0.3911125 0.262687,0.075888 0.67715,0.075888 z m -5.423035,1.8213 q -0.6071,0 -1.138313,-0.25685 -0.525375,-0.26268751 -1.0274,-0.64796251 -0.321062,0.3210625 -0.671312,0.54872501 Q 83.489611,0 82.824136,0 h -0.25685 v -1.6870375 h 0.227663 q 0.286037,0 0.5137,-0.221825 0.2335,-0.221825 0.44365,-0.572075 0.215987,-0.3560875 0.449487,-0.7472001 0.239338,-0.39695 0.531213,-0.7472 0.297712,-0.3560875 0.688825,-0.5779125 0.391112,-0.221825 0.916487,-0.221825 0.735525,0 1.272575,0.35025 0.53705,0.3444125 0.828925,0.9164875 0.291875,0.5662376 0.291875,1.2375501 0,0.688825 -0.227662,1.2317125 -0.227663,0.54288749 -0.688825,0.8581125 -0.455325,0.315225 -1.14415,0.315225 z m -0.2802,-3.3040251 q -0.239338,0 -0.431975,0.1634501 -0.192638,0.1576125 -0.338575,0.385275 -0.145938,0.2276625 -0.245175,0.431975 0.169287,0.151775 0.321062,0.2626875 0.151775,0.1109125 0.291875,0.1926375 0.21015,0.11675 0.385275,0.16345 0.175125,0.0467 0.30355,0.0467 0.309388,0 0.44365,-0.221825 0.134263,-0.2276625 0.134263,-0.5137 0,-0.3677625 -0.227663,-0.6362875 -0.227662,-0.2743626 -0.636287,-0.2743626 z m -7.670484,1.5002376 q 0.478675,0 0.934,-0.064213 0.461162,-0.07005 0.758875,-0.25685 0.30355,-0.1868 0.30355,-0.5428875 0,-0.3677625 -0.356088,-0.7822251 -0.35025,-0.4203 -0.934,-0.8230875 -0.577912,-0.4027875 -1.2609,-0.72385 l 0.718013,-1.51775 q 0.618775,0.30355 1.208362,0.6829875 0.595425,0.3736 1.068263,0.8347625 0.478675,0.4611625 0.758875,1.0215625 0.286037,0.5604 0.286037,1.2375501 0,0.934 -0.426137,1.506075 -0.4203,0.57207499 -1.185013,0.828925 -0.764712,0.25685 -1.786275,0.25685 -0.467,0 -0.869788,-0.0291875 -0.402787,-0.035025 -0.788062,-0.1225875 v -1.6812 q 0.379437,0.075887 0.811412,0.128425 0.437813,0.0467 0.758876,0.0467 z"
       id="text1"
       transform="matrix(1.3333333,0,0,1.3333333,146.492,53.036)"
       aria-label="ﮏﺴﯾر:۷یرﻮﺗﺎﺘﮑﯾدﺪﯾﺪﺟﻪﺑیﺎﺟﯽﺳاﺮﮐﻮﻣد" />
  </g>
</svg>
