<?xml version="1.0" encoding="UTF-8" standalone="no"?>


<svg class="tikz-diagram" id="iran-action-ch2-tikz-8-3e26a09ad9a0"
   version="1.1"
   id="svg1"
   width="560.33331"
   height="369.84"
   viewBox="0 0 560.33331 369.84"
   sodipodi:docname="iran-action-ch2-tikz-8-3e26a09ad9a0.pdf"
   xmlns:inkscape="http://www.inkscape.org/namespaces/inkscape"
   xmlns:sodipodi="http://sodipodi.sourceforge.net/DTD/sodipodi-0.dtd"
   xmlns="http://www.w3.org/2000/svg"
   xmlns:svg="http://www.w3.org/2000/svg">
  <defs
     id="defs1" />
  <sodipodi:namedview
     id="namedview1"
     pagecolor="#ffffff"
     bordercolor="#000000"
     borderopacity="0.25"
     inkscape:showpageshadow="2"
     inkscape:pageopacity="0.0"
     inkscape:pagecheckerboard="0"
     inkscape:deskcolor="#d1d1d1">
    <inkscape:page
       x="0"
       y="0"
       inkscape:label="1"
       id="page1"
       width="560.33331"
       height="369.84"
       margin="0"
       bleed="0" />
  </sodipodi:namedview>
  <g
     id="g1"
     inkscape:groupmode="layer"
     inkscape:label="1">
    <path
       id="path1"
       d="M 0,0 H 338.6673"
       style="fill:none;stroke:#000000;stroke-width:1.49442;stroke-linecap:butt;stroke-linejoin:miter;stroke-miterlimit:10;stroke-dasharray:none;stroke-opacity:1"
       transform="matrix(1.3333333,0,0,-1.3333333,43.008,327.64933)" />
    <path
       id="path2"
       d="M -3.38733,4.37073 C -2.76846,1.74825 -1.38942,0.50992 0,0 -1.38942,-0.50992 -2.76846,-1.74825 -3.38733,-4.37073"
       style="fill:none;stroke:#000000;stroke-width:1.49442;stroke-linecap:round;stroke-linejoin:round;stroke-miterlimit:10;stroke-dasharray:none;stroke-opacity:1"
       transform="matrix(1.3333333,0,0,-1.3333333,495.56067,327.64933)" />
    <path
       style="font-size:9.9626px;font-family:Vazirmatn"
       d="m 55.96747,-0.87561912 q 1.867987,0 1.867987,-0.96804558 0,-0.4572678 -0.466997,-0.9680456 -0.466997,-0.5107778 -1.546927,-1.0993884 l 0.3843,-0.768599 q 1.250189,0.6372561 1.853393,1.3474805 0.608069,0.7053598 0.608069,1.4739588 0,0.91453557 -0.632391,1.38153244 -0.627527,0.46699686 -1.994466,0.46699686 -0.65185,0 -1.177221,-0.11674922 V -1.006962 q 0.637256,0.13134288 1.104253,0.13134288 z M 53.637354,-6.6984863 v 6.69362175 H 52.815245 V -6.6984863 Z m -3.58031,4.9277899 q 0,-0.1264784 -0.05837,-0.3259249 -0.05351,-0.2043112 -0.131343,-0.379435 l -0.861025,-1.9506848 0.758869,-0.3551122 1.104253,2.5976701 q 0.22377,0.5253714 0.389165,0.8075154 0.170259,0.2821439 0.330789,0.38916402 0.165395,0.10215556 0.37457,0.10215556 h 0.204312 V 0 h -0.204312 q -0.384299,0 -0.627527,-0.09242646 -0.238363,-0.09242647 -0.413486,-0.27727939 -0.175124,-0.18485293 -0.355113,-0.46699686 -0.340518,0.42808045 -0.870754,0.63239158 -0.525372,0.19944658 -1.313429,0.19944658 -0.340518,0 -0.612933,-0.0291873 -0.272415,-0.03405186 -0.515643,-0.09242647 V -1.006962 q 0.559424,0.13134288 1.055608,0.13134288 1.746374,0 1.746374,-0.89507728 z M 44.09797,-3.8040786 q 0.374571,0 0.773464,0.063239 0.398893,0.058375 0.739412,0.1702593 0.345383,0.1118847 0.559423,0.2724149 0.21404,0.1605301 0.21404,0.3599767 0,0.141072 -0.150801,0.3891641 -0.145936,0.248092 -0.379435,0.5351005 -0.228634,0.2870085 -0.48159,0.5545588 -0.252957,0.2626857 -0.462133,0.4475387 0.340519,0.0875619 0.646986,0.10702008 0.306466,0.0194582 0.554558,0.0194582 h 0.75887 V 0 h -0.754005 q -0.510778,0 -1.021556,-0.12161377 -0.505913,-0.12161376 -0.997233,-0.4037577 -0.32106,0.18485292 -0.744276,0.30160214 -0.418351,0.11674922 -0.846432,0.17025927 Q 42.084046,0 41.743528,0 h -0.768599 v -0.88534822 h 0.773463 q 0.165395,0 0.442675,-0.004865 0.282143,-0.009729 0.578881,-0.0340519 0.301602,-0.0291873 0.525372,-0.0875619 -0.209176,-0.184853 -0.462133,-0.4475387 -0.252956,-0.2675503 -0.486455,-0.5545588 -0.228634,-0.2870085 -0.379435,-0.5351005 -0.150801,-0.2480921 -0.150801,-0.3891641 0,-0.1994466 0.209176,-0.3599767 0.209175,-0.1605302 0.549694,-0.2724149 0.345383,-0.1118847 0.744276,-0.1702593 0.398893,-0.063239 0.778328,-0.063239 z m 0,0.8367027 q -0.218904,0 -0.627527,0.034052 -0.403757,0.034052 -0.763734,0.1556656 0.316196,0.3988931 0.637256,0.7150889 0.32106,0.3161958 0.535101,0.5059133 0.218904,0.1848529 0.218904,0.1848529 0,0 0.218905,-0.1848529 0.218905,-0.1897175 0.54483,-0.5059133 0.325925,-0.3161958 0.637256,-0.7150889 -0.359977,-0.1216138 -0.768599,-0.1556656 -0.408622,-0.034052 -0.632392,-0.034052 z m -4.037578,-2.7436066 0.681037,0.6761726 -0.681037,0.6859016 -0.676173,-0.6859016 z m -1.615031,0 0.681037,0.6761726 -0.681037,0.6859016 -0.676173,-0.6859016 z m -0.525371,4.82563428 h 0.997232 q 0.486456,0 0.656715,-0.28214398 0.175124,-0.2821439 0.175124,-0.7150889 0,-0.3161958 -0.05837,-0.6761725 -0.05837,-0.3599768 -0.126478,-0.7248181 l 0.846432,-0.2140402 q 0.0827,0.389164 0.131342,0.7637344 0.04865,0.3745704 0.04865,0.715089 0,0.5837461 -0.16053,1.04101382 -0.16053,0.45726776 -0.525372,0.71995349 Q 39.539885,0 38.926952,0 H 37.91999 Z m -0.681701,-3.24465528 0.70536,0.7053598 -0.70536,0.7053599 -0.70536,-0.7053599 z m 0.05837,5.4045158 q 0.81238,0 1.255054,-0.2675503 0.447538,-0.26268575 0.622662,-0.69563076 0.179989,-0.42808046 0.179989,-0.91940007 0,-0.57888157 -0.155666,-1.14316937 -0.155666,-0.5642879 -0.291873,-0.9242647 l 0.831838,-0.335654 q 0.228634,0.6275271 0.345383,1.2210023 0.121614,0.5886106 0.121614,1.12371116 0,0.82210906 -0.306467,1.4593652 -0.301602,0.63725614 -0.943723,0.99723284 -0.64212,0.3599768 -1.658811,0.3599768 -1.050743,0 -1.683135,-0.3842995 -0.627527,-0.3842995 -0.909671,-1.0264202 -0.277279,-0.63725614 -0.277279,-1.40099059 0,-0.51564241 0.10702,-1.05560751 0.10702,-0.5448297 0.291873,-1.060472 l 0.773463,0.3113312 q -0.141071,0.4475387 -0.238363,0.9194001 -0.09729,0.4718614 -0.09729,0.91453551 0,0.52537148 0.184853,0.95831648 0.189718,0.43294501 0.632392,0.69076621 0.442674,0.2578212 1.216138,0.2578212 z m -5.214798,-7.9729986 h 0.822109 v 4.6505105 q 0,0.6859016 0.252956,0.9242646 0.252957,0.23836298 0.763735,0.23836298 h 0.121613 V 0 h -0.121613 q -0.92913,0 -1.386397,-0.49131962 -0.452403,-0.49618416 -0.452403,-1.56152078 z m -3.322487,0.4086223 0.70536,0.7053598 -0.70536,0.7053599 -0.70536,-0.7053599 z m -3.176551,5.2537147 q 0.86589,-1.4788234 1.702592,-2.1793187 0.836703,-0.7053598 1.673406,-0.7053598 0.554559,0 0.982639,0.2432275 0.432945,0.238363 0.676173,0.6518498 0.243227,0.4134868 0.243227,0.9339937 -0.0049,1.0653366 -0.895077,1.58097898 Q 29.075575,0 27.270827,0 H 27.013006 Q 25.981721,0 25.441756,-0.19458203 24.901791,-0.38916405 24.678021,-0.7394117 24.395877,-0.3551122 24.040765,-0.17512382 23.690517,0 23.106771,0 h -0.199446 l 0.0049,-0.88534822 h 0.194582 q 0.681037,0 0.914536,-0.28700848 0.238363,-0.291873 0.238363,-0.8415673 0,-0.2334984 -0.01946,-0.432945 -0.01459,-0.1994466 -0.02432,-0.4280804 l 0.81238,-0.097291 0.07297,1.1383049 q 0.02432,0.3259249 0.136208,0.5642879 0.111884,0.2334984 0.345383,0.2334984 z m 3.414914,-1.9993303 q -1.172357,0 -2.534431,2.15013138 h 0.788058 q 1.386396,0 2.067434,-0.27727938 0.681037,-0.2772794 0.681037,-0.8804837 0,-0.4280804 -0.27728,-0.7102244 -0.272415,-0.2821439 -0.724818,-0.2821439 z M 22.203443,0 Q 21.867789,0 21.639155,-0.08756191 21.415386,-0.17998837 21.288907,-0.28214394 21.215939,0.3551122 20.933795,0.94858738 20.656516,1.5469271 20.097092,1.9896012 19.537669,2.4322753 18.618269,2.6122637 L 18.33126,1.8436647 q 1.186951,-0.2578212 1.673406,-0.90480642 0.486455,-0.64212069 0.486455,-1.52260436 0,-0.41348681 -0.09243,-0.86589002 -0.08756,-0.4572678 -0.248093,-0.9291292 l 0.807516,-0.2724148 0.262686,1.0166911 q 0.10702,0.4086222 0.340518,0.5788815 0.233499,0.17025928 0.588611,0.17025928 h 0.184853 V 0 Z m -5.341277,-5.2634438 0.681037,0.6761725 -0.681037,0.6859017 -0.676173,-0.6859017 z m -1.615031,0 0.681037,0.6761725 -0.681037,0.6859017 -0.676172,-0.6859017 z m -0.525371,4.37809558 h 0.681037 q 0.617798,0 0.880483,-0.27727938 0.267551,-0.2772794 0.267551,-0.8512964 0,-0.2334984 -0.01459,-0.4426741 -0.0097,-0.2091757 -0.02919,-0.4183513 l 0.81238,-0.097291 0.07783,1.1383049 q 0.05838,0.94858738 0.987504,0.94858738 h 0.102156 V 0 h -0.111885 q -0.539965,0 -0.86589,-0.19458203 -0.32106,-0.19458202 -0.520507,-0.54969422 -0.262686,0.3842995 -0.690766,0.56428788 Q 15.869798,0 15.402801,0 H 14.721764 Z M 12.143553,-3.8040786 q 0.374571,0 0.773464,0.063239 0.398893,0.058375 0.739411,0.1702593 0.345383,0.1118847 0.559424,0.2724149 0.21404,0.1605301 0.21404,0.3599767 0,0.141072 -0.150801,0.3891641 -0.145937,0.248092 -0.379435,0.5351005 -0.228634,0.2870085 -0.481591,0.5545588 -0.252956,0.2626857 -0.462132,0.4475387 0.340519,0.0875619 0.646985,0.10702008 0.306467,0.0194582 0.554559,0.0194582 h 0.75887 V 0 h -0.754005 q -0.510778,0 -1.021556,-0.12161377 -0.505913,-0.12161376 -0.997233,-0.4037577 -0.32106,0.18485292 -0.744276,0.30160214 -0.418351,0.11674922 -0.846432,0.17025927 Q 10.129629,0 9.7891106,0 h -0.768599 v -0.88534822 h 0.7734636 q 0.1653947,0 0.4426738,-0.004865 0.282144,-0.009729 0.578882,-0.0340519 0.301602,-0.0291873 0.525371,-0.0875619 -0.209175,-0.184853 -0.462132,-0.4475387 -0.252957,-0.2675503 -0.486455,-0.5545588 -0.228634,-0.2870085 -0.379435,-0.5351005 -0.1508011,-0.2480921 -0.1508011,-0.3891641 0,-0.1994466 0.2091761,-0.3599767 0.209175,-0.1605302 0.549694,-0.2724149 0.345383,-0.1118847 0.744276,-0.1702593 0.398893,-0.063239 0.778328,-0.063239 z m 0,0.8367027 q -0.218905,0 -0.627527,0.034052 -0.403758,0.034052 -0.763734,0.1556656 0.316195,0.3988931 0.637256,0.7150889 0.32106,0.3161958 0.5351,0.5059133 0.218905,0.1848529 0.218905,0.1848529 0,0 0.218905,-0.1848529 0.218905,-0.1897175 0.54483,-0.5059133 0.325924,-0.3161958 0.637256,-0.7150889 -0.359977,-0.1216138 -0.768599,-0.1556656 -0.408623,-0.034052 -0.632392,-0.034052 z M 7.1038778,0.11188467 q -0.4864551,0 -0.8999419,-0.20917568 Q 5.7953137,-0.31133124 5.3526396,-0.7394117 5.0364438,-0.3842995 4.7445707,-0.18971748 4.4526977,0 3.9224617,0 H 3.7084214 v -0.88534822 h 0.1897175 q 0.3259249,0 0.5496942,-0.18485288 0.2237694,-0.1897175 0.3988932,-0.4864551 0.1751238,-0.2967376 0.3453831,-0.627527 0.1751238,-0.335654 0.3891641,-0.6323916 0.2140402,-0.2967376 0.5156423,-0.4815905 0.3064667,-0.1897175 0.7540054,-0.1897175 0.5399651,0 0.9388583,0.2626857 0.4037577,0.2578212 0.6226624,0.6956308 0.2237694,0.4378095 0.2237694,0.9777746 0,0.7929218 -0.4037577,1.23073136 Q 7.8335604,0.11188467 7.1038778,0.11188467 Z M 6.8703794,-2.6268574 q -0.2432276,0 -0.4426741,0.1653948 -0.1994466,0.1605301 -0.3599768,0.4183513 -0.1605302,0.2578212 -0.2870085,0.5351006 0.2918731,0.3064667 0.6032043,0.5010487 0.3988932,0.2578212 0.7102244,0.2578212 0.7199535,0 0.7199535,-0.7248181 0,-0.5059132 -0.2529566,-0.8269736 -0.2480921,-0.3259249 -0.6907662,-0.3259249 z"
       id="text2"
       transform="matrix(1.3333333,0,0,1.3333333,457.128,342.004)"
       aria-label="داﺪﻌﺗنﺎﺿﺮﺘﻌﻣ" />
    <path
       id="path3"
       d="M 0,0 V 196.93324"
       style="fill:none;stroke:#000000;stroke-width:1.49442;stroke-linecap:butt;stroke-linejoin:miter;stroke-miterlimit:10;stroke-dasharray:none;stroke-opacity:1"
       transform="matrix(1.3333333,0,0,-1.3333333,43.008,327.64933)" />
    <path
       id="path4"
       d="M -3.38733,4.37073 C -2.76846,1.74825 -1.38942,0.50992 0,0 -1.38942,-0.50992 -2.76846,-1.74825 -3.38733,-4.37073"
       style="fill:none;stroke:#000000;stroke-width:1.49442;stroke-linecap:round;stroke-linejoin:round;stroke-miterlimit:10;stroke-dasharray:none;stroke-opacity:1"
       transform="matrix(0,-1.3333333,-1.3333333,0,43.008,64.0754)" />
    <path
       style="font-size:9.9626px;font-family:Vazirmatn"
       d="M 52.528312,-4.7721242 53.20935,-4.0959517 52.528312,-3.41005 51.85214,-4.0959517 Z m -1.61503,0 0.681037,0.6761725 -0.681037,0.6859017 -0.676173,-0.6859017 z m 3.750568,1.8971748 0.81238,-0.097291 0.0827,1.1383049 q 0.02919,0.4621323 0.262685,0.7053598 0.238363,0.24322758 0.710225,0.24322758 h 0.116749 V 0 H 56.531838 Q 55.982143,0 55.627031,-0.20431113 55.276784,-0.41348681 55.04815,-0.87075457 54.644392,-0.4037577 54.012,-0.19944658 53.384473,0 52.265627,0 h -0.81238 q -1.833936,0 -2.7582,-0.49618417 -0.919401,-0.49618416 -0.919401,-1.71718643 0,-0.3356539 0.07297,-0.6567143 0.07783,-0.3210603 0.199446,-0.6177979 l 0.754006,0.2821439 q -0.07783,0.2140402 -0.131343,0.4572678 -0.04865,0.2432275 -0.04865,0.4621323 0.0049,0.5691524 0.321061,0.8756191 0.316195,0.3016021 0.943722,0.41348681 0.627527,0.11188467 1.566386,0.11188467 h 0.81238 q 1.162627,0 1.799883,-0.24322758 0.642121,-0.2432275 0.642121,-0.8853482 0,-0.1994466 -0.01459,-0.4280804 -0.0097,-0.2286339 -0.02919,-0.432945 z m -11.091175,1.98960118 h 0.734547 q 0.617798,0 0.880484,-0.27727938 0.26755,-0.2772794 0.26755,-0.8512964 0,-0.2334984 -0.01459,-0.4426741 -0.0097,-0.2091757 -0.02919,-0.4183513 l 0.81238,-0.097291 0.07783,1.1383049 q 0.05837,0.94858738 0.987504,0.94858738 h 0.102155 V 0 h -0.111884 q -0.539966,0 -0.86589,-0.19458203 -0.321061,-0.19458202 -0.520507,-0.54969422 -0.262686,0.3842995 -0.690767,0.56428788 Q 44.774219,0 44.307222,0 h -0.734547 z m 1.756103,1.65881178 0.681037,0.67617254 -0.681037,0.6859016 -0.676173,-0.6859016 z m -1.615031,0 0.681037,0.67617254 -0.681037,0.6859016 -0.676173,-0.6859016 z M 41.24742,-7.3114196 41.95278,-6.6060598 41.24742,-5.9007 40.542061,-6.6060598 Z m -0.369705,6.42607138 q 0.549694,0 0.885348,-0.0632392 0.340518,-0.0632391 0.496184,-0.27727942 0.16053,-0.2189047 0.16053,-0.6761725 -0.238363,0.072968 -0.486455,0.1118847 -0.243228,0.038916 -0.525371,0.038916 -1.653948,0 -1.653948,-1.3572097 0,-0.4669968 0.184853,-0.9339937 0.189718,-0.4669969 0.554559,-0.7783281 0.364841,-0.3161958 0.885348,-0.3161958 0.476726,0 0.817245,0.2432275 0.345383,0.2432276 0.564288,0.6567144 0.223769,0.4086222 0.330789,0.9291292 0.10702,0.5156423 0.10702,1.0653365 0,0.7248181 -0.131343,1.1723568 -0.126478,0.44267406 -0.408622,0.6761725 -0.282144,0.22863388 -0.734547,0.31133124 Q 41.47119,0 40.81934,0 H 39.029185 V -0.88534822 Z M 41.476054,-2.587941 q 0.22377,0 0.442674,-0.038916 0.22377,-0.043781 0.447539,-0.1070201 -0.03892,-0.3453831 -0.145936,-0.7004953 -0.102156,-0.3551122 -0.306467,-0.5934751 -0.204311,-0.2432276 -0.54483,-0.2432276 -0.301602,0 -0.486455,0.1897175 -0.179988,0.1897175 -0.262686,0.4524032 -0.07783,0.2626857 -0.07783,0.4864551 0,0.335654 0.238363,0.4475386 0.243227,0.1070201 0.69563,0.1070201 z M 38.41497,0 Q 38.079316,0 37.850682,-0.08756191 37.626912,-0.17998837 37.500434,-0.28214394 37.427466,0.3551122 37.145322,0.94858738 36.868043,1.5469271 36.308619,1.9896012 35.749196,2.4322753 34.829796,2.6122637 l -0.287009,-0.768599 q 1.186951,-0.2578212 1.673406,-0.90480642 0.486455,-0.64212069 0.486455,-1.52260436 0,-0.41348681 -0.09243,-0.86589002 -0.08756,-0.4572678 -0.248092,-0.9291292 l 0.807516,-0.2724148 0.262685,1.0166911 q 0.107021,0.4086222 0.340519,0.5788815 0.233498,0.17025928 0.588611,0.17025928 h 0.184853 V 0 Z m -5.46776,-6.289864 0.70536,0.7053598 -0.70536,0.7053599 -0.70536,-0.7053599 z m -3.327353,5.40451578 q 0.09243,-0.15566558 0.194582,-0.30646668 0.102156,-0.1556656 0.194583,-0.3064667 v -5.2002047 h 0.822109 v 4.0424416 q 1.045878,-1.2599186 2.154996,-1.2599186 0.574017,0 1.002097,0.2334984 0.432945,0.2334985 0.671308,0.6469853 0.243227,0.4086222 0.243227,0.9437228 -0.0049,1.0653366 -0.899941,1.58097898 Q 33.112605,0 31.312721,0 h -2.519837 v -0.88534822 z m 3.414915,-2.15013138 q -1.167492,0 -2.529566,2.15013138 h 0.788057 q 1.386397,0 2.067434,-0.27727938 0.681037,-0.2772794 0.681037,-0.8804837 0,-0.4280804 -0.277279,-0.7102244 -0.27728,-0.2821439 -0.729683,-0.2821439 z m -5.672725,3.77975585 0.70536,0.70535985 -0.70536,0.7053598 -0.70536,-0.7053598 z M 28.140375,0 h -1.13344 q -1.833936,0 -2.7582,-0.49618417 -0.9194,-0.49618416 -0.9194,-1.71718643 0,-0.3356539 0.07297,-0.6567143 0.07783,-0.3210603 0.199446,-0.6177979 l 0.754006,0.2821439 q -0.07783,0.2140402 -0.131343,0.4572678 -0.04865,0.2432275 -0.04865,0.4621323 0.0049,0.5691524 0.321061,0.8756191 0.316195,0.3016021 0.943722,0.41348681 0.627528,0.11188467 1.566386,0.11188467 h 1.138305 q 0.330789,0 0.690766,-0.0194582 0.364841,-0.0194582 0.681037,-0.10702008 0.316196,-0.087562 0.515642,-0.2918731 0.199447,-0.2091757 0.199447,-0.5837461 0,-0.2724148 -0.05351,-0.6469852 -0.05351,-0.3794349 -0.126478,-0.7491408 l 0.846431,-0.2140402 q 0.08756,0.3794349 0.131343,0.7880572 0.04865,0.4037577 0.04865,0.7053598 0,0.6615789 -0.22377,1.06047207 -0.223769,0.39889316 -0.627527,0.60320428 -0.398893,0.20431113 -0.933993,0.27241484 Q 28.763038,0 28.140375,0 Z m -7.603293,-3.5559865 q 0.75887,0 1.279377,0.6810371 0.520507,0.6761725 0.539965,1.98960118 h 0.58861 V 0 H 22.278591 Q 22.171571,0.55942333 21.85051,1.0799302 21.534315,1.6053017 20.906788,2.0041949 20.279261,2.4079526 19.243111,2.6073992 L 18.956103,1.8339356 Q 21.159744,1.4107197 21.509992,0 h -0.768599 q -1.843665,0 -1.843665,-1.4934171 0,-0.4767259 0.189718,-0.9534519 0.194582,-0.4767259 0.559423,-0.7929217 0.369706,-0.3161958 0.890213,-0.3161958 z m 0.155665,2.67063828 h 0.861026 Q 21.495398,-1.8242065 21.242442,-2.252287 20.99435,-2.6803674 20.522488,-2.6803674 q -0.311331,0 -0.491319,0.1994466 -0.175124,0.1994465 -0.248093,0.4718614 -0.0681,0.2675503 -0.0681,0.486455 0,0.3405186 0.228634,0.4913197 0.233498,0.14593648 0.74914,0.14593648 z M 15.064462,-4.7186141 q 0.423216,0.2967375 0.880484,0.627527 0.457267,0.3259249 0.851296,0.7004953 0.398893,0.3697058 0.642121,0.7929217 0.248092,0.4183514 0.248092,0.8950774 -0.0049,0.90480639 -0.627527,1.30369955 Q 16.44113,0 15.08392,0 h -1.18695 v -0.88534822 h 1.182086 q 0.943722,0 1.352345,-0.16539468 0.408622,-0.1702593 0.408622,-0.671308 0,-0.3210604 -0.228634,-0.6275271 -0.223769,-0.3064667 -0.583746,-0.6032043 -0.355112,-0.3016021 -0.763734,-0.5886106 -0.408623,-0.291873 -0.768599,-0.574017 -0.155666,-0.1264783 -0.238363,-0.2967375 -0.0827,-0.1702593 -0.0827,-0.3405186 0,-0.1994466 0.10702,-0.3745704 0.111885,-0.1799884 0.345383,-0.2724148 L 18.124264,-6.8201 v 0.8610254 z M 13.043651,0 Q 12.707997,0 12.479363,-0.08756191 12.255594,-0.17998837 12.129115,-0.28214394 12.056147,0.3551122 11.774003,0.94858738 11.496724,1.5469271 10.9373,1.9896012 10.377877,2.4322753 9.458477,2.6122637 L 9.1714685,1.8436647 q 1.1869505,-0.2578212 1.6734055,-0.90480642 0.486455,-0.64212069 0.486455,-1.52260436 0,-0.41348681 -0.09243,-0.86589002 -0.08756,-0.4572678 -0.248093,-0.9291292 l 0.807516,-0.2724148 0.262686,1.0166911 q 0.10702,0.4086222 0.340518,0.5788815 0.233499,0.17025928 0.588611,0.17025928 h 0.184853 V 0 Z M 5.4452228,0 Q 4.8857995,0 4.5793328,-0.18971748 4.2777306,-0.3842995 4.0977423,-0.74427625 3.8691084,-0.3842995 3.5139962,-0.18971748 3.158884,0 2.5021696,0 H 2.054631 v -0.88534822 h 0.4572677 q 0.6226625,0 0.909671,-0.22863388 0.2870085,-0.2334984 0.2870085,-0.8464318 0,-0.1264783 -0.014594,-0.2967376 -0.00973,-0.1751238 -0.034052,-0.4864551 l 0.81238,-0.1021555 0.077833,1.0166911 q 0.029187,0.4086222 0.248092,0.6761725 0.2237694,0.26755028 0.6567144,0.26755028 0.5156424,0 0.7004953,-0.27727938 0.1848529,-0.2772794 0.1848529,-0.7977863 0,-0.1264783 -0.014594,-0.3016022 -0.00973,-0.1751238 -0.034052,-0.4815905 l 0.81238,-0.1021555 0.077833,1.0166911 q 0.024323,0.3940286 0.2091756,0.6713079 0.184853,0.27241488 0.5983398,0.27241488 0.4037577,0 0.5545588,-0.30160218 0.150801,-0.3016021 0.150801,-0.7053598 0,-0.3648413 -0.072968,-0.7345472 -0.068104,-0.3697058 -0.1216138,-0.5983397 l 0.8318382,-0.2237693 q 0.087562,0.3259249 0.1410719,0.6956307 0.05351,0.3648413 0.05351,0.7296826 0,0.5253715 -0.1459365,0.9875038 Q 9.2347078,-0.57401698 8.8990538,-0.28700849 8.5682643,-0.00486455 7.9942473,0 7.5272505,0 7.240242,-0.19458203 6.9532335,-0.38916405 6.7732451,-0.74427625 6.5008303,-0.35024765 6.1651763,-0.17512382 5.8343868,0 5.4452228,0 Z"
       id="text4"
       transform="matrix(0,-1.3333333,1.3333333,0,34.101333,101.81467)"
       aria-label="ﺖﯿﻓﺮﻇبﻮﮐﺮﺳ" />
    <path
       id="path5"
       d="M 0,141.73404 H 141.73404 L 226.77448,85.04042 311.8149,28.3468"
       style="fill:none;stroke:#be1e2d;stroke-width:1.99255;stroke-linecap:butt;stroke-linejoin:miter;stroke-miterlimit:10;stroke-dasharray:none;stroke-opacity:1"
       transform="matrix(1.3333333,0,0,-1.3333333,43.008,327.64933)" />
    <path
       style="font-size:8.9664px;font-family:Vazirmatn;fill:#be1e2d"
       d="m 47.2758,-4.2949407 0.612938,0.6085594 -0.612938,0.6173156 -0.608559,-0.6173156 z m -1.453537,0 0.612937,0.6085594 -0.612937,0.6173156 -0.60856,-0.6173156 z m 3.375534,1.7074688 0.731147,-0.087562 0.07443,1.0244812 q 0.02627,0.4159219 0.236419,0.6348282 0.214528,0.21890624 0.639206,0.21890624 h 0.105075 V 0 H 50.878997 Q 50.384269,0 50.064666,-0.18388125 49.749441,-0.37214063 49.543669,-0.78368439 49.180285,-0.36338438 48.611128,-0.17950313 48.04635,0 47.039381,0 h -0.731146 q -1.650554,0 -2.482397,-0.44656876 -0.827466,-0.44656875 -0.827466,-1.54547814 0,-0.3020906 0.06567,-0.5910469 0.07005,-0.2889562 0.179503,-0.5560219 l 0.678609,0.2539313 q -0.07005,0.1926375 -0.118209,0.4115437 -0.04378,0.2189063 -0.04378,0.4159219 0.0044,0.5122406 0.288956,0.7880625 0.284578,0.27144378 0.849356,0.37214066 0.564778,0.10069688 1.409757,0.10069688 h 0.731146 q 1.046372,0 1.619907,-0.21890624 0.577912,-0.2189063 0.577912,-0.7968188 0,-0.1795031 -0.01313,-0.385275 -0.0088,-0.2057719 -0.02627,-0.3896531 z m -9.982127,1.79065314 h 0.661097 q 0.556022,0 0.792441,-0.24955314 0.240796,-0.2495531 0.240796,-0.7661719 0,-0.21015 -0.01313,-0.3984094 -0.0088,-0.1882593 -0.02627,-0.3765187 l 0.731147,-0.087562 0.07005,1.0244812 q 0.05254,0.85373444 0.88876,0.85373444 h 0.09194 V 0 H 42.551801 Q 42.06583,0 41.772495,-0.175125 41.483539,-0.35025001 41.304036,-0.66985314 41.067617,-0.32398126 40.682342,-0.16199063 40.297067,0 39.876767,0 H 39.21567 Z m 1.580503,1.49294065 0.612938,0.60855941 -0.612938,0.6173156 -0.608559,-0.6173156 z m -1.453537,0 0.612937,0.60855941 -0.612937,0.6173156 -0.60856,-0.6173156 z m -2.219704,-7.27644389 0.634828,0.6348282 -0.634828,0.6348281 -0.634828,-0.6348281 z m -0.332738,5.78350324 q 0.494729,0 0.796819,-0.0569156 0.306469,-0.0569156 0.446569,-0.24955311 0.144478,-0.1970156 0.144478,-0.6085594 -0.214528,0.065672 -0.437812,0.1006969 -0.218907,0.035025 -0.472838,0.035025 -1.488562,0 -1.488562,-1.2214969 0,-0.4203 0.166368,-0.8406 0.170747,-0.4203 0.499107,-0.7005 0.328359,-0.2845782 0.796818,-0.2845782 0.429057,0 0.735525,0.2189063 0.310847,0.2189062 0.507863,0.5910469 0.201394,0.3677625 0.297712,0.8362219 0.09632,0.4640812 0.09632,0.9588093 0,0.6523407 -0.118209,1.05512818 -0.113832,0.39840939 -0.367763,0.60855939 -0.253931,0.20577188 -0.661097,0.2802 Q 37.324326,0 36.737657,0 h -1.61115 v -0.79681876 z m 0.53851,-1.53234374 q 0.201394,0 0.398409,-0.035025 0.201394,-0.039403 0.402788,-0.096319 -0.03502,-0.3108469 -0.131344,-0.63045 -0.09194,-0.3196031 -0.275822,-0.5341313 -0.183881,-0.2189062 -0.49035,-0.2189062 -0.271444,0 -0.437812,0.1707469 -0.161991,0.1707468 -0.236419,0.4071656 -0.07005,0.2364188 -0.07005,0.4378125 0,0.3020906 0.214528,0.4027875 0.218906,0.096319 0.626072,0.096319 z M 34.573704,0 q -0.30209,0 -0.507862,-0.07880625 -0.201394,-0.08318438 -0.315225,-0.175125 -0.06567,0.57353438 -0.319603,1.10766564 -0.249553,0.53850941 -0.753038,0.93691881 -0.503484,0.3984093 -1.33095,0.5604 L 31.088717,1.6593094 q 1.068262,-0.2320406 1.506075,-0.81433126 0.437812,-0.57791251 0.437812,-1.37035315 0,-0.37214063 -0.08318,-0.77930629 -0.07881,-0.4115437 -0.223284,-0.8362219 l 0.726768,-0.245175 0.236419,0.9150282 q 0.09632,0.3677625 0.306469,0.52099686 0.21015,0.15323438 0.529753,0.15323438 h 0.166369 V 0 Z m -4.921013,-5.6609157 0.634829,0.6348281 -0.634829,0.6348282 -0.634828,-0.6348282 z m -2.994637,4.86409694 q 0.08318,-0.14010001 0.175125,-0.27582184 0.09194,-0.1401 0.175125,-0.2758219 v -4.6802157 h 0.739903 v 3.6382219 q 0.941297,-1.1339344 1.939509,-1.1339344 0.516619,0 0.901894,0.21015 0.389653,0.21015 0.604181,0.5822907 0.218907,0.3677625 0.218907,0.8493562 -0.0044,0.95880941 -0.809953,1.42289067 Q 29.801548,0 28.181641,0 H 25.913773 V -0.79681876 Z M 29.731498,-2.73195 q -1.05075,0 -2.276625,1.93513124 h 0.709256 q 1.247766,0 1.860703,-0.24955314 0.612938,-0.2495531 0.612938,-0.7924406 0,-0.385275 -0.249554,-0.6392063 Q 30.138663,-2.73195 29.731498,-2.73195 Z M 24.626007,0.66985314 25.260835,1.3046813 24.626007,1.9395094 23.991178,1.3046813 Z M 25.326507,0 h -1.020104 q -1.650553,0 -2.482396,-0.44656876 -0.827466,-0.44656875 -0.827466,-1.54547814 0,-0.3020906 0.06567,-0.5910469 0.07005,-0.2889562 0.179503,-0.5560219 l 0.678609,0.2539313 q -0.07005,0.1926375 -0.118209,0.4115437 -0.04378,0.2189063 -0.04378,0.4159219 0.0044,0.5122406 0.288956,0.7880625 0.284578,0.27144378 0.849356,0.37214066 0.564778,0.10069688 1.409756,0.10069688 h 1.024482 q 0.297712,0 0.621693,-0.0175125 0.32836,-0.0175125 0.612938,-0.0963188 0.284578,-0.0788063 0.464081,-0.26268749 0.179503,-0.1882594 0.179503,-0.525375 0,-0.245175 -0.04816,-0.5822907 -0.04816,-0.3414937 -0.113831,-0.6742312 l 0.761794,-0.1926375 q 0.07881,0.3414937 0.118209,0.7092562 0.04378,0.3633844 0.04378,0.6348282 0,0.595425 -0.201394,0.95443124 -0.201393,0.35900625 -0.564778,0.5428875 -0.359006,0.18388126 -0.8406,0.24517501 Q 25.886907,0 25.326507,0 Z m -6.843008,-3.2004094 q 0.682988,0 1.151447,0.6129375 0.468459,0.6085594 0.485972,1.79065314 h 0.529753 V 0 H 20.050868 Q 19.954549,0.50348438 19.665593,0.97194377 19.381015,1.4447813 18.816236,1.8037875 18.251458,2.1671719 17.318918,2.346675 L 17.060608,1.6505532 Q 19.043899,1.2696563 19.359124,0 H 18.66738 q -1.659309,0 -1.659309,-1.3440844 0,-0.4290563 0.170747,-0.8581125 0.175125,-0.4290563 0.503484,-0.7136344 0.332738,-0.2845781 0.801197,-0.2845781 z m 0.1401,2.40359064 h 0.774928 q -0.05254,-0.84497814 -0.2802,-1.23025314 -0.223284,-0.385275 -0.647962,-0.385275 -0.2802,0 -0.442191,0.1795031 -0.157613,0.1795031 -0.223284,0.4246781 -0.06129,0.2407969 -0.06129,0.4378126 0,0.3064687 0.205772,0.44219058 0.21015,0.13134376 0.674231,0.13134376 z m -5.06549,-3.44996254 q 0.380897,0.2670656 0.79244,0.5647781 0.411544,0.2933344 0.766172,0.63045 0.359006,0.3327375 0.577913,0.7136344 0.223284,0.3765188 0.223284,0.805575 -0.0044,0.81433129 -0.564778,1.17333754 Q 14.797118,0 13.575621,0 h -1.068262 v -0.79681876 h 1.063884 q 0.849356,0 1.217119,-0.14885626 0.367762,-0.15323438 0.367762,-0.60418128 0,-0.2889562 -0.205772,-0.5647781 -0.201393,-0.2758219 -0.525375,-0.5428875 -0.319603,-0.2714438 -0.687365,-0.5297532 -0.367763,-0.2626875 -0.691744,-0.5166187 -0.1401,-0.1138313 -0.214528,-0.2670656 -0.07443,-0.1532344 -0.07443,-0.3064688 0,-0.1795031 0.09632,-0.3371156 0.100697,-0.1619907 0.310847,-0.245175 l 3.147872,-1.2784126 v 0.7749282 z M 11.739365,0 q -0.30209,0 -0.507862,-0.07880625 -0.201394,-0.08318438 -0.315225,-0.175125 -0.06567,0.57353438 -0.319603,1.10766564 -0.249553,0.53850941 -0.7530378,0.93691881 -0.5034844,0.3984093 -1.33095,0.5604 L 8.2543778,1.6593094 q 1.0682625,-0.2320406 1.506075,-0.81433126 0.4378122,-0.57791251 0.4378122,-1.37035315 0,-0.37214063 -0.08318,-0.77930629 -0.07881,-0.4115437 -0.2232844,-0.8362219 l 0.7267684,-0.245175 0.236419,0.9150282 q 0.09632,0.3677625 0.306469,0.52099686 0.21015,0.15323438 0.529753,0.15323438 h 0.166369 V 0 Z M 4.9007339,0 Q 4.3972495,0 4.1214277,-0.17074688 3.8499839,-0.34587188 3.6879933,-0.66985314 3.4822214,-0.34587188 3.1626183,-0.17074688 2.8430151,0 2.2519683,0 H 1.8491808 v -0.79681876 h 0.4115437 q 0.5604,0 0.8187094,-0.20577184 0.2583094,-0.21015 0.2583094,-0.7617938 0,-0.1138313 -0.013134,-0.2670656 -0.00876,-0.1576125 -0.030647,-0.4378125 l 0.7311469,-0.091941 0.07005,0.9150282 q 0.026269,0.3677625 0.2232844,0.6085594 0.2013938,0.24079684 0.5910469,0.24079684 0.4640812,0 0.63045,-0.24955314 0.1663687,-0.2495531 0.1663687,-0.7180125 0,-0.1138313 -0.013134,-0.2714438 -0.00876,-0.1576125 -0.030647,-0.4334343 l 0.7311469,-0.091941 0.07005,0.9150282 q 0.021891,0.3546281 0.1882594,0.6041812 0.1663687,0.24517504 0.5385093,0.24517504 0.3633844,0 0.4991063,-0.27144374 0.1357219,-0.2714438 0.1357219,-0.6348282 0,-0.3283593 -0.065672,-0.6610968 -0.061294,-0.3327375 -0.1094531,-0.5385094 l 0.7486594,-0.2013938 q 0.078806,0.2933344 0.1269656,0.6260719 0.048159,0.3283594 0.048159,0.6567188 0,0.4728375 -0.1313438,0.88875936 Q 8.3112934,-0.51661876 8.0092027,-0.25830938 7.7114902,-0.00437813 7.1948715,0 6.7745715,0 6.5162621,-0.175125 6.2579527,-0.35025001 6.0959621,-0.66985314 5.8507871,-0.31522501 5.5486964,-0.1576125 5.2509839,0 4.9007339,0 Z"
       id="text5"
       transform="matrix(1.3333333,0,0,1.3333333,83.737333,130.84267)"
       aria-label="ﺖﯿﻓﺮﻇبﻮﮐﺮﺳ" />
    <path
       id="path6"
       d="m 0,28.3468 113.38724,28.34682 85.04042,56.69362 85.04044,56.69362"
       style="fill:none;stroke:#006633;stroke-width:1.99255;stroke-linecap:butt;stroke-linejoin:miter;stroke-miterlimit:10;stroke-dasharray:none;stroke-opacity:1"
       transform="matrix(1.3333333,0,0,-1.3333333,43.008,327.64933)" />
    <path
       style="font-size:8.9664px;font-family:Vazirmatn;fill:#006633"
       d="m 50.371067,-0.78806251 q 1.6812,0 1.6812,-0.87124689 0,-0.4115438 -0.4203,-0.8712469 -0.4203,-0.4597031 -1.392244,-0.9894563 l 0.345872,-0.6917437 q 1.125178,0.5735344 1.668066,1.2127406 0.547265,0.6348282 0.547265,1.3265719 0,0.82308754 -0.569156,1.24338754 -0.564778,0.42030001 -1.795031,0.42030001 -0.586669,0 -1.059507,-0.105075 v -0.79244064 q 0.573535,0.11820938 0.993835,0.11820938 z M 48.273942,-6.0286782 v 6.02430007 H 47.534038 V -6.0286782 Z m -3.222299,4.4350407 q 0,-0.1138313 -0.05254,-0.2933344 -0.04816,-0.1838813 -0.11821,-0.3414938 l -0.774928,-1.7556281 0.682988,-0.3196031 0.993834,2.3379187 q 0.201394,0.4728376 0.35025,0.7267688 0.153235,0.25393126 0.297713,0.35025001 0.148856,0.0919406 0.337115,0.0919406 H 46.95175 V 0 h -0.183882 q -0.345872,0 -0.564778,-0.08318438 -0.214528,-0.08318437 -0.37214,-0.24955313 -0.157613,-0.16636875 -0.319604,-0.4203 -0.306468,0.385275 -0.783684,0.56915626 -0.472837,0.17950312 -1.182094,0.17950312 -0.306469,0 -0.551644,-0.02626875 -0.245175,-0.03064687 -0.464081,-0.08318437 v -0.79244064 q 0.503485,0.11820938 0.950053,0.11820938 1.571747,0 1.571747,-0.80557499 z m -5.363201,-1.8300563 q 0.337116,0 0.696122,0.056916 0.359006,0.052538 0.665475,0.1532344 0.310847,0.1006969 0.503484,0.245175 0.192638,0.1444781 0.192638,0.3239813 0,0.1269656 -0.135722,0.35025 -0.131344,0.2232843 -0.341494,0.4815937 -0.205772,0.2583094 -0.433434,0.4991063 -0.227663,0.2364187 -0.415922,0.40278749 0.306469,0.0788062 0.58229,0.0963188 0.275822,0.0175125 0.499107,0.0175125 h 0.682987 V 0 h -0.678609 q -0.459703,0 -0.919406,-0.10945313 -0.455325,-0.10945312 -0.897516,-0.36338438 -0.288956,0.16636875 -0.669853,0.27144376 -0.376519,0.105075 -0.761794,0.15323437 Q 37.875898,0 37.569429,0 h -0.691743 v -0.79681876 h 0.696121 q 0.148857,0 0.39841,-0.004378 0.253931,-0.008756 0.520997,-0.0306469 0.271444,-0.0262687 0.472837,-0.0788062 -0.188259,-0.16636879 -0.415922,-0.40278749 -0.227662,-0.2407969 -0.437812,-0.4991063 -0.205772,-0.2583094 -0.341494,-0.4815937 -0.135722,-0.2232844 -0.135722,-0.35025 0,-0.1795032 0.18826,-0.3239813 0.188259,-0.1444781 0.494728,-0.245175 0.310847,-0.1006969 0.669853,-0.1532344 0.359006,-0.056916 0.7005,-0.056916 z m 0,0.7530375 q -0.197016,0 -0.564778,0.030647 -0.363385,0.030647 -0.687366,0.1401 0.284578,0.3590062 0.573535,0.6435844 0.288956,0.2845781 0.481593,0.455325 0.197016,0.1663687 0.197016,0.1663687 0,0 0.197016,-0.1663687 0.197015,-0.1707469 0.49035,-0.455325 0.293334,-0.2845782 0.573534,-0.6435844 -0.323981,-0.1094531 -0.691744,-0.1401 -0.367762,-0.030647 -0.569156,-0.030647 z m -3.633847,-2.4692625 0.612937,0.6085594 -0.612937,0.6173156 -0.60856,-0.6173156 z m -1.453538,0 0.612938,0.6085594 -0.612938,0.6173156 -0.608559,-0.6173156 z m -0.472837,4.34310004 h 0.897515 q 0.437813,0 0.591047,-0.25393124 0.157613,-0.2539313 0.157613,-0.6435844 0,-0.2845781 -0.05254,-0.6085594 -0.05254,-0.3239812 -0.113831,-0.6523406 l 0.761794,-0.1926375 q 0.07443,0.35025 0.118209,0.6873656 0.04378,0.3371156 0.04378,0.6435844 0,0.525375 -0.144478,0.93691876 -0.144478,0.41154376 -0.472837,0.64796251 Q 35.586135,0 35.034492,0 H 34.12822 Z m -0.613532,-2.92020944 0.634828,0.6348281 -0.634828,0.6348282 -0.634828,-0.6348282 z m 0.05254,4.864097 q 0.731146,0 1.129556,-0.24079691 0.402787,-0.23641875 0.5604,-0.62607189 0.16199,-0.385275 0.16199,-0.82746563 0,-0.52099687 -0.1401,-1.02885937 -0.1401,-0.5078625 -0.262687,-0.8318438 l 0.748659,-0.3020906 q 0.205772,0.5647781 0.310847,1.0989094 0.109453,0.5297531 0.109453,1.01134687 0,0.73990313 -0.275822,1.31343752 -0.271443,0.57353441 -0.849356,0.89751561 -0.577912,0.3239813 -1.49294,0.3239813 -0.945676,0 -1.514832,-0.3458719 -0.564778,-0.3458719 -0.818709,-0.92378439 -0.249553,-0.57353438 -0.249553,-1.26090002 0,-0.46408129 0.09632,-0.95005319 0.09632,-0.49035 0.262688,-0.9544312 l 0.696122,0.2802 q -0.126966,0.4027875 -0.214528,0.8274656 -0.08756,0.42467816 -0.08756,0.82308754 0,0.47283751 0.166369,0.86249064 0.170747,0.38965313 0.569156,0.62169376 0.39841,0.23204066 1.094532,0.23204066 z m -4.693353,-7.175747 h 0.739903 v 4.1854875 q 0,0.6173157 0.227662,0.8318438 0.227663,0.21452814 0.687366,0.21452814 h 0.109453 V 0 H 30.528804 Q 29.692582,0 29.281038,-0.44219063 28.873873,-0.88875939 28.873873,-1.8475688 Z m -2.990259,0.3677625 0.634828,0.6348281 -0.634828,0.6348282 -0.634828,-0.6348282 z m -2.858915,4.72837506 q 0.779306,-1.33095006 1.532343,-1.96140006 0.753038,-0.6348281 1.506075,-0.6348281 0.499107,0 0.884382,0.2189062 0.389653,0.2145282 0.608559,0.5866688 0.218906,0.3721406 0.218906,0.8406 -0.0044,0.95880941 -0.805575,1.42289067 Q 26.168192,0 24.543908,0 H 24.311867 Q 23.383705,0 22.897733,-0.175125 22.411761,-0.35025001 22.210367,-0.66547501 21.956436,-0.31960313 21.636833,-0.1576125 21.321608,0 20.796233,0 H 20.61673 l 0.0044,-0.79681876 h 0.175125 q 0.612937,0 0.823087,-0.25830934 0.214529,-0.2626875 0.214529,-0.7574157 0,-0.21015 -0.01751,-0.3896531 -0.01313,-0.1795031 -0.02189,-0.385275 l 0.731147,-0.087562 0.06567,1.0244812 q 0.02189,0.2933344 0.122588,0.5078626 0.100697,0.21014996 0.310847,0.21014996 z M 26.098142,-2.73195 q -1.055128,0 -2.281003,1.93513124 h 0.709256 q 1.247766,0 1.860704,-0.24955314 0.612937,-0.2495531 0.612937,-0.7924406 0,-0.385275 -0.249553,-0.6392063 Q 26.505308,-2.73195 26.098142,-2.73195 Z M 19.983233,0 q -0.30209,0 -0.507862,-0.07880625 -0.201394,-0.08318438 -0.315225,-0.175125 -0.06567,0.57353438 -0.319603,1.10766564 -0.249554,0.53850941 -0.753038,0.93691881 -0.503484,0.3984093 -1.33095,0.5604 L 16.498246,1.6593094 q 1.068262,-0.2320406 1.506075,-0.81433126 0.437812,-0.57791251 0.437812,-1.37035315 0,-0.37214063 -0.08318,-0.77930629 -0.07881,-0.4115437 -0.223285,-0.8362219 l 0.726769,-0.245175 0.236419,0.9150282 q 0.09632,0.3677625 0.306469,0.52099686 0.21015,0.15323438 0.529753,0.15323438 h 0.166369 V 0 Z m -4.807181,-4.7371313 0.612937,0.6085594 -0.612937,0.6173156 -0.60856,-0.6173156 z m -1.453538,0 0.612938,0.6085594 -0.612938,0.6173156 -0.608559,-0.6173156 z m -0.472837,3.94031254 h 0.612937 q 0.556022,0 0.792441,-0.24955314 0.240797,-0.2495531 0.240797,-0.7661719 0,-0.21015 -0.01314,-0.3984094 -0.0088,-0.1882593 -0.02627,-0.3765187 l 0.731147,-0.087562 0.07005,1.0244812 q 0.05254,0.85373444 0.888759,0.85373444 h 0.09194 V 0 H 16.537649 Q 16.051677,0 15.758342,-0.175125 15.469386,-0.35025001 15.289883,-0.66985314 15.053464,-0.32398126 14.668189,-0.16199063 14.282914,0 13.862614,0 H 13.249677 Z M 10.92927,-3.4236938 q 0.337116,0 0.696122,0.056916 0.359007,0.052538 0.665475,0.1532344 0.310847,0.1006969 0.503485,0.245175 0.192637,0.1444781 0.192637,0.3239813 0,0.1269656 -0.135722,0.35025 -0.131343,0.2232843 -0.341493,0.4815937 -0.205772,0.2583094 -0.433435,0.4991063 -0.227662,0.2364187 -0.415922,0.40278749 0.306469,0.0788062 0.582291,0.0963188 0.275822,0.0175125 0.499106,0.0175125 h 0.682988 V 0 h -0.67861 q -0.459703,0 -0.919406,-0.10945313 -0.455325,-0.10945312 -0.897516,-0.36338438 -0.288956,0.16636875 -0.669853,0.27144376 -0.3765185,0.105075 -0.7617935,0.15323437 Q 9.1167266,0 8.8102579,0 H 8.1185141 V -0.79681876 H 8.814636 q 0.1488563,0 0.3984094,-0.004378 0.2539312,-0.008756 0.5209969,-0.0306469 0.2714437,-0.0262687 0.4728377,-0.0788062 Q 10.01862,-1.0770188 9.7909579,-1.3134375 9.5632954,-1.5542344 9.3531454,-1.8125438 9.1473735,-2.0708532 9.0116516,-2.2941375 q -0.1357218,-0.2232844 -0.1357218,-0.35025 0,-0.1795032 0.1882593,-0.3239813 0.1882594,-0.1444781 0.4947282,-0.245175 0.3108468,-0.1006969 0.6698527,-0.1532344 0.359007,-0.056916 0.7005,-0.056916 z m 0,0.7530375 q -0.197015,0 -0.564778,0.030647 -0.363384,0.030647 -0.6873654,0.1401 0.2845782,0.3590062 0.5735344,0.6435844 0.288956,0.2845781 0.481594,0.455325 0.197015,0.1663687 0.197015,0.1663687 0,0 0.197016,-0.1663687 0.197016,-0.1707469 0.49035,-0.455325 0.293334,-0.2845782 0.573534,-0.6435844 -0.323981,-0.1094531 -0.691743,-0.1401 -0.367763,-0.030647 -0.569157,-0.030647 z M 6.3935328,0.10069688 q -0.4378125,0 -0.8099532,-0.18825938 Q 5.2158171,-0.2802 4.8174078,-0.66547501 4.5328296,-0.34587188 4.2701421,-0.17074688 4.0074546,0 3.530239,0 H 3.3376015 v -0.79681876 h 0.1707469 q 0.2933343,0 0.4947281,-0.16636876 Q 4.2044702,-1.1339344 4.3620827,-1.401 4.5196953,-1.6680657 4.6729296,-1.9657782 4.8305421,-2.2678688 5.0231796,-2.5349344 5.2158171,-2.802 5.4872609,-2.9683688 q 0.2758219,-0.1707469 0.6786094,-0.1707469 0.4859719,0 0.8449781,0.2364188 0.3633844,0.2320406 0.5604,0.6260719 0.2013938,0.3940312 0.2013938,0.8800031 0,0.71363439 -0.3633844,1.10766565 -0.3590063,0.38965313 -1.015725,0.38965313 z m -0.21015,-2.46488438 q -0.2189063,0 -0.3984094,0.1488562 -0.1795031,0.1444781 -0.3239813,0.3765188 -0.1444781,0.2320406 -0.2583093,0.4815937 0.2626875,0.2758219 0.5428875,0.45094691 0.3590062,0.23204063 0.6392062,0.23204063 0.6479625,0 0.6479625,-0.65234064 0,-0.455325 -0.2276625,-0.7442813 -0.2232843,-0.2933343 -0.6216937,-0.2933343 z"
       id="text6"
       transform="matrix(1.3333333,0,0,1.3333333,309.888,189.19733)"
       aria-label="داﺪﻌﺗنﺎﺿﺮﺘﻌﻣ" />
    <path
       id="path7"
       d="m 189.92352,99.21382 c 0,3.13109 -2.53817,5.66927 -5.66928,5.66927 -3.13109,0 -5.66926,-2.53818 -5.66926,-5.66927 0,-3.13109 2.53817,-5.66928 5.66926,-5.66928 3.13111,0 5.66928,2.53819 5.66928,5.66928 z"
       style="fill:#b8860b;fill-opacity:1;fill-rule:nonzero;stroke:none"
       transform="matrix(1.3333333,0,0,-1.3333333,43.008,327.64933)" />
    <path
       style="font-weight:800;font-size:9.9626px;font-family:Vazirmatn;fill:#b8860b"
       d="m 43.790218,0 q -0.681037,0 -1.118846,-0.25782119 -0.43781,-0.26268573 -0.632392,-0.85616091 -0.559423,0.43780956 -1.221002,0.43780956 -0.807515,0 -1.347481,-0.43780956 -0.539965,-0.4426741 -0.539965,-1.3036996 0,-0.6323916 0.364842,-1.0799302 0.364841,-0.4524032 0.938858,-0.7588699 0.578881,-0.3064667 1.206408,-0.4961842 l -0.03405,-0.2334984 1.177221,-0.238363 0.462132,3.1230415 q 0.04378,0.2967376 0.228634,0.4961842 0.189717,0.1994466 0.535101,0.1994466 h 0.150801 V 0 Z M 41.77143,-2.6122637 q 0,-0.068104 -0.01459,-0.1508011 -0.0097,-0.087562 -0.02432,-0.1799884 l -0.0827,-0.5107778 q -0.345383,0.1167492 -0.681037,0.2724149 -0.330789,0.150801 -0.549694,0.335654 -0.21404,0.1799883 -0.21404,0.389164 0,0.1994466 0.16053,0.3259249 0.165394,0.1216138 0.42808,0.1216138 0.223769,0 0.447539,-0.063239 0.228634,-0.068104 0.379435,-0.1994466 0.150801,-0.1362074 0.150801,-0.3405185 z m -5.852054,-1.7998837 q 0.617798,0 1.089659,0.2626857 0.476726,0.2626857 0.744276,0.7199535 0.272415,0.4572677 0.272415,1.0458784 0,0.2140402 -0.04865,0.4913196 -0.04378,0.2772794 -0.150801,0.4524032 0.111885,0.014594 0.272415,0.024323 0.16053,0.00973 0.3843,0.00973 H 38.62893 V 0 H 38.487858 Q 37.908977,0 37.49549,-0.15080107 37.082003,-0.30646669 36.770672,-0.51564237 36.264759,-0.29187304 35.612909,-0.14593652 34.965924,0 34.231376,0 h -2.519837 v -1.4058551 h 0.690766 q 0.0681,-0.1118847 0.136208,-0.2091757 0.07297,-0.1021556 0.145936,-0.2043111 V -6.8201 h 1.308565 v 3.3516754 q 0.447538,-0.432945 0.90967,-0.6859017 0.462133,-0.2529566 1.016692,-0.2578211 z m 0.03405,1.3815323 q -0.37457,0 -0.754005,0.238363 -0.379435,0.2334985 -0.724818,0.6080689 -0.345383,0.3697058 -0.627527,0.7783281 h 0.442674 q 0.656714,0 1.216138,-0.063239 0.564288,-0.068104 0.904806,-0.2578212 0.340519,-0.1897175 0.340519,-0.5642879 0,-0.335654 -0.228634,-0.5351005 -0.223769,-0.2043112 -0.569153,-0.2043112 z m -7.316284,-3.6921939 0.826973,0.8172445 0.817245,-0.8172445 0.831838,0.8269736 -0.831838,0.8367027 -0.817245,-0.8269736 -0.826973,0.8269736 -0.826974,-0.8367027 z m 2.777658,4.1835136 q 0,0.3161957 -0.0827,0.5886106 -0.07783,0.2724148 -0.267551,0.5399651 0.111885,0.00486 0.204311,0.00486 0.09243,0 0.17026,0 h 0.466997 V 0 H 31.244542 Q 30.840784,0 30.368923,-0.11674922 29.897061,-0.23836298 29.473845,-0.37943495 29.036036,-0.22863388 28.549581,-0.11188467 28.06799,0 27.63991,0 h -0.885349 v -1.4058551 h 0.724818 q 0.111885,0 0.204312,0 0.09729,-0.00486 0.233498,-0.00973 -0.184853,-0.2724149 -0.262686,-0.5448297 -0.07783,-0.2772794 -0.07783,-0.5886106 0,-0.3842995 0.155666,-0.7394117 0.16053,-0.3599768 0.428081,-0.6421207 0.272414,-0.2870085 0.612933,-0.4524032 0.340518,-0.1653948 0.700495,-0.1653948 0.496184,0 0.938859,0.2870085 0.447538,0.282144 0.724818,0.7442763 0.277279,0.4572677 0.277279,0.9777747 z m -1.931227,-0.6567144 q -0.141072,0 -0.296737,0.1070201 -0.150801,0.1070201 -0.257821,0.2626858 -0.107021,0.150801 -0.107021,0.2967376 0,0.1799883 0.107021,0.3599767 0.111884,0.1751238 0.26755,0.3161958 0.16053,0.1362074 0.296737,0.2140402 0.22377,-0.1216137 0.447539,-0.3697058 0.228634,-0.2480921 0.228634,-0.530236 0,-0.1459366 -0.116749,-0.2967376 -0.111885,-0.1556657 -0.272415,-0.2578212 -0.155666,-0.1021556 -0.296738,-0.1021556 z M 24.565514,0 H 23.79205 v -1.4058551 h 0.778328 q 0.369706,0 0.505914,-0.2286339 0.141072,-0.2334985 0.141072,-0.5886107 0,-0.3307894 -0.0827,-0.7199535 -0.07783,-0.3940286 -0.16053,-0.768599 l 1.274512,-0.3307894 q 0.09243,0.4572678 0.145937,0.909671 0.05838,0.4475386 0.05838,0.8561609 0,0.6469852 -0.175124,1.1626276 -0.175124,0.51564237 -0.588611,0.81724451 Q 25.280603,0 24.565514,0 Z m 0.574017,-6.3433741 0.875619,0.8756192 -0.875619,0.8707545 -0.870755,-0.8707545 z m -1.129041,-0.5059132 0.875619,0.8756191 -0.875619,0.8707546 -0.870754,-0.8707546 z m -2.748471,5.4434322 h 0.389164 q 0.179989,0 0.398893,0 0.218905,-0.00486 0.418352,-0.00973 -0.179989,-0.2724149 -0.262686,-0.5448297 -0.07783,-0.2772794 -0.07783,-0.5886106 0,-0.3842995 0.155666,-0.7394117 0.16053,-0.3599768 0.42808,-0.6421207 0.272415,-0.2870085 0.612934,-0.4524032 0.340518,-0.1653948 0.700495,-0.1653948 0.496184,0 0.938858,0.2870085 0.447539,0.282144 0.724818,0.7442763 0.27728,0.4572677 0.27728,0.9777747 0,0.3161957 -0.0827,0.5886106 -0.07783,0.2724148 -0.26755,0.5399651 0.111885,0.00486 0.204311,0.00486 0.09243,0 0.170259,0 h 0.466997 V 0 H 25.79578 q -0.403757,0 -0.875619,-0.11674922 -0.471861,-0.12161376 -0.895077,-0.26268573 -0.291873,0.10215556 -0.70536,0.18971747 -0.408622,0.0826974 -0.822109,0.13620742 Q 22.088993,0 21.801984,0 h -0.539965 q -0.841567,0 -1.551792,-0.10215556 -0.705359,-0.10702012 -1.230731,-0.36970585 -0.520507,-0.26268574 -0.81238,-0.73454719 -0.287008,-0.4767259 -0.287008,-1.2161376 0,-0.4378096 0.09729,-0.8512964 0.09729,-0.4183514 0.243227,-0.7734636 l 1.172357,0.4426742 q -0.0827,0.2286338 -0.170259,0.530236 -0.0827,0.3016021 -0.0827,0.574017 0,0.486455 0.359977,0.7199535 0.359977,0.2334984 0.953452,0.3064666 0.59834,0.068104 1.308564,0.068104 z m 2.772794,-1.7901547 q -0.141072,0 -0.296738,0.1070201 -0.150801,0.1070201 -0.257821,0.2626858 -0.10702,0.150801 -0.10702,0.2967376 0,0.1799883 0.10702,0.3599767 0.111885,0.1751238 0.26755,0.3161958 0.160531,0.1362074 0.296738,0.2140402 0.228634,-0.1216137 0.452403,-0.3697058 0.22377,-0.2480921 0.22377,-0.530236 0,-0.1459366 -0.11675,-0.2967376 -0.111884,-0.1556657 -0.272414,-0.2578212 -0.155666,-0.1021556 -0.296738,-0.1021556 z m -9.665864,-1.2161376 q 0.617798,0 1.089659,0.2626857 0.476726,0.2626857 0.744277,0.7199535 0.272415,0.4572677 0.272415,1.0458784 0,0.2140402 -0.04865,0.4913196 -0.04378,0.2772794 -0.150801,0.4524032 0.111885,0.014594 0.272415,0.024323 0.16053,0.00973 0.384299,0.00973 h 0.145937 V 0 H 16.937432 Q 16.35855,0 15.945064,-0.15080107 15.531577,-0.30646669 15.220245,-0.51564237 14.714332,-0.29187304 14.062482,-0.14593652 13.415497,0 12.68095,0 h -2.519837 v -1.4058551 h 0.690766 q 0.0681,-0.1118847 0.136207,-0.2091757 0.07297,-0.1021556 0.145937,-0.2043111 V -6.8201 h 1.308564 v 3.3516754 q 0.447539,-0.432945 0.909671,-0.6859017 0.462132,-0.2529566 1.016691,-0.2578211 z m 0.03405,1.3815323 q -0.37457,0 -0.754005,0.238363 -0.379435,0.2334985 -0.724818,0.6080689 -0.345384,0.3697058 -0.627527,0.7783281 h 0.442674 q 0.656714,0 1.216137,-0.063239 0.564288,-0.068104 0.904807,-0.2578212 0.340518,-0.1897175 0.340518,-0.5642879 0,-0.335654 -0.228634,-0.5351005 -0.223769,-0.2043112 -0.569152,-0.2043112 z m -8.5032344,1.62476 q -0.1362074,-0.2432276 -0.2140402,-0.5788816 -0.077833,-0.3405185 -0.077833,-0.6129334 0,-0.5788815 0.2870084,-1.0653365 0.2870085,-0.4913197 0.7734636,-0.7831927 0.4913196,-0.2967376 1.0847948,-0.2967376 0.5496942,0 1.0020974,0.1994466 0.4524032,0.194582 0.9242647,0.5156424 l -0.5059133,1.157763 Q 8.8574134,-3.0598024 8.5412176,-3.1960098 8.2250218,-3.3322172 7.8455869,-3.3322172 q -0.2237694,0 -0.4524032,0.092427 -0.2286339,0.092426 -0.379435,0.2675502 -0.1508011,0.1702593 -0.1508011,0.4134869 0,0.2043111 0.092427,0.3988931 0.097291,0.1897175 0.2286339,0.335654 0.1313428,0.141072 0.2334984,0.2043111 0.019458,0.00486 0.077833,-0.014594 l 2.3690362,-0.5642879 v 1.41071969 Q 8.6385086,-0.41835136 7.5147974,-0.20917568 6.3959508,0 5.3354787,0 H 4.8441591 v -1.4058551 z"
       id="text7"
       transform="matrix(1.3333333,0,0,1.3333333,293.37333,190.67067)"
       aria-label="ﻪﻄﻘﻧﻒﻄﻋ" />
    <path
       id="path8"
       d="M 184.25424,0 V 99.21382"
       style="fill:none;stroke:#808080;stroke-width:0.3985;stroke-linecap:butt;stroke-linejoin:miter;stroke-miterlimit:10;stroke-dasharray:2.98883, 2.98883;stroke-dashoffset:0;stroke-opacity:1"
       transform="matrix(1.3333333,0,0,-1.3333333,43.008,327.64933)" />
    <path
       style="font-size:8.9664px;font-family:Vazirmatn"
       d="m 21.851223,0 q -0.643584,0 -1.00259,-0.30209063 -0.354628,-0.30209063 -0.459703,-0.83184377 -0.253932,0.25393126 -0.551644,0.38965314 -0.293335,0.13572188 -0.661097,0.13572188 -0.626072,0 -1.05075,-0.33711564 -0.424678,-0.33711558 -0.424678,-0.93254068 0,-0.6742312 0.551643,-1.1645812 0.551644,-0.4947282 1.733738,-0.8581125 l -0.03065,-0.21015 0.7005,-0.1401 0.380897,2.6881687 q 0.05254,0.3852751 0.249553,0.57791256 0.201394,0.18825938 0.582291,0.18825938 h 0.135722 V 0 Z m -1.637418,-2.2021969 q 0,-0.1357219 -0.01751,-0.2583094 l -0.109453,-0.7311469 q -0.849356,0.3064688 -1.239009,0.6041813 -0.385276,0.2977125 -0.385276,0.6523406 0,0.2889563 0.197016,0.4378125 0.197016,0.1488563 0.534131,0.1488563 0.25831,0 0.49035,-0.1006969 0.236419,-0.1006969 0.380897,-0.2933344 0.148857,-0.1926375 0.148857,-0.4597031 z M 15.336572,0 h -0.713635 v -0.79681876 h 0.704878 q 0.437813,0 0.591047,-0.25393124 0.157613,-0.2539313 0.157613,-0.6435844 0,-0.2845781 -0.05254,-0.6085594 Q 15.9714,-2.626875 15.910106,-2.9552344 L 16.6719,-3.1478719 q 0.07443,0.35025 0.118209,0.6873656 0.04378,0.3371156 0.04378,0.6435844 0,0.525375 -0.144478,0.93691876 -0.144478,0.41154376 -0.472837,0.64796251 Q 15.888215,0 15.336572,0 Z m 0.534131,-5.1661876 0.634828,0.6348282 -0.634828,0.6348281 -0.634828,-0.6348281 z m -2.837025,-0.8624906 h 0.739903 v 4.1854875 q 0,0.6173157 0.227663,0.8318438 0.227662,0.21452814 0.687365,0.21452814 h 0.109453 V 0 H 14.688609 Q 13.852387,0 13.440844,-0.44219063 13.033678,-0.88875939 13.033678,-1.8475688 Z m -2.044585,1.2915469 0.612938,0.6085594 -0.612938,0.6173156 -0.608559,-0.6173156 z m -1.453537,0 0.612937,0.6085594 -0.612937,0.6173156 -0.6085594,-0.6173156 z M 9.0627185,-0.79681876 H 9.675656 q 0.556022,0 0.792441,-0.24955314 0.240796,-0.2495531 0.240796,-0.7661719 0,-0.21015 -0.01313,-0.3984094 -0.0088,-0.1882593 -0.02627,-0.3765187 l 0.731147,-0.087562 0.07005,1.0244812 q 0.05254,0.85373444 0.88876,0.85373444 h 0.09194 V 0 H 12.35069 Q 11.864718,0 11.571384,-0.175125 11.282428,-0.35025001 11.102925,-0.66985314 10.866506,-0.32398126 10.481231,-0.16199063 10.095956,0 9.675656,0 H 9.0627185 Z M 5.0435996,0 Q 4.5401152,0 4.2642933,-0.17074688 3.9928496,-0.34587188 3.8308589,-0.66985314 3.6250871,-0.34587188 3.3054839,-0.17074688 2.9858808,0 2.3948339,0 H 1.9920464 v -0.79681876 h 0.4115438 q 0.5604,0 0.8187094,-0.20577184 0.2583093,-0.21015 0.2583093,-0.7617938 0,-0.1138313 -0.013134,-0.2670656 -0.00876,-0.1576125 -0.030647,-0.4378125 l 0.7311469,-0.091941 0.07005,0.9150282 q 0.026269,0.3677625 0.2232844,0.6085594 0.2013937,0.24079684 0.5910468,0.24079684 0.4640813,0 0.6304501,-0.24955314 0.1663687,-0.2495531 0.1663687,-0.7180125 0,-0.1138313 -0.013134,-0.2714438 -0.00876,-0.1576125 -0.030647,-0.4334343 l 0.7311468,-0.091941 0.07005,0.9150282 q 0.021891,0.3546281 0.1882594,0.6041812 0.1663688,0.24517504 0.5385094,0.24517504 0.3633844,0 0.4991063,-0.27144374 0.1357218,-0.2714438 0.1357218,-0.6348282 0,-0.3283593 -0.065672,-0.6610968 -0.061294,-0.3327375 -0.1094532,-0.5385094 l 0.7486594,-0.2013938 q 0.078806,0.2933344 0.1269656,0.6260719 0.048159,0.3283594 0.048159,0.6567188 0,0.4728375 -0.1313437,0.88875936 Q 8.454159,-0.51661876 8.1520684,-0.25830938 7.8543559,-0.00437813 7.3377371,0 6.9174371,0 6.6591277,-0.175125 6.4008184,-0.35025001 6.2388277,-0.66985314 5.9936527,-0.31522501 5.6915621,-0.1576125 5.3938496,0 5.0435996,0 Z M 1.4754279,-6.5759439 q 0.061294,0.030647 0.1269656,0.030647 0.1225875,0 0.4378125,-0.2845781 l 0.2232844,-0.2013938 0.3984094,0.3590063 -0.245175,0.2320406 q -0.2320406,0.2189063 -0.4071656,0.3239813 -0.1707469,0.1006969 -0.3458719,0.1006969 -0.1663688,0 -0.3940313,-0.1006969 L 0.70487788,-6.3745501 q -0.0612937,-0.026269 -0.11383125,-0.043781 -0.0525375,-0.017513 -0.10069688,-0.017513 -0.0963187,0 -0.21890625,0.078806 -0.1225875,0.078806 -0.32835938,0.2845781 l -0.24955313,0.2495532 -0.39840938,-0.3590063 0.25393125,-0.2626875 q 0.28457813,-0.2933344 0.48159376,-0.4115438 0.20139376,-0.1225875 0.38089688,-0.1225875 0.11820938,0 0.23641876,0.039403 0.1225875,0.039403 0.2626875,0.105075 z M 1.409756,-5.459522 v 5.45514387 H 0.66985288 V -5.459522 Z"
       id="text8"
       transform="matrix(1.3333333,0,0,1.3333333,273.92267,341.71733)"
       aria-label="ﻪﻧﺎﺘﺳآ" />
  </g>
</svg>
