<?xml version="1.0" encoding="UTF-8" standalone="no"?>


<svg class="tikz-diagram" id="iran-action-ch9-tikz-8-81c511761703"
   version="1.1"
   id="svg1"
   width="572.97333"
   height="119.42667"
   viewBox="0 0 572.97333 119.42667"
   sodipodi:docname="iran-action-ch9-tikz-8-81c511761703.pdf"
   xmlns:inkscape="http://www.inkscape.org/namespaces/inkscape"
   xmlns:sodipodi="http://sodipodi.sourceforge.net/DTD/sodipodi-0.dtd"
   xmlns="http://www.w3.org/2000/svg"
   xmlns:svg="http://www.w3.org/2000/svg">
  <defs
     id="defs1" />
  <sodipodi:namedview
     id="namedview1"
     pagecolor="#ffffff"
     bordercolor="#000000"
     borderopacity="0.25"
     inkscape:showpageshadow="2"
     inkscape:pageopacity="0.0"
     inkscape:pagecheckerboard="0"
     inkscape:deskcolor="#d1d1d1">
    <inkscape:page
       x="0"
       y="0"
       inkscape:label="1"
       id="page1"
       width="572.97333"
       height="119.42667"
       margin="0"
       bleed="0" />
  </sodipodi:namedview>
  <g
     id="g1"
     inkscape:groupmode="layer"
     inkscape:label="1">
    <path
       id="path1"
       d="m 183.48358,28.3468 h -366.96716 c -8.25354,0 -14.94415,-6.69061 -14.94415,-14.94415 v -26.8053 c 0,-8.25354 6.69061,-14.94415 14.94415,-14.94415 h 366.96716 c 8.25354,0 14.94415,6.69061 14.94415,14.94415 v 26.8053 c 0,8.25354 -6.69061,14.94415 -14.94415,14.94415 z"
       style="fill:#ffe6e6;fill-opacity:1;fill-rule:nonzero;stroke:#be1e2d;stroke-width:2.98883;stroke-linecap:butt;stroke-linejoin:miter;stroke-miterlimit:10;stroke-dasharray:none;stroke-opacity:1"
       transform="matrix(1.3333333,0,0,-1.3333333,286.48533,59.713333)" />
    <path
       style="font-weight:800;font-size:14.3462px;font-family:Vazirmatn"
       d="m 41.141033,0 q -0.980697,0 -1.611145,-0.37126396 -0.630449,-0.37826895 -0.910648,-1.23287654 -0.805573,0.63044822 -1.75825,0.63044822 -1.162827,0 -1.940379,-0.63044822 -0.777553,-0.6374532 -0.777553,-1.8773348 0,-0.9106475 0.525373,-1.5551057 0.525374,-0.6514631 1.351961,-1.0927769 0.833593,-0.4413138 1.737236,-0.714508 l -0.04903,-0.3362391 1.695205,-0.343244 0.665473,4.4971974 q 0.06305,0.4273038 0.329234,0.714508 0.273194,0.2872042 0.770548,0.2872042 h 0.217154 V 0 Z m -2.907067,-3.7616745 q 0,-0.09807 -0.02102,-0.2171544 -0.01401,-0.1260897 -0.03502,-0.2591843 l -0.119084,-0.7355229 q -0.497354,0.1681195 -0.980697,0.3922789 -0.476339,0.2171544 -0.791563,0.4833436 -0.308219,0.2591843 -0.308219,0.5603985 0,0.2872042 0.231164,0.4693337 0.238169,0.1751245 0.616438,0.1751245 0.322229,0 0.644458,-0.091065 0.329234,-0.09807 0.546389,-0.2872042 0.217154,-0.1961394 0.217154,-0.4903486 z m -7.698473,0.4132938 v -6.4726019 h 1.88434 v 6.4726019 q 0,0.6584682 0.210149,0.9947073 0.217155,0.329234 0.854608,0.329234 h 0.224159 V 0 H 33.4986 Q 32.756072,0 32.286738,-0.22415937 31.82441,-0.45532373 31.474161,-0.90364248 31.102897,-0.47633867 30.605543,-0.23816934 30.115195,0 29.295612,0 h -0.427304 v -2.0244394 h 0.378269 q 0.707503,0 0.994707,-0.3152241 0.294209,-0.3222291 0.294209,-1.0087172 z m -11.453142,1.3239413 h 1.190846 q 0.903643,0 1.681196,-0.1681195 0.777552,-0.1751245 1.597135,-0.5183685 0.826588,-0.3432441 1.877335,-0.8546077 -1.078767,-0.3922789 -1.74424,-0.6584681 -0.665473,-0.2731943 -0.910648,-0.2731943 -0.378269,0 -0.686488,0.2381694 -0.301214,0.2311643 -0.497353,0.4903486 l -0.371264,0.4693337 -1.569116,-0.7705478 0.315224,-0.5043586 q 0.497354,-0.8125778 1.190847,-1.3449563 0.693493,-0.5393835 1.625155,-0.5393835 0.392279,0 0.910648,0.1821295 0.525373,0.1821295 1.120797,0.4553237 0.602428,0.2661893 1.239881,0.5393835 0.644458,0.2661893 1.267902,0.4553238 0.630448,0.1891344 1.204856,0.1961394 v 1.8563198 q -0.532378,0.07005 -0.987702,0.2381694 -0.455324,0.1611145 -0.945672,0.4132938 -0.490349,0.2521793 -1.141812,0.6024283 -0.896638,0.4763387 -1.695205,0.81958275 Q 22.96311,-0.357254 22.122512,-0.17512451 21.288919,0 20.252182,0 H 19.082351 Z M 18.047407,0 Q 17.409954,0 16.99666,-0.24517432 16.716461,1.3659712 15.616679,2.4167183 14.523902,3.4674653 12.695602,3.8177144 L 12.002109,1.9473846 q 1.015722,-0.2171544 1.74424,-0.5814134 0.735523,-0.357254 1.134807,-0.95968233 0.399284,-0.60242832 0.399284,-1.55510567 0,-0.6374532 -0.203145,-1.429016 -0.203144,-0.7985678 -0.434309,-1.4850559 l 1.88434,-0.6094333 0.406289,1.5831256 q 0.119085,0.4483188 0.350249,0.7565379 0.231164,0.3082191 0.686488,0.3082191 h 0.273194 V 0 Z m -7.586393,0.16111455 q -0.7285179,0 -1.3659712,-0.30821914 Q 8.4645946,-0.46232871 7.8621663,-0.92465742 7.4768924,-0.5393835 7.0565935,-0.26618926 6.6432997,0 5.8447319,0 H 5.5365128 V -2.0244394 H 5.809707 q 0.343244,0 0.6164383,-0.2661892 0.2801992,-0.2661893 0.5323785,-0.6864881 0.2591843,-0.4273038 0.5393835,-0.8966375 0.2872042,-0.4763387 0.6374532,-0.8966375 0.357254,-0.4273038 0.8265877,-0.6934931 0.4693337,-0.2661892 1.0997818,-0.2661892 0.882628,0 1.527086,0.4202988 0.644458,0.4132939 0.994707,1.0997819 0.350249,0.6794831 0.350249,1.4850559 0,0.8265877 -0.273194,1.4780509 -0.273194,0.65146316 -0.826588,1.02973211 -0.546388,0.37826894 -1.372976,0.37826894 z M 10.124775,-3.8037044 q -0.2872042,0 -0.5183686,0.1961395 -0.2311643,0.1891344 -0.4062888,0.4623287 -0.1751246,0.2731942 -0.2942092,0.5183685 0.2031444,0.1821295 0.3852739,0.3152241 0.1821295,0.1330947 0.350249,0.2311644 0.2521793,0.1400996 0.4623287,0.1961395 0.210149,0.05604 0.364259,0.05604 0.371264,0 0.532379,-0.2661893 0.161114,-0.2731942 0.161114,-0.6164382 0,-0.4413138 -0.273194,-0.7635429 -0.273194,-0.3292341 -0.763543,-0.3292341 z M 5.7456532,-5.365815 q 0,-0.5323786 0.378269,-0.8826276 0.3782689,-0.350249 0.9106474,-0.350249 0.5393835,0 0.9106475,0.350249 0.3782689,0.350249 0.3782689,0.8826276 0,0.5253735 -0.3782689,0.8756225 -0.378269,0.350249 -0.9106475,0.350249 -0.5463885,0 -0.9176524,-0.343244 -0.371264,-0.350249 -0.371264,-0.8826275 z m 0,4.1259335 q 0,-0.5253736 0.378269,-0.8756226 0.3782689,-0.357254 0.9106474,-0.357254 0.5393835,0 0.9106475,0.357254 0.3782689,0.350249 0.3782689,0.8756226 0,0.53237847 -0.3782689,0.8826275 -0.378269,0.35024902 -0.9106475,0.35024902 -0.5463885,0 -0.9176524,-0.35024902 -0.371264,-0.35024903 -0.371264,-0.8826275 z M 49.603835,-7.6844636 q -0.560399,0 -0.861613,0.4413138 -0.294209,0.4343088 -0.294209,0.9526773 0,0.1891345 0.399284,0.3222291 0.406289,0.1260897 0.987702,0.1260897 0.427304,0 0.896637,-0.08406 0.476339,-0.091065 0.903643,-0.2942092 l 0.259184,1.8703298 q -0.602428,0.2872042 -1.169832,0.371264 -0.567403,0.08406 -0.973692,0.08406 -0.721513,0 -1.436021,-0.1891345 -0.714508,-0.1891345 -1.190846,-0.4903486 0.09807,0.8896325 0.119084,1.7442401 0.02802,0.8546076 0.02802,1.4990658 V 0 h -1.919365 v -1.3519612 q 0,-2.5007781 -0.294209,-4.329078 -0.294209,-1.8282999 -1.015722,-3.3063507 l 1.821295,-0.6514632 0.644458,1.8913447 q 0.133095,0.371264 0.22416,0.6094333 0.09807,0.2381693 0.231164,0.378269 0.04203,-0.742528 0.357254,-1.3659712 0.322229,-0.6304483 0.882628,-1.0157222 0.560398,-0.3852739 1.316936,-0.3852739 0.728518,0 1.204856,0.2171544 0.483344,0.2171544 0.875623,0.5253735 l -0.616438,1.5410957 Q 50.626562,-7.4532992 50.311338,-7.5653789 49.996114,-7.6844636 49.603835,-7.6844636 Z M 157.68945,0.16111455 q -0.72852,0 -1.36597,-0.30821914 -0.63045,-0.31522412 -1.23288,-0.77755283 -0.38528,0.38527392 -0.80557,0.65846816 Q 153.87173,0 153.07316,0 h -0.30822 v -2.0244394 h 0.2732 q 0.34324,0 0.61644,-0.2661892 0.2802,-0.2661893 0.53238,-0.6864881 0.25918,-0.4273038 0.53938,-0.8966375 0.2872,-0.4763387 0.63745,-0.8966375 0.35726,-0.4273038 0.82659,-0.6934931 0.46933,-0.2661892 1.09978,-0.2661892 0.88263,0 1.52709,0.4202988 0.64446,0.4132939 0.99471,1.0997819 0.35024,0.6794831 0.35024,1.4850559 0,0.8265877 -0.27319,1.4780509 -0.27319,0.65146316 -0.82659,1.02973211 -0.54639,0.37826894 -1.37297,0.37826894 z m -0.33624,-3.96481895 q -0.28721,0 -0.51837,0.1961395 -0.23117,0.1891344 -0.40629,0.4623287 -0.17512,0.2731942 -0.29421,0.5183685 0.20314,0.1821295 0.38527,0.3152241 0.18213,0.1330947 0.35025,0.2311644 0.25218,0.1400996 0.46233,0.1961395 0.21015,0.05604 0.36426,0.05604 0.37127,0 0.53238,-0.2661893 0.16111,-0.2731942 0.16111,-0.6164382 0,-0.4413138 -0.27319,-0.7635429 -0.27319,-0.3292341 -0.76354,-0.3292341 z m -7.48833,-6.0172782 h 1.89134 v 6.4025521 q 0,0.742528 0.21716,1.071762 0.21715,0.3222291 0.89663,0.3222291 h 0.17513 V 0 h -0.17513 q -1.56911,0 -2.29062,-0.81257773 -0.71451,-0.81257777 -0.71451,-2.43773317 z m -4.19596,6.794831 q 0,-0.1751245 -0.0771,-0.4623287 -0.077,-0.2872042 -0.16111,-0.4693337 l -1.38699,-3.0611764 1.66719,-0.8125778 1.74424,4.0208588 q 0.21015,0.4833437 0.37126,0.8896325 0.16812,0.4062889 0.37827,0.6514632 0.21715,0.2451743 0.55339,0.2451743 h 0.29421 V 0 h -0.29421 q -0.78455,0 -1.2679,-0.29420918 -0.47634,-0.30121416 -0.8406,-0.77054782 -0.53237,0.51136354 -1.2679,0.78455778 -0.73552,0.27319424 -1.77926,0.27319424 -0.61644,0 -1.04374,-0.04202988 -0.42731,-0.04202989 -0.88263,-0.15410957 V -2.2275838 q 0.43431,0.1050747 0.91765,0.1611146 0.49035,0.05604 0.90364,0.05604 0.51837,0 1.01572,-0.08406 0.49736,-0.091065 0.82659,-0.3152241 0.32924,-0.2241594 0.32924,-0.6164383 z m -9.42872,-8.1818174 1.19085,1.176837 1.17684,-1.176837 1.19785,1.190847 -1.19785,1.2048566 -1.17684,-1.1908466 -1.19085,1.1908466 -1.19084,-1.2048566 z m 0.64446,9.1835296 q 0.89664,0 1.36597,-0.1400996 0.47634,-0.1400996 0.48335,-0.693493 -0.51137,0.09807 -1.08577,0.09807 -1.23989,0 -1.9614,-0.5113636 -0.72151,-0.5183685 -0.72151,-1.6811953 0,-0.5674034 0.18213,-1.1207969 0.18913,-0.5603984 0.53238,-1.0157221 0.35024,-0.4623287 0.83359,-0.735523 0.49035,-0.2801992 1.09278,-0.2801992 0.77755,0 1.33094,0.3922789 0.5604,0.3852739 0.91065,1.0367371 0.35025,0.6514632 0.51136,1.457036 0.16812,0.7985677 0.16812,1.6321604 0,1.4570359 -0.39928,2.2345888 -0.39228,0.77054782 -1.21887,1.064757 Q 138.08952,0 136.8006,0 h -2.57783 v -2.0244394 z m 0.73553,-2.4517431 q 0.26618,0 0.53237,-0.02802 0.2732,-0.02802 0.53238,-0.08406 -0.049,-0.3362391 -0.18213,-0.6934931 -0.13309,-0.364259 -0.35725,-0.6164383 -0.22416,-0.2521792 -0.55339,-0.2521792 -0.43431,0 -0.67248,0.357254 -0.23117,0.350249 -0.23117,0.7565378 0,0.371264 0.2732,0.4693337 0.27319,0.091065 0.65847,0.091065 z m -4.21,-5.3448001 v 9.81397762 h -1.89135 V -9.8209826 Z m -4.28072,4.3500929 -0.2802,-0.2451744 1.17684,-1.5060708 q 0.63045,0.4973537 1.25389,1.0017122 0.62344,0.5043586 1.13481,1.0437421 0.51836,0.5393835 0.82658,1.1348069 0.30822,0.5954233 0.30822,1.2679014 0,0.8546077 -0.37827,1.4710459 -0.37826,0.61643831 -1.04374,0.9456724 -0.66547,0.32923408 -1.52708,0.32923408 -1.45003,0 -2.20657,-0.70750303 -0.74954,-0.71450805 -0.74954,-1.78627005 0,-0.8756225 0.42731,-1.5551056 0.43431,-0.6864881 1.05775,-1.3939911 z m 2.63387,2.7109274 q 0,-0.2241594 -0.20314,-0.4973536 -0.19614,-0.2801992 -0.49035,-0.5463885 -0.2872,-0.2661892 -0.55339,-0.4693337 -0.24518,0.2171544 -0.49736,0.4973536 -0.24517,0.2801992 -0.41329,0.5603985 -0.16812,0.2801992 -0.16812,0.5113635 0,0.3222291 0.30822,0.5043586 0.31522,0.1751245 0.8476,0.1751245 1.16983,0 1.16983,-0.7355229 z m -7.92964,-0.2661893 q 0,-0.1751245 -0.077,-0.4623287 -0.0771,-0.2872042 -0.16112,-0.4693337 l -1.38698,-3.0611764 1.66718,-0.8125778 1.74424,4.0208588 q 0.21015,0.4833437 0.37127,0.8896325 0.16812,0.4062889 0.37827,0.6514632 0.21715,0.2451743 0.55339,0.2451743 h 0.29421 V 0 h -0.29421 q -0.78456,0 -1.2679,-0.29420918 -0.47634,-0.30121416 -0.8406,-0.77054782 -0.53238,0.51136354 -1.2679,0.78455778 -0.73552,0.27319424 -1.77927,0.27319424 -0.61643,0 -1.04374,-0.04202988 -0.4273,-0.04202989 -0.88262,-0.15410957 V -2.2275838 q 0.4343,0.1050747 0.91765,0.1611146 0.49035,0.05604 0.90364,0.05604 0.51837,0 1.01572,-0.08406 0.49736,-0.091065 0.82659,-0.3152241 0.32923,-0.2241594 0.32923,-0.6164383 z m -7.58638,-1.78627 1.75124,-0.2171544 0.1401,2.0034244 q 0.035,0.5323786 0.29421,0.7705479 0.25919,0.2311643 0.82659,0.2311643 h 0.14711 V 0 h -0.16112 q -0.7005,0 -1.20486,-0.2521793 -0.49735,-0.25217929 -0.81958,-0.65846816 -0.4273,0.42730381 -1.01572,0.67247812 Q 115.62388,0 114.96541,0 h -0.67248 v -2.0244394 h 0.67248 q 0.77055,0 1.05775,-0.2591842 0.29421,-0.2661893 0.29421,-0.9666873 0,-0.4132939 -0.021,-0.7985678 -0.021,-0.3922789 -0.049,-0.7635429 z m 0.38527,-3.7126396 1.2609,1.2608965 -1.2609,1.2538915 -1.25389,-1.2538915 z m -5.21871,3.7126396 1.75124,-0.2171544 0.1401,2.0034244 q 0.035,0.5323786 0.29421,0.7705479 0.25918,0.2311643 0.82659,0.2311643 h 0.1471 V 0 h -0.16111 q -0.7005,0 -1.20486,-0.2521793 -0.49735,-0.25217929 -0.81958,-0.65846816 -0.42731,0.42730381 -1.01572,0.67247812 Q 110.79043,0 110.13197,0 h -0.67248 v -2.0244394 h 0.67248 q 0.77054,0 1.05775,-0.2591842 0.29421,-0.2661893 0.29421,-0.9666873 0,-0.4132939 -0.021,-0.7985678 -0.021,-0.3922789 -0.049,-0.7635429 z m 0.38527,-3.7126396 1.2609,1.2608965 -1.2609,1.2538915 -1.25389,-1.2538915 z m -6.34651,2.0524593 q 0.93867,0.5603984 1.66018,1.0997819 0.72852,0.5323785 1.14181,1.1488168 0.4133,0.6164383 0.4133,1.422011 0,1.0997819 -0.50436,1.7092152 -0.50436,0.60943335 -1.41501,0.85460766 Q 105.83792,0 104.62605,0 h -1.70921 v -2.0244394 h 1.70221 q 1.1208,0 1.68119,-0.1541095 0.5604,-0.1611146 0.5604,-0.6514632 0,-0.2311644 -0.34324,-0.5323785 -0.34325,-0.3082192 -0.86161,-0.6444582 -0.51137,-0.3432441 -1.05075,-0.6724781 -0.53238,-0.3362391 -0.92466,-0.6164383 -0.29421,-0.2101494 -0.44832,-0.5603985 -0.1471,-0.350249 -0.1471,-0.714508 0,-0.3922789 0.18213,-0.7355229 0.18213,-0.3432441 0.5674,-0.4973536 l 5.40785,-2.2065688 v 2.0034243 z m -15.115742,0.3922789 1.260897,1.2608964 -1.260897,1.2538915 -1.253891,-1.2538915 z m 0.08406,7.6774585 q 1.008717,0 1.59013,-0.3222291 0.588419,-0.32222906 0.833593,-0.87562251 0.252179,-0.55339346 0.252179,-1.25389151 0,-0.75653788 -0.245174,-1.55510568 -0.238169,-0.8055727 -0.539383,-1.5340907 l 1.870329,-0.700498 0.560399,1.7022102 q 0.119085,0.364259 0.364259,0.6444582 0.245174,0.2731942 0.707503,0.2731942 h 0.280199 V 0 H 95.842813 Q 95.541599,0 95.317439,-0.04903486 95.09328,-0.09806973 94.89714,-0.23816934 94.672981,1.5340907 93.538174,2.5638228 92.403367,3.60056 90.420958,3.60056 88.914887,3.60056 87.93419,3.0261516 86.960498,2.4517432 86.491164,1.4570359 86.02183,0.46232871 86.02183,-0.78455781 q 0,-0.83359269 0.18213,-1.72322519 0.182129,-0.8966375 0.525373,-1.78627 l 1.70221,0.6514632 q -0.259184,0.7425279 -0.434308,1.4500309 -0.175125,0.707503 -0.175125,1.32394132 0,0.67247813 0.23817,1.23287656 0.238169,0.56039844 0.805572,0.89663752 0.567404,0.336239 1.555106,0.336239 z M 79.591262,-2.0244394 h 1.541095 q 0.770548,0 1.057753,-0.2591842 0.294209,-0.2661893 0.294209,-0.9666873 0,-0.4132939 -0.02102,-0.7985678 -0.02101,-0.3922789 -0.04903,-0.7635429 l 1.751245,-0.2171544 0.1401,2.0034244 q 0.03502,0.5323786 0.294209,0.7705479 0.259184,0.2311643 0.826588,0.2311643 h 0.147104 V 0 H 85.412401 Q 84.711902,0 84.207544,-0.2521793 83.71019,-0.50435859 83.387961,-0.91064746 82.960657,-0.48334365 82.372239,-0.23816934 81.790826,0 81.132357,0 H 79.591262 Z M 80.24973,0.8966375 81.440577,2.0734742 82.617413,0.8966375 83.815265,2.0874842 82.617413,3.2923408 81.440577,2.1014941 80.24973,3.2923408 79.058883,2.0874842 Z M 74.372548,-2.0244394 H 75.4303 q 0.770547,0 1.057752,-0.2591842 0.294209,-0.2661893 0.294209,-0.9666873 0,-0.4132939 -0.02102,-0.7985678 -0.02102,-0.3922789 -0.04904,-0.7635429 l 1.751245,-0.2171544 0.1401,2.0034244 q 0.03503,0.5323786 0.294209,0.7705479 0.259184,0.2311643 0.826588,0.2311643 h 0.147104 V 0 H 79.710343 Q 79.009845,0 78.505486,-0.2521793 78.008132,-0.50435859 77.685903,-0.91064746 77.258599,-0.48334365 76.670181,-0.23816934 76.088768,0 75.4303,0 H 74.372548 Z M 74.554677,0.8966375 75.745524,2.0734742 76.92236,0.8966375 78.120212,2.0874842 76.92236,3.2923408 75.745524,2.1014941 74.554677,3.2923408 73.36383,2.0874842 Z m -3.880761,-7.0680253 q 0.553394,0 1.176837,0.08406 0.623443,0.077055 1.169832,0.2591843 0.546388,0.1751245 0.889632,0.4623287 0.350249,0.2801992 0.350249,0.6794831 0,0.2311643 -0.182129,0.5674034 -0.175125,0.336239 -0.455324,0.707503 -0.273194,0.364259 -0.574409,0.7004981 -0.294209,0.329234 -0.525373,0.5603984 0.287204,0.08406 0.553393,0.1050747 0.26619,0.021015 0.497354,0.021015 h 1.092777 V 0 H 73.580983 Q 72.7614,0 72.032882,-0.18913447 71.311369,-0.38527393 70.673916,-0.70750303 70.001438,-0.37126396 69.055766,-0.18212949 68.117098,0 67.283506,0 h -1.106787 v -2.0244394 h 1.113792 q 0.161114,0 0.434308,-0.007 0.2802,-0.007 0.581414,-0.035025 0.301214,-0.02802 0.518368,-0.091065 -0.231164,-0.2311643 -0.525373,-0.5603984 -0.294209,-0.3362391 -0.567404,-0.7004981 -0.273194,-0.3712639 -0.455323,-0.700498 -0.18213,-0.3362391 -0.18213,-0.5674034 0,-0.3992839 0.343244,-0.6794831 0.343244,-0.2872042 0.889633,-0.4623287 0.546388,-0.1821295 1.169831,-0.2591843 0.623444,-0.08406 1.176837,-0.08406 z m 0.007,1.8353049 q -0.343244,0 -0.728518,0.035025 -0.378269,0.035025 -0.791563,0.1190847 0.294209,0.3152241 0.644459,0.6584681 0.357254,0.3362391 0.609433,0.5744084 0.259184,0.2381694 0.259184,0.2381694 0,0 0.259184,-0.2381694 0.259185,-0.2381693 0.616439,-0.5744084 0.364259,-0.343244 0.651463,-0.6584681 -0.406289,-0.08406 -0.791563,-0.1190847 -0.378269,-0.035025 -0.728518,-0.035025 z m -8.342925,-4.7283618 1.190847,1.1768367 1.176837,-1.1768367 1.197851,1.1908467 -1.197851,1.2048566 -1.176837,-1.1908467 -1.190847,1.1908467 -1.190847,-1.2048566 z M 63.024484,0 h -1.422011 v -2.0244394 h 1.429016 q 0.532379,0 0.728518,-0.329234 0.203145,-0.3362391 0.203145,-0.8476027 0,-0.4763386 -0.119085,-1.0367371 -0.11208,-0.5674034 -0.231164,-1.1067869 l 1.835304,-0.4763387 q 0.133095,0.6584682 0.21015,1.3099314 0.08406,0.6444582 0.08406,1.2328765 0,0.9316624 -0.25218,1.6741904 -0.252179,0.7425279 -0.847602,1.17683669 Q 64.054216,0 63.024484,0 Z"
       id="text1"
       transform="matrix(1.3333333,0,0,1.3333333,182.46267,64.210667)"
       aria-label="ﻪﻠﺣﺮﻣ:۴ماﺪﻗاهﺪﻨﻨﮐ ﻦﯿﯿﻌﺗ" />
  </g>
</svg>
