<?xml version="1.0" encoding="UTF-8" standalone="no"?>


<svg class="tikz-diagram" id="iran-action-ch9-tikz-1-01c4afa8207e"
   version="1.1"
   id="svg1"
   width="667.45331"
   height="221.46667"
   viewBox="0 0 667.45331 221.46667"
   sodipodi:docname="iran-action-ch9-tikz-1-01c4afa8207e.pdf"
   xmlns:inkscape="http://www.inkscape.org/namespaces/inkscape"
   xmlns:sodipodi="http://sodipodi.sourceforge.net/DTD/sodipodi-0.dtd"
   xmlns="http://www.w3.org/2000/svg"
   xmlns:svg="http://www.w3.org/2000/svg">
  <defs
     id="defs1" />
  <sodipodi:namedview
     id="namedview1"
     pagecolor="#ffffff"
     bordercolor="#000000"
     borderopacity="0.25"
     inkscape:showpageshadow="2"
     inkscape:pageopacity="0.0"
     inkscape:pagecheckerboard="0"
     inkscape:deskcolor="#d1d1d1">
    <inkscape:page
       x="0"
       y="0"
       inkscape:label="1"
       id="page1"
       width="667.45331"
       height="221.46667"
       margin="0"
       bleed="0" />
  </sodipodi:namedview>
  <g
     id="g1"
     inkscape:groupmode="layer"
     inkscape:label="1">
    <path
       id="path1"
       d="m 27.57607,35.4335 h -55.15214 c -8.25352,0 -14.94415,-6.69061 -14.94415,-14.94415 v -40.9787 c 0,-8.25354 6.69063,-14.94415 14.94415,-14.94415 h 55.15214 c 8.25352,0 14.94415,6.69061 14.94415,14.94415 v 40.9787 c 0,8.25354 -6.69063,14.94415 -14.94415,14.94415 z"
       style="fill:#e6f0fa;fill-opacity:1;fill-rule:nonzero;stroke:#0055a4;stroke-width:2.98883;stroke-linecap:butt;stroke-linejoin:miter;stroke-miterlimit:10;stroke-dasharray:none;stroke-opacity:1"
       transform="matrix(1.3333333,0,0,-1.3333333,78.610667,69.156)" />
    <g
       id="text1"
       transform="matrix(1.3333333,0,0,1.3333333,55,55.285333)"
       aria-label="ﻪﻠﺣﺮﻣ۱ﺖﯿﺒﺜﺗ۳ -۰هﺎﻣ">
      <path
         style="font-weight:800;font-size:11.9552px;font-family:Vazirmatn"
         d="m 27.688757,0 q -0.81725,0 -1.342625,-0.30938751 -0.525375,-0.315225 -0.758875,-1.02739999 -0.671312,0.52537499 -1.465212,0.52537499 -0.969025,0 -1.616988,-0.52537499 -0.647962,-0.5312125 -0.647962,-1.56445 0,-0.7588751 0.437812,-1.2959251 0.437813,-0.5428875 1.126638,-0.91065 0.694662,-0.3677625 1.4477,-0.595425 l -0.04086,-0.2802 1.412675,-0.2860375 0.554563,3.7476751 q 0.05254,0.3560875 0.274362,0.595425 0.227663,0.2393375 0.642125,0.2393375 H 27.89307 V 0 Z m -2.422562,-3.1347376 q 0,-0.081725 -0.01751,-0.1809625 -0.01168,-0.105075 -0.02919,-0.2159875 l -0.09924,-0.6129375 q -0.414462,0.1401 -0.81725,0.3269 -0.39695,0.1809625 -0.659637,0.4027875 -0.25685,0.2159875 -0.25685,0.4670001 0,0.2393375 0.192637,0.3911125 0.198475,0.1459375 0.5137,0.1459375 0.268525,0 0.53705,-0.075888 0.274363,-0.081725 0.455325,-0.2393375 0.180963,-0.16345 0.180963,-0.4086251 z m -6.415413,0.3444126 v -5.3938501 h 1.570288 v 5.3938501 q 0,0.548725 0.175125,0.828925 0.180962,0.2743625 0.712175,0.2743625 h 0.1868 V 0 H 21.320045 Q 20.70127,0 20.310157,-0.1868 19.924882,-0.37943751 19.633007,-0.75303751 19.32362,-0.39695001 18.909157,-0.198475 18.500532,0 17.817545,0 h -0.356088 v -1.6870375 h 0.315225 q 0.589588,0 0.828925,-0.2626875 0.245175,-0.268525 0.245175,-0.8406 z m -9.5443123,1.1032875 h 0.9923753 q 0.753037,0 1.401,-0.1401 0.647962,-0.1459375 1.33095,-0.431975 0.688825,-0.2860375 1.56445,-0.712175 -0.898975,-0.3269001 -1.453538,-0.5487251 -0.554562,-0.2276625 -0.758875,-0.2276625 -0.315225,0 -0.572075,0.198475 -0.251012,0.1926375 -0.414462,0.408625 l -0.309388,0.3911126 -1.3075998,-0.6421251 0.2626878,-0.4203 q 0.414462,-0.67715 0.992375,-1.1208 0.577912,-0.4494875 1.3543,-0.4494875 0.3269,0 0.758875,0.151775 0.437812,0.151775 0.934,0.3794375 0.502025,0.221825 1.033237,0.4494875 0.53705,0.221825 1.056588,0.3794375 0.525375,0.1576125 1.00405,0.16345 V -2.31165 q -0.44365,0.058375 -0.823088,0.198475 -0.379437,0.1342625 -0.788062,0.3444125 -0.408625,0.21015 -0.951513,0.502025 -0.7472,0.39694999 -1.412675,0.68298749 Q 12.540445,-0.2977125 11.839945,-0.1459375 11.145282,0 10.281332,0 H 9.3064697 Z M 8.4440141,0 q -0.5312125,0 -0.875625,-0.2043125 -0.2335,1.342625 -1.1499875,2.21825 -0.91065,0.875625 -2.4342375,1.1675001 L 3.4062515,1.622825 Q 4.2526891,1.4418625 4.8597891,1.1383125 5.4727266,0.84060001 5.8054641,0.33857501 6.1382016,-0.16345 6.1382016,-0.95735002 6.1382016,-1.4885625 5.9689141,-2.1482 5.7996266,-2.813675 5.6069891,-3.3857501 l 1.5702875,-0.5078625 0.338575,1.3192751 q 0.099237,0.3736 0.291875,0.63045 0.1926375,0.25685 0.572075,0.25685 H 8.6074641 V 0 Z M 2.1220016,0.1342625 q -0.6071,0 -1.13831253,-0.25685 -0.52537501,-0.26268751 -1.02740002,-0.64796251 -0.3210625,0.3210625 -0.67131251,0.54872501 Q -1.059436,0 -1.724911,0 h -0.25685 v -1.6870375 h 0.2276625 q 0.2860375,0 0.5137,-0.221825 0.2335,-0.221825 0.44365004,-0.572075 0.2159875,-0.3560875 0.44948751,-0.7472001 0.2393375,-0.39695 0.53121251,-0.7472 0.2977125,-0.3560875 0.68882501,-0.5779125 0.39111253,-0.221825 0.91648753,-0.221825 0.735525,0 1.272575,0.35025 0.53705,0.3444125 0.828925,0.9164875 0.291875,0.5662376 0.291875,1.2375501 0,0.688825 -0.2276625,1.2317125 -0.2276625,0.54288749 -0.688825,0.8581125 -0.455325,0.315225 -1.14415,0.315225 z m -0.2802,-3.3040251 q -0.2393375,0 -0.431975,0.1634501 -0.1926375,0.1576125 -0.338575,0.385275 -0.14593753,0.2276625 -0.24517503,0.431975 0.1692875,0.151775 0.32106253,0.2626875 0.151775,0.1109125 0.291875,0.1926375 0.21015,0.11675 0.385275,0.16345 0.175125,0.0467 0.30355,0.0467 0.3093875,0 0.44365,-0.221825 0.1342625,-0.2276625 0.1342625,-0.5137 0,-0.3677625 -0.2276625,-0.6362875 Q 2.2504266,-3.1697626 1.8418016,-3.1697626 Z M 32.803062,0 h -1.599475 v -1.179175 q 0,-1.389325 -0.110913,-2.5042876 -0.105075,-1.1208 -0.344412,-2.0489625 -0.239338,-0.934 -0.636288,-1.7570875 l 1.4944,-0.5428875 q 0.659638,1.459375 0.928163,3.1289 0.268525,1.669525 0.268525,3.7418376 z"
         id="path21" />
      <path
         style="font-size:9.9626px;font-family:Vazirmatn"
         d="m 25.038967,12.163877 0.681037,0.676172 -0.681037,0.685902 -0.676173,-0.685902 z m -1.615031,0 0.681037,0.676172 -0.681037,0.685902 -0.676172,-0.685902 z m 3.750569,1.897174 0.81238,-0.09729 0.0827,1.138305 q 0.02919,0.462133 0.262686,0.70536 0.238363,0.243228 0.710224,0.243228 h 0.116749 v 0.885348 h -0.116749 q -0.549694,0 -0.904806,-0.204311 -0.350248,-0.209176 -0.578882,-0.666444 -0.403758,0.466997 -1.036149,0.671308 -0.627527,0.199447 -1.746374,0.199447 h -0.81238 q -1.833935,0 -2.7582,-0.496184 -0.9194,-0.496185 -0.9194,-1.717187 0,-0.335654 0.07297,-0.656714 0.07783,-0.32106 0.199447,-0.617798 l 0.754005,0.282144 q -0.07783,0.21404 -0.131343,0.457268 -0.04864,0.243227 -0.04864,0.462132 0.0049,0.569152 0.32106,0.875619 0.316196,0.301602 0.943723,0.413487 0.627527,0.111885 1.566385,0.111885 h 0.81238 q 1.162628,0 1.799884,-0.243228 0.642121,-0.243227 0.642121,-0.885348 0,-0.199447 -0.01459,-0.428081 -0.0097,-0.228633 -0.02919,-0.432945 z m -11.091176,1.989602 h 0.734547 q 0.617798,0 0.880483,-0.27728 0.267551,-0.277279 0.267551,-0.851296 0,-0.233499 -0.01459,-0.442674 -0.0097,-0.209176 -0.02919,-0.418352 l 0.81238,-0.09729 0.07783,1.138305 q 0.05838,0.948588 0.987504,0.948588 h 0.102156 v 0.885348 h -0.111885 q -0.539965,0 -0.86589,-0.194582 -0.32106,-0.194582 -0.520507,-0.549694 -0.262686,0.384299 -0.690766,0.564287 -0.42808,0.179989 -0.895077,0.179989 h -0.734547 z m 1.756102,1.658811 0.681037,0.676173 -0.681037,0.685902 -0.676172,-0.685902 z m -1.615031,0 0.681038,0.676173 -0.681038,0.685902 -0.676172,-0.685902 z m -3.590038,-1.658811 h 0.569152 q 0.617798,0 0.880484,-0.27728 0.26755,-0.277279 0.26755,-0.851296 0,-0.233499 -0.01459,-0.442674 -0.0097,-0.209176 -0.02919,-0.418352 l 0.81238,-0.09729 0.07783,1.138305 q 0.05837,0.948588 0.987504,0.948588 h 0.102155 v 0.885348 h -0.111884 q -0.539965,0 -0.86589,-0.194582 -0.321061,-0.194582 -0.520507,-0.549694 -0.262686,0.384299 -0.690766,0.564287 -0.428081,0.179989 -0.895078,0.179989 h -0.569152 z m 1.002097,1.629624 0.70536,0.70536 -0.70536,0.70536 -0.70536,-0.70536 z m -3.234925,-7.14116 0.656714,0.656714 -0.656714,0.656714 -0.6567148,-0.656714 z m 0.831838,1.230731 0.656714,0.656714 -0.656714,0.656715 -0.656715,-0.656715 z m -1.6636766,0 0.6567146,0.656714 -0.6567146,0.656715 -0.6567144,-0.656715 z m -0.5010488,4.280805 h 0.6810371 q 0.6177983,0 0.8804833,-0.27728 0.267551,-0.277279 0.267551,-0.851296 0,-0.233499 -0.01459,-0.442674 -0.0097,-0.209176 -0.02919,-0.418352 l 0.81238,-0.09729 0.07783,1.138305 q 0.05837,0.948588 0.987503,0.948588 h 0.102156 v 0.885348 h -0.111885 q -0.539965,0 -0.86589,-0.194582 -0.32106,-0.194582 -0.520507,-0.549694 -0.262685,0.384299 -0.690766,0.564287 -0.42808,0.179989 -0.8950773,0.179989 H 9.0686466 Z M 8.1541109,11.225018 8.835148,11.901191 8.1541109,12.587093 7.4779383,11.901191 Z m -1.6150308,0 0.6810371,0.676173 -0.6810371,0.685902 -0.6761726,-0.685902 z m -0.5253715,4.825635 h 0.9972329 q 0.486455,0 0.6567143,-0.282144 0.1751238,-0.282144 0.1751238,-0.715089 0,-0.316196 -0.058375,-0.676173 -0.058375,-0.359977 -0.1264783,-0.724818 l 0.8464318,-0.21404 q 0.082697,0.389164 0.1313429,0.763734 0.048645,0.374571 0.048645,0.715089 0,0.583746 -0.1605302,1.041014 -0.1605301,0.457268 -0.5253714,0.719954 -0.3648413,0.257821 -0.9777747,0.257821 h -1.006962 z"
         id="path22" />
      <path
         style="font-size:8.9664px;font-family:Vazirmatn"
         d="m 8.1418907,25.664323 q -0.2933343,0 -0.5604,-0.11821 -0.2670656,-0.122587 -0.4203,-0.402787 -0.1488562,0.275822 -0.4203,0.398409 -0.2714437,0.122588 -0.4772156,0.122588 -0.1488563,0 -0.2670656,-0.0088 -0.1138313,-0.01313 -0.2802,-0.07005 0.048159,0.503485 0.07005,0.880003 0.026269,0.376519 0.035025,0.718013 0.00876,0.337116 0.00876,0.726769 v 0.9807 H 5.0772032 v -0.993835 q 0,-1.466672 -0.1532344,-2.596228 -0.1488562,-1.129556 -0.5779125,-2.013937 l 0.6873656,-0.245175 q 0.1357219,0.345872 0.2276626,0.595425 0.091941,0.245175 0.2189062,0.556022 0.1138313,0.2802 0.2626875,0.49035 0.1488563,0.21015 0.4684594,0.214528 0.315225,0 0.4597031,-0.192638 0.1488563,-0.192637 0.1532344,-0.796819 l 0.00438,-0.5604 0.7005,-0.03065 0.017512,0.51224 q 0.021891,0.626072 0.1576125,0.849356 0.1357219,0.218907 0.4290563,0.218907 0.2145281,0 0.3283594,-0.144478 0.1182094,-0.148857 0.1663687,-0.380897 0.048159,-0.232041 0.048159,-0.485972 0,-0.192638 -0.021891,-0.380897 -0.017513,-0.192638 -0.043781,-0.341494 l 0.7530375,-0.06567 q 0.026269,0.288957 0.026269,0.573535 0,0.525375 -0.1138313,0.9807 -0.1094531,0.455325 -0.3808968,0.735525 -0.2714438,0.275822 -0.7530376,0.275822 z m 0.4433818,1.287168 H 5.6300381 v -0.661097 h 2.9552344 z m 3.6207095,-0.153234 q 0,-0.359006 0.170747,-0.652341 0.175125,-0.293334 0.468459,-0.464081 0.293335,-0.175125 0.652341,-0.175125 0.359006,0 0.652341,0.175125 0.293334,0.170747 0.464081,0.464081 0.175125,0.293335 0.175125,0.652341 0,0.359006 -0.175125,0.652341 -0.170747,0.293334 -0.464081,0.468459 -0.293335,0.170747 -0.652341,0.170747 -0.359006,0 -0.652341,-0.170747 -0.293334,-0.175125 -0.468459,-0.468459 -0.170747,-0.293335 -0.170747,-0.652341 z m 0.669853,0 q 0,0.258309 0.179503,0.442191 0.183882,0.179503 0.442191,0.179503 0.258309,0 0.437813,-0.179503 0.183881,-0.183882 0.183881,-0.442191 0,-0.258309 -0.183881,-0.437813 -0.179504,-0.183881 -0.437813,-0.183881 -0.258309,0 -0.442191,0.183881 -0.179503,0.179504 -0.179503,0.437813 z m 15.921629,-1.147069 -0.170747,-0.153234 0.464082,-0.599803 q 0.577912,0.477215 1.015725,0.893137 0.44219,0.411544 0.691744,0.809953 0.249553,0.394032 0.249553,0.81871 0,0.665475 -0.455325,1.059506 -0.455325,0.394031 -1.199607,0.394031 -0.761793,0 -1.208362,-0.37214 -0.446569,-0.376519 -0.446569,-0.954432 0,-0.507862 0.271444,-0.945675 0.271444,-0.44219 0.788062,-0.950053 z m 1.506075,1.733738 q 0,-0.201394 -0.148856,-0.411544 -0.144478,-0.214528 -0.367762,-0.424678 -0.218907,-0.214528 -0.446569,-0.411544 -0.402788,0.385275 -0.63045,0.691744 -0.227663,0.30209 -0.227663,0.634828 0,0.253931 0.214528,0.442191 0.214529,0.188259 0.691744,0.188259 0.481594,0 0.696122,-0.175125 0.218906,-0.175125 0.218906,-0.534131 z m -4.675838,-4.522603 h 0.739903 v 4.185487 q 0,0.617316 0.227663,0.831844 0.227662,0.214528 0.687365,0.214528 h 0.109453 v 0.796819 h -0.109453 q -0.836222,0 -1.247765,-0.442191 -0.407166,-0.446569 -0.407166,-1.405378 z m -2.482395,6.129375 q -0.437812,0 -0.809953,-0.18826 -0.367763,-0.192637 -0.766172,-0.577912 -0.284578,0.319603 -0.547266,0.494728 -0.262687,0.170747 -0.739903,0.170747 h -0.192637 v -0.796819 h 0.170747 q 0.293334,0 0.494728,-0.166369 0.201394,-0.170747 0.359006,-0.437812 0.157613,-0.267066 0.310847,-0.564778 0.157612,-0.302091 0.35025,-0.569157 0.192637,-0.267065 0.464081,-0.433434 0.275822,-0.170747 0.67861,-0.170747 0.485972,0 0.844978,0.236419 0.363384,0.23204 0.5604,0.626072 0.201394,0.394031 0.201394,0.880003 0,0.713634 -0.363385,1.107665 -0.359006,0.389654 -1.015725,0.389654 z m -0.21015,-2.464885 q -0.218906,0 -0.398409,0.148856 -0.179503,0.144479 -0.323982,0.376519 -0.144478,0.232041 -0.258309,0.481594 0.262688,0.275822 0.542888,0.450947 0.359006,0.23204 0.639206,0.23204 0.647962,0 0.647962,-0.65234 0,-0.455325 -0.227662,-0.744281 -0.223284,-0.293335 -0.621694,-0.293335 z"
         id="path23" />
    </g>
    <path
       id="path3"
       d="M 155.13583,35.4335 H 99.98369 c -8.25353,0 -14.94415,-6.69061 -14.94415,-14.94415 v -40.9787 c 0,-8.25354 6.69062,-14.94415 14.94415,-14.94415 h 55.15214 c 8.25354,0 14.94416,6.69061 14.94416,14.94415 v 40.9787 c 0,8.25354 -6.69062,14.94415 -14.94416,14.94415 z"
       style="fill:#e6fae6;fill-opacity:1;fill-rule:nonzero;stroke:#006633;stroke-width:2.98883;stroke-linecap:butt;stroke-linejoin:miter;stroke-miterlimit:10;stroke-dasharray:none;stroke-opacity:1"
       transform="matrix(1.3333333,0,0,-1.3333333,78.610667,69.156)" />
    <g
       id="text3"
       transform="matrix(1.3333333,0,0,1.3333333,223.208,55.285333)"
       aria-label="ﻪﻠﺣﺮﻣ۲ﯽﻫد نﺎﻣزﺎﺳ۱۲ -۳هﺎﻣ">
      <path
         style="font-weight:800;font-size:11.9552px;font-family:Vazirmatn"
         d="m 27.688757,0 q -0.81725,0 -1.342625,-0.30938751 -0.525375,-0.315225 -0.758875,-1.02739999 -0.671312,0.52537499 -1.465212,0.52537499 -0.969025,0 -1.616988,-0.52537499 -0.647962,-0.5312125 -0.647962,-1.56445 0,-0.7588751 0.437812,-1.2959251 0.437813,-0.5428875 1.126638,-0.91065 0.694662,-0.3677625 1.4477,-0.595425 l -0.04086,-0.2802 1.412675,-0.2860375 0.554563,3.7476751 q 0.05254,0.3560875 0.274362,0.595425 0.227663,0.2393375 0.642125,0.2393375 H 27.89307 V 0 Z m -2.422562,-3.1347376 q 0,-0.081725 -0.01751,-0.1809625 -0.01168,-0.105075 -0.02919,-0.2159875 l -0.09924,-0.6129375 q -0.414462,0.1401 -0.81725,0.3269 -0.39695,0.1809625 -0.659637,0.4027875 -0.25685,0.2159875 -0.25685,0.4670001 0,0.2393375 0.192637,0.3911125 0.198475,0.1459375 0.5137,0.1459375 0.268525,0 0.53705,-0.075888 0.274363,-0.081725 0.455325,-0.2393375 0.180963,-0.16345 0.180963,-0.4086251 z m -6.415413,0.3444126 v -5.3938501 h 1.570288 v 5.3938501 q 0,0.548725 0.175125,0.828925 0.180962,0.2743625 0.712175,0.2743625 h 0.1868 V 0 H 21.320045 Q 20.70127,0 20.310157,-0.1868 19.924882,-0.37943751 19.633007,-0.75303751 19.32362,-0.39695001 18.909157,-0.198475 18.500532,0 17.817545,0 h -0.356088 v -1.6870375 h 0.315225 q 0.589588,0 0.828925,-0.2626875 0.245175,-0.268525 0.245175,-0.8406 z m -9.5443123,1.1032875 h 0.9923753 q 0.753037,0 1.401,-0.1401 0.647962,-0.1459375 1.33095,-0.431975 0.688825,-0.2860375 1.56445,-0.712175 -0.898975,-0.3269001 -1.453538,-0.5487251 -0.554562,-0.2276625 -0.758875,-0.2276625 -0.315225,0 -0.572075,0.198475 -0.251012,0.1926375 -0.414462,0.408625 l -0.309388,0.3911126 -1.3075998,-0.6421251 0.2626878,-0.4203 q 0.414462,-0.67715 0.992375,-1.1208 0.577912,-0.4494875 1.3543,-0.4494875 0.3269,0 0.758875,0.151775 0.437812,0.151775 0.934,0.3794375 0.502025,0.221825 1.033237,0.4494875 0.53705,0.221825 1.056588,0.3794375 0.525375,0.1576125 1.00405,0.16345 V -2.31165 q -0.44365,0.058375 -0.823088,0.198475 -0.379437,0.1342625 -0.788062,0.3444125 -0.408625,0.21015 -0.951513,0.502025 -0.7472,0.39694999 -1.412675,0.68298749 Q 12.540445,-0.2977125 11.839945,-0.1459375 11.145282,0 10.281332,0 H 9.3064697 Z M 8.4440141,0 q -0.5312125,0 -0.875625,-0.2043125 -0.2335,1.342625 -1.1499875,2.21825 -0.91065,0.875625 -2.4342375,1.1675001 L 3.4062515,1.622825 Q 4.2526891,1.4418625 4.8597891,1.1383125 5.4727266,0.84060001 5.8054641,0.33857501 6.1382016,-0.16345 6.1382016,-0.95735002 6.1382016,-1.4885625 5.9689141,-2.1482 5.7996266,-2.813675 5.6069891,-3.3857501 l 1.5702875,-0.5078625 0.338575,1.3192751 q 0.099237,0.3736 0.291875,0.63045 0.1926375,0.25685 0.572075,0.25685 H 8.6074641 V 0 Z M 2.1220016,0.1342625 q -0.6071,0 -1.13831253,-0.25685 -0.52537501,-0.26268751 -1.02740002,-0.64796251 -0.3210625,0.3210625 -0.67131251,0.54872501 Q -1.059436,0 -1.724911,0 h -0.25685 v -1.6870375 h 0.2276625 q 0.2860375,0 0.5137,-0.221825 0.2335,-0.221825 0.44365004,-0.572075 0.2159875,-0.3560875 0.44948751,-0.7472001 0.2393375,-0.39695 0.53121251,-0.7472 0.2977125,-0.3560875 0.68882501,-0.5779125 0.39111253,-0.221825 0.91648753,-0.221825 0.735525,0 1.272575,0.35025 0.53705,0.3444125 0.828925,0.9164875 0.291875,0.5662376 0.291875,1.2375501 0,0.688825 -0.2276625,1.2317125 -0.2276625,0.54288749 -0.688825,0.8581125 -0.455325,0.315225 -1.14415,0.315225 z m -0.2802,-3.3040251 q -0.2393375,0 -0.431975,0.1634501 -0.1926375,0.1576125 -0.338575,0.385275 -0.14593753,0.2276625 -0.24517503,0.431975 0.1692875,0.151775 0.32106253,0.2626875 0.151775,0.1109125 0.291875,0.1926375 0.21015,0.11675 0.385275,0.16345 0.175125,0.0467 0.30355,0.0467 0.3093875,0 0.44365,-0.221825 0.1342625,-0.2276625 0.1342625,-0.5137 0,-0.3677625 -0.2276625,-0.6362875 Q 2.2504266,-3.1697626 1.8418016,-3.1697626 Z M 35.797699,-7.8923001 q 0.02919,0.268525 0.0467,0.5662375 0.02335,0.291875 0.02335,0.5662375 0,0.8406 -0.221825,1.482725 -0.215987,0.642125 -0.72385,1.00405 -0.507862,0.361925 -1.37765,0.361925 -0.16345,0 -0.414462,-0.011675 -0.245175,-0.017513 -0.467,-0.064213 0.07589,0.7530375 0.105075,1.4652126 0.02919,0.7063375 0.02919,1.3601375 V 0 h -1.599475 v -1.179175 q 0,-1.389325 -0.105075,-2.5042876 -0.105075,-1.1208 -0.344412,-2.0489625 -0.239338,-0.934 -0.636288,-1.7570875 l 1.4944,-0.53705 q 0.175125,0.4261375 0.297713,0.7530375 0.122587,0.3269 0.291875,0.7413625 0.1401,0.3327375 0.2802,0.53705 0.145937,0.198475 0.3736,0.291875 0.2335,0.087562 0.636287,0.087562 0.467,0 0.694663,-0.268525 0.227662,-0.268525 0.227662,-0.67715 0,-0.3210625 -0.04086,-0.6129375 -0.03502,-0.2977125 -0.08172,-0.5779125 z"
         id="path24" />
      <path
         style="font-size:9.9626px;font-family:Vazirmatn"
         d="m 38.961086,19.441244 q -1.050743,0 -1.683134,-0.384299 -0.627527,-0.3843 -0.909671,-1.02642 -0.277279,-0.637256 -0.277279,-1.400991 0,-0.330789 0.04864,-0.763734 0.05351,-0.432945 0.238363,-0.987504 l 0.773464,0.287008 q -0.141072,0.486455 -0.184853,0.861026 -0.03892,0.37457 -0.03892,0.632391 0,0.525372 0.184853,0.958317 0.184853,0.432945 0.627527,0.690766 0.447539,0.257821 1.221002,0.257821 0.729683,0 1.25019,-0.179988 0.525371,-0.179988 0.802651,-0.428081 0.282144,-0.248092 0.282144,-0.452403 0,-0.233498 -0.204311,-0.398893 -0.199447,-0.165395 -0.65185,-0.165395 h -0.719954 q -0.09729,0 -0.141072,-0.0827 -0.04378,-0.08756 -0.0827,-0.223769 l -0.131343,-0.466997 q -0.0049,-0.03892 0.01946,-0.07297 0.02432,-0.03892 0.08756,-0.03892 h 2.699826 v 0.885348 h -0.199447 q 0.07297,0.145937 0.09243,0.27728 0.02432,0.131343 0.02432,0.272415 0,0.32106 -0.189717,0.661578 -0.184853,0.345384 -0.574017,0.637257 -0.384299,0.291873 -0.97291,0.471861 -0.588611,0.179988 -1.391262,0.179988 z m -7.671397,-6.455258 0.3843,-0.719954 q 1.746373,0.851297 2.602534,1.522605 0.856161,0.666443 0.856161,1.362074 0,0.861025 -0.5351,1.298835 -0.530236,0.437809 -1.425314,0.437809 -0.335654,0 -0.715089,-0.05351 -0.379435,-0.05351 -0.719953,-0.131343 -0.340519,-0.0827 -0.574017,-0.16053 -0.423216,0.155666 -0.992369,0.27728 -0.569152,0.116749 -1.099388,0.116749 h -0.48159 v -0.885348 h 0.418351 q 0.32106,0 0.564288,-0.01459 0.248092,-0.01459 0.539965,-0.04865 -0.335654,-0.272414 -0.486455,-0.593475 -0.145937,-0.325925 -0.145937,-0.671308 0,-0.505913 0.238363,-0.870754 0.238363,-0.364842 0.632392,-0.559424 0.394028,-0.199446 0.861025,-0.199446 0.209176,0 0.418352,0.05351 -0.165395,-0.07783 -0.340519,-0.16053 z m 0.880484,3.020886 q 0.21404,0.02432 0.466997,0.04864 0.252956,0.01946 0.447538,0.01946 0.588611,0 0.895078,-0.218904 0.311331,-0.22377 0.311331,-0.690767 0,-0.238363 -0.272415,-0.515642 -0.272415,-0.282144 -0.729683,-0.578882 -0.452403,-0.301602 -1.002097,-0.593475 0.26755,0.214041 0.42808,0.515643 0.165395,0.301602 0.165395,0.637256 0,0.457268 -0.184853,0.783192 -0.179988,0.321061 -0.525371,0.593476 z m -1.853394,-1.293971 q 0,0.287009 0.238363,0.574017 0.243228,0.282144 0.700495,0.457268 0.875619,-0.355112 0.875619,-1.021556 0,-0.423216 -0.257821,-0.64212 -0.252956,-0.22377 -0.612933,-0.22377 -0.418352,0 -0.681037,0.233499 -0.262686,0.233498 -0.262686,0.622662 z m -4.811037,1.347481 q 1.867988,0 1.867988,-0.968046 0,-0.457268 -0.466997,-0.968045 -0.466997,-0.510778 -1.546927,-1.099389 l 0.384299,-0.768599 q 1.25019,0.637256 1.853394,1.347481 0.608069,0.705359 0.608069,1.473958 0,0.914536 -0.632392,1.381533 -0.627527,0.466997 -1.994465,0.466997 -0.65185,0 -1.177222,-0.116749 v -0.880484 q 0.637256,0.131343 1.104253,0.131343 z m -10.38029,-3.254385 0.70536,0.70536 -0.70536,0.70536 -0.70536,-0.70536 z m 0.05838,5.404516 q 0.81238,0 1.255054,-0.26755 0.447538,-0.262686 0.622662,-0.695631 0.179989,-0.42808 0.179989,-0.9194 0,-0.578882 -0.155666,-1.143169 -0.155666,-0.564288 -0.291873,-0.924265 l 0.831838,-0.335654 q 0.228634,0.627527 0.345383,1.221002 0.121614,0.588611 0.121614,1.123711 0,0.822109 -0.306467,1.459366 -0.301602,0.637256 -0.943723,0.997232 -0.64212,0.359977 -1.658811,0.359977 -1.050743,0 -1.683135,-0.384299 -0.627527,-0.3843 -0.909671,-1.02642 -0.277279,-0.637257 -0.277279,-1.400991 0,-0.515642 0.10702,-1.055608 0.10702,-0.544829 0.291873,-1.060472 l 0.773463,0.311332 q -0.141072,0.447538 -0.238363,0.9194 -0.09729,0.471861 -0.09729,0.914535 0,0.525372 0.184853,0.958317 0.189718,0.432945 0.632392,0.690766 0.442674,0.257821 1.216138,0.257821 z M 9.9690284,10.237515 h 0.8221096 v 4.65051 q 0,0.685902 0.252956,0.924265 0.252957,0.238363 0.763735,0.238363 h 0.121613 v 0.885348 h -0.121613 q -0.92913,0 -1.386397,-0.49132 Q 9.9690284,15.948497 9.9690284,14.88316 Z m -2.7582003,6.81037 q -0.4864551,0 -0.8999419,-0.209175 Q 5.902264,16.62467 5.4595899,16.196589 5.1433941,16.551701 4.851521,16.746283 4.559648,16.936001 4.029412,16.936001 H 3.8153717 v -0.885348 h 0.1897175 q 0.3259249,0 0.5496942,-0.184853 0.2237694,-0.189718 0.3988932,-0.486455 0.1751238,-0.296738 0.3453831,-0.627527 0.1751238,-0.335654 0.389164,-0.632392 0.2140403,-0.296738 0.5156424,-0.481591 0.3064667,-0.189717 0.7540054,-0.189717 0.5399651,0 0.9388582,0.262686 0.4037577,0.257821 0.6226625,0.69563 0.2237694,0.43781 0.2237694,0.977775 0,0.792922 -0.4037578,1.230731 -0.3988931,0.432945 -1.1285757,0.432945 z M 6.9773297,14.309143 q -0.2432276,0 -0.4426741,0.165395 -0.1994466,0.16053 -0.3599768,0.418352 -0.1605302,0.257821 -0.2870085,0.5351 0.2918731,0.306467 0.6032043,0.501049 0.3988931,0.257821 0.7102244,0.257821 0.7199535,0 0.7199535,-0.724818 0,-0.505913 -0.2529566,-0.826974 -0.2480921,-0.325925 -0.6907662,-0.325925 z m -5.2427408,-2.378765 0.7053598,0.70536 -0.7053598,0.70536 -0.7053599,-0.70536 z m -1.78042559,7.622751 -0.28700849,-0.773463 q 1.18695037,-0.257822 1.67340548,-0.904807 0.486455,-0.642121 0.486455,-1.522604 0,-0.413487 -0.092426,-0.86589 -0.087562,-0.457268 -0.2480921,-0.929129 l 0.8075154,-0.272415 q 0.3502476,0.997233 0.3502476,1.921497 0,0.81238 -0.2870085,1.503146 -0.2821439,0.695631 -0.8804836,1.177222 -0.59347521,0.486455 -1.52260439,0.666443 z M -2.1375932,10.237515 h 0.822109 v 4.65051 q 0,0.685902 0.2529567,0.924265 0.25295659,0.238363 0.76373441,0.238363 h 0.12161376 v 0.885348 h -0.12161376 q -0.92912921,0 -1.38639691,-0.49132 -0.4524032,-0.496184 -0.4524032,-1.561521 z m -5.3072249,6.698486 q -0.5594233,0 -0.86589,-0.189718 -0.3016021,-0.194582 -0.4815905,-0.554558 -0.2286339,0.359976 -0.5837461,0.554558 -0.3551122,0.189718 -1.0118263,0.189718 h -0.447539 v -0.885348 h 0.457268 q 0.6226623,0 0.9096708,-0.228634 0.2870085,-0.233499 0.2870085,-0.846432 0,-0.126478 -0.014594,-0.296738 -0.00973,-0.175124 -0.034052,-0.486455 l 0.81238,-0.102155 0.077833,1.016691 q 0.029187,0.408622 0.2480921,0.676172 0.2237693,0.267551 0.6567143,0.267551 0.5156424,0 0.7004953,-0.27728 0.1848529,-0.277279 0.1848529,-0.797786 0,-0.126478 -0.014594,-0.301602 -0.00973,-0.175124 -0.034052,-0.481591 l 0.81238,-0.102155 0.077833,1.016691 q 0.024323,0.394028 0.2091757,0.671308 0.1848529,0.272415 0.5983397,0.272415 0.4037577,0 0.5545588,-0.301603 0.1508011,-0.301602 0.1508011,-0.705359 0,-0.364842 -0.072968,-0.734548 -0.068104,-0.369705 -0.1216138,-0.598339 l 0.8318382,-0.22377 q 0.087562,0.325925 0.141072,0.695631 0.05351,0.364841 0.05351,0.729683 0,0.525371 -0.1459365,0.987504 -0.1459365,0.462132 -0.4815905,0.74914 -0.3307895,0.282144 -0.9048064,0.287009 -0.4669969,0 -0.7540054,-0.194582 -0.2870085,-0.194582 -0.4669969,-0.549694 -0.2724148,0.394028 -0.6080688,0.569152 -0.3307894,0.175124 -0.7199535,0.175124 z"
         id="path25" />
      <path
         style="font-size:8.9664px;font-family:Vazirmatn"
         d="M 5.4852407,28.891001 H 4.7322032 v -0.993835 q 0,-1.466672 -0.1532344,-2.596228 Q 4.4301125,24.171382 4.0010563,23.287001 L 4.6928,23.037448 q 0.4640813,1.028859 0.6260719,2.224087 0.1663688,1.19085 0.1663688,2.648766 z m 4.9035003,-5.79226 q 0.01313,0.157613 0.02189,0.310847 0.0088,0.153235 0.0088,0.302091 0,0.556022 -0.1401,0.998212 -0.1401,0.442191 -0.4815941,0.7005 -0.3371156,0.253932 -0.9369187,0.253932 -0.1707469,0 -0.4115438,-0.02189 -0.2364188,-0.02627 -0.4991063,-0.105075 0.091941,0.656719 0.105075,1.239009 0.017512,0.582291 0.017512,1.133935 v 0.9807 H 7.3196751 v -0.993835 q 0,-1.466672 -0.1532343,-2.596228 -0.1488563,-1.129556 -0.5779126,-2.013937 l 0.6873657,-0.245175 q 0.1006969,0.271443 0.1838812,0.477215 0.087562,0.201394 0.1838813,0.472838 0.1926375,0.534131 0.455325,0.72239 0.2670656,0.183882 0.7530375,0.183882 0.3458719,0 0.5297531,-0.148857 0.1838813,-0.153234 0.2539313,-0.389653 0.07005,-0.236418 0.07005,-0.499106 0,-0.192637 -0.021891,-0.367762 -0.021891,-0.175125 -0.048159,-0.32836 z m -0.7737375,3.85275 H 6.6597691 V 26.290394 H 9.6150035 Z M 16.8608,25.664323 q -0.293334,0 -0.5604,-0.11821 -0.267065,-0.122587 -0.4203,-0.402787 -0.148856,0.275822 -0.4203,0.398409 -0.271444,0.122588 -0.477215,0.122588 -0.148857,0 -0.267066,-0.0088 -0.113831,-0.01313 -0.2802,-0.07005 0.04816,0.503485 0.07005,0.880003 0.02627,0.376519 0.03502,0.718013 0.0088,0.337116 0.0088,0.726769 v 0.9807 h -0.753037 v -0.993835 q 0,-1.466672 -0.153235,-2.596228 -0.148856,-1.129556 -0.577912,-2.013937 l 0.687365,-0.245175 q 0.135722,0.345872 0.227663,0.595425 0.09194,0.245175 0.218906,0.556022 0.113831,0.2802 0.262688,0.49035 0.148856,0.21015 0.468459,0.214528 0.315225,0 0.459703,-0.192638 0.148856,-0.192637 0.153235,-0.796819 l 0.0044,-0.5604 0.7005,-0.03065 0.01751,0.51224 q 0.02189,0.626072 0.157613,0.849356 0.135722,0.218907 0.429056,0.218907 0.214528,0 0.328359,-0.144478 0.11821,-0.148857 0.166369,-0.380897 0.04816,-0.232041 0.04816,-0.485972 0,-0.192638 -0.02189,-0.380897 -0.01751,-0.192638 -0.04378,-0.341494 l 0.753037,-0.06567 q 0.02627,0.288957 0.02627,0.573535 0,0.525375 -0.113831,0.9807 -0.109453,0.455325 -0.380897,0.735525 -0.271444,0.275822 -0.753038,0.275822 z m 15.089787,-0.01313 -0.170746,-0.153234 0.464081,-0.599803 q 0.577912,0.477215 1.015725,0.893137 0.442191,0.411544 0.691744,0.809953 0.249553,0.394032 0.249553,0.81871 0,0.665475 -0.455325,1.059506 -0.455325,0.394031 -1.199606,0.394031 -0.761794,0 -1.208363,-0.37214 -0.446569,-0.376519 -0.446569,-0.954432 0,-0.507862 0.271444,-0.945675 0.271444,-0.44219 0.788062,-0.950053 z m 1.506076,1.733738 q 0,-0.201394 -0.148857,-0.411544 -0.144478,-0.214528 -0.367762,-0.424678 -0.218906,-0.214528 -0.446569,-0.411544 -0.402788,0.385275 -0.63045,0.691744 -0.227663,0.30209 -0.227663,0.634828 0,0.253931 0.214529,0.442191 0.214528,0.188259 0.691743,0.188259 0.481594,0 0.696122,-0.175125 0.218907,-0.175125 0.218907,-0.534131 z m -4.675839,-4.522603 h 0.739903 v 4.185487 q 0,0.617316 0.227663,0.831844 0.227662,0.214528 0.687365,0.214528 h 0.109454 v 0.796819 h -0.109454 q -0.836222,0 -1.247765,-0.442191 -0.407166,-0.446569 -0.407166,-1.405378 z m -2.482397,6.129375 q -0.437812,0 -0.809953,-0.18826 -0.367762,-0.192637 -0.766172,-0.577912 -0.284578,0.319603 -0.547265,0.494728 -0.262688,0.170747 -0.739903,0.170747 h -0.192638 v -0.796819 h 0.170747 q 0.293334,0 0.494728,-0.166369 0.201394,-0.170747 0.359006,-0.437812 0.157613,-0.267066 0.310847,-0.564778 0.157613,-0.302091 0.35025,-0.569157 0.192638,-0.267065 0.464081,-0.433434 0.275822,-0.170747 0.67861,-0.170747 0.485972,0 0.844978,0.236419 0.363384,0.23204 0.5604,0.626072 0.201394,0.394031 0.201394,0.880003 0,0.713634 -0.363385,1.107665 -0.359006,0.389654 -1.015725,0.389654 z m -0.21015,-2.464885 q -0.218906,0 -0.398409,0.148856 -0.179503,0.144479 -0.323981,0.376519 -0.144478,0.232041 -0.25831,0.481594 0.262688,0.275822 0.542888,0.450947 0.359006,0.23204 0.639206,0.23204 0.647963,0 0.647963,-0.65234 0,-0.455325 -0.227663,-0.744281 -0.223284,-0.293335 -0.621694,-0.293335 z"
         id="path26" />
    </g>
    <path
       id="path6"
       d="m 282.69562,35.4335 h -55.15215 c -8.25352,0 -14.94415,-6.69061 -14.94415,-14.94415 v -40.9787 c 0,-8.25354 6.69063,-14.94415 14.94415,-14.94415 h 55.15215 c 8.25354,0 14.94415,6.69061 14.94415,14.94415 v 40.9787 c 0,8.25354 -6.69061,14.94415 -14.94415,14.94415 z"
       style="fill:#fff8dc;fill-opacity:1;fill-rule:nonzero;stroke:#b8860b;stroke-width:2.98883;stroke-linecap:butt;stroke-linejoin:miter;stroke-miterlimit:10;stroke-dasharray:none;stroke-opacity:1"
       transform="matrix(1.3333333,0,0,-1.3333333,78.610667,69.156)" />
    <g
       id="text6"
       transform="matrix(1.3333333,0,0,1.3333333,392.20933,55.236)"
       aria-label="ﻪﻠﺣﺮﻣ۳ﺞﯿﺴﺑ۱۸ -۶هﺎﻣ">
      <path
         style="font-weight:800;font-size:11.9552px;font-family:Vazirmatn"
         d="m 27.688757,0 q -0.81725,0 -1.342625,-0.30938751 -0.525375,-0.315225 -0.758875,-1.02739999 -0.671312,0.52537499 -1.465212,0.52537499 -0.969025,0 -1.616988,-0.52537499 -0.647962,-0.5312125 -0.647962,-1.56445 0,-0.7588751 0.437812,-1.2959251 0.437813,-0.5428875 1.126638,-0.91065 0.694662,-0.3677625 1.4477,-0.595425 l -0.04086,-0.2802 1.412675,-0.2860375 0.554563,3.7476751 q 0.05254,0.3560875 0.274362,0.595425 0.227663,0.2393375 0.642125,0.2393375 H 27.89307 V 0 Z m -2.422562,-3.1347376 q 0,-0.081725 -0.01751,-0.1809625 -0.01168,-0.105075 -0.02919,-0.2159875 l -0.09924,-0.6129375 q -0.414462,0.1401 -0.81725,0.3269 -0.39695,0.1809625 -0.659637,0.4027875 -0.25685,0.2159875 -0.25685,0.4670001 0,0.2393375 0.192637,0.3911125 0.198475,0.1459375 0.5137,0.1459375 0.268525,0 0.53705,-0.075888 0.274363,-0.081725 0.455325,-0.2393375 0.180963,-0.16345 0.180963,-0.4086251 z m -6.415413,0.3444126 v -5.3938501 h 1.570288 v 5.3938501 q 0,0.548725 0.175125,0.828925 0.180962,0.2743625 0.712175,0.2743625 h 0.1868 V 0 H 21.320045 Q 20.70127,0 20.310157,-0.1868 19.924882,-0.37943751 19.633007,-0.75303751 19.32362,-0.39695001 18.909157,-0.198475 18.500532,0 17.817545,0 h -0.356088 v -1.6870375 h 0.315225 q 0.589588,0 0.828925,-0.2626875 0.245175,-0.268525 0.245175,-0.8406 z m -9.5443123,1.1032875 h 0.9923753 q 0.753037,0 1.401,-0.1401 0.647962,-0.1459375 1.33095,-0.431975 0.688825,-0.2860375 1.56445,-0.712175 -0.898975,-0.3269001 -1.453538,-0.5487251 -0.554562,-0.2276625 -0.758875,-0.2276625 -0.315225,0 -0.572075,0.198475 -0.251012,0.1926375 -0.414462,0.408625 l -0.309388,0.3911126 -1.3075998,-0.6421251 0.2626878,-0.4203 q 0.414462,-0.67715 0.992375,-1.1208 0.577912,-0.4494875 1.3543,-0.4494875 0.3269,0 0.758875,0.151775 0.437812,0.151775 0.934,0.3794375 0.502025,0.221825 1.033237,0.4494875 0.53705,0.221825 1.056588,0.3794375 0.525375,0.1576125 1.00405,0.16345 V -2.31165 q -0.44365,0.058375 -0.823088,0.198475 -0.379437,0.1342625 -0.788062,0.3444125 -0.408625,0.21015 -0.951513,0.502025 -0.7472,0.39694999 -1.412675,0.68298749 Q 12.540445,-0.2977125 11.839945,-0.1459375 11.145282,0 10.281332,0 H 9.3064697 Z M 8.4440141,0 q -0.5312125,0 -0.875625,-0.2043125 -0.2335,1.342625 -1.1499875,2.21825 -0.91065,0.875625 -2.4342375,1.1675001 L 3.4062515,1.622825 Q 4.2526891,1.4418625 4.8597891,1.1383125 5.4727266,0.84060001 5.8054641,0.33857501 6.1382016,-0.16345 6.1382016,-0.95735002 6.1382016,-1.4885625 5.9689141,-2.1482 5.7996266,-2.813675 5.6069891,-3.3857501 l 1.5702875,-0.5078625 0.338575,1.3192751 q 0.099237,0.3736 0.291875,0.63045 0.1926375,0.25685 0.572075,0.25685 H 8.6074641 V 0 Z M 2.1220016,0.1342625 q -0.6071,0 -1.13831253,-0.25685 -0.52537501,-0.26268751 -1.02740002,-0.64796251 -0.3210625,0.3210625 -0.67131251,0.54872501 Q -1.059436,0 -1.724911,0 h -0.25685 v -1.6870375 h 0.2276625 q 0.2860375,0 0.5137,-0.221825 0.2335,-0.221825 0.44365004,-0.572075 0.2159875,-0.3560875 0.44948751,-0.7472001 0.2393375,-0.39695 0.53121251,-0.7472 0.2977125,-0.3560875 0.68882501,-0.5779125 0.39111253,-0.221825 0.91648753,-0.221825 0.735525,0 1.272575,0.35025 0.53705,0.3444125 0.828925,0.9164875 0.291875,0.5662376 0.291875,1.2375501 0,0.688825 -0.2276625,1.2317125 -0.2276625,0.54288749 -0.688825,0.8581125 -0.455325,0.315225 -1.14415,0.315225 z m -0.2802,-3.3040251 q -0.2393375,0 -0.431975,0.1634501 -0.1926375,0.1576125 -0.338575,0.385275 -0.14593753,0.2276625 -0.24517503,0.431975 0.1692875,0.151775 0.32106253,0.2626875 0.151775,0.1109125 0.291875,0.1926375 0.21015,0.11675 0.385275,0.16345 0.175125,0.0467 0.30355,0.0467 0.3093875,0 0.44365,-0.221825 0.1342625,-0.2276625 0.1342625,-0.5137 0,-0.3677625 -0.2276625,-0.6362875 Q 2.2504266,-3.1697626 1.8418016,-3.1697626 Z M 35.575874,-3.9111251 q -0.385275,0 -0.764712,-0.1342625 -0.3736,-0.1401 -0.577913,-0.3736 -0.204312,0.2159875 -0.531212,0.361925 -0.321063,0.1459375 -0.624613,0.1459375 -0.08172,0 -0.204312,0 -0.122588,-0.00584 -0.204313,-0.02335 0.08172,0.758875 0.105075,1.4185126 0.02335,0.6596375 0.02335,1.3543 V 0 h -1.599475 v -1.179175 q 0,-1.389325 -0.105075,-2.5042876 -0.105075,-1.1208 -0.344412,-2.0489625 -0.239338,-0.934 -0.636288,-1.7570875 l 1.4944,-0.53705 q 0.21015,0.502025 0.344413,0.898975 0.134262,0.39695 0.35025,0.91065 0.105075,0.2510125 0.25685,0.4261375 0.157612,0.175125 0.461162,0.175125 0.344413,0 0.44365,-0.25685 0.09924,-0.2626875 0.105075,-0.77055 l 0.01167,-0.8814625 1.290088,-0.07005 0.03502,0.8347625 q 0.02919,0.7063375 0.169287,0.9281625 0.145938,0.2159875 0.44365,0.2159875 0.221825,0 0.332738,-0.1576125 0.110912,-0.1576125 0.145937,-0.39695 0.03502,-0.2393375 0.03502,-0.49035 0,-0.291875 -0.0467,-0.5895875 -0.04086,-0.2977125 -0.07005,-0.502025 l 1.506075,-0.1401 q 0.02919,0.291875 0.0467,0.6012625 0.02335,0.30355 0.02335,0.6012625 0,0.7296875 -0.180962,1.365975 -0.175125,0.63045 -0.595425,1.0215625 -0.414463,0.3911125 -1.138313,0.3911125 z"
         id="path27" />
      <path
         style="font-size:9.9626px;font-family:Vazirmatn"
         d="m 27.100815,16.843574 0.70536,0.70536 -0.70536,0.70536 -0.70536,-0.70536 z m -2.909001,0.943723 q 0,-0.802651 0.403757,-1.498281 0.408623,-0.700496 1.225867,-1.221003 0.822109,-0.525371 2.057705,-0.797786 -0.398893,-0.165395 -0.788057,-0.32106 -0.3843,-0.155666 -0.676173,-0.257821 -0.287008,-0.107021 -0.403757,-0.107021 -0.296738,0 -0.549695,0.175124 -0.248092,0.17026 -0.437809,0.413487 l -0.131343,0.165395 -0.744276,-0.364842 0.07297,-0.116749 q 0.32106,-0.520507 0.768599,-0.831838 0.452403,-0.316196 1.02642,-0.316196 0.301602,0 0.739412,0.184853 0.442674,0.184853 0.958316,0.428081 0.515643,0.243227 1.045879,0.437809 0.5351,0.189718 1.021555,0.204311 v 0.836703 q -0.574017,0.03892 -1.060472,0.136208 0,0.515642 0.175124,0.754005 0.179988,0.233498 0.525372,0.296737 0.345383,0.06324 0.841567,0.06324 h 0.394028 v 0.885348 h -0.379435 q -0.754005,0 -1.259918,-0.150801 -0.501049,-0.155666 -0.754006,-0.559424 -0.248092,-0.403757 -0.248092,-1.148034 -1.045878,0.282144 -1.712321,0.710225 -0.661579,0.423216 -0.977775,0.929129 -0.311331,0.505913 -0.311331,1.02642 0,1.707458 2.49065,1.707458 0.549694,0 1.123711,-0.111885 0.578881,-0.10702 1.07993,-0.340519 l 0.218905,0.81238 q -0.510778,0.238363 -1.167492,0.359977 -0.65185,0.126478 -1.328023,0.126478 -0.933993,0 -1.668541,-0.26755 -0.729682,-0.262686 -1.152898,-0.822109 -0.418351,-0.554559 -0.418351,-1.420449 z m -4.207837,-1.736644 h 0.734547 q 0.617798,0 0.880483,-0.27728 0.267551,-0.277279 0.267551,-0.851296 0,-0.233499 -0.01459,-0.442674 -0.0097,-0.209176 -0.02919,-0.418352 l 0.81238,-0.09729 0.07783,1.138305 q 0.05837,0.948588 0.987503,0.948588 h 0.102156 v 0.885348 h -0.111885 q -0.539965,0 -0.86589,-0.194582 -0.32106,-0.194582 -0.520507,-0.549694 -0.262685,0.384299 -0.690766,0.564287 -0.42808,0.179989 -0.895077,0.179989 h -0.734547 z m 1.756102,1.658811 0.681038,0.676173 -0.681038,0.685902 -0.676172,-0.685902 z m -1.61503,0 0.681037,0.676173 -0.681037,0.685902 -0.676173,-0.685902 z m -2.602535,-0.773463 q -0.466997,0 -0.754005,-0.194582 -0.287009,-0.194582 -0.466997,-0.549694 -0.272415,0.394028 -0.608069,0.569152 -0.330789,0.175124 -0.719954,0.175124 -0.559423,0 -0.86589,-0.189718 -0.301602,-0.194582 -0.48159,-0.554558 -0.228634,0.359976 -0.583746,0.554558 -0.355112,0.189718 -1.011827,0.189718 h -0.447538 v -0.885348 h 0.457267 q 0.622663,0 0.909671,-0.228634 0.287009,-0.233499 0.287009,-0.846432 0,-0.126478 -0.01459,-0.296738 -0.0097,-0.175124 -0.03405,-0.486455 l 0.81238,-0.102155 0.07783,1.016691 q 0.02919,0.408622 0.248092,0.676172 0.22377,0.267551 0.656715,0.267551 0.515642,0 0.700495,-0.27728 0.184853,-0.277279 0.184853,-0.797786 0,-0.126478 -0.01459,-0.301602 -0.0097,-0.175124 -0.03405,-0.481591 l 0.81238,-0.102155 0.07783,1.016691 q 0.02432,0.394028 0.209176,0.671308 0.184853,0.272415 0.598339,0.272415 0.719954,0 0.719954,-1.075066 0,-0.175124 -0.01459,-0.364841 -0.0097,-0.189718 -0.03405,-0.501049 l 0.81238,-0.09729 0.07783,1.094524 q 0.05837,0.943723 0.963181,0.943723 h 0.145937 v 0.885348 H 20.05208 q -0.510777,0 -0.851296,-0.184853 -0.340519,-0.189718 -0.466997,-0.564288 -0.204311,0.359977 -0.471861,0.554559 -0.262686,0.194582 -0.739412,0.194582 z m -7.9875929,0 H 8.6398438 V 16.050653 H 9.525192 q 0.486455,0 0.656714,-0.282144 0.175124,-0.282144 0.175124,-0.715089 0,-0.316196 -0.05837,-0.676173 -0.05837,-0.359977 -0.126479,-0.724818 l 0.846432,-0.21404 q 0.0827,0.389164 0.131343,0.763734 0.04864,0.374571 0.04864,0.715089 0,0.583746 -0.16053,1.041014 -0.16053,0.457268 -0.525371,0.719954 -0.364842,0.257821 -0.9777749,0.257821 z m 0.1070201,0.744276 0.7053598,0.70536 -0.7053598,0.70536 -0.7053598,-0.70536 z"
         id="path28" />
      <path
         style="font-size:8.9664px;font-family:Vazirmatn"
         d="M 6.7712405,28.891001 H 6.0182029 v -0.993835 q 0,-1.466672 -0.1532343,-2.596228 -0.1488563,-1.129556 -0.5779125,-2.013937 l 0.6917437,-0.249553 q 0.4640813,1.028859 0.6260719,2.224087 0.1663688,1.19085 0.1663688,2.648766 z m 2.9377219,-5.67405 H 10.462 q 0.179503,1.19085 0.507862,2.250356 0.32836,1.055128 0.704879,1.886972 0.380896,0.827465 0.696121,1.339706 l -0.687365,0.372141 Q 11.486481,28.711498 11.254441,28.221148 11.0224,27.726419 10.794737,27.148507 10.567075,26.566216 10.378816,25.953279 10.190556,25.335963 10.085481,24.740538 9.9760281,25.335963 9.7877687,25.953279 9.5995093,26.566216 9.3718468,27.148507 9.1441843,27.726419 8.9121437,28.221148 8.6844812,28.711498 8.4874655,29.066126 L 7.8000999,28.693985 Q 8.119703,28.181744 8.4962218,27.354279 8.8727405,26.522435 9.2010999,25.467307 9.5338374,24.407801 9.7089624,23.216951 Z m 1.7787096,3.73454 H 8.5324379 v -0.661097 h 2.9552341 z m 5.109272,-0.639206 q -0.801197,-0.135722 -1.199606,-0.503484 -0.394032,-0.367763 -0.394032,-0.884382 0,-0.468459 0.214529,-0.888759 0.214528,-0.4203 0.612937,-0.687366 0.402788,-0.267065 0.954431,-0.267065 0.319603,0 0.573535,0.09194 0.258309,0.09194 0.485972,0.267066 l -0.240797,0.691744 q -0.166369,-0.100697 -0.345872,-0.18826 -0.179503,-0.08756 -0.424678,-0.08756 -0.293335,0 -0.534132,0.157612 -0.240796,0.153235 -0.385275,0.394032 -0.1401,0.236418 -0.1401,0.485972 0,0.267065 0.323982,0.464081 0.328359,0.192637 1.147068,0.262687 0.02189,0 0.03503,-0.0088 0.21015,-0.131344 0.359007,-0.223284 0.153234,-0.09194 0.306468,-0.175125 0.157613,-0.08756 0.372141,-0.197016 l 0.197016,0.709256 q -0.928163,0.503485 -1.637419,1.352841 -0.704878,0.849356 -1.173338,1.908862 l -0.682987,-0.267065 q 0.354628,-0.809953 0.774928,-1.401 0.4203,-0.595425 0.801197,-1.006969 z m 15.685212,-0.661097 -0.170747,-0.153234 0.464081,-0.599803 q 0.577913,0.477215 1.015725,0.893137 0.442191,0.411544 0.691744,0.809953 0.249553,0.394032 0.249553,0.81871 0,0.665475 -0.455325,1.059506 -0.455325,0.394031 -1.199606,0.394031 -0.761794,0 -1.208363,-0.37214 -0.446569,-0.376519 -0.446569,-0.954432 0,-0.507862 0.271444,-0.945675 0.271444,-0.44219 0.788063,-0.950053 z m 1.506075,1.733738 q 0,-0.201394 -0.148856,-0.411544 -0.144479,-0.214528 -0.367763,-0.424678 -0.218906,-0.214528 -0.446569,-0.411544 -0.402787,0.385275 -0.63045,0.691744 -0.227662,0.30209 -0.227662,0.634828 0,0.253931 0.214528,0.442191 0.214528,0.188259 0.691744,0.188259 0.481593,0 0.696122,-0.175125 0.218906,-0.175125 0.218906,-0.534131 z m -4.675839,-4.522603 h 0.739903 v 4.185487 q 0,0.617316 0.227663,0.831844 0.227662,0.214528 0.687366,0.214528 h 0.109453 v 0.796819 h -0.109453 q -0.836222,0 -1.247766,-0.442191 -0.407166,-0.446569 -0.407166,-1.405378 z m -2.482396,6.129375 q -0.437813,0 -0.809954,-0.18826 -0.367762,-0.192637 -0.766171,-0.577912 -0.284579,0.319603 -0.547266,0.494728 -0.262688,0.170747 -0.739903,0.170747 h -0.192638 v -0.796819 h 0.170747 q 0.293335,0 0.494728,-0.166369 0.201394,-0.170747 0.359007,-0.437812 0.157612,-0.267066 0.310846,-0.564778 0.157613,-0.302091 0.35025,-0.569157 0.192638,-0.267065 0.464082,-0.433434 0.275822,-0.170747 0.678609,-0.170747 0.485972,0 0.844978,0.236419 0.363385,0.23204 0.5604,0.626072 0.201394,0.394031 0.201394,0.880003 0,0.713634 -0.363384,1.107665 -0.359007,0.389654 -1.015725,0.389654 z m -0.21015,-2.464885 q -0.218907,0 -0.39841,0.148856 -0.179503,0.144479 -0.323981,0.376519 -0.144478,0.232041 -0.258309,0.481594 0.262687,0.275822 0.542887,0.450947 0.359006,0.23204 0.639206,0.23204 0.647963,0 0.647963,-0.65234 0,-0.455325 -0.227663,-0.744281 -0.223284,-0.293335 -0.621693,-0.293335 z"
         id="path29" />
    </g>
    <path
       id="path9"
       d="m 410.25539,35.4335 h -55.15213 c -8.25354,0 -14.94416,-6.69061 -14.94416,-14.94415 v -40.9787 c 0,-8.25354 6.69062,-14.94415 14.94416,-14.94415 h 55.15213 c 8.25354,0 14.94415,6.69061 14.94415,14.94415 v 40.9787 c 0,8.25354 -6.69061,14.94415 -14.94415,14.94415 z"
       style="fill:#ffe6e6;fill-opacity:1;fill-rule:nonzero;stroke:#be1e2d;stroke-width:2.98883;stroke-linecap:butt;stroke-linejoin:miter;stroke-miterlimit:10;stroke-dasharray:none;stroke-opacity:1"
       transform="matrix(1.3333333,0,0,-1.3333333,78.610667,69.156)" />
    <g
       id="text9"
       transform="matrix(1.3333333,0,0,1.3333333,562.98533,53.785333)"
       aria-label="ﻪﻠﺣﺮﻣ۴ماﺪﻗاﺖﺻﺮﻓﺐﺳﺎﻨﻣ">
      <path
         style="font-weight:800;font-size:11.9552px;font-family:Vazirmatn"
         d="m 27.688757,0 q -0.81725,0 -1.342625,-0.30938751 -0.525375,-0.315225 -0.758875,-1.02739999 -0.671312,0.52537499 -1.465212,0.52537499 -0.969025,0 -1.616988,-0.52537499 -0.647962,-0.5312125 -0.647962,-1.56445 0,-0.7588751 0.437812,-1.2959251 0.437813,-0.5428875 1.126638,-0.91065 0.694662,-0.3677625 1.4477,-0.595425 l -0.04086,-0.2802 1.412675,-0.2860375 0.554563,3.7476751 q 0.05254,0.3560875 0.274362,0.595425 0.227663,0.2393375 0.642125,0.2393375 H 27.89307 V 0 Z m -2.422562,-3.1347376 q 0,-0.081725 -0.01751,-0.1809625 -0.01168,-0.105075 -0.02919,-0.2159875 l -0.09924,-0.6129375 q -0.414462,0.1401 -0.81725,0.3269 -0.39695,0.1809625 -0.659637,0.4027875 -0.25685,0.2159875 -0.25685,0.4670001 0,0.2393375 0.192637,0.3911125 0.198475,0.1459375 0.5137,0.1459375 0.268525,0 0.53705,-0.075888 0.274363,-0.081725 0.455325,-0.2393375 0.180963,-0.16345 0.180963,-0.4086251 z m -6.415413,0.3444126 v -5.3938501 h 1.570288 v 5.3938501 q 0,0.548725 0.175125,0.828925 0.180962,0.2743625 0.712175,0.2743625 h 0.1868 V 0 H 21.320045 Q 20.70127,0 20.310157,-0.1868 19.924882,-0.37943751 19.633007,-0.75303751 19.32362,-0.39695001 18.909157,-0.198475 18.500532,0 17.817545,0 h -0.356088 v -1.6870375 h 0.315225 q 0.589588,0 0.828925,-0.2626875 0.245175,-0.268525 0.245175,-0.8406 z m -9.5443123,1.1032875 h 0.9923753 q 0.753037,0 1.401,-0.1401 0.647962,-0.1459375 1.33095,-0.431975 0.688825,-0.2860375 1.56445,-0.712175 -0.898975,-0.3269001 -1.453538,-0.5487251 -0.554562,-0.2276625 -0.758875,-0.2276625 -0.315225,0 -0.572075,0.198475 -0.251012,0.1926375 -0.414462,0.408625 l -0.309388,0.3911126 -1.3075998,-0.6421251 0.2626878,-0.4203 q 0.414462,-0.67715 0.992375,-1.1208 0.577912,-0.4494875 1.3543,-0.4494875 0.3269,0 0.758875,0.151775 0.437812,0.151775 0.934,0.3794375 0.502025,0.221825 1.033237,0.4494875 0.53705,0.221825 1.056588,0.3794375 0.525375,0.1576125 1.00405,0.16345 V -2.31165 q -0.44365,0.058375 -0.823088,0.198475 -0.379437,0.1342625 -0.788062,0.3444125 -0.408625,0.21015 -0.951513,0.502025 -0.7472,0.39694999 -1.412675,0.68298749 Q 12.540445,-0.2977125 11.839945,-0.1459375 11.145282,0 10.281332,0 H 9.3064697 Z M 8.4440141,0 q -0.5312125,0 -0.875625,-0.2043125 -0.2335,1.342625 -1.1499875,2.21825 -0.91065,0.875625 -2.4342375,1.1675001 L 3.4062515,1.622825 Q 4.2526891,1.4418625 4.8597891,1.1383125 5.4727266,0.84060001 5.8054641,0.33857501 6.1382016,-0.16345 6.1382016,-0.95735002 6.1382016,-1.4885625 5.9689141,-2.1482 5.7996266,-2.813675 5.6069891,-3.3857501 l 1.5702875,-0.5078625 0.338575,1.3192751 q 0.099237,0.3736 0.291875,0.63045 0.1926375,0.25685 0.572075,0.25685 H 8.6074641 V 0 Z M 2.1220016,0.1342625 q -0.6071,0 -1.13831253,-0.25685 -0.52537501,-0.26268751 -1.02740002,-0.64796251 -0.3210625,0.3210625 -0.67131251,0.54872501 Q -1.059436,0 -1.724911,0 h -0.25685 v -1.6870375 h 0.2276625 q 0.2860375,0 0.5137,-0.221825 0.2335,-0.221825 0.44365004,-0.572075 0.2159875,-0.3560875 0.44948751,-0.7472001 0.2393375,-0.39695 0.53121251,-0.7472 0.2977125,-0.3560875 0.68882501,-0.5779125 0.39111253,-0.221825 0.91648753,-0.221825 0.735525,0 1.272575,0.35025 0.53705,0.3444125 0.828925,0.9164875 0.291875,0.5662376 0.291875,1.2375501 0,0.688825 -0.2276625,1.2317125 -0.2276625,0.54288749 -0.688825,0.8581125 -0.455325,0.315225 -1.14415,0.315225 z m -0.2802,-3.3040251 q -0.2393375,0 -0.431975,0.1634501 -0.1926375,0.1576125 -0.338575,0.385275 -0.14593753,0.2276625 -0.24517503,0.431975 0.1692875,0.151775 0.32106253,0.2626875 0.151775,0.1109125 0.291875,0.1926375 0.21015,0.11675 0.385275,0.16345 0.175125,0.0467 0.30355,0.0467 0.3093875,0 0.44365,-0.221825 0.1342625,-0.2276625 0.1342625,-0.5137 0,-0.3677625 -0.2276625,-0.6362875 -0.2276625,-0.2743626 -0.6362875,-0.2743626 z m 32.8993104,-3.233975 q -0.467,0 -0.718013,0.3677625 -0.245175,0.361925 -0.245175,0.7939 0,0.1576125 0.332738,0.268525 0.338575,0.105075 0.823087,0.105075 0.356088,0 0.7472,-0.07005 0.39695,-0.075888 0.753038,-0.245175 l 0.215987,1.5586125 q -0.502025,0.2393375 -0.974862,0.3093875 -0.472838,0.07005 -0.811413,0.07005 -0.601262,0 -1.196687,-0.1576125 -0.595425,-0.1576125 -0.992375,-0.408625 0.08173,0.7413625 0.09924,1.4535376 0.02335,0.712175 0.02335,1.249225 V 0 h -1.599475 v -1.1266375 q 0,-2.0839876 -0.245175,-3.6075751 -0.245175,-1.5235875 -0.846437,-2.7553 l 1.51775,-0.5428875 0.53705,1.576125 q 0.110912,0.3093875 0.1868,0.5078625 0.08172,0.198475 0.192637,0.315225 0.03502,-0.618775 0.297713,-1.1383125 0.268525,-0.525375 0.735525,-0.8464375 0.467,-0.3210625 1.09745,-0.3210625 0.6071,0 1.00405,0.1809625 0.402787,0.1809625 0.729687,0.4378125 l -0.5137,1.28425 q -0.297712,-0.175125 -0.5604,-0.268525 -0.262687,-0.099238 -0.589587,-0.099238 z"
         id="path30" />
      <path
         style="font-size:9.9626px;font-family:Vazirmatn"
         d="m 27.266942,17.047885 q -0.486455,0 -0.899942,-0.209175 -0.408622,-0.21404 -0.851296,-0.642121 -0.316196,0.355112 -0.608069,0.549694 -0.291873,0.189718 -0.822109,0.189718 h -0.21404 v -0.885348 h 0.189717 q 0.325925,0 0.549694,-0.184853 0.22377,-0.189718 0.398894,-0.486455 0.175123,-0.296738 0.345383,-0.627527 0.175123,-0.335654 0.389164,-0.632392 0.21404,-0.296738 0.515642,-0.481591 0.306467,-0.189717 0.754005,-0.189717 0.539966,0 0.938859,0.262686 0.403757,0.257821 0.622662,0.69563 0.22377,0.43781 0.22377,0.977775 0,0.792922 -0.403758,1.230731 -0.398893,0.432945 -1.128576,0.432945 z m -0.233498,-2.738742 q -0.243228,0 -0.442674,0.165395 -0.199447,0.16053 -0.359977,0.418352 -0.16053,0.257821 -0.287009,0.5351 0.291873,0.306467 0.603205,0.501049 0.398893,0.257821 0.710224,0.257821 0.719953,0 0.719953,-0.724818 0,-0.505913 -0.252956,-0.826974 -0.248092,-0.325925 -0.690766,-0.325925 z m -4.927791,-4.071628 h 0.822109 v 4.65051 q 0,0.685902 0.252957,0.924265 0.252956,0.238363 0.763734,0.238363 h 0.121614 v 0.885348 h -0.121614 q -0.929129,0 -1.386397,-0.49132 -0.452403,-0.496184 -0.452403,-1.561521 z m -2.758201,4.927789 q 0,-0.126478 -0.05838,-0.325925 -0.05351,-0.204311 -0.131343,-0.379434 l -0.861025,-1.950685 0.75887,-0.355112 1.104253,2.59767 q 0.223769,0.525371 0.389164,0.807515 0.170259,0.282144 0.330789,0.389164 0.165395,0.102156 0.374571,0.102156 h 0.204311 v 0.885348 h -0.204311 q -0.3843,0 -0.627528,-0.09243 -0.238362,-0.09243 -0.413486,-0.277279 -0.175124,-0.184853 -0.355113,-0.466997 -0.340518,0.428081 -0.870754,0.632392 -0.525372,0.199446 -1.313429,0.199446 -0.340518,0 -0.612933,-0.02919 -0.272415,-0.03405 -0.515643,-0.09243 v -0.880484 q 0.559424,0.131343 1.055608,0.131343 1.746374,0 1.746374,-0.895078 z M 14.443985,9.7170076 15.125022,10.39318 14.443985,11.079082 13.767813,10.39318 Z m -1.615031,0 0.681037,0.6761724 -0.681037,0.685902 -0.676172,-0.685902 z m 0.432945,6.3336454 q 0.549695,0 0.885349,-0.06324 0.340518,-0.06324 0.496184,-0.277279 0.16053,-0.218905 0.16053,-0.676172 -0.238363,0.07297 -0.486455,0.111884 -0.243228,0.03892 -0.525372,0.03892 -1.653947,0 -1.653947,-1.35721 0,-0.466997 0.184853,-0.933994 0.189718,-0.466997 0.554559,-0.778328 0.364841,-0.316196 0.885348,-0.316196 0.476726,0 0.817245,0.243228 0.345383,0.243227 0.564287,0.656714 0.22377,0.408622 0.33079,0.929129 0.10702,0.515643 0.10702,1.065337 0,0.724818 -0.131343,1.172357 -0.126478,0.442674 -0.408622,0.676172 -0.282144,0.228634 -0.734547,0.311331 -0.452403,0.0827 -1.104253,0.0827 H 11.41337 v -0.885348 z m 0.59834,-1.702593 q 0.223769,0 0.442674,-0.03892 0.22377,-0.04378 0.447539,-0.10702 -0.03892,-0.345383 -0.145937,-0.700495 -0.102155,-0.355112 -0.306466,-0.593475 -0.204311,-0.243228 -0.54483,-0.243228 -0.301602,0 -0.486455,0.189718 -0.179988,0.189717 -0.262686,0.452403 -0.07783,0.262686 -0.07783,0.486455 0,0.335654 0.238363,0.447539 0.243228,0.10702 0.695631,0.10702 z m -3.093854,-4.110545 v 6.693621 H 9.9442758 v -6.693621 z"
         id="path31" />
      <path
         style="font-size:8.9664px;font-family:Vazirmatn"
         d="m 40.486026,24.59606 0.612938,0.608559 -0.612938,0.617316 -0.608559,-0.617316 z m -1.453537,0 0.612937,0.608559 -0.612937,0.617316 -0.60856,-0.617316 z m 3.375534,1.707469 0.731147,-0.08756 0.07443,1.024482 q 0.02627,0.415921 0.236419,0.634828 0.214528,0.218906 0.639206,0.218906 h 0.105075 v 0.796819 h -0.105075 q -0.494728,0 -0.814331,-0.183882 -0.315225,-0.188259 -0.520997,-0.599803 -0.363384,0.4203 -0.932541,0.604182 -0.564778,0.179503 -1.571747,0.179503 h -0.731146 q -1.650554,0 -2.482397,-0.446569 -0.827466,-0.446569 -0.827466,-1.545478 0,-0.302091 0.06567,-0.591047 0.07005,-0.288956 0.179503,-0.556022 l 0.678609,0.253931 q -0.07005,0.192638 -0.118209,0.411544 -0.04378,0.218906 -0.04378,0.415922 0.0044,0.512241 0.288956,0.788062 0.284578,0.271444 0.849356,0.372141 0.564778,0.100697 1.409757,0.100697 h 0.731146 q 1.046372,0 1.619907,-0.218906 0.577912,-0.218907 0.577912,-0.796819 0,-0.179503 -0.01313,-0.385275 -0.0088,-0.205772 -0.02627,-0.389653 z M 30.595845,27.95846 q 0.779306,-1.33095 1.532343,-1.9614 0.753038,-0.634828 1.506075,-0.634828 0.499107,0 0.884382,0.218906 0.389653,0.214528 0.608559,0.586669 0.218906,0.372141 0.218906,0.8406 -0.0044,0.958809 -0.805575,1.422891 -0.801197,0.459703 -2.425481,0.459703 h -0.232041 q -0.928162,0 -1.414134,-0.175125 -0.485972,-0.175125 -0.687366,-0.49035 -0.253931,0.345872 -0.573534,0.507862 -0.315225,0.157613 -0.8406,0.157613 h -0.179503 l 0.0044,-0.796819 h 0.175125 q 0.612937,0 0.823087,-0.258309 0.214529,-0.262688 0.214529,-0.757416 0,-0.21015 -0.01751,-0.389653 -0.01313,-0.179503 -0.02189,-0.385275 l 0.731147,-0.08756 0.06567,1.024482 q 0.02189,0.293334 0.122588,0.507862 0.100697,0.21015 0.310847,0.21015 z m 3.073443,-1.799409 q -1.055128,0 -2.281003,1.935131 h 0.709256 q 1.247766,0 1.860704,-0.249553 0.612937,-0.249553 0.612937,-0.792441 0,-0.385275 -0.249553,-0.639206 -0.245175,-0.253931 -0.652341,-0.253931 z m -6.123875,2.73195 q -0.302091,0 -0.507863,-0.07881 -0.201393,-0.08318 -0.315225,-0.175125 -0.06567,0.573535 -0.319603,1.107666 -0.249553,0.53851 -0.753037,0.936919 -0.503485,0.398409 -1.33095,0.5604 l -0.25831,-0.691744 q 1.068263,-0.23204 1.506075,-0.814331 0.437813,-0.577913 0.437813,-1.370353 0,-0.372141 -0.08319,-0.779307 -0.07881,-0.411543 -0.223284,-0.836221 l 0.726769,-0.245175 0.236419,0.915028 q 0.09632,0.367762 0.306468,0.520997 0.21015,0.153234 0.529753,0.153234 h 0.166369 v 0.796819 z m -5.008575,-6.580322 0.634828,0.634828 -0.634828,0.634828 -0.634828,-0.634828 z M 22.2041,28.094182 q 0.494729,0 0.796819,-0.05692 0.306469,-0.05692 0.446569,-0.249553 0.144478,-0.197015 0.144478,-0.608559 -0.214528,0.06567 -0.437812,0.100697 -0.218907,0.03503 -0.472838,0.03503 -1.488562,0 -1.488562,-1.221497 0,-0.4203 0.166368,-0.8406 0.170747,-0.4203 0.499107,-0.7005 0.328359,-0.284578 0.796818,-0.284578 0.429057,0 0.735525,0.218906 0.310847,0.218906 0.507863,0.591047 0.201394,0.367762 0.297712,0.836222 0.09632,0.464081 0.09632,0.958809 0,0.652341 -0.118209,1.055128 -0.113831,0.39841 -0.367763,0.60856 -0.253931,0.205771 -0.661097,0.2802 -0.407165,0.07443 -0.993834,0.07443 h -1.61115 v -0.796819 z m 0.53851,-1.532344 q 0.201394,0 0.398409,-0.03503 0.201394,-0.0394 0.402788,-0.09632 -0.03503,-0.310846 -0.131344,-0.63045 -0.09194,-0.319603 -0.275822,-0.534131 -0.183881,-0.218906 -0.49035,-0.218906 -0.271444,0 -0.437812,0.170747 -0.161991,0.170747 -0.236419,0.407165 -0.07005,0.236419 -0.07005,0.437813 0,0.302091 0.214528,0.402787 0.218906,0.09632 0.626072,0.09632 z m -3.980312,2.999016 0.634828,0.634828 -0.634828,0.634828 -0.634828,-0.634828 z m 2.56996,-3.257325 0.731146,-0.08756 0.07443,1.024482 q 0.02627,0.415921 0.236418,0.634828 0.214528,0.218906 0.639207,0.218906 h 0.105075 v 0.796819 h -0.105075 q -0.494729,0 -0.814332,-0.183882 -0.315225,-0.188259 -0.520997,-0.599803 -0.363384,0.4203 -0.93254,0.604182 -0.564778,0.179503 -1.571747,0.179503 h -0.731147 q -1.650553,0 -2.482397,-0.446569 -0.827466,-0.446569 -0.827466,-1.545478 0,-0.302091 0.06567,-0.591047 0.07005,-0.288956 0.179503,-0.556022 l 0.67861,0.253931 q -0.07005,0.192638 -0.11821,0.411544 -0.04378,0.218906 -0.04378,0.415922 0.0044,0.512241 0.288956,0.788062 0.284579,0.271444 0.849357,0.372141 0.564778,0.100697 1.409756,0.100697 h 0.731147 q 1.046372,0 1.619906,-0.218906 0.577913,-0.218907 0.577913,-0.796819 0,-0.179503 -0.01313,-0.385275 -0.0088,-0.205772 -0.02627,-0.389653 z m -10.739541,2.587472 q -0.503485,0 -0.7793066,-0.170747 Q 9.5419667,28.545129 9.379976,28.221148 9.1742042,28.545129 8.854601,28.720254 8.5349979,28.891001 7.943951,28.891001 H 7.5411635 v -0.796819 h 0.4115438 q 0.5604,0 0.8187093,-0.205772 0.2583094,-0.21015 0.2583094,-0.761794 0,-0.113831 -0.013134,-0.267065 -0.00876,-0.157613 -0.030647,-0.437813 l 0.7311469,-0.09194 0.07005,0.915028 q 0.026269,0.367762 0.2232843,0.608559 0.201394,0.240797 0.591047,0.240797 0.464081,0 0.63045,-0.249553 0.166369,-0.249553 0.166369,-0.718013 0,-0.113831 -0.01314,-0.271443 -0.0088,-0.157613 -0.03065,-0.433435 l 0.731147,-0.09194 0.07005,0.915028 q 0.02189,0.354628 0.18826,0.604181 0.166368,0.245175 0.538509,0.245175 0.363384,0 0.499106,-0.271444 0.135722,-0.271444 0.135722,-0.634828 0,-0.328359 -0.06567,-0.661097 -0.06129,-0.332737 -0.109453,-0.538509 l 0.74866,-0.201394 q 0.07881,0.293334 0.126965,0.626072 0.04816,0.328359 0.04816,0.656719 0,0.472837 -0.131344,0.888759 -0.131344,0.415922 -0.433435,0.674231 -0.297712,0.253932 -0.814331,0.25831 -0.4203,0 -0.678609,-0.175125 -0.25831,-0.175125 -0.4203,-0.494728 -0.245175,0.354628 -0.547266,0.51224 -0.297712,0.157613 -0.647962,0.157613 z M 5.9519052,22.862323 h 0.7399031 v 4.185487 q 0,0.617316 0.2276625,0.831844 0.2276625,0.214528 0.6873657,0.214528 h 0.1094531 v 0.796819 H 7.6068365 q -0.8362219,0 -1.2477657,-0.442191 -0.4071656,-0.446569 -0.4071656,-1.405378 z m -2.3641877,3.441206 0.7311469,-0.08756 0.07005,1.024482 q 0.052537,0.853734 0.8887594,0.853734 h 0.091941 v 0.796819 H 5.2689175 q -0.4859719,0 -0.7793062,-0.175125 -0.2889563,-0.175125 -0.4684594,-0.494728 -0.2364188,0.345871 -0.6216938,0.507862 -0.385275,0.161991 -0.805575,0.161991 h -0.4203 v -0.796819 h 0.4203 q 0.5560219,0 0.7924406,-0.249553 0.2407969,-0.249553 0.2407969,-0.766172 0,-0.21015 -0.013134,-0.398409 -0.00876,-0.18826 -0.026269,-0.376519 z M 3.6709019,24.123223 4.30573,24.758051 3.6709019,25.392879 3.0360737,24.758051 Z m -3.22230015,4.868475 q -0.4378125,0 -0.80995314,-0.18826 -0.3677625,-0.192637 -0.76617191,-0.577912 -0.2845781,0.319603 -0.5472656,0.494728 -0.2626875,0.170747 -0.7399031,0.170747 h -0.1926375 v -0.796819 h 0.1707468 q 0.2933344,0 0.4947282,-0.166369 0.2013937,-0.170747 0.3590062,-0.437812 0.1576125,-0.267066 0.3108469,-0.564778 0.1576125,-0.302091 0.35025001,-0.569157 0.1926375,-0.267065 0.46408125,-0.433434 0.27582188,-0.170747 0.67860939,-0.170747 0.48597188,0 0.84497815,0.236419 0.3633844,0.23204 0.5604,0.626072 0.2013938,0.394031 0.2013938,0.880003 0,0.713634 -0.3633844,1.107665 -0.3590063,0.389654 -1.01572505,0.389654 z m -0.21015,-2.464885 q -0.21890625,0 -0.39840938,0.148856 -0.17950313,0.144479 -0.32398126,0.376519 -0.14447813,0.232041 -0.25830938,0.481594 0.26268751,0.275822 0.54288751,0.450947 0.35900626,0.23204 0.63920626,0.23204 0.6479625,0 0.6479625,-0.65234 0,-0.455325 -0.22766249,-0.744281 -0.22328438,-0.293335 -0.62169376,-0.293335 z"
         id="path32" />
    </g>
    <path
       id="path12"
       d="M 44.01445,0 H 80.55597"
       style="fill:none;stroke:#808080;stroke-width:2.98883;stroke-linecap:butt;stroke-linejoin:miter;stroke-miterlimit:10;stroke-dasharray:none;stroke-opacity:1"
       transform="matrix(1.3333333,0,0,-1.3333333,78.610667,69.156)" />
    <path
       id="path13"
       d="M -5.18063,7.07033 C -4.23416,2.82808 -2.12502,0.82486 0,0 -2.12502,-0.82486 -4.23416,-2.82808 -5.18063,-7.07033"
       style="fill:none;stroke:#808080;stroke-width:2.98883;stroke-linecap:round;stroke-linejoin:round;stroke-miterlimit:10;stroke-dasharray:none;stroke-opacity:1"
       transform="matrix(1.3333333,0,0,-1.3333333,188.01117,69.156)" />
    <path
       id="path14"
       d="m 171.57375,0 h 36.54153"
       style="fill:none;stroke:#808080;stroke-width:2.98883;stroke-linecap:butt;stroke-linejoin:miter;stroke-miterlimit:10;stroke-dasharray:none;stroke-opacity:1"
       transform="matrix(1.3333333,0,0,-1.3333333,78.610667,69.156)" />
    <path
       id="path15"
       d="M -5.18063,7.07033 C -4.23416,2.82808 -2.12502,0.82486 0,0 -2.12502,-0.82486 -4.23416,-2.82808 -5.18063,-7.07033"
       style="fill:none;stroke:#808080;stroke-width:2.98883;stroke-linecap:round;stroke-linejoin:round;stroke-miterlimit:10;stroke-dasharray:none;stroke-opacity:1"
       transform="matrix(1.3333333,0,0,-1.3333333,358.09027,69.156)" />
    <path
       id="path16"
       d="m 299.13306,0 h 36.54152"
       style="fill:none;stroke:#808080;stroke-width:2.98883;stroke-linecap:butt;stroke-linejoin:miter;stroke-miterlimit:10;stroke-dasharray:none;stroke-opacity:1"
       transform="matrix(1.3333333,0,0,-1.3333333,78.610667,69.156)" />
    <path
       id="path17"
       d="M -5.18063,7.07033 C -4.23416,2.82808 -2.12502,0.82486 0,0 -2.12502,-0.82486 -4.23416,-2.82808 -5.18063,-7.07033"
       style="fill:none;stroke:#808080;stroke-width:2.98883;stroke-linecap:round;stroke-linejoin:round;stroke-miterlimit:10;stroke-dasharray:none;stroke-opacity:1"
       transform="matrix(1.3333333,0,0,-1.3333333,528.16932,69.156)" />
    <path
       id="path18"
       d="m 418.11284,-76.53586 c 0,11.74178 -15.86389,21.2601 -35.43352,21.2601 -19.56962,0 -35.43352,-9.51832 -35.43352,-21.2601 0,-11.74177 15.8639,-21.2601 35.43352,-21.2601 19.56963,0 35.43352,9.51833 35.43352,21.2601 z"
       style="fill:#d6eaf8;fill-opacity:1;fill-rule:nonzero;stroke:#3498db;stroke-width:2.98883;stroke-linecap:butt;stroke-linejoin:miter;stroke-miterlimit:10;stroke-dasharray:none;stroke-opacity:1"
       transform="matrix(1.3333333,0,0,-1.3333333,78.610667,69.156)" />
    <path
       style="font-weight:800;font-size:9.9626px;font-family:Vazirmatn"
       d="M 12.049492,2.6560447 11.553308,1.3523451 q 0.705359,-0.1508011 1.211273,-0.40375772 0.510778,-0.24809208 0.788057,-0.66644344 0.277279,-0.41835136 0.277279,-1.07993025 0,-0.44267409 -0.141072,-0.99236829 -0.141072,-0.5545588 -0.301602,-1.0312848 l 1.313429,-0.4232159 q 0.189717,0.530236 0.287008,1.1431694 0.102156,0.6129334 0.102156,1.17722127 0,1.02155564 -0.379435,1.75123824 Q 14.335831,1.5615208 13.649929,2.013924 12.968892,2.4711917 12.049492,2.6560447 Z M 11.835451,-6.8201 v 6.81523545 H 10.522023 V -6.8201 Z M 7.0098172,-7.6178863 7.8854363,-6.7422672 7.0098172,-5.8715126 6.1390626,-6.7422672 Z m 0.5934752,5.5164004 q 0,-0.1216138 -0.05351,-0.3210603 -0.05351,-0.1994466 -0.1118847,-0.3259249 l -0.963181,-2.1258087 1.1577631,-0.5642878 1.2112731,2.792252 q 0.1459365,0.335654 0.2578212,0.617798 0.1167492,0.2821439 0.2626857,0.4524032 0.1508011,0.1702593 0.3842995,0.1702593 H 9.9528703 V 0 H 9.7485592 Q 9.2037295,0 8.8680755,-0.20431113 8.5372861,-0.41348681 8.2843295,-0.7394117 7.9146236,-0.3842995 7.4038458,-0.19458203 6.893068,-0.00486455 6.1682499,-0.00486455 q -0.4280804,0 -0.724818,-0.0291873 Q 5.1466943,-0.06323916 4.8304985,-0.14107197 V -1.5469271 q 0.3016021,0.072968 0.6372561,0.1118847 0.3405186,0.038916 0.6275271,0.038916 0.3599767,0 0.7053598,-0.058375 0.3453831,-0.063239 0.574017,-0.2189048 0.2286339,-0.1556656 0.2286339,-0.4280805 z M 0.27727955,-5.8228671 V -6.5622788 L 4.2321592,-8.1724451 v 0.7394117 z m 1.38639695,1.3280223 q 0.6518498,0.389164 1.1528985,0.7637344 0.5059133,0.3697059 0.7929218,0.7977864 0.2870084,0.4280804 0.2870084,0.9875037 0,0.7637345 -0.3502476,1.1869504 Q 3.1960099,-0.335654 2.5636184,-0.16539472 1.9312268,0 1.0896595,0 H -0.09729085 V -1.4058551 H 1.084795 q 0.7783281,0 1.1674921,-0.1070202 0.3891641,-0.1118846 0.3891641,-0.4524032 0,-0.1605301 -0.238363,-0.3697058 Q 2.1647252,-2.5490245 1.8047485,-2.782523 1.4496363,-3.020886 1.0750659,-3.2495198 0.70536001,-3.4830183 0.43294517,-3.6776003 0.22863404,-3.8235368 0.12161393,-4.0667644 0.01945837,-4.3099919 0.01945837,-4.5629485 q 0,-0.2724149 0.12647831,-0.5107778 0.12647832,-0.238363 0.39402861,-0.3453831 L 4.2953984,-6.9514429 v 1.3912615 z"
       id="text18"
       transform="matrix(1.3333333,0,0,1.3333333,578.00533,174.88133)"
       aria-label="راﺬﮔ" />
    <path
       id="path19"
       d="m 382.67674,-36.92776 5.4e-4,-14.8612"
       style="fill:none;stroke:#3498db;stroke-width:1.99255;stroke-linecap:butt;stroke-linejoin:miter;stroke-miterlimit:10;stroke-dasharray:none;stroke-opacity:1"
       transform="matrix(1.3333333,0,0,-1.3333333,78.610667,69.156)" />
    <path
       id="path20"
       d="M -3.9851,5.27061 C -3.25705,2.1082 -1.63463,0.6149 0,0 -1.63463,-0.6149 -3.25705,-2.1082 -3.9851,-5.27061"
       style="fill:none;stroke:#3498db;stroke-width:1.99255;stroke-linecap:round;stroke-linejoin:round;stroke-miterlimit:10;stroke-dasharray:none;stroke-opacity:1"
       transform="matrix(2.6666667e-5,1.3333067,1.3333067,-2.6666667e-5,588.84705,139.53629)" />
  </g>
</svg>
