<?xml version="1.0" encoding="UTF-8" standalone="no"?>


<svg class="tikz-diagram" id="iran-action-ch11-tikz-1-86cd3c58c91b"
   version="1.1"
   id="svg1"
   width="519.96002"
   height="212.58667"
   viewBox="0 0 519.96002 212.58667"
   sodipodi:docname="iran-action-ch11-tikz-1-86cd3c58c91b.pdf"
   xmlns:inkscape="http://www.inkscape.org/namespaces/inkscape"
   xmlns:sodipodi="http://sodipodi.sourceforge.net/DTD/sodipodi-0.dtd"
   xmlns="http://www.w3.org/2000/svg"
   xmlns:svg="http://www.w3.org/2000/svg">
  <defs
     id="defs1" />
  <sodipodi:namedview
     id="namedview1"
     pagecolor="#ffffff"
     bordercolor="#000000"
     borderopacity="0.25"
     inkscape:showpageshadow="2"
     inkscape:pageopacity="0.0"
     inkscape:pagecheckerboard="0"
     inkscape:deskcolor="#d1d1d1">
    <inkscape:page
       x="0"
       y="0"
       inkscape:label="1"
       id="page1"
       width="519.96002"
       height="212.58667"
       margin="0"
       bleed="0" />
  </sodipodi:namedview>
  <g
     id="g1"
     inkscape:groupmode="layer"
     inkscape:label="1">
    <path
       id="path1"
       d="M 51.67769,21.2601 H -51.67769 c -2.75117,0 -4.98138,-2.23021 -4.98138,-4.98138 v -32.55744 c 0,-2.75117 2.23021,-4.98138 4.98138,-4.98138 H 51.67769 c 2.75117,0 4.98138,2.23021 4.98138,4.98138 v 32.55744 c 0,2.75117 -2.23021,4.98138 -4.98138,4.98138 z"
       style="fill:#e6f0fa;fill-opacity:1;fill-rule:nonzero;stroke:#0055a4;stroke-width:0.99628;stroke-linecap:butt;stroke-linejoin:miter;stroke-miterlimit:10;stroke-dasharray:none;stroke-opacity:1"
       transform="matrix(1.3333333,0,0,-1.3333333,259.98267,48.937333)" />
    <g
       id="text1"
       transform="matrix(1.3333333,0,0,1.3333333,219.84533,44.554667)"
       aria-label="ﯽﻬﺟوﺪﻨﭼناﺮﺤﺑﻪﻘﻄﻨﻣ،ﺖﯿﻋوﺮﺸﻣ،دﺎﺼﺘﻗا">
      <path
         style="font-weight:800;font-size:8.9664px;font-family:Vazirmatn"
         d="m 51.143679,2.2503563 q -0.963188,0 -1.571747,-0.3721406 -0.604181,-0.3721407 -0.893138,-0.99821256 -0.284578,-0.62169376 -0.284578,-1.38348752 0,-0.43343439 0.08319,-0.90627192 0.08756,-0.4728375 0.271443,-0.9631875 l 1.063885,0.385275 q -0.131344,0.3808969 -0.21015,0.7574157 -0.07881,0.37651871 -0.07881,0.70925622 0,0.42467813 0.148856,0.76617188 0.153234,0.34587188 0.507862,0.54726564 0.354628,0.20577188 0.963188,0.20577188 0.696122,0 1.116422,-0.14447813 0.4203,-0.14447813 0.608559,-0.32398126 0.192638,-0.17950312 0.192638,-0.2802 0,-0.15323438 -0.148857,-0.20139375 Q 52.767963,0 52.44836,0 h -0.691744 q -0.179503,0 -0.227662,-0.09194063 -0.04816,-0.09194062 -0.09194,-0.245175 L 51.248754,-1.015725 q -0.03065,-0.1094531 -0.02189,-0.1795031 0.01313,-0.07005 0.170747,-0.07005 h 2.644388 V 0 h 0.03502 q 0.0394,0.15323438 0.0394,0.245175 0,0.53413126 -0.354628,0.9894563 -0.35025,0.4597031 -1.015725,0.735525 -0.661097,0.2802 -1.602394,0.2802 z M 43.46883,0 v -1.2652781 h 0.731147 V -1.365975 q 0,-0.4203 0.08756,-0.8887594 0.09194,-0.4684594 0.293334,-0.8800032 0.205772,-0.4159218 0.538509,-0.6742312 0.337116,-0.2583094 0.823088,-0.2583094 0.4203,0 0.72239,0.2057719 0.302091,0.2013937 0.459704,0.5516437 0.16199,0.3458719 0.16199,0.7793063 0,0.4071656 -0.153234,0.805575 -0.153235,0.3940313 -0.415922,0.73990316 -0.262688,0.34149375 -0.599803,0.59542501 -0.332738,0.24955313 -0.7005,0.3677625 0.06129,0.18825938 0.21015,0.40716564 0.153234,0.21890625 0.328359,0.37214063 0.09194,-0.37651876 0.293335,-0.73552501 0.205771,-0.35900626 0.481593,-0.64796252 0.275822,-0.29333438 0.591047,-0.46408121 0.319603,-0.175125 0.643585,-0.175125 h 0.144478 V 0 H 47.956408 Q 47.387252,0 47.177102,0.28895625 46.97133,0.58229063 46.97133,1.1689594 q 0,0.1094531 0.0044,0.2276625 0.0044,0.1225875 0.01314,0.245175 L 46.222671,2.3554313 Q 45.793615,2.1496594 45.390827,1.7775188 44.98804,1.4053781 44.690327,0.94129689 44.396993,0.47721563 44.28754,0 Z m 2.425481,-2.8457813 q -0.16199,0 -0.2802,0.1488563 -0.113831,0.1488562 -0.188259,0.3808968 -0.07005,0.2276625 -0.105075,0.4859719 -0.03065,0.2539313 -0.03065,0.4640813 v 0.1006969 q 0.267066,-0.021891 0.49035,-0.1882594 0.223285,-0.1663688 0.359006,-0.4246782 0.1401,-0.2626875 0.1401,-0.5604 0,-0.1882593 -0.105075,-0.2977125 -0.105075,-0.1094531 -0.2802,-0.1094531 z M 40.355979,0.51661876 41.144041,1.3046813 40.355979,2.0883657 39.572294,1.3046813 Z M 37.352585,-1.2652781 h 0.744281 q 0.564778,0 1.05075,-0.105075 0.485972,-0.1094532 0.998213,-0.3239813 0.516618,-0.2145281 1.173337,-0.5341313 -0.674231,-0.245175 -1.090153,-0.4115437 -0.415922,-0.1707469 -0.569156,-0.1707469 -0.236419,0 -0.429056,0.1488563 -0.18826,0.1444781 -0.310847,0.3064687 l -0.232041,0.2933344 -0.9807,-0.4815938 0.197016,-0.315225 q 0.310847,-0.5078625 0.744281,-0.8406 0.433434,-0.3371156 1.015725,-0.3371156 0.245175,0 0.569156,0.1138312 0.32836,0.1138313 0.7005,0.2845782 0.376519,0.1663687 0.774928,0.3371156 0.402788,0.1663687 0.792441,0.2845781 0.394031,0.1182094 0.753037,0.1225875 v 1.1602032 q -0.332737,0.043781 -0.617315,0.1488562 -0.284578,0.1006969 -0.591047,0.2583094 -0.306469,0.1576125 -0.713634,0.37651876 -0.5604,0.2977125 -1.059507,0.51224063 -0.494728,0.21452813 -1.020103,0.32835938 Q 38.731694,0 38.083732,0 h -0.731147 z m -0.267061,0.29333433 q 0,1.02448127 -0.380897,1.70309066 Q 36.328108,1.4097563 35.636365,1.8081657 34.944621,2.206575 33.998946,2.3860782 L 33.565511,1.2171188 q 0.893138,-0.1707469 1.492941,-0.48597191 0.604181,-0.31522501 0.766172,-0.77492814 -0.109453,0.02189062 -0.227662,0.03940312 -0.11821,0.01313438 -0.214529,0.01313438 -0.831843,0 -1.309059,-0.36776251 -0.477216,-0.3677625 -0.477216,-1.20836254 0,-0.35025 0.105075,-0.7136344 0.105075,-0.3677625 0.315225,-0.6742312 0.21015,-0.3108469 0.520997,-0.4991063 0.310847,-0.1882594 0.722391,-0.1882594 0.472837,0 0.814331,0.2276625 0.345872,0.2276625 0.569156,0.6085594 0.223285,0.3808969 0.332738,0.8581125 0.109453,0.4772157 0.109453,0.97632193 z M 35.364921,-1.2521438 q 0.188259,0 0.341494,-0.021891 0.157612,-0.021891 0.258309,-0.043781 -0.02627,-0.2232844 -0.100697,-0.4772157 -0.07443,-0.2539312 -0.223284,-0.4334344 -0.144478,-0.1838812 -0.389653,-0.1838812 -0.21015,0 -0.332738,0.1401 -0.118209,0.1401 -0.166369,0.3283594 -0.04816,0.1882593 -0.04816,0.3283593 0,0.2364188 0.188259,0.3020907 0.192638,0.061294 0.472838,0.061294 z M 31.210077,-1.89135 q 0,-0.1094532 -0.04816,-0.2889563 -0.04816,-0.1795031 -0.100696,-0.2933344 l -0.866869,-1.9132406 1.041994,-0.5078625 1.090153,2.5130438 q 0.131344,0.3020906 0.23204,0.5560218 0.105075,0.2539313 0.236419,0.4071657 0.135722,0.1532344 0.345872,0.1532344 h 0.183881 V 0 H 33.14083 q -0.49035,0 -0.792441,-0.18388125 -0.297712,-0.18825938 -0.525375,-0.48159376 -0.332737,0.31960313 -0.79244,0.49035001 -0.459703,0.17074687 -1.112044,0.17074687 -0.385275,0 -0.652341,-0.02626875 -0.267065,-0.02626875 -0.551643,-0.09631875 V -1.3922438 q 0.271443,0.065672 0.573534,0.1006969 0.306469,0.035025 0.564778,0.035025 0.323981,0 0.634828,-0.052537 0.310847,-0.056916 0.516619,-0.1970156 0.205772,-0.1401 0.205772,-0.385275 z m -4.74151,-1.1164219 1.094532,-0.1357219 0.08756,1.2521438 q 0.02189,0.3327375 0.183881,0.4815937 0.161991,0.1444782 0.516619,0.1444782 h 0.09194 V 0 H 28.342405 Q 27.904592,0 27.589367,-0.1576125 27.27852,-0.31522501 27.077127,-0.56915626 26.810061,-0.30209063 26.442299,-0.14885625 26.078914,0 25.66737,0 h -0.4203 v -1.2652781 h 0.4203 q 0.481594,0 0.661097,-0.1619907 0.183882,-0.1663687 0.183882,-0.6041812 0,-0.2583094 -0.01314,-0.4991063 -0.01313,-0.245175 -0.03065,-0.4772156 z m 0.240797,-2.3204063 0.788063,0.7880625 -0.788063,0.7836844 -0.783684,-0.7836844 z M 22.900395,0.43343438 23.605273,1.1383125 22.900395,1.8431907 22.195516,1.1383125 Z m -1.527966,0 0.7005,0.70487812 -0.7005,0.7048782 -0.704878,-0.7048782 z m 0.761794,1.12080002 0.704878,0.7048781 -0.704878,0.7005 -0.704878,-0.7005 z m -3.003394,-2.8195125 h 0.744281 q 0.564778,0 1.05075,-0.105075 0.485972,-0.1094532 0.998213,-0.3239813 0.516618,-0.2145281 1.173337,-0.5341313 -0.674231,-0.245175 -1.090153,-0.4115437 -0.415922,-0.1707469 -0.569156,-0.1707469 -0.236419,0 -0.429056,0.1488563 -0.18826,0.1444781 -0.310847,0.3064687 l -0.232041,0.2933344 -0.9807,-0.4815938 0.197016,-0.315225 q 0.310847,-0.5078625 0.744281,-0.8406 0.433434,-0.3371156 1.015725,-0.3371156 0.245175,0 0.569156,0.1138312 0.32836,0.1138313 0.7005,0.2845782 0.376519,0.1663687 0.774928,0.3371156 0.402788,0.1663687 0.792441,0.2845781 0.394031,0.1182094 0.753038,0.1225875 v 1.1602032 q -0.332738,0.043781 -0.617316,0.1488562 -0.284578,0.1006969 -0.591047,0.2583094 -0.306469,0.1576125 -0.713634,0.37651876 -0.5604,0.2977125 -1.059507,0.51224063 -0.494728,0.21452813 -1.020103,0.32835938 Q 20.509938,0 19.861976,0 H 19.130829 Z M 19.384341,0 h -0.696122 v -1.2652781 h 0.7005 q 0.332738,0 0.455325,-0.2057719 0.126966,-0.21015 0.126966,-0.5297532 0,-0.2977125 -0.07443,-0.6479625 -0.07005,-0.3546281 -0.144478,-0.6917437 l 1.147068,-0.2977125 q 0.08319,0.4115437 0.131344,0.8187094 0.05254,0.4027875 0.05254,0.77055 0,0.5822906 -0.157613,1.0463719 -0.157612,0.46408122 -0.529753,0.73552497 Q 20.027925,0 19.384341,0 Z m 0.516619,-5.7090751 0.788062,0.7880625 -0.788062,0.7836844 -0.783685,-0.7836844 z m -3.025284,-0.4290563 h 1.182093 v 4.0016064 q 0,0.4640812 0.135722,0.6698531 0.135722,0.2013938 0.5604,0.2013938 h 0.109453 V 0 H 18.753891 Q 17.773191,0 17.322244,-0.50786251 16.875676,-1.015725 16.875676,-2.03145 Z M 15.635511,0 Q 15.237102,0 14.978792,-0.15323438 14.803667,0.85373439 14.116302,1.5104531 13.433314,2.1671719 12.290624,2.3860782 L 11.857189,1.2171188 q 0.634828,-0.1357219 1.090153,-0.36338441 0.459703,-0.22328438 0.709257,-0.59980314 0.249553,-0.37651875 0.249553,-0.97194376 0,-0.39840939 -0.126966,-0.89313749 -0.126966,-0.4991063 -0.271444,-0.9281625 l 1.177716,-0.3808969 0.253931,0.9894562 q 0.07443,0.2802 0.218906,0.4728376 0.144479,0.1926375 0.429057,0.1926375 h 0.170747 V 0 Z M 11.795895,-2.8939407 V -1.75125 q -0.253931,0.026269 -0.516618,0.1182093 -0.25831,0.087562 -0.450947,0.1751251 0.08318,0.1225875 0.402787,0.1576125 0.323981,0.035025 0.709256,0.035025 H 12.18117 V 0 H 11.922861 Q 11.121664,0 10.631314,-0.21015 10.145342,-0.42467813 9.9658391,-1.0069688 9.1558859,-0.57353438 8.3459328,-0.28457813 7.5403578,0 6.6253296,0 H 5.8941827 V -1.2652781 H 6.638464 q 0.5647781,0 1.0463719,-0.105075 Q 8.1708078,-1.4798063 8.6874265,-1.6943344 9.2040453,-1.9088625 9.8607641,-2.2284657 9.1865328,-2.4780188 8.7706109,-2.6443875 8.354689,-2.8107563 8.2014547,-2.8107563 q -0.2364188,0 -0.4290563,0.1488563 -0.1882594,0.1444781 -0.3108469,0.3064687 l -0.2320406,0.2933344 -0.9807,-0.4815938 0.1970156,-0.315225 q 0.3108469,-0.5078625 0.7442813,-0.8406 0.4334343,-0.3371156 1.015725,-0.3371156 0.245175,0 0.5691562,0.1138312 0.3283594,0.1138313 0.7005001,0.2845782 0.3765187,0.1663687 0.7749279,0.3371156 0.402788,0.1663687 0.792441,0.2845781 0.394031,0.1182094 0.753037,0.1225875 z M 3.924026,0 H 3.1359635 v -1.2652781 h 0.7924406 q 0.3327375,0 0.455325,-0.2057719 0.1269656,-0.21015 0.1269656,-0.5297532 0,-0.2977125 -0.074428,-0.6479625 -0.07005,-0.3546281 -0.1444781,-0.6917437 l 1.1470687,-0.2977125 q 0.083184,0.4115437 0.1313438,0.8187094 0.052537,0.4027875 0.052537,0.77055 0,0.5822906 -0.1576125,1.0463719 Q 5.3075135,-0.53850938 4.9353729,-0.26706563 4.5676104,0 3.924026,0 Z M 4.0378572,0.51661876 4.8259197,1.3046813 4.0378572,2.0883657 3.2541728,1.3046813 Z"
         id="path14" />
      <path
         style="font-size:8.9664px;font-family:Vazirmatn"
         d="m 74.983961,10.959 q -0.643584,0 -1.00259,-0.302091 -0.354628,-0.302091 -0.459703,-0.8318438 -0.253932,0.2539308 -0.551644,0.3896528 -0.293334,0.135722 -0.661097,0.135722 -0.626072,0 -1.05075,-0.337115 -0.424678,-0.337116 -0.424678,-0.932541 0,-0.6742313 0.551644,-1.1645813 0.551643,-0.4947281 1.733737,-0.8581125 l -0.03065,-0.21015 0.7005,-0.1401 0.380897,2.6881688 q 0.05254,0.385275 0.249553,0.5779125 0.201394,0.1882595 0.582291,0.1882595 h 0.135722 V 10.959 Z M 73.346543,8.7568027 q 0,-0.1357219 -0.01751,-0.2583094 L 73.219577,7.7673465 q -0.849356,0.3064687 -1.239009,0.6041812 -0.385275,0.2977125 -0.385275,0.6523407 0,0.2889562 0.197015,0.4378125 0.197016,0.1488562 0.534131,0.1488562 0.25831,0 0.490351,-0.1006969 0.236418,-0.1006968 0.380896,-0.2933343 0.148857,-0.1926375 0.148857,-0.4597032 z M 69.012197,5.4162933 69.625134,6.0248527 69.012197,6.6421683 68.403638,6.0248527 Z m -1.453538,0 0.612938,0.6085594 L 67.558659,6.6421683 66.9501,6.0248527 Z m 2.294138,3.4806094 q 0,0.3458719 -0.153234,0.6435844 -0.153235,0.2933344 -0.4203,0.6041809 0.249553,0.01314 0.44219,0.01751 0.192638,0 0.341494,0 h 0.424678 V 10.959 h -0.411544 q -0.166368,0 -0.459703,-0.02627 -0.288956,-0.03065 -0.639206,-0.100697 -0.345872,-0.07005 -0.682988,-0.188259 -0.337115,0.122587 -0.691743,0.192637 -0.354628,0.06567 -0.656719,0.09632 -0.302091,0.02627 -0.481594,0.02627 h -0.612937 v -0.796819 h 0.612937 q 0.183881,0 0.380897,0 0.201394,-0.0044 0.485972,-0.02189 -0.262688,-0.3064685 -0.411544,-0.6085591 -0.148856,-0.3020907 -0.148856,-0.6435844 0,-0.2714438 0.126966,-0.5472657 0.126965,-0.2758218 0.341493,-0.5122406 0.214528,-0.2364187 0.49035,-0.3765187 0.275822,-0.1444782 0.569157,-0.1444782 0.306468,0 0.586668,0.1444782 0.2802,0.1401 0.494728,0.3765187 0.218907,0.2320406 0.345872,0.5122406 0.126966,0.2802 0.126966,0.5560219 z M 68.298563,8.0825715 q -0.166369,0 -0.35025,0.1269656 -0.179504,0.1225875 -0.306469,0.3108469 -0.122588,0.1882593 -0.122588,0.385275 0,0.2013937 0.11821,0.4115437 0.118209,0.21015 0.297712,0.385275 0.183881,0.175125 0.372141,0.2714438 0.332737,-0.1401 0.564778,-0.4509469 0.236419,-0.315225 0.236419,-0.6260719 0,-0.1838812 -0.131344,-0.3721406 Q 68.850206,8.3365027 68.661947,8.2095371 68.473688,8.0825715 68.298563,8.0825715 Z M 63.600836,7.4302308 q 0.494728,0 0.875625,0.2189063 0.385275,0.2145281 0.604181,0.5866687 0.218906,0.3721407 0.218906,0.8406001 -0.0044,0.5604 -0.341494,1.0025901 0.122588,0.03065 0.32836,0.05692 0.21015,0.02627 0.608559,0.02627 h 0.131344 V 10.959 h -0.126966 q -0.556022,0 -0.919406,-0.113832 -0.359006,-0.113831 -0.604181,-0.315225 -0.359007,0.201394 -0.945675,0.315225 Q 62.84342,10.959 62.068492,10.959 h -2.267869 v -0.796819 h 0.744281 q 0.08319,-0.1401 0.175125,-0.275822 0.09194,-0.1401 0.175125,-0.2758219 V 4.9303214 h 0.739903 V 8.5685433 Q 62.107895,7.9993871 62.585111,7.714809 63.066704,7.4302308 63.600836,7.4302308 Z m 0.01751,0.7968188 q -1.05075,0 -2.276625,1.9351314 h 0.709256 q 1.247766,0 1.860703,-0.2495533 0.612938,-0.2495531 0.612938,-0.7924406 0,-0.385275 -0.249553,-0.6392063 Q 64.025514,8.2270496 63.618348,8.2270496 Z M 58.193853,8.3715277 58.925,8.2839652 58.99505,9.3084465 q 0.05254,0.8537345 0.888759,0.8537345 h 0.09194 V 10.959 h -0.100697 q -0.485972,0 -0.779306,-0.175125 -0.288957,-0.175125 -0.46846,-0.494729 -0.236419,0.345872 -0.621694,0.507863 Q 57.620318,10.959 57.200018,10.959 h -0.4203 v -0.796819 h 0.4203 q 0.556022,0 0.792441,-0.2495533 0.240797,-0.2495531 0.240797,-0.7661718 0,-0.21015 -0.01313,-0.3984094 -0.0088,-0.1882594 -0.02627,-0.3765188 z m 0.08318,-2.1803063 0.634828,0.6348282 -0.634828,0.6348281 -0.634828,-0.6348281 z m -3.222302,4.8684756 q -0.437812,0 -0.809953,-0.18826 Q 53.87702,10.6788 53.47861,10.293525 53.194032,10.613128 52.931345,10.788253 52.668657,10.959 52.191442,10.959 h -0.192638 v -0.796819 h 0.170747 q 0.293334,0 0.494728,-0.1663689 0.201394,-0.1707469 0.359006,-0.4378125 0.157613,-0.2670656 0.310847,-0.5647781 0.157613,-0.3020907 0.35025,-0.5691563 0.192638,-0.2670656 0.464082,-0.4334344 0.275821,-0.1707468 0.678609,-0.1707468 0.485972,0 0.844978,0.2364187 0.363384,0.2320406 0.5604,0.6260719 0.201394,0.3940313 0.201394,0.8800031 0,0.7136343 -0.363385,1.1076653 -0.359006,0.389654 -1.015725,0.389654 z m -0.21015,-2.4648849 q -0.218906,0 -0.398409,0.1488562 -0.179503,0.1444782 -0.323981,0.3765188 -0.144478,0.2320406 -0.25831,0.4815938 0.262688,0.2758218 0.542888,0.4509471 0.359006,0.23204 0.639206,0.23204 0.647963,0 0.647963,-0.6523403 0,-0.455325 -0.227663,-0.7442812 -0.223284,-0.2933344 -0.621694,-0.2933344 z m -0.889354,0.013134 q -0.306469,0.2802 -0.485972,0.5560219 -0.175125,0.2758218 -0.175125,0.6742312 0.310847,0 0.429056,0.1357219 0.122587,0.1357215 0.122587,0.4071655 0,0.267066 -0.135721,0.424678 Q 53.574334,10.959 53.30289,10.959 q -0.345872,0 -0.499106,-0.192638 -0.148857,-0.192637 -0.148857,-0.516619 0,-0.5954246 0.2802,-1.0551278 0.2802,-0.4640812 0.731147,-0.8143312 z M 48.434413,6.6640589 49.047351,7.2726183 48.434413,7.889934 47.825854,7.2726183 Z m -1.453537,0 0.612937,0.6085594 -0.612937,0.6173157 -0.60856,-0.6173157 z m 3.375534,1.7074688 0.731147,-0.087562 0.07443,1.0244813 q 0.02627,0.4159219 0.236419,0.6348281 0.214528,0.2189064 0.639206,0.2189064 h 0.105075 V 10.959 H 52.03761 q -0.494728,0 -0.814331,-0.183882 -0.315225,-0.188259 -0.520997,-0.599803 -0.363384,0.4203 -0.93254,0.604182 Q 49.204963,10.959 48.197995,10.959 h -0.731147 q -1.650553,0 -2.482397,-0.446569 -0.827466,-0.446569 -0.827466,-1.5454783 0,-0.3020906 0.06567,-0.5910469 0.07005,-0.2889562 0.179503,-0.5560218 l 0.67861,0.2539312 q -0.07005,0.1926375 -0.11821,0.4115438 -0.04378,0.2189062 -0.04378,0.4159219 0.0044,0.5122406 0.288956,0.7880625 0.284578,0.2714437 0.849356,0.3721406 0.564779,0.100697 1.409757,0.100697 h 0.731147 q 1.046372,0 1.619906,-0.2189064 0.577912,-0.2189062 0.577912,-0.7968187 0,-0.1795032 -0.01313,-0.3852751 -0.0088,-0.2057718 -0.02627,-0.3896531 z m -9.982123,1.7906533 h 0.661097 q 0.556022,0 0.792441,-0.2495533 0.240797,-0.2495531 0.240797,-0.7661718 0,-0.21015 -0.01313,-0.3984094 -0.0088,-0.1882594 -0.02627,-0.3765188 l 0.731147,-0.087562 0.07005,1.0244813 q 0.05254,0.8537345 0.88876,0.8537345 h 0.09194 V 10.959 h -0.100697 q -0.485971,0 -0.779306,-0.175125 -0.288956,-0.175125 -0.468459,-0.494729 -0.236419,0.345872 -0.621694,0.507863 Q 41.455684,10.959 41.035384,10.959 h -0.661097 z m 1.580503,1.492941 0.612938,0.608559 -0.612938,0.617316 -0.608559,-0.617316 z m -1.453537,0 0.612937,0.608559 -0.612937,0.617316 -0.60856,-0.617316 z M 37.051289,10.162181 Q 36.854274,9.9170059 36.714174,9.5623777 36.578452,9.2033715 36.578452,8.8443652 q 0,-0.4684594 0.245175,-0.8493562 0.245175,-0.3808969 0.643584,-0.6041813 0.39841,-0.2232844 0.858113,-0.2232844 0.696122,0 1.49294,0.5428875 L 39.52493,8.3627715 Q 38.841942,7.959984 38.373483,7.959984 q -0.402787,0 -0.713634,0.2495531 -0.310847,0.2495531 -0.310847,0.665475 0,0.3239813 0.144478,0.5735344 0.148856,0.2495531 0.315225,0.3896531 0.166369,0.1357219 0.223284,0.1357219 0.07881,0 0.153235,-0.021891 L 40.037171,9.5098402 V 10.306659 Q 38.947017,10.639397 38.018855,10.801387 37.095071,10.959 36.184421,10.959 h -0.477216 v -0.796819 z m -1.689955,0.04816 q 0,2.556825 -2.806378,3.095335 l -0.258309,-0.696122 q 1.006968,-0.192638 1.606771,-0.643585 0.599804,-0.446568 0.709257,-1.125178 -0.166369,0.05254 -0.385275,0.09194 -0.218907,0.0394 -0.385275,0.0394 -1.598016,0 -1.598016,-1.3572188 0,-0.3239812 0.09632,-0.6479625 0.100697,-0.3283594 0.288956,-0.5998031 0.192638,-0.2758219 0.468459,-0.4421906 0.275822,-0.1663688 0.626072,-0.1663688 0.415922,0 0.722391,0.2057719 0.310847,0.2057719 0.512241,0.5560219 0.201393,0.35025 0.30209,0.7880625 0.100697,0.4378125 0.100697,0.9018935 z m -1.497319,-0.03065 q 0.385275,0 0.766172,-0.113831 -0.04378,-0.7355249 -0.271444,-1.125178 -0.227662,-0.3940313 -0.643584,-0.3940313 -0.288956,0 -0.450947,0.1795031 -0.157612,0.1795032 -0.223284,0.4246782 -0.06129,0.2407969 -0.06129,0.4378125 0,0.3196031 0.218906,0.4553245 0.218907,0.135722 0.665475,0.135722 z M 31.654498,10.959 q -0.302091,0 -0.507863,-0.07881 -0.201393,-0.08318 -0.315225,-0.175125 -0.06567,0.573535 -0.319603,1.107666 -0.249553,0.538509 -0.753037,0.936919 -0.503485,0.398409 -1.33095,0.5604 l -0.25831,-0.691744 q 1.068263,-0.232041 1.506075,-0.814331 0.437813,-0.577913 0.437813,-1.370353 0,-0.372141 -0.08319,-0.7793066 -0.07881,-0.4115438 -0.223284,-0.8362219 l 0.726769,-0.245175 0.236419,0.9150281 q 0.09632,0.3677625 0.306468,0.5209964 0.21015,0.153235 0.529753,0.153235 h 0.166369 V 10.959 Z M 24.553179,5.2017652 25.144226,5.792812 24.553179,6.3838589 23.962132,5.792812 Z m 0.748659,1.1076656 0.591047,0.5910469 -0.591047,0.5910469 -0.591047,-0.5910469 z m -1.497319,0 0.591047,0.5910469 -0.591047,0.5910469 -0.591046,-0.5910469 z M 25.910398,10.959 q -0.4203,0 -0.67861,-0.175125 -0.258309,-0.175125 -0.4203,-0.494729 -0.245175,0.354629 -0.547265,0.512241 Q 23.96651,10.959 23.61626,10.959 q -0.503484,0 -0.779306,-0.170747 -0.271444,-0.175125 -0.433435,-0.499107 -0.205771,0.323982 -0.525375,0.499107 Q 21.558541,10.959 20.967494,10.959 h -0.402787 v -0.796819 h 0.411544 q 0.5604,0 0.818709,-0.205772 0.258309,-0.21015 0.258309,-0.7617938 0,-0.1138312 -0.01313,-0.2670656 -0.0088,-0.1576125 -0.03065,-0.4378125 l 0.731147,-0.091941 0.07005,0.9150281 q 0.02627,0.3677625 0.223284,0.6085594 0.201394,0.240797 0.591047,0.240797 0.464082,0 0.63045,-0.2495533 0.166369,-0.2495531 0.166369,-0.7180125 0,-0.1138312 -0.01313,-0.2714437 -0.0088,-0.1576125 -0.03065,-0.4334344 l 0.731147,-0.091941 0.07005,0.9150281 q 0.02189,0.3546281 0.188259,0.6041813 0.166369,0.2451751 0.538509,0.2451751 0.647963,0 0.647963,-0.9675658 0,-0.1576125 -0.01313,-0.3283594 -0.0088,-0.1707468 -0.03065,-0.4509468 l 0.731147,-0.087563 0.07005,0.9850781 q 0.05254,0.8493564 0.866868,0.8493564 H 28.30961 V 10.959 h -0.122587 q -0.459704,0 -0.766172,-0.166369 -0.306469,-0.170747 -0.4203,-0.507863 -0.183882,0.323982 -0.424678,0.499107 Q 26.339454,10.959 25.910398,10.959 Z m -7.070674,0.100697 q -0.437813,0 -0.809953,-0.18826 Q 17.662008,10.6788 17.263599,10.293525 16.979021,10.613128 16.716333,10.788253 16.453646,10.959 15.97643,10.959 h -0.192637 v -0.796819 h 0.170746 q 0.293335,0 0.494729,-0.1663689 0.201393,-0.1707469 0.359006,-0.4378125 0.157612,-0.2670656 0.310847,-0.5647781 0.157612,-0.3020907 0.35025,-0.5691563 0.192637,-0.2670656 0.464081,-0.4334344 0.275822,-0.1707468 0.678609,-0.1707468 0.485972,0 0.844978,0.2364187 0.363385,0.2320406 0.5604,0.6260719 0.201394,0.3940313 0.201394,0.8800031 0,0.7136343 -0.363384,1.1076653 -0.359006,0.389654 -1.015725,0.389654 z m -0.21015,-2.4648849 q -0.218906,0 -0.39841,0.1488562 -0.179503,0.1444782 -0.323981,0.3765188 -0.144478,0.2320406 -0.258309,0.4815938 0.262687,0.2758218 0.542887,0.4509471 0.359007,0.23204 0.639207,0.23204 0.647962,0 0.647962,-0.6523403 0,-0.455325 -0.227662,-0.7442812 -0.223285,-0.2933344 -0.621694,-0.2933344 z m -0.889355,0.013134 q -0.306469,0.2802 -0.485972,0.5560219 -0.175125,0.2758218 -0.175125,0.6742312 0.310847,0 0.429056,0.1357219 0.122588,0.1357215 0.122588,0.4071655 0,0.267066 -0.135722,0.424678 -0.135722,0.153235 -0.407166,0.153235 -0.345872,0 -0.499106,-0.192638 -0.148856,-0.192637 -0.148856,-0.516619 0,-0.5954246 0.2802,-1.0551278 0.2802,-0.4640812 0.731147,-0.8143312 z m -4.763395,1.5629905 q 1.6812,0 1.6812,-0.8712468 0,-0.4115437 -0.4203,-0.8712469 -0.4203,-0.4597031 -1.392244,-0.9894562 l 0.345872,-0.6917438 q 1.125178,0.5735344 1.668065,1.2127407 0.547266,0.6348281 0.547266,1.3265719 0,0.8230871 -0.569156,1.2433871 -0.564778,0.4203 -1.795032,0.4203 -0.586668,0 -1.059506,-0.105075 v -0.79244 q 0.573535,0.118209 0.993835,0.118209 z M 9.8727302,4.9303214 H 10.612633 V 9.115809 q 0,0.6173156 0.227663,0.8318437 0.227662,0.2145283 0.687365,0.2145283 h 0.109454 V 10.959 h -0.109454 q -0.836221,0 -1.247765,-0.442191 Q 9.8727302,10.07024 9.8727302,9.1114309 Z M 5.3326138,10.959 H 5.1005732 q -0.9281625,0 -1.4141344,-0.175125 Q 3.2004669,10.60875 2.9990731,10.293525 2.7451419,10.639397 2.4255388,10.801387 2.1103138,10.959 1.5849387,10.959 H 1.4054356 l 0.00438,-0.796819 h 0.175125 q 0.6129376,0 0.8230876,-0.2583095 0.2145281,-0.2626875 0.2145281,-0.7574156 0,-0.21015 -0.017513,-0.3896532 -0.013134,-0.1795031 -0.021891,-0.385275 L 3.3142982,8.2839652 3.37997,9.3084465 q 0.021891,0.2933344 0.1225875,0.5078625 0.1006969,0.21015 0.3108469,0.21015 0.7836844,-1.33095 1.5323438,-1.9614 0.7530375,-0.6348282 1.506075,-0.6348282 0.4991063,0 0.8843813,0.2189063 0.3896531,0.2145281 0.6085594,0.5866687 0.2189062,0.3721407 0.2189062,0.8406001 -0.00438,0.5647781 -0.3371156,1.0025901 0.1269656,0.03065 0.3283594,0.05692 0.2057718,0.02627 0.6041812,0.02627 H 9.2904389 V 10.959 H 9.1634732 Q 8.6074514,10.959 8.244067,10.845168 7.8850607,10.731337 7.6398857,10.529943 7.2808795,10.731337 6.6942107,10.845168 6.1075419,10.959 5.3326138,10.959 Z M 6.8868482,8.2270496 q -1.0551281,0 -2.2810032,1.9351314 h 0.7092563 q 1.2477657,0 1.8607032,-0.2495533 0.6129375,-0.2495531 0.6129375,-0.7924406 0,-0.385275 -0.2495532,-0.6392063 Q 7.2940138,8.2270496 6.8868482,8.2270496 Z M 0.11826867,6.2218683 0.73120618,6.8304277 0.11826867,7.4477433 -0.49029072,6.8304277 Z m -1.45353757,0 0.61293755,0.6085594 -0.61293755,0.6173156 -0.6085593,-0.6173156 z m -0.4728375,3.9403127 h 0.6129375 q 0.55602193,0 0.79244069,-0.2495533 0.24079687,-0.2495531 0.24079687,-0.7661718 0,-0.21015 -0.0131344,-0.3984094 -0.008756,-0.1882594 -0.0262687,-0.3765188 l 0.73114689,-0.087562 0.07005,1.0244813 q 0.0525375,0.8537345 0.88875937,0.8537345 h 0.091941 V 10.959 H 1.4798656 q -0.48597192,0 -0.7793063,-0.175125 Q 0.41160305,10.60875 0.23209992,10.289146 -0.00431883,10.635018 -0.38959384,10.797009 -0.77486885,10.959 -1.1951689,10.959 H -1.8081064 Z M -3.1784606,4.461862 -2.5655231,5.0704214 -3.1784606,5.687737 -3.78702,5.0704214 Z m -1.4535375,0 0.6129375,0.6085594 -0.6129375,0.6173156 -0.6085594,-0.6173156 z m 0.3896531,5.700319 q 0.4947282,0 0.7968188,-0.05692 0.3064687,-0.05692 0.4465687,-0.2495529 0.1444782,-0.1970156 0.1444782,-0.6085594 -0.2145282,0.065672 -0.4378125,0.1006969 -0.2189063,0.035025 -0.4728375,0.035025 -1.4885626,0 -1.4885626,-1.2214969 0,-0.4203 0.1663688,-0.8406 0.1707469,-0.4203 0.4991062,-0.7005 0.3283594,-0.2845781 0.7968188,-0.2845781 0.4290563,0 0.735525,0.2189062 0.3108469,0.2189063 0.5078625,0.5910469 0.2013938,0.3677625 0.2977125,0.8362219 0.096319,0.4640812 0.096319,0.9588094 0,0.6523406 -0.1182094,1.0551281 -0.1138312,0.3984089 -0.3677625,0.6085599 -0.2539313,0.205771 -0.6610969,0.2802 -0.4071656,0.07443 -0.9938344,0.07443 h -1.61115 v -0.796819 z m 0.5385094,-1.5323439 q 0.2013938,0 0.3984094,-0.035025 0.2013937,-0.039403 0.4027875,-0.096319 -0.035025,-0.3108468 -0.1313438,-0.63045 -0.091941,-0.3196031 -0.2758218,-0.5341312 -0.1838813,-0.2189063 -0.49035,-0.2189063 -0.2714438,0 -0.4378126,0.1707469 -0.1619906,0.1707469 -0.2364187,0.4071656 -0.07005,0.2364188 -0.07005,0.4378125 0,0.3020907 0.2145281,0.4027875 0.2189063,0.096319 0.6260719,0.096319 z M -6.4883236,4.9303214 V 10.954622 H -7.2282267 V 4.9303214 Z"
         id="path15" />
    </g>
    <path
       id="path2"
       d="m -85.31427,21.2601 h -89.25108 c -2.75119,0 -4.98139,-2.23021 -4.98139,-4.98138 v -32.55744 c 0,-2.75117 2.2302,-4.98138 4.98139,-4.98138 h 89.25108 c 2.75117,0 4.98138,2.23021 4.98138,4.98138 v 32.55744 c 0,2.75117 -2.23021,4.98138 -4.98138,4.98138 z"
       style="fill:#e6f0fa;fill-opacity:1;fill-rule:nonzero;stroke:#0055a4;stroke-width:0.99628;stroke-linecap:butt;stroke-linejoin:miter;stroke-miterlimit:10;stroke-dasharray:none;stroke-opacity:1"
       transform="matrix(1.3333333,0,0,-1.3333333,259.98267,48.937333)" />
    <g
       id="text2"
       transform="matrix(1.3333333,0,0,1.3333333,52.86,44.554667)"
       aria-label="هﺎﻣ یدشﺰﯿﺧﺮﻔﻧنﻮﯿﻠﯿﻣ۳۰">
      <path
         style="font-weight:800;font-size:8.9664px;font-family:Vazirmatn"
         d="m 41.737785,-3.4193157 -0.175125,-0.1532344 0.735525,-0.9412968 q 0.394031,0.3108468 0.783684,0.6260718 0.389653,0.315225 0.709257,0.6523407 0.323981,0.3371156 0.516618,0.7092562 0.192638,0.3721407 0.192638,0.7924407 0,0.5341312 -0.236419,0.91940624 -0.236419,0.385275 -0.652341,0.59104688 -0.415922,0.20577188 -0.954431,0.20577188 -0.906272,0 -1.379109,-0.44219063 -0.46846,-0.44656876 -0.46846,-1.11642187 0,-0.5472657 0.267066,-0.9719438 0.271444,-0.4290562 0.661097,-0.8712469 z m 1.646175,1.6943344 q 0,-0.1401 -0.126966,-0.3108469 -0.122587,-0.175125 -0.306469,-0.3414937 -0.179503,-0.1663688 -0.345871,-0.2933344 -0.153235,0.1357219 -0.310847,0.3108469 -0.153235,0.175125 -0.25831,0.35025 -0.105075,0.175125 -0.105075,0.3196031 0,0.2013938 0.192638,0.315225 0.197015,0.1094532 0.529753,0.1094532 0.731147,0 0.731147,-0.4597032 z m -4.82907,-4.4131501 h 1.182094 v 4.0016064 q 0,0.4640812 0.135722,0.6698531 0.135722,0.2013938 0.5604,0.2013938 h 0.109453 V 0 H 40.433106 Q 39.452406,0 39.001459,-0.50786251 38.55489,-1.015725 38.55489,-2.03145 Z m -2.495531,6.23882828 q -0.455325,0 -0.853735,-0.19263751 -0.394031,-0.19701562 -0.77055,-0.48597188 -0.240796,0.24079688 -0.503484,0.41154376 Q 33.673281,0 33.174174,0 h -0.192637 v -1.2652781 h 0.170747 q 0.214528,0 0.385275,-0.1663688 0.175125,-0.1663688 0.332737,-0.4290563 0.161991,-0.2670656 0.337116,-0.5604 0.179503,-0.2977125 0.398409,-0.5604 0.223285,-0.2670656 0.516619,-0.4334344 0.293334,-0.1663687 0.687366,-0.1663687 0.551643,0 0.954431,0.2626875 0.402787,0.2583094 0.621694,0.6873656 0.218906,0.4246782 0.218906,0.9281625 0,0.5166188 -0.170747,0.92378444 -0.170747,0.40716563 -0.516619,0.64358438 -0.341493,0.23641876 -0.858112,0.23641876 z m -0.21015,-2.47801878 q -0.179503,0 -0.323981,0.1225875 -0.144479,0.1182094 -0.253932,0.2889562 -0.109453,0.1707469 -0.183881,0.3239813 0.126966,0.1138313 0.240797,0.1970156 0.113831,0.083184 0.218906,0.1444782 0.157613,0.087562 0.288956,0.1225875 0.131344,0.035025 0.227663,0.035025 0.232041,0 0.332737,-0.1663688 0.100697,-0.1707469 0.100697,-0.385275 0,-0.2758219 -0.170747,-0.4772156 -0.170746,-0.2057719 -0.477215,-0.2057719 z M 26.563627,0 H 25.62233 v -1.2652781 h 0.945675 q 0.332738,0 0.455325,-0.2057719 0.126966,-0.21015 0.126966,-0.5297532 0,-0.2977125 -0.07443,-0.6479625 -0.07005,-0.3546281 -0.144478,-0.6917437 l 1.147068,-0.2977125 q 0.08319,0.4115437 0.131344,0.8187094 0.05254,0.4027875 0.05254,0.77055 0,0.5822906 -0.157613,1.0463719 -0.153234,0.46408122 -0.525375,0.73552497 Q 27.207211,0 26.563627,0 Z M 25.736161,0.56040001 26.480443,1.295925 27.215968,0.56040001 27.964627,1.3046813 27.215968,2.0577188 26.480443,1.3134375 25.736161,2.0577188 24.99188,1.3046813 Z M 23.691576,-1.89135 q 0,-0.1094532 -0.04816,-0.2889563 -0.04816,-0.1795031 -0.100697,-0.2933344 l -0.866868,-1.9132406 1.041993,-0.5078625 1.090153,2.5130438 q 0.131344,0.3020906 0.232041,0.5560218 0.105075,0.2539313 0.236419,0.4071657 0.135722,0.1532344 0.345872,0.1532344 H 25.80621 V 0 h -0.183881 q -0.49035,0 -0.792441,-0.18388125 -0.297712,-0.18825938 -0.525375,-0.48159376 -0.332737,0.31960313 -0.792441,0.49035001 -0.459703,0.17074687 -1.112043,0.17074687 -0.385275,0 -0.652341,-0.02626875 -0.267066,-0.02626875 -0.551644,-0.09631875 V -1.3922438 q 0.271444,0.065672 0.573535,0.1006969 0.306468,0.035025 0.564778,0.035025 0.323981,0 0.634828,-0.052537 0.310847,-0.056916 0.516619,-0.1970156 0.205772,-0.1401 0.205772,-0.385275 z m -3.919053,-4.3606126 0.704878,0.7005 -0.704878,0.7048781 -0.704878,-0.7048781 z m 0.766172,1.1164219 0.704878,0.7048781 -0.704878,0.7048782 -0.704878,-0.7048782 z m -1.527965,0 0.7005,0.7048781 -0.7005,0.7048782 -0.704879,-0.7048782 z M 18.839983,0 Q 18.638589,0 18.47222,-0.06129375 18.31023,-0.12696563 18.17013,-0.21015 q -0.122588,1.12955627 -0.8406,1.7950313 -0.713635,0.665475 -1.970157,0.665475 -0.941297,0 -1.554234,-0.3590063 -0.60856,-0.3590062 -0.901894,-0.98069999 -0.293334,-0.62169376 -0.293334,-1.40100002 0,-0.52099689 0.113831,-1.07701879 0.113831,-0.5604 0.328359,-1.1164219 l 1.063885,0.4071657 q -0.161991,0.4640812 -0.271444,0.9062719 -0.109453,0.44219058 -0.109453,0.82746559 0,0.42030001 0.148856,0.77055001 0.148856,0.35025001 0.503484,0.56040001 0.354629,0.21015001 0.971944,0.21015001 0.63045,0 0.993835,-0.20139376 0.367762,-0.20139375 0.520997,-0.54726563 0.157612,-0.34587188 0.157612,-0.78368439 0,-0.47283754 -0.153234,-0.97194374 -0.148857,-0.5034844 -0.337116,-0.9588094 l 1.168959,-0.4378125 0.293335,0.9018937 q 0.100697,0.3064688 0.293334,0.5209969 0.197016,0.21015 0.551644,0.2145282 0.363384,0 0.481594,-0.1663688 0.122587,-0.1707469 0.122587,-0.5560219 0,-0.061294 -0.0088,-0.2145281 -0.0088,-0.1576125 -0.02189,-0.3458719 -0.01313,-0.1882594 -0.02627,-0.3458719 l 1.103287,-0.1357218 0.09194,1.1820937 q 0.02189,0.2670656 0.135722,0.4246782 0.113831,0.1576125 0.394031,0.1576125 0.262687,0 0.359006,-0.2057719 0.100697,-0.21015 0.100697,-0.4991063 0,-0.2495531 -0.04816,-0.5122406 -0.04378,-0.2670656 -0.100697,-0.4815938 -0.05254,-0.2189062 -0.07881,-0.3196031 l 1.133935,-0.3108469 q 0.08756,0.3458719 0.144478,0.7399032 0.05692,0.3896531 0.05692,0.7749281 0,0.5428875 -0.144479,1.0201031 -0.1401,0.47283754 -0.481593,0.76617192 Q 21.720789,0 21.129742,0 20.731333,0 20.464267,-0.16199063 20.197201,-0.32398126 20.01332,-0.56040001 19.790036,-0.32398126 19.505458,-0.16199063 19.225258,0 18.839983,0 Z M 9.8924263,-5.1005157 10.680489,-4.3124532 9.8924263,-3.5287688 9.1087419,-4.3124532 Z M 11.512333,0 Q 11.113923,0 10.855614,-0.15323438 10.680489,0.85373439 9.9931232,1.5104531 9.3101357,2.1671719 8.167445,2.3860782 L 7.7340107,1.2171188 Q 8.3688388,1.0813969 8.8241638,0.85373439 9.2838669,0.63045001 9.5334201,0.25393125 9.7829732,-0.1225875 9.7829732,-0.71801251 9.7829732,-1.1164219 9.6560076,-1.61115 9.5290419,-2.1102563 9.3845638,-2.5393125 l 1.1777152,-0.3808969 0.253932,0.9894562 q 0.07443,0.2802 0.218906,0.4728376 0.144478,0.1926375 0.429056,0.1926375 H 11.63492 V 0 Z M 4.6211638,-1.2652781 h 0.6610969 q 0.4815938,0 0.6610969,-0.1619907 0.1838812,-0.1663687 0.1838812,-0.6041812 0,-0.2583094 -0.013134,-0.4991063 -0.013134,-0.245175 -0.030647,-0.4772156 l 1.0945313,-0.1357219 0.087562,1.2521438 q 0.021891,0.3327375 0.1838812,0.4815937 0.1619906,0.1444782 0.5166188,0.1444782 H 8.057992 V 0 H 7.9572951 Q 7.5194826,0 7.2042576,-0.1576125 6.8934107,-0.31522501 6.692017,-0.56915626 6.4249513,-0.30209063 6.0571888,-0.14885625 5.6938045,0 5.2822607,0 H 4.6211638 Z M 4.7349951,0.56040001 5.4792763,1.295925 6.2148013,0.56040001 6.9634607,1.3046813 6.2148013,2.0577188 5.4792763,1.3134375 4.7349951,2.0577188 3.9907138,1.3046813 Z M 1.2412512,-6.1206188 2.0293138,-5.3325563 1.2412512,-4.5488719 0.45756686,-5.3325563 Z m -2.7275719,4.8553407 h 0.74428129 q 0.56477813,0 1.05075001,-0.105075 0.48597189,-0.1094532 0.9982125,-0.3239813 0.5166188,-0.2145281 1.1733375,-0.5341313 -0.6742312,-0.245175 -1.0901531,-0.4115437 -0.41592188,-0.1707469 -0.56915626,-0.1707469 -0.23641876,0 -0.42905626,0.1488563 -0.18825938,0.1444781 -0.31084688,0.3064687 l -0.23204063,0.2933344 -0.98069997,-0.4815938 0.19701558,-0.315225 q 0.31084688,-0.5078625 0.74428127,-0.8406 0.43343438,-0.3371156 1.01572501,-0.3371156 0.24517504,0 0.56915624,0.1138312 0.3283594,0.1138313 0.7005,0.2845782 0.3765188,0.1663687 0.7749282,0.3371156 0.4027875,0.1663687 0.7924406,0.2845781 0.3940313,0.1182094 0.7530375,0.1225875 v 1.1602032 q -0.3327375,0.043781 -0.6173156,0.1488562 -0.2845781,0.1006969 -0.5910469,0.2583094 -0.3064688,0.1576125 -0.7136344,0.37651876 -0.5604,0.2977125 -1.0595063,0.51224063 Q 0.93916062,-0.22328438 0.41378561,-0.10945313 -0.10721128,0 -0.75517379,0 H -1.4863207 Z"
         id="path16" />
      <path
         style="font-size:8.9664px;font-family:Vazirmatn"
         d="m 36.412101,10.959 q -0.302091,0 -0.507863,-0.07881 -0.201393,-0.08318 -0.315225,-0.175125 -0.06567,0.573535 -0.319603,1.107666 -0.249553,0.538509 -0.753037,0.936919 -0.503485,0.398409 -1.33095,0.5604 l -0.25831,-0.691744 q 1.068263,-0.232041 1.506075,-0.814331 0.437813,-0.577913 0.437813,-1.370353 0,-0.372141 -0.08319,-0.7793066 -0.07881,-0.4115438 -0.223284,-0.8362219 l 0.726769,-0.245175 0.236419,0.9150281 q 0.09632,0.3677625 0.306468,0.5209964 0.21015,0.153235 0.529753,0.153235 H 36.53031 V 10.959 Z M 30.8475,5.3549995 31.482328,5.9898277 30.8475,6.6246558 30.212672,5.9898277 Z m 1.584881,3.5419032 q 0,0.3458719 -0.153234,0.6435844 -0.153234,0.2933344 -0.4203,0.6041809 0.249553,0.01314 0.442191,0.01751 0.192637,0 0.341493,0 h 0.424678 V 10.959 h -0.411543 q -0.166369,0 -0.459703,-0.02627 -0.288957,-0.03065 -0.639207,-0.100697 -0.345872,-0.07005 -0.682987,-0.188259 -0.337116,0.122587 -0.691744,0.192637 -0.354628,0.06567 -0.656719,0.09632 -0.30209,0.02627 -0.481594,0.02627 h -0.612937 v -0.796819 h 0.612937 q 0.183882,0 0.380897,0 0.201394,-0.0044 0.485972,-0.02189 -0.262687,-0.3064685 -0.411543,-0.6085591 -0.148857,-0.3020907 -0.148857,-0.6435844 0,-0.2714438 0.126966,-0.5472657 0.126966,-0.2758218 0.341494,-0.5122406 0.214528,-0.2364187 0.49035,-0.3765187 0.275822,-0.1444782 0.569156,-0.1444782 0.306469,0 0.586669,0.1444782 0.2802,0.1401 0.494728,0.3765187 0.218906,0.2320406 0.345872,0.5122406 0.126965,0.2802 0.126965,0.5560219 z M 30.878147,8.0825715 q -0.166369,0 -0.35025,0.1269656 -0.179503,0.1225875 -0.306469,0.3108469 -0.122587,0.1882593 -0.122587,0.385275 0,0.2013937 0.118209,0.4115437 0.118209,0.21015 0.297713,0.385275 0.183881,0.175125 0.37214,0.2714438 0.332738,-0.1401 0.564778,-0.4509469 0.236419,-0.315225 0.236419,-0.6260719 0,-0.1838812 -0.131344,-0.3721406 Q 31.429791,8.3365027 31.241531,8.2095371 31.053272,8.0825715 30.878147,8.0825715 Z M 26.587586,10.959 h -0.713635 v -0.796819 h 0.704878 q 0.437813,0 0.591047,-0.2539314 0.157613,-0.2539312 0.157613,-0.6435844 0,-0.2845781 -0.05254,-0.6085594 -0.05254,-0.3239812 -0.113831,-0.6523406 l 0.761794,-0.1926375 q 0.07443,0.35025 0.118209,0.6873656 0.04378,0.3371157 0.04378,0.6435844 0,0.525375 -0.144478,0.9369183 -0.144478,0.411544 -0.472837,0.647963 Q 27.139229,10.959 26.587586,10.959 Z M 27.121717,5.792812 27.756545,6.4276402 27.121717,7.0624683 26.486889,6.4276402 Z M 25.26042,7.2419714 25.895248,7.8767996 25.26042,8.5116277 24.625591,7.8767996 Z m 0.05254,4.8640966 q 0.731147,0 1.129556,-0.240796 0.402788,-0.236419 0.5604,-0.626072 0.161991,-0.385275 0.161991,-0.827466 0,-0.5209969 -0.1401,-1.0288594 -0.1401,-0.5078625 -0.262688,-0.8318438 l 0.74866,-0.3020906 q 0.205772,0.5647781 0.310847,1.0989094 0.109453,0.5297531 0.109453,1.0113464 0,0.739904 -0.275822,1.313438 -0.271444,0.573534 -0.849356,0.897516 -0.577913,0.323981 -1.492941,0.323981 -0.945675,0 -1.514831,-0.345872 -0.564778,-0.345872 -0.81871,-0.923784 -0.249553,-0.573535 -0.249553,-1.2609 0,-0.4640816 0.09632,-0.9500535 0.09632,-0.49035 0.262688,-0.9544313 l 0.696121,0.2802 q -0.126965,0.4027875 -0.214528,0.8274657 -0.08756,0.4246781 -0.08756,0.8230871 0,0.472838 0.166369,0.862491 0.170746,0.389653 0.569156,0.621694 0.398409,0.23204 1.094531,0.23204 z M 20.216818,7.7585902 q 0.682987,0 1.151446,0.6129375 0.46846,0.6085594 0.485972,1.7906533 h 0.529753 V 10.959 h -0.599803 q -0.09632,0.503484 -0.385275,0.971943 -0.284578,0.472838 -0.849356,0.831844 -0.564778,0.363385 -1.497319,0.542888 L 18.793927,12.609553 Q 20.777218,12.228656 21.092443,10.959 h -0.691744 q -1.65931,0 -1.65931,-1.3440848 0,-0.4290562 0.170747,-0.8581125 0.175125,-0.4290562 0.503485,-0.7136344 0.332737,-0.2845781 0.801197,-0.2845781 z m 0.1401,2.4035908 h 0.774928 q -0.05254,-0.8449783 -0.2802,-1.2302533 -0.223285,-0.385275 -0.647963,-0.385275 -0.2802,0 -0.44219,0.1795031 -0.157613,0.1795032 -0.223285,0.4246782 -0.06129,0.2407969 -0.06129,0.4378125 0,0.3064687 0.205772,0.4421905 0.21015,0.131344 0.674232,0.131344 z m -5.398229,0 h 0.661097 q 0.556022,0 0.792441,-0.2495533 0.240797,-0.2495531 0.240797,-0.7661718 0,-0.21015 -0.01313,-0.3984094 -0.0088,-0.1882594 -0.02627,-0.3765188 l 0.731147,-0.087562 0.07005,1.0244813 q 0.05254,0.8537345 0.888759,0.8537345 h 0.09194 V 10.959 h -0.100697 q -0.485972,0 -0.779307,-0.175125 -0.288956,-0.175125 -0.468459,-0.494729 -0.236419,0.345872 -0.621694,0.507863 Q 16.040086,10.959 15.619786,10.959 h -0.661097 z m 1.580504,1.492941 0.612937,0.608559 -0.612937,0.617316 -0.60856,-0.617316 z m -1.453538,0 0.612938,0.608559 -0.612938,0.617316 -0.608559,-0.617316 z M 13.378187,9.0413809 V 4.9303214 h 0.739903 v 4.1241938 q 0,0.4815938 0.18826,0.7968188 0.192637,0.310847 0.696121,0.310847 h 0.1401 V 10.959 h -0.131343 q -0.49035,0 -0.779307,-0.170747 -0.288956,-0.170747 -0.459703,-0.494728 -0.144478,0.214528 -0.293334,0.363384 -0.144478,0.148856 -0.372141,0.227663 -0.223284,0.07443 -0.612937,0.07443 h -0.376519 v -0.796819 h 0.367762 q 0.367763,0 0.556022,-0.144478 0.192638,-0.1488565 0.262688,-0.4027878 0.07443,-0.2539312 0.07443,-0.5735343 z M 8.8555839,10.162181 h 0.6610969 q 0.5560222,0 0.7924402,-0.2495533 0.240797,-0.2495531 0.240797,-0.7661718 0,-0.21015 -0.01313,-0.3984094 -0.0088,-0.1882594 -0.02627,-0.3765188 l 0.731147,-0.087562 0.07005,1.0244813 q 0.05254,0.8537345 0.888759,0.8537345 h 0.09194 V 10.959 h -0.100697 q -0.485972,0 -0.779306,-0.175125 Q 11.123453,10.60875 10.94395,10.289146 10.707531,10.635018 10.322256,10.797009 9.9369808,10.959 9.5166808,10.959 H 8.8555839 Z m 1.5805031,1.492941 0.612938,0.608559 -0.612938,0.617316 -0.6085594,-0.617316 z m -1.4535375,0 0.6129375,0.608559 -0.6129375,0.617316 -0.6085594,-0.617316 z M 7.139359,11.059697 q -0.4378125,0 -0.8099531,-0.18826 Q 5.9616434,10.6788 5.563234,10.293525 5.2786559,10.613128 5.0159684,10.788253 4.7532809,10.959 4.2760652,10.959 H 4.0834277 v -0.796819 h 0.1707469 q 0.2933344,0 0.4947281,-0.1663689 Q 4.9502965,9.8250652 5.107909,9.5579996 5.2655215,9.290934 5.4187559,8.9932215 5.5763684,8.6911308 5.7690059,8.4240652 5.9616434,8.1569996 6.2330871,7.9906308 6.508909,7.819884 6.9116965,7.819884 q 0.4859719,0 0.8449782,0.2364187 0.3633843,0.2320406 0.5604,0.6260719 0.2013937,0.3940313 0.2013937,0.8800031 0,0.7136343 -0.3633844,1.1076653 -0.3590062,0.389654 -1.015725,0.389654 z M 6.929209,8.5948121 q -0.2189062,0 -0.3984094,0.1488562 Q 6.3512965,8.8881465 6.2068184,9.1201871 6.0623403,9.3522277 5.948509,9.6017809 q 0.2626875,0.2758218 0.5428875,0.4509471 0.3590063,0.23204 0.6392063,0.23204 0.6479625,0 0.6479625,-0.6523403 0,-0.455325 -0.2276625,-0.7442812 Q 7.3276184,8.5948121 6.929209,8.5948121 Z M 45.482595,7.7323215 q -0.293335,0 -0.5604,-0.1182094 -0.267066,-0.1225875 -0.4203,-0.4027875 -0.148857,0.2758219 -0.4203,0.3984094 -0.271444,0.1225875 -0.477216,0.1225875 -0.148856,0 -0.267066,-0.00876 -0.113831,-0.013134 -0.2802,-0.07005 0.04816,0.5034844 0.07005,0.8800031 0.02627,0.3765188 0.03502,0.7180126 0.0088,0.3371156 0.0088,0.7267687 V 10.959 H 42.417907 V 9.9651652 q 0,-1.4666719 -0.153234,-2.5962281 Q 42.115817,6.2393808 41.68676,5.3549995 l 0.687366,-0.245175 q 0.135722,0.3458719 0.227662,0.595425 0.09194,0.2451751 0.218907,0.5560219 0.113831,0.2802 0.262687,0.49035 0.148856,0.21015 0.46846,0.2145282 0.315225,0 0.459703,-0.1926375 0.148856,-0.1926375 0.153234,-0.7968188 l 0.0044,-0.5604 0.7005,-0.030647 0.01751,0.5122407 q 0.02189,0.6260718 0.157612,0.8493562 0.135722,0.2189063 0.429056,0.2189063 0.214529,0 0.32836,-0.1444782 0.118209,-0.1488562 0.166369,-0.3808968 0.04816,-0.2320407 0.04816,-0.4859719 0,-0.1926375 -0.02189,-0.3808969 -0.01751,-0.1926375 -0.04378,-0.3414938 l 0.753038,-0.065672 q 0.02627,0.2889562 0.02627,0.5735343 0,0.5253751 -0.113831,0.9807001 -0.109453,0.455325 -0.380897,0.735525 -0.271444,0.2758219 -0.753037,0.2758219 z m 2.281002,1.1339343 q 0,-0.3590062 0.170747,-0.6523406 0.175125,-0.2933344 0.468459,-0.4640812 0.293335,-0.175125 0.652341,-0.175125 0.359006,0 0.65234,0.175125 0.293335,0.1707468 0.464082,0.4640812 0.175125,0.2933344 0.175125,0.6523406 0,0.3590063 -0.175125,0.6523407 -0.170747,0.2933344 -0.464082,0.4684594 -0.293334,0.1707471 -0.65234,0.1707471 -0.359006,0 -0.652341,-0.1707471 Q 48.109469,9.8119309 47.934344,9.5185965 47.763597,9.2252621 47.763597,8.8662558 Z m 0.669853,0 q 0,0.2583094 0.179503,0.4421907 0.183881,0.1795031 0.442191,0.1795031 0.258309,0 0.437812,-0.1795031 0.183882,-0.1838813 0.183882,-0.4421907 0,-0.2583093 -0.183882,-0.4378125 -0.179503,-0.1838812 -0.437812,-0.1838812 -0.25831,0 -0.442191,0.1838812 -0.179503,0.1795032 -0.179503,0.4378125 z"
         id="path17" />
    </g>
    <path
       id="path4"
       d="M 174.56535,21.2601 H 85.31427 c -2.75117,0 -4.98138,-2.23021 -4.98138,-4.98138 v -32.55744 c 0,-2.75117 2.23021,-4.98138 4.98138,-4.98138 h 89.25108 c 2.75119,0 4.98139,2.23021 4.98139,4.98138 v 32.55744 c 0,2.75117 -2.2302,4.98138 -4.98139,4.98138 z"
       style="fill:#e6f0fa;fill-opacity:1;fill-rule:nonzero;stroke:#0055a4;stroke-width:0.99628;stroke-linecap:butt;stroke-linejoin:miter;stroke-miterlimit:10;stroke-dasharray:none;stroke-opacity:1"
       transform="matrix(1.3333333,0,0,-1.3333333,259.98267,48.937333)" />
    <g
       id="text4"
       transform="matrix(1.3333333,0,0,1.3333333,397.38933,44.554667)"
       aria-label="ﻦﯿﻧﻮﺧبﻮﮐﺮﺳﻪﺘﺸﮐراﺰﻫﺎﻫ هد">
      <path
         style="font-weight:800;font-size:8.9664px;font-family:Vazirmatn"
         d="M 46.848073,-3.8002126 47.636135,-3.01215 46.848073,-2.2284657 46.064388,-3.01215 Z m 0.05254,4.79842512 q 0.63045,0 0.993835,-0.20139376 0.367762,-0.20139375 0.520996,-0.54726563 0.157613,-0.34587188 0.157613,-0.78368439 0,-0.47283754 -0.153234,-0.97194374 -0.148857,-0.5034844 -0.337116,-0.9588094 l 1.168959,-0.4378125 0.35025,1.0638844 q 0.07443,0.2276625 0.227663,0.4027875 0.153234,0.1707469 0.44219,0.1707469 h 0.175125 V 0 h -0.157612 q -0.188259,0 -0.328359,-0.03064688 -0.1401,-0.03064687 -0.262688,-0.11820937 -0.1401,1.10766564 -0.849356,1.75125005 -0.709256,0.6479625 -1.948266,0.6479625 -0.941297,0 -1.554234,-0.3590063 -0.60856,-0.3590062 -0.901894,-0.98069999 -0.293334,-0.62169376 -0.293334,-1.40100002 0,-0.52099689 0.113831,-1.07701879 0.113831,-0.5604 0.328359,-1.1164219 l 1.063885,0.4071657 q -0.161991,0.4640812 -0.271444,0.9062719 -0.109453,0.44219058 -0.109453,0.82746559 0,0.42030001 0.148856,0.77055001 0.148856,0.35025001 0.503484,0.56040001 0.354628,0.21015001 0.971944,0.21015001 z M 40.429743,-1.2652781 h 0.661097 q 0.481594,0 0.661097,-0.1619907 0.183881,-0.1663687 0.183881,-0.6041812 0,-0.2583094 -0.01313,-0.4991063 -0.01313,-0.245175 -0.03065,-0.4772156 l 1.094531,-0.1357219 0.08756,1.2521438 q 0.02189,0.3327375 0.183881,0.4815937 0.161991,0.1444782 0.516619,0.1444782 h 0.09194 V 0 H 43.765875 Q 43.328062,0 43.012837,-0.1576125 42.70199,-0.31522501 42.500596,-0.56915626 42.233531,-0.30209063 41.865768,-0.14885625 41.502384,0 41.09084,0 H 40.429743 Z M 40.543575,0.56040001 41.287856,1.295925 42.023381,0.56040001 42.77204,1.3046813 42.023381,2.0577188 41.287856,1.3134375 40.543575,2.0577188 39.799293,1.3046813 Z M 38.468343,0 h -0.696122 v -1.2652781 h 0.7005 q 0.332737,0 0.455325,-0.2057719 0.126965,-0.21015 0.126965,-0.5297532 0,-0.2977125 -0.07443,-0.6479625 -0.07005,-0.3546281 -0.144478,-0.6917437 l 1.147069,-0.2977125 q 0.08318,0.4115437 0.131344,0.8187094 0.05254,0.4027875 0.05254,0.77055 0,0.5822906 -0.157612,1.0463719 -0.157613,0.46408122 -0.529754,0.73552497 Q 39.111927,0 38.468343,0 Z m 0.516618,-5.7090751 0.788063,0.7880625 -0.788063,0.7836844 -0.783684,-0.7836844 z m -3.169764,2.0883657 q 0.551644,0 0.936919,0.3283593 0.385275,0.3283594 0.604181,0.8668688 0.218906,0.5341313 0.262688,1.1602032 h 0.328359 V 0 h -0.415922 q -0.249553,0.99821252 -0.9807,1.5673688 -0.731147,0.5735344 -1.996425,0.8187094 L 34.120863,1.2171188 Q 34.672506,1.1120438 35.140966,0.93691877 35.613803,0.76179376 35.937785,0.52537501 36.266144,0.28895625 36.375597,0 H 35.964053 Q 35.079672,0 34.615591,-0.36776251 34.15151,-0.73990314 34.15151,-1.5673688 q 0,-0.3239812 0.100696,-0.6786094 0.100697,-0.3590062 0.306469,-0.6698531 0.205772,-0.315225 0.516619,-0.5078625 0.315225,-0.1970156 0.739903,-0.1970156 z m 0.144478,2.3554313 h 0.5604 q -0.02627,-0.245175 -0.105075,-0.5034844 -0.07443,-0.2583094 -0.223284,-0.4334344 -0.144478,-0.175125 -0.385275,-0.175125 -0.205772,0 -0.328359,0.1313437 -0.11821,0.1269657 -0.170747,0.3064688 -0.04816,0.175125 -0.04816,0.3239812 0,0.2320407 0.192638,0.2933344 0.197015,0.056916 0.507862,0.056916 z m -5.6434,-4.8553407 0.788063,0.7880625 -0.788063,0.7836844 -0.783684,-0.7836844 z m -2.727572,4.8553407 h 0.744281 q 0.564779,0 1.05075,-0.105075 0.485972,-0.1094532 0.998213,-0.3239813 0.516619,-0.2145281 1.173338,-0.5341313 -0.674232,-0.245175 -1.090154,-0.4115437 -0.415921,-0.1707469 -0.569156,-0.1707469 -0.236419,0 -0.429056,0.1488563 -0.18826,0.1444781 -0.310847,0.3064687 l -0.232041,0.2933344 -0.9807,-0.4815938 0.197016,-0.315225 q 0.310847,-0.5078625 0.744281,-0.8406 0.433435,-0.3371156 1.015725,-0.3371156 0.245175,0 0.569157,0.1138312 0.328359,0.1138313 0.7005,0.2845782 0.376518,0.1663687 0.774928,0.3371156 0.402787,0.1663687 0.79244,0.2845781 0.394032,0.1182094 0.753038,0.1225875 v 1.1602032 q -0.332738,0.043781 -0.617316,0.1488562 -0.284578,0.1006969 -0.591047,0.2583094 -0.306468,0.1576125 -0.713634,0.37651876 -0.5604,0.2977125 -1.059506,0.51224063 -0.494728,0.21452813 -1.020104,0.32835938 Q 28.967813,0 28.31985,0 H 27.588703 Z M 25.981511,0.51661876 26.769573,1.3046813 25.981511,2.0883657 25.197826,1.3046813 Z M 26.699523,0 h -1.011347 q -0.757415,0 -1.396622,-0.09194063 -0.634828,-0.09631875 -1.107665,-0.3327375 -0.46846,-0.23641876 -0.731147,-0.66109687 -0.258309,-0.4290563 -0.258309,-1.0945313 0,-0.3940312 0.08756,-0.7661719 0.08756,-0.3765187 0.218906,-0.6961219 l 1.055128,0.3940313 q -0.07443,0.2057719 -0.153234,0.4815938 -0.07443,0.2714437 -0.07443,0.5166187 0,0.4378125 0.323981,0.6479625 0.323981,0.21015 0.858113,0.2758219 0.538509,0.061294 1.177715,0.061294 h 1.024482 q 0.809953,0 1.2609,-0.1444782 0.455325,-0.1444781 0.455325,-0.5822906 0,-0.2889563 -0.07005,-0.6567188 -0.06567,-0.3677625 -0.148857,-0.7005 l 1.151447,-0.2889562 q 0.08756,0.4115437 0.135722,0.8187094 0.04816,0.4027875 0.04816,0.7661718 0,0.6567188 -0.218907,1.06388443 -0.218906,0.40716564 -0.612937,0.62169376 -0.389653,0.21452813 -0.906272,0.29333438 Q 27.29057,0 26.699523,0 Z m -6.908681,-3.6207094 q 0.551644,0 0.936919,0.3283593 0.385275,0.3283594 0.604181,0.8668688 0.218906,0.5341313 0.262688,1.1602032 h 0.328359 V 0 h -0.415922 q -0.249553,0.99821252 -0.9807,1.5673688 -0.731147,0.5735344 -1.996425,0.8187094 L 18.096508,1.2171188 Q 18.648152,1.1120438 19.116611,0.93691877 19.589448,0.76179376 19.91343,0.52537501 20.241789,0.28895625 20.351242,0 h -0.411544 q -0.884381,0 -1.348462,-0.36776251 -0.464081,-0.37214063 -0.464081,-1.19960629 0,-0.3239812 0.100697,-0.6786094 0.100696,-0.3590062 0.306468,-0.6698531 0.205772,-0.315225 0.516619,-0.5078625 0.315225,-0.1970156 0.739903,-0.1970156 z m 0.144478,2.3554313 h 0.5604 q -0.02627,-0.245175 -0.105075,-0.5034844 -0.07443,-0.2583094 -0.223284,-0.4334344 -0.144478,-0.175125 -0.385275,-0.175125 -0.205772,0 -0.328359,0.1313437 -0.11821,0.1269657 -0.170747,0.3064688 -0.04816,0.175125 -0.04816,0.3239812 0,0.2320407 0.192638,0.2933344 0.197015,0.056916 0.507862,0.056916 z m -4.759021,-2.7801095 q 0.586668,0.35025 1.037615,0.6873657 0.455325,0.3327375 0.713635,0.7180125 0.258309,0.385275 0.258309,0.8887594 0,0.6873656 -0.315225,1.06826249 -0.315225,0.38089688 -0.884381,0.53413126 Q 15.417096,0 14.65968,0 h -1.068263 v -1.2652781 h 1.063885 q 0.7005,0 1.05075,-0.096319 0.35025,-0.1006969 0.35025,-0.4071656 0,-0.1444782 -0.214528,-0.3327375 -0.214528,-0.1926375 -0.53851,-0.4027875 -0.319603,-0.2145282 -0.656718,-0.4203 -0.332738,-0.2101501 -0.577913,-0.3852751 -0.183881,-0.1313437 -0.2802,-0.35025 -0.09194,-0.2189062 -0.09194,-0.4465687 0,-0.245175 0.113832,-0.4597031 0.113831,-0.2145282 0.354628,-0.3108469 l 3.379912,-1.3791094 V -5.004197 Z M 12.819045,0 Q 12.420635,0 12.162326,-0.15323438 11.987201,0.85373439 11.299835,1.5104531 10.616848,2.1671719 9.4741572,2.3860782 L 9.0407228,1.2171188 Q 9.675551,1.0813969 10.130876,0.85373439 q 0.459703,-0.22328438 0.709256,-0.59980314 0.249553,-0.37651875 0.249553,-0.97194376 0,-0.39840939 -0.126965,-0.89313749 -0.126966,-0.4991063 -0.271444,-0.9281625 l 1.177716,-0.3808969 0.253931,0.9894562 q 0.07443,0.2802 0.218906,0.4728376 0.144478,0.1926375 0.429056,0.1926375 h 0.170747 V 0 Z M 5.761507,0 Q 5.3193164,0 5.0172258,-0.14885625 4.7195133,-0.30209063 4.5268757,-0.55164376 4.2860789,-0.2977125 3.9533414,-0.14885625 3.6206039,0 3.1127414,0 H 2.7099538 v -1.2652781 h 0.4115438 q 0.4815938,0 0.6829875,-0.1182094 0.2057719,-0.1182094 0.2057719,-0.5691563 0,-0.07005 -0.00876,-0.2320406 -0.00876,-0.1619906 -0.021891,-0.3546281 -0.013134,-0.1970157 -0.026269,-0.3546282 l 1.0989094,-0.1357218 0.091941,1.1820937 q 0.039403,0.5822907 0.6260719,0.5822907 0.3633844,0 0.4859719,-0.1488563 0.1225875,-0.1532344 0.1225875,-0.5385094 0,-0.061294 -0.00876,-0.2232844 -0.00876,-0.1663687 -0.021891,-0.3633843 -0.013134,-0.1970157 -0.026269,-0.3546282 l 1.0989094,-0.1357218 0.091941,1.1820937 q 0.017513,0.2670656 0.1313438,0.4246782 0.1182094,0.1576125 0.3984094,0.1576125 0.2626875,0 0.3590062,-0.2057719 0.1006969,-0.21015 0.1006969,-0.4991063 0,-0.2495531 -0.048159,-0.5122406 -0.043781,-0.2670656 -0.1006968,-0.4815938 -0.052537,-0.2189062 -0.078806,-0.3196031 l 1.1339344,-0.3108469 q 0.087563,0.3458719 0.1444781,0.7399032 0.056916,0.3896531 0.056916,0.7749281 0,0.5428875 -0.1444782,1.0201031 -0.1401,0.47283754 -0.4815937,0.76617192 Q 8.6423133,0 8.0512664,0 7.6572352,0 7.3857914,-0.16199063 7.1187258,-0.32398126 6.9348445,-0.56040001 6.7115602,-0.32398126 6.426982,-0.16199063 6.146782,0 5.761507,0 Z"
         id="path18" />
      <path
         style="font-size:8.9664px;font-family:Vazirmatn"
         d="m 54.480153,10.959 q -0.643585,0 -1.002591,-0.302091 -0.354628,-0.302091 -0.459703,-0.8318438 -0.253931,0.2539308 -0.551644,0.3896528 -0.293334,0.135722 -0.661097,0.135722 -0.626072,0 -1.05075,-0.337115 -0.424678,-0.337116 -0.424678,-0.932541 0,-0.6742313 0.551644,-1.1645813 0.551644,-0.4947281 1.733737,-0.8581125 l -0.03065,-0.21015 0.7005,-0.1401 0.380896,2.6881688 q 0.05254,0.385275 0.249554,0.5779125 0.201393,0.1882595 0.58229,0.1882595 h 0.135722 V 10.959 Z M 52.842734,8.7568027 q 0,-0.1357219 -0.01751,-0.2583094 L 52.715768,7.7673465 q -0.849356,0.3064687 -1.239009,0.6041812 -0.385275,0.2977125 -0.385275,0.6523407 0,0.2889562 0.197016,0.4378125 0.197015,0.1488562 0.534131,0.1488562 0.258309,0 0.49035,-0.1006969 Q 52.5494,9.4091434 52.693878,9.2165059 52.842734,9.0238684 52.842734,8.7568027 Z M 48.521525,6.2218683 49.134463,6.8304277 48.521525,7.4477433 47.912966,6.8304277 Z m -1.453537,0 0.612937,0.6085594 -0.612937,0.6173156 -0.60856,-0.6173156 z M 46.59515,10.162181 h 0.612938 q 0.556022,0 0.79244,-0.2495533 0.240797,-0.2495531 0.240797,-0.7661718 0,-0.21015 -0.01313,-0.3984094 -0.0088,-0.1882594 -0.02627,-0.3765188 l 0.731147,-0.087562 0.07005,1.0244813 q 0.05254,0.8537345 0.888759,0.8537345 h 0.09194 V 10.959 h -0.100697 q -0.485972,0 -0.779306,-0.175125 Q 48.81486,10.60875 48.635357,10.289146 48.398938,10.635018 48.013663,10.797009 47.628388,10.959 47.208088,10.959 H 46.59515 Z M 43.013844,5.2017652 43.604891,5.792812 43.013844,6.3838589 42.422797,5.792812 Z m 0.748659,1.1076656 0.591047,0.5910469 -0.591047,0.5910469 -0.591047,-0.5910469 z m -1.497319,0 0.591047,0.5910469 -0.591047,0.5910469 -0.591046,-0.5910469 z M 44.371063,10.959 q -0.4203,0 -0.67861,-0.175125 -0.258309,-0.175125 -0.4203,-0.494729 -0.245175,0.354629 -0.547265,0.512241 -0.297713,0.157613 -0.647963,0.157613 -0.503484,0 -0.779306,-0.170747 -0.271444,-0.175125 -0.433435,-0.499107 -0.205771,0.323982 -0.525375,0.499107 Q 40.019206,10.959 39.428159,10.959 h -0.402787 v -0.796819 h 0.411544 q 0.5604,0 0.818709,-0.205772 0.258309,-0.21015 0.258309,-0.7617938 0,-0.1138312 -0.01313,-0.2670656 -0.0088,-0.1576125 -0.03065,-0.4378125 l 0.731147,-0.091941 0.07005,0.9150281 q 0.02627,0.3677625 0.223284,0.6085594 0.201394,0.240797 0.591047,0.240797 0.464082,0 0.63045,-0.2495533 0.166369,-0.2495531 0.166369,-0.7180125 0,-0.1138312 -0.01313,-0.2714437 -0.0088,-0.1576125 -0.03065,-0.4334344 l 0.731147,-0.091941 0.07005,0.9150281 q 0.02189,0.3546281 0.188259,0.6041813 0.166369,0.2451751 0.538509,0.2451751 0.647963,0 0.647963,-0.9675658 0,-0.1576125 -0.01313,-0.3283594 -0.0088,-0.1707468 -0.03065,-0.4509468 l 0.731147,-0.087563 0.07005,0.9850781 q 0.05254,0.8493564 0.866868,0.8493564 h 0.131344 V 10.959 h -0.122587 q -0.459704,0 -0.766172,-0.166369 -0.306469,-0.170747 -0.4203,-0.507863 -0.183882,0.323982 -0.424678,0.499107 Q 44.800119,10.959 44.371063,10.959 Z M 36.096405,6.7122183 q 0.380896,0.2670656 0.79244,0.5647781 0.411544,0.2933344 0.766172,0.6304501 0.359006,0.3327375 0.577913,0.7136343 0.223284,0.3765188 0.223284,0.8055751 -0.0044,0.8143311 -0.564778,1.1733371 Q 37.335414,10.959 36.113917,10.959 h -1.068262 v -0.796819 h 1.063884 q 0.849356,0 1.217119,-0.148856 0.367762,-0.1532348 0.367762,-0.6041816 0,-0.2889563 -0.205772,-0.5647782 Q 37.287255,8.5685433 36.963273,8.3014777 36.64367,8.030034 36.275908,7.7717246 35.908145,7.5090371 35.584164,7.2551058 q -0.1401,-0.1138312 -0.214528,-0.2670656 -0.07443,-0.1532344 -0.07443,-0.3064688 0,-0.1795031 0.09632,-0.3371156 0.100697,-0.1619906 0.310847,-0.245175 L 38.850245,4.8208683 V 5.5957964 Z M 34.67292,13.314431 34.414611,12.618309 q 1.068262,-0.232041 1.506075,-0.814331 0.437812,-0.577913 0.437812,-1.370353 0,-0.372141 -0.08318,-0.7793066 -0.07881,-0.4115438 -0.223285,-0.8362219 l 0.726769,-0.245175 q 0.315225,0.8975156 0.315225,1.7293595 0,0.731147 -0.258309,1.352841 -0.253932,0.626071 -0.792441,1.059506 -0.534131,0.437812 -1.370353,0.599803 z M 34.410233,4.9303214 V 10.954622 H 33.67033 V 4.9303214 Z M 30.744796,6.4539089 31.379624,7.0887371 30.744796,7.7235652 30.109968,7.0887371 Z M 32.369081,10.959 q -0.302091,0 -0.507863,-0.07881 -0.201394,-0.08318 -0.315225,-0.175125 -0.06567,0.573535 -0.319603,1.107666 -0.249553,0.538509 -0.753038,0.936919 -0.503484,0.398409 -1.33095,0.5604 l -0.258309,-0.691744 q 1.068263,-0.232041 1.506075,-0.814331 0.437813,-0.577913 0.437813,-1.370353 0,-0.372141 -0.08319,-0.7793066 -0.07881,-0.4115438 -0.223284,-0.8362219 l 0.726769,-0.245175 0.236418,0.9150281 q 0.09632,0.3677625 0.306469,0.5209964 0.21015,0.153235 0.529753,0.153235 H 32.48729 V 10.959 Z M 25.749356,7.4039621 26.095228,6.7559996 q 1.571747,0.7661719 2.342297,1.3703531 0.77055,0.5998031 0.77055,1.225875 0,0.7749283 -0.481594,1.1689593 -0.477216,0.394031 -1.282791,0.394031 -0.30209,0 -0.643584,-0.04816 -0.341494,-0.04816 -0.647963,-0.118209 -0.306468,-0.07443 -0.516618,-0.144478 -0.380897,0.1401 -0.893138,0.249553 Q 24.230146,10.959 23.752931,10.959 h -0.433435 v -0.796819 h 0.376519 q 0.288956,0 0.507863,-0.01314 0.223284,-0.01313 0.485972,-0.04378 -0.302091,-0.2451748 -0.437813,-0.534131 -0.131344,-0.2933344 -0.131344,-0.6041813 0,-0.455325 0.214528,-0.7836844 0.214529,-0.3283593 0.569157,-0.5034843 0.354628,-0.1795032 0.774928,-0.1795032 0.188259,0 0.376519,0.048159 -0.148857,-0.07005 -0.306469,-0.1444781 z m 0.792441,2.7188159 q 0.192637,0.02189 0.4203,0.04378 0.227662,0.01751 0.402787,0.01751 0.529753,0 0.805575,-0.1970151 0.2802,-0.2013938 0.2802,-0.6216938 0,-0.2145281 -0.245175,-0.4640812 Q 27.960309,8.6473496 27.548765,8.380284 27.1416,8.1088402 26.646872,7.8461527 q 0.240796,0.1926375 0.385275,0.4640813 0.148856,0.2714437 0.148856,0.5735343 0,0.4115438 -0.166369,0.7048782 -0.161991,0.2889562 -0.472837,0.5341315 z M 24.873731,8.9581965 q 0,0.2583094 0.214528,0.5166187 0.218906,0.2539313 0.63045,0.4115438 0.788063,-0.3196031 0.788063,-0.9194063 0,-0.3808969 -0.232041,-0.5779125 -0.227663,-0.2013937 -0.551644,-0.2013937 -0.376519,0 -0.612937,0.21015 -0.236419,0.21015 -0.236419,0.5604 z M 24.124264,4.9303214 h 0.739903 V 9.115809 q 0,0.6173156 0.227663,0.8318437 0.227662,0.2145283 0.687365,0.2145283 h 0.109453 V 10.959 h -0.109453 q -0.836222,0 -1.247765,-0.442191 -0.407166,-0.446569 -0.407166,-1.4053781 z m -4.557626,2.4736407 0.345871,-0.6479625 q 1.571747,0.7661719 2.342297,1.3703531 0.77055,0.5998031 0.77055,1.225875 0,0.7749283 -0.481593,1.1689593 -0.477216,0.394031 -1.282791,0.394031 -0.302091,0 -0.643584,-0.04816 -0.341494,-0.04816 -0.647963,-0.118209 -0.306469,-0.07443 -0.516619,-0.144478 -0.380897,0.1401 -0.893137,0.249553 Q 18.047428,10.959 17.570213,10.959 h -0.433435 v -0.796819 h 0.376519 q 0.288956,0 0.507862,-0.01314 0.223285,-0.01313 0.485972,-0.04378 -0.30209,-0.2451748 -0.437812,-0.534131 -0.131344,-0.2933344 -0.131344,-0.6041813 0,-0.455325 0.214528,-0.7836844 0.214528,-0.3283593 0.569156,-0.5034843 0.354629,-0.1795032 0.774929,-0.1795032 0.188259,0 0.376518,0.048159 -0.148856,-0.07005 -0.306468,-0.1444781 z m 0.79244,2.7188159 q 0.192638,0.02189 0.4203,0.04378 0.227663,0.01751 0.402788,0.01751 0.529753,0 0.805575,-0.1970151 0.2802,-0.2013938 0.2802,-0.6216938 0,-0.2145281 -0.245175,-0.4640812 Q 21.777591,8.6473496 21.366047,8.380284 20.958881,8.1088402 20.464153,7.8461527 q 0.240797,0.1926375 0.385275,0.4640813 0.148856,0.2714437 0.148856,0.5735343 0,0.4115438 -0.166368,0.7048782 -0.161991,0.2889562 -0.472838,0.5341315 z M 18.691013,8.9581965 q 0,0.2583094 0.214528,0.5166187 0.218906,0.2539313 0.63045,0.4115438 0.788062,-0.3196031 0.788062,-0.9194063 0,-0.3808969 -0.23204,-0.5779125 -0.227663,-0.2013937 -0.551644,-0.2013937 -0.376519,0 -0.612938,0.21015 -0.236418,0.21015 -0.236418,0.5604 z M 8.5345674,7.4039621 8.8804393,6.7559996 q 1.5717467,0.7661719 2.3422967,1.3703531 0.77055,0.5998031 0.77055,1.225875 0,0.7749283 -0.481594,1.1689593 -0.477215,0.394031 -1.28279,0.394031 -0.3020908,0 -0.6435846,-0.04816 Q 9.2438237,10.8189 8.9373549,10.74885 8.6308862,10.674422 8.4207362,10.604372 8.0398393,10.744472 7.5275987,10.853925 7.015358,10.959 6.5381424,10.959 H 6.104708 v -0.796819 h 0.3765188 q 0.2889562,0 0.5078625,-0.01314 0.2232844,-0.01313 0.4859719,-0.04378 Q 7.1729705,9.8600902 7.0372487,9.571134 6.9059049,9.2777996 6.9059049,8.9669527 q 0,-0.455325 0.2145281,-0.7836844 Q 7.3349612,7.854909 7.6895893,7.679784 8.0442174,7.5002808 8.4645174,7.5002808 q 0.1882594,0 0.3765188,0.048159 -0.1488563,-0.07005 -0.3064688,-0.1444781 z m 0.7924407,2.7188159 q 0.1926375,0.02189 0.4203,0.04378 0.2276625,0.01751 0.4027879,0.01751 0.529753,0 0.805575,-0.1970151 0.2802,-0.2013938 0.2802,-0.6216938 0,-0.2145281 -0.245175,-0.4640812 Q 10.745521,8.6473496 10.333977,8.380284 9.9268112,8.1088402 9.4320831,7.8461527 q 0.2407968,0.1926375 0.385275,0.4640813 0.1488562,0.2714437 0.1488562,0.5735343 0,0.4115438 -0.1663687,0.7048782 Q 9.6378549,9.8776027 9.3270081,10.122778 Z M 7.6589424,8.9581965 q 0,0.2583094 0.2145281,0.5166187 0.2189063,0.2539313 0.6304501,0.4115438 0.7880625,-0.3196031 0.7880625,-0.9194063 0,-0.3808969 -0.2320407,-0.5779125 -0.2276625,-0.2013937 -0.5516437,-0.2013937 -0.3765188,0 -0.6129375,0.21015 -0.2364188,0.21015 -0.2364188,0.5604 z M 4.3797268,9.3653621 q 0,-0.1138312 -0.052538,-0.2933344 Q 4.2790299,8.8881465 4.2089799,8.730534 L 3.4340518,6.9749058 4.1170393,6.6553027 5.1108737,8.9932215 q 0.2013937,0.4728375 0.35025,0.7267687 0.1532344,0.2539313 0.2977125,0.3502498 0.1488562,0.09194 0.3371156,0.09194 H 6.2798331 V 10.959 H 6.0959518 q -0.3458719,0 -0.5647781,-0.08319 -0.2145282,-0.08318 -0.3721407,-0.249553 -0.1576125,-0.166369 -0.3196031,-0.4203 -0.3064687,0.385275 -0.7836844,0.569156 -0.4728375,0.179504 -1.1820937,0.179504 -0.3064688,0 -0.5516438,-0.02627 -0.245175,-0.03065 -0.4640813,-0.08319 v -0.79244 q 0.5034844,0.118209 0.9500532,0.118209 1.5717469,0 1.5717469,-0.8055749 z"
         id="path19" />
    </g>
    <path
       id="path6"
       d="m 47.05653,-64.7766 h -94.11306 c -2.75118,0 -4.98139,-2.2302 -4.98139,-4.98138 v -32.55743 c 0,-2.75118 2.23021,-4.98139 4.98139,-4.98139 h 94.11306 c 2.75118,0 4.98139,2.23021 4.98139,4.98139 v 32.55743 c 0,2.75118 -2.23021,4.98138 -4.98139,4.98138 z"
       style="fill:#fff8dc;fill-opacity:1;fill-rule:nonzero;stroke:#b8860b;stroke-width:0.99628;stroke-linecap:butt;stroke-linejoin:miter;stroke-miterlimit:10;stroke-dasharray:none;stroke-opacity:1"
       transform="matrix(1.3333333,0,0,-1.3333333,259.98267,48.937333)" />
    <g
       id="text6"
       transform="matrix(1.3333333,0,0,1.3333333,214.70267,159.26933)"
       aria-label="ﯽﺨﯾرﺎﺗﻒﻄﻋﻪﻄﻘﻧﺖﯿﻌﺿویﺮﯾﺬﭘﺎﻧ ﺖﺸﮔزﺎﺑ">
      <path
         style="font-weight:800;font-size:8.9664px;font-family:Vazirmatn"
         d="m 62.483759,2.2503563 q -0.963187,0 -1.571747,-0.3721406 -0.604181,-0.3721407 -0.893137,-0.99821256 -0.284578,-0.62169376 -0.284578,-1.38348752 0,-0.43343439 0.08318,-0.90627192 0.08756,-0.4728375 0.271444,-0.9631875 l 1.063884,0.385275 q -0.131344,0.3808969 -0.21015,0.7574157 -0.07881,0.37651871 -0.07881,0.70925622 0,0.42467813 0.148856,0.76617188 0.153234,0.34587188 0.507863,0.54726564 0.354628,0.20577188 0.963187,0.20577188 0.696122,0 1.116422,-0.14447813 0.4203,-0.14447813 0.608559,-0.32398126 0.192638,-0.17950312 0.192638,-0.2802 0,-0.15323438 -0.148856,-0.20139375 Q 64.108043,0 63.78844,0 h -0.691743 q -0.179504,0 -0.227663,-0.09194063 -0.04816,-0.09194062 -0.09194,-0.245175 L 62.588834,-1.015725 q -0.03065,-0.1094531 -0.02189,-0.1795031 0.01313,-0.07005 0.170747,-0.07005 h 2.644388 V 0 h 0.03502 q 0.0394,0.15323438 0.0394,0.245175 0,0.53413126 -0.354628,0.9894563 -0.35025,0.4597031 -1.015725,0.735525 -0.661097,0.2802 -1.602394,0.2802 z m -6.593456,-8.3709751 0.788063,0.7880625 -0.788063,0.7836844 -0.783684,-0.7836844 z m 3.174141,3.2266781 V -1.75125 q -0.253931,0.026269 -0.516619,0.1182093 -0.258309,0.087562 -0.450947,0.1751251 0.08319,0.1225875 0.402788,0.1576125 0.323981,0.035025 0.709256,0.035025 h 0.240797 V 0 h -0.25831 Q 58.390213,0 57.899863,-0.21015 57.413891,-0.42467813 57.234388,-1.0069688 56.424434,-0.57353438 55.614481,-0.28457813 54.808906,0 53.893878,0 h -0.731147 v -1.2652781 h 0.744281 q 0.564779,0 1.046372,-0.105075 0.485972,-0.1094532 1.002591,-0.3239813 0.516619,-0.2145281 1.173338,-0.5341313 -0.674232,-0.2495531 -1.090154,-0.4159218 -0.415921,-0.1663688 -0.569156,-0.1663688 -0.236419,0 -0.429056,0.1488563 -0.188259,0.1444781 -0.310847,0.3064687 l -0.232041,0.2933344 -0.9807,-0.4815938 0.197016,-0.315225 q 0.310847,-0.5078625 0.744281,-0.8406 0.433435,-0.3371156 1.015725,-0.3371156 0.245175,0 0.569157,0.1138312 0.328359,0.1138313 0.7005,0.2845782 0.376518,0.1663687 0.774928,0.3371156 0.402787,0.1663687 0.79244,0.2845781 0.394032,0.1182094 0.753038,0.1225875 z M 51.192573,0 h -0.941297 v -1.2652781 h 0.945675 q 0.332738,0 0.455325,-0.2057719 0.126966,-0.21015 0.126966,-0.5297532 0,-0.2977125 -0.07443,-0.6479625 -0.07005,-0.3546281 -0.144478,-0.6917437 l 1.147069,-0.2977125 q 0.08318,0.4115437 0.131343,0.8187094 0.05254,0.4027875 0.05254,0.77055 0,0.5822906 -0.157613,1.0463719 -0.153234,0.46408122 -0.525375,0.73552497 Q 51.836158,0 51.192573,0 Z M 50.365108,0.56040001 51.109389,1.295925 51.844914,0.56040001 52.593573,1.3046813 51.844914,2.0577188 51.109389,1.3134375 50.365108,2.0577188 49.620826,1.3046813 Z M 47.265398,2.3904563 46.81883,1.2171188 q 0.634828,-0.1357219 1.090153,-0.36338441 0.459703,-0.22328438 0.709256,-0.59980314 0.249553,-0.37651875 0.249553,-0.97194376 0,-0.39840939 -0.126966,-0.89313749 -0.126965,-0.4991063 -0.271443,-0.9281625 l 1.182093,-0.3808969 q 0.170747,0.4772156 0.25831,1.0288594 0.09194,0.5516437 0.09194,1.05950624 0,0.91940626 -0.341493,1.57612502 Q 49.323117,1.4053781 48.705801,1.8125438 48.092864,2.2240875 47.265398,2.3904563 Z M 45.15514,-6.1381314 h 1.182094 v 4.0016064 q 0,0.4640812 0.135722,0.6698531 0.135722,0.2013938 0.5604,0.2013938 h 0.109453 V 0 H 47.033356 Q 46.052656,0 45.601709,-0.50786251 45.15514,-1.015725 45.15514,-2.03145 Z m -3.082201,0.4728376 0.744281,0.735525 0.735525,-0.735525 0.748659,0.7442812 -0.748659,0.7530375 -0.735525,-0.7442812 -0.744281,0.7442812 -0.744282,-0.7530375 z M 42.501995,0 h -0.888759 v -1.2652781 h 0.893137 q 0.332738,0 0.455325,-0.2057719 0.126966,-0.21015 0.126966,-0.5297532 0,-0.2977125 -0.07443,-0.6479625 -0.07005,-0.3546281 -0.144479,-0.6917437 l 1.147069,-0.2977125 q 0.08319,0.4115437 0.131344,0.8187094 0.05254,0.4027875 0.05254,0.77055 0,0.5822906 -0.157612,1.0463719 -0.157613,0.46408122 -0.529753,0.73552497 Q 43.145579,0 42.501995,0 Z m -0.69216,-6.1644001 0.788062,0.7880625 -0.788062,0.7836844 -0.783684,-0.7836844 z m -2.473641,4.899122 h 0.35025 q 0.161991,0 0.359007,0 0.197015,-0.00438 0.376518,-0.00876 -0.16199,-0.245175 -0.236418,-0.49035 -0.07005,-0.2495531 -0.07005,-0.5297531 0,-0.3458719 0.1401,-0.665475 0.144478,-0.3239813 0.385275,-0.5779126 0.245175,-0.2583093 0.551643,-0.4071656 0.306469,-0.1488562 0.63045,-0.1488562 0.446569,0 0.844978,0.2583093 0.402788,0.2539313 0.652341,0.6698532 0.249553,0.4115437 0.249553,0.8800031 0,0.2845781 -0.07443,0.5297531 -0.07005,0.2451751 -0.240797,0.4859719 0.100697,0.00438 0.183881,0.00438 0.08319,0 0.153235,0 h 0.4203 V 0 h -0.595425 q -0.363385,0 -0.788063,-0.105075 -0.424678,-0.10945313 -0.805575,-0.23641876 -0.262687,0.0919406 -0.634828,0.17074688 -0.367762,0.07442813 -0.739903,0.1225875 Q 40.080476,0 39.822166,0 h -0.485972 q -0.757415,0 -1.396622,-0.09194063 -0.634828,-0.09631875 -1.107665,-0.3327375 -0.46846,-0.23641876 -0.731147,-0.66109687 -0.25831,-0.4290563 -0.25831,-1.0945313 0,-0.3940312 0.08756,-0.7661719 0.08756,-0.3765187 0.218906,-0.6961219 l 1.055128,0.3984094 q -0.07443,0.2057719 -0.153234,0.4772157 -0.07443,0.2714437 -0.07443,0.5166187 0,0.4378125 0.323981,0.6479625 0.323981,0.21015 0.858113,0.2758219 0.538509,0.061294 1.177715,0.061294 z m 2.495532,-1.6111501 q -0.126966,0 -0.267066,0.096319 -0.135722,0.096319 -0.232041,0.2364187 -0.09632,0.1357219 -0.09632,0.2670657 0,0.1619906 0.09632,0.3239812 0.100697,0.1576125 0.240797,0.2845781 0.144478,0.1225875 0.267066,0.1926376 0.205772,-0.1094532 0.407165,-0.3327376 0.201394,-0.2232843 0.201394,-0.4772156 0,-0.1313437 -0.105075,-0.2670656 -0.100697,-0.1401 -0.245175,-0.2320406 -0.1401,-0.091941 -0.267065,-0.091941 z M 33.13239,-3.9709594 q 0.556022,0 0.9807,0.2364187 0.429057,0.2364188 0.669854,0.6479625 0.245175,0.4115438 0.245175,0.9412969 0,0.1926375 -0.04378,0.4421906 -0.0394,0.2495532 -0.135722,0.4071657 0.100697,0.013134 0.245175,0.021891 0.144479,0.00876 0.345872,0.00876 h 0.131344 V 0 H 35.44404 q -0.520996,0 -0.893137,-0.13572188 -0.372141,-0.1401 -0.652341,-0.32835938 -0.455325,0.20139376 -1.041994,0.33273751 Q 32.274278,0 31.613181,0 h -2.267869 v -1.2652781 h 0.621694 q 0.06129,-0.1006969 0.122587,-0.1882594 0.06567,-0.091941 0.131344,-0.1838813 v -4.5007126 h 1.177716 v 3.0165282 q 0.402787,-0.3896531 0.818709,-0.6173156 0.415922,-0.2276625 0.915028,-0.2320406 z m 0.03065,1.2433875 q -0.337115,0 -0.678609,0.2145281 -0.341494,0.21015 -0.652341,0.5472656 -0.310847,0.3327375 -0.564778,0.7005001 h 0.398409 q 0.591047,0 1.094532,-0.056916 0.507862,-0.061294 0.814331,-0.2320406 0.306469,-0.1707469 0.306469,-0.5078625 0,-0.3020906 -0.205772,-0.4815938 -0.201394,-0.1838812 -0.512241,-0.1838812 z m -7.652961,1.4622938 q -0.122588,-0.2189063 -0.192638,-0.5209969 -0.07005,-0.3064688 -0.07005,-0.5516438 0,-0.5209969 0.258309,-0.9588094 0.25831,-0.4421906 0.696122,-0.7048781 0.442191,-0.2670656 0.976322,-0.2670656 0.494728,0 0.901894,0.1795031 0.407166,0.175125 0.831844,0.4640812 l -0.455325,1.0419938 q -0.284578,-0.1707469 -0.569157,-0.2933344 -0.284578,-0.1225875 -0.626071,-0.1225875 -0.201394,0 -0.407166,0.083184 -0.205772,0.083184 -0.341494,0.2407969 -0.135722,0.1532344 -0.135722,0.3721406 0,0.1838813 0.08318,0.3590063 0.08756,0.1707468 0.205772,0.3020906 0.118209,0.1269656 0.21015,0.1838813 0.01751,0.00438 0.07005,-0.013134 l 2.132146,-0.5078625 v 1.26965624 Q 27.97496,-0.37651876 26.963613,-0.18825938 25.956644,0 25.002213,0 H 24.560022 V -1.2652781 Z M 26.805578,0 q -0.612938,0 -1.006969,-0.23204063 -0.394031,-0.23641875 -0.569156,-0.77054997 -0.503485,0.39403122 -1.09891,0.39403122 -0.726769,0 -1.21274,-0.39403122 -0.485972,-0.3984094 -0.485972,-1.1733376 0,-0.5691562 0.328359,-0.9719437 0.328359,-0.4071657 0.844978,-0.6829875 0.520997,-0.2758219 1.085775,-0.4465688 l -0.03065,-0.21015 1.059507,-0.2145281 0.415922,2.8107563 q 0.0394,0.2670656 0.205771,0.4465687 0.170747,0.1795032 0.481594,0.1795032 h 0.135722 V 0 Z m -1.816922,-2.3510532 q 0,-0.061294 -0.01313,-0.1357218 -0.0088,-0.078806 -0.02189,-0.1619907 l -0.07443,-0.4597031 q -0.310847,0.105075 -0.612938,0.245175 -0.297712,0.1357219 -0.494728,0.3020906 -0.192637,0.1619907 -0.192637,0.35025 0,0.1795032 0.144478,0.2933344 0.148856,0.1094531 0.385275,0.1094531 0.201393,0 0.402787,-0.056916 0.205772,-0.061294 0.341494,-0.1795031 0.135722,-0.1225875 0.135722,-0.3064688 z m -5.266885,-1.6199062 q 0.556022,0 0.9807,0.2364187 0.429056,0.2364188 0.669853,0.6479625 0.245175,0.4115438 0.245175,0.9412969 0,0.1926375 -0.04378,0.4421906 -0.0394,0.2495532 -0.135722,0.4071657 0.100697,0.013134 0.245175,0.021891 0.144478,0.00876 0.345872,0.00876 h 0.131343 V 0 h -0.126965 q -0.520997,0 -0.893138,-0.13572188 -0.37214,-0.1401 -0.65234,-0.32835938 -0.455325,0.20139376 -1.041994,0.33273751 Q 18.863658,0 18.202561,0 h -2.267869 v -1.2652781 h 0.621694 q 0.06129,-0.1006969 0.122588,-0.1882594 0.06567,-0.091941 0.131343,-0.1838813 v -4.5007126 h 1.177716 v 3.0165282 q 0.402788,-0.3896531 0.818709,-0.6173156 0.415922,-0.2276625 0.915029,-0.2320406 z m 0.03065,1.2433875 q -0.337116,0 -0.67861,0.2145281 -0.341494,0.21015 -0.652341,0.5472656 -0.310846,0.3327375 -0.564778,0.7005001 h 0.39841 q 0.591047,0 1.094531,-0.056916 0.507863,-0.061294 0.814331,-0.2320406 0.306469,-0.1707469 0.306469,-0.5078625 0,-0.3020906 -0.205772,-0.4815938 -0.201394,-0.1838812 -0.51224,-0.1838812 z m -6.584699,-3.3229969 0.744282,0.735525 0.735525,-0.735525 0.748659,0.7442812 -0.748659,0.7530375 -0.735525,-0.7442812 -0.744282,0.7442812 -0.744281,-0.7530375 z m 2.49991,3.7651875 q 0,0.2845781 -0.07443,0.5297531 -0.07005,0.2451751 -0.240797,0.4859719 0.100697,0.00438 0.183881,0.00438 0.08318,0 0.153234,0 h 0.4203 V 0 H 15.514394 Q 15.15101,0 14.726332,-0.105075 14.301654,-0.21452813 13.920757,-0.34149376 13.526726,-0.20577188 13.088913,-0.10069688 12.655479,0 12.270204,0 h -0.796819 v -1.2652781 h 0.652341 q 0.100696,0 0.183881,0 0.08756,-0.00438 0.21015,-0.00876 -0.166369,-0.245175 -0.236419,-0.49035 -0.07005,-0.2495531 -0.07005,-0.5297531 0,-0.3458719 0.1401,-0.665475 0.144478,-0.3239813 0.385275,-0.5779126 0.245175,-0.2583093 0.551644,-0.4071656 0.306469,-0.1488562 0.63045,-0.1488562 0.446569,0 0.844978,0.2583093 0.402787,0.2539313 0.652341,0.6698532 0.249553,0.4115437 0.249553,0.8800031 z m -1.738116,-0.5910469 q -0.126966,0 -0.267066,0.096319 -0.135721,0.096319 -0.23204,0.2364187 -0.09632,0.1357219 -0.09632,0.2670657 0,0.1619906 0.09632,0.3239812 0.100697,0.1576125 0.240797,0.2845781 0.144478,0.1225875 0.267065,0.1926376 0.201394,-0.1094532 0.402788,-0.3327376 0.205772,-0.2232843 0.205772,-0.4772156 0,-0.1313437 -0.105075,-0.2670656 -0.100697,-0.1401 -0.245175,-0.2320406 -0.1401,-0.091941 -0.267066,-0.091941 z M 9.503228,0 H 8.8071061 v -1.2652781 h 0.7005 q 0.3327375,0 0.455325,-0.2057719 0.1269659,-0.21015 0.1269659,-0.5297532 0,-0.2977125 -0.07443,-0.6479625 -0.07005,-0.3546281 -0.1444785,-0.6917437 l 1.1470685,-0.2977125 q 0.08319,0.4115437 0.131344,0.8187094 0.05254,0.4027875 0.05254,0.77055 0,0.5822906 -0.157612,1.0463719 -0.157613,0.46408122 -0.529753,0.73552497 Q 10.146812,0 9.503228,0 Z m 0.516619,-5.7090751 0.788062,0.7880625 -0.788062,0.7836844 -0.7836847,-0.7836844 z"
         id="path20" />
      <path
         style="font-size:8.9664px;font-family:Vazirmatn"
         d="m 70.370301,6.6640589 0.612937,0.6085594 -0.612937,0.6173157 -0.60856,-0.6173157 z m -1.453538,0 0.612938,0.6085594 -0.612938,0.6173157 -0.608559,-0.6173157 z m 3.375535,1.7074688 0.731147,-0.087562 0.07443,1.0244813 q 0.02627,0.4159219 0.236418,0.6348281 0.214529,0.2189064 0.639207,0.2189064 h 0.105075 V 10.959 h -0.105075 q -0.494728,0 -0.814332,-0.183882 -0.315225,-0.188259 -0.520997,-0.599803 -0.363384,0.4203 -0.93254,0.604182 Q 71.140851,10.959 70.133882,10.959 h -0.731147 q -1.650553,0 -2.482397,-0.446569 -0.827465,-0.446569 -0.827465,-1.5454783 0,-0.3020906 0.06567,-0.5910469 0.07005,-0.2889562 0.179504,-0.5560218 l 0.678609,0.2539312 q -0.07005,0.1926375 -0.118209,0.4115438 -0.04378,0.2189062 -0.04378,0.4159219 0.0044,0.5122406 0.288957,0.7880625 0.284578,0.2714437 0.849356,0.3721406 0.564778,0.100697 1.409756,0.100697 h 0.731147 q 1.046372,0 1.619906,-0.2189064 0.577913,-0.2189062 0.577913,-0.7968187 0,-0.1795032 -0.01313,-0.3852751 -0.0088,-0.2057718 -0.02627,-0.3896531 z m -9.982124,1.7906533 h 0.661097 q 0.556022,0 0.792441,-0.2495533 0.240797,-0.2495531 0.240797,-0.7661718 0,-0.21015 -0.01313,-0.3984094 -0.0088,-0.1882594 -0.02627,-0.3765188 l 0.731147,-0.087562 0.07005,1.0244813 q 0.05254,0.8537345 0.888759,0.8537345 h 0.09194 V 10.959 h -0.100697 q -0.485972,0 -0.779307,-0.175125 Q 64.578043,10.60875 64.39854,10.289146 64.162121,10.635018 63.776846,10.797009 63.391571,10.959 62.971271,10.959 h -0.661097 z m 1.580504,1.492941 0.612937,0.608559 -0.612937,0.617316 -0.60856,-0.617316 z m -1.453538,0 0.612938,0.608559 -0.612938,0.617316 -0.608559,-0.617316 z M 59.998522,7.5353058 q 0.337116,0 0.696122,0.056916 0.359007,0.052537 0.665475,0.1532343 0.310847,0.1006969 0.503485,0.245175 0.192637,0.1444782 0.192637,0.3239813 0,0.1269656 -0.135722,0.35025 -0.131343,0.2232844 -0.341493,0.4815938 -0.205772,0.2583093 -0.433435,0.4991062 -0.227662,0.2364188 -0.415922,0.4027879 0.306469,0.07881 0.582291,0.09632 0.275822,0.01751 0.499106,0.01751 h 0.682988 V 10.959 h -0.67861 q -0.459703,0 -0.919406,-0.109453 -0.455325,-0.109454 -0.897516,-0.363385 -0.288956,0.166369 -0.669853,0.271444 -0.376518,0.105075 -0.761793,0.153234 Q 58.185979,10.959 57.87951,10.959 h -0.691744 v -0.796819 h 0.696122 q 0.148856,0 0.398409,-0.0044 0.253932,-0.0088 0.520997,-0.03065 0.271444,-0.02627 0.472838,-0.07881 Q 59.087872,9.8819809 58.86021,9.6455621 58.632547,9.4047652 58.422397,9.1464559 58.216626,8.8881465 58.080904,8.6648621 q -0.135722,-0.2232844 -0.135722,-0.35025 0,-0.1795031 0.188259,-0.3239813 0.18826,-0.1444781 0.494728,-0.245175 0.310847,-0.1006968 0.669853,-0.1532343 0.359007,-0.056916 0.7005,-0.056916 z m 0,0.7530375 q -0.197015,0 -0.564778,0.030647 -0.363384,0.030647 -0.687365,0.1401 0.284578,0.3590063 0.573534,0.6435844 0.288956,0.2845781 0.481594,0.455325 0.197015,0.1663688 0.197015,0.1663688 0,0 0.197016,-0.1663688 0.197016,-0.1707469 0.49035,-0.455325 0.293334,-0.2845781 0.573534,-0.6435844 -0.323981,-0.1094531 -0.691743,-0.1401 -0.367763,-0.030647 -0.569157,-0.030647 z M 54.954921,5.2980839 55.58975,5.9329121 54.954921,6.5677402 54.320093,5.9329121 Z m -2.858915,4.7283751 q 0.779306,-1.33095 1.532344,-1.9614 0.753037,-0.6348282 1.506075,-0.6348282 0.499106,0 0.884381,0.2189063 0.389653,0.2145281 0.608559,0.5866687 0.218906,0.3721407 0.218906,0.8406001 -0.0044,0.9588091 -0.805575,1.4228911 Q 55.2395,10.959 53.615215,10.959 h -0.23204 q -0.928163,0 -1.414135,-0.175125 -0.485972,-0.175125 -0.687365,-0.49035 -0.253932,0.345872 -0.573535,0.507862 Q 50.392915,10.959 49.86754,10.959 h -0.179503 l 0.0044,-0.796819 h 0.175125 q 0.612938,0 0.823088,-0.2583095 0.214528,-0.2626875 0.214528,-0.7574156 0,-0.21015 -0.01751,-0.3896532 -0.01313,-0.1795031 -0.02189,-0.385275 l 0.731147,-0.087562 0.06567,1.0244813 q 0.02189,0.2933344 0.122588,0.5078625 0.100697,0.21015 0.310847,0.21015 z M 55.16945,8.2270496 q -1.055129,0 -2.281004,1.9351314 h 0.709257 q 1.247765,0 1.860703,-0.2495533 0.612937,-0.2495531 0.612937,-0.7924406 0,-0.385275 -0.249553,-0.6392063 Q 55.576615,8.2270496 55.16945,8.2270496 Z M 49.34217,10.21034 q 0,2.556825 -2.806378,3.095335 l -0.25831,-0.696122 q 1.006969,-0.192638 1.606772,-0.643585 0.599804,-0.446568 0.709257,-1.125178 -0.166369,0.05254 -0.385275,0.09194 -0.218907,0.0394 -0.385275,0.0394 -1.598016,0 -1.598016,-1.3572188 0,-0.3239812 0.09632,-0.6479625 0.100697,-0.3283594 0.288956,-0.5998031 0.192637,-0.2758219 0.468459,-0.4421906 0.275822,-0.1663688 0.626072,-0.1663688 0.415922,0 0.722391,0.2057719 0.310847,0.2057719 0.512241,0.5560219 0.201393,0.35025 0.30209,0.7880625 0.100697,0.4378125 0.100697,0.9018935 z m -1.497319,-0.03065 q 0.385275,0 0.766172,-0.113831 -0.04378,-0.7355249 -0.271444,-1.125178 -0.227662,-0.3940313 -0.643584,-0.3940313 -0.288956,0 -0.450947,0.1795031 -0.157612,0.1795032 -0.223284,0.4246782 -0.06129,0.2407969 -0.06129,0.4378125 0,0.3196031 0.218906,0.4553245 0.218906,0.135722 0.665475,0.135722 z m -2.960209,2.99026 q -0.945675,0 -1.514832,-0.345872 -0.564778,-0.345872 -0.818709,-0.923784 -0.249553,-0.573535 -0.249553,-1.2609 0,-0.464082 0.09632,-0.9500536 0.09632,-0.49035 0.262687,-0.9544313 l 0.696122,0.2802 q -0.126966,0.4027875 -0.214528,0.8274656 -0.08756,0.4246783 -0.08756,0.8230873 0,0.472838 0.166369,0.862491 0.170747,0.389653 0.569156,0.621694 0.39841,0.23204 1.094532,0.23204 0.621693,0 1.112043,-0.157612 0.49035,-0.153235 0.774929,-0.402788 0.284578,-0.245175 0.284578,-0.520997 0,-0.1401 -0.08319,-0.262687 -0.08318,-0.122588 -0.30209,-0.122588 H 45.96166 q -0.647962,0 -0.91065,-0.310846 -0.258309,-0.315226 -0.258309,-0.8712474 0,-0.5779125 0.236419,-1.0595063 0.236419,-0.4859718 0.674231,-0.7749281 0.437813,-0.2889562 1.037616,-0.2889562 0.227662,0 0.477215,0.061294 0.253932,0.061294 0.507863,0.2320406 l -0.249553,0.665475 q -0.345872,-0.175125 -0.735525,-0.175125 -0.556022,0 -0.871247,0.3896532 -0.310847,0.3896531 -0.310847,0.9500531 0,0.2057719 0.08318,0.3020904 0.08319,0.09194 0.337116,0.09194 h 0.735525 q 0.604181,0 0.823087,0.328359 0.223285,0.323982 0.223285,0.827466 0,0.485972 -0.332738,0.915028 -0.332737,0.433434 -0.976322,0.7005 -0.639206,0.271444 -1.567368,0.271444 z M 41.837467,10.959 q -0.302091,0 -0.507863,-0.07881 -0.201393,-0.08318 -0.315225,-0.175125 -0.06567,0.573535 -0.319603,1.107666 -0.249553,0.538509 -0.753037,0.936919 -0.503485,0.398409 -1.33095,0.5604 l -0.25831,-0.691744 q 1.068263,-0.232041 1.506075,-0.814331 0.437813,-0.577913 0.437813,-1.370353 0,-0.372141 -0.08318,-0.7793066 -0.07881,-0.4115438 -0.223285,-0.8362219 l 0.726769,-0.245175 0.236419,0.9150281 q 0.09632,0.3677625 0.306468,0.5209964 0.21015,0.153235 0.529754,0.153235 h 0.166368 V 10.959 Z m -6.322012,-0.796819 h 0.950053 q 0.437812,0 0.591047,-0.2539314 0.157612,-0.2539312 0.157612,-0.6435844 0,-0.2845781 -0.05254,-0.6085594 -0.05254,-0.3239812 -0.113831,-0.6523406 l 0.761793,-0.1926375 q 0.07443,0.35025 0.11821,0.6873656 0.04378,0.3371157 0.04378,0.6435844 0,0.525375 -0.144478,0.9369183 -0.144478,0.411544 -0.472838,0.647963 Q 37.025908,10.959 36.474264,10.959 h -0.958809 z m 1.580503,1.492941 0.612937,0.608559 -0.612937,0.617316 -0.608559,-0.617316 z m -1.453538,0 0.612938,0.608559 -0.612938,0.617316 -0.608559,-0.617316 z M 33.05495,4.742062 33.689778,5.3768902 33.05495,6.0117183 32.420122,5.3768902 Z m 0.744281,4.6233001 q 0,-0.1138312 -0.05254,-0.2933344 -0.04816,-0.1838812 -0.118209,-0.3414937 l -0.774929,-1.7556282 0.682988,-0.3196031 0.993834,2.3379188 q 0.201394,0.4728375 0.35025,0.7267687 0.153235,0.2539313 0.297713,0.3502498 0.148856,0.09194 0.337115,0.09194 h 0.183882 V 10.959 h -0.183882 q -0.345871,0 -0.564778,-0.08319 -0.214528,-0.08318 -0.37214,-0.249553 -0.157613,-0.166369 -0.319603,-0.4203 -0.306469,0.385275 -0.783685,0.569156 -0.472837,0.179504 -1.182094,0.179504 -0.306468,0 -0.551643,-0.02627 -0.245175,-0.03065 -0.464082,-0.08319 v -0.79244 q 0.503485,0.118209 0.950054,0.118209 1.571746,0 1.571746,-0.8055749 z m -5.8448,0.7968189 h 0.950053 q 0.437813,0 0.591047,-0.2539314 0.157613,-0.2539312 0.157613,-0.6435844 0,-0.2845781 -0.05254,-0.6085594 -0.05254,-0.3239812 -0.113831,-0.6523406 l 0.761794,-0.1926375 q 0.07443,0.35025 0.118209,0.6873656 0.04378,0.3371157 0.04378,0.6435844 0,0.525375 -0.144478,0.9369183 -0.144478,0.411544 -0.472837,0.647963 Q 29.464884,10.959 28.91324,10.959 h -0.958809 z m 1.584881,1.348462 0.591047,0.591047 -0.591047,0.591047 -0.591047,-0.591047 z m -1.497318,0 0.591046,0.591047 -0.591046,0.591047 -0.591047,-0.591047 z m 0.748659,1.107666 0.591047,0.591047 -0.591047,0.591047 -0.591047,-0.591047 z M 26.373927,4.9303214 H 27.11383 V 9.115809 q 0,0.6173156 0.227663,0.8318437 0.227662,0.2145283 0.687365,0.2145283 h 0.109453 V 10.959 h -0.109453 q -0.836222,0 -1.247765,-0.442191 Q 26.373927,10.07024 26.373927,9.1114309 Z M 23.77332,10.959 h -0.713634 v -0.796819 h 0.704878 q 0.437812,0 0.591047,-0.2539314 0.157612,-0.2539312 0.157612,-0.6435844 0,-0.2845781 -0.05254,-0.6085594 -0.05254,-0.3239812 -0.113831,-0.6523406 l 0.761793,-0.1926375 q 0.07443,0.35025 0.11821,0.6873656 0.04378,0.3371157 0.04378,0.6435844 0,0.525375 -0.144478,0.9369183 -0.144478,0.411544 -0.472838,0.647963 Q 24.324964,10.959 23.77332,10.959 Z M 24.307451,5.792812 24.94228,6.4276402 24.307451,7.0624683 23.672623,6.4276402 Z M 14.724543,6.6640589 15.337481,7.2726183 14.724543,7.889934 14.115984,7.2726183 Z m -1.453537,0 0.612937,0.6085594 -0.612937,0.6173157 -0.60856,-0.6173157 z m 3.375534,1.7074688 0.731147,-0.087562 0.07443,1.0244813 q 0.02627,0.4159219 0.236419,0.6348281 0.214528,0.2189064 0.639206,0.2189064 h 0.105075 V 10.959 H 18.32774 q -0.494728,0 -0.814331,-0.183882 -0.315225,-0.188259 -0.520997,-0.599803 -0.363385,0.4203 -0.932541,0.604182 Q 15.495093,10.959 14.488124,10.959 h -0.731147 q -1.650553,0 -2.482397,-0.446569 -0.827465,-0.446569 -0.827465,-1.5454783 0,-0.3020906 0.06567,-0.5910469 0.07005,-0.2889562 0.179503,-0.5560218 l 0.678609,0.2539312 q -0.07005,0.1926375 -0.118209,0.4115438 -0.04378,0.2189062 -0.04378,0.4159219 0.0044,0.5122406 0.288956,0.7880625 0.284578,0.2714437 0.849356,0.3721406 0.564778,0.100697 1.409756,0.100697 h 0.731147 q 1.046372,0 1.619907,-0.2189064 0.577912,-0.2189062 0.577912,-0.7968187 0,-0.1795032 -0.01313,-0.3852751 -0.0088,-0.2057718 -0.02627,-0.3896531 z M 6.3448115,5.2017652 6.9358583,5.792812 6.3448115,6.3838589 5.7537646,5.792812 Z M 7.0934708,6.3094308 7.6845177,6.9004777 7.0934708,7.4915246 6.502424,6.9004777 Z m -1.4973187,0 L 6.187199,6.9004777 5.5961521,7.4915246 5.0051052,6.9004777 Z M 7.7020302,10.959 q -0.4203,0 -0.6786094,-0.175125 -0.2583093,-0.175125 -0.4203,-0.494729 -0.245175,0.354629 -0.5472656,0.512241 Q 5.7581427,10.959 5.4078927,10.959 4.9044083,10.959 4.6285864,10.788253 4.3571427,10.613128 4.195152,10.289146 3.9893802,10.613128 3.669777,10.788253 3.3501739,10.959 2.759127,10.959 H 2.3563395 v -0.796819 h 0.4115438 q 0.5604,0 0.8187094,-0.205772 0.2583093,-0.21015 0.2583093,-0.7617938 0,-0.1138312 -0.013134,-0.2670656 -0.00876,-0.1576125 -0.030647,-0.4378125 l 0.7311469,-0.091941 0.07005,0.9150281 q 0.026269,0.3677625 0.2232844,0.6085594 0.2013937,0.240797 0.5910468,0.240797 0.4640813,0 0.63045,-0.2495533 0.1663688,-0.2495531 0.1663688,-0.7180125 0,-0.1138312 -0.013134,-0.2714437 -0.00876,-0.1576125 -0.030647,-0.4334344 l 0.7311468,-0.091941 0.07005,0.9150281 q 0.021891,0.3546281 0.1882594,0.6041813 0.1663688,0.2451751 0.5385094,0.2451751 0.6479625,0 0.6479625,-0.9675658 0,-0.1576125 -0.013134,-0.3283594 Q 8.323724,8.695509 8.3018334,8.415309 l 0.7311468,-0.087563 0.07005,0.9850781 q 0.052538,0.8493564 0.8668688,0.8493564 h 0.131344 V 10.959 H 9.9786553 q -0.4597032,0 -0.7661719,-0.166369 -0.3064688,-0.170747 -0.4203,-0.507863 Q 8.6083021,10.60875 8.3675052,10.783875 8.1310865,10.959 7.7020302,10.959 Z M -1.1768076,5.6570902 V 5.1754964 L 2.1505675,3.8270339 v 0.4815938 z m 0.60418131,1.0551281 Q -0.19172941,6.9792839 0.21981435,7.2769964 0.6313581,7.5703308 0.98598623,7.9074465 1.3449925,8.240184 1.5638987,8.6210808 1.7871831,8.9975996 1.7871831,9.4266559 1.782805,10.240987 1.222405,10.599993 0.6663831,10.959 -0.55511379,10.959 H -1.6233763 v -0.796819 h 1.06388438 q 0.84935627,0 1.21711877,-0.148856 0.36776255,-0.1532348 0.36776255,-0.6041816 0,-0.2889563 -0.20577192,-0.5647782 Q 0.61822373,8.5685433 0.29424247,8.3014777 -0.02536066,8.030034 -0.39312316,7.7717246 -0.76088567,7.5090371 -1.0848669,7.2551058 q -0.1401,-0.1138312 -0.2145282,-0.2670656 -0.074428,-0.1532344 -0.074428,-0.3064688 0,-0.1795031 0.096319,-0.3371156 0.1006968,-0.1619906 0.31084685,-0.245175 L 2.1812144,4.8208683 V 5.5957964 Z M -3.6305889,6.4539089 -2.9957608,7.0887371 -3.6305889,7.7235652 -4.265417,7.0887371 Z m -1.6023938,6.8605221 -0.2583094,-0.696122 q 1.0682626,-0.232041 1.5060751,-0.814331 0.4378125,-0.577913 0.4378125,-1.370353 0,-0.372141 -0.083184,-0.7793066 -0.078806,-0.4115438 -0.2232844,-0.8362219 l 0.7267688,-0.245175 q 0.315225,0.8975156 0.315225,1.7293595 0,0.731147 -0.2583094,1.352841 -0.2539312,0.626071 -0.7924406,1.059506 -0.5341313,0.437812 -1.3703532,0.599803 z M -7.1155765,4.9303214 h 0.7399032 V 9.115809 q 0,0.6173156 0.2276625,0.8318437 0.2276625,0.2145283 0.6873656,0.2145283 h 0.1094531 V 10.959 h -0.1094531 q -0.8362219,0 -1.2477656,-0.442191 Q -7.1155765,10.07024 -7.1155765,9.1114309 Z M -9.7161826,10.959 h -0.8055754 v -0.796819 h 0.7968192 q 0.4378125,0 0.5910469,-0.2539314 0.1576125,-0.2539312 0.1576125,-0.6435844 0,-0.2845781 -0.052538,-0.6085594 -0.052537,-0.3239812 -0.1138313,-0.6523406 l 0.7617938,-0.1926375 q 0.074428,0.35025 0.1182093,0.6873656 0.043781,0.3371157 0.043781,0.6435844 0,0.525375 -0.1444781,0.9369183 -0.1444782,0.411544 -0.4728375,0.647963 Q -9.1645388,10.959 -9.7161826,10.959 Z m 0.096319,0.669853 0.6348281,0.634828 -0.6348281,0.634828 -0.6348282,-0.634828 z"
         id="path21" />
    </g>
    <path
       id="path8"
       d="m -79.83475,0 h 16.73592"
       style="fill:none;stroke:#be1e2d;stroke-width:1.49442;stroke-linecap:butt;stroke-linejoin:miter;stroke-miterlimit:10;stroke-dasharray:none;stroke-opacity:1"
       transform="matrix(1.3333333,0,0,-1.3333333,259.98267,48.937333)" />
    <path
       id="path9"
       d="M 7.58568,0 2.413,1.96426 4.14568,0 2.413,-1.96426 Z"
       style="fill:#be1e2d;fill-opacity:1;fill-rule:nonzero;stroke:#be1e2d;stroke-width:1.49442;stroke-linecap:butt;stroke-linejoin:miter;stroke-miterlimit:10;stroke-dasharray:none;stroke-opacity:1"
       transform="matrix(1.3333333,0,0,-1.3333333,170.82145,48.937333)" />
    <path
       id="path10"
       d="M 57.15721,0 H 73.89313"
       style="fill:none;stroke:#be1e2d;stroke-width:1.49442;stroke-linecap:butt;stroke-linejoin:miter;stroke-miterlimit:10;stroke-dasharray:none;stroke-opacity:1"
       transform="matrix(1.3333333,0,0,-1.3333333,259.98267,48.937333)" />
    <path
       id="path11"
       d="M 7.58568,0 2.413,1.96426 4.14568,0 2.413,-1.96426 Z"
       style="fill:#be1e2d;fill-opacity:1;fill-rule:nonzero;stroke:#be1e2d;stroke-width:1.49442;stroke-linecap:butt;stroke-linejoin:miter;stroke-miterlimit:10;stroke-dasharray:none;stroke-opacity:1"
       transform="matrix(1.3333333,0,0,-1.3333333,353.4774,48.937333)" />
    <path
       id="path12"
       d="m 0,-21.75824 v -36.5786"
       style="fill:none;stroke:#be1e2d;stroke-width:1.49442;stroke-linecap:butt;stroke-linejoin:miter;stroke-miterlimit:10;stroke-dasharray:none;stroke-opacity:1"
       transform="matrix(1.3333333,0,0,-1.3333333,259.98267,48.937333)" />
    <path
       id="path13"
       d="M 7.58568,0 2.413,1.96426 4.14568,0 2.413,-1.96426 Z"
       style="fill:#be1e2d;fill-opacity:1;fill-rule:nonzero;stroke:#be1e2d;stroke-width:1.49442;stroke-linecap:butt;stroke-linejoin:miter;stroke-miterlimit:10;stroke-dasharray:none;stroke-opacity:1"
       transform="matrix(0,1.3333333,1.3333333,0,259.98267,121.69035)" />
  </g>
</svg>
