<?xml version="1.0" encoding="UTF-8" standalone="no"?>


<svg class="tikz-diagram" id="iran-action-ch2-tikz-5-ca0d74a0fa32"
   version="1.1"
   id="svg1"
   width="456.13333"
   height="329.22668"
   viewBox="0 0 456.13333 329.22668"
   sodipodi:docname="iran-action-ch2-tikz-5-ca0d74a0fa32.pdf"
   xmlns:inkscape="http://www.inkscape.org/namespaces/inkscape"
   xmlns:sodipodi="http://sodipodi.sourceforge.net/DTD/sodipodi-0.dtd"
   xmlns="http://www.w3.org/2000/svg"
   xmlns:svg="http://www.w3.org/2000/svg">
  <defs
     id="defs1" />
  <sodipodi:namedview
     id="namedview1"
     pagecolor="#ffffff"
     bordercolor="#000000"
     borderopacity="0.25"
     inkscape:showpageshadow="2"
     inkscape:pageopacity="0.0"
     inkscape:pagecheckerboard="0"
     inkscape:deskcolor="#d1d1d1">
    <inkscape:page
       x="0"
       y="0"
       inkscape:label="1"
       id="page1"
       width="456.13333"
       height="329.22668"
       margin="0"
       bleed="0" />
  </sodipodi:namedview>
  <g
     id="g1"
     inkscape:groupmode="layer"
     inkscape:label="1">
    <path
       id="path1"
       d="m 211.18494,120.4748 c 0,15.65571 -19.03667,28.3468 -42.52022,28.3468 -23.48357,0 -42.52023,-12.69109 -42.52023,-28.3468 0,-15.65572 19.03666,-28.34682 42.52023,-28.34682 23.48355,0 42.52022,12.6911 42.52022,28.34682 z"
       style="fill:#fff8dc;fill-opacity:1;fill-rule:nonzero;stroke:#b8860b;stroke-width:1.99255;stroke-linecap:butt;stroke-linejoin:miter;stroke-miterlimit:10;stroke-dasharray:none;stroke-opacity:1"
       transform="matrix(1.3333333,0,0,-1.3333333,3.1826667,292.992)" />
    <path
       style="font-weight:800;font-size:9.9626px;font-family:Vazirmatn"
       d="m 32.27536,-5.3315475 0.826973,0.8172445 0.817245,-0.8172445 0.831838,0.8269736 -0.831838,0.8367027 -0.817245,-0.8269736 -0.826973,0.8269736 -0.826974,-0.8367027 z m 3.512205,1.9896012 1.216138,-0.1508011 0.09729,1.3912615 q 0.02432,0.3697059 0.194582,0.5351006 0.175124,0.1605302 0.574017,0.1605302 h 0.111885 V 0 H 37.869593 Q 37.31017,0 36.940464,-0.20431113 36.570758,-0.41348681 36.32753,-0.768599 35.884856,-0.35997675 35.2476,-0.17998837 34.615209,0 33.598517,0 h -0.812379 q -0.841568,0 -1.551792,-0.10215556 -0.70536,-0.10702012 -1.230731,-0.36970585 -0.520507,-0.26268574 -0.81238,-0.73454719 -0.287009,-0.4767259 -0.287009,-1.2161376 0,-0.4378096 0.09729,-0.8512964 0.09729,-0.4183514 0.243228,-0.7734636 l 1.172356,0.4426742 q -0.0827,0.2286338 -0.170259,0.530236 -0.0827,0.3016021 -0.0827,0.574017 0,0.486455 0.359976,0.7199535 0.359977,0.2334984 0.953452,0.3064666 0.59834,0.068104 1.308565,0.068104 h 0.812379 q 0.70536,0 1.206409,-0.05351 0.501049,-0.058375 0.763735,-0.238363 0.26755,-0.1848529 0.26755,-0.5691524 0,-0.2480921 -0.01459,-0.5448297 -0.01459,-0.2967376 -0.03405,-0.530236 z m -9.651269,-3.507341 0.875619,0.8756191 -0.875619,0.8707546 -0.870755,-0.8707546 z m 1.975008,4.3099919 q 0,0.3161957 -0.0827,0.5886106 -0.07783,0.2724148 -0.26755,0.5399651 0.111885,0.00486 0.204311,0.00486 0.09243,0 0.170259,0 h 0.466997 V 0 h -0.661579 q -0.403757,0 -0.875619,-0.11674922 -0.471861,-0.12161376 -0.895077,-0.26268573 -0.43781,0.15080107 -0.924265,0.26755028 Q 24.764493,0 24.336412,0 h -0.885348 v -1.4058551 h 0.724818 q 0.111885,0 0.204311,0 0.09729,-0.00486 0.233499,-0.00973 -0.184853,-0.2724149 -0.262686,-0.5448297 -0.07783,-0.2772794 -0.07783,-0.5886106 0,-0.3842995 0.155666,-0.7394117 0.16053,-0.3599768 0.42808,-0.6421207 0.272415,-0.2870085 0.612934,-0.4524032 0.340518,-0.1653948 0.700495,-0.1653948 0.496184,0 0.938858,0.2870085 0.447539,0.282144 0.724818,0.7442763 0.27728,0.4572677 0.27728,0.9777747 z m -1.931227,-0.6567144 q -0.141072,0 -0.296738,0.1070201 -0.150801,0.1070201 -0.257821,0.2626858 -0.10702,0.150801 -0.10702,0.2967376 0,0.1799883 0.10702,0.3599767 0.111885,0.1751238 0.267551,0.3161958 0.16053,0.1362074 0.296737,0.2140402 0.223769,-0.1216137 0.447539,-0.3697058 0.228634,-0.2480921 0.228634,-0.530236 0,-0.1459366 -0.11675,-0.2967376 -0.111884,-0.1556657 -0.272414,-0.2578212 -0.155666,-0.1021556 -0.296738,-0.1021556 z M 21.262017,0 h -0.773464 v -1.4058551 h 0.778328 q 0.369706,0 0.505913,-0.2286339 0.141072,-0.2334985 0.141072,-0.5886107 0,-0.3307894 -0.0827,-0.7199535 -0.07783,-0.3940286 -0.16053,-0.768599 l 1.274512,-0.3307894 q 0.09243,0.4572678 0.145937,0.909671 0.05837,0.4475386 0.05837,0.8561609 0,0.6469852 -0.175124,1.1626276 -0.175123,0.51564237 -0.58861,0.81724451 Q 21.977106,0 21.262017,0 Z m 0.574017,-6.3433741 0.875619,0.8756192 -0.875619,0.8707545 -0.870755,-0.8707545 z m 0.826507,5.2634439 q 0,1.13830481 -0.423216,1.89231016 -0.418352,0.75400534 -1.186951,1.19667944 -0.768599,0.4426741 -1.819342,0.6421207 l -0.48159,-1.298835 Q 19.74381,1.1626276 20.410254,0.81237996 21.081562,0.46213231 21.26155,-0.04864551 21.139936,-0.02432275 21.008593,-0.00486455 20.87725,0.0097291 20.77023,0.0097291 q -0.924264,0 -1.4545,-0.40862225 -0.530236,-0.40862226 -0.530236,-1.34261595 0,-0.3891641 0.116749,-0.7929218 0.116749,-0.4086223 0.350248,-0.7491408 0.233498,-0.3453831 0.578881,-0.5545588 0.345383,-0.2091757 0.802651,-0.2091757 0.525371,0 0.904806,0.2529567 0.3843,0.2529566 0.632392,0.6761725 0.248092,0.4232159 0.369706,0.953452 0.121614,0.530236 0.121614,1.0847948 z m -1.911769,-0.3113313 q 0.209176,0 0.379435,-0.024323 0.175124,-0.024323 0.287009,-0.048645 -0.02919,-0.2480921 -0.111885,-0.5302361 -0.0827,-0.2821439 -0.248092,-0.4815905 -0.16053,-0.2043111 -0.432945,-0.2043111 -0.233499,0 -0.369706,0.1556656 -0.131343,0.1556656 -0.184853,0.3648413 -0.05351,0.2091757 -0.05351,0.3648413 0,0.2626857 0.209176,0.335654 0.21404,0.068104 0.525371,0.068104 z m -1.41605,-4.27594 0.875619,0.8756191 -0.875619,0.8707546 -0.870754,-0.8707546 z M 17.432683,2.6560447 16.936499,1.3523451 q 0.70536,-0.1508011 1.211273,-0.40375772 0.510778,-0.24809208 0.788057,-0.66644344 0.277279,-0.41835136 0.277279,-1.07993025 0,-0.44267409 -0.141072,-0.99236829 -0.141072,-0.5545588 -0.301602,-1.0312848 l 1.313429,-0.4232159 q 0.189717,0.530236 0.287008,1.1431694 0.102156,0.6129334 0.102156,1.17722127 0,1.02155564 -0.379435,1.75123824 Q 19.719022,1.5615208 19.03312,2.013924 18.352083,2.4711917 17.432683,2.6560447 Z M 15.08797,-6.8201 h 1.313428 v 4.4461993 q 0,0.5156423 0.150801,0.7442762 0.150801,0.2237694 0.622663,0.2237694 h 0.121614 V 0 H 17.174862 Q 16.085202,0 15.584154,-0.56428788 15.08797,-1.1285758 15.08797,-2.2571515 Z m -4.927791,0.9972329 v -0.7394117 l 3.954879,-1.6101663 v 0.7394117 z m 1.386397,1.3280223 q 0.651849,0.389164 1.152898,0.7637344 0.505913,0.3697059 0.792922,0.7977864 0.287008,0.4280804 0.287008,0.9875037 0,0.7637345 -0.350247,1.1869504 -0.350248,0.4232159 -0.98264,0.59347518 Q 11.814126,0 10.972559,0 H 9.7856083 v -1.4058551 h 1.1820857 q 0.778328,0 1.167492,-0.1070202 0.389164,-0.1118846 0.389164,-0.4524032 0,-0.1605301 -0.238363,-0.3697058 -0.238363,-0.2140402 -0.598339,-0.4475387 -0.355113,-0.238363 -0.729683,-0.4669968 -0.369706,-0.2334985 -0.642121,-0.4280805 -0.204311,-0.1459365 -0.311331,-0.3891641 -0.1021555,-0.2432275 -0.1021555,-0.4961841 0,-0.2724149 0.1264785,-0.5107778 0.126478,-0.238363 0.394028,-0.3453831 l 3.755434,-1.5323335 v 1.3912615 z"
       id="text1"
       transform="matrix(1.3333333,0,0,1.3333333,202.812,136.036)"
       aria-label="ﺖﻔﻧوزﺎﮔ" />
    <path
       id="path2"
       d="M 78.64204,204.60696 H 17.73778 c -2.75118,0 -4.98138,-2.23021 -4.98138,-4.98138 v -13.7318 c 0,-2.75117 2.2302,-4.98138 4.98138,-4.98138 h 60.90426 c 2.75118,0 4.98139,2.23021 4.98139,4.98138 v 13.7318 c 0,2.75117 -2.23021,4.98138 -4.98139,4.98138 z"
       style="fill:#fff8dc;fill-opacity:1;fill-rule:nonzero;stroke:#b8860b;stroke-width:0.3985;stroke-linecap:butt;stroke-linejoin:miter;stroke-miterlimit:10;stroke-dasharray:none;stroke-opacity:1"
       transform="matrix(1.3333333,0,0,-1.3333333,3.1826667,292.992)" />
    <g
       id="text2"
       transform="matrix(1.3333333,0,0,1.3333333,56.204,32.648)"
       aria-label="هﺎﭙﺳ۴۰٪ -۳۰">
      <path
         style="font-size:8.9664px;font-family:Vazirmatn"
         d="m 14.163234,-3.2398126 -0.170746,-0.1532343 0.464081,-0.5998032 q 0.577912,0.4772157 1.015725,0.8931375 0.44219,0.4115438 0.691744,0.8099532 0.249553,0.3940312 0.249553,0.8187094 0,0.66547499 -0.455325,1.05950624 -0.455325,0.39403126 -1.199607,0.39403126 -0.761793,0 -1.208362,-0.37214063 -0.446569,-0.37651876 -0.446569,-0.95443127 0,-0.5078625 0.271444,-0.945675 0.271444,-0.4421906 0.788062,-0.9500532 z m 1.506075,1.7337376 q 0,-0.2013938 -0.148856,-0.4115438 -0.144478,-0.2145281 -0.367762,-0.4246781 -0.218907,-0.2145281 -0.446569,-0.4115438 -0.402788,0.385275 -0.63045,0.6917438 -0.227663,0.3020906 -0.227663,0.6348281 0,0.2539313 0.214529,0.44219066 0.214528,0.18825938 0.691743,0.18825938 0.481594,0 0.696122,-0.17512501 0.218906,-0.17512503 0.218906,-0.53413123 z m -4.675837,-4.5226032 h 0.739903 v 4.1854875 q 0,0.6173157 0.227663,0.8318438 0.227662,0.21452814 0.687365,0.21452814 h 0.109453 V 0 H 12.648403 Q 11.812181,0 11.400638,-0.44219063 10.993472,-0.88875939 10.993472,-1.8475688 Z m -4.0191187,5.23185944 h 0.6610969 q 0.5560219,0 0.7924406,-0.24955314 0.2407969,-0.2495531 0.2407969,-0.7661719 0,-0.21015 -0.013134,-0.3984094 -0.00876,-0.1882593 -0.026269,-0.3765187 l 0.7311468,-0.087562 0.07005,1.0244812 q 0.052537,0.85373444 0.8887596,0.85373444 h 0.09194 V 0 H 10.310485 Q 9.8245127,0 9.5311783,-0.175125 9.2422221,-0.35025001 9.0627189,-0.66985314 8.8263002,-0.32398126 8.4410252,-0.16199063 8.0557502,0 7.6354502,0 H 6.9743533 Z M 8.5592346,0.55164376 9.1502814,1.1426906 8.5592346,1.7337375 7.9681877,1.1426906 Z m -1.4973188,0 L 7.6529627,1.1426906 7.0619158,1.7337375 6.4708689,1.1426906 Z M 7.8105752,1.6593094 8.4016221,2.2503563 7.8105752,2.8414032 7.2195283,2.2503563 Z M 2.9639912,0 Q 2.4605068,0 2.1846849,-0.17074688 1.9132412,-0.34587188 1.7512506,-0.66985314 1.5454787,-0.34587188 1.2258755,-0.17074688 0.90627241,0 0.31522553,0 h -0.40278751 v -0.79681876 h 0.41154376 q 0.56040001,0 0.81870942,-0.20577184 0.2583093,-0.21015 0.2583093,-0.7617938 0,-0.1138313 -0.013134,-0.2670656 -0.00876,-0.1576125 -0.030647,-0.4378125 l 0.7311469,-0.091941 0.07005,0.9150282 q 0.026269,0.3677625 0.2232844,0.6085594 0.2013937,0.24079684 0.5910468,0.24079684 0.4640813,0 0.6304501,-0.24955314 0.1663687,-0.2495531 0.1663687,-0.7180125 0,-0.1138313 -0.013134,-0.2714438 -0.00876,-0.1576125 -0.030647,-0.4334343 l 0.7311468,-0.091941 0.07005,0.9150282 q 0.021891,0.3546281 0.1882594,0.6041812 0.1663688,0.24517504 0.5385094,0.24517504 0.3633844,0 0.4991063,-0.27144374 0.1357218,-0.2714438 0.1357218,-0.6348282 0,-0.3283593 -0.065672,-0.6610968 -0.061294,-0.3327375 -0.1094532,-0.5385094 l 0.7486594,-0.2013938 q 0.078806,0.2933344 0.1269657,0.6260719 0.048159,0.3283594 0.048159,0.6567188 0,0.4728375 -0.1313437,0.88875936 Q 6.3745506,-0.51661876 6.07246,-0.25830938 5.7747475,-0.00437813 5.2581287,0 4.8378287,0 4.5795193,-0.175125 4.32121,-0.35025001 4.1592193,-0.66985314 3.9140443,-0.31522501 3.6119537,-0.1576125 3.3142412,0 2.9639912,0 Z"
         id="path21" />
      <path
         style="font-size:8.9664px;font-family:Vazirmatn"
         d="m -1.5715592,5.9153996 q -0.3196031,0 -0.5472656,0.1619906 -0.2276625,0.1576125 -0.35025,0.4159219 -0.1225875,0.2539312 -0.1225875,0.5516437 0,0.1576125 0.1532343,0.2583094 0.1532344,0.096319 0.3984094,0.1444781 0.245175,0.048159 0.5166188,0.048159 0.3064687,0 0.59542498,-0.052538 0.29333438,-0.056916 0.48159376,-0.1576125 l 0.10069687,0.7574156 q -0.59542501,0.21015 -1.19085001,0.21015 -0.5166188,0 -1.0201031,-0.1663687 -0.5034844,-0.1707469 -0.8318438,-0.5034844 0.091941,0.7005 0.1138312,1.3090594 0.021891,0.6041813 0.021891,1.085775 V 10.959 H -4.0057967 V 9.9651652 q 0,-1.4666719 -0.1532344,-2.5962281 -0.1488563,-1.1295563 -0.5779125,-2.0139376 l 0.6917437,-0.245175 0.35025,0.9325407 q 0.1401,0.3677625 0.2145282,0.5385094 0.074428,0.1663687 0.1225875,0.2232843 0.052538,0.052537 0.1138312,0.083184 0,-0.4421906 0.1926375,-0.8406 0.1926375,-0.4027875 0.5560219,-0.6523406 0.3633844,-0.2539313 0.875625,-0.2539313 0.4246782,0 0.66985315,0.1269656 0.24955313,0.1225875 0.41154376,0.2364188 l -0.245175,0.6873656 Q -0.9411092,6.0949027 -1.1293686,6.0073402 -1.3132498,5.9153996 -1.5715592,5.9153996 Z m 2.12776893,2.9508562 q 0,-0.3590062 0.17074688,-0.6523406 Q 0.90208161,7.9205808 1.195416,7.749834 1.4887504,7.574709 1.8477566,7.574709 q 0.3590063,0 0.6523407,0.175125 0.2933343,0.1707468 0.4640812,0.4640812 0.175125,0.2933344 0.175125,0.6523406 0,0.3590063 -0.175125,0.6523407 Q 2.7934316,9.8119309 2.5000973,9.9870559 2.2067629,10.157803 1.8477566,10.157803 1.4887504,10.157803 1.195416,9.9870559 0.90208161,9.8119309 0.72695661,9.5185965 0.55620973,9.2252621 0.55620973,8.8662558 Z m 0.66985317,0 q 0,0.2583094 0.1795031,0.4421907 0.1838812,0.1795031 0.4421906,0.1795031 0.2583094,0 0.4378125,-0.1795031 0.1838813,-0.1838813 0.1838813,-0.4421907 0,-0.2583093 -0.1838813,-0.4378125 Q 2.106066,8.2445621 1.8477566,8.2445621 q -0.2583094,0 -0.4421906,0.1838812 Q 1.2260629,8.6079465 1.2260629,8.8662558 Z M 11.129976,5.1360933 11.716645,5.4031589 9.1335511,11.024672 8.5468823,10.757606 Z M 8.5906636,5.9460464 q 0,-0.245175 0.175125,-0.4159219 0.175125,-0.175125 0.4159218,-0.175125 0.245175,0 0.4159219,0.175125 0.1707469,0.1707469 0.1707469,0.4159219 0,0.2407969 -0.1707469,0.4159219 -0.1707469,0.175125 -0.4159219,0.175125 -0.245175,0 -0.4203,-0.1663687 Q 8.5906636,6.1999777 8.5906636,5.9460464 Z m 1.9438874,4.1986216 q 0,-0.2451746 0.170747,-0.4159215 0.175125,-0.175125 0.415922,-0.175125 0.245175,0 0.415922,0.175125 0.175125,0.1707469 0.175125,0.4159215 0,0.240797 -0.175125,0.415922 -0.170747,0.175125 -0.415922,0.175125 -0.245175,0 -0.415922,-0.166368 Q 10.534551,10.3986 10.534551,10.144668 Z M 2.5012884,9.0194902 H -0.45394605 V 8.3583933 H 2.5012884 Z M 14.151479,7.7323215 q -0.293334,0 -0.5604,-0.1182094 -0.267065,-0.1225875 -0.4203,-0.4027875 -0.148856,0.2758219 -0.4203,0.3984094 -0.271444,0.1225875 -0.477215,0.1225875 -0.148857,0 -0.267066,-0.00876 -0.113831,-0.013134 -0.2802,-0.07005 0.04816,0.5034844 0.07005,0.8800031 0.02627,0.3765188 0.03502,0.7180126 0.0088,0.3371156 0.0088,0.7267687 V 10.959 H 11.086792 V 9.9651652 q 0,-1.4666719 -0.153235,-2.5962281 -0.148856,-1.1295563 -0.577912,-2.0139376 l 0.687365,-0.245175 q 0.135722,0.3458719 0.227663,0.595425 0.09194,0.2451751 0.218906,0.5560219 0.113831,0.2802 0.262688,0.49035 0.148856,0.21015 0.468459,0.2145282 0.315225,0 0.459703,-0.1926375 0.148856,-0.1926375 0.153235,-0.7968188 l 0.0044,-0.5604 0.7005,-0.030647 0.01751,0.5122407 q 0.02189,0.6260718 0.157613,0.8493562 0.135722,0.2189063 0.429056,0.2189063 0.214528,0 0.328359,-0.1444782 0.11821,-0.1488562 0.166369,-0.3808968 0.04816,-0.2320407 0.04816,-0.4859719 0,-0.1926375 -0.02189,-0.3808969 -0.01751,-0.1926375 -0.04378,-0.3414938 l 0.753037,-0.065672 q 0.02627,0.2889562 0.02627,0.5735343 0,0.5253751 -0.113831,0.9807001 -0.109454,0.455325 -0.380897,0.735525 -0.271444,0.2758219 -0.753038,0.2758219 z m 2.281002,1.1339343 q 0,-0.3590062 0.170747,-0.6523406 0.175125,-0.2933344 0.46846,-0.4640812 0.293334,-0.175125 0.65234,-0.175125 0.359007,0 0.652341,0.175125 0.293334,0.1707468 0.464081,0.4640812 0.175125,0.2933344 0.175125,0.6523406 0,0.3590063 -0.175125,0.6523407 -0.170747,0.2933344 -0.464081,0.4684594 -0.293334,0.1707471 -0.652341,0.1707471 -0.359006,0 -0.65234,-0.1707471 -0.293335,-0.175125 -0.46846,-0.4684594 -0.170747,-0.2933344 -0.170747,-0.6523407 z m 0.669854,0 q 0,0.2583094 0.179503,0.4421907 0.183881,0.1795031 0.44219,0.1795031 0.25831,0 0.437813,-0.1795031 0.183881,-0.1838813 0.183881,-0.4421907 0,-0.2583093 -0.183881,-0.4378125 -0.179503,-0.1838812 -0.437813,-0.1838812 -0.258309,0 -0.44219,0.1838812 -0.179503,0.1795032 -0.179503,0.4378125 z"
         id="path22" />
    </g>
    <path
       id="path3"
       d="M 319.59166,204.60696 H 258.6874 c -2.75118,0 -4.98139,-2.23021 -4.98139,-4.98138 v -13.7318 c 0,-2.75117 2.23021,-4.98138 4.98139,-4.98138 h 60.90426 c 2.75117,0 4.98138,2.23021 4.98138,4.98138 v 13.7318 c 0,2.75117 -2.23021,4.98138 -4.98138,4.98138 z"
       style="fill:#fff8dc;fill-opacity:1;fill-rule:nonzero;stroke:#b8860b;stroke-width:0.3985;stroke-linecap:butt;stroke-linejoin:miter;stroke-miterlimit:10;stroke-dasharray:none;stroke-opacity:1"
       transform="matrix(1.3333333,0,0,-1.3333333,3.1826667,292.992)" />
    <g
       id="text3"
       transform="matrix(1.3333333,0,0,1.3333333,372.61333,32.648)"
       aria-label="ﺎﻫدﺎﯿﻨﺑ۲۰٪">
      <path
         style="font-size:8.9664px;font-family:Vazirmatn"
         d="m 22.455402,-6.0286782 h 0.739903 v 4.1854875 q 0,0.6173157 0.227663,0.8318438 0.227662,0.21452814 0.687366,0.21452814 h 0.109453 V 0 H 24.110334 Q 23.274112,0 22.862568,-0.44219063 22.455402,-0.88875939 22.455402,-1.8475688 Z m -4.557626,2.4736406 0.345872,-0.6479625 q 1.571747,0.7661719 2.342297,1.3703532 0.77055,0.5998031 0.77055,1.225875 0,0.77492814 -0.481594,1.16895939 -0.477216,0.39403126 -1.282791,0.39403126 -0.30209,0 -0.643584,-0.04815938 Q 18.607032,-0.1401 18.300563,-0.21015 q -0.306468,-0.0744281 -0.516618,-0.14447813 -0.380897,0.1401 -0.893138,0.24955313 Q 16.378567,0 15.901351,0 h -0.433434 v -0.79681876 h 0.376518 q 0.288957,0 0.507863,-0.0131344 0.223284,-0.0131344 0.485972,-0.0437812 Q 16.536179,-1.0989094 16.400457,-1.3878656 16.269113,-1.6812 16.269113,-1.9920469 q 0,-0.455325 0.214529,-0.7836844 0.214528,-0.3283594 0.569156,-0.5034844 0.354628,-0.1795031 0.774928,-0.1795031 0.188259,0 0.376519,0.048159 -0.148857,-0.07005 -0.306469,-0.1444782 z m 0.792441,2.71881571 q 0.192637,0.0218906 0.4203,0.0437812 0.227662,0.0175125 0.402787,0.0175125 0.529753,0 0.805575,-0.19701563 0.2802,-0.20139373 0.2802,-0.62169373 0,-0.2145282 -0.245175,-0.4640813 -0.245175,-0.2539312 -0.656719,-0.5209969 -0.407165,-0.2714437 -0.901893,-0.5341312 0.240796,0.1926375 0.385275,0.4640812 0.148856,0.2714438 0.148856,0.5735344 0,0.4115438 -0.166369,0.7048782 -0.161991,0.2889562 -0.472837,0.53413121 z M 17.022151,-2.0008032 q 0,0.2583094 0.214528,0.5166188 0.218906,0.2539313 0.63045,0.4115438 0.788063,-0.3196032 0.788063,-0.9194063 0,-0.3808969 -0.232041,-0.5779125 -0.227663,-0.2013938 -0.551644,-0.2013938 -0.376519,0 -0.612937,0.21015 -0.236419,0.21015 -0.236419,0.5604 z m -4.329967,1.21274069 q 1.6812,0 1.6812,-0.87124689 0,-0.4115438 -0.4203,-0.8712469 -0.4203,-0.4597031 -1.392244,-0.9894563 l 0.345872,-0.6917437 q 1.125179,0.5735344 1.668066,1.2127406 0.547266,0.6348282 0.547266,1.3265719 0,0.82308754 -0.569157,1.24338754 -0.564778,0.42030001 -1.795031,0.42030001 -0.586669,0 -1.059506,-0.105075 v -0.79244064 q 0.573534,0.11820938 0.993834,0.11820938 z M 9.5880937,-6.0286782 h 0.7399033 v 4.1854875 q 0,0.6173157 0.227662,0.8318438 0.227663,0.21452814 0.687366,0.21452814 h 0.109453 V 0 H 11.243025 Q 10.406803,0 9.9952593,-0.44219063 9.5880937,-0.88875939 9.5880937,-1.8475688 Z m -4.0191188,5.23185944 h 0.6610969 q 0.5560219,0 0.7924407,-0.24955314 0.2407968,-0.2495531 0.2407968,-0.7661719 0,-0.21015 -0.013134,-0.3984094 -0.00876,-0.1882593 -0.026269,-0.3765187 l 0.7311469,-0.087562 0.07005,1.0244812 q 0.052537,0.85373444 0.8887594,0.85373444 h 0.091941 V 0 H 8.9051062 Q 8.4191344,0 8.1258,-0.175125 7.8368437,-0.35025001 7.6573406,-0.66985314 7.4209218,-0.32398126 7.0356468,-0.16199063 6.6503718,0 6.2300718,0 H 5.5689749 Z M 7.1494781,0.69612189 7.7624156,1.3046813 7.1494781,1.9219969 6.5409187,1.3046813 Z m -1.4535375,0 L 6.3088781,1.3046813 5.6959406,1.9219969 5.0873812,1.3046813 Z m -1.7249807,-3.28359379 0.7311468,-0.087562 0.07005,1.0244812 q 0.052537,0.85373444 0.8887594,0.85373444 h 0.091941 V 0 H 5.6521599 Q 5.166188,0 4.8728536,-0.175125 4.5838974,-0.35025001 4.4043942,-0.66985314 4.1679755,-0.32398126 3.7827005,-0.16199063 3.3974255,0 2.9771255,0 h -0.4203 v -0.79681876 h 0.4203 q 0.5560218,0 0.7924406,-0.24955314 0.2407969,-0.2495531 0.2407969,-0.7661719 0,-0.21015 -0.013134,-0.3984094 -0.00876,-0.1882593 -0.026269,-0.3765187 z m 0.083184,-2.1803063 0.6348282,0.6348281 -0.6348282,0.6348282 -0.6348281,-0.6348282 z M 0.71363457,0 h -0.80557502 v -0.79681876 h 0.79681877 q 0.43781248,0 0.59104688,-0.25393124 0.1576125,-0.2539313 0.1576125,-0.6435844 0,-0.2845781 -0.052538,-0.6085594 -0.052537,-0.3239812 -0.1138313,-0.6523406 l 0.7617938,-0.1926375 q 0.074428,0.35025 0.1182094,0.6873656 0.043781,0.3371156 0.043781,0.6435844 0,0.525375 -0.1444781,0.93691876 Q 1.9219971,-0.46845938 1.5936377,-0.23204063 1.2652783,0 0.71363457,0 Z M 0.80995332,0.66985314 1.4447815,1.3046813 0.80995332,1.9395094 0.17512518,1.3046813 Z"
         id="path23" />
      <path
         style="font-size:8.9664px;font-family:Vazirmatn"
         d="m 9.8552687,5.1667402 q 0.013134,0.1576125 0.021891,0.3108468 0.00876,0.1532344 0.00876,0.3020907 0,0.5560219 -0.1401,0.9982125 -0.1401,0.4421906 -0.4815937,0.7005 -0.3371157,0.2539313 -0.9369188,0.2539313 -0.1707469,0 -0.4115438,-0.021891 -0.2364187,-0.026269 -0.4991062,-0.105075 0.091941,0.6567188 0.105075,1.2390094 0.017513,0.5822907 0.017513,1.1339344 V 10.959 H 6.7862031 V 9.9651652 q 0,-1.4666719 -0.1532344,-2.5962281 Q 6.4841124,6.2393808 6.0550562,5.3549995 l 0.6873656,-0.245175 q 0.1006969,0.2714438 0.1838813,0.4772157 0.087562,0.2013937 0.1838812,0.4728375 0.1926375,0.5341312 0.455325,0.7223906 0.2670657,0.1838813 0.7530375,0.1838813 0.3458719,0 0.5297532,-0.1488563 0.1838812,-0.1532344 0.2539312,-0.3896531 0.07005,-0.2364188 0.07005,-0.4991063 0,-0.1926375 -0.021891,-0.3677625 Q 9.1285,5.3856464 9.1022312,5.232412 Z m 1.0638843,3.6995156 q 0,-0.3590062 0.170747,-0.6523406 0.175125,-0.2933344 0.468459,-0.4640812 0.293335,-0.175125 0.652341,-0.175125 0.359006,0 0.65234,0.175125 0.293335,0.1707468 0.464082,0.4640812 0.175125,0.2933344 0.175125,0.6523406 0,0.3590063 -0.175125,0.6523407 -0.170747,0.2933344 -0.464082,0.4684594 -0.293334,0.1707471 -0.65234,0.1707471 -0.359006,0 -0.652341,-0.1707471 Q 11.265025,9.8119309 11.0899,9.5185965 10.919153,9.2252621 10.919153,8.8662558 Z m 0.669853,0 q 0,0.2583094 0.179503,0.4421907 0.183881,0.1795031 0.442191,0.1795031 0.258309,0 0.437812,-0.1795031 0.183882,-0.1838813 0.183882,-0.4421907 0,-0.2583093 -0.183882,-0.4378125 -0.179503,-0.1838812 -0.437812,-0.1838812 -0.25831,0 -0.442191,0.1838812 -0.179503,0.1795032 -0.179503,0.4378125 z m 5.717831,-3.7301625 0.586669,0.2670656 -2.583094,5.6215131 -0.586669,-0.267066 z m -2.539313,0.8099531 q 0,-0.245175 0.175125,-0.4159219 0.175125,-0.175125 0.415922,-0.175125 0.245175,0 0.415922,0.175125 0.170747,0.1707469 0.170747,0.4159219 0,0.2407969 -0.170747,0.4159219 -0.170747,0.175125 -0.415922,0.175125 -0.245175,0 -0.4203,-0.1663687 -0.170747,-0.1707469 -0.170747,-0.4246782 z m 1.943888,4.1986216 q 0,-0.2451746 0.170747,-0.4159215 0.175125,-0.175125 0.415922,-0.175125 0.245175,0 0.415922,0.175125 0.175125,0.1707469 0.175125,0.4159215 0,0.240797 -0.175125,0.415922 -0.170747,0.175125 -0.415922,0.175125 -0.245175,0 -0.415922,-0.166368 -0.170747,-0.170747 -0.170747,-0.424679 z"
         id="path24" />
    </g>
    <path
       id="path5"
       d="M 78.64204,61.18208 H 17.73778 c -2.75118,0 -4.98138,-2.23021 -4.98138,-4.98138 V 40.17912 c 0,-2.75117 2.2302,-4.98138 4.98138,-4.98138 h 60.90426 c 2.75118,0 4.98139,2.23021 4.98139,4.98138 V 56.2007 c 0,2.75117 -2.23021,4.98138 -4.98139,4.98138 z"
       style="fill:#fff8dc;fill-opacity:1;fill-rule:nonzero;stroke:#b8860b;stroke-width:0.3985;stroke-linecap:butt;stroke-linejoin:miter;stroke-miterlimit:10;stroke-dasharray:none;stroke-opacity:1"
       transform="matrix(1.3333333,0,0,-1.3333333,3.1826667,292.992)" />
    <g
       id="text5"
       transform="matrix(1.3333333,0,0,1.3333333,54.642667,223.88133)"
       aria-label="ﺖﻟودﻪﺟدﻮﺑ)(یرﺎﺟ">
      <path
         style="font-size:8.9664px;font-family:Vazirmatn"
         d="m 15.568613,-4.2949407 0.612937,0.6085594 -0.612937,0.6173156 -0.60856,-0.6173156 z m -1.453538,0 0.612938,0.6085594 -0.612938,0.6173156 -0.608559,-0.6173156 z m 3.375534,1.7074688 0.731147,-0.087562 0.07443,1.0244812 q 0.02627,0.4159219 0.236419,0.6348282 0.214528,0.21890624 0.639206,0.21890624 h 0.105075 V 0 h -0.105075 q -0.494728,0 -0.814331,-0.18388125 -0.315225,-0.18825938 -0.520997,-0.59980314 -0.363384,0.42030001 -0.93254,0.60418126 Q 16.339163,0 15.332194,0 h -0.731147 q -1.650553,0 -2.482397,-0.44656876 -0.827466,-0.44656875 -0.827466,-1.54547814 0,-0.3020906 0.06567,-0.5910469 0.07005,-0.2889562 0.179503,-0.5560219 l 0.67861,0.2539313 q -0.07005,0.1926375 -0.11821,0.4115437 -0.04378,0.2189063 -0.04378,0.4159219 0.0044,0.5122406 0.288956,0.7880625 0.284578,0.27144378 0.849357,0.37214066 0.564778,0.10069688 1.409756,0.10069688 h 0.731147 q 1.046372,0 1.619906,-0.21890624 0.577913,-0.2189063 0.577913,-0.7968188 0,-0.1795031 -0.01314,-0.385275 -0.0088,-0.2057719 -0.02627,-0.3896531 z m -9.3035143,1.79065314 h 0.3677626 q 0.525375,0 0.7092562,-0.29771254 0.1838813,-0.2977125 0.1838813,-0.7442812 v -4.1898657 h 0.7399032 v 4.1854875 q 0,0.91065006 -0.3940314,1.37910944 Q 9.3998354,0 8.5504791,0 H 8.1870947 Z m -0.3458726,0.0481594 q 0,2.55682509 -2.8063782,3.09533439 L 4.7765345,1.6505532 Q 5.7835033,1.4579156 6.3833064,1.0069688 6.9831095,0.56040001 7.0925627,-0.11820938 q -0.1663688,0.0525375 -0.385275,0.09194063 -0.2189063,0.03940313 -0.385275,0.03940313 -1.5980157,0 -1.5980157,-1.35721878 0,-0.3239813 0.096319,-0.6479625 0.1006968,-0.3283594 0.2889562,-0.5998031 0.1926375,-0.2758219 0.4684594,-0.4421907 0.2758219,-0.1663687 0.6260719,-0.1663687 0.4159219,0 0.7223906,0.2057719 0.3108469,0.2057718 0.5122407,0.5560218 0.2013937,0.35025 0.3020906,0.7880625 0.1006969,0.4378126 0.1006969,0.90189381 z m -1.4973188,-0.0306469 q 0.385275,0 0.7661719,-0.11383125 Q 7.0662939,-1.6286625 6.8386314,-2.0183157 6.6109689,-2.4123469 6.195047,-2.4123469 q -0.2889562,0 -0.4509468,0.1795031 -0.1576125,0.1795031 -0.2232844,0.4246781 -0.061294,0.2407969 -0.061294,0.4378126 0,0.3196031 0.2189063,0.45532496 0.2189062,0.13572188 0.665475,0.13572188 z m -4.9166345,-0.008756 q 1.6812001,0 1.6812001,-0.87124689 0,-0.4115438 -0.4203,-0.8712469 Q 2.2678688,-2.9902594 1.2959251,-3.5200126 L 1.641797,-4.2117563 q 1.1251781,0.5735344 1.6680656,1.2127406 0.5472656,0.6348282 0.5472656,1.3265719 0,0.82308754 -0.5691562,1.24338754 -0.5647781,0.42030001 -1.7950313,0.42030001 -0.58666875,0 -1.05950626,-0.105075 v -0.79244064 q 0.57353436,0.11820938 0.99383436,0.11820938 z"
         id="path25" />
      <path
         style="font-size:8.9664px;font-family:Vazirmatn"
         d="m 30.624746,10.959 q -0.643585,0 -1.002591,-0.302091 -0.354628,-0.302091 -0.459703,-0.8318438 -0.253931,0.2539308 -0.551644,0.3896528 -0.293334,0.135722 -0.661097,0.135722 -0.626072,0 -1.05075,-0.337115 -0.424678,-0.337116 -0.424678,-0.932541 0,-0.6742313 0.551644,-1.1645813 0.551644,-0.4947281 1.733737,-0.8581125 l -0.03065,-0.21015 0.7005,-0.1401 0.380896,2.6881688 q 0.05254,0.385275 0.249554,0.5779125 0.201393,0.1882595 0.58229,0.1882595 H 30.77798 V 10.959 Z M 28.987327,8.7568027 q 0,-0.1357219 -0.01751,-0.2583094 L 28.860361,7.7673465 q -0.849356,0.3064687 -1.239009,0.6041812 -0.385275,0.2977125 -0.385275,0.6523407 0,0.2889562 0.197016,0.4378125 0.197015,0.1488562 0.534131,0.1488562 0.258309,0 0.49035,-0.1006969 0.236419,-0.1006968 0.380897,-0.2933343 0.148856,-0.1926375 0.148856,-0.4597032 z m -6.03743,2.8720503 0.634829,0.634828 -0.634829,0.634828 -0.634828,-0.634828 z m -3.003393,-1.466672 h 0.744281 q 0.512241,0 0.941297,-0.09194 0.429056,-0.09194 0.836222,-0.253931 Q 22.879847,9.6543184 23.326416,9.4354121 23.777363,9.2121277 24.333385,8.9581965 24.022538,8.8443652 23.689801,8.7130215 23.357063,8.5772996 23.054972,8.4590902 22.75726,8.3408808 22.533976,8.2664527 q -0.223285,-0.078806 -0.315225,-0.078806 -0.267066,0 -0.472838,0.1576125 -0.201394,0.1532343 -0.372141,0.3721406 L 21.255563,8.8662558 20.58571,8.5378965 20.651382,8.4328215 Q 20.940338,7.9643621 21.321235,7.6841621 21.70651,7.399584 22.223129,7.399584 q 0.214528,0 0.516618,0.1094531 0.306469,0.1094531 0.665476,0.2758219 0.359006,0.1619906 0.744281,0.3327375 0.385275,0.1663687 0.77055,0.2845781 0.385275,0.1138312 0.735525,0.1269656 v 0.7574157 q -0.2802,0.030647 -0.718013,0.2057718 -0.433434,0.1707469 -1.129556,0.5385093 -0.5604,0.297713 -1.041994,0.507863 -0.477215,0.205772 -0.976322,0.315225 Q 21.294966,10.959 20.677651,10.959 h -0.731147 z m -2.775735,0.0088 q 1.681201,0 1.681201,-0.8712468 0,-0.4115437 -0.4203,-0.8712469 -0.420301,-0.4597031 -1.392244,-0.9894562 l 0.345872,-0.6917438 q 1.125178,0.5735344 1.668065,1.2127407 0.547266,0.6348281 0.547266,1.3265719 0,0.8230871 -0.569156,1.2433871 -0.564778,0.4203 -1.795032,0.4203 -0.586668,0 -1.059506,-0.105075 v -0.79244 q 0.573534,0.118209 0.993834,0.118209 z M 13.663891,7.7585902 q 0.682988,0 1.151447,0.6129375 0.46846,0.6085594 0.485972,1.7906533 h 0.529753 V 10.959 H 15.23126 q -0.09632,0.503484 -0.385275,0.971943 -0.284578,0.472838 -0.849356,0.831844 -0.564778,0.363385 -1.497319,0.542888 l -0.258309,-0.696122 q 1.98329,-0.380897 2.298515,-1.650553 h -0.691743 q -1.65931,0 -1.65931,-1.3440848 0,-0.4290562 0.170747,-0.8581125 0.175125,-0.4290562 0.503484,-0.7136344 0.332738,-0.2845781 0.801197,-0.2845781 z m 0.1401,2.4035908 h 0.774928 q -0.05254,-0.8449783 -0.2802,-1.2302533 -0.223284,-0.385275 -0.647962,-0.385275 -0.2802,0 -0.442191,0.1795031 -0.157612,0.1795032 -0.223284,0.4246782 -0.06129,0.2407969 -0.06129,0.4378125 0,0.3064687 0.205772,0.4421905 0.21015,0.131344 0.674231,0.131344 z M 9.8242749,10.959 h -0.805575 v -0.796819 h 0.7968188 q 0.4378123,0 0.5910473,-0.2539314 0.157612,-0.2539312 0.157612,-0.6435844 0,-0.2845781 -0.05254,-0.6085594 -0.05254,-0.3239812 -0.113832,-0.6523406 l 0.761794,-0.1926375 q 0.07443,0.35025 0.118209,0.6873656 0.04378,0.3371157 0.04378,0.6435844 0,0.525375 -0.144478,0.9369183 -0.144479,0.411544 -0.472838,0.647963 Q 10.375919,10.959 9.8242749,10.959 Z m 0.096319,0.669853 0.6348283,0.634828 -0.6348283,0.634828 -0.6348282,-0.634828 z M 7.4119297,8.3715277 q 0,0.8230875 0.175125,1.6155282 0.175125,0.7880621 0.5122407,1.4316471 0.3414937,0.643584 0.8406,1.024481 L 8.7735266,12.977315 Q 8.2875547,12.714628 7.8935235,12.246168 7.4994922,11.777709 7.2149141,11.160393 6.9347141,10.547456 6.7814797,9.8338215 6.6282453,9.1201871 6.6282453,8.3715277 q 0,-0.7486594 0.1532344,-1.4622938 Q 6.9347141,6.1955996 7.2149141,5.582662 7.4994922,4.9653464 7.8935235,4.496887 8.2875547,4.0284276 8.7735266,3.7657401 l 0.1663688,0.5341313 q -0.4991063,0.3808969 -0.8406,1.0244813 -0.3371157,0.6435844 -0.5122407,1.436025 -0.175125,0.7880625 -0.175125,1.61115 z m -0.328956,0 q 0,-0.8230875 -0.175125,-1.61115 Q 6.7371018,5.9679371 6.395608,5.3243527 6.0541143,4.6807683 5.555008,4.2998714 L 5.7213768,3.7657401 Q 6.2073486,4.0284276 6.6013799,4.496887 6.9954112,4.9653464 7.2756112,5.582662 7.5601893,6.1955996 7.7134237,6.9092339 7.866658,7.6228683 7.866658,8.3715277 q 0,0.7486594 -0.1532343,1.4622938 -0.1532344,0.7136345 -0.4378125,1.3265715 -0.2802,0.617316 -0.6742313,1.085775 -0.3940313,0.46846 -0.8800031,0.731147 L 5.555008,12.443184 q 0.4991063,-0.380897 0.8406,-1.024481 0.3414938,-0.643585 0.5122407,-1.4316471 0.175125,-0.7924407 0.175125,-1.6155282 z M 2.1969863,10.162181 h 1.2477656 q 0.4378125,0 0.5910469,-0.2539314 0.1576125,-0.2539312 0.1576125,-0.6435844 0,-0.2845781 -0.052538,-0.6085594 Q 4.0883363,8.3321246 4.0270425,8.0037652 L 4.7888363,7.8111277 q 0.074428,0.35025 0.1182094,0.6873656 0.043781,0.3371157 0.043781,0.6435844 0,0.525375 -0.1444781,0.9369183 Q 4.6618707,10.49054 4.3335113,10.726959 4.0051519,10.959 3.4535082,10.959 H 2.1969863 Z m 1.8782156,1.492941 0.6129375,0.608559 -0.6129375,0.617316 -0.6085594,-0.617316 z m -1.4535375,0 0.6129375,0.608559 L 2.6216644,12.880997 2.013105,12.263681 Z M 2.2539022,10.959 q -0.3020906,0 -0.5078625,-0.07881 -0.2013938,-0.08318 -0.315225,-0.175125 -0.065672,0.573535 -0.3196031,1.107666 -0.24955318,0.538509 -0.75303756,0.936919 -0.50348438,0.398409 -1.33095002,0.5604 L -1.2310854,12.618309 q 1.06826256,-0.232041 1.50607506,-0.814331 0.43781251,-0.577913 0.43781251,-1.370353 0,-0.372141 -0.0831844,-0.7793066 Q 0.55081154,9.2427746 0.40633342,8.8180965 L 1.1331022,8.5729215 1.3695209,9.4879496 q 0.096319,0.3677625 0.3064688,0.5209964 0.21015,0.153235 0.5297531,0.153235 H 2.3721116 V 10.959 Z M -2.8553696,4.9303214 h 0.7399031 V 9.115809 q 0,0.6173156 0.2276625,0.8318437 0.2276625,0.2145283 0.6873656,0.2145283 h 0.1094532 V 10.959 h -0.1094532 q -0.8362219,0 -1.2477656,-0.442191 -0.4071656,-0.446569 -0.4071656,-1.4053781 z m -3.7608097,6.6985316 0.6348282,0.634828 -0.6348282,0.634828 -0.6348281,-0.634828 z m -3.0033938,-1.466672 h 0.7442813 q 0.5122406,0 0.9412969,-0.09194 0.4290563,-0.09194 0.8362219,-0.253931 Q -6.6862293,9.6543184 -6.2396605,9.4354121 -5.7887136,9.2121277 -5.2326917,8.9581965 -5.5435386,8.8443652 -5.8762761,8.7130215 -6.2090136,8.5772996 -6.5111043,8.4590902 -6.8088168,8.3408808 -7.0321011,8.2664527 q -0.2232844,-0.078806 -0.315225,-0.078806 -0.2670657,0 -0.4728376,0.1576125 -0.2013937,0.1532343 -0.3721406,0.3721406 l -0.1182094,0.1488562 -0.6698531,-0.3283593 0.065672,-0.105075 q 0.2889562,-0.4684594 0.6698531,-0.7486594 0.385275,-0.2845781 0.9018938,-0.2845781 0.2145281,0 0.5166187,0.1094531 0.3064688,0.1094531 0.665475,0.2758219 0.3590063,0.1619906 0.7442813,0.3327375 0.385275,0.1663687 0.77055,0.2845781 0.385275,0.1138312 0.735525,0.1269656 v 0.7574157 q -0.2802,0.030647 -0.7180125,0.2057718 -0.4334344,0.1707469 -1.1295562,0.5385093 -0.5604001,0.297713 -1.0419938,0.507863 -0.4772156,0.205772 -0.9763219,0.315225 Q -8.2711105,10.959 -8.8884262,10.959 h -0.7311469 z"
         id="path26" />
    </g>
    <path
       id="path7"
       d="M 319.59166,61.01353 H 258.6874 c -2.75118,0 -4.98139,-2.2302 -4.98139,-4.98138 V 40.34769 c 0,-2.75118 2.23021,-4.98139 4.98139,-4.98139 h 60.90426 c 2.75117,0 4.98138,2.23021 4.98138,4.98139 v 15.68446 c 0,2.75118 -2.23021,4.98138 -4.98138,4.98138 z"
       style="fill:#fff8dc;fill-opacity:1;fill-rule:nonzero;stroke:#b8860b;stroke-width:0.3985;stroke-linecap:butt;stroke-linejoin:miter;stroke-miterlimit:10;stroke-dasharray:none;stroke-opacity:1"
       transform="matrix(1.3333333,0,0,-1.3333333,3.1826667,292.992)" />
    <g
       id="text7"
       transform="matrix(1.3333333,0,0,1.3333333,357.94667,224.10667)"
       aria-label="جوﺮﺧﻪﯾﺎﻣﺮﺳ(دﺎﺴﻓ)">
      <path
         style="font-size:8.9664px;font-family:Vazirmatn"
         d="M 41.655444,0.66985314 42.290272,1.3046813 41.655444,1.9395094 41.020616,1.3046813 Z m -3.003394,-1.4666719 h 0.744281 q 0.512241,0 0.941297,-0.0919406 0.429056,-0.0919406 0.836222,-0.25393121 0.411544,-0.1619907 0.858113,-0.3808969 0.450947,-0.2232844 1.006968,-0.4772157 -0.310846,-0.1138312 -0.643584,-0.245175 -0.332737,-0.1357218 -0.634828,-0.2539312 -0.297713,-0.1182094 -0.520997,-0.1926375 -0.223284,-0.078806 -0.315225,-0.078806 -0.267066,0 -0.472838,0.1576125 -0.201393,0.1532344 -0.37214,0.3721407 l -0.11821,0.1488562 -0.669853,-0.3283594 0.06567,-0.105075 q 0.288956,-0.4684593 0.669853,-0.7486594 0.385275,-0.2845781 0.901894,-0.2845781 0.214528,0 0.516619,0.1094531 0.306469,0.1094532 0.665475,0.2758219 0.359006,0.1619907 0.744281,0.3327375 0.385275,0.1663688 0.77055,0.2845782 0.385275,0.1138312 0.735525,0.1269656 v 0.7574156 q -0.2802,0.030647 -0.718012,0.2057719 -0.433435,0.1707469 -1.129557,0.53850938 -0.5604,0.29771251 -1.041993,0.50786251 Q 40.994347,-0.21452813 40.495241,-0.105075 40.000513,0 39.383197,0 H 38.65205 Z M 36.660003,-3.2004094 q 0.682988,0 1.151447,0.6129375 0.468459,0.6085594 0.485972,1.79065314 h 0.529753 V 0 H 38.227372 Q 38.131053,0.50348438 37.842097,0.97194377 37.557519,1.4447813 36.992741,1.8037875 36.427962,2.1671719 35.495422,2.346675 L 35.237112,1.6505532 Q 37.220403,1.2696563 37.535628,0 h -0.691744 q -1.659309,0 -1.659309,-1.3440844 0,-0.4290563 0.170747,-0.8581125 0.175125,-0.4290563 0.503484,-0.7136344 0.332738,-0.2845781 0.801197,-0.2845781 z m 0.1401,2.40359064 h 0.774928 q -0.05254,-0.84497814 -0.2802,-1.23025314 -0.223284,-0.385275 -0.647962,-0.385275 -0.2802,0 -0.442191,0.1795031 -0.157612,0.1795031 -0.223284,0.4246781 -0.06129,0.2407969 -0.06129,0.4378126 0,0.3064687 0.205772,0.44219058 0.21015,0.13134376 0.674231,0.13134376 z M 34.594964,0 q -0.302091,0 -0.507863,-0.07880625 -0.201393,-0.08318438 -0.315225,-0.175125 -0.06567,0.57353438 -0.319603,1.10766564 -0.249553,0.53850941 -0.753037,0.93691881 -0.503485,0.3984093 -1.33095,0.5604 l -0.25831,-0.6917438 q 1.068263,-0.2320406 1.506075,-0.81433126 0.437813,-0.57791251 0.437813,-1.37035315 0,-0.37214063 -0.08319,-0.77930629 -0.07881,-0.4115437 -0.223284,-0.8362219 l 0.726769,-0.245175 0.236419,0.9150282 q 0.09632,0.3677625 0.306468,0.52099686 0.21015,0.15323438 0.529753,0.15323438 h 0.166369 V 0 Z m -6.098729,-5.5602188 0.634829,0.6348281 -0.634829,0.6348281 -0.634828,-0.6348281 z m -2.727572,4.76340004 h 0.744282 q 0.51224,0 0.941297,-0.0919406 0.429056,-0.0919406 0.836222,-0.25393121 0.411543,-0.1619907 0.858112,-0.3808969 0.450947,-0.2232844 1.006969,-0.4772157 -0.310847,-0.1138312 -0.643585,-0.245175 -0.332737,-0.1357218 -0.634828,-0.2539312 -0.297712,-0.1182094 -0.520997,-0.1926375 -0.223284,-0.078806 -0.315225,-0.078806 -0.267065,0 -0.472837,0.1576125 -0.201394,0.1532344 -0.372141,0.3721407 l -0.118209,0.1488562 -0.669853,-0.3283594 0.06567,-0.105075 q 0.288956,-0.4684593 0.669853,-0.7486594 0.385275,-0.2845781 0.901894,-0.2845781 0.214528,0 0.516618,0.1094531 0.306469,0.1094532 0.665475,0.2758219 0.359007,0.1619907 0.744282,0.3327375 0.385275,0.1663688 0.77055,0.2845782 0.385275,0.1138312 0.735525,0.1269656 v 0.7574156 q -0.2802,0.030647 -0.718013,0.2057719 -0.433434,0.1707469 -1.129556,0.53850938 -0.5604,0.29771251 -1.041994,0.50786251 Q 28.11096,-0.21452813 27.611854,-0.105075 27.117126,0 26.49981,0 H 25.768663 Z M 28.184582,0 q -0.643584,0 -1.002591,-0.30209063 -0.354628,-0.30209063 -0.459703,-0.83184377 -0.253931,0.25393126 -0.551643,0.38965314 -0.293335,0.13572188 -0.661097,0.13572188 -0.626072,0 -1.05075,-0.33711564 -0.424678,-0.33711558 -0.424678,-0.93254068 0,-0.6742312 0.551643,-1.1645812 0.551644,-0.4947282 1.733738,-0.8581125 l -0.03065,-0.21015 0.7005,-0.1401 0.380897,2.6881687 q 0.05254,0.3852751 0.249553,0.57791256 0.201394,0.18825938 0.582291,0.18825938 h 0.135721 V 0 Z m -1.637419,-2.2021969 q 0,-0.1357219 -0.01751,-0.2583094 l -0.109453,-0.7311469 q -0.849357,0.3064688 -1.23901,0.6041813 -0.385275,0.2977125 -0.385275,0.6523406 0,0.2889563 0.197016,0.4378125 0.197016,0.1488563 0.534131,0.1488563 0.25831,0 0.49035,-0.1006969 0.236419,-0.1006969 0.380897,-0.2933344 0.148856,-0.1926375 0.148856,-0.4597031 z m -5.83604,1.40537814 h 0.950053 q 0.437813,0 0.591047,-0.25393124 0.157612,-0.2539313 0.157612,-0.6435844 0,-0.2845781 -0.05254,-0.6085594 -0.05254,-0.3239812 -0.113831,-0.6523406 l 0.761793,-0.1926375 q 0.07443,0.35025 0.11821,0.6873656 0.04378,0.3371156 0.04378,0.6435844 0,0.525375 -0.144478,0.93691876 -0.144478,0.41154376 -0.472838,0.64796251 Q 22.221576,0 21.669932,0 h -0.958809 z m 1.580503,1.49294065 0.612938,0.60855941 -0.612938,0.6173156 -0.608559,-0.6173156 z m -1.453537,0 0.612937,0.60855941 -0.612937,0.6173156 -0.60856,-0.6173156 z m -1.70747,-6.72480009 h 0.739903 v 4.1854875 q 0,0.6173157 0.227663,0.8318438 0.227662,0.21452814 0.687365,0.21452814 h 0.109453 V 0 H 20.78555 Q 19.949328,0 19.537785,-0.44219063 19.130619,-0.88875939 19.130619,-1.8475688 Z m -2.482397,6.12937508 q -0.437812,0 -0.809953,-0.18825938 Q 15.470507,-0.2802 15.072097,-0.66547501 14.787519,-0.34587188 14.524832,-0.17074688 14.262144,0 13.784928,0 h -0.192637 v -0.79681876 h 0.170747 q 0.293334,0 0.494728,-0.16636876 Q 14.45916,-1.1339344 14.616772,-1.401 q 0.157613,-0.2670657 0.310847,-0.5647782 0.157613,-0.3020906 0.35025,-0.5691562 0.192638,-0.2670656 0.464081,-0.4334344 0.275822,-0.1707469 0.67861,-0.1707469 0.485972,0 0.844978,0.2364188 0.363384,0.2320406 0.5604,0.6260719 0.201394,0.3940312 0.201394,0.8800031 0,0.71363439 -0.363385,1.10766565 -0.359006,0.38965313 -1.015725,0.38965313 z m -0.21015,-2.46488438 q -0.218906,0 -0.398409,0.1488562 -0.179503,0.1444781 -0.323981,0.3765188 -0.144479,0.2320406 -0.25831,0.4815937 0.262688,0.2758219 0.542888,0.45094691 0.359006,0.23204063 0.639206,0.23204063 0.647962,0 0.647962,-0.65234064 0,-0.455325 -0.227662,-0.7442813 -0.223284,-0.2933343 -0.621694,-0.2933343 z M 12.958795,0 q -0.30209,0 -0.507862,-0.07880625 -0.201394,-0.08318438 -0.315225,-0.175125 -0.06567,0.57353438 -0.319603,1.10766564 -0.249553,0.53850941 -0.753038,0.93691881 -0.503484,0.3984093 -1.3309499,0.5604 L 9.4738078,1.6593094 Q 10.54207,1.4272688 10.979883,0.84497814 q 0.437812,-0.57791251 0.437812,-1.37035315 0,-0.37214063 -0.08318,-0.77930629 -0.07881,-0.4115437 -0.223284,-0.8362219 l 0.726768,-0.245175 0.236419,0.9150282 q 0.09632,0.3677625 0.306469,0.52099686 0.21015,0.15323438 0.529753,0.15323438 h 0.166369 V 0 Z M 6.1201629,0 Q 5.6166786,0 5.3408567,-0.17074688 5.0694129,-0.34587188 4.9074223,-0.66985314 4.7016504,-0.34587188 4.3820473,-0.17074688 4.0624442,0 3.4713973,0 H 3.0686098 v -0.79681876 h 0.4115437 q 0.5604,0 0.8187094,-0.20577184 0.2583094,-0.21015 0.2583094,-0.7617938 0,-0.1138313 -0.013134,-0.2670656 -0.00876,-0.1576125 -0.030647,-0.4378125 l 0.7311469,-0.091941 0.07005,0.9150282 q 0.026269,0.3677625 0.2232844,0.6085594 0.2013938,0.24079684 0.5910469,0.24079684 0.4640813,0 0.63045,-0.24955314 0.1663688,-0.2495531 0.1663688,-0.7180125 0,-0.1138313 -0.013134,-0.2714438 -0.00876,-0.1576125 -0.030647,-0.4334343 l 0.7311469,-0.091941 0.07005,0.9150282 q 0.021891,0.3546281 0.1882594,0.6041812 0.1663687,0.24517504 0.5385094,0.24517504 0.3633843,0 0.4991062,-0.27144374 0.1357219,-0.2714438 0.1357219,-0.6348282 0,-0.3283593 -0.065672,-0.6610968 -0.061294,-0.3327375 -0.1094531,-0.5385094 l 0.7486594,-0.2013938 q 0.078806,0.2933344 0.1269656,0.6260719 0.048159,0.3283594 0.048159,0.6567188 0,0.4728375 -0.1313438,0.88875936 Q 9.5307224,-0.51661876 9.2286317,-0.25830938 8.9309192,-0.00437813 8.4143005,0 7.9940005,0 7.7356911,-0.175125 7.4773817,-0.35025001 7.3153911,-0.66985314 7.0702161,-0.31522501 6.7681255,-0.1576125 6.470413,0 6.1201629,0 Z"
         id="path27" />
      <path
         style="font-size:8.9664px;font-family:Vazirmatn"
         d="m 33.917341,8.3715277 q 0,-0.8230875 -0.175125,-1.61115 -0.170746,-0.7924406 -0.51224,-1.436025 -0.341494,-0.6435844 -0.8406,-1.0244813 l 0.166369,-0.5341313 q 0.485971,0.2626875 0.880003,0.7311469 0.394031,0.4684594 0.674231,1.085775 0.284578,0.6129376 0.437812,1.3265719 0.153235,0.7136344 0.153235,1.4622938 0,0.7486594 -0.153235,1.4622938 -0.153234,0.7136345 -0.437812,1.3265715 -0.2802,0.617316 -0.674231,1.085775 -0.394032,0.46846 -0.880003,0.731147 l -0.166369,-0.534131 q 0.499106,-0.380897 0.8406,-1.024481 0.341494,-0.643585 0.51224,-1.4316471 0.175125,-0.7924407 0.175125,-1.6155282 z m -4.562005,1.7994093 q 1.6812,0 1.6812,-0.8712468 0,-0.4115437 -0.4203,-0.8712469 -0.4203,-0.4597031 -1.392244,-0.9894562 l 0.345872,-0.6917438 q 1.125178,0.5735344 1.668066,1.2127407 0.547265,0.6348281 0.547265,1.3265719 0,0.8230871 -0.569156,1.2433871 -0.564778,0.4203 -1.795031,0.4203 -0.586669,0 -1.059506,-0.105075 v -0.79244 q 0.573534,0.118209 0.993834,0.118209 z M 26.251244,4.9303214 h 0.739903 V 9.115809 q 0,0.6173156 0.227662,0.8318437 0.227663,0.2145283 0.687366,0.2145283 h 0.109453 V 10.959 h -0.109453 q -0.836222,0 -1.247766,-0.442191 Q 26.251244,10.07024 26.251244,9.1114309 Z M 23.269741,10.959 q -0.4203,0 -0.678609,-0.175125 -0.25831,-0.175125 -0.4203,-0.494729 -0.245175,0.354629 -0.547266,0.512241 -0.297712,0.157613 -0.647962,0.157613 -0.503485,0 -0.779307,-0.170747 -0.271443,-0.175125 -0.433434,-0.499107 -0.205772,0.323982 -0.525375,0.499107 Q 18.917885,10.959 18.326838,10.959 H 17.92405 v -0.796819 h 0.411544 q 0.5604,0 0.81871,-0.205772 0.258309,-0.21015 0.258309,-0.7617938 0,-0.1138312 -0.01313,-0.2670656 -0.0088,-0.1576125 -0.03065,-0.4378125 l 0.731147,-0.091941 0.07005,0.9150281 q 0.02627,0.3677625 0.223284,0.6085594 0.201394,0.240797 0.591047,0.240797 0.464081,0 0.63045,-0.2495533 0.166369,-0.2495531 0.166369,-0.7180125 0,-0.1138312 -0.01314,-0.2714437 -0.0088,-0.1576125 -0.03065,-0.4334344 l 0.731147,-0.091941 0.07005,0.9150281 q 0.02189,0.3546281 0.18826,0.6041813 0.166368,0.2451751 0.538509,0.2451751 0.647962,0 0.647962,-0.9675658 0,-0.1576125 -0.01313,-0.3283594 -0.0088,-0.1707468 -0.03065,-0.4509468 l 0.731147,-0.087563 0.07005,0.9850781 q 0.05254,0.8493564 0.866869,0.8493564 h 0.131344 V 10.959 h -0.122588 q -0.459703,0 -0.766172,-0.166369 -0.306469,-0.170747 -0.4203,-0.507863 -0.183881,0.323982 -0.424678,0.499107 Q 23.698797,10.959 23.269741,10.959 Z M 15.82255,4.3786777 16.457378,5.0135058 15.82255,5.6483339 15.187722,5.0135058 Z m -0.332738,5.7835033 q 0.494728,0 0.796819,-0.05692 0.306469,-0.05692 0.446569,-0.2495529 0.144478,-0.1970156 0.144478,-0.6085594 -0.214528,0.065672 -0.437813,0.1006969 -0.218906,0.035025 -0.472837,0.035025 -1.488563,0 -1.488563,-1.2214969 0,-0.4203 0.166369,-0.8406 0.170747,-0.4203 0.499106,-0.7005 0.32836,-0.2845781 0.796819,-0.2845781 0.429056,0 0.735525,0.2189062 0.310847,0.2189063 0.507863,0.5910469 0.201393,0.3677625 0.297712,0.8362219 0.09632,0.4640812 0.09632,0.9588094 0,0.6523406 -0.118209,1.0551281 -0.113832,0.3984089 -0.367763,0.6085599 -0.253931,0.205771 -0.661097,0.2802 -0.407165,0.07443 -0.993834,0.07443 h -1.61115 v -0.796819 z m 0.53851,-1.5323439 q 0.201393,0 0.398409,-0.035025 0.201394,-0.039403 0.402788,-0.096319 -0.03503,-0.3108468 -0.131344,-0.63045 -0.09194,-0.3196031 -0.275822,-0.5341312 -0.183881,-0.2189063 -0.49035,-0.2189063 -0.271444,0 -0.437813,0.1707469 -0.16199,0.1707469 -0.236418,0.4071656 -0.07005,0.2364188 -0.07005,0.4378125 0,0.3020907 0.214528,0.4027875 0.218906,0.096319 0.626072,0.096319 z M 12.214975,8.3715277 q 0,0.8230875 0.175125,1.6155282 0.175125,0.7880621 0.51224,1.4316471 0.341494,0.643584 0.8406,1.024481 l -0.166368,0.534131 Q 13.0906,12.714628 12.696568,12.246168 12.302537,11.777709 12.017959,11.160393 11.737759,10.547456 11.584525,9.8338215 11.43129,9.1201871 11.43129,8.3715277 q 0,-0.7486594 0.153235,-1.4622938 Q 11.737759,6.1955996 12.017959,5.582662 12.302537,4.9653464 12.696568,4.496887 13.0906,4.0284276 13.576572,3.7657401 l 0.166368,0.5341313 q -0.499106,0.3808969 -0.8406,1.0244813 -0.337115,0.6435844 -0.51224,1.436025 -0.175125,0.7880625 -0.175125,1.61115 z"
         id="path28" />
    </g>
    <path
       id="path9"
       d="m 199.11684,12.03334 h -60.90425 c -2.75119,0 -4.98139,-2.23019 -4.98139,-4.98138 V -7.05196 c 0,-2.75119 2.2302,-4.98138 4.98139,-4.98138 h 60.90425 c 2.75119,0 4.98138,2.23019 4.98138,4.98138 V 7.05196 c 0,2.75119 -2.23019,4.98138 -4.98138,4.98138 z"
       style="fill:#ffe6e6;fill-opacity:1;fill-rule:nonzero;stroke:#be1e2d;stroke-width:0.3985;stroke-linecap:butt;stroke-linejoin:miter;stroke-miterlimit:10;stroke-dasharray:none;stroke-opacity:1"
       transform="matrix(1.3333333,0,0,-1.3333333,3.1826667,292.992)" />
    <g
       id="text9"
       transform="matrix(1.3333333,0,0,1.3333333,216.624,286.99067)"
       aria-label="مدﺮﻣهﺪﻧﺎﻣ ﯽﻗﺎﺑ">
      <path
         style="font-size:8.9664px;font-family:Vazirmatn"
         d="m 14.580277,0.10069688 q -0.437813,0 -0.809953,-0.18825938 Q 13.402561,-0.2802 13.004152,-0.66547501 12.719574,-0.34587188 12.456886,-0.17074688 12.194199,0 11.716983,0 h -0.192638 v -0.79681876 h 0.170747 q 0.293335,0 0.494728,-0.16636876 0.201394,-0.17074688 0.359007,-0.43781248 0.157612,-0.2670657 0.310847,-0.5647782 0.157612,-0.3020906 0.35025,-0.5691562 0.192637,-0.2670656 0.464081,-0.4334344 0.275822,-0.1707469 0.678609,-0.1707469 0.485972,0 0.844978,0.2364188 0.363385,0.2320406 0.5604,0.6260719 0.201394,0.3940312 0.201394,0.8800031 0,0.71363439 -0.363384,1.10766565 -0.359006,0.38965313 -1.015725,0.38965313 z m -0.21015,-2.46488438 q -0.218906,0 -0.39841,0.1488562 -0.179503,0.1444781 -0.323981,0.3765188 -0.144478,0.2320406 -0.258309,0.4815937 0.262687,0.2758219 0.542887,0.45094691 0.359007,0.23204063 0.639207,0.23204063 0.647962,0 0.647962,-0.65234064 0,-0.455325 -0.227662,-0.7442813 -0.223285,-0.2933343 -0.621694,-0.2933343 z m -4.5707621,0.77055 q 0,-0.1138313 -0.052537,-0.2933344 -0.048159,-0.1838813 -0.1182093,-0.3414938 l -0.7749282,-1.7556281 0.6829875,-0.3196031 0.9938346,2.3379187 q 0.201394,0.4728376 0.35025,0.7267688 0.153234,0.25393126 0.297712,0.35025001 0.148857,0.0919406 0.337116,0.0919406 h 0.183881 V 0 H 11.51559 q -0.345872,0 -0.564778,-0.08318438 -0.214528,-0.08318437 -0.372141,-0.24955313 -0.157612,-0.16636875 -0.319603,-0.4203 -0.3064687,0.385275 -0.7836843,0.56915626 -0.4728375,0.17950312 -1.1820938,0.17950312 -0.3064687,0 -0.5516437,-0.02626875 -0.245175,-0.03064687 -0.4640813,-0.08318437 v -0.79244064 q 0.5034844,0.11820938 0.9500531,0.11820938 1.5717469,0 1.5717469,-0.80557499 z M 6.1141043,0 Q 5.8120136,0 5.6062418,-0.07880625 5.404848,-0.16199063 5.2910168,-0.25393125 5.2253449,0.31960313 4.9714136,0.85373439 4.7218605,1.3922438 4.2183761,1.7906532 q -0.5034844,0.3984093 -1.33095,0.5604 L 2.6291167,1.6593094 q 1.0682625,-0.2320406 1.506075,-0.81433126 0.4378125,-0.57791251 0.4378125,-1.37035315 0,-0.37214063 -0.083184,-0.77930629 Q 4.4110136,-1.716225 4.2665355,-2.1409032 L 4.9933043,-2.3860782 5.229723,-1.47105 q 0.096319,0.3677625 0.3064688,0.52099686 0.21015,0.15323438 0.5297531,0.15323438 H 6.2323136 V 0 Z M 1.5696104,0.10069688 q -0.4378125,0 -0.80995315,-0.18825938 Q 0.39189474,-0.2802 -0.00651464,-0.66547501 -0.29109277,-0.34587188 -0.55378027,-0.17074688 -0.81646778,0 -1.2936834,0 h -0.1926375 v -0.79681876 h 0.1707469 q 0.2933343,0 0.4947281,-0.16636876 Q -0.61945215,-1.1339344 -0.46183965,-1.401 -0.30422714,-1.6680657 -0.15099277,-1.9657782 0.00661974,-2.2678688 0.19925724,-2.5349344 0.39189474,-2.802 0.6633385,-2.9683688 q 0.27582188,-0.1707469 0.6786094,-0.1707469 0.4859719,0 0.8449781,0.2364188 0.3633844,0.2320406 0.5604,0.6260719 0.2013938,0.3940312 0.2013938,0.8800031 0,0.71363439 -0.3633844,1.10766565 -0.3590063,0.38965313 -1.015725,0.38965313 z m -0.21015,-2.46488438 q -0.2189063,0 -0.3984094,0.1488562 -0.17950313,0.1444781 -0.32398125,0.3765188 -0.14447813,0.2320406 -0.25830938,0.4815937 0.2626875,0.2758219 0.54288751,0.45094691 0.35900622,0.23204063 0.63920622,0.23204063 0.6479625,0 0.6479625,-0.65234064 0,-0.455325 -0.2276625,-0.7442813 -0.2232843,-0.2933343 -0.6216937,-0.2933343 z"
         id="path29" />
      <path
         style="font-size:8.9664px;font-family:Vazirmatn"
         d="M 22.672621,7.7191871 22.501875,7.5659527 22.965956,6.9661496 q 0.577912,0.4772156 1.015725,0.8931375 0.442191,0.4115437 0.691744,0.8099531 0.249553,0.3940313 0.249553,0.8187094 0,0.6654754 -0.455325,1.0595064 -0.455325,0.394031 -1.199607,0.394031 -0.761793,0 -1.208362,-0.37214 -0.446569,-0.376519 -0.446569,-0.9544318 0,-0.5078625 0.271444,-0.945675 0.271444,-0.4421906 0.788062,-0.9500531 z m 1.506075,1.7337375 q 0,-0.2013937 -0.148856,-0.4115437 Q 23.885362,8.8268527 23.662078,8.6167027 23.443171,8.4021746 23.215509,8.205159 q -0.402788,0.385275 -0.63045,0.6917437 -0.227663,0.3020907 -0.227663,0.6348282 0,0.2539312 0.214529,0.4421906 0.214528,0.1882595 0.691743,0.1882595 0.481594,0 0.696122,-0.1751251 0.218906,-0.175125 0.218906,-0.5341313 z m -4.811559,-0.087562 q 0,-0.1138312 -0.05254,-0.2933344 Q 19.26644,8.8881465 19.19639,8.730534 l -0.774928,-1.7556282 0.682987,-0.3196031 0.993835,2.3379188 q 0.201393,0.4728375 0.35025,0.7267687 0.153234,0.2539313 0.297712,0.3502498 0.148857,0.09194 0.337116,0.09194 h 0.183881 V 10.959 h -0.183881 q -0.345872,0 -0.564778,-0.08319 -0.214528,-0.08318 -0.372141,-0.249553 -0.157612,-0.166369 -0.319603,-0.4203 -0.306469,0.385275 -0.783684,0.569156 -0.472838,0.179504 -1.182094,0.179504 -0.306469,0 -0.551644,-0.02627 -0.245175,-0.03065 -0.464081,-0.08319 v -0.79244 q 0.503484,0.118209 0.950053,0.118209 1.571747,0 1.571747,-0.8055749 z M 14.481149,10.959 h -0.713635 v -0.796819 h 0.704878 q 0.437813,0 0.591047,-0.2539314 0.157613,-0.2539312 0.157613,-0.6435844 0,-0.2845781 -0.05254,-0.6085594 -0.05254,-0.3239812 -0.113831,-0.6523406 l 0.761794,-0.1926375 q 0.07443,0.35025 0.118209,0.6873656 0.04378,0.3371157 0.04378,0.6435844 0,0.525375 -0.144478,0.9369183 -0.144478,0.411544 -0.472837,0.647963 Q 15.032792,10.959 14.481149,10.959 Z M 15.01528,5.792812 15.650108,6.4276402 15.01528,7.0624683 14.380452,6.4276402 Z M 12.178254,4.9303214 h 0.739903 V 9.115809 q 0,0.6173156 0.227663,0.8318437 0.227662,0.2145283 0.687365,0.2145283 h 0.109453 V 10.959 h -0.109453 q -0.836222,0 -1.247765,-0.442191 Q 12.178254,10.07024 12.178254,9.1114309 Z M 9.6958573,11.059697 q -0.4378125,0 -0.8099531,-0.18826 Q 8.5181417,10.6788 8.1197323,10.293525 7.8351542,10.613128 7.5724667,10.788253 7.3097792,10.959 6.8325635,10.959 H 6.639926 v -0.796819 h 0.1707469 q 0.2933344,0 0.4947281,-0.1663689 Q 7.5067948,9.8250652 7.6644073,9.5579996 7.8220198,9.290934 7.9752542,8.9932215 8.1328667,8.6911308 8.3255042,8.4240652 8.5181417,8.1569996 8.7895854,7.9906308 9.0654073,7.819884 9.4681948,7.819884 q 0.4859719,0 0.8449782,0.2364187 0.363384,0.2320406 0.5604,0.6260719 0.201394,0.3940313 0.201394,0.8800031 0,0.7136343 -0.363385,1.1076653 -0.359006,0.389654 -1.0157247,0.389654 z m -0.21015,-2.4648849 q -0.2189062,0 -0.3984094,0.1488562 -0.1795031,0.1444782 -0.3239812,0.3765188 -0.1444782,0.2320406 -0.2583094,0.4815938 0.2626875,0.2758218 0.5428875,0.4509471 0.3590063,0.23204 0.6392063,0.23204 0.6479629,0 0.6479629,-0.6523403 0,-0.455325 -0.227663,-0.7442812 Q 9.8841167,8.5948121 9.4857073,8.5948121 Z M -0.88547416,13.213734 q -0.94567504,0 -1.51483124,-0.345872 -0.5647782,-0.345872 -0.8187094,-0.923784 -0.2495532,-0.573535 -0.2495532,-1.2609 0,-0.297713 0.043781,-0.6873659 0.048159,-0.3896531 0.2145281,-0.8887594 l 0.6961219,0.2583094 q -0.1269656,0.4378125 -0.1663687,0.7749279 -0.035025,0.337116 -0.035025,0.569157 0,0.472837 0.1663687,0.86249 0.1663688,0.389653 0.5647781,0.621694 0.4027876,0.232041 1.09890944,0.232041 0.65671876,0 1.12517814,-0.161991 0.47283751,-0.161991 0.72239064,-0.385275 0.25393128,-0.223284 0.25393128,-0.407166 0,-0.21015 -0.1838813,-0.359006 -0.17950311,-0.148856 -0.58666874,-0.148856 h -0.64796251 q -0.0875625,0 -0.12696563,-0.07443 -0.0394031,-0.07881 -0.0744281,-0.201394 l -0.11820938,-0.4203 q -0.004378,-0.03502 0.0175125,-0.06567 0.0218906,-0.03503 0.0788063,-0.03503 H 2.0040884 v 0.796819 H 1.8245853 q 0.065672,0.131344 0.083184,0.249553 0.021891,0.118209 0.021891,0.245175 0,0.288956 -0.1707469,0.595425 -0.1663688,0.310847 -0.5166188,0.573534 -0.34587186,0.262688 -0.87562499,0.424678 -0.52975313,0.161991 -1.25214377,0.161991 z M -5.3599185,4.461862 -4.746981,5.0704214 -5.3599185,5.687737 -5.9684778,5.0704214 Z m -1.4535375,0 0.6129375,0.6085594 L -6.813456,5.687737 -7.4220154,5.0704214 Z m 0.3896531,5.700319 q 0.4947282,0 0.7968188,-0.05692 0.3064688,-0.05692 0.4465688,-0.2495529 0.1444781,-0.1970156 0.1444781,-0.6085594 -0.2145281,0.065672 -0.4378125,0.1006969 -0.2189063,0.035025 -0.4728375,0.035025 -1.4885625,0 -1.4885625,-1.2214969 0,-0.4203 0.1663687,-0.8406 0.1707469,-0.4203 0.4991063,-0.7005 0.3283593,-0.2845781 0.7968187,-0.2845781 0.4290563,0 0.735525,0.2189062 0.3108469,0.2189063 0.5078626,0.5910469 0.2013937,0.3677625 0.2977125,0.8362219 0.096319,0.4640812 0.096319,0.9588094 0,0.6523406 -0.1182094,1.0551281 -0.1138312,0.3984089 -0.3677625,0.6085599 -0.2539312,0.205771 -0.6610969,0.2802 -0.4071656,0.07443 -0.9938344,0.07443 h -1.61115 v -0.796819 z m 0.5385094,-1.5323439 q 0.2013938,0 0.3984094,-0.035025 0.2013938,-0.039403 0.4027875,-0.096319 -0.035025,-0.3108468 -0.1313437,-0.63045 -0.091941,-0.3196031 -0.2758219,-0.5341312 -0.1838813,-0.2189063 -0.49035,-0.2189063 -0.2714438,0 -0.4378125,0.1707469 -0.1619907,0.1707469 -0.2364188,0.4071656 -0.07005,0.2364188 -0.07005,0.4378125 0,0.3020907 0.2145281,0.4027875 0.2189063,0.096319 0.6260719,0.096319 z M -9.6767498,4.9303214 h 0.7399032 V 9.115809 q 0,0.6173156 0.2276625,0.8318437 0.2276625,0.2145283 0.6873656,0.2145283 h 0.1094531 V 10.959 h -0.1094531 q -0.8362219,0 -1.2477656,-0.442191 Q -9.6767498,10.07024 -9.6767498,9.1114309 Z M -12.277356,10.959 h -0.805575 v -0.796819 h 0.796818 q 0.437813,0 0.591047,-0.2539314 0.157613,-0.2539312 0.157613,-0.6435844 0,-0.2845781 -0.05254,-0.6085594 -0.05254,-0.3239812 -0.113831,-0.6523406 l 0.761794,-0.1926375 q 0.07443,0.35025 0.118209,0.6873656 0.04378,0.3371157 0.04378,0.6435844 0,0.525375 -0.144479,0.9369183 -0.144478,0.411544 -0.472837,0.647963 -0.328359,0.232041 -0.880003,0.232041 z m 0.09632,0.669853 0.634829,0.634828 -0.634829,0.634828 -0.634828,-0.634828 z"
         id="path30" />
    </g>
    <path
       id="path11"
       d="m 136.15195,139.97447 -65.3295,39.19716"
       style="fill:none;stroke:#b8860b;stroke-width:2.98883;stroke-linecap:butt;stroke-linejoin:miter;stroke-miterlimit:10;stroke-dasharray:none;stroke-opacity:1"
       transform="matrix(1.3333333,0,0,-1.3333333,3.1826667,292.992)" />
    <path
       id="path12"
       d="M -5.18063,7.07033 C -4.23416,2.82808 -2.12502,0.82486 0,0 -2.12502,-0.82486 -4.23416,-2.82808 -5.18063,-7.07033"
       style="fill:none;stroke:#b8860b;stroke-width:2.98883;stroke-linecap:round;stroke-linejoin:round;stroke-miterlimit:10;stroke-dasharray:none;stroke-opacity:1"
       transform="matrix(-1.1432933,-0.68597333,-0.68597333,1.1432933,95.90404,53.07136)" />
    <path
       id="path13"
       d="m 201.16902,139.97581 65.32968,39.19582"
       style="fill:none;stroke:#b8860b;stroke-width:2.98883;stroke-linecap:butt;stroke-linejoin:miter;stroke-miterlimit:10;stroke-dasharray:none;stroke-opacity:1"
       transform="matrix(1.3333333,0,0,-1.3333333,3.1826667,292.992)" />
    <path
       id="path14"
       d="M -5.18063,7.07033 C -4.23416,2.82808 -2.12502,0.82486 0,0 -2.12502,-0.82486 -4.23416,-2.82808 -5.18063,-7.07033"
       style="fill:none;stroke:#b8860b;stroke-width:2.98883;stroke-linecap:round;stroke-linejoin:round;stroke-miterlimit:10;stroke-dasharray:none;stroke-opacity:1"
       transform="matrix(1.1433067,-0.68597333,-0.68597333,-1.1433067,360.22285,53.07136)" />
    <path
       id="path15"
       d="M 136.15329,100.96866 71.87572,62.40514"
       style="fill:none;stroke:#b8860b;stroke-width:1.99255;stroke-linecap:butt;stroke-linejoin:miter;stroke-miterlimit:10;stroke-dasharray:none;stroke-opacity:1"
       transform="matrix(1.3333333,0,0,-1.3333333,3.1826667,292.992)" />
    <path
       id="path16"
       d="M -3.9851,5.27061 C -3.25705,2.1082 -1.63463,0.6149 0,0 -1.63463,-0.6149 -3.25705,-2.1082 -3.9851,-5.27061"
       style="fill:none;stroke:#b8860b;stroke-width:1.99255;stroke-linecap:round;stroke-linejoin:round;stroke-miterlimit:10;stroke-dasharray:none;stroke-opacity:1"
       transform="matrix(-1.1433067,0.68596,0.68596,1.1433067,97.87792,210.46856)" />
    <path
       id="path17"
       d="M 201.1677,100.96777 265.7262,62.23654"
       style="fill:none;stroke:#be1e2d;stroke-width:1.99255;stroke-linecap:butt;stroke-linejoin:miter;stroke-miterlimit:10;stroke-dasharray:none;stroke-opacity:1"
       transform="matrix(1.3333333,0,0,-1.3333333,3.1826667,292.992)" />
    <path
       id="path18"
       d="M -3.9851,5.27061 C -3.25705,2.1082 -1.63463,0.6149 0,0 -1.63463,-0.6149 -3.25705,-2.1082 -3.9851,-5.27061"
       style="fill:none;stroke:#be1e2d;stroke-width:1.99255;stroke-linecap:round;stroke-linejoin:round;stroke-miterlimit:10;stroke-dasharray:none;stroke-opacity:1"
       transform="matrix(1.1433333,0.68593333,0.68593333,-1.1433333,358.62333,210.69332)" />
    <path
       id="path19"
       d="m 168.66049,91.13023 4.7e-4,-77.90163"
       style="fill:none;stroke:#808080;stroke-width:0.99628;stroke-linecap:butt;stroke-linejoin:miter;stroke-miterlimit:10;stroke-dasharray:2.98883, 2.98883;stroke-dashoffset:0;stroke-opacity:1"
       transform="matrix(1.3333333,0,0,-1.3333333,3.1826667,292.992)" />
    <path
       id="path20"
       d="M -2.78957,3.47087 C -2.27992,1.38832 -1.14423,0.40492 0,0 -1.14423,-0.40492 -2.27992,-1.38832 -2.78957,-3.47087"
       style="fill:none;stroke:#808080;stroke-width:0.99628;stroke-linecap:round;stroke-linejoin:round;stroke-miterlimit:10;stroke-dasharray:none;stroke-opacity:1"
       transform="matrix(0,1.3333333,1.3333333,0,228.06395,276.01804)" />
  </g>
</svg>
