<?xml version="1.0" encoding="UTF-8" standalone="no"?>


<svg class="tikz-diagram" id="iran-action-ch9-tikz-4-f3a1fdc2440d"
   version="1.1"
   id="svg1"
   width="572.97333"
   height="119.42667"
   viewBox="0 0 572.97333 119.42667"
   sodipodi:docname="iran-action-ch9-tikz-4-f3a1fdc2440d.pdf"
   xmlns:inkscape="http://www.inkscape.org/namespaces/inkscape"
   xmlns:sodipodi="http://sodipodi.sourceforge.net/DTD/sodipodi-0.dtd"
   xmlns="http://www.w3.org/2000/svg"
   xmlns:svg="http://www.w3.org/2000/svg">
  <defs
     id="defs1" />
  <sodipodi:namedview
     id="namedview1"
     pagecolor="#ffffff"
     bordercolor="#000000"
     borderopacity="0.25"
     inkscape:showpageshadow="2"
     inkscape:pageopacity="0.0"
     inkscape:pagecheckerboard="0"
     inkscape:deskcolor="#d1d1d1">
    <inkscape:page
       x="0"
       y="0"
       inkscape:label="1"
       id="page1"
       width="572.97333"
       height="119.42667"
       margin="0"
       bleed="0" />
  </sodipodi:namedview>
  <g
     id="g1"
     inkscape:groupmode="layer"
     inkscape:label="1">
    <path
       id="path1"
       d="m 183.48358,28.3468 h -366.96716 c -8.25354,0 -14.94415,-6.69061 -14.94415,-14.94415 v -26.8053 c 0,-8.25354 6.69061,-14.94415 14.94415,-14.94415 h 366.96716 c 8.25354,0 14.94415,6.69061 14.94415,14.94415 v 26.8053 c 0,8.25354 -6.69061,14.94415 -14.94415,14.94415 z"
       style="fill:#e6fae6;fill-opacity:1;fill-rule:nonzero;stroke:#006633;stroke-width:2.98883;stroke-linecap:butt;stroke-linejoin:miter;stroke-miterlimit:10;stroke-dasharray:none;stroke-opacity:1"
       transform="matrix(1.3333333,0,0,-1.3333333,286.48533,59.713333)" />
    <path
       style="font-weight:800;font-size:14.3462px;font-family:Vazirmatn"
       d="m 41.141033,0 q -0.980697,0 -1.611145,-0.37126396 -0.630449,-0.37826895 -0.910648,-1.23287654 -0.805573,0.63044822 -1.75825,0.63044822 -1.162827,0 -1.940379,-0.63044822 -0.777553,-0.6374532 -0.777553,-1.8773348 0,-0.9106475 0.525373,-1.5551057 0.525374,-0.6514631 1.351961,-1.0927769 0.833593,-0.4413138 1.737236,-0.714508 l -0.04903,-0.3362391 1.695205,-0.343244 0.665473,4.4971974 q 0.06305,0.4273038 0.329234,0.714508 0.273194,0.2872042 0.770548,0.2872042 h 0.217154 V 0 Z m -2.907067,-3.7616745 q 0,-0.09807 -0.02102,-0.2171544 -0.01401,-0.1260897 -0.03502,-0.2591843 l -0.119084,-0.7355229 q -0.497354,0.1681195 -0.980697,0.3922789 -0.476339,0.2171544 -0.791563,0.4833436 -0.308219,0.2591843 -0.308219,0.5603985 0,0.2872042 0.231164,0.4693337 0.238169,0.1751245 0.616438,0.1751245 0.322229,0 0.644458,-0.091065 0.329234,-0.09807 0.546389,-0.2872042 0.217154,-0.1961394 0.217154,-0.4903486 z m -7.698473,0.4132938 v -6.4726019 h 1.88434 v 6.4726019 q 0,0.6584682 0.210149,0.9947073 0.217155,0.329234 0.854608,0.329234 h 0.224159 V 0 H 33.4986 Q 32.756072,0 32.286738,-0.22415937 31.82441,-0.45532373 31.474161,-0.90364248 31.102897,-0.47633867 30.605543,-0.23816934 30.115195,0 29.295612,0 h -0.427304 v -2.0244394 h 0.378269 q 0.707503,0 0.994707,-0.3152241 0.294209,-0.3222291 0.294209,-1.0087172 z m -11.453142,1.3239413 h 1.190846 q 0.903643,0 1.681196,-0.1681195 0.777552,-0.1751245 1.597135,-0.5183685 0.826588,-0.3432441 1.877335,-0.8546077 -1.078767,-0.3922789 -1.74424,-0.6584681 -0.665473,-0.2731943 -0.910648,-0.2731943 -0.378269,0 -0.686488,0.2381694 -0.301214,0.2311643 -0.497353,0.4903486 l -0.371264,0.4693337 -1.569116,-0.7705478 0.315224,-0.5043586 q 0.497354,-0.8125778 1.190847,-1.3449563 0.693493,-0.5393835 1.625155,-0.5393835 0.392279,0 0.910648,0.1821295 0.525373,0.1821295 1.120797,0.4553237 0.602428,0.2661893 1.239881,0.5393835 0.644458,0.2661893 1.267902,0.4553238 0.630448,0.1891344 1.204856,0.1961394 v 1.8563198 q -0.532378,0.07005 -0.987702,0.2381694 -0.455324,0.1611145 -0.945672,0.4132938 -0.490349,0.2521793 -1.141812,0.6024283 -0.896638,0.4763387 -1.695205,0.81958275 Q 22.96311,-0.357254 22.122512,-0.17512451 21.288919,0 20.252182,0 H 19.082351 Z M 18.047407,0 Q 17.409954,0 16.99666,-0.24517432 16.716461,1.3659712 15.616679,2.4167183 14.523902,3.4674653 12.695602,3.8177144 L 12.002109,1.9473846 q 1.015722,-0.2171544 1.74424,-0.5814134 0.735523,-0.357254 1.134807,-0.95968233 0.399284,-0.60242832 0.399284,-1.55510567 0,-0.6374532 -0.203145,-1.429016 -0.203144,-0.7985678 -0.434309,-1.4850559 l 1.88434,-0.6094333 0.406289,1.5831256 q 0.119085,0.4483188 0.350249,0.7565379 0.231164,0.3082191 0.686488,0.3082191 h 0.273194 V 0 Z m -7.586393,0.16111455 q -0.7285179,0 -1.3659712,-0.30821914 Q 8.4645946,-0.46232871 7.8621663,-0.92465742 7.4768924,-0.5393835 7.0565935,-0.26618926 6.6432997,0 5.8447319,0 H 5.5365128 V -2.0244394 H 5.809707 q 0.343244,0 0.6164383,-0.2661892 0.2801992,-0.2661893 0.5323785,-0.6864881 0.2591843,-0.4273038 0.5393835,-0.8966375 0.2872042,-0.4763387 0.6374532,-0.8966375 0.357254,-0.4273038 0.8265877,-0.6934931 0.4693337,-0.2661892 1.0997818,-0.2661892 0.882628,0 1.527086,0.4202988 0.644458,0.4132939 0.994707,1.0997819 0.350249,0.6794831 0.350249,1.4850559 0,0.8265877 -0.273194,1.4780509 -0.273194,0.65146316 -0.826588,1.02973211 -0.546388,0.37826894 -1.372976,0.37826894 z M 10.124775,-3.8037044 q -0.2872042,0 -0.5183686,0.1961395 -0.2311643,0.1891344 -0.4062888,0.4623287 -0.1751246,0.2731942 -0.2942092,0.5183685 0.2031444,0.1821295 0.3852739,0.3152241 0.1821295,0.1330947 0.350249,0.2311644 0.2521793,0.1400996 0.4623287,0.1961395 0.210149,0.05604 0.364259,0.05604 0.371264,0 0.532379,-0.2661893 0.161114,-0.2731942 0.161114,-0.6164382 0,-0.4413138 -0.273194,-0.7635429 -0.273194,-0.3292341 -0.763543,-0.3292341 z M 5.7456532,-5.365815 q 0,-0.5323786 0.378269,-0.8826276 0.3782689,-0.350249 0.9106474,-0.350249 0.5393835,0 0.9106475,0.350249 0.3782689,0.350249 0.3782689,0.8826276 0,0.5253735 -0.3782689,0.8756225 -0.378269,0.350249 -0.9106475,0.350249 -0.5463885,0 -0.9176524,-0.343244 -0.371264,-0.350249 -0.371264,-0.8826275 z m 0,4.1259335 q 0,-0.5253736 0.378269,-0.8756226 0.3782689,-0.357254 0.9106474,-0.357254 0.5393835,0 0.9106475,0.357254 0.3782689,0.350249 0.3782689,0.8756226 0,0.53237847 -0.3782689,0.8826275 -0.378269,0.35024902 -0.9106475,0.35024902 -0.5463885,0 -0.9176524,-0.35024902 -0.371264,-0.35024903 -0.371264,-0.8826275 z M 50.871736,-9.4707336 q 0.03503,0.3222291 0.05604,0.6794831 0.02802,0.350249 0.02802,0.6794831 0,1.0087172 -0.266189,1.7792651 -0.259185,0.7705478 -0.868618,1.2048566 -0.609433,0.4343088 -1.653175,0.4343088 -0.19614,0 -0.497354,-0.01401 -0.294209,-0.021015 -0.560398,-0.077055 0.09106,0.9036425 0.126089,1.7582501 0.03502,0.8476027 0.03502,1.6321605 V 0 h -1.919365 v -1.4150061 q 0,-1.6671853 -0.126089,-3.0051366 -0.12609,-1.3449562 -0.413294,-2.4587481 -0.287204,-1.1207969 -0.763543,-2.1084991 l 1.793275,-0.6444582 q 0.21015,0.5113635 0.357254,0.9036424 0.147105,0.3922789 0.350249,0.8896326 0.16812,0.3992838 0.336239,0.6444582 0.175125,0.2381693 0.448319,0.350249 0.280199,0.1050747 0.763543,0.1050747 0.560398,0 0.833592,-0.3222291 0.273195,-0.3222291 0.273195,-0.8125777 0,-0.385274 -0.04904,-0.735523 -0.04203,-0.357254 -0.09807,-0.6934931 z M 184.4444,3.60056 q -1.5411,0 -2.51479,-0.5954234 -0.96669,-0.5954233 -1.42902,-1.5971355 -0.45532,-0.99470725 -0.45532,-2.21357385 0,-0.69349305 0.13309,-1.45003095 0.1401,-0.7565379 0.43431,-1.5410957 l 1.70221,0.6164383 q -0.21015,0.6094333 -0.33624,1.2118616 -0.12609,0.6024283 -0.12609,1.13480682 0,0.67948311 0.23817,1.22587159 0.24518,0.55339345 0.81258,0.87562259 0.5674,0.329234 1.5411,0.329234 1.11379,0 1.78627,-0.2311643 0.67247,-0.2311644 0.97369,-0.51836856 0.30822,-0.2872042 0.30822,-0.44831875 0,-0.24517432 -0.23817,-0.3222291 Q 187.04324,0 186.53188,0 h -1.10679 q -0.2872,0 -0.36426,-0.14710459 -0.0771,-0.14710459 -0.1471,-0.39227891 l -0.30122,-1.085772 q -0.049,-0.1751245 -0.035,-0.2872042 0.021,-0.1120797 0.27319,-0.1120797 h 4.23101 V 0 h 0.056 q 0.0631,0.24517432 0.0631,0.39227891 0,0.85460759 -0.56741,1.58312559 -0.56039,0.7355229 -1.62515,1.1768367 Q 185.95047,3.60056 184.4444,3.60056 Z m -11.57225,-4.2099933 q -0.63045,0.21715439 -1.44303,0.41329385 Q 170.62355,0 169.853,0 h -0.69349 v -2.0244394 h 0.60243 q 0.23116,0 0.4343,-0.007 0.21015,-0.007 0.42731,-0.021015 -0.21716,-0.2801992 -0.35025,-0.7425279 -0.1331,-0.4693337 -0.1331,-0.8686176 0,-0.5954233 0.29421,-1.1698317 0.29421,-0.5744084 0.88263,-0.9596823 0.58842,-0.385274 1.46404,-0.4132939 l 0.67248,-1.3309463 q 1.30293,0.6164383 2.31164,1.1278019 1.01573,0.5113635 1.70221,1.0087172 0.6935,0.4973536 1.05075,1.078767 0.35725,0.5744084 0.35725,1.3309462 0,1.4290161 -0.8546,2.17854897 -0.85461,0.74252793 -2.26261,0.74252793 -0.73552,0 -1.5411,-0.1821295 -0.80557,-0.18212949 -1.34495,-0.357254 z m -0.98771,-3.0681814 q 0,0.3852739 0.35025,0.7215129 0.35025,0.3292341 0.75654,0.4553238 0.18914,-0.04203 0.43431,-0.1891345 0.25218,-0.1541096 0.43431,-0.371264 0.18213,-0.2241593 0.18213,-0.4763386 0,-0.4202989 -0.30122,-0.7565379 -0.30121,-0.3362391 -0.73552,-0.3362391 -0.44832,0 -0.78456,0.2872042 -0.33624,0.2801992 -0.33624,0.6654732 z m 3.06819,1.6531753 q 0.32923,0.05604 0.63745,0.08406 0.30822,0.02802 0.44131,0.02802 0.4133,0 0.75654,-0.2101494 0.34324,-0.2171544 0.34324,-0.8125777 0,-0.1471046 -0.11208,-0.3362391 -0.10507,-0.1961394 -0.46232,-0.4763386 -0.35025,-0.2801993 -1.07877,-0.6864881 0.0981,0.3012141 0.0981,0.6234432 0,0.5463885 -0.17513,0.9947073 -0.16812,0.4413137 -0.44831,0.7915627 z m -10.40939,0.021015 q 0.5744,0 1.12079,-0.077055 0.5534,-0.08406 0.91065,-0.3082191 0.36426,-0.2241594 0.36426,-0.6514632 0,-0.4413138 -0.4273,-0.9386674 -0.4203,-0.5043586 -1.1208,-0.9877022 -0.69349,-0.4833437 -1.51308,-0.8686176 l 0.86162,-1.8212949 q 0.74252,0.3642589 1.45003,0.8195827 0.7145,0.4483187 1.28191,1.0017122 0.57441,0.5533934 0.91065,1.2258716 0.34324,0.6724781 0.34324,1.4850558 0,1.1207969 -0.51136,1.807285 -0.50436,0.68648806 -1.42202,0.9947072 -0.91765,0.30821914 -2.14352,0.30821914 -0.5604,0 -1.04374,-0.0350249 -0.48334,-0.04202989 -0.94567,-0.14710459 V -2.2135738 q 0.45532,0.091065 0.97369,0.1541095 0.52537,0.05604 0.91065,0.05604 z m -14.70946,-4.6092772 1.2609,1.2608965 -1.2609,1.2538915 -1.25389,-1.2538915 z m 0.0911,7.7054786 q 1.01572,0 1.59713,-0.32222915 0.58142,-0.3222291 0.82659,-0.87562256 0.25218,-0.56039843 0.25218,-1.26089649 0,-0.7495329 -0.24517,-1.5481007 -0.23817,-0.8055727 -0.53939,-1.5410957 l 1.87033,-0.700498 q 0.39228,1.057752 0.5534,1.9403796 0.16812,0.8826275 0.16812,1.8002799 0,2.08748422 -1.14882,3.2993458 -1.14181,1.2118617 -3.33437,1.2118617 -1.50607,0 -2.48677,-0.5744084 -0.97369,-0.5744084 -1.44303,-1.56911566 -0.46933,-0.99470722 -0.46933,-2.24859874 0,-0.8335927 0.18213,-1.7232252 0.18213,-0.8896325 0.52537,-1.779265 l 1.70221,0.6514632 q -0.25918,0.7425279 -0.4343,1.4500309 -0.17513,0.707503 -0.17513,1.3239413 0,0.67247815 0.23817,1.23287659 0.23817,0.56039844 0.80557,0.8966375 0.56741,0.33623911 1.55511,0.33623911 z m -8.03472,-10.9137596 h 1.89135 v 6.4025521 q 0,0.742528 0.21715,1.071762 0.21716,0.3222291 0.89664,0.3222291 h 0.17512 V 0 h -0.17512 q -1.56912,0 -2.29063,-0.81257773 -0.71451,-0.81257777 -0.71451,-2.43773317 z m -3.99284,9.98209715 q -0.72852,0 -1.36598,-0.30821914 -0.63044,-0.31522412 -1.23287,-0.77755283 -0.38528,0.38527392 -0.80557,0.65846816 Q 134.07957,0 133.281,0 h -0.30822 v -2.0244394 h 0.2732 q 0.34324,0 0.61644,-0.2661892 0.2802,-0.2661893 0.53238,-0.6864881 0.25918,-0.4273038 0.53938,-0.8966375 0.2872,-0.4763387 0.63745,-0.8966375 0.35726,-0.4273038 0.82659,-0.6934931 0.46933,-0.2661892 1.09978,-0.2661892 0.88263,0 1.52709,0.4202988 0.64446,0.4132939 0.99471,1.0997819 0.35024,0.6794831 0.35024,1.4850559 0,0.8265877 -0.27319,1.4780509 -0.27319,0.65146316 -0.82659,1.02973211 -0.54639,0.37826894 -1.37297,0.37826894 z m -0.33624,-3.96481895 q -0.28721,0 -0.51837,0.1961395 -0.23117,0.1891344 -0.40629,0.4623287 -0.17512,0.2731942 -0.29421,0.5183685 0.20314,0.1821295 0.38527,0.3152241 0.18213,0.1330947 0.35025,0.2311644 0.25218,0.1400996 0.46233,0.1961395 0.21015,0.05604 0.36426,0.05604 0.37127,0 0.53238,-0.2661893 0.16111,-0.2731942 0.16111,-0.6164382 0,-0.4413138 -0.27319,-0.7635429 -0.27319,-0.3292341 -0.76354,-0.3292341 z m -7.75971,-4.3570978 1.26089,1.2608964 -1.26089,1.2538915 -1.25389,-1.2538915 z m -2.73895,11.9855215 -0.71451,-1.8773347 q 1.01572,-0.2171544 1.74424,-0.5814134 0.73552,-0.357254 1.13481,-0.95968233 0.39928,-0.60242832 0.39928,-1.55510567 0,-0.6374532 -0.20314,-1.429016 -0.20315,-0.7985678 -0.43431,-1.4850559 l 1.89134,-0.6094333 q 0.2732,0.7635429 0.4133,1.6461704 0.1471,0.8826276 0.1471,1.6952053 0,1.47104591 -0.54639,2.521793 -0.53938,1.057752 -1.52708,1.7092152 -0.9807,0.6584682 -2.30464,0.9246574 z m -3.3764,-13.6457019 h 1.89135 v 6.4025521 q 0,0.742528 0.21715,1.071762 0.21716,0.3222291 0.89664,0.3222291 h 0.17512 V 0 h -0.17512 q -1.56912,0 -2.29063,-0.81257773 -0.71451,-0.81257777 -0.71451,-2.43773317 z M 115.98751,0 q -0.7075,0 -1.19084,-0.23816934 -0.47634,-0.24517431 -0.78456,-0.6444582 -0.38528,0.40628887 -0.91766,0.6444582 Q 112.56208,0 111.7495,0 h -0.64446 v -2.0244394 h 0.65847 q 0.77055,0 1.09278,-0.1891344 0.32923,-0.1891345 0.32923,-0.9106475 0,-0.1120797 -0.014,-0.371264 -0.014,-0.2591842 -0.035,-0.5674034 -0.021,-0.3152241 -0.042,-0.5674034 l 1.75826,-0.2171544 0.1471,1.8913447 q 0.063,0.9316624 1.00171,0.9316624 0.58142,0 0.77755,-0.2381693 0.19614,-0.2451743 0.19614,-0.8616126 0,-0.09807 -0.014,-0.357254 -0.014,-0.2661892 -0.035,-0.5814134 -0.021,-0.3152241 -0.042,-0.5674034 l 1.75825,-0.2171544 0.1471,1.8913447 q 0.028,0.4273039 0.21015,0.6794831 0.18914,0.2521793 0.63746,0.2521793 0.4203,0 0.57441,-0.329234 0.16111,-0.3362391 0.16111,-0.7985678 0,-0.3992839 -0.0771,-0.8195827 -0.07,-0.4273038 -0.16111,-0.7705479 -0.0841,-0.350249 -0.12609,-0.5113635 l 1.81429,-0.4973537 q 0.1401,0.5533935 0.23116,1.1838417 0.0911,0.6234433 0.0911,1.2398816 0,0.8686176 -0.23116,1.6321604 -0.22416,0.75653792 -0.77055,1.22587161 Q 120.59679,0 119.65112,0 q -0.63045,0 -1.06476,-0.25918428 -0.4273,-0.25918427 -0.72151,-0.63745322 -0.35726,0.37826895 -0.81258,0.63745322 Q 116.60395,0 115.98751,0 Z m -1.76627,-1.5551057 q 0,1.63916547 -0.60943,2.7249374 -0.60243,1.085772 -1.70922,1.7232252 -1.10678,0.6374533 -2.61986,0.9246575 l -0.69349,-1.8703298 q 1.42902,-0.2731943 2.3887,-0.7775529 0.96668,-0.50435856 1.22587,-1.2398815 -0.17513,0.0350249 -0.36426,0.06304482 -0.18913,0.02101494 -0.34324,0.02101494 -1.33095,0 -2.09449,-0.58841836 -0.76355,-0.5884184 -0.76355,-1.9333746 0,-0.5603984 0.16812,-1.1418118 0.16812,-0.5884184 0.50436,-1.078767 0.33624,-0.4973536 0.83359,-0.7985678 0.49736,-0.3012141 1.15583,-0.3012141 0.75653,0 1.30292,0.3642589 0.5534,0.364259 0.91065,0.9736923 0.35725,0.6094333 0.53238,1.3729762 0.17512,0.7635429 0.17512,1.5621106 z m -2.75295,-0.4483187 q 0.30121,0 0.54638,-0.035025 0.25218,-0.035025 0.4133,-0.07005 -0.042,-0.357254 -0.16112,-0.7635429 -0.11908,-0.4062889 -0.35725,-0.6934931 -0.23116,-0.2942091 -0.62344,-0.2942091 -0.33624,0 -0.53238,0.2241593 -0.18914,0.2241594 -0.26619,0.5253736 -0.0771,0.3012141 -0.0771,0.5253735 0,0.378269 0.30122,0.4833437 0.30822,0.09807 0.75654,0.09807 z m -5.09329,-7.9996876 1.1278,1.1207968 -1.1278,1.1278018 -1.1278,-1.1278018 z m 1.22587,1.7862699 1.1278,1.1278019 -1.1278,1.1278018 -1.1278,-1.1278018 z m -2.44474,0 1.1208,1.1278019 -1.1208,1.1278018 -1.1278,-1.1278018 z M 104.88294,0 q -0.32223,0 -0.58842,-0.09806973 -0.25918,-0.1050747 -0.48334,-0.23816933 -0.19614,1.80728496 -1.34496,2.87204196 -1.14181,1.0647571 -3.152241,1.0647571 -1.506071,0 -2.486769,-0.5744084 -0.973692,-0.5744084 -1.443025,-1.5691157 -0.469334,-0.99470719 -0.469334,-2.24159371 0,-0.83359269 0.182129,-1.72322519 0.18213,-0.8966375 0.525374,-1.78627 l 1.70221,0.6514632 q -0.259184,0.7425279 -0.434309,1.4500309 -0.175124,0.707503 -0.175124,1.32394132 0,0.67247813 0.238169,1.23287656 0.238169,0.56039844 0.805573,0.89663752 0.567403,0.336239 1.555106,0.336239 1.008721,0 1.590131,-0.3222291 0.58842,-0.32222906 0.83359,-0.87562251 0.25218,-0.55339346 0.25218,-1.25389151 0,-0.75653788 -0.24517,-1.55510568 -0.23817,-0.8055727 -0.53939,-1.5340907 l 1.87033,-0.700498 0.46934,1.4430259 q 0.16111,0.4903487 0.46933,0.8335927 0.31522,0.3362391 0.88263,0.343244 0.58141,0 0.77055,-0.2661892 0.19614,-0.2731942 0.19614,-0.8896325 0,-0.09807 -0.014,-0.3432441 -0.014,-0.2521793 -0.035,-0.5533934 -0.021,-0.3012142 -0.042,-0.5533935 l 1.76526,-0.2171544 0.1471,1.8913447 q 0.035,0.4273039 0.21715,0.6794831 0.18213,0.2521793 0.63045,0.2521793 0.4203,0 0.57441,-0.329234 0.16112,-0.3362391 0.16112,-0.7985678 0,-0.3992839 -0.0771,-0.8195827 -0.0701,-0.4273038 -0.16111,-0.7705479 -0.0841,-0.350249 -0.12609,-0.5113635 l 1.81429,-0.4973537 q 0.1401,0.5533935 0.23116,1.1838417 0.0911,0.6234433 0.0911,1.2398816 0,0.8686176 -0.23117,1.6321604 -0.22416,0.75653792 -0.77055,1.22587161 Q 109.49222,0 108.54654,0 q -0.63745,0 -1.06475,-0.25918428 -0.42731,-0.25918427 -0.72152,-0.63745322 -0.35725,0.37826895 -0.81257,0.63745322 Q 105.49938,0 104.88294,0 Z M 93.158736,0 Q 92.521283,0 92.107989,-0.24517432 91.82779,1.3659712 90.728008,2.4167183 89.635231,3.4674653 87.806931,3.8177144 L 87.113438,1.9473846 q 1.015722,-0.2171544 1.74424,-0.5814134 0.735523,-0.357254 1.134807,-0.95968233 0.399284,-0.60242832 0.399284,-1.55510567 0,-0.6374532 -0.203145,-1.429016 -0.203144,-0.7985678 -0.434308,-1.4850559 l 1.884339,-0.6094333 0.406289,1.5831256 q 0.119085,0.4483188 0.350249,0.7565379 0.231165,0.3082191 0.686488,0.3082191 h 0.273194 V 0 Z m -10.213268,-8.4480064 1.190846,1.1768367 1.176837,-1.1768367 1.197852,1.1908466 -1.197852,1.2048567 -1.176837,-1.1908467 -1.190846,1.1908467 -1.190847,-1.2048567 z m -0.735523,6.423567 h 0.980697 q 0.770548,0 1.057752,-0.2591842 0.294209,-0.2661893 0.294209,-0.9666873 0,-0.4132939 -0.02102,-0.7985678 -0.02101,-0.3922789 -0.04903,-0.7635429 l 1.751245,-0.2171544 0.1401,2.0034244 q 0.03502,0.5323786 0.294209,0.7705479 0.259185,0.2311643 0.826588,0.2311643 H 87.6318 V 0 H 87.470685 Q 86.770187,0 86.265828,-0.2521793 85.768475,-0.50435859 85.446246,-0.91064746 85.018942,-0.48334365 84.430523,-0.23816934 83.84911,0 83.190642,0 H 82.209945 Z M 78.64441,0 Q 78.020967,0 77.586658,-0.25918428 77.15235,-0.51836855 76.85814,-0.8966375 76.500886,-0.51836855 76.045563,-0.25918428 75.597244,0 74.980806,0 74.273303,0 73.789959,-0.23816934 73.31362,-0.48334365 73.005401,-0.88262754 72.620127,-0.47633867 72.087749,-0.23816934 71.55537,0 70.742792,0 h -0.644458 v -2.0244394 h 0.658468 q 0.770548,0 1.092777,-0.1891344 0.329234,-0.1891345 0.329234,-0.9106475 0,-0.1120797 -0.01401,-0.371264 -0.01401,-0.2591842 -0.03502,-0.5674034 -0.02102,-0.3152241 -0.04203,-0.5674034 l 1.75825,-0.2171544 0.147104,1.8913447 q 0.06304,0.9316624 1.001713,0.9316624 0.581413,0 0.777552,-0.2381693 0.19614,-0.2451743 0.19614,-0.8616126 0,-0.09807 -0.01401,-0.357254 -0.01401,-0.2661892 -0.03503,-0.5814134 -0.02101,-0.3152241 -0.04203,-0.5674034 l 1.75825,-0.2171544 0.147105,1.8913447 q 0.02802,0.4343088 0.217154,0.6864881 0.189135,0.2451743 0.630448,0.2451743 0.434309,0 0.588419,-0.2872042 0.161114,-0.2872042 0.161114,-0.8125777 0,-0.2521793 -0.02802,-0.728518 -0.02802,-0.4763386 -0.06304,-0.9106474 l 1.75825,-0.2171544 0.147104,2.0244393 q 0.03503,0.5183686 0.287204,0.728518 0.259185,0.2031444 0.798568,0.2031444 h 0.21015 V 0 h -0.19614 Q 81.649547,0 81.152193,-0.22415937 80.661845,-0.44831875 80.374641,-0.83359268 80.087436,-0.47633867 79.667138,-0.23816934 79.246839,0 78.64441,0 Z M 64.095066,-8.3849616 v -1.064757 l 5.695049,-2.3186484 v 1.064757 z m 1.996419,1.9123597 q 0.938667,0.5603984 1.66018,1.0997819 0.728518,0.5323785 1.141812,1.1488168 0.413294,0.6164383 0.413294,1.422011 0,1.0997819 -0.504359,1.7092152 -0.504358,0.60943335 -1.415006,0.85460766 Q 66.476759,0 65.264897,0 h -1.709215 v -2.0244394 h 1.70221 q 1.120797,0 1.681196,-0.1541095 0.560398,-0.1611146 0.560398,-0.6514632 0,-0.2311644 -0.343244,-0.5323785 -0.343244,-0.3082192 -0.861613,-0.6444582 -0.511363,-0.3432441 -1.050747,-0.6724781 -0.532378,-0.3362391 -0.924657,-0.6164383 -0.294209,-0.2101494 -0.448319,-0.5603985 -0.147104,-0.350249 -0.147104,-0.714508 0,-0.3922789 0.182129,-0.7355229 0.18213,-0.3432441 0.567404,-0.4973536 l 5.407844,-2.2065688 v 2.0034243 z"
       id="text1"
       transform="matrix(1.3333333,0,0,1.3333333,164.568,65.009333)"
       aria-label="ﻪﻠﺣﺮﻣ:۲ﯽﻫد نﺎﻣزﺎﺳوشﺮﺘﺴﮔ" />
  </g>
</svg>
