<?xml version="1.0" encoding="UTF-8" standalone="no"?>


<svg class="tikz-diagram" id="iran-action-ch3-tikz-5-ea203a01ff77"
   version="1.1"
   id="svg1"
   width="532.78668"
   height="210.98666"
   viewBox="0 0 532.78668 210.98666"
   sodipodi:docname="iran-action-ch3-tikz-5-ea203a01ff77.pdf"
   xmlns:inkscape="http://www.inkscape.org/namespaces/inkscape"
   xmlns:sodipodi="http://sodipodi.sourceforge.net/DTD/sodipodi-0.dtd"
   xmlns="http://www.w3.org/2000/svg"
   xmlns:svg="http://www.w3.org/2000/svg">
  <defs
     id="defs1" />
  <sodipodi:namedview
     id="namedview1"
     pagecolor="#ffffff"
     bordercolor="#000000"
     borderopacity="0.25"
     inkscape:showpageshadow="2"
     inkscape:pageopacity="0.0"
     inkscape:pagecheckerboard="0"
     inkscape:deskcolor="#d1d1d1">
    <inkscape:page
       x="0"
       y="0"
       inkscape:label="1"
       id="page1"
       width="532.78668"
       height="210.98666"
       margin="0"
       bleed="0" />
  </sodipodi:namedview>
  <g
     id="g1"
     inkscape:groupmode="layer"
     inkscape:label="1">
    <path
       id="path1"
       d="m 65.88565,14.17339 h -131.7713 c -2.75119,0 -4.98138,-2.23021 -4.98138,-4.98139 V -9.192 c 0,-2.75118 2.23019,-4.98139 4.98138,-4.98139 h 131.7713 c 2.75119,0 4.98138,2.23021 4.98138,4.98139 V 9.192 c 0,2.75118 -2.23019,4.98139 -4.98138,4.98139 z"
       style="fill:#be1e2d;fill-opacity:1;fill-rule:nonzero;stroke:#be1e2d;stroke-width:0.3985;stroke-linecap:butt;stroke-linejoin:miter;stroke-miterlimit:10;stroke-dasharray:none;stroke-opacity:1"
       transform="matrix(1.3333333,0,0,-1.3333333,266.392,39.082667)" />
    <path
       style="font-weight:800;font-size:9.9626px;font-family:Vazirmatn;fill:#ffffff"
       d="m 35.904783,-6.8492873 0.875619,0.8756191 -0.875619,0.8707546 -0.870755,-0.8707546 z m -2.748471,5.4434322 h 0.389164 q 0.179988,0 0.398893,0 0.218905,-0.00486 0.418352,-0.00973 -0.179989,-0.2724149 -0.262686,-0.5448297 -0.07783,-0.2772794 -0.07783,-0.5886106 0,-0.3842995 0.155666,-0.7394117 0.16053,-0.3599768 0.42808,-0.6421207 0.272415,-0.2870085 0.612933,-0.4524032 0.340519,-0.1653948 0.700496,-0.1653948 0.496184,0 0.938858,0.2870085 0.447539,0.282144 0.724818,0.7442763 0.277279,0.4572677 0.277279,0.9777747 0,0.3161957 -0.0827,0.5886106 -0.07783,0.2724148 -0.26755,0.5399651 0.111884,0.00486 0.204311,0.00486 0.09243,0 0.170259,0 h 0.466997 V 0 h -0.661579 q -0.403758,0 -0.875619,-0.11674922 -0.471861,-0.12161376 -0.895077,-0.26268573 -0.291873,0.10215556 -0.70536,0.18971747 -0.408622,0.0826974 -0.822109,0.13620742 Q 33.983286,0 33.696277,0 h -0.539965 q -0.841567,0 -1.551792,-0.10215556 -0.70536,-0.10702012 -1.230731,-0.36970585 -0.520507,-0.26268574 -0.81238,-0.73454719 -0.287008,-0.4767259 -0.287008,-1.2161376 0,-0.4378096 0.09729,-0.8512964 0.09729,-0.4183514 0.243227,-0.7734636 l 1.172357,0.4426742 q -0.0827,0.2286338 -0.17026,0.530236 -0.0827,0.3016021 -0.0827,0.574017 0,0.486455 0.359977,0.7199535 0.359977,0.2334984 0.953452,0.3064666 0.59834,0.068104 1.308564,0.068104 z m 2.772794,-1.7901547 q -0.141072,0 -0.296738,0.1070201 -0.150801,0.1070201 -0.257821,0.2626858 -0.10702,0.150801 -0.10702,0.2967376 0,0.1799883 0.10702,0.3599767 0.111885,0.1751238 0.26755,0.3161958 0.16053,0.1362074 0.296738,0.2140402 0.228634,-0.1216137 0.452403,-0.3697058 0.223769,-0.2480921 0.223769,-0.530236 0,-0.1459366 -0.116749,-0.2967376 -0.111884,-0.1556657 -0.272415,-0.2578212 -0.155665,-0.1021556 -0.296737,-0.1021556 z m -10.774981,1.7901547 h 0.734547 q 0.5351,0 0.734547,-0.1799884 0.204311,-0.1848529 0.204311,-0.671308 0,-0.2870085 -0.01459,-0.5545588 -0.01459,-0.2724148 -0.03405,-0.530236 l 1.216138,-0.1508011 0.09729,1.3912615 q 0.02432,0.3697059 0.204311,0.5351006 0.179989,0.1605302 0.574017,0.1605302 h 0.102156 V 0 H 28.860912 Q 28.374457,0 28.024209,-0.17512382 27.678826,-0.35024765 27.455057,-0.63239159 27.158319,-0.335654 26.749697,-0.16539472 26.345939,0 25.888672,0 H 25.154125 Z M 25.280603,0.62266248 26.107576,1.439907 26.924821,0.62266248 27.756659,1.4496361 26.924821,2.2863388 26.107576,1.4593652 25.280603,2.2863388 24.453629,1.4496361 Z M 19.23883,-1.4058551 q 0.0681,-0.1118847 0.136208,-0.2091757 0.07297,-0.1021556 0.145936,-0.2043111 V -6.8201 h 1.308564 v 3.3516754 q 0.447539,-0.432945 0.909671,-0.6859017 0.466997,-0.2529566 1.016692,-0.2529566 0.617797,0 1.089659,0.2626857 0.476726,0.2578212 0.744276,0.715089 0.272415,0.4524032 0.272415,1.0458784 0,0.6859016 -0.291873,1.1480339 -0.291873,0.45726779 -0.81238,0.72968263 -0.520507,0.27241484 -1.211273,0.38916405 Q 21.860823,0 21.067901,0 h -2.519837 v -1.4058551 z m 3.551122,-1.62476 q -0.37457,0 -0.754005,0.238363 -0.379435,0.2334985 -0.724818,0.6080689 -0.345383,0.3697058 -0.627527,0.7783281 h 0.442674 q 0.656714,0 1.216138,-0.063239 0.564288,-0.068104 0.904806,-0.2578212 0.340519,-0.1897175 0.340519,-0.5642879 0,-0.335654 -0.228634,-0.5351005 -0.22377,-0.2043112 -0.569153,-0.2043112 z M 17.195253,0.48159052 17.978446,1.2647832 17.195253,2.0479758 16.412061,1.2647832 Z m -1.697728,0 0.778328,0.78319268 -0.778328,0.7831926 -0.783193,-0.7831926 z M 16.343957,1.7269155 17.12715,2.5101081 16.343957,3.2884362 15.560764,2.5101081 Z m 2.675503,-5.0688618 1.216137,-0.1508011 0.09729,1.3912615 q 0.02432,0.3697059 0.194582,0.5351006 0.175124,0.1605302 0.574017,0.1605302 h 0.111885 V 0 H 21.101487 Q 20.542064,0 20.172358,-0.20431113 19.802652,-0.41348681 19.559425,-0.768599 19.116751,-0.35997675 18.479495,-0.17998837 17.847103,0 16.830412,0 h -0.81238 q -0.841567,0 -1.551792,-0.10215556 -0.705359,-0.10702012 -1.230731,-0.36970585 -0.520507,-0.26268574 -0.81238,-0.73454719 -0.287008,-0.4767259 -0.287008,-1.2161376 0,-0.4378096 0.09729,-0.8512964 0.09729,-0.4183514 0.243227,-0.7734636 l 1.172357,0.4426742 q -0.0827,0.2286338 -0.170259,0.530236 -0.0827,0.3016021 -0.0827,0.574017 0,0.486455 0.359977,0.7199535 0.359977,0.2334984 0.953452,0.3064666 0.59834,0.068104 1.308564,0.068104 h 0.81238 q 0.70536,0 1.206409,-0.05351 0.501048,-0.058375 0.763734,-0.238363 0.26755,-0.1848529 0.26755,-0.5691524 0,-0.2480921 -0.01459,-0.5448297 -0.01459,-0.2967376 -0.03405,-0.530236 z M 9.0325363,0.48159052 9.8157289,1.2647832 9.0325363,2.0479758 8.2493436,1.2647832 Z m -1.6977282,0 L 8.1131362,1.2647832 7.3348081,2.0479758 6.5516154,1.2647832 Z M 8.1812399,1.7269155 8.9644326,2.5101081 8.1812399,3.2884362 7.3980472,2.5101081 Z M 4.8441582,-1.4058551 h 0.8269736 q 0.627527,0 1.1674921,-0.1167493 0.5399651,-0.1216137 1.1091176,-0.3599767 0.574017,-0.238363 1.3036996,-0.5934752 Q 8.5023002,-2.7484711 8.0401679,-2.933324 7.5780356,-3.1230415 7.4077764,-3.1230415 q -0.2626858,0 -0.476726,0.1653947 -0.2091757,0.1605302 -0.3453831,0.3405185 L 6.3278461,-2.2912034 5.2381868,-2.8263039 5.4570915,-3.1765516 q 0.3453831,-0.5642879 0.8269736,-0.9339937 0.4815906,-0.3745704 1.1285758,-0.3745704 0.2724148,0 0.6323916,0.1264783 0.3648413,0.1264783 0.7783281,0.3161958 0.4183513,0.1848529 0.8610255,0.3745704 0.4475389,0.1848529 0.8804839,0.3161958 0.437809,0.1313429 0.836702,0.1362074 v 1.2891059 q -0.369705,0.048645 -0.685901,0.1653948 -0.316196,0.1118846 -0.656715,0.2870084 Q 9.7184379,-1.298835 9.2660347,-1.0556075 8.6433722,-0.72481805 8.0888134,-0.48645507 7.5391192,-0.24809208 6.9553731,-0.12161377 6.3764916,0 5.6565381,0 H 4.8441582 Z"
       id="text1"
       transform="matrix(1.3333333,0,0,1.3333333,240.888,41.456)"
       aria-label="ﻒﯿﻃﭗﭼ" />
    <path
       id="path2"
       d="m -76.24693,-42.9187 h -103.4245 c -2.75117,0 -4.98139,-2.23021 -4.98139,-4.98139 v -18.38403 c 0,-2.75118 2.23022,-4.98138 4.98139,-4.98138 h 103.4245 c 2.75117,0 4.98138,2.2302 4.98138,4.98138 v 18.38403 c 0,2.75118 -2.23021,4.98139 -4.98138,4.98139 z"
       style="fill:#ffe6e6;fill-opacity:1;fill-rule:nonzero;stroke:#be1e2d;stroke-width:0.3985;stroke-linecap:butt;stroke-linejoin:miter;stroke-miterlimit:10;stroke-dasharray:none;stroke-opacity:1"
       transform="matrix(1.3333333,0,0,-1.3333333,266.392,39.082667)" />
    <g
       id="text2"
       transform="matrix(1.3333333,0,0,1.3333333,45.649333,111.012)"
       aria-label="نﺎﯿﺋاﺪﻓﻖﻠﺧ(ﺖﯾﺮﺜﮐا)ﭗﭼﮏﯿﺗاﺮﮐﻮﻣد">
      <path
         style="font-size:8.9664px;font-family:Vazirmatn"
         d="m 72.395692,-3.7170282 0.634828,0.6348281 -0.634828,0.6348282 -0.634828,-0.6348282 z m 0.05254,4.864097 q 0.731147,0 1.129556,-0.24079691 0.402788,-0.23641875 0.5604,-0.62607189 0.161991,-0.385275 0.161991,-0.82746563 0,-0.52099687 -0.1401,-1.02885937 -0.1401,-0.5078625 -0.262688,-0.8318438 l 0.74866,-0.3020906 q 0.205771,0.5647781 0.310847,1.0989094 0.109453,0.5297531 0.109453,1.01134687 0,0.73990313 -0.275822,1.31343752 Q 74.519083,1.2871688 73.94117,1.61115 q -0.577912,0.3239813 -1.49294,0.3239813 -0.945675,0 -1.514831,-0.3458719 -0.564779,-0.3458719 -0.81871,-0.92378439 -0.249553,-0.57353438 -0.249553,-1.26090002 0,-0.46408129 0.09632,-0.95005319 0.09632,-0.49035 0.262687,-0.9544312 l 0.696122,0.2802 q -0.126965,0.4027875 -0.214528,0.8274656 -0.08756,0.42467816 -0.08756,0.82308754 0,0.47283751 0.166368,0.86249064 0.170747,0.38965313 0.569157,0.62169376 0.398409,0.23204066 1.094531,0.23204066 z m -4.693347,-7.175747 h 0.739903 v 4.1854875 q 0,0.6173157 0.227662,0.8318438 0.227663,0.21452814 0.687366,0.21452814 h 0.109453 V 0 H 69.409814 Q 68.573592,0 68.162048,-0.44219063 67.754883,-0.88875939 67.754883,-1.8475688 Z m -4.019121,5.23185944 h 0.661097 q 0.556022,0 0.792441,-0.24955314 0.240796,-0.2495531 0.240796,-0.7661719 0,-0.21015 -0.01313,-0.3984094 -0.0088,-0.1882593 -0.02627,-0.3765187 l 0.731147,-0.087562 0.07005,1.0244812 q 0.05254,0.85373444 0.88876,0.85373444 h 0.09194 V 0 H 67.071893 Q 66.585922,0 66.292587,-0.175125 66.003631,-0.35025001 65.824128,-0.66985314 65.587709,-0.32398126 65.202434,-0.16199063 64.817159,0 64.396859,0 h -0.661097 z m 1.580503,1.49294065 0.612938,0.60855941 -0.612938,0.6173156 -0.608559,-0.6173156 z m -1.453537,0 0.612937,0.60855941 -0.612937,0.6173156 -0.60856,-0.6173156 z M 62.054566,-4.1373282 Q 61.90571,-4.2511594 61.800635,-4.4000157 61.69556,-4.5488719 61.69556,-4.8071813 q 0,-0.3765188 0.258309,-0.6173157 0.262688,-0.2407968 0.595425,-0.2407968 0.288957,0 0.529754,0.1401 l 0.0044,0.4334343 q -0.135722,-0.07005 -0.253932,-0.087562 -0.118209,-0.017512 -0.218906,-0.017512 -0.188259,0 -0.35025,0.1138313 -0.157612,0.1138312 -0.157612,0.3327375 0.0044,0.1357219 0.135722,0.2670656 0.135721,0.1269657 0.380896,0.091941 0.0088,0 0.01751,-0.00438 0.01313,-0.00438 0.02627,-0.00876 l 0.577912,-0.21015 0.06129,0.4334344 -1.668066,0.6610968 -0.06129,-0.4290562 z m -1.068262,3.34050944 h 0.906272 q 0.437812,0 0.591047,-0.25393124 0.157612,-0.2539313 0.157612,-0.6435844 0,-0.2845781 -0.05254,-0.6085594 -0.05254,-0.3239812 -0.113832,-0.6523406 l 0.761794,-0.1926375 q 0.07443,0.35025 0.118209,0.6873656 0.04378,0.3371156 0.04378,0.6435844 0,0.525375 -0.144478,0.93691876 -0.144479,0.41154376 -0.472838,0.64796251 Q 62.452976,0 61.901332,0 H 60.986304 Z M 60.412766,-6.0286782 v 6.02430007 H 59.672863 V -6.0286782 Z m -3.222298,4.4350407 q 0,-0.1138313 -0.05254,-0.2933344 -0.04816,-0.1838813 -0.118209,-0.3414938 l -0.774928,-1.7556281 0.682987,-0.3196031 0.993835,2.3379187 q 0.201393,0.4728376 0.35025,0.7267688 0.153234,0.25393126 0.297712,0.35025001 0.148856,0.0919406 0.337116,0.0919406 h 0.183881 V 0 h -0.183881 q -0.345872,0 -0.564778,-0.08318438 -0.214529,-0.08318437 -0.372141,-0.24955313 -0.157613,-0.16636875 -0.319603,-0.4203 -0.306469,0.385275 -0.783685,0.56915626 -0.472837,0.17950312 -1.182093,0.17950312 -0.306469,0 -0.551644,-0.02626875 -0.245175,-0.03064687 -0.464081,-0.08318437 v -0.79244064 q 0.503484,0.11820938 0.950053,0.11820938 1.571747,0 1.571747,-0.80557499 z m -5.144295,-4.9866845 0.634828,0.6348282 -0.634828,0.6348281 -0.634829,-0.6348281 z m -0.332738,5.78350324 q 0.494728,0 0.796819,-0.0569156 0.306469,-0.0569156 0.446569,-0.24955311 0.144478,-0.1970156 0.144478,-0.6085594 -0.214528,0.065672 -0.437813,0.1006969 -0.218906,0.035025 -0.472837,0.035025 -1.488563,0 -1.488563,-1.2214969 0,-0.4203 0.166369,-0.8406 0.170747,-0.4203 0.499106,-0.7005 0.32836,-0.2845782 0.796819,-0.2845782 0.429056,0 0.735525,0.2189063 0.310847,0.2189062 0.507862,0.5910469 0.201394,0.3677625 0.297713,0.8362219 0.09632,0.4640812 0.09632,0.9588093 0,0.6523407 -0.11821,1.05512818 -0.113831,0.39840939 -0.367762,0.60855939 -0.253931,0.20577188 -0.661097,0.2802 Q 52.247566,0 51.660898,0 h -1.61115 v -0.79681876 z m 0.538509,-1.53234374 q 0.201394,0 0.39841,-0.035025 0.201394,-0.039403 0.402787,-0.096319 -0.03502,-0.3108469 -0.131343,-0.63045 -0.09194,-0.3196031 -0.275822,-0.5341313 -0.183882,-0.2189062 -0.49035,-0.2189062 -0.271444,0 -0.437813,0.1707469 -0.16199,0.1707468 -0.236419,0.4071656 -0.07005,0.2364188 -0.07005,0.4378125 0,0.3020906 0.214529,0.4027875 0.218906,0.096319 0.626071,0.096319 z m -2.863891,4.5838969 q -0.945675,0 -1.514831,-0.3458719 -0.564778,-0.3458718 -0.81871,-0.92378436 -0.249553,-0.57353438 -0.249553,-1.26090002 0,-0.46408126 0.09632,-0.95005312 0.09632,-0.49035 0.262687,-0.9544313 l 0.696122,0.2802 q -0.126965,0.4027875 -0.214528,0.8274657 -0.08756,0.42467809 -0.08756,0.82308747 0,0.47283751 0.166368,0.86249064 0.170747,0.38965309 0.569157,0.62169379 0.398409,0.2320406 1.094531,0.2320406 1.024481,0 1.523588,-0.3765188 Q 51.410747,0.71363439 51.410747,0 h -0.744281 q -1.65931,0 -1.65931,-1.3440844 0,-0.4290563 0.170747,-0.8581125 0.175125,-0.4290563 0.503484,-0.7136344 0.332738,-0.2845781 0.801197,-0.2845781 0.682988,0 1.151447,0.6129375 0.46846,0.6085594 0.485972,1.79065314 h 0.507863 V 0 h -0.516619 q 0,1.0638844 -0.726769,1.6593094 -0.722391,0.595425 -1.996425,0.595425 z m 1.234631,-3.05155316 h 0.774928 q -0.05254,-0.84497814 -0.2802,-1.23025314 -0.223284,-0.385275 -0.647962,-0.385275 -0.2802,0 -0.442191,0.1795031 -0.157612,0.1795031 -0.223284,0.4246781 -0.06129,0.2407969 -0.06129,0.4378126 0,0.3064687 0.205772,0.44219058 0.21015,0.13134376 0.674231,0.13134376 z m 0.516619,-4.27742824 0.612938,0.6085594 -0.612938,0.6173157 -0.608559,-0.6173157 z m -1.453538,0 0.612938,0.6085594 -0.612938,0.6173157 -0.608559,-0.6173157 z m -4.991061,3.1566282 v -4.1110594 h 0.739903 v 4.1241938 q 0,0.4815938 0.188259,0.7968188 0.192638,0.31084684 0.696122,0.31084684 h 0.1401 V 0 h -0.131344 q -0.49035,0 -0.779306,-0.17074688 -0.288956,-0.17074688 -0.459703,-0.49472813 -0.144478,0.21452813 -0.293334,0.36338438 -0.144479,0.14885625 -0.372141,0.2276625 Q 44.199976,0 43.810322,0 h -0.376518 v -0.79681876 h 0.367762 q 0.367763,0 0.556022,-0.14447813 0.192638,-0.14885621 0.262688,-0.40278751 0.07443,-0.2539313 0.07443,-0.5735344 z m -4.540115,-3.6426 0.634828,0.6348281 -0.634828,0.6348281 -0.634828,-0.6348281 z m -2.727572,4.76340004 h 0.744282 q 0.51224,0 0.941296,-0.0919406 0.429057,-0.0919406 0.836222,-0.25393121 0.411544,-0.1619907 0.858113,-0.3808969 0.450947,-0.2232844 1.006969,-0.4772157 -0.310847,-0.1138312 -0.643585,-0.245175 -0.332737,-0.1357218 -0.634828,-0.2539312 -0.297712,-0.1182094 -0.520997,-0.1926375 -0.223284,-0.078806 -0.315225,-0.078806 -0.267065,0 -0.472837,0.1576125 -0.201394,0.1532344 -0.372141,0.3721407 l -0.118209,0.1488562 -0.669853,-0.3283594 0.06567,-0.105075 q 0.288957,-0.4684593 0.669854,-0.7486594 0.385275,-0.2845781 0.901893,-0.2845781 0.214528,0 0.516619,0.1094531 0.306469,0.1094532 0.665475,0.2758219 0.359006,0.1619907 0.744281,0.3327375 0.385275,0.1663688 0.77055,0.2845782 0.385275,0.1138312 0.735525,0.1269656 v 0.7574156 q -0.2802,0.030647 -0.718012,0.2057719 -0.433435,0.1707469 -1.129556,0.53850938 -0.5604,0.29771251 -1.041994,0.50786251 Q 39.769314,-0.21452813 39.270208,-0.105075 38.77548,0 38.158164,0 h -0.731147 z m 1.133546,-1.79065314 q 0,-0.8230875 -0.175125,-1.61115 -0.170747,-0.7924407 -0.51224,-1.4360251 -0.341494,-0.6435844 -0.8406,-1.0244812 l 0.166368,-0.5341313 q 0.485972,0.2626875 0.880004,0.7311469 0.394031,0.4684594 0.674231,1.085775 0.284578,0.6129375 0.437812,1.3265719 0.153235,0.7136344 0.153235,1.4622938 0,0.7486594 -0.153235,1.4622938 -0.153234,0.71363434 -0.437812,1.32657185 -0.2802,0.61731564 -0.674231,1.08577505 -0.394032,0.4684594 -0.880004,0.7311469 L 37.032598,1.4841844 q 0.499106,-0.3808969 0.8406,-1.02448127 0.341493,-0.64358438 0.51224,-1.4316469 0.175125,-0.79244063 0.175125,-1.61552813 z m -5.319421,-1.7074688 0.612937,0.6085594 -0.612937,0.6173156 -0.60856,-0.6173156 z m -1.453538,0 0.612938,0.6085594 -0.612938,0.6173156 -0.608559,-0.6173156 z m 3.375535,1.7074688 0.731147,-0.087562 0.07443,1.0244812 q 0.02627,0.4159219 0.236418,0.6348282 0.214529,0.21890624 0.639207,0.21890624 h 0.105075 V 0 H 36.844339 Q 36.349611,0 36.030007,-0.18388125 35.714782,-0.37214063 35.509011,-0.78368439 35.145626,-0.36338438 34.57647,-0.17950313 34.011692,0 33.004723,0 h -0.731147 q -1.650553,0 -2.482397,-0.44656876 -0.827465,-0.44656875 -0.827465,-1.54547814 0,-0.3020906 0.06567,-0.5910469 0.07005,-0.2889562 0.179504,-0.5560219 l 0.678609,0.2539313 q -0.07005,0.1926375 -0.118209,0.4115437 -0.04378,0.2189063 -0.04378,0.4159219 0.0044,0.5122406 0.288957,0.7880625 0.284578,0.27144378 0.849356,0.37214066 0.564778,0.10069688 1.409756,0.10069688 h 0.731147 q 1.046372,0 1.619906,-0.21890624 0.577913,-0.2189063 0.577913,-0.7968188 0,-0.1795031 -0.01313,-0.385275 -0.0088,-0.2057719 -0.02627,-0.3896531 z m -9.820135,1.79065314 h 1.247766 q 0.437812,0 0.591047,-0.25393124 0.157612,-0.2539313 0.157612,-0.6435844 0,-0.2845781 -0.05254,-0.6085594 -0.05254,-0.3239812 -0.113831,-0.6523406 l 0.761793,-0.1926375 q 0.07443,0.35025 0.11821,0.6873656 0.04378,0.3371156 0.04378,0.6435844 0,0.525375 -0.144478,0.93691876 -0.144478,0.41154376 -0.472838,0.64796251 Q 27.15117,0 26.599526,0 H 25.343004 Z M 27.22122,0.69612189 27.834157,1.3046813 27.22122,1.9219969 26.612661,1.3046813 Z m -1.453538,0 L 26.38062,1.3046813 25.767682,1.9219969 25.159123,1.3046813 Z M 25.39992,0 q -0.30209,0 -0.507862,-0.07880625 -0.201394,-0.08318438 -0.315225,-0.175125 -0.06567,0.57353438 -0.319603,1.10766564 -0.249554,0.53850941 -0.753038,0.93691881 -0.503484,0.3984093 -1.33095,0.5604 L 21.914933,1.6593094 q 1.068262,-0.2320406 1.506075,-0.81433126 0.437812,-0.57791251 0.437812,-1.37035315 0,-0.37214063 -0.08318,-0.77930629 -0.07881,-0.4115437 -0.223285,-0.8362219 l 0.726769,-0.245175 0.236419,0.9150282 q 0.09632,0.3677625 0.306469,0.52099686 0.21015,0.15323438 0.529753,0.15323438 H 25.51813 V 0 Z m -5.533949,-5.7572345 0.591047,0.5910469 -0.591047,0.5910469 -0.591047,-0.5910469 z m 0.748659,1.1076657 0.591047,0.5910469 -0.591047,0.5910468 -0.591046,-0.5910468 z m -1.497318,0 0.591046,0.5910469 -0.591046,0.5910468 -0.591047,-0.5910468 z m -0.450947,3.85275004 h 0.612937 q 0.556022,0 0.792441,-0.24955314 0.240797,-0.2495531 0.240797,-0.7661719 0,-0.21015 -0.01313,-0.3984094 -0.0088,-0.1882593 -0.02627,-0.3765187 l 0.731147,-0.087562 0.07005,1.0244812 q 0.05254,0.85373444 0.888759,0.85373444 h 0.09194 V 0 H 21.954337 Q 21.468365,0 21.17503,-0.175125 20.886074,-0.35025001 20.706571,-0.66985314 20.470152,-0.32398126 20.084877,-0.16199063 19.699602,0 19.279302,0 H 18.666365 Z M 15.737397,-4.2467813 q 0.380897,0.2670656 0.792441,0.5647781 0.411544,0.2933344 0.766172,0.63045 0.359006,0.3327375 0.577913,0.7136344 0.223284,0.3765188 0.223284,0.805575 -0.0044,0.81433129 -0.564778,1.17333754 Q 16.976407,0 15.75491,0 h -1.068263 v -0.79681876 h 1.063885 q 0.849356,0 1.217119,-0.14885626 0.367762,-0.15323438 0.367762,-0.60418128 0,-0.2889562 -0.205772,-0.5647781 -0.201393,-0.2758219 -0.525375,-0.5428875 -0.319603,-0.2714438 -0.687365,-0.5297532 -0.367763,-0.2626875 -0.691744,-0.5166187 -0.1401,-0.1138313 -0.214528,-0.2670656 -0.07443,-0.1532344 -0.07443,-0.3064688 0,-0.1795031 0.09632,-0.3371156 0.100697,-0.1619907 0.310847,-0.245175 l 3.147872,-1.2784126 v 0.7749282 z m -1.633041,-1.7818969 v 6.02430007 H 13.364453 V -6.0286782 Z m -3.108468,3.4412063 q 0,0.8230875 0.175125,1.61552813 0.175125,0.78806252 0.512241,1.4316469 0.341494,0.64358437 0.8406,1.02448127 L 12.357485,2.0183157 Q 11.871513,1.7556282 11.477482,1.2871688 11.083451,0.81870939 10.798873,0.20139375 q -0.2802,-0.61293751 -0.433435,-1.32657185 -0.153234,-0.7136344 -0.153234,-1.4622938 0,-0.7486594 0.153234,-1.4622938 0.153235,-0.7136344 0.433435,-1.3265719 0.284578,-0.6173156 0.678609,-1.085775 0.394031,-0.4684594 0.880003,-0.7311469 l 0.166369,0.5341313 q -0.499106,0.3808968 -0.8406,1.0244812 -0.337116,0.6435844 -0.512241,1.4360251 -0.175125,0.7880625 -0.175125,1.61115 z"
         id="path9" />
      <path
         style="font-size:7.9701px;font-family:Vazirmatn"
         d="m 57.363424,11.448348 0.525373,0.525373 -0.525373,0.525373 -0.525373,-0.525373 z m -1.330945,0 0.525373,0.525373 -0.525373,0.525373 -0.525372,-0.525373 z m 0.665473,0.984588 0.525372,0.525372 -0.525372,0.525373 -0.525373,-0.525373 z m 2.284398,-3.7749012 0.649906,-0.077833 0.06616,0.9106462 q 0.02335,0.3697068 0.210149,0.564289 0.190691,0.194583 0.568181,0.194583 h 0.0934 V 10.958 h -0.0934 q -0.439756,0 -0.723847,-0.163449 -0.280199,-0.167341 -0.463106,-0.533156 -0.323007,0.373598 -0.828922,0.537048 Q 57.958846,10.958 57.063767,10.958 h -0.649906 q -1.467152,0 -2.206566,-0.396948 -0.735521,-0.396948 -0.735521,-1.3737527 0,-0.2685239 0.05837,-0.5253728 0.06227,-0.2568489 0.159558,-0.4942396 l 0.603206,0.2257157 q -0.06227,0.1712326 -0.105075,0.3658151 -0.03892,0.1945826 -0.03892,0.3697068 0.0039,0.4553231 0.256849,0.7004971 0.252957,0.2412824 0.75498,0.3307904 0.502023,0.08951 1.253111,0.08951 h 0.649906 q 0.930104,0 1.43991,-0.194583 0.513698,-0.1945822 0.513698,-0.7082801 0,-0.1595576 -0.01168,-0.3424652 -0.0078,-0.1829076 -0.02335,-0.3463569 z m -7.977883,2.7903132 0.525373,0.525373 -0.525373,0.525373 -0.525372,-0.525373 z m -1.330944,0 0.525373,0.525373 -0.525373,0.525373 -0.525373,-0.525373 z m 0.665472,0.984588 0.525373,0.525372 -0.525373,0.525373 -0.525373,-0.525373 z M 47.669323,10.24972 h 0.661581 q 0.455323,0 0.836705,-0.08173 0.381381,-0.08172 0.743305,-0.2257156 0.365815,-0.143991 0.762763,-0.3385735 0.40084,-0.1984742 0.89508,-0.4241899 Q 51.29245,9.0783331 50.996684,8.9615836 50.700919,8.8409424 50.432395,8.7358678 50.167763,8.6307933 49.969288,8.5646352 q -0.198474,-0.07005 -0.280198,-0.07005 -0.237391,0 -0.420299,0.1400994 -0.179015,0.1362078 -0.33079,0.3307903 l -0.105074,0.1323161 -0.595423,-0.2918738 0.05837,-0.0934 q 0.256849,-0.4164066 0.595422,-0.6654722 0.342466,-0.2529573 0.80168,-0.2529573 0.190691,0 0.459215,0.097291 0.272416,0.097291 0.591531,0.245174 0.319115,0.143991 0.66158,0.2957654 0.342466,0.1478827 0.684931,0.2529573 0.342465,0.1011829 0.653797,0.1128578 v 0.6732555 q -0.249065,0.027242 -0.63823,0.1829076 -0.385274,0.1517744 -1.004046,0.4786727 -0.498131,0.264633 -0.926213,0.451432 -0.42419,0.182907 -0.867838,0.280199 -0.439757,0.0934 -0.988479,0.0934 H 47.669323 Z M 46.684205,10.958 h -0.992371 q -1.46326,0 -2.198782,-0.396948 -0.73163,-0.396948 -0.73163,-1.3737527 0,-0.2685239 0.05837,-0.5253728 0.06227,-0.2568489 0.159558,-0.4942396 l 0.603206,0.2257157 q -0.06227,0.167341 -0.105075,0.3619235 -0.03892,0.1945825 -0.03892,0.3697068 0.0039,0.4553231 0.252957,0.700497 0.252957,0.2412821 0.751089,0.3346821 0.502022,0.08951 1.249219,0.08951 h 0.98848 q 0.75498,0 1.081878,-0.132316 0.326899,-0.1362081 0.326899,-0.537048 0,-0.256849 -0.182908,-0.5020229 Q 47.727167,8.8331591 47.439185,8.5957684 47.155095,8.3544861 46.828196,8.1248787 46.501298,7.8913797 46.213315,7.665664 45.956467,7.4632982 45.956467,7.1558578 q 0,-0.1595577 0.08951,-0.2996571 0.08951,-0.1439911 0.276307,-0.2179324 L 49.120378,5.5019064 V 6.1907285 L 46.67253,7.1830993 q 0.439757,0.3152237 0.84838,0.6226641 0.408623,0.3035487 0.735522,0.6576889 0.326899,0.3541402 0.517589,0.8250299 0.206258,0.5020229 0.435865,0.7316298 0.229608,0.229608 0.646014,0.229608 h 0.105075 l -0.0039,0.70828 h -0.105074 q -0.431974,0 -0.735522,-0.167341 -0.299657,-0.167341 -0.537048,-0.533156 -0.155666,0.229607 -0.381382,0.385274 -0.221824,0.155666 -0.583747,0.23739 -0.358032,0.07783 -0.930105,0.07783 z m -7.28517,-0.70828 h 0.587639 q 0.49424,0 0.704389,-0.221824 0.214041,-0.2218243 0.214041,-0.6810391 0,-0.1867992 -0.01168,-0.3541401 -0.0078,-0.167341 -0.02335,-0.334682 l 0.649906,-0.077833 0.06227,0.9106462 q 0.0467,0.758872 0.790005,0.758872 h 0.08172 V 10.958 h -0.08951 q -0.431973,0 -0.692714,-0.155666 -0.256849,-0.155666 -0.416407,-0.439756 -0.210149,0.30744 -0.552614,0.451431 Q 40.360273,10.958 39.986674,10.958 h -0.587639 z m 1.404886,1.327053 0.544831,0.540939 -0.544831,0.548723 -0.540939,-0.548723 z m -1.292028,0 0.544831,0.540939 -0.544831,0.548723 -0.540939,-0.548723 z M 38.675188,6.3892027 39.220019,6.9301421 38.675188,7.4788648 38.134249,6.9301421 Z m -1.292028,0 0.544831,0.5409394 L 37.38316,7.4788648 36.842221,6.9301421 Z M 36.962862,10.24972 h 0.797789 q 0.389165,0 0.525372,-0.225716 0.1401,-0.2257156 0.1401,-0.5720725 0,-0.2529573 -0.0467,-0.5409394 Q 38.332723,8.62301 38.27824,8.3311362 l 0.677147,-0.1712326 q 0.06616,0.311332 0.105075,0.6109891 0.03892,0.2996571 0.03892,0.5720726 0,0.466998 -0.128424,0.8328127 -0.128425,0.365816 -0.420298,0.575965 Q 38.258782,10.958 37.768434,10.958 H 36.962862 Z M 36.445273,5.5991976 V 10.954109 H 35.787584 V 5.5991976 Z M 34.630924,10.958 q -0.268524,0 -0.451431,-0.07005 -0.179016,-0.07394 -0.280199,-0.155666 -0.05837,0.509807 -0.284091,0.984588 -0.221824,0.478673 -0.669364,0.832813 -0.447539,0.35414 -1.183061,0.498131 l -0.229608,-0.61488 q 0.949563,-0.206258 1.338728,-0.723847 0.389165,-0.513698 0.389165,-1.218087 0,-0.33079 -0.07394,-0.6927136 -0.07005,-0.3658152 -0.198474,-0.7433052 l 0.646014,-0.2179325 0.210149,0.813355 q 0.08562,0.3268986 0.272415,0.4631063 0.186799,0.136208 0.47089,0.136208 h 0.147883 V 10.958 Z M 29.637935,7.1830993 q 0.338573,0.2373907 0.704388,0.5020229 0.365816,0.2607406 0.681039,0.5603977 0.319116,0.2957654 0.513698,0.634339 0.198474,0.3346819 0.198474,0.7160637 -0.0039,0.7238474 -0.502023,1.0429624 Q 30.739272,10.958 29.653501,10.958 h -0.949562 v -0.70828 h 0.945671 q 0.75498,0 1.081878,-0.132316 0.326899,-0.1362081 0.326899,-0.537048 0,-0.256849 -0.182907,-0.5020229 Q 30.696464,8.8331591 30.408482,8.5957684 30.124391,8.3544861 29.797492,8.1248787 29.470594,7.8913797 29.182612,7.665664 29.058079,7.5644811 28.991921,7.4282733 q -0.06616,-0.1362078 -0.06616,-0.2724155 0,-0.1595577 0.08562,-0.2996571 0.08951,-0.1439911 0.276307,-0.2179324 l 2.798097,-1.1363619 v 0.6888221 z m -2.704697,0.9301045 q 0.607098,0 1.023504,0.544831 0.416407,0.5409394 0.431974,1.5916852 h 0.470889 V 10.958 h -0.533156 q -0.08562,0.44754 -0.342465,0.863947 -0.252957,0.420298 -0.75498,0.739413 -0.502023,0.323007 -1.330945,0.482565 L 25.668452,12.425152 Q 27.43137,12.086579 27.711568,10.958 h -0.61488 q -1.474936,0 -1.474936,-1.1947365 0,-0.3813817 0.151775,-0.7627634 0.155666,-0.3813818 0.447539,-0.6343391 0.295766,-0.2529572 0.712172,-0.2529572 z m 0.124533,2.1365162 h 0.688822 q -0.0467,-0.7510887 -0.249065,-1.0935539 -0.198475,-0.3424653 -0.575965,-0.3424653 -0.249065,0 -0.393056,0.1595577 -0.1401,0.1595577 -0.198474,0.3774901 -0.05448,0.2140408 -0.05448,0.389165 0,0.2724154 0.182908,0.3930564 0.186799,0.11675 0.599314,0.11675 z m -3.432435,0.797788 q -0.389165,0 -0.719956,-0.167341 -0.326898,-0.171232 -0.681038,-0.513698 -0.252958,0.284091 -0.486457,0.439757 Q 21.504386,10.958 21.080196,10.958 h -0.171232 v -0.70828 h 0.151774 q 0.260741,0 0.439757,-0.147883 0.179016,-0.1517743 0.319115,-0.3891649 0.140099,-0.2373907 0.276307,-0.5020229 0.1401,-0.2685239 0.311332,-0.5059146 0.171233,-0.2373906 0.412515,-0.3852734 0.245174,-0.1517743 0.603206,-0.1517743 0.431973,0 0.751088,0.2101491 0.323007,0.2062575 0.498132,0.556506 0.179016,0.3502485 0.179016,0.7822217 0,0.6343393 -0.323007,0.9845873 -0.319116,0.346357 -0.902863,0.346357 z M 23.438537,8.856509 q -0.194583,0 -0.354141,0.1323161 -0.159557,0.1284245 -0.287982,0.3346819 -0.128424,0.2062575 -0.229607,0.4280816 0.233499,0.2451739 0.482565,0.4008404 0.319115,0.206257 0.56818,0.206257 0.575965,0 0.575965,-0.5798559 0,-0.4047316 -0.202366,-0.6615805 Q 23.792677,8.856509 23.438537,8.856509 Z m -4.996879,1.400994 q 1.494393,0 1.494393,-0.7744383 0,-0.3658151 -0.373598,-0.7744384 -0.373599,-0.4086233 -1.237545,-0.879513 l 0.30744,-0.6148808 q 1.000155,0.5098062 1.482719,1.0779872 0.486457,0.5642893 0.486457,1.17917 0,0.7316303 -0.505915,1.1052283 -0.502023,0.373599 -1.595577,0.373599 -0.521481,0 -0.941779,-0.0934 v -0.704388 q 0.509806,0.105074 0.883405,0.105074 z"
         id="path10" />
    </g>
    <path
       id="path3"
       d="m 51.71225,-42.9187 h -103.4245 c -2.75117,0 -4.98138,-2.23021 -4.98138,-4.98139 v -18.38403 c 0,-2.75118 2.23021,-4.98138 4.98138,-4.98138 h 103.4245 c 2.75117,0 4.98138,2.2302 4.98138,4.98138 v 18.38403 c 0,2.75118 -2.23021,4.98139 -4.98138,4.98139 z"
       style="fill:#ffe6e6;fill-opacity:1;fill-rule:nonzero;stroke:#be1e2d;stroke-width:0.3985;stroke-linecap:butt;stroke-linejoin:miter;stroke-miterlimit:10;stroke-dasharray:none;stroke-opacity:1"
       transform="matrix(1.3333333,0,0,-1.3333333,266.392,39.082667)" />
    <g
       id="text3"
       transform="matrix(1.3333333,0,0,1.3333333,243.57467,110.132)"
       aria-label="بﺰﺣهدﻮﺗﻒﯿﻌﺿ)(هﺪﺷ">
      <path
         style="font-size:8.9664px;font-family:Vazirmatn"
         d="M 32.271684,0.66985314 32.906512,1.3046813 32.271684,1.9395094 31.636856,1.3046813 Z M 32.972184,0 h -1.020103 q -1.650553,0 -2.482397,-0.44656876 -0.827466,-0.44656875 -0.827466,-1.54547814 0,-0.3020906 0.06567,-0.5910469 0.07005,-0.2889562 0.179503,-0.5560219 l 0.67861,0.2539313 q -0.07005,0.1926375 -0.11821,0.4115437 -0.04378,0.2189063 -0.04378,0.4159219 0.0044,0.5122406 0.288957,0.7880625 0.284578,0.27144378 0.849356,0.37214066 0.564778,0.10069688 1.409756,0.10069688 h 1.024481 q 0.297713,0 0.621694,-0.0175125 0.328359,-0.0175125 0.612938,-0.0963188 0.284578,-0.0788063 0.464081,-0.26268749 0.179503,-0.1882594 0.179503,-0.525375 0,-0.245175 -0.04816,-0.5822907 -0.04816,-0.3414937 -0.113832,-0.6742312 l 0.761794,-0.1926375 q 0.07881,0.3414937 0.118209,0.7092562 0.04378,0.3633844 0.04378,0.6348282 0,0.595425 -0.201394,0.95443124 -0.201394,0.35900625 -0.564778,0.5428875 -0.359006,0.18388126 -0.8406,0.24517501 Q 33.532584,0 32.972184,0 Z m -7.11771,-4.5050907 0.634828,0.6348281 -0.634828,0.6348282 -0.634828,-0.6348282 z M 27.478759,0 q -0.302091,0 -0.507863,-0.07880625 -0.201394,-0.08318438 -0.315225,-0.175125 -0.06567,0.57353438 -0.319603,1.10766564 -0.249553,0.53850941 -0.753038,0.93691881 -0.503484,0.3984093 -1.33095,0.5604 L 23.993771,1.6593094 q 1.068263,-0.2320406 1.506075,-0.81433126 0.437813,-0.57791251 0.437813,-1.37035315 0,-0.37214063 -0.08319,-0.77930629 -0.07881,-0.4115437 -0.223284,-0.8362219 l 0.726769,-0.245175 0.236418,0.9150282 q 0.09632,0.3677625 0.306469,0.52099686 0.21015,0.15323438 0.529753,0.15323438 h 0.166369 V 0 Z m -8.826301,-0.79681876 h 0.744282 q 0.51224,0 0.941296,-0.0919406 0.429057,-0.0919406 0.836222,-0.25393121 0.411544,-0.1619907 0.858113,-0.3808969 0.450947,-0.2232844 1.006969,-0.4772157 -0.310847,-0.1138312 -0.643585,-0.245175 -0.332737,-0.1357218 -0.634828,-0.2539312 -0.297712,-0.1182094 -0.520997,-0.1926375 -0.223284,-0.078806 -0.315225,-0.078806 -0.267065,0 -0.472837,0.1576125 -0.201394,0.1532344 -0.372141,0.3721407 l -0.118209,0.1488562 -0.669853,-0.3283594 0.06567,-0.105075 q 0.288957,-0.4684593 0.669854,-0.7486594 0.385275,-0.2845781 0.901893,-0.2845781 0.214528,0 0.516619,0.1094531 0.306469,0.1094532 0.665475,0.2758219 0.359006,0.1619907 0.744281,0.3327375 0.385275,0.1663688 0.77055,0.2845782 0.385275,0.1138312 0.735525,0.1269656 v 0.7574156 q -0.2802,0.030647 -0.718012,0.2057719 -0.433435,0.1707469 -1.129556,0.53850938 -0.5604,0.29771251 -1.041994,0.50786251 Q 20.994755,-0.21452813 20.495649,-0.105075 20.000921,0 19.383605,0 h -0.731147 z m -1.397216,-2.75821884 0.345872,-0.6479625 q 1.571746,0.7661719 2.342297,1.3703532 0.77055,0.5998031 0.77055,1.225875 0,0.77492814 -0.481594,1.16895939 -0.477216,0.39403126 -1.282791,0.39403126 -0.302091,0 -0.643584,-0.04815938 Q 17.964498,-0.1401 17.658029,-0.21015 17.35156,-0.28457813 17.14141,-0.35462813 16.760514,-0.21452813 16.248273,-0.105075 15.736032,0 15.258817,0 h -0.433435 v -0.79681876 h 0.376519 q 0.288956,0 0.507863,-0.0131344 0.223284,-0.0131344 0.485971,-0.0437812 -0.30209,-0.24517501 -0.437812,-0.53413121 -0.131344,-0.2933344 -0.131344,-0.6041813 0,-0.455325 0.214528,-0.7836844 0.214528,-0.3283594 0.569157,-0.5034844 0.354628,-0.1795031 0.774928,-0.1795031 0.188259,0 0.376518,0.048159 -0.148856,-0.07005 -0.306468,-0.1444782 z m 0.79244,2.71881571 q 0.192638,0.0218906 0.4203,0.0437812 0.227663,0.0175125 0.402788,0.0175125 0.529753,0 0.805575,-0.19701563 0.2802,-0.20139373 0.2802,-0.62169373 0,-0.2145282 -0.245175,-0.4640813 -0.245175,-0.2539312 -0.656719,-0.5209969 -0.407166,-0.2714437 -0.901894,-0.5341312 0.240797,0.1926375 0.385275,0.4640812 0.148857,0.2714438 0.148857,0.5735344 0,0.4115438 -0.166369,0.7048782 -0.161991,0.2889562 -0.472838,0.53413121 z M 16.379617,-2.0008032 q 0,0.2583094 0.214528,0.5166188 0.218906,0.2539313 0.63045,0.4115438 0.788062,-0.3196032 0.788062,-0.9194063 0,-0.3808969 -0.23204,-0.5779125 -0.227663,-0.2013938 -0.551644,-0.2013938 -0.376519,0 -0.612938,0.21015 -0.236418,0.21015 -0.236418,0.5604 z m -3.279216,0.4071657 q 0,-0.1138313 -0.05254,-0.2933344 -0.04816,-0.1838813 -0.118209,-0.3414938 l -0.774928,-1.7556281 0.682987,-0.3196031 0.993835,2.3379187 q 0.201393,0.4728376 0.35025,0.7267688 0.153234,0.25393126 0.297712,0.35025001 0.148856,0.0919406 0.337116,0.0919406 h 0.183881 V 0 h -0.183881 q -0.345872,0 -0.564778,-0.08318438 -0.214528,-0.08318437 -0.372141,-0.24955313 -0.157612,-0.16636875 -0.319603,-0.4203 -0.306469,0.385275 -0.783684,0.56915626 -0.472838,0.17950312 -1.182094,0.17950312 -0.306469,0 -0.551644,-0.02626875 -0.245175,-0.03064687 -0.464081,-0.08318437 v -0.79244064 q 0.503484,0.11820938 0.950053,0.11820938 1.571747,0 1.571747,-0.80557499 z M 8.0655569,-3.2004094 q 0.6829876,0 1.1514469,0.6129375 0.4684594,0.6085594 0.4859719,1.79065314 H 10.232729 V 0 H 9.6329257 Q 9.536607,0.50348438 9.2476507,0.97194377 8.9630726,1.4447813 8.3982944,1.8037875 7.8335163,2.1671719 6.9009757,2.346675 L 6.6426663,1.6505532 Q 8.625957,1.2696563 8.941182,0 H 8.2494382 q -1.6593094,0 -1.6593094,-1.3440844 0,-0.4290563 0.1707469,-0.8581125 0.175125,-0.4290563 0.5034844,-0.7136344 0.3327375,-0.2845781 0.8011968,-0.2845781 z m 0.1401,2.40359064 h 0.7749282 q -0.052538,-0.84497814 -0.2802,-1.23025314 -0.2232844,-0.385275 -0.6479625,-0.385275 -0.2802,0 -0.4421907,0.1795031 -0.1576125,0.1795031 -0.2232843,0.4246781 -0.061294,0.2407969 -0.061294,0.4378126 0,0.3064687 0.2057719,0.44219058 0.21015,0.13134376 0.6742312,0.13134376 z M 5.2460439,-5.1399188 5.8589814,-4.5313594 5.2460439,-3.9140438 4.6374845,-4.5313594 Z m -1.4535376,0 0.6129375,0.6085594 -0.6129375,0.6173156 -0.6085593,-0.6173156 z m -0.4728375,4.34310004 h 0.8975157 q 0.4378125,0 0.5910469,-0.25393124 0.1576125,-0.2539313 0.1576125,-0.6435844 0,-0.2845781 -0.052538,-0.6085594 -0.052537,-0.3239812 -0.1138313,-0.6523406 l 0.7617938,-0.1926375 q 0.074428,0.35025 0.1182093,0.6873656 0.043781,0.3371156 0.043781,0.6435844 0,0.525375 -0.1444781,0.93691876 Q 5.4343032,-0.46845938 5.1059439,-0.23204063 4.7775845,0 4.2259407,0 H 3.3196688 Z"
         id="path11" />
      <path
         style="font-size:7.9701px;font-family:Vazirmatn"
         d="M 36.918572,5.9766877 37.482861,6.540977 36.918572,7.1052663 36.354283,6.540977 Z M 34.704223,10.24972 h 0.342465 q 0.03502,0 0.217933,0 0.182907,0 0.408623,-0.0039 0.225716,-0.0078 0.385273,-0.01557 -0.233499,-0.272416 -0.365815,-0.5409398 -0.132316,-0.2685239 -0.132316,-0.5720726 0,-0.2412824 0.112858,-0.4864563 0.112858,-0.245174 0.303549,-0.4553231 0.190691,-0.2101491 0.435865,-0.334682 0.245174,-0.1284244 0.505914,-0.1284244 0.272416,0 0.521481,0.1284244 0.249066,0.1245329 0.439757,0.334682 0.194582,0.2062574 0.30744,0.4553231 0.112858,0.2490656 0.112858,0.4942396 0,0.3074403 -0.136208,0.5720726 -0.136207,0.2607405 -0.373598,0.5370475 0.217932,0.01168 0.389165,0.01557 0.171232,0 0.303549,0 h 0.37749 V 10.958 h -0.369707 q -0.147883,0 -0.404732,-0.02335 -0.256849,-0.02724 -0.564289,-0.08951 -0.30744,-0.06227 -0.607097,-0.167341 -0.299658,0.108967 -0.677148,0.171233 -0.37749,0.05837 -0.70828,0.08562 -0.33079,0.02335 -0.490348,0.02335 h -0.334682 q -1.467152,0 -2.206566,-0.396948 -0.735522,-0.396948 -0.735522,-1.3737527 0,-0.2685239 0.05837,-0.5253728 0.06227,-0.2568489 0.159558,-0.4942396 l 0.603206,0.2257157 q -0.06227,0.1712326 -0.105075,0.3658151 -0.03892,0.1945826 -0.03892,0.3697068 0.0039,0.4553231 0.256849,0.7004971 0.252957,0.2412824 0.75498,0.3307904 0.502023,0.08951 1.253111,0.08951 z m 2.214349,-1.8485341 q -0.147883,0 -0.311332,0.1128579 -0.159558,0.1089662 -0.272415,0.2763071 -0.108967,0.167341 -0.108967,0.3424653 0,0.1790159 0.105075,0.3658151 0.105075,0.1867992 0.264632,0.3424652 0.163449,0.155666 0.33079,0.2412825 0.295766,-0.124533 0.502023,-0.4008401 0.210149,-0.2801989 0.210149,-0.556506 0,-0.1634493 -0.116749,-0.3307903 Q 37.40892,8.6269016 37.241579,8.5140438 37.074238,8.4011859 36.918572,8.4011859 Z M 28.399751,10.24972 h 0.587639 q 0.49424,0 0.704389,-0.221824 0.214041,-0.2218243 0.214041,-0.6810391 0,-0.1867992 -0.01167,-0.3541401 -0.0078,-0.167341 -0.02335,-0.334682 l 0.649905,-0.077833 0.06227,0.9106462 q 0.0467,0.758872 0.790005,0.758872 h 0.08172 V 10.958 h -0.08951 q -0.431974,0 -0.692714,-0.155666 -0.256849,-0.155666 -0.416407,-0.439756 -0.210149,0.30744 -0.552614,0.451431 Q 29.360989,10.958 28.98739,10.958 h -0.587639 z m 1.404886,1.327053 0.544831,0.540939 -0.544831,0.548723 -0.54094,-0.548723 z m -1.292028,0 0.544831,0.540939 -0.544831,0.548723 -0.54094,-0.548723 z M 26.34496,7.9147296 q 0.299657,0 0.618772,0.050591 0.319115,0.0467 0.591531,0.1362077 0.276307,0.089508 0.44754,0.2179324 0.171232,0.1284245 0.171232,0.2879822 0,0.1128578 -0.120641,0.311332 -0.116749,0.1984742 -0.303549,0.4280815 -0.182907,0.2296074 -0.385273,0.4436482 -0.202366,0.2101489 -0.369707,0.3580319 0.272416,0.07005 0.51759,0.08562 0.245174,0.01557 0.443648,0.01557 H 28.5632 V 10.958 h -0.603205 q -0.408624,0 -0.817247,-0.09729 -0.404732,-0.09729 -0.797788,-0.323007 -0.256849,0.147883 -0.595423,0.241282 -0.334682,0.0934 -0.677147,0.136208 Q 24.733816,10.958 24.461401,10.958 H 23.84652 v -0.70828 h 0.618773 q 0.132316,0 0.35414,-0.0039 0.225715,-0.0078 0.463106,-0.02724 0.241282,-0.02335 0.420298,-0.07005 Q 25.535496,10.000654 25.333131,9.7905051 25.130765,9.5764643 24.943966,9.3468569 24.761058,9.1172496 24.640417,8.9187754 24.519776,8.7203012 24.519776,8.6074434 q 0,-0.1595577 0.167341,-0.2879822 0.167341,-0.1284244 0.439756,-0.2179324 0.276307,-0.089508 0.595423,-0.1362077 0.319115,-0.050591 0.622664,-0.050591 z m 0,0.6693639 q -0.175125,0 -0.502023,0.027242 -0.323007,0.027242 -0.610989,0.1245328 0.252957,0.3191154 0.509806,0.5720726 0.256849,0.2529573 0.428081,0.4047317 0.175125,0.1478827 0.175125,0.1478827 0,0 0.175124,-0.1478827 0.175124,-0.1517744 0.435865,-0.4047317 0.26074,-0.2529572 0.509806,-0.5720726 Q 27.177773,8.6385766 26.850874,8.611335 26.523976,8.5840935 26.34496,8.5840935 Z m -4.483184,-2.6579972 0.56429,0.5642893 -0.56429,0.5642893 -0.564289,-0.5642893 z M 19.320529,10.129079 Q 20.013243,8.9460169 20.682606,8.3856193 21.35197,7.82133 22.021334,7.82133 q 0.443648,0 0.786114,0.1945825 0.346356,0.1906909 0.540939,0.5214812 0.194582,0.3307902 0.194582,0.7471968 -0.0039,0.8522715 -0.716063,1.2647865 Q 22.114734,10.958 20.670931,10.958 h -0.206257 q -0.82503,0 -1.257003,-0.155666 -0.431973,-0.155666 -0.610989,-0.435865 -0.225716,0.307441 -0.509806,0.451432 Q 17.806677,10.958 17.339679,10.958 h -0.159558 l 0.0039,-0.70828 h 0.155666 q 0.544831,0 0.73163,-0.229608 Q 18.262,9.7866134 18.262,9.3468569 q 0,-0.1867992 -0.01557,-0.3463568 -0.01168,-0.1595577 -0.01946,-0.3424653 l 0.649906,-0.077833 0.05837,0.9106462 q 0.01946,0.2607406 0.108967,0.4514314 0.08951,0.1867996 0.276307,0.1867996 z m 2.731938,-1.5994686 q -0.937887,0 -2.027549,1.7201096 h 0.630447 q 1.10912,0 1.653951,-0.221824 0.544831,-0.2218243 0.544831,-0.704389 0,-0.3424652 -0.221824,-0.5681809 -0.217932,-0.2257157 -0.579856,-0.2257157 z m -6.304473,0.1284244 q 0,0.7316303 0.155666,1.4360192 0.155666,0.700497 0.455323,1.272569 0.303548,0.572073 0.747197,0.910647 l -0.147883,0.474781 q -0.431973,-0.233499 -0.782222,-0.649906 -0.350248,-0.416406 -0.603206,-0.965129 -0.249065,-0.544831 -0.385273,-1.17917 -0.136208,-0.634339 -0.136208,-1.2998112 0,-0.6654722 0.136208,-1.2998112 0.136208,-0.634339 0.385273,-1.1791701 0.252958,-0.5487227 0.603206,-0.9651292 0.350249,-0.4164066 0.782222,-0.6499056 L 17.10618,5.0388 Q 16.662531,5.3773736 16.358983,5.9494462 16.059326,6.5215188 15.90366,7.2259075 15.747994,7.9264046 15.747994,8.6580348 Z m -0.292404,0 q 0,-0.7316302 -0.155666,-1.4321273 Q 15.14815,6.5215188 14.844601,5.9494462 14.541052,5.3773736 14.097404,5.0388 l 0.147883,-0.4747813 q 0.431973,0.233499 0.782221,0.6499056 0.350249,0.4164065 0.599315,0.9651292 0.252957,0.5448311 0.389165,1.1791701 0.136207,0.634339 0.136207,1.2998112 0,0.6654722 -0.136207,1.2998112 -0.136208,0.634339 -0.389165,1.17917 -0.249066,0.548723 -0.599315,0.965129 -0.350248,0.416407 -0.782221,0.649906 L 14.097404,12.27727 q 0.443648,-0.338574 0.747197,-0.910647 0.303549,-0.572072 0.455323,-1.272569 Q 15.45559,9.3896651 15.45559,8.6580348 Z M 11.56005,8.0781789 11.408276,7.9419712 11.820791,7.4088151 q 0.513698,0.4241898 0.902863,0.7938966 0.393056,0.3658152 0.61488,0.7199553 0.221824,0.3502486 0.221824,0.7277387 0,0.5915313 -0.404731,0.9417793 -0.404732,0.350249 -1.066312,0.350249 -0.677148,0 -1.074096,-0.330791 -0.396948,-0.334682 -0.396948,-0.8483795 0,-0.4514314 0.241282,-0.8405965 0.241282,-0.3930566 0.700497,-0.8444881 z m 1.338728,1.5410936 q 0,-0.179016 -0.132316,-0.3658152 -0.128425,-0.1906908 -0.326899,-0.3774901 -0.194582,-0.1906908 -0.396948,-0.3658151 -0.358032,0.3424652 -0.560398,0.6148808 -0.202366,0.2685238 -0.202366,0.5642893 0,0.2257157 0.190691,0.3930568 0.190691,0.167341 0.614881,0.167341 0.428082,0 0.618772,-0.155666 0.194583,-0.1556662 0.194583,-0.4747815 z M 8.6218529,9.5414395 q 0,-0.101183 -0.0467,-0.2607406 Q 8.5323449,9.1172496 8.4700785,8.9771502 L 7.7812564,7.4165984 8.3883539,7.1325079 9.2717585,9.2106492 q 0.1790159,0.4202982 0.311332,0.6460139 0.1362078,0.2257159 0.2646323,0.3113319 0.1323161,0.08173 0.2996572,0.08173 h 0.163449 V 10.958 H 10.14738 q -0.3074405,0 -0.502023,-0.07394 -0.1906909,-0.07394 -0.3307903,-0.221824 -0.1400994,-0.147883 -0.2840905,-0.373599 -0.2724155,0.342466 -0.6966054,0.505915 -0.4202983,0.159558 -1.0507456,0.159558 -0.2724155,0 -0.490348,-0.02335 -0.2179324,-0.02724 -0.4125149,-0.07394 v -0.704388 q 0.4475398,0.105074 0.8444881,0.105074 1.3971025,0 1.3971025,-0.7160635 z M 3.1774343,5.84048 3.7028071,6.3658528 3.1774343,6.8912256 2.6520615,6.3658528 Z M 3.8429065,6.8250675 4.3682793,7.3504403 3.8429065,7.8758131 3.3175337,7.3504403 Z m -1.3309444,0 L 3.0373349,7.3504403 2.5119621,7.8758131 1.9865893,7.3504403 Z M 2.3446211,10.958 q -0.4475398,0 -0.6927138,-0.151774 Q 1.410625,10.65056 1.266634,10.362578 1.0837264,10.65056 0.79963591,10.806226 0.51554544,10.958 -0.00982736,10.958 h -0.35803183 v -0.70828 h 0.36581513 q 0.49813124,0 0.72773861,-0.182908 0.22960738,-0.186799 0.22960738,-0.6771469 0,-0.1011829 -0.011675,-0.2373907 -0.007783,-0.1400994 -0.0272415,-0.389165 L 1.566291,8.6813847 1.6285574,9.4947396 q 0.02335,0.3268987 0.1984742,0.5409394 0.1790159,0.214041 0.5253728,0.214041 0.4125149,0 0.5603977,-0.221824 0.1478827,-0.2218243 0.1478827,-0.6382309 0,-0.1011829 -0.011675,-0.2412823 -0.00778,-0.1400994 -0.027241,-0.3852734 l 0.6499056,-0.081725 0.062266,0.8133549 q 0.019458,0.3152237 0.1673409,0.5370474 0.1478828,0.217933 0.478673,0.217933 0.323007,0 0.4436482,-0.241283 0.1206411,-0.2412818 0.1206411,-0.5642888 0,-0.2918738 -0.058375,-0.5876392 Q 4.8313857,8.5607436 4.7885775,8.377836 L 5.4540497,8.1988201 q 0.07005,0.2607406 0.1128579,0.556506 0.042808,0.2918738 0.042808,0.5837475 0,0.4202983 -0.1167495,0.7900054 -0.1167495,0.369706 -0.3852733,0.599314 -0.2646323,0.225716 -0.723847,0.229607 -0.3735984,0 -0.6032058,-0.155666 Q 3.5510327,10.646668 3.4070416,10.362578 3.1891092,10.677801 2.9205854,10.817901 2.6559531,10.958 2.3446211,10.958 Z"
         id="path12" />
    </g>
    <path
       id="path5"
       d="M 179.67143,-42.9187 H 76.24693 c -2.75117,0 -4.98138,-2.23021 -4.98138,-4.98139 v -18.38403 c 0,-2.75118 2.23021,-4.98138 4.98138,-4.98138 h 103.4245 c 2.75117,0 4.98139,2.2302 4.98139,4.98138 v 18.38403 c 0,2.75118 -2.23022,4.98139 -4.98139,4.98139 z"
       style="fill:#ffe6e6;fill-opacity:1;fill-rule:nonzero;stroke:#be1e2d;stroke-width:0.3985;stroke-linecap:butt;stroke-linejoin:miter;stroke-miterlimit:10;stroke-dasharray:none;stroke-opacity:1"
       transform="matrix(1.3333333,0,0,-1.3333333,266.392,39.082667)" />
    <g
       id="text5"
       transform="matrix(1.3333333,0,0,1.3333333,415.09733,109.952)"
       aria-label="ﭗﭼﻦﯾﻮﻧتاﺮﮐﻮﻣد لﺎﯿﺳﻮﺳ">
      <path
         style="font-size:8.9664px;font-family:Vazirmatn"
         d="M 29.507969,0.55164376 30.099016,1.1426906 29.507969,1.7337375 28.916922,1.1426906 Z m -1.497319,0 0.591047,0.59104684 -0.591047,0.5910469 -0.591047,-0.5910469 z m 0.748659,1.10766564 0.591047,0.5910469 -0.591047,0.5910469 -0.591047,-0.5910469 z m 2.56996,-4.2467813 0.731147,-0.087562 0.07443,1.0244812 q 0.02627,0.4159219 0.236418,0.6348282 0.214529,0.21890624 0.639207,0.21890624 h 0.105075 V 0 H 33.010469 Q 32.515741,0 32.196137,-0.18388125 31.880912,-0.37214063 31.675141,-0.78368439 31.311756,-0.36338438 30.7426,-0.17950313 30.177822,0 29.170853,0 h -0.731147 q -1.650553,0 -2.482397,-0.44656876 -0.827465,-0.44656875 -0.827465,-1.54547814 0,-0.3020906 0.06567,-0.5910469 0.07005,-0.2889562 0.179504,-0.5560219 l 0.678609,0.2539313 q -0.07005,0.1926375 -0.118209,0.4115437 -0.04378,0.2189063 -0.04378,0.4159219 0.0044,0.5122406 0.288957,0.7880625 0.284578,0.27144378 0.849356,0.37214066 0.564778,0.10069688 1.409756,0.10069688 h 0.731147 q 1.046372,0 1.619906,-0.21890624 0.577913,-0.2189063 0.577913,-0.7968188 0,-0.1795031 -0.01313,-0.385275 -0.0088,-0.2057719 -0.02627,-0.3896531 z M 22.354112,0.55164376 22.945159,1.1426906 22.354112,1.7337375 21.763065,1.1426906 Z m -1.497319,0 0.591047,0.59104684 -0.591047,0.5910469 -0.591047,-0.5910469 z m 0.748659,1.10766564 0.591047,0.5910469 -0.591047,0.5910469 -0.591047,-0.5910469 z m -3.003394,-2.45612816 h 0.744282 q 0.51224,0 0.941297,-0.0919406 0.429056,-0.0919406 0.836222,-0.25393121 0.411543,-0.1619907 0.858112,-0.3808969 0.450947,-0.2232844 1.006969,-0.4772157 -0.310847,-0.1138312 -0.643585,-0.245175 -0.332737,-0.1357218 -0.634828,-0.2539312 -0.297712,-0.1182094 -0.520997,-0.1926375 -0.223284,-0.078806 -0.315225,-0.078806 -0.267065,0 -0.472837,0.1576125 -0.201394,0.1532344 -0.372141,0.3721407 l -0.118209,0.1488562 -0.669853,-0.3283594 0.06567,-0.105075 q 0.288956,-0.4684593 0.669853,-0.7486594 0.385275,-0.2845781 0.901894,-0.2845781 0.214528,0 0.516618,0.1094531 0.306469,0.1094532 0.665475,0.2758219 0.359007,0.1619907 0.744282,0.3327375 0.385275,0.1663688 0.77055,0.2845782 0.385275,0.1138312 0.735525,0.1269656 v 0.7574156 q -0.2802,0.030647 -0.718013,0.2057719 -0.433434,0.1707469 -1.129556,0.53850938 -0.5604,0.29771251 -1.041994,0.50786251 Q 20.944355,-0.21452813 20.445249,-0.105075 19.950521,0 19.333205,0 h -0.731147 z m -1.007565,-2.58747194 0.634828,0.6348282 -0.634828,0.6348281 -0.634828,-0.6348281 z m 0.04816,4.8509626 q 0.731146,0 1.129556,-0.2407969 0.402787,-0.23641873 0.5604,-0.62607187 0.16199,-0.385275 0.16199,-0.82746563 0,-0.52099689 -0.1401,-1.0288594 -0.1401,-0.5078625 -0.262687,-0.8318438 l 0.748659,-0.3020906 0.323982,1.0244813 q 0.08756,0.2802 0.284578,0.42467811 0.201393,0.14447813 0.5604,0.14447813 h 0.170747 V 0 h -0.153235 q -0.306469,0 -0.468459,-0.05691563 -0.157613,-0.05691562 -0.297713,-0.1926375 -0.0044,0.73114689 -0.2802,1.29592503 -0.275822,0.5691563 -0.853734,0.8887594 -0.573534,0.3196031 -1.484184,0.3196031 -0.945675,0 -1.514832,-0.3458719 -0.564778,-0.3458718 -0.818709,-0.92378436 -0.249553,-0.57353438 -0.249553,-1.26090002 0,-0.46408126 0.09632,-0.95005312 0.09632,-0.49035 0.262687,-0.9544313 l 0.696122,0.2802 q -0.126966,0.4027875 -0.214528,0.8274657 -0.08756,0.42467809 -0.08756,0.82308747 0,0.47283751 0.166369,0.86249064 0.170747,0.38965309 0.569156,0.62169379 0.39841,0.2320406 1.094532,0.2320406 z m -6.383306,-2.26349066 h 1.427269 q 0.437812,0 0.591047,-0.25393124 0.157612,-0.2539313 0.157612,-0.6435844 0,-0.2845781 -0.05254,-0.6085594 Q 13.3302,-2.626875 13.268907,-2.9552344 L 14.0307,-3.1478719 q 0.07443,0.35025 0.11821,0.6873656 0.04378,0.3371156 0.04378,0.6435844 0,0.525375 -0.144478,0.93691876 -0.144478,0.41154376 -0.472838,0.64796251 Q 13.247016,0 12.695372,0 h -1.436025 z m 2.057719,1.49294065 0.612938,0.60855941 -0.612938,0.6173156 -0.608559,-0.6173156 z m -1.453538,0 0.612938,0.60855941 -0.612938,0.6173156 -0.608559,-0.6173156 z M 9.2716784,-3.2004094 q 0.6829875,0 1.1514466,0.6129375 0.46846,0.6085594 0.485972,1.79065314 H 11.43885 V 0 H 10.839047 Q 10.742728,0.50348438 10.453772,0.97194377 10.169194,1.4447813 9.6044159,1.8037875 9.0396378,2.1671719 8.1070971,2.346675 L 7.8487877,1.6505532 Q 9.8320784,1.2696563 10.147303,0 H 9.4555596 q -1.6593094,0 -1.6593094,-1.3440844 0,-0.4290563 0.1707469,-0.8581125 0.175125,-0.4290563 0.5034844,-0.7136344 0.3327375,-0.2845781 0.8011969,-0.2845781 z m 0.1401,2.40359064 H 10.186707 Q 10.134169,-1.6417969 9.9065065,-2.0270719 9.6832221,-2.4123469 9.258544,-2.4123469 q -0.2802,0 -0.4421906,0.1795031 -0.1576125,0.1795031 -0.2232844,0.4246781 -0.061294,0.2407969 -0.061294,0.4378126 0,0.3064687 0.2057718,0.44219058 0.21015,0.13134376 0.6742313,0.13134376 z M 5.4320621,0 H 4.7184277 v -0.79681876 h 0.7048782 q 0.4378125,0 0.5910468,-0.25393124 0.1576125,-0.2539313 0.1576125,-0.6435844 0,-0.2845781 -0.052537,-0.6085594 -0.052538,-0.3239812 -0.1138312,-0.6523406 l 0.7617938,-0.1926375 q 0.074428,0.35025 0.1182093,0.6873656 0.043781,0.3371156 0.043781,0.6435844 0,0.525375 -0.1444781,0.93691876 Q 6.6404246,-0.46845938 6.3120652,-0.23204063 5.9837059,0 5.4320621,0 Z m 0.5341313,-5.1661876 0.6348281,0.6348282 -0.6348281,0.6348281 -0.6348282,-0.6348281 z"
         id="path13" />
      <path
         style="font-size:7.9701px;font-family:Vazirmatn"
         d="m 37.138449,6.3892027 0.544831,0.5409394 -0.544831,0.5487227 -0.54094,-0.5487227 z m -1.292028,0 0.544831,0.5409394 -0.544831,0.5487227 -0.54094,-0.5487227 z M 35.23154,10.24972 h 0.992371 q 0.389165,0 0.525373,-0.225716 0.140099,-0.2257156 0.140099,-0.5720725 0,-0.2529573 -0.0467,-0.5409394 Q 36.795983,8.62301 36.7415,8.3311362 l 0.677147,-0.1712326 q 0.06616,0.311332 0.105075,0.6109891 0.03892,0.2996571 0.03892,0.5720726 0,0.466998 -0.128424,0.8328127 -0.128424,0.365816 -0.420298,0.575965 Q 36.722042,10.958 36.231694,10.958 H 35.23154 Z M 33.818866,5.5991976 h 0.657688 v 3.7204178 q 0,0.5487227 0.202366,0.7394136 0.202366,0.190691 0.610989,0.190691 h 0.09729 V 10.958 h -0.09729 q -0.743305,0 -1.10912,-0.393057 -0.361923,-0.396948 -0.361923,-1.2492193 z M 32.654235,10.958 q -0.268524,0 -0.451432,-0.07005 -0.179016,-0.07394 -0.280199,-0.155666 -0.05837,0.509807 -0.28409,0.984588 -0.221824,0.478673 -0.669364,0.832813 -0.44754,0.35414 -1.183062,0.498131 l -0.229607,-0.61488 q 0.949563,-0.206258 1.338728,-0.723847 0.389165,-0.513698 0.389165,-1.218087 0,-0.33079 -0.07394,-0.6927136 -0.07005,-0.3658152 -0.198474,-0.7433052 l 0.646014,-0.2179325 0.210149,0.813355 q 0.08562,0.3268986 0.272416,0.4631063 0.186799,0.136208 0.47089,0.136208 h 0.147882 V 10.958 Z M 27.661252,7.1830993 q 0.338574,0.2373907 0.704389,0.5020229 0.365815,0.2607406 0.681039,0.5603977 0.319115,0.2957654 0.513697,0.634339 0.198475,0.3346819 0.198475,0.7160637 -0.0039,0.7238474 -0.502023,1.0429624 -0.49424,0.319115 -1.58001,0.319115 h -0.949563 v -0.70828 h 0.945671 q 0.75498,0 1.081879,-0.132316 0.326898,-0.1362081 0.326898,-0.537048 0,-0.256849 -0.182907,-0.5020229 Q 28.719781,8.8331591 28.431799,8.5957684 28.147708,8.3544861 27.82081,8.1248787 27.493911,7.8913797 27.205929,7.665664 27.081396,7.5644811 27.015238,7.4282733 26.94908,7.2920655 26.94908,7.1558578 q 0,-0.1595577 0.08562,-0.2996571 0.08951,-0.1439911 0.276308,-0.2179324 L 30.1091,5.5019064 v 0.6888221 z m -2.704695,0.9301045 q 0.607097,0 1.023504,0.544831 0.416406,0.5409394 0.431973,1.5916852 h 0.47089 V 10.958 h -0.533157 q -0.08562,0.44754 -0.342465,0.863947 -0.252957,0.420298 -0.75498,0.739413 -0.502023,0.323007 -1.330944,0.482565 L 23.69177,12.425152 Q 25.454688,12.086579 25.734887,10.958 h -0.614881 q -1.474936,0 -1.474936,-1.1947365 0,-0.3813817 0.151775,-0.7627634 0.155666,-0.3813818 0.44754,-0.6343391 0.295765,-0.2529572 0.712172,-0.2529572 z m 0.124532,2.1365162 h 0.688823 q -0.0467,-0.7510887 -0.249066,-1.0935539 -0.198474,-0.3424653 -0.575964,-0.3424653 -0.249066,0 -0.393057,0.1595577 -0.140099,0.1595577 -0.198474,0.3774901 -0.05448,0.2140408 -0.05448,0.389165 0,0.2724154 0.182907,0.3930564 0.1868,0.11675 0.599314,0.11675 z m -3.432438,0.797788 q -0.389165,0 -0.719956,-0.167341 Q 20.601797,10.708935 20.247657,10.366469 19.994699,10.65056 19.7612,10.806226 19.527701,10.958 19.103511,10.958 h -0.171232 v -0.70828 h 0.151774 q 0.260741,0 0.439757,-0.147883 0.179016,-0.1517743 0.319115,-0.3891649 0.140099,-0.2373907 0.276307,-0.5020229 0.1401,-0.2685239 0.311332,-0.5059146 0.171233,-0.2373906 0.412515,-0.3852734 0.245174,-0.1517743 0.603206,-0.1517743 0.431973,0 0.751088,0.2101491 0.323007,0.2062575 0.498132,0.556506 0.179016,0.3502485 0.179016,0.7822217 0,0.6343393 -0.323007,0.9845873 -0.319116,0.346357 -0.902863,0.346357 z M 21.461852,8.856509 q -0.194583,0 -0.354141,0.1323161 -0.159557,0.1284245 -0.287982,0.3346819 -0.128424,0.2062575 -0.229607,0.4280816 0.233499,0.2451739 0.482564,0.4008404 0.319116,0.206257 0.568181,0.206257 0.575965,0 0.575965,-0.5798559 0,-0.4047316 -0.202366,-0.6615805 Q 21.815992,8.856509 21.461852,8.856509 Z m -4.99688,1.400994 q 1.494394,0 1.494394,-0.7744383 0,-0.3658151 -0.373599,-0.7744384 -0.373598,-0.4086233 -1.237545,-0.879513 l 0.307441,-0.6148808 q 1.000154,0.5098062 1.482718,1.0779872 0.486457,0.5642893 0.486457,1.17917 0,0.7316303 -0.505915,1.1052283 -0.502023,0.373599 -1.595576,0.373599 -0.521482,0 -0.94178,-0.0934 v -0.704388 q 0.509806,0.105074 0.883405,0.105074 z m -6.136603,0.249066 q 0,1.229761 -0.5253723,1.805726 -0.5253728,0.575964 -1.5333102,0.575964 -0.723847,0 -1.1791701,-0.260741 -0.4553231,-0.256849 -0.6693639,-0.719955 -0.2140407,-0.463107 -0.2140407,-1.074096 0,-0.412515 0.085616,-0.8444878 0.085616,-0.4358648 0.233499,-0.8483797 l 0.6187724,0.2490656 q -0.1128579,0.3580318 -0.1906909,0.7355219 -0.077833,0.37749 -0.077833,0.73163 0,0.630448 0.3191154,0.980696 0.3230069,0.350249 1.0740955,0.350249 0.6966054,0 1.0468539,-0.381382 0.3541402,-0.381382 0.3541402,-1.229762 V 5.5991976 H 10.328369 Z M 4.3313358,5.5991976 h 0.6576889 v 3.7204178 q 0,0.5487227 0.2023658,0.7394136 0.2023658,0.190691 0.6109891,0.190691 h 0.097291 V 10.958 h -0.097291 q -0.7433052,0 -1.1091203,-0.393057 Q 4.3313358,10.167995 4.3313358,9.3157237 Z M 0.75880031,10.24972 H 1.3464395 q 0.4942396,0 0.7043887,-0.221824 0.2140408,-0.2218243 0.2140408,-0.6810391 0,-0.1867992 -0.011675,-0.3541401 -0.00778,-0.167341 -0.02335,-0.334682 l 0.6499057,-0.077833 0.062266,0.9106462 q 0.0467,0.758872 0.790005,0.758872 h 0.081725 V 10.958 h -0.089508 q -0.4319732,0 -0.6927138,-0.155666 Q 2.7746752,10.646668 2.6151175,10.362578 2.4049684,10.670018 2.0625032,10.814009 1.7200379,10.958 1.3464395,10.958 H 0.75880031 Z m 1.40488579,1.327053 0.544831,0.540939 -0.544831,0.548723 -0.5409394,-0.548723 z m -1.29202793,0 0.54483103,0.540939 -0.54483103,0.548723 -0.5409394,-0.548723 z M -2.8059512,10.958 q -0.4475398,0 -0.6927138,-0.151774 Q -3.7399473,10.65056 -3.8839383,10.362578 -4.0668459,10.65056 -4.3509364,10.806226 -4.6350269,10.958 -5.1603997,10.958 h -0.3580318 v -0.70828 h 0.3658151 q 0.4981313,0 0.7277387,-0.182908 0.2296073,-0.186799 0.2296073,-0.6771469 0,-0.1011829 -0.011675,-0.2373907 -0.00778,-0.1400994 -0.027242,-0.389165 l 0.6499056,-0.081725 0.062266,0.8133549 q 0.02335,0.3268987 0.1984742,0.5409394 0.1790159,0.214041 0.5253728,0.214041 0.4125149,0 0.5603977,-0.221824 0.1478827,-0.2218243 0.1478827,-0.6382309 0,-0.1011829 -0.011675,-0.2412823 -0.00778,-0.1400994 -0.027242,-0.3852734 l 0.6499056,-0.081725 0.062266,0.8133549 q 0.019458,0.3152237 0.1673409,0.5370474 0.1478828,0.217933 0.47867304,0.217933 0.32300698,0 0.44364814,-0.241283 0.12064116,-0.2412818 0.12064116,-0.5642888 0,-0.2918738 -0.0583748,-0.5876392 -0.0544831,-0.2957654 -0.0972913,-0.478673 L 0.30347744,8.1988201 q 0.0700497,0.2607406 0.11285786,0.556506 0.0428081,0.2918738 0.0428081,0.5837475 0,0.4202983 -0.11674951,0.7900054 -0.11674951,0.369706 -0.38527339,0.599314 -0.26463222,0.225716 -0.72384696,0.229607 -0.37359839,0 -0.60320579,-0.155666 -0.2296074,-0.155666 -0.3735985,-0.439756 -0.2179324,0.315223 -0.4864562,0.455323 Q -2.4946192,10.958 -2.8059512,10.958 Z M -7.2891319,8.1132038 q 0.6070974,0 1.023504,0.544831 0.4164066,0.5409394 0.4319732,1.5916852 H -5.362765 V 10.958 h -0.5331561 q -0.085616,0.44754 -0.3424652,0.863947 -0.2529573,0.420298 -0.7549802,0.739413 -0.5020229,0.323007 -1.3309444,0.482565 L -8.5539183,12.425152 Q -6.7910007,12.086579 -6.5108018,10.958 h -0.6148808 q -1.4749355,0 -1.4749355,-1.1947365 0,-0.3813817 0.1517744,-0.7627634 0.155666,-0.3813818 0.4475398,-0.6343391 0.2957654,-0.2529572 0.712172,-0.2529572 z m 0.1245328,2.1365162 h 0.6888221 q -0.0467,-0.7510887 -0.2490656,-1.0935539 -0.1984742,-0.3424653 -0.5759643,-0.3424653 -0.2490656,0 -0.3930566,0.1595577 -0.1400995,0.1595577 -0.1984742,0.3774901 -0.054483,0.2140408 -0.054483,0.389165 0,0.2724154 0.1829075,0.3930564 0.1867993,0.11675 0.5993142,0.11675 z M -12.63626,10.958 q -0.447539,0 -0.692713,-0.151774 -0.241283,-0.155666 -0.385274,-0.443648 -0.182907,0.287982 -0.466998,0.443648 -0.28409,0.151774 -0.809463,0.151774 h -0.358032 v -0.70828 h 0.365815 q 0.498131,0 0.727739,-0.182908 0.229607,-0.186799 0.229607,-0.6771469 0,-0.1011829 -0.01168,-0.2373907 -0.0078,-0.1400994 -0.02724,-0.389165 l 0.649905,-0.081725 0.06227,0.8133549 q 0.02335,0.3268987 0.198474,0.5409394 0.179016,0.214041 0.525373,0.214041 0.412515,0 0.560397,-0.221824 0.147883,-0.2218243 0.147883,-0.6382309 0,-0.1011829 -0.01167,-0.2412823 -0.0078,-0.1400994 -0.02724,-0.3852734 l 0.649905,-0.081725 0.06227,0.8133549 q 0.01946,0.3152237 0.167341,0.5370474 0.147882,0.217933 0.478673,0.217933 0.323006,0 0.443648,-0.241283 0.120641,-0.2412818 0.120641,-0.5642888 0,-0.2918738 -0.05837,-0.5876392 -0.05448,-0.2957654 -0.09729,-0.478673 l 0.665472,-0.1790159 q 0.07005,0.2607406 0.1128579,0.556506 0.042808,0.2918738 0.042808,0.5837475 0,0.4202983 -0.1167495,0.7900054 -0.1167495,0.369706 -0.3852734,0.599314 -0.2646321,0.225716 -0.7238471,0.229607 -0.373598,0 -0.603206,-0.155666 -0.229607,-0.155666 -0.373598,-0.439756 -0.217933,0.315223 -0.486456,0.455323 Q -12.324928,10.958 -12.63626,10.958 Z"
         id="path14" />
    </g>
    <path
       id="path7"
       d="m 51.71225,-85.43893 h -103.4245 c -2.75117,0 -4.98138,-2.23021 -4.98138,-4.98139 v -18.38403 c 0,-2.75118 2.23021,-4.98139 4.98138,-4.98139 h 103.4245 c 2.75117,0 4.98138,2.23021 4.98138,4.98139 v 18.38403 c 0,2.75118 -2.23021,4.98139 -4.98138,4.98139 z"
       style="fill:#fbe4e2;fill-opacity:1;fill-rule:nonzero;stroke:#e74c3c;stroke-width:0.3985;stroke-linecap:butt;stroke-linejoin:miter;stroke-miterlimit:10;stroke-dasharray:none;stroke-opacity:1"
       transform="matrix(1.3333333,0,0,-1.3333333,266.392,39.082667)" />
    <g
       id="text7"
       transform="matrix(1.3333333,0,0,1.3333333,239.04,167.29333)"
       aria-label="ﭗﭼلﺎﮑﯾدار،ﺖﺴﯿﺋﻮﺋﺎﻣﺖﺴﯿﮑﺴﺗوﺮﺗ">
      <path
         style="font-size:8.9664px;font-family:Vazirmatn"
         d="M 37.514612,0.55164376 38.105659,1.1426906 37.514612,1.7337375 36.923565,1.1426906 Z m -1.497319,0 0.591047,0.59104684 -0.591047,0.5910469 -0.591047,-0.5910469 z m 0.74866,1.10766564 0.591046,0.5910469 -0.591046,0.5910469 -0.591047,-0.5910469 z m 2.569959,-4.2467813 0.731147,-0.087562 0.07443,1.0244812 q 0.02627,0.4159219 0.236419,0.6348282 0.214528,0.21890624 0.639206,0.21890624 h 0.105075 V 0 H 41.017112 Q 40.522384,0 40.202781,-0.18388125 39.887556,-0.37214063 39.681784,-0.78368439 39.3184,-0.36338438 38.749243,-0.17950313 38.184465,0 37.177496,0 h -0.731147 q -1.650553,0 -2.482396,-0.44656876 -0.827466,-0.44656875 -0.827466,-1.54547814 0,-0.3020906 0.06567,-0.5910469 0.07005,-0.2889562 0.179503,-0.5560219 l 0.678609,0.2539313 q -0.07005,0.1926375 -0.118209,0.4115437 -0.04378,0.2189063 -0.04378,0.4159219 0.0044,0.5122406 0.288956,0.7880625 0.284578,0.27144378 0.849356,0.37214066 0.564778,0.10069688 1.409756,0.10069688 h 0.731147 q 1.046372,0 1.619907,-0.21890624 0.577912,-0.2189063 0.577912,-0.7968188 0,-0.1795031 -0.01313,-0.385275 -0.0088,-0.2057719 -0.02627,-0.3896531 z M 30.360755,0.55164376 30.951802,1.1426906 30.360755,1.7337375 29.769708,1.1426906 Z m -1.497319,0 0.591047,0.59104684 -0.591047,0.5910469 -0.591047,-0.5910469 z m 0.74866,1.10766564 0.591046,0.5910469 -0.591046,0.5910469 -0.591047,-0.5910469 z m -3.003394,-2.45612816 h 0.744281 q 0.512241,0 0.941297,-0.0919406 0.429056,-0.0919406 0.836222,-0.25393121 0.411544,-0.1619907 0.858112,-0.3808969 0.450947,-0.2232844 1.006969,-0.4772157 -0.310847,-0.1138312 -0.643584,-0.245175 -0.332738,-0.1357218 -0.634828,-0.2539312 -0.297713,-0.1182094 -0.520997,-0.1926375 -0.223285,-0.078806 -0.315225,-0.078806 -0.267066,0 -0.472838,0.1576125 -0.201394,0.1532344 -0.37214,0.3721407 l -0.11821,0.1488562 -0.669853,-0.3283594 0.06567,-0.105075 q 0.288956,-0.4684593 0.669853,-0.7486594 0.385275,-0.2845781 0.901894,-0.2845781 0.214528,0 0.516619,0.1094531 0.306468,0.1094532 0.665475,0.2758219 0.359006,0.1619907 0.744281,0.3327375 0.385275,0.1663688 0.77055,0.2845782 0.385275,0.1138312 0.735525,0.1269656 v 0.7574156 q -0.2802,0.030647 -0.718013,0.2057719 -0.433434,0.1707469 -1.129556,0.53850938 -0.5604,0.29771251 -1.041994,0.50786251 Q 28.950999,-0.21452813 28.451892,-0.105075 27.957164,0 27.339849,0 h -0.731147 z m 1.825083,0.28895625 q 0,1.38348752 -0.591047,2.03145001 -0.591047,0.6479625 -1.724981,0.6479625 -0.814331,0 -1.326572,-0.2933343 Q 24.278945,1.5892594 24.038148,1.0682625 23.797351,0.54726563 23.797351,-0.1401 q 0,-0.46408126 0.09632,-0.9500531 0.09632,-0.4903501 0.262687,-0.9544313 l 0.696122,0.2802 q -0.126966,0.4027875 -0.214528,0.82746563 -0.08756,0.42467814 -0.08756,0.82308752 0,0.70925626 0.359007,1.10328752 0.363384,0.39403123 1.208362,0.39403123 0.783684,0 1.177716,-0.42905623 0.398409,-0.42905626 0.398409,-1.38348753 V -6.0286782 h 0.739903 z M 21.687094,-6.0286782 h 0.739903 v 4.1854875 q 0,0.6173157 0.227662,0.8318438 0.227663,0.21452814 0.687366,0.21452814 h 0.109453 V 0 H 23.342025 Q 22.505803,0 22.094259,-0.44219063 21.687094,-0.88875939 21.687094,-1.8475688 Z m -4.286183,1.7818969 q 0.499106,0.35025 0.954431,0.6961219 0.459703,0.3414937 0.827466,0.7442812 0.367762,0.3984094 0.58229,0.9281625 0.232041,0.5647782 0.49035,0.8230876 0.25831,0.25830934 0.726769,0.25830934 h 0.122587 V 0 h -0.122587 q -0.485972,0 -0.827466,-0.18825938 -0.337115,-0.18825938 -0.604181,-0.59980313 -0.175125,0.25830938 -0.429056,0.43343438 -0.249553,0.175125 -0.656719,0.26706563 Q 18.062008,0 17.418423,0 h -1.068262 v -0.79681876 h 1.063884 q 0.849356,0 1.217119,-0.14885626 0.367762,-0.15323438 0.367762,-0.60418128 0,-0.2889562 -0.205772,-0.5647781 -0.201393,-0.2758219 -0.525375,-0.5428875 -0.319603,-0.2714438 -0.687365,-0.5297532 -0.367763,-0.2626875 -0.691744,-0.5166187 -0.1401,-0.1138313 -0.214528,-0.2670656 -0.07443,-0.1532344 -0.07443,-0.3108469 0,-0.1795031 0.09632,-0.3371157 0.100696,-0.1576125 0.310846,-0.2407968 l 3.147872,-1.2784126 v 0.7749282 z m -3.85275,3.44996254 h 0.950053 q 0.437813,0 0.591047,-0.25393124 0.157613,-0.2539313 0.157613,-0.6435844 0,-0.2845781 -0.05254,-0.6085594 -0.05254,-0.3239812 -0.113831,-0.6523406 l 0.761794,-0.1926375 q 0.07443,0.35025 0.118209,0.6873656 0.04378,0.3371156 0.04378,0.6435844 0,0.525375 -0.144478,0.93691876 -0.144478,0.41154376 -0.472837,0.64796251 Q 15.058614,0 14.50697,0 h -0.958809 z m 1.580503,1.49294065 0.612938,0.60855941 -0.612938,0.6173156 -0.608559,-0.6173156 z m -1.453537,0 0.612937,0.60855941 -0.612937,0.6173156 -0.60856,-0.6173156 z m -2.893941,-1.4841844 q 1.6812,0 1.6812,-0.87124689 0,-0.4115438 -0.4203,-0.8712469 -0.4203,-0.4597031 -1.392244,-0.9894563 l 0.345872,-0.6917437 q 1.125178,0.5735344 1.668066,1.2127406 0.547265,0.6348282 0.547265,1.3265719 0,0.82308754 -0.569156,1.24338754 -0.564778,0.42030001 -1.795031,0.42030001 -0.586669,0 -1.0595065,-0.105075 v -0.79244064 q 0.5735345,0.11820938 0.9938345,0.11820938 z M 8.684064,-6.0286782 v 6.02430007 H 7.9441609 V -6.0286782 Z M 3.810265,2.3554313 3.5519556,1.6593094 Q 4.6202182,1.4272688 5.0580307,0.84497814 5.4958432,0.26706563 5.4958432,-0.52537501 q 0,-0.37214063 -0.083184,-0.77930629 -0.078806,-0.4115437 -0.2232844,-0.8362219 l 0.7267688,-0.245175 q 0.315225,0.8975157 0.315225,1.72935944 0,0.73114689 -0.2583094,1.35284065 Q 5.7191276,1.3221938 5.1806182,1.7556282 4.6464869,2.1934407 3.810265,2.3554313 Z"
         id="path15" />
      <path
         style="font-size:7.9701px;font-family:Vazirmatn"
         d="m 57.152246,8.8681839 q -0.272415,0.2490657 -0.431973,0.4942396 -0.155666,0.245174 -0.155666,0.5993142 0.276307,0 0.381382,0.1206413 0.108966,0.120641 0.108966,0.361923 0,0.237391 -0.120641,0.37749 -0.120641,0.136208 -0.361923,0.136208 -0.307441,0 -0.443649,-0.171232 -0.132316,-0.171233 -0.132316,-0.459215 0,-0.5292646 0.249066,-0.9378879 0.249066,-0.4125149 0.649906,-0.723847 z M 52.244878,7.1402912 52.78971,7.6812306 52.244878,8.2299533 51.703939,7.6812306 Z m -1.292027,0 0.544831,0.5409394 -0.544831,0.5487227 -0.54094,-0.5487227 z m 3.000462,1.5177436 0.649906,-0.077833 0.06616,0.9106462 q 0.02335,0.3697068 0.210149,0.564289 0.190691,0.194583 0.568181,0.194583 h 0.0934 V 10.958 h -0.0934 q -0.439757,0 -0.723847,-0.163449 -0.280199,-0.167341 -0.463107,-0.533156 -0.323007,0.373598 -0.828921,0.537048 Q 52.929809,10.958 52.034729,10.958 h -0.649905 q -1.467152,0 -2.206566,-0.396948 -0.735522,-0.396948 -0.735522,-1.3737527 0,-0.2685239 0.05838,-0.5253728 0.06227,-0.2568489 0.159557,-0.4942396 l 0.603206,0.2257157 q -0.06227,0.1712326 -0.105074,0.3658151 -0.03892,0.1945826 -0.03892,0.3697068 0.0039,0.4553231 0.256849,0.7004971 0.252957,0.2412824 0.75498,0.3307904 0.502023,0.08951 1.253112,0.08951 h 0.649905 q 0.930105,0 1.439911,-0.194583 0.513698,-0.1945822 0.513698,-0.7082801 0,-0.1595576 -0.01167,-0.3424652 -0.0078,-0.1829076 -0.02335,-0.3463569 z M 46.002663,10.958 q -0.373599,0 -0.603206,-0.155666 -0.229607,-0.155666 -0.373598,-0.439756 -0.217933,0.315223 -0.486457,0.455323 Q 44.27477,10.958 43.963438,10.958 q -0.44754,0 -0.692714,-0.151774 Q 43.029442,10.65056 42.885451,10.362578 42.702543,10.65056 42.418453,10.806226 42.134362,10.958 41.608989,10.958 h -0.358031 v -0.70828 h 0.365815 q 0.498131,0 0.727738,-0.182908 0.229608,-0.186799 0.229608,-0.6771469 0,-0.1011829 -0.01168,-0.2373907 -0.0078,-0.1400994 -0.02724,-0.389165 l 0.649906,-0.081725 0.06227,0.8133549 q 0.02335,0.3268987 0.198474,0.5409394 0.179016,0.214041 0.525373,0.214041 0.412515,0 0.560398,-0.221824 0.147883,-0.2218243 0.147883,-0.6382309 0,-0.1011829 -0.01167,-0.2412823 -0.0078,-0.1400994 -0.02724,-0.3852734 l 0.649906,-0.081725 0.06227,0.8133549 q 0.01946,0.3152237 0.167341,0.5370474 0.147883,0.217933 0.478673,0.217933 0.575964,0 0.575964,-0.8600549 0,-0.1400994 -0.01167,-0.2918738 -0.0078,-0.1517744 -0.02724,-0.40084 l 0.649905,-0.077833 0.06227,0.8756213 q 0.0467,0.7549804 0.770547,0.7549804 h 0.116749 V 10.958 h -0.108966 q -0.408623,0 -0.681039,-0.147883 -0.272415,-0.151774 -0.373598,-0.451431 -0.16345,0.287982 -0.37749,0.443648 Q 46.384044,10.958 46.002663,10.958 Z m -7.65098,-0.70828 h 0.58764 q 0.494239,0 0.704388,-0.221824 0.214041,-0.2218243 0.214041,-0.6810391 0,-0.1867992 -0.01167,-0.3541401 -0.0078,-0.167341 -0.02335,-0.334682 l 0.649906,-0.077833 0.06227,0.9106462 q 0.0467,0.758872 0.790005,0.758872 h 0.08173 V 10.958 h -0.08951 q -0.431973,0 -0.692714,-0.155666 -0.256849,-0.155666 -0.416406,-0.439756 -0.210149,0.30744 -0.552615,0.451431 Q 39.312921,10.958 38.939323,10.958 h -0.58764 z m 1.404886,1.327053 0.544831,0.540939 -0.544831,0.548723 -0.540939,-0.548723 z m -1.292028,0 0.544831,0.540939 -0.544831,0.548723 -0.540939,-0.548723 z M 36.857288,7.2803906 q -0.132316,-0.1011829 -0.225716,-0.233499 -0.0934,-0.1323161 -0.0934,-0.3619235 0,-0.3346819 0.229608,-0.5487227 0.233499,-0.2140408 0.529264,-0.2140408 0.256849,0 0.47089,0.1245328 l 0.0039,0.3852734 q -0.120642,-0.062266 -0.225716,-0.077833 -0.105075,-0.015567 -0.194583,-0.015567 -0.167341,0 -0.311332,0.1011829 -0.140099,0.1011829 -0.140099,0.2957654 0.0039,0.1206412 0.120641,0.2373907 0.120641,0.1128579 0.338574,0.081725 0.0078,0 0.01557,-0.00389 0.01168,-0.00389 0.02335,-0.00778 l 0.513698,-0.1867992 0.05448,0.3852734 -1.482719,0.5876392 -0.05448,-0.3813817 z M 35.907725,10.24972 h 0.805572 q 0.389165,0 0.525373,-0.225716 0.140099,-0.2257156 0.140099,-0.5720725 0,-0.2529573 -0.0467,-0.5409394 -0.0467,-0.2879821 -0.101183,-0.5798559 l 0.677147,-0.1712326 q 0.06616,0.311332 0.105075,0.6109891 0.03892,0.2996571 0.03892,0.5720726 0,0.466998 -0.128424,0.8328127 -0.128424,0.365816 -0.420298,0.575965 Q 37.211428,10.958 36.72108,10.958 H 35.907725 Z M 34.144809,8.1132038 q 0.607098,0 1.023504,0.544831 0.416407,0.5409394 0.431973,1.5916852 h 0.47089 V 10.958 H 35.53802 q -0.08562,0.44754 -0.342465,0.863947 -0.252958,0.420298 -0.75498,0.739413 -0.502023,0.323007 -1.330945,0.482565 L 32.880023,12.425152 Q 34.64294,12.086579 34.923139,10.958 h -0.614881 q -1.474935,0 -1.474935,-1.1947365 0,-0.3813817 0.151774,-0.7627634 0.155666,-0.3813818 0.44754,-0.6343391 0.295766,-0.2529572 0.712172,-0.2529572 z m 0.124533,2.1365162 h 0.688822 q -0.0467,-0.7510887 -0.249066,-1.0935539 -0.198474,-0.3424653 -0.575964,-0.3424653 -0.249065,0 -0.393057,0.1595577 -0.140099,0.1595577 -0.198474,0.3774901 -0.05448,0.2140408 -0.05448,0.389165 0,0.2724154 0.182908,0.3930564 0.186799,0.11675 0.599314,0.11675 z M 30.868038,7.2803906 q -0.132316,-0.1011829 -0.225716,-0.233499 -0.0934,-0.1323161 -0.0934,-0.3619235 0,-0.3346819 0.229608,-0.5487227 0.233499,-0.2140408 0.529264,-0.2140408 0.256849,0 0.47089,0.1245328 l 0.0039,0.3852734 q -0.120641,-0.062266 -0.225715,-0.077833 -0.105075,-0.015567 -0.194583,-0.015567 -0.167341,0 -0.311332,0.1011829 -0.140099,0.1011829 -0.140099,0.2957654 0.0039,0.1206412 0.120641,0.2373907 0.120641,0.1128579 0.338574,0.081725 0.0078,0 0.01557,-0.00389 0.01168,-0.00389 0.02335,-0.00778 l 0.513698,-0.1867992 0.05448,0.3852734 -1.482719,0.5876392 -0.05448,-0.3813817 z M 29.918475,10.24972 h 0.805572 q 0.389165,0 0.525372,-0.225716 0.1401,-0.2257156 0.1401,-0.5720725 0,-0.2529573 -0.0467,-0.5409394 -0.0467,-0.2879821 -0.101183,-0.5798559 l 0.677147,-0.1712326 q 0.06616,0.311332 0.105075,0.6109891 0.03892,0.2996571 0.03892,0.5720726 0,0.466998 -0.128424,0.8328127 -0.128425,0.365816 -0.420298,0.575965 Q 31.222178,10.958 30.73183,10.958 H 29.918475 Z M 28.513588,5.5991976 h 0.657689 v 3.7204178 q 0,0.5487227 0.202365,0.7394136 0.202366,0.190691 0.61099,0.190691 h 0.09729 V 10.958 h -0.09729 q -0.743306,0 -1.109121,-0.393057 -0.361923,-0.396948 -0.361923,-1.2492193 z m -2.206563,5.4483104 q -0.389165,0 -0.719956,-0.167341 Q 25.260171,10.708935 24.90603,10.366469 24.653073,10.65056 24.419574,10.806226 24.186075,10.958 23.761885,10.958 h -0.171232 v -0.70828 h 0.151774 q 0.260741,0 0.439756,-0.147883 0.179016,-0.1517743 0.319116,-0.3891649 0.140099,-0.2373907 0.276307,-0.5020229 0.140099,-0.2685239 0.311332,-0.5059146 0.171233,-0.2373906 0.412515,-0.3852734 0.245174,-0.1517743 0.603206,-0.1517743 0.431973,0 0.751088,0.2101491 0.323007,0.2062575 0.498132,0.556506 0.179015,0.3502485 0.179015,0.7822217 0,0.6343393 -0.323007,0.9845873 -0.319115,0.346357 -0.902862,0.346357 z m -0.1868,-2.190999 q -0.194582,0 -0.35414,0.1323161 -0.159557,0.1284245 -0.287982,0.3346819 -0.128424,0.2062575 -0.229607,0.4280816 0.233499,0.2451739 0.482564,0.4008404 0.319116,0.206257 0.568181,0.206257 0.575965,0 0.575965,-0.5798559 0,-0.4047316 -0.202366,-0.6615805 Q 26.474366,8.856509 26.120225,8.856509 Z M 22.586076,7.1402912 23.130907,7.6812306 22.586076,8.2299533 22.045137,7.6812306 Z m -1.292027,0 0.544831,0.5409394 -0.544831,0.5487227 -0.54094,-0.5487227 z m 3.000462,1.5177436 0.649906,-0.077833 0.06616,0.9106462 q 0.02335,0.3697068 0.210149,0.564289 0.190691,0.194583 0.568181,0.194583 h 0.0934 V 10.958 h -0.0934 q -0.439757,0 -0.723847,-0.163449 Q 24.784859,10.62721 24.601951,10.261395 24.278944,10.634993 23.77303,10.798443 23.271007,10.958 22.375927,10.958 h -0.649905 q -1.467152,0 -2.206566,-0.396948 -0.735522,-0.396948 -0.735522,-1.3737527 0,-0.2685239 0.05838,-0.5253728 0.06227,-0.2568489 0.159557,-0.4942396 l 0.603206,0.2257157 q -0.06227,0.1712326 -0.105074,0.3658151 -0.03892,0.1945826 -0.03892,0.3697068 0.0039,0.4553231 0.256849,0.7004971 0.252957,0.2412824 0.75498,0.3307904 0.502023,0.08951 1.253112,0.08951 h 0.649905 q 0.930105,0 1.439911,-0.194583 0.513698,-0.1945822 0.513698,-0.7082801 0,-0.1595576 -0.01168,-0.3424652 -0.0078,-0.1829076 -0.02335,-0.3463569 z M 16.343868,10.958 q -0.373598,0 -0.603205,-0.155666 -0.229608,-0.155666 -0.373599,-0.439756 -0.217932,0.315223 -0.486456,0.455323 -0.264632,0.140099 -0.575964,0.140099 -0.44754,0 -0.692714,-0.151774 Q 13.370647,10.65056 13.226656,10.362578 13.043749,10.65056 12.759658,10.806226 12.475568,10.958 11.950195,10.958 h -0.358032 v -0.70828 h 0.365815 q 0.498132,0 0.727739,-0.182908 0.229607,-0.186799 0.229607,-0.6771469 0,-0.1011829 -0.01168,-0.2373907 -0.0078,-0.1400994 -0.02724,-0.389165 l 0.649905,-0.081725 0.06227,0.8133549 q 0.02335,0.3268987 0.198474,0.5409394 0.179016,0.214041 0.525373,0.214041 0.412515,0 0.560398,-0.221824 0.147882,-0.2218243 0.147882,-0.6382309 0,-0.1011829 -0.01168,-0.2412823 -0.0078,-0.1400994 -0.02724,-0.3852734 l 0.649905,-0.081725 0.06227,0.8133549 q 0.01946,0.3152237 0.167341,0.5370474 0.147882,0.217933 0.478673,0.217933 0.575964,0 0.575964,-0.8600549 0,-0.1400994 -0.01168,-0.2918738 -0.0078,-0.1517744 -0.02724,-0.40084 l 0.649906,-0.077833 0.06227,0.8756213 q 0.0467,0.7549804 0.770547,0.7549804 h 0.11675 V 10.958 h -0.108966 q -0.408624,0 -0.681039,-0.147883 -0.272416,-0.151774 -0.373599,-0.451431 -0.163449,0.287982 -0.37749,0.443648 Q 16.72525,10.958 16.343868,10.958 Z M 8.6928852,10.24972 h 0.5876392 q 0.4942396,0 0.7043887,-0.221824 0.2140409,-0.2218243 0.2140409,-0.6810391 0,-0.1867992 -0.01168,-0.3541401 -0.0078,-0.167341 -0.02335,-0.334682 l 0.649906,-0.077833 0.06227,0.9106462 q 0.0467,0.758872 0.790005,0.758872 h 0.08173 V 10.958 h -0.08951 q -0.431973,0 -0.692714,-0.155666 -0.256849,-0.155666 -0.416407,-0.439756 -0.210149,0.30744 -0.5526139,0.451431 Q 9.6541228,10.958 9.2805244,10.958 H 8.6928852 Z m 1.4048858,1.327053 0.544831,0.540939 -0.544831,0.548723 -0.5409394,-0.548723 z m -1.2920279,0 0.544831,0.540939 -0.544831,0.548723 -0.5409394,-0.548723 z M 5.5639992,7.1830993 Q 6.0076474,7.4944314 6.412379,7.8018717 6.8210023,8.1054205 7.1479009,8.4634523 7.4747996,8.8175925 7.6654904,9.2884822 7.8717479,9.7905051 8.1013553,10.020112 8.3309626,10.24972 8.7473692,10.24972 H 8.8563354 V 10.958 H 8.7473692 Q 8.315396,10.958 8.0118473,10.790659 7.7121902,10.623318 7.4747996,10.257503 7.3191335,10.48711 7.0934178,10.642777 6.8715937,10.798443 6.5096703,10.880167 6.1516384,10.958 5.5795658,10.958 H 4.6300031 v -0.70828 h 0.9456711 q 0.7549801,0 1.0818788,-0.132316 0.3268986,-0.1362081 0.3268986,-0.537048 0,-0.256849 -0.1829076,-0.5020229 Q 6.6225281,8.8331591 6.334546,8.5957684 6.0504555,8.3544861 5.7235569,8.1248787 5.3966583,7.8913797 5.1086761,7.665664 4.9841433,7.5644811 4.9179853,7.4282733 4.8518272,7.2920655 4.8518272,7.1519661 q 0,-0.1595576 0.085616,-0.299657 0.089508,-0.1400995 0.2763072,-0.2140408 L 8.0118473,5.5019064 V 6.1907285 Z M 2.6530448,10.958 Q 2.2794463,10.958 2.049839,10.802334 1.8202316,10.646668 1.6762405,10.362578 1.4583081,10.677801 1.1897842,10.817901 0.92515202,10.958 0.61382,10.958 0.16628021,10.958 -0.07889377,10.806226 -0.32017609,10.65056 -0.46416715,10.362578 -0.64707472,10.65056 -0.93116519,10.806226 -1.2152557,10.958 -1.7406285,10.958 h -0.3580318 v -0.70828 h 0.3658151 q 0.4981313,0 0.7277386,-0.182908 0.22960742,-0.186799 0.22960742,-0.6771469 0,-0.1011829 -0.011675,-0.2373907 -0.007783,-0.1400994 -0.0272415,-0.389165 l 0.64990561,-0.081725 0.0622664,0.8133549 q 0.0233499,0.3268987 0.19847417,0.5409394 0.17901592,0.214041 0.5253728,0.214041 0.4125149,0 0.5603976,-0.221824 0.1478828,-0.2218243 0.1478828,-0.6382309 0,-0.1011829 -0.011675,-0.2412823 -0.00778,-0.1400994 -0.027241,-0.3852734 l 0.6499056,-0.081725 0.062266,0.8133549 q 0.019458,0.3152237 0.1673409,0.5370474 0.1478828,0.217933 0.478673,0.217933 0.5759643,0 0.5759643,-0.8600549 0,-0.1400994 -0.011675,-0.2918738 -0.00778,-0.1517744 -0.027242,-0.40084 l 0.6499056,-0.077833 0.062266,0.8756213 q 0.0467,0.7549804 0.7705468,0.7549804 H 4.7856692 V 10.958 H 4.676703 q -0.4086233,0 -0.6810388,-0.147883 Q 3.7232486,10.658343 3.6220657,10.358686 3.4586164,10.646668 3.2445756,10.802334 3.0344265,10.958 2.6530448,10.958 Z M -2.8302915,6.3892027 -2.2854604,6.9301421 -2.8302915,7.4788648 -3.3712309,6.9301421 Z m -1.2920279,0 0.5448311,0.5409394 -0.5448311,0.5487227 -0.5409394,-0.5487227 z M -4.5426176,10.24972 h 0.7977883 q 0.389165,0 0.5253728,-0.225716 0.1400994,-0.2257156 0.1400994,-0.5720725 0,-0.2529573 -0.0467,-0.5409394 -0.0467,-0.2879821 -0.1011829,-0.5798559 l 0.6771472,-0.1712326 q 0.066158,0.311332 0.1050745,0.6109891 0.038917,0.2996571 0.038917,0.5720726 0,0.466998 -0.1284244,0.8328127 -0.1284245,0.365816 -0.4202983,0.575965 Q -3.2466981,10.958 -3.737046,10.958 h -0.8055716 z m -0.3074404,0.04281 q 0,2.272724 -2.4945479,2.751397 l -0.2296074,-0.618773 q 0.8950796,-0.171232 1.4282357,-0.572072 0.5331561,-0.396949 0.6304473,-1.000154 -0.1478827,0.0467 -0.3424652,0.08172 -0.1945825,0.03503 -0.3424652,0.03503 -1.4204524,0 -1.4204524,-1.2064115 0,-0.2879821 0.085616,-0.5759642 0.089508,-0.2918738 0.2568489,-0.5331561 0.1712326,-0.245174 0.4164066,-0.3930567 0.245174,-0.1478827 0.556506,-0.1478827 0.3697068,0 0.6421223,0.1829075 0.2763072,0.1829076 0.4553231,0.4942396 0.1790159,0.3113321 0.2685239,0.7004971 0.089508,0.389165 0.089508,0.80168 z m -1.3309445,-0.02724 q 0.3424653,0 0.6810388,-0.101182 -0.038917,-0.6537977 -0.2412823,-1.0001546 -0.2023658,-0.3502486 -0.5720726,-0.3502486 -0.2568489,0 -0.40084,0.1595577 -0.1400994,0.1595577 -0.1984741,0.3774901 -0.054483,0.2140408 -0.054483,0.389165 0,0.2840904 0.1945825,0.4047314 0.1945825,0.120641 0.5915308,0.120641 z M -8.1450087,10.958 q -0.2685239,0 -0.4514314,-0.07005 -0.1790159,-0.07394 -0.2801989,-0.155666 -0.058375,0.509807 -0.2840904,0.984588 -0.2218241,0.478673 -0.6693639,0.832813 -0.4475397,0.35414 -1.1830617,0.498131 l -0.229607,-0.61488 q 0.949562,-0.206258 1.3387274,-0.723847 0.389165,-0.513698 0.389165,-1.218087 0,-0.33079 -0.073941,-0.6927136 -0.07005,-0.3658152 -0.1984741,-0.7433052 l 0.6460139,-0.2179325 0.2101491,0.813355 q 0.085616,0.3268986 0.2724156,0.4631063 0.1867992,0.136208 0.4708897,0.136208 h 0.1478827 V 10.958 Z m -3.3156863,-4.5687973 0.544831,0.5409394 -0.544831,0.5487227 -0.54094,-0.5487227 z m -1.292028,0 0.544831,0.5409394 -0.544831,0.5487227 -0.54094,-0.5487227 z m -0.420299,3.8605173 h 0.797789 q 0.389165,0 0.525372,-0.225716 0.1401,-0.2257156 0.1401,-0.5720725 0,-0.2529573 -0.0467,-0.5409394 -0.0467,-0.2879821 -0.101183,-0.5798559 l 0.677147,-0.1712326 q 0.06616,0.311332 0.105075,0.6109891 0.03892,0.2996571 0.03892,0.5720726 0,0.466998 -0.128424,0.8328127 -0.128425,0.365816 -0.420298,0.575965 Q -11.877102,10.958 -12.36745,10.958 h -0.805572 z"
         id="path16" />
    </g>
  </g>
</svg>
