<?xml version="1.0" encoding="UTF-8" standalone="no"?>


<svg class="tikz-diagram" id="iran-action-ch8-tikz-6-8ca5c0e8146c"
   version="1.1"
   id="svg1"
   width="571.64001"
   height="99.199997"
   viewBox="0 0 571.64001 99.199997"
   sodipodi:docname="iran-action-ch8-tikz-6-8ca5c0e8146c.pdf"
   xmlns:inkscape="http://www.inkscape.org/namespaces/inkscape"
   xmlns:sodipodi="http://sodipodi.sourceforge.net/DTD/sodipodi-0.dtd"
   xmlns="http://www.w3.org/2000/svg"
   xmlns:svg="http://www.w3.org/2000/svg">
  <defs
     id="defs1" />
  <sodipodi:namedview
     id="namedview1"
     pagecolor="#ffffff"
     bordercolor="#000000"
     borderopacity="0.25"
     inkscape:showpageshadow="2"
     inkscape:pageopacity="0.0"
     inkscape:pagecheckerboard="0"
     inkscape:deskcolor="#d1d1d1">
    <inkscape:page
       x="0"
       y="0"
       inkscape:label="1"
       id="page1"
       width="571.64001"
       height="99.199997"
       margin="0"
       bleed="0" />
  </sodipodi:namedview>
  <g
     id="g1"
     inkscape:groupmode="layer"
     inkscape:label="1">
    <path
       id="path1"
       d="m 188.46497,21.2601 h -376.92994 c -5.50236,0 -9.96276,-4.46042 -9.96276,-9.96277 v -22.59466 c 0,-5.50235 4.4604,-9.96277 9.96276,-9.96277 h 376.92994 c 5.50236,0 9.96276,4.46042 9.96276,9.96277 v 22.59466 c 0,5.50235 -4.4604,9.96277 -9.96276,9.96277 z"
       style="fill:#fbe4e2;fill-opacity:1;fill-rule:nonzero;stroke:#e74c3c;stroke-width:1.99255;stroke-linecap:butt;stroke-linejoin:miter;stroke-miterlimit:10;stroke-dasharray:none;stroke-opacity:1"
       transform="matrix(1.3333333,0,0,-1.3333333,285.82,49.6)" />
    <path
       style="font-weight:800;font-size:11.9552px;font-family:Vazirmatn"
       d="M 31.574478,0 H 30.09759 Q 29.09354,0 28.241265,-0.1225875 27.38899,-0.2510125 26.75854,-0.56623751 26.133928,-0.88146251 25.783678,-1.4477 q -0.344413,-0.572075 -0.344413,-1.459375 0,-0.5253751 0.11675,-1.0274001 0.11675,-0.502025 0.291875,-0.9281625 l 1.406838,0.5312125 q -0.09924,0.2743625 -0.204313,0.642125 -0.09924,0.361925 -0.09924,0.6888251 0,0.58375 0.431975,0.86395 0.431975,0.2802 1.14415,0.3677625 0.718012,0.081725 1.570287,0.081725 h 1.47105 q 0.934,0 1.401,-0.128425 0.467001,-0.1342625 0.467001,-0.5428875 0,-0.1926375 -0.286038,-0.44365 -0.286038,-0.25685 -0.718013,-0.5370501 -0.426137,-0.2860375 -0.875625,-0.5604 -0.44365,-0.2802 -0.77055,-0.5137 -0.245175,-0.1809625 -0.3736,-0.4728375 -0.128425,-0.2977125 -0.128425,-0.6071 0,-0.338575 0.151775,-0.6071 0.157613,-0.2743625 0.478675,-0.4027875 l 4.506551,-1.8388125 v 1.669525 l -3.152251,1.2784125 q 0.776388,0.467 1.278413,0.8347625 0.502025,0.3677625 0.81725,0.7647125 0.321063,0.3911125 0.548725,0.9456751 0.175125,0.4203 0.332738,0.67715 0.16345,0.25685 0.408625,0.3736 0.245175,0.1109125 0.671312,0.1109125 h 0.157613 V 0 h -0.157613 q -0.706337,0 -1.185012,-0.2043125 -0.472838,-0.21015001 -0.805575,-0.69466251 -0.30355,0.338575 -0.665475,0.53705 Q 33.314053,-0.1692875 32.812028,-0.081725 32.31584,0 31.574478,0 Z m -9.701925,0 q -0.519538,0 -0.881463,-0.2159875 -0.361925,-0.21598751 -0.6071,-0.53121251 -0.297712,0.315225 -0.67715,0.53121251 Q 19.33324,0 18.81954,0 q -0.589587,0 -0.992375,-0.198475 -0.39695,-0.20431251 -0.6538,-0.53705001 -0.321062,0.338575 -0.764712,0.53705001 Q 15.965003,0 15.287853,0 h -0.53705 v -1.6870375 h 0.548725 q 0.642125,0 0.91065,-0.1576125 0.274362,-0.1576125 0.274362,-0.758875 0,-0.0934 -0.01168,-0.3093875 -0.01168,-0.2159876 -0.02919,-0.4728376 -0.01751,-0.2626875 -0.03502,-0.4728375 l 1.465212,-0.1809625 0.122588,1.5761251 q 0.05254,0.7763875 0.834762,0.7763875 0.484513,0 0.647963,-0.198475 0.16345,-0.2043125 0.16345,-0.7180125 0,-0.081725 -0.01167,-0.2977125 -0.01168,-0.2218251 -0.02919,-0.4845126 -0.01751,-0.2626875 -0.03503,-0.4728375 l 1.465213,-0.1809625 0.122587,1.5761251 q 0.02335,0.361925 0.180963,0.572075 0.157612,0.2043125 0.525375,0.2043125 0.361925,0 0.49035,-0.2393375 0.134262,-0.2393375 0.134262,-0.67715 0,-0.21015 -0.02335,-0.6071001 -0.02335,-0.39695 -0.05254,-0.758875 l 1.465212,-0.1809625 0.122588,1.6870376 q 0.02919,0.431975 0.239337,0.6071 0.215988,0.1692875 0.665475,0.1692875 H 25.07734 V 0 H 24.91389 Q 24.37684,0 23.962378,-0.1868 23.553753,-0.37360001 23.314415,-0.69466251 23.075078,-0.39695001 22.724828,-0.198475 22.374578,0 21.872553,0 Z m -9.748625,0 h -1.255062 v -1.6870375 h 1.2609 q 0.44365,0 0.6071,-0.2743625 0.169287,-0.2802 0.169287,-0.7063375 0,-0.3969501 -0.09924,-0.8639501 -0.0934,-0.4728375 -0.192638,-0.922325 l 1.529425,-0.39695 q 0.110913,0.548725 0.175125,1.0916125 0.07005,0.53705 0.07005,1.0274001 0,0.7763875 -0.21015,1.3951625 -0.204312,0.61877499 -0.7005,0.98069999 Q 12.982041,0 12.123928,0 Z M 11.020641,0.74720001 12.013016,1.7279 12.993716,0.74720001 13.991928,1.739575 12.993716,2.743625 12.013016,1.75125 11.020641,2.743625 10.028266,1.739575 Z M 6.8876896,3.1872751 6.2922646,1.622825 Q 7.1387021,1.4418625 7.7458021,1.1383125 8.3587396,0.84060001 8.6914771,0.33857501 9.0242146,-0.16345 9.0242146,-0.95735002 9.0242146,-1.4885625 8.8549271,-2.1482 8.6856396,-2.813675 8.4930021,-3.3857501 l 1.5761249,-0.5078625 q 0.227663,0.6362875 0.344413,1.3718126 0.122587,0.735525 0.122587,1.412675 0,1.225875 -0.455325,2.10150002 Q 9.6313146,1.8738375 8.8082271,2.416725 7.9909771,2.96545 6.8876896,3.1872751 Z M 6.6769791,-4.4715251 q 0,-0.44365 0.315225,-0.735525 0.315225,-0.291875 0.758875,-0.291875 0.4494875,0 0.758875,0.291875 0.315225,0.291875 0.315225,0.735525 0,0.4378125 -0.315225,0.7296875 -0.315225,0.291875 -0.758875,0.291875 -0.455325,0 -0.7647125,-0.2860375 -0.3093875,-0.291875 -0.3093875,-0.735525 z m 0,3.4382876 q 0,-0.4378125 0.315225,-0.7296875 0.315225,-0.2977125 0.758875,-0.2977125 0.4494875,0 0.758875,0.2977125 0.315225,0.291875 0.315225,0.7296875 0,0.44364999 -0.315225,0.735525 -0.315225,0.291875 -0.758875,0.291875 -0.455325,0 -0.7647125,-0.291875 -0.3093875,-0.29187501 -0.3093875,-0.735525 z m 36.3384389,0.37943749 q -0.198475,0.2860375 -0.53705,0.47283751 Q 42.14563,0 41.731167,0 40.756305,0 40.27763,-0.61877501 39.798955,-1.23755 39.798955,-2.2591125 q 0,-0.7005 0.30355,-1.4185126 0.30355,-0.72385 0.77055,-1.42435 0.467,-0.7063375 0.95735,-1.342625 l -0.35025,-0.3444125 0.963188,-1.272575 q 1.360137,1.1733375 2.189062,2.229925 0.828925,1.05075 1.202525,1.949725 0.3736,0.8989751 0.3736,1.6228251 0,1.0098875 -0.467,1.63449999 Q 45.27453,0 44.299668,0 43.908555,0 43.564143,-0.1868 43.21973,-0.37360001 43.015418,-0.65380001 Z M 41.35173,-2.253275 q 0,0.2510125 0.151775,0.408625 0.151775,0.1576125 0.321062,0.1576125 0.245176,0 0.367763,-0.1868 0.128425,-0.1868 0.1868,-0.4611625 0.06421,-0.2802 0.110913,-0.548725 h 1.021562 q 0.05254,0.2802 0.110913,0.5604 0.05837,0.2743625 0.1868,0.455325 0.134262,0.1809625 0.391112,0.1809625 0.1868,0 0.315225,-0.1459375 0.134263,-0.1459375 0.134263,-0.4203 0,-0.5078625 -0.2335,-1.0332376 -0.227663,-0.525375 -0.6071,-1.0332375 -0.379438,-0.5137 -0.823088,-0.9865375 -0.437812,0.5545625 -0.811412,1.085775 -0.367763,0.5312125 -0.595426,1.0274 -0.227662,0.4961876 -0.227662,0.9398376 z m 127.39405,-4.7342126 v -0.8873 l 4.74588,-1.9322126 v 0.8873001 z M 169.72064,0 h -1.47689 q -1.00405,0 -1.85632,-0.1225875 -0.85228,-0.128425 -1.48273,-0.44365001 -0.62461,-0.315225 -0.97486,-0.88146249 -0.34441,-0.572075 -0.34441,-1.459375 0,-0.5253751 0.11675,-1.0274001 0.11675,-0.502025 0.29187,-0.9281625 l 1.40684,0.5312125 q -0.0992,0.2743625 -0.20431,0.642125 -0.0992,0.361925 -0.0992,0.6888251 0,0.58375 0.43197,0.86395 0.43198,0.2802 1.14415,0.3677625 0.71802,0.081725 1.57029,0.081725 h 1.47105 q 0.934,0 1.401,-0.128425 0.467,-0.1342625 0.467,-0.5428875 0,-0.1926375 -0.28604,-0.44365 -0.28603,-0.25685 -0.71801,-0.5370501 -0.42614,-0.2860375 -0.87562,-0.5604 -0.44365,-0.2802 -0.77055,-0.5137 -0.24518,-0.1809625 -0.3736,-0.4728375 -0.12843,-0.2977125 -0.12843,-0.6071 0,-0.338575 0.15178,-0.6071 0.15761,-0.2743625 0.47867,-0.4027875 l 4.50655,-1.8388125 v 1.669525 l -3.15225,1.2784125 q 0.77639,0.467 1.27841,0.8347625 0.50203,0.3677625 0.81725,0.7647125 0.32107,0.3911125 0.54873,0.9456751 0.17512,0.4203 0.33274,0.67715 0.16345,0.25685 0.40862,0.3736 0.24518,0.1109125 0.67131,0.1109125 h 0.15762 V 0 h -0.15762 q -0.70633,0 -1.18501,-0.2043125 -0.47284,-0.21015001 -0.80557,-0.69466251 -0.30355,0.338575 -0.66548,0.53705 -0.35609,0.19263751 -0.85811,0.28020001 Q 170.462,0 169.72064,0 Z m -9.12985,-4.0103626 1.45937,-0.1809625 0.11675,1.6695251 q 0.0292,0.44365 0.24518,0.642125 0.21598,0.1926375 0.68882,0.1926375 h 0.12259 V 0 h -0.13426 q -0.58375,0 -1.00405,-0.21015 -0.41447,-0.21015001 -0.68299,-0.54872501 -0.35609,0.3560875 -0.84644,0.56040001 Q 160.07125,0 159.52252,0 h -0.5604 v -1.6870375 h 0.5604 q 0.64213,0 0.88147,-0.2159875 0.24517,-0.221825 0.24517,-0.805575 0,-0.3444125 -0.0175,-0.6654751 -0.0175,-0.3269 -0.0409,-0.6362875 z m 0.32106,-3.093875 1.05075,1.05075 -1.05075,1.0449125 -1.04491,-1.0449125 z m -6.10017,7.79306261 1.05075,1.05074999 -1.05075,1.0449125 -1.04491,-1.0449125 z m -4.00453,-2.37586251 h 0.99238 q 0.75304,0 1.401,-0.1401 0.64796,-0.1459375 1.33095,-0.431975 0.68882,-0.2860375 1.56445,-0.712175 -0.89898,-0.3269001 -1.45354,-0.5487251 -0.55456,-0.2276625 -0.75887,-0.2276625 -0.31523,0 -0.57208,0.198475 -0.25101,0.1926375 -0.41446,0.408625 l -0.30939,0.3911126 -1.3076,-0.6421251 0.26269,-0.4203 q 0.41446,-0.67715 0.99237,-1.1208 0.57792,-0.4494875 1.3543,-0.4494875 0.3269,0 0.75888,0.151775 0.43781,0.151775 0.934,0.3794375 0.50202,0.221825 1.03324,0.4494875 0.53705,0.221825 1.05658,0.3794375 0.52538,0.1576125 1.00405,0.16345 V -2.31165 q -0.44365,0.058375 -0.82308,0.198475 -0.37944,0.1342625 -0.78807,0.3444125 -0.40862,0.21015 -0.95151,0.502025 -0.7472,0.39694999 -1.41267,0.68298749 -0.65964,0.28603751 -1.36014,0.43781251 Q 152.64597,0 151.78202,0 h -0.97487 z m -0.66021,4.6875125 q -1.28425,0 -2.09566,-0.4961875 -0.80558,-0.4961875 -1.19085,-1.33095 -0.37944,-0.82892499 -0.37944,-1.84465001 0,-0.57791249 0.11091,-1.20836249 0.11675,-0.63045 0.36193,-1.2842501 l 1.41851,0.5137001 q -0.17513,0.5078625 -0.2802,1.0098875 -0.10508,0.502025 -0.10508,0.94567499 0,0.56623751 0.19848,1.02156252 0.20431,0.4611625 0.67715,0.72968749 0.47284,0.2743625 1.28425,0.2743625 0.92816,0 1.48856,-0.1926375 0.5604,-0.19263748 0.81141,-0.43197499 0.25685,-0.2393375 0.25685,-0.3736 0,-0.20431251 -0.19847,-0.26852501 Q 152.31265,0 151.88651,0 h -0.92232 q -0.23934,0 -0.30355,-0.1225875 -0.0642,-0.1225875 -0.12259,-0.32690001 L 150.28704,-1.3543 q -0.0409,-0.1459375 -0.0292,-0.2393375 0.0175,-0.0934 0.22766,-0.0934 h 3.52585 V 0 h 0.0467 q 0.0525,0.2043125 0.0525,0.32690001 0,0.71217499 -0.47284,1.31927499 -0.467,0.6129375 -1.3543,0.9807 -0.88146,0.3736 -2.13652,0.3736 z m -6.68978,-5.7908 v -5.3938501 h 1.57029 v 5.3938501 q 0,0.548725 0.17512,0.828925 0.18097,0.2743625 0.71218,0.2743625 h 0.1868 V 0 h -0.17513 q -0.61877,0 -1.00988,-0.1868 -0.38528,-0.19263751 -0.67715,-0.56623751 Q 143.93,-0.39695001 143.51554,-0.198475 143.10691,0 142.42392,0 h -0.35608 v -1.6870375 h 0.31522 q 0.58959,0 0.82893,-0.2626875 0.24517,-0.268525 0.24517,-0.8406 z m -5.90753,-5.3705001 1.05075,1.05075 -1.05075,1.0449125 -1.04491,-1.0449125 z m -3.63676,6.4737876 h 0.99237 q 0.75304,0 1.401,-0.1401 0.64796,-0.1459375 1.33095,-0.431975 0.68883,-0.2860375 1.56445,-0.712175 -0.89897,-0.3269001 -1.45354,-0.5487251 -0.55456,-0.2276625 -0.75887,-0.2276625 -0.31523,0 -0.57208,0.198475 -0.25101,0.1926375 -0.41446,0.408625 l -0.30939,0.3911126 -1.3076,-0.6421251 0.26269,-0.4203 q 0.41446,-0.67715 0.99238,-1.1208 0.57791,-0.4494875 1.3543,-0.4494875 0.3269,0 0.75887,0.151775 0.43781,0.151775 0.934,0.3794375 0.50203,0.221825 1.03324,0.4494875 0.53705,0.221825 1.05659,0.3794375 0.52537,0.1576125 1.00405,0.16345 V -2.31165 q -0.44365,0.058375 -0.82309,0.198475 -0.37944,0.1342625 -0.78806,0.3444125 -0.40863,0.21015 -0.95152,0.502025 -0.7472,0.39694999 -1.41267,0.68298749 -0.65964,0.28603751 -1.36014,0.43781251 Q 135.75168,0 134.88773,0 h -0.97486 z m -0.67717,-6.4971376 v 8.1783376 h -1.57613 v -8.1783376 z m -6.33952,6.5146501 q 0.47868,0 0.934,-0.064213 0.46117,-0.07005 0.75888,-0.25685 0.30355,-0.1868 0.30355,-0.5428875 0,-0.3677625 -0.35609,-0.7822251 -0.35025,-0.4203 -0.934,-0.8230875 -0.57791,-0.4027875 -1.2609,-0.72385 l 0.71801,-1.51775 q 0.61878,0.30355 1.20837,0.6829875 0.59542,0.3736 1.06826,0.8347625 0.47867,0.4611625 0.75887,1.0215625 0.28604,0.5604 0.28604,1.2375501 0,0.934 -0.42614,1.506075 -0.4203,0.57207499 -1.18501,0.828925 -0.76471,0.25685 -1.78627,0.25685 -0.467,0 -0.86979,-0.0291875 -0.40279,-0.035025 -0.78806,-0.1225875 v -1.6812 q 0.37943,0.075887 0.81141,0.128425 0.43781,0.0467 0.75887,0.0467 z m -3.19367,4.8568001 -0.59543,-1.5644501 q 0.84644,-0.1809625 1.45354,-0.4845125 0.61294,-0.29771249 0.94568,-0.79973749 0.33273,-0.50202501 0.33273,-1.29592503 0,-0.53121248 -0.16928,-1.19084998 -0.16929,-0.665475 -0.36193,-1.2375501 l 1.57613,-0.5078625 q 0.22766,0.6362875 0.34441,1.3718126 0.12259,0.735525 0.12259,1.412675 0,1.225875 -0.45533,2.10150002 -0.44949,0.88146248 -1.27257,1.42434998 -0.81725,0.548725 -1.92054,0.7705501 z m -3.30987,-4.8568001 q 0.47868,0 0.934,-0.064213 0.46117,-0.07005 0.75888,-0.25685 0.30355,-0.1868 0.30355,-0.5428875 0,-0.3677625 -0.35609,-0.7822251 -0.35025,-0.4203 -0.934,-0.8230875 -0.57791,-0.4027875 -1.2609,-0.72385 l 0.71801,-1.51775 q 0.61878,0.30355 1.20837,0.6829875 0.59542,0.3736 1.06826,0.8347625 0.47867,0.4611625 0.75887,1.0215625 0.28604,0.5604 0.28604,1.2375501 0,0.934 -0.42614,1.506075 -0.4203,0.57207499 -1.18501,0.828925 -0.76471,0.25685 -1.78627,0.25685 -0.467,0 -0.86979,-0.0291875 -0.40279,-0.035025 -0.78806,-0.1225875 v -1.6812 q 0.37943,0.075887 0.81141,0.128425 0.43781,0.0467 0.75887,0.0467 z m -3.37463,-3.8410751 1.05075,1.05075 -1.05075,1.0449125 -1.04491,-1.0449125 z m 0.0759,6.42125011 q 0.84644,0 1.33095,-0.268525 0.48451,-0.268525 0.68883,-0.72968751 0.21015,-0.46700001 0.21015,-1.05075 0,-0.6246125 -0.20432,-1.2900875 -0.19847,-0.6713126 -0.44948,-1.2842501 l 1.55861,-0.58375 q 0.3269,0.8814625 0.46116,1.6169876 0.1401,0.735525 0.1401,1.5002375 0,1.73957501 -0.95735,2.7494625 -0.95151,1.0098875 -2.77865,1.0098875 -1.25506,0 -2.07231,-0.478675 -0.81141,-0.478675 -1.20253,-1.30759999 -0.39111,-0.82892501 -0.39111,-1.87383751 0,-0.6946625 0.15178,-1.436025 0.15177,-0.7413626 0.43781,-1.4827251 l 1.41851,0.5428875 q -0.21599,0.6187751 -0.36192,1.2083626 -0.14594,0.5895875 -0.14594,1.1032875 0,0.56039999 0.19847,1.0274 0.19848,0.46700001 0.67132,0.74720001 0.47283,0.2802 1.29592,0.2802 z m -6.88825,-5.73826261 q 0.73553,0 1.24923,0.4378125 0.5137,0.4378125 0.80557,1.155825 0.29188,0.7121751 0.35025,1.5469376 h 0.43782 V 0 h -0.55457 q -0.33273,1.33095 -1.3076,2.089825 -0.97486,0.7647125 -2.6619,1.0916126 L 107.94654,1.622825 q 0.73553,-0.1401 1.36014,-0.3736 0.63045,-0.2335 1.06242,-0.54872499 Q 110.80692,0.38527501 110.95285,0 h -0.54872 q -1.17918,0 -1.79795,-0.49035001 -0.61878,-0.49618751 -0.61878,-1.59947499 0,-0.431975 0.13427,-0.9048125 0.13426,-0.4786751 0.40862,-0.8931376 0.27436,-0.4203 0.68883,-0.67715 0.4203,-0.2626875 0.98653,-0.2626875 z m 0.19264,3.1405751 h 0.7472 q -0.035,-0.3269 -0.1401,-0.6713125 -0.0992,-0.3444125 -0.29771,-0.5779125 -0.19264,-0.2335001 -0.5137,-0.2335001 -0.27436,0 -0.43781,0.1751251 -0.15762,0.1692875 -0.22767,0.408625 -0.0642,0.2335 -0.0642,0.431975 0,0.3093875 0.25685,0.3911125 0.26269,0.075888 0.67715,0.075888 z m -7.35525,0 h 0.88146 q 0.64213,0 0.88146,-0.2159875 0.24518,-0.221825 0.24518,-0.805575 0,-0.3444125 -0.0175,-0.6654751 -0.0175,-0.3269 -0.0409,-0.6362875 l 1.45938,-0.1809625 0.11675,1.6695251 q 0.0292,0.44365 0.24517,0.642125 0.21599,0.1926375 0.68883,0.1926375 h 0.12259 V 0 h -0.13427 q -0.58375,0 -1.00405,-0.21015 -0.41446,-0.21015001 -0.68298,-0.54872501 -0.35609,0.3560875 -0.84644,0.56040001 Q 104.47323,0 103.9245,0 h -0.88146 z m 0.15177,2.43423751 0.99238,0.98069999 0.9807,-0.98069999 0.99821,0.99237499 -0.99821,1.00405 -0.9807,-0.992375 -0.99238,0.992375 -0.99237,-1.00405 z M 100.08342,0 q -0.519535,0 -0.88146,-0.2159875 -0.361925,-0.21598751 -0.6071,-0.53121251 -0.297712,0.315225 -0.67715,0.53121251 Q 97.54411,0 97.03041,0 q -0.589587,0 -0.992375,-0.198475 -0.39695,-0.20431251 -0.6538,-0.53705001 -0.321062,0.338575 -0.764712,0.53705001 Q 94.175873,0 93.498723,0 h -0.53705 v -1.6870375 h 0.548725 q 0.642125,0 0.91065,-0.1576125 0.274362,-0.1576125 0.274362,-0.758875 0,-0.0934 -0.01167,-0.3093875 -0.01167,-0.2159876 -0.02919,-0.4728376 -0.01751,-0.2626875 -0.03503,-0.4728375 l 1.465212,-0.1809625 0.122588,1.5761251 q 0.05254,0.7763875 0.834762,0.7763875 0.484513,0 0.647963,-0.198475 0.16345,-0.2043125 0.16345,-0.7180125 0,-0.081725 -0.01167,-0.2977125 -0.01168,-0.2218251 -0.02919,-0.4845126 -0.01751,-0.2626875 -0.03503,-0.4728375 l 1.465213,-0.1809625 0.122587,1.5761251 q 0.02335,0.361925 0.180963,0.572075 0.157612,0.2043125 0.525377,0.2043125 0.36192,0 0.49035,-0.2393375 0.13426,-0.2393375 0.13426,-0.67715 0,-0.21015 -0.0233,-0.6071001 -0.0234,-0.39695 -0.0525,-0.758875 l 1.46522,-0.1809625 0.12258,1.6870376 q 0.0292,0.431975 0.23934,0.6071 0.21599,0.1692875 0.66548,0.1692875 h 0.17512 V 0 h -0.16345 q -0.53705,0 -0.95151,-0.1868 -0.40863,-0.18680001 -0.64796,-0.50786251 -0.23934,0.2977125 -0.58959,0.49618751 Q 100.58545,0 100.08342,0 Z m -9.748622,0 h -1.255063 v -1.6870375 h 1.2609 q 0.44365,0 0.6071,-0.2743625 0.169288,-0.2802 0.169288,-0.7063375 0,-0.3969501 -0.09924,-0.8639501 -0.0934,-0.4728375 -0.192637,-0.922325 l 1.529425,-0.39695 q 0.110912,0.548725 0.175125,1.0916125 0.07005,0.53705 0.07005,1.0274001 0,0.7763875 -0.21015,1.3951625 -0.204313,0.61877499 -0.7005,0.98069999 Q 91.19291,0 90.334798,0 Z M 89.23151,0.74720001 90.223885,1.7279 91.204585,0.74720001 92.202798,1.739575 91.204585,2.743625 90.223885,1.75125 89.23151,2.743625 88.239135,1.739575 Z m -1.850488,-7.54788761 1.05075,1.05075 -1.05075,1.0449125 -1.044913,-1.0449125 z M 85.098559,3.1872751 84.503134,1.622825 q 0.846438,-0.1809625 1.453538,-0.4845125 0.612937,-0.29771249 0.945675,-0.79973749 0.332737,-0.50202501 0.332737,-1.29592503 0,-0.53121248 -0.169287,-1.19084998 -0.169288,-0.665475 -0.361925,-1.2375501 l 1.576125,-0.5078625 q 0.227662,0.6362875 0.344412,1.3718126 0.122588,0.735525 0.122588,1.412675 0,1.225875 -0.455325,2.10150002 Q 87.842184,1.8738375 87.019097,2.416725 86.201847,2.96545 85.098559,3.1872751 Z M 82.09225,-4.8276126 q 0.735525,0 1.249225,0.4378125 0.5137,0.4378125 0.805575,1.155825 0.291875,0.7121751 0.35025,1.5469376 h 0.437812 V 0 H 84.38055 q -0.332738,1.33095 -1.3076,2.089825 -0.974863,0.7647125 -2.6619,1.0916126 L 79.833137,1.622825 q 0.735525,-0.1401 1.360138,-0.3736 0.63045,-0.2335 1.062425,-0.54872499 Q 82.693512,0.38527501 82.83945,0 H 82.290725 Q 81.11155,0 80.492775,-0.49035001 79.874,-0.98653752 79.874,-2.089825 q 0,-0.431975 0.134262,-0.9048125 0.134263,-0.4786751 0.408625,-0.8931376 0.274363,-0.4203 0.688825,-0.67715 0.4203,-0.2626875 0.986538,-0.2626875 z m 0.192637,3.1405751 h 0.7472 q -0.03503,-0.3269 -0.1401,-0.6713125 -0.09924,-0.3444125 -0.297712,-0.5779125 -0.192638,-0.2335001 -0.5137,-0.2335001 -0.274363,0 -0.437813,0.1751251 -0.157612,0.1692875 -0.227662,0.408625 -0.06421,0.2335 -0.06421,0.431975 0,0.3093875 0.25685,0.3911125 0.262688,0.075888 0.67715,0.075888 z M 76.6517,0 h -1.255062 v -1.6870375 h 1.2609 q 0.44365,0 0.6071,-0.2743625 0.169287,-0.2802 0.169287,-0.7063375 0,-0.3969501 -0.09924,-0.8639501 -0.0934,-0.4728375 -0.192638,-0.922325 l 1.529425,-0.39695 q 0.110913,0.548725 0.175125,1.0916125 0.07005,0.53705 0.07005,1.0274001 0,0.7763875 -0.21015,1.3951625 -0.204312,0.61877499 -0.7005,0.98069999 Q 77.509813,0 76.6517,0 Z M 77.533163,0.57791251 78.473,1.51775 77.533163,2.4575875 76.593325,1.51775 Z m -2.037288,0 0.934,0.93983749 -0.934,0.9398375 L 74.556038,1.51775 Z M 76.5116,2.0723125 77.451438,3.01215 76.5116,3.9461501 75.571763,3.01215 Z M 74.731163,-8.1841751 v 8.1783376 h -1.576125 v -8.1783376 z"
       id="text1"
       transform="matrix(1.3333333,0,0,1.3333333,172.59333,53.506667)"
       aria-label="ﮏﺴﯾر:۵ﮓﻨﺟﯽﻠﺧادردنﻮﯿﺴﯾزﻮﭘا" />
  </g>
</svg>
