<?xml version="1.0" encoding="UTF-8" standalone="no"?>


<svg class="tikz-diagram" id="iran-action-ch9-tikz-10-2c096f6b780a"
   version="1.1"
   id="svg1"
   width="666.1333"
   height="155.89333"
   viewBox="0 0 666.1333 155.89333"
   sodipodi:docname="iran-action-ch9-tikz-10-2c096f6b780a.pdf"
   xmlns:inkscape="http://www.inkscape.org/namespaces/inkscape"
   xmlns:sodipodi="http://sodipodi.sourceforge.net/DTD/sodipodi-0.dtd"
   xmlns="http://www.w3.org/2000/svg"
   xmlns:svg="http://www.w3.org/2000/svg">
  <defs
     id="defs1" />
  <sodipodi:namedview
     id="namedview1"
     pagecolor="#ffffff"
     bordercolor="#000000"
     borderopacity="0.25"
     inkscape:showpageshadow="2"
     inkscape:pageopacity="0.0"
     inkscape:pagecheckerboard="0"
     inkscape:deskcolor="#d1d1d1">
    <inkscape:page
       x="0"
       y="0"
       inkscape:label="1"
       id="page1"
       width="666.1333"
       height="155.89333"
       margin="0"
       bleed="0" />
  </sodipodi:namedview>
  <g
     id="g1"
     inkscape:groupmode="layer"
     inkscape:label="1">
    <path
       id="path1"
       d="M 53.81757,42.52022 H -53.81757 c -5.50235,0 -9.96276,-4.46042 -9.96276,-9.96277 v -65.1149 c 0,-5.50235 4.46041,-9.96277 9.96276,-9.96277 H 53.81757 c 5.50235,0 9.96276,4.46042 9.96276,9.96277 v 65.1149 c 0,5.50235 -4.46041,9.96277 -9.96276,9.96277 z"
       style="fill:#d9e8e0;fill-opacity:1;fill-rule:nonzero;stroke:#006633;stroke-width:1.99255;stroke-linecap:butt;stroke-linejoin:miter;stroke-miterlimit:10;stroke-dasharray:none;stroke-opacity:1"
       transform="matrix(1.3333333,0,0,-1.3333333,106.29333,77.946667)" />
    <g
       id="text1"
       transform="matrix(1.3333333,0,0,1.3333333,77.968,53.866667)"
       aria-label="یﻮﯾرﺎﻨﺳAبﺎﺼﺘﻋایﺮﺳاﺮﺳ+نﺎﺑﺎﯿﺧ=رﺎﺸﻓیﺮﺜﮐاﺪﺣ">
      <path
         style="font-weight:800;font-size:9.9626px;font-family:Vazirmatn"
         d="m 28.978127,2.4517335 q -1.045878,0 -1.726915,-0.3988931 -0.676173,-0.3988932 -1.002098,-1.08965937 -0.325925,-0.69076619 -0.325925,-1.55665621 0,-0.57888152 0.126479,-1.19667942 0.126478,-0.6226625 0.364841,-1.2404605 l 1.182086,0.4524032 q -0.179988,0.5156424 -0.301602,1.006962 -0.121614,0.4913197 -0.121614,0.91940011 0,0.46699686 0.165395,0.85616092 0.165394,0.38916405 0.559423,0.62266248 0.394029,0.23349839 1.07993,0.23349839 0.739412,0 1.230732,-0.17025923 0.491319,-0.16539472 0.734547,-0.3940286 0.243227,-0.22863388 0.243227,-0.40375771 0,-0.14107197 -0.175124,-0.14107197 h -0.788057 q -0.248092,0 -0.520507,-0.0486455 -0.26755,-0.04864551 -0.501048,-0.20917568 -0.233499,-0.16053017 -0.379435,-0.48159052 -0.141072,-0.32106039 -0.141072,-0.86102549 0,-0.5059132 0.165394,-0.9729101 0.165395,-0.4718614 0.471862,-0.8415673 0.311331,-0.3697058 0.744276,-0.5886106 0.432945,-0.2189048 0.97291,-0.2189048 0.364842,0 0.715089,0.1118847 0.355112,0.1070201 0.65185,0.3210603 l -0.447539,1.2404604 q -0.252956,-0.1410719 -0.486455,-0.194582 -0.228634,-0.058375 -0.423216,-0.058375 -0.525371,0 -0.822109,0.3453831 -0.296737,0.3405186 -0.296737,0.8512964 0,0.1313428 0.0827,0.1653947 0.08756,0.034052 0.21404,0.034052 h 0.710225 q 0.559423,0 0.875619,0.1751238 0.32106,0.1751238 0.452403,0.48645504 0.136207,0.30646669 0.136207,0.7004953 0,0.69563074 -0.398893,1.27451226 -0.398893,0.5788815 -1.162627,0.9242646 -0.763735,0.3453831 -1.858259,0.3453831 z M 23.23796,-4.0229834 q 0.612933,0 1.041014,0.3648413 0.42808,0.3648413 0.671308,0.963181 0.243227,0.5934752 0.291873,1.289106 h 0.364841 V 0 h -0.462132 q -0.277279,1.1091176 -1.089659,1.7415091 -0.81238,0.6372562 -2.218236,0.909671 l -0.48159,-1.298835 Q 21.968312,1.2355959 22.488819,1.0410138 23.014191,0.84643182 23.374167,0.58374608 23.739009,0.32106034 23.860623,0 h -0.457268 q -0.982639,0 -1.498282,-0.40862226 -0.515642,-0.4134868 -0.515642,-1.33288684 0,-0.3599768 0.111884,-0.7540054 0.111885,-0.3988931 0.340519,-0.7442762 0.228634,-0.3502477 0.574017,-0.5642879 0.350248,-0.2189048 0.822109,-0.2189048 z m 0.16053,2.6171283 h 0.622663 q -0.02919,-0.2724149 -0.11675,-0.5594234 -0.0827,-0.2870085 -0.248092,-0.4815905 -0.16053,-0.194582 -0.42808,-0.194582 -0.228634,0 -0.364841,0.1459365 -0.131343,0.141072 -0.189718,0.3405186 -0.05351,0.194582 -0.05351,0.3599767 0,0.2578212 0.21404,0.3259249 0.218905,0.063239 0.564288,0.063239 z M 18.704197,0 h -1.045878 v -1.4058551 h 1.050743 q 0.369706,0 0.505913,-0.2286339 0.141072,-0.2334985 0.141072,-0.5886107 0,-0.3307894 -0.0827,-0.7199535 -0.07783,-0.3940286 -0.160531,-0.768599 l 1.274513,-0.3307894 q 0.09243,0.4572678 0.145936,0.909671 0.05838,0.4475386 0.05838,0.8561609 0,0.6469852 -0.175124,1.1626276 -0.170259,0.51564237 -0.583746,0.81724451 Q 19.419286,0 18.704197,0 Z M 17.784797,0.62266248 18.611771,1.439907 19.429015,0.62266248 20.260853,1.4496361 19.429015,2.2863388 18.611771,1.4593652 17.784797,2.2863388 16.957823,1.4496361 Z M 14.340695,2.6560447 13.844511,1.3523451 q 0.70536,-0.1508011 1.211273,-0.40375772 0.510778,-0.24809208 0.788057,-0.66644344 0.27728,-0.41835136 0.27728,-1.07993025 0,-0.44267409 -0.141072,-0.99236829 -0.141072,-0.5545588 -0.301602,-1.0312848 l 1.313428,-0.4232159 q 0.189718,0.530236 0.287009,1.1431694 0.102155,0.6129334 0.102155,1.17722127 0,1.02155564 -0.379435,1.75123824 Q 16.627034,1.5615208 15.941132,2.013924 15.260095,2.4711917 14.340695,2.6560447 Z M 11.995982,-6.8201 h 1.313429 v 4.4461993 q 0,0.5156423 0.150801,0.7442762 0.150801,0.2237694 0.622662,0.2237694 h 0.121614 V 0 H 14.082874 Q 12.993215,0 12.492166,-0.56428788 11.995982,-1.1285758 11.995982,-2.2571515 Z m -2.7582001,3.4781537 1.2161381,-0.1508011 0.09729,1.3912615 q 0.02432,0.3697059 0.204311,0.5351006 0.179988,0.1605302 0.574017,0.1605302 h 0.102155 V 0 H 11.31981 Q 10.833355,0 10.483107,-0.17512382 10.137724,-0.35024765 9.9139545,-0.63239159 9.6172169,-0.335654 9.2085946,-0.16539472 8.8048369,0 8.3475692,0 H 7.8805723 v -1.4058551 h 0.4669969 q 0.5351005,0 0.7345471,-0.1799884 0.2043111,-0.1848529 0.2043111,-0.671308 0,-0.2870085 -0.014594,-0.5545588 -0.014594,-0.2724148 -0.034052,-0.530236 z M 9.5053322,-5.9201582 10.380951,-5.044539 9.5053322,-4.1737845 8.6345777,-5.044539 Z M 3.293301,0 Q 2.8019814,0 2.4663274,-0.16539472 2.135538,-0.335654 1.9214977,-0.61293338 1.6539475,-0.33078944 1.2842416,-0.16539472 0.91453575,0 0.35024787,0 h -0.44753866 v -1.4058551 h 0.45726777 q 0.53510057,0 0.75886992,-0.1313429 0.2286339,-0.1313429 0.2286339,-0.6323916 0,-0.077833 -0.00973,-0.2578212 -0.00973,-0.1799884 -0.024323,-0.3940286 -0.014594,-0.2189048 -0.029187,-0.3940286 l 1.2210022,-0.1508011 0.1021556,1.3134287 q 0.043781,0.6469853 0.6956307,0.6469853 0.4037577,0 0.5399651,-0.1653948 0.1362075,-0.1702592 0.1362075,-0.5983397 0,-0.068104 -0.00973,-0.2480921 -0.00973,-0.1848529 -0.024323,-0.4037577 -0.014594,-0.2189048 -0.029187,-0.3940286 l 1.2210022,-0.1508011 0.1021556,1.3134287 q 0.019458,0.2967376 0.1459365,0.4718614 0.1313429,0.1751239 0.4426741,0.1751239 0.2918731,0 0.3988932,-0.2286339 0.1118846,-0.2334985 0.1118846,-0.5545588 0,-0.2772794 -0.05351,-0.5691524 Q 6.2363542,-3.0549378 6.173115,-3.2933008 6.1147404,-3.5365283 6.0855531,-3.648413 l 1.2599186,-0.3453831 q 0.097291,0.3842995 0.1605302,0.8221091 0.063239,0.432945 0.063239,0.8610254 0,0.6032043 -0.1605302,1.1334403 Q 7.2530453,-0.65184979 6.8736103,-0.32592489 6.4941754,0 5.837461,0 5.3996515,0 5.0980493,-0.17998837 4.8013117,-0.35997675 4.5970006,-0.62266248 4.3489085,-0.35997675 4.0327127,-0.17998837 3.7213815,0 3.293301,0 Z M 40.258555,0 39.806152,-1.4107197 H 37.359283 L 36.911744,0 h -1.692863 l 2.621992,-7.0827858 h 1.478824 L 41.951419,0 Z m -2.505244,-2.6365865 h 1.663677 L 38.58515,-5.2391211 Z"
         id="path12" />
      <path
         style="font-size:8.9664px;font-family:Vazirmatn"
         d="m 45.639229,17.606853 0.634828,0.634829 -0.634828,0.634828 -0.634828,-0.634828 z m 0.7005,-0.669853 h -1.020103 q -1.650553,0 -2.482397,-0.446568 -0.827465,-0.446569 -0.827465,-1.545479 0,-0.30209 0.06567,-0.591047 0.07005,-0.288956 0.179504,-0.556021 l 0.678609,0.253931 q -0.07005,0.192637 -0.118209,0.411544 -0.04378,0.218906 -0.04378,0.415921 0.0044,0.512241 0.288957,0.788063 0.284578,0.271444 0.849356,0.372141 0.564778,0.100697 1.409756,0.100697 h 1.024481 q 0.297713,0 0.621694,-0.01751 0.32836,-0.01751 0.612938,-0.09632 0.284578,-0.07881 0.464081,-0.262687 0.179503,-0.18826 0.179503,-0.525375 0,-0.245175 -0.04816,-0.582291 -0.04816,-0.341494 -0.113832,-0.674231 l 0.761794,-0.192638 q 0.07881,0.341494 0.11821,0.709257 0.04378,0.363384 0.04378,0.634828 0,0.595425 -0.201394,0.954431 -0.201394,0.359006 -0.564778,0.542888 -0.359006,0.183881 -0.8406,0.245175 -0.477216,0.06129 -1.037616,0.06129 z m -6.440223,-6.028678 h 0.739904 v 4.185488 q 0,0.617315 0.227662,0.831843 0.227663,0.214529 0.687366,0.214529 h 0.109453 V 16.937 h -0.109453 q -0.836222,0 -1.247766,-0.44219 -0.407166,-0.446569 -0.407166,-1.405379 z M 35.359392,16.937 h -0.232041 q -0.928162,0 -1.414134,-0.175125 -0.485972,-0.175125 -0.687366,-0.49035 -0.253931,0.345872 -0.573534,0.507863 -0.315225,0.157612 -0.8406,0.157612 h -0.179503 l 0.0044,-0.796818 h 0.175125 q 0.612937,0 0.823087,-0.25831 0.214529,-0.262687 0.214529,-0.757416 0,-0.21015 -0.01751,-0.389653 -0.01313,-0.179503 -0.02189,-0.385275 l 0.731147,-0.08756 0.06567,1.024481 q 0.02189,0.293335 0.122588,0.507863 0.100697,0.21015 0.310847,0.21015 0.783684,-1.33095 1.532343,-1.9614 0.753038,-0.634829 1.506075,-0.634829 0.499107,0 0.884382,0.218907 0.389653,0.214528 0.608559,0.586668 0.218906,0.372141 0.218906,0.8406 -0.0044,0.564779 -0.337115,1.002591 0.126965,0.03065 0.328359,0.05692 0.205772,0.02627 0.604181,0.02627 h 0.131344 V 16.937 h -0.126966 q -0.556021,0 -0.919406,-0.113831 -0.359006,-0.113831 -0.604181,-0.315225 -0.359006,0.201394 -0.945675,0.315225 Q 36.13432,16.937 35.359392,16.937 Z m 1.554234,-2.73195 q -1.055128,0 -2.281003,1.935132 h 0.709257 q 1.247765,0 1.860703,-0.249554 0.612937,-0.249553 0.612937,-0.79244 0,-0.385275 -0.249553,-0.639207 -0.245175,-0.253931 -0.652341,-0.253931 z m -6.76858,-2.005181 0.612937,0.608559 -0.612937,0.617316 -0.608559,-0.617316 z m -1.453538,0 0.612938,0.608559 -0.612938,0.617316 -0.608559,-0.617316 z m -0.472837,3.940313 h 0.612937 q 0.556022,0 0.792441,-0.249554 0.240797,-0.249553 0.240797,-0.766172 0,-0.21015 -0.01313,-0.398409 -0.0088,-0.188259 -0.02627,-0.376519 l 0.731147,-0.08756 0.07005,1.024481 q 0.05254,0.853735 0.888759,0.853735 h 0.09194 V 16.937 h -0.100697 q -0.485972,0 -0.779306,-0.175125 -0.288957,-0.175125 -0.46846,-0.494728 -0.236419,0.345872 -0.621694,0.507863 -0.385275,0.16199 -0.805575,0.16199 h -0.612937 z m -3.331758,0 q -0.197016,-0.245175 -0.337116,-0.599804 -0.135721,-0.359006 -0.135721,-0.718012 0,-0.46846 0.245175,-0.849356 0.245175,-0.380897 0.643584,-0.604182 0.398409,-0.223284 0.858112,-0.223284 0.696122,0 1.492941,0.542887 l -0.293334,0.652341 q -0.682988,-0.402787 -1.151447,-0.402787 -0.402788,0 -0.713635,0.249553 -0.310846,0.249553 -0.310846,0.665475 0,0.323981 0.144478,0.573534 0.148856,0.249553 0.315225,0.389653 0.166368,0.135722 0.223284,0.135722 0.07881,0 0.153234,-0.02189 l 1.851947,-0.442191 V 16.28466 Q 26.782641,16.617397 25.854479,16.779388 24.930694,16.937 24.020044,16.937 h -0.477215 v -0.796818 z m -1.926373,-5.23186 v 6.0243 h -0.739903 v -6.0243 z m -2.316625,8.239631 q -0.945675,0 -1.514831,-0.345871 -0.564778,-0.345872 -0.818709,-0.923785 -0.249554,-0.573534 -0.249554,-1.2609 0,-0.464081 0.09632,-0.950053 0.09632,-0.49035 0.262688,-0.954431 l 0.696122,0.2802 q -0.126966,0.402787 -0.214529,0.827465 -0.08756,0.424679 -0.08756,0.823088 0,0.472837 0.166369,0.862491 0.170747,0.389653 0.569156,0.621693 0.398409,0.232041 1.094531,0.232041 0.621694,0 1.112044,-0.157613 0.49035,-0.153234 0.774928,-0.402787 0.284578,-0.245175 0.284578,-0.520997 0,-0.1401 -0.08318,-0.262687 -0.08318,-0.122588 -0.302091,-0.122588 h -0.709256 q -0.647963,0 -0.91065,-0.310847 -0.258309,-0.315225 -0.258309,-0.871247 0,-0.577912 0.236418,-1.059506 0.236419,-0.485972 0.674232,-0.774928 0.437812,-0.288956 1.037615,-0.288956 0.227663,0 0.477216,0.06129 0.253931,0.06129 0.507862,0.232041 l -0.249553,0.665475 q -0.345872,-0.175125 -0.735525,-0.175125 -0.556022,0 -0.871247,0.389653 -0.310847,0.389653 -0.310847,0.950053 0,0.205772 0.08319,0.302091 0.08318,0.09194 0.337115,0.09194 h 0.735526 q 0.604181,0 0.823087,0.328359 0.223284,0.323981 0.223284,0.827466 0,0.485971 -0.332737,0.915028 -0.332738,0.433434 -0.976322,0.7005 -0.639206,0.271443 -1.567369,0.271443 z M 17.596742,16.937 q -0.30209,0 -0.507862,-0.07881 -0.201394,-0.08318 -0.315225,-0.175125 -0.06567,0.573534 -0.319603,1.107666 -0.249553,0.538509 -0.753038,0.936918 -0.503484,0.39841 -1.33095,0.5604 L 14.111755,18.59631 q 1.068262,-0.232041 1.506075,-0.814332 0.437812,-0.577912 0.437812,-1.370353 0,-0.37214 -0.08318,-0.779306 -0.07881,-0.411544 -0.223284,-0.836222 l 0.726768,-0.245175 0.236419,0.915028 q 0.09632,0.367763 0.306469,0.520997 0.21015,0.153235 0.529753,0.153235 h 0.166369 V 16.937 Z m -6.838631,0 q -0.503485,0 -0.7793068,-0.170747 Q 9.7073605,16.591128 9.5453699,16.267147 9.339598,16.591128 9.0199949,16.766253 8.7003917,16.937 8.1093448,16.937 H 7.7065573 v -0.796818 h 0.4115438 q 0.5604,0 0.8187094,-0.205772 0.2583094,-0.21015 0.2583094,-0.761794 0,-0.113831 -0.013134,-0.267066 -0.00876,-0.157612 -0.030647,-0.437812 l 0.7311469,-0.09194 0.07005,0.915028 q 0.026269,0.367763 0.2232845,0.60856 0.201394,0.240797 0.591047,0.240797 0.464081,0 0.63045,-0.249554 0.166369,-0.249553 0.166369,-0.718012 0,-0.113831 -0.01314,-0.271444 -0.0088,-0.157612 -0.03065,-0.433434 l 0.731147,-0.09194 0.07005,0.915028 q 0.02189,0.354628 0.18826,0.604182 0.166368,0.245175 0.538509,0.245175 0.363384,0 0.499106,-0.271444 0.135722,-0.271444 0.135722,-0.634828 0,-0.32836 -0.06567,-0.661097 -0.06129,-0.332738 -0.109453,-0.53851 l 0.748659,-0.201393 q 0.07881,0.293334 0.126966,0.626071 0.04816,0.32836 0.04816,0.656719 0,0.472838 -0.131343,0.88876 -0.131344,0.415922 -0.433435,0.674231 -0.297712,0.253931 -0.814331,0.258309 -0.4203,0 -0.678609,-0.175125 -0.25831,-0.175125 -0.4203,-0.494728 -0.245175,0.354628 -0.547266,0.512241 Q 11.108361,16.937 10.758111,16.937 Z M 7.1242662,10.908322 v 6.0243 H 6.3843631 v -6.0243 z M 5.0831144,16.937 q -0.3020906,0 -0.5078625,-0.07881 -0.2013938,-0.08318 -0.315225,-0.175125 -0.065672,0.573534 -0.3196032,1.107666 -0.2495531,0.538509 -0.7530375,0.936918 -0.5034844,0.39841 -1.33095,0.5604 L 1.5981268,18.59631 q 1.0682625,-0.232041 1.5060751,-0.814332 0.4378125,-0.577912 0.4378125,-1.370353 0,-0.37214 -0.083184,-0.779306 -0.078806,-0.411544 -0.2232844,-0.836222 l 0.7267688,-0.245175 0.2364187,0.915028 q 0.096319,0.367763 0.3064688,0.520997 0.21015,0.153235 0.5297531,0.153235 H 5.2013238 V 16.937 Z m -6.8386314,0 q -0.5034844,0 -0.7793063,-0.170747 -0.2714437,-0.175125 -0.4334344,-0.499106 -0.2057718,0.323981 -0.525375,0.499106 -0.3196031,0.170747 -0.91065,0.170747 h -0.4027875 v -0.796818 h 0.4115438 q 0.5604,0 0.8187093,-0.205772 0.2583094,-0.21015 0.2583094,-0.761794 0,-0.113831 -0.013134,-0.267066 -0.00876,-0.157612 -0.030647,-0.437812 l 0.7311469,-0.09194 0.07005,0.915028 q 0.026269,0.367763 0.2232843,0.60856 0.2013938,0.240797 0.5910469,0.240797 0.4640813,0 0.63045,-0.249554 0.16636879,-0.249553 0.16636879,-0.718012 0,-0.113831 -0.0131344,-0.271444 -0.008756,-0.157612 -0.0306469,-0.433434 l 0.73114689,-0.09194 0.07005,0.915028 q 0.0218906,0.354628 0.18825938,0.604182 0.16636875,0.245175 0.53850938,0.245175 0.36338438,0 0.49910621,-0.271444 0.1357219,-0.271444 0.1357219,-0.634828 0,-0.32836 -0.065672,-0.661097 -0.061294,-0.332738 -0.10945318,-0.53851 L 1.7426049,13.83291 q 0.078806,0.293334 0.1269656,0.626071 0.048159,0.32836 0.048159,0.656719 0,0.472838 -0.1313437,0.88876 -0.1313438,0.415922 -0.4334344,0.674231 -0.2977125,0.253931 -0.81433128,0.258309 -0.42030001,0 -0.67860939,-0.175125 -0.25830938,-0.175125 -0.42030001,-0.494728 -0.245175,0.354628 -0.54726562,0.512241 Q -1.405267,16.937 -1.755517,16.937 Z"
         id="path13" />
      <path
         style="font-size:8.9664px;font-family:Vazirmatn"
         d="m 34.107878,26.948113 v 1.628662 h -0.665475 v -1.628662 h -1.457915 v -0.665475 h 1.457915 v -1.506075 h 0.665475 v 1.506075 h 1.457916 v 0.665475 z M 30.670454,25.174972 31.305282,25.8098 30.670454,26.444628 30.035626,25.8098 Z m 0.05254,4.864097 q 0.731146,0 1.129556,-0.240797 0.402787,-0.236419 0.5604,-0.626072 0.16199,-0.385275 0.16199,-0.827465 0,-0.520997 -0.1401,-1.02886 -0.1401,-0.507862 -0.262687,-0.831844 l 0.748659,-0.30209 q 0.205772,0.564778 0.310847,1.098909 0.109453,0.529753 0.109453,1.011347 0,0.739903 -0.275822,1.313438 -0.271443,0.573534 -0.849356,0.897515 -0.577912,0.323981 -1.49294,0.323981 -0.945676,0 -1.514832,-0.345871 -0.564778,-0.345872 -0.818709,-0.923785 -0.249553,-0.573534 -0.249553,-1.2609 0,-0.464081 0.09632,-0.950053 0.09632,-0.49035 0.262688,-0.954431 l 0.696122,0.2802 q -0.126966,0.402787 -0.214528,0.827465 -0.08756,0.424679 -0.08756,0.823088 0,0.472837 0.166369,0.862491 0.170747,0.389653 0.569156,0.621693 0.39841,0.232041 1.094532,0.232041 z m -4.693353,-7.175747 h 0.739903 v 4.185488 q 0,0.617315 0.227662,0.831843 0.227663,0.214528 0.687366,0.214528 h 0.109453 V 28.892 H 27.68457 q -0.836222,0 -1.247766,-0.44219 -0.407165,-0.446569 -0.407165,-1.405379 z M 23.429034,28.892 h -0.805575 v -0.796819 h 0.796818 q 0.437813,0 0.591047,-0.253931 0.157613,-0.253931 0.157613,-0.643584 0,-0.284578 -0.05254,-0.60856 -0.05254,-0.323981 -0.113831,-0.65234 l 0.761794,-0.192638 q 0.07443,0.35025 0.118209,0.687366 0.04378,0.337116 0.04378,0.643584 0,0.525375 -0.144478,0.936919 -0.144478,0.411544 -0.472837,0.647963 -0.32836,0.23204 -0.880003,0.23204 z m 0.09632,0.669853 0.634829,0.634828 -0.634829,0.634829 -0.634828,-0.634829 z m -2.486775,-6.698531 h 0.739904 v 4.185488 q 0,0.617315 0.227662,0.831843 0.227663,0.214528 0.687366,0.214528 h 0.109453 V 28.892 h -0.109453 q -0.836222,0 -1.247766,-0.44219 -0.407166,-0.446569 -0.407166,-1.405379 z m -4.019117,5.231859 h 0.661097 q 0.556021,0 0.79244,-0.249553 0.240797,-0.249553 0.240797,-0.766172 0,-0.21015 -0.01313,-0.398409 -0.0088,-0.188259 -0.02627,-0.376519 l 0.731147,-0.08756 0.07005,1.024481 q 0.05254,0.853734 0.888759,0.853734 h 0.09194 V 28.892 h -0.100697 q -0.485972,0 -0.779306,-0.175125 -0.288957,-0.175125 -0.46846,-0.494728 -0.236418,0.345872 -0.621693,0.507863 Q 18.100857,28.892 17.680557,28.892 H 17.01946 Z m 1.580503,1.492941 0.612937,0.608559 -0.612937,0.617316 -0.60856,-0.617316 z m -1.453538,0 0.612938,0.608559 -0.612938,0.617316 -0.608559,-0.617316 z M 13.749,23.331781 14.383828,23.966609 13.749,24.601438 13.114172,23.966609 Z m -2.727572,4.7634 h 0.744281 q 0.512241,0 0.941297,-0.09194 0.429057,-0.09194 0.836222,-0.253931 0.411544,-0.161991 0.858113,-0.380897 0.450947,-0.223285 1.006968,-0.477216 -0.310846,-0.113831 -0.643584,-0.245175 -0.332737,-0.135722 -0.634828,-0.253931 -0.297713,-0.11821 -0.520997,-0.192638 -0.223284,-0.07881 -0.315225,-0.07881 -0.267066,0 -0.472837,0.157613 -0.201394,0.153234 -0.372141,0.37214 l -0.118209,0.148856 -0.669854,-0.328359 0.06567,-0.105075 q 0.288957,-0.468459 0.669853,-0.748659 0.385275,-0.284578 0.901894,-0.284578 0.214528,0 0.516619,0.109453 0.306469,0.109453 0.665475,0.275822 0.359006,0.16199 0.744281,0.332737 0.385275,0.166369 0.77055,0.284578 0.385275,0.113831 0.735525,0.126966 v 0.757415 q -0.2802,0.03065 -0.718012,0.205772 -0.433435,0.170747 -1.129557,0.53851 -0.5604,0.297712 -1.041993,0.507862 -0.477216,0.205772 -0.976322,0.315225 Q 12.369891,28.892 11.752575,28.892 h -0.731147 z"
         id="path14" />
      <path
         style="font-size:8.9664px;font-family:Vazirmatn"
         d="m 48.967152,38.071269 h -3.651356 v -0.661097 h 3.651356 z m 0,1.685578 h -3.651356 v -0.656719 h 3.651356 z m -4.777128,3.445584 -0.25831,-0.696121 q 1.068263,-0.232041 1.506075,-0.814332 0.437813,-0.577912 0.437813,-1.370353 0,-0.372141 -0.08318,-0.779306 -0.07881,-0.411544 -0.223285,-0.836222 l 0.726769,-0.245175 q 0.315225,0.897516 0.315225,1.729359 0,0.731147 -0.258309,1.352841 -0.253932,0.626072 -0.792441,1.059506 -0.534131,0.437813 -1.370353,0.599803 z m -1.882595,-8.384109 h 0.739903 v 4.185487 q 0,0.617316 0.227663,0.831844 0.227662,0.214528 0.687366,0.214528 h 0.109453 V 40.847 h -0.109453 q -0.836222,0 -1.247766,-0.442191 -0.407166,-0.446568 -0.407166,-1.405378 z m -4.338722,0.271444 0.591047,0.591047 -0.591047,0.591046 -0.591047,-0.591046 z m 0.748659,1.107665 0.591047,0.591047 -0.591047,0.591047 -0.591046,-0.591047 z m -1.497318,0 0.591047,0.591047 -0.591047,0.591047 -0.591047,-0.591047 z M 39.325926,40.847 q -0.4203,0 -0.67861,-0.175125 -0.258309,-0.175125 -0.4203,-0.494728 -0.245175,0.354628 -0.547265,0.512241 -0.297713,0.157612 -0.647963,0.157612 -0.503484,0 -0.779306,-0.170747 -0.271444,-0.175125 -0.433434,-0.499106 -0.205772,0.323981 -0.525375,0.499106 Q 34.97407,40.847 34.383023,40.847 h -0.402788 v -0.796819 h 0.411544 q 0.5604,0 0.818709,-0.205772 0.25831,-0.21015 0.25831,-0.761793 0,-0.113832 -0.01313,-0.267066 -0.0088,-0.157612 -0.03065,-0.437812 l 0.731147,-0.09194 0.07005,0.915028 q 0.02627,0.367763 0.223285,0.608559 0.201393,0.240797 0.591047,0.240797 0.464081,0 0.63045,-0.249553 0.166368,-0.249553 0.166368,-0.718012 0,-0.113832 -0.01313,-0.271444 -0.0088,-0.157613 -0.03065,-0.433434 l 0.731147,-0.09194 0.07005,0.915028 q 0.02189,0.354628 0.188259,0.604181 0.166369,0.245175 0.53851,0.245175 0.647962,0 0.647962,-0.967565 0,-0.157613 -0.01313,-0.32836 -0.0088,-0.170747 -0.03065,-0.450947 l 0.731147,-0.08756 0.07005,0.985078 q 0.05254,0.849356 0.866869,0.849356 h 0.131343 V 40.847 h -0.122587 q -0.459703,0 -0.766172,-0.166369 -0.306469,-0.170747 -0.4203,-0.507862 -0.183881,0.323981 -0.424678,0.499106 Q 39.754982,40.847 39.325926,40.847 Z m -7.447189,-6.580322 0.634828,0.634828 -0.634828,0.634828 -0.634828,-0.634828 z m -0.332738,5.783503 q 0.494729,0 0.796819,-0.05692 0.306469,-0.05692 0.446569,-0.249553 0.144478,-0.197016 0.144478,-0.60856 -0.214528,0.06567 -0.437812,0.100697 -0.218907,0.03502 -0.472838,0.03502 -1.488562,0 -1.488562,-1.221497 0,-0.4203 0.166368,-0.8406 0.170747,-0.4203 0.499107,-0.7005 0.328359,-0.284578 0.796818,-0.284578 0.429057,0 0.735525,0.218906 0.310847,0.218907 0.507863,0.591047 0.201394,0.367763 0.297712,0.836222 0.09632,0.464081 0.09632,0.958809 0,0.652341 -0.118209,1.055129 -0.113832,0.398409 -0.367763,0.608559 -0.253931,0.205772 -0.661097,0.2802 -0.407165,0.07443 -0.993834,0.07443 h -1.61115 v -0.796819 z m 0.53851,-1.532343 q 0.201394,0 0.398409,-0.03502 0.201394,-0.0394 0.402788,-0.09632 -0.03502,-0.310847 -0.131344,-0.63045 -0.09194,-0.319603 -0.275822,-0.534131 -0.183881,-0.218907 -0.49035,-0.218907 -0.271444,0 -0.437812,0.170747 -0.161991,0.170747 -0.236419,0.407166 -0.07005,0.236419 -0.07005,0.437812 0,0.302091 0.214528,0.402788 0.218906,0.09632 0.626072,0.09632 z m -3.012535,4.540115 q -0.945675,0 -1.514831,-0.345872 -0.564779,-0.345871 -0.81871,-0.923784 -0.249553,-0.573534 -0.249553,-1.2609 0,-0.464081 0.09632,-0.950053 0.09632,-0.49035 0.262687,-0.954431 l 0.696122,0.2802 q -0.126965,0.402787 -0.214528,0.827465 -0.08756,0.424678 -0.08756,0.823088 0,0.472837 0.166368,0.86249 0.170747,0.389654 0.569157,0.621694 0.398409,0.232041 1.094531,0.232041 0.621694,0 1.112044,-0.157613 0.49035,-0.153234 0.774928,-0.402787 0.284578,-0.245175 0.284578,-0.520997 0,-0.1401 -0.08318,-0.262688 -0.08319,-0.122587 -0.302091,-0.122587 h -0.709256 q -0.647963,0 -0.91065,-0.310847 -0.25831,-0.315225 -0.25831,-0.871247 0,-0.577912 0.236419,-1.059506 0.236419,-0.485972 0.674231,-0.774928 0.437813,-0.288957 1.037616,-0.288957 0.227662,0 0.477216,0.06129 0.253931,0.06129 0.507862,0.232041 l -0.249553,0.665475 q -0.345872,-0.175125 -0.735525,-0.175125 -0.556022,0 -0.871247,0.389653 -0.310847,0.389653 -0.310847,0.950053 0,0.205772 0.08318,0.302091 0.08319,0.09194 0.337116,0.09194 h 0.735525 q 0.604181,0 0.823088,0.32836 0.223284,0.323981 0.223284,0.827465 0,0.485972 -0.332737,0.915029 -0.332738,0.433434 -0.976322,0.7005 -0.639207,0.271443 -1.567369,0.271443 z M 26.024799,40.847 q -0.302091,0 -0.507862,-0.07881 -0.201394,-0.08319 -0.315225,-0.175125 -0.06567,0.573534 -0.319604,1.107666 -0.249553,0.538509 -0.753037,0.936918 -0.503484,0.39841 -1.33095,0.5604 L 22.539812,42.50631 q 1.068262,-0.232041 1.506075,-0.814332 0.437812,-0.577912 0.437812,-1.370353 0,-0.372141 -0.08318,-0.779306 -0.07881,-0.411544 -0.223285,-0.836222 l 0.726769,-0.245175 0.236419,0.915028 q 0.09632,0.367763 0.306469,0.520997 0.21015,0.153234 0.529753,0.153234 h 0.166368 V 40.847 Z m -5.533949,-5.757234 0.591047,0.591047 -0.591047,0.591046 -0.591047,-0.591046 z m 0.748659,1.107665 0.591047,0.591047 -0.591047,0.591047 -0.591047,-0.591047 z m -1.497319,0 0.591047,0.591047 -0.591047,0.591047 -0.591046,-0.591047 z m -0.450946,3.85275 h 0.612937 q 0.556022,0 0.792441,-0.249553 0.240797,-0.249553 0.240797,-0.766172 0,-0.21015 -0.01313,-0.398409 -0.0088,-0.188259 -0.02627,-0.376519 l 0.731146,-0.08756 0.07005,1.024481 q 0.05254,0.853734 0.88876,0.853734 h 0.09194 V 40.847 h -0.100696 q -0.485972,0 -0.779307,-0.175125 Q 21.510953,40.49675 21.33145,40.177147 21.095031,40.523019 20.709756,40.685009 20.324481,40.847 19.904181,40.847 h -0.612937 z m -2.928968,-3.449962 q 0.380897,0.267065 0.792441,0.564778 0.411544,0.293334 0.766172,0.63045 0.359006,0.332737 0.577912,0.713634 0.223285,0.376519 0.223285,0.805575 -0.0044,0.814332 -0.564778,1.173338 Q 17.601286,40.847 16.379789,40.847 h -1.068263 v -0.796819 h 1.063885 q 0.849356,0 1.217119,-0.148856 0.367762,-0.153234 0.367762,-0.604181 0,-0.288956 -0.205772,-0.564778 -0.201394,-0.275822 -0.525375,-0.542888 -0.319603,-0.271444 -0.687365,-0.529753 -0.367763,-0.262687 -0.691744,-0.516619 -0.1401,-0.113831 -0.214528,-0.267065 -0.07443,-0.153235 -0.07443,-0.306469 0,-0.179503 0.09632,-0.337116 0.100697,-0.16199 0.310847,-0.245175 l 3.147872,-1.278412 v 0.774928 z m -1.63304,-1.781897 v 6.0243 h -0.739903 v -6.0243 z m -3.2223,4.435041 q 0,-0.113832 -0.05254,-0.293335 -0.04816,-0.183881 -0.118209,-0.341494 l -0.774928,-1.755628 0.682987,-0.319603 0.993835,2.337919 q 0.201394,0.472837 0.35025,0.726769 0.153234,0.253931 0.297712,0.35025 0.148857,0.09194 0.337116,0.09194 h 0.183881 V 40.847 h -0.183881 q -0.345872,0 -0.564778,-0.08318 -0.214528,-0.08319 -0.372141,-0.249553 -0.157612,-0.166369 -0.319603,-0.4203 -0.306469,0.385275 -0.783684,0.569156 -0.472838,0.179503 -1.182094,0.179503 -0.3064688,0 -0.5516438,-0.02627 -0.245175,-0.03065 -0.4640813,-0.08318 v -0.792441 q 0.5034844,0.11821 0.9500532,0.11821 1.5717469,0 1.5717469,-0.805575 z m -9.0495852,0.796818 h 0.7442813 q 0.5122406,0 0.9412968,-0.09194 Q 4.5719852,39.8663 4.9791508,39.704309 5.3906946,39.542319 5.8372633,39.323413 6.2882102,39.100128 6.8442321,38.846197 6.5333852,38.732366 6.2006477,38.601022 5.8679102,38.4653 5.5658196,38.347091 5.2681071,38.228881 5.0448227,38.154453 q -0.2232844,-0.07881 -0.315225,-0.07881 -0.2670656,0 -0.4728375,0.157612 -0.2013938,0.153235 -0.3721406,0.372141 l -0.1182094,0.148856 -0.6698531,-0.328359 0.065672,-0.105075 q 0.2889563,-0.468459 0.6698532,-0.748659 0.385275,-0.284579 0.9018937,-0.284579 0.2145282,0 0.5166188,0.109454 0.3064687,0.109453 0.665475,0.275821 0.3590063,0.161991 0.7442813,0.332738 0.385275,0.166369 0.77055,0.284578 0.385275,0.113831 0.735525,0.126966 v 0.757415 q -0.2802,0.03065 -0.7180125,0.205772 Q 7.014979,39.551075 6.3188571,39.918838 5.7584571,40.21655 5.2768633,40.4267 4.7996477,40.632472 4.3005414,40.741925 3.8058133,40.847 3.1884977,40.847 H 2.4573508 Z"
         id="path15" />
    </g>
    <path
       id="path4"
       d="M 223.89842,42.52022 H 116.26328 c -5.50235,0 -9.96278,-4.46042 -9.96278,-9.96277 v -65.1149 c 0,-5.50235 4.46043,-9.96277 9.96278,-9.96277 h 107.63514 c 5.50237,0 9.96277,4.46042 9.96277,9.96277 v 65.1149 c 0,5.50235 -4.4604,9.96277 -9.96277,9.96277 z"
       style="fill:#d9e6f1;fill-opacity:1;fill-rule:nonzero;stroke:#0055a4;stroke-width:1.99255;stroke-linecap:butt;stroke-linejoin:miter;stroke-miterlimit:10;stroke-dasharray:none;stroke-opacity:1"
       transform="matrix(1.3333333,0,0,-1.3333333,106.29333,77.946667)" />
    <g
       id="text4"
       transform="matrix(1.3333333,0,0,1.3333333,304.96933,53.866667)"
       aria-label="یﻮﯾرﺎﻨﺳBفﺎﮑﺷردمﺎﻈﻧ+ﺖﯾﺎﻤﺣزاناﺮﮔ حﻼﺻا=راﺬﮔزاﻻﺎﺑ">
      <path
         style="font-weight:800;font-size:9.9626px;font-family:Vazirmatn"
         d="m 28.978127,2.4517335 q -1.045878,0 -1.726915,-0.3988931 -0.676173,-0.3988932 -1.002098,-1.08965937 -0.325925,-0.69076619 -0.325925,-1.55665621 0,-0.57888152 0.126479,-1.19667942 0.126478,-0.6226625 0.364841,-1.2404605 l 1.182086,0.4524032 q -0.179988,0.5156424 -0.301602,1.006962 -0.121614,0.4913197 -0.121614,0.91940011 0,0.46699686 0.165395,0.85616092 0.165394,0.38916405 0.559423,0.62266248 0.394029,0.23349839 1.07993,0.23349839 0.739412,0 1.230732,-0.17025923 0.491319,-0.16539472 0.734547,-0.3940286 0.243227,-0.22863388 0.243227,-0.40375771 0,-0.14107197 -0.175124,-0.14107197 h -0.788057 q -0.248092,0 -0.520507,-0.0486455 -0.26755,-0.04864551 -0.501048,-0.20917568 -0.233499,-0.16053017 -0.379435,-0.48159052 -0.141072,-0.32106039 -0.141072,-0.86102549 0,-0.5059132 0.165394,-0.9729101 0.165395,-0.4718614 0.471862,-0.8415673 0.311331,-0.3697058 0.744276,-0.5886106 0.432945,-0.2189048 0.97291,-0.2189048 0.364842,0 0.715089,0.1118847 0.355112,0.1070201 0.65185,0.3210603 l -0.447539,1.2404604 q -0.252956,-0.1410719 -0.486455,-0.194582 -0.228634,-0.058375 -0.423216,-0.058375 -0.525371,0 -0.822109,0.3453831 -0.296737,0.3405186 -0.296737,0.8512964 0,0.1313428 0.0827,0.1653947 0.08756,0.034052 0.21404,0.034052 h 0.710225 q 0.559423,0 0.875619,0.1751238 0.32106,0.1751238 0.452403,0.48645504 0.136207,0.30646669 0.136207,0.7004953 0,0.69563074 -0.398893,1.27451226 -0.398893,0.5788815 -1.162627,0.9242646 -0.763735,0.3453831 -1.858259,0.3453831 z M 23.23796,-4.0229834 q 0.612933,0 1.041014,0.3648413 0.42808,0.3648413 0.671308,0.963181 0.243227,0.5934752 0.291873,1.289106 h 0.364841 V 0 h -0.462132 q -0.277279,1.1091176 -1.089659,1.7415091 -0.81238,0.6372562 -2.218236,0.909671 l -0.48159,-1.298835 Q 21.968312,1.2355959 22.488819,1.0410138 23.014191,0.84643182 23.374167,0.58374608 23.739009,0.32106034 23.860623,0 h -0.457268 q -0.982639,0 -1.498282,-0.40862226 -0.515642,-0.4134868 -0.515642,-1.33288684 0,-0.3599768 0.111884,-0.7540054 0.111885,-0.3988931 0.340519,-0.7442762 0.228634,-0.3502477 0.574017,-0.5642879 0.350248,-0.2189048 0.822109,-0.2189048 z m 0.16053,2.6171283 h 0.622663 q -0.02919,-0.2724149 -0.11675,-0.5594234 -0.0827,-0.2870085 -0.248092,-0.4815905 -0.16053,-0.194582 -0.42808,-0.194582 -0.228634,0 -0.364841,0.1459365 -0.131343,0.141072 -0.189718,0.3405186 -0.05351,0.194582 -0.05351,0.3599767 0,0.2578212 0.21404,0.3259249 0.218905,0.063239 0.564288,0.063239 z M 18.704197,0 h -1.045878 v -1.4058551 h 1.050743 q 0.369706,0 0.505913,-0.2286339 0.141072,-0.2334985 0.141072,-0.5886107 0,-0.3307894 -0.0827,-0.7199535 -0.07783,-0.3940286 -0.160531,-0.768599 l 1.274513,-0.3307894 q 0.09243,0.4572678 0.145936,0.909671 0.05838,0.4475386 0.05838,0.8561609 0,0.6469852 -0.175124,1.1626276 -0.170259,0.51564237 -0.583746,0.81724451 Q 19.419286,0 18.704197,0 Z M 17.784797,0.62266248 18.611771,1.439907 19.429015,0.62266248 20.260853,1.4496361 19.429015,2.2863388 18.611771,1.4593652 17.784797,2.2863388 16.957823,1.4496361 Z M 14.340695,2.6560447 13.844511,1.3523451 q 0.70536,-0.1508011 1.211273,-0.40375772 0.510778,-0.24809208 0.788057,-0.66644344 0.27728,-0.41835136 0.27728,-1.07993025 0,-0.44267409 -0.141072,-0.99236829 -0.141072,-0.5545588 -0.301602,-1.0312848 l 1.313428,-0.4232159 q 0.189718,0.530236 0.287009,1.1431694 0.102155,0.6129334 0.102155,1.17722127 0,1.02155564 -0.379435,1.75123824 Q 16.627034,1.5615208 15.941132,2.013924 15.260095,2.4711917 14.340695,2.6560447 Z M 11.995982,-6.8201 h 1.313429 v 4.4461993 q 0,0.5156423 0.150801,0.7442762 0.150801,0.2237694 0.622662,0.2237694 h 0.121614 V 0 H 14.082874 Q 12.993215,0 12.492166,-0.56428788 11.995982,-1.1285758 11.995982,-2.2571515 Z m -2.7582001,3.4781537 1.2161381,-0.1508011 0.09729,1.3912615 q 0.02432,0.3697059 0.204311,0.5351006 0.179988,0.1605302 0.574017,0.1605302 h 0.102155 V 0 H 11.31981 Q 10.833355,0 10.483107,-0.17512382 10.137724,-0.35024765 9.9139545,-0.63239159 9.6172169,-0.335654 9.2085946,-0.16539472 8.8048369,0 8.3475692,0 H 7.8805723 v -1.4058551 h 0.4669969 q 0.5351005,0 0.7345471,-0.1799884 0.2043111,-0.1848529 0.2043111,-0.671308 0,-0.2870085 -0.014594,-0.5545588 -0.014594,-0.2724148 -0.034052,-0.530236 z M 9.5053322,-5.9201582 10.380951,-5.044539 9.5053322,-4.1737845 8.6345777,-5.044539 Z M 3.293301,0 Q 2.8019814,0 2.4663274,-0.16539472 2.135538,-0.335654 1.9214977,-0.61293338 1.6539475,-0.33078944 1.2842416,-0.16539472 0.91453575,0 0.35024787,0 h -0.44753866 v -1.4058551 h 0.45726777 q 0.53510057,0 0.75886992,-0.1313429 0.2286339,-0.1313429 0.2286339,-0.6323916 0,-0.077833 -0.00973,-0.2578212 -0.00973,-0.1799884 -0.024323,-0.3940286 -0.014594,-0.2189048 -0.029187,-0.3940286 l 1.2210022,-0.1508011 0.1021556,1.3134287 q 0.043781,0.6469853 0.6956307,0.6469853 0.4037577,0 0.5399651,-0.1653948 0.1362075,-0.1702592 0.1362075,-0.5983397 0,-0.068104 -0.00973,-0.2480921 -0.00973,-0.1848529 -0.024323,-0.4037577 -0.014594,-0.2189048 -0.029187,-0.3940286 l 1.2210022,-0.1508011 0.1021556,1.3134287 q 0.019458,0.2967376 0.1459365,0.4718614 0.1313429,0.1751239 0.4426741,0.1751239 0.2918731,0 0.3988932,-0.2286339 0.1118846,-0.2334985 0.1118846,-0.5545588 0,-0.2772794 -0.05351,-0.5691524 Q 6.2363542,-3.0549378 6.173115,-3.2933008 6.1147404,-3.5365283 6.0855531,-3.648413 l 1.2599186,-0.3453831 q 0.097291,0.3842995 0.1605302,0.8221091 0.063239,0.432945 0.063239,0.8610254 0,0.6032043 -0.1605302,1.1334403 Q 7.2530453,-0.65184979 6.8736103,-0.32592489 6.4941754,0 5.837461,0 5.3996515,0 5.0980493,-0.17998837 4.8013117,-0.35997675 4.5970006,-0.62266248 4.3489085,-0.35997675 4.0327127,-0.17998837 3.7213815,0 3.293301,0 Z m 35.27239,0 h -2.767929 v -7.0827858 h 2.510108 q 1.274512,0 1.994466,0.476726 0.719953,0.476726 0.719953,1.4690943 0,0.4815905 -0.233498,0.8902128 -0.233498,0.4086222 -0.773464,0.6129334 0.627527,0.1605301 0.890213,0.6032042 0.267551,0.4426741 0.267551,0.9437229 0,1.0361493 -0.666444,1.56152073 Q 39.840204,0 38.565691,0 Z M 38.30787,-5.8520544 h -0.924264 v 1.73178 h 0.9194 q 0.598339,0 0.86589,-0.2140402 0.26755,-0.2189048 0.26755,-0.6323916 0,-0.4718614 -0.26755,-0.6761726 -0.267551,-0.2091756 -0.861026,-0.2091756 z m 1.293971,3.745704 q 0,-0.4378096 -0.228634,-0.6956308 -0.22377,-0.2578212 -0.744276,-0.2578212 h -1.245325 v 1.8339356 h 1.182085 q 0.549695,0 0.792922,-0.2529566 0.243228,-0.2529566 0.243228,-0.627527 z"
         id="path16" />
      <path
         style="font-size:8.9664px;font-family:Vazirmatn"
         d="m 43.319576,10.312897 0.634828,0.634828 -0.634828,0.634828 -0.634828,-0.634828 z m 1.033238,4.916634 q -0.214528,0.06567 -0.437813,0.100697 -0.218906,0.03502 -0.472837,0.03502 -1.488563,0 -1.488563,-1.225875 0,-0.310847 0.09632,-0.63045 0.09632,-0.323981 0.2802,-0.591047 0.188259,-0.271443 0.459703,-0.433434 0.271444,-0.166369 0.626072,-0.166369 0.429056,0 0.735525,0.218907 0.310847,0.218906 0.507863,0.591046 0.201393,0.367763 0.297712,0.836222 0.09632,0.464082 0.09632,0.95881 0,0.65234 -0.113831,1.055128 -0.109454,0.398409 -0.359007,0.608559 -0.249553,0.205772 -0.661097,0.2802 -0.411543,0.07005 -1.011346,0.07005 h -1.44916 q -1.676822,0 -2.495531,-0.446568 -0.814331,-0.446569 -0.814331,-1.545479 0,-0.30209 0.06567,-0.591047 0.07005,-0.288956 0.179504,-0.556021 l 0.678609,0.253931 q -0.07005,0.192637 -0.118209,0.411544 -0.04378,0.218906 -0.04378,0.415921 0,0.512241 0.293335,0.788063 0.293334,0.271444 0.86249,0.372141 0.569157,0.100697 1.392244,0.100697 h 1.501697 q 0.516619,0 0.818709,-0.05692 0.306469,-0.05692 0.437813,-0.249553 0.135722,-0.197016 0.135722,-0.604182 z m -0.853735,-0.617315 q 0.205772,0 0.402788,-0.03503 0.197016,-0.0394 0.402787,-0.09632 -0.03502,-0.310847 -0.131343,-0.63045 -0.09194,-0.319603 -0.275822,-0.534131 -0.183881,-0.218906 -0.49035,-0.218906 -0.271444,0 -0.437813,0.170746 -0.16199,0.170747 -0.236418,0.407166 -0.07005,0.236419 -0.07005,0.437813 0,0.297712 0.214528,0.398409 0.218906,0.100697 0.621693,0.100697 z m -7.460326,-3.703894 h 0.739904 v 4.185488 q 0,0.617315 0.227662,0.831843 0.227663,0.214529 0.687366,0.214529 h 0.109453 V 16.937 h -0.109453 q -0.836222,0 -1.247766,-0.44219 -0.407166,-0.446569 -0.407166,-1.405379 z m -4.286183,1.781897 q 0.499107,0.35025 0.954432,0.696122 0.459703,0.341494 0.827465,0.744281 0.367763,0.398409 0.582291,0.928163 0.232041,0.564778 0.49035,0.823087 0.258309,0.25831 0.726769,0.25831 h 0.122587 V 16.937 h -0.122587 q -0.485972,0 -0.827466,-0.188259 -0.337116,-0.188259 -0.604181,-0.599803 -0.175125,0.258309 -0.429056,0.433434 -0.249554,0.175125 -0.656719,0.267066 Q 32.413667,16.937 31.770083,16.937 H 30.70182 v -0.796818 h 1.063885 q 0.849356,0 1.217119,-0.148857 0.367762,-0.153234 0.367762,-0.604181 0,-0.288956 -0.205772,-0.564778 -0.201394,-0.275822 -0.525375,-0.542888 -0.319603,-0.271443 -0.687365,-0.529753 -0.367763,-0.262687 -0.691744,-0.516619 -0.1401,-0.113831 -0.214528,-0.267065 -0.07443,-0.153235 -0.07443,-0.310847 0,-0.179503 0.09632,-0.337116 0.100697,-0.157612 0.310847,-0.240797 l 3.147872,-1.278412 v 0.774928 z m -4.132949,-1.510453 0.591047,0.591047 -0.591047,0.591047 -0.591047,-0.591047 z m 0.74866,1.107665 0.591047,0.591047 -0.591047,0.591047 -0.591047,-0.591047 z m -1.497319,0 0.591047,0.591047 -0.591047,0.591047 -0.591047,-0.591047 z M 26.682703,16.937 q -0.503485,0 -0.779307,-0.170747 -0.271443,-0.175125 -0.433434,-0.499106 -0.205772,0.323981 -0.525375,0.499106 Q 24.624984,16.937 24.033937,16.937 h -0.402788 v -0.796818 h 0.411544 q 0.5604,0 0.818709,-0.205772 0.25831,-0.21015 0.25831,-0.761794 0,-0.113831 -0.01313,-0.267066 -0.0088,-0.157612 -0.03065,-0.437812 l 0.731147,-0.09194 0.07005,0.915028 q 0.02627,0.367763 0.223284,0.60856 0.201394,0.240797 0.591047,0.240797 0.464081,0 0.63045,-0.249554 0.166369,-0.249553 0.166369,-0.718012 0,-0.113831 -0.01314,-0.271444 -0.0088,-0.157612 -0.03065,-0.433434 l 0.731147,-0.09194 0.07005,0.915028 q 0.02189,0.354628 0.18826,0.604182 0.166368,0.245175 0.538509,0.245175 0.363384,0 0.499106,-0.271444 0.135722,-0.271444 0.135722,-0.634828 0,-0.32836 -0.06567,-0.661097 -0.06129,-0.332738 -0.109453,-0.53851 l 0.748659,-0.201393 q 0.07881,0.293334 0.126966,0.626071 0.04816,0.32836 0.04816,0.656719 0,0.472838 -0.131343,0.88876 -0.131344,0.415922 -0.433435,0.674231 -0.297712,0.253931 -0.814331,0.258309 -0.4203,0 -0.678609,-0.175125 -0.25831,-0.175125 -0.4203,-0.494728 -0.245175,0.354628 -0.547266,0.512241 Q 27.032953,16.937 26.682703,16.937 Z m -3.42429,2.355432 -0.25831,-0.696122 q 1.068263,-0.232041 1.506075,-0.814332 0.437813,-0.577912 0.437813,-1.370353 0,-0.37214 -0.08318,-0.779306 -0.07881,-0.411544 -0.223285,-0.836222 l 0.726769,-0.245175 q 0.315225,0.897516 0.315225,1.72936 0,0.731146 -0.258309,1.35284 -0.253932,0.626072 -0.792441,1.059506 -0.534131,0.437813 -1.370353,0.599804 z m -2.368568,-3.143494 q 1.6812,0 1.6812,-0.871247 0,-0.411544 -0.4203,-0.871247 -0.4203,-0.459703 -1.392244,-0.989456 l 0.345872,-0.691744 q 1.125178,0.573534 1.668065,1.212741 0.547266,0.634828 0.547266,1.326571 0,0.823088 -0.569156,1.243388 -0.564778,0.4203 -1.795031,0.4203 -0.586669,0 -1.059507,-0.105075 v -0.792441 q 0.573535,0.11821 0.993835,0.11821 z m -2.78925,-0.520997 q 0.245175,-0.853735 0.639206,-1.339706 0.39841,-0.49035 1.085775,-0.49035 0.464082,0 0.827466,0.236418 0.363384,0.236419 0.573534,0.652341 0.214529,0.411544 0.214529,0.950053 0,0.591047 -0.32836,0.9807 -0.323981,0.389653 -1.006969,0.389653 -0.258309,0 -0.525375,-0.08318 -0.262687,-0.08318 -0.507862,-0.188259 -0.240797,-0.109454 -0.442191,-0.192638 -0.201393,-0.08318 -0.337115,-0.08318 -0.245175,0 -0.372141,0.16199 -0.122587,0.157613 -0.166369,0.53851 -0.0394,0.380897 -0.0394,1.055128 0,0.297712 0.0044,0.529753 0.0088,0.236419 0.02189,0.464081 0.01751,0.227663 0.03502,0.516619 h -0.753038 q -0.02189,-0.402788 -0.03502,-0.757416 -0.01313,-0.35025 -0.01313,-0.709256 0,-0.49035 0.02627,-0.932541 0.03065,-0.44219 0.135722,-0.796818 0.109453,-0.359007 0.337115,-0.591047 0.227663,-0.236419 0.626072,-0.310847 z m 2.600606,0.0044 q 0,-0.450947 -0.240796,-0.753038 -0.240797,-0.306468 -0.617316,-0.306468 -0.271444,0 -0.459703,0.170747 -0.18826,0.166368 -0.315225,0.44219 -0.126966,0.271444 -0.223285,0.582291 0.477216,0.21015 0.792441,0.332737 0.319603,0.11821 0.477216,0.11821 0.293334,0 0.437812,-0.157613 0.148856,-0.16199 0.148856,-0.429056 z M 14.86516,10.908322 h 0.739903 v 4.185488 q 0,0.617315 0.227663,0.831843 0.227662,0.214529 0.687365,0.214529 h 0.109453 V 16.937 h -0.109453 q -0.836222,0 -1.247765,-0.44219 -0.407166,-0.446569 -0.407166,-1.405379 z m -3.069065,0.367763 0.634828,0.634828 -0.634828,0.634828 -0.634829,-0.634828 z m 0.06129,2.132146 q 0.494728,0 0.875625,0.218907 0.385275,0.214528 0.604182,0.586668 0.218906,0.372141 0.218906,0.8406 -0.0044,0.560401 -0.341494,1.002591 0.122588,0.03065 0.328359,0.05692 0.21015,0.02627 0.60856,0.02627 H 14.28287 V 16.937 h -0.126966 q -0.556022,0 -0.919406,-0.113831 -0.359007,-0.113831 -0.604182,-0.315225 -0.359006,0.201394 -0.945675,0.315225 Q 11.099973,16.937 10.325044,16.937 H 8.0571757 V 16.140182 H 8.801457 q 0.083184,-0.1401 0.175125,-0.275822 0.091941,-0.1401 0.175125,-0.275822 v -4.680216 h 0.7399031 v 3.638222 q 0.4728379,-0.569156 0.9500529,-0.853734 0.481594,-0.284579 1.015725,-0.284579 z m 0.01751,0.796819 q -1.05075,0 -2.2766253,1.935132 h 0.7092563 q 1.247766,0 1.860703,-0.249554 0.612938,-0.249553 0.612938,-0.79244 0,-0.385275 -0.249553,-0.639207 Q 12.282066,14.20505 11.874901,14.20505 Z M 6.2139854,16.937 H 5.500351 v -0.796818 h 0.7048781 q 0.4378126,0 0.5910469,-0.253932 0.1576125,-0.253931 0.1576125,-0.643584 0,-0.284578 -0.052537,-0.60856 -0.052537,-0.323981 -0.1138312,-0.65234 l 0.7617937,-0.192638 q 0.074428,0.35025 0.1182094,0.687366 0.043781,0.337116 0.043781,0.643584 0,0.525375 -0.1444782,0.936919 Q 7.4223479,16.468541 7.0939885,16.70496 6.7656292,16.937 6.2139854,16.937 Z m 0.5341313,-5.166187 0.6348281,0.634828 -0.6348281,0.634828 -0.6348282,-0.634828 z"
         id="path17" />
      <path
         style="font-size:8.9664px;font-family:Vazirmatn"
         d="m 53.193916,26.948113 v 1.628662 h -0.665475 v -1.628662 h -1.457915 v -0.665475 h 1.457915 v -1.506075 h 0.665475 v 1.506075 h 1.457916 v 0.665475 z m -3.954046,-2.351053 0.612937,0.608559 -0.612937,0.617316 -0.60856,-0.617316 z m -1.453538,0 0.612938,0.608559 -0.612938,0.617316 -0.608559,-0.617316 z m 3.375534,1.707468 0.731147,-0.08756 0.07443,1.024481 q 0.02627,0.415922 0.236419,0.634828 0.214528,0.218906 0.639206,0.218906 h 0.105075 V 28.892 h -0.105075 q -0.494728,0 -0.814331,-0.183881 -0.315225,-0.188259 -0.520997,-0.599803 -0.363384,0.4203 -0.93254,0.604181 Q 50.01042,28.892 49.003451,28.892 h -0.731147 q -1.650553,0 -2.482397,-0.446569 -0.827466,-0.446568 -0.827466,-1.545478 0,-0.30209 0.06567,-0.591047 0.07005,-0.288956 0.179503,-0.556021 l 0.67861,0.253931 q -0.07005,0.192637 -0.11821,0.411544 -0.04378,0.218906 -0.04378,0.415921 0.0044,0.512241 0.288956,0.788063 0.284578,0.271444 0.849357,0.372141 0.564778,0.100696 1.409756,0.100696 h 0.731147 q 1.046372,0 1.619906,-0.218906 0.577913,-0.218906 0.577913,-0.796819 0,-0.179503 -0.01313,-0.385275 -0.0088,-0.205771 -0.02627,-0.389653 z m -9.522417,1.790653 h 0.950053 q 0.437812,0 0.591047,-0.253931 0.157612,-0.253931 0.157612,-0.643584 0,-0.284578 -0.05254,-0.60856 -0.05254,-0.323981 -0.113832,-0.65234 l 0.761794,-0.192638 q 0.07443,0.35025 0.11821,0.687366 0.04378,0.337116 0.04378,0.643584 0,0.525375 -0.144478,0.936919 -0.144478,0.411544 -0.472838,0.647963 -0.328359,0.23204 -0.880003,0.23204 h -0.958809 z m 1.580503,1.492941 0.612937,0.608559 -0.612937,0.617316 -0.60856,-0.617316 z m -1.453538,0 0.612938,0.608559 -0.612938,0.617316 -0.608559,-0.617316 z m -1.707469,-6.7248 h 0.739903 v 4.185488 q 0,0.617315 0.227662,0.831843 0.227663,0.214528 0.687366,0.214528 h 0.109453 V 28.892 h -0.109453 q -0.836222,0 -1.247766,-0.44219 -0.407165,-0.446569 -0.407165,-1.405379 z M 34.354247,28.892 H 34.16161 v -0.796819 h 0.170747 q 0.293334,0 0.494728,-0.166368 0.201393,-0.170747 0.359006,-0.437813 0.157612,-0.267065 0.310847,-0.564778 0.157612,-0.302091 0.35025,-0.569156 0.192637,-0.267066 0.464081,-0.433435 0.275822,-0.170746 0.67861,-0.170746 0.687365,0 1.068262,0.4203 0.380897,0.415921 0.512241,1.037615 0.08756,0.429056 0.297712,0.656719 0.214528,0.227662 0.494728,0.227662 h 0.113832 V 28.892 h -0.11821 q -0.2802,0 -0.547265,-0.113831 -0.267066,-0.118209 -0.433435,-0.372141 -0.183881,0.267066 -0.455325,0.429057 -0.271444,0.157612 -0.704878,0.157612 -0.437812,0 -0.809953,-0.188259 Q 36.039825,28.6118 35.641416,28.226525 35.356838,28.546128 35.09415,28.721253 34.831463,28.892 34.354247,28.892 Z m 2.653144,-2.364187 q -0.218906,0 -0.398409,0.148856 -0.179504,0.144478 -0.323982,0.376519 -0.144478,0.23204 -0.258309,0.481593 0.144478,0.148857 0.288956,0.267066 0.144478,0.118209 0.2802,0.201394 0.35025,0.214528 0.612938,0.214528 0.647962,0 0.647962,-0.652341 0,-0.455325 -0.227662,-0.744281 -0.223285,-0.293334 -0.621694,-0.293334 z m -8.852564,1.567368 h 0.744281 q 0.512241,0 0.941297,-0.09194 0.429057,-0.09194 0.836222,-0.253931 0.411544,-0.161991 0.858113,-0.380897 0.450947,-0.223285 1.006968,-0.477216 -0.310846,-0.113831 -0.643584,-0.245175 -0.332737,-0.135722 -0.634828,-0.253931 -0.297713,-0.11821 -0.520997,-0.192638 -0.223284,-0.07881 -0.315225,-0.07881 -0.267066,0 -0.472837,0.157613 -0.201394,0.153234 -0.372141,0.37214 l -0.118209,0.148856 -0.669854,-0.328359 0.06567,-0.105075 q 0.288957,-0.468459 0.669853,-0.748659 0.385275,-0.284578 0.901894,-0.284578 0.214528,0 0.516619,0.109453 0.306469,0.109453 0.665475,0.275822 0.359006,0.16199 0.744281,0.332737 0.385275,0.166369 0.77055,0.284578 0.385275,0.113831 0.735525,0.126966 v 0.757415 q -0.2802,0.03065 -0.718012,0.205772 -0.433435,0.170747 -1.129557,0.53851 -0.5604,0.297712 -1.041993,0.507862 -0.477216,0.205772 -0.976322,0.315225 Q 29.50329,28.892 28.885974,28.892 h -0.731147 z m 1.23862,-3.708272 0.634828,0.634829 -0.634828,0.634828 -0.634828,-0.634828 z m -1.602394,6.860522 -0.258309,-0.696121 q 1.068262,-0.232041 1.506075,-0.814332 0.437812,-0.577912 0.437812,-1.370353 0,-0.37214 -0.08318,-0.779306 -0.07881,-0.411544 -0.223284,-0.836222 l 0.726768,-0.245175 q 0.315225,0.897516 0.315225,1.729359 0,0.731147 -0.258309,1.352841 -0.253931,0.626072 -0.792441,1.059506 -0.534131,0.437813 -1.370353,0.599803 z m -0.262686,-8.384109 v 6.0243 h -0.739903 v -6.0243 z M 26.590855,28.892 H 25.87722 v -0.796819 h 0.704878 q 0.437813,0 0.591047,-0.253931 0.157613,-0.253931 0.157613,-0.643584 0,-0.284578 -0.05254,-0.60856 -0.05254,-0.323981 -0.113831,-0.65234 l 0.761794,-0.192638 q 0.07443,0.35025 0.118209,0.687366 0.04378,0.337116 0.04378,0.643584 0,0.525375 -0.144478,0.936919 -0.144478,0.411544 -0.472837,0.647963 -0.32836,0.23204 -0.880003,0.23204 z m 0.534131,-5.166187 0.634828,0.634828 -0.634828,0.634828 -0.634828,-0.634828 z m -2.83703,-0.862491 h 0.739903 v 4.185488 q 0,0.617315 0.227663,0.831843 0.227662,0.214528 0.687365,0.214528 h 0.109454 V 28.892 h -0.109454 q -0.836221,0 -1.247765,-0.44219 -0.407166,-0.446569 -0.407166,-1.405379 z M 22.98671,28.892 q -0.30209,0 -0.507862,-0.07881 -0.201394,-0.08318 -0.315225,-0.175125 -0.06567,0.573534 -0.319603,1.107666 -0.249553,0.538509 -0.753038,0.936918 -0.503484,0.39841 -1.33095,0.5604 L 19.501723,30.55131 q 1.068262,-0.232041 1.506075,-0.814332 0.437812,-0.577912 0.437812,-1.370353 0,-0.37214 -0.08318,-0.779306 -0.07881,-0.411544 -0.223284,-0.836222 l 0.726768,-0.245175 0.236419,0.915028 q 0.09632,0.367763 0.306469,0.520997 0.21015,0.153234 0.529753,0.153234 H 23.10492 V 28.892 Z m -6.221316,-5.301909 v -0.481594 l 3.327375,-1.348463 v 0.481594 z m 0.604181,1.055128 q 0.380897,0.267066 0.79244,0.564778 0.411544,0.293334 0.766172,0.63045 0.359007,0.332738 0.577913,0.713634 0.223284,0.376519 0.223284,0.805575 -0.0044,0.814332 -0.564778,1.173338 Q 18.608584,28.892 17.387087,28.892 h -1.068262 v -0.796819 h 1.063884 q 0.849356,0 1.217119,-0.148856 0.367762,-0.153234 0.367762,-0.604181 0,-0.288956 -0.205771,-0.564778 -0.201394,-0.275822 -0.525375,-0.542888 -0.319604,-0.271443 -0.687366,-0.529753 -0.367763,-0.262687 -0.691744,-0.516619 -0.1401,-0.113831 -0.214528,-0.267065 -0.07443,-0.153235 -0.07443,-0.306469 0,-0.179503 0.09632,-0.337116 0.100697,-0.16199 0.310847,-0.245175 l 3.147872,-1.278412 v 0.774928 z m -6.31287,1.571747 v 0.753037 q -1.2652783,0.100697 -2.232844,0.464082 -0.9675656,0.363384 -1.5148313,0.923784 -0.5428875,0.5604 -0.5428875,1.2609 0,1.536722 2.2416001,1.536722 0.4947281,0 1.0113467,-0.100697 0.520997,-0.09632 0.971944,-0.306469 l 0.197016,0.731147 q -0.459704,0.214528 -1.05075,0.323981 -0.5866692,0.113832 -1.1952286,0.113832 -0.8406,0 -1.5016969,-0.240797 -0.6567188,-0.236419 -1.0376156,-0.739903 -0.3765188,-0.499107 -0.3765188,-1.278413 0,-0.722391 0.3633844,-1.348462 Q 6.757386,27.67926 7.492911,27.2108 8.2328141,26.737963 9.3448579,26.492788 8.9858516,26.343931 8.6356016,26.203831 q -0.3458718,-0.1401 -0.6085593,-0.23204 -0.2583094,-0.09632 -0.3633844,-0.09632 -0.2670657,0 -0.4772157,0.1401 -0.21015,0.135722 -0.4115437,0.389653 L 6.6566891,26.554081 5.986836,26.225722 6.0525078,26.120647 q 0.3152251,-0.507862 0.7048782,-0.77055 0.3940312,-0.262687 0.91065,-0.262687 0.2714438,0 0.665475,0.166368 0.3984094,0.166369 0.8624906,0.385275 0.4640813,0.218907 0.9412974,0.394032 0.481593,0.170746 0.919406,0.183881 z m -8.3228166,1.768762 q 0.3283594,-0.09194 0.5866688,-0.2802 0.2583094,-0.192637 0.4071656,-0.556022 0.1488563,-0.367762 0.1488563,-0.989456 v -3.296728 h 0.7399031 v 3.528769 q 0,0.836222 0.2013938,1.269656 0.2013937,0.433434 0.7005,0.433434 H 5.6759885 V 28.892 H 5.5052416 q -0.5866688,0 -0.9018938,-0.2802 Q 4.2881228,28.327222 4.1436447,27.823738 3.7758822,28.366625 3.0622478,28.629313 2.3529915,28.892 1.4073165,28.892 q -0.1795031,0 -0.3677625,-0.0088 -0.18825936,-0.0088 -0.38089687,-0.02627 v -0.753037 q 0.27144376,0.01751 0.45970317,0.03065 0.1882593,0.0088 0.3765187,0.0088 0.1795032,0 0.3108469,0 0.1357219,-0.0044 0.2232844,-0.02189 0,0 -0.065672,-0.394031 Q 1.8976665,27.32901 1.7444322,26.654778 1.5911978,25.976169 1.3241321,25.126813 1.0614446,24.277456 0.66303526,23.375563 L 1.3416446,23.060338 q 0.3940313,0.93254 0.6610969,1.812543 0.2714438,0.880004 0.4290563,1.584882 0.1619906,0.7005 0.2320406,1.116422 z m -7.7273907,-0.02627 q 0.7793063,-1.33095 1.5323438,-1.9614 0.7530375,-0.634829 1.506075,-0.634829 0.4991063,0 0.8843813,0.218907 0.38965311,0.214528 0.60855936,0.586668 0.21890625,0.372141 0.21890625,0.8406 -0.004378,0.95881 -0.80557501,1.422891 Q -1.8500085,28.892 -3.4742929,28.892 h -0.2320406 q -0.9281625,0 -1.4141344,-0.175125 -0.4859719,-0.175125 -0.6873657,-0.49035 -0.2539312,0.345872 -0.5735343,0.507863 Q -6.6965929,28.892 -7.221968,28.892 h -0.1795031 l 0.00438,-0.796819 h 0.175125 q 0.6129376,0 0.8230876,-0.258309 0.2145281,-0.262687 0.2145281,-0.757416 0,-0.21015 -0.017513,-0.389653 -0.013134,-0.179503 -0.021891,-0.385275 l 0.7311469,-0.08756 0.065672,1.024481 q 0.021891,0.293334 0.1225875,0.507863 0.1006969,0.21015 0.3108469,0.21015 z m 3.0734438,-1.79941 q -1.0551281,0 -2.2810032,1.935131 h 0.7092563 q 1.2477657,0 1.8607032,-0.249553 0.6129375,-0.249553 0.6129375,-0.79244 0,-0.385275 -0.2495532,-0.639207 -0.245175,-0.253931 -0.6523406,-0.253931 z m -6.0637027,-3.296728 v 6.0243 h -0.7399032 v -6.0243 z"
         id="path18" />
      <path
         style="font-size:8.9664px;font-family:Vazirmatn"
         d="m 39.775254,38.071269 h -3.651357 v -0.661097 h 3.651357 z m 0,1.685578 h -3.651357 v -0.656719 h 3.651357 z m -4.777129,3.445584 -0.258309,-0.696121 q 1.068262,-0.232041 1.506075,-0.814332 0.437812,-0.577912 0.437812,-1.370353 0,-0.372141 -0.08318,-0.779306 -0.07881,-0.411544 -0.223285,-0.836222 l 0.726769,-0.245175 q 0.315225,0.897516 0.315225,1.729359 0,0.731147 -0.258309,1.352841 -0.253931,0.626072 -0.792441,1.059506 -0.534131,0.437813 -1.370353,0.599803 z m -0.262687,-8.384109 v 6.0243 h -0.739903 v -6.0243 z m -3.966581,-0.188259 0.634828,0.634828 -0.634828,0.634828 -0.634828,-0.634828 z m 0.744281,4.6233 q 0,-0.113832 -0.05254,-0.293335 -0.04816,-0.183881 -0.11821,-0.341494 l -0.774928,-1.755628 0.682988,-0.319603 0.993834,2.337919 q 0.201394,0.472837 0.35025,0.726769 0.153235,0.253931 0.297713,0.35025 0.148856,0.09194 0.337115,0.09194 h 0.183882 V 40.847 h -0.183882 q -0.345872,0 -0.564778,-0.08318 -0.214528,-0.08319 -0.37214,-0.249553 -0.157613,-0.166369 -0.319604,-0.4203 -0.306468,0.385275 -0.783684,0.569156 -0.472838,0.179503 -1.182094,0.179503 -0.306469,0 -0.551644,-0.02627 -0.245175,-0.03065 -0.464081,-0.08318 v -0.792441 q 0.503485,0.11821 0.950053,0.11821 1.571747,0 1.571747,-0.805575 z m -6.475247,-3.708272 v -0.481594 l 3.327375,-1.348463 v 0.481594 z m 0.604182,1.055128 q 0.380896,0.267065 0.79244,0.564778 0.411544,0.293334 0.766172,0.63045 0.359006,0.332737 0.577913,0.713634 0.223284,0.376519 0.223284,0.805575 -0.0044,0.814332 -0.564778,1.173338 Q 26.881082,40.847 25.659585,40.847 h -1.068262 v -0.796819 h 1.063884 q 0.849356,0 1.217119,-0.148856 0.367762,-0.153234 0.367762,-0.604181 0,-0.288956 -0.205772,-0.564778 -0.201393,-0.275822 -0.525375,-0.542888 -0.319603,-0.271444 -0.687365,-0.529753 -0.367763,-0.262687 -0.691744,-0.516619 -0.1401,-0.113831 -0.214528,-0.267065 -0.07443,-0.153235 -0.07443,-0.306469 0,-0.179503 0.09632,-0.337116 0.100697,-0.16199 0.310847,-0.245175 l 3.147872,-1.278412 v 0.774928 z m 0.187873,-0.25831 0.634828,0.634829 -0.634828,0.634828 -0.634828,-0.634828 z m -1.602394,6.860522 -0.258309,-0.696121 q 1.068263,-0.232041 1.506075,-0.814332 0.437813,-0.577912 0.437813,-1.370353 0,-0.372141 -0.08319,-0.779306 -0.07881,-0.411544 -0.223284,-0.836222 l 0.726769,-0.245175 q 0.315225,0.897516 0.315225,1.729359 0,0.731147 -0.25831,1.352841 -0.253931,0.626072 -0.79244,1.059506 -0.534132,0.437813 -1.370354,0.599803 z m -0.262686,-8.384109 v 6.0243 h -0.739903 v -6.0243 z M 21.083463,40.847 q -0.179504,0 -0.367763,-0.0088 -0.188259,-0.0088 -0.380897,-0.02627 v -0.753037 q 0.271444,0.01751 0.459703,0.03065 0.18826,0.0088 0.376519,0.0088 0.179503,0 0.310847,-0.0044 0.135722,-0.0044 0.223284,-0.01751 0,0 -0.06567,-0.394031 -0.06567,-0.39841 -0.218906,-1.072641 -0.153234,-0.678609 -0.4203,-1.527965 -0.262687,-0.849357 -0.661097,-1.75125 l 0.67861,-0.315225 q 0.394031,0.93254 0.661097,1.812543 0.271443,0.880003 0.429056,1.584882 0.161991,0.7005 0.232041,1.116421 0.07005,0.411544 0.07005,0.411544 0.328359,-0.09194 0.586668,-0.2802 0.25831,-0.192637 0.407166,-0.556022 0.148856,-0.367762 0.148856,-0.989456 v -3.296728 h 0.739903 v 3.309862 q 0,0.827466 -0.236418,1.361597 -0.236419,0.529753 -0.665475,0.827466 -0.429057,0.293334 -1.015725,0.411544 Q 21.788341,40.847 21.083463,40.847 Z m -2.89832,-6.028678 h 0.739903 v 4.185487 q 0,0.617316 0.227663,0.831844 0.227662,0.214528 0.687365,0.214528 h 0.109453 V 40.847 h -0.109453 q -0.836222,0 -1.247765,-0.442191 -0.407166,-0.446568 -0.407166,-1.405378 z M 15.584539,40.847 h -0.805575 v -0.796819 h 0.796819 q 0.437812,0 0.591047,-0.253931 0.157612,-0.253931 0.157612,-0.643584 0,-0.284578 -0.05254,-0.60856 -0.05254,-0.323981 -0.113832,-0.65234 l 0.761794,-0.192638 q 0.07443,0.35025 0.118209,0.687366 0.04378,0.337115 0.04378,0.643584 0,0.525375 -0.144478,0.936919 -0.144479,0.411544 -0.472838,0.647962 Q 16.136183,40.847 15.584539,40.847 Z m 0.09632,0.669853 0.634828,0.634828 -0.634828,0.634829 -0.634828,-0.634829 z"
         id="path19" />
    </g>
    <path
       id="path8"
       d="M 393.97928,42.52022 H 286.34413 c -5.50235,0 -9.96277,-4.46042 -9.96277,-9.96277 v -65.1149 c 0,-5.50235 4.46042,-9.96277 9.96277,-9.96277 h 107.63515 c 5.50236,0 9.96277,4.46042 9.96277,9.96277 v 65.1149 c 0,5.50235 -4.46041,9.96277 -9.96277,9.96277 z"
       style="fill:#f4edda;fill-opacity:1;fill-rule:nonzero;stroke:#b8860b;stroke-width:1.99255;stroke-linecap:butt;stroke-linejoin:miter;stroke-miterlimit:10;stroke-dasharray:none;stroke-opacity:1"
       transform="matrix(1.3333333,0,0,-1.3333333,106.29333,77.946667)" />
    <g
       id="text8"
       transform="matrix(1.3333333,0,0,1.3333333,531.656,53.612)"
       aria-label="یﻮﯾرﺎﻨﺳCﯽﺷﺎﭘوﺮﻓﯽﻧﺎﻬﮔﺎﻧ+ﺖﻟودﺖﻗﻮﻣیرﻮﻓ=ﺮﭘندﺮﮐﻸﺧ">
      <path
         style="font-weight:800;font-size:9.9626px;font-family:Vazirmatn"
         d="m 28.978127,2.4517335 q -1.045878,0 -1.726915,-0.3988931 -0.676173,-0.3988932 -1.002098,-1.08965937 -0.325925,-0.69076619 -0.325925,-1.55665621 0,-0.57888152 0.126479,-1.19667942 0.126478,-0.6226625 0.364841,-1.2404605 l 1.182086,0.4524032 q -0.179988,0.5156424 -0.301602,1.006962 -0.121614,0.4913197 -0.121614,0.91940011 0,0.46699686 0.165395,0.85616092 0.165394,0.38916405 0.559423,0.62266248 0.394029,0.23349839 1.07993,0.23349839 0.739412,0 1.230732,-0.17025923 0.491319,-0.16539472 0.734547,-0.3940286 0.243227,-0.22863388 0.243227,-0.40375771 0,-0.14107197 -0.175124,-0.14107197 h -0.788057 q -0.248092,0 -0.520507,-0.0486455 -0.26755,-0.04864551 -0.501048,-0.20917568 -0.233499,-0.16053017 -0.379435,-0.48159052 -0.141072,-0.32106039 -0.141072,-0.86102549 0,-0.5059132 0.165394,-0.9729101 0.165395,-0.4718614 0.471862,-0.8415673 0.311331,-0.3697058 0.744276,-0.5886106 0.432945,-0.2189048 0.97291,-0.2189048 0.364842,0 0.715089,0.1118847 0.355112,0.1070201 0.65185,0.3210603 l -0.447539,1.2404604 q -0.252956,-0.1410719 -0.486455,-0.194582 -0.228634,-0.058375 -0.423216,-0.058375 -0.525371,0 -0.822109,0.3453831 -0.296737,0.3405186 -0.296737,0.8512964 0,0.1313428 0.0827,0.1653947 0.08756,0.034052 0.21404,0.034052 h 0.710225 q 0.559423,0 0.875619,0.1751238 0.32106,0.1751238 0.452403,0.48645504 0.136207,0.30646669 0.136207,0.7004953 0,0.69563074 -0.398893,1.27451226 -0.398893,0.5788815 -1.162627,0.9242646 -0.763735,0.3453831 -1.858259,0.3453831 z M 23.23796,-4.0229834 q 0.612933,0 1.041014,0.3648413 0.42808,0.3648413 0.671308,0.963181 0.243227,0.5934752 0.291873,1.289106 h 0.364841 V 0 h -0.462132 q -0.277279,1.1091176 -1.089659,1.7415091 -0.81238,0.6372562 -2.218236,0.909671 l -0.48159,-1.298835 Q 21.968312,1.2355959 22.488819,1.0410138 23.014191,0.84643182 23.374167,0.58374608 23.739009,0.32106034 23.860623,0 h -0.457268 q -0.982639,0 -1.498282,-0.40862226 -0.515642,-0.4134868 -0.515642,-1.33288684 0,-0.3599768 0.111884,-0.7540054 0.111885,-0.3988931 0.340519,-0.7442762 0.228634,-0.3502477 0.574017,-0.5642879 0.350248,-0.2189048 0.822109,-0.2189048 z m 0.16053,2.6171283 h 0.622663 q -0.02919,-0.2724149 -0.11675,-0.5594234 -0.0827,-0.2870085 -0.248092,-0.4815905 -0.16053,-0.194582 -0.42808,-0.194582 -0.228634,0 -0.364841,0.1459365 -0.131343,0.141072 -0.189718,0.3405186 -0.05351,0.194582 -0.05351,0.3599767 0,0.2578212 0.21404,0.3259249 0.218905,0.063239 0.564288,0.063239 z M 18.704197,0 h -1.045878 v -1.4058551 h 1.050743 q 0.369706,0 0.505913,-0.2286339 0.141072,-0.2334985 0.141072,-0.5886107 0,-0.3307894 -0.0827,-0.7199535 -0.07783,-0.3940286 -0.160531,-0.768599 l 1.274513,-0.3307894 q 0.09243,0.4572678 0.145936,0.909671 0.05838,0.4475386 0.05838,0.8561609 0,0.6469852 -0.175124,1.1626276 -0.170259,0.51564237 -0.583746,0.81724451 Q 19.419286,0 18.704197,0 Z M 17.784797,0.62266248 18.611771,1.439907 19.429015,0.62266248 20.260853,1.4496361 19.429015,2.2863388 18.611771,1.4593652 17.784797,2.2863388 16.957823,1.4496361 Z M 14.340695,2.6560447 13.844511,1.3523451 q 0.70536,-0.1508011 1.211273,-0.40375772 0.510778,-0.24809208 0.788057,-0.66644344 0.27728,-0.41835136 0.27728,-1.07993025 0,-0.44267409 -0.141072,-0.99236829 -0.141072,-0.5545588 -0.301602,-1.0312848 l 1.313428,-0.4232159 q 0.189718,0.530236 0.287009,1.1431694 0.102155,0.6129334 0.102155,1.17722127 0,1.02155564 -0.379435,1.75123824 Q 16.627034,1.5615208 15.941132,2.013924 15.260095,2.4711917 14.340695,2.6560447 Z M 11.995982,-6.8201 h 1.313429 v 4.4461993 q 0,0.5156423 0.150801,0.7442762 0.150801,0.2237694 0.622662,0.2237694 h 0.121614 V 0 H 14.082874 Q 12.993215,0 12.492166,-0.56428788 11.995982,-1.1285758 11.995982,-2.2571515 Z m -2.7582001,3.4781537 1.2161381,-0.1508011 0.09729,1.3912615 q 0.02432,0.3697059 0.204311,0.5351006 0.179988,0.1605302 0.574017,0.1605302 h 0.102155 V 0 H 11.31981 Q 10.833355,0 10.483107,-0.17512382 10.137724,-0.35024765 9.9139545,-0.63239159 9.6172169,-0.335654 9.2085946,-0.16539472 8.8048369,0 8.3475692,0 H 7.8805723 v -1.4058551 h 0.4669969 q 0.5351005,0 0.7345471,-0.1799884 0.2043111,-0.1848529 0.2043111,-0.671308 0,-0.2870085 -0.014594,-0.5545588 -0.014594,-0.2724148 -0.034052,-0.530236 z M 9.5053322,-5.9201582 10.380951,-5.044539 9.5053322,-4.1737845 8.6345777,-5.044539 Z M 3.293301,0 Q 2.8019814,0 2.4663274,-0.16539472 2.135538,-0.335654 1.9214977,-0.61293338 1.6539475,-0.33078944 1.2842416,-0.16539472 0.91453575,0 0.35024787,0 h -0.44753866 v -1.4058551 h 0.45726777 q 0.53510057,0 0.75886992,-0.1313429 0.2286339,-0.1313429 0.2286339,-0.6323916 0,-0.077833 -0.00973,-0.2578212 -0.00973,-0.1799884 -0.024323,-0.3940286 -0.014594,-0.2189048 -0.029187,-0.3940286 l 1.2210022,-0.1508011 0.1021556,1.3134287 q 0.043781,0.6469853 0.6956307,0.6469853 0.4037577,0 0.5399651,-0.1653948 0.1362075,-0.1702592 0.1362075,-0.5983397 0,-0.068104 -0.00973,-0.2480921 -0.00973,-0.1848529 -0.024323,-0.4037577 -0.014594,-0.2189048 -0.029187,-0.3940286 l 1.2210022,-0.1508011 0.1021556,1.3134287 q 0.019458,0.2967376 0.1459365,0.4718614 0.1313429,0.1751239 0.4426741,0.1751239 0.2918731,0 0.3988932,-0.2286339 0.1118846,-0.2334985 0.1118846,-0.5545588 0,-0.2772794 -0.05351,-0.5691524 Q 6.2363542,-3.0549378 6.173115,-3.2933008 6.1147404,-3.5365283 6.0855531,-3.648413 l 1.2599186,-0.3453831 q 0.097291,0.3842995 0.1605302,0.8221091 0.063239,0.432945 0.063239,0.8610254 0,0.6032043 -0.1605302,1.1334403 Q 7.2530453,-0.65184979 6.8736103,-0.32592489 6.4941754,0 5.837461,0 5.3996515,0 5.0980493,-0.17998837 4.8013117,-0.35997675 4.5970006,-0.62266248 4.3489085,-0.35997675 4.0327127,-0.17998837 3.7213815,0 3.293301,0 Z m 36.57609,-2.3739007 h 1.576114 q -0.03892,0.7296826 -0.394028,1.2891059 -0.355112,0.55455878 -0.992369,0.87075457 -0.632391,0.31133124 -1.503146,0.31133124 -0.924264,0 -1.590708,-0.4134868 -0.661579,-0.41835136 -1.016691,-1.18208581 -0.355112,-0.768599 -0.355112,-1.8242065 v -0.432945 q 0,-1.0556075 0.364841,-1.8242065 0.369706,-0.768599 1.031285,-1.1869504 0.666443,-0.4183513 1.561521,-0.4183513 0.904806,0 1.527469,0.3259249 0.622662,0.3259249 0.963181,0.8950773 0.345383,0.5691524 0.413486,1.298835 h -1.580979 q -0.03405,-0.6226625 -0.330789,-0.9485874 -0.291873,-0.3259249 -0.992368,-0.3259249 -0.681037,0 -1.016691,0.520507 -0.335654,0.5205069 -0.335654,1.6539472 v 0.4426741 q 0,1.1139821 0.311331,1.6442181 0.311331,0.530236 1.045878,0.530236 1.240461,0 1.313429,-1.2258667 z"
         id="path20" />
      <path
         style="font-size:8.9664px;font-family:Vazirmatn"
         d="m 45.676729,19.191735 q -0.945675,0 -1.514832,-0.345872 -0.564778,-0.345872 -0.818709,-0.923785 -0.249553,-0.573534 -0.249553,-1.2609 0,-0.297712 0.04378,-0.687365 0.04816,-0.389653 0.214528,-0.88876 l 0.696122,0.25831 q -0.126965,0.437812 -0.166369,0.774928 -0.03503,0.337116 -0.03503,0.569156 0,0.472838 0.166369,0.862491 0.166369,0.389653 0.564778,0.621694 0.402788,0.23204 1.09891,0.23204 0.656719,0 1.125178,-0.16199 0.472837,-0.161991 0.722391,-0.385275 0.253931,-0.223285 0.253931,-0.407166 0,-0.21015 -0.183881,-0.359006 -0.179504,-0.148857 -0.586669,-0.148857 h -0.647963 q -0.08756,0 -0.126965,-0.07443 -0.0394,-0.07881 -0.07443,-0.201393 l -0.11821,-0.4203 q -0.0044,-0.03502 0.01751,-0.06567 0.02189,-0.03503 0.07881,-0.03503 h 2.429859 v 0.796818 h -0.179503 q 0.06567,0.131344 0.08319,0.249554 0.02189,0.118209 0.02189,0.245175 0,0.288956 -0.170747,0.595425 -0.166368,0.310846 -0.516618,0.573534 -0.345872,0.262687 -0.875625,0.424678 -0.529754,0.161991 -1.252144,0.161991 z m -6.18629,-8.011969 0.591047,0.591047 -0.591047,0.591047 -0.591047,-0.591047 z m 0.748659,1.107665 0.591047,0.591047 -0.591047,0.591047 -0.591047,-0.591047 z m -1.497318,0 0.591046,0.591047 -0.591046,0.591047 -0.591047,-0.591047 z M 38.55352,16.937 q -0.503484,0 -0.779306,-0.170747 Q 37.50277,16.591128 37.34078,16.267147 37.135008,16.591128 36.815405,16.766253 36.495801,16.937 35.904755,16.937 h -0.402788 v -0.796818 h 0.411544 q 0.5604,0 0.818709,-0.205772 0.25831,-0.21015 0.25831,-0.761794 0,-0.113831 -0.01313,-0.267066 -0.0088,-0.157612 -0.03065,-0.437812 l 0.731147,-0.09194 0.07005,0.915028 q 0.02627,0.367763 0.223285,0.60856 0.201393,0.240797 0.591046,0.240797 0.464082,0 0.63045,-0.249554 0.166369,-0.249553 0.166369,-0.718012 0,-0.113831 -0.01313,-0.271444 -0.0088,-0.157612 -0.03065,-0.433434 l 0.731147,-0.09194 0.07005,0.915028 q 0.02189,0.354628 0.188259,0.604182 0.166369,0.245175 0.53851,0.245175 0.363384,0 0.499106,-0.271444 0.135722,-0.271444 0.135722,-0.634828 0,-0.32836 -0.06567,-0.661097 -0.06129,-0.332738 -0.109453,-0.53851 l 0.748659,-0.201393 q 0.07881,0.293334 0.126966,0.626071 0.04816,0.32836 0.04816,0.656719 0,0.472838 -0.131344,0.88876 -0.131343,0.415922 -0.433434,0.674231 -0.297713,0.253931 -0.814331,0.258309 -0.4203,0 -0.67861,-0.175125 -0.258309,-0.175125 -0.4203,-0.494728 -0.245175,0.354628 -0.547265,0.512241 Q 38.90377,16.937 38.55352,16.937 Z m -4.640813,-6.028678 h 0.739903 v 4.185488 q 0,0.617315 0.227662,0.831843 0.227663,0.214529 0.687366,0.214529 h 0.109453 V 16.937 h -0.109453 q -0.836222,0 -1.247766,-0.44219 -0.407165,-0.446569 -0.407165,-1.405379 z m -3.559416,5.23186 h 0.950054 q 0.437812,0 0.591047,-0.253932 0.157612,-0.253931 0.157612,-0.643584 0,-0.284578 -0.05254,-0.60856 -0.05254,-0.323981 -0.113832,-0.65234 l 0.761794,-0.192638 q 0.07443,0.35025 0.118209,0.687366 0.04378,0.337116 0.04378,0.643584 0,0.525375 -0.144478,0.936919 -0.144479,0.411544 -0.472838,0.647963 -0.328359,0.23204 -0.880003,0.23204 h -0.95881 z m 1.584882,1.348462 0.591047,0.591047 -0.591047,0.591047 -0.591047,-0.591047 z m -1.497319,0 0.591047,0.591047 -0.591047,0.591047 -0.591047,-0.591047 z m 0.748659,1.107666 0.591047,0.591047 -0.591047,0.591046 -0.591047,-0.591046 z m -1.173336,-2.407969 q 0,2.556825 -2.806378,3.095334 l -0.25831,-0.696122 q 1.006969,-0.192637 1.606772,-0.643584 0.599803,-0.446569 0.709257,-1.125178 -0.166369,0.05254 -0.385275,0.09194 -0.218907,0.0394 -0.385275,0.0394 -1.598016,0 -1.598016,-1.357219 0,-0.323981 0.09632,-0.647963 0.100697,-0.328359 0.288956,-0.599803 0.192637,-0.275822 0.468459,-0.44219 0.275822,-0.166369 0.626072,-0.166369 0.415922,0 0.722391,0.205772 0.310847,0.205772 0.51224,0.556022 0.201394,0.35025 0.302091,0.788062 0.100697,0.437813 0.100697,0.901894 z m -1.497319,-0.03065 q 0.385275,0 0.766172,-0.113831 -0.04378,-0.735525 -0.271444,-1.125178 -0.227662,-0.394032 -0.643584,-0.394032 -0.288956,0 -0.450947,0.179503 -0.157612,0.179504 -0.223284,0.424679 -0.06129,0.240796 -0.06129,0.437812 0,0.319603 0.218906,0.455325 0.218906,0.135722 0.665475,0.135722 z M 26.309341,16.937 q -0.302091,0 -0.507863,-0.07881 -0.201394,-0.08318 -0.315225,-0.175125 -0.06567,0.573534 -0.319603,1.107666 -0.249553,0.538509 -0.753037,0.936918 -0.503485,0.39841 -1.33095,0.5604 l -0.25831,-0.691743 q 1.068263,-0.232041 1.506075,-0.814332 0.437813,-0.577912 0.437813,-1.370353 0,-0.37214 -0.08319,-0.779306 -0.07881,-0.411544 -0.223284,-0.836222 l 0.726769,-0.245175 0.236418,0.915028 q 0.09632,0.367763 0.306469,0.520997 0.21015,0.153235 0.529753,0.153235 H 26.42755 V 16.937 Z m -5.008577,-6.580322 0.634828,0.634828 -0.634828,0.634829 -0.634828,-0.634829 z m -0.332737,5.783504 q 0.494728,0 0.796818,-0.05692 0.306469,-0.05692 0.446569,-0.249553 0.144478,-0.197016 0.144478,-0.60856 -0.214528,0.06567 -0.437812,0.100697 -0.218907,0.03502 -0.472838,0.03502 -1.488562,0 -1.488562,-1.221497 0,-0.4203 0.166368,-0.8406 0.170747,-0.4203 0.499107,-0.7005 0.328359,-0.284578 0.796818,-0.284578 0.429057,0 0.735525,0.218906 0.310847,0.218907 0.507863,0.591047 0.201394,0.367763 0.297712,0.836222 0.09632,0.464081 0.09632,0.95881 0,0.65234 -0.118209,1.055128 -0.113831,0.398409 -0.367763,0.608559 -0.253931,0.205772 -0.661097,0.2802 -0.407165,0.07443 -0.993834,0.07443 h -1.61115 v -0.796818 z m 0.538509,-1.532344 q 0.201394,0 0.398409,-0.03502 0.201394,-0.0394 0.402788,-0.09632 -0.03502,-0.310847 -0.131344,-0.63045 -0.09194,-0.319603 -0.275822,-0.534131 -0.183881,-0.218907 -0.49035,-0.218907 -0.271444,0 -0.437812,0.170747 -0.161991,0.170747 -0.236419,0.407166 -0.07005,0.236419 -0.07005,0.437812 0,0.302091 0.214528,0.402788 0.218906,0.09632 0.626072,0.09632 z m -2.522606,4.583897 q -0.945675,0 -1.514831,-0.345872 -0.564778,-0.345872 -0.81871,-0.923785 -0.249553,-0.573534 -0.249553,-1.2609 0,-0.297712 0.04378,-0.687365 0.04816,-0.389653 0.214528,-0.88876 l 0.696122,0.25831 q -0.126966,0.437812 -0.166369,0.774928 -0.03503,0.337116 -0.03503,0.569156 0,0.472838 0.166369,0.862491 0.166368,0.389653 0.564778,0.621694 0.402787,0.23204 1.098909,0.23204 0.656719,0 1.125178,-0.16199 0.472838,-0.161991 0.722391,-0.385275 0.253931,-0.223285 0.253931,-0.407166 0,-0.21015 -0.183881,-0.359006 -0.179503,-0.148857 -0.586669,-0.148857 h -0.647962 q -0.08756,0 -0.126966,-0.07443 -0.0394,-0.07881 -0.07443,-0.201393 l -0.118209,-0.4203 q -0.0044,-0.03502 0.01751,-0.06567 0.02189,-0.03503 0.07881,-0.03503 h 2.42986 v 0.796818 H 21.69399 q 0.06567,0.131344 0.08318,0.249554 0.02189,0.118209 0.02189,0.245175 0,0.288956 -0.170747,0.595425 -0.166369,0.310846 -0.516619,0.573534 -0.345872,0.262687 -0.875625,0.424678 -0.529753,0.161991 -1.252144,0.161991 z M 14.036648,16.937 h -0.713634 v -0.796818 h 0.704878 q 0.437812,0 0.591047,-0.253932 0.157612,-0.253931 0.157612,-0.643584 0,-0.284578 -0.05254,-0.60856 -0.05254,-0.323981 -0.113831,-0.65234 l 0.761793,-0.192638 q 0.07443,0.35025 0.11821,0.687366 0.04378,0.337116 0.04378,0.643584 0,0.525375 -0.144478,0.936919 -0.144478,0.411544 -0.472838,0.647963 -0.328359,0.23204 -0.880003,0.23204 z m 0.534131,-5.166187 0.634829,0.634828 -0.634829,0.634828 -0.634828,-0.634828 z m -2.837025,-0.862491 h 0.739903 v 4.185488 q 0,0.617315 0.227662,0.831843 0.227663,0.214529 0.687366,0.214529 h 0.109453 V 16.937 h -0.109453 q -0.836222,0 -1.247766,-0.44219 -0.407165,-0.446569 -0.407165,-1.405379 z M 6.5106521,16.937 V 16.140182 H 7.416924 v -0.07881 q 0,-0.468459 0.083184,-0.950053 0.087562,-0.485972 0.2714437,-0.893137 0.1838813,-0.411544 0.4815938,-0.661097 0.3020906,-0.249553 0.7311469,-0.249553 0.5560219,0 0.8712469,0.389653 0.3152253,0.389653 0.3152253,1.015725 0,0.407165 -0.161991,0.801197 -0.1619906,0.394031 -0.4421906,0.718012 -0.2802,0.323981 -0.6392062,0.516619 -0.3590063,0.192637 -0.7530375,0.192637 0.087562,0.367763 0.3458718,0.74866 0.2583094,0.380897 0.6435844,0.63045 0,-2.180306 1.8431911,-2.180306 h 0.144478 V 16.937 H 10.99823 q -0.586668,0 -0.884381,0.319603 -0.2933343,0.319604 -0.2933343,1.081397 0,0.09632 0.00438,0.201394 0.00438,0.109453 0.013134,0.214528 L 9.2951397,19.283675 Q 8.5508584,18.907157 8.0867772,18.289841 7.6226959,17.676903 7.4782178,16.937 Z m 2.4648844,-2.858915 q -0.2626875,0 -0.4509468,0.262687 -0.1882594,0.262688 -0.2889563,0.713634 -0.096319,0.446569 -0.096319,1.002591 v 0.08756 q 0.3677625,0 0.6698531,-0.197016 0.3020906,-0.197016 0.4815937,-0.520997 0.1795032,-0.328359 0.1795032,-0.713634 0,-0.310847 -0.1401,-0.472838 -0.1357219,-0.16199 -0.3546282,-0.16199 z M 2.9775055,11.635091 V 11.153497 L 6.3048806,9.8050345 v 0.4815935 z m 0.6041813,1.055128 q 0.3808969,0.267066 0.7924406,0.564778 0.4115438,0.293334 0.7661719,0.63045 0.3590063,0.332738 0.5779125,0.713634 0.2232844,0.376519 0.2232844,0.805575 -0.00438,0.814332 -0.5647781,1.173338 Q 4.8206962,16.937 3.5991993,16.937 H 2.5309368 v -0.796818 h 1.0638844 q 0.8493562,0 1.2171187,-0.148857 0.3677625,-0.153234 0.3677625,-0.604181 0,-0.288956 -0.2057718,-0.564778 Q 4.7725368,14.546544 4.4485556,14.279478 4.1289524,14.008035 3.7611899,13.749725 3.3934274,13.487038 3.0694462,13.233106 q -0.1401,-0.113831 -0.2145282,-0.267065 -0.074428,-0.153235 -0.074428,-0.306469 0,-0.179503 0.096319,-0.337116 0.1006968,-0.16199 0.3108468,-0.245175 l 3.147872,-1.278412 v 0.774928 z M 0.94167654,10.908322 H 1.6815797 v 4.185488 q 0,0.617315 0.2276625,0.831843 0.2276625,0.214529 0.6873656,0.214529 H 2.7060609 V 16.937 H 2.5966078 q -0.8362219,0 -1.2477656,-0.44219 Q 0.94167654,16.048241 0.94167654,15.089431 Z M -1.6589294,16.937 h -0.7136344 v -0.796818 h 0.7048782 q 0.4378125,0 0.5910468,-0.253932 0.15761254,-0.253931 0.15761254,-0.643584 0,-0.284578 -0.0525375,-0.60856 -0.0525375,-0.323981 -0.11383124,-0.65234 l 0.76179375,-0.192638 q 0.0744281,0.35025 0.11820938,0.687366 0.0437812,0.337116 0.0437812,0.643584 0,0.525375 -0.14447813,0.936919 -0.14447812,0.411544 -0.4728375,0.647963 Q -1.1072856,16.937 -1.6589294,16.937 Z m 0.5341313,-5.166187 0.6348281,0.634828 -0.6348281,0.634828 -0.6348282,-0.634828 z"
         id="path21" />
      <path
         style="font-size:8.9664px;font-family:Vazirmatn"
         d="m 51.180692,26.948113 v 1.628662 h -0.665475 v -1.628662 h -1.457916 v -0.665475 h 1.457916 v -1.506075 h 0.665475 v 1.506075 h 1.457915 v 0.665475 z m -3.954047,-2.351053 0.612937,0.608559 -0.612937,0.617316 -0.608559,-0.617316 z m -1.453538,0 0.612938,0.608559 -0.612938,0.617316 -0.608559,-0.617316 z m 3.375535,1.707468 0.731147,-0.08756 0.07443,1.024481 q 0.02627,0.415922 0.236419,0.634828 0.214528,0.218906 0.639206,0.218906 h 0.105075 V 28.892 h -0.105075 q -0.494728,0 -0.814331,-0.183881 -0.315225,-0.188259 -0.520997,-0.599803 -0.363385,0.4203 -0.932541,0.604181 Q 47.997195,28.892 46.990226,28.892 h -0.731147 q -1.650553,0 -2.482397,-0.446569 -0.827465,-0.446568 -0.827465,-1.545478 0,-0.30209 0.06567,-0.591047 0.07005,-0.288956 0.179503,-0.556021 l 0.678609,0.253931 q -0.07005,0.192637 -0.118209,0.411544 -0.04378,0.218906 -0.04378,0.415921 0.0044,0.512241 0.288956,0.788063 0.284578,0.271444 0.849356,0.372141 0.564778,0.100696 1.409756,0.100696 h 0.731147 q 1.046372,0 1.619906,-0.218906 0.577913,-0.218906 0.577913,-0.796819 0,-0.179503 -0.01313,-0.385275 -0.0088,-0.205771 -0.02627,-0.389653 z m -9.303514,1.790653 h 0.367763 q 0.525375,0 0.709256,-0.297712 0.183881,-0.297713 0.183881,-0.744281 v -4.189866 h 0.739903 v 4.185488 q 0,0.91065 -0.394031,1.379109 Q 41.057869,28.892 40.208512,28.892 h -0.363384 z m -0.345871,0.04816 q 0,2.556825 -2.806378,3.095334 L 36.43457,30.542553 q 1.006969,-0.192637 1.606772,-0.643584 0.599803,-0.446569 0.709256,-1.125178 -0.166369,0.05254 -0.385275,0.09194 -0.218906,0.0394 -0.385275,0.0394 -1.598016,0 -1.598016,-1.357219 0,-0.323981 0.09632,-0.647963 0.100697,-0.328359 0.288956,-0.599803 0.192638,-0.275822 0.46846,-0.44219 0.275822,-0.166369 0.626072,-0.166369 0.415921,0 0.72239,0.205772 0.310847,0.205772 0.512241,0.556022 0.201394,0.35025 0.30209,0.788062 0.100697,0.437813 0.100697,0.901894 z m -1.497318,-0.03065 q 0.385275,0 0.766171,-0.113831 -0.04378,-0.735525 -0.271443,-1.125178 -0.227663,-0.394032 -0.643585,-0.394032 -0.288956,0 -0.450947,0.179503 -0.157612,0.179504 -0.223284,0.424679 -0.06129,0.240796 -0.06129,0.437812 0,0.319603 0.218907,0.455325 0.218906,0.135722 0.665475,0.135722 z m -4.916634,-0.0088 q 1.6812,0 1.6812,-0.871247 0,-0.411544 -0.4203,-0.871247 -0.4203,-0.459703 -1.392244,-0.989456 l 0.345872,-0.691744 q 1.125178,0.573534 1.668066,1.212741 0.547265,0.634828 0.547265,1.326571 0,0.823088 -0.569156,1.243388 -0.564778,0.4203 -1.795031,0.4203 -0.586669,0 -1.059506,-0.105075 v -0.792441 q 0.573534,0.11821 0.993834,0.11821 z m -2.636019,-3.506878 0.612937,0.608559 -0.612937,0.617316 -0.608559,-0.617316 z m -1.453538,0 0.612938,0.608559 -0.612938,0.617316 -0.608559,-0.617316 z m 3.375535,1.707468 0.731147,-0.08756 0.07443,1.024481 q 0.02627,0.415922 0.236419,0.634828 0.214528,0.218906 0.639206,0.218906 h 0.105075 V 28.892 h -0.105075 q -0.494728,0 -0.814331,-0.183881 -0.315225,-0.188259 -0.520997,-0.599803 -0.363385,0.4203 -0.932541,0.604181 Q 31.219836,28.892 30.212867,28.892 H 29.48172 q -1.650553,0 -2.482397,-0.446569 -0.827465,-0.446568 -0.827465,-1.545478 0,-0.30209 0.06567,-0.591047 0.07005,-0.288956 0.179503,-0.556021 l 0.678609,0.253931 q -0.07005,0.192637 -0.118209,0.411544 -0.04378,0.218906 -0.04378,0.415921 0.0044,0.512241 0.288957,0.788063 0.284578,0.271444 0.849356,0.372141 0.564778,0.100696 1.409756,0.100696 h 0.731147 q 1.046372,0 1.619906,-0.218906 0.577913,-0.218906 0.577913,-0.796819 0,-0.179503 -0.01313,-0.385275 -0.0088,-0.205771 -0.02627,-0.389653 z m -8.090774,-3.909665 0.612938,0.608559 -0.612938,0.617316 -0.608559,-0.617316 z m -1.453537,0 0.612937,0.608559 -0.612937,0.617316 -0.608559,-0.617316 z m 0.389653,5.700318 q 0.494728,0 0.796819,-0.05692 0.306469,-0.05692 0.446569,-0.249553 0.144478,-0.197016 0.144478,-0.60856 -0.214528,0.06567 -0.437813,0.100697 -0.218906,0.03502 -0.472837,0.03502 -1.488563,0 -1.488563,-1.221497 0,-0.4203 0.166369,-0.8406 0.170747,-0.4203 0.499106,-0.7005 0.32836,-0.284578 0.796819,-0.284578 0.429056,0 0.735525,0.218906 0.310847,0.218907 0.507862,0.591047 0.201394,0.367763 0.297713,0.836222 0.09632,0.464081 0.09632,0.95881 0,0.65234 -0.11821,1.055128 -0.113831,0.398409 -0.367762,0.608559 -0.253931,0.205772 -0.661097,0.2802 -0.407166,0.07443 -0.993834,0.07443 h -1.61115 v -0.796819 z m 0.538509,-1.532343 q 0.201394,0 0.39841,-0.03503 0.201394,-0.0394 0.402787,-0.09632 -0.03503,-0.310847 -0.131343,-0.63045 -0.09194,-0.319603 -0.275822,-0.534131 -0.183882,-0.218907 -0.49035,-0.218907 -0.271444,0 -0.437813,0.170747 -0.16199,0.170747 -0.236419,0.407166 -0.07005,0.236419 -0.07005,0.437812 0,0.302091 0.214529,0.402788 0.218906,0.09632 0.626071,0.09632 z m -4.194243,-0.871247 q 0.682987,0 1.151447,0.612937 0.468459,0.60856 0.485971,1.790653 h 0.529754 V 28.892 h -0.599804 q -0.09632,0.503485 -0.385275,0.971944 -0.284578,0.472837 -0.849356,0.831844 -0.564778,0.363384 -1.497319,0.542887 L 18.138,30.542553 Q 20.121291,30.161656 20.436516,28.892 h -0.691744 q -1.65931,0 -1.65931,-1.344084 0,-0.429056 0.170747,-0.858113 0.175125,-0.429056 0.503485,-0.713634 0.332737,-0.284578 0.801197,-0.284578 z m 0.1401,2.40359 h 0.774928 q -0.05254,-0.844978 -0.2802,-1.230253 -0.223285,-0.385275 -0.647963,-0.385275 -0.2802,0 -0.44219,0.179503 -0.157613,0.179504 -0.223285,0.424679 -0.06129,0.240796 -0.06129,0.437812 0,0.306469 0.205772,0.442191 0.21015,0.131343 0.674232,0.131343 z m -3.861507,0.897516 q -0.437812,0 -0.809953,-0.188259 Q 14.661769,28.6118 14.263359,28.226525 13.978781,28.546128 13.716094,28.721253 13.453406,28.892 12.976191,28.892 H 12.783553 V 28.095181 H 12.9543 q 0.293334,0 0.494728,-0.166368 0.201394,-0.170747 0.359006,-0.437813 0.157613,-0.267065 0.310847,-0.564778 0.157613,-0.302091 0.35025,-0.569156 0.192638,-0.267066 0.464082,-0.433435 0.275821,-0.170746 0.678609,-0.170746 0.485972,0 0.844978,0.236418 0.363384,0.232041 0.5604,0.626072 0.201394,0.394031 0.201394,0.880003 0,0.713635 -0.363385,1.107666 -0.359006,0.389653 -1.015725,0.389653 z m -0.21015,-2.464884 q -0.218906,0 -0.398409,0.148856 -0.179503,0.144478 -0.323981,0.376519 -0.144478,0.23204 -0.25831,0.481593 0.262688,0.275822 0.542888,0.450947 0.359006,0.232041 0.639206,0.232041 0.647963,0 0.647963,-0.652341 0,-0.455325 -0.227663,-0.744281 -0.223284,-0.293334 -0.621694,-0.293334 z m -3.542499,1.567368 h 1.247766 q 0.437812,0 0.591046,-0.253931 0.157613,-0.253931 0.157613,-0.643584 0,-0.284578 -0.05254,-0.60856 -0.05254,-0.323981 -0.113831,-0.65234 l 0.761794,-0.192638 q 0.07443,0.35025 0.118209,0.687366 0.04378,0.337116 0.04378,0.643584 0,0.525375 -0.144478,0.936919 -0.144479,0.411544 -0.472838,0.647963 -0.328359,0.23204 -0.880003,0.23204 h -1.256522 z m 1.878216,1.492941 0.612937,0.608559 -0.612937,0.617316 -0.60856,-0.617316 z m -1.453538,0 0.612938,0.608559 -0.612938,0.617316 -0.608559,-0.617316 z M 12.143751,28.892 q -0.302091,0 -0.507863,-0.07881 -0.201393,-0.08318 -0.315225,-0.175125 -0.06567,0.573534 -0.319603,1.107666 -0.249553,0.538509 -0.753037,0.936918 -0.5034846,0.39841 -1.3309503,0.5604 L 8.6587633,30.55131 q 1.0682626,-0.232041 1.5060747,-0.814332 0.437813,-0.577912 0.437813,-1.370353 0,-0.37214 -0.08318,-0.779306 -0.07881,-0.411544 -0.223285,-0.836222 l 0.726769,-0.245175 0.236419,0.915028 q 0.09632,0.367763 0.306468,0.520997 0.21015,0.153234 0.529754,0.153234 H 12.26196 V 28.892 Z M 6.6316914,25.691591 q 0.6829875,0 1.1514469,0.612937 0.4684594,0.60856 0.4859719,1.790653 H 8.7988633 V 28.892 H 8.1990602 q -0.096319,0.503485 -0.385275,0.971944 -0.2845782,0.472837 -0.8493563,0.831844 -0.5647781,0.363384 -1.4973188,0.542887 L 5.2088007,30.542553 Q 7.1920914,30.161656 7.5073164,28.892 H 6.8155726 q -1.6593094,0 -1.6593094,-1.344084 0,-0.429056 0.1707469,-0.858113 0.175125,-0.429056 0.5034844,-0.713634 0.3327375,-0.284578 0.8011969,-0.284578 z m 0.1401,2.40359 h 0.7749281 q -0.052537,-0.844978 -0.2802,-1.230253 -0.2232843,-0.385275 -0.6479625,-0.385275 -0.2802,0 -0.4421906,0.179503 -0.1576125,0.179504 -0.2232844,0.424679 -0.061294,0.240796 -0.061294,0.437812 0,0.306469 0.2057718,0.442191 0.21015,0.131343 0.6742313,0.131343 z M 2.5337662,22.311678 3.1685943,22.946506 2.5337662,23.581334 1.8989381,22.946506 Z m -0.3327375,5.783503 q 0.4947281,0 0.7968188,-0.05692 0.3064687,-0.05692 0.4465687,-0.249553 0.1444782,-0.197016 0.1444782,-0.60856 -0.2145282,0.06567 -0.4378126,0.100697 -0.2189062,0.03502 -0.4728375,0.03502 -1.4885625,0 -1.4885625,-1.221497 0,-0.4203 0.1663688,-0.8406 0.1707468,-0.4203 0.4991062,-0.7005 0.3283594,-0.284578 0.7968188,-0.284578 0.4290562,0 0.735525,0.218906 0.3108469,0.218907 0.5078625,0.591047 0.2013938,0.367763 0.2977125,0.836222 0.096319,0.464081 0.096319,0.95881 0,0.65234 -0.1182094,1.055128 -0.1138313,0.398409 -0.3677625,0.608559 -0.2539313,0.205772 -0.6610969,0.2802 Q 2.73516,28.892 2.1484912,28.892 H 0.53734118 v -0.796819 z m 0.5385094,-1.532343 q 0.2013937,0 0.3984094,-0.03503 0.2013937,-0.0394 0.4027875,-0.09632 -0.035025,-0.310847 -0.1313438,-0.63045 -0.091941,-0.319603 -0.2758219,-0.534131 -0.1838812,-0.218907 -0.49035,-0.218907 -0.2714437,0 -0.4378125,0.170747 -0.1619906,0.170747 -0.2364187,0.407166 -0.07005,0.236419 -0.07005,0.437812 0,0.302091 0.2145281,0.402788 0.2189063,0.09632 0.6260719,0.09632 z"
         id="path22" />
      <path
         style="font-size:8.9664px;font-family:Vazirmatn"
         d="m 39.966712,38.071269 h -3.651356 v -0.661097 h 3.651356 z m 0,1.685578 h -3.651356 v -0.656719 h 3.651356 z M 38.022226,40.847 q -0.30209,0 -0.507862,-0.07881 -0.201394,-0.08319 -0.315225,-0.175125 -0.06567,0.573534 -0.319603,1.107666 -0.249553,0.538509 -0.753038,0.936918 -0.503484,0.39841 -1.33095,0.5604 L 34.537239,42.50631 q 1.068262,-0.232041 1.506075,-0.814332 0.437812,-0.577912 0.437812,-1.370353 0,-0.372141 -0.08318,-0.779306 -0.07881,-0.411544 -0.223284,-0.836222 l 0.726768,-0.245175 0.236419,0.915028 q 0.09632,0.367763 0.306469,0.520997 0.21015,0.153234 0.529753,0.153234 h 0.166369 V 40.847 Z m -6.322012,-0.796819 h 0.950053 q 0.437813,0 0.591047,-0.253931 0.157613,-0.253931 0.157613,-0.643584 0,-0.284578 -0.05254,-0.60856 -0.05254,-0.323981 -0.113831,-0.65234 l 0.761794,-0.192638 q 0.07443,0.35025 0.118209,0.687366 0.04378,0.337115 0.04378,0.643584 0,0.525375 -0.144478,0.936919 -0.144478,0.411544 -0.472837,0.647962 Q 33.210667,40.847 32.659024,40.847 h -0.95881 z m 1.584881,1.348463 0.591047,0.591047 -0.591047,0.591047 -0.591046,-0.591047 z m -1.497318,0 0.591047,0.591047 -0.591047,0.591047 -0.591047,-0.591047 z m 0.748659,1.107666 0.591047,0.591046 -0.591047,0.591047 -0.591047,-0.591047 z M 32.277745,40.847 h -0.713634 v -0.796819 h 0.704878 q 0.437813,0 0.591047,-0.253931 0.157613,-0.253931 0.157613,-0.643584 0,-0.284578 -0.05254,-0.60856 -0.05254,-0.323981 -0.113831,-0.65234 l 0.761794,-0.192638 q 0.07443,0.35025 0.118209,0.687366 0.04378,0.337115 0.04378,0.643584 0,0.525375 -0.144478,0.936919 -0.144478,0.411544 -0.472837,0.647962 Q 32.829389,40.847 32.277745,40.847 Z m 0.534132,-5.166187 0.634828,0.634828 -0.634828,0.634828 -0.634828,-0.634828 z m -2.972751,3.57255 q 0,-0.113832 -0.05254,-0.293335 -0.04816,-0.183881 -0.118209,-0.341494 l -0.774928,-1.755628 0.682987,-0.319603 0.993835,2.337919 q 0.201393,0.472837 0.35025,0.726769 0.153234,0.253931 0.297712,0.35025 0.148856,0.09194 0.337116,0.09194 h 0.183881 V 40.847 h -0.183881 q -0.345872,0 -0.564778,-0.08318 -0.214528,-0.08319 -0.372141,-0.249553 -0.157612,-0.166369 -0.319603,-0.4203 -0.306469,0.385275 -0.783684,0.569156 -0.472838,0.179503 -1.182094,0.179503 -0.306469,0 -0.551644,-0.02627 -0.245175,-0.03065 -0.464081,-0.08318 v -0.792441 q 0.503484,0.11821 0.950053,0.11821 1.571747,0 1.571747,-0.805575 z M 26.162832,40.847 q -0.30209,0 -0.507862,-0.07881 -0.201394,-0.08319 -0.315225,-0.175125 -0.06567,0.573534 -0.319603,1.107666 -0.249554,0.538509 -0.753038,0.936918 -0.503484,0.39841 -1.33095,0.5604 L 22.677845,42.50631 q 1.068262,-0.232041 1.506075,-0.814332 0.437812,-0.577912 0.437812,-1.370353 0,-0.372141 -0.08318,-0.779306 -0.07881,-0.411544 -0.223285,-0.836222 l 0.726769,-0.245175 0.236419,0.915028 q 0.09632,0.367763 0.306469,0.520997 0.21015,0.153234 0.529753,0.153234 h 0.166369 V 40.847 Z m -5.617133,-4.246781 q 0.380897,0.267065 0.79244,0.564778 0.411544,0.293334 0.766172,0.63045 0.359006,0.332737 0.577913,0.713634 0.223284,0.376519 0.223284,0.805575 -0.0044,0.814332 -0.564778,1.173338 Q 21.784708,40.847 20.563211,40.847 h -1.068262 v -0.796819 h 1.063884 q 0.849356,0 1.217119,-0.148856 0.367762,-0.153234 0.367762,-0.604181 0,-0.288956 -0.205772,-0.564778 -0.201393,-0.275822 -0.525375,-0.542888 -0.319603,-0.271444 -0.687365,-0.529753 -0.367763,-0.262687 -0.691744,-0.516619 -0.1401,-0.113831 -0.214528,-0.267065 -0.07443,-0.153235 -0.07443,-0.306469 0,-0.179503 0.09632,-0.337116 0.100696,-0.16199 0.310846,-0.245175 l 3.147872,-1.278412 v 0.774928 z m -3.582114,-2.250356 q -0.148856,-0.113832 -0.253931,-0.262688 -0.105075,-0.148856 -0.105075,-0.407166 0,-0.376518 0.258309,-0.617315 0.262688,-0.240797 0.595425,-0.240797 0.288956,0 0.529753,0.1401 l 0.0044,0.433434 q -0.135721,-0.07005 -0.253931,-0.08756 -0.118209,-0.01751 -0.218906,-0.01751 -0.188259,0 -0.35025,0.113832 -0.157613,0.113831 -0.157613,0.332737 0.0044,0.135722 0.135722,0.267066 0.135722,0.126965 0.380897,0.09194 0.0088,0 0.01751,-0.0044 0.01313,-0.0044 0.02627,-0.0088 l 0.577913,-0.21015 0.06129,0.433434 -1.668066,0.661097 -0.06129,-0.429056 z m 2.158416,5.590865 q 0.328359,-0.09194 0.586668,-0.2802 0.25831,-0.192637 0.407166,-0.556022 0.148856,-0.367762 0.148856,-0.989456 v -3.296728 h 0.739904 v 3.528769 q 0,0.836222 0.201393,1.269656 0.201394,0.433434 0.7005,0.433434 h 0.157613 V 40.847 h -0.170747 q -0.586669,0 -0.901894,-0.2802 -0.315225,-0.284578 -0.459703,-0.788062 -0.367763,0.542887 -1.081397,0.805575 -0.709256,0.262687 -1.654931,0.262687 -0.179503,0 -0.367763,-0.0088 -0.188259,-0.0088 -0.380897,-0.02627 v -0.753037 q 0.271444,0.01751 0.459704,0.03065 0.188259,0.0088 0.376518,0.0088 0.179503,0 0.310847,0 0.135722,-0.0044 0.223285,-0.02189 0,0 -0.06567,-0.394031 -0.06567,-0.39841 -0.218907,-1.072641 -0.153234,-0.678609 -0.4203,-1.527965 -0.262687,-0.849357 -0.661096,-1.75125 l 0.678609,-0.315225 q 0.394031,0.93254 0.661097,1.812543 0.271444,0.880003 0.429056,1.584882 0.161991,0.7005 0.232041,1.116421 z m -5.914847,-4.653947 0.634828,0.634828 -0.634828,0.634829 -0.634828,-0.634829 z m -2.727572,4.7634 h 0.744281 q 0.512241,0 0.941297,-0.09194 0.429057,-0.09194 0.836222,-0.253932 0.411544,-0.16199 0.858113,-0.380896 0.450947,-0.223285 1.006968,-0.477216 -0.310846,-0.113831 -0.643584,-0.245175 -0.332737,-0.135722 -0.634828,-0.253931 -0.297713,-0.11821 -0.520997,-0.192638 -0.223284,-0.07881 -0.315225,-0.07881 -0.267066,0 -0.472837,0.157612 -0.201394,0.153235 -0.372141,0.372141 l -0.118209,0.148856 -0.669854,-0.328359 0.06567,-0.105075 q 0.288957,-0.468459 0.669853,-0.748659 0.385275,-0.284579 0.901894,-0.284579 0.214528,0 0.516619,0.109454 0.306469,0.109453 0.665475,0.275821 0.359006,0.161991 0.744281,0.332738 0.385275,0.166369 0.77055,0.284578 0.385275,0.113831 0.735525,0.126966 v 0.757415 q -0.2802,0.03065 -0.718012,0.205772 -0.433435,0.170747 -1.129557,0.53851 -0.5604,0.297712 -1.041993,0.507862 -0.477216,0.205772 -0.976322,0.315225 Q 11.828045,40.847 11.210729,40.847 h -0.731147 z"
         id="path23" />
    </g>
  </g>
</svg>
