<?xml version="1.0" encoding="UTF-8" standalone="no"?>


<svg class="tikz-diagram" id="iran-action-ch4-tikz-13-8d278bda017b"
   version="1.1"
   id="svg1"
   width="572.97333"
   height="119.42667"
   viewBox="0 0 572.97333 119.42667"
   sodipodi:docname="iran-action-ch4-tikz-13-8d278bda017b.pdf"
   xmlns:inkscape="http://www.inkscape.org/namespaces/inkscape"
   xmlns:sodipodi="http://sodipodi.sourceforge.net/DTD/sodipodi-0.dtd"
   xmlns="http://www.w3.org/2000/svg"
   xmlns:svg="http://www.w3.org/2000/svg">
  <defs
     id="defs1" />
  <sodipodi:namedview
     id="namedview1"
     pagecolor="#ffffff"
     bordercolor="#000000"
     borderopacity="0.25"
     inkscape:showpageshadow="2"
     inkscape:pageopacity="0.0"
     inkscape:pagecheckerboard="0"
     inkscape:deskcolor="#d1d1d1">
    <inkscape:page
       x="0"
       y="0"
       inkscape:label="1"
       id="page1"
       width="572.97333"
       height="119.42667"
       margin="0"
       bleed="0" />
  </sodipodi:namedview>
  <g
     id="g1"
     inkscape:groupmode="layer"
     inkscape:label="1">
    <path
       id="path1"
       d="m 183.48358,28.3468 h -366.96716 c -8.25354,0 -14.94415,-6.69061 -14.94415,-14.94415 v -26.8053 c 0,-8.25354 6.69061,-14.94415 14.94415,-14.94415 h 366.96716 c 8.25354,0 14.94415,6.69061 14.94415,14.94415 v 26.8053 c 0,8.25354 -6.69061,14.94415 -14.94415,14.94415 z"
       style="fill:#e6fae6;fill-opacity:1;fill-rule:nonzero;stroke:#006633;stroke-width:2.98883;stroke-linecap:butt;stroke-linejoin:miter;stroke-miterlimit:10;stroke-dasharray:none;stroke-opacity:1"
       transform="matrix(1.3333333,0,0,-1.3333333,286.48533,59.713333)" />
    <path
       style="font-weight:800;font-size:14.3462px;font-family:Vazirmatn"
       d="m 49.657637,3.5305102 q -1.506071,0 -2.486768,-0.5744084 -0.973692,-0.5744084 -1.443026,-1.5691157 -0.469334,-0.99470719 -0.469334,-2.24159372 0,-0.83359268 0.18213,-1.72322518 0.182129,-0.8966375 0.525373,-1.78627 l 1.702211,0.6514632 q -0.259185,0.7425279 -0.434309,1.4500309 -0.175125,0.707503 -0.175125,1.32394132 0,0.67247812 0.23817,1.23287656 0.238169,0.56039844 0.805572,0.89663752 0.567404,0.336239 1.555106,0.336239 1.064757,0 1.77226,-0.2451743 0.707503,-0.2381693 1.057752,-0.56740339 0.350249,-0.32923408 0.350249,-0.58141338 0,-0.20314443 -0.252179,-0.20314443 h -1.134807 q -0.357254,0 -0.749533,-0.07004981 -0.385274,-0.0700498 -0.721513,-0.30121416 -0.336239,-0.23116435 -0.546388,-0.69349303 -0.203145,-0.4623287 -0.203145,-1.2398816 0,-0.7285179 0.23817,-1.4009961 0.238169,-0.6794831 0.679483,-1.2118616 0.448318,-0.5323785 1.071762,-0.8476026 0.623443,-0.3152241 1.400996,-0.3152241 0.525373,0 1.029732,0.1611145 0.511363,0.1541096 0.938667,0.4623287 l -0.644458,1.78627 q -0.364259,-0.2031444 -0.700498,-0.2801992 -0.329234,-0.08406 -0.609433,-0.08406 -0.756538,0 -1.183842,0.4973537 -0.427304,0.4903486 -0.427304,1.2258715 0,0.1891345 0.119085,0.2381694 0.12609,0.049035 0.308219,0.049035 h 1.022727 q 0.805573,0 1.260897,0.2521793 0.462328,0.2521793 0.651463,0.7004981 0.196139,0.44131375 0.196139,1.00871717 0,1.00171221 -0.574408,1.83530493 -0.574409,0.8335926 -1.67419,1.3309462 -1.099782,0.4973537 -2.675903,0.4973537 z m -8.265879,-9.323629 q 0.882627,0 1.499065,0.5253735 0.616439,0.5253735 0.966688,1.3869861 0.350249,0.8546076 0.420298,1.8563198 h 0.525374 V 0 H 44.13771 Q 43.738426,1.5971355 42.568594,2.507783 41.398762,3.4254354 39.374323,3.8177144 L 38.68083,1.9473846 Q 39.563458,1.779265 40.312991,1.4990658 41.069528,1.2188666 41.587897,0.84059766 42.113271,0.46232871 42.288395,0 H 41.629927 Q 40.214921,0 39.472393,-0.58841836 38.729865,-1.1838417 38.729865,-2.507783 q 0,-0.5183686 0.161114,-1.085772 0.161115,-0.5744084 0.490349,-1.071762 0.329234,-0.5043586 0.826588,-0.8125777 0.504358,-0.3152241 1.183842,-0.3152241 z m 0.231164,3.7686794 h 0.896637 q -0.04203,-0.3922789 -0.168119,-0.8055727 -0.119085,-0.4132939 -0.357254,-0.6934931 -0.231165,-0.2801992 -0.616438,-0.2801992 -0.329235,0 -0.525374,0.2101494 -0.189134,0.2031445 -0.273194,0.4903487 -0.07706,0.2801992 -0.07706,0.5183685 0,0.371264 0.308219,0.4693337 0.315224,0.091065 0.812578,0.091065 z M 34.863115,0 h -1.50607 v -2.0244394 h 1.513075 q 0.532379,0 0.728518,-0.329234 0.203145,-0.3362391 0.203145,-0.8476027 0,-0.4763386 -0.119085,-1.0367371 -0.11208,-0.5674034 -0.231164,-1.1067869 l 1.835305,-0.4763387 q 0.133094,0.6584682 0.210149,1.3099314 0.08406,0.6444582 0.08406,1.2328765 0,0.9316624 -0.252179,1.6741904 -0.245175,0.7425279 -0.840598,1.17683669 Q 35.892848,0 34.863115,0 Z M 33.539174,0.8966375 34.730021,2.0734742 35.906857,0.8966375 37.104709,2.0874842 35.906857,3.2923408 34.730021,2.1014941 33.539174,3.2923408 32.348327,2.0874842 Z M 28.579647,3.8247193 27.865139,1.9473846 q 1.015722,-0.2171544 1.74424,-0.5814134 0.735523,-0.357254 1.134807,-0.95968233 0.399284,-0.60242832 0.399284,-1.55510567 0,-0.6374532 -0.203144,-1.429016 -0.203145,-0.7985678 -0.434309,-1.4850559 l 1.891345,-0.6094333 q 0.273194,0.7635429 0.413293,1.6461704 0.147105,0.8826276 0.147105,1.6952053 0,1.47104591 -0.546388,2.521793 -0.539384,1.057752 -1.527086,1.7092152 -0.980697,0.6584682 -2.304639,0.9246574 z M 25.203246,-9.8209826 h 1.891344 v 6.4025521 q 0,0.742528 0.217155,1.071762 0.217154,0.3222291 0.896637,0.3222291 h 0.175125 V 0 H 28.208382 Q 26.639267,0 25.917754,-0.81257773 25.203246,-1.6251555 25.203246,-3.2503109 Z m -3.971823,5.008561 1.751245,-0.2171544 0.1401,2.0034244 q 0.03503,0.5323786 0.294209,0.7705479 0.259184,0.2311643 0.826588,0.2311643 h 0.147104 V 0 H 24.229555 Q 23.529057,0 23.024698,-0.2521793 22.527345,-0.50435859 22.205116,-0.91064746 21.777812,-0.48334365 21.189393,-0.23816934 20.60798,0 19.949512,0 h -0.672478 v -2.0244394 h 0.672478 q 0.770548,0 1.057752,-0.2591842 0.294209,-0.2661893 0.294209,-0.9666873 0,-0.4132939 -0.02102,-0.7985678 -0.02101,-0.3922789 -0.04903,-0.7635429 z m 0.385274,-3.7126396 1.260897,1.2608965 -1.260897,1.2538915 -1.253891,-1.2538915 z M 12.671337,0 q -0.707503,0 -1.190846,-0.23816934 -0.476339,-0.24517431 -0.784558,-0.6444582 -0.385274,0.40628887 -0.9176526,0.6444582 Q 9.2459019,0 8.4333242,0 H 7.788866 v -2.0244394 h 0.6584681 q 0.7705479,0 1.092777,-0.1891344 0.3292341,-0.1891345 0.3292341,-0.9106475 0,-0.1120797 -0.01401,-0.371264 -0.01401,-0.2591842 -0.035025,-0.5674034 -0.021015,-0.3152241 -0.04203,-0.5674034 l 1.7582506,-0.2171544 0.147104,1.8913447 q 0.06304,0.9316624 1.001712,0.9316624 0.581414,0 0.777553,-0.2381693 0.19614,-0.2451743 0.19614,-0.8616126 0,-0.09807 -0.01401,-0.357254 -0.01401,-0.2661892 -0.03503,-0.5814134 -0.02101,-0.3152241 -0.04203,-0.5674034 l 1.75825,-0.2171544 0.147105,1.8913447 q 0.02802,0.4273039 0.210149,0.6794831 0.189134,0.2521793 0.637453,0.2521793 0.420299,0 0.574409,-0.329234 0.161114,-0.3362391 0.161114,-0.7985678 0,-0.3992839 -0.07706,-0.8195827 -0.07005,-0.4273038 -0.161114,-0.7705479 -0.08406,-0.350249 -0.12609,-0.5113635 l 1.81429,-0.4973537 q 0.1401,0.5533935 0.231164,1.1838417 0.09107,0.6234433 0.09107,1.2398816 0,0.8686176 -0.231164,1.6321604 -0.22416,0.75653792 -0.770548,1.22587161 Q 17.280614,0 16.334942,0 15.704494,0 15.270185,-0.25918428 14.842881,-0.51836855 14.548672,-0.8966375 14.191418,-0.51836855 13.736094,-0.25918428 13.287776,0 12.671337,0 Z M 8.012353,-5.365815 q 0,-0.5323786 0.3782689,-0.8826276 0.378269,-0.350249 0.9106475,-0.350249 0.5393835,0 0.9106476,0.350249 0.378269,0.350249 0.378269,0.8826276 0,0.5253735 -0.378269,0.8756225 -0.3782691,0.350249 -0.9106476,0.350249 -0.5463885,0 -0.9176524,-0.343244 -0.371264,-0.350249 -0.371264,-0.8826275 z m 0,4.1259335 q 0,-0.5253736 0.3782689,-0.8756226 0.378269,-0.357254 0.9106475,-0.357254 0.5393835,0 0.9106476,0.357254 0.378269,0.350249 0.378269,0.8756226 0,0.53237847 -0.378269,0.8826275 -0.3782691,0.35024902 -0.9106476,0.35024902 -0.5463885,0 -0.9176524,-0.35024902 -0.371264,-0.35024903 -0.371264,-0.8826275 z m 55.045138,0.45532369 Q 62.819322,-0.44131377 62.413033,-0.21715439 62.013749,0 61.516395,0 60.346563,0 59.772155,-0.74252793 59.197747,-1.4850559 59.197747,-2.7109274 q 0,-0.8405977 0.364259,-1.7022103 0.364259,-0.8686176 0.924657,-1.7092152 0.560398,-0.8476027 1.148817,-1.6111455 l -0.420299,-0.4132939 1.155822,-1.5270857 q 1.63216,1.4080011 2.626867,2.6759025 0.994708,1.2608965 1.443026,2.3396635 0.448319,1.078767 0.448319,1.9473846 0,1.2118616 -0.560398,1.96139449 Q 65.768418,0 64.598587,0 64.129253,0 63.715959,-0.22415937 63.302665,-0.44831875 63.057491,-0.78455781 Z m -1.99642,-1.91936469 q 0,0.3012142 0.18213,0.4903487 0.182129,0.1891344 0.385274,0.1891344 0.294209,0 0.441314,-0.2241593 0.154109,-0.2241594 0.224159,-0.5533935 0.07706,-0.336239 0.133095,-0.6584681 h 1.225871 q 0.06304,0.336239 0.133095,0.6724781 0.07005,0.3292341 0.224159,0.5463885 0.161115,0.2171543 0.469334,0.2171543 0.224159,0 0.378269,-0.1751245 0.161114,-0.1751245 0.161114,-0.5043586 0,-0.6094333 -0.280199,-1.2398815 -0.273194,-0.6304482 -0.728518,-1.2398815 -0.455324,-0.6164383 -0.987702,-1.1838417 -0.525374,0.6654731 -0.973692,1.3029263 -0.441314,0.6374532 -0.714508,1.2328766 -0.273195,0.5954233 -0.273195,1.1278018 z m 140.174869,6.5286418 -0.7145,-1.8773347 q 1.01572,-0.2171544 1.74424,-0.5814134 0.73552,-0.357254 1.1348,-0.95968233 0.39929,-0.60242832 0.39929,-1.55510567 0,-0.6374532 -0.20315,-1.429016 -0.20314,-0.7985678 -0.43431,-1.4850559 l 1.89135,-0.6094333 q 0.27319,0.7635429 0.41329,1.6461704 0.14711,0.8826276 0.14711,1.6952053 0,1.47104591 -0.54639,2.521793 -0.53939,1.057752 -1.52709,1.7092152 -0.9807,0.6584682 -2.30464,0.9246574 z m -0.30822,-13.6457019 v 9.81397762 h -1.89135 V -9.8209826 Z m -6.94894,-1.1488164 1.2609,1.2608961 -1.2609,1.2538915 -1.25389,-1.2538915 z m 0.85461,7.9436474 q 0,-0.1751245 -0.0771,-0.4623287 -0.0771,-0.2872042 -0.16112,-0.4693337 l -1.38698,-3.0611764 1.66718,-0.8125778 1.74424,4.0208588 q 0.21015,0.4833437 0.37127,0.8896325 0.16811,0.4062889 0.37826,0.6514632 0.21716,0.2451743 0.5534,0.2451743 h 0.29421 V 0 h -0.29421 q -0.78456,0 -1.2679,-0.29420918 -0.47634,-0.30121416 -0.8406,-0.77054782 -0.53238,0.51136354 -1.2679,0.78455778 -0.73553,0.27319424 -1.77927,0.27319424 -0.61644,0 -1.04374,-0.04202988 -0.4273,-0.04202989 -0.88263,-0.15410957 V -2.2275838 q 0.43431,0.1050747 0.91765,0.1611146 0.49035,0.05604 0.90365,0.05604 0.51837,0 1.01572,-0.08406 0.49735,-0.091065 0.82659,-0.3152241 0.32923,-0.2241594 0.32923,-0.6164383 z m -10.54949,-5.35881 v -1.064757 l 5.69505,-2.3186484 v 1.064757 z m 1.99642,1.9123597 q 0.93866,0.5603984 1.66018,1.0997819 0.72851,0.5323785 1.14181,1.1488168 0.41329,0.6164383 0.41329,1.422011 0,1.0997819 -0.50436,1.7092152 -0.50435,0.60943335 -1.415,0.85460766 Q 186.66559,0 185.45373,0 h -1.70922 v -2.0244394 h 1.70221 q 1.1208,0 1.6812,-0.1541095 0.5604,-0.1611146 0.5604,-0.6514632 0,-0.2311644 -0.34325,-0.5323785 -0.34324,-0.3082192 -0.86161,-0.6444582 -0.51136,-0.3432441 -1.05075,-0.6724781 -0.53237,-0.3362391 -0.92465,-0.6164383 -0.29421,-0.2101494 -0.44832,-0.5603985 -0.14711,-0.350249 -0.14711,-0.714508 0,-0.3922789 0.18213,-0.7355229 0.18213,-0.3432441 0.56741,-0.4973536 l 5.40784,-2.2065688 v 2.0034243 z M 184.15012,0 h -1.50607 v -2.0244394 h 1.51307 q 0.53238,0 0.72852,-0.329234 0.20315,-0.3362391 0.20315,-0.8476027 0,-0.4763386 -0.11909,-1.0367371 -0.11208,-0.5674034 -0.23116,-1.1067869 l 1.8353,-0.4763387 q 0.1331,0.6584682 0.21015,1.3099314 0.0841,0.6444582 0.0841,1.2328765 0,0.9316624 -0.25218,1.6741904 -0.24517,0.7425279 -0.8406,1.17683669 Q 185.17985,0 184.15012,0 Z m -1.32394,0.8966375 1.19084,1.1768367 1.17684,-1.1768367 1.19785,1.1908467 -1.19785,1.2048566 -1.17684,-1.1908467 -1.19084,1.1908467 -1.19085,-1.2048566 z m -3.06819,-10.7176201 h 1.89135 v 6.4025521 q 0,0.742528 0.21715,1.071762 0.21715,0.3222291 0.89664,0.3222291 h 0.17512 V 0 h -0.17512 q -1.56912,0 -2.29063,-0.81257773 -0.71451,-0.81257777 -0.71451,-2.43773317 z m -13.04226,4.3500929 -0.2802,-0.2451744 1.17684,-1.5060708 q 0.63044,0.4973537 1.25389,1.0017122 0.62344,0.5043586 1.1348,1.0437421 0.51837,0.5393835 0.82659,1.1348069 0.30822,0.5954233 0.30822,1.2679014 0,0.8546077 -0.37827,1.4710459 -0.37827,0.61643831 -1.04374,0.9456724 -0.66547,0.32923408 -1.52709,0.32923408 -1.45003,0 -2.20656,-0.70750303 -0.74954,-0.71450805 -0.74954,-1.78627005 0,-0.8756225 0.42731,-1.5551056 0.43431,-0.6864881 1.05775,-1.3939911 z m 2.63387,2.7109274 q 0,-0.2241594 -0.20314,-0.4973536 -0.19614,-0.2801992 -0.49035,-0.5463885 -0.28721,-0.2661892 -0.5534,-0.4693337 -0.24517,0.2171544 -0.49735,0.4973536 -0.24517,0.2801992 -0.41329,0.5603985 -0.16812,0.2801992 -0.16812,0.5113635 0,0.3222291 0.30822,0.5043586 0.31522,0.1751245 0.8476,0.1751245 1.16983,0 1.16983,-0.7355229 z M 163.48823,0 q -0.63746,0 -1.05075,-0.24517432 -0.2802,1.61114552 -1.37998,2.66189262 -1.09278,1.050747 -2.92108,1.4009961 l -0.69349,-1.8703298 q 1.01572,-0.2171544 1.74424,-0.5814134 0.73552,-0.357254 1.13481,-0.95968233 0.39928,-0.60242832 0.39928,-1.55510567 0,-0.6374532 -0.20315,-1.429016 -0.20314,-0.7985678 -0.4343,-1.4850559 l 1.88434,-0.6094333 0.40628,1.5831256 q 0.11909,0.4483188 0.35025,0.7565379 0.23117,0.3082191 0.68649,0.3082191 h 0.2732 V 0 Z m -8.48303,-6.4726019 q 0.93867,0.5603984 1.66018,1.0997819 0.72852,0.5323785 1.14181,1.1488168 0.4133,0.6164383 0.4133,1.422011 0,1.0997819 -0.50436,1.7092152 -0.50436,0.60943335 -1.41501,0.85460766 Q 155.39047,0 154.17861,0 h -1.70921 v -2.0244394 h 1.70221 q 1.12079,0 1.68119,-0.1541095 0.5604,-0.1611146 0.5604,-0.6514632 0,-0.2311644 -0.34324,-0.5323785 -0.34325,-0.3082192 -0.86162,-0.6444582 -0.51136,-0.3432441 -1.05074,-0.6724781 -0.53238,-0.3362391 -0.92466,-0.6164383 -0.29421,-0.2101494 -0.44832,-0.5603985 -0.1471,-0.350249 -0.1471,-0.714508 0,-0.3922789 0.18213,-0.7355229 0.18213,-0.3432441 0.5674,-0.4973536 l 5.40784,-2.2065688 v 2.0034243 z m -3.34839,-3.3483807 v 9.81397762 h -1.89134 V -9.8209826 Z m -6.94893,-1.1488164 1.2609,1.2608961 -1.2609,1.2538915 -1.25389,-1.2538915 z m 0.85461,7.9436474 q 0,-0.1751245 -0.0771,-0.4623287 -0.0771,-0.2872042 -0.16111,-0.4693337 l -1.38699,-3.0611764 1.66719,-0.8125778 1.74424,4.0208588 q 0.21015,0.4833437 0.37126,0.8896325 0.16812,0.4062889 0.37827,0.6514632 0.21715,0.2451743 0.55339,0.2451743 h 0.29421 V 0 h -0.29421 q -0.78455,0 -1.2679,-0.29420918 -0.47634,-0.30121416 -0.8406,-0.77054782 -0.53237,0.51136354 -1.2679,0.78455778 -0.73552,0.27319424 -1.77926,0.27319424 -0.61644,0 -1.04374,-0.04202988 -0.42731,-0.04202989 -0.88263,-0.15410957 V -2.2275838 q 0.43431,0.1050747 0.91765,0.1611146 0.49035,0.05604 0.90364,0.05604 0.51837,0 1.01572,-0.08406 0.49736,-0.091065 0.82659,-0.3152241 0.32924,-0.2241594 0.32924,-0.6164383 z m -7.60742,3.18726615 q -0.72852,0 -1.36597,-0.30821914 -0.63045,-0.31522412 -1.23288,-0.77755283 -0.38527,0.38527392 -0.80557,0.65846816 Q 134.13736,0 133.33879,0 h -0.30822 v -2.0244394 h 0.27319 q 0.34325,0 0.61644,-0.2661892 0.2802,-0.2661893 0.53238,-0.6864881 0.25919,-0.4273038 0.53938,-0.8966375 0.28721,-0.4763387 0.63746,-0.8966375 0.35725,-0.4273038 0.82659,-0.6934931 0.46933,-0.2661892 1.09978,-0.2661892 0.88262,0 1.52708,0.4202988 0.64446,0.4132939 0.99471,1.0997819 0.35025,0.6794831 0.35025,1.4850559 0,0.8265877 -0.27319,1.4780509 -0.2732,0.65146316 -0.82659,1.02973211 -0.54639,0.37826894 -1.37298,0.37826894 z m -0.33624,-3.96481895 q -0.2872,0 -0.51837,0.1961395 -0.23116,0.1891344 -0.40629,0.4623287 -0.17512,0.2731942 -0.2942,0.5183685 0.20314,0.1821295 0.38527,0.3152241 0.18213,0.1330947 0.35025,0.2311644 0.25218,0.1400996 0.46233,0.1961395 0.21015,0.05604 0.36426,0.05604 0.37126,0 0.53237,-0.2661893 0.16112,-0.2731942 0.16112,-0.6164382 0,-0.4413138 -0.27319,-0.7635429 -0.2732,-0.3292341 -0.76355,-0.3292341 z m -4.6453,4.67932696 h -1.58313 l 3.60056,-11.07487456 h 1.59013 z M 134.99029,0 q -0.9807,0 -1.61114,-0.37126396 -0.63045,-0.37826895 -0.91065,-1.23287654 -0.80557,0.63044822 -1.75825,0.63044822 -1.16283,0 -1.94038,-0.63044822 -0.77755,-0.6374532 -0.77755,-1.8773348 0,-0.9106475 0.52537,-1.5551057 0.52537,-0.6514631 1.35196,-1.0927769 0.83359,-0.4413138 1.73724,-0.714508 l -0.049,-0.3362391 1.69521,-0.343244 0.66547,4.4971974 q 0.063,0.4273038 0.32923,0.714508 0.2732,0.2872042 0.77055,0.2872042 h 0.21716 V 0 Z m -2.90707,-3.7616745 q 0,-0.09807 -0.021,-0.2171544 -0.014,-0.1260897 -0.035,-0.2591843 l -0.11908,-0.7355229 q -0.49735,0.1681195 -0.9807,0.3922789 -0.47634,0.2171544 -0.79156,0.4833436 -0.30822,0.2591843 -0.30822,0.5603985 0,0.2872042 0.23117,0.4693337 0.23816,0.1751245 0.61643,0.1751245 0.32223,0 0.64446,-0.091065 0.32924,-0.09807 0.54639,-0.2872042 0.21715,-0.1961394 0.21715,-0.4903486 z m -5.14166,-0.8686176 v 1.8282999 q -0.40629,0.04203 -0.82659,0.1891345 -0.41329,0.1400996 -0.72151,0.2801992 0.13309,0.1961395 0.64446,0.2521793 0.51837,0.05604 1.1348,0.05604 H 127.558 V 0 h -0.41329 q -1.28192,0 -2.06647,-0.33623906 -0.77756,-0.34324404 -1.06476,-1.27490644 -1.29592,0.69349306 -2.59184,1.15582177 Q 120.13272,0 118.66868,0 h -1.16983 v -2.0244394 h 1.19084 q 0.90365,0 1.67419,-0.1681195 0.77756,-0.1751245 1.60414,-0.5183685 0.82659,-0.3432441 1.87734,-0.8546077 -1.07877,-0.3992838 -1.74424,-0.6654731 -0.66547,-0.2661893 -0.91065,-0.2661893 -0.37827,0 -0.68649,0.2381694 -0.30121,0.2311643 -0.49735,0.4903486 l -0.37126,0.4693337 -1.56912,-0.7705478 0.31522,-0.5043586 q 0.49736,-0.8125778 1.19085,-1.3449563 0.69349,-0.5393835 1.62516,-0.5393835 0.39228,0 0.91064,0.1821295 0.52538,0.1821295 1.1208,0.4553237 0.60243,0.2661893 1.23988,0.5393835 0.64446,0.2661893 1.2679,0.4553238 0.63045,0.1891344 1.20486,0.1961394 z M 111.20138,0 q -0.37827,0 -0.74954,-0.02801992 -0.36426,-0.02801992 -0.74253,-0.05603985 V -2.0384493 q 0.43431,0.04203 0.86862,0.07005 0.44132,0.021015 0.76354,0.021015 0.12609,0 0.23817,0 0.11208,-0.007 0.20315,-0.007 0,0 -0.0981,-0.4413138 -0.0911,-0.4413138 -0.2732,-1.1768367 -0.17512,-0.742528 -0.4343,-1.6531754 -0.25218,-0.9106475 -0.57441,-1.8633248 -0.32223,-0.9526774 -0.7005,-1.80028 l 1.72322,-0.7495329 q 0.38528,0.8966375 0.71451,1.9053547 0.32924,1.0017122 0.59543,1.9613945 0.27319,0.9596823 0.46232,1.7442401 0.19614,0.7775529 0.29421,1.2468866 0.10508,0.4623287 0.10508,0.4623287 1.21186,-0.5253736 1.21186,-2.6408777 v -4.8614564 h 1.87734 v 4.9455162 q 0,1.2398815 -0.31523,2.1014941 -0.31522,0.8546077 -0.86161,1.4009961 -0.54639,0.54638851 -1.24689,0.84760267 -0.7005,0.30121416 -1.49206,0.41329384 Q 111.98593,0 111.20138,0 Z m -8.32192,0 h -0.37126 q -1.16283,0 -2.00343,-0.20314443 -0.840597,-0.21014942 -1.358965,-0.70750303 -0.392279,0.42730381 -0.931663,0.67247812 Q 97.674759,0 96.883196,0 h -0.287204 l 0.007,-2.0244394 h 0.280199 q 0.833593,0 1.106787,-0.2591842 0.280199,-0.2661893 0.280199,-0.9736923 0,-0.3992839 -0.02802,-0.7845578 -0.02101,-0.3922789 -0.04903,-0.7635429 l 1.751245,-0.2171544 0.133097,1.9964194 q 0.028,0.2801993 0.11208,0.4903487 0.0911,0.2031444 0.24517,0.2381693 0.47634,-0.7845578 1.00872,-1.5130758 0.53238,-0.7285179 1.1278,-1.3029263 0.60243,-0.5744084 1.28191,-0.9036425 0.68649,-0.3362391 1.45704,-0.3362391 0.88963,0 1.56911,0.378269 0.68649,0.3782689 1.07177,1.0367371 0.39227,0.6584681 0.39227,1.5060708 0,0.3082191 -0.07,0.707503 -0.063,0.3992839 -0.21715,0.6514632 0.16111,0.021015 0.39228,0.035025 0.23116,0.01401 0.55339,0.01401 h 0.21015 V 0 h -0.20314 q -0.8336,0 -1.401,-0.21715439 -0.5674,-0.22415938 -1.01572,-0.52537354 -0.72852,0.3222291 -1.69521,0.53237852 Q 103.93721,0 102.87946,0 Z m 2.47976,-4.3641028 q -0.53938,0 -1.08577,0.343244 -0.54639,0.3362391 -1.04374,0.8756226 -0.49736,0.5323785 -0.90364,1.1207968 h 0.63745 q 0.94567,0 1.75124,-0.091065 0.81258,-0.09807 1.30293,-0.371264 0.49035,-0.2731942 0.49035,-0.8125777 0,-0.4833437 -0.32923,-0.7705478 -0.32223,-0.2942092 -0.81959,-0.2942092 z M 93.695931,0.16111455 q -0.728518,0 -1.365971,-0.30821914 Q 91.699512,-0.46232871 91.097083,-0.92465742 90.71181,-0.5393835 90.291511,-0.26618926 89.878217,0 89.079649,0 H 88.77143 v -2.0244394 h 0.273194 q 0.343244,0 0.616438,-0.2661892 0.2802,-0.2661893 0.532379,-0.6864881 0.259184,-0.4273038 0.539383,-0.8966375 0.287205,-0.4763387 0.637454,-0.8966375 0.357254,-0.4273038 0.826587,-0.6934931 0.469334,-0.2661892 1.099782,-0.2661892 0.882628,0 1.527086,0.4202988 0.644458,0.4132939 0.994707,1.0997819 0.350249,0.6794831 0.350249,1.4850559 0,0.8265877 -0.273194,1.4780509 -0.273194,0.65146316 -0.826588,1.02973211 -0.546388,0.37826894 -1.372976,0.37826894 z M 93.359692,-3.8037044 q -0.287204,0 -0.518368,0.1961395 -0.231165,0.1891344 -0.406289,0.4623287 -0.175125,0.2731942 -0.294209,0.5183685 0.203144,0.1821295 0.385273,0.3152241 0.18213,0.1330947 0.350249,0.2311644 0.25218,0.1400996 0.462329,0.1961395 0.21015,0.05604 0.364259,0.05604 0.371264,0 0.532379,-0.2661893 0.161114,-0.2731942 0.161114,-0.6164382 0,-0.4413138 -0.273194,-0.7635429 -0.273194,-0.3292341 -0.763543,-0.3292341 z"
       id="text1"
       transform="matrix(1.3333333,0,0,1.3333333,148.81067,65.009333)"
       aria-label="یﻮﯾرﺎﻨﺳ:۵راﺬﮔیا هﺮﮐاﺬﻣ/ﻪﺤﻟﺎﺼﻣ" />
  </g>
</svg>
