<?xml version="1.0" encoding="UTF-8" standalone="no"?>


<svg class="tikz-diagram" id="iran-action-ch6-tikz-4-9a27b015cb2c"
   version="1.1"
   id="svg1"
   width="493.92001"
   height="248.25333"
   viewBox="0 0 493.92001 248.25333"
   sodipodi:docname="iran-action-ch6-tikz-4-9a27b015cb2c.pdf"
   xmlns:inkscape="http://www.inkscape.org/namespaces/inkscape"
   xmlns:sodipodi="http://sodipodi.sourceforge.net/DTD/sodipodi-0.dtd"
   xmlns="http://www.w3.org/2000/svg"
   xmlns:svg="http://www.w3.org/2000/svg">
  <defs
     id="defs1" />
  <sodipodi:namedview
     id="namedview1"
     pagecolor="#ffffff"
     bordercolor="#000000"
     borderopacity="0.25"
     inkscape:showpageshadow="2"
     inkscape:pageopacity="0.0"
     inkscape:pagecheckerboard="0"
     inkscape:deskcolor="#d1d1d1">
    <inkscape:page
       x="0"
       y="0"
       inkscape:label="1"
       id="page1"
       width="493.92001"
       height="248.25333"
       margin="0"
       bleed="0" />
  </sodipodi:namedview>
  <g
     id="g1"
     inkscape:groupmode="layer"
     inkscape:label="1">
    <path
       id="path1"
       d="M 72.97237,77.95372 H -72.97237 c -2.75117,0 -4.98138,-2.23021 -4.98138,-4.98138 V 40.41489 c 0,-2.75118 2.23021,-4.98139 4.98138,-4.98139 H 72.97237 c 2.75117,0 4.98138,2.23021 4.98138,4.98139 v 32.55745 c 0,2.75117 -2.23021,4.98138 -4.98138,4.98138 z"
       style="fill:#e6fae6;fill-opacity:1;fill-rule:nonzero;stroke:#006633;stroke-width:0.3985;stroke-linecap:butt;stroke-linejoin:miter;stroke-miterlimit:10;stroke-dasharray:none;stroke-opacity:1"
       transform="matrix(1.3333333,0,0,-1.3333333,124.128,124.12533)" />
    <g
       id="text1"
       transform="matrix(1.3333333,0,0,1.3333333,99.736,43.378667)"
       aria-label="ﺖﯿﻋوﺮﺸﻣﯽﮔﺪﻨﯾﺎﻤﻧﺮﺗ ﻊﯿﺳو">
      <path
         style="font-weight:800;font-size:8.9664px;font-family:Vazirmatn"
         d="m 31.545829,-4.7984251 0.744282,0.735525 0.735525,-0.735525 0.748659,0.7442813 -0.748659,0.7530375 -0.735525,-0.7442813 -0.744282,0.7442813 -0.744281,-0.7530375 z m 3.161007,1.7906532 1.094531,-0.1357219 0.08756,1.2521438 q 0.02189,0.3327375 0.175125,0.4815937 0.157613,0.1444782 0.516619,0.1444782 H 36.68137 V 0 h -0.100697 q -0.503484,0 -0.836222,-0.18388125 -0.332737,-0.18825938 -0.551643,-0.50786251 -0.39841,0.3677625 -0.971944,0.52975313 Q 33.651708,0 32.736679,0 h -0.731146 q -0.757416,0 -1.396622,-0.09194063 -0.634829,-0.09631875 -1.107666,-0.3327375 -0.468459,-0.23641876 -0.731147,-0.66109687 -0.258309,-0.4290563 -0.258309,-1.0945313 0,-0.3940312 0.08756,-0.7661719 0.08756,-0.3765187 0.218906,-0.6961219 l 1.055129,0.3984094 q -0.07443,0.2057719 -0.153235,0.4772157 -0.07443,0.2714437 -0.07443,0.5166187 0,0.4378125 0.323981,0.6479625 0.323982,0.21015 0.858113,0.2758219 0.538509,0.061294 1.177716,0.061294 h 0.731146 q 0.634829,0 1.085775,-0.048159 0.450947,-0.052537 0.687366,-0.2145281 0.240797,-0.1663688 0.240797,-0.5122407 0,-0.2232844 -0.01313,-0.49035 -0.01313,-0.2670656 -0.03065,-0.4772156 z m -9.903321,1.7424938 h 0.661097 q 0.481594,0 0.661097,-0.1619907 0.183881,-0.1663687 0.183881,-0.6041812 0,-0.2583094 -0.01313,-0.4991063 -0.01313,-0.245175 -0.03065,-0.4772156 l 1.094531,-0.1357219 0.08756,1.2521438 q 0.02189,0.3327375 0.183882,0.4815937 0.16199,0.1444782 0.516618,0.1444782 h 0.09194 V 0 H 28.139646 Q 27.701834,0 27.386609,-0.1576125 27.075762,-0.31522501 26.874368,-0.56915626 26.607302,-0.30209063 26.23954,-0.14885625 25.876156,0 25.464612,0 H 24.803515 Z M 24.917346,0.56040001 25.661627,1.295925 26.397152,0.56040001 27.145812,1.3046813 26.397152,2.0577188 25.661627,1.3134375 24.917346,2.0577188 24.173065,1.3046813 Z M 20.977035,-1.2652781 q -0.122588,-0.2189063 -0.192638,-0.5209969 -0.07005,-0.3064688 -0.07005,-0.5516438 0,-0.5209969 0.258309,-0.9588094 0.25831,-0.4421906 0.696122,-0.7048781 0.442191,-0.2670656 0.976322,-0.2670656 0.494728,0 0.901894,0.1795031 0.407166,0.175125 0.831844,0.4640812 l -0.455325,1.0419938 q -0.284578,-0.1707469 -0.569157,-0.2933344 -0.284578,-0.1225875 -0.626071,-0.1225875 -0.201394,0 -0.407166,0.083184 -0.205772,0.083184 -0.341494,0.2407969 -0.135722,0.1532344 -0.135722,0.3721406 0,0.1838813 0.08319,0.3590063 0.08756,0.1707468 0.205772,0.3020906 0.118209,0.1269656 0.21015,0.1838813 0.01751,0.00438 0.07005,-0.013134 l 2.132146,-0.5078625 v 1.26965624 q -1.103287,0.3327375 -2.114634,0.52099688 Q 21.423603,0 20.469172,0 h -0.442191 v -1.2652781 z m -1.217119,0.29333433 q 0,1.02448127 -0.380897,1.70309066 Q 19.0025,1.4097563 18.310756,1.8081657 17.619013,2.206575 16.673338,2.3860782 L 16.239903,1.2171188 q 0.893138,-0.1707469 1.492941,-0.48597191 0.604181,-0.31522501 0.766172,-0.77492814 -0.109453,0.02189062 -0.227663,0.03940312 -0.118209,0.01313438 -0.214528,0.01313438 -0.831844,0 -1.309059,-0.36776251 -0.477216,-0.3677625 -0.477216,-1.20836254 0,-0.35025 0.105075,-0.7136344 0.105075,-0.3677625 0.315225,-0.6742312 0.21015,-0.3108469 0.520997,-0.4991063 0.310847,-0.1882594 0.722391,-0.1882594 0.472837,0 0.814331,0.2276625 0.345872,0.2276625 0.569156,0.6085594 0.223285,0.3808969 0.332738,0.8581125 0.109453,0.4772157 0.109453,0.97632193 z M 18.039313,-1.2521438 q 0.188259,0 0.341493,-0.021891 0.157613,-0.021891 0.25831,-0.043781 -0.02627,-0.2232844 -0.100697,-0.4772157 -0.07443,-0.2539312 -0.223284,-0.4334344 -0.144479,-0.1838812 -0.389654,-0.1838812 -0.21015,0 -0.332737,0.1401 -0.11821,0.1401 -0.166369,0.3283594 -0.04816,0.1882593 -0.04816,0.3283593 0,0.2364188 0.188259,0.3020907 0.192638,0.061294 0.472838,0.061294 z M 15.750989,0 Q 15.352579,0 15.09427,-0.15323438 14.919145,0.85373439 14.231779,1.5104531 13.548792,2.1671719 12.406101,2.3860782 L 11.972667,1.2171188 q 0.634828,-0.1357219 1.090153,-0.36338441 0.459703,-0.22328438 0.709256,-0.59980314 0.249553,-0.37651875 0.249553,-0.97194376 0,-0.39840939 -0.126965,-0.89313749 -0.126966,-0.4991063 -0.271444,-0.9281625 l 1.177716,-0.3808969 0.253931,0.9894562 q 0.07443,0.2802 0.218906,0.4728376 0.144478,0.1926375 0.429056,0.1926375 h 0.170747 V 0 Z m -7.2107725,-6.2519626 0.7048781,0.7005 -0.7048781,0.7048781 -0.7048782,-0.7048781 z m 0.7661718,1.1164219 0.7048777,0.7048781 -0.7048777,0.7048782 -0.7048781,-0.7048782 z m -1.5279656,0 0.7005,0.7048781 -0.7005,0.7048782 -0.7048781,-0.7048782 z M 9.8930571,0 Q 9.503404,0 9.2319602,-0.16199063 8.9605165,-0.32398126 8.7766352,-0.56040001 8.5533508,-0.32398126 8.2687727,-0.16199063 7.9885727,0 7.6032977,0 7.1611071,0 6.8590164,-0.14885625 6.5613039,-0.30209063 6.3686664,-0.55164376 6.1278695,-0.2977125 5.795132,-0.14885625 5.4623945,0 4.954532,0 H 4.5517445 v -1.2652781 h 0.4115438 q 0.4815937,0 0.6829875,-0.1182094 0.2057719,-0.1182094 0.2057719,-0.5691563 0,-0.07005 -0.00876,-0.2320406 -0.00876,-0.1619906 -0.021891,-0.3546281 -0.013134,-0.1970157 -0.026269,-0.3546282 l 1.0989094,-0.1357218 0.091941,1.1820937 q 0.039403,0.5822907 0.6260718,0.5822907 0.3633844,0 0.4859719,-0.1488563 0.1225875,-0.1532344 0.1225875,-0.5385094 0,-0.061294 -0.00876,-0.2232844 -0.00876,-0.1663687 -0.021891,-0.3633843 -0.013134,-0.1970157 -0.026269,-0.3546282 l 1.0989094,-0.1357218 0.091941,1.1820937 q 0.017513,0.2714438 0.1357219,0.4290563 0.1182094,0.1532344 0.3940313,0.1532344 0.2714441,0 0.3677621,-0.1795032 0.100697,-0.1795031 0.100697,-0.5078625 0,-0.1576125 -0.01751,-0.455325 -0.01751,-0.2977125 -0.0394,-0.5691562 l 1.098909,-0.1357219 0.09194,1.2652781 q 0.02189,0.3239813 0.179503,0.455325 0.16199,0.1269657 0.499106,0.1269657 h 0.131344 V 0 H 12.17406 Q 11.771273,0 11.460426,-0.1401 11.153957,-0.2802 10.974454,-0.52099688 10.794951,-0.2977125 10.532263,-0.14885625 10.269576,0 9.8930571,0 Z M 2.7392002,0.10069688 q -0.455325,0 -0.8537343,-0.19263751 Q 1.4914346,-0.28895625 1.1149158,-0.57791251 0.87411897,-0.33711563 0.61143146,-0.16636875 0.35312209,0 -0.14598417,0 h -0.19263751 v -1.2652781 h 0.17074688 q 0.21452813,0 0.38527501,-0.1663688 0.175125,-0.1663688 0.3327375,-0.4290563 0.16199063,-0.2670656 0.33711563,-0.5604 0.17950316,-0.2977125 0.39840936,-0.5604 0.2232844,-0.2670656 0.5166188,-0.4334344 0.2933344,-0.1663687 0.6873656,-0.1663687 0.5516438,0 0.9544313,0.2626875 0.4027875,0.2583094 0.6216937,0.6873656 0.2189063,0.4246782 0.2189063,0.9281625 0,0.5166188 -0.1707469,0.92378444 Q 3.9431846,-0.37214063 3.5973128,-0.13572188 3.255819,0.10069688 2.7392002,0.10069688 Z m -0.21015,-2.47801878 q -0.1795031,0 -0.3239812,0.1225875 -0.1444781,0.1182094 -0.2539313,0.2889562 -0.1094531,0.1707469 -0.1838812,0.3239813 0.1269656,0.1138313 0.2407969,0.1970156 0.1138312,0.083184 0.2189062,0.1444782 0.1576125,0.087562 0.2889563,0.1225875 0.1313437,0.035025 0.2276625,0.035025 0.2320406,0 0.3327375,-0.1663688 0.1006969,-0.1707469 0.1006969,-0.385275 0,-0.2758219 -0.1707469,-0.4772156 Q 2.835519,-2.3773219 2.5290502,-2.3773219 Z"
         id="path11" />
      <path
         style="font-size:8.9664px;font-family:Vazirmatn"
         d="m 43.85566,13.213734 q -0.945675,0 -1.514831,-0.345872 -0.564778,-0.345872 -0.818709,-0.923784 -0.249553,-0.573535 -0.249553,-1.2609 0,-0.297713 0.04378,-0.6873659 0.04816,-0.3896531 0.214528,-0.8887594 l 0.696122,0.2583094 q -0.126966,0.4378125 -0.166369,0.7749279 -0.03502,0.337116 -0.03502,0.569157 0,0.472837 0.166369,0.86249 0.166369,0.389653 0.564778,0.621694 0.402788,0.232041 1.098909,0.232041 0.656719,0 1.125179,-0.161991 0.472837,-0.161991 0.72239,-0.385275 0.253932,-0.223284 0.253932,-0.407166 0,-0.21015 -0.183882,-0.359006 -0.179503,-0.148856 -0.586668,-0.148856 h -0.647963 q -0.08756,0 -0.126966,-0.07443 -0.0394,-0.07881 -0.07443,-0.201394 l -0.118209,-0.4203 q -0.0044,-0.03502 0.01751,-0.06567 0.02189,-0.03503 0.07881,-0.03503 h 2.429859 v 0.796819 H 46.56572 q 0.06567,0.131344 0.08318,0.249553 0.02189,0.118209 0.02189,0.245175 0,0.288956 -0.170747,0.595425 -0.166369,0.310847 -0.516619,0.573534 -0.345872,0.262688 -0.875625,0.424678 -0.529753,0.161991 -1.252144,0.161991 z M 37.319118,5.6570902 V 5.1754964 l 3.327375,-1.3484625 v 0.4815938 z m 0.604181,1.0551281 q 0.380897,0.2670656 0.792441,0.5647781 0.411544,0.2933344 0.766172,0.6304501 0.359006,0.3327375 0.577912,0.7136343 0.223285,0.3765188 0.223285,0.8055751 Q 40.27873,10.240987 39.71833,10.599993 39.162309,10.959 37.940812,10.959 h -1.068263 v -0.796819 h 1.063885 q 0.849356,0 1.217118,-0.148856 0.367763,-0.1532348 0.367763,-0.6041816 0,-0.2889563 -0.205772,-0.5647782 Q 39.114149,8.5685433 38.790168,8.3014777 38.470565,8.030034 38.102802,7.7717246 37.73504,7.5090371 37.411059,7.2551058 37.270958,7.1412746 37.19653,6.9880402 q -0.07443,-0.1532344 -0.07443,-0.3064688 0,-0.1795031 0.09632,-0.3371156 0.100697,-0.1619906 0.310847,-0.245175 L 40.67714,4.8208683 v 0.7749281 z m -2.874358,2.6531438 q 0,-0.1138312 -0.05254,-0.2933344 -0.04816,-0.1838812 -0.118209,-0.3414937 l -0.774928,-1.7556282 0.682987,-0.3196031 0.993834,2.3379188 q 0.201394,0.4728375 0.35025,0.7267687 0.153235,0.2539313 0.297713,0.3502498 0.148856,0.09194 0.337116,0.09194 h 0.183881 V 10.959 h -0.183881 q -0.345872,0 -0.564779,-0.08319 -0.214528,-0.08318 -0.37214,-0.249553 -0.157613,-0.166369 -0.319603,-0.4203 -0.306469,0.385275 -0.783685,0.569156 -0.472837,0.179504 -1.182093,0.179504 -0.306469,0 -0.551644,-0.02627 -0.245175,-0.03065 -0.464081,-0.08319 v -0.79244 q 0.503484,0.118209 0.950053,0.118209 1.571747,0 1.571747,-0.8055749 z m -4.649568,-0.9938344 0.731147,-0.087562 0.07005,1.0244813 q 0.05254,0.8537345 0.88876,0.8537345 h 0.09194 V 10.959 h -0.100696 q -0.485972,0 -0.779307,-0.175125 -0.288956,-0.175125 -0.468459,-0.494729 -0.236419,0.345872 -0.621694,0.507863 Q 29.825839,10.959 29.405539,10.959 h -0.4203 v -0.796819 h 0.4203 q 0.556022,0 0.792441,-0.2495533 0.240797,-0.2495531 0.240797,-0.7661718 0,-0.21015 -0.01314,-0.3984094 -0.0088,-0.1882594 -0.02627,-0.3765188 z m 0.08319,-2.1803063 0.634828,0.6348282 -0.634828,0.6348281 -0.634828,-0.6348281 z m -4.299322,3.9709596 h 0.950053 q 0.437812,0 0.591047,-0.2539314 0.157612,-0.2539312 0.157612,-0.6435844 0,-0.2845781 -0.05254,-0.6085594 -0.05254,-0.3239812 -0.113832,-0.6523406 l 0.761794,-0.1926375 q 0.07443,0.35025 0.11821,0.6873656 0.04378,0.3371157 0.04378,0.6435844 0,0.525375 -0.144478,0.9369183 -0.144478,0.411544 -0.472838,0.647963 Q 27.693689,10.959 27.142045,10.959 h -0.958809 z m 1.580503,1.492941 0.612937,0.608559 -0.612937,0.617316 -0.60856,-0.617316 z m -1.453538,0 0.612938,0.608559 -0.612938,0.617316 -0.608559,-0.617316 z M 24.602732,4.9303214 h 0.739903 V 9.115809 q 0,0.6173156 0.227662,0.8318437 0.227663,0.2145283 0.687366,0.2145283 h 0.109453 V 10.959 h -0.109453 q -0.836222,0 -1.247766,-0.442191 Q 24.602732,10.07024 24.602732,9.1114309 Z M 18.898034,10.959 h -0.192637 v -0.796819 h 0.170747 q 0.293334,0 0.494728,-0.1663689 0.201393,-0.1707469 0.359006,-0.4378125 0.157612,-0.2670656 0.310847,-0.5647781 0.157612,-0.3020907 0.35025,-0.5691563 0.192637,-0.2670656 0.464081,-0.4334344 0.275822,-0.1707468 0.67861,-0.1707468 0.687365,0 1.068262,0.4203 0.380897,0.4159218 0.512241,1.0376156 0.08756,0.4290563 0.297712,0.6567188 0.214528,0.2276626 0.494728,0.2276626 h 0.113832 V 10.959 h -0.11821 q -0.2802,0 -0.547265,-0.113832 -0.267066,-0.118209 -0.433435,-0.37214 -0.183881,0.267065 -0.455325,0.429056 -0.271444,0.157613 -0.704878,0.157613 -0.437812,0 -0.809953,-0.18826 Q 20.583612,10.6788 20.185203,10.293525 19.900625,10.613128 19.637937,10.788253 19.37525,10.959 18.898034,10.959 Z m 2.653144,-2.3641879 q -0.218906,0 -0.398409,0.1488562 -0.179504,0.1444782 -0.323982,0.3765188 -0.144478,0.2320406 -0.258309,0.4815938 0.144478,0.1488562 0.288956,0.2670656 0.144478,0.1182094 0.2802,0.2013935 0.35025,0.214528 0.612938,0.214528 0.647962,0 0.647962,-0.6523403 0,-0.455325 -0.227662,-0.7442812 Q 21.949587,8.5948121 21.551178,8.5948121 Z M 16.862207,10.959 h -0.713634 v -0.796819 h 0.704878 q 0.437813,0 0.591047,-0.2539314 0.157613,-0.2539312 0.157613,-0.6435844 0,-0.2845781 -0.05254,-0.6085594 -0.05254,-0.3239812 -0.113831,-0.6523406 l 0.761794,-0.1926375 q 0.07443,0.35025 0.118209,0.6873656 0.04378,0.3371157 0.04378,0.6435844 0,0.525375 -0.144478,0.9369183 Q 18.07057,10.49054 17.742211,10.726959 17.413851,10.959 16.862207,10.959 Z M 17.396339,5.792812 18.031167,6.4276402 17.396339,7.0624683 16.76151,6.4276402 Z M 18.608485,10.959 q -0.302091,0 -0.507863,-0.07881 -0.201393,-0.08318 -0.315225,-0.175125 -0.06567,0.573535 -0.319603,1.107666 -0.249553,0.538509 -0.753037,0.936919 -0.503485,0.398409 -1.33095,0.5604 l -0.25831,-0.691744 q 1.068263,-0.232041 1.506075,-0.814331 0.437813,-0.577913 0.437813,-1.370353 0,-0.372141 -0.08318,-0.7793066 -0.07881,-0.4115438 -0.223285,-0.8362219 l 0.726769,-0.245175 0.236419,0.9150281 q 0.09632,0.3677625 0.306468,0.5209964 0.21015,0.153235 0.529754,0.153235 h 0.166368 V 10.959 Z M 14.878323,5.8190808 15.491261,6.4276402 14.878323,7.0449558 14.269764,6.4276402 Z m -1.453537,0 0.612937,0.6085594 -0.612937,0.6173156 -0.60856,-0.6173156 z m -0.472838,4.3431002 h 0.897516 q 0.437812,0 0.591047,-0.2539314 0.157612,-0.2539312 0.157612,-0.6435844 0,-0.2845781 -0.05254,-0.6085594 -0.05254,-0.3239812 -0.113832,-0.6523406 l 0.761794,-0.1926375 q 0.07443,0.35025 0.11821,0.6873656 0.04378,0.3371157 0.04378,0.6435844 0,0.525375 -0.144478,0.9369183 -0.144478,0.411544 -0.472838,0.647963 Q 14.409864,10.959 13.85822,10.959 H 12.951948 Z M 4.9405744,9.7418809 Q 4.752315,9.5755121 4.5158962,9.3303371 4.2838556,9.080784 4.0649493,8.8137183 3.8460431,8.5466527 3.701565,8.3189902 3.561465,8.0869496 3.561465,7.959984 q 0,-0.1795032 0.1882593,-0.3239813 0.1882594,-0.1444781 0.4947282,-0.245175 0.3108469,-0.1006969 0.6698531,-0.1532344 0.3590063,-0.056916 0.7005,-0.056916 0.3371157,0 0.6961219,0.056916 0.3590063,0.052537 0.665475,0.1532344 0.3108469,0.1006969 0.5034844,0.245175 0.1926375,0.1444781 0.1926375,0.3239813 0,0.1269656 -0.1488562,0.3677625 Q 7.37919,8.5641652 7.1515275,8.8443652 6.923865,9.1201871 6.6743119,9.3741184 q -0.245175,0.2539312 -0.4509469,0.4203 0.3677625,0.2276626 0.8011969,0.2977126 0.4334344,0.07005 1.0288594,0.07005 H 8.3161088 V 10.959 H 8.0534213 q -0.4421906,0 -0.8406,-0.05254 Q 6.8144119,10.849547 6.4116244,10.691934 6.013215,10.529943 5.55789,10.214718 q -0.7005,0.394032 -1.1208,0.801197 -0.4159219,0.407166 -0.4159219,0.866869 0,0.612938 0.4728375,0.976322 0.4728375,0.363384 1.4228907,0.363384 0.3808968,0 0.7836843,-0.06567 0.4027875,-0.06129 0.7968188,-0.192637 l 0.1707469,0.731147 q -0.3721406,0.135722 -0.8274657,0.21015 -0.4509468,0.07881 -0.945675,0.07881 -0.7836844,0 -1.3747312,-0.232041 -0.5910469,-0.23204 -0.9194063,-0.7005 -0.3239813,-0.468459 -0.3239813,-1.168959 0,-0.402787 0.1619907,-0.726769 0.1663687,-0.323981 0.4203,-0.58229 Q 4.1174868,10.315415 4.402065,10.109643 4.6910212,9.9038715 4.9405744,9.7418809 Z M 5.6148056,7.9337152 q -0.1970156,0 -0.5647781,0.035025 -0.3633844,0.030647 -0.6873656,0.1401 0.2845781,0.3546281 0.5735343,0.6435844 0.2889563,0.2845781 0.4815938,0.455325 0.1970156,0.1663688 0.1970156,0.1663688 0,0 0.1970157,-0.1663688 0.1970156,-0.1707469 0.49035,-0.455325 Q 6.5955056,8.4634683 6.8757056,8.1088402 6.5517244,7.9993871 6.1839619,7.9687402 5.8161994,7.9337152 5.6148056,7.9337152 Z m -6.12061971,2.2284658 h 0.66109689 q 0.55602188,0 0.79244064,-0.2495533 0.24079688,-0.2495531 0.24079688,-0.7661718 0,-0.21015 -0.013134,-0.3984094 -0.00876,-0.1882594 -0.026269,-0.3765188 l 0.7311469,-0.087562 0.07005,1.0244813 q 0.052538,0.8537345 0.8887593,0.8537345 h 0.091941 V 10.959 H 2.8303172 q -0.4859719,0 -0.7793063,-0.175125 Q 1.7620547,10.60875 1.5825516,10.289146 1.3461328,10.635018 0.96085779,10.797009 0.57558279,10.959 0.15528278,10.959 H -0.50581411 Z M 1.074689,11.655122 1.6876266,12.263681 1.074689,12.880997 0.46612966,12.263681 Z m -1.45353748,0 0.61293751,0.608559 -0.61293751,0.617316 -0.60855938,-0.617316 z M -4.5161767,10.959 q -0.5034844,0 -0.7793063,-0.170747 -0.2714437,-0.175125 -0.4334344,-0.499107 -0.2057718,0.323982 -0.525375,0.499107 -0.3196031,0.170747 -0.91065,0.170747 h -0.4027875 v -0.796819 h 0.4115438 q 0.5604,0 0.8187094,-0.205772 0.2583093,-0.21015 0.2583093,-0.7617938 0,-0.1138312 -0.013134,-0.2670656 -0.00876,-0.1576125 -0.030647,-0.4378125 l 0.7311469,-0.091941 0.07005,0.9150281 q 0.026269,0.3677625 0.2232843,0.6085594 0.2013938,0.240797 0.5910469,0.240797 0.4640813,0 0.63045,-0.2495533 0.1663688,-0.2495531 0.1663688,-0.7180125 0,-0.1138312 -0.013134,-0.2714437 -0.00876,-0.1576125 -0.030647,-0.4334344 l 0.7311469,-0.091941 0.07005,0.9150281 q 0.021891,0.3546281 0.1882594,0.6041813 0.1663688,0.2451751 0.5385094,0.2451751 0.3633844,0 0.4991063,-0.2714439 0.1357218,-0.2714437 0.1357218,-0.6348281 0,-0.3283594 -0.065672,-0.6610969 -0.061294,-0.3327375 -0.1094532,-0.5385094 L -1.0180548,7.854909 q 0.0788063,0.2933343 0.12696564,0.6260718 0.0481594,0.3283594 0.0481594,0.6567188 0,0.4728375 -0.13134375,0.8887594 -0.13134377,0.415922 -0.43343437,0.674231 -0.2977125,0.253932 -0.8143313,0.25831 -0.4203,0 -0.6786094,-0.175125 -0.2583093,-0.175125 -0.4203,-0.494729 -0.245175,0.354629 -0.5472656,0.512241 Q -4.1659267,10.959 -4.5161767,10.959 Z m -3.3974248,-0.74866 q 0,2.556825 -2.8063785,3.095335 l -0.258309,-0.696122 q 1.0069687,-0.192638 1.6067718,-0.643585 0.5998032,-0.446568 0.7092563,-1.125178 -0.1663688,0.05254 -0.385275,0.09194 -0.2189063,0.0394 -0.385275,0.0394 -1.5980161,0 -1.5980161,-1.3572188 0,-0.3239812 0.09632,-0.6479625 0.100697,-0.3283594 0.288956,-0.5998031 0.192638,-0.2758219 0.46846,-0.4421906 0.2758217,-0.1663688 0.6260717,-0.1663688 0.4159219,0 0.7223906,0.2057719 0.3108469,0.2057719 0.5122407,0.5560219 0.2013937,0.35025 0.3020906,0.7880625 0.1006969,0.4378125 0.1006969,0.9018935 z m -1.4973188,-0.03065 q 0.385275,0 0.7661719,-0.113831 -0.043781,-0.7355249 -0.2714438,-1.125178 -0.2276625,-0.3940313 -0.6435844,-0.3940313 -0.2889562,0 -0.4509464,0.1795031 -0.157613,0.1795032 -0.223285,0.4246782 -0.06129,0.2407969 -0.06129,0.4378125 0,0.3196031 0.218907,0.4553245 0.2189059,0.135722 0.6654747,0.135722 z"
         id="path12" />
    </g>
    <path
       id="path2"
       d="M 257.22662,77.95372 H 111.28188 c -2.75118,0 -4.98139,-2.23021 -4.98139,-4.98138 V 40.41489 c 0,-2.75118 2.23021,-4.98139 4.98139,-4.98139 h 145.94474 c 2.75118,0 4.98139,2.23021 4.98139,4.98139 v 32.55745 c 0,2.75117 -2.23021,4.98138 -4.98139,4.98138 z"
       style="fill:#e6fae6;fill-opacity:1;fill-rule:nonzero;stroke:#006633;stroke-width:0.3985;stroke-linecap:butt;stroke-linejoin:miter;stroke-miterlimit:10;stroke-dasharray:none;stroke-opacity:1"
       transform="matrix(1.3333333,0,0,-1.3333333,124.128,124.12533)" />
    <g
       id="text2"
       transform="matrix(1.3333333,0,0,1.3333333,357.36,43.302667)"
       aria-label="ﻊﺑﺎﻨﻣﻊﯿﻤﺠﺗتﺎﻧﺎﮑﻣا">
      <path
         style="font-weight:800;font-size:8.9664px;font-family:Vazirmatn"
         d="m 15.038859,-1.3966219 q -0.170747,-0.1838813 -0.385275,-0.4334344 -0.21015,-0.2495531 -0.411544,-0.5078625 -0.197015,-0.2626875 -0.323981,-0.49035 -0.126965,-0.2276625 -0.126965,-0.3677625 0,-0.2539313 0.214528,-0.4290563 0.214528,-0.1795031 0.556022,-0.2889562 0.341493,-0.1138313 0.731146,-0.1619906 0.389654,-0.052537 0.735525,-0.052537 0.345872,0 0.735526,0.052537 0.389653,0.048159 0.731146,0.1619906 0.341494,0.1094531 0.556022,0.2889562 0.218907,0.175125 0.218907,0.4290563 0,0.1444781 -0.11821,0.3633844 -0.118209,0.2145281 -0.310847,0.4640812 -0.188259,0.2495532 -0.407165,0.4991063 -0.214528,0.2495531 -0.411544,0.4597031 0.323981,0.091941 0.696122,0.1182094 0.376519,0.026269 0.731147,0.026269 h 0.297712 V 0 h -0.262687 q -0.429057,0 -0.814332,-0.04378125 -0.380896,-0.04815938 -0.779306,-0.1926375 -0.398409,-0.14447813 -0.884381,-0.44219064 -0.363385,0.20577188 -0.67861,0.43343439 -0.310846,0.22328437 -0.503484,0.45970313 -0.188259,0.23641875 -0.188259,0.48597188 0,0.51661879 0.446568,0.79244059 0.446569,0.2758219 1.107666,0.2758219 0.455325,0 0.919406,-0.083184 0.46846,-0.078806 0.805575,-0.1882594 L 18.217378,2.73195 q -0.503484,0.1357219 -1.002591,0.21015 -0.494728,0.078806 -0.963187,0.078806 -0.766172,0 -1.387866,-0.2320406 Q 14.246419,2.556825 13.883034,2.0445844 13.51965,1.5323438 13.51965,0.70050001 q 0,-0.42030001 0.1401,-0.73552501 0.144478,-0.31522501 0.37214,-0.55602188 0.232041,-0.24079688 0.494729,-0.43343442 0.267065,-0.1970156 0.51224,-0.3721406 z m 0.993835,-1.5848813 q -0.214529,0 -0.455325,0.021891 -0.236419,0.021891 -0.494729,0.074428 0.183882,0.1970156 0.402788,0.4115437 0.223284,0.2145282 0.380897,0.3633844 0.16199,0.1488563 0.16199,0.1488563 0,0 0.161991,-0.1488563 0.161991,-0.1488562 0.385275,-0.3633844 0.223285,-0.2145281 0.402788,-0.4115437 -0.253932,-0.052538 -0.49035,-0.074428 -0.236419,-0.021891 -0.455325,-0.021891 z M 11.102925,0 h -0.788062 v -1.2652781 h 0.79244 q 0.332738,0 0.455325,-0.2057719 0.126966,-0.21015 0.126966,-0.5297532 0,-0.2977125 -0.07443,-0.6479625 -0.07005,-0.3546281 -0.144478,-0.6917437 l 1.147068,-0.2977125 q 0.08319,0.4115437 0.131344,0.8187094 0.05254,0.4027875 0.05254,0.77055 0,0.5822906 -0.157613,1.0463719 -0.157612,0.46408122 -0.529753,0.73552497 Q 11.746509,0 11.102925,0 Z M 11.216756,0.51661876 12.004819,1.3046813 11.216756,2.0883657 10.433072,1.3046813 Z M 8.5066971,-6.1381314 h 1.1820937 v 4.0016064 q 0,0.4640812 0.1357219,0.6698531 0.1357219,0.2013938 0.5604003,0.2013938 h 0.109453 V 0 H 10.384913 Q 9.4042127,0 8.9532658,-0.50786251 8.5066971,-1.015725 8.5066971,-2.03145 Z M 6.0243,-3.0077719 7.1188313,-3.1434938 7.2063938,-1.89135 q 0.021891,0.3327375 0.1838812,0.4815937 0.1619906,0.1444782 0.5166188,0.1444782 h 0.091941 V 0 H 7.8981375 Q 7.460325,0 7.1451,-0.1576125 6.8342531,-0.31522501 6.6328594,-0.56915626 6.3657937,-0.30209063 5.9980312,-0.14885625 5.6346469,0 5.2231031,0 h -0.4203 v -1.2652781 h 0.4203 q 0.4815938,0 0.6610969,-0.1619907 0.1838812,-0.1663687 0.1838812,-0.6041812 0,-0.2583094 -0.013134,-0.4991063 Q 6.0418125,-2.7757313 6.0243,-3.0077719 Z M 6.2650969,-5.3281782 7.0531594,-4.5401157 6.2650969,-3.7564313 5.4814125,-4.5401157 Z M 2.9902593,0.10069688 q -0.455325,0 -0.8537344,-0.19263751 Q 1.7424937,-0.28895625 1.3659749,-0.57791251 1.125178,-0.33711563 0.86249053,-0.16636875 0.60418116,0 0.1050749,0 h -0.19263751 v -1.2652781 h 0.17074688 q 0.21452813,0 0.38527501,-0.1663688 0.175125,-0.1663688 0.3327375,-0.4290563 0.16199063,-0.2670656 0.33711562,-0.5604 0.1795031,-0.2977125 0.3984094,-0.5604 0.2232844,-0.2670656 0.5166188,-0.4334344 0.2933343,-0.1663687 0.6873656,-0.1663687 0.5516437,0 0.9544313,0.2626875 0.4027875,0.2583094 0.6216937,0.6873656 0.2189063,0.4246782 0.2189063,0.9281625 0,0.5166188 -0.1707469,0.92378444 -0.1707469,0.40716563 -0.5166188,0.64358438 -0.3414937,0.23641876 -0.8581125,0.23641876 z m -0.21015,-2.47801878 q -0.1795031,0 -0.3239812,0.1225875 -0.1444782,0.1182094 -0.2539313,0.2889562 -0.1094531,0.1707469 -0.1838812,0.3239813 0.1269656,0.1138313 0.2407968,0.1970156 0.1138313,0.083184 0.2189063,0.1444782 0.1576125,0.087562 0.2889562,0.1225875 0.1313438,0.035025 0.2276625,0.035025 0.2320407,0 0.3327376,-0.1663688 0.1006968,-0.1707469 0.1006968,-0.385275 0,-0.2758219 -0.1707469,-0.4772156 -0.1707468,-0.2057719 -0.4772156,-0.2057719 z"
         id="path13" />
      <path
         style="font-size:8.9664px;font-family:Vazirmatn"
         d="M 31.583748,9.7418809 Q 31.395488,9.5755121 31.159069,9.3303371 30.927029,9.080784 30.708123,8.8137183 30.489216,8.5466527 30.344738,8.3189902 q -0.1401,-0.2320406 -0.1401,-0.3590062 0,-0.1795032 0.18826,-0.3239813 0.188259,-0.1444781 0.494728,-0.245175 0.310847,-0.1006969 0.669853,-0.1532344 0.359006,-0.056916 0.7005,-0.056916 0.337115,0 0.696122,0.056916 0.359006,0.052537 0.665475,0.1532344 0.310847,0.1006969 0.503484,0.245175 0.192638,0.1444781 0.192638,0.3239813 0,0.1269656 -0.148857,0.3677625 -0.144478,0.2364187 -0.37214,0.5166187 -0.227663,0.2758219 -0.477216,0.5297532 -0.245175,0.2539312 -0.450947,0.4203 0.367763,0.2276626 0.801197,0.2977126 0.433434,0.07005 1.02886,0.07005 h 0.262687 V 10.959 h -0.262687 q -0.442191,0 -0.840601,-0.05254 -0.398409,-0.05692 -0.801196,-0.214528 -0.39841,-0.161991 -0.853735,-0.477216 -0.7005,0.394032 -1.1208,0.801197 -0.415922,0.407166 -0.415922,0.866869 0,0.612938 0.472838,0.976322 0.472837,0.363384 1.42289,0.363384 0.380897,0 0.783685,-0.06567 0.402787,-0.06129 0.796819,-0.192637 l 0.170747,0.731147 q -0.372141,0.135722 -0.827466,0.21015 -0.450947,0.07881 -0.945675,0.07881 -0.783685,0 -1.374731,-0.232041 -0.591047,-0.23204 -0.919407,-0.7005 -0.323981,-0.468459 -0.323981,-1.168959 0,-0.402787 0.161991,-0.726769 0.166368,-0.323981 0.4203,-0.58229 0.258309,-0.25831 0.542887,-0.464082 0.288956,-0.2057715 0.53851,-0.3677621 z m 0.674231,-1.8081657 q -0.197016,0 -0.564778,0.035025 -0.363385,0.030647 -0.687366,0.1401 0.284578,0.3546281 0.573534,0.6435844 0.288957,0.2845781 0.481594,0.455325 0.197016,0.1663688 0.197016,0.1663688 0,0 0.197015,-0.1663688 0.197016,-0.1707469 0.49035,-0.455325 0.293335,-0.2889563 0.573535,-0.6435844 -0.323981,-0.1094531 -0.691744,-0.1401 -0.367762,-0.035025 -0.569156,-0.035025 z m -6.120621,2.2284658 h 0.661097 q 0.556022,0 0.792441,-0.2495533 0.240797,-0.2495531 0.240797,-0.7661718 0,-0.21015 -0.01314,-0.3984094 -0.0088,-0.1882594 -0.02627,-0.3765188 l 0.731147,-0.087562 0.07005,1.0244813 q 0.05254,0.8537345 0.88876,0.8537345 h 0.09194 V 10.959 h -0.100697 q -0.485971,0 -0.779306,-0.175125 Q 28.405227,10.60875 28.225724,10.289146 27.989305,10.635018 27.60403,10.797009 27.218755,10.959 26.798455,10.959 h -0.661097 z m 1.580503,1.492941 0.612938,0.608559 -0.612938,0.617316 -0.608559,-0.617316 z m -1.453537,0 0.612937,0.608559 -0.612937,0.617316 -0.60856,-0.617316 z M 21.198833,10.959 h -0.192638 v -0.796819 h 0.170747 q 0.293334,0 0.494728,-0.1663689 0.201394,-0.1707469 0.359006,-0.4378125 0.157613,-0.2670656 0.310847,-0.5647781 0.157613,-0.3020907 0.35025,-0.5691563 0.192638,-0.2670656 0.464082,-0.4334344 0.275821,-0.1707468 0.678609,-0.1707468 0.687366,0 1.068262,0.4203 0.380897,0.4159218 0.512241,1.0376156 0.08756,0.4290563 0.297713,0.6567188 0.214528,0.2276626 0.494728,0.2276626 h 0.113831 V 10.959 H 26.20303 q -0.2802,0 -0.547266,-0.113832 -0.267066,-0.118209 -0.433434,-0.37214 -0.183882,0.267065 -0.455325,0.429056 -0.271444,0.157613 -0.704879,0.157613 -0.437812,0 -0.809953,-0.18826 Q 22.884411,10.6788 22.486001,10.293525 22.201423,10.613128 21.938736,10.788253 21.676048,10.959 21.198833,10.959 Z m 2.653143,-2.3641879 q -0.218906,0 -0.398409,0.1488562 -0.179503,0.1444782 -0.323981,0.3765188 -0.144478,0.2320406 -0.25831,0.4815938 0.144479,0.1488562 0.288957,0.2670656 0.144478,0.1182094 0.2802,0.2013935 0.35025,0.214528 0.612937,0.214528 0.647963,0 0.647963,-0.6523403 0,-0.455325 -0.227663,-0.7442812 -0.223284,-0.2933344 -0.621694,-0.2933344 z m -5.954249,3.0340409 0.634828,0.634828 -0.634828,0.634828 -0.634828,-0.634828 z m 2.705681,-3.0997128 v 0.7574157 q -0.188259,0.017513 -0.442191,0.096319 -0.253931,0.074428 -0.538509,0.21015 0.0088,0.3633844 0.35025,0.4684594 0.341494,0.100697 0.967566,0.100697 h 0.240797 V 10.959 h -0.25831 q -0.893137,0 -1.339706,-0.236419 -0.442191,-0.236419 -0.529753,-0.8493564 -0.866869,0.4728374 -1.6812,0.7793064 Q 16.562399,10.959 15.62548,10.959 h -0.731147 v -0.796819 h 0.744281 q 0.512241,0 0.941297,-0.09194 0.429056,-0.09194 0.836222,-0.253931 Q 17.827677,9.6543184 18.274246,9.4354121 18.725192,9.2121277 19.281214,8.9581965 18.970367,8.8443652 18.63763,8.7130215 18.304892,8.5772996 18.002802,8.4590902 17.705089,8.3408808 17.481805,8.2664527 17.25852,8.1876465 17.16658,8.1876465 q -0.267066,0 -0.472838,0.1576125 -0.201393,0.1532343 -0.37214,0.3721406 l -0.11821,0.1488562 -0.669853,-0.3283593 0.06567,-0.105075 q 0.288956,-0.4684594 0.669853,-0.7486594 0.385275,-0.2845781 0.901894,-0.2845781 0.214528,0 0.516619,0.1094531 0.306468,0.1094531 0.665475,0.2758219 0.359006,0.1619906 0.744281,0.3327375 0.385275,0.1663687 0.77055,0.2845781 0.385275,0.1138312 0.735525,0.1269656 z m -6.532162,-2.7100594 0.612937,0.6085594 -0.612937,0.6173156 -0.60856,-0.6173156 z m -1.453538,0 0.612938,0.6085594 -0.612938,0.6173156 -0.608559,-0.6173156 z m -0.472837,4.3431002 h 0.897515 q 0.437813,0 0.591047,-0.2539314 0.157613,-0.2539312 0.157613,-0.6435844 0,-0.2845781 -0.05254,-0.6085594 -0.05254,-0.3239812 -0.113831,-0.6523406 l 0.761794,-0.1926375 q 0.07443,0.35025 0.118209,0.6873656 0.04378,0.3371157 0.04378,0.6435844 0,0.525375 -0.144478,0.9369183 -0.144478,0.411544 -0.472837,0.647963 Q 13.602786,10.959 13.051143,10.959 H 12.144871 Z M 11.557607,10.959 h -1.020103 q -1.6505536,0 -2.4823974,-0.446569 Q 7.227641,10.065862 7.227641,8.9669527 q 0,-0.3020906 0.065672,-0.5910469 0.07005,-0.2889562 0.1795031,-0.5560218 l 0.6786094,0.2539312 q -0.07005,0.1926375 -0.1182094,0.4115438 -0.043781,0.2189062 -0.043781,0.4159219 0.00438,0.5122406 0.2889562,0.7880625 0.2845781,0.2714437 0.8493563,0.3721406 0.5647781,0.100697 1.4097567,0.100697 h 1.024481 q 0.297712,0 0.621694,-0.01751 0.328359,-0.01751 0.612937,-0.09632 0.284578,-0.078807 0.464081,-0.2626879 0.179503,-0.1882594 0.179503,-0.525375 0,-0.245175 -0.04816,-0.5822906 -0.04816,-0.3414938 -0.113831,-0.6742313 l 0.761794,-0.1926375 q 0.07881,0.3414938 0.118209,0.7092563 0.04378,0.3633843 0.04378,0.6348281 0,0.595425 -0.201394,0.9544309 -0.201393,0.359007 -0.564778,0.542888 -0.359006,0.183881 -0.8406,0.245175 Q 12.118007,10.959 11.557607,10.959 Z M 11.474422,6.6640589 12.08736,7.2726183 11.474422,7.889934 10.865863,7.2726183 Z m -1.453537,0 0.612937,0.6085594 L 10.020885,7.889934 9.4123254,7.2726183 Z M 5.1173839,4.9303214 H 5.857287 V 9.115809 q 0,0.6173156 0.2276625,0.8318437 0.2276625,0.2145283 0.6873657,0.2145283 H 6.8817683 V 10.959 H 6.7723152 q -0.8362219,0 -1.2477657,-0.442191 Q 5.1173839,10.07024 5.1173839,9.1114309 Z M 2.5167789,10.959 H 1.8031445 v -0.796819 h 0.7048782 q 0.4378125,0 0.5910468,-0.2539314 0.1576125,-0.2539312 0.1576125,-0.6435844 0,-0.2845781 -0.052538,-0.6085594 Q 3.151607,8.3321246 3.0903133,8.0037652 L 3.852107,7.8111277 q 0.074428,0.35025 0.1182094,0.6873656 0.043781,0.3371157 0.043781,0.6435844 0,0.525375 -0.1444782,0.9369183 Q 3.7251414,10.49054 3.396782,10.726959 3.0684227,10.959 2.5167789,10.959 Z M 3.0509102,5.792812 3.6857383,6.4276402 3.0509102,7.0624683 2.416082,6.4276402 Z M 0.21388428,4.9303214 H 0.95378742 V 9.115809 q 0,0.6173156 0.22766248,0.8318437 0.2276625,0.2145283 0.6873657,0.2145283 H 1.9782687 V 10.959 H 1.8688156 q -0.8362219,0 -1.24776569,-0.442191 Q 0.21388428,10.07024 0.21388428,9.1114309 Z M -4.0723006,6.7122183 q 0.4991062,0.35025 0.9544313,0.6961219 0.4597031,0.3414938 0.8274656,0.7442813 0.3677625,0.3984093 0.5822906,0.9281625 0.2320407,0.5647781 0.49035,0.8230875 0.25830941,0.2583095 0.7267688,0.2583095 h 0.1225875 V 10.959 h -0.1225875 q -0.48597189,0 -0.8274656,-0.18826 -0.3371157,-0.188259 -0.6041813,-0.599803 -0.175125,0.25831 -0.4290563,0.433435 -0.2495531,0.175125 -0.6567187,0.267065 -0.4027875,0.08756 -1.0463719,0.08756 h -1.0682625 v -0.796819 h 1.0638844 q 0.8493562,0 1.2171187,-0.148856 0.3677625,-0.1532348 0.3677625,-0.6041816 0,-0.2889563 -0.2057718,-0.5647782 Q -2.8814506,8.5685433 -3.2054318,8.3014777 -3.525035,8.030034 -3.8927975,7.7717246 -4.26056,7.5090371 -4.5845412,7.2551058 q -0.1401,-0.1138312 -0.2145282,-0.2670656 -0.074428,-0.1532344 -0.074428,-0.3108469 0,-0.1795031 0.096319,-0.3371156 0.1006968,-0.1576125 0.3108468,-0.2407969 l 3.147872,-1.2784125 v 0.7749281 z m -2.7757302,4.3474787 q -0.4378125,0 -0.8099531,-0.18826 Q -8.0257464,10.6788 -8.4241558,10.293525 -8.7087339,10.613128 -8.9714214,10.788253 -9.2341089,10.959 -9.7113246,10.959 h -0.1926375 v -0.796819 h 0.1707469 q 0.2933344,0 0.4947281,-0.1663689 0.2013938,-0.1707469 0.3590063,-0.4378125 0.1576125,-0.2670656 0.3108469,-0.5647781 0.1576125,-0.3020907 0.35025,-0.5691563 0.1926375,-0.2670656 0.4640812,-0.4334344 0.2758219,-0.1707468 0.6786094,-0.1707468 0.4859719,0 0.8449782,0.2364187 0.3633843,0.2320406 0.5604,0.6260719 0.2013937,0.3940313 0.2013937,0.8800031 0,0.7136343 -0.3633844,1.1076653 -0.3590062,0.389654 -1.015725,0.389654 z m -0.21015,-2.4648849 q -0.2189062,0 -0.3984094,0.1488562 -0.1795031,0.1444782 -0.3239812,0.3765188 -0.1444781,0.2320406 -0.2583094,0.4815938 0.2626875,0.2758218 0.5428875,0.4509471 0.3590063,0.23204 0.6392063,0.23204 0.6479625,0 0.6479625,-0.6523403 0,-0.455325 -0.2276625,-0.7442812 Q -6.6597714,8.5948121 -7.0581808,8.5948121 Z M -10.486253,4.9303214 v 6.0243006 h -0.739903 V 4.9303214 Z"
         id="path14" />
    </g>
    <path
       id="path4"
       d="M 72.97237,21.2601 H -72.97237 c -2.75117,0 -4.98138,-2.23021 -4.98138,-4.98138 v -32.55744 c 0,-2.75117 2.23021,-4.98138 4.98138,-4.98138 H 72.97237 c 2.75117,0 4.98138,2.23021 4.98138,4.98138 v 32.55744 c 0,2.75117 -2.23021,4.98138 -4.98138,4.98138 z"
       style="fill:#e6fae6;fill-opacity:1;fill-rule:nonzero;stroke:#006633;stroke-width:0.3985;stroke-linecap:butt;stroke-linejoin:miter;stroke-miterlimit:10;stroke-dasharray:none;stroke-opacity:1"
       transform="matrix(1.3333333,0,0,-1.3333333,124.128,124.12533)" />
    <g
       id="text4"
       transform="matrix(1.3333333,0,0,1.3333333,101.25333,119.34133)"
       aria-label="مﺎﯿﭘﺪﺣاوترﺪﻗﯽﻃﺎﺒﺗرا">
      <path
         style="font-weight:800;font-size:8.9664px;font-family:Vazirmatn"
         d="m 29.998494,-1.716225 q 0.153235,-0.4859719 0.407166,-0.91065 0.258309,-0.4290563 0.617316,-0.6917438 0.363384,-0.2626875 0.823087,-0.2626875 0.53851,0 0.941297,0.2407969 0.407166,0.2364187 0.63045,0.665475 0.227663,0.4290562 0.227663,1.0069687 0,0.4728376 -0.170747,0.86686881 -0.170747,0.39403126 -0.512241,0.63482814 Q 32.625369,0.07005 32.126263,0.07005 q -0.236419,0 -0.503484,-0.08318438 -0.267066,-0.08318437 -0.529753,-0.18825937 -0.25831,-0.10945313 -0.472838,-0.19263751 -0.21015,-0.0831844 -0.337115,-0.0831844 -0.197016,0 -0.262688,0.42905625 -0.06567,0.42905626 -0.06567,1.06388438 0,0.3721406 0.01313,0.7311469 0.01751,0.3590063 0.03503,0.6348281 0.02189,0.2758219 0.03502,0.4071657 h -1.203985 q -0.02189,-0.4728375 -0.04378,-0.9194063 -0.01751,-0.4421906 -0.01751,-0.8537344 0,-0.77055 0.07881,-1.34846251 0.08318,-0.5779125 0.341493,-0.93254059 0.262688,-0.3546282 0.805575,-0.4509469 z m 2.534935,0.039403 q 0,-0.2670656 -0.183881,-0.4772156 -0.179504,-0.21015 -0.485972,-0.21015 -0.192638,0 -0.341494,0.1313437 -0.148856,0.1313438 -0.253931,0.3239813 -0.100697,0.1926375 -0.166369,0.3808969 0.293334,0.1313437 0.573534,0.245175 0.284578,0.1094531 0.472838,0.1094531 0.214528,0 0.297712,-0.1532344 0.08756,-0.1532344 0.08756,-0.35025 z m -5.980521,-4.4613095 h 1.182094 v 4.0016064 q 0,0.4640812 0.135722,0.6698531 0.135722,0.2013938 0.5604,0.2013938 h 0.109453 V 0 H 28.431124 Q 27.450424,0 26.999477,-0.50786251 26.552908,-1.015725 26.552908,-2.03145 Z m -3.94469,4.8728533 h 0.661097 q 0.481593,0 0.661096,-0.1619907 0.183882,-0.1663687 0.183882,-0.6041812 0,-0.2583094 -0.01313,-0.4991063 -0.01313,-0.245175 -0.03065,-0.4772156 l 1.094532,-0.1357219 0.08756,1.2521438 q 0.02189,0.3327375 0.183881,0.4815937 0.161991,0.1444782 0.516619,0.1444782 h 0.09194 V 0 h -0.100697 q -0.437813,0 -0.753038,-0.1576125 -0.310846,-0.15761251 -0.51224,-0.41154376 -0.267066,0.26706563 -0.634828,0.42030001 Q 23.680858,0 23.269315,0 H 22.608218 Z M 22.722049,0.56040001 23.46633,1.295925 24.201855,0.56040001 24.950515,1.3046813 24.201855,2.0577188 23.46633,1.3134375 22.722049,2.0577188 21.977768,1.3046813 Z M 20.646818,0 h -0.941297 v -1.2652781 h 0.945675 q 0.332738,0 0.455325,-0.2057719 0.126966,-0.21015 0.126966,-0.5297532 0,-0.2977125 -0.07443,-0.6479625 -0.07005,-0.3546281 -0.144479,-0.6917437 l 1.147069,-0.2977125 q 0.08319,0.4115437 0.131344,0.8187094 0.05254,0.4027875 0.05254,0.77055 0,0.5822906 -0.157612,1.0463719 -0.153234,0.46408122 -0.525375,0.73552497 Q 21.290402,0 20.646818,0 Z m 0.661097,0.43343438 0.704878,0.70487812 -0.704878,0.7048782 -0.704878,-0.7048782 z m -1.527966,0 0.7005,0.70487812 -0.7005,0.7048782 -0.704878,-0.7048782 z m 0.761794,1.12080002 0.704878,0.7048781 -0.704878,0.7005 -0.704878,-0.7005 z M 19.998436,-1.89135 q 0,-0.1094532 -0.04816,-0.2889563 -0.04816,-0.1795031 -0.100697,-0.2933344 l -0.866868,-1.9132406 1.041993,-0.5078625 1.090153,2.5130438 q 0.131344,0.3020906 0.232041,0.5560218 0.105075,0.2539313 0.236419,0.4071657 0.135722,0.1532344 0.345872,0.1532344 H 22.11307 V 0 h -0.183881 q -0.49035,0 -0.792441,-0.18388125 -0.297712,-0.18825938 -0.525375,-0.48159376 -0.332737,0.31960313 -0.792441,0.49035001 -0.459703,0.17074687 -1.112043,0.17074687 -0.385275,0 -0.652341,-0.02626875 -0.267066,-0.02626875 -0.551644,-0.09631875 V -1.3922438 q 0.271444,0.065672 0.573535,0.1006969 0.306468,0.035025 0.564778,0.035025 0.323981,0 0.634828,-0.052537 0.310847,-0.056916 0.516619,-0.1970156 0.205772,-0.1401 0.205772,-0.385275 z m -9.058341,0.6260719 h 0.744281 q 0.564778,0 1.05075,-0.105075 0.485972,-0.1094532 0.998213,-0.3239813 0.516619,-0.2145281 1.173337,-0.5341313 -0.674231,-0.245175 -1.090153,-0.4115437 -0.415922,-0.1707469 -0.569156,-0.1707469 -0.236419,0 -0.429056,0.1488563 -0.18826,0.1444781 -0.310847,0.3064687 l -0.232041,0.2933344 -0.9807,-0.4815938 0.197016,-0.315225 q 0.310847,-0.5078625 0.744281,-0.8406 0.433434,-0.3371156 1.015725,-0.3371156 0.245175,0 0.569156,0.1138312 0.32836,0.1138313 0.7005,0.2845782 0.376519,0.1663687 0.774928,0.3371156 0.402788,0.1663687 0.792441,0.2845781 0.394031,0.1182094 0.753038,0.1225875 v 1.1602032 q -0.332738,0.043781 -0.617316,0.1488562 -0.284578,0.1006969 -0.591047,0.2583094 -0.306469,0.1576125 -0.713634,0.37651876 -0.5604,0.2977125 -1.059507,0.51224063 -0.494728,0.21452813 -1.020103,0.32835938 Q 12.319204,0 11.671242,0 h -0.731147 z m -0.507864,-4.8728533 v 6.13375327 H 9.2501375 V -6.1381314 Z m -2.1365248,5.16618763 q 0,1.02448127 -0.3808969,1.70309066 Q 7.5382906,1.4097563 6.8465468,1.8081657 6.1548031,2.206575 5.2091281,2.3860782 L 4.7756937,1.2171188 Q 5.6688312,1.0463719 6.2686343,0.73114689 6.8728156,0.41592188 7.0348062,-0.04378125 6.9253531,-0.02189063 6.8071437,-0.00437813 6.6889343,0.00875625 6.5926156,0.00875625 q -0.8318438,0 -1.3090594,-0.36776251 -0.4772157,-0.3677625 -0.4772157,-1.20836254 0,-0.35025 0.105075,-0.7136344 0.105075,-0.3677625 0.3152251,-0.6742312 0.21015,-0.3108469 0.5209968,-0.4991063 0.3108469,-0.1882594 0.7223907,-0.1882594 0.4728375,0 0.8143312,0.2276625 0.3458719,0.2276625 0.5691563,0.6085594 0.2232844,0.3808969 0.3327375,0.8581125 0.1094531,0.4772157 0.1094531,0.97632193 z M 6.5751031,-1.2521438 q 0.1882594,0 0.3414937,-0.021891 0.1576125,-0.021891 0.2583094,-0.043781 Q 7.1486375,-1.5411 7.0742093,-1.7950313 6.9997812,-2.0489625 6.850925,-2.2284657 6.7064468,-2.4123469 6.4612718,-2.4123469 q -0.21015,0 -0.3327375,0.1401 -0.1182094,0.1401 -0.1663687,0.3283594 -0.048159,0.1882593 -0.048159,0.3283593 0,0.2364188 0.1882594,0.3020907 0.1926375,0.061294 0.4728375,0.061294 z"
         id="path15" />
      <path
         style="font-size:8.9664px;font-family:Vazirmatn"
         d="M 33.883772,5.8190808 34.49671,6.4276402 33.883772,7.0449558 33.275213,6.4276402 Z m -1.453537,0 0.612937,0.6085594 -0.612937,0.6173156 -0.60856,-0.6173156 z m -0.472838,4.3431002 h 0.897516 q 0.437812,0 0.591047,-0.2539314 0.157612,-0.2539312 0.157612,-0.6435844 0,-0.2845781 -0.05254,-0.6085594 -0.05254,-0.3239812 -0.113832,-0.6523406 l 0.761794,-0.1926375 q 0.07443,0.35025 0.118209,0.6873656 0.04378,0.3371157 0.04378,0.6435844 0,0.525375 -0.144478,0.9369183 -0.144479,0.411544 -0.472838,0.647963 Q 33.415313,10.959 32.863669,10.959 H 31.957397 Z M 31.314934,10.959 q -0.302091,0 -0.507862,-0.07881 -0.201394,-0.08318 -0.315225,-0.175125 -0.06567,0.573535 -0.319604,1.107666 -0.249553,0.538509 -0.753037,0.936919 -0.503485,0.398409 -1.33095,0.5604 l -0.25831,-0.691744 q 1.068263,-0.232041 1.506075,-0.814331 0.437813,-0.577913 0.437813,-1.370353 0,-0.372141 -0.08318,-0.7793066 -0.07881,-0.4115438 -0.223285,-0.8362219 l 0.726769,-0.245175 0.236419,0.9150281 q 0.09632,0.3677625 0.306469,0.5209964 0.21015,0.153235 0.529753,0.153235 h 0.166368 V 10.959 Z M 26.06994,9.3653621 q 0,-0.1138312 -0.05254,-0.2933344 -0.04816,-0.1838812 -0.118209,-0.3414937 l -0.774928,-1.7556282 0.682987,-0.3196031 0.993835,2.3379188 q 0.201394,0.4728375 0.35025,0.7267687 0.153234,0.2539313 0.297712,0.3502498 0.148857,0.09194 0.337116,0.09194 h 0.183881 V 10.959 h -0.183881 q -0.345872,0 -0.564778,-0.08319 -0.214528,-0.08318 -0.372141,-0.249553 -0.157612,-0.166369 -0.319603,-0.4203 -0.306469,0.385275 -0.783684,0.569156 -0.472838,0.179504 -1.182094,0.179504 -0.306469,0 -0.551644,-0.02627 -0.245175,-0.03065 -0.464081,-0.08319 v -0.79244 q 0.503484,0.118209 0.950053,0.118209 1.571747,0 1.571747,-0.8055749 z M 21.656788,4.461862 22.269725,5.0704214 21.656788,5.687737 21.048229,5.0704214 Z m -1.453538,0 0.612938,0.6085594 L 20.20325,5.687737 19.594691,5.0704214 Z m 0.389653,5.700319 q 0.494729,0 0.796819,-0.05692 0.306469,-0.05692 0.446569,-0.2495529 0.144478,-0.1970156 0.144478,-0.6085594 -0.214528,0.065672 -0.437812,0.1006969 -0.218907,0.035025 -0.472838,0.035025 -1.488562,0 -1.488562,-1.2214969 0,-0.4203 0.166368,-0.8406 0.170747,-0.4203 0.499107,-0.7005 0.328359,-0.2845781 0.796818,-0.2845781 0.429057,0 0.735525,0.2189062 0.310847,0.2189063 0.507863,0.5910469 0.201394,0.3677625 0.297712,0.8362219 0.09632,0.4640812 0.09632,0.9588094 0,0.6523406 -0.118209,1.0551281 -0.113831,0.3984089 -0.367763,0.6085599 -0.253931,0.205771 -0.661097,0.2802 -0.407165,0.07443 -0.993834,0.07443 h -1.61115 v -0.796819 z m 0.53851,-1.5323439 q 0.201394,0 0.398409,-0.035025 0.201394,-0.039403 0.402788,-0.096319 -0.03503,-0.3108468 -0.131344,-0.63045 -0.09194,-0.3196031 -0.275822,-0.5341312 -0.183881,-0.2189063 -0.49035,-0.2189063 -0.271444,0 -0.437812,0.1707469 -0.161991,0.1707469 -0.236419,0.4071656 -0.07005,0.2364188 -0.07005,0.4378125 0,0.3020907 0.214528,0.4027875 0.218906,0.096319 0.626072,0.096319 z m -2.513639,4.5838969 q -0.945675,0 -1.514832,-0.345872 -0.564778,-0.345872 -0.818709,-0.923784 -0.249553,-0.573535 -0.249553,-1.2609 0,-0.297713 0.04378,-0.6873659 0.04816,-0.3896531 0.214528,-0.8887594 l 0.696122,0.2583094 q -0.126966,0.4378125 -0.166369,0.7749279 -0.03503,0.337116 -0.03503,0.569157 0,0.472837 0.166369,0.86249 0.166369,0.389653 0.564778,0.621694 0.402788,0.232041 1.09891,0.232041 0.656718,0 1.125178,-0.161991 0.472837,-0.161991 0.72239,-0.385275 0.253932,-0.223284 0.253932,-0.407166 0,-0.21015 -0.183882,-0.359006 -0.179503,-0.148856 -0.586668,-0.148856 h -0.647963 q -0.08756,0 -0.126966,-0.07443 -0.0394,-0.07881 -0.07443,-0.201394 l -0.118209,-0.4203 q -0.0044,-0.03502 0.01751,-0.06567 0.02189,-0.03503 0.07881,-0.03503 h 2.429859 v 0.796819 h -0.179503 q 0.06567,0.131344 0.08318,0.249553 0.02189,0.118209 0.02189,0.245175 0,0.288956 -0.170747,0.595425 -0.166369,0.310847 -0.516619,0.573534 -0.345872,0.262688 -0.875625,0.424678 -0.529753,0.161991 -1.252143,0.161991 z m -8.200229,-3.051553 q 0.08319,-0.1401 0.175125,-0.275822 0.09194,-0.1401 0.175125,-0.2758219 V 4.9303214 h 0.739903 v 3.6382219 q 0.941297,-1.1339343 1.93951,-1.1339343 0.516619,0 0.901894,0.21015 0.389653,0.21015 0.604181,0.5822906 0.218906,0.3677625 0.218906,0.8493563 -0.0044,0.9588091 -0.809953,1.4228911 Q 13.561039,10.959 11.941133,10.959 H 9.6732641 v -0.796819 z m 3.073444,-1.9351314 q -1.05075,0 -2.276625,1.9351314 h 0.709256 q 1.247766,0 1.860704,-0.2495533 0.612937,-0.2495531 0.612937,-0.7924406 0,-0.385275 -0.249553,-0.6392063 Q 13.898155,8.2270496 13.490989,8.2270496 Z M 8.0840048,4.9303214 H 8.8239079 V 9.115809 q 0,0.6173156 0.2276625,0.8318437 0.2276625,0.2145283 0.6873657,0.2145283 H 9.8483892 V 10.959 H 9.7389361 q -0.8362219,0 -1.2477657,-0.442191 Q 8.0840048,10.07024 8.0840048,9.1114309 Z M 4.213742,10.162181 h 0.5122407 q 0.5560219,0 0.7924406,-0.2495533 0.2407969,-0.2495531 0.2407969,-0.7661718 0,-0.21015 -0.013134,-0.3984094 -0.00876,-0.1882594 -0.026269,-0.3765188 l 0.7311468,-0.087562 0.07005,1.0244813 q 0.052538,0.8537345 0.8887594,0.8537345 H 7.501714 V 10.959 H 7.4010171 q -0.4859719,0 -0.7793063,-0.175125 Q 6.3327546,10.60875 6.1532514,10.289146 5.9168327,10.635018 5.5315577,10.797009 5.1462827,10.959 4.7259827,10.959 H 4.213742 Z m 0.9018938,1.466672 0.6348281,0.634828 -0.6348281,0.634828 -0.6348281,-0.634828 z M 3.3950335,5.8190808 4.007971,6.4276402 3.3950335,7.0449558 2.7864742,6.4276402 Z m -1.4535375,0 L 2.5544335,6.4276402 1.941496,7.0449558 1.3329366,6.4276402 Z M 1.4686585,10.162181 h 0.8975156 q 0.4378126,0 0.5910469,-0.2539314 0.1576125,-0.2539312 0.1576125,-0.6435844 0,-0.2845781 -0.052538,-0.6085594 Q 3.0097585,8.3321246 2.9484648,8.0037652 L 3.7102585,7.8111277 q 0.074428,0.35025 0.1182094,0.6873656 0.043781,0.3371157 0.043781,0.6435844 0,0.525375 -0.1444782,0.9369183 Q 3.5832929,10.49054 3.2549335,10.726959 2.9265742,10.959 2.3749304,10.959 H 1.4686585 Z m -3.3764802,3.15225 -0.2583094,-0.696122 q 1.0682625,-0.232041 1.50607505,-0.814331 0.4378125,-0.577913 0.4378125,-1.370353 0,-0.372141 -0.0831844,-0.7793066 -0.0788063,-0.4115438 -0.22328438,-0.8362219 l 0.72676876,-0.245175 q 0.315225,0.8975156 0.315225,1.7293595 0,0.731147 -0.25830937,1.352841 -0.25393126,0.626071 -0.79244064,1.059506 -0.53413125,0.437812 -1.37035315,0.599803 z M -2.1705092,4.9303214 V 10.954622 H -2.9104124 V 4.9303214 Z"
         id="path16" />
    </g>
    <path
       id="path6"
       d="M 257.22662,21.2601 H 111.28188 c -2.75118,0 -4.98139,-2.23021 -4.98139,-4.98138 v -32.55744 c 0,-2.75117 2.23021,-4.98138 4.98139,-4.98138 h 145.94474 c 2.75118,0 4.98139,2.23021 4.98139,4.98138 v 32.55744 c 0,2.75117 -2.23021,4.98138 -4.98139,4.98138 z"
       style="fill:#e6fae6;fill-opacity:1;fill-rule:nonzero;stroke:#006633;stroke-width:0.3985;stroke-linecap:butt;stroke-linejoin:miter;stroke-miterlimit:10;stroke-dasharray:none;stroke-opacity:1"
       transform="matrix(1.3333333,0,0,-1.3333333,124.128,124.12533)" />
    <g
       id="text6"
       transform="matrix(1.3333333,0,0,1.3333333,330.12267,119.344)"
       aria-label="دﺎﻤﺘﻋاﯽﻠﻠﻤﻟا ﻦﯿﺑفﺮﻃهﺮﮐاﺬﻣﺮﺒﺘﻌﻣ">
      <path
         style="font-weight:800;font-size:8.9664px;font-family:Vazirmatn"
         d="m 56.237016,-1.2521438 q 0.359007,0 0.7005,-0.048159 0.345872,-0.052537 0.569157,-0.1926375 0.227662,-0.1401001 0.227662,-0.4071657 0,-0.2758219 -0.267065,-0.5866687 -0.262688,-0.315225 -0.7005,-0.6173157 -0.433435,-0.3020906 -0.945675,-0.5428875 l 0.538509,-1.1383125 q 0.464081,0.2276625 0.906272,0.5122406 0.446569,0.2802 0.801197,0.6260719 0.359006,0.3458719 0.569156,0.7661719 0.214528,0.4203 0.214528,0.9281625 0,0.7005 -0.319603,1.12955629 -0.315225,0.42905625 -0.888759,0.62169376 -0.573535,0.1926375 -1.339707,0.1926375 -0.35025,0 -0.65234,-0.02189063 -0.302091,-0.02626875 -0.591047,-0.09194062 v -1.2609 q 0.284578,0.056916 0.608559,0.096319 0.32836,0.035025 0.569156,0.035025 z m -3.436829,-4.8859876 h 1.182093 v 4.0016064 q 0,0.4640812 0.135722,0.6698531 0.135722,0.2013938 0.5604,0.2013938 h 0.109453 V 0 H 54.678402 Q 53.697702,0 53.246755,-0.50786251 52.800187,-1.015725 52.800187,-2.03145 Z M 47.169917,0 H 46.97728 l 0.0044,-1.2652781 h 0.166369 q 0.214528,0 0.385275,-0.1663688 0.175125,-0.1663688 0.332737,-0.4290563 0.161991,-0.2670656 0.337116,-0.5604 0.179503,-0.2977125 0.398409,-0.5604 0.223285,-0.2670656 0.516619,-0.4334344 0.293334,-0.1663687 0.687366,-0.1663687 0.494728,0 0.86249,0.2057719 0.372141,0.2057718 0.599803,0.5560219 0.227663,0.35025 0.302091,0.7836843 0.07443,0.4378125 0.245175,0.6041813 0.170747,0.1663688 0.363384,0.1663688 h 0.113832 V 0 h -0.11821 q -0.2802,0 -0.551644,-0.12696563 -0.271443,-0.13134375 -0.437812,-0.30646875 -0.218906,0.27582188 -0.485972,0.40716563 -0.267066,0.12696563 -0.643584,0.12696563 -0.455325,0 -0.853735,-0.19263751 -0.394031,-0.19701562 -0.77055,-0.48597188 -0.240797,0.24079688 -0.503484,0.41154376 Q 47.669023,0 47.169917,0 Z m 2.675035,-2.3773219 q -0.179503,0 -0.323982,0.1225875 -0.144478,0.1182094 -0.253931,0.2889562 -0.109453,0.1707469 -0.183881,0.3239813 0.135722,0.1225875 0.258309,0.21015 0.122588,0.087562 0.232041,0.1488563 0.148856,0.074428 0.271444,0.1094531 0.122587,0.030647 0.214528,0.030647 0.23204,0 0.332737,-0.1663688 0.100697,-0.1707469 0.100697,-0.385275 0,-0.2758219 -0.170747,-0.4772156 -0.170747,-0.2057719 -0.477215,-0.2057719 z m -5.621508,-2.9026969 0.744281,0.735525 0.735525,-0.735525 0.748659,0.7442812 -0.748659,0.7530375 -0.735525,-0.7442812 -0.744281,0.7442812 -0.744282,-0.7530375 z m -0.459703,4.0147407 h 0.612937 q 0.481594,0 0.661097,-0.1619907 0.183881,-0.1663687 0.183881,-0.6041812 0,-0.2583094 -0.01313,-0.4991063 -0.01314,-0.245175 -0.03065,-0.4772156 l 1.094531,-0.1357219 0.08756,1.2521438 q 0.02189,0.3327375 0.183881,0.4815937 0.161991,0.1444782 0.516619,0.1444782 h 0.09194 V 0 H 47.051713 Q 46.6139,0 46.298675,-0.1576125 45.987828,-0.31522501 45.786434,-0.56915626 45.519369,-0.30209063 45.151606,-0.14885625 44.788222,0 44.376678,0 h -0.612937 z m -3.835241,0 q -0.122587,-0.2189063 -0.192637,-0.5209969 -0.07005,-0.3064688 -0.07005,-0.5516438 0,-0.5209969 0.258309,-0.9588094 0.258309,-0.4421906 0.696122,-0.7048781 0.442191,-0.2670656 0.976322,-0.2670656 0.494728,0 0.901894,0.1795031 0.407165,0.175125 0.831843,0.4640812 l -0.455325,1.0419938 Q 42.5904,-2.7538407 42.305822,-2.8764282 42.021244,-2.9990157 41.67975,-2.9990157 q -0.201394,0 -0.407165,0.083184 -0.205772,0.083184 -0.341494,0.2407969 -0.135722,0.1532344 -0.135722,0.3721406 0,0.1838813 0.08318,0.3590063 0.08756,0.1707468 0.205772,0.3020906 0.11821,0.1269656 0.21015,0.1838813 0.01751,0.00438 0.07005,-0.013134 l 2.132147,-0.5078625 v 1.26965624 q -1.103287,0.3327375 -2.114634,0.52099688 Q 40.375069,0 39.420638,0 h -0.442191 v -1.2652781 z m -1.457917,-4.8728533 v 6.13375327 H 37.28849 V -6.1381314 Z m -2.364609,8.3884877 q -0.963187,0 -1.571747,-0.3721406 Q 33.930046,1.506075 33.64109,0.88000314 33.356512,0.25830938 33.356512,-0.50348438 q 0,-0.43343439 0.08318,-0.90627192 0.08756,-0.4728375 0.271444,-0.9631875 l 1.063884,0.385275 q -0.131343,0.3808969 -0.21015,0.7574157 -0.07881,0.37651871 -0.07881,0.70925622 0,0.42467813 0.148856,0.76617188 0.153235,0.34587188 0.507863,0.54726564 0.354628,0.20577188 0.963187,0.20577188 0.696122,0 1.116422,-0.14447813 0.4203,-0.14447813 0.60856,-0.32398126 0.192637,-0.17950312 0.192637,-0.2802 0,-0.15323438 -0.148856,-0.20139375 Q 37.730259,0 37.410656,0 h -0.691744 q -0.179503,0 -0.227663,-0.09194063 -0.04816,-0.09194062 -0.09194,-0.245175 L 36.211049,-1.015725 q -0.03065,-0.1094531 -0.02189,-0.1795031 0.01313,-0.07005 0.170747,-0.07005 h 2.644387 V 0 h 0.03503 q 0.0394,0.15323438 0.0394,0.245175 0,0.53413126 -0.354628,0.9894563 -0.35025,0.4597031 -1.015725,0.735525 -0.661097,0.2802 -1.602394,0.2802 z m -5.017326,-4.3431001 v -4.0453876 h 1.177715 v 4.0453876 q 0,0.4115438 0.131344,0.6216938 0.135722,0.2057719 0.534131,0.2057719 h 0.1401 V 0 H 32.940594 Q 32.476513,0 32.183179,-0.1401 31.894223,-0.28457813 31.675316,-0.56477813 31.443276,-0.2977125 31.132429,-0.14885625 30.82596,0 30.313719,0 h -0.267065 v -1.2652781 h 0.236419 q 0.44219,0 0.621693,-0.1970157 0.183882,-0.2013937 0.183882,-0.63045 z m -2.850161,0 v -4.0453876 h 1.177716 v 4.0453876 q 0,0.4115438 0.131343,0.6216938 0.135722,0.2057719 0.534132,0.2057719 h 0.1401 V 0 H 30.090434 Q 29.626353,0 29.333018,-0.1401 29.044062,-0.28457813 28.825156,-0.56477813 28.593115,-0.2977125 28.282268,-0.14885625 27.975799,0 27.463559,0 h -0.267066 v -1.2652781 h 0.236419 q 0.442191,0 0.621694,-0.1970157 0.183881,-0.2013937 0.183881,-0.63045 z M 22.24921,0 h -0.192638 l 0.0044,-1.2652781 h 0.166369 q 0.214528,0 0.385275,-0.1663688 0.175125,-0.1663688 0.332737,-0.4290563 0.161991,-0.2670656 0.337116,-0.5604 0.179503,-0.2977125 0.398409,-0.5604 0.223285,-0.2670656 0.516619,-0.4334344 0.293335,-0.1663687 0.687366,-0.1663687 0.494728,0 0.86249,0.2057719 0.372141,0.2057718 0.599804,0.5560219 0.227662,0.35025 0.30209,0.7836843 0.07443,0.4378125 0.245175,0.6041813 0.170747,0.1663688 0.363385,0.1663688 h 0.113831 V 0 h -0.11821 q -0.2802,0 -0.551643,-0.12696563 -0.271444,-0.13134375 -0.437813,-0.30646875 -0.218906,0.27582188 -0.485972,0.40716563 -0.267065,0.12696563 -0.643584,0.12696563 -0.455325,0 -0.853734,-0.19263751 -0.394032,-0.19701562 -0.77055,-0.48597188 -0.240797,0.24079688 -0.503485,0.41154376 Q 22.748316,0 22.24921,0 Z m 2.675034,-2.3773219 q -0.179503,0 -0.323981,0.1225875 -0.144478,0.1182094 -0.253932,0.2889562 -0.109453,0.1707469 -0.183881,0.3239813 0.135722,0.1225875 0.25831,0.21015 0.122587,0.087562 0.23204,0.1488563 0.148856,0.074428 0.271444,0.1094531 0.122587,0.030647 0.214528,0.030647 0.232041,0 0.332738,-0.1663688 0.100696,-0.1707469 0.100696,-0.385275 0,-0.2758219 -0.170746,-0.4772156 -0.170747,-0.2057719 -0.477216,-0.2057719 z m -5.599621,1.1120438 h 0.332738 q 0.455325,0 0.58229,-0.2145282 0.126966,-0.2145281 0.126966,-0.6523406 v -4.0059845 h 1.177716 v 4.1110595 q 0,1.0025906 -0.446569,1.51483127 Q 20.655573,0 19.652983,0 h -0.32836 z m -0.507862,-4.8728533 v 6.13375327 H 17.634668 V -6.1381314 Z M 9.0758535,-3.8002126 9.863916,-3.01215 9.0758535,-2.2284657 8.2921691,-3.01215 Z m 0.052538,4.79842512 q 0.63045,0 0.993834,-0.20139376 0.367763,-0.20139375 0.520997,-0.54726563 0.157613,-0.34587188 0.157613,-0.78368439 0,-0.47283754 -0.153235,-0.97194374 -0.148856,-0.5034844 -0.337115,-0.9588094 l 1.168959,-0.4378125 0.35025,1.0638844 q 0.07443,0.2276625 0.227663,0.4027875 0.153234,0.1707469 0.44219,0.1707469 h 0.175125 V 0 H 12.51706 Q 12.3288,0 12.1887,-0.03064688 12.0486,-0.06129375 11.926013,-0.14885625 11.785913,0.95880939 11.076657,1.6023938 10.3674,2.2503563 9.128391,2.2503563 8.1870941,2.2503563 7.5741566,1.89135 6.9655972,1.5323438 6.6722628,0.91065001 6.3789284,0.28895625 6.3789284,-0.49035001 q 0,-0.52099689 0.1138313,-1.07701879 0.1138312,-0.5604 0.3283593,-1.1164219 l 1.0638844,0.4071657 q -0.1619906,0.4640812 -0.2714437,0.9062719 -0.1094531,0.44219058 -0.1094531,0.82746559 0,0.42030001 0.1488562,0.77055001 0.1488563,0.35025001 0.5034844,0.56040001 0.3546281,0.21015001 0.9719438,0.21015001 z M 2.6575217,-1.2652781 h 0.6610969 q 0.4815937,0 0.6610969,-0.1619907 0.1838812,-0.1663687 0.1838812,-0.6041812 0,-0.2583094 -0.013134,-0.4991063 -0.013134,-0.245175 -0.030647,-0.4772156 l 1.0945312,-0.1357219 0.087562,1.2521438 q 0.021891,0.3327375 0.1838813,0.4815937 0.1619906,0.1444782 0.5166187,0.1444782 h 0.091941 V 0 H 5.993653 Q 5.5558405,0 5.2406155,-0.1576125 4.9297686,-0.31522501 4.7283749,-0.56915626 4.4613092,-0.30209063 4.0935467,-0.14885625 3.7301623,0 3.3186186,0 H 2.6575217 Z M 2.7713529,0.56040001 3.5156342,1.295925 4.2511592,0.56040001 4.9998186,1.3046813 4.2511592,2.0577188 3.5156342,1.3134375 2.7713529,2.0577188 2.0270717,1.3046813 Z M 0.6961219,0 h -0.78806251 v -1.2652781 h 0.79244064 q 0.33273747,0 0.45532497,-0.2057719 0.1269657,-0.21015 0.1269657,-0.5297532 0,-0.2977125 -0.074428,-0.6479625 -0.07005,-0.3546281 -0.1444781,-0.6917437 l 1.1470688,-0.2977125 q 0.083184,0.4115437 0.1313437,0.8187094 0.052538,0.4027875 0.052538,0.77055 0,0.5822906 -0.1576125,1.0463719 Q 2.0796094,-0.53850938 1.7074688,-0.26706563 1.3397063,0 0.6961219,0 Z M 0.80995315,0.51661876 1.5980157,1.3046813 0.80995315,2.0883657 0.02626877,1.3046813 Z"
         id="path17" />
      <path
         style="font-size:8.9664px;font-family:Vazirmatn"
         d="m 57.814097,4.3348964 0.634828,0.6348281 -0.634828,0.6348282 -0.634828,-0.6348282 z m 1.033237,4.9166345 q -0.214528,0.065672 -0.437812,0.1006968 -0.218907,0.035025 -0.472838,0.035025 -1.488562,0 -1.488562,-1.225875 0,-0.3108469 0.09632,-0.63045 0.09632,-0.3239813 0.2802,-0.5910469 0.18826,-0.2714437 0.459704,-0.4334344 0.271443,-0.1663687 0.626071,-0.1663687 0.429057,0 0.735525,0.2189062 0.310847,0.2189063 0.507863,0.5910469 0.201394,0.3677625 0.297712,0.8362219 0.09632,0.4640813 0.09632,0.9588094 0,0.6523406 -0.113831,1.0551279 -0.109453,0.39841 -0.359006,0.60856 -0.249553,0.205772 -0.661097,0.2802 -0.411544,0.07005 -1.011347,0.07005 h -1.449159 q -1.676822,0 -2.495532,-0.446569 -0.814331,-0.446569 -0.814331,-1.5454783 0,-0.3020906 0.06567,-0.5910469 0.07005,-0.2889562 0.179503,-0.5560218 l 0.678609,0.2539312 q -0.07005,0.1926375 -0.118209,0.4115438 -0.04378,0.2189062 -0.04378,0.4159219 0,0.5122406 0.293334,0.7880625 0.293335,0.2714437 0.862491,0.3721406 0.569156,0.100697 1.392244,0.100697 h 1.501696 q 0.516619,0 0.81871,-0.05692 0.306469,-0.05692 0.437812,-0.2495529 0.135722,-0.1970156 0.135722,-0.6041812 z M 57.9936,8.6342152 q 0.205772,0 0.402787,-0.035025 0.197016,-0.039403 0.402788,-0.096319 -0.03502,-0.3108469 -0.131344,-0.63045 -0.09194,-0.3196032 -0.275822,-0.5341313 -0.183881,-0.2189063 -0.49035,-0.2189063 -0.271444,0 -0.437812,0.1707469 -0.161991,0.1707469 -0.236419,0.4071657 -0.07005,0.2364187 -0.07005,0.4378125 0,0.2977125 0.214528,0.3984093 0.218906,0.1006969 0.621694,0.1006969 z M 51.569736,10.959 q -0.302091,0 -0.507863,-0.07881 -0.201394,-0.08318 -0.315225,-0.175125 -0.06567,0.573535 -0.319603,1.107666 -0.249553,0.538509 -0.753038,0.936919 -0.503484,0.398409 -1.33095,0.5604 l -0.258309,-0.691744 q 1.068262,-0.232041 1.506075,-0.814331 0.437813,-0.577913 0.437813,-1.370353 0,-0.372141 -0.08319,-0.7793066 -0.07881,-0.4115438 -0.223284,-0.8362219 l 0.726769,-0.245175 0.236418,0.9150281 q 0.09632,0.3677625 0.306469,0.5209964 0.21015,0.153235 0.529753,0.153235 h 0.166369 V 10.959 Z m -7.915651,-0.796819 q 0.08318,-0.1401 0.175125,-0.275822 0.09194,-0.1401 0.175125,-0.2758219 V 4.9303214 h 0.739903 v 3.6382219 q 0.941297,-1.1339343 1.93951,-1.1339343 0.516618,0 0.901893,0.21015 0.389653,0.21015 0.604182,0.5822906 0.218906,0.3677625 0.218906,0.8493563 -0.0044,0.9588091 -0.809953,1.4228911 Q 46.797579,10.959 45.177672,10.959 h -2.267868 v -0.796819 z m 3.073444,-1.9351314 q -1.05075,0 -2.276625,1.9351314 h 0.709256 q 1.247766,0 1.860703,-0.2495533 0.612938,-0.2495531 0.612938,-0.7924406 0,-0.385275 -0.249553,-0.6392063 Q 47.134694,8.2270496 46.727529,8.2270496 Z M 42.716572,7.7191871 42.545825,7.5659527 43.009906,6.9661496 q 0.577913,0.4772156 1.015725,0.8931375 0.442191,0.4115437 0.691744,0.8099531 0.249553,0.3940313 0.249553,0.8187094 0,0.6654754 -0.455325,1.0595064 -0.455325,0.394031 -1.199606,0.394031 -0.761794,0 -1.208363,-0.37214 -0.446568,-0.376519 -0.446568,-0.9544318 0,-0.5078625 0.271443,-0.945675 0.271444,-0.4421906 0.788063,-0.9500531 z m 1.506075,1.7337375 q 0,-0.2013937 -0.148856,-0.4115437 Q 43.929312,8.8268527 43.706028,8.6167027 43.487122,8.4021746 43.259459,8.205159 q -0.402787,0.385275 -0.63045,0.6917437 -0.227662,0.3020907 -0.227662,0.6348282 0,0.2539312 0.214528,0.4421906 0.214528,0.1882595 0.691744,0.1882595 0.481593,0 0.696122,-0.1751251 0.218906,-0.175125 0.218906,-0.5341313 z M 40.50257,10.959 q -0.30209,0 -0.507862,-0.07881 -0.201394,-0.08318 -0.315225,-0.175125 -0.06567,0.573535 -0.319603,1.107666 -0.249554,0.538509 -0.753038,0.936919 -0.503484,0.398409 -1.33095,0.5604 l -0.258309,-0.691744 q 1.068262,-0.232041 1.506075,-0.814331 0.437812,-0.577913 0.437812,-1.370353 0,-0.372141 -0.08318,-0.7793066 -0.07881,-0.4115438 -0.223285,-0.8362219 l 0.726769,-0.245175 0.236419,0.9150281 q 0.09632,0.3677625 0.306469,0.5209964 0.21015,0.153235 0.529753,0.153235 H 40.62078 V 10.959 Z M 34.885435,6.7122183 q 0.380897,0.2670656 0.79244,0.5647781 0.411544,0.2933344 0.766172,0.6304501 0.359006,0.3327375 0.577913,0.7136343 0.223284,0.3765188 0.223284,0.8055751 -0.0044,0.8143311 -0.564778,1.1733371 Q 36.124444,10.959 34.902947,10.959 h -1.068262 v -0.796819 h 1.063884 q 0.849356,0 1.217119,-0.148856 0.367762,-0.1532348 0.367762,-0.6041816 0,-0.2889563 -0.205772,-0.5647782 Q 36.076285,8.5685433 35.752303,8.3014777 35.4327,8.030034 35.064938,7.7717246 34.697175,7.5090371 34.373194,7.2551058 q -0.1401,-0.1138312 -0.214528,-0.2670656 -0.07443,-0.1532344 -0.07443,-0.3064688 0,-0.1795031 0.09632,-0.3371156 0.100696,-0.1619906 0.310846,-0.245175 L 37.639275,4.8208683 V 5.5957964 Z M 33.252395,4.9303214 V 10.954622 H 32.512491 V 4.9303214 Z M 29.285813,4.742062 29.920641,5.3768902 29.285813,6.0117183 28.650985,5.3768902 Z m 0.744281,4.6233001 q 0,-0.1138312 -0.05254,-0.2933344 -0.04816,-0.1838812 -0.11821,-0.3414937 l -0.774928,-1.7556282 0.682988,-0.3196031 0.993834,2.3379188 q 0.201394,0.4728375 0.35025,0.7267687 0.153235,0.2539313 0.297713,0.3502498 0.148856,0.09194 0.337115,0.09194 h 0.183882 V 10.959 h -0.183882 q -0.345872,0 -0.564778,-0.08319 -0.214528,-0.08318 -0.37214,-0.249553 -0.157613,-0.166369 -0.319604,-0.4203 -0.306468,0.385275 -0.783684,0.569156 -0.472837,0.179504 -1.182094,0.179504 -0.306468,0 -0.551644,-0.02627 -0.245175,-0.03065 -0.464081,-0.08319 v -0.79244 q 0.503485,0.118209 0.950053,0.118209 1.571747,0 1.571747,-0.8055749 z m -4.767778,1.6943349 q -0.437812,0 -0.809953,-0.18826 Q 24.084601,10.6788 23.686191,10.293525 23.401613,10.613128 23.138926,10.788253 22.876238,10.959 22.399022,10.959 h -0.192637 v -0.796819 h 0.170747 q 0.293334,0 0.494728,-0.1663689 0.201394,-0.1707469 0.359006,-0.4378125 0.157613,-0.2670656 0.310847,-0.5647781 0.157613,-0.3020907 0.35025,-0.5691563 0.192638,-0.2670656 0.464081,-0.4334344 0.275822,-0.1707468 0.67861,-0.1707468 0.485972,0 0.844978,0.2364187 0.363384,0.2320406 0.5604,0.6260719 0.201394,0.3940313 0.201394,0.8800031 0,0.7136343 -0.363385,1.1076653 -0.359006,0.389654 -1.015725,0.389654 z m -0.21015,-2.4648849 q -0.218906,0 -0.398409,0.1488562 -0.179503,0.1444782 -0.323981,0.3765188 -0.144479,0.2320406 -0.25831,0.4815938 0.262688,0.2758218 0.542888,0.4509471 0.359006,0.23204 0.639206,0.23204 0.647963,0 0.647963,-0.6523403 0,-0.455325 -0.227663,-0.7442812 Q 25.450576,8.5948121 25.052166,8.5948121 Z M 24.657331,10.959 q -0.302091,0 -0.507863,-0.07881 -0.201394,-0.08318 -0.315225,-0.175125 -0.06567,0.573535 -0.319603,1.107666 -0.249553,0.538509 -0.753038,0.936919 -0.503484,0.398409 -1.33095,0.5604 l -0.258309,-0.691744 q 1.068262,-0.232041 1.506075,-0.814331 0.437812,-0.577913 0.437812,-1.370353 0,-0.372141 -0.08318,-0.7793066 -0.07881,-0.4115438 -0.223284,-0.8362219 l 0.726768,-0.245175 0.236419,0.9150281 q 0.09632,0.3677625 0.306469,0.5209964 0.21015,0.153235 0.529753,0.153235 H 24.77554 V 10.959 Z m -6.63286,-0.796819 h 0.51224 q 0.556022,0 0.792441,-0.2495533 0.240797,-0.2495531 0.240797,-0.7661718 0,-0.21015 -0.01313,-0.3984094 -0.0088,-0.1882594 -0.02627,-0.3765188 l 0.731147,-0.087562 0.07005,1.0244813 q 0.05254,0.8537345 0.888759,0.8537345 h 0.09194 V 10.959 h -0.100697 q -0.485972,0 -0.779306,-0.175125 -0.288957,-0.175125 -0.46846,-0.494729 -0.236419,0.345872 -0.621694,0.507863 Q 18.957011,10.959 18.536711,10.959 h -0.51224 z m 0.901894,1.466672 0.634828,0.634828 -0.634828,0.634828 -0.634829,-0.634828 z M 16.741681,6.2218683 17.354619,6.8304277 16.741681,7.4477433 16.133122,6.8304277 Z m -1.453537,0 0.612937,0.6085594 -0.612937,0.6173156 -0.60856,-0.6173156 z m -0.472838,3.9403127 h 0.612938 q 0.556021,0 0.79244,-0.2495533 0.240797,-0.2495531 0.240797,-0.7661718 0,-0.21015 -0.01313,-0.3984094 -0.0088,-0.1882594 -0.02627,-0.3765188 l 0.731147,-0.087562 0.07005,1.0244813 q 0.05254,0.8537345 0.888759,0.8537345 h 0.09194 V 10.959 h -0.100697 q -0.485972,0 -0.779306,-0.175125 -0.288957,-0.175125 -0.46846,-0.494729 -0.236418,0.345872 -0.621693,0.507863 Q 15.848544,10.959 15.428244,10.959 H 14.815306 Z M 12.494898,7.5353058 q 0.337115,0 0.696122,0.056916 0.359006,0.052537 0.665475,0.1532343 0.310847,0.1006969 0.503484,0.245175 0.192638,0.1444782 0.192638,0.3239813 0,0.1269656 -0.135722,0.35025 -0.131344,0.2232844 -0.341494,0.4815938 -0.205772,0.2583093 -0.433434,0.4991062 -0.227663,0.2364188 -0.415922,0.4027879 0.306468,0.07881 0.58229,0.09632 0.275822,0.01751 0.499107,0.01751 h 0.682987 V 10.959 H 14.31182 q -0.459703,0 -0.919407,-0.109453 -0.455325,-0.109454 -0.897515,-0.363385 -0.288957,0.166369 -0.669853,0.271444 -0.376519,0.105075 -0.761794,0.153234 Q 10.682354,10.959 10.375885,10.959 H 9.6841415 v -0.796819 h 0.6961215 q 0.148857,0 0.39841,-0.0044 0.253931,-0.0088 0.520997,-0.03065 0.271443,-0.02627 0.472837,-0.07881 Q 11.584248,9.8819809 11.356585,9.6455621 11.128923,9.4047652 10.918773,9.1464559 10.713001,8.8881465 10.577279,8.6648621 q -0.135722,-0.2232844 -0.135722,-0.35025 0,-0.1795031 0.188259,-0.3239813 0.18826,-0.1444781 0.494729,-0.245175 0.310846,-0.1006968 0.669853,-0.1532343 0.359006,-0.056916 0.7005,-0.056916 z m 0,0.7530375 q -0.197016,0 -0.564778,0.030647 -0.363385,0.030647 -0.687366,0.1401 0.284578,0.3590063 0.573534,0.6435844 0.288957,0.2845781 0.481594,0.455325 0.197016,0.1663688 0.197016,0.1663688 0,0 0.197015,-0.1663688 0.197016,-0.1707469 0.49035,-0.455325 0.293335,-0.2845781 0.573535,-0.6435844 -0.323981,-0.1094531 -0.691744,-0.1401 -0.367762,-0.030647 -0.569156,-0.030647 z M 7.9591613,11.059697 q -0.4378125,0 -0.8099531,-0.18826 Q 6.7814457,10.6788 6.3830363,10.293525 6.0984582,10.613128 5.8357707,10.788253 5.5730831,10.959 5.0958675,10.959 H 4.90323 v -0.796819 h 0.1707469 q 0.2933344,0 0.4947281,-0.1663689 Q 5.7700988,9.8250652 5.9277113,9.5579996 6.0853238,9.290934 6.2385582,8.9932215 6.3961707,8.6911308 6.5888082,8.4240652 6.7814457,8.1569996 7.0528894,7.9906308 7.3287113,7.819884 7.7314988,7.819884 q 0.4859719,0 0.8449781,0.2364187 0.3633844,0.2320406 0.5604001,0.6260719 0.2013937,0.3940313 0.2013937,0.8800031 0,0.7136343 -0.3633844,1.1076653 -0.3590062,0.389654 -1.015725,0.389654 z m -0.21015,-2.4648849 q -0.2189062,0 -0.3984094,0.1488562 -0.1795031,0.1444782 -0.3239812,0.3765188 -0.1444782,0.2320406 -0.2583094,0.4815938 0.2626875,0.2758218 0.5428875,0.4509471 0.3590063,0.23204 0.6392063,0.23204 0.6479625,0 0.6479625,-0.6523403 0,-0.455325 -0.2276625,-0.7442812 Q 8.1474207,8.5948121 7.7490113,8.5948121 Z"
         id="path18" />
    </g>
    <path
       id="path8"
       d="M 165.09949,-35.4335 H 19.15474 c -2.75118,0 -4.98138,-2.23021 -4.98138,-4.98139 v -32.55745 c 0,-2.75117 2.2302,-4.98138 4.98138,-4.98138 h 145.94475 c 2.75117,0 4.98138,2.23021 4.98138,4.98138 v 32.55745 c 0,2.75118 -2.23021,4.98139 -4.98138,4.98139 z"
       style="fill:#e6fae6;fill-opacity:1;fill-rule:nonzero;stroke:#006633;stroke-width:0.3985;stroke-linecap:butt;stroke-linejoin:miter;stroke-miterlimit:10;stroke-dasharray:none;stroke-opacity:1"
       transform="matrix(1.3333333,0,0,-1.3333333,124.128,124.12533)" />
    <g
       id="text8"
       transform="matrix(1.3333333,0,0,1.3333333,191.90667,195.42)"
       aria-label="یﺮﯿﮔﻮﻠﺟزاﮓﻨﺟﯽﻠﺧادﻖﻓاﻮﺗﻞﺒﻗزایزوﺮﯿﭘ">
      <path
         style="font-weight:800;font-size:8.9664px;font-family:Vazirmatn"
         d="m 78.275236,2.206575 q -0.941297,0 -1.554234,-0.3590062 Q 76.112443,1.4885625 75.819108,0.86686876 75.525774,0.245175 75.525774,-0.53413126 q 0,-0.52099684 0.113831,-1.07701874 0.113831,-0.5604 0.328359,-1.1164219 l 1.063885,0.4071656 q -0.161991,0.4640813 -0.271444,0.9062719 -0.109453,0.44219063 -0.109453,0.82746564 0,0.42030001 0.148856,0.77055001 0.148856,0.35025001 0.503485,0.56040001 0.354628,0.21015001 0.971943,0.21015001 0.665475,0 1.107666,-0.15323438 0.442191,-0.14885625 0.661097,-0.35462813 0.218906,-0.20577188 0.218906,-0.36338438 0,-0.12696563 -0.157612,-0.12696563 h -0.709257 q -0.223284,0 -0.468459,-0.04378125 -0.240797,-0.04378125 -0.450947,-0.18825938 -0.21015,-0.14447813 -0.341494,-0.43343438 -0.126965,-0.28895626 -0.126965,-0.77492814 0,-0.455325 0.148856,-0.875625 0.148856,-0.4246781 0.424678,-0.7574157 0.2802,-0.3327375 0.669853,-0.5297531 0.389653,-0.1970156 0.875625,-0.1970156 0.32836,0 0.643585,0.1006969 0.319603,0.096319 0.586668,0.2889562 l -0.402787,1.1164219 q -0.227663,-0.1269656 -0.437813,-0.175125 -0.205772,-0.052537 -0.380897,-0.052537 -0.472837,0 -0.739903,0.3108469 -0.267065,0.3064687 -0.267065,0.7661719 0,0.1182094 0.07443,0.1488562 0.07881,0.030647 0.192637,0.030647 h 0.639207 q 0.503484,0 0.788062,0.1576125 0.288956,0.15761251 0.407166,0.43781251 0.122587,0.27582188 0.122587,0.63045001 0,0.62607189 -0.359006,1.14706878 Q 80.635046,1.5848813 79.94768,1.8957282 79.260314,2.206575 78.275236,2.206575 Z M 75.118609,0 Q 74.7202,0 74.46189,-0.15323438 74.286765,0.85373439 73.5994,1.5104531 72.916412,2.1671719 71.773722,2.3860782 L 71.340287,1.2171188 q 0.634828,-0.1357219 1.090153,-0.36338441 0.459703,-0.22328438 0.709257,-0.59980314 0.249553,-0.37651875 0.249553,-0.97194376 0,-0.39840939 -0.126966,-0.89313749 -0.126966,-0.4991063 -0.271444,-0.9281625 l 1.177716,-0.3808969 0.253931,0.9894562 q 0.07443,0.2802 0.218906,0.4728376 0.144479,0.1926375 0.429057,0.1926375 h 0.170747 V 0 Z m -6.891167,-1.2652781 h 0.661097 q 0.481594,0 0.661097,-0.1619907 0.183881,-0.1663687 0.183881,-0.6041812 0,-0.2583094 -0.01313,-0.4991063 -0.01313,-0.245175 -0.03065,-0.4772156 l 1.094531,-0.1357219 0.08756,1.2521438 q 0.02189,0.3327375 0.183881,0.4815937 0.161991,0.1444782 0.516619,0.1444782 h 0.09194 V 0 H 71.563574 Q 71.125761,0 70.810536,-0.1576125 70.499689,-0.31522501 70.298295,-0.56915626 70.03123,-0.30209063 69.663467,-0.14885625 69.300083,0 68.888539,0 H 68.227442 Z M 68.341273,0.56040001 69.085555,1.295925 69.82108,0.56040001 70.569739,1.3046813 69.82108,2.0577188 69.085555,1.3134375 68.341273,2.0577188 67.596992,1.3046813 Z M 64.484142,-5.2406157 v -0.665475 l 3.559415,-1.4491594 v 0.665475 z m 1.247765,1.1952281 q 0.586669,0.35025 1.037616,0.6873657 0.455325,0.3327375 0.713634,0.7180125 0.25831,0.385275 0.25831,0.8887594 0,0.6873656 -0.315225,1.06826249 -0.315225,0.38089688 -0.884381,0.53413126 Q 65.972704,0 65.215289,0 h -1.068263 v -1.2652781 h 1.063885 q 0.7005,0 1.05075,-0.096319 0.35025,-0.1006969 0.35025,-0.4071656 0,-0.1444782 -0.214529,-0.3327375 -0.214528,-0.1926375 -0.538509,-0.4027875 -0.319603,-0.2145282 -0.656719,-0.4203 -0.332737,-0.2101501 -0.577912,-0.3852751 -0.183881,-0.1313437 -0.2802,-0.35025 -0.09194,-0.2189062 -0.09194,-0.4465687 0,-0.245175 0.113831,-0.4597031 0.113832,-0.2145282 0.354629,-0.3108469 l 3.379912,-1.3791094 v 1.2521437 z m -3.541904,0.4246782 q 0.551643,0 0.936918,0.3283593 0.385275,0.3283594 0.604182,0.8668688 0.218906,0.5341313 0.262687,1.1602032 h 0.32836 V 0 h -0.415922 q -0.249554,0.99821252 -0.9807,1.5673688 -0.731147,0.5735344 -1.996425,0.8187094 L 60.495668,1.2171188 Q 61.047312,1.1120438 61.515771,0.93691877 61.988609,0.76179376 62.31259,0.52537501 62.640949,0.28895625 62.750403,0 h -0.411544 q -0.884381,0 -1.348463,-0.36776251 -0.464081,-0.37214063 -0.464081,-1.19960629 0,-0.3239812 0.100697,-0.6786094 0.100697,-0.3590062 0.306469,-0.6698531 0.205772,-0.315225 0.516618,-0.5078625 0.315225,-0.1970156 0.739904,-0.1970156 z m 0.144478,2.3554313 h 0.5604 q -0.02627,-0.245175 -0.105075,-0.5034844 -0.07443,-0.2583094 -0.223285,-0.4334344 -0.144478,-0.175125 -0.385275,-0.175125 -0.205772,0 -0.328359,0.1313437 -0.118209,0.1269657 -0.170747,0.3064688 -0.04816,0.175125 -0.04816,0.3239812 0,0.2320407 0.192637,0.2933344 0.197016,0.056916 0.507863,0.056916 z m -4.062896,-0.8274657 v -4.0453876 h 1.177716 v 4.0453876 q 0,0.4115438 0.131344,0.6216938 0.135721,0.2057719 0.534131,0.2057719 h 0.1401 V 0 H 60.123532 Q 59.659451,0 59.366116,-0.1401 59.07716,-0.28457813 58.858254,-0.56477813 58.626213,-0.2977125 58.315366,-0.14885625 58.008898,0 57.496657,0 h -0.267066 v -1.2652781 h 0.236419 q 0.442191,0 0.621694,-0.1970157 0.183881,-0.2013937 0.183881,-0.63045 z M 54.11674,0.51661876 54.904802,1.3046813 54.11674,2.0883657 53.333056,1.3046813 Z M 51.113346,-1.2652781 h 0.744281 q 0.564779,0 1.05075,-0.105075 0.485972,-0.1094532 0.998213,-0.3239813 0.516619,-0.2145281 1.173337,-0.5341313 -0.674231,-0.245175 -1.090153,-0.4115437 -0.415922,-0.1707469 -0.569156,-0.1707469 -0.236419,0 -0.429056,0.1488563 -0.18826,0.1444781 -0.310847,0.3064687 l -0.232041,0.2933344 -0.9807,-0.4815938 0.197016,-0.315225 q 0.310847,-0.5078625 0.744281,-0.8406 0.433435,-0.3371156 1.015725,-0.3371156 0.245175,0 0.569156,0.1138312 0.32836,0.1138313 0.7005,0.2845782 0.376519,0.1663687 0.774929,0.3371156 0.402787,0.1663687 0.79244,0.2845781 0.394032,0.1182094 0.753038,0.1225875 v 1.1602032 q -0.332738,0.043781 -0.617316,0.1488562 -0.284578,0.1006969 -0.591047,0.2583094 -0.306469,0.1576125 -0.713634,0.37651876 -0.5604,0.2977125 -1.059506,0.51224063 -0.494729,0.21452813 -1.020104,0.32835938 Q 52.492456,0 51.844493,0 h -0.731147 z m 0.94088,-3.8352376 0.788062,0.7880625 -0.788062,0.7836844 -0.783685,-0.7836844 z M 50.342379,2.3904563 49.89581,1.2171188 q 0.634828,-0.1357219 1.090153,-0.36338441 0.459703,-0.22328438 0.709257,-0.59980314 0.249553,-0.37651875 0.249553,-0.97194376 0,-0.39840939 -0.126966,-0.89313749 -0.126966,-0.4991063 -0.271444,-0.9281625 l 1.182094,-0.3808969 q 0.170747,0.4772156 0.258309,1.0288594 0.09194,0.5516437 0.09194,1.05950624 0,0.91940626 -0.341494,1.57612502 -0.337115,0.66109684 -0.954431,1.06826254 -0.612938,0.4115437 -1.440403,0.5779125 z m -0.192638,-8.5285877 v 6.13375327 H 48.967647 V -6.1381314 Z m -3.883817,0.8975157 v -0.665475 l 3.559416,-1.4491594 v 0.665475 z M 46.997071,0 h -1.107666 q -0.753037,0 -1.392243,-0.09194063 -0.639207,-0.09631875 -1.112044,-0.3327375 -0.468459,-0.23641876 -0.731147,-0.66109687 -0.258309,-0.4290563 -0.258309,-1.0945313 0,-0.3940312 0.08756,-0.77055 0.08756,-0.3765188 0.218906,-0.6961219 l 1.055129,0.3984094 q -0.07443,0.2057719 -0.153235,0.4815938 -0.07443,0.2714437 -0.07443,0.5166187 0,0.4378125 0.323981,0.6479625 0.323982,0.21015 0.858113,0.2758219 0.538509,0.061294 1.177715,0.061294 h 1.103288 q 0.7005,0 1.05075,-0.096319 0.35025,-0.1006969 0.35025,-0.4071656 0,-0.1444782 -0.214528,-0.3327375 -0.214528,-0.1926375 -0.538509,-0.4027875 -0.319604,-0.2145282 -0.656719,-0.4203 -0.332738,-0.2101501 -0.577913,-0.3852751 -0.183881,-0.1357218 -0.2802,-0.3546281 -0.09632,-0.2232844 -0.09632,-0.455325 0,-0.2539312 0.113832,-0.455325 0.118209,-0.2057719 0.359006,-0.3020906 l 3.379913,-1.3791094 v 1.2521437 l -2.364188,0.9588094 q 0.582291,0.35025 0.958809,0.6260719 0.376519,0.2758219 0.612938,0.5735344 0.240797,0.2933344 0.411544,0.7092563 0.131343,0.315225 0.249553,0.5078625 0.122587,0.1926375 0.306469,0.2802 0.183881,0.083184 0.503484,0.083184 h 0.118209 V 0 h -0.118209 q -0.529753,0 -0.888759,-0.15323438 -0.354629,-0.1576125 -0.604182,-0.52099688 -0.227662,0.25393125 -0.499106,0.40278751 -0.267066,0.14447812 -0.643584,0.21015 Q 47.553093,0 46.997071,0 Z m -6.847386,-3.0077719 1.094532,-0.1357219 0.08756,1.2521438 q 0.02189,0.3327375 0.183881,0.4815937 0.161991,0.1444782 0.516619,0.1444782 h 0.09194 V 0 H 42.023523 Q 41.58571,0 41.270485,-0.1576125 40.959638,-0.31522501 40.758245,-0.56915626 40.491179,-0.30209063 40.123417,-0.14885625 39.760032,0 39.348488,0 h -0.4203 v -1.2652781 h 0.4203 q 0.481594,0 0.661097,-0.1619907 0.183882,-0.1663687 0.183882,-0.6041812 0,-0.2583094 -0.01313,-0.4991063 -0.01313,-0.245175 -0.03065,-0.4772156 z m 0.240797,-2.3204063 0.788063,0.7880625 -0.788063,0.7836844 -0.783684,-0.7836844 z M 35.815337,0.51661876 36.603399,1.3046813 35.815337,2.0883657 35.031653,1.3046813 Z M 32.811943,-1.2652781 h 0.744281 q 0.564779,0 1.05075,-0.105075 0.485972,-0.1094532 0.998213,-0.3239813 0.516619,-0.2145281 1.173337,-0.5341313 -0.674231,-0.245175 -1.090153,-0.4115437 -0.415922,-0.1707469 -0.569156,-0.1707469 -0.236419,0 -0.429056,0.1488563 -0.18826,0.1444781 -0.310847,0.3064687 l -0.232041,0.2933344 -0.9807,-0.4815938 0.197016,-0.315225 q 0.310847,-0.5078625 0.744281,-0.8406 0.433435,-0.3371156 1.015725,-0.3371156 0.245175,0 0.569156,0.1138312 0.32836,0.1138313 0.7005,0.2845782 0.376519,0.1663687 0.774929,0.3371156 0.402787,0.1663687 0.79244,0.2845781 0.394031,0.1182094 0.753038,0.1225875 v 1.1602032 q -0.332738,0.043781 -0.617316,0.1488562 -0.284578,0.1006969 -0.591047,0.2583094 -0.306469,0.1576125 -0.713634,0.37651876 -0.5604,0.2977125 -1.059506,0.51224063 -0.494729,0.21452813 -1.020104,0.32835938 Q 34.191053,0 33.54309,0 h -0.731147 z m -0.495144,3.5156344 q -0.963187,0 -1.571747,-0.3721406 -0.604181,-0.3721407 -0.893137,-0.99821256 -0.284578,-0.62169376 -0.284578,-1.38348752 0,-0.43343439 0.08318,-0.90627192 0.08756,-0.4728375 0.271444,-0.9631875 l 1.063884,0.385275 q -0.131343,0.3808969 -0.21015,0.7574157 -0.07881,0.37651871 -0.07881,0.70925622 0,0.42467813 0.148856,0.76617188 0.153235,0.34587188 0.507863,0.54726564 0.354628,0.20577188 0.963187,0.20577188 0.696122,0 1.116422,-0.14447813 0.4203,-0.14447813 0.60856,-0.32398126 0.192637,-0.17950312 0.192637,-0.2802 0,-0.15323438 -0.148856,-0.20139375 Q 33.941084,0 33.621481,0 h -0.691744 q -0.179503,0 -0.227663,-0.09194063 -0.04816,-0.09194062 -0.09194,-0.245175 L 32.421874,-1.015725 q -0.03065,-0.1094531 -0.02189,-0.1795031 0.01313,-0.07005 0.170747,-0.07005 h 2.644387 V 0 h 0.03503 q 0.0394,0.15323438 0.0394,0.245175 0,0.53413126 -0.354628,0.9894563 -0.35025,0.4597031 -1.015725,0.735525 -0.661097,0.2802 -1.602394,0.2802 z m -5.017332,-4.3431001 v -4.0453876 h 1.177715 v 4.0453876 q 0,0.4115438 0.131344,0.6216938 0.135722,0.2057719 0.534131,0.2057719 h 0.1401 V 0 H 29.151414 Q 28.687332,0 28.393998,-0.1401 28.105042,-0.28457813 27.886136,-0.56477813 27.654095,-0.2977125 27.343248,-0.14885625 27.036779,0 26.524539,0 h -0.267066 v -1.2652781 h 0.236419 q 0.44219,0 0.621694,-0.1970157 0.183881,-0.2013937 0.183881,-0.63045 z m -4.430663,-4.027875 0.788062,0.7880625 -0.788062,0.7836844 -0.783685,-0.7836844 z m -2.727572,4.8553407 h 0.744281 q 0.564778,0 1.05075,-0.105075 0.485972,-0.1094532 0.998212,-0.3239813 0.516619,-0.2145281 1.173338,-0.5341313 -0.674231,-0.245175 -1.090153,-0.4115437 -0.415922,-0.1707469 -0.569156,-0.1707469 -0.236419,0 -0.429057,0.1488563 -0.188259,0.1444781 -0.310847,0.3064687 l -0.23204,0.2933344 -0.9807,-0.4815938 0.197015,-0.315225 q 0.310847,-0.5078625 0.744282,-0.8406 0.433434,-0.3371156 1.015725,-0.3371156 0.245175,0 0.569156,0.1138312 0.328359,0.1138313 0.7005,0.2845782 0.376519,0.1663687 0.774928,0.3371156 0.402788,0.1663687 0.792441,0.2845781 0.394031,0.1182094 0.753037,0.1225875 v 1.1602032 q -0.332737,0.043781 -0.617315,0.1488562 -0.284579,0.1006969 -0.591047,0.2583094 -0.306469,0.1576125 -0.713635,0.37651876 -0.5604,0.2977125 -1.059506,0.51224063 -0.494728,0.21452813 -1.020103,0.32835938 Q 21.520341,0 20.872378,0 H 20.141232 Z M 19.63337,-6.1381314 v 6.13375327 H 18.451276 V -6.1381314 Z m -4.754644,4.8859876 q 0.359006,0 0.7005,-0.048159 0.345872,-0.052537 0.569156,-0.1926375 0.227662,-0.1401001 0.227662,-0.4071657 0,-0.2758219 -0.267065,-0.5866687 -0.262688,-0.315225 -0.7005,-0.6173157 -0.433435,-0.3020906 -0.945675,-0.5428875 l 0.538509,-1.1383125 q 0.464081,0.2276625 0.906272,0.5122406 0.446569,0.2802 0.801197,0.6260719 0.359006,0.3458719 0.569156,0.7661719 0.214528,0.4203 0.214528,0.9281625 0,0.7005 -0.319603,1.12955629 -0.315225,0.42905625 -0.888759,0.62169376 -0.573535,0.1926375 -1.339706,0.1926375 -0.35025,0 -0.652341,-0.02189063 -0.302091,-0.02626875 -0.591047,-0.09194062 v -1.2609 q 0.284578,0.056916 0.608559,0.096319 0.32836,0.035025 0.569157,0.035025 z"
         id="path19" />
      <path
         style="font-size:8.9664px;font-family:Vazirmatn"
         d="m 67.979152,13.213734 q -0.945675,0 -1.514831,-0.345872 -0.564778,-0.345872 -0.818709,-0.923784 -0.249554,-0.573535 -0.249554,-1.2609 0,-0.464082 0.09632,-0.9500534 0.09632,-0.49035 0.262688,-0.9544313 l 0.696122,0.2802001 q -0.126966,0.4027875 -0.214529,0.8274656 -0.08756,0.424678 -0.08756,0.823088 0,0.472837 0.166369,0.86249 0.170747,0.389653 0.569156,0.621694 0.398409,0.232041 1.094531,0.232041 1.024482,0 1.523588,-0.376519 0.499106,-0.376519 0.499106,-1.090153 h -0.744281 q -1.65931,0 -1.65931,-1.3440848 0,-0.4290562 0.170747,-0.8581125 0.175125,-0.4290562 0.503485,-0.7136344 0.332737,-0.2845781 0.801197,-0.2845781 0.682987,0 1.151446,0.6129375 0.46846,0.6085594 0.485972,1.7906533 h 0.507863 V 10.959 h -0.516619 q 0,1.063884 -0.726769,1.659309 -0.72239,0.595425 -1.996425,0.595425 z m 1.234632,-3.051553 h 0.774928 q -0.05254,-0.8449783 -0.2802,-1.2302533 -0.223285,-0.385275 -0.647963,-0.385275 -0.2802,0 -0.44219,0.1795031 -0.157613,0.1795032 -0.223285,0.4246782 -0.06129,0.2407969 -0.06129,0.4378125 0,0.3064687 0.205772,0.4421905 0.21015,0.131344 0.674232,0.131344 z M 69.730402,5.8847527 70.34334,6.4933121 69.730402,7.1106277 69.121843,6.4933121 Z m -1.453537,0 0.612937,0.6085594 -0.612937,0.6173156 -0.60856,-0.6173156 z m -5.503302,-1.506075 0.634828,0.6348281 -0.634828,0.6348281 -0.634828,-0.6348281 z m -0.332737,5.7835033 q 0.494728,0 0.796819,-0.05692 0.306468,-0.05692 0.446568,-0.2495529 0.144478,-0.1970156 0.144478,-0.6085594 -0.214528,0.065672 -0.437812,0.1006969 -0.218906,0.035025 -0.472838,0.035025 -1.488562,0 -1.488562,-1.2214969 0,-0.4203 0.166369,-0.8406 0.170747,-0.4203 0.499106,-0.7005 0.328359,-0.2845781 0.796819,-0.2845781 0.429056,0 0.735525,0.2189062 0.310847,0.2189063 0.507862,0.5910469 0.201394,0.3677625 0.297713,0.8362219 0.09632,0.4640812 0.09632,0.9588094 0,0.6523406 -0.118209,1.0551281 -0.113831,0.3984089 -0.367762,0.6085599 -0.253932,0.205771 -0.661097,0.2802 -0.407166,0.07443 -0.993835,0.07443 h -1.61115 v -0.796819 z m 0.538509,-1.5323439 q 0.201394,0 0.39841,-0.035025 0.201393,-0.039403 0.402787,-0.096319 -0.03502,-0.3108468 -0.131344,-0.63045 -0.09194,-0.3196031 -0.275822,-0.5341312 -0.183881,-0.2189063 -0.49035,-0.2189063 -0.271443,0 -0.437812,0.1707469 -0.161991,0.1707469 -0.236419,0.4071656 -0.07005,0.2364188 -0.07005,0.4378125 0,0.3020907 0.214528,0.4027875 0.218907,0.096319 0.626072,0.096319 z M 60.194844,4.9303214 V 10.954622 H 59.454941 V 4.9303214 Z m -3.489365,2.8282688 q 0.682987,0 1.151447,0.6129375 0.468459,0.6085594 0.485971,1.7906533 h 0.529754 V 10.959 h -0.599804 q -0.09632,0.503484 -0.385275,0.971943 -0.284578,0.472838 -0.849356,0.831844 -0.564778,0.363385 -1.497319,0.542888 L 55.282588,12.609553 Q 57.265879,12.228656 57.581104,10.959 H 56.88936 q -1.65931,0 -1.65931,-1.3440848 0,-0.4290562 0.170747,-0.8581125 0.175125,-0.4290562 0.503485,-0.7136344 0.332737,-0.2845781 0.801197,-0.2845781 z m 0.1401,2.4035908 h 0.774928 q -0.05254,-0.8449783 -0.2802,-1.2302533 -0.223285,-0.385275 -0.647963,-0.385275 -0.2802,0 -0.44219,0.1795031 -0.157613,0.1795032 -0.223285,0.4246782 -0.06129,0.2407969 -0.06129,0.4378125 0,0.3064687 0.205772,0.4421905 0.21015,0.131344 0.674232,0.131344 z M 53.885966,5.8190808 54.498904,6.4276402 53.885966,7.0449558 53.277407,6.4276402 Z m -1.453537,0 0.612937,0.6085594 -0.612937,0.6173156 -0.608559,-0.6173156 z m -0.472838,4.3431002 h 0.897516 q 0.437813,0 0.591047,-0.2539314 0.157612,-0.2539312 0.157612,-0.6435844 0,-0.2845781 -0.05254,-0.6085594 -0.05254,-0.3239812 -0.113831,-0.6523406 l 0.761793,-0.1926375 q 0.07443,0.35025 0.11821,0.6873656 0.04378,0.3371157 0.04378,0.6435844 0,0.525375 -0.144478,0.9369183 -0.144478,0.411544 -0.472838,0.647963 Q 53.417507,10.959 52.865863,10.959 h -0.906272 z m -0.762387,2.968369 q -0.814331,0 -1.326572,-0.293335 -0.51224,-0.288956 -0.753037,-0.809953 -0.240797,-0.520997 -0.240797,-1.208362 0,-0.464082 0.09632,-0.9500535 0.09632,-0.49035 0.262687,-0.9544313 l 0.696122,0.2802 q -0.126965,0.4027875 -0.214528,0.8274658 -0.08756,0.424678 -0.08756,0.823087 0,0.709257 0.359006,1.103288 0.363384,0.394031 1.208362,0.394031 0.783685,0 1.177716,-0.429056 0.398409,-0.429056 0.398409,-1.383488 V 4.9303214 h 0.739903 v 4.2380251 q 0,0.49035 0.179504,0.7442812 0.183881,0.2495533 0.713634,0.2495533 h 0.131344 V 10.959 h -0.122588 q -0.385275,0 -0.551643,-0.07443 -0.166369,-0.07881 -0.354629,-0.25831 0,1.252144 -0.591047,1.878216 -0.591046,0.626072 -1.720603,0.626072 z m -5.954252,-2.968369 h 0.512241 q 0.556022,0 0.79244,-0.2495533 0.240797,-0.2495531 0.240797,-0.7661718 0,-0.21015 -0.01313,-0.3984094 -0.0088,-0.1882594 -0.02627,-0.3765188 l 0.731147,-0.087562 0.07005,1.0244813 q 0.05254,0.8537345 0.888759,0.8537345 h 0.09194 V 10.959 h -0.100697 q -0.485972,0 -0.779306,-0.175125 -0.288956,-0.175125 -0.468459,-0.494729 -0.236419,0.345872 -0.621694,0.507863 Q 46.175493,10.959 45.755193,10.959 h -0.512241 z m 0.901894,1.466672 0.634828,0.634828 -0.634828,0.634828 -0.634828,-0.634828 z M 43.876979,4.461862 44.489916,5.0704214 43.876979,5.687737 43.26842,5.0704214 Z m -1.453538,0 0.612938,0.6085594 -0.612938,0.6173156 -0.608559,-0.6173156 z m 0.389653,5.700319 q 0.494729,0 0.796819,-0.05692 0.306469,-0.05692 0.446569,-0.2495529 0.144478,-0.1970156 0.144478,-0.6085594 -0.214528,0.065672 -0.437812,0.1006969 -0.218907,0.035025 -0.472838,0.035025 -1.488562,0 -1.488562,-1.2214969 0,-0.4203 0.166368,-0.8406 0.170747,-0.4203 0.499107,-0.7005 0.328359,-0.2845781 0.796818,-0.2845781 0.429057,0 0.735525,0.2189062 0.310847,0.2189063 0.507863,0.5910469 0.201394,0.3677625 0.297712,0.8362219 0.09632,0.4640812 0.09632,0.9588094 0,0.6523406 -0.118209,1.0551281 -0.113831,0.3984089 -0.367763,0.6085599 -0.253931,0.205771 -0.661097,0.2802 -0.407165,0.07443 -0.993834,0.07443 h -1.61115 v -0.796819 z m 0.53851,-1.5323439 q 0.201394,0 0.398409,-0.035025 0.201394,-0.039403 0.402788,-0.096319 -0.03502,-0.3108468 -0.131344,-0.63045 -0.09194,-0.3196031 -0.275822,-0.5341312 -0.183881,-0.2189063 -0.49035,-0.2189063 -0.271444,0 -0.437812,0.1707469 -0.161991,0.1707469 -0.236419,0.4071656 -0.07005,0.2364188 -0.07005,0.4378125 0,0.3020907 0.214528,0.4027875 0.218906,0.096319 0.626072,0.096319 z M 42.388031,6.4539089 43.022859,7.0887371 42.388031,7.7235652 41.753202,7.0887371 Z m -1.602394,6.8605221 -0.25831,-0.696122 q 1.068263,-0.232041 1.506076,-0.814331 0.437812,-0.577913 0.437812,-1.370353 0,-0.372141 -0.08318,-0.7793066 -0.07881,-0.4115438 -0.223285,-0.8362219 l 0.726769,-0.245175 q 0.315225,0.8975156 0.315225,1.7293595 0,0.731147 -0.258309,1.352841 -0.253932,0.626071 -0.792441,1.059506 -0.534131,0.437812 -1.370353,0.599803 z M 40.52295,4.9303214 V 10.954622 H 39.783047 V 4.9303214 Z m -2.194039,5.2318596 h 1.247766 q 0.437813,0 0.591047,-0.2539314 0.157612,-0.2539312 0.157612,-0.6435844 0,-0.2845781 -0.05254,-0.6085594 -0.05254,-0.3239812 -0.113831,-0.6523406 l 0.761793,-0.1926375 q 0.07443,0.35025 0.11821,0.6873656 0.04378,0.3371157 0.04378,0.6435844 0,0.525375 -0.144478,0.9369183 -0.144478,0.411544 -0.472838,0.647963 Q 40.137077,10.959 39.585433,10.959 h -1.256522 z m 1.878216,1.492941 0.612938,0.608559 -0.612938,0.617316 -0.608559,-0.617316 z m -1.453538,0 0.612938,0.608559 -0.612938,0.617316 -0.608559,-0.617316 z M 36.761543,6.4539089 37.396371,7.0887371 36.761543,7.7235652 36.126715,7.0887371 Z M 38.385827,10.959 q -0.30209,0 -0.507862,-0.07881 -0.201394,-0.08318 -0.315225,-0.175125 -0.06567,0.573535 -0.319603,1.107666 -0.249553,0.538509 -0.753038,0.936919 -0.503484,0.398409 -1.33095,0.5604 L 34.90084,12.618309 q 1.068262,-0.232041 1.506075,-0.814331 0.437812,-0.577913 0.437812,-1.370353 0,-0.372141 -0.08318,-0.7793066 -0.07881,-0.4115438 -0.223284,-0.8362219 l 0.726768,-0.245175 0.236419,0.9150281 q 0.09632,0.3677625 0.306469,0.5209964 0.21015,0.153235 0.529753,0.153235 h 0.166369 V 10.959 Z m -3.734541,-0.74866 q 0,2.556825 -2.806378,3.095335 l -0.25831,-0.696122 q 1.006969,-0.192638 1.606772,-0.643585 0.599803,-0.446568 0.709257,-1.125178 -0.166369,0.05254 -0.385275,0.09194 -0.218907,0.0394 -0.385275,0.0394 -1.598016,0 -1.598016,-1.3572188 0,-0.3239812 0.09632,-0.6479625 0.100696,-0.3283594 0.288956,-0.5998031 0.192637,-0.2758219 0.468459,-0.4421906 0.275822,-0.1663688 0.626072,-0.1663688 0.415922,0 0.722391,0.2057719 0.310847,0.2057719 0.51224,0.5560219 0.201394,0.35025 0.302091,0.7880625 0.100697,0.4378125 0.100697,0.9018935 z m -1.497319,-0.03065 q 0.385275,0 0.766172,-0.113831 -0.04378,-0.7355249 -0.271444,-1.125178 -0.227662,-0.3940313 -0.643584,-0.3940313 -0.288956,0 -0.450947,0.1795031 -0.157613,0.1795032 -0.223284,0.4246782 -0.06129,0.2407969 -0.06129,0.4378125 0,0.3196031 0.218906,0.4553245 0.218906,0.135722 0.665475,0.135722 z M 30.953418,10.959 q -0.302091,0 -0.507862,-0.07881 -0.201394,-0.08318 -0.315225,-0.175125 -0.06567,0.573535 -0.319604,1.107666 -0.249553,0.538509 -0.753037,0.936919 -0.503485,0.398409 -1.33095,0.5604 l -0.25831,-0.691744 q 1.068263,-0.232041 1.506075,-0.814331 0.437813,-0.577913 0.437813,-1.370353 0,-0.372141 -0.08318,-0.7793066 -0.07881,-0.4115438 -0.223285,-0.8362219 l 0.726769,-0.245175 0.236419,0.9150281 q 0.09632,0.3677625 0.306469,0.5209964 0.21015,0.153235 0.529753,0.153235 h 0.166368 V 10.959 Z m -6.781716,-0.796819 h 0.661097 q 0.556022,0 0.792441,-0.2495533 0.240797,-0.2495531 0.240797,-0.7661718 0,-0.21015 -0.01313,-0.3984094 -0.0088,-0.1882594 -0.02627,-0.3765188 l 0.731147,-0.087562 0.07005,1.0244813 q 0.05254,0.8537345 0.888759,0.8537345 h 0.09194 V 10.959 h -0.100697 q -0.485972,0 -0.779307,-0.175125 -0.288956,-0.175125 -0.468459,-0.494729 -0.236419,0.345872 -0.621694,0.507863 Q 25.253099,10.959 24.832799,10.959 h -0.661097 z m 1.580504,1.492941 0.612937,0.608559 -0.612937,0.617316 -0.60856,-0.617316 z m -1.453538,0 0.612937,0.608559 -0.612937,0.617316 -0.608559,-0.617316 z m -2.920209,-1.492941 h 0.950053 q 0.437813,0 0.591047,-0.2539314 0.157612,-0.2539312 0.157612,-0.6435844 0,-0.2845781 -0.05254,-0.6085594 -0.05254,-0.3239812 -0.113831,-0.6523406 l 0.761793,-0.1926375 q 0.07443,0.35025 0.11821,0.6873656 0.04378,0.3371157 0.04378,0.6435844 0,0.525375 -0.144478,0.9369183 -0.144478,0.411544 -0.472838,0.647963 Q 22.888912,10.959 22.337268,10.959 h -0.958809 z m 1.584881,1.348462 0.591047,0.591047 -0.591047,0.591047 -0.591047,-0.591047 z m -1.497319,0 0.591047,0.591047 -0.591047,0.591047 -0.591046,-0.591047 z m 0.74866,1.107666 0.591047,0.591047 -0.591047,0.591047 -0.591047,-0.591047 z"
         id="path20" />
    </g>
    <path
       id="path10"
       d="m 134.64734,0 c 0,11.74178 -19.03667,21.2601 -42.52024,21.2601 -23.48355,0 -42.52021,-9.51832 -42.52021,-21.2601 0,-11.74178 19.03666,-21.2601 42.52021,-21.2601 23.48357,0 42.52024,9.51832 42.52024,21.2601 z"
       style="fill:#b3d1c2;fill-opacity:1;fill-rule:nonzero;stroke:#006633;stroke-width:1.99255;stroke-linecap:butt;stroke-linejoin:miter;stroke-miterlimit:10;stroke-dasharray:none;stroke-opacity:1"
       transform="matrix(1.3333333,0,0,-1.3333333,124.128,124.12533)" />
    <path
       style="font-weight:800;font-size:9.9626px;font-family:Vazirmatn"
       d="m 21.861291,-7.9438112 0.875619,0.8756191 -0.875619,0.8707546 -0.870755,-0.8707546 z m 0.895077,6.0028555 q -0.355112,0.068104 -0.754005,0.068104 -0.861026,0 -1.362075,-0.379435 -0.501048,-0.3794349 -0.501048,-1.1869503 0,-0.5253715 0.223769,-1.0264202 0.228634,-0.5010487 0.642121,-0.8269736 0.413486,-0.3307895 0.968045,-0.3307895 0.54483,0 0.929129,0.2675503 0.3843,0.2675503 0.627527,0.7199535 0.243228,0.4524032 0.355113,1.0118266 0.116749,0.5545587 0.116749,1.1334403 0,1.0118265 -0.272415,1.55179162 -0.272415,0.53510058 -0.846432,0.7394117 Q 22.313694,0 21.413752,0 h -1.619895 q -0.841568,0 -1.551792,-0.10215556 -0.710224,-0.10702012 -1.235596,-0.36970585 -0.520507,-0.26268574 -0.807515,-0.73454719 -0.287009,-0.4767259 -0.287009,-1.2161376 0,-0.4378096 0.09729,-0.8512964 0.09729,-0.4183514 0.243228,-0.7734636 l 1.172356,0.4426742 q -0.0827,0.2286338 -0.170259,0.530236 -0.0827,0.3016021 -0.0827,0.574017 0,0.486455 0.359977,0.7199535 0.359976,0.2334984 0.958316,0.3064666 0.59834,0.068104 1.3037,0.068104 h 1.717186 q 0.627527,0 0.933994,-0.077833 0.306466,-0.077833 0.311331,-0.4572677 z M 21.97804,-3.1035833 q 0.37457,0 0.744276,-0.082697 -0.03405,-0.2334984 -0.131343,-0.4815905 -0.09243,-0.2529566 -0.248092,-0.4280805 -0.150801,-0.1751238 -0.379435,-0.1751238 -0.301602,0 -0.466997,0.2480921 -0.16053,0.2432275 -0.16053,0.5253715 0,0.2578212 0.184853,0.3259249 0.189718,0.068104 0.457268,0.068104 z m -9.446958,1.493417 q 0.841567,-0.3551122 0.841567,-1.8339356 V -6.8201 h 1.3037 v 3.6338193 q 0,0.432945 0.04378,0.8464318 0.04865,0.4086223 0.209175,0.671308 0.165395,0.2626858 0.505914,0.2626858 h 0.179988 V 0 h -0.194582 q -0.603204,0 -0.997233,-0.27727939 -0.389164,-0.28214394 -0.59834,-0.72481801 -0.48159,0.49131958 -1.250189,0.74914077 Q 11.811128,0 10.867406,0 10.60472,0 10.346899,-0.0194582 10.093942,-0.03891641 9.8312563,-0.05837461 V -1.4155842 q 0.3016017,0.019458 0.6032047,0.043781 0.306466,0.019458 0.530236,0.019458 0.08756,0 0.16053,0 0.07783,0 0.145936,-0.00486 0,0 -0.0681,-0.3064667 -0.06324,-0.3064667 -0.189718,-0.8172445 -0.121614,-0.5156424 -0.301602,-1.148034 -0.175124,-0.6323916 -0.398893,-1.2939705 -0.223769,-0.6615789 -0.4864552,-1.2501895 l 1.1966792,-0.5205069 q 0.267551,0.6226625 0.496184,1.3231578 0.228634,0.6956307 0.413487,1.3620742 0.189718,0.6664434 0.321061,1.2112731 0.136207,0.5399651 0.204311,0.86589 z M 6.23149,-5.8666481 7.0584636,-5.0494036 7.8757081,-5.8666481 8.7075463,-5.0396745 7.8757081,-4.2029718 7.0584636,-5.0299454 6.23149,-4.2029718 5.4045164,-5.0396745 Z m -0.5107778,4.460793 h 0.6810371 q 0.5351005,0 0.7345471,-0.1799884 0.2043111,-0.1848529 0.2043111,-0.671308 0,-0.2870085 -0.014594,-0.5545588 -0.014594,-0.2724148 -0.034052,-0.530236 l 1.2161377,-0.1508011 0.097291,1.3912615 q 0.024323,0.3697059 0.2043111,0.5351006 0.1799884,0.1605302 0.574017,0.1605302 H 9.4858744 V 0 H 9.3739897 Q 8.8875346,0 8.537287,-0.17512382 8.1919039,-0.35024765 7.9681346,-0.63239159 7.671397,-0.335654 7.2627747,-0.16539472 6.859017,0 6.4017493,0 H 5.7207122 Z M 3.6192258,-4.9569771 Q 3.4538311,-5.08832 3.3662692,-5.2488502 q -0.082697,-0.1605301 -0.082697,-0.4183513 0,-0.432945 0.3016021,-0.7102244 0.3016022,-0.282144 0.6859017,-0.282144 0.2091757,0 0.3453831,0.043781 0.141072,0.043781 0.2821439,0.1264783 l 0.00486,0.574017 q -0.2870085,-0.1459365 -0.5642879,-0.1459365 -0.194582,0 -0.3599767,0.1167492 -0.1653948,0.1167492 -0.1653948,0.3405185 0.00486,0.1313429 0.1264783,0.2432276 0.1216138,0.1118846 0.379435,0.077833 0,0 0.038916,-0.00973 l 0.7004953,-0.2529567 0.082697,0.5594234 -1.9458203,0.768599 -0.077833,-0.5448297 z M 3.5316639,0 H 2.534431 v -1.4058551 h 1.0020974 q 0.3697059,0 0.5059133,-0.2286339 0.141072,-0.2334985 0.141072,-0.5886107 0,-0.3307894 -0.082697,-0.7199535 -0.077833,-0.3940286 -0.1605302,-0.768599 l 1.2745123,-0.3307894 q 0.092426,0.4572678 0.1459365,0.909671 0.058375,0.4475386 0.058375,0.8561609 0,0.6469852 -0.1751238,1.1626276 Q 5.0688619,-0.59833973 4.6553751,-0.29673759 4.2467528,0 3.5316639,0 Z M 1.9798722,-6.8201 v 6.81523545 H 0.66644355 V -6.8201 Z"
       id="text10"
       transform="matrix(1.3333333,0,0,1.3333333,230.54133,129.42133)"
       aria-label="فﻼﺘﺋا" />
  </g>
</svg>
