<?xml version="1.0" encoding="UTF-8" standalone="no"?>


<svg class="tikz-diagram" id="iran-action-ch6-tikz-14-c37390695586"
   version="1.1"
   id="svg1"
   width="591.33331"
   height="264.73334"
   viewBox="0 0 591.33331 264.73334"
   sodipodi:docname="iran-action-ch6-tikz-14-c37390695586.pdf"
   xmlns:inkscape="http://www.inkscape.org/namespaces/inkscape"
   xmlns:sodipodi="http://sodipodi.sourceforge.net/DTD/sodipodi-0.dtd"
   xmlns="http://www.w3.org/2000/svg"
   xmlns:svg="http://www.w3.org/2000/svg">
  <defs
     id="defs1" />
  <sodipodi:namedview
     id="namedview1"
     pagecolor="#ffffff"
     bordercolor="#000000"
     borderopacity="0.25"
     inkscape:showpageshadow="2"
     inkscape:pageopacity="0.0"
     inkscape:pagecheckerboard="0"
     inkscape:deskcolor="#d1d1d1">
    <inkscape:page
       x="0"
       y="0"
       inkscape:label="1"
       id="page1"
       width="591.33331"
       height="264.73334"
       margin="0"
       bleed="0" />
  </sodipodi:namedview>
  <g
     id="g1"
     inkscape:groupmode="layer"
     inkscape:label="1">
    <path
       id="path1"
       d="M 168.66472,168.66472 48.18991,0 h 240.94962 z"
       style="fill:#d87881;fill-opacity:1;fill-rule:nonzero;stroke:none"
       transform="matrix(1.3333333,0,0,-1.3333333,-44.326667,244.80933)" />
    <path
       id="path2"
       d="M 84.33235,48.18991 H 252.99709"
       style="fill:none;stroke:#ffffff;stroke-width:1.99255;stroke-linecap:butt;stroke-linejoin:miter;stroke-miterlimit:10;stroke-dasharray:none;stroke-opacity:1"
       transform="matrix(1.3333333,0,0,-1.3333333,-44.326667,244.80933)" />
    <path
       id="path3"
       d="m 120.4748,96.37984 h 96.37983"
       style="fill:none;stroke:#ffffff;stroke-width:1.99255;stroke-linecap:butt;stroke-linejoin:miter;stroke-miterlimit:10;stroke-dasharray:none;stroke-opacity:1"
       transform="matrix(1.3333333,0,0,-1.3333333,-44.326667,244.80933)" />
    <path
       id="path4"
       d="m 144.56976,132.52226 h 48.18991"
       style="fill:none;stroke:#ffffff;stroke-width:1.99255;stroke-linecap:butt;stroke-linejoin:miter;stroke-miterlimit:10;stroke-dasharray:none;stroke-opacity:1"
       transform="matrix(1.3333333,0,0,-1.3333333,-44.326667,244.80933)" />
    <path
       style="font-weight:800;font-size:9.9626px;font-family:Vazirmatn;fill:#ffffff"
       d="m 32.27536,-5.3315475 0.826973,0.8172445 0.817245,-0.8172445 0.831838,0.8269736 -0.831838,0.8367027 -0.817245,-0.8269736 -0.826973,0.8269736 -0.826974,-0.8367027 z m 3.512205,1.9896012 1.216138,-0.1508011 0.09729,1.3912615 q 0.02432,0.3697059 0.194582,0.5351006 0.175124,0.1605302 0.574017,0.1605302 h 0.111885 V 0 H 37.869593 Q 37.31017,0 36.940464,-0.20431113 36.570758,-0.41348681 36.32753,-0.768599 35.884856,-0.35997675 35.2476,-0.17998837 34.615209,0 33.598517,0 h -0.812379 q -0.841568,0 -1.551792,-0.10215556 -0.70536,-0.10702012 -1.230731,-0.36970585 -0.520507,-0.26268574 -0.81238,-0.73454719 -0.287009,-0.4767259 -0.287009,-1.2161376 0,-0.4378096 0.09729,-0.8512964 0.09729,-0.4183514 0.243228,-0.7734636 l 1.172356,0.4426742 q -0.0827,0.2286338 -0.170259,0.530236 -0.0827,0.3016021 -0.0827,0.574017 0,0.486455 0.359976,0.7199535 0.359977,0.2334984 0.953452,0.3064666 0.59834,0.068104 1.308565,0.068104 h 0.812379 q 0.70536,0 1.206409,-0.05351 0.501049,-0.058375 0.763735,-0.238363 0.26755,-0.1848529 0.26755,-0.5691524 0,-0.2480921 -0.01459,-0.5448297 -0.01459,-0.2967376 -0.03405,-0.530236 z m -9.651269,-3.507341 0.875619,0.8756191 -0.875619,0.8707546 -0.870755,-0.8707546 z m 1.975008,4.3099919 q 0,0.3161957 -0.0827,0.5886106 -0.07783,0.2724148 -0.26755,0.5399651 0.111885,0.00486 0.204311,0.00486 0.09243,0 0.170259,0 h 0.466997 V 0 h -0.661579 q -0.403757,0 -0.875619,-0.11674922 -0.471861,-0.12161376 -0.895077,-0.26268573 -0.43781,0.15080107 -0.924265,0.26755028 Q 24.764493,0 24.336412,0 h -0.885348 v -1.4058551 h 0.724818 q 0.111885,0 0.204311,0 0.09729,-0.00486 0.233499,-0.00973 -0.184853,-0.2724149 -0.262686,-0.5448297 -0.07783,-0.2772794 -0.07783,-0.5886106 0,-0.3842995 0.155666,-0.7394117 0.16053,-0.3599768 0.42808,-0.6421207 0.272415,-0.2870085 0.612934,-0.4524032 0.340518,-0.1653948 0.700495,-0.1653948 0.496184,0 0.938858,0.2870085 0.447539,0.282144 0.724818,0.7442763 0.27728,0.4572677 0.27728,0.9777747 z m -1.931227,-0.6567144 q -0.141072,0 -0.296738,0.1070201 -0.150801,0.1070201 -0.257821,0.2626858 -0.10702,0.150801 -0.10702,0.2967376 0,0.1799883 0.10702,0.3599767 0.111885,0.1751238 0.267551,0.3161958 0.16053,0.1362074 0.296737,0.2140402 0.223769,-0.1216137 0.447539,-0.3697058 0.228634,-0.2480921 0.228634,-0.530236 0,-0.1459366 -0.11675,-0.2967376 -0.111884,-0.1556657 -0.272414,-0.2578212 -0.155666,-0.1021556 -0.296738,-0.1021556 z M 21.262017,0 h -0.773464 v -1.4058551 h 0.778328 q 0.369706,0 0.505913,-0.2286339 0.141072,-0.2334985 0.141072,-0.5886107 0,-0.3307894 -0.0827,-0.7199535 -0.07783,-0.3940286 -0.16053,-0.768599 l 1.274512,-0.3307894 q 0.09243,0.4572678 0.145937,0.909671 0.05837,0.4475386 0.05837,0.8561609 0,0.6469852 -0.175124,1.1626276 -0.175123,0.51564237 -0.58861,0.81724451 Q 21.977106,0 21.262017,0 Z m 0.574017,-6.3433741 0.875619,0.8756192 -0.875619,0.8707545 -0.870755,-0.8707545 z m 0.826507,5.2634439 q 0,1.13830481 -0.423216,1.89231016 -0.418352,0.75400534 -1.186951,1.19667944 -0.768599,0.4426741 -1.819342,0.6421207 l -0.48159,-1.298835 Q 19.74381,1.1626276 20.410254,0.81237996 21.081562,0.46213231 21.26155,-0.04864551 21.139936,-0.02432275 21.008593,-0.00486455 20.87725,0.0097291 20.77023,0.0097291 q -0.924264,0 -1.4545,-0.40862225 -0.530236,-0.40862226 -0.530236,-1.34261595 0,-0.3891641 0.116749,-0.7929218 0.116749,-0.4086223 0.350248,-0.7491408 0.233498,-0.3453831 0.578881,-0.5545588 0.345383,-0.2091757 0.802651,-0.2091757 0.525371,0 0.904806,0.2529567 0.3843,0.2529566 0.632392,0.6761725 0.248092,0.4232159 0.369706,0.953452 0.121614,0.530236 0.121614,1.0847948 z m -1.911769,-0.3113313 q 0.209176,0 0.379435,-0.024323 0.175124,-0.024323 0.287009,-0.048645 -0.02919,-0.2480921 -0.111885,-0.5302361 -0.0827,-0.2821439 -0.248092,-0.4815905 -0.16053,-0.2043111 -0.432945,-0.2043111 -0.233499,0 -0.369706,0.1556656 -0.131343,0.1556656 -0.184853,0.3648413 -0.05351,0.2091757 -0.05351,0.3648413 0,0.2626857 0.209176,0.335654 0.21404,0.068104 0.525371,0.068104 z m -1.41605,-4.27594 0.875619,0.8756191 -0.875619,0.8707546 -0.870754,-0.8707546 z M 17.432683,2.6560447 16.936499,1.3523451 q 0.70536,-0.1508011 1.211273,-0.40375772 0.510778,-0.24809208 0.788057,-0.66644344 0.277279,-0.41835136 0.277279,-1.07993025 0,-0.44267409 -0.141072,-0.99236829 -0.141072,-0.5545588 -0.301602,-1.0312848 l 1.313429,-0.4232159 q 0.189717,0.530236 0.287008,1.1431694 0.102156,0.6129334 0.102156,1.17722127 0,1.02155564 -0.379435,1.75123824 Q 19.719022,1.5615208 19.03312,2.013924 18.352083,2.4711917 17.432683,2.6560447 Z M 15.08797,-6.8201 h 1.313428 v 4.4461993 q 0,0.5156423 0.150801,0.7442762 0.150801,0.2237694 0.622663,0.2237694 h 0.121614 V 0 H 17.174862 Q 16.085202,0 15.584154,-0.56428788 15.08797,-1.1285758 15.08797,-2.2571515 Z m -4.927791,0.9972329 v -0.7394117 l 3.954879,-1.6101663 v 0.7394117 z m 1.386397,1.3280223 q 0.651849,0.389164 1.152898,0.7637344 0.505913,0.3697059 0.792922,0.7977864 0.287008,0.4280804 0.287008,0.9875037 0,0.7637345 -0.350247,1.1869504 -0.350248,0.4232159 -0.98264,0.59347518 Q 11.814126,0 10.972559,0 H 9.7856083 v -1.4058551 h 1.1820857 q 0.778328,0 1.167492,-0.1070202 0.389164,-0.1118846 0.389164,-0.4524032 0,-0.1605301 -0.238363,-0.3697058 -0.238363,-0.2140402 -0.598339,-0.4475387 -0.355113,-0.238363 -0.729683,-0.4669968 -0.369706,-0.2334985 -0.642121,-0.4280805 -0.204311,-0.1459365 -0.311331,-0.3891641 -0.1021555,-0.2432275 -0.1021555,-0.4961841 0,-0.2724149 0.1264785,-0.5107778 0.126478,-0.238363 0.394028,-0.3453831 l 3.755434,-1.5323335 v 1.3912615 z"
       id="text4"
       transform="matrix(1.3333333,0,0,1.3333333,155.30267,46.089333)"
       aria-label="ﺖﻔﻧوزﺎﮔ" />
    <path
       style="font-size:8.9664px;font-family:Vazirmatn;fill:#ffffff"
       d="m 1.9001063,-2.3510532 q -0.3064688,0.2802 -0.4859719,0.5560219 -0.175125,0.2758219 -0.175125,0.6742313 0.3108469,0 0.4290563,0.13572186 0.1225875,0.13572188 0.1225875,0.40716563 0,0.26706563 -0.1357219,0.42467813 Q 1.5192094,0 1.2477656,0 0.90189376,0 0.74865939,-0.1926375 0.59980313,-0.38527501 0.59980313,-0.70925626 q 0,-0.59542504 0.28020001,-1.05512814 Q 1.1602031,-2.2284657 1.61115,-2.5787157 Z M 54.109878,2.2547344 q -0.945675,0 -1.514832,-0.3458719 -0.564778,-0.3458718 -0.818709,-0.92378436 -0.249553,-0.57353438 -0.249553,-1.26090002 0,-0.2977125 0.04378,-0.68736564 0.04816,-0.38965308 0.214528,-0.88875938 l 0.696122,0.2583094 q -0.126966,0.4378125 -0.166369,0.77492811 -0.03503,0.33711563 -0.03503,0.56915626 0,0.47283751 0.166369,0.86249064 0.166369,0.38965309 0.564778,0.62169379 0.402788,0.2320406 1.09891,0.2320406 0.656718,0 1.125178,-0.1619906 0.472837,-0.1619907 0.72239,-0.38527503 0.253932,-0.22328438 0.253932,-0.40716564 0,-0.21015 -0.183882,-0.35900625 -0.179503,-0.14885625 -0.586668,-0.14885625 h -0.647963 q -0.08756,0 -0.126965,-0.07442813 -0.0394,-0.07880625 -0.07443,-0.20139375 l -0.118209,-0.42030001 q -0.0044,-0.035025 0.01751,-0.0656719 0.02189,-0.035025 0.07881,-0.035025 h 2.429859 v 0.79681877 h -0.179503 q 0.06567,0.13134375 0.08318,0.24955312 0.02189,0.11820938 0.02189,0.24517501 0,0.28895625 -0.170747,0.59542504 -0.166369,0.3108468 -0.516619,0.5735344 -0.345871,0.2626875 -0.875625,0.4246781 -0.529753,0.1619906 -1.252143,0.1619906 z M 46.058505,0 h -0.192637 v -0.79681876 h 0.170747 q 0.293334,0 0.494728,-0.16636876 0.201393,-0.17074688 0.359006,-0.43781248 0.157612,-0.2670657 0.310847,-0.5647782 0.157612,-0.3020906 0.35025,-0.5691562 0.192637,-0.2670656 0.464081,-0.4334344 0.275822,-0.1707469 0.678609,-0.1707469 0.687366,0 1.068263,0.4203 0.380897,0.4159219 0.512241,1.0376157 0.08756,0.4290562 0.297712,0.6567187 0.214528,0.22766254 0.494728,0.22766254 h 0.113832 V 0 h -0.11821 q -0.2802,0 -0.547265,-0.11383125 -0.267066,-0.11820938 -0.433435,-0.37214063 -0.183881,0.26706563 -0.455325,0.42905625 -0.271444,0.15761251 -0.704878,0.15761251 -0.437813,0 -0.809953,-0.18825938 Q 47.744083,-0.2802 47.345674,-0.66547501 47.061096,-0.34587188 46.798408,-0.17074688 46.535721,0 46.058505,0 Z m 2.653144,-2.3641875 q -0.218906,0 -0.398409,0.1488562 -0.179504,0.1444781 -0.323982,0.3765188 -0.144478,0.2320406 -0.258309,0.4815937 0.144478,0.1488563 0.288956,0.2670657 0.144478,0.11820933 0.2802,0.20139371 0.35025,0.21452813 0.612938,0.21452813 0.647962,0 0.647962,-0.65234064 0,-0.455325 -0.227662,-0.7442813 -0.223285,-0.2933343 -0.621694,-0.2933343 z m -6.107486,1.56736874 h 0.661097 q 0.556021,0 0.79244,-0.24955314 0.240797,-0.2495531 0.240797,-0.7661719 0,-0.21015 -0.01313,-0.3984094 -0.0088,-0.1882593 -0.02627,-0.3765187 l 0.731147,-0.087562 0.07005,1.0244812 q 0.05254,0.85373444 0.888759,0.85373444 h 0.09194 V 0 H 45.940294 Q 45.454322,0 45.160988,-0.175125 44.872031,-0.35025001 44.692528,-0.66985314 44.45611,-0.32398126 44.070835,-0.16199063 43.68556,0 43.26526,0 h -0.661097 z m 1.580503,1.49294065 0.612937,0.60855941 -0.612937,0.6173156 -0.60856,-0.6173156 z m -1.453538,0 0.612938,0.60855941 -0.612938,0.6173156 -0.608559,-0.6173156 z m -3.200404,-6.45335639 0.591046,0.5910469 -0.591046,0.5910469 -0.591047,-0.5910469 z m 0.748659,1.1076657 0.591047,0.5910469 -0.591047,0.5910468 -0.591047,-0.5910468 z m -1.497319,0 0.591047,0.5910469 -0.591047,0.5910468 -0.591047,-0.5910468 z M 38.593805,0 q -0.503485,0 -0.779306,-0.17074688 -0.271444,-0.175125 -0.433435,-0.49910626 -0.205772,0.32398126 -0.525375,0.49910626 Q 36.536086,0 35.945039,0 h -0.402787 v -0.79681876 h 0.411543 q 0.5604,0 0.81871,-0.20577184 0.258309,-0.21015 0.258309,-0.7617938 0,-0.1138313 -0.01313,-0.2670656 -0.0088,-0.1576125 -0.03065,-0.4378125 l 0.731147,-0.091941 0.07005,0.9150282 q 0.02627,0.3677625 0.223284,0.6085594 0.201394,0.24079684 0.591047,0.24079684 0.464081,0 0.63045,-0.24955314 0.166369,-0.2495531 0.166369,-0.7180125 0,-0.1138313 -0.01313,-0.2714438 -0.0088,-0.1576125 -0.03065,-0.4334343 l 0.731146,-0.091941 0.07005,0.9150282 q 0.02189,0.3546281 0.18826,0.6041812 0.166369,0.24517504 0.538509,0.24517504 0.363385,0 0.499106,-0.27144374 0.135722,-0.2714438 0.135722,-0.6348282 0,-0.3283593 -0.06567,-0.6610968 -0.06129,-0.3327375 -0.109453,-0.5385094 l 0.74866,-0.2013938 q 0.07881,0.2933344 0.126965,0.6260719 0.04816,0.3283594 0.04816,0.6567188 0,0.4728375 -0.131344,0.88875936 -0.131344,0.41592188 -0.433434,0.67423126 Q 41.404561,-0.00437813 40.887942,0 q -0.4203,0 -0.678609,-0.175125 -0.258309,-0.17512501 -0.4203,-0.49472814 -0.245175,0.35462813 -0.547266,0.51224064 Q 38.944055,0 38.593805,0 Z m -3.397426,-0.74865939 q 0,2.55682509 -2.806378,3.09533439 l -0.25831,-0.6961218 q 1.006969,-0.1926376 1.606772,-0.6435844 0.599803,-0.44656879 0.709257,-1.12517818 -0.166369,0.0525375 -0.385275,0.09194063 -0.218907,0.03940313 -0.385275,0.03940313 -1.598016,0 -1.598016,-1.35721878 0,-0.3239813 0.09632,-0.6479625 0.100697,-0.3283594 0.288956,-0.5998031 0.192637,-0.2758219 0.468459,-0.4421907 0.275822,-0.1663687 0.626072,-0.1663687 0.415922,0 0.722391,0.2057719 0.310847,0.2057718 0.51224,0.5560218 0.201394,0.35025 0.302091,0.7880625 0.100697,0.4378126 0.100697,0.90189381 z m -1.497319,-0.0306469 q 0.385275,0 0.766172,-0.11383125 -0.04378,-0.73552499 -0.271444,-1.12517819 -0.227662,-0.3940312 -0.643584,-0.3940312 -0.288956,0 -0.450947,0.1795031 -0.157612,0.1795031 -0.223284,0.4246781 -0.06129,0.2407969 -0.06129,0.4378126 0,0.3196031 0.218906,0.45532496 0.218906,0.13572188 0.665475,0.13572188 z M 31.489543,0 q -0.302091,0 -0.507863,-0.07880625 -0.201394,-0.08318438 -0.315225,-0.175125 -0.06567,0.57353438 -0.319603,1.10766564 -0.249553,0.53850941 -0.753037,0.93691881 -0.503485,0.3984093 -1.33095,0.5604 l -0.25831,-0.6917438 q 1.068263,-0.2320406 1.506075,-0.81433126 0.437813,-0.57791251 0.437813,-1.37035315 0,-0.37214063 -0.08319,-0.77930629 -0.07881,-0.4115437 -0.223284,-0.8362219 l 0.726769,-0.245175 0.236418,0.9150282 q 0.09632,0.3677625 0.306469,0.52099686 0.21015,0.15323438 0.529753,0.15323438 h 0.166369 V 0 Z m -4.807181,-4.7371313 0.612938,0.6085594 -0.612938,0.6173156 -0.608559,-0.6173156 z m -1.453537,0 0.612937,0.6085594 -0.612937,0.6173156 -0.60856,-0.6173156 z m -0.472838,3.94031254 h 0.612938 q 0.556022,0 0.79244,-0.24955314 0.240797,-0.2495531 0.240797,-0.7661719 0,-0.21015 -0.01313,-0.3984094 -0.0088,-0.1882593 -0.02627,-0.3765187 l 0.731147,-0.087562 0.07005,1.0244812 q 0.05254,0.85373444 0.888759,0.85373444 h 0.09194 V 0 H 28.043959 Q 27.557987,0 27.264653,-0.175125 26.975697,-0.35025001 26.796194,-0.66985314 26.559775,-0.32398126 26.1745,-0.16199063 25.789225,0 25.368925,0 h -0.612938 z m -2.802001,0 h 0.950053 q 0.437812,0 0.591047,-0.25393124 0.157612,-0.2539313 0.157612,-0.6435844 0,-0.2845781 -0.05254,-0.6085594 -0.05254,-0.3239812 -0.113832,-0.6523406 l 0.761794,-0.1926375 q 0.07443,0.35025 0.11821,0.6873656 0.04378,0.3371156 0.04378,0.6435844 0,0.525375 -0.144478,0.93691876 -0.144478,0.41154376 -0.472838,0.64796251 Q 23.464439,0 22.912795,0 H 21.953986 Z M 23.538867,0.55164376 24.129914,1.1426906 23.538867,1.7337375 22.94782,1.1426906 Z m -1.497319,0 0.591047,0.59104684 -0.591047,0.5910469 -0.591047,-0.5910469 z m 0.74866,1.10766564 0.591046,0.5910469 -0.591046,0.5910469 -0.591047,-0.5910469 z m -1.209167,-2.44737191 q 1.6812,0 1.6812,-0.87124689 0,-0.4115438 -0.4203,-0.8712469 -0.4203,-0.4597031 -1.392244,-0.9894563 l 0.345872,-0.6917437 q 1.125178,0.5735344 1.668066,1.2127406 0.547266,0.6348282 0.547266,1.3265719 0,0.82308754 -0.569157,1.24338754 -0.564778,0.42030001 -1.795031,0.42030001 -0.586669,0 -1.059506,-0.105075 v -0.79244064 q 0.573534,0.11820938 0.993834,0.11820938 z M 16.279129,0 Q 16.099626,0 15.911367,-0.00875625 15.723107,-0.0175125 15.53047,-0.035025 v -0.75303751 q 0.271444,0.0175125 0.459703,0.0306469 0.188259,0.008756 0.376519,0.008756 0.179503,0 0.310847,-0.004378 0.135722,-0.004378 0.223284,-0.0175125 0,0 -0.06567,-0.39403129 -0.06567,-0.3984094 -0.218906,-1.0726406 -0.153234,-0.6786094 -0.4203,-1.5279657 -0.262688,-0.8493562 -0.661097,-1.75125 l 0.678609,-0.315225 q 0.394032,0.9325406 0.661097,1.8125438 0.271444,0.8800031 0.429057,1.5848813 0.16199,0.7005 0.23204,1.1164219 0.07005,0.41154371 0.07005,0.41154371 0.32836,-0.0919406 0.586669,-0.28020001 0.258309,-0.1926375 0.407166,-0.5560219 0.148856,-0.3677625 0.148856,-0.9894562 v -3.2967282 h 0.739903 v 3.3098625 q 0,0.8274657 -0.236419,1.3615969 -0.236418,0.52975316 -0.665475,0.82746567 -0.429056,0.29333438 -1.015725,0.41154375 Q 16.984007,0 16.279129,0 Z m -3.301105,-3.2004094 q 0.682987,0 1.151447,0.6129375 0.468459,0.6085594 0.485972,1.79065314 h 0.529753 V 0 H 14.545393 Q 14.449074,0.50348438 14.160118,0.97194377 13.87554,1.4447813 13.310761,1.8037875 12.745983,2.1671719 11.813443,2.346675 L 11.555133,1.6505532 Q 13.538424,1.2696563 13.853649,0 h -0.691744 q -1.659309,0 -1.659309,-1.3440844 0,-0.4290563 0.170747,-0.8581125 0.175125,-0.4290563 0.503484,-0.7136344 0.332738,-0.2845781 0.801197,-0.2845781 z m 0.1401,2.40359064 h 0.774928 q -0.05254,-0.84497814 -0.2802,-1.23025314 -0.223284,-0.385275 -0.647962,-0.385275 -0.2802,0 -0.442191,0.1795031 -0.157613,0.1795031 -0.223284,0.4246781 -0.06129,0.2407969 -0.06129,0.4378126 0,0.3064687 0.205772,0.44219058 0.21015,0.13134376 0.674231,0.13134376 z M 8.8800988,-6.580322 9.5149269,-5.9454938 8.8800988,-5.3106657 8.2452706,-5.9454938 Z m -0.3327375,5.78350324 q 0.4947281,0 0.7968187,-0.0569156 0.3064688,-0.0569156 0.4465688,-0.24955311 0.1444781,-0.1970156 0.1444781,-0.6085594 -0.2145281,0.065672 -0.4378125,0.1006969 -0.2189063,0.035025 -0.4728375,0.035025 -1.4885625,0 -1.4885625,-1.2214969 0,-0.4203 0.1663687,-0.8406 0.1707469,-0.4203 0.4991063,-0.7005 0.3283594,-0.2845782 0.7968187,-0.2845782 0.4290563,0 0.735525,0.2189063 0.3108469,0.2189062 0.5078629,0.5910469 0.201393,0.3677625 0.297712,0.8362219 0.09632,0.4640812 0.09632,0.9588093 0,0.6523407 -0.118209,1.05512818 -0.113832,0.39840939 -0.367763,0.60855939 -0.2539312,0.20577188 -0.6610969,0.2802 Q 9.0814925,0 8.4948238,0 H 6.8836737 V -0.79681876 Z M 9.0858706,-2.3291625 q 0.2013938,0 0.3984094,-0.035025 0.2013938,-0.039403 0.4027875,-0.096319 -0.035025,-0.3108469 -0.1313437,-0.63045 -0.091941,-0.3196031 -0.2758219,-0.5341313 -0.1838813,-0.2189062 -0.49035,-0.2189062 -0.2714438,0 -0.4378125,0.1707469 -0.1619906,0.1707468 -0.2364188,0.4071656 -0.07005,0.2364188 -0.07005,0.4378125 0,0.3020906 0.2145282,0.4027875 0.2189062,0.096319 0.6260718,0.096319 z"
       id="text5"
       transform="matrix(1.3333333,0,0,1.3333333,142.52533,93.094667)"
       aria-label="،ﯽﻤﯿﺷوﺮﺘﭘدﻻﻮﻓ" />
    <path
       style="font-size:8.9664px;font-family:Vazirmatn;fill:#ffffff"
       d="m 1.9001063,-2.3510532 q -0.3064688,0.2802 -0.4859719,0.5560219 -0.175125,0.2758219 -0.175125,0.6742313 0.3108469,0 0.4290563,0.13572186 0.1225875,0.13572188 0.1225875,0.40716563 0,0.26706563 -0.1357219,0.42467813 Q 1.5192094,0 1.2477656,0 0.90189376,0 0.74865939,-0.1926375 0.59980313,-0.38527501 0.59980313,-0.70925626 q 0,-0.59542504 0.28020001,-1.05512814 Q 1.1602031,-2.2284657 1.61115,-2.5787157 Z M 47.737922,2.17155 q -0.814331,0 -1.326572,-0.2933343 Q 45.899109,1.5892594 45.658313,1.0682625 45.417516,0.54726563 45.417516,-0.1401 q 0,-0.46408126 0.09632,-0.9500531 0.09632,-0.4903501 0.262688,-0.9544313 l 0.696122,0.2802 q -0.126966,0.4027875 -0.214528,0.82746563 -0.08756,0.42467814 -0.08756,0.82308752 0,0.70925626 0.359006,1.10328752 0.363385,0.39403123 1.208363,0.39403123 0.783684,0 1.177716,-0.42905623 0.398409,-0.42905626 0.398409,-1.38348753 V -6.0286782 h 0.739903 v 4.238025 q 0,0.4903501 0.179503,0.7442813 0.183881,0.24955314 0.713635,0.24955314 h 0.131343 V 0 h -0.122587 q -0.385275,0 -0.551644,-0.07442813 -0.166369,-0.07880625 -0.354628,-0.25830938 0,1.25214378 -0.591047,1.87821571 Q 48.867478,2.17155 47.737922,2.17155 Z M 43.59621,-5.5427063 44.209147,-4.934147 43.59621,-4.3168313 42.987651,-4.934147 Z m -1.453538,0 0.612938,0.6085593 -0.612938,0.6173157 -0.608559,-0.6173157 z m 2.294138,3.4806094 q 0,0.3458719 -0.153234,0.6435844 -0.153235,0.2933344 -0.4203,0.60418124 0.249553,0.0131344 0.44219,0.0175125 0.192638,0 0.341494,0 h 0.424678 V 0 h -0.411544 q -0.166368,0 -0.459703,-0.02626875 -0.288956,-0.03064688 -0.639206,-0.10069688 -0.345872,-0.07005 -0.682988,-0.18825938 -0.337115,0.12258751 -0.691743,0.19263751 -0.354628,0.06567187 -0.656719,0.09631875 Q 41.227644,0 41.048141,0 h -0.612937 v -0.79681876 h 0.612937 q 0.183881,0 0.380897,0 0.201394,-0.004378 0.485972,-0.0218906 -0.262688,-0.30646871 -0.411544,-0.60855941 -0.148856,-0.3020906 -0.148856,-0.6435844 0,-0.2714437 0.126966,-0.5472656 0.126965,-0.2758219 0.341493,-0.5122406 0.214528,-0.2364188 0.49035,-0.3765188 0.275822,-0.1444781 0.569157,-0.1444781 0.306468,0 0.586668,0.1444781 0.2802,0.1401 0.494728,0.3765188 0.218907,0.2320406 0.345872,0.5122406 0.126966,0.2802 0.126966,0.5560219 z m -1.554234,-0.8143313 q -0.166369,0 -0.35025,0.1269657 -0.179504,0.1225875 -0.306469,0.3108468 -0.122588,0.1882594 -0.122588,0.385275 0,0.2013938 0.11821,0.4115438 0.118209,0.21015 0.297712,0.385275 0.183881,0.175125 0.372141,0.27144376 0.332737,-0.14009996 0.564778,-0.45094686 0.236419,-0.315225 0.236419,-0.6260719 0,-0.1838813 -0.131344,-0.3721406 -0.126966,-0.1882594 -0.315225,-0.315225 -0.188259,-0.1269657 -0.363384,-0.1269657 z M 38.592018,0 h -0.713634 v -0.79681876 h 0.704878 q 0.437812,0 0.591047,-0.25393124 0.157612,-0.2539313 0.157612,-0.6435844 0,-0.2845781 -0.05254,-0.6085594 -0.05254,-0.3239812 -0.113832,-0.6523406 l 0.761794,-0.1926375 q 0.07443,0.35025 0.11821,0.6873656 0.04378,0.3371156 0.04378,0.6435844 0,0.525375 -0.144478,0.93691876 -0.144478,0.41154376 -0.472838,0.64796251 Q 39.143662,0 38.592018,0 Z m 0.534131,-5.1661876 0.634828,0.6348282 -0.634828,0.6348281 -0.634828,-0.6348281 z m -1.593636,4.41752821 q 0,2.55682509 -2.806378,3.09533439 l -0.25831,-0.6961218 q 1.006969,-0.1926376 1.606772,-0.6435844 0.599803,-0.44656879 0.709257,-1.12517818 -0.166369,0.0525375 -0.385275,0.09194063 -0.218907,0.03940313 -0.385275,0.03940313 -1.598016,0 -1.598016,-1.35721878 0,-0.3239813 0.09632,-0.6479625 0.100696,-0.3283594 0.288956,-0.5998031 0.192637,-0.2758219 0.468459,-0.4421907 0.275822,-0.1663687 0.626072,-0.1663687 0.415922,0 0.722391,0.2057719 0.310847,0.2057718 0.51224,0.5560218 0.201394,0.35025 0.302091,0.7880625 0.100697,0.4378126 0.100697,0.90189381 z m -1.497319,-0.0306469 q 0.385275,0 0.766172,-0.11383125 -0.04378,-0.73552499 -0.271444,-1.12517819 -0.227662,-0.3940312 -0.643584,-0.3940312 -0.288956,0 -0.450947,0.1795031 -0.157612,0.1795031 -0.223284,0.4246781 -0.06129,0.2407969 -0.06129,0.4378126 0,0.3196031 0.218906,0.45532496 0.218906,0.13572188 0.665475,0.13572188 z M 25.917939,2.17155 q -0.814331,0 -1.326571,-0.2933343 Q 24.079127,1.5892594 23.83833,1.0682625 23.597533,0.54726563 23.597533,-0.1401 q 0,-0.46408126 0.09632,-0.9500531 0.09632,-0.4903501 0.262687,-0.9544313 l 0.696122,0.2802 q -0.126965,0.4027875 -0.214528,0.82746563 -0.08756,0.42467814 -0.08756,0.82308752 0,0.70925626 0.359006,1.10328752 0.363384,0.39403123 1.208362,0.39403123 0.783685,0 1.177716,-0.42905623 0.398409,-0.42905626 0.398409,-1.38348753 V -6.0286782 h 0.739904 v 4.238025 q 0,0.4903501 0.179503,0.7442813 0.183881,0.24955314 0.713634,0.24955314 h 0.131344 V 0 h -0.122588 q -0.385275,0 -0.551643,-0.07442813 -0.166369,-0.07880625 -0.354629,-0.25830938 0,1.25214378 -0.591046,1.87821571 Q 27.047496,2.17155 25.917939,2.17155 Z M 18.129254,0 h -0.192637 v -0.79681876 h 0.170747 q 0.293334,0 0.494728,-0.16636876 0.201394,-0.17074688 0.359006,-0.43781248 0.157613,-0.2670657 0.310847,-0.5647782 0.157613,-0.3020906 0.35025,-0.5691562 0.192638,-0.2670656 0.464081,-0.4334344 0.275822,-0.1707469 0.67861,-0.1707469 0.687365,0 1.068262,0.4203 0.380897,0.4159219 0.512241,1.0376157 0.08756,0.4290562 0.297712,0.6567187 0.214529,0.22766254 0.494729,0.22766254 h 0.113831 V 0 h -0.11821 q -0.2802,0 -0.547265,-0.11383125 -0.267066,-0.11820938 -0.433435,-0.37214063 -0.183881,0.26706563 -0.455325,0.42905625 -0.271443,0.15761251 -0.704878,0.15761251 -0.437812,0 -0.809953,-0.18825938 Q 19.814833,-0.2802 19.416423,-0.66547501 19.131845,-0.34587188 18.869158,-0.17074688 18.60647,0 18.129254,0 Z m 2.653144,-2.3641875 q -0.218906,0 -0.398409,0.1488562 -0.179503,0.1444781 -0.323981,0.3765188 -0.144479,0.2320406 -0.25831,0.4815937 0.144478,0.1488563 0.288956,0.2670657 0.144479,0.11820933 0.2802,0.20139371 0.350251,0.21452813 0.612938,0.21452813 0.647963,0 0.647963,-0.65234064 0,-0.455325 -0.227663,-0.7442813 -0.223284,-0.2933343 -0.621694,-0.2933343 z m -8.852568,1.56736874 h 0.744281 q 0.512241,0 0.941297,-0.0919406 0.429056,-0.0919406 0.836222,-0.25393121 0.411543,-0.1619907 0.858112,-0.3808969 0.450947,-0.2232844 1.006969,-0.4772157 -0.310847,-0.1138312 -0.643584,-0.245175 -0.332738,-0.1357218 -0.634829,-0.2539312 -0.297712,-0.1182094 -0.520996,-0.1926375 -0.223285,-0.078806 -0.315225,-0.078806 -0.267066,0 -0.472838,0.1576125 -0.201394,0.1532344 -0.372141,0.3721407 l -0.118209,0.1488562 -0.669853,-0.3283594 0.06567,-0.105075 q 0.288956,-0.4684593 0.669853,-0.7486594 0.385275,-0.2845781 0.901894,-0.2845781 0.214528,0 0.516618,0.1094531 0.306469,0.1094532 0.665475,0.2758219 0.359007,0.1619907 0.744282,0.3327375 0.385275,0.1663688 0.77055,0.2845782 0.385275,0.1138312 0.735525,0.1269656 v 0.7574156 q -0.2802,0.030647 -0.718013,0.2057719 -0.433434,0.1707469 -1.129556,0.53850938 -0.5604,0.29771251 -1.041994,0.50786251 Q 14.272127,-0.21452813 13.77302,-0.105075 13.278292,0 12.660977,0 H 11.92983 Z M 11.548128,2.3554313 11.289818,1.6593094 q 1.068263,-0.2320406 1.506075,-0.81433126 0.437813,-0.57791251 0.437813,-1.37035315 0,-0.37214063 -0.08319,-0.77930629 -0.07881,-0.4115437 -0.223284,-0.8362219 l 0.726769,-0.245175 q 0.315225,0.8975157 0.315225,1.72935944 0,0.73114689 -0.25831,1.35284065 Q 13.45699,1.3221938 12.918481,1.7556282 12.384349,2.1934407 11.548128,2.3554313 Z M 11.28544,-6.0286782 v 6.02430007 H 10.545537 V -6.0286782 Z M 8.0140349,-4.5050907 8.648863,-3.8702626 8.0140349,-3.2354344 7.3792067,-3.8702626 Z M 6.4116411,2.3554313 6.1533317,1.6593094 q 1.0682625,-0.2320406 1.506075,-0.81433126 0.4378125,-0.57791251 0.4378125,-1.37035315 0,-0.37214063 -0.083184,-0.77930629 -0.078806,-0.4115437 -0.2232844,-0.8362219 l 0.7267687,-0.245175 q 0.315225,0.8975157 0.315225,1.72935944 0,0.73114689 -0.2583093,1.35284065 Q 8.3205036,1.3221938 7.7819942,1.7556282 7.247863,2.1934407 6.4116411,2.3554313 Z M 4.5290479,-6.0286782 H 5.268951 v 4.1854875 q 0,0.6173157 0.2276625,0.8318438 0.2276625,0.21452814 0.6873657,0.21452814 H 6.2934323 V 0 H 6.1839792 Q 5.3477573,0 4.9362135,-0.44219063 4.5290479,-0.88875939 4.5290479,-1.8475688 Z M 1.9284417,0 H 1.1228666 v -0.79681876 h 0.7968188 q 0.4378125,0 0.5910469,-0.25393124 0.1576125,-0.2539313 0.1576125,-0.6435844 0,-0.2845781 -0.052537,-0.6085594 Q 2.5632698,-2.626875 2.501976,-2.9552344 l 0.7617938,-0.1926375 q 0.074428,0.35025 0.1182094,0.6873656 0.043781,0.3371156 0.043781,0.6435844 0,0.525375 -0.1444781,0.93691876 Q 3.1368042,-0.46845938 2.8084448,-0.23204063 2.4800854,0 1.9284417,0 Z M 2.0247604,0.66985314 2.6595885,1.3046813 2.0247604,1.9395094 1.3899323,1.3046813 Z"
       id="text6"
       transform="matrix(1.3333333,0,0,1.3333333,146.15867,150.87867)"
       aria-label="،ﻞﻘﻧو ﻞﻤﺣرازﺎﺑ" />
    <path
       style="font-size:8.9664px;font-family:Vazirmatn;fill:#ffffff"
       d="m 1.9001063,-2.3510532 q -0.3064688,0.2802 -0.4859719,0.5560219 -0.175125,0.2758219 -0.175125,0.6742313 0.3108469,0 0.4290563,0.13572186 0.1225875,0.13572188 0.1225875,0.40716563 0,0.26706563 -0.1357219,0.42467813 Q 1.5192094,0 1.2477656,0 0.90189376,0 0.74865939,-0.1926375 0.59980313,-0.38527501 0.59980313,-0.70925626 q 0,-0.59542504 0.28020001,-1.05512814 Q 1.1602031,-2.2284657 1.61115,-2.5787157 Z m 72.8300357,-1.365975 0.634828,0.6348281 -0.634828,0.6348282 -0.634828,-0.6348282 z m 0.05254,4.864097 q 0.731146,0 1.129556,-0.24079691 0.402787,-0.23641875 0.5604,-0.62607189 0.161991,-0.385275 0.161991,-0.82746563 0,-0.52099687 -0.1401,-1.02885937 -0.1401,-0.5078625 -0.262688,-0.8318438 l 0.748659,-0.3020906 q 0.205772,0.5647781 0.310847,1.0989094 0.109453,0.5297531 0.109453,1.01134687 0,0.73990313 -0.275821,1.31343752 Q 76.853533,1.2871688 76.27562,1.61115 q -0.577912,0.3239813 -1.49294,0.3239813 -0.945675,0 -1.514832,-0.3458719 -0.564778,-0.3458719 -0.818709,-0.92378439 -0.249553,-0.57353438 -0.249553,-1.26090002 0,-0.46408129 0.09632,-0.95005319 0.09632,-0.49035 0.262687,-0.9544312 l 0.696122,0.2802 q -0.126966,0.4027875 -0.214528,0.8274656 -0.08756,0.42467816 -0.08756,0.82308754 0,0.47283751 0.166369,0.86249064 0.170747,0.38965313 0.569156,0.62169376 0.39841,0.23204066 1.094532,0.23204066 z m -4.69334,-7.175747 h 0.739903 v 4.1854875 q 0,0.6173157 0.227663,0.8318438 0.227662,0.21452814 0.687365,0.21452814 h 0.109454 V 0 H 71.744271 Q 70.90805,0 70.496506,-0.44219063 70.08934,-0.88875939 70.08934,-1.8475688 Z M 64.384639,0 h -0.192638 v -0.79681876 h 0.170747 q 0.293335,0 0.494728,-0.16636876 Q 65.05887,-1.1339344 65.216483,-1.401 q 0.157612,-0.2670657 0.310847,-0.5647782 0.157612,-0.3020906 0.35025,-0.5691562 0.192637,-0.2670656 0.464081,-0.4334344 0.275822,-0.1707469 0.678609,-0.1707469 0.687366,0 1.068263,0.4203 0.380897,0.4159219 0.51224,1.0376157 0.08756,0.4290562 0.297713,0.6567187 0.214528,0.22766254 0.494728,0.22766254 h 0.113831 V 0 h -0.118209 q -0.2802,0 -0.547266,-0.11383125 -0.267065,-0.11820938 -0.433434,-0.37214063 -0.183881,0.26706563 -0.455325,0.42905625 -0.271444,0.15761251 -0.704878,0.15761251 -0.437813,0 -0.809953,-0.18825938 Q 66.070217,-0.2802 65.671808,-0.66547501 65.38723,-0.34587188 65.124542,-0.17074688 64.861855,0 64.384639,0 Z m 2.653144,-2.3641875 q -0.218907,0 -0.39841,0.1488562 -0.179503,0.1444781 -0.323981,0.3765188 -0.144478,0.2320406 -0.258309,0.4815937 0.144478,0.1488563 0.288956,0.2670657 0.144478,0.11820933 0.2802,0.20139371 0.35025,0.21452813 0.612937,0.21452813 0.647963,0 0.647963,-0.65234064 0,-0.455325 -0.227663,-0.7442813 -0.223284,-0.2933343 -0.621693,-0.2933343 z m -4.43504,0.4465687 v -4.1110594 h 0.739903 v 4.1241938 q 0,0.4815938 0.188259,0.7968188 0.192638,0.31084684 0.696122,0.31084684 h 0.1401 V 0 h -0.131344 q -0.49035,0 -0.779306,-0.17074688 -0.288956,-0.17074688 -0.459703,-0.49472813 -0.144478,0.21452813 -0.293334,0.36338438 -0.144479,0.14885625 -0.372141,0.2276625 Q 62.108015,0 61.718361,0 h -0.376518 v -0.79681876 h 0.367762 q 0.367763,0 0.556022,-0.14447813 0.192638,-0.14885621 0.262688,-0.40278751 0.07443,-0.2539313 0.07443,-0.5735344 z m -3.581309,-1.506075 q 0.337116,0 0.696122,0.056916 0.359007,0.052538 0.665475,0.1532344 0.310847,0.1006969 0.503485,0.245175 0.192637,0.1444781 0.192637,0.3239813 0,0.1269656 -0.135722,0.35025 -0.131343,0.2232843 -0.341493,0.4815937 -0.205772,0.2583094 -0.433435,0.4991063 -0.227662,0.2364187 -0.415922,0.40278749 0.306469,0.0788062 0.582291,0.0963188 0.275822,0.0175125 0.499106,0.0175125 h 0.682988 V 0 h -0.67861 q -0.459703,0 -0.919406,-0.10945313 -0.455325,-0.10945312 -0.897516,-0.36338438 -0.288956,0.16636875 -0.669853,0.27144376 -0.376518,0.105075 -0.761793,0.15323437 Q 57.208891,0 56.902422,0 H 56.210678 V -0.79681876 H 56.9068 q 0.148856,0 0.398409,-0.004378 0.253932,-0.008756 0.520997,-0.0306469 0.271444,-0.0262687 0.472838,-0.0788062 -0.18826,-0.16636879 -0.415922,-0.40278749 -0.227663,-0.2407969 -0.437813,-0.4991063 -0.205771,-0.2583094 -0.341493,-0.4815937 -0.135722,-0.2232844 -0.135722,-0.35025 0,-0.1795032 0.188259,-0.3239813 0.18826,-0.1444781 0.494728,-0.245175 0.310847,-0.1006969 0.669853,-0.1532344 0.359007,-0.056916 0.7005,-0.056916 z m 0,0.7530375 q -0.197015,0 -0.564778,0.030647 -0.363384,0.030647 -0.687365,0.1401 0.284578,0.3590062 0.573534,0.6435844 0.288956,0.2845781 0.481594,0.455325 0.197015,0.1663687 0.197015,0.1663687 0,0 0.197016,-0.1663687 0.197016,-0.1707469 0.49035,-0.455325 0.293334,-0.2845782 0.573534,-0.6435844 -0.323981,-0.1094531 -0.691743,-0.1401 -0.367763,-0.030647 -0.569157,-0.030647 z m -4.535739,2.77135318 q -0.437812,0 -0.809953,-0.18825938 Q 53.30798,-0.2802 52.90957,-0.66547501 52.624992,-0.34587188 52.362304,-0.17074688 52.099617,0 51.622401,0 h -0.192637 v -0.79681876 h 0.170747 q 0.293334,0 0.494728,-0.16636876 0.201394,-0.17074688 0.359006,-0.43781248 0.157613,-0.2670657 0.310847,-0.5647782 0.157613,-0.3020906 0.35025,-0.5691562 0.192638,-0.2670656 0.464081,-0.4334344 0.275822,-0.1707469 0.67861,-0.1707469 0.485972,0 0.844978,0.2364188 0.363384,0.2320406 0.5604,0.6260719 0.201394,0.3940312 0.201394,0.8800031 0,0.71363439 -0.363385,1.10766565 -0.359006,0.38965313 -1.015725,0.38965313 z m -0.21015,-2.46488438 q -0.218906,0 -0.398409,0.1488562 -0.179503,0.1444781 -0.323981,0.3765188 -0.144479,0.2320406 -0.25831,0.4815937 0.262688,0.2758219 0.542888,0.45094691 0.359006,0.23204063 0.639206,0.23204063 0.647962,0 0.647962,-0.65234064 0,-0.455325 -0.227662,-0.7442813 -0.223284,-0.2933343 -0.621694,-0.2933343 z m -0.889355,0.013134 q -0.306468,0.2802 -0.485972,0.5560219 -0.175125,0.2758219 -0.175125,0.6742313 0.310847,0 0.429057,0.13572186 0.122587,0.13572188 0.122587,0.40716563 0,0.26706563 -0.135722,0.42467813 Q 53.005293,0 52.73385,0 q -0.345872,0 -0.499107,-0.1926375 -0.148856,-0.19263751 -0.148856,-0.51661876 0,-0.59542504 0.2802,-1.05512814 0.2802,-0.4640813 0.731147,-0.8143313 z M 49.555332,0 h -0.713634 v -0.79681876 h 0.704878 q 0.437812,0 0.591047,-0.25393124 0.157612,-0.2539313 0.157612,-0.6435844 0,-0.2845781 -0.05254,-0.6085594 -0.05254,-0.3239812 -0.113831,-0.6523406 l 0.761793,-0.1926375 q 0.07443,0.35025 0.11821,0.6873656 0.04378,0.3371156 0.04378,0.6435844 0,0.525375 -0.144478,0.93691876 -0.144478,0.41154376 -0.472838,0.64796251 Q 50.106976,0 49.555332,0 Z m 0.534131,-5.1661876 0.634829,0.6348282 -0.634829,0.6348281 -0.634828,-0.6348281 z m -2.837025,-0.8624906 h 0.739903 v 4.1854875 q 0,0.6173157 0.227662,0.8318438 0.227663,0.21452814 0.687366,0.21452814 h 0.109453 V 0 H 48.907369 Q 48.071147,0 47.659603,-0.44219063 47.252438,-0.88875939 47.252438,-1.8475688 Z m -2.482396,4.4350407 q 0,-0.1138313 -0.05254,-0.2933344 -0.04816,-0.1838813 -0.11821,-0.3414938 l -0.774928,-1.7556281 0.682988,-0.3196031 0.993834,2.3379187 q 0.201394,0.4728376 0.35025,0.7267688 0.153235,0.25393126 0.297713,0.35025001 0.148856,0.0919406 0.337115,0.0919406 h 0.183882 V 0 h -0.183882 q -0.345872,0 -0.564778,-0.08318438 -0.214528,-0.08318437 -0.37214,-0.24955313 -0.157613,-0.16636875 -0.319604,-0.4203 -0.306468,0.385275 -0.783684,0.56915626 -0.472837,0.17950312 -1.182094,0.17950312 -0.306468,0 -0.551643,-0.02626875 -0.245175,-0.03064687 -0.464082,-0.08318437 v -0.79244064 q 0.503485,0.11820938 0.950053,0.11820938 1.571747,0 1.571747,-0.80557499 z m -4.649567,-0.9938344 0.731147,-0.087562 0.07005,1.0244812 q 0.05254,0.85373444 0.88876,0.85373444 h 0.09194 V 0 H 41.801675 Q 41.315703,0 41.022369,-0.175125 40.733413,-0.35025001 40.55391,-0.66985314 40.317491,-0.32398126 39.932216,-0.16199063 39.546941,0 39.126641,0 h -0.4203 v -0.79681876 h 0.4203 q 0.556022,0 0.79244,-0.24955314 0.240797,-0.2495531 0.240797,-0.7661719 0,-0.21015 -0.01313,-0.3984094 -0.0088,-0.1882593 -0.02627,-0.3765187 z m 0.08319,-2.1803063 0.634828,0.6348281 -0.634828,0.6348282 -0.634829,-0.6348282 z m -3.222306,4.86847508 q -0.437812,0 -0.809953,-0.18825938 Q 35.803638,-0.2802 35.405229,-0.66547501 35.120651,-0.34587188 34.857963,-0.17074688 34.595276,0 34.11806,0 h -0.192637 v -0.79681876 h 0.170747 q 0.293334,0 0.494728,-0.16636876 0.201393,-0.17074688 0.359006,-0.43781248 0.157612,-0.2670657 0.310847,-0.5647782 0.157612,-0.3020906 0.35025,-0.5691562 0.192637,-0.2670656 0.464081,-0.4334344 0.275822,-0.1707469 0.67861,-0.1707469 0.485971,0 0.844978,0.2364188 0.363384,0.2320406 0.5604,0.6260719 0.201393,0.3940312 0.201393,0.8800031 0,0.71363439 -0.363384,1.10766565 -0.359006,0.38965313 -1.015725,0.38965313 z m -0.21015,-2.46488438 q -0.218906,0 -0.398409,0.1488562 -0.179503,0.1444781 -0.323982,0.3765188 -0.144478,0.2320406 -0.258309,0.4815937 0.262688,0.2758219 0.542888,0.45094691 0.359006,0.23204063 0.639206,0.23204063 0.647962,0 0.647962,-0.65234064 0,-0.455325 -0.227662,-0.7442813 -0.223285,-0.2933343 -0.621694,-0.2933343 z M 30.459281,2.3554313 30.200972,1.6593094 q 1.068263,-0.2320406 1.506075,-0.81433126 0.437813,-0.57791251 0.437813,-1.37035315 0,-0.37214063 -0.08319,-0.77930629 -0.07881,-0.4115437 -0.223284,-0.8362219 l 0.726769,-0.245175 q 0.315225,0.8975157 0.315225,1.72935944 0,0.73114689 -0.25831,1.35284065 -0.253931,0.62607191 -0.79244,1.05950631 -0.534132,0.4378125 -1.370354,0.5998031 z m -1.882594,-8.3841095 h 0.739903 v 4.1854875 q 0,0.6173157 0.227662,0.8318438 0.227663,0.21452814 0.687366,0.21452814 h 0.109453 V 0 H 30.231618 Q 29.395396,0 28.983852,-0.44219063 28.576687,-0.88875939 28.576687,-1.8475688 Z m -3.686379,1.7818969 q 0.380897,0.2670656 0.79244,0.5647781 0.411544,0.2933344 0.766172,0.63045 0.359007,0.3327375 0.577913,0.7136344 0.223284,0.3765188 0.223284,0.805575 -0.0044,0.81433129 -0.564778,1.17333754 Q 26.129317,0 24.90782,0 h -1.068262 v -0.79681876 h 1.063884 q 0.849356,0 1.217119,-0.14885626 0.367762,-0.15323438 0.367762,-0.60418128 0,-0.2889562 -0.205772,-0.5647781 -0.201393,-0.2758219 -0.525375,-0.5428875 -0.319603,-0.2714438 -0.687365,-0.5297532 -0.367763,-0.2626875 -0.691744,-0.5166187 -0.1401,-0.1138313 -0.214528,-0.2670656 -0.07443,-0.1532344 -0.07443,-0.3064688 0,-0.1795031 0.09632,-0.3371156 0.100696,-0.1619907 0.310846,-0.245175 l 3.147872,-1.2784126 v 0.7749282 z M 26.290501,0 q -0.30209,0 -0.507862,-0.07880625 -0.201394,-0.08318438 -0.315225,-0.175125 -0.06567,0.57353438 -0.319603,1.10766564 -0.249553,0.53850941 -0.753038,0.93691881 -0.503484,0.3984093 -1.33095,0.5604 L 22.805514,1.6593094 q 1.068262,-0.2320406 1.506075,-0.81433126 0.437812,-0.57791251 0.437812,-1.37035315 0,-0.37214063 -0.08318,-0.77930629 -0.07881,-0.4115437 -0.223284,-0.8362219 l 0.726768,-0.245175 0.236419,0.9150282 q 0.09632,0.3677625 0.306469,0.52099686 0.21015,0.15323438 0.529753,0.15323438 h 0.166369 V 0 Z m -6.322012,-0.79681876 h 0.950053 q 0.437813,0 0.591047,-0.25393124 0.157613,-0.2539313 0.157613,-0.6435844 0,-0.2845781 -0.05254,-0.6085594 -0.05254,-0.3239812 -0.113831,-0.6523406 l 0.761794,-0.1926375 q 0.07443,0.35025 0.118209,0.6873656 0.04378,0.3371156 0.04378,0.6435844 0,0.525375 -0.144478,0.93691876 -0.144478,0.41154376 -0.472837,0.64796251 Q 21.478942,0 20.927299,0 h -0.95881 z M 21.548992,0.69612189 22.16193,1.3046813 21.548992,1.9219969 20.940433,1.3046813 Z m -1.453537,0 0.612937,0.60855941 -0.612937,0.6173156 -0.60856,-0.6173156 z m -1.70747,-6.72480009 h 0.739903 v 4.1854875 q 0,0.6173157 0.227663,0.8318438 0.227662,0.21452814 0.687365,0.21452814 H 20.15237 V 0 H 20.042916 Q 19.206695,0 18.795151,-0.44219063 18.387985,-0.88875939 18.387985,-1.8475688 Z M 13.611451,0 q -0.503485,0 -0.779307,-0.17074688 -0.271443,-0.175125 -0.433434,-0.49910626 -0.205772,0.32398126 -0.525375,0.49910626 Q 11.553732,0 10.962685,0 h -0.402788 v -0.79681876 h 0.411544 q 0.5604,0 0.81871,-0.20577184 0.258309,-0.21015 0.258309,-0.7617938 0,-0.1138313 -0.01313,-0.2670656 -0.0088,-0.1576125 -0.03065,-0.4378125 l 0.731147,-0.091941 0.07005,0.9150282 q 0.02627,0.3677625 0.223284,0.6085594 0.201394,0.24079684 0.591047,0.24079684 0.464081,0 0.63045,-0.24955314 0.166369,-0.2495531 0.166369,-0.7180125 0,-0.1138313 -0.01314,-0.2714438 -0.0088,-0.1576125 -0.03065,-0.4334343 l 0.731147,-0.091941 0.07005,0.9150282 q 0.02189,0.3546281 0.18826,0.6041812 0.166368,0.24517504 0.538509,0.24517504 0.363384,0 0.499106,-0.27144374 0.135722,-0.2714438 0.135722,-0.6348282 0,-0.3283593 -0.06567,-0.6610968 -0.06129,-0.3327375 -0.109453,-0.5385094 l 0.74866,-0.2013938 q 0.07881,0.2933344 0.126965,0.6260719 0.04816,0.3283594 0.04816,0.6567188 0,0.4728375 -0.131344,0.88875936 -0.131344,0.41592188 -0.433435,0.67423126 Q 16.422207,-0.00437813 15.905588,0 q -0.4203,0 -0.678609,-0.175125 -0.25831,-0.17512501 -0.4203,-0.49472814 -0.245175,0.35462813 -0.547266,0.51224064 Q 13.961701,0 13.611451,0 Z"
       id="text7"
       transform="matrix(1.3333333,0,0,1.3333333,126.296,215.204)"
       aria-label="،نﺎﻤﻠﻌﻣ،ناﺪﻨﻣرﺎﮐﺮﯾﺎﺳ" />
    <g
       id="text8"
       transform="matrix(1.3333333,0,0,1.3333333,479.448,51.776)"
       aria-label="ﺖﯾﻮﻟوا:بﺎﺼﺘﻋا.۱ﺖﻔﻧ=ﺐﻠﻗدﺎﺼﺘﻗا.۲ﻊﯾﺎﻨﺻﻦﯿﮕﻨﺳ=ﻪﺑﺮﺿ.۳ﻊﯾزﻮﺗ=ﺞﻠﻓهﺮﻣزور.۴تﺎﻣﺪﺧ=رﺎﺸﻓﯽﻣﻮﻤﻋ">
      <path
         style="font-weight:800;font-size:9.9626px;font-family:Vazirmatn"
         d="m 60.57817,-5.3315475 0.826974,0.8172445 0.817245,-0.8172445 0.831838,0.8269736 -0.831838,0.8367027 -0.817245,-0.8269736 -0.826974,0.8269736 -0.826973,-0.8367027 z m 3.512206,1.9896012 1.216138,-0.1508011 0.09729,1.3912615 q 0.02432,0.3697059 0.194582,0.5351006 0.175123,0.1605302 0.574017,0.1605302 h 0.111884 V 0 H 66.172404 Q 65.61298,0 65.243274,-0.20431113 64.873569,-0.41348681 64.630341,-0.768599 64.187667,-0.35997675 63.550411,-0.17998837 62.918019,0 61.901328,0 h -0.81238 q -0.841567,0 -1.551791,-0.10215556 -0.70536,-0.10702012 -1.230732,-0.36970585 -0.520507,-0.26268574 -0.81238,-0.73454719 -0.287008,-0.4767259 -0.287008,-1.2161376 0,-0.4378096 0.09729,-0.8512964 0.09729,-0.4183514 0.243227,-0.7734636 l 1.172357,0.4426742 q -0.0827,0.2286338 -0.170259,0.530236 -0.0827,0.3016021 -0.0827,0.574017 0,0.486455 0.359977,0.7199535 0.359977,0.2334984 0.953452,0.3064666 0.59834,0.068104 1.308564,0.068104 h 0.81238 q 0.70536,0 1.206409,-0.05351 0.501048,-0.058375 0.763734,-0.238363 0.26755,-0.1848529 0.26755,-0.5691524 0,-0.2480921 -0.01459,-0.5448297 -0.01459,-0.2967376 -0.03405,-0.530236 z m -11.144684,1.9360912 h 1.580979 q 0.369706,0 0.505913,-0.2286339 0.141072,-0.2334985 0.141072,-0.5886107 0,-0.3307894 -0.0827,-0.7199535 -0.07783,-0.3940286 -0.16053,-0.768599 l 1.274512,-0.3307894 q 0.09243,0.4572678 0.145937,0.909671 0.05837,0.4475386 0.05837,0.8561609 0,0.6469852 -0.175124,1.1626276 -0.170259,0.51564237 -0.583746,0.81724451 Q 55.236896,0 54.521807,0 H 52.945692 Z M 53.602407,0.62266248 54.42938,1.439907 55.246625,0.62266248 56.078463,1.4496361 55.246625,2.2863388 54.42938,1.4593652 53.602407,2.2863388 52.775433,1.4496361 Z M 50.776101,-4.0229834 q 0.612934,0 1.041014,0.3648413 0.428081,0.3648413 0.671308,0.963181 0.243228,0.5934752 0.291873,1.289106 h 0.364841 V 0 h -0.462132 q -0.277279,1.1091176 -1.089659,1.7415091 -0.81238,0.6372562 -2.218235,0.909671 L 48.89352,1.3523451 Q 49.506454,1.2355959 50.02696,1.0410138 50.552332,0.84643182 50.912309,0.58374608 51.27715,0.32106034 51.398764,0 h -0.457268 q -0.982639,0 -1.498282,-0.40862226 -0.515642,-0.4134868 -0.515642,-1.33288684 0,-0.3599768 0.111885,-0.7540054 0.111884,-0.3988931 0.340518,-0.7442762 0.228634,-0.3502477 0.574017,-0.5642879 0.350248,-0.2189048 0.822109,-0.2189048 z m 0.16053,2.6171283 h 0.622663 q -0.02919,-0.2724149 -0.116749,-0.5594234 -0.0827,-0.2870085 -0.248092,-0.4815905 -0.160531,-0.194582 -0.428081,-0.194582 -0.228634,0 -0.364841,0.1459365 -0.131343,0.141072 -0.189718,0.3405186 -0.05351,0.194582 -0.05351,0.3599767 0,0.2578212 0.214041,0.3259249 0.218904,0.063239 0.564287,0.063239 z m -5.540724,0 h 0.369706 q 0.505914,0 0.646985,-0.238363 0.141072,-0.238363 0.141072,-0.7248181 V -6.8201 h 1.308565 v 4.567813 q 0,1.1139821 -0.496185,1.68313457 Q 46.874731,0 45.760749,0 h -0.364842 z m -0.296736,0.3259249 q 0,1.13830481 -0.423216,1.89231016 -0.418351,0.75400534 -1.18695,1.19667944 -0.768599,0.4426741 -1.819342,0.6421207 l -0.481591,-1.298835 q 0.992368,-0.1897175 1.658812,-0.53996514 0.671308,-0.35024765 0.851296,-0.86102547 -0.121614,0.02432276 -0.252956,0.04378096 -0.131343,0.01459365 -0.238363,0.01459365 -0.924265,0 -1.454501,-0.40862225 -0.530236,-0.40862226 -0.530236,-1.34261595 0,-0.3891641 0.116749,-0.7929218 0.116749,-0.4086223 0.350248,-0.7491408 0.233498,-0.3453831 0.578881,-0.5545588 0.345383,-0.2091757 0.802651,-0.2091757 0.525372,0 0.904807,0.2529567 0.384299,0.2529566 0.632391,0.6761725 0.248092,0.4232159 0.369706,0.953452 0.121614,0.530236 0.121614,1.0847948 z m -1.911769,-0.3113313 q 0.209176,0 0.379435,-0.024323 0.175124,-0.024323 0.287009,-0.048645 -0.02919,-0.2480921 -0.111885,-0.5302361 -0.0827,-0.2821439 -0.248092,-0.4815905 -0.16053,-0.2043111 -0.432945,-0.2043111 -0.233498,0 -0.369706,0.1556656 -0.131343,0.1556656 -0.184853,0.3648413 -0.05351,0.2091757 -0.05351,0.3648413 0,0.2626857 0.209176,0.335654 0.21404,0.068104 0.525371,0.068104 z M 40.16165,-6.8201 v 6.81523545 H 38.848221 V -6.8201 Z m -1.075143,3.0938542 q 0,-0.3697059 0.262686,-0.6129334 0.262685,-0.2432275 0.632391,-0.2432275 0.374571,0 0.632392,0.2432275 0.262685,0.2432275 0.262685,0.6129334 0,0.3648413 -0.262685,0.6080688 -0.262686,0.2432276 -0.632392,0.2432276 -0.379435,0 -0.637256,-0.238363 -0.257821,-0.2432276 -0.257821,-0.6129334 z m 0,2.86522033 q 0,-0.36484133 0.262686,-0.60806883 0.262685,-0.2480921 0.632391,-0.2480921 0.374571,0 0.632392,0.2480921 0.262685,0.2432275 0.262685,0.60806883 0,0.36970585 -0.262685,0.61293339 -0.262686,0.24322753 -0.632392,0.24322753 -0.379435,0 -0.637256,-0.24322753 -0.257821,-0.24322754 -0.257821,-0.61293339 z M 34.110075,0.57401698 34.985694,1.4496361 34.110075,2.3203907 33.23932,1.4496361 Z M 34.907861,0 H 33.78415 q -0.841567,0 -1.551792,-0.10215556 -0.705359,-0.10702012 -1.230731,-0.36970585 -0.520507,-0.26268574 -0.81238,-0.73454719 -0.287008,-0.4767259 -0.287008,-1.2161376 0,-0.4378096 0.09729,-0.8512964 0.09729,-0.4183514 0.243227,-0.7734636 l 1.172357,0.4378096 q -0.0827,0.2286339 -0.170259,0.5351006 -0.0827,0.3016021 -0.0827,0.574017 0,0.486455 0.359977,0.7199535 0.359977,0.2334984 0.953452,0.3064666 0.59834,0.068104 1.308564,0.068104 h 1.138305 q 0.899942,0 1.400991,-0.1605302 0.505913,-0.1605302 0.505913,-0.6469853 0,-0.3210603 -0.07783,-0.7296826 -0.07297,-0.4086222 -0.165395,-0.7783281 l 1.279377,-0.3210603 q 0.09729,0.4572678 0.150801,0.909671 0.05351,0.4475386 0.05351,0.8512963 0,0.7296826 -0.243227,1.1820859 -0.243228,0.45240316 -0.681037,0.69076614 -0.432945,0.23836299 -1.006962,0.3259249 Q 35.564576,0 34.907861,0 Z m -7.515733,-6.8201 h 1.313428 v 4.4461993 q 0,0.5156423 0.150801,0.7442762 0.150802,0.2237694 0.622663,0.2237694 h 0.121614 V 0 H 29.47902 Q 28.389361,0 27.888312,-0.56428788 27.392128,-1.1285758 27.392128,-2.2571515 Z M 22.430289,0 H 22.172468 Q 21.364952,0 20.781206,-0.14107197 20.19746,-0.28700849 19.837483,-0.63239159 19.565068,-0.335654 19.190498,-0.16539472 18.815928,0 18.266233,0 h -0.199446 l 0.0049,-1.4058551 h 0.194582 q 0.578882,0 0.768599,-0.1799884 0.194582,-0.1848529 0.194582,-0.6761726 0,-0.2772793 -0.01946,-0.5448296 -0.01459,-0.2724149 -0.03405,-0.5302361 l 1.216138,-0.150801 0.09243,1.3863969 q 0.01946,0.194582 0.07783,0.3405186 0.06324,0.1410719 0.17026,0.1653947 0.330789,-0.5448297 0.700495,-1.050743 0.369706,-0.5059132 0.783192,-0.9048064 0.418352,-0.3988931 0.890213,-0.627527 0.476726,-0.2334984 1.011827,-0.2334984 0.617798,0 1.089659,0.2626857 0.476726,0.2626857 0.744276,0.7199535 0.272415,0.4572677 0.272415,1.0458784 0,0.2140402 -0.04865,0.4913196 -0.04378,0.2772794 -0.150801,0.4524032 0.111884,0.014594 0.272414,0.024323 0.160531,0.00973 0.3843,0.00973 h 0.145936 V 0 H 26.686771 Q 26.107889,0 25.71386,-0.15080107 25.319832,-0.30646669 25.008501,-0.51564237 24.502587,-0.29187304 23.831279,-0.14593652 23.164836,0 22.430289,0 Z m 1.722051,-3.0306151 q -0.374571,0 -0.754006,0.238363 -0.379435,0.2334985 -0.724818,0.6080689 -0.345383,0.3697058 -0.627527,0.7783281 h 0.442674 q 0.656715,0 1.216138,-0.063239 0.564288,-0.068104 0.904806,-0.2578212 0.340519,-0.1897175 0.340519,-0.5642879 0,-0.335654 -0.228634,-0.5351005 -0.223769,-0.2043112 -0.569152,-0.2043112 z m -9.145358,-2.836033 0.826974,0.8172445 0.817244,-0.8172445 0.831838,0.8269736 -0.831838,0.8367027 -0.817244,-0.8269736 -0.826974,0.8269736 -0.826973,-0.8367027 z m -0.510778,4.460793 h 0.681037 q 0.535101,0 0.734548,-0.1799884 0.204311,-0.1848529 0.204311,-0.671308 0,-0.2870085 -0.01459,-0.5545588 -0.01459,-0.2724148 -0.03405,-0.530236 l 1.216138,-0.1508011 0.09729,1.3912615 q 0.02432,0.3697059 0.204311,0.5351006 0.179988,0.1605302 0.574017,0.1605302 h 0.102156 V 0 H 18.149482 Q 17.663027,0 17.312779,-0.17512382 16.967396,-0.35024765 16.743627,-0.63239159 16.446889,-0.335654 16.038267,-0.16539472 15.634509,0 15.177241,0 h -0.681037 z m -4.261345,0 q -0.136207,-0.2432276 -0.21404,-0.5788816 -0.077833,-0.3405185 -0.077833,-0.6129334 0,-0.5788815 0.2870089,-1.0653365 0.287008,-0.4913197 0.773463,-0.7831927 0.49132,-0.2967376 1.084795,-0.2967376 0.549694,0 1.002097,0.1994466 0.452404,0.194582 0.924265,0.5156424 l -0.505913,1.157763 q -0.316196,-0.1897175 -0.632392,-0.3259249 -0.316196,-0.1362074 -0.695631,-0.1362074 -0.223769,0 -0.452403,0.092427 -0.228634,0.092426 -0.379435,0.2675502 -0.150801,0.1702593 -0.150801,0.4134869 0,0.2043111 0.09243,0.3988931 0.09729,0.1897175 0.228634,0.335654 0.131342,0.141072 0.233498,0.2043111 0.01946,0.00486 0.07783,-0.014594 l 2.369036,-0.5642879 v 1.41071969 Q 12.973601,-0.41835136 11.84989,-0.20917568 10.731043,0 9.6705713,0 H 9.1792517 V -1.4058551 Z M 8.6149639,-6.8201 v 6.81523545 H 7.3015352 V -6.8201 Z"
         id="path12" />
      <path
         style="font-size:9.9626px;font-family:Vazirmatn"
         d="m -20.03864,16.289016 q 0,-0.267551 0.189718,-0.457268 0.189717,-0.194582 0.457268,-0.194582 0.26755,0 0.457267,0.194582 0.189718,0.189717 0.189718,0.457268 0,0.26755 -0.189718,0.457267 -0.189717,0.189718 -0.457267,0.189718 -0.267551,0 -0.457268,-0.184853 -0.189718,-0.184853 -0.189718,-0.462132 z m 4.125139,0.646985 h -0.836702 v -1.104253 q 0,-1.629625 -0.17026,-2.884679 -0.165394,-1.255054 -0.64212,-2.237693 l 0.768599,-0.277279 q 0.515642,1.143169 0.69563,2.471191 0.184853,1.323158 0.184853,2.943053 z m 82.517138,-4.772124 0.681038,0.676172 -0.681038,0.685902 -0.676172,-0.685902 z m -1.61503,0 0.681037,0.676172 -0.681037,0.685902 -0.676173,-0.685902 z m 3.750568,1.897174 0.81238,-0.09729 0.0827,1.138305 q 0.02919,0.462133 0.262685,0.70536 0.238363,0.243228 0.710225,0.243228 h 0.116749 v 0.885348 h -0.116749 q -0.549695,0 -0.904807,-0.204311 -0.350247,-0.209176 -0.578881,-0.666444 -0.403758,0.466997 -1.03615,0.671308 -0.627527,0.199447 -1.746373,0.199447 h -0.81238 q -1.833936,0 -2.7582,-0.496184 -0.919401,-0.496185 -0.919401,-1.717187 0,-0.335654 0.07297,-0.656714 0.07783,-0.32106 0.199446,-0.617798 l 0.754006,0.282144 q -0.07783,0.21404 -0.131343,0.457268 -0.04865,0.243227 -0.04865,0.462132 0.0049,0.569152 0.321061,0.875619 0.316195,0.301602 0.943722,0.413487 0.627527,0.111885 1.566386,0.111885 h 0.81238 q 1.162627,0 1.799883,-0.243228 0.642121,-0.243227 0.642121,-0.885348 0,-0.199447 -0.01459,-0.428081 -0.0097,-0.228633 -0.02919,-0.432945 z m -9.738831,-3.351675 0.70536,0.70536 -0.70536,0.70536 -0.70536,-0.70536 z m 1.760967,3.935421 q 0,0.3843 -0.170259,0.715089 -0.170259,0.325925 -0.466997,0.671308 0.27728,0.01459 0.49132,0.01946 0.21404,0 0.379435,0 h 0.471861 v 0.885348 h -0.457268 q -0.184852,0 -0.510777,-0.02919 -0.321061,-0.03405 -0.710225,-0.111885 -0.384299,-0.07783 -0.75887,-0.209176 -0.37457,0.136208 -0.768599,0.21404 -0.394028,0.07297 -0.729682,0.107021 -0.335654,0.02919 -0.535101,0.02919 h -0.681037 v -0.885348 h 0.681037 q 0.204311,0 0.423216,0 0.223769,-0.0049 0.539965,-0.02432 -0.291873,-0.340519 -0.457268,-0.676173 -0.165394,-0.335654 -0.165394,-0.715089 0,-0.301602 0.141072,-0.608068 0.141072,-0.306467 0.379435,-0.569153 0.238363,-0.262686 0.544829,-0.418351 0.306467,-0.16053 0.632392,-0.16053 0.340518,0 0.65185,0.16053 0.311331,0.155665 0.549694,0.418351 0.243227,0.257821 0.384299,0.569153 0.141072,0.311331 0.141072,0.617797 z m -1.726915,-0.904806 q -0.184853,0 -0.389164,0.141072 -0.199447,0.136207 -0.340519,0.345383 -0.136207,0.209176 -0.136207,0.428081 0,0.223769 0.131343,0.457267 0.131343,0.233499 0.330789,0.428081 0.204311,0.194582 0.413487,0.301602 0.369706,-0.155666 0.627527,-0.501049 0.262686,-0.350247 0.262686,-0.695631 0,-0.204311 -0.145937,-0.413486 -0.141072,-0.209176 -0.350247,-0.350248 -0.209176,-0.141072 -0.403758,-0.141072 z m -4.767259,3.19601 h -0.792922 v -0.885348 h 0.783193 q 0.486455,0 0.656714,-0.282144 0.175124,-0.282144 0.175124,-0.715089 0,-0.316196 -0.05837,-0.676173 -0.05838,-0.359977 -0.126479,-0.724818 l 0.846432,-0.21404 q 0.0827,0.389164 0.131343,0.763734 0.04865,0.374571 0.04865,0.715089 0,0.583746 -0.160531,1.041014 -0.16053,0.457268 -0.525371,0.719954 -0.364841,0.257821 -0.977775,0.257821 z m 0.593475,-5.74017 0.70536,0.70536 -0.70536,0.70536 -0.705359,-0.70536 z m 1.357134,2.656045 h -4.057035 v -0.734547 h 4.057035 z m 0,1.872852 h -4.057035 v -0.729683 h 4.057035 z m -6.221841,1.955549 0.70536,0.70536 -0.70536,0.70536 -0.70536,-0.70536 z m 2.855491,-3.619226 0.81238,-0.09729 0.0827,1.138305 q 0.02919,0.462133 0.262686,0.70536 0.238363,0.243228 0.710224,0.243228 h 0.11675 v 0.885348 h -0.11675 q -0.549694,0 -0.904806,-0.204311 -0.350248,-0.209176 -0.578882,-0.666444 -0.403757,0.466997 -1.036149,0.671308 -0.627527,0.199447 -1.746374,0.199447 h -0.812379 q -1.833936,0 -2.758201,-0.496184 -0.9194,-0.496185 -0.9194,-1.717187 0,-0.335654 0.07297,-0.656714 0.07783,-0.32106 0.199447,-0.617798 l 0.754005,0.282144 q -0.07783,0.21404 -0.131342,0.457268 -0.04865,0.243227 -0.04865,0.462132 0.0049,0.569152 0.32106,0.875619 0.316196,0.301602 0.943723,0.413487 0.627527,0.111885 1.566386,0.111885 h 0.812379 q 1.162628,0 1.799884,-0.243228 0.642121,-0.243227 0.642121,-0.885348 0,-0.199447 -0.01459,-0.428081 -0.0097,-0.228633 -0.02919,-0.432945 z m -9.232919,0.744277 v -4.567813 h 0.822109 v 4.582406 q 0,0.535101 0.209176,0.885349 0.21404,0.345383 0.773463,0.345383 h 0.155666 v 0.885348 h -0.145937 q -0.544829,0 -0.86589,-0.189718 -0.32106,-0.189717 -0.510777,-0.549694 -0.160531,0.238363 -0.325925,0.403758 -0.160531,0.165395 -0.413487,0.252956 -0.248092,0.0827 -0.681037,0.0827 h -0.418352 v -0.885348 h 0.408623 q 0.408622,0 0.617798,-0.160531 0.21404,-0.165394 0.291873,-0.447538 0.0827,-0.282144 0.0827,-0.637256 z M 40.694886,9.7170076 41.375923,10.39318 40.694886,11.079082 40.018714,10.39318 Z m -1.61503,0 0.681037,0.6761724 -0.681037,0.685902 -0.676173,-0.685902 z m 0.432945,6.3336454 q 0.549694,0 0.885348,-0.06324 0.340518,-0.06324 0.496184,-0.277279 0.16053,-0.218905 0.16053,-0.676172 -0.238363,0.07297 -0.486455,0.111884 -0.243227,0.03892 -0.525371,0.03892 -1.653948,0 -1.653948,-1.35721 0,-0.466997 0.184853,-0.933994 0.189718,-0.466997 0.554559,-0.778328 0.364841,-0.316196 0.885348,-0.316196 0.476726,0 0.817245,0.243228 0.345383,0.243227 0.564288,0.656714 0.223769,0.408622 0.330789,0.929129 0.10702,0.515643 0.10702,1.065337 0,0.724818 -0.131343,1.172357 -0.126478,0.442674 -0.408622,0.676172 -0.282144,0.228634 -0.734547,0.311331 -0.452403,0.0827 -1.104253,0.0827 H 37.664271 V 16.050653 Z M 40.11114,14.34806 q 0.22377,0 0.442674,-0.03892 0.22377,-0.04378 0.447539,-0.10702 -0.03892,-0.345383 -0.145936,-0.700495 -0.102156,-0.355112 -0.306467,-0.593475 -0.204311,-0.243228 -0.54483,-0.243228 -0.301602,0 -0.486455,0.189718 -0.179988,0.189717 -0.262686,0.452403 -0.07783,0.262686 -0.07783,0.486455 0,0.335654 0.238363,0.447539 0.243227,0.10702 0.69563,0.10702 z m -2.213449,1.712322 q 1.867988,0 1.867988,-0.968046 0,-0.457268 -0.466997,-0.968045 -0.466997,-0.510778 -1.546927,-1.099389 l 0.384299,-0.768599 q 1.25019,0.637256 1.853394,1.347481 0.608069,0.705359 0.608069,1.473958 0,0.914536 -0.632392,1.381533 -0.627527,0.466997 -1.994466,0.466997 -0.651849,0 -1.177221,-0.116749 v -0.880484 q 0.637256,0.131343 1.104253,0.131343 z m -3.448966,-5.822867 h 0.822109 v 4.65051 q 0,0.685902 0.252957,0.924265 0.252956,0.238363 0.763734,0.238363 h 0.121614 v 0.885348 h -0.121614 q -0.929129,0 -1.386397,-0.49132 -0.452403,-0.496184 -0.452403,-1.561521 z m -5.04454,6.698486 h -0.257821 q -1.031285,0 -1.57125,-0.194582 -0.539965,-0.194582 -0.763735,-0.54483 -0.282144,0.3843 -0.637256,0.564288 -0.350248,0.175124 -0.933994,0.175124 h -0.199446 l 0.0049,-0.885348 h 0.194582 q 0.681037,0 0.914536,-0.287009 0.238363,-0.291873 0.238363,-0.841567 0,-0.233499 -0.01946,-0.432945 -0.01459,-0.199447 -0.02432,-0.428081 l 0.81238,-0.09729 0.07297,1.138305 q 0.02432,0.325925 0.136208,0.564288 0.111884,0.233499 0.345383,0.233499 0.870754,-1.478824 1.702592,-2.179319 0.836703,-0.70536 1.673406,-0.70536 0.554559,0 0.982639,0.243228 0.432945,0.238363 0.676173,0.651849 0.243227,0.413487 0.243227,0.933994 -0.0049,0.627527 -0.37457,1.113982 0.141072,0.03405 0.364841,0.06324 0.228634,0.02919 0.671308,0.02919 h 0.145937 v 0.885348 h -0.141072 q -0.617798,0 -1.021556,-0.126478 -0.398893,-0.126479 -0.671308,-0.350248 -0.398893,0.223769 -1.050743,0.350248 -0.65185,0.126478 -1.512875,0.126478 z m 1.726915,-3.03548 q -1.172357,0 -2.534431,2.150132 h 0.788058 q 1.386396,0 2.067434,-0.27728 0.681037,-0.277279 0.681037,-0.880483 0,-0.428081 -0.27728,-0.710225 -0.272415,-0.282144 -0.724818,-0.282144 z m -7.520591,-2.227964 0.681037,0.676173 -0.681037,0.685901 -0.676172,-0.685901 z m -1.61503,0 0.681037,0.676173 -0.681037,0.685901 -0.676173,-0.685901 z m -0.525372,4.378096 h 0.681037 q 0.617798,0 0.880484,-0.27728 0.26755,-0.277279 0.26755,-0.851296 0,-0.233499 -0.01459,-0.442674 -0.0097,-0.209176 -0.02919,-0.418352 l 0.81238,-0.09729 0.07783,1.138305 q 0.05837,0.948588 0.987504,0.948588 h 0.102155 v 0.885348 h -0.111884 q -0.539966,0 -0.86589,-0.194582 -0.321061,-0.194582 -0.520507,-0.549694 -0.262686,0.384299 -0.690767,0.564287 -0.42808,0.179989 -0.895077,0.179989 H 21.470107 Z M 19.947499,9.7170076 20.628537,10.39318 19.947499,11.079082 19.271327,10.39318 Z m -1.61503,0 0.681037,0.6761724 -0.681037,0.685902 -0.676173,-0.685902 z m 0.432945,6.3336454 q 0.549694,0 0.885348,-0.06324 0.340518,-0.06324 0.496184,-0.277279 0.16053,-0.218905 0.16053,-0.676172 -0.238363,0.07297 -0.486455,0.111884 -0.243227,0.03892 -0.525371,0.03892 -1.653948,0 -1.653948,-1.35721 0,-0.466997 0.184853,-0.933994 0.189718,-0.466997 0.554559,-0.778328 0.364841,-0.316196 0.885348,-0.316196 0.476726,0 0.817245,0.243228 0.345383,0.243227 0.564288,0.656714 0.223769,0.408622 0.330789,0.929129 0.10702,0.515643 0.10702,1.065337 0,0.724818 -0.131343,1.172357 -0.126478,0.442674 -0.408622,0.676172 -0.282144,0.228634 -0.734547,0.311331 -0.452403,0.0827 -1.104253,0.0827 h -1.790155 v -0.885348 z m 0.598339,-1.702593 q 0.22377,0 0.442674,-0.03892 0.22377,-0.04378 0.447539,-0.10702 -0.03892,-0.345383 -0.145936,-0.700495 -0.102156,-0.355112 -0.306467,-0.593475 -0.204311,-0.243228 -0.54483,-0.243228 -0.301602,0 -0.486455,0.189718 -0.179988,0.189717 -0.262686,0.452403 -0.07783,0.262686 -0.07783,0.486455 0,0.335654 0.238363,0.447539 0.243227,0.10702 0.69563,0.10702 z m -3.093854,-4.110545 v 6.693621 H 15.44779 v -6.693621 z"
         id="path13" />
      <path
         style="font-size:9.9626px;font-family:Vazirmatn"
         d="m -33.37164,28.244016 q 0,-0.267551 0.189718,-0.457268 0.189717,-0.194582 0.457267,-0.194582 0.267551,0 0.457268,0.194582 0.189718,0.189717 0.189718,0.457268 0,0.26755 -0.189718,0.457267 -0.189717,0.189718 -0.457268,0.189718 -0.26755,0 -0.457267,-0.184853 -0.189718,-0.184853 -0.189718,-0.462132 z m 6.698486,-5.788816 q 0.01459,0.175124 0.02432,0.345383 0.0097,0.17026 0.0097,0.335654 0,0.617798 -0.155665,1.109118 -0.155666,0.491319 -0.535101,0.778328 -0.37457,0.282144 -1.041014,0.282144 -0.189717,0 -0.457267,-0.02432 -0.262686,-0.02919 -0.554559,-0.116749 0.102155,0.729683 0.116749,1.376668 0.01946,0.646985 0.01946,1.259918 v 1.08966 h -0.836703 v -1.104253 q 0,-1.629625 -0.170259,-2.884679 -0.165395,-1.255054 -0.64212,-2.237693 l 0.763734,-0.272415 q 0.111885,0.301602 0.204311,0.530236 0.09729,0.223769 0.204311,0.525372 0.21404,0.593475 0.505913,0.80265 0.296738,0.204312 0.836703,0.204312 0.3843,0 0.588611,-0.165395 0.204311,-0.170259 0.282144,-0.432945 0.07783,-0.262686 0.07783,-0.554559 0,-0.21404 -0.02432,-0.408622 -0.02432,-0.194582 -0.05351,-0.364842 z m 91.997411,5.083456 q -0.209176,-0.184853 -0.471862,-0.457268 -0.257821,-0.277279 -0.501049,-0.574017 -0.243227,-0.296738 -0.403757,-0.549694 -0.155666,-0.257821 -0.155666,-0.398893 0,-0.199447 0.209176,-0.359977 0.209175,-0.16053 0.549694,-0.272415 0.345383,-0.111885 0.744276,-0.170259 0.398893,-0.06324 0.778328,-0.06324 0.374571,0 0.773464,0.06324 0.398893,0.05837 0.739412,0.170259 0.345383,0.111885 0.559423,0.272415 0.21404,0.16053 0.21404,0.359977 0,0.141072 -0.165395,0.408622 -0.16053,0.262686 -0.413486,0.574017 -0.252957,0.306466 -0.530236,0.58861 -0.272415,0.282144 -0.501049,0.466997 0.408622,0.252957 0.890213,0.33079 0.48159,0.07783 1.143169,0.07783 h 0.291873 v 0.885348 h -0.291873 q -0.49132,0 -0.933994,-0.05837 -0.442674,-0.06324 -0.890212,-0.238363 -0.442675,-0.179988 -0.948588,-0.530236 -0.778328,0.43781 -1.245325,0.890213 -0.462132,0.452403 -0.462132,0.963181 0,0.681037 0.525371,1.084795 0.525372,0.403757 1.580979,0.403757 0.423216,0 0.870755,-0.07297 0.447539,-0.0681 0.885348,-0.21404 l 0.189718,0.81238 q -0.413487,0.150801 -0.9194,0.233498 -0.501049,0.08756 -1.050743,0.08756 -0.870755,0 -1.527469,-0.257821 -0.656715,-0.257821 -1.021556,-0.778328 -0.359977,-0.520507 -0.359977,-1.298835 0,-0.447539 0.179989,-0.807515 0.184853,-0.359977 0.466997,-0.646986 0.287008,-0.287008 0.603204,-0.515642 0.32106,-0.228634 0.59834,-0.408622 z m 0.74914,-2.00906 q -0.218904,0 -0.627527,0.03892 -0.403757,0.03405 -0.763734,0.155665 0.316196,0.394029 0.637256,0.715089 0.32106,0.316196 0.535101,0.505913 0.218904,0.184853 0.218904,0.184853 0,0 0.218905,-0.184853 0.218905,-0.189717 0.54483,-0.505913 0.325925,-0.32106 0.637256,-0.715089 -0.359977,-0.121613 -0.768599,-0.155665 -0.408622,-0.03892 -0.632392,-0.03892 z m -6.289865,2.476057 h 1.055608 q 0.486455,0 0.656714,-0.282144 0.175124,-0.282144 0.175124,-0.715089 0,-0.316196 -0.05837,-0.676173 -0.05837,-0.359977 -0.126478,-0.724818 l 0.846432,-0.21404 q 0.0827,0.389164 0.131343,0.763734 0.04865,0.374571 0.04865,0.715089 0,0.583746 -0.16053,1.041014 -0.16053,0.457268 -0.525371,0.719954 -0.364842,0.257821 -0.977775,0.257821 h -1.065337 z m 1.756103,1.658811 0.681037,0.676173 -0.681037,0.685901 -0.676172,-0.685901 z m -1.615031,0 0.681037,0.676173 -0.681037,0.685901 -0.676172,-0.685901 z m -1.897174,-7.47195 h 0.822109 v 4.650511 q 0,0.685902 0.252956,0.924265 0.252957,0.238363 0.763735,0.238363 h 0.121614 v 0.885348 H 59.86623 q -0.929129,0 -1.386397,-0.49132 Q 58.02743,27.903497 58.02743,26.83816 Z m -2.626854,3.823537 0.812379,-0.09729 0.07783,1.138305 q 0.05837,0.948588 0.987504,0.948588 h 0.102156 v 0.885348 h -0.111885 q -0.539965,0 -0.86589,-0.194582 -0.32106,-0.194582 -0.520507,-0.549695 -0.262686,0.3843 -0.690766,0.564288 -0.428081,0.179989 -0.895077,0.179989 h -0.466997 v -0.885348 h 0.466997 q 0.617797,0 0.880483,-0.27728 0.26755,-0.277279 0.26755,-0.851296 0,-0.233499 -0.01459,-0.442674 -0.0097,-0.209176 -0.02919,-0.418352 z m 0.09243,-2.422546 0.70536,0.70536 -0.70536,0.70536 -0.70536,-0.70536 z m -7.321151,4.261346 q 0.86589,-1.478823 1.702593,-2.179318 0.836703,-0.70536 1.673405,-0.70536 0.554559,0 0.98264,0.243227 0.432945,0.238363 0.676172,0.65185 0.243228,0.413487 0.243228,0.933994 -0.0049,1.065337 -0.895078,1.580979 -0.890212,0.510778 -2.694961,0.510778 h -0.257821 q -1.031285,0 -1.57125,-0.194582 -0.539965,-0.194582 -0.763734,-0.54483 -0.282144,0.3843 -0.637256,0.564288 -0.350248,0.175124 -0.933994,0.175124 h -0.199447 l 0.0049,-0.885348 h 0.194582 q 0.681037,0 0.914535,-0.287009 0.238363,-0.291873 0.238363,-0.841567 0,-0.233499 -0.01946,-0.432945 -0.01459,-0.199447 -0.02432,-0.428081 l 0.81238,-0.09729 0.07297,1.138305 q 0.02432,0.325925 0.136207,0.564288 0.111885,0.233498 0.345383,0.233498 z m 3.414915,-1.99933 q -1.172357,0 -2.534431,2.150132 h 0.788057 q 1.386397,0 2.067434,-0.27728 0.681037,-0.277279 0.681037,-0.880484 0,-0.42808 -0.277279,-0.710224 -0.272415,-0.282144 -0.724818,-0.282144 z m -6.552398,-0.724818 0.705359,0.70536 -0.705359,0.70536 -0.70536,-0.70536 z m 0.05351,5.389922 q 0.81238,0 1.255054,-0.26755 0.447538,-0.262686 0.622662,-0.695631 0.179989,-0.42808 0.179989,-0.9194 0,-0.578881 -0.155666,-1.143169 -0.155666,-0.564288 -0.291873,-0.924265 l 0.831838,-0.335654 0.359977,1.138305 q 0.09729,0.311331 0.316196,0.471861 0.223769,0.160531 0.622662,0.160531 h 0.189718 v 0.885348 h -0.17026 q -0.340518,0 -0.520507,-0.06324 -0.175123,-0.06324 -0.330789,-0.214041 -0.0049,0.81238 -0.311331,1.439907 -0.306467,0.632392 -0.948588,0.987504 -0.637256,0.355112 -1.649082,0.355112 -1.050743,0 -1.683135,-0.384299 -0.627527,-0.3843 -0.909671,-1.02642 -0.277279,-0.637256 -0.277279,-1.400991 0,-0.515642 0.10702,-1.055607 0.10702,-0.54483 0.291873,-1.060472 l 0.773463,0.311331 q -0.141072,0.447538 -0.238363,0.9194 -0.09729,0.471861 -0.09729,0.914535 0,0.525372 0.184853,0.958317 0.189718,0.432945 0.632392,0.690766 0.442674,0.257821 1.216138,0.257821 z m -7.07306,-2.514972 h 0.734547 q 0.617798,0 0.880483,-0.27728 0.267551,-0.277279 0.267551,-0.851296 0,-0.233499 -0.01459,-0.442674 -0.0097,-0.209176 -0.02919,-0.418352 l 0.81238,-0.09729 0.07783,1.138305 q 0.05837,0.948588 0.987504,0.948588 h 0.102156 v 0.885348 h -0.111885 q -0.539965,0 -0.86589,-0.194582 -0.32106,-0.194582 -0.520507,-0.549695 -0.262686,0.3843 -0.690766,0.564288 -0.42808,0.179989 -0.895077,0.179989 h -0.734547 z m 1.756102,1.658811 0.681037,0.676173 -0.681037,0.685901 -0.676172,-0.685901 z m -1.615031,0 0.681038,0.676173 -0.681038,0.685901 -0.676172,-0.685901 z M 33.432421,23.00003 v -0.535101 l 3.697058,-1.498281 v 0.5351 z m 0.671308,1.172357 q 0.554558,0.389164 1.060472,0.773463 0.510777,0.379435 0.9194,0.826974 0.408622,0.442674 0.646985,1.031285 0.257821,0.627527 0.54483,0.914535 0.287008,0.287009 0.807515,0.287009 h 0.136207 v 0.885348 h -0.136207 q -0.539965,0 -0.9194,-0.209176 -0.374571,-0.209176 -0.671308,-0.666443 -0.194582,0.287008 -0.476726,0.48159 -0.277279,0.194582 -0.729683,0.296738 -0.447538,0.09729 -1.162627,0.09729 h -1.186951 v -0.885348 h 1.182086 q 0.943723,0 1.352345,-0.165395 0.408623,-0.170259 0.408623,-0.671308 0,-0.321061 -0.228634,-0.627527 -0.22377,-0.306467 -0.583746,-0.603205 -0.355113,-0.301602 -0.763735,-0.58861 -0.408622,-0.291873 -0.768599,-0.574017 -0.155666,-0.126478 -0.238363,-0.296738 -0.0827,-0.170259 -0.0827,-0.345383 0,-0.199446 0.10702,-0.37457 0.111885,-0.175124 0.345383,-0.26755 l 3.497612,-1.420449 v 0.861025 z m -2.952783,1.843664 0.81238,-0.09729 0.07783,1.138305 q 0.05837,0.948588 0.987504,0.948588 h 0.102156 v 0.885348 h -0.111885 q -0.539965,0 -0.86589,-0.194582 -0.32106,-0.194582 -0.520507,-0.549695 -0.262686,0.3843 -0.690766,0.564288 -0.428081,0.179989 -0.895077,0.179989 h -0.466997 v -0.885348 h 0.466997 q 0.617797,0 0.880483,-0.27728 0.267551,-0.277279 0.267551,-0.851296 0,-0.233499 -0.01459,-0.442674 -0.0097,-0.209176 -0.02919,-0.418352 z m 0.09243,-2.422546 0.70536,0.70536 -0.70536,0.70536 -0.70536,-0.70536 z m -6.129335,5.297496 q -0.559424,0 -0.86589,-0.189718 -0.301602,-0.194582 -0.481591,-0.554559 -0.228634,0.359977 -0.583746,0.554559 -0.355112,0.189718 -1.011826,0.189718 h -0.447539 v -0.885348 h 0.457268 q 0.622662,0 0.909671,-0.228634 0.287008,-0.233499 0.287008,-0.846432 0,-0.126478 -0.01459,-0.296738 -0.0097,-0.175124 -0.03405,-0.486455 l 0.81238,-0.102155 0.07783,1.016691 q 0.02919,0.408622 0.248092,0.676172 0.22377,0.267551 0.656715,0.267551 0.515642,0 0.700495,-0.27728 0.184853,-0.277279 0.184853,-0.797786 0,-0.126478 -0.01459,-0.301602 -0.0097,-0.175124 -0.03405,-0.481591 l 0.81238,-0.102155 0.07783,1.016691 q 0.02432,0.394028 0.209176,0.671308 0.184853,0.272415 0.59834,0.272415 0.403757,0 0.554559,-0.301603 0.150801,-0.301602 0.150801,-0.705359 0,-0.364842 -0.07297,-0.734548 -0.0681,-0.369705 -0.121613,-0.598339 l 0.831838,-0.22377 q 0.08756,0.325925 0.141072,0.695631 0.05351,0.364841 0.05351,0.729683 0,0.525371 -0.145937,0.987503 -0.145936,0.462133 -0.48159,0.749141 -0.33079,0.282144 -0.904807,0.287009 -0.466997,0 -0.754005,-0.194582 -0.287009,-0.194582 -0.466997,-0.549695 -0.272415,0.394029 -0.608069,0.569153 -0.330789,0.175124 -0.719953,0.175124 z M 24.466975,25.806876 H 20.40994 v -0.734548 h 4.057035 z m 0,1.872852 H 20.40994 v -0.729683 h 4.057035 z m -1.551872,1.211273 q -0.715089,0 -1.113982,-0.335654 -0.394029,-0.335654 -0.510778,-0.924265 -0.282144,0.282144 -0.612933,0.432945 -0.325925,0.150801 -0.734547,0.150801 -0.695631,0 -1.167493,-0.37457 -0.471861,-0.374571 -0.471861,-1.036149 0,-0.749141 0.612933,-1.293971 0.612934,-0.549694 1.926362,-0.953452 l -0.03405,-0.233498 0.778328,-0.155666 0.423216,2.986834 q 0.05837,0.428081 0.277279,0.642121 0.223769,0.209176 0.646985,0.209176 h 0.150801 v 0.885348 z m -1.819342,-2.446869 q 0,-0.150801 -0.01946,-0.287009 l -0.121614,-0.81238 q -0.943723,0.340519 -1.376668,0.671308 -0.42808,0.33079 -0.42808,0.724818 0,0.321061 0.218905,0.486455 0.218904,0.165395 0.593475,0.165395 0.287008,0 0.544829,-0.111885 0.262686,-0.111884 0.423216,-0.325924 0.165395,-0.214041 0.165395,-0.510778 z m -5.419111,2.446869 h -0.895078 v -0.885348 h 0.885349 q 0.486455,0 0.656714,-0.282144 0.175124,-0.282144 0.175124,-0.715089 0,-0.316196 -0.05837,-0.676173 -0.05837,-0.359977 -0.126478,-0.724818 l 0.846432,-0.21404 q 0.0827,0.389164 0.131343,0.763734 0.04865,0.374571 0.04865,0.715089 0,0.583746 -0.16053,1.041014 -0.16053,0.457268 -0.525372,0.719954 -0.364841,0.257821 -0.977774,0.257821 z m 0.10702,0.744276 0.70536,0.70536 -0.70536,0.70536 -0.70536,-0.70536 z m -1.16313,-0.744276 q -0.335654,0 -0.564288,-0.08756 -0.223769,-0.09243 -0.350248,-0.194582 -0.07297,0.637256 -0.355112,1.230731 -0.277279,0.59834 -0.836703,1.041014 -0.559423,0.442674 -1.478823,0.622662 l -0.287008,-0.768599 q 1.18695,-0.257821 1.673405,-0.904806 0.486455,-0.642121 0.486455,-1.522604 0,-0.413487 -0.09243,-0.86589 -0.08756,-0.457268 -0.248092,-0.92913 l 0.807515,-0.272414 0.262686,1.016691 q 0.10702,0.408622 0.340518,0.578881 0.233499,0.17026 0.588611,0.17026 h 0.184853 v 0.885348 z m -5.6136899,-6.289864 0.7053598,0.70536 -0.7053598,0.705359 -0.7053599,-0.705359 z m -3.1765516,5.253714 q 0.86589,-1.478823 1.7025927,-2.179318 0.8367027,-0.70536 1.6734054,-0.70536 0.5545588,0 0.9826394,0.243227 0.432945,0.238363 0.676172,0.65185 0.243228,0.413487 0.243228,0.933994 -0.0049,1.065337 -0.895077,1.580979 -0.8902131,0.510778 -2.6949614,0.510778 H 7.2604764 q -1.0312848,0 -1.5712499,-0.194582 -0.5399651,-0.194582 -0.7637344,-0.54483 -0.282144,0.3843 -0.6372562,0.564288 -0.3502476,0.175124 -0.9339937,0.175124 H 3.1547956 l 0.00486,-0.885348 h 0.194582 q 0.6810371,0 0.9145355,-0.287009 0.238363,-0.291873 0.238363,-0.841567 0,-0.233499 -0.019458,-0.432945 -0.014594,-0.199447 -0.024323,-0.428081 l 0.8123799,-0.09729 0.072968,1.138305 q 0.024323,0.325925 0.1362074,0.564288 0.1118847,0.233498 0.3453831,0.233498 z m 3.4149146,-1.99933 q -1.1723568,0 -2.5344309,2.150132 h 0.7880572 q 1.3863969,0 2.067434,-0.27728 0.6810366,-0.277279 0.6810366,-0.880484 0,-0.42808 -0.2772789,-0.710224 -0.2724148,-0.282144 -0.724818,-0.282144 z"
         id="path14" />
      <path
         style="font-size:9.9626px;font-family:Vazirmatn"
         d="m -21.755641,40.199015 q 0,-0.26755 0.189718,-0.457267 0.189717,-0.194582 0.457268,-0.194582 0.26755,0 0.457267,0.194582 0.189718,0.189717 0.189718,0.457267 0,0.267551 -0.189718,0.457268 -0.189717,0.189718 -0.457267,0.189718 -0.267551,0 -0.457268,-0.184853 -0.189718,-0.184853 -0.189718,-0.462133 z m 6.693622,-2.938188 q -0.325925,0 -0.622662,-0.131343 -0.296738,-0.136207 -0.466997,-0.447539 -0.165395,0.306467 -0.466997,0.442674 -0.301602,0.136208 -0.530236,0.136208 -0.165395,0 -0.296738,-0.0097 -0.126478,-0.01459 -0.311331,-0.07783 0.05351,0.559423 0.07783,0.977775 0.02919,0.418351 0.03892,0.797786 0.0097,0.37457 0.0097,0.807515 v 1.08966 h -0.836702 v -1.104253 q 0,-1.629625 -0.17026,-2.884679 -0.165394,-1.255054 -0.64212,-2.237693 l 0.763734,-0.272415 q 0.150801,0.384299 0.252957,0.661579 0.102155,0.272415 0.243227,0.617798 0.126479,0.311331 0.291873,0.544829 0.165395,0.233499 0.520507,0.238363 0.350248,0 0.510778,-0.21404 0.165395,-0.21404 0.170259,-0.885348 l 0.0049,-0.622662 0.778328,-0.03405 0.01946,0.569152 q 0.02432,0.695631 0.175124,0.943723 0.150801,0.243227 0.476726,0.243227 0.238363,0 0.364841,-0.16053 0.131343,-0.165394 0.184853,-0.423216 0.05351,-0.257821 0.05351,-0.539965 0,-0.21404 -0.02432,-0.423216 -0.01946,-0.21404 -0.04865,-0.379435 l 0.836703,-0.07297 q 0.02919,0.32106 0.02919,0.637256 0,0.583746 -0.126478,1.08966 -0.121614,0.505913 -0.423216,0.817244 -0.301602,0.306467 -0.836703,0.306467 z m 80.595094,2.232829 q -0.209176,-0.184853 -0.471861,-0.457268 -0.257822,-0.27728 -0.501049,-0.574017 -0.243228,-0.296738 -0.403758,-0.549694 -0.155665,-0.257822 -0.155665,-0.398894 0,-0.199446 0.209175,-0.359976 0.209176,-0.16053 0.549694,-0.272415 0.345384,-0.111885 0.744277,-0.170259 0.398893,-0.06324 0.778328,-0.06324 0.37457,0 0.773463,0.06324 0.398894,0.05837 0.739412,0.170259 0.345383,0.111885 0.559423,0.272415 0.214041,0.16053 0.214041,0.359976 0,0.141072 -0.165395,0.408623 -0.16053,0.262685 -0.413487,0.574017 -0.252957,0.306466 -0.530236,0.58861 -0.272415,0.282144 -0.501049,0.466997 0.408623,0.252957 0.890213,0.33079 0.481591,0.07783 1.14317,0.07783 h 0.291873 v 0.885349 h -0.291873 q -0.49132,0 -0.933994,-0.05837 -0.442674,-0.06324 -0.890213,-0.238363 -0.442674,-0.179988 -0.948587,-0.530236 -0.778328,0.43781 -1.245325,0.890213 -0.462133,0.452403 -0.462133,0.963181 0,0.681037 0.525372,1.084795 0.525371,0.403757 1.580979,0.403757 0.423216,0 0.870754,-0.07297 0.447539,-0.0681 0.885349,-0.21404 l 0.189717,0.81238 q -0.413487,0.150801 -0.9194,0.233498 -0.501049,0.08756 -1.050743,0.08756 -0.870755,0 -1.527469,-0.257821 -0.656714,-0.257821 -1.021555,-0.778328 -0.359977,-0.520507 -0.359977,-1.298835 0,-0.447539 0.179988,-0.807516 0.184853,-0.359976 0.466997,-0.646985 0.287008,-0.287008 0.603204,-0.515642 0.321061,-0.228634 0.59834,-0.408622 z m 0.749141,-2.00906 q -0.218905,0 -0.627527,0.03892 -0.403758,0.03405 -0.763735,0.155665 0.316196,0.394029 0.637256,0.715089 0.321061,0.316196 0.535101,0.505913 0.218905,0.184853 0.218905,0.184853 0,0 0.218905,-0.184853 0.218904,-0.189717 0.544829,-0.505913 0.325925,-0.32106 0.637256,-0.715089 -0.359976,-0.121614 -0.768599,-0.155665 -0.408622,-0.03892 -0.632391,-0.03892 z m -6.289865,2.476056 h 1.055607 q 0.486455,0 0.656715,-0.282143 0.175123,-0.282144 0.175123,-0.715089 0,-0.316196 -0.05837,-0.676173 -0.05837,-0.359977 -0.126478,-0.724818 l 0.846431,-0.21404 q 0.0827,0.389164 0.131343,0.763734 0.04865,0.374571 0.04865,0.715089 0,0.583746 -0.16053,1.041014 -0.160531,0.457268 -0.525372,0.719953 -0.364841,0.257822 -0.977775,0.257822 h -1.065336 z m 1.756103,1.658812 0.681037,0.676173 -0.681037,0.685901 -0.676173,-0.685901 z m -1.615031,0 0.681037,0.676173 -0.681037,0.685901 -0.676173,-0.685901 z m -1.435034,-5.779086 0.705359,0.70536 -0.705359,0.70536 -0.70536,-0.70536 z m -1.780426,7.622751 -0.287008,-0.773464 q 1.18695,-0.257821 1.673405,-0.904806 0.486455,-0.642121 0.486455,-1.522604 0,-0.413487 -0.09243,-0.86589 -0.08756,-0.457268 -0.248093,-0.92913 l 0.807516,-0.272414 q 0.350248,0.997232 0.350248,1.921497 0,0.81238 -0.287009,1.503146 -0.282144,0.695631 -0.880484,1.177221 -0.593475,0.486456 -1.522604,0.666444 z m -2.539292,-6.173115 q 0.75887,0 1.279377,0.681037 0.520507,0.676173 0.539965,1.989601 h 0.58861 v 0.885349 H 56.12018 q -0.10702,0.559423 -0.428081,1.07993 -0.316195,0.525371 -0.943722,0.924265 Q 54.12085,43.253953 53.0847,43.4534 l -0.287008,-0.773464 q 2.203641,-0.423216 2.553889,-1.833935 h -0.768599 q -1.843665,0 -1.843665,-1.493417 0,-0.476726 0.189718,-0.953452 0.194582,-0.476726 0.559423,-0.792922 0.369706,-0.316196 0.890213,-0.316196 z m 0.155665,2.670638 h 0.861026 q -0.05837,-0.938858 -0.311331,-1.366938 -0.248092,-0.428081 -0.719954,-0.428081 -0.311331,0 -0.49132,0.199447 -0.175123,0.199446 -0.248092,0.471861 -0.0681,0.267551 -0.0681,0.486455 0,0.340519 0.228634,0.49132 0.233498,0.145936 0.74914,0.145936 z m -3.288445,-4.825634 0.681037,0.676173 -0.681037,0.685901 -0.676172,-0.685901 z m -1.615031,0 0.681037,0.676173 -0.681037,0.685901 -0.676172,-0.685901 z m -0.525371,4.825634 h 0.997233 q 0.486455,0 0.656714,-0.282143 0.175124,-0.282144 0.175124,-0.715089 0,-0.316196 -0.05837,-0.676173 -0.05837,-0.359977 -0.126478,-0.724818 l 0.846432,-0.21404 q 0.0827,0.389164 0.131343,0.763734 0.04865,0.374571 0.04865,0.715089 0,0.583746 -0.16053,1.041014 -0.16053,0.457268 -0.525372,0.719953 -0.364841,0.257822 -0.977774,0.257822 h -1.006962 z m 2.74353,-2.198776 h -4.057035 v -0.734548 h 4.057035 z m 0,1.872852 h -4.057035 v -0.729683 h 4.057035 z m -4.937596,1.118846 0.70536,0.70536 -0.70536,0.70536 -0.70536,-0.70536 z m -2.909002,0.943723 q 0,-0.802651 0.403758,-1.498282 0.408622,-0.700495 1.225867,-1.221002 0.822109,-0.525371 2.057705,-0.797786 -0.398893,-0.165395 -0.788057,-0.32106 -0.3843,-0.155666 -0.676173,-0.257822 -0.287008,-0.10702 -0.403758,-0.10702 -0.296737,0 -0.549694,0.175124 -0.248092,0.170259 -0.437809,0.413487 l -0.131343,0.165395 -0.744276,-0.364842 0.07297,-0.116749 q 0.32106,-0.520507 0.768599,-0.831838 0.452403,-0.316196 1.02642,-0.316196 0.301602,0 0.739412,0.184853 0.442674,0.184853 0.958316,0.428081 0.515643,0.243227 1.045879,0.437809 0.5351,0.189718 1.021555,0.204311 v 0.836703 q -0.574017,0.03892 -1.060472,0.136207 0,0.515643 0.175124,0.754006 0.179988,0.233498 0.525371,0.296737 0.345384,0.06324 0.841568,0.06324 h 0.394028 v 0.885349 h -0.379435 q -0.754005,0 -1.259918,-0.150801 -0.501049,-0.155666 -0.754006,-0.559424 -0.248092,-0.403757 -0.248092,-1.148034 -1.045878,0.282144 -1.712322,0.710225 -0.661578,0.423216 -0.977774,0.929129 -0.311331,0.505913 -0.311331,1.02642 0,1.707457 2.490649,1.707457 0.549695,0 1.123712,-0.111884 0.578881,-0.10702 1.07993,-0.340519 l 0.218905,0.81238 q -0.510778,0.238363 -1.167492,0.359977 -0.65185,0.126478 -1.328023,0.126478 -0.933994,0 -1.668541,-0.26755 -0.729682,-0.262686 -1.152898,-0.822109 -0.418352,-0.554559 -0.418352,-1.420449 z m -2.349579,-2.98197 v -4.567813 h 0.822109 v 4.582407 q 0,0.535101 0.209175,0.885348 0.214041,0.345383 0.773464,0.345383 h 0.155666 v 0.885349 h -0.145937 q -0.54483,0 -0.86589,-0.189718 -0.32106,-0.189717 -0.510778,-0.549694 -0.16053,0.238363 -0.325925,0.403758 -0.16053,0.165394 -0.413486,0.252956 -0.248093,0.0827 -0.681038,0.0827 h -0.418351 v -0.885349 h 0.408622 q 0.408623,0 0.617798,-0.16053 0.21404,-0.165394 0.291873,-0.447538 0.0827,-0.282144 0.0827,-0.637257 z m -3.735971,-5.180746 0.70536,0.70536 -0.70536,0.70536 -0.70536,-0.70536 z m -0.369706,6.426071 q 0.549695,0 0.885349,-0.06324 0.340518,-0.06324 0.496184,-0.277279 0.16053,-0.218905 0.16053,-0.676173 -0.238363,0.07297 -0.486455,0.111885 -0.243228,0.03892 -0.525372,0.03892 -1.653947,0 -1.653947,-1.357209 0,-0.466997 0.184853,-0.933994 0.189717,-0.466997 0.554559,-0.778328 0.364841,-0.316196 0.885348,-0.316196 0.476726,0 0.817245,0.243228 0.345383,0.243227 0.564287,0.656714 0.22377,0.408622 0.33079,0.929129 0.10702,0.515643 0.10702,1.065337 0,0.724818 -0.131343,1.172357 -0.126478,0.442674 -0.408622,0.676172 -0.282144,0.228634 -0.734547,0.311331 -0.452404,0.0827 -1.104253,0.0827 h -1.790155 v -0.885349 z m 0.59834,-1.702592 q 0.223769,0 0.442674,-0.03892 0.223769,-0.04378 0.447539,-0.10702 -0.03892,-0.345383 -0.145937,-0.700495 -0.102155,-0.355112 -0.306466,-0.593475 -0.204312,-0.243228 -0.54483,-0.243228 -0.301602,0 -0.486455,0.189718 -0.179989,0.189717 -0.262686,0.452403 -0.07783,0.262686 -0.07783,0.486455 0,0.335654 0.238363,0.447539 0.243228,0.10702 0.695631,0.10702 z M 36.1315,37.246233 35.941783,37.075974 36.457425,36.40953 q 0.642121,0.530236 1.128576,0.992369 0.49132,0.457268 0.768599,0.899942 0.277279,0.437809 0.277279,0.909671 0,0.739411 -0.505913,1.177221 -0.505913,0.437809 -1.332887,0.437809 -0.846431,0 -1.342616,-0.413486 -0.496184,-0.418352 -0.496184,-1.060472 0,-0.564288 0.301602,-1.050743 0.301602,-0.49132 0.875619,-1.055608 z m 1.673406,1.926362 q 0,-0.223769 -0.165395,-0.457268 -0.16053,-0.238363 -0.408622,-0.471861 -0.243228,-0.238363 -0.496184,-0.457268 -0.447539,0.428081 -0.700496,0.768599 -0.252956,0.335654 -0.252956,0.70536 0,0.282144 0.238363,0.49132 0.238363,0.209175 0.768599,0.209175 0.5351,0 0.773463,-0.194582 0.243228,-0.194582 0.243228,-0.593475 z m -4.133388,1.673406 q -0.335654,0 -0.564288,-0.08756 -0.22377,-0.09243 -0.350248,-0.194582 -0.07297,0.637256 -0.355112,1.230731 -0.27728,0.59834 -0.836703,1.041014 -0.559423,0.442674 -1.478823,0.622662 l -0.287009,-0.768599 q 1.186951,-0.257821 1.673406,-0.904806 0.486455,-0.642121 0.486455,-1.522604 0,-0.413487 -0.09243,-0.86589 -0.08756,-0.457268 -0.248092,-0.92913 l 0.807516,-0.272414 0.262685,1.016691 q 0.10702,0.408622 0.340519,0.578881 0.233498,0.170259 0.588611,0.170259 h 0.184852 v 0.885349 z m -5.049403,0.111884 q -0.486455,0 -0.899942,-0.209175 -0.408622,-0.214041 -0.851296,-0.642121 -0.316196,0.355112 -0.608069,0.549694 -0.291873,0.189718 -0.822109,0.189718 h -0.21404 v -0.885349 h 0.189717 q 0.325925,0 0.549695,-0.184852 0.223769,-0.189718 0.398893,-0.486456 0.175123,-0.296737 0.345383,-0.627527 0.175124,-0.335654 0.389164,-0.632391 0.21404,-0.296738 0.515642,-0.481591 0.306467,-0.189717 0.754006,-0.189717 0.539965,0 0.938858,0.262686 0.403758,0.257821 0.622662,0.69563 0.22377,0.43781 0.22377,0.977775 0,0.792922 -0.403758,1.230731 -0.398893,0.432945 -1.128576,0.432945 z m -0.233498,-2.738742 q -0.243228,0 -0.442674,0.165395 -0.199447,0.16053 -0.359977,0.418351 -0.16053,0.257822 -0.287009,0.535101 0.291873,0.306467 0.603205,0.501049 0.398893,0.257821 0.710224,0.257821 0.719954,0 0.719954,-0.724818 0,-0.505913 -0.252957,-0.826974 -0.248092,-0.325925 -0.690766,-0.325925 z m -5.242742,-2.378765 0.70536,0.70536 -0.70536,0.70536 -0.705359,-0.70536 z m -1.780425,7.622751 -0.287009,-0.773464 q 1.186951,-0.257821 1.673406,-0.904806 0.486455,-0.642121 0.486455,-1.522604 0,-0.413487 -0.09243,-0.86589 -0.08756,-0.457268 -0.248092,-0.92913 l 0.807516,-0.272414 q 0.350247,0.997232 0.350247,1.921497 0,0.81238 -0.287008,1.503146 -0.282144,0.695631 -0.880484,1.177221 -0.593475,0.486456 -1.522604,0.666444 z m -0.564287,-3.448966 q 0,2.840897 -3.118177,3.439237 l -0.287009,-0.773464 q 1.118847,-0.21404 1.785291,-0.715089 0.666443,-0.496184 0.788057,-1.250189 -0.184853,0.05837 -0.428081,0.102155 -0.243227,0.04378 -0.42808,0.04378 -1.775561,0 -1.775561,-1.50801 0,-0.359977 0.10702,-0.719954 0.111885,-0.364841 0.32106,-0.666443 0.214041,-0.306467 0.520507,-0.49132 0.306467,-0.184853 0.695631,-0.184853 0.462132,0 0.802651,0.228634 0.345383,0.228634 0.569152,0.617798 0.22377,0.389164 0.335654,0.875619 0.111885,0.486455 0.111885,1.002098 z m -1.663676,-0.03405 q 0.42808,0 0.851296,-0.126479 -0.04865,-0.817244 -0.301602,-1.250189 -0.252957,-0.43781 -0.715089,-0.43781 -0.32106,0 -0.501049,0.199447 -0.175124,0.199446 -0.248092,0.471861 -0.0681,0.267551 -0.0681,0.486455 0,0.355113 0.243228,0.505914 0.243227,0.150801 0.739412,0.150801 z m -5.602367,3.483018 -0.287008,-0.773464 q 1.18695,-0.257821 1.673405,-0.904806 0.486455,-0.642121 0.486455,-1.522604 0,-0.413487 -0.09243,-0.86589 -0.08756,-0.457268 -0.248093,-0.92913 l 0.807516,-0.272414 q 0.350248,0.997232 0.350248,1.921497 0,0.81238 -0.287009,1.503146 -0.282144,0.695631 -0.880484,1.177221 -0.593475,0.486456 -1.522604,0.666444 z"
         id="path15" />
      <path
         style="font-size:9.9626px;font-family:Vazirmatn"
         d="m -37.341641,52.154013 q 0,-0.26755 0.189717,-0.457267 0.189718,-0.194582 0.457268,-0.194582 0.267551,0 0.457268,0.194582 0.189717,0.189717 0.189717,0.457267 0,0.267551 -0.189717,0.457268 -0.189717,0.189718 -0.457268,0.189718 -0.26755,0 -0.457268,-0.184853 -0.189717,-0.184853 -0.189717,-0.462133 z m 5.993126,-4.956977 q -0.355112,0 -0.608068,0.179989 -0.252957,0.175124 -0.389164,0.462132 -0.136208,0.282144 -0.136208,0.612933 0,0.175124 0.170259,0.287009 0.17026,0.10702 0.442675,0.16053 0.272414,0.05351 0.574016,0.05351 0.340519,0 0.661579,-0.05837 0.325925,-0.06324 0.535101,-0.175124 l 0.111885,0.841567 q -0.661579,0.233498 -1.323158,0.233498 -0.574017,0 -1.13344,-0.184853 -0.559424,-0.189717 -0.924265,-0.559423 0.102155,0.778328 0.126478,1.454501 0.02432,0.671308 0.02432,1.206408 v 1.08966 h -0.836703 v -1.104253 q 0,-1.629625 -0.170259,-2.884679 -0.165395,-1.255054 -0.642121,-2.237693 l 0.768599,-0.272415 0.389164,1.036149 q 0.155666,0.408623 0.238363,0.59834 0.0827,0.184853 0.136208,0.248092 0.05837,0.05838 0.126478,0.09243 0,-0.49132 0.21404,-0.933994 0.214041,-0.447539 0.617798,-0.724818 0.403758,-0.282144 0.97291,-0.282144 0.471862,0 0.744277,0.141072 0.277279,0.136207 0.457267,0.262686 l -0.272414,0.763734 q -0.175124,-0.10702 -0.3843,-0.204311 -0.204311,-0.102156 -0.49132,-0.102156 z m 98.360983,5.603963 h -1.13344 q -1.833936,0 -2.7582,-0.496184 -0.9194,-0.496185 -0.9194,-1.717187 0,-0.335654 0.07297,-0.656714 0.07783,-0.321061 0.199447,-0.617798 l 0.754005,0.282144 q -0.07783,0.21404 -0.131343,0.457268 -0.04865,0.243227 -0.04865,0.462132 0.0049,0.569152 0.32106,0.875619 0.316196,0.301602 0.943723,0.413487 0.627527,0.111884 1.566385,0.111884 h 1.138305 q 0.330789,0 0.690766,-0.01946 0.364841,-0.01946 0.681037,-0.10702 0.316196,-0.08756 0.515643,-0.291873 0.199446,-0.209176 0.199446,-0.583746 0,-0.272415 -0.05351,-0.646985 -0.05351,-0.379435 -0.126478,-0.749141 l 0.846432,-0.21404 q 0.08756,0.379435 0.131342,0.788057 0.04865,0.403758 0.04865,0.70536 0,0.661579 -0.223769,1.060472 -0.22377,0.398893 -0.627527,0.603204 -0.398894,0.204311 -0.933994,0.272415 -0.530236,0.0681 -1.152899,0.0681 z m -0.09243,-4.772125 0.681037,0.676173 -0.681037,0.685902 -0.676173,-0.685902 z m -1.615031,0 0.681037,0.676173 -0.681037,0.685902 -0.676173,-0.685902 z m -5.448297,-1.926362 h 0.82211 v 4.650511 q 0,0.685902 0.252956,0.924264 0.252957,0.238363 0.763735,0.238363 h 0.121613 v 0.885349 h -0.121613 q -0.92913,0 -1.386397,-0.49132 -0.452404,-0.496184 -0.452404,-1.561521 z m -2.758198,6.810371 q -0.486456,0 -0.899942,-0.209175 -0.408623,-0.214041 -0.851297,-0.642121 -0.316195,0.355112 -0.608069,0.549694 -0.291873,0.189718 -0.822109,0.189718 h -0.21404 V 51.91565 h 0.189718 q 0.325925,0 0.549694,-0.184852 0.223769,-0.189718 0.398893,-0.486456 0.175124,-0.296737 0.345383,-0.627527 0.175124,-0.335654 0.389164,-0.632391 0.21404,-0.296738 0.515643,-0.481591 0.306466,-0.189717 0.754005,-0.189717 0.539965,0 0.938858,0.262686 0.403758,0.257821 0.622663,0.69563 0.223769,0.43781 0.223769,0.977775 0,0.792922 -0.403758,1.230731 -0.398893,0.432945 -1.128575,0.432945 z m -0.233499,-2.738742 q -0.243227,0 -0.442674,0.165395 -0.199447,0.16053 -0.359977,0.418351 -0.16053,0.257822 -0.287008,0.535101 0.291873,0.306467 0.603204,0.501049 0.398893,0.257821 0.710224,0.257821 0.719954,0 0.719954,-0.724818 0,-0.505913 -0.252957,-0.826974 -0.248092,-0.325925 -0.690766,-0.325925 z m -5.078588,0.856161 q 0,-0.126478 -0.05837,-0.325925 -0.05351,-0.204311 -0.131343,-0.379435 l -0.861025,-1.950684 0.75887,-0.355113 1.104253,2.59767 q 0.223769,0.525372 0.389164,0.807516 0.170259,0.282144 0.330789,0.389164 0.165395,0.102155 0.374571,0.102155 h 0.204311 v 0.885349 h -0.204311 q -0.3843,0 -0.627527,-0.09243 -0.238363,-0.09243 -0.413487,-0.277279 -0.175124,-0.184853 -0.355112,-0.466997 -0.340519,0.42808 -0.870755,0.632392 -0.525371,0.199446 -1.313429,0.199446 -0.340518,0 -0.612933,-0.02919 -0.272415,-0.03405 -0.515642,-0.09243 v -0.880483 q 0.559423,0.131343 1.055607,0.131343 1.746374,0 1.746374,-0.895078 z m -7.024419,-4.407283 0.70536,0.70536 -0.70536,0.70536 -0.70536,-0.70536 z m -3.030615,5.292631 h 0.826973 q 0.569153,0 1.045879,-0.102155 0.476726,-0.102156 0.929129,-0.282144 0.457268,-0.179988 0.953452,-0.423216 0.501049,-0.248092 1.118847,-0.530236 -0.345384,-0.126478 -0.715089,-0.272415 -0.369706,-0.150801 -0.70536,-0.282144 -0.33079,-0.131343 -0.578882,-0.21404 -0.248092,-0.08756 -0.350247,-0.08756 -0.296738,0 -0.525372,0.175124 -0.223769,0.170259 -0.413487,0.413487 l -0.131343,0.165394 -0.744276,-0.364841 0.07297,-0.116749 q 0.321061,-0.520507 0.744277,-0.831838 0.42808,-0.316196 1.002097,-0.316196 0.238363,0 0.574017,0.121614 0.340519,0.121614 0.739412,0.306466 0.398893,0.179989 0.826973,0.369706 0.428081,0.184853 0.856161,0.316196 0.428081,0.126478 0.817245,0.141072 v 0.841567 q -0.311331,0.03405 -0.797786,0.228634 -0.481591,0.189718 -1.255055,0.59834 -0.622662,0.330789 -1.157763,0.564288 -0.530236,0.228634 -1.084794,0.350247 -0.549695,0.11675 -1.235596,0.11675 h -0.81238 z m 2.74353,-2.198776 H 40.41789 v -0.734548 h 4.057035 z m 0,1.872852 H 40.41789 v -0.729683 h 4.057035 z m -4.660312,3.828401 -0.287008,-0.773464 q 1.18695,-0.257821 1.673405,-0.904806 0.486455,-0.642121 0.486455,-1.522604 0,-0.413487 -0.09243,-0.86589 -0.08756,-0.457268 -0.248092,-0.92913 l 0.807515,-0.272414 q 0.350248,0.997232 0.350248,1.921497 0,0.81238 -0.287009,1.503146 -0.282144,0.695631 -0.880483,1.177222 -0.593475,0.486455 -1.522605,0.666443 z m -2.091764,-9.315615 h 0.822109 v 4.650511 q 0,0.685902 0.252957,0.924264 0.252956,0.238363 0.763734,0.238363 h 0.121614 v 0.885349 h -0.121614 q -0.929129,0 -1.386397,-0.49132 -0.452403,-0.496184 -0.452403,-1.561521 z m -4.820766,0.301603 0.656714,0.656714 -0.656714,0.656714 -0.656715,-0.656714 z m 0.831838,1.230731 0.656714,0.656714 -0.656714,0.656715 -0.656714,-0.656715 z m -1.663676,0 0.656714,0.656714 -0.656714,0.656715 -0.656715,-0.656715 z m 2.339848,5.166153 q -0.466996,0 -0.754005,-0.194582 -0.287008,-0.194582 -0.466997,-0.549695 -0.272415,0.394029 -0.608069,0.569153 -0.330789,0.175124 -0.719953,0.175124 -0.559423,0 -0.86589,-0.189718 -0.301602,-0.194582 -0.481591,-0.554559 -0.228634,0.359977 -0.583746,0.554559 -0.355112,0.189718 -1.011826,0.189718 H 28.470477 V 51.91565 h 0.457268 q 0.622662,0 0.909671,-0.228633 0.287008,-0.233499 0.287008,-0.846432 0,-0.126479 -0.01459,-0.296738 -0.0097,-0.175124 -0.03405,-0.486455 l 0.81238,-0.102155 0.07783,1.016691 q 0.02919,0.408622 0.248092,0.676172 0.223769,0.26755 0.656714,0.26755 0.515642,0 0.700495,-0.277279 0.184853,-0.277279 0.184853,-0.797786 0,-0.126479 -0.01459,-0.301602 -0.0097,-0.175124 -0.03405,-0.481591 l 0.81238,-0.102155 0.07783,1.016691 q 0.02432,0.394028 0.209176,0.671308 0.184853,0.272414 0.59834,0.272414 0.719953,0 0.719953,-1.075065 0,-0.175124 -0.01459,-0.364842 -0.0097,-0.189717 -0.03405,-0.501048 l 0.81238,-0.09729 0.07783,1.094524 q 0.05837,0.943722 0.963181,0.943722 h 0.145936 v 0.885349 H 36.93966 q -0.510778,0 -0.851297,-0.184853 -0.340518,-0.189718 -0.466996,-0.564288 -0.204312,0.359977 -0.471862,0.554559 -0.262686,0.194582 -0.739412,0.194582 z m -8.2746,-7.31142 0.70536,0.70536 -0.70536,0.70536 -0.70536,-0.70536 z m -0.369706,6.426071 q 0.549695,0 0.885349,-0.06324 0.340518,-0.06324 0.496184,-0.277279 0.16053,-0.218905 0.16053,-0.676173 -0.238363,0.07297 -0.486455,0.111885 -0.243228,0.03892 -0.525371,0.03892 -1.653948,0 -1.653948,-1.357209 0,-0.466997 0.184853,-0.933994 0.189718,-0.466997 0.554559,-0.778328 0.364841,-0.316196 0.885348,-0.316196 0.476726,0 0.817245,0.243228 0.345383,0.243227 0.564288,0.656714 0.223769,0.408622 0.330789,0.929129 0.10702,0.515643 0.10702,1.065337 0,0.724818 -0.131343,1.172357 -0.126478,0.442674 -0.408622,0.676172 -0.282144,0.228634 -0.734547,0.311331 -0.452403,0.0827 -1.104253,0.0827 H 23.917258 V 51.91565 Z m 0.59834,-1.702592 q 0.22377,0 0.442674,-0.03892 0.22377,-0.04378 0.447539,-0.10702 -0.03892,-0.345383 -0.145937,-0.700495 -0.102155,-0.355112 -0.306466,-0.593475 -0.204311,-0.243228 -0.54483,-0.243228 -0.301602,0 -0.486455,0.189718 -0.179988,0.189717 -0.262686,0.452403 -0.07783,0.262686 -0.07783,0.486455 0,0.335654 0.238363,0.447539 0.243228,0.10702 0.695631,0.10702 z m -2.145344,5.093184 q -1.050743,0 -1.683135,-0.384299 -0.627527,-0.3843 -0.909671,-1.02642 -0.277279,-0.637257 -0.277279,-1.400991 0,-0.330789 0.04865,-0.763734 0.05351,-0.432945 0.238363,-0.987504 l 0.773464,0.287008 q -0.141072,0.486455 -0.184853,0.861026 -0.03892,0.37457 -0.03892,0.632391 0,0.525372 0.184853,0.958317 0.184852,0.432945 0.627527,0.690766 0.447538,0.257821 1.221002,0.257821 0.729682,0 1.250189,-0.179988 0.525372,-0.179989 0.802651,-0.428081 0.282144,-0.248092 0.282144,-0.452403 0,-0.233498 -0.204311,-0.398893 -0.199447,-0.165395 -0.65185,-0.165395 h -0.719953 q -0.09729,0 -0.141072,-0.0827 -0.04378,-0.08756 -0.0827,-0.223769 L 24.622541,52.0324 q -0.0049,-0.03892 0.01946,-0.07297 0.02432,-0.03892 0.08756,-0.03892 h 2.699825 v 0.885348 H 27.22994 q 0.07297,0.145937 0.09243,0.27728 0.02432,0.131342 0.02432,0.272414 0,0.321061 -0.189718,0.661579 -0.184853,0.345383 -0.574017,0.637256 -0.384299,0.291874 -0.97291,0.471862 -0.58861,0.179988 -1.391261,0.179988 z m -5.365598,-2.393359 q -0.486455,0 -0.899942,-0.209175 -0.408622,-0.214041 -0.851297,-0.642121 -0.316195,0.355112 -0.608068,0.549694 -0.291873,0.189718 -0.822109,0.189718 H 15.457728 V 51.91565 h 0.189718 q 0.325925,0 0.549694,-0.184852 0.223769,-0.189718 0.398893,-0.486456 0.175124,-0.296737 0.345383,-0.627527 0.175124,-0.335654 0.389164,-0.632391 0.214041,-0.296738 0.515643,-0.481591 0.306466,-0.189717 0.754005,-0.189717 0.539965,0 0.938858,0.262686 0.403758,0.257821 0.622663,0.69563 0.223769,0.43781 0.223769,0.977775 0,0.792922 -0.403758,1.230731 -0.398893,0.432945 -1.128575,0.432945 z m -0.233499,-2.738742 q -0.243227,0 -0.442674,0.165395 -0.199446,0.16053 -0.359977,0.418351 -0.16053,0.257822 -0.287008,0.535101 0.291873,0.306467 0.603204,0.501049 0.398893,0.257821 0.710225,0.257821 0.719953,0 0.719953,-0.724818 0,-0.505913 -0.252957,-0.826974 -0.248092,-0.325925 -0.690766,-0.325925 z m -5.375333,-0.929129 q 0.75887,0 1.279377,0.681037 0.520507,0.676173 0.539965,1.989601 h 0.588611 v 0.885349 h -0.666444 q -0.10702,0.559423 -0.42808,1.07993 -0.316196,0.525371 -0.943723,0.924265 -0.627527,0.403757 -1.663676,0.603204 l -0.287009,-0.773464 q 2.203642,-0.423216 2.553889,-1.833935 h -0.768599 q -1.843664,0 -1.843664,-1.493417 0,-0.476726 0.189717,-0.953452 0.194582,-0.476726 0.559424,-0.792922 0.369705,-0.316196 0.890212,-0.316196 z m 0.155666,2.670638 h 0.861025 q -0.05837,-0.938858 -0.311331,-1.366938 -0.248092,-0.428081 -0.719953,-0.428081 -0.311332,0 -0.49132,0.199447 -0.175124,0.199446 -0.248092,0.471861 -0.0681,0.267551 -0.0681,0.486455 0,0.340519 0.228634,0.49132 0.233499,0.145936 0.749141,0.145936 z M 5.5291752,52.800999 H 5.315135 V 51.91565 h 0.1897175 q 0.3259249,0 0.5496942,-0.184852 0.2237693,-0.189718 0.3988931,-0.486456 0.1751239,-0.296737 0.3453831,-0.627527 0.1751239,-0.335654 0.3891641,-0.632391 0.2140402,-0.296738 0.5156424,-0.481591 0.3064666,-0.189717 0.7540053,-0.189717 0.7637345,0 1.1869504,0.466997 0.4232159,0.462132 0.5691519,1.152898 0.09729,0.476726 0.33079,0.729683 0.238363,0.252956 0.549694,0.252956 h 0.126478 v 0.885349 h -0.131342 q -0.311332,0 -0.608069,-0.126479 -0.296738,-0.131342 -0.4815907,-0.413486 -0.2043112,0.296737 -0.5059133,0.476726 -0.3016021,0.175123 -0.7831927,0.175123 -0.486455,0 -0.8999418,-0.209175 -0.4086223,-0.214041 -0.8512964,-0.642121 -0.3161958,0.355112 -0.6080688,0.549694 -0.2918731,0.189718 -0.8221091,0.189718 z m 2.9479177,-2.626858 q -0.2432275,0 -0.4426741,0.165395 -0.1994466,0.16053 -0.3599767,0.418351 -0.1605302,0.257822 -0.2870085,0.535101 0.1605301,0.165395 0.3210603,0.296738 0.1605302,0.131342 0.3113312,0.223769 0.3891641,0.238363 0.6810371,0.238363 0.7199535,0 0.7199535,-0.724818 0,-0.505913 -0.2529566,-0.826974 Q 8.919767,50.174141 8.4770929,50.174141 Z M 1.6132166,51.91565 q -0.2189047,-0.272414 -0.3745704,-0.666443 -0.150801,-0.398893 -0.150801,-0.797786 0,-0.520507 0.2724148,-0.943723 0.2724148,-0.423216 0.715089,-0.671308 0.4426741,-0.248092 0.9534519,-0.248092 0.7734635,0 1.6588118,0.603204 L 4.3616878,49.91632 q -0.7588699,-0.447539 -1.2793769,-0.447539 -0.4475386,0 -0.7929217,0.27728 -0.3453831,0.277279 -0.3453831,0.739412 0,0.359976 0.1605302,0.637256 0.1653947,0.277279 0.3502476,0.432945 0.1848529,0.150801 0.2480921,0.150801 0.087562,0 0.1702593,-0.02432 l 2.0577049,-0.49132 v 0.885349 Q 3.7195671,52.445886 2.6882823,52.625875 1.6618622,52.800999 0.65003562,52.800999 H 0.11979959 V 51.91565 Z"
         id="path16" />
    </g>
  </g>
</svg>
