<?xml version="1.0" encoding="UTF-8" standalone="no"?>
<!-- Generator: Adobe Illustrator 14.0.0, SVG Export Plug-In . SVG Version: 6.00 Build 43363)  -->

<svg
   version="1.1"
   id="Iran"
   sodipodi:docname="Iran_location_map.svg"
   inkscape:version="1.1.1 (3bf5ae0d25, 2021-09-20)"
   x="0px"
   y="0px"
   width="400.82812"
   height="359.99973"
   viewBox="0 0 400.82811 359.99973"
   enable-background="new 0 0 1200 1070.635"
   xml:space="preserve"
   xmlns:inkscape="http://www.inkscape.org/namespaces/inkscape"
   xmlns:sodipodi="http://sodipodi.sourceforge.net/DTD/sodipodi-0.dtd"
   xmlns:xlink="http://www.w3.org/1999/xlink"
   xmlns="http://www.w3.org/2000/svg"
   xmlns:svg="http://www.w3.org/2000/svg"
   xmlns:rdf="http://www.w3.org/1999/02/22-rdf-syntax-ns#"
   xmlns:cc="http://creativecommons.org/ns#"
   xmlns:dc="http://purl.org/dc/elements/1.1/"
   xmlns:ns="&amp;ns_sfw;"><defs
   id="defs1067">
	
	
	
	
	
	
	
	
	
	
	
<clipPath
   clipPathUnits="userSpaceOnUse"
   id="clipPath1596"><path
     id="path1598"
     d="m 126.53907,1.3e-4 -0.4967,0.14132 -2.23476,1.63209 -0.0707,0.28333 0.10599,0.81603 -0.0707,0.35468 -0.10668,0.31936 -0.70936,1.27672 -0.0707,0.31935 -0.0353,0.42534 0.0353,0.31935 0.0707,0.31934 -0.0353,0.28333 -0.17734,0.31936 h -0.0353 l -0.0707,0.53201 0.0707,0.46137 -0.0353,0.46067 -0.31935,0.46136 -0.42534,0.28332 -1.06404,0.42604 -0.46136,0.10598 -0.53202,-0.0353 -1.41873,-0.63801 -0.49669,-0.0714 -1.1347,0.28403 -0.49669,0.0353 -0.42534,-0.0353 h -0.35468 l -0.28402,0.10599 -0.42534,0.24869 -0.24869,0.28333 0.14201,0.31936 0.53202,0.56734 0.10668,0.24869 0.10599,0.53202 0.24869,0.46068 v 0.17733 l -0.036,0.17734 v 0.21336 l 0.0713,0.21267 0.248,0.49669 v 0.21267 l -0.14201,0.42534 0.036,0.21267 0.53202,0.39071 0.92203,0.46066 0.81535,0.4967 0.14201,0.60267 -0.39001,0.74539 -0.10668,0.39001 0.17734,0.95736 -0.17734,0.31935 -0.35468,0.248 -0.28333,0.46136 0.10599,0.17734 0.0713,0.14201 0.0707,0.39001 0.14201,0.17734 0.17734,0.14201 0.17734,0.14201 v 0.21267 0.21267 l 0.0707,0.17734 0.0713,0.21267 0.21267,0.53202 0.28402,0.35468 0.31866,0.31935 1.10007,0.4967 0.10599,0.70936 -0.56735,1.7734 -0.0707,0.49669 0.0353,0.28333 0.10599,0.31935 0.10668,0.42534 -0.10668,0.17734 -0.17734,0.17734 -0.0707,0.14201 0.28402,0.14201 0.35468,0.10668 0.17734,0.10599 0.14132,0.14201 0.14201,0.39001 v 0.53202 l -0.10599,0.95806 0.21267,1.24138 -0.0353,0.42534 -0.24869,0.99338 v 0.28333 l 0.0353,0.6387 v 0.21267 l -0.0707,0.39001 0.0707,0.21267 0.17734,0.14201 0.31935,0.10668 1.02871,0.17734 0.67404,-0.35468 0.28333,-0.0353 0.31935,0.10598 0.28402,0.21267 0.28333,0.35468 0.14201,0.39071 v 0.39001 l -0.46067,0.60268 -0.74538,0.56735 -0.60268,0.60337 0.10668,1.17003 -0.0714,0.49669 -0.14201,0.46136 -0.14131,0.35468 -0.14201,0.21267 -0.35469,0.14201 -0.17734,0.14201 -0.0353,0.21267 0.17734,0.46067 -0.10668,0.14201 -0.42534,0.17734 -0.24869,0.21267 -0.21267,0.31935 -0.17734,0.49669 -0.17734,0.39001 -0.4967,0.53202 -0.17734,0.31935 v 0.0353 l -0.17734,0.28402 -0.14201,0.31935 -0.0353,0.31866 0.10668,0.31935 v 0.31936 l -0.17734,0.28402 -0.21267,0.248 -0.0713,0.248 0.35468,0.53202 0.70936,0.14201 1.34806,-0.17734 0.248,0.0713 0.74469,0.35468 0.24869,0.14132 0.10599,0.21336 0.0713,0.28333 0.14201,0.31935 0.21267,0.28402 0.17734,0.0353 0.14201,-0.0353 0.14132,-0.036 0.14201,0.10668 v 0.14201 l -0.0707,0.39001 v 0.14201 l 0.14201,0.28333 0.28333,0.036 0.31936,-0.14201 0.28402,-0.14201 0.56735,-0.0353 0.56735,0.248 0.53202,0.42603 0.74469,0.85068 0.0713,0.24869 -0.21336,0.31935 -0.74469,0.53202 -0.14201,0.21267 -0.10599,0.74469 0.42534,0.42534 0.46136,0.35468 0.0707,0.42603 -0.17734,0.49669 -0.14201,0.60268 -0.0353,0.60268 0.10668,0.49669 0.0707,0.42604 -0.248,0.70936 0.10599,0.42534 0.28402,0.14201 0.78002,0.0707 0.31935,0.21267 0.28402,0.70936 0.21267,0.21336 0.7447,-0.10668 0.17734,0.21267 0.14201,0.35468 0.17734,0.31935 1.17072,0.70936 0.496,0.53202 -0.0707,0.78002 -0.248,0.31935 -0.28402,0.14201 -0.248,0.21267 -0.17734,0.42603 0.0707,0.496 0.21267,0.42603 0.14201,0.42534 -0.14201,0.46136 -0.28333,0.70936 v 0.248 l 0.17734,0.42604 0.10599,0.17734 0.14201,0.0353 0.17734,0.0707 0.14201,0.10668 0.0707,0.14201 0.10668,0.39001 0.10599,0.10599 0.17734,0.036 0.42603,-0.10668 0.17734,-0.0353 0.17734,0.10599 0.21267,0.24869 0.46136,0.21267 0.14132,0.21267 -0.0353,0.28402 -0.248,0.248 -0.10668,0.67403 0.14201,0.42534 0.17734,0.3907 0.10669,0.56735 -0.10669,0.56735 -0.28402,0.46136 -0.74469,0.85068 -0.248,0.60338 0.17734,0.42534 0.42534,0.24869 0.53202,0.14132 0.63871,-0.0353 0.31935,0.0353 0.248,0.21336 0.17734,0.21267 0.21267,0.14201 0.24869,0.0707 h 0.28333 l 0.35468,0.17734 0.28402,0.42534 0.49669,0.85137 0.248,0.53202 -0.0353,0.46136 -0.42603,0.8867 -0.21267,0.85137 v 0.496 l -0.0707,0.0713 -0.28402,0.0707 -0.0707,0.0713 -0.0353,0.39001 0.28332,0.39002 0.42604,0.31935 0.248,0.28333 0.0353,0.31935 0.10668,0.21267 0.17734,0.17734 0.17734,0.21336 0.10599,0.31866 0.036,0.24869 0.0707,0.21267 0.248,0.28402 0.56805,0.248 0.60268,-0.0707 1.1347,-0.42603 0.53202,0.0353 0.3907,0.42604 0.21267,0.63801 0.10599,0.56804 0.036,1.06404 0.14132,0.42534 0.3907,0.46136 -0.49669,0.31866 0.10599,0.28402 0.3907,0.28402 0.31866,0.28333 0.10668,0.46136 -0.0707,1.1347 0.10599,0.53202 0.6387,0.78072 0.28333,0.496 -0.10599,0.49669 -0.24869,0.39001 -0.248,0.49669 -0.14201,0.53202 0.14201,0.39001 0.39001,0.35468 0.42603,0.0713 0.46067,-0.14201 0.42603,-0.28402 0.39001,-0.10599 0.67404,-0.31935 h 0.53202 l 0.496,0.14201 0.78071,0.28333 0.78002,0.67403 0.24869,0.17734 0.56735,0.10668 0.60268,0.53202 0.99338,1.31204 0.53202,1.24139 0.248,0.31935 0.35468,0.10668 0.78072,-0.21336 0.24799,0.036 0.31936,0.21267 h 0.42534 l 0.42603,-0.21267 0.496,-0.39071 h 0.21336 l 0.21267,0.0714 h 0.21267 l 0.67403,-0.21267 1.31204,0.0707 0.42603,-0.14202 0.39001,-0.21267 0.35468,-0.14201 0.31935,0.0353 0.63801,0.21336 0.17734,0.0353 0.0713,0.0707 0.10599,0.49669 0.10668,0.17734 0.10599,0.14201 0.17734,0.14201 0.42604,0.17734 0.42534,-0.036 0.8867,-0.17734 0.39001,-0.14132 0.35468,-0.24869 0.3907,-0.17734 0.42534,0.0713 0.35468,0.21267 0.17734,0.35468 -0.0707,0.35468 -0.21336,0.42534 -0.35468,0.28402 -0.60268,0.39002 -0.31935,0.39001 -0.31935,0.28402 -0.42534,0.0707 -0.81604,-0.0707 -1.02802,0.53202 -0.42604,0.10599 -1.45405,-0.0353 -0.42534,0.14201 -0.28402,0.28402 -0.14201,0.39001 -0.0707,0.42534 v 0.39001 l 0.17734,0.95805 -0.0353,0.31935 -0.6387,-0.17734 h -0.10668 l -0.10599,0.0353 0.17734,0.49669 0.248,0.46067 0.0714,0.10668 0.0353,0.10599 -0.0353,0.10737 -0.0714,0.07 -0.17734,0.14201 -0.10599,0.1427 -0.036,0.21198 v 0.21267 l 0.28402,0.70936 1.31204,2.05812 1.1354,0.99269 0.49669,0.56735 0.17734,0.70936 -0.0713,0.10599 -0.10599,0.24869 -0.24869,0.28333 -0.17734,0.31935 0.0713,0.39001 0.28333,0.17734 h 0.78071 l 0.31866,0.24869 -0.0707,0.63801 -0.46136,0.74538 -0.28333,0.70936 0.46067,0.46067 -0.17734,0.32005 -0.21267,0.10598 -0.28333,0.0353 -0.53202,0.17734 -0.35468,-0.0713 h -0.21336 l -0.56736,0.31935 -0.28332,0.28402 -0.31936,0.0707 -0.6387,-0.248 -0.28333,0.036 -0.21336,-0.10737 -0.42534,-0.28333 -0.31935,-0.0713 -0.14201,0.036 -0.28333,0.46067 v 0.10668 l 0.0353,0.31935 -0.0353,0.10599 -0.10668,0.0713 -0.31935,0.0353 -0.14132,0.036 -0.21336,0.21198 -0.10599,0.28402 v 0.31935 l 0.0707,0.31866 v 0.036 l 0.17734,0.60337 -0.0353,0.46067 -0.17734,0.46067 -0.17734,0.60337 -0.28402,0.39001 -0.56735,-0.17734 -0.63801,-0.31865 -0.46136,0.0346 -0.14201,0.46136 0.0353,0.63801 -0.10599,0.56804 -0.56735,0.39001 -0.60338,0.0707 -0.24799,0.10668 -0.21267,0.28333 -0.0714,0.28471 0.0714,0.496 -0.0714,0.28333 -0.60268,0.6394 -0.14201,0.38931 0.31935,0.35468 0.17734,0.10669 0.17734,0.14201 0.14202,0.17734 0.0707,0.17734 0.0707,0.28333 0.10668,0.1427 0.10669,0.10599 0.0707,0.17734 0.0707,0.46067 v 0.46136 l 0.0714,0.42534 0.248,0.32004 0.0713,0.14132 -0.036,0.28333 -0.0353,0.24869 -0.10599,0.14201 -0.10668,0.0353 -0.46136,-0.14132 -1.41872,-0.10737 -0.63801,-0.17734 -0.70937,-0.35469 -0.81604,-0.21267 -0.10599,0.67473 0.17734,0.95667 -0.036,0.74538 -0.0707,0.17734 -0.14201,0.17734 -0.10599,0.17734 -0.17734,0.14132 -1.06404,0.21336 -0.21336,0.31866 0.6387,2.02209 0.248,0.53202 0.3907,0.28333 0.42534,-0.31866 h 0.46136 l 0.42534,0.2487 0.31935,0.496 0.10599,0.53202 -0.0353,0.63801 -0.28333,1.17141 -0.10668,0.21198 -0.28402,0.46136 -0.0353,0.21336 0.10668,0.28333 0.14201,0.21267 0.14132,0.21336 v 0.28333 l -0.21267,0.28333 -0.85137,0.67472 -0.31866,0.31866 -0.49669,0.42534 -0.24869,0.53202 -0.14132,0.63871 -0.31935,0.67403 -0.17734,0.17734 -0.21267,0.14132 -0.46136,0.21336 0.42534,0.56735 0.49669,0.28333 0.53202,0.036 0.60337,-0.10599 h 0.0707 l 0.0353,0.0346 0.0353,0.0353 1.84475,3.29949 0.28333,0.28333 0.31935,0.28333 0.28402,0.28402 0.14201,0.42534 0.10599,0.49739 0.14201,0.42465 0.17734,0.3907 0.28402,0.39001 0.31866,0.31935 0.99339,0.67334 0.0707,0.21336 0.0714,0.17734 v 0.85068 l 0.14201,0.17734 0.35468,-0.07 0.35468,-0.24869 0.60268,-0.56804 0.35468,-0.14132 1.02871,-0.036 0.42534,-0.10599 -0.0707,0.74538 0.35468,0.38932 0.46067,0.28402 0.14201,0.56804 -0.248,0.35468 -0.99338,0.60199 -0.31935,0.42603 0.35468,0.28333 0.60337,0.14201 0.63801,-0.0707 0.3907,-0.35468 0.10599,-0.0714 0.10668,-0.0353 0.10599,0.0353 0.10668,0.0714 0.0353,0.036 0.0713,0.0346 0.70936,0.85206 0.21267,0.42465 0.17734,0.46205 0.0707,0.496 v 0.42534 l 0.10668,0.35468 0.70936,0.67472 0.81535,1.13401 0.67403,0.53203 0.28402,0.28471 0.17735,0.42465 v 0.24869 l -0.10669,0.46067 -0.0353,0.21336 0.10668,0.21267 0.248,0.17734 v 0.21336 l -0.14201,0.31866 -0.28333,0.31935 -0.56804,0.56735 -0.42534,0.31935 -0.35468,0.0713 -0.31935,-0.036 -0.46067,0.0707 -0.42604,0.21267 -0.0353,0.28471 0.28402,0.24731 0.92203,0.10737 0.39001,0.17734 0.31935,0.24731 0.10599,0.35468 -0.14132,0.42603 -0.31935,0.31936 -0.31935,0.24869 -0.28402,0.31866 0.46136,0.99269 1.20605,0.14201 2.44744,-0.28333 2.19874,0.67334 2.09275,0.99408 0.56735,0.56665 2.0214,1.17073 0.95806,0.74537 1.34737,0.85069 0.85137,0.95736 6.27826,5.42688 0.67334,0.4967 0.60337,0.31866 0.67403,0.14201 0.70936,-0.0707 0.39001,-0.14201 0.95736,-0.53202 0.28402,0.0353 1.17004,0.39001 0.42603,0.24869 0.28333,0.31935 0.24869,0.35468 0.31935,0.46066 0.56735,0.42604 0.10599,0.17734 0.036,0.28333 -0.0714,0.14201 -0.10599,0.14201 -0.17734,0.46067 -0.10668,0.10666 v 0.10668 l 0.14201,0.31866 0.10599,0.14201 0.60337,0.60338 0.10599,0.14131 0.0713,0.14201 0.39001,0.4967 0.10668,0.14201 0.21267,0.10599 0.10599,0.28402 0.42603,0.31935 0.10599,0.31935 -0.0353,0.35468 -0.10599,0.21267 -0.14201,0.21267 -0.0713,0.28402 -0.0353,0.35468 v 0.17734 l 0.14201,0.10599 0.31935,0.10668 0.28333,0.17734 0.17734,0.248 0.17734,0.21267 0.31935,0.036 0.39001,0.14132 0.036,0.0713 0.31866,0.46067 0.46137,1.06404 0.31935,0.35468 0.74469,0.35468 0.17734,0.42604 v 0.0353 l 0.10668,0.42534 0.74469,1.31273 0.14201,0.21267 0.39002,0.24799 0.14201,0.14202 0.10598,0.21267 0.10669,0.42604 0.0707,0.21267 0.35468,0.35467 0.81605,0.63871 0.28332,0.42534 0.0714,0.53202 -0.14201,0.53202 -3.1568,8.68967 -0.14201,10.1084 h 6.84561 l 0.21267,0.14201 0.0714,0.31935 -0.0714,11.81044 0.0355,0.74469 2.19944,0.31935 0.21267,0.0714 0.21267,0.1413 0.35468,0.39072 0.28402,0.46067 0.17734,0.53202 0.17734,1.09937 0.0707,0.21336 0.17734,0.17734 0.2487,0.10599 0.21267,0.0353 h 0.24799 l 0.78072,-0.10599 h 0.24799 l 0.248,0.0707 0.21337,0.17734 0.42533,0.70936 0.67404,0.78071 0.78001,0.78002 0.14202,0.17734 0.10668,0.248 0.0355,0.28402 -0.0355,0.248 -0.17734,0.21336 -0.17734,0.17734 -0.17734,0.21267 -0.036,0.28333 0.036,0.17734 0.248,0.56804 0.42533,0.46067 0.10669,0.24869 0.0707,0.0353 0.39072,1.24138 0.0355,0.31935 0.17734,0.46067 0.10598,0.17734 0.14202,0.14201 0.28402,0.21267 0.28332,0.21267 0.81605,0.24869 -0.0355,-0.0353 h 0.0355 l 0.0355,-0.036 0.10669,-0.14132 v 0.17734 l 1.5247,0.14132 0.46137,-0.14132 0.17734,-0.14201 0.17734,-0.14201 0.17734,-0.21267 0.0355,-0.24869 -0.0355,-0.35468 -0.28403,-0.46067 -0.10598,-0.28402 0.0707,-0.42534 0.31936,0.0707 0.8867,0.4967 h 1.45405 l 0.39,0.17734 0.39072,-0.14201 1.38269,0.14201 0.42604,-0.10668 0.39001,-0.31866 0.28402,-0.42604 0.10598,-0.49669 v -0.24799 l -0.10598,-0.49669 -0.036,-0.248 0.0714,-0.28402 0.17734,-0.4967 0.0355,-0.31865 -0.10669,-1.10007 -0.1413,-0.53202 -0.17734,-0.46067 -0.31936,-0.35468 -0.42604,-0.35468 -0.35468,-0.35468 -0.17734,-0.53202 0.0714,-0.14201 0.14201,-0.17734 0.10598,-0.17734 -0.24799,-0.21267 0.10598,-0.31935 0.17734,-0.28402 0.0714,-0.10599 1.13469,-1.09937 0.24871,-0.0713 1.13469,0.17734 h 0.35468 l 0.39001,-0.42534 -0.14202,-0.46137 -0.53202,-0.31935 -0.638,-0.14132 -0.56734,-0.24869 0.1413,-0.49669 0.60338,-0.39001 0.74469,0.10668 0.35468,-0.17734 h 0.35468 l 0.35468,0.10599 0.42533,0.0713 h 0.10669 l 0.17734,-0.14201 h 0.14202 l 0.14201,0.0707 0.21267,0.31935 0.14201,0.10667 0.28332,-0.0713 0.21267,-0.17735 0.17734,-0.0353 0.17734,0.28403 -0.0707,0.10599 -0.0355,0.0713 -0.0355,0.31935 0.31864,-0.2487 0.31936,-0.35467 0.2487,-0.10599 0.17734,0.8867 0.17734,0.35467 0.31865,0.21268 0.42604,-0.0713 -0.0355,0.42604 -0.10669,0.248 -0.60267,0.78071 -0.39072,0.74469 -0.1413,0.31934 -0.2487,-0.3907 -0.28332,-0.24799 -0.35468,-0.14202 -0.46137,-0.0707 -0.28403,-0.10668 -0.85067,-0.46067 -0.42604,-0.10669 -0.39,0.0707 -0.67404,0.2487 h -0.46066 l -0.85137,-0.14201 -0.31936,0.10667 -0.24799,0.39002 0.67333,0.17733 0.53202,0.28333 0.39071,0.4967 0.14131,0.81604 0.28403,0.24799 1.34806,0.81605 0.49599,0.17733 0.35468,0.0353 0.21338,0.24801 0.17734,0.31935 0.39,0.24868 0.35468,-0.0713 0.28332,-0.28333 0.2487,-0.3907 0.10598,-0.42534 0.2487,0.17735 v 0.14201 l -0.0714,0.14201 -0.0355,0.21267 v 0.35467 0.14202 l 0.0714,0.14132 0.31864,0.21336 0.036,0.0707 -0.036,0.99338 0.21338,0.21267 0.53202,0.0353 0.42533,-0.0707 0.78001,-0.35468 0.42605,-0.0713 0.17734,0.0713 0.31935,0.21267 0.21267,0.0707 0.24799,-0.0353 0.46137,-0.10668 0.21267,-0.0353 0.46136,0.0353 0.17734,0.036 0.21267,0.10599 0.21267,0.14201 0.10668,0.10669 0.0355,0.10598 0.14202,0.21267 0.17734,0.42604 v 1.1347 l 0.0707,0.39001 0.56735,0.8867 0.67403,0.14201 0.74469,-0.31935 6.52626,-4.2915 0.74469,-0.248 0.78072,-0.14201 0.74469,0.10668 0.53202,0.21267 0.17734,0.0707 0.31935,0.21267 0.10598,0.24869 0.10669,0.42534 0.28332,0.4967 0.31935,0.42534 0.31936,0.24869 -0.14202,0.63801 0.4967,1.38339 -0.24799,0.85137 0.28331,0.14201 0.14202,0.17734 -0.10669,0.14201 -0.31864,0.0353 0.0707,0.248 0.0355,0.46136 0.0714,0.28333 0.0707,0.10668 0.78001,0.85137 0.8867,0.53202 0.39072,0.35469 0.49599,0.74469 0.92273,1.7734 0.56735,0.85137 0.56735,0.63801 0.28402,0.46136 0.14131,0.49669 0.17734,0.248 1.24138,0.49669 0.67404,0.70936 0.31935,0.46137 0.14201,0.42534 0.17734,0.31935 1.09937,0.92203 0.60268,0.92203 0.10668,0.28402 v -0.74469 l 0.31936,0.17734 0.42533,0.56735 0.2487,0.49669 0.17734,0.67334 0.10598,0.95805 v 0.95736 l -0.14201,0.60337 0.2487,0.46067 0.14201,0.14201 0.17734,0.0707 -0.036,0.17734 -0.10598,0.99339 -0.28403,-0.35468 -0.21267,0.17734 -0.14201,0.42534 -0.14201,0.31935 -0.17734,0.31935 -0.0707,0.28402 0.0707,0.60268 0.17734,0.67403 0.46137,0.42534 0.56734,0.0714 0.53202,-0.35468 0.39001,-0.0713 1.6321,-0.0707 0.49598,0.0707 0.0714,0.14201 0.0355,0.17734 0.0355,0.42534 0.0714,0.10668 0.17734,-0.0353 0.17734,-0.10669 0.14131,-0.0353 0.2487,0.21267 0.14201,0.24869 0.17734,0.70936 0.39001,-0.10668 0.17734,0.35468 0.0707,0.56735 -0.0707,0.53202 -0.14201,0.28402 -0.42537,0.39001 -0.14198,0.17734 -0.0355,0.248 0.0707,0.21336 0.0355,0.17734 -0.21266,0.21267 -0.21267,-0.42603 -0.31936,-0.42534 -0.42533,-0.35468 -0.39071,-0.17735 -0.42534,0.28403 -0.0707,0.60268 0.10598,0.67403 0.17734,0.46067 0.95806,1.2774 0.17734,0.496 0.17734,0.24869 0.39001,0.10599 0.85137,0.0713 0.88671,0.21267 0.67332,0.42534 0.53202,0.6387 0.46137,0.8867 0.24799,1.06405 0.036,3.12146 0.17734,0.78002 1.24138,3.26278 0.17734,0.2487 0.67333,0.74469 0.74539,1.20605 0.248,0.31935 0.70936,0.67334 0.42533,0.70936 0.036,0.67403 -0.46136,1.31273 0.0355,0.63801 0.0714,0.35468 0.17734,0.2487 1.45404,1.45405 0.42534,0.31935 0.95806,0.28333 0.53202,0.24869 0.21267,0.39001 0.0707,0.60268 0.21267,0.46136 0.2487,0.35468 0.95735,1.02871 0.42604,0.35468 0.56735,0.17734 0.10598,0.14132 0.0714,0.17734 0.0355,0.21336 0.10669,0.17735 0.24799,0.0707 2.2701,0.17734 0.42533,-0.0353 1.20606,-0.28403 h 1.02871 l 0.4967,0.14201 0.39,0.28403 0.35468,0.10598 1.41872,-0.21267 0.99268,0.14202 0.85138,0.39001 0.78072,0.53202 2.44673,2.37608 0.78072,0.42603 3.68882,0.85137 0.78002,0.35468 0.67403,0.56735 1.56074,1.66672 0.1413,0.2487 0.31936,0.81535 0.17734,0.28402 0.31935,0.28333 0.85137,0.31935 0.31936,0.31935 0.17734,0.56735 -0.2487,0.24869 -0.46066,0.0353 h -0.39072 l -0.42533,0.0353 -0.35468,0.14201 -0.17734,0.31935 0.0355,0.496 0.42604,0.49669 1.59606,0.74468 1.09937,0.4967 0.74469,0.53202 1.66671,1.59606 0.95806,0.28403 0.42534,0.28332 0.17734,0.53202 0.21266,0.2487 1.20606,0.31935 0.28403,0.31865 0.21266,0.42604 0.28403,0.31935 0.42533,0.10598 0.46137,0.0714 7.05758,2.51809 0.67403,0.42534 0.35468,0.46137 0.17734,0.49669 0.0355,1.17002 0.10669,0.46137 0.31935,0.39 2.0214,1.59607 1.56073,0.99339 1.06405,0.99268 0.24799,0.10668 0.49669,-0.28402 0.4967,0.0355 0.92132,0.31936 0.46207,-0.0355 0.85138,-0.24799 0.95735,-0.14202 1.34807,-0.67403 0.45995,-0.0707 h 0.21405 l 0.17734,0.0707 0.39004,0.35468 0.21267,0.0707 0.35468,0.0714 1.41872,0.42534 0.46134,0.0714 1.55935,-0.14202 0.42675,-0.10667 0.39001,-0.0707 0.46133,0.0707 0.60271,0.53201 0.39,0.74468 0.31936,0.81606 0.35469,0.60268 0.7793,0.39071 1.8808,-0.0714 0.92203,0.17734 0.60335,0.63871 0.24803,0.70936 0.35468,0.53202 0.92202,0.14201 1.77341,-0.14201 0.24866,0.0355 0.35468,0.21267 0.24803,0.0714 0.24728,-0.0714 0.14273,-0.14202 0.14201,-0.1413 0.14202,-0.14202 2.23335,-1.38339 1.98745,-1.73809 0.24803,-0.14201 1.34803,-1.2767 0.31797,-0.14202 0.92341,-0.28331 0.39005,-0.0714 0.49666,-0.10598 0.2127,-0.35468 0.10527,-0.42604 0.24941,-0.46066 0.78001,-0.39 0.95803,0.1413 1.66675,0.60338 0.95664,0.0355 0.85209,-0.17734 0.78069,-0.42533 0.67265,-0.63871 0.32006,-0.49669 0.21196,-0.67404 0.14272,-0.74469 -0.0707,-0.60267 -0.17734,0.17734 -0.10669,0.0707 -0.32006,0.10669 1.13611,-1.31274 0.21267,-0.21267 0.28399,-0.14201 0.67265,-0.67333 0.42675,-0.17734 h 0.17734 l 0.674,0.14131 h 0.78005 l 0.17734,-0.0355 0.31935,-0.24799 0.21267,-0.0355 0.70936,0.0355 0.21267,-0.0355 0.85137,-0.21338 0.92203,-0.1413 0.24867,-0.0714 0.35468,-0.35468 0.10601,-0.0707 v -0.10669 l 0.53202,-0.42533 1.3834,-0.8867 0.35468,-0.31935 0.17734,-0.14202 0.17734,-0.0355 0.10665,-0.0707 0.0355,-0.2487 0.0707,-0.14201 0.35468,-0.35469 0.14201,-0.10597 0.56735,-0.14202 1.34807,-0.0355 0.45998,-0.2487 0.46205,-0.35468 0.67403,-0.17734 1.27671,-0.0707 0.63871,0.10669 1.09937,0.46066 0.60267,0.14201 1.27603,0.0707 0.63939,0.10669 0.49669,0.31935 0.14201,-0.17734 0.46066,0.14202 2.16274,0.0355 0.21405,0.10597 0.14063,0.21338 0.21405,0.24799 0.28332,0.10669 h 0.56667 l 0.2847,-0.10669 0.24732,-0.24799 0.10736,0.56735 0.35468,0.49669 0.4967,0.35468 0.60267,0.10598 v 0.17734 l -0.17734,0.14202 -0.35468,0.42533 -0.10598,0.0714 -0.21405,0.10598 v 0.17734 l 0.14269,0.10669 0.2487,-0.0355 v 0.24799 l 0.0707,0.17734 0.10669,0.10669 0.42533,-0.21267 0.14202,0.10598 0.1053,0.14202 0.10737,0.10668 0.10668,0.0355 0.0707,0.10598 0.10668,0.14201 0.21267,0.0355 0.21267,-0.0355 0.63871,-0.28331 -0.14202,0.17734 -0.072,0.24799 0.0367,0.21266 0.17735,0.17735 -0.24871,0.10668 -0.21266,0.14202 -0.248,0.10598 -0.28402,-0.0355 0.21266,0.24799 0.63871,0.46137 -0.0355,0.39001 0.248,0.39 0.70936,0.63871 0.28402,0.46137 1.34737,5.67489 0.0714,1.13469 -0.35468,3.05011 v 0.2487 l 0.0707,0.53202 0.07,0.21267 0.10736,0.21267 0.39001,0.39 0.2487,0.46137 0.14063,0.53202 0.10736,1.09937 0.14201,0.17734 -0.10668,0.63871 1.38339,1.59606 0.28403,0.78001 -0.21405,0.4967 -0.67265,0.74469 -0.10669,0.53202 0.0355,0.28403 0.21199,0.46065 0.072,0.42605 0.28264,0.8867 0.072,0.28332 0.0355,0.10668 h 0.0699 l 0.24941,-0.0355 0.10527,0.0355 0.46208,0.56735 0.0355,0.10669 0.21195,0.21267 0.17734,0.46065 0.24941,0.99339 0.49666,1.24139 0.14063,1.20605 0.14273,0.35467 0.28403,0.17735 2.80208,0.21267 -0.17734,0.14201 1.41872,0.46066 0.53202,0.0714 0.2127,-0.0355 0.39001,-0.10669 0.24728,-0.0355 0.24941,0.0355 0.42534,0.24803 0.24866,0.036 1.17006,-0.28403 0.46137,-0.0355 0.53202,0.0355 0.42533,0.10669 0.31935,0.28331 0.21267,0.56735 0.0348,0.21338 -0.0348,0.0707 -0.0355,0.14201 -0.0707,0.28332 -0.10669,1.06404 h 0.31936 l 0.45998,-0.28332 0.70936,-0.63871 0.85205,-0.46066 0.85138,-0.21337 0.77934,0.17733 0.63938,0.85139 0.63871,1.38338 0.46066,0.67405 0.56667,0.28332 0.67471,0.10667 0.63871,0.21268 0.70936,0.14201 0.74469,-0.10668 0.74468,-0.56735 0.10669,-0.0355 0.0707,0.14202 0.17734,0.0355 0.212,-0.0707 0.17734,-0.10669 0.24937,-0.24799 h 0.10531 l 0.072,0.0707 0.14202,0.0707 0.31797,-0.0707 0.46204,-0.42533 0.28403,-0.17734 0.67265,-0.14201 0.60406,-0.0355 -0.14202,0.38999 0.39001,0.21268 1.09869,0.0707 1.31342,-0.21267 3.75947,0.74468 h 1.7734 l 0.24732,0.0714 0.10736,0.17734 0.07,0.248 0.14269,0.2487 0.17734,0.10597 0.70936,-0.0355 0.81605,0.39002 0.53202,0.67402 0.95735,1.63139 0.24871,0.24871 0.35468,0.14131 0.42533,0.10668 0.46137,0.0355 0.21266,-0.0707 0.17734,-0.0714 0.17735,-0.0707 0.14201,0.10669 0.17734,0.17734 0.17734,0.0355 0.42533,-0.10668 1.17073,-0.60268 1.17002,-0.21266 0.60338,-0.0714 2.94343,-1.09965 0.95806,-0.0355 0.8867,0.31936 1.24138,1.31203 0.84999,0.39001 h 0.81673 l 3.68882,-0.39001 0.35468,0.17734 0.14201,0.42534 0.0707,0.14201 0.81605,0.78072 0.14063,-0.036 0.10737,-0.17734 0.14201,-0.10598 1.70137,-0.4967 0.8867,-0.0355 0.81672,0.21266 h 0.10669 l 0.21266,-0.0355 0.10531,0.0355 v 0.10669 l -0.0348,0.28332 0.0348,0.10669 0.21405,0.31935 0.17734,0.10598 0.70936,0.10669 0.21267,0.10598 0.42533,0.28402 0.14201,-0.14201 0.10669,-0.46066 0.0355,-0.17734 -0.0721,-0.10669 v -0.14202 l 0.21408,-0.21266 0.10598,-0.0707 0.56664,-0.10669 0.74611,-0.0355 0.39,0.0355 0.28261,0.17733 -0.0699,0.0707 -0.21267,0.39072 0.45995,0.35468 1.06404,0.17733 0.42675,0.248 1.20606,1.17073 0.24799,0.0707 h 0.31936 l -0.10669,-0.35468 -0.46066,-0.81605 v -0.0355 -0.10598 -0.1067 l -0.0714,-0.1769 -0.10598,-0.0355 h -0.17734 l -0.21405,-0.14201 h -0.14063 l -0.10669,-0.0707 -0.0707,-0.49669 -0.0714,-0.14187 v -0.17733 l 0.17734,-0.28403 0.31935,-0.39002 0.17734,-0.35467 0.35468,-0.21267 1.45405,-0.46136 0.35468,-0.0355 0.35468,0.0355 0.31936,0.21337 0.77934,0.81533 0.072,0.21268 v 1.34807 l 0.0707,0.35467 0.4967,0.78001 -0.31936,0.28403 0.31936,0.21267 1.98607,0.2487 2.87209,0.74469 3.40618,0.60267 3.47544,1.09937 0.0714,0.10668 0.14063,0.56735 0.072,0.14201 0.78001,0.31936 4.11348,1.02871 -0.24732,-0.28402 -0.31935,-0.21267 1.1354,-0.35468 0.28332,-0.17734 0.17734,-0.17734 0.0348,-0.0714 v -0.14131 l 0.072,-0.2487 0.35468,-0.46066 0.10531,-0.24869 -0.17734,-0.21268 -0.21199,-0.10667 -0.49737,-0.17735 0.46204,-0.35469 h 0.35468 l 0.31935,0.14202 0.45999,0.0714 -0.14063,-0.14202 -0.17734,-0.24871 -0.14202,-0.10597 0.0707,-0.14202 0.0348,-0.42532 0.072,-0.1067 0.17734,-0.14201 0.10531,0.0714 0.072,0.1413 0.35468,0.28403 0.0707,0.39001 0.10669,0.35468 0.67404,-2.0214 0.46066,-8.05167 0.0714,-0.35468 0.14063,-0.21267 0.2847,-0.31935 0.14202,-0.21267 0.0704,-0.85137 -0.24799,-0.95736 -0.10669,-0.8867 0.42605,-0.67403 0.46066,-0.10597 h 0.38933 l 0.35468,-0.0714 0.32003,-0.42534 0.14201,-0.42604 1.02872,-8.08629 0.17734,-0.74468 0.28264,-0.67404 0.49737,-0.39001 2.51742,-0.78071 0.74607,-0.4967 0.39,-0.21267 0.42534,-0.14201 0.85137,-0.14131 0.17734,-0.2487 0.10669,-0.60267 0.31797,-0.60339 0.81672,0.10669 0.92203,0.35468 0.74401,0.10669 0.46205,-0.24869 v -0.35468 l -0.21267,-0.46067 -0.10669,-0.56805 0.14202,-0.28332 0.6387,-0.67404 0.21267,-0.42533 v -0.17734 l -0.072,-0.10669 -0.07,-0.17734 0.0355,-0.21267 0.14202,-0.17734 0.17734,-0.14201 0.39001,-0.17734 0.17734,-0.0707 0.2487,-0.21337 0.17734,-0.10598 h 0.21266 0.42534 l 0.21199,-0.0355 0.14269,-0.10669 0.14201,-0.35468 0.17734,-0.10665 0.21253,-0.0707 3.44082,-0.39 0.46066,-0.14202 0.14202,-0.14201 0.17734,-0.21267 0.17734,-0.10669 0.21266,0.036 0.24871,0.1413 h 0.17734 l 0.63799,-0.1413 0.17735,-0.0714 0.14201,-0.10598 0.14201,-0.10669 0.21267,-0.42533 0.17734,-0.21338 0.21267,-0.0707 4.9302,0.14201 0.81605,0.14202 h 0.81534 l 0.60338,-0.14202 0.17734,0.0355 0.17734,0.0707 0.17734,0.10667 0.14063,0.1067 h 0.21405 l 0.46066,-0.46137 0.21199,-0.9934 0.17734,-3.54679 0.14269,-0.39001 0.35468,-0.21267 0.85137,-0.14202 0.31936,-0.28332 0.0355,-0.46137 -0.17734,-0.38999 -0.248,-0.39002 -0.17734,-0.46137 -0.10668,-2.76679 0.0355,-0.28332 0.0714,-0.2487 0.24799,-0.31863 0.07,-0.24872 0.21405,-0.39 0.42533,-0.21267 h 0.42466 l 0.39139,0.14202 -0.70936,-1.6321 -0.31936,-0.46066 -0.21266,-0.2487 -0.17734,-0.1413 -0.53202,-0.17735 -0.21405,-0.17734 -0.56668,-0.49668 -0.24799,-0.1067 h -0.21267 l -1.1354,0.35468 -0.24799,0.0355 -0.35468,-0.0355 h -0.56735 l -1.06404,0.35468 -0.56873,0.10669 -1.20467,0.24799 -0.56873,0.0355 -0.63733,-0.14131 -0.49669,-0.28402 -0.17734,-0.0707 -0.14202,0.0355 -0.28332,0.17734 h -0.14201 l -0.31936,-0.17734 -0.8867,-0.85138 h 0.31936 l 0.21266,-0.17734 0.10669,-0.28402 0.10598,-0.35468 0.0348,-0.39001 -0.10531,-0.248 -0.39,-0.53201 1.06404,-2.58945 0.14063,-1.02871 -0.70936,-8.19298 -0.92135,-4.0435 0.6387,-5.28418 -0.10668,-0.8867 -0.46066,-0.28403 -3.40618,0.70937 -0.42466,-0.248 -1.31203,-1.49008 -0.28403,-0.53202 -0.14201,-0.42534 -0.14269,-0.24869 -0.21199,-0.14132 -0.35468,-0.10668 -0.35468,-0.21267 -0.21267,-0.28402 -0.17734,-0.35468 -0.21267,-0.28333 -0.60405,-0.31935 -2.73008,-0.56735 -1.73847,-0.81604 -0.638,-0.14201 -1.3834,-0.10599 -0.63871,-0.21336 -0.99267,-0.60268 -1.24139,-0.35468 -0.39139,-0.21267 -0.63732,-0.78071 -1.31342,-1.27671 -0.8867,-1.17003 -2.12808,-2.0221 -0.602,-0.74469 -0.60268,-1.34806 -0.60338,-0.70936 -0.10598,-0.35468 -0.0367,-0.42534 -0.14063,-0.46136 -0.85137,-2.09206 -0.17734,-0.2487 -0.24938,-0.21267 -0.28264,-0.10668 -0.14202,-0.14131 -0.0355,-0.14202 0.0355,-0.14201 0.14202,-0.17734 0.21266,-0.17734 0.07,-0.248 -0.07,-0.21336 -0.21266,-0.14132 -0.35468,-0.17734 -0.14202,-0.35468 -0.10736,-0.42603 -0.21199,-0.35468 -0.24799,-0.10599 -0.17734,-0.036 -0.17735,-0.0707 -0.21266,-0.248 -0.10669,-0.28402 -0.0707,-0.60268 -0.0714,-0.28402 -0.248,-0.42534 -0.67403,-0.74538 -0.21267,-0.496 v -0.46136 l 0.248,-0.88671 0.0347,-0.46136 -0.17734,-0.63801 -0.35468,-0.24869 -0.42466,-0.17734 -0.42533,-0.35468 -6.24372,-7.69629 -2.76541,-3.36946 2.76541,-3.33414 10.03841,-12.23648 6.70361,-8.26364 0.35468,-0.3907 -0.0355,-0.14132 h -0.0367 l 0.0367,-0.46136 0.0355,-0.17734 0.14201,-0.0707 -0.0714,-1.66741 -0.10598,-0.28333 0.39001,-0.78071 0.14201,-0.53202 v -0.46067 l -0.0714,-0.49669 -0.28332,-0.81605 -0.35468,-0.78002 -0.0367,-0.24869 -0.0348,-0.70936 -0.17734,-0.56735 -0.56735,-0.92203 -0.21266,-0.49669 v -0.49669 l 0.14201,-1.02802 -0.14201,-0.46136 -0.74469,-0.95737 -0.39139,-0.31935 -0.53202,-0.21267 -11.13573,-1.66742 -5.60423,-0.81534 -0.70936,-0.28402 -0.248,-2.30543 -0.28402,-1.17073 -0.0707,-0.56734 0.28332,-1.84407 -0.28332,-2.23475 -0.0714,-1.20605 0.17734,-1.52472 -0.0355,-0.53202 -0.10736,-0.24869 -0.1053,-0.24801 -0.0355,-0.24799 0.17734,-0.53202 -0.10669,-0.14201 -0.17734,-0.10668 -0.0707,-0.14201 0.14063,-0.39001 0.56873,-0.67404 0.10598,-0.42534 0.28403,-1.95074 0.0355,-1.98607 -1.59607,-6.02957 -3.65416,-12.23648 -0.28265,-1.56004 -0.0355,-1.95075 0.10598,-0.32004 3.93614,-5.28488 0.60406,-0.53202 0.70936,-0.42464 0.21266,-0.28472 0.10669,-0.46067 -0.0367,-0.42603 -0.07,-0.42465 0.0355,-0.35468 0.38933,-0.21336 0.99407,-0.0713 0.28403,-0.10599 0.17734,-0.31866 -0.17734,-0.35468 -0.35468,-0.32004 -0.31936,-0.17734 -0.67403,-0.17734 -0.81673,-0.0707 -1.52402,0.10599 -1.63139,-0.14132 -1.66743,-0.67403 -1.31203,-1.24138 -0.53202,-1.77341 0.17734,-0.81604 0.63733,-1.41872 0.0367,-0.95736 -0.56873,-3.75948 -0.24731,-2.09275 -0.0355,-0.35468 0.14201,-1.09937 0.56735,-1.13539 0.67403,-0.85138 0.70936,-0.74469 0.99268,-0.49669 0.31936,-0.35468 -0.14202,-0.53202 5.14287,-0.28333 -0.24799,-0.46136 -1.56074,-1.95074 -0.31935,-0.63801 -0.17734,-0.28333 -0.28332,-0.21336 -0.49669,-0.24869 -0.17735,-0.17734 -0.17734,-0.56735 -0.14201,-0.17735 -0.17734,-0.10598 h -0.21267 l 0.28265,-0.53202 0.53202,-0.2487 1.13608,-0.14201 0.53202,-0.14132 0.39,-0.28333 0.95668,-1.06404 0.10737,-0.17734 0.10668,-0.17734 0.28332,-0.1427 0.28403,-0.0346 h 0.28265 l 0.24937,-0.036 0.21267,-0.28402 0.07,-0.60268 -0.07,-0.63871 0.0355,-0.56665 0.38933,-0.42604 0.63938,-0.49669 0.42466,-0.70936 0.10736,-0.42603 0.63871,-0.21267 0.17734,-0.78002 0.0707,-0.8867 v -0.21267 l -0.10736,-0.46067 v -0.24869 l 0.0367,-0.28333 0.31797,-0.46205 0.072,-0.24731 0.0355,-0.46206 0.31935,-0.92203 0.1053,-1.02871 0.17734,-0.35468 0.49737,-0.67334 -0.21266,-0.21336 -0.0355,-0.21267 0.0355,-0.21198 0.0355,-0.28471 -0.0355,-0.10599 -0.74469,-0.95805 -0.10669,-0.24731 0.14202,-0.10737 0.17734,-0.10599 0.0355,-0.24869 -0.10597,-0.21267 -0.10669,-0.10599 -0.0355,-0.24869 0.0355,-0.53202 0.10669,-0.4967 0.28331,-0.2473 h 0.46137 l 0.4967,-0.10738 0.39,-0.21267 0.17734,-0.42534 -0.10668,-1.27671 0.10668,-0.49669 0.10531,-0.28402 0.42671,-0.56666 0.14202,-0.24869 0.17734,-0.74538 0.21267,-0.496 0.49669,-0.56804 0.28332,-0.46067 0.10669,-0.496 -0.0355,-0.49739 -0.21405,-0.99269 -0.17734,-0.24869 -0.49531,-0.744 -0.28403,-0.56804 -0.0355,-0.6387 0.0707,-0.14201 0.28403,-0.28333 0.0707,-0.17734 -0.0355,-0.42603 0.0355,-0.14132 0.14202,-0.56804 v -0.24799 l -0.14205,-0.17734 0.14201,-0.53202 -0.0355,-0.42534 -0.072,-0.35468 -0.10531,-0.8867 -0.10668,-0.42603 -0.17734,-0.39001 -0.248,-0.35468 -0.31935,-0.39001 -0.35468,-0.31935 -0.42533,-0.21267 -0.4967,-0.0714 -0.28403,-0.14131 0.212,-0.28403 0.42671,-0.31935 0.24799,-0.28333 0.0348,-0.21336 -0.07,-0.496 0.0355,-0.28402 0.14202,-0.14201 0.21266,-0.0707 0.17734,-0.10668 0.0714,-0.28333 v -0.21336 l 0.0355,-0.248 0.0707,-0.21267 0.10668,-0.17734 0.21267,-0.24869 0.0355,-0.17734 -0.0355,-0.10599 -0.0355,-0.74469 -0.31946,-1.5254 -0.31935,-0.46137 -0.0707,-0.24798 v -0.56736 l -0.0355,-0.2487 -0.0714,-0.28333 -0.10597,-0.14201 -0.10669,-0.14201 -0.17734,-0.10599 -0.17734,-0.10668 0.0355,-0.17733 0.0348,-0.0353 0.072,-0.10668 -0.31935,-0.70937 0.14201,-1.20605 0.42533,-1.95074 -0.10598,-0.39001 -0.0367,-0.28333 0.10737,-0.24869 0.10668,-0.21267 0.10598,-0.21267 0.10669,-0.28402 v -0.31935 -0.28333 l -0.10669,-0.24869 -0.17734,-0.35468 -0.14269,-0.85068 -0.84999,-0.10668 -1.02871,-0.17734 -15.21594,0.28402 -0.70936,-0.39071 -0.42533,-0.70936 -0.60349,-1.48938 -0.42533,-0.67403 -2.20012,-2.5181 -0.95668,-1.41872 -0.78001,-1.56073 -0.63871,-0.78002 -0.74469,-0.31935 -1.73808,-0.28402 -0.74468,-0.42534 -1.34807,-1.06404 -3.01479,-0.92204 -0.21266,-0.0353 -0.17734,0.10599 -0.248,0.35468 -0.14201,0.14201 -0.21267,0.0353 -0.28403,-0.17734 -0.14201,-0.42534 -0.10598,-0.46136 -0.14201,-0.39001 -0.35468,-0.35468 -0.28403,-0.0353 -0.67471,0.248 h -0.17734 l -0.17734,-0.10599 -0.14063,-0.10668 -0.14202,-0.14201 -0.35468,-0.0707 -0.0355,-0.17734 0.0355,-0.21267 0.0355,-0.17734 0.0355,-0.0714 0.0713,-0.0707 0.0355,-0.10669 -0.14197,-0.17734 -0.39005,-0.39001 -1.2767,-1.02871 -0.24867,-0.35468 -0.42537,-1.66672 -0.0355,-0.53202 0.0707,-0.24869 0.10669,-0.24801 0.10598,-0.21267 -0.0707,-0.21267 -0.10668,-0.28402 0.0348,-0.53202 -0.07,-0.31935 -0.42534,-0.53202 -0.39139,-0.35468 -0.49531,-0.14201 -1.17073,0.53202 -0.42533,-0.0707 -2.76679,-1.84406 -0.67404,-0.67403 -0.24799,-0.10668 -0.60405,-0.10599 -0.28265,-0.0714 -0.28403,-0.21267 -0.81534,-0.35468 -1.59606,-0.31935 -1.27809,-0.67404 -0.10531,0.17734 -0.0355,0.35469 -0.28403,0.31935 -0.21267,0.0714 -0.21266,0.0353 -0.46137,-0.0713 h -0.21267 l -0.14201,0.10669 -0.14202,0.14201 -0.17734,0.10599 -0.46066,0.036 -0.49669,-0.0714 -0.8867,-0.31935 -1.02872,-0.88671 -0.35468,-0.17734 -0.39,0.036 -0.31936,0.21267 -0.24799,0.35468 -0.21405,0.42534 -0.28265,0.39001 -0.35468,0.17734 -1.88009,0.17734 -0.28332,-0.0707 -0.53202,-0.39001 -0.28403,-0.10668 -1.59606,-0.21267 -0.35468,-0.14201 -0.35468,-0.28333 -0.10736,-0.28402 v -0.31936 l -0.07,-0.46066 -0.0707,-0.17735 -0.31936,-0.56804 -0.0355,-0.17734 0.0707,-0.17734 V 48.9089 l -0.17734,-0.17734 -0.35468,-0.14132 -0.31936,-0.0713 -0.70936,-0.0707 -1.34736,-0.28402 -3.26348,-1.48938 -0.74469,-0.17734 -0.31935,0.0353 -0.35469,0.0707 -0.35468,0.036 -0.28331,-0.14201 -0.14202,-0.14201 -0.17734,-0.35469 -0.14201,-0.14201 -0.17734,-0.0353 -0.35468,0.0707 h -0.0355 l -0.14202,-0.0353 -0.24799,-0.14201 -0.2487,-0.21267 -0.28332,-0.17734 h -0.31935 l -0.31936,0.0713 -0.99406,0.0353 -1.06404,-0.28402 -0.35468,-0.0353 -0.35468,0.0353 -0.31797,0.10668 -0.31936,0.0353 -3.01478,-1.09937 -0.4967,-0.67403 0.39001,-1.27671 0.0714,-0.42602 -0.10669,-0.42534 -0.46204,-0.56736 -0.24732,-0.74469 -0.67403,-0.67403 -0.248,-0.35468 -0.35468,-0.85138 -0.49669,-0.74469 -0.0707,-0.21267 v -0.17733 l -0.0714,-0.17734 -0.21267,-0.14201 -0.46204,-0.14201 h -0.212 -0.24799 l -0.35468,0.17733 -0.24938,0.24801 -0.42465,0.67402 -0.248,0.24869 -0.67403,0.42534 -0.28403,0.21268 -0.35468,0.21267 -0.42533,-0.0707 -0.85138,-0.31935 -3.12214,-0.53202 -0.31798,-0.10599 -0.70936,-0.3907 -0.81605,-0.60268 -0.17734,-0.0353 -0.99406,0.17734 -1.66604,0.67403 -0.35468,0.0353 -0.24799,-0.10668 -0.28403,-0.21267 -0.2847,-0.14201 -0.35468,-0.0707 -1.91404,0.0353 -0.74607,0.28401 -0.70936,0.46068 -1.31136,1.09937 -0.10736,0.35467 0.56873,0.60338 0.0707,0.42534 -0.0707,0.46136 -0.21405,0.39001 -0.31797,0.21267 -1.7734,0.28403 -0.31936,-0.0353 -0.63871,-0.24869 -0.10597,-0.0707 -0.85138,-0.0713 -2.97946,0.49669 -0.31935,-0.0353 -0.28332,-0.0707 -0.56873,-0.28402 -0.35468,-0.10669 h -1.06404 l -0.28265,-0.10598 -0.81605,-0.42603 -1.2767,-0.28333 h -0.63939 l -4.07882,0.81534 -1.34669,0.0713 -0.49669,0.17734 -1.52609,1.09937 -0.45998,0.21267 -0.42672,0.31935 -0.21199,0.0353 -0.95735,0.31935 -0.46137,0.21267 -0.17734,0.39 -0.248,0.10669 -1.20605,0.21267 -0.39001,0.10668 -0.17734,0.21267 -0.24937,0.42534 -0.14064,0.17734 -0.21404,0.10668 -0.28265,0.0353 -0.28403,0.14202 -0.10598,0.31935 -0.14201,0.248 -0.99339,1.02871 -3.12076,1.98607 -0.60338,0.6387 -0.28332,0.42534 -0.10669,0.39001 -0.0707,0.46137 -0.35468,0.78002 0.0355,0.49669 0.0707,0.14201 0.2487,0.21267 0.0707,0.17734 0.0355,0.14201 -0.0355,0.60268 -0.0707,0.35468 -0.28403,0.60337 -0.0355,0.39001 -0.10669,0.17734 -0.53202,0.39 -0.99268,0.60338 -0.2487,0.248 -0.42533,0.142 -0.4967,0.53202 -0.31935,0.14202 h -0.46066 l -1.24138,-0.2487 -0.4967,0.0714 -3.51149,1.91472 -0.74468,0.21336 h -0.46137 l -0.46066,-0.0713 -0.46137,0.0353 -0.39,0.24869 -0.35469,0.35468 -0.39,0.14202 h -0.42604 l -5.64024,-0.46137 0.17734,2.09275 0.10736,0.35468 0.63871,1.59606 0.46066,2.05674 0.31935,0.92272 0.4967,0.70936 -0.46137,0.85068 -0.0707,0.35468 0.39,0.14201 0.31936,0.17734 0.1053,0.39001 v 2.55412 l -0.14063,0.39001 -0.2487,0.21267 -2.62545,0.67403 -0.35468,-0.10668 -0.31797,-0.17734 -3.12147,-0.28333 h -0.10669 l -0.85138,-0.35468 -0.49598,-0.63871 0.17734,-0.0353 0.42533,-0.10668 -0.70936,0.036 -0.28403,-0.10668 -0.1413,-0.28402 h 1.06404 l 1.20534,0.17734 0.31936,-0.0707 0.56806,-0.21267 0.31797,-0.0353 0.56873,0.14132 0.28332,0.036 0.2487,-0.10668 0.95735,-0.28402 1.4887,-0.17734 1.1714,-0.39001 0.0355,-0.92204 -0.99268,0.81604 -1.49008,0.31866 -8.19298,0.46136 -0.92203,0.14201 -6.88094,1.45406 -3.44083,0.99338 -3.5468,1.02802 -3.54681,0.67403 -3.68811,0.67403 -3.58284,0.81604 -3.40479,1.20536 -3.86616,0.46136 -3.68811,-0.99338 -3.83083,-0.67334 -3.68882,-0.99338 -5.8169,-1.09937 -1.73737,-0.74469 -2.97946,-2.0221 -3.29881,-1.66672 -0.28332,-0.28402 -0.63871,-0.60268 -0.28402,-0.14201 -0.42534,-0.0707 -0.99339,-0.6387 -1.31203,-0.85137 -0.39001,-0.10599 -0.31935,-0.17734 -1.02872,-1.17072 -1.48937,-1.06404 -0.70936,-0.67404 -0.63871,-0.95736 -0.49669,-1.31273 -0.28332,-0.46066 -0.21267,-0.35468 -0.2487,-0.8867 -0.17734,-0.31935 0.0714,-0.8867 -0.67404,-0.60268 -0.95806,-0.35468 -2.69543,-0.56805 -1.73807,-0.63801 0.17734,-0.21267 0.10668,0.0353 0.21267,0.0707 0.21267,-0.0353 -0.74469,-0.35469 -0.67404,0.10669 -0.70936,0.28333 -0.85066,0.10668 -7.98031,-1.02871 -1.56074,-0.46136 -3.33414,-1.66672 -1.52541,-0.99338 -1.38268,-1.3827 -1.06405,-1.45475 -0.42604,-0.92203 -0.21266,-0.95736 0.0355,-0.17734 0.0355,-0.24869 v -0.248 l -0.70936,-1.09937 -0.17734,-0.39001 -0.0707,-0.53202 v -0.53202 l 0.17734,-0.49669 -0.85138,-2.83745 -0.31935,-3.01478 -0.39001,-0.8867 -0.0355,-1.31274 -0.14201,-0.496 0.2487,-0.74538 -0.0714,-2.12808 -1.34736,-0.28333 h -0.67403 l -0.46137,0.248 -0.42534,0.35468 -0.49669,0.31935 -0.56735,0.21267 -0.49669,0.14201 -0.95736,-0.0707 h -0.10668 l -0.67404,-0.60337 -0.56735,-0.8867 -0.78001,-0.92203 -0.31935,-0.39001 -0.35468,-0.35468 -0.31936,-0.49669 -0.35468,-0.28403 -0.24799,-0.31865 -0.14202,-0.67404 -0.2487,-0.53202 h -0.49598 l -1.02872,0.46067 h -0.63871 l -0.39,-0.31866 -0.31936,-0.46136 -1.02871,-0.74469 -0.0355,-0.42603 0.10669,-0.46067 -0.17734,-0.56735 -0.2487,-0.21336 -2.73076,-1.24138 -1.3834,-0.99269 -0.39,-0.70936 -0.0355,-0.99339 0.17734,-0.28333 1.09937,-0.6387 0.0355,-0.14201 v -0.17734 l 0.0714,-0.17734 3.83012,-0.60268 0.85137,-0.49669 0.21267,-0.28402 0.14202,-0.28333 0.10668,-0.35468 v -0.35468 l -0.10668,-0.28402 -0.60268,-1.24138 -0.31935,-0.28333 -1.20606,-0.46136 -1.17073,-1.06405 -0.49598,-0.6387 -0.28403,-0.67334 0.0355,-0.81604 0.39,-0.70936 0.60339,-0.53202 0.67403,-0.31935 1.31204,-0.248 1.09936,-0.67403 0.74469,-0.21267 -0.46066,-0.8867 -0.56735,-0.74469 -1.41872,-1.20606 -3.51148,-3.79549 -1.24138,-1.09937 -0.42604,-0.248 -0.28332,-0.0713 -0.2487,0.31935 -0.21267,0.17734 -0.24799,0.0713 -1.59606,-0.036 -0.4967,0.14201 -0.39,0.24869 -1.20606,1.1347 -2.87279,1.45405 -1.09937,1.02871 -0.28402,0.17734 -0.46136,0.0353 -1.45405,0.46136 -0.85137,0.42534 -0.67334,0.53202 -1.06404,1.20605 -0.67404,0.6387 -0.85137,0.46067 -2.09275,0.74469 -0.99269,0.56805 -0.17734,0.21267 -0.0713,0.21267 -0.78002,1.09937 -0.31935,0.95805 -0.10668,0.17734 -0.248,0.21267 -0.10669,0.0707 -1.24138,0.67403 -0.28333,0.0353 -0.31935,-0.0707 -0.56735,-0.24869 h -0.31935 l -0.35468,0.14201 -0.31935,0.24869 -0.28333,0.31866 -0.53202,0.85137 -0.10668,0.14201 -0.17734,0.10668 -0.31935,0.17734 -0.17734,0.14132 -0.248,0.35468 -0.35468,0.74538 -0.31935,0.28333 -1.20605,0.56735 -0.39002,0.28402 -0.28402,0.35468 -0.56735,1.09938 -0.248,0.35468 -0.28402,0.28402 -0.31935,0.248 -0.35468,0.21267 -0.42534,0.14201 -0.39001,0.0353 -0.35468,-0.10599 -2.16341,-0.8867 -0.28402,-0.0353 h -0.248 l -0.49669,0.17734 h -0.81605 l -0.248,0.0707 -0.42603,0.17734 -1.06404,0.70936 -0.35468,0.17734 -1.3827,0.17734 h -0.21336 l -1.20536,-0.248 -1.38339,-0.60337 -4.36285,-0.81535 -1.56073,-0.56805 -1.84407,-0.0353 -1.17072,-0.248 -0.56735,-0.0353 -0.248,-0.036 -0.46136,-0.248 -0.28333,-0.0707 -0.28402,-0.0713 -0.46136,-0.21267 -0.42534,-0.248 -0.248,-0.28402 -0.036,-0.248 0.036,-0.21336 0.10599,-0.21267 0.0353,-0.248 -0.10598,-0.14201 -0.49669,-0.21267 -0.17734,-0.14201 -0.10668,-0.21267 -0.17734,-0.53202 -0.0707,-0.17734 -0.21267,-0.21267 -0.17734,-0.10668 -0.17734,-0.10668 -0.14201,-0.248 0.17734,-0.35468 -0.10668,-0.28403 -0.28333,-0.14131 -0.28402,-0.0714 -0.21267,-0.0707 v -0.21267 l 0.0353,-0.24869 -0.0353,-0.14201 -0.21267,-0.0353 -0.17734,0.0713 -0.14202,0.10599 -0.0707,0.0353 -2.12809,-0.63801 -0.56804,0.14201 -0.14132,-0.35468 -0.21336,-1.24138 -0.14132,-0.24869 -0.17734,-0.248 -0.49669,-1.02871 -0.17734,-0.248 -0.17734,-0.0713 -0.21267,-0.248 -0.17734,-0.24869 -0.0713,-0.17734 -0.10599,-0.14132 -0.74538,-0.46136 -0.0707,-0.0707 -0.0353,-0.10668 -0.0713,-0.10668 -0.17734,-0.0353 h -0.21267 l -0.10599,-0.0353 -0.53202,-0.35468 -0.10668,-0.14201 0.17734,-0.31935 -0.42534,-0.35468 -0.24869,-0.496 -0.63801,-2.34144 -0.24869,-0.53202 -0.42534,-0.28333 0.0707,-0.0713 0.0713,-0.10599 -0.46136,-0.0353 -0.46137,-0.0713 -0.39001,-0.17734 -0.0353,-0.0707 -1.70275,-1.13539 -0.39001,-0.31866 -1.24138,-0.49669 -0.28333,-0.31935 -0.56804,-0.78002 z m 118.49862,257.00135 0.036,0.49669 0.24803,0.74469 0.31864,0.53203 0.14131,-0.39002 0.0714,-0.46136 0.0355,-0.496 -0.10669,-0.35468 -0.14131,0.14132 h -0.10668 l -0.17734,-0.14132 z m 128.21768,53.27343 -0.35468,0.10599 -0.39068,0.53201 -0.0714,0.63872 0.67404,0.24799 0.31935,-0.0355 0.28403,-0.17734 0.21267,-0.21334 0.0707,-0.31868 -0.10598,-0.35468 -0.17734,-0.17733 -0.24732,-0.0707 z m -6.24223,2.55413 -2.73076,0.63872 -2.19873,1.48937 -0.78072,0.21267 -2.90739,-1.17003 -0.4967,0.31933 0.14202,0.21269 0.31864,0.28332 0.35468,0.35469 0.17734,0.42603 0.10598,1.09937 -0.0699,0.46204 -0.31936,0.35469 0.0707,0.17733 0.0714,0.17734 -0.21338,0.07 -0.21337,0.17735 -0.14131,0.0707 -0.21337,0.0367 -0.42534,-0.0367 h -0.21266 l -1.34807,0.56872 -0.42534,0.35468 -0.95806,0.60201 -0.35468,0.14201 -0.39001,0.0707 -2.76679,0.95801 -1.10004,0.63804 -0.21266,-0.0707 -0.21405,0.14198 -0.99272,-0.39139 -0.21334,0.2487 0.21334,0.78001 0.10601,0.10669 -0.0355,0.28332 -0.14202,0.42604 0.10736,0.60267 0.10669,0.28403 0.14063,0.14201 0.21405,-0.0367 0.24799,-0.0707 0.21267,-0.14134 0.10669,-0.17734 0.0707,-0.21334 h 0.21267 l 0.24799,0.10736 0.17734,0.0355 0.17734,-0.10669 0.39072,-0.24799 0.9227,-0.2487 1.27671,-0.17734 0.35468,-0.17734 0.70936,-0.56735 1.17144,-0.53202 1.13398,-0.81534 0.42604,-0.2487 0.42534,-0.0707 0.95739,0.14201 h 0.42533 l 0.39068,-0.24869 0.39001,-0.35468 1.38339,-0.7454 0.53202,0.46208 0.46137,0.46066 0.46066,0.21266 0.60338,-0.35467 1.02804,-1.06405 0.17734,-0.10597 0.17734,-0.21267 0.78002,-0.42604 0.17734,-0.21338 0.14201,-0.31864 0.85138,-0.92274 0.24799,-0.42462 0.46137,-1.10076 0.46066,-0.42536 1.31274,-0.35468 0.638,-0.42463 -0.14201,-0.42604 -0.46066,-0.39072 -0.53135,-0.24661 -0.42533,-0.0713 z m 4.82284,2.65939 -0.78001,0.10599 -0.53341,0.2494 -0.31868,0.42533 -0.0713,0.67334 0.39139,0.17733 0.78002,-0.28403 0.63871,-0.56734 z m -66.9993,0.88532 -0.17734,0.0355 -0.17734,0.0714 -0.14202,0.0355 -0.10597,0.10667 0.21334,0.21335 0.63803,0.56734 0.31936,0.21338 0.35468,0.17734 1.20602,0.21266 h 0.39004 l 0.39068,-0.21266 0.24799,-0.0707 0.78005,0.0707 0.31932,-0.0707 -0.46133,-0.42604 -0.46137,-0.21267 -1.56074,-0.1434 z m 8.97299,4.07953 -0.17734,0.284 0.21338,0.28335 0.35468,0.21334 0.35468,0.036 0.28332,-0.28403 -0.17734,-0.35468 -0.248,-0.10669 -0.21266,-0.0713 z m 47.42122,0.284 -0.21267,0.0348 -0.31935,0.28473 -0.28332,0.53131 -0.036,0.56807 0.35469,0.21266 0.39071,-0.28402 0.31865,-0.49599 -0.0355,-0.60271 z m -40.46891,2.80212 -0.35468,0.10668 -0.31936,0.248 -0.21267,0.35468 0.42466,0.70936 0.674,0.35468 1.70275,0.10669 0.21338,-0.14202 0.10669,-0.28403 -0.0367,-0.28332 -0.14063,-0.14201 -0.14202,-0.10598 -0.0355,-0.17734 v -0.21267 l -0.0367,-0.17734 -0.31797,-0.10736 -0.74607,-0.10601 -0.35468,-0.10669 z m 11.66843,5.95962 -0.17734,0.10669 -0.14131,0.17734 -0.0707,0.28332 v 0.2487 l 0.0707,0.248 v 0.31864 l 0.14131,0.14202 0.21337,0.1413 0.24732,0.0707 0.10736,-0.0355 0.46137,-0.92208 -0.0714,-0.17734 -0.10598,-0.14201 -0.14272,-0.10527 -0.14131,-0.0707 -0.17734,-0.21271 z m 0.81537,9.68164 -0.49531,0.14202 -0.2487,0.17735 0.0714,0.28473 0.31797,0.14063 0.2847,0.0713 0.21267,-0.17734 -0.0355,-0.42602 z"
     style="stroke-width:1" /></clipPath></defs><sodipodi:namedview
   id="namedview1065"
   pagecolor="#ffffff"
   bordercolor="#666666"
   borderopacity="1.0"
   inkscape:pageshadow="2"
   inkscape:pageopacity="0.0"
   inkscape:pagecheckerboard="0"
   showgrid="false"
   inkscape:zoom="0.96204588"
   inkscape:cx="277.01382"
   inkscape:cy="183.46318"
   inkscape:window-width="1366"
   inkscape:window-height="697"
   inkscape:window-x="-8"
   inkscape:window-y="-8"
   inkscape:window-maximized="1"
   inkscape:current-layer="Iran" />
<metadata
   id="metadata4774">
	<rdf:RDF>
		<cc:Work
   rdf:about="">
			<dc:format>image/svg+xml</dc:format>
			<dc:type
   rdf:resource="http://purl.org/dc/dcmitype/StillImage" />
		</cc:Work>
	</rdf:RDF>
	<ns:sfw>
		<ns:slices />
		<ns:sliceSourceBounds
   x="-717.5"
   y="-749.242"
   width="2149.096"
   height="1776.923"
   bottomLeftOrigin="true" />
	</ns:sfw>
</metadata>
<g
   transform="translate(-384.64846,-353.9406)"
   id="g1605">
	
</g>







<g
   id="g1492"
   clip-path="url(#clipPath1596)"
   transform="translate(-114.58593,-1.3e-4)"><rect
     width="630"
     height="360"
     fill="#da0000"
     id="rect1423"
     x="0"
     y="0" /><rect
     width="630"
     height="240"
     fill="#ffffff"
     id="rect1425"
     x="0"
     y="0" /><rect
     width="630"
     height="120"
     fill="#239f40"
     id="rect1427"
     x="0"
     y="0" /><g
     transform="translate(8.4,100.4)"
     id="g1448"><g
       id="tb4"><g
         id="tb1"
         fill="none"
         stroke="#ffffff"
         stroke-width="2"><path
           id="tbp1"
           d="M 0,1 H 26 M 1,10 V 5 h 8 v 4 h 8 V 5 H 12 M 4,9 H 6 M 26,9 H 21 V 5 h 8 m 0,-5 v 9 h 8 V 0 m -4,0 v 9"
           transform="scale(1.4)" /><path
           id="tbp2"
           d="m 0,7 h 9 m 1,0 h 9"
           transform="scale(2.8)" /><use
           xlink:href="#tbp2"
           y="120"
           id="use1431"
           x="0"
           width="100%"
           height="100%" /><use
           xlink:href="#tbp1"
           y="145.2"
           id="use1433"
           x="0"
           width="100%"
           height="100%" /></g><g
         id="tb3"><use
           xlink:href="#tb1"
           x="56"
           id="use1436"
           y="0"
           width="100%"
           height="100%" /><use
           xlink:href="#tb1"
           x="112"
           id="use1438"
           y="0"
           width="100%"
           height="100%" /><use
           xlink:href="#tb1"
           x="168"
           id="use1440"
           y="0"
           width="100%"
           height="100%" /></g></g><use
       xlink:href="#tb3"
       x="168"
       id="use1444"
       y="0"
       width="100%"
       height="100%" /><use
       xlink:href="#tb4"
       x="392"
       id="use1446"
       y="0"
       width="100%"
       height="100%" /></g><g
     fill="#da0000"
     transform="matrix(45,0,0,45,315,180)"
     id="g1461"><g
       id="emblem_half"><path
         d="M -0.54815,0.83638 A 0.912046,0.912046 0 0 0 0.328544,-0.722384 1,1 0 0 1 -0.54815,0.83638"
         id="path1450" /><path
         d="M 0.618339,0.661409 A 0.763932,0.763932 0 0 0 0.421644,-0.741049 1,1 0 0 1 0.618339,0.661409"
         id="path1452" /><path
         d="M 0,1 -0.05,0 0,-0.787278 a 0.309995,0.309995 0 0 0 0.118034,0.099087 v 0.587785 L 0.077809,0.892905 Z"
         id="path1454" /><path
         d="M -0.02,-0.85 0,-0.831217 A 0.14431,0.14431 0 0 0 0.252075,-0.967708 0.136408,0.136408 0 0 1 0,-0.924634"
         id="path1456" /></g><use
       xlink:href="#emblem_half"
       transform="scale(-1,1)"
       id="use1459"
       x="0"
       y="0"
       width="100%"
       height="100%" /></g></g></svg>
