<svg xmlns="http://www.w3.org/2000/svg" width="1189mm" height="841mm" viewBox="0 0 1189 841">
<defs>
  <linearGradient id="bg" x1="0" y1="0" x2=".6" y2="1">
    <stop offset="0%" stop-color="#eef2ff"/>
    <stop offset="50%" stop-color="#faf5ff"/>
    <stop offset="100%" stop-color="#fff7ed"/>
  </linearGradient>

  <linearGradient id="hdr" x1="0" y1="0" x2="1" y2="0">
    <stop offset="0%" stop-color="#1e1b4b"/>
    <stop offset="50%" stop-color="#312e81"/>
    <stop offset="100%" stop-color="#4c1d95"/>
  </linearGradient>

  <filter id="sh" x="-10%" y="-10%" width="130%" height="130%">
    <feDropShadow dx="0" dy="2" stdDeviation="2.3" flood-color="#475569" flood-opacity=".16"/>
  </filter>

  <style>
    .t1{font:700 17px 'Vazirmatn','Noto Sans Arabic',sans-serif;fill:#fff}
    .t2{font:500 7px 'Vazirmatn','Noto Sans Arabic',sans-serif;fill:#e0e7ff}
    .sec{font:700 10px 'Vazirmatn','Noto Sans Arabic',sans-serif;fill:#1e1b4b}
    .ct{font:700 7px 'Vazirmatn','Noto Sans Arabic',sans-serif;fill:#1e1b4b}
    .bd{font:500 5.3px 'Vazirmatn','Noto Sans Arabic',sans-serif;fill:#334155}
    .sm{font:500 4.5px 'Vazirmatn','Noto Sans Arabic',sans-serif;fill:#475569}
    .tn{font:500 3.9px 'Vazirmatn','Noto Sans Arabic',sans-serif;fill:#64748b}
    .lb{font:700 5.8px 'Vazirmatn','Noto Sans Arabic',sans-serif;fill:#1e1b4b}
    .tblh{font:700 5.4px 'Vazirmatn','Noto Sans Arabic',sans-serif;fill:#1e1b4b}
    .tbl{font:500 4.9px 'Vazirmatn','Noto Sans Arabic',sans-serif;fill:#334155}
    .tbln{font:700 5.6px 'Vazirmatn','Noto Sans Arabic',sans-serif;fill:#1e1b4b}
    .mn{font:600 3.5px ui-monospace,monospace;fill:#475569}
    .wh{fill:#fff}
    .bigcase{font:700 7.1px 'Vazirmatn','Noto Sans Arabic',sans-serif;fill:#1e1b4b}
  </style>

  <clipPath id="clip150x88"><rect width="150" height="88" rx="6"/></clipPath>
  <clipPath id="clip190x138"><rect width="190" height="138" rx="6"/></clipPath>

  <g id="ok">
    <circle cx="7" cy="7" r="6" fill="#16a34a"/>
    <path d="M4 7 L6.2 9.2 L10 4.8" fill="none" stroke="#fff" stroke-width="1.4" stroke-linecap="round" stroke-linejoin="round"/>
  </g>
  <g id="warn">
    <circle cx="7" cy="7" r="6" fill="#f59e0b"/>
    <path d="M7 3.5 V7.8" stroke="#fff" stroke-width="1.4" stroke-linecap="round"/>
    <circle cx="7" cy="10.1" r=".9" fill="#fff"/>
  </g>
  <g id="bad">
    <circle cx="7" cy="7" r="6" fill="#dc2626"/>
    <path d="M4.5 4.5 L9.5 9.5 M9.5 4.5 L4.5 9.5" stroke="#fff" stroke-width="1.3" stroke-linecap="round"/>
  </g>
  <g id="deFacto">
    <circle cx="7" cy="7" r="6" fill="#7c3aed"/>
    <circle cx="7" cy="7" r="2.2" fill="#fff"/>
  </g>

  <style>
    .hm0{fill:#f8fafc}.hm1{fill:#f0fdf4}.hm2{fill:#dcfce7}.hm3{fill:#bbf7d0}
    .hm4{fill:#86efac}.hm5{fill:#4ade80}.hm6{fill:#22c55e}.hm7{fill:#16a34a}
  </style>
</defs>

<rect width="1189" height="841" fill="url(#bg)"/>

<!-- HEADER -->
<rect x="10" y="8" width="1169" height="46" rx="12" fill="url(#hdr)" filter="url(#sh)"/>
<text x="1165" y="27" text-anchor="end" class="t1">حقوق بین‌الملل، جدایی و استقلال: اطلس تطبیقی</text>
<text x="1165" y="39" text-anchor="end" class="t2">کوزوو • کریمه • تایوان • سومالیلند • جنوب سودان — اصول، منطق حقوقی، ژئوپلیتیک، هیت‌مپ مدل‌های حکمرانی</text>
<text x="1165" y="49" text-anchor="end" class="t2">International Law, Secession &amp; Recognition Atlas — Refined Edition</text>

<!-- ROW 1 -->
<rect x="10" y="62" width="1169" height="128" rx="10" fill="#fff" stroke="#e0e7ff" filter="url(#sh)"/>
<text x="1165" y="76" text-anchor="end" class="sec">اصول بنیادین: پنج اصل و جهت اثر آنها بر جدایی</text>

<g transform="translate(16,88)">
  <rect width="150" height="88" rx="6" fill="#eff6ff" stroke="#93c5fd"/>
  <g clip-path="url(#clip150x88)">
    <text x="142" y="12" text-anchor="end" class="ct">حق تعیین سرنوشت</text>
    <text x="142" y="24" text-anchor="end" class="bd">اصل بنیادین منشور و میثاقین.</text>
    <text x="142" y="34" text-anchor="end" class="bd">در درجه اول «داخلی» فهم می‌شود.</text>
    <text x="142" y="46" text-anchor="end" class="sm">خارجی فقط در استعمار، اشغال</text>
    <text x="142" y="54" text-anchor="end" class="sm">یا شاید سرکوب شدید.</text>
    <text x="142" y="68" text-anchor="end" class="tn">اثر: بالقوه مثبت، محدود و مشروط.</text>
  </g>
</g>

<g transform="translate(174,88)">
  <rect width="150" height="88" rx="6" fill="#fef2f2" stroke="#fca5a5"/>
  <g clip-path="url(#clip150x88)">
    <text x="142" y="12" text-anchor="end" class="ct">تمامیت ارضی</text>
    <text x="142" y="24" text-anchor="end" class="bd">اصل غالب نظم بین‌المللی.</text>
    <text x="142" y="34" text-anchor="end" class="bd">مرزهای دولت‌ها باید محفوظ بماند.</text>
    <text x="142" y="46" text-anchor="end" class="sm">مانع اصلی جدایی یک‌طرفه.</text>
    <text x="142" y="60" text-anchor="end" class="tn">اثر: منفیِ قوی و مستمر.</text>
  </g>
</g>

<g transform="translate(332,88)">
  <rect width="150" height="88" rx="6" fill="#fef9c3" stroke="#fde047"/>
  <g clip-path="url(#clip150x88)">
    <text x="142" y="12" text-anchor="end" class="ct">Uti possidetis juris</text>
    <text x="142" y="24" text-anchor="end" class="bd">مرزهای موروثی حفظ شوند.</text>
    <text x="142" y="34" text-anchor="end" class="bd">برای جلوگیری از جنگ مرزی.</text>
    <text x="142" y="46" text-anchor="end" class="sm">اغلب علیه بازترسیم قومی مرزها.</text>
    <text x="142" y="58" text-anchor="end" class="tn">اثر: غالباً منفی؛ گاه مؤید مرز استعماری.</text>
  </g>
</g>

<g transform="translate(490,88)">
  <rect width="150" height="88" rx="6" fill="#fdf4ff" stroke="#d946ef"/>
  <g clip-path="url(#clip150x88)">
    <text x="142" y="12" text-anchor="end" class="ct">جدایی جبرانی</text>
    <text x="142" y="24" text-anchor="end" class="bd">اگر سرکوب شدید + نبود راه داخلی،</text>
    <text x="142" y="34" text-anchor="end" class="bd">شاید جدایی مجاز باشد.</text>
    <text x="142" y="46" text-anchor="end" class="sm">قاعدهٔ مسلّم نیست؛ بیشتر نظریه است.</text>
    <text x="142" y="60" text-anchor="end" class="tn">اثر: مثبتِ استثنایی و محدود.</text>
  </g>
</g>

<g transform="translate(648,88)">
  <rect width="150" height="88" rx="6" fill="#ecfdf5" stroke="#34d399"/>
  <g clip-path="url(#clip150x88)">
    <text x="142" y="12" text-anchor="end" class="ct">شناسایی بین‌المللی</text>
    <text x="142" y="24" text-anchor="end" class="bd">بدون شناسایی، استقلال ناقص است.</text>
    <text x="142" y="34" text-anchor="end" class="bd">بیش از آنکه حقوقی باشد، سیاسی است.</text>
    <text x="142" y="46" text-anchor="end" class="sm">وابسته به موازنه و ژئوپلیتیک.</text>
    <text x="142" y="60" text-anchor="end" class="tn">اثر: دروازهٔ عملیِ استقلال.</text>
  </g>
</g>

<g transform="translate(816,84)">
  <rect width="350" height="98" rx="8" fill="#f8fafc" stroke="#cbd5e1"/>
  <text x="340" y="14" text-anchor="end" class="ct">جهت اثر بر جدایی / استقلال</text>
  <line x1="40" y1="52" x2="310" y2="52" stroke="#cbd5e1" stroke-width="2"/>
  <text x="32" y="56" text-anchor="end" class="lb">مانع</text>
  <text x="318" y="56" class="lb">تقویت‌کننده</text>

  <circle cx="70" cy="52" r="7" fill="#ef4444"/>
  <text x="70" y="73" text-anchor="middle" class="sm">تمامیت</text>
  <text x="70" y="81" text-anchor="middle" class="sm">ارضی</text>

  <circle cx="115" cy="52" r="7" fill="#f59e0b"/>
  <text x="115" y="73" text-anchor="middle" class="sm">Uti</text>
  <text x="115" y="81" text-anchor="middle" class="sm">possidetis</text>

  <circle cx="180" cy="52" r="7" fill="#10b981"/>
  <text x="180" y="73" text-anchor="middle" class="sm">شناسایی</text>
  <text x="180" y="81" text-anchor="middle" class="sm">عملی</text>

  <circle cx="245" cy="52" r="7" fill="#60a5fa"/>
  <text x="245" y="73" text-anchor="middle" class="sm">تعیین</text>
  <text x="245" y="81" text-anchor="middle" class="sm">سرنوشت</text>

  <circle cx="290" cy="52" r="7" fill="#d946ef"/>
  <text x="290" y="73" text-anchor="middle" class="sm">جدایی</text>
  <text x="290" y="81" text-anchor="middle" class="sm">جبرانی</text>

  <path d="M42 32 H308" stroke="url(#hdr)" stroke-width="1.5" opacity=".45"/>
  <text x="340" y="32" text-anchor="end" class="tn">از بازدارندهٔ قوی تا استثنای تقویت‌کننده</text>
</g>

<!-- ROW 2 -->
<rect x="10" y="198" width="1169" height="208" rx="10" fill="#fff" stroke="#e0e7ff" filter="url(#sh)"/>
<text x="1165" y="212" text-anchor="end" class="sec">پنج مورد کلیدی: تحلیل تطبیقی و جمع‌بندی سریع</text>

<g transform="translate(16,222)">
  <rect width="190" height="145" rx="6" fill="#eff6ff" stroke="#6366f1"/>
  <g clip-path="url(#clip190x138)">
    <rect width="190" height="18" rx="6" fill="#6366f1"/>
    <text x="182" y="12" text-anchor="end" class="ct wh">کوزوو ۲۰۰۸</text>
    <text x="182" y="30" text-anchor="end" class="bd">سرکوب سیستماتیک + پاک‌سازی قومی</text>
    <text x="182" y="40" text-anchor="end" class="bd">مداخله ناتو + اداره UNMIK</text>
    <text x="182" y="50" text-anchor="end" class="bd">اعلام استقلال؛ نظر مشورتی ICJ</text>
    <text x="182" y="61" text-anchor="end" class="sm">≈۱۰۰ شناسایی | عضو UN: خیر</text>
    <text x="182" y="71" text-anchor="end" class="sm">نزدیک‌ترین مورد به جدایی جبرانی</text>
    <text x="182" y="83" text-anchor="end" class="tn">قوت: سرکوب قبلی + بن‌بست مذاکره</text>
    <text x="182" y="93" text-anchor="end" class="tn">ضعف: شناسایی ناکامل</text>
    <text x="182" y="108" text-anchor="end" class="bigcase">موفقیت: جزئی / بحثی</text>
    <use href="#warn" x="8" y="100"/>
    <text x="182" y="123" text-anchor="end" class="mn">Partial success; still incomplete statehood</text>
  </g>
</g>

<g transform="translate(214,222)">
  <rect width="190" height="145" rx="6" fill="#fef2f2" stroke="#dc2626"/>
  <g clip-path="url(#clip190x138)">
    <rect width="190" height="18" rx="6" fill="#dc2626"/>
    <text x="182" y="12" text-anchor="end" class="ct wh">کریمه ۲۰۱۴</text>
    <text x="182" y="30" text-anchor="end" class="bd">اشغال نظامی روسیه + همه‌پرسی نامعتبر</text>
    <text x="182" y="40" text-anchor="end" class="bd">الحاق سریع به روسیه</text>
    <text x="182" y="50" text-anchor="end" class="bd">رد گستردهٔ بین‌المللی</text>
    <text x="182" y="61" text-anchor="end" class="sm">قطعنامه ۶۸/۲۶۲ مجمع عمومی</text>
    <text x="182" y="71" text-anchor="end" class="sm">الگوی annexation نه secession</text>
    <text x="182" y="83" text-anchor="end" class="tn">ضعف اصلی: استفاده از زور خارجی</text>
    <text x="182" y="93" text-anchor="end" class="tn">شناسایی بسیار محدود</text>
    <text x="182" y="108" text-anchor="end" class="bigcase">وضعیت: رد شده / نامشروع</text>
    <use href="#bad" x="8" y="100"/>
    <text x="182" y="123" text-anchor="end" class="mn">Widely rejected as illegal annexation</text>
  </g>
</g>

<g transform="translate(412,222)">
  <rect width="190" height="145" rx="6" fill="#fefce8" stroke="#d97706"/>
  <g clip-path="url(#clip190x138)">
    <rect width="190" height="18" rx="6" fill="#d97706"/>
    <text x="182" y="12" text-anchor="end" class="ct wh">تایوان</text>
    <text x="182" y="30" text-anchor="end" class="bd">جنگ داخلی ناتمام، نه جدایی کلاسیک</text>
    <text x="182" y="40" text-anchor="end" class="bd">دولت عملاً مستقل، دموکراسی پایدار</text>
    <text x="182" y="50" text-anchor="end" class="bd">ارتش، پول، اقتصاد، پاسپورت خودی</text>
    <text x="182" y="61" text-anchor="end" class="sm">≈۱۳ شناسایی | عضو UN: خیر</text>
    <text x="182" y="71" text-anchor="end" class="sm">ژئوپلیتیک: خطرناک‌ترین مورد جهان</text>
    <text x="182" y="83" text-anchor="end" class="tn">قوت: ظرفیت دولت بسیار بالا</text>
    <text x="182" y="93" text-anchor="end" class="tn">ضعف: بن‌بست شناسایی</text>
    <text x="182" y="108" text-anchor="end" class="bigcase">وضعیت: دوفاکتوِ بسیار قوی</text>
    <use href="#deFacto" x="8" y="100"/>
    <text x="182" y="123" text-anchor="end" class="mn">Strong de facto state; weak formal recognition</text>
  </g>
</g>

<g transform="translate(610,222)">
  <rect width="190" height="145" rx="6" fill="#ecfdf5" stroke="#16a34a"/>
  <g clip-path="url(#clip190x138)">
    <rect width="190" height="18" rx="6" fill="#16a34a"/>
    <text x="182" y="12" text-anchor="end" class="ct wh">سومالیلند</text>
    <text x="182" y="30" text-anchor="end" class="bd">از ۱۹۹۱ عملاً مستقل و نسبتاً باثبات</text>
    <text x="182" y="40" text-anchor="end" class="bd">انتخابات، دولت، پول، کنترل سرزمینی</text>
    <text x="182" y="50" text-anchor="end" class="bd">اما صفر شناسایی رسمی</text>
    <text x="182" y="61" text-anchor="end" class="sm">استدلال: بازگشت به مرزهای استعماری</text>
    <text x="182" y="71" text-anchor="end" class="sm">مانع: ترس از سابقه‌سازی آفریقایی</text>
    <text x="182" y="83" text-anchor="end" class="tn">قوت: عملکرد بهتر از دولت مادر</text>
    <text x="182" y="93" text-anchor="end" class="tn">ضعف: هیچ شناسایی رسمی ندارد</text>
    <text x="182" y="108" text-anchor="end" class="bigcase">وضعیت: موفقِ ناشناخته</text>
    <use href="#deFacto" x="8" y="100"/>
    <text x="182" y="123" text-anchor="end" class="mn">Best unrecognized state case</text>
  </g>
</g>

<g transform="translate(808,222)">
  <rect width="190" height="145" rx="6" fill="#fdf4ff" stroke="#a855f7"/>
  <g clip-path="url(#clip190x138)">
    <rect width="190" height="18" rx="6" fill="#a855f7"/>
    <text x="182" y="12" text-anchor="end" class="ct wh">جنوب سودان ۲۰۱۱</text>
    <text x="182" y="30" text-anchor="end" class="bd">همه‌پرسی معتبر + رضایت دولت مادر</text>
    <text x="182" y="40" text-anchor="end" class="bd">استقلال کامل + عضویت سازمان ملل</text>
    <text x="182" y="50" text-anchor="end" class="bd">اما سقوط سریع به جنگ داخلی</text>
    <text x="182" y="61" text-anchor="end" class="sm">موفق در استقلال، ضعیف در دولت‌سازی</text>
    <text x="182" y="71" text-anchor="end" class="sm">تنها مسیر واقعاً مطمئن: رضایت‌محور</text>
    <text x="182" y="83" text-anchor="end" class="tn">قوت: شناسایی کامل و مشروع</text>
    <text x="182" y="93" text-anchor="end" class="tn">ضعف: ثبات داخلی بسیار ضعیف</text>
    <text x="182" y="108" text-anchor="end" class="bigcase">وضعیت: موفقِ حقوقی، ضعیفِ عملی</text>
    <use href="#ok" x="8" y="100"/>
    <text x="182" y="123" text-anchor="end" class="mn">Legal success, governance failure</text>
  </g>
</g>

<g transform="translate(1006,222)">
  <rect width="160" height="145" rx="6" fill="#f8fafc" stroke="#cbd5e1"/>
  <text x="152" y="14" text-anchor="end" class="ct">جمع‌بندی سریع</text>

  <text x="152" y="34" text-anchor="end" class="bigcase">کوزوو</text>
  <use href="#warn" x="8" y="26"/>
  <text x="152" y="44" text-anchor="end" class="sm">موفقیت جزئی</text>

  <text x="152" y="60" text-anchor="end" class="bigcase">کریمه</text>
  <use href="#bad" x="8" y="52"/>
  <text x="152" y="70" text-anchor="end" class="sm">رد شده</text>

  <text x="152" y="86" text-anchor="end" class="bigcase">تایوان</text>
  <use href="#deFacto" x="8" y="78"/>
  <text x="152" y="96" text-anchor="end" class="sm">دوفاکتوِ بسیار قوی</text>

  <text x="152" y="112" text-anchor="end" class="bigcase">سومالیلند</text>
  <use href="#deFacto" x="8" y="104"/>
  <text x="152" y="122" text-anchor="end" class="sm">موفقِ ناشناخته</text>

  <text x="152" y="136" text-anchor="end" class="bigcase">جنوب سودان</text>
  <use href="#ok" x="8" y="128"/>
</g>

<!-- ROW 3 -->
<rect x="10" y="416" width="690" height="162" rx="10" fill="#fff" stroke="#e0e7ff" filter="url(#sh)"/>
<text x="692" y="430" text-anchor="end" class="sec">ماتریس مقایسه‌ای: رنگ‌بندی لطیف و شفاف</text>

<g class="tblh" text-anchor="middle">
  <rect x="16" y="438" width="95" height="16" rx="3" fill="#e0e7ff"/>
  <text x="63" y="449">معیار</text>
  <rect x="115" y="438" width="112" height="16" rx="3" fill="#e0e7ff"/>
  <text x="171" y="449">کوزوو</text>
  <rect x="231" y="438" width="112" height="16" rx="3" fill="#e0e7ff"/>
  <text x="287" y="449">کریمه</text>
  <rect x="347" y="438" width="112" height="16" rx="3" fill="#e0e7ff"/>
  <text x="403" y="449">تایوان</text>
  <rect x="463" y="438" width="112" height="16" rx="3" fill="#e0e7ff"/>
  <text x="519" y="449">سومالیلند</text>
  <rect x="579" y="438" width="112" height="16" rx="3" fill="#e0e7ff"/>
  <text x="635" y="449">جنوب سودان</text>
</g>

<g class="tbl" text-anchor="middle">
  <rect x="16" y="458" width="675" height="16" fill="#eff6ff" opacity=".45"/>
  <rect x="16" y="474" width="675" height="16" fill="#fef2f2" opacity=".38"/>
  <rect x="16" y="490" width="675" height="16" fill="#fefce8" opacity=".42"/>
  <rect x="16" y="506" width="675" height="16" fill="#ecfdf5" opacity=".42"/>
  <rect x="16" y="522" width="675" height="16" fill="#fdf4ff" opacity=".42"/>
  <rect x="16" y="538" width="675" height="16" fill="#eff6ff" opacity=".35"/>
  <rect x="16" y="554" width="675" height="16" fill="#f1f5f9" opacity=".42"/>

  <text x="63" y="469">سرکوب قبلی</text>
  <text x="171" y="469">✓✓✓</text><text x="287" y="469">✗</text><text x="403" y="469">نامربوط</text><text x="519" y="469">✓✓</text><text x="635" y="469">✓✓✓</text>

  <text x="63" y="485">مداخله نظامی</text>
  <text x="171" y="485">ناتو</text><text x="287" y="485">روسیه ✓✓✓</text><text x="403" y="485">✗</text><text x="519" y="485">✗</text><text x="635" y="485">✗</text>

  <text x="63" y="501">همه‌پرسی معتبر</text>
  <text x="171" y="501">✗</text><text x="287" y="501">✗</text><text x="403" y="501">✗</text><text x="519" y="501">✗</text><text x="635" y="501">✓✓✓</text>

  <text x="63" y="517">رضایت دولت مادر</text>
  <text x="171" y="517">✗</text><text x="287" y="517">✗</text><text x="403" y="517">✗</text><text x="519" y="517">✗</text><text x="635" y="517">✓</text>

  <text x="63" y="533">شناسایی</text>
  <text x="171" y="533">≈۱۰۰</text><text x="287" y="533">≈۱۰</text><text x="403" y="533">≈۱۳</text><text x="519" y="533">۰</text><text x="635" y="533">۱۹۳</text>

  <text x="63" y="549">عضویت UN</text>
  <text x="171" y="549">✗</text><text x="287" y="549">✗</text><text x="403" y="549">✗</text><text x="519" y="549">✗</text><text x="635" y="549">✓</text>

  <text x="63" y="565">ثبات داخلی</text>
  <text x="171" y="565">نسبی</text><text x="287" y="565">تحت روسیه</text><text x="403" y="565">بالا</text><text x="519" y="565">نسبی</text><text x="635" y="565">ضعیف</text>
</g>

<g stroke="#e2e8f0" stroke-width=".5">
  <line x1="16" y1="458" x2="691" y2="458"/>
  <line x1="16" y1="474" x2="691" y2="474"/>
  <line x1="16" y1="490" x2="691" y2="490"/>
  <line x1="16" y1="506" x2="691" y2="506"/>
  <line x1="16" y1="522" x2="691" y2="522"/>
  <line x1="16" y1="538" x2="691" y2="538"/>
  <line x1="16" y1="554" x2="691" y2="554"/>
</g>

<rect x="708" y="416" width="471" height="162" rx="10" fill="#fff" stroke="#c4b5fd" filter="url(#sh)"/>
<text x="1171" y="430" text-anchor="end" class="sec">چهار بینش اصلی</text>

<g transform="translate(714,440)">
  <rect width="224" height="56" rx="5" fill="#eff6ff" stroke="#93c5fd"/>
  <text x="216" y="12" text-anchor="end" class="ct">۱) جدایی یک‌طرفه تقریباً ناممکن است</text>
  <text x="216" y="24" text-anchor="end" class="bd">بدون رضایت دولت مادر یا وضعیت استثنایی،</text>
  <text x="216" y="34" text-anchor="end" class="bd">شانس موفقیت حقوقی پایین است.</text>
  <text x="216" y="47" text-anchor="end" class="mn">Unilateral secession rarely succeeds</text>

  <rect x="232" width="224" height="56" rx="5" fill="#fef2f2" stroke="#fca5a5"/>
  <text x="448" y="12" text-anchor="end" class="ct">۲) شناسایی، عملِ سیاسی است</text>
  <text x="448" y="24" text-anchor="end" class="bd">عملکرد خوب الزاماً شناسایی نمی‌آورد.</text>
  <text x="448" y="34" text-anchor="end" class="bd">ژئوپلیتیک و منافع قدرت‌ها تعیین‌کننده‌اند.</text>
  <text x="448" y="47" text-anchor="end" class="mn">Recognition follows power politics</text>
</g>

<g transform="translate(714,506)">
  <rect width="224" height="56" rx="5" fill="#fefce8" stroke="#fde047"/>
  <text x="216" y="12" text-anchor="end" class="ct">۳) رضایت = بهترین مسیر</text>
  <text x="216" y="24" text-anchor="end" class="bd">رضایت، مشروعیت و شناسایی را آسان می‌کند؛</text>
  <text x="216" y="34" text-anchor="end" class="bd">اما ثبات پس از استقلال را تضمین نمی‌کند.</text>
  <text x="216" y="47" text-anchor="end" class="mn">Consent helps independence, not state-building</text>

  <rect x="232" width="224" height="56" rx="5" fill="#ecfdf5" stroke="#6ee7b7"/>
  <text x="448" y="12" text-anchor="end" class="ct">۴) هیچ الگوی جهانشمولی وجود ندارد</text>
  <text x="448" y="24" text-anchor="end" class="bd">هر مورد یگانه است: تاریخ، سرکوب، مرزها،</text>
  <text x="448" y="34" text-anchor="end" class="bd">قدرت‌های بزرگ و ظرفیت دولت اهمیت دارد.</text>
  <text x="448" y="47" text-anchor="end" class="mn">Context beats abstract doctrine</text>
</g>

<!-- ROW 4 -->
<rect x="10" y="588" width="1169" height="245" rx="10" fill="#fff" stroke="#e0e7ff" filter="url(#sh)"/>
<text x="1165" y="602" text-anchor="end" class="sec">هیت‌مپ: تعداد کشورها به تفکیک مدل حکمرانی و منطقه جغرافیایی</text>

<g transform="translate(20,614)">
  <text x="0" y="0" class="sm">راهنما</text>
  <rect x="40" y="-8" width="16" height="10" rx="2" class="hm0" stroke="#cbd5e1"/><text x="60" y="0" class="tn">۰-۲</text>
  <rect x="85" y="-8" width="16" height="10" rx="2" class="hm1" stroke="#cbd5e1"/><text x="105" y="0" class="tn">۳-۵</text>
  <rect x="130" y="-8" width="16" height="10" rx="2" class="hm2" stroke="#cbd5e1"/><text x="150" y="0" class="tn">۶-۱۰</text>
  <rect x="175" y="-8" width="16" height="10" rx="2" class="hm3" stroke="#cbd5e1"/><text x="195" y="0" class="tn">۱۱-۱۵</text>
  <rect x="220" y="-8" width="16" height="10" rx="2" class="hm4" stroke="#cbd5e1"/><text x="240" y="0" class="tn">۱۶-۲۰</text>
  <rect x="265" y="-8" width="16" height="10" rx="2" class="hm5" stroke="#cbd5e1"/><text x="285" y="0" class="tn">۲۱-۲۵</text>
  <rect x="310" y="-8" width="16" height="10" rx="2" class="hm6" stroke="#cbd5e1"/><text x="330" y="0" class="tn">۲۶-۳۰</text>
  <rect x="355" y="-8" width="16" height="10" rx="2" class="hm7" stroke="#cbd5e1"/><text x="375" y="0" class="tn">۳۰+</text>
</g>

<g transform="translate(20,632)">
  <rect x="0" y="0" width="180" height="18" rx="3" fill="#e0e7ff"/>
  <text x="90" y="12" text-anchor="middle" class="tblh">مدل حکمرانی</text>

  <rect x="188" y="0" width="105" height="18" rx="3" fill="#e0e7ff"/>
  <text x="240" y="12" text-anchor="middle" class="tblh">اروپا</text>

  <rect x="301" y="0" width="105" height="18" rx="3" fill="#e0e7ff"/>
  <text x="353" y="12" text-anchor="middle" class="tblh">آسیا</text>

  <rect x="414" y="0" width="105" height="18" rx="3" fill="#e0e7ff"/>
  <text x="466" y="12" text-anchor="middle" class="tblh">آفریقا</text>

  <rect x="527" y="0" width="120" height="18" rx="3" fill="#e0e7ff"/>
  <text x="587" y="12" text-anchor="middle" class="tblh">آمریکا</text>

  <rect x="655" y="0" width="105" height="18" rx="3" fill="#e0e7ff"/>
  <text x="707" y="12" text-anchor="middle" class="tblh">اقیانوسیه</text>

  <rect x="768" y="0" width="95" height="18" rx="3" fill="#dbeafe" stroke="#93c5fd"/>
  <text x="815" y="12" text-anchor="middle" class="tblh">مجموع</text>
</g>

<g transform="translate(20,656)">
  <rect x="0" y="0" width="180" height="24" rx="3" fill="#f8fafc" stroke="#e2e8f0"/>
  <text x="90" y="15" text-anchor="middle" class="tbl">بسیط متمرکز</text>
  <rect x="188" y="0" width="105" height="24" rx="3" class="hm4" stroke="#e2e8f0"/><text x="240" y="16" text-anchor="middle" class="tbln">≈۲۰</text>
  <rect x="301" y="0" width="105" height="24" rx="3" class="hm5" stroke="#e2e8f0"/><text x="353" y="16" text-anchor="middle" class="tbln">≈۲۵</text>
  <rect x="414" y="0" width="105" height="24" rx="3" class="hm7" stroke="#e2e8f0"/><text x="466" y="16" text-anchor="middle" class="tbln wh">≈۴۰</text>
  <rect x="527" y="0" width="120" height="24" rx="3" class="hm3" stroke="#e2e8f0"/><text x="587" y="16" text-anchor="middle" class="tbln">≈۱۵</text>
  <rect x="655" y="0" width="105" height="24" rx="3" class="hm2" stroke="#e2e8f0"/><text x="707" y="16" text-anchor="middle" class="tbln">≈۸</text>
  <rect x="768" y="0" width="95" height="24" rx="3" fill="#e0f2fe" stroke="#7dd3fc"/><text x="815" y="16" text-anchor="middle" class="tbln">≈۱۰۸</text>

  <rect x="0" y="28" width="180" height="24" rx="3" fill="#f8fafc" stroke="#e2e8f0"/>
  <text x="90" y="43" text-anchor="middle" class="tbl">بسیط تمرکززدایی‌شده</text>
  <rect x="188" y="28" width="105" height="24" rx="3" class="hm3" stroke="#e2e8f0"/><text x="240" y="44" text-anchor="middle" class="tbln">≈۱۲</text>
  <rect x="301" y="28" width="105" height="24" rx="3" class="hm2" stroke="#e2e8f0"/><text x="353" y="44" text-anchor="middle" class="tbln">≈۸</text>
  <rect x="414" y="28" width="105" height="24" rx="3" class="hm2" stroke="#e2e8f0"/><text x="466" y="44" text-anchor="middle" class="tbln">≈۸</text>
  <rect x="527" y="28" width="120" height="24" rx="3" class="hm2" stroke="#e2e8f0"/><text x="587" y="44" text-anchor="middle" class="tbln">≈۱۰</text>
  <rect x="655" y="28" width="105" height="24" rx="3" class="hm1" stroke="#e2e8f0"/><text x="707" y="44" text-anchor="middle" class="tbln">≈۴</text>
  <rect x="768" y="28" width="95" height="24" rx="3" fill="#e0f2fe" stroke="#7dd3fc"/><text x="815" y="44" text-anchor="middle" class="tbln">≈۴۲</text>

  <rect x="0" y="56" width="180" height="24" rx="3" fill="#f8fafc" stroke="#e2e8f0"/>
  <text x="90" y="71" text-anchor="middle" class="tbl">منطقه‌ای / شبه‌فدرال</text>
  <rect x="188" y="56" width="105" height="24" rx="3" class="hm1" stroke="#e2e8f0"/><text x="240" y="72" text-anchor="middle" class="tbln">≈۴</text>
  <rect x="301" y="56" width="105" height="24" rx="3" class="hm0" stroke="#e2e8f0"/><text x="353" y="72" text-anchor="middle" class="tbln">≈۲</text>
  <rect x="414" y="56" width="105" height="24" rx="3" class="hm0" stroke="#e2e8f0"/><text x="466" y="72" text-anchor="middle" class="tbln">≈۱</text>
  <rect x="527" y="56" width="120" height="24" rx="3" class="hm0" stroke="#e2e8f0"/><text x="587" y="72" text-anchor="middle" class="tbln">≈۱</text>
  <rect x="655" y="56" width="105" height="24" rx="3" class="hm0" stroke="#e2e8f0"/><text x="707" y="72" text-anchor="middle" class="tbln">≈۰</text>
  <rect x="768" y="56" width="95" height="24" rx="3" fill="#e0f2fe" stroke="#7dd3fc"/><text x="815" y="72" text-anchor="middle" class="tbln">≈۸</text>

  <rect x="0" y="84" width="180" height="24" rx="3" fill="#f8fafc" stroke="#e2e8f0"/>
  <text x="90" y="99" text-anchor="middle" class="tbl">فدرال متقارن</text>
  <rect x="188" y="84" width="105" height="24" rx="3" class="hm1" stroke="#e2e8f0"/><text x="240" y="100" text-anchor="middle" class="tbln">≈۴</text>
  <rect x="301" y="84" width="105" height="24" rx="3" class="hm1" stroke="#e2e8f0"/><text x="353" y="100" text-anchor="middle" class="tbln">≈۳</text>
  <rect x="414" y="84" width="105" height="24" rx="3" class="hm0" stroke="#e2e8f0"/><text x="466" y="100" text-anchor="middle" class="tbln">≈۲</text>
  <rect x="527" y="84" width="120" height="24" rx="3" class="hm1" stroke="#e2e8f0"/><text x="587" y="100" text-anchor="middle" class="tbln">≈۵</text>
  <rect x="655" y="84" width="105" height="24" rx="3" class="hm1" stroke="#e2e8f0"/><text x="707" y="100" text-anchor="middle" class="tbln">≈۳</text>
  <rect x="768" y="84" width="95" height="24" rx="3" fill="#e0f2fe" stroke="#7dd3fc"/><text x="815" y="100" text-anchor="middle" class="tbln">≈۱۷</text>

  <rect x="0" y="112" width="180" height="24" rx="3" fill="#f8fafc" stroke="#e2e8f0"/>
  <text x="90" y="127" text-anchor="middle" class="tbl">فدرال نامتقارن</text>
  <rect x="188" y="112" width="105" height="24" rx="3" class="hm1" stroke="#e2e8f0"/><text x="240" y="128" text-anchor="middle" class="tbln">≈۳</text>
  <rect x="301" y="112" width="105" height="24" rx="3" class="hm1" stroke="#e2e8f0"/><text x="353" y="128" text-anchor="middle" class="tbln">≈۴</text>
  <rect x="414" y="112" width="105" height="24" rx="3" class="hm1" stroke="#e2e8f0"/><text x="466" y="128" text-anchor="middle" class="tbln">≈۳</text>
  <rect x="527" y="112" width="120" height="24" rx="3" class="hm0" stroke="#e2e8f0"/><text x="587" y="128" text-anchor="middle" class="tbln">≈۲</text>
  <rect x="655" y="112" width="105" height="24" rx="3" class="hm0" stroke="#e2e8f0"/><text x="707" y="128" text-anchor="middle" class="tbln">≈۰</text>
  <rect x="768" y="112" width="95" height="24" rx="3" fill="#e0f2fe" stroke="#7dd3fc"/><text x="815" y="128" text-anchor="middle" class="tbln">≈۱۲</text>

  <rect x="0" y="140" width="180" height="24" rx="3" fill="#f8fafc" stroke="#e2e8f0"/>
  <text x="90" y="155" text-anchor="middle" class="tbl">واحدهای خودمختار ویژه</text>
  <rect x="188" y="140" width="105" height="24" rx="3" class="hm2" stroke="#e2e8f0"/><text x="240" y="156" text-anchor="middle" class="tbln">≈۶</text>
  <rect x="301" y="140" width="105" height="24" rx="3" class="hm1" stroke="#e2e8f0"/><text x="353" y="156" text-anchor="middle" class="tbln">≈۴</text>
  <rect x="414" y="140" width="105" height="24" rx="3" class="hm0" stroke="#e2e8f0"/><text x="466" y="156" text-anchor="middle" class="tbln">≈۲</text>
  <rect x="527" y="140" width="120" height="24" rx="3" class="hm1" stroke="#e2e8f0"/><text x="587" y="156" text-anchor="middle" class="tbln">≈۳</text>
  <rect x="655" y="140" width="105" height="24" rx="3" class="hm0" stroke="#e2e8f0"/><text x="707" y="156" text-anchor="middle" class="tbln">≈۱</text>
  <rect x="768" y="140" width="95" height="24" rx="3" fill="#e0f2fe" stroke="#7dd3fc"/><text x="815" y="156" text-anchor="middle" class="tbln">≈۱۶</text>
</g>

<g transform="translate(900,632)">
  <rect width="266" height="164" rx="8" fill="#f8fafc" stroke="#cbd5e1"/>
  <text x="258" y="14" text-anchor="end" class="ct">تحلیل هیت‌مپ</text>
  <text x="258" y="30" text-anchor="end" class="bd">• مدل غالب جهان هنوز بسیط متمرکز است.</text>
  <text x="258" y="42" text-anchor="end" class="bd">• آفریقا بیشترین تمرکز را دارد (≈۴۰ کشور).</text>
  <text x="258" y="54" text-anchor="end" class="bd">• اروپا متنوع‌ترین قاره از نظر مدل حکمرانی است.</text>
  <text x="258" y="66" text-anchor="end" class="bd">• آمریکا بیشترین فدرالیسم متقارن را دارد.</text>
  <text x="258" y="78" text-anchor="end" class="bd">• آسیا بیشترین فدرالیسم نامتقارن را نشان می‌دهد.</text>
  <text x="258" y="96" text-anchor="end" class="sm">جمع‌بندی کلان:</text>
  <text x="258" y="108" text-anchor="end" class="sm">تمرکززدایی در جهان رو به افزایش است،</text>
  <text x="258" y="118" text-anchor="end" class="sm">اما فدرالیسم هنوز اقلیتِ مدل‌هاست.</text>
  <text x="258" y="136" text-anchor="end" class="tn">فدرالیسم (متقارن+نامتقارن): ≈۲۹ کشور</text>
  <text x="258" y="146" text-anchor="end" class="tn">مدل‌های بسیط (دو نوع): ≈۱۵۰ کشور</text>
  <text x="258" y="156" text-anchor="end" class="tn">واحدهای ویژه: ≈۱۶ کشور</text>
</g>

<!-- footer -->
<text x="1165" y="828" text-anchor="end" class="tn">نسخه بازنویسی‌شده و دقیق‌تر — اعداد تقریبی و تحلیلی‌اند؛ برخی کشورها بین چند مدل قرار می‌گیرند — قابل ویرایش در Inkscape / Illustrator / Figma</text>
</svg>