<svg xmlns="http://www.w3.org/2000/svg" width="594mm" height="841mm" viewBox="0 0 594 841">
  <defs>
    <linearGradient id="bg" x1="0" y1="0" x2="1" y2="1">
      <stop offset="0%" stop-color="#f7fbff" />
      <stop offset="42%" stop-color="#f8f7ff" />
      <stop offset="100%" stop-color="#fff8f2" />
    </linearGradient>

    <linearGradient id="header" x1="0" y1="0" x2="1" y2="0">
      <stop offset="0%" stop-color="#0f172a" />
      <stop offset="50%" stop-color="#1e293b" />
      <stop offset="100%" stop-color="#334155" />
    </linearGradient>

    <filter id="shadow" x="-20%" y="-20%" width="160%" height="160%">
      <feDropShadow dx="0" dy="1.8" stdDeviation="2.2" flood-color="#64748b" flood-opacity="0.24" />
    </filter>

    <style>
      .title {
        font: 700 13px 'Vazirmatn', 'Noto Sans Arabic', sans-serif;
        fill: #fff;
      }

      .subtitle {
        font: 500 5px 'Vazirmatn', 'Noto Sans Arabic', sans-serif;
        fill: #dbeafe;
      }

      .section {
        font: 700 7px 'Vazirmatn', 'Noto Sans Arabic', sans-serif;
        fill: #0f172a;
      }

      .subsection {
        font: 700 6px 'Vazirmatn', 'Noto Sans Arabic', sans-serif;
        fill: #0f172a;
      }

      .mapbox {
        font: 700 4.3px 'Vazirmatn', 'Noto Sans Arabic', sans-serif;
        fill: #0f172a;
      }

      .cardtitle {
        font: 700 5.35px 'Vazirmatn', 'Noto Sans Arabic', sans-serif;
        fill: #0f172a;
      }

      .body {
        font: 500 3.75px 'Vazirmatn', 'Noto Sans Arabic', sans-serif;
        fill: #334155;
      }

      .small {
        font: 500 3.3px 'Vazirmatn', 'Noto Sans Arabic', sans-serif;
        fill: #475569;
      }

      .tiny {
        font: 500 2.95px 'Vazirmatn', 'Noto Sans Arabic', sans-serif;
        fill: #64748b;
      }

      .label {
        font: 700 3.9px 'Vazirmatn', 'Noto Sans Arabic', sans-serif;
        fill: #0f172a;
      }

      .sidelabel {
        font: 700 4.2px 'Vazirmatn', 'Noto Sans Arabic', sans-serif;
        fill: #1e293b;
      }

      .mono {
        font: 600 2.75px ui-monospace, monospace;
        fill: #334155;
      }

      .white {
        fill: #fff;
      }
    </style>

    <!-- icons -->
    <g id="i-liberty">
      <circle cx="7" cy="5" r="2.1" fill="#fbbf24" />
      <path d="M7 7.3 C5 8.9,4 11.7,4 14.4 H10 C10 11.7,9 8.9,7 7.3 Z" fill="#f59e0b" />
      <rect x="6.4" y="1.2" width="1.2" height="3.8" fill="#fde68a" />
    </g>
    <g id="i-vote">
      <rect x="2" y="4" width="10" height="8" rx="1.1" fill="#dbeafe" stroke="#3b82f6" stroke-width="0.7" />
      <path d="M4.4 8 L5.8 9.3 L8.9 6.2" fill="none" stroke="#2563eb" stroke-width="1" stroke-linecap="round"
        stroke-linejoin="round" />
      <rect x="5" y="1.5" width="4" height="3" rx="0.6" fill="#60a5fa" />
    </g>
    <g id="i-balance">
      <path d="M7 2.4 L9.5 2.4 L8.2 4.9 Z" fill="#64748b" />
      <rect x="7.6" y="2.4" width="1.1" height="8.1" rx="0.5" fill="#475569" />
      <rect x="3.5" y="10.7" width="9.4" height="1.4" rx="0.6" fill="#334155" />
      <line x1="2.3" y1="4.4" x2="14.1" y2="4.4" stroke="#475569" stroke-width="1" />
      <path d="M3.5 4.4 L1.5 7.5 H5.4 Z" fill="#94a3b8" />
      <path d="M12.8 4.4 L10.8 7.5 H14.8 Z" fill="#94a3b8" />
    </g>
    <g id="i-state">
      <rect x="2" y="4.1" width="11" height="8.3" rx="0.8" fill="#fecaca" stroke="#ef4444" stroke-width="0.7" />
      <rect x="3.4" y="2.4" width="8.2" height="2.1" fill="#f87171" />
      <rect x="4.2" y="6.6" width="1.8" height="5.8" fill="#fca5a5" />
      <rect x="6.8" y="6.6" width="1.8" height="5.8" fill="#fca5a5" />
      <rect x="9.4" y="6.6" width="1.8" height="5.8" fill="#fca5a5" />
    </g>
    <g id="i-market">
      <path d="M2.3 5.4 H12.9 L11.6 10.5 H3.6 Z" fill="#fde68a" stroke="#f59e0b" stroke-width="0.7" />
      <path d="M3.6 5.4 C3.6 3.1,11.6 3.1,11.6 5.4" fill="#fbbf24" />
      <circle cx="5.4" cy="12" r="0.85" fill="#92400e" />
      <circle cx="9.9" cy="12" r="0.85" fill="#92400e" />
    </g>
    <g id="i-map">
      <path d="M2.5 3.2 L5.7 2 L9.5 3.3 L12.6 2.1 V10.8 L9.5 12 L5.7 10.9 L2.5 12 Z" fill="#a5f3fc" stroke="#06b6d4"
        stroke-width="0.7" />
      <line x1="5.7" y1="2" x2="5.7" y2="10.9" stroke="#0891b2" stroke-width="0.45" />
      <line x1="9.5" y1="3.3" x2="9.5" y2="12" stroke="#0891b2" stroke-width="0.45" />
    </g>

    <!-- paradox icon -->
    <g id="i-paradox">
      <circle cx="24" cy="24" r="17" fill="none" stroke="#334155" stroke-width="2.2" />
      <path d="M24 7
               C34 7, 40 14, 40 24
               C40 33, 34 40, 24 40
               C15 40, 10 35, 9 29
               C8 23, 11 18, 17 17
               C21 16, 24 18, 24 22
               C24 26, 21 28, 18 28
               C15 28, 13.5 26, 13 24" fill="none" stroke="#ef4444" stroke-width="2.4" stroke-linecap="round" />
      <polygon points="14,20 18,16 19,22" fill="#ef4444" />
      <path d="M27 12 C30 12, 33 14, 34 16" fill="none" stroke="#0f172a" stroke-width="1.4" stroke-linecap="round" />
      <path d="M34 16 C30 16, 27 18, 26 21" fill="none" stroke="#0f172a" stroke-width="1.4" stroke-linecap="round" />
    </g>

    <!-- chips -->
    <g id="chip-blue">
      <rect x="0" y="0" width="7.4" height="7.4" rx="2" fill="#dbeafe" stroke="#60a5fa" />
    </g>
    <g id="chip-purple">
      <rect x="0" y="0" width="7.4" height="7.4" rx="2" fill="#ede9fe" stroke="#a78bfa" />
    </g>
    <g id="chip-green">
      <rect x="0" y="0" width="7.4" height="7.4" rx="2" fill="#dcfce7" stroke="#4ade80" />
    </g>
    <g id="chip-pink">
      <rect x="0" y="0" width="7.4" height="7.4" rx="2" fill="#fae8ff" stroke="#e879f9" />
    </g>
    <g id="chip-red">
      <rect x="0" y="0" width="7.4" height="7.4" rx="2" fill="#fee2e2" stroke="#f87171" />
    </g>
    <g id="chip-amber">
      <rect x="0" y="0" width="7.4" height="7.4" rx="2" fill="#fef3c7" stroke="#fbbf24" />
    </g>
    <g id="chip-rose">
      <rect x="0" y="0" width="7.4" height="7.4" rx="2" fill="#ffe4e6" stroke="#fb7185" />
    </g>
    <g id="chip-cyan">
      <rect x="0" y="0" width="7.4" height="7.4" rx="2" fill="#cffafe" stroke="#22d3ee" />
    </g>
  </defs>

  <rect width="594" height="841" fill="url(#bg)" />

  <!-- HEADER -->
  <rect x="10" y="10" width="574" height="40" rx="8" fill="url(#header)" filter="url(#shadow)" />
  <text x="572" y="24.5" text-anchor="end" class="title">پارادوکس‌های سیاسی-اجتماعی: نمای کلی، دسته‌بندی، منطق نهادی،
    نمونه‌ها و روایت‌های تصویری</text>
  <text x="572" y="35.5" text-anchor="end" class="subtitle">Big Picture + Detailed Knowledge + Visual Narratives</text>
  <text x="572" y="43.5" text-anchor="end" class="subtitle">نسخه اصلاح‌شده: خوانایی بهتر، فونت‌های درشت‌تر، نقشهٔ کلی
    منظم‌تر، و نمایش تصویریِ مفهوم «اصلِ خوب که بر ضد خود عمل می‌کند»</text>

  <!-- intro -->
  <rect x="10" y="56" width="574" height="28" rx="6" fill="#ffffff" stroke="#e2e8f0" filter="url(#shadow)" />
  <text x="574" y="64.5" text-anchor="end" class="section">فرمول سادهٔ بیشتر این پارادوکس‌ها</text>
  <text x="574" y="72.5" text-anchor="end" class="body">۱) یک اصل خوب داریم، ۲) آن را مطلق یا بی‌قید اجرا می‌کنیم، یا
    نابرابری قدرت را نادیده می‌گیریم، ۳) اصل، شرایط امکان خودش را تضعیف می‌کند یا با خیرِ دیگری در تعارض پایدار می‌افتد،
    ۴) راه‌حل معمول، طراحی نهادی و موازنه است.</text>
  <text x="574" y="79.2" text-anchor="end" class="tiny">مثال: رواداری مطلق ← نابودی رواداری | آزادی مطلق ← سلطه |
    اکثریتِ بی‌مهار ← استبداد اکثریت | بازارِ بی‌تنظیم ← انحصار</text>

  <!-- legend -->
  <g transform="translate(12,88)">
    <use href="#chip-blue" x="0" y="0" /><text x="11" y="5.3" class="small">آزادی و جامعه باز</text>
    <use href="#chip-purple" x="74" y="0" /><text x="85" y="5.3" class="small">دموکراسی و نمایندگی</text>
    <use href="#chip-green" x="157" y="0" /><text x="168" y="5.3" class="small">عدالت و برابری</text>
    <use href="#chip-pink" x="235" y="0" /><text x="246" y="5.3" class="small">هویت و کثرت</text>
    <use href="#chip-red" x="309" y="0" /><text x="320" y="5.3" class="small">دولت و نهادها</text>
    <use href="#chip-amber" x="379" y="0" /><text x="390" y="5.3" class="small">اقتصاد سیاسی</text>
    <use href="#chip-rose" x="455" y="0" /><text x="466" y="5.3" class="small">صلح و گذار</text>
    <use href="#chip-cyan" x="521" y="0" /><text x="532" y="5.3" class="small">سرزمین و فدرالیسم</text>
  </g>

  <!-- OVERVIEW -->
  <rect x="10" y="102" width="574" height="140" rx="8" fill="#ffffff" stroke="#e2e8f0" filter="url(#shadow)" />
  <text x="574" y="112" text-anchor="end" class="section">نمای کلی: نقشهٔ بزرگِ پارادوکس‌ها</text>

  <!-- central node -->
  <rect x="233" y="124" width="128" height="18" rx="5" fill="#0f172a" />
  <text x="353" y="135.5" text-anchor="end" class="mapbox white">پارادوکس‌های سیاسی-اجتماعی</text>

  <!-- top row boxes -->
  <rect x="26" y="160" width="128" height="26" rx="6" fill="#dbeafe" stroke="#60a5fa" />
  <text x="146" y="170.5" text-anchor="end" class="mapbox">آزادی • رواداری • آزادی بیان</text>
  <text x="146" y="179.5" text-anchor="end" class="mapbox">امنیت / حریم خصوصی</text>

  <rect x="166" y="160" width="128" height="26" rx="6" fill="#ede9fe" stroke="#a78bfa" />
  <text x="286" y="170.5" text-anchor="end" class="mapbox">دموکراسی • اکثریت</text>
  <text x="286" y="179.5" text-anchor="end" class="mapbox">نمایندگی • تکنوکراسی</text>

  <rect x="306" y="160" width="128" height="26" rx="6" fill="#dcfce7" stroke="#4ade80" />
  <text x="426" y="170.5" text-anchor="end" class="mapbox">برابری • قانون / عدالت</text>
  <text x="426" y="179.5" text-anchor="end" class="mapbox">حقوق • انصاف</text>

  <rect x="446" y="160" width="122" height="26" rx="6" fill="#fae8ff" stroke="#e879f9" />
  <text x="560" y="170.5" text-anchor="end" class="mapbox">هویت • کثرت‌گرایی</text>
  <text x="560" y="179.5" text-anchor="end" class="mapbox">سکولاریسم • چندفرهنگ‌گرایی</text>

  <!-- second row -->
  <rect x="56" y="200" width="118" height="24" rx="6" fill="#fee2e2" stroke="#f87171" />
  <text x="166" y="210.5" text-anchor="end" class="mapbox">اقتدار • مشروعیت</text>
  <text x="166" y="218.5" text-anchor="end" class="mapbox">شفافیت • قضا</text>

  <rect x="190" y="200" width="98" height="24" rx="6" fill="#fef3c7" stroke="#fbbf24" />
  <text x="280" y="210.5" text-anchor="end" class="mapbox">بازار • مالکیت</text>
  <text x="280" y="218.5" text-anchor="end" class="mapbox">رفاه • انحصار</text>

  <rect x="304" y="200" width="106" height="24" rx="6" fill="#ffe4e6" stroke="#fb7185" />
  <text x="402" y="210.5" text-anchor="end" class="mapbox">صلح • انقلاب</text>
  <text x="402" y="218.5" text-anchor="end" class="mapbox">اصلاحات • گذار</text>

  <rect x="426" y="200" width="132" height="24" rx="6" fill="#cffafe" stroke="#22d3ee" />
  <text x="550" y="210.5" text-anchor="end" class="mapbox">فدرالیسم • خودمختاری</text>
  <text x="550" y="218.5" text-anchor="end" class="mapbox">مرزها • وحدت / واگرایی</text>

  <!-- clean connection lines -->
  <line x1="297" y1="142" x2="90" y2="160" stroke="#cbd5e1" stroke-width="1.1" />
  <line x1="297" y1="142" x2="230" y2="160" stroke="#cbd5e1" stroke-width="1.1" />
  <line x1="297" y1="142" x2="370" y2="160" stroke="#cbd5e1" stroke-width="1.1" />
  <line x1="297" y1="142" x2="507" y2="160" stroke="#cbd5e1" stroke-width="1.1" />

  <line x1="297" y1="142" x2="115" y2="200" stroke="#cbd5e1" stroke-width="1.1" />
  <line x1="297" y1="142" x2="239" y2="200" stroke="#cbd5e1" stroke-width="1.1" />
  <line x1="297" y1="142" x2="357" y2="200" stroke="#cbd5e1" stroke-width="1.1" />
  <line x1="297" y1="142" x2="492" y2="200" stroke="#cbd5e1" stroke-width="1.1" />

  <text x="574" y="235" text-anchor="end" class="body">این شاخه‌ها متفاوت‌اند، اما اغلب به همان الگو برمی‌گردند: «خیرِ
    بی‌مهار» یا «تنش میان دو خیر».</text>

  <!-- LEFT COLUMN -->
  <rect x="10" y="252" width="186" height="404" rx="8" fill="#ffffff" stroke="#dbeafe" filter="url(#shadow)" />
  <use href="#i-liberty" x="14" y="256" />
  <text x="188" y="264" text-anchor="end" class="section">۱) آزادی و جامعه باز + دموکراسی و نمایندگی</text>
  بی قیدی
  <g transform="translate(14,272)">
    <rect width="178" height="54" rx="5" fill="#eff6ff" stroke="#93c5fd" />
    <text x="171" y="8" text-anchor="end" class="cardtitle">پارادوکس رواداری</text>
    <text x="171" y="15.5" text-anchor="end" class="body">فهم صوری برابری = بقای نابرابری، رفع واقعی نابرابری = مداخله
      نامتقارن</text>
    <text x="171" y="24" text-anchor="end" class="small">خطر افراط: استفاده از آزادی برای برچیدن آزادی.</text>
    <text x="171" y="32" text-anchor="end" class="small">راه‌حل: دفاع از قانون اساسی، منع تحریک مستقیم خشونت، محدودیت
      دقیق نه مبهم.</text>
    <text x="171" y="41" text-anchor="end" class="tiny">روایت: درِ باز اگر برای آتش‌افروز هم همیشه باز بماند، خانهٔ باز
      دیگر باقی نمی‌ماند.</text>
    <text x="171" y="49" text-anchor="end" class="mono">Tolerance can self-destruct</text>
  </g>

  <g transform="translate(14,330)">
    <rect width="178" height="54" rx="5" fill="#eff6ff" stroke="#93c5fd" />
    <text x="171" y="8" text-anchor="end" class="cardtitle">پارادوکس آزادی</text>
    <text x="171" y="15.5" text-anchor="end" class="body">آزادیِ مطلق، در زمینه‌ای با قدرت‌های نابرابر، می‌تواند آزادیِ
      واقعیِ ضعیف‌ترها را تهی کند.</text>
    <text x="171" y="24" text-anchor="end" class="small">خطر افراط: استثمار، ارعاب، خشونت خصوصی، انتخاب‌های ظاهراً آزاد
      اما واقعی‌نبودنِ آنها.</text>
    <text x="171" y="32" text-anchor="end" class="small">راه‌حل: ضدسلطه، قانون، حقوق کار، و قواعدی که امکان انتخاب واقعی
      را حفظ کنند.</text>
    <text x="171" y="41" text-anchor="end" class="tiny">روایت: مسابقهٔ بی‌داور معمولاً فقط «آزاد» نیست، بلکه به نفع
      قوی‌ترین بازیکن خم می‌شود.</text>
    <text x="171" y="49" text-anchor="end" class="mono">Liberty without limits can empower domination</text>
  </g>

  <g transform="translate(14,388)">
    <rect width="178" height="54" rx="5" fill="#eff6ff" stroke="#93c5fd" />
    <text x="171" y="8" text-anchor="end" class="cardtitle">پارادوکس آزادی بیان</text>
    <text x="171" y="15.5" text-anchor="end" class="body">بیانِ کاملاً بی‌حد می‌تواند با تهدید، نفرت و دروغ‌پراکنیِ
      سازمان‌یافته، میدان گفت‌وگوی آزاد را تخریب کند.</text>
    <text x="171" y="24" text-anchor="end" class="small">خطر افراط: خاموش‌شدن قربانیان یا سانسور وسیع به نام
      حفاظت.</text>
    <text x="171" y="32" text-anchor="end" class="small">راه‌حل: معیار دقیق برای تهدید، افترا، تحریک خشونت و عملیات
      هماهنگِ گمراه‌سازی.</text>
    <text x="171" y="41" text-anchor="end" class="tiny">روایت: اگر چند نفر همیشه با بلندگو فضا را پر کنند، آزادیِ صدای
      بقیه عملاً از بین می‌رود.</text>
    <text x="171" y="49" text-anchor="end" class="mono">Speech absolutism can erode speech conditions</text>
  </g>

  <g transform="translate(14,446)">
    <rect width="178" height="54" rx="5" fill="#eff6ff" stroke="#93c5fd" />
    <text x="171" y="8" text-anchor="end" class="cardtitle">پارادوکس امنیت و آزادی</text>
    <text x="171" y="15.5" text-anchor="end" class="body">امنیت بیشتر معمولاً نظارت و کنترل بیشتری می‌طلبد؛ اما همین
      کنترل، آزادی و حریم خصوصی را محدود می‌کند.</text>
    <text x="171" y="24" text-anchor="end" class="small">خطر افراط: جامعهٔ مراقبتی، عادی‌شدن وضعیت اضطراری، خودسانسوری
      عمومی.</text>
    <text x="171" y="32" text-anchor="end" class="small">راه‌حل: اصل تناسب، نظارت قضایی، زمان‌مندی و گزارش‌دهی.</text>
    <text x="171" y="41" text-anchor="end" class="tiny">روایت: قفل خوب است؛ اما اگر همه دیوارها شیشه‌ای شوند، زندگی
      خصوصی از بین می‌رود.</text>
    <text x="171" y="49" text-anchor="end" class="mono">Security can consume liberty</text>
  </g>

  <g transform="translate(14,504)">
    <rect width="178" height="16" rx="5" fill="#f5f3ff" stroke="#c4b5fd" />
    <use href="#i-vote" x="3" y="1" />
    <text x="171" y="10.5" text-anchor="end" class="cardtitle">دموکراسی و نمایندگی</text>
  </g>

  <g transform="translate(14,525)">
    <rect width="86" height="55" rx="5" fill="#f5f3ff" stroke="#c4b5fd" />
    <text x="80" y="8" text-anchor="end" class="cardtitle">پارادوکس دموکراسی</text>
    <text x="80" y="16" text-anchor="end" class="small">مردم می‌توانند</text>
    <text x="80" y="21" text-anchor="end" class="small">به نیرویی رأی دهند</text>
    <text x="80" y="26" text-anchor="end" class="small">که بعداً همان قواعد</text>
    <text x="80" y="31" text-anchor="end" class="small">رقابت را تضعیف کند.</text>
    <text x="80" y="41" text-anchor="end" class="tiny">راه‌حل: حقوق بنیادین،</text>
    <text x="80" y="46" text-anchor="end" class="tiny">قضا، رسانه، تفکیک قوا</text>

    <rect x="92" width="86" height="55" rx="5" fill="#f5f3ff" stroke="#c4b5fd" />
    <text x="172" y="8" text-anchor="end" class="cardtitle">پارادوکس اکثریت</text>
    <text x="172" y="16" text-anchor="end" class="small">اصل اکثریت لازم است،</text>
    <text x="172" y="21" text-anchor="end" class="small">اما اکثریتِ بی‌مهار</text>
    <text x="172" y="26" text-anchor="end" class="small">می‌تواند حقوق اقلیت</text>
    <text x="172" y="31" text-anchor="end" class="small">را زیر پا بگذارد.</text>
    <text x="172" y="41" text-anchor="end" class="tiny">راه‌حل: منشور حقوق،</text>
    <text x="172" y="46" text-anchor="end" class="tiny">دادگاه، مجلس دوم</text>
  </g>

  <g transform="translate(14,585)">
    <rect width="86" height="55" rx="5" fill="#f5f3ff" stroke="#c4b5fd" />
    <text x="80" y="8" text-anchor="end" class="cardtitle">پارادوکس نمایندگی</text>
    <text x="80" y="16" text-anchor="end" class="small">نماینده باید هم</text>
    <text x="80" y="21" text-anchor="end" class="small">صدای مردم باشد و هم</text>
    <text x="80" y="26" text-anchor="end" class="small">تشخیص مستقل داشته باشد.</text>
    <text x="80" y="41" text-anchor="end" class="tiny">راه‌حل: احزاب، شفافیت رأی،</text>
    <text x="80" y="46" text-anchor="end" class="tiny">انتخابات دوره‌ای</text>

    <rect x="92" width="86" height="55" rx="5" fill="#f5f3ff" stroke="#c4b5fd" />
    <text x="172" y="8" text-anchor="end" class="cardtitle">تکنوکراسی/دموکراسی</text>
    <text x="172" y="16" text-anchor="end" class="small">سیاست به تخصص نیاز</text>
    <text x="172" y="21" text-anchor="end" class="small">دارد؛ اما مشروعیت</text>
    <text x="172" y="26" text-anchor="end" class="small">باید پاسخ‌گوی مردم بماند.</text>
    <text x="172" y="41" text-anchor="end" class="tiny">راه‌حل: نهاد تخصصیِ</text>
    <text x="172" y="46" text-anchor="end" class="tiny">پاسخ‌گو و شفاف</text>
  </g>

  <!-- CENTER COLUMN -->
  <rect x="204" y="252" width="186" height="404" rx="8" fill="#ffffff" stroke="#bbf7d0" filter="url(#shadow)" />
  <use href="#i-balance" x="208" y="256" />
  <text x="382" y="264" text-anchor="end" class="section">۲) عدالت، برابری، هویت، کثرت و حقوق</text>

  <g transform="translate(208,272)">
    <rect width="178" height="56" rx="5" fill="#f0fdf4" stroke="#86efac" />
    <text x="171" y="8" text-anchor="end" class="cardtitle">پارادوکس برابری</text>
    <text x="171" y="15.3" text-anchor="end" class="body">فهم صوری برابری = بقای نابرابری، رفع واقعی نابرابری = مداخله
      نامتقارن.</text>
    <text x="171" y="23.2" text-anchor="end" class="small">خطر: یا تثبیت امتیازهای قدیمی، یا مداخله‌ای که مشروعیتش را از
      دست بدهد.</text>
    <text x="171" y="31.2" text-anchor="end" class="small">راه‌حل: بازتوزیع هدفمند، خدمات عمومی، فرصت‌سازی، و جبرانِ
      محدود و قابل‌ارزیابی.</text>
    <text x="171" y="40.5" text-anchor="end" class="tiny">روایت: اگر همه را از یک خط شروع کنیم ولی بعضی‌ها سال‌ها جلوتر
      بوده‌اند، برابری فقط روی کاغذ می‌ماند.</text>
    <text x="171" y="49.5" text-anchor="end" class="mono">Formal vs substantive equality</text>
  </g>

  <g transform="translate(208,332)">
    <rect width="178" height="56" rx="5" fill="#f0fdf4" stroke="#86efac" />
    <text x="171" y="8" text-anchor="end" class="cardtitle">پارادوکس قانون و عدالت</text>
    <text x="171" y="15.3" text-anchor="end" class="body">قانون برای جلوگیری از خودسری لازم است؛ اما اجرای خشک و مکانیکی
      آن می‌تواند به نتایج ناعادلانه برسد.</text>
    <text x="171" y="23.2" text-anchor="end" class="small">خطر: یا بی‌رحمی حقوقی، یا بی‌ثباتی اگر هر بار قانون کنار
      گذاشته شود.</text>
    <text x="171" y="31.2" text-anchor="end" class="small">راه‌حل: تفسیر قضایی، اصول انصاف، و اختیار محدود و
      قابل‌نظارت.</text>
    <text x="171" y="40.5" text-anchor="end" class="tiny">روایت: خط‌کش مفید است، اما همهٔ پیچیدگی‌های انسانی را نمی‌توان
      با یک خط صاف سنجید.</text>
    <text x="171" y="49.5" text-anchor="end" class="mono">Rule of law vs fairness</text>
  </g>

  <g transform="translate(208,392)">
    <rect width="178" height="56" rx="5" fill="#fae8ff" stroke="#e879f9" />
    <text x="171" y="8" text-anchor="end" class="cardtitle">پارادوکس کثرت‌گرایی</text>
    <text x="171" y="15.3" text-anchor="end" class="body">جامعه متنوع می‌خواهد تفاوت‌ها را بپذیرد؛ اما برای بقا به
      حداقلی از ارزش‌های مشترک نیاز دارد.</text>
    <text x="171" y="23.2" text-anchor="end" class="small">خطر: یا تجزیه هنجاری و ناتوانی در همزیستی، یا همسان‌سازی
      اجباری.</text>
    <text x="171" y="31.2" text-anchor="end" class="small">راه‌حل: قانون اساسی مشترک، زبان مدنی مشترک، و حقوق برابر در
      دل تنوع.</text>
    <text x="171" y="40.5" text-anchor="end" class="tiny">روایت: ارکستر به سازهای مختلف نیاز دارد، اما بدون کوک مشترک
      موسیقی فرو می‌پاشد.</text>
    <text x="171" y="49.5" text-anchor="end" class="mono">Pluralism needs a common floor</text>
  </g>

  <g transform="translate(208,452)">
    <rect width="178" height="56" rx="5" fill="#fae8ff" stroke="#e879f9" />
    <text x="171" y="8" text-anchor="end" class="cardtitle">پارادوکس هویت و شهروندی</text>
    <text x="171" y="15.3" text-anchor="end" class="body">هویت مشترک لازمه‌ی همبستگی سیاسی؛ ولی هر چه بسته‌تر شدن هویت،
      خودی ناخودی شدن بیشتر!</text>
    <text x="171" y="23.2" text-anchor="end" class="small">خطر: طرد شدن اقلیت‌ها، ملی‌گرایی تنگ، یا برعکس ضعف انسجام
      مدنی.</text>
    <text x="171" y="31.2" text-anchor="end" class="small">راه‌حل: شهروندی قانون‌اساسی، آموزش مدنی، نمادهای
      فراگیر.</text>
    <text x="171" y="40.5" text-anchor="end" class="tiny">روایت: اگر «ما» خیلی تنگ تعریف شود، همبستگی از بیرون‌کردن
      دیگران تغذیه می‌کند.</text>
    <text x="171" y="49.5" text-anchor="end" class="mono">Shared identity vs exclusion</text>
  </g>

  <g transform="translate(208,512)">
    <rect width="86" height="56" rx="5" fill="#fae8ff" stroke="#e879f9" />
    <text x="80" y="8" text-anchor="end" class="cardtitle">چندفرهنگ‌گرایی</text>
    <text x="80" y="16" text-anchor="end" class="small">احترام به فرهنگ‌ها</text>
    <text x="80" y="21" text-anchor="end" class="small">ممکن است تحمل</text>
    <text x="80" y="26" text-anchor="end" class="small">تبعیض درون‌گروهی</text>
    <text x="80" y="31" text-anchor="end" class="small">را بالا ببرد.</text>
    <text x="80" y="41" text-anchor="end" class="tiny">راه‌حل: تقدم حقوق</text>
    <text x="80" y="46" text-anchor="end" class="tiny">بنیادین فرد</text>

    <rect x="92" width="86" height="56" rx="5" fill="#fae8ff" stroke="#e879f9" />
    <text x="172" y="8" text-anchor="end" class="cardtitle">سکولاریسم و بی‌طرفی</text>
    <text x="172" y="16" text-anchor="end" class="small">برای بی‌طرفی دینی،</text>
    <text x="172" y="21" text-anchor="end" class="small">دولت ناچار به تنظیم</text>
    <text x="172" y="26" text-anchor="end" class="small">حضور دین در عرصه عمومی</text>
    <text x="172" y="31" text-anchor="end" class="small">می‌شود.</text>
    <text x="172" y="41" text-anchor="end" class="tiny">راه‌حل: سکولاریسم</text>
    <text x="172" y="46" text-anchor="end" class="tiny">حقوق‌محور، نه ستیزه‌جو</text>
  </g>

  <g transform="translate(208,572)">
    <rect width="178" height="72" rx="5" fill="#f8fafc" stroke="#cbd5e1" />
    <text x="171" y="10" text-anchor="end" class="cardtitle">جمع‌بندی این ستون</text>
    <text x="171" y="20" text-anchor="end" class="body">در حوزه عدالت و هویت، چالش آشتی دادن «قواعد واحد» با «تفاوت‌ها و
      نیازهای واقعی».</text>
    <text x="171" y="30" text-anchor="end" class="body">پرسش محوری: چه مقدار تفاوت را باید به رسمیت شناخت، بدون آنکه
      برابری حقوقی و وحدت مدنی از هم بپاشد؟</text>
    <text x="171" y="40" text-anchor="end" class="small">پاسخ نهادی رایج: حقوق بنیادین فرد + تنوع فرهنگیِ محدود + داوری
      قانون اساسی + خدمات عمومی برابر.</text>
    <text x="171" y="51" text-anchor="end" class="tiny">کلید فهم: «برابری» و «تنوع» الزاماً دشمن هم نیستند؛ اما بدون
      معماری حقوقی خوب، به‌راحتی علیه هم عمل می‌کنند.</text>
    <text x="171" y="63" text-anchor="end" class="mono">Universal rights / real differences / institutional
      balance</text>
  </g>

  <!-- RIGHT COLUMN -->
  <rect x="398" y="252" width="186" height="404" rx="8" fill="#ffffff" stroke="#fecaca" filter="url(#shadow)" />
  <use href="#i-state" x="402" y="256" />
  <text x="576" y="264" text-anchor="end" class="section">۳) دولت، اقتصاد سیاسی، صلح، فدرالیسم و مرزها</text>

  <g transform="translate(402,272)">
    <rect width="178" height="54" rx="5" fill="#fef2f2" stroke="#fca5a5" />
    <text x="171" y="8" text-anchor="end" class="cardtitle">پارادوکس اقتدار و مشروعیت</text>
    <text x="171" y="15.5" text-anchor="end" class="body">دولت برای اجرای قانون و حفظ نظم به اقتدار نیاز دارد؛ اما هرچه
      اقتدار بیشتر شود، خطر خودکامگی بالا می‌رود.</text>
    <text x="171" y="24" text-anchor="end" class="small">خطر: یا دولت ناتوان، یا دولت مستبد.</text>
    <text x="171" y="32" text-anchor="end" class="small">راه‌حل: تفکیک قوا، پاسخ‌گویی، رسانه و قضا، چرخش قدرت.</text>
    <text x="171" y="41" text-anchor="end" class="tiny">روایت: موتور قوی لازم است، اما بدون ترمز، همان قدرت به خطر تبدیل
      می‌شود.</text>
    <text x="171" y="49" text-anchor="end" class="mono">Authority needs brakes</text>
  </g>

  <g transform="translate(402,330)">
    <rect width="178" height="54" rx="5" fill="#fef2f2" stroke="#fca5a5" />
    <text x="171" y="8" text-anchor="end" class="cardtitle">پارادوکس شفافیت</text>
    <text x="171" y="15.5" text-anchor="end" class="body">شفافیت برای پاسخ‌گویی ضروری است؛ اما شفافیت کامل می‌تواند
      مذاکره، مصالحه و امنیت را مختل کند.</text>
    <text x="171" y="24" text-anchor="end" class="small">خطر: یا دولت تاریک، یا فلج شدن حکمرانی.</text>
    <text x="171" y="32" text-anchor="end" class="small">راه‌حل: شفافیت لایه‌بندی‌شده، استثنائات محدود، انتشار با
      تأخیر.</text>
    <text x="171" y="41" text-anchor="end" class="tiny">روایت: همهٔ گفت‌وگوها اگر در نور کامل باشند، شاید هیچ توافق
      واقعی شکل نگیرد.</text>
    <text x="171" y="49" text-anchor="end" class="mono">Transparency vs governability</text>
  </g>

  <g transform="translate(402,388)">
    <rect width="178" height="54" rx="5" fill="#fffbeb" stroke="#fcd34d" />
    <text x="171" y="8" text-anchor="end" class="cardtitle">پارادوکس بازار آزاد و انحصار</text>
    <text x="171" y="15.5" text-anchor="end" class="body">بازار آزاد قرار است رقابت بسازد، اما اگر کاملاً رها شود،
      بازیگران بزرگ می‌توانند انحصار بسازند.</text>
    <text x="171" y="24" text-anchor="end" class="small">خطر: تمرکز ثروت، سلطه اقتصادی و نفوذ سیاسی.</text>
    <text x="171" y="32" text-anchor="end" class="small">راه‌حل: ضدانحصار، قواعد رقابت، شفافیت بازار.</text>
    <text x="171" y="41" text-anchor="end" class="tiny">روایت: اگر یکی کل پیست را بخرد، دیگر مسابقهٔ آزاد نداریم.</text>
    <text x="171" y="49" text-anchor="end" class="mono">Free market can kill competition</text>
  </g>

  <g transform="translate(402,446)">
    <rect width="178" height="54" rx="5" fill="#fffbeb" stroke="#fcd34d" />
    <text x="171" y="8" text-anchor="end" class="cardtitle">پارادوکس رفاه و وابستگی</text>
    <text x="171" y="15.5" text-anchor="end" class="body">دولت رفاه برای کاهش آسیب‌پذیری ضروری است؛ اما طراحی بد آن
      می‌تواند وابستگی و فشار مالی بسازد.</text>
    <text x="171" y="24" text-anchor="end" class="small">خطر: یا فقر و رهاشدگی، یا رفاهِ ناکارآمد و ناپایدار.</text>
    <text x="171" y="32" text-anchor="end" class="small">راه‌حل: رفاه فعال، هدفمند، پیوند با آموزش و اشتغال.</text>
    <text x="171" y="41" text-anchor="end" class="tiny">روایت: تور نجات لازم است؛ اما اگر نردبان خروج نباشد، وابستگی
      مزمن می‌شود.</text>
    <text x="171" y="49" text-anchor="end" class="mono">Welfare needs empowerment</text>
  </g>

  <g transform="translate(402,504)">
    <rect width="86" height="56" rx="5" fill="#fff1f2" stroke="#fda4af" />
    <text x="80" y="8" text-anchor="end" class="cardtitle">انقلاب و اصلاحات</text>
    <text x="80" y="16" text-anchor="end" class="small">انقلاب برای رهایی</text>
    <text x="80" y="21" text-anchor="end" class="small">می‌آید، اما ممکن است</text>
    <text x="80" y="26" text-anchor="end" class="small">اقتدار تازه‌ای بسازد؛</text>
    <text x="80" y="31" text-anchor="end" class="small">اصلاحات هم اگر کند یا</text>
    <text x="80" y="36" text-anchor="end" class="small">شتاب‌زده باشد مشکل‌زاست.</text>
    <text x="80" y="46" text-anchor="end" class="tiny">راه‌حل: توالی‌گذاری،</text>
    <text x="80" y="51" text-anchor="end" class="tiny">نهادسازی، جبران</text>

    <rect x="92" width="86" height="56" rx="5" fill="#ecfeff" stroke="#67e8f9" />
    <text x="172" y="8" text-anchor="end" class="cardtitle">فدرالیسم و خودمختاری</text>
    <text x="172" y="16" text-anchor="end" class="small">خودگردانی می‌تواند</text>
    <text x="172" y="21" text-anchor="end" class="small">هم مدیریت تنوع باشد</text>
    <text x="172" y="26" text-anchor="end" class="small">و هم ظرفیت واگرایی</text>
    <text x="172" y="31" text-anchor="end" class="small">یا مطالبه‌افزایی بسازد.</text>
    <text x="172" y="46" text-anchor="end" class="tiny">راه‌حل: صلاحیت روشن،</text>
    <text x="172" y="51" text-anchor="end" class="tiny">داوری، ترتیبات مالی</text>
  </g>

  <g transform="translate(402,566)">
    <rect width="178" height="78" rx="5" fill="#f8fafc" stroke="#cbd5e1" />
    <text x="171" y="10" text-anchor="end" class="cardtitle">جمع‌بندی این ستون</text>
    <text x="171" y="20" text-anchor="end" class="body">مسئله فقط «قدرت بیشتر یا کمتر» نیست؛ بلکه «قدرتِ مهارشده،
      پاسخ‌گو و قابل‌داوری» است.</text>
    <text x="171" y="30" text-anchor="end" class="body">در اقتصاد، آزادی بدون ضدانحصار می‌تواند ضدآزادی شود. </text>
    <text x="171" y="40" text-anchor="end" class="body">در فدرالیسم، خودگردانی هم ابزار ماندن است و هم گاهی سکوی
      جداشدن.</text>
    <text x="171" y="50" text-anchor="end" class="small">در صلح و گذار هم پاسخ‌های ناب کم‌اند: باید میان عدالت، ثبات،
      پاسخ‌گویی و آشتی تعادل ساخت.</text>
    <text x="171" y="60" text-anchor="end" class="tiny">کلید فهم: «دولت ضعیف» همیشه «آزادتر» نیست، و «قدرت زیاد» همیشه
      «کارآمدتر» نیست؛ کیفیت مهار و طراحی مهم‌تر است.</text>
    <text x="171" y="72" text-anchor="end" class="mono">Capacity + accountability + rights + arbitration</text>
  </g>

  <!-- KNOWLEDGE LAYER -->
  <rect x="10" y="666" width="574" height="82" rx="8" fill="#ffffff" stroke="#e2e8f0" filter="url(#shadow)" />
  <text x="574" y="676" text-anchor="end" class="section">لایهٔ دانش فشرده: تعریف کوتاه | خطر افراط | راه‌حل
    نهادی</text>

  <rect x="14" y="684" width="78" height="11" rx="3" fill="#e2e8f0" />
  <rect x="96" y="684" width="184" height="11" rx="3" fill="#e2e8f0" />
  <rect x="284" y="684" width="128" height="11" rx="3" fill="#e2e8f0" />
  <rect x="416" y="684" width="164" height="11" rx="3" fill="#e2e8f0" />

  <text x="88" y="691.5" text-anchor="end" class="label">نام</text>
  <text x="274" y="691.5" text-anchor="end" class="label">تعریف کوتاه</text>
  <text x="406" y="691.5" text-anchor="end" class="label">خطر افراط</text>
  <text x="573" y="691.5" text-anchor="end" class="label">راه‌حل نهادی رایج</text>

  <text x="88" y="705" text-anchor="end" class="small">رواداری</text>
  <text x="274" y="705" text-anchor="end" class="small">رواداری مطلق می‌تواند ضدرواداری را تقویت کند</text>
  <text x="406" y="705" text-anchor="end" class="small">نابودی جامعه باز</text>
  <text x="573" y="705" text-anchor="end" class="small">دفاع از قانون اساسی، منع تحریک خشونت</text>

  <text x="88" y="717" text-anchor="end" class="small">آزادی</text>
  <text x="274" y="717" text-anchor="end" class="small">آزادی بی‌حد می‌تواند سلطه بسازد</text>
  <text x="406" y="717" text-anchor="end" class="small">استثمار و ارعاب</text>
  <text x="573" y="717" text-anchor="end" class="small">حقوق بنیادین، قانون، ضدسلطه</text>

  <text x="88" y="729" text-anchor="end" class="small">دموکراسی</text>
  <text x="274" y="729" text-anchor="end" class="small">رأی‌گیری می‌تواند ضددموکراتیک شود</text>
  <text x="406" y="729" text-anchor="end" class="small">تخریب رقابت سیاسی</text>
  <text x="573" y="729" text-anchor="end" class="small">تفکیک قوا، قضا، رسانه، حقوق</text>

  <text x="88" y="741" text-anchor="end" class="small">اکثریت</text>
  <text x="274" y="741" text-anchor="end" class="small">اکثریتِ بی‌مهار اقلیت را می‌فشارد</text>
  <text x="406" y="741" text-anchor="end" class="small">استبداد اکثریت</text>
  <text x="573" y="741" text-anchor="end" class="small">منشور حقوق، دادگاه، فدرالیسم</text>

  <!-- BOTTOM ROW -->
  <rect x="10" y="756" width="214" height="75" rx="8" fill="#ffffff" stroke="#e2e8f0" filter="url(#shadow)" />
  <text x="216" y="766" text-anchor="end" class="section">طیف‌های محوری</text>

  <text x="208" y="781" text-anchor="end" class="sidelabel">آزادی</text>
  <line x1="62" y1="778" x2="158" y2="778" stroke="#93c5fd" stroke-width="4.2" stroke-linecap="round" />
  <circle cx="112" cy="778" r="4" fill="#2563eb" />
  <text x="54" y="781" text-anchor="end" class="sidelabel">نظم / قانون</text>

  <text x="208" y="796" text-anchor="end" class="sidelabel">اکثریت</text>
  <line x1="62" y1="793" x2="158" y2="793" stroke="#c4b5fd" stroke-width="4.2" stroke-linecap="round" />
  <circle cx="118" cy="793" r="4" fill="#7c3aed" />
  <text x="54" y="796" text-anchor="end" class="sidelabel">حقوق اقلیت</text>

  <text x="208" y="811" text-anchor="end" class="sidelabel">خودمختاری</text>
  <line x1="62" y1="808" x2="158" y2="808" stroke="#67e8f9" stroke-width="4.2" stroke-linecap="round" />
  <circle cx="122" cy="808" r="4" fill="#0891b2" />
  <text x="54" y="811" text-anchor="end" class="sidelabel">وحدت / هماهنگی</text>

  <text x="216" y="824" text-anchor="end" class="tiny">هیچ نقطهٔ کاملاً بی‌هزینه‌ای وجود ندارد؛ هر جامعه‌ای مصالحه‌ای
    متفاوت می‌سازد.</text>

  <!-- paradox concept box -->
  <rect x="232" y="756" width="128" height="75" rx="8" fill="#ffffff" stroke="#e2e8f0" filter="url(#shadow)" />
  <text x="352" y="766" text-anchor="end" class="section">مفهوم پارادوکس</text>
  <use href="#i-paradox" x="242" y="778" />
  <text x="352" y="785" text-anchor="end" class="body">یک اصل خوب</text>
  <text x="352" y="795" text-anchor="end" class="body">اگر بی‌مهار و بی‌قید اجرا شود،</text>
  <text x="352" y="805" text-anchor="end" class="body">ممکن است بر ضدِ خود عمل کند</text>
  <text x="352" y="816" text-anchor="end" class="small">اصل خوب → افراط → خودتخریبی</text>
  <text x="352" y="825" text-anchor="end" class="mono">good principle → excess → self-undermining</text>

  <!-- narratives smaller -->
  <rect x="368" y="756" width="216" height="75" rx="8" fill="#ffffff" stroke="#e2e8f0" filter="url(#shadow)" />
  <text x="576" y="766" text-anchor="end" class="section">روایت‌های تصویری کوتاه</text>

  <use href="#i-liberty" x="374" y="772" />
  <text x="572" y="779" text-anchor="end" class="body">خانهٔ باز: درِ باز برای آتش‌افروز، خودِ خانهٔ باز را از بین
    می‌برد. ← رواداری</text>

  <use href="#i-vote" x="374" y="787" />
  <text x="572" y="794" text-anchor="end" class="body">صندوق رأی: می‌توان به کسی رأی داد که بعداً صندوق را بی‌معنا کند.
    ← دموکراسی</text>

  <use href="#i-market" x="374" y="802" />
  <text x="572" y="809" text-anchor="end" class="body">بازار: آزادی رقابت اگر به انحصار برسد، دیگر رقابت نیست. ← بازار
    آزاد</text>

  <use href="#i-map" x="374" y="817" />
  <text x="572" y="824" text-anchor="end" class="body">نقشه: خودگردانی می‌تواند هم راهِ ماندن باشد و هم سکوی جداشدن. ←
    فدرالیسم/خودمختاری</text>
</svg>