<svg xmlns="http://www.w3.org/2000/svg" viewBox="0 0 1920 1080" dir="rtl">
<defs>
  <style>
    @import url('https://fonts.googleapis.com/css2?family=Vazirmatn:wght@100;300;400;500;700;900&amp;display=swap');
    * { font-family: 'Vazirmatn', sans-serif; }
    .bg { fill: #0a0e27; }
    .title { fill: #fff; font-size: 32px; font-weight: 900; text-anchor: middle; }
    .subtitle { fill: #d4af37; font-size: 16px; font-weight: 400; text-anchor: middle; }
    .glass { rx:14; fill:rgba(255,255,255,0.04); stroke:rgba(255,255,255,0.08); stroke-width:1; }
    .note-box { fill: rgba(212,175,55,0.06); stroke: rgba(212,175,55,0.15); stroke-width:1; rx:10; }
    .prov-name { fill: #fff; font-size: 11px; font-weight: 700; text-anchor: middle; }
    .prov-num { fill: rgba(255,255,255,0.8); font-size: 10px; text-anchor: middle; }
    .legend-label { fill: rgba(255,255,255,0.7); font-size: 11px; }
    .rank-num { fill: #d4af37; font-size: 14px; font-weight: 900; }
    .rank-name { fill: #fff; font-size: 13px; font-weight: 600; }
    .rank-val { fill: rgba(255,255,255,0.6); font-size: 12px; }
    .rank-bar { rx: 3; }
  </style>
  <filter id="sh"><feDropShadow dx="0" dy="3" stdDeviation="8" flood-color="#000" flood-opacity="0.4"/></filter>
  <filter id="glow-hot">
    <feGaussianBlur stdDeviation="6" result="b"/>
    <feFlood flood-color="#e74c3c" flood-opacity="0.4"/>
    <feComposite in2="b" operator="in"/>
    <feMerge><feMergeNode/><feMergeNode in="SourceGraphic"/></feMerge>
  </filter>
  <filter id="glow-med">
    <feGaussianBlur stdDeviation="4" result="b"/>
    <feFlood flood-color="#ff9800" flood-opacity="0.3"/>
    <feComposite in2="b" operator="in"/>
    <feMerge><feMergeNode/><feMergeNode in="SourceGraphic"/></feMerge>
  </filter>
</defs>

<rect class="bg" width="1920" height="1080"/>

<!-- Header -->
<text x="960" y="42" class="title">نقشه تلفات غیرنظامی عراق بر اساس استان</text>
<text x="960" y="68" class="subtitle">مجموع کشته‌های غیرنظامی ۲۰۰۳–۲۰۲۳ — توزیع جغرافیایی خشونت</text>
<line x1="250" y1="84" x2="1670" y2="84" stroke="#d4af37" stroke-width="1" opacity="0.3"/>

<!-- ══════════════════════════════════════ -->
<!-- LEFT: STYLIZED MAP OF IRAQ             -->
<!-- Simplified province shapes as polygons -->
<!-- Center of map: ~550, 500               -->
<!-- ══════════════════════════════════════ -->
<rect x="60" y="95" width="960" height="780" class="glass" filter="url(#sh)"/>

<!-- Country outline (simplified) -->
<!-- Iraq rough shape: wider in west, narrowing to south -->
<path d="M 250,160 L 480,140 L 620,150 L 750,180 L 820,250 L 830,350 L 810,450 L 780,550 L 760,650 L 720,720 L 660,760 L 600,780 L 540,800 L 500,810 L 440,790 L 380,750 L 320,680 L 280,580 L 260,480 L 240,380 L 235,280 Z"
  fill="none" stroke="rgba(255,255,255,0.15)" stroke-width="2"/>

<!-- ═══════════════════ -->
<!-- PROVINCE BUBBLES    -->
<!-- Size = casualties   -->
<!-- Color = intensity   -->
<!-- ═══════════════════ -->

<!-- 1. BAGHDAD — ~75,000 casualties (LARGEST) -->
<circle cx="580" cy="420" r="65" fill="rgba(231,76,60,0.25)" stroke="#e74c3c" stroke-width="2" filter="url(#glow-hot)"/>
<circle cx="580" cy="420" r="40" fill="rgba(231,76,60,0.35)"/>
<text x="580" y="410" class="prov-name" font-size="14" fill="#fff">بغداد</text>
<text x="580" y="428" class="prov-num" fill="#e74c3c" font-weight="700" font-size="13">~۷۵,۰۰۰</text>
<text x="580" y="443" fill="rgba(255,255,255,0.4)" font-size="9" text-anchor="middle">۳۵% کل تلفات</text>

<!-- 2. ANBAR — ~28,000 -->
<circle cx="360" cy="380" r="45" fill="rgba(231,76,60,0.2)" stroke="#e74c3c" stroke-width="1.5" filter="url(#glow-hot)"/>
<circle cx="360" cy="380" r="28" fill="rgba(231,76,60,0.3)"/>
<text x="360" y="374" class="prov-name">الانبار</text>
<text x="360" y="390" class="prov-num" fill="#e74c3c" font-weight="700">~۲۸,۰۰۰</text>

<!-- 3. NINEVEH (Mosul) — ~25,000 -->
<circle cx="520" cy="210" r="42" fill="rgba(231,76,60,0.2)" stroke="#e74c3c" stroke-width="1.5" filter="url(#glow-hot)"/>
<circle cx="520" cy="210" r="26" fill="rgba(231,76,60,0.3)"/>
<text x="520" y="204" class="prov-name">نینوا</text>
<text x="520" y="220" class="prov-num" fill="#e74c3c" font-weight="700">~۲۵,۰۰۰</text>

<!-- 4. DIYALA — ~15,000 -->
<circle cx="680" cy="340" r="33" fill="rgba(255,152,0,0.2)" stroke="#ff9800" stroke-width="1.5" filter="url(#glow-med)"/>
<circle cx="680" cy="340" r="20" fill="rgba(255,152,0,0.25)"/>
<text x="680" y="335" class="prov-name">دیالی</text>
<text x="680" y="350" class="prov-num" fill="#ff9800" font-weight="700">~۱۵,۰۰۰</text>

<!-- 5. SALADIN — ~12,000 -->
<circle cx="560" cy="300" r="30" fill="rgba(255,152,0,0.18)" stroke="#ff9800" stroke-width="1.5"/>
<circle cx="560" cy="300" r="18" fill="rgba(255,152,0,0.22)"/>
<text x="560" y="295" class="prov-name">صلاح‌الدین</text>
<text x="560" y="310" class="prov-num" fill="#ff9800" font-weight="700">~۱۲,۰۰۰</text>

<!-- 6. KIRKUK — ~8,000 -->
<circle cx="620" cy="260" r="25" fill="rgba(255,152,0,0.15)" stroke="#ff9800" stroke-width="1"/>
<circle cx="620" cy="260" r="15" fill="rgba(255,152,0,0.2)"/>
<text x="620" y="256" class="prov-name" font-size="10">کرکوک</text>
<text x="620" y="270" class="prov-num" fill="#ff9800">~۸,۰۰۰</text>

<!-- 7. BABEL — ~8,000 -->
<circle cx="540" cy="500" r="24" fill="rgba(255,152,0,0.15)" stroke="#ff9800" stroke-width="1"/>
<circle cx="540" cy="500" r="14" fill="rgba(255,152,0,0.2)"/>
<text x="540" y="496" class="prov-name" font-size="10">بابل</text>
<text x="540" y="510" class="prov-num" fill="#ff9800">~۸,۰۰۰</text>

<!-- 8. BASRA — ~6,000 -->
<circle cx="580" cy="730" r="22" fill="rgba(0,180,216,0.15)" stroke="#00b4d8" stroke-width="1"/>
<circle cx="580" cy="730" r="13" fill="rgba(0,180,216,0.2)"/>
<text x="580" y="726" class="prov-name" font-size="10">بصره</text>
<text x="580" y="740" class="prov-num" fill="#00b4d8">~۶,۰۰۰</text>

<!-- 9. KARBALA — ~4,000 -->
<circle cx="460" cy="490" r="18" fill="rgba(0,180,216,0.12)" stroke="#00b4d8" stroke-width="1"/>
<text x="460" y="487" class="prov-name" font-size="9">کربلا</text>
<text x="460" y="500" class="prov-num" fill="#00b4d8" font-size="9">~۴,۰۰۰</text>

<!-- 10. WASIT — ~3,500 -->
<circle cx="650" cy="520" r="16" fill="rgba(0,180,216,0.1)" stroke="#00b4d8" stroke-width="1"/>
<text x="650" y="517" class="prov-name" font-size="9">واسط</text>
<text x="650" y="530" class="prov-num" fill="#00b4d8" font-size="9">~۳,۵۰۰</text>

<!-- 11. NAJAF — ~3,000 -->
<circle cx="420" cy="560" r="15" fill="rgba(0,180,216,0.1)" stroke="#00b4d8" stroke-width="1"/>
<text x="420" y="557" class="prov-name" font-size="9">نجف</text>
<text x="420" y="570" class="prov-num" fill="#00b4d8" font-size="9">~۳,۰۰۰</text>

<!-- 12. THI QAR — ~2,500 -->
<circle cx="540" cy="640" r="14" fill="rgba(46,204,113,0.1)" stroke="rgba(46,204,113,0.3)" stroke-width="1"/>
<text x="540" y="637" class="prov-name" font-size="9">ذی‌قار</text>
<text x="540" y="650" class="prov-num" fill="#2ecc71" font-size="9">~۲,۵۰۰</text>

<!-- 13. MAYSAN — ~2,000 -->
<circle cx="680" cy="620" r="12" fill="rgba(46,204,113,0.08)" stroke="rgba(46,204,113,0.2)" stroke-width="1"/>
<text x="680" y="617" class="prov-name" font-size="8">میسان</text>
<text x="680" y="629" class="prov-num" fill="#2ecc71" font-size="9">~۲,۰۰۰</text>

<!-- 14. MUTHANNA — ~1,000 -->
<circle cx="440" cy="680" r="10" fill="rgba(46,204,113,0.06)" stroke="rgba(46,204,113,0.15)" stroke-width="1"/>
<text x="440" y="700" class="prov-name" font-size="8">مثنی</text>

<!-- 15. KURDISTAN REGION (Erbil/Sulaymaniyah/Duhok) — ~2,000 total -->
<circle cx="650" cy="190" r="14" fill="rgba(46,204,113,0.1)" stroke="rgba(46,204,113,0.25)" stroke-width="1"/>
<text x="650" y="188" class="prov-name" font-size="9">اربیل</text>
<text x="650" y="200" class="prov-num" fill="#2ecc71" font-size="9">~۸۰۰</text>

<circle cx="720" cy="230" r="12" fill="rgba(46,204,113,0.08)" stroke="rgba(46,204,113,0.2)" stroke-width="1"/>
<text x="720" y="228" class="prov-name" font-size="8">سلیمانیه</text>
<text x="720" y="240" class="prov-num" fill="#2ecc71" font-size="8">~۶۰۰</text>

<circle cx="460" cy="190" r="11" fill="rgba(46,204,113,0.06)" stroke="rgba(46,204,113,0.15)" stroke-width="1"/>
<text x="460" y="188" class="prov-name" font-size="8">دهوک</text>
<text x="460" y="200" class="prov-num" fill="#2ecc71" font-size="8">~۴۰۰</text>

<!-- Map legend -->
<g transform="translate(120,790)">
  <text x="0" y="0" fill="#d4af37" font-size="13" font-weight="600">اندازه دایره = تعداد تلفات نسبی</text>
  <circle cx="15" cy="22" r="8" fill="rgba(231,76,60,0.3)" stroke="#e74c3c" stroke-width="1"/>
  <text x="30" y="27" class="legend-label" fill="#e74c3c">بحرانی (۲۰K+)</text>
  <circle cx="175" cy="22" r="8" fill="rgba(255,152,0,0.2)" stroke="#ff9800" stroke-width="1"/>
  <text x="190" y="27" class="legend-label" fill="#ff9800">بالا (۵K–۲۰K)</text>
  <circle cx="315" cy="22" r="8" fill="rgba(0,180,216,0.15)" stroke="#00b4d8" stroke-width="1"/>
  <text x="330" y="27" class="legend-label" fill="#00b4d8">متوسط (۲K–۵K)</text>
  <circle cx="465" cy="22" r="8" fill="rgba(46,204,113,0.1)" stroke="#2ecc71" stroke-width="1"/>
  <text x="480" y="27" class="legend-label" fill="#2ecc71">پایین (&lt;۲K)</text>
</g>

<!-- Neighboring countries labels -->
<text x="280" y="150" fill="rgba(255,255,255,0.15)" font-size="14" font-weight="300" text-anchor="middle">سوریه</text>
<text x="830" y="180" fill="rgba(255,255,255,0.15)" font-size="14" font-weight="300" text-anchor="middle">ایران</text>
<text x="300" y="750" fill="rgba(255,255,255,0.15)" font-size="14" font-weight="300" text-anchor="middle">عربستان</text>
<text x="700" y="800" fill="rgba(255,255,255,0.15)" font-size="12" font-weight="300" text-anchor="middle">کویت</text>
<text x="400" y="170" fill="rgba(255,255,255,0.15)" font-size="14" font-weight="300" text-anchor="middle">ترکیه</text>

<!-- ══════════════════════════════════════ -->
<!-- RIGHT PANEL: Rankings + Analysis       -->
<!-- ══════════════════════════════════════ -->
<rect x="1050" y="95" width="810" height="780" class="glass" filter="url(#sh)"/>

<text x="1455" y="130" fill="#d4af37" font-size="18" font-weight="700" text-anchor="middle">رتبه‌بندی استان‌ها بر اساس تلفات</text>
<line x1="1080" y1="145" x2="1830" y2="145" stroke="rgba(255,255,255,0.06)" stroke-width="1"/>

<!-- Ranking bars (max width = 650px for Baghdad ~75K) -->
<!-- Scale: 75000 → 650px → 0.00867 px per casualty -->

<!-- 1. Baghdad -->
<g transform="translate(1080,160)">
  <text x="0" y="18" class="rank-num">۱.</text>
  <text x="30" y="18" class="rank-name">بغداد</text>
  <rect x="120" y="4" width="650" height="20" rx="3" fill="rgba(255,255,255,0.04)"/>
  <rect x="120" y="4" width="650" height="20" rx="3" fill="rgba(231,76,60,0.5)"/>
  <text x="660" y="19" class="rank-val" fill="#e74c3c" font-weight="700">~۷۵,۰۰۰</text>
  <text x="120" y="38" fill="rgba(255,255,255,0.3)" font-size="9">بمب‌گذاری بازارها، مساجد، تجمعات | ۳۵% کل تلفات ملی</text>
</g>

<!-- 2. Anbar -->
<g transform="translate(1080,210)">
  <text x="0" y="18" class="rank-num">۲.</text>
  <text x="30" y="18" class="rank-name">الانبار</text>
  <rect x="120" y="4" width="650" height="20" rx="3" fill="rgba(255,255,255,0.04)"/>
  <rect x="120" y="4" width="243" height="20" rx="3" fill="rgba(231,76,60,0.45)"/>
  <text x="373" y="19" class="rank-val" fill="#e74c3c">~۲۸,۰۰۰</text>
  <text x="120" y="38" fill="rgba(255,255,255,0.3)" font-size="9">فلوجه ۲۰۰۴ + رمادی + عملیات ضد داعش</text>
</g>

<!-- 3. Nineveh -->
<g transform="translate(1080,260)">
  <text x="0" y="18" class="rank-num">۳.</text>
  <text x="30" y="18" class="rank-name">نینوا (موصل)</text>
  <rect x="120" y="4" width="650" height="20" rx="3" fill="rgba(255,255,255,0.04)"/>
  <rect x="120" y="4" width="217" height="20" rx="3" fill="rgba(231,76,60,0.4)"/>
  <text x="347" y="19" class="rank-val" fill="#e74c3c">~۲۵,۰۰۰</text>
  <text x="120" y="38" fill="rgba(255,255,255,0.3)" font-size="9">اشغال داعش ۲۰۱۴–۱۷ + نبرد آزادسازی ویرانگر</text>
</g>

<!-- 4. Diyala -->
<g transform="translate(1080,310)">
  <text x="0" y="18" class="rank-num">۴.</text>
  <text x="30" y="18" class="rank-name">دیالی</text>
  <rect x="120" y="4" width="650" height="20" rx="3" fill="rgba(255,255,255,0.04)"/>
  <rect x="120" y="4" width="130" height="20" rx="3" fill="rgba(255,152,0,0.4)"/>
  <text x="260" y="19" class="rank-val" fill="#ff9800">~۱۵,۰۰۰</text>
  <text x="120" y="38" fill="rgba(255,255,255,0.3)" font-size="9">خط مقدم فرقه‌ای شیعه-سنی</text>
</g>

<!-- 5. Saladin -->
<g transform="translate(1080,360)">
  <text x="0" y="18" class="rank-num">۵.</text>
  <text x="30" y="18" class="rank-name">صلاح‌الدین</text>
  <rect x="120" y="4" width="650" height="20" rx="3" fill="rgba(255,255,255,0.04)"/>
  <rect x="120" y="4" width="104" height="20" rx="3" fill="rgba(255,152,0,0.35)"/>
  <text x="234" y="19" class="rank-val" fill="#ff9800">~۱۲,۰۰۰</text>
  <text x="120" y="38" fill="rgba(255,255,255,0.3)" font-size="9">تکریت + اسپایکر (قتل‌عام ۱,۷۰۰ سرباز)</text>
</g>

<!-- 6-10 compact -->
<g transform="translate(1080,410)">
  <text x="0" y="18" class="rank-num">۶.</text>
  <text x="30" y="18" class="rank-name" font-size="12">کرکوک</text>
  <rect x="120" y="4" width="69" height="16" rx="3" fill="rgba(255,152,0,0.3)"/>
  <text x="199" y="17" class="rank-val" font-size="11">~۸,۰۰۰</text>
</g>
<g transform="translate(1080,440)">
  <text x="0" y="18" class="rank-num">۷.</text>
  <text x="30" y="18" class="rank-name" font-size="12">بابل</text>
  <rect x="120" y="4" width="69" height="16" rx="3" fill="rgba(255,152,0,0.3)"/>
  <text x="199" y="17" class="rank-val" font-size="11">~۸,۰۰۰</text>
</g>
<g transform="translate(1080,470)">
  <text x="0" y="18" class="rank-num">۸.</text>
  <text x="30" y="18" class="rank-name" font-size="12">بصره</text>
  <rect x="120" y="4" width="52" height="16" rx="3" fill="rgba(0,180,216,0.3)"/>
  <text x="182" y="17" class="rank-val" font-size="11">~۶,۰۰۰</text>
</g>
<g transform="translate(1080,500)">
  <text x="0" y="18" class="rank-num">۹.</text>
  <text x="30" y="18" class="rank-name" font-size="12">کربلا</text>
  <rect x="120" y="4" width="35" height="16" rx="3" fill="rgba(0,180,216,0.25)"/>
  <text x="165" y="17" class="rank-val" font-size="11">~۴,۰۰۰</text>
</g>
<g transform="translate(1080,530)">
  <text x="0" y="18" class="rank-num">۱۰.</text>
  <text x="35" y="18" class="rank-name" font-size="12">واسط</text>
  <rect x="120" y="4" width="30" height="16" rx="3" fill="rgba(0,180,216,0.2)"/>
  <text x="160" y="17" class="rank-val" font-size="11">~۳,۵۰۰</text>
</g>
<g transform="translate(1080,560)">
  <text x="0" y="14" fill="rgba(255,255,255,0.35)" font-size="11">۱۱–۱۸. نجف، ذی‌قار، میسان، مثنی، قادسیه، اربیل، سلیمانیه، دهوک: ~۱۵,۰۰۰ مجموع</text>
</g>

<line x1="1080" y1="585" x2="1830" y2="585" stroke="rgba(255,255,255,0.06)" stroke-width="1"/>

<!-- Key Insights -->
<text x="1455" y="610" fill="#d4af37" font-size="15" font-weight="700" text-anchor="middle">تحلیل الگوی جغرافیایی</text>

<rect x="1080" y="625" width="360" height="65" rx="8" fill="rgba(231,76,60,0.06)" stroke="rgba(231,76,60,0.15)" stroke-width="1"/>
<text x="1260" y="648" fill="#e74c3c" font-size="13" font-weight="700" text-anchor="middle">«مثلث مرگ»: بغداد–انبار–دیالی</text>
<text x="1260" y="668" fill="rgba(255,255,255,0.5)" font-size="11" text-anchor="middle">۵۵% کل تلفات در ۳ استان — خط تماس شیعه/سنی</text>

<rect x="1460" y="625" width="360" height="65" rx="8" fill="rgba(46,204,113,0.06)" stroke="rgba(46,204,113,0.15)" stroke-width="1"/>
<text x="1640" y="648" fill="#2ecc71" font-size="13" font-weight="700" text-anchor="middle">«پناهگاه نسبی»: کردستان</text>
<text x="1640" y="668" fill="rgba(255,255,255,0.5)" font-size="11" text-anchor="middle">فقط ۱% تلفات — خودمختاری = امنیت بیشتر</text>

<rect x="1080" y="700" width="740" height="55" rx="8" fill="rgba(255,152,0,0.06)" stroke="rgba(255,152,0,0.15)" stroke-width="1"/>
<text x="1455" y="722" fill="#ff9800" font-size="13" font-weight="700" text-anchor="middle">موصل ۲۰۱۶–۱۷: آزادسازی شهر = ویرانی ۸۰% بافت قدیم + ≈۱۰,۰۰۰ غیرنظامی</text>
<text x="1455" y="740" fill="rgba(255,255,255,0.4)" font-size="10" text-anchor="middle">ائتلاف آمریکا + ارتش عراق بمباران هوایی سنگین — «آزادسازی» به قیمت ویرانی</text>

<!-- Total box -->
<rect x="1080" y="768" width="740" height="60" rx="8" fill="rgba(231,76,60,0.08)" stroke="rgba(231,76,60,0.25)" stroke-width="1.5"/>
<text x="1455" y="795" fill="#e74c3c" font-size="22" font-weight="900" text-anchor="middle">مجموع: ≈ ۲۰۰,۰۰۰–۲۱۰,۰۰۰ غیرنظامی کشته</text>
<text x="1455" y="816" fill="rgba(255,255,255,0.5)" font-size="11" text-anchor="middle">Iraq Body Count (مستند) + تخمین‌های Lancet و PLOS Medicine</text>

<!-- ══════════════════════════ -->
<!-- BOTTOM INSIGHT BAR         -->
<!-- ══════════════════════════ -->
<rect x="60" y="895" width="1800" height="80" rx="10" class="note-box"/>
<text x="960" y="922" fill="#d4af37" font-size="15" font-weight="700" text-anchor="middle">📌 بغداد به‌تنهایی ۳۵% تلفات کل عراق را متحمل شد — یک شهر، ۷۵,۰۰۰ کشته غیرنظامی</text>
<text x="960" y="945" fill="rgba(255,255,255,0.5)" font-size="12" text-anchor="middle">الگوی واضح: خشونت در «خط تماس فرقه‌ای» متمرکز بود — جایی که شیعه و سنی همسایه بودند</text>
<text x="960" y="965" fill="rgba(255,255,255,0.35)" font-size="11" text-anchor="middle">کردستان عراق با خودمختاری امنیتی، فقط ۱% تلفات ملی را داشت — شاهدی بر نقش حکمرانی محلی</text>

<!-- Footer -->
<text x="60" y="40" fill="rgba(255,255,255,0.3)" font-size="13">SLIDE 21 / 60</text>
<text x="1860" y="40" fill="rgba(255,255,255,0.3)" font-size="13" text-anchor="end">فصل ۶: جغرافیای بحران</text>
<text x="960" y="1065" fill="rgba(255,255,255,0.2)" font-size="11" text-anchor="middle">منابع: Iraq Body Count (IBC), UNAMI Human Rights Reports, Lancet 2006, PLOS Medicine 2013 | ارقام تجمیعی ۲۰۰۳–۲۰۲۳</text>
</svg>
